<svg width="1370" height="444" viewBox="0 0 1370 444" fill="none" xmlns="http://www.w3.org/2000/svg">
<path d="M170.89 153.608C171.274 154.44 171.466 155.272 171.466 156.104C171.466 157.576 170.858 158.824 169.642 159.848C168.49 160.872 167.146 161.384 165.61 161.384C164.586 161.384 163.626 161.128 162.73 160.616C161.834 160.04 161.13 159.176 160.618 158.024L154.858 145.16H121.066L115.306 158.024C114.794 159.176 114.09 160.04 113.194 160.616C112.298 161.128 111.306 161.384 110.218 161.384C108.746 161.384 107.402 160.872 106.186 159.848C104.97 158.824 104.362 157.576 104.362 156.104C104.362 155.272 104.554 154.44 104.938 153.608L131.434 96.68C132.01 95.4 132.874 94.44 134.026 93.8C135.242 93.096 136.522 92.744 137.866 92.744C139.21 92.744 140.458 93.096 141.61 93.8C142.826 94.44 143.722 95.4 144.298 96.68L170.89 153.608ZM125.29 135.56H150.634L137.962 107.048L125.29 135.56ZM247.562 129.32C248.779 129.32 249.771 129.736 250.539 130.568C251.371 131.336 251.787 132.328 251.787 133.544C251.787 134.76 251.371 135.784 250.539 136.616C249.771 137.384 248.779 137.768 247.562 137.768H232.587V152.648C232.587 153.864 232.171 154.888 231.339 155.72C230.571 156.552 229.579 156.968 228.363 156.968C227.147 156.968 226.123 156.552 225.291 155.72C224.523 154.888 224.139 153.864 224.139 152.648V137.768H209.163C207.947 137.768 206.923 137.384 206.091 136.616C205.323 135.784 204.939 134.76 204.939 133.544C204.939 132.328 205.323 131.336 206.091 130.568C206.923 129.736 207.947 129.32 209.163 129.32H224.139V114.344C224.139 113.128 224.523 112.136 225.291 111.368C226.123 110.536 227.147 110.12 228.363 110.12C229.579 110.12 230.571 110.536 231.339 111.368C232.171 112.136 232.587 113.128 232.587 114.344V129.32H247.562ZM333.588 138.152C335.508 138.152 336.948 138.568 337.908 139.4C338.868 140.232 339.348 141.416 339.348 142.952C339.348 146.152 337.428 147.752 333.588 147.752H328.692V155.336C328.692 157.32 328.116 158.856 326.964 159.944C325.876 161.032 324.436 161.576 322.644 161.576C320.852 161.576 319.38 161.032 318.228 159.944C317.14 158.856 316.596 157.32 316.596 155.336V147.752H291.444C289.716 147.752 288.372 147.272 287.412 146.312C286.452 145.288 285.972 144.04 285.972 142.568C285.972 141.032 286.484 139.56 287.508 138.152L317.172 95.528C317.812 94.632 318.612 93.96 319.572 93.512C320.532 93 321.524 92.744 322.548 92.744C324.212 92.744 325.652 93.288 326.868 94.376C328.084 95.464 328.692 97 328.692 98.984V138.152H333.588ZM298.74 138.152H316.596V112.328L298.74 138.152ZM202.895 221.168C201.679 221.168 200.655 220.784 199.823 220.016C199.055 219.184 198.671 218.16 198.671 216.944C198.671 215.728 199.055 214.736 199.823 213.968C200.655 213.136 201.679 212.72 202.895 212.72H241.295C242.511 212.72 243.503 213.136 244.271 213.968C245.103 214.8 245.519 215.824 245.519 217.04C245.519 218.192 245.103 219.184 244.271 220.016C243.503 220.784 242.511 221.168 241.295 221.168H202.895ZM202.895 240.368C201.679 240.368 200.655 239.984 199.823 239.216C199.055 238.384 198.671 237.36 198.671 236.144C198.671 234.928 199.055 233.936 199.823 233.168C200.655 232.336 201.679 231.92 202.895 231.92H241.295C242.511 231.92 243.503 232.336 244.271 233.168C245.103 234 245.519 235.024 245.519 236.24C245.519 237.392 245.103 238.384 244.271 239.216C243.503 239.984 242.511 240.368 241.295 240.368H202.895ZM212.034 337.016C215.874 337.016 217.794 338.648 217.794 341.912C217.794 345.304 215.874 347 212.034 347H179.586C175.682 347 173.73 345.304 173.73 341.912C173.73 338.648 175.682 337.016 179.586 337.016H189.57V293.24L180.354 298.904C179.458 299.416 178.658 299.672 177.954 299.672C176.61 299.672 175.458 299.096 174.498 297.944C173.602 296.792 173.154 295.512 173.154 294.104C173.154 292.248 173.986 290.808 175.65 289.784L190.53 280.568C192.45 279.416 194.274 278.84 196.002 278.84C197.794 278.84 199.234 279.384 200.322 280.472C201.41 281.56 201.954 283.064 201.954 284.984V337.016H212.034ZM250.3 347.864C242.3 347.864 236.188 344.92 231.964 339.032C227.74 333.08 225.628 324.44 225.628 313.112C225.628 301.848 227.74 293.272 231.964 287.384C236.188 281.432 242.3 278.456 250.3 278.456C258.3 278.456 264.412 281.432 268.636 287.384C272.86 293.272 274.972 301.848 274.972 313.112C274.972 324.376 272.86 332.984 268.636 338.936C264.412 344.888 258.3 347.864 250.3 347.864ZM250.3 338.168C254.652 338.168 257.82 336.184 259.804 332.216C261.788 328.184 262.78 321.816 262.78 313.112C262.78 304.344 261.788 298.008 259.804 294.104C257.82 290.136 254.652 288.152 250.3 288.152C245.948 288.152 242.78 290.136 240.796 294.104C238.812 298.072 237.82 304.408 237.82 313.112C237.82 321.816 238.812 328.184 240.796 332.216C242.78 336.184 245.948 338.168 250.3 338.168Z" fill="black"/>
<path d="M618.194 126.056C622.098 127.144 625.106 129.128 627.218 132.008C629.394 134.888 630.482 138.408 630.482 142.568C630.482 148.328 628.402 152.84 624.242 156.104C620.146 159.368 614.482 161 607.25 161H582.482C580.626 161 579.154 160.488 578.066 159.464C577.042 158.44 576.53 157 576.53 155.144V99.176C576.53 97.32 577.042 95.88 578.066 94.856C579.154 93.832 580.626 93.32 582.482 93.32H606.29C613.33 93.32 618.834 94.888 622.802 98.024C626.834 101.096 628.85 105.416 628.85 110.984C628.85 114.568 627.89 117.672 625.97 120.296C624.114 122.92 621.522 124.84 618.194 126.056ZM588.626 121.832H604.274C612.786 121.832 617.042 118.664 617.042 112.328C617.042 109.128 615.986 106.76 613.874 105.224C611.762 103.688 608.562 102.92 604.274 102.92H588.626V121.832ZM605.906 151.4C610.386 151.4 613.65 150.6 615.698 149C617.746 147.4 618.77 144.904 618.77 141.512C618.77 138.12 617.714 135.592 615.602 133.928C613.554 132.264 610.322 131.432 605.906 131.432H588.626V151.4H605.906ZM671.772 140.072C669.916 140.072 668.508 139.656 667.548 138.824C666.652 137.992 666.204 136.84 666.204 135.368C666.204 133.896 666.652 132.744 667.548 131.912C668.508 131.016 669.916 130.568 671.772 130.568H691.548C693.404 130.568 694.78 131.016 695.676 131.912C696.636 132.744 697.116 133.896 697.116 135.368C697.116 136.84 696.636 137.992 695.676 138.824C694.78 139.656 693.404 140.072 691.548 140.072H671.772ZM797.156 153.608C797.54 154.44 797.732 155.272 797.732 156.104C797.732 157.576 797.124 158.824 795.908 159.848C794.756 160.872 793.412 161.384 791.876 161.384C790.852 161.384 789.892 161.128 788.996 160.616C788.1 160.04 787.396 159.176 786.884 158.024L781.124 145.16H747.332L741.572 158.024C741.06 159.176 740.356 160.04 739.46 160.616C738.564 161.128 737.572 161.384 736.484 161.384C735.012 161.384 733.668 160.872 732.452 159.848C731.236 158.824 730.628 157.576 730.628 156.104C730.628 155.272 730.82 154.44 731.204 153.608L757.7 96.68C758.276 95.4 759.14 94.44 760.292 93.8C761.508 93.096 762.788 92.744 764.132 92.744C765.476 92.744 766.724 93.096 767.876 93.8C769.092 94.44 769.988 95.4 770.564 96.68L797.156 153.608ZM751.556 135.56H776.9L764.228 107.048L751.556 135.56ZM665.895 221.168C664.679 221.168 663.655 220.784 662.823 220.016C662.055 219.184 661.671 218.16 661.671 216.944C661.671 215.728 662.055 214.736 662.823 213.968C663.655 213.136 664.679 212.72 665.895 212.72H704.295C705.511 212.72 706.503 213.136 707.271 213.968C708.103 214.8 708.519 215.824 708.519 217.04C708.519 218.192 708.103 219.184 707.271 220.016C706.503 220.784 705.511 221.168 704.295 221.168H665.895ZM665.895 240.368C664.679 240.368 663.655 239.984 662.823 239.216C662.055 238.384 661.671 237.36 661.671 236.144C661.671 234.928 662.055 233.936 662.823 233.168C663.655 232.336 664.679 231.92 665.895 231.92H704.295C705.511 231.92 706.503 232.336 707.271 233.168C708.103 234 708.519 235.024 708.519 236.24C708.519 237.392 708.103 238.384 707.271 239.216C706.503 239.984 705.511 240.368 704.295 240.368H665.895ZM675.034 337.016C678.874 337.016 680.794 338.648 680.794 341.912C680.794 345.304 678.874 347 675.034 347H642.586C638.682 347 636.73 345.304 636.73 341.912C636.73 338.648 638.682 337.016 642.586 337.016H652.57V293.24L643.354 298.904C642.458 299.416 641.658 299.672 640.954 299.672C639.61 299.672 638.458 299.096 637.498 297.944C636.602 296.792 636.154 295.512 636.154 294.104C636.154 292.248 636.986 290.808 638.65 289.784L653.53 280.568C655.45 279.416 657.274 278.84 659.002 278.84C660.794 278.84 662.234 279.384 663.322 280.472C664.41 281.56 664.954 283.064 664.954 284.984V337.016H675.034ZM726.26 312.248C730.228 313.336 733.268 315.32 735.38 318.2C737.556 321.08 738.644 324.6 738.644 328.76C738.644 334.712 736.404 339.384 731.924 342.776C727.444 346.104 721.236 347.768 713.3 347.768C705.364 347.768 699.156 346.104 694.676 342.776C690.196 339.384 687.956 334.712 687.956 328.76C687.956 324.6 689.044 321.08 691.22 318.2C693.396 315.256 696.468 313.272 700.436 312.248C697.044 310.968 694.388 308.984 692.468 306.296C690.548 303.544 689.588 300.344 689.588 296.696C689.588 291.064 691.7 286.616 695.924 283.352C700.148 280.088 705.94 278.456 713.3 278.456C720.66 278.456 726.452 280.088 730.676 283.352C734.9 286.616 737.012 291.064 737.012 296.696C737.012 300.408 736.052 303.64 734.132 306.392C732.212 309.144 729.588 311.096 726.26 312.248ZM713.3 288.152C705.3 288.152 701.3 291.416 701.3 297.944C701.3 301.208 702.292 303.704 704.276 305.432C706.324 307.096 709.332 307.928 713.3 307.928C717.268 307.928 720.244 307.096 722.228 305.432C724.276 303.704 725.3 301.208 725.3 297.944C725.3 291.416 721.3 288.152 713.3 288.152ZM713.3 338.072C722.452 338.072 727.028 334.648 727.028 327.8C727.028 320.952 722.452 317.528 713.3 317.528C704.148 317.528 699.572 320.952 699.572 327.8C699.572 334.648 704.148 338.072 713.3 338.072Z" fill="black"/>
<path d="M1075.77 161.864C1069.24 161.864 1063.51 160.456 1058.59 157.64C1053.72 154.824 1049.98 150.792 1047.35 145.544C1044.73 140.296 1043.42 134.152 1043.42 127.112C1043.42 120.072 1044.73 113.96 1047.35 108.776C1049.98 103.528 1053.72 99.496 1058.59 96.68C1063.51 93.864 1069.24 92.456 1075.77 92.456C1079.99 92.456 1083.96 93.096 1087.67 94.376C1091.39 95.592 1094.68 97.384 1097.56 99.752C1098.39 100.392 1098.97 101.064 1099.29 101.768C1099.61 102.472 1099.77 103.336 1099.77 104.36C1099.77 105.768 1099.39 106.952 1098.62 107.912C1097.85 108.872 1096.92 109.352 1095.83 109.352C1094.55 109.352 1093.24 108.904 1091.9 108.008C1089.15 105.96 1086.59 104.552 1084.22 103.784C1081.85 102.952 1079.23 102.536 1076.35 102.536C1069.69 102.536 1064.63 104.616 1061.18 108.776C1057.79 112.936 1056.09 119.048 1056.09 127.112C1056.09 135.24 1057.79 141.384 1061.18 145.544C1064.63 149.704 1069.69 151.784 1076.35 151.784C1079.1 151.784 1081.63 151.368 1083.93 150.536C1086.3 149.704 1088.95 148.296 1091.9 146.312C1092.54 145.928 1093.18 145.608 1093.82 145.352C1094.46 145.096 1095.13 144.968 1095.83 144.968C1096.92 144.968 1097.85 145.448 1098.62 146.408C1099.39 147.368 1099.77 148.552 1099.77 149.96C1099.77 150.92 1099.61 151.784 1099.29 152.552C1098.97 153.256 1098.39 153.928 1097.56 154.568C1094.68 156.936 1091.39 158.76 1087.67 160.04C1083.96 161.256 1079.99 161.864 1075.77 161.864ZM1137.81 164.264C1137.42 165.48 1136.82 166.376 1135.98 166.952C1135.15 167.528 1134.22 167.816 1133.2 167.816C1131.92 167.816 1130.77 167.368 1129.74 166.472C1128.78 165.64 1128.3 164.552 1128.3 163.208C1128.3 162.632 1128.4 162.056 1128.59 161.48L1150.86 91.688C1151.25 90.472 1151.86 89.576 1152.69 89C1153.52 88.424 1154.45 88.136 1155.47 88.136C1156.75 88.136 1157.87 88.584 1158.83 89.48C1159.86 90.312 1160.37 91.4 1160.37 92.744C1160.37 93.32 1160.27 93.896 1160.08 94.472L1137.81 164.264ZM1254.16 153.608C1254.54 154.44 1254.73 155.272 1254.73 156.104C1254.73 157.576 1254.12 158.824 1252.91 159.848C1251.76 160.872 1250.41 161.384 1248.88 161.384C1247.85 161.384 1246.89 161.128 1246 160.616C1245.1 160.04 1244.4 159.176 1243.88 158.024L1238.12 145.16H1204.33L1198.57 158.024C1198.06 159.176 1197.36 160.04 1196.46 160.616C1195.56 161.128 1194.57 161.384 1193.48 161.384C1192.01 161.384 1190.67 160.872 1189.45 159.848C1188.24 158.824 1187.63 157.576 1187.63 156.104C1187.63 155.272 1187.82 154.44 1188.2 153.608L1214.7 96.68C1215.28 95.4 1216.14 94.44 1217.29 93.8C1218.51 93.096 1219.79 92.744 1221.13 92.744C1222.48 92.744 1223.72 93.096 1224.88 93.8C1226.09 94.44 1226.99 95.4 1227.56 96.68L1254.16 153.608ZM1208.56 135.56H1233.9L1221.23 107.048L1208.56 135.56ZM1128.89 221.168C1127.68 221.168 1126.65 220.784 1125.82 220.016C1125.05 219.184 1124.67 218.16 1124.67 216.944C1124.67 215.728 1125.05 214.736 1125.82 213.968C1126.65 213.136 1127.68 212.72 1128.89 212.72H1167.29C1168.51 212.72 1169.5 213.136 1170.27 213.968C1171.1 214.8 1171.52 215.824 1171.52 217.04C1171.52 218.192 1171.1 219.184 1170.27 220.016C1169.5 220.784 1168.51 221.168 1167.29 221.168H1128.89ZM1128.89 240.368C1127.68 240.368 1126.65 239.984 1125.82 239.216C1125.05 238.384 1124.67 237.36 1124.67 236.144C1124.67 234.928 1125.05 233.936 1125.82 233.168C1126.65 232.336 1127.68 231.92 1128.89 231.92H1167.29C1168.51 231.92 1169.5 232.336 1170.27 233.168C1171.1 234 1171.52 235.024 1171.52 236.24C1171.52 237.392 1171.1 238.384 1170.27 239.216C1169.5 239.984 1168.51 240.368 1167.29 240.368H1128.89ZM1163.69 312.056C1167.6 313.144 1170.61 315.128 1172.72 318.008C1174.89 320.888 1175.98 324.408 1175.98 328.568C1175.98 334.328 1173.9 338.84 1169.74 342.104C1165.65 345.368 1159.98 347 1152.75 347H1127.98C1126.13 347 1124.65 346.488 1123.57 345.464C1122.54 344.44 1122.03 343 1122.03 341.144V285.176C1122.03 283.32 1122.54 281.88 1123.57 280.856C1124.65 279.832 1126.13 279.32 1127.98 279.32H1151.79C1158.83 279.32 1164.33 280.888 1168.3 284.024C1172.33 287.096 1174.35 291.416 1174.35 296.984C1174.35 300.568 1173.39 303.672 1171.47 306.296C1169.61 308.92 1167.02 310.84 1163.69 312.056ZM1134.13 307.832H1149.77C1158.29 307.832 1162.54 304.664 1162.54 298.328C1162.54 295.128 1161.49 292.76 1159.37 291.224C1157.26 289.688 1154.06 288.92 1149.77 288.92H1134.13V307.832ZM1151.41 337.4C1155.89 337.4 1159.15 336.6 1161.2 335C1163.25 333.4 1164.27 330.904 1164.27 327.512C1164.27 324.12 1163.21 321.592 1161.1 319.928C1159.05 318.264 1155.82 317.432 1151.41 317.432H1134.13V337.4H1151.41Z" fill="black"/>
<mask id="mask0_298_215" style="mask-type:luminance" maskUnits="userSpaceOnUse" x="0" y="0" width="444" height="444">
<path d="M0 0H443.672V443.672H0V0Z" fill="white"/>
</mask>
<g mask="url(#mask0_298_215)">
<path d="M0 0H443.672V443.672H0V0Z" stroke="black" stroke-width="12"/>
</g>
<mask id="mask1_298_215" style="mask-type:luminance" maskUnits="userSpaceOnUse" x="463" y="0" width="444" height="444">
<path d="M463.051 0H906.723V443.672H463.051V0Z" fill="white"/>
</mask>
<g mask="url(#mask1_298_215)">
<path d="M463.051 0H906.723V443.672H463.051V0Z" stroke="black" stroke-width="12"/>
</g>
<mask id="mask2_298_215" style="mask-type:luminance" maskUnits="userSpaceOnUse" x="925" y="0" width="445" height="444">
<path d="M925.906 0H1369.58V443.672H925.906V0Z" fill="white"/>
</mask>
<g mask="url(#mask2_298_215)">
<path d="M925.906 0H1369.58V443.672H925.906V0Z" stroke="black" stroke-width="12"/>
</g>
</svg>
