<svg xmlns="http://www.w3.org/2000/svg" xmlns:xlink="http://www.w3.org/1999/xlink" width="1370" zoomAndPan="magnify" viewBox="0 0 1027.5 332.999992" height="444" preserveAspectRatio="xMidYMid meet" version="1.0"><defs><g/><clipPath id="57a8b097b8"><path d="M 0 0.0820312 L 332.59375 0.0820312 L 332.59375 332.671875 L 0 332.671875 Z M 0 0.0820312 " clip-rule="nonzero"/></clipPath><clipPath id="30b1ad9253"><path d="M 347.121094 0.0820312 L 679.714844 0.0820312 L 679.714844 332.671875 L 347.121094 332.671875 Z M 347.121094 0.0820312 " clip-rule="nonzero"/></clipPath><clipPath id="f699054483"><path d="M 694.089844 0.0820312 L 1026.683594 0.0820312 L 1026.683594 332.671875 L 694.089844 332.671875 Z M 694.089844 0.0820312 " clip-rule="nonzero"/></clipPath></defs><g clip-path="url(#57a8b097b8)"><path stroke-linecap="butt" transform="matrix(0.749635, 0, 0, 0.749635, -0.000000000000042612, 0.0809785)" fill="none" stroke-linejoin="miter" d="M 0.000000000000056843 0.00140436 L 443.674147 0.00140436 L 443.674147 443.67034 L 0.000000000000056843 443.67034 Z M 0.000000000000056843 0.00140436 " stroke="#000000" stroke-width="12" stroke-opacity="1" stroke-miterlimit="4"/></g><g clip-path="url(#30b1ad9253)"><path stroke-linecap="butt" transform="matrix(0.749635, 0, 0, 0.749635, 347.121558, 0.0809785)" fill="none" stroke-linejoin="miter" d="M -0.000619207 0.00140436 L 443.673527 0.00140436 L 443.673527 443.67034 L -0.000619207 443.67034 Z M -0.000619207 0.00140436 " stroke="#000000" stroke-width="12" stroke-opacity="1" stroke-miterlimit="4"/></g><g clip-path="url(#f699054483)"><path stroke-linecap="butt" transform="matrix(0.749635, 0, 0, 0.749635, 694.09055, 0.0809785)" fill="none" stroke-linejoin="miter" d="M -0.000942267 0.00140436 L 443.673204 0.00140436 L 443.673204 443.67034 L -0.000942267 443.67034 Z M -0.000942267 0.00140436 " stroke="#000000" stroke-width="12" stroke-opacity="1" stroke-miterlimit="4"/></g><g fill="#000000" fill-opacity="1"><g transform="translate(71.958498, 124.025338)"><g><path d="M 5.75 0.546875 C 4.65625 0.546875 3.773438 0.296875 3.109375 -0.203125 C 2.453125 -0.703125 2.054688 -1.375 1.921875 -2.21875 C 1.785156 -3.0625 1.941406 -4.007812 2.390625 -5.0625 L 20.46875 -45.09375 C 21.0625 -46.414062 21.78125 -47.363281 22.625 -47.9375 C 23.46875 -48.507812 24.4375 -48.796875 25.53125 -48.796875 C 26.570312 -48.796875 27.515625 -48.507812 28.359375 -47.9375 C 29.210938 -47.363281 29.929688 -46.414062 30.515625 -45.09375 L 48.65625 -5.0625 C 49.15625 -4.007812 49.335938 -3.050781 49.203125 -2.1875 C 49.066406 -1.320312 48.675781 -0.648438 48.03125 -0.171875 C 47.394531 0.304688 46.554688 0.546875 45.515625 0.546875 C 44.234375 0.546875 43.238281 0.238281 42.53125 -0.375 C 41.820312 -0.988281 41.195312 -1.9375 40.65625 -3.21875 L 36.203125 -13.546875 L 39.90625 -11.15625 L 11.015625 -11.15625 L 14.71875 -13.546875 L 10.328125 -3.21875 C 9.734375 -1.894531 9.117188 -0.9375 8.484375 -0.34375 C 7.847656 0.25 6.9375 0.546875 5.75 0.546875 Z M 25.390625 -38.734375 L 15.8125 -15.953125 L 14.03125 -18.140625 L 36.890625 -18.140625 L 35.171875 -15.953125 L 25.53125 -38.734375 Z M 25.390625 -38.734375 "/></g></g></g><g fill="#000000" fill-opacity="1"><g transform="translate(122.868617, 124.025338)"><g/></g></g><g fill="#000000" fill-opacity="1"><g transform="translate(141.412491, 124.025338)"><g><path d="M 20.53125 -2.1875 C 19.53125 -2.1875 18.753906 -2.472656 18.203125 -3.046875 C 17.660156 -3.617188 17.390625 -4.40625 17.390625 -5.40625 L 17.390625 -16.625 L 6.359375 -16.625 C 5.398438 -16.625 4.644531 -16.882812 4.09375 -17.40625 C 3.550781 -17.9375 3.28125 -18.679688 3.28125 -19.640625 C 3.28125 -20.597656 3.550781 -21.335938 4.09375 -21.859375 C 4.644531 -22.390625 5.398438 -22.65625 6.359375 -22.65625 L 17.390625 -22.65625 L 17.390625 -33.53125 C 17.390625 -34.539062 17.660156 -35.316406 18.203125 -35.859375 C 18.753906 -36.410156 19.550781 -36.6875 20.59375 -36.6875 C 21.601562 -36.6875 22.367188 -36.410156 22.890625 -35.859375 C 23.410156 -35.316406 23.671875 -34.539062 23.671875 -33.53125 L 23.671875 -22.65625 L 34.703125 -22.65625 C 35.703125 -22.65625 36.460938 -22.390625 36.984375 -21.859375 C 37.515625 -21.335938 37.78125 -20.597656 37.78125 -19.640625 C 37.78125 -18.679688 37.515625 -17.9375 36.984375 -17.40625 C 36.460938 -16.882812 35.703125 -16.625 34.703125 -16.625 L 23.671875 -16.625 L 23.671875 -5.40625 C 23.671875 -4.40625 23.410156 -3.617188 22.890625 -3.046875 C 22.367188 -2.472656 21.582031 -2.1875 20.53125 -2.1875 Z M 20.53125 -2.1875 "/></g></g></g><g fill="#000000" fill-opacity="1"><g transform="translate(182.469041, 124.025338)"><g/></g></g><g fill="#000000" fill-opacity="1"><g transform="translate(201.012915, 124.025338)"><g><path d="M 28.265625 0.546875 C 26.898438 0.546875 25.828125 0.171875 25.046875 -0.578125 C 24.273438 -1.335938 23.890625 -2.421875 23.890625 -3.828125 L 23.890625 -9.171875 L 6.984375 -9.171875 C 5.566406 -9.171875 4.4375 -9.46875 3.59375 -10.0625 C 2.75 -10.65625 2.328125 -11.585938 2.328125 -12.859375 C 2.328125 -13.597656 2.519531 -14.398438 2.90625 -15.265625 C 3.289062 -16.128906 3.988281 -17.269531 5 -18.6875 L 23.75 -45.859375 C 24.382812 -46.816406 25.085938 -47.546875 25.859375 -48.046875 C 26.640625 -48.546875 27.53125 -48.796875 28.53125 -48.796875 C 29.71875 -48.796875 30.695312 -48.441406 31.46875 -47.734375 C 32.25 -47.023438 32.640625 -45.921875 32.640625 -44.421875 L 32.640625 -16.421875 L 36 -16.421875 C 37.320312 -16.421875 38.3125 -16.113281 38.96875 -15.5 C 39.632812 -14.882812 39.96875 -13.984375 39.96875 -12.796875 C 39.96875 -11.609375 39.632812 -10.707031 38.96875 -10.09375 C 38.3125 -9.476562 37.320312 -9.171875 36 -9.171875 L 32.640625 -9.171875 L 32.640625 -3.828125 C 32.640625 -2.421875 32.25 -1.335938 31.46875 -0.578125 C 30.695312 0.171875 29.628906 0.546875 28.265625 0.546875 Z M 23.890625 -16.421875 L 23.890625 -37.78125 L 25.875 -37.78125 L 9.71875 -14.09375 L 9.71875 -16.421875 Z M 23.890625 -16.421875 "/></g></g></g><g fill="#000000" fill-opacity="1"><g transform="translate(242.078833, 124.025338)"><g/></g></g><g fill="#000000" fill-opacity="1"><g transform="translate(136.485689, 187.744329)"><g><path d="M 6.359375 -23.46875 C 5.398438 -23.46875 4.644531 -23.726562 4.09375 -24.25 C 3.550781 -24.78125 3.28125 -25.523438 3.28125 -26.484375 C 3.28125 -27.441406 3.550781 -28.179688 4.09375 -28.703125 C 4.644531 -29.234375 5.398438 -29.5 6.359375 -29.5 L 34.703125 -29.5 C 35.703125 -29.5 36.460938 -29.234375 36.984375 -28.703125 C 37.515625 -28.179688 37.78125 -27.441406 37.78125 -26.484375 C 37.78125 -25.523438 37.515625 -24.78125 36.984375 -24.25 C 36.460938 -23.726562 35.703125 -23.46875 34.703125 -23.46875 Z M 6.359375 -9.859375 C 5.398438 -9.859375 4.644531 -10.117188 4.09375 -10.640625 C 3.550781 -11.160156 3.28125 -11.898438 3.28125 -12.859375 C 3.28125 -13.816406 3.550781 -14.546875 4.09375 -15.046875 C 4.644531 -15.554688 5.398438 -15.8125 6.359375 -15.8125 L 34.703125 -15.8125 C 35.703125 -15.8125 36.460938 -15.554688 36.984375 -15.046875 C 37.515625 -14.546875 37.78125 -13.816406 37.78125 -12.859375 C 37.78125 -11.859375 37.515625 -11.109375 36.984375 -10.609375 C 36.460938 -10.109375 35.703125 -9.859375 34.703125 -9.859375 Z M 6.359375 -9.859375 "/></g></g></g><g fill="#000000" fill-opacity="1"><g transform="translate(177.551642, 187.744329)"><g/></g></g><g fill="#000000" fill-opacity="1"><g transform="translate(125.229448, 251.463319)"><g><path d="M 10.671875 0 C 9.484375 0 8.554688 -0.328125 7.890625 -0.984375 C 7.234375 -1.648438 6.90625 -2.554688 6.90625 -3.703125 C 6.90625 -4.878906 7.234375 -5.765625 7.890625 -6.359375 C 8.554688 -6.953125 9.484375 -7.25 10.671875 -7.25 L 18.34375 -7.25 L 18.34375 -40.859375 L 22.578125 -40.859375 L 12.53125 -34.765625 C 11.65625 -34.265625 10.84375 -34.070312 10.09375 -34.1875 C 9.34375 -34.300781 8.703125 -34.617188 8.171875 -35.140625 C 7.648438 -35.671875 7.296875 -36.300781 7.109375 -37.03125 C 6.929688 -37.757812 6.988281 -38.5 7.28125 -39.25 C 7.582031 -40 8.164062 -40.625 9.03125 -41.125 L 18.484375 -46.8125 C 19.390625 -47.351562 20.296875 -47.816406 21.203125 -48.203125 C 22.117188 -48.597656 22.96875 -48.796875 23.75 -48.796875 C 24.707031 -48.796875 25.503906 -48.53125 26.140625 -48 C 26.773438 -47.476562 27.09375 -46.625 27.09375 -45.4375 L 27.09375 -7.25 L 34.078125 -7.25 C 35.265625 -7.25 36.1875 -6.953125 36.84375 -6.359375 C 37.507812 -5.765625 37.84375 -4.878906 37.84375 -3.703125 C 37.84375 -2.515625 37.507812 -1.597656 36.84375 -0.953125 C 36.1875 -0.316406 35.265625 0 34.078125 0 Z M 10.671875 0 "/></g></g></g><g fill="#000000" fill-opacity="1"><g transform="translate(166.285998, 251.463319)"><g><path d="M 20.53125 0.6875 C 14.832031 0.6875 10.472656 -1.46875 7.453125 -5.78125 C 4.441406 -10.09375 2.9375 -16.242188 2.9375 -24.234375 C 2.9375 -29.609375 3.609375 -34.132812 4.953125 -37.8125 C 6.304688 -41.488281 8.289062 -44.257812 10.90625 -46.125 C 13.53125 -48 16.738281 -48.9375 20.53125 -48.9375 C 26.28125 -48.9375 30.648438 -46.835938 33.640625 -42.640625 C 36.628906 -38.441406 38.125 -32.328125 38.125 -24.296875 C 38.125 -18.953125 37.445312 -14.421875 36.09375 -10.703125 C 34.75 -6.992188 32.773438 -4.164062 30.171875 -2.21875 C 27.578125 -0.28125 24.363281 0.6875 20.53125 0.6875 Z M 20.53125 -6.5 C 23.632812 -6.5 25.925781 -7.9375 27.40625 -10.8125 C 28.894531 -13.6875 29.640625 -18.179688 29.640625 -24.296875 C 29.640625 -30.410156 28.894531 -34.847656 27.40625 -37.609375 C 25.925781 -40.367188 23.632812 -41.75 20.53125 -41.75 C 17.476562 -41.75 15.195312 -40.367188 13.6875 -37.609375 C 12.175781 -34.847656 11.421875 -30.410156 11.421875 -24.296875 C 11.421875 -18.179688 12.175781 -13.6875 13.6875 -10.8125 C 15.195312 -7.9375 17.476562 -6.5 20.53125 -6.5 Z M 20.53125 -6.5 "/></g></g></g><g fill="#000000" fill-opacity="1"><g transform="translate(431.02459, 124.025338)"><g><path d="M 9.921875 0 C 8.421875 0 7.269531 -0.394531 6.46875 -1.1875 C 5.664062 -1.988281 5.265625 -3.144531 5.265625 -4.65625 L 5.265625 -43.59375 C 5.265625 -45.101562 5.664062 -46.253906 6.46875 -47.046875 C 7.269531 -47.847656 8.421875 -48.25 9.921875 -48.25 L 26.34375 -48.25 C 29.71875 -48.25 32.59375 -47.742188 34.96875 -46.734375 C 37.34375 -45.734375 39.15625 -44.296875 40.40625 -42.421875 C 41.664062 -40.554688 42.296875 -38.320312 42.296875 -35.71875 C 42.296875 -32.800781 41.453125 -30.335938 39.765625 -28.328125 C 38.078125 -26.328125 35.769531 -24.984375 32.84375 -24.296875 L 32.84375 -25.328125 C 36.226562 -24.816406 38.851562 -23.535156 40.71875 -21.484375 C 42.59375 -19.429688 43.53125 -16.765625 43.53125 -13.484375 C 43.53125 -9.191406 42.078125 -5.867188 39.171875 -3.515625 C 36.273438 -1.171875 32.25 0 27.09375 0 Z M 13.6875 -6.640625 L 26 -6.640625 C 29.101562 -6.640625 31.382812 -7.242188 32.84375 -8.453125 C 34.3125 -9.660156 35.046875 -11.472656 35.046875 -13.890625 C 35.046875 -16.359375 34.3125 -18.179688 32.84375 -19.359375 C 31.382812 -20.546875 29.101562 -21.140625 26 -21.140625 L 13.6875 -21.140625 Z M 13.6875 -27.78125 L 24.84375 -27.78125 C 27.851562 -27.78125 30.097656 -28.363281 31.578125 -29.53125 C 33.066406 -30.695312 33.8125 -32.421875 33.8125 -34.703125 C 33.8125 -36.984375 33.066406 -38.703125 31.578125 -39.859375 C 30.097656 -41.023438 27.851562 -41.609375 24.84375 -41.609375 L 13.6875 -41.609375 Z M 13.6875 -27.78125 "/></g></g></g><g fill="#000000" fill-opacity="1"><g transform="translate(478.102768, 124.025338)"><g/></g></g><g fill="#000000" fill-opacity="1"><g transform="translate(496.646642, 124.025338)"><g><path d="M 7.59375 -14.921875 C 6.59375 -14.921875 5.757812 -15.25 5.09375 -15.90625 C 4.4375 -16.570312 4.109375 -17.382812 4.109375 -18.34375 C 4.109375 -19.34375 4.4375 -20.160156 5.09375 -20.796875 C 5.757812 -21.441406 6.59375 -21.765625 7.59375 -21.765625 L 22.171875 -21.765625 C 23.128906 -21.765625 23.9375 -21.441406 24.59375 -20.796875 C 25.257812 -20.160156 25.59375 -19.34375 25.59375 -18.34375 C 25.59375 -17.382812 25.257812 -16.570312 24.59375 -15.90625 C 23.9375 -15.25 23.128906 -14.921875 22.171875 -14.921875 Z M 7.59375 -14.921875 "/></g></g></g><g fill="#000000" fill-opacity="1"><g transform="translate(526.344211, 124.025338)"><g/></g></g><g fill="#000000" fill-opacity="1"><g transform="translate(544.888085, 124.025338)"><g><path d="M 5.75 0.546875 C 4.65625 0.546875 3.773438 0.296875 3.109375 -0.203125 C 2.453125 -0.703125 2.054688 -1.375 1.921875 -2.21875 C 1.785156 -3.0625 1.941406 -4.007812 2.390625 -5.0625 L 20.46875 -45.09375 C 21.0625 -46.414062 21.78125 -47.363281 22.625 -47.9375 C 23.46875 -48.507812 24.4375 -48.796875 25.53125 -48.796875 C 26.570312 -48.796875 27.515625 -48.507812 28.359375 -47.9375 C 29.210938 -47.363281 29.929688 -46.414062 30.515625 -45.09375 L 48.65625 -5.0625 C 49.15625 -4.007812 49.335938 -3.050781 49.203125 -2.1875 C 49.066406 -1.320312 48.675781 -0.648438 48.03125 -0.171875 C 47.394531 0.304688 46.554688 0.546875 45.515625 0.546875 C 44.234375 0.546875 43.238281 0.238281 42.53125 -0.375 C 41.820312 -0.988281 41.195312 -1.9375 40.65625 -3.21875 L 36.203125 -13.546875 L 39.90625 -11.15625 L 11.015625 -11.15625 L 14.71875 -13.546875 L 10.328125 -3.21875 C 9.734375 -1.894531 9.117188 -0.9375 8.484375 -0.34375 C 7.847656 0.25 6.9375 0.546875 5.75 0.546875 Z M 25.390625 -38.734375 L 15.8125 -15.953125 L 14.03125 -18.140625 L 36.890625 -18.140625 L 35.171875 -15.953125 L 25.53125 -38.734375 Z M 25.390625 -38.734375 "/></g></g></g><g fill="#000000" fill-opacity="1"><g transform="translate(492.881205, 187.744329)"><g><path d="M 6.359375 -23.46875 C 5.398438 -23.46875 4.644531 -23.726562 4.09375 -24.25 C 3.550781 -24.78125 3.28125 -25.523438 3.28125 -26.484375 C 3.28125 -27.441406 3.550781 -28.179688 4.09375 -28.703125 C 4.644531 -29.234375 5.398438 -29.5 6.359375 -29.5 L 34.703125 -29.5 C 35.703125 -29.5 36.460938 -29.234375 36.984375 -28.703125 C 37.515625 -28.179688 37.78125 -27.441406 37.78125 -26.484375 C 37.78125 -25.523438 37.515625 -24.78125 36.984375 -24.25 C 36.460938 -23.726562 35.703125 -23.46875 34.703125 -23.46875 Z M 6.359375 -9.859375 C 5.398438 -9.859375 4.644531 -10.117188 4.09375 -10.640625 C 3.550781 -11.160156 3.28125 -11.898438 3.28125 -12.859375 C 3.28125 -13.816406 3.550781 -14.546875 4.09375 -15.046875 C 4.644531 -15.554688 5.398438 -15.8125 6.359375 -15.8125 L 34.703125 -15.8125 C 35.703125 -15.8125 36.460938 -15.554688 36.984375 -15.046875 C 37.515625 -14.546875 37.78125 -13.816406 37.78125 -12.859375 C 37.78125 -11.859375 37.515625 -11.109375 36.984375 -10.609375 C 36.460938 -10.109375 35.703125 -9.859375 34.703125 -9.859375 Z M 6.359375 -9.859375 "/></g></g></g><g fill="#000000" fill-opacity="1"><g transform="translate(472.359942, 251.463319)"><g><path d="M 10.671875 0 C 9.484375 0 8.554688 -0.328125 7.890625 -0.984375 C 7.234375 -1.648438 6.90625 -2.554688 6.90625 -3.703125 C 6.90625 -4.878906 7.234375 -5.765625 7.890625 -6.359375 C 8.554688 -6.953125 9.484375 -7.25 10.671875 -7.25 L 18.34375 -7.25 L 18.34375 -40.859375 L 22.578125 -40.859375 L 12.53125 -34.765625 C 11.65625 -34.265625 10.84375 -34.070312 10.09375 -34.1875 C 9.34375 -34.300781 8.703125 -34.617188 8.171875 -35.140625 C 7.648438 -35.671875 7.296875 -36.300781 7.109375 -37.03125 C 6.929688 -37.757812 6.988281 -38.5 7.28125 -39.25 C 7.582031 -40 8.164062 -40.625 9.03125 -41.125 L 18.484375 -46.8125 C 19.390625 -47.351562 20.296875 -47.816406 21.203125 -48.203125 C 22.117188 -48.597656 22.96875 -48.796875 23.75 -48.796875 C 24.707031 -48.796875 25.503906 -48.53125 26.140625 -48 C 26.773438 -47.476562 27.09375 -46.625 27.09375 -45.4375 L 27.09375 -7.25 L 34.078125 -7.25 C 35.265625 -7.25 36.1875 -6.953125 36.84375 -6.359375 C 37.507812 -5.765625 37.84375 -4.878906 37.84375 -3.703125 C 37.84375 -2.515625 37.507812 -1.597656 36.84375 -0.953125 C 36.1875 -0.316406 35.265625 0 34.078125 0 Z M 10.671875 0 "/></g></g></g><g fill="#000000" fill-opacity="1"><g transform="translate(513.416492, 251.463319)"><g><path d="M 20.53125 0.6875 C 16.789062 0.6875 13.582031 0.148438 10.90625 -0.921875 C 8.238281 -1.992188 6.1875 -3.554688 4.75 -5.609375 C 3.3125 -7.660156 2.59375 -10.125 2.59375 -13 C 2.59375 -15.28125 3.0625 -17.296875 4 -19.046875 C 4.9375 -20.804688 6.222656 -22.234375 7.859375 -23.328125 C 9.503906 -24.429688 11.378906 -25.117188 13.484375 -25.390625 L 13.484375 -23.953125 C 10.566406 -24.585938 8.226562 -25.988281 6.46875 -28.15625 C 4.707031 -30.320312 3.828125 -32.914062 3.828125 -35.9375 C 3.828125 -38.664062 4.507812 -41 5.875 -42.9375 C 7.25 -44.882812 9.191406 -46.367188 11.703125 -47.390625 C 14.210938 -48.421875 17.15625 -48.9375 20.53125 -48.9375 C 23.957031 -48.9375 26.921875 -48.421875 29.421875 -47.390625 C 31.929688 -46.367188 33.867188 -44.882812 35.234375 -42.9375 C 36.609375 -41 37.296875 -38.664062 37.296875 -35.9375 C 37.296875 -33.925781 36.894531 -32.078125 36.09375 -30.390625 C 35.300781 -28.703125 34.1875 -27.304688 32.75 -26.203125 C 31.3125 -25.109375 29.632812 -24.378906 27.71875 -24.015625 L 27.71875 -25.390625 C 30.914062 -24.929688 33.503906 -23.59375 35.484375 -21.375 C 37.472656 -19.164062 38.46875 -16.375 38.46875 -13 C 38.46875 -10.125 37.75 -7.660156 36.3125 -5.609375 C 34.875 -3.554688 32.816406 -1.992188 30.140625 -0.921875 C 27.472656 0.148438 24.269531 0.6875 20.53125 0.6875 Z M 20.53125 -6.15625 C 23.769531 -6.15625 26.207031 -6.78125 27.84375 -8.03125 C 29.488281 -9.289062 30.3125 -11.15625 30.3125 -13.625 C 30.3125 -16.082031 29.488281 -17.925781 27.84375 -19.15625 C 26.207031 -20.394531 23.769531 -21.015625 20.53125 -21.015625 C 17.332031 -21.015625 14.898438 -20.394531 13.234375 -19.15625 C 11.578125 -17.925781 10.75 -16.082031 10.75 -13.625 C 10.75 -11.15625 11.578125 -9.289062 13.234375 -8.03125 C 14.898438 -6.78125 17.332031 -6.15625 20.53125 -6.15625 Z M 20.53125 -27.859375 C 22.351562 -27.859375 23.898438 -28.140625 25.171875 -28.703125 C 26.453125 -29.273438 27.4375 -30.109375 28.125 -31.203125 C 28.8125 -32.296875 29.15625 -33.578125 29.15625 -35.046875 C 29.15625 -37.234375 28.390625 -38.953125 26.859375 -40.203125 C 25.328125 -41.460938 23.21875 -42.09375 20.53125 -42.09375 C 17.84375 -42.09375 15.742188 -41.460938 14.234375 -40.203125 C 12.734375 -38.953125 11.984375 -37.234375 11.984375 -35.046875 C 11.984375 -32.804688 12.734375 -31.046875 14.234375 -29.765625 C 15.742188 -28.492188 17.84375 -27.859375 20.53125 -27.859375 Z M 20.53125 -27.859375 "/></g></g></g><g fill="#000000" fill-opacity="1"><g transform="translate(782.405491, 124.025338)"><g><path d="M 27.71875 0.6875 C 22.695312 0.6875 18.394531 -0.328125 14.8125 -2.359375 C 11.226562 -4.390625 8.476562 -7.265625 6.5625 -10.984375 C 4.65625 -14.703125 3.703125 -19.09375 3.703125 -24.15625 C 3.703125 -27.945312 4.25 -31.359375 5.34375 -34.390625 C 6.4375 -37.421875 8.007812 -40.019531 10.0625 -42.1875 C 12.113281 -44.351562 14.632812 -46.019531 17.625 -47.1875 C 20.613281 -48.351562 23.976562 -48.9375 27.71875 -48.9375 C 30.226562 -48.9375 32.691406 -48.613281 35.109375 -47.96875 C 37.523438 -47.332031 39.644531 -46.421875 41.46875 -45.234375 C 42.425781 -44.640625 43.066406 -43.921875 43.390625 -43.078125 C 43.710938 -42.234375 43.78125 -41.410156 43.59375 -40.609375 C 43.414062 -39.816406 43.039062 -39.144531 42.46875 -38.59375 C 41.894531 -38.050781 41.1875 -37.742188 40.34375 -37.671875 C 39.5 -37.609375 38.578125 -37.894531 37.578125 -38.53125 C 36.160156 -39.445312 34.628906 -40.109375 32.984375 -40.515625 C 31.335938 -40.921875 29.671875 -41.125 27.984375 -41.125 C 24.742188 -41.125 22.003906 -40.460938 19.765625 -39.140625 C 17.535156 -37.816406 15.847656 -35.898438 14.703125 -33.390625 C 13.566406 -30.890625 13 -27.8125 13 -24.15625 C 13 -20.550781 13.566406 -17.472656 14.703125 -14.921875 C 15.847656 -12.367188 17.535156 -10.429688 19.765625 -9.109375 C 22.003906 -7.785156 24.742188 -7.125 27.984375 -7.125 C 29.722656 -7.125 31.4375 -7.335938 33.125 -7.765625 C 34.8125 -8.203125 36.410156 -8.875 37.921875 -9.78125 C 38.921875 -10.375 39.816406 -10.632812 40.609375 -10.5625 C 41.410156 -10.5 42.082031 -10.21875 42.625 -9.71875 C 43.175781 -9.21875 43.539062 -8.585938 43.71875 -7.828125 C 43.90625 -7.078125 43.863281 -6.300781 43.59375 -5.5 C 43.320312 -4.707031 42.773438 -4.015625 41.953125 -3.421875 C 40.128906 -2.097656 37.953125 -1.082031 35.421875 -0.375 C 32.890625 0.332031 30.320312 0.6875 27.71875 0.6875 Z M 27.71875 0.6875 "/></g></g></g><g fill="#000000" fill-opacity="1"><g transform="translate(828.936245, 124.025338)"><g/></g></g><g fill="#000000" fill-opacity="1"><g transform="translate(847.480119, 124.025338)"><g><path d="M 6.015625 1.984375 C 5.742188 2.847656 5.3125 3.472656 4.71875 3.859375 C 4.125 4.253906 3.472656 4.453125 2.765625 4.453125 C 2.066406 4.453125 1.421875 4.269531 0.828125 3.90625 C 0.234375 3.539062 -0.1875 3.023438 -0.4375 2.359375 C -0.695312 1.703125 -0.6875 0.914062 -0.40625 0 L 15.40625 -49.0625 C 15.675781 -49.9375 16.117188 -50.578125 16.734375 -50.984375 C 17.347656 -51.398438 17.992188 -51.59375 18.671875 -51.5625 C 19.359375 -51.539062 20 -51.347656 20.59375 -50.984375 C 21.1875 -50.617188 21.609375 -50.113281 21.859375 -49.46875 C 22.117188 -48.832031 22.109375 -48.0625 21.828125 -47.15625 Z M 6.015625 1.984375 "/></g></g></g><g fill="#000000" fill-opacity="1"><g transform="translate(868.897956, 124.025338)"><g/></g></g><g fill="#000000" fill-opacity="1"><g transform="translate(887.44183, 124.025338)"><g><path d="M 5.75 0.546875 C 4.65625 0.546875 3.773438 0.296875 3.109375 -0.203125 C 2.453125 -0.703125 2.054688 -1.375 1.921875 -2.21875 C 1.785156 -3.0625 1.941406 -4.007812 2.390625 -5.0625 L 20.46875 -45.09375 C 21.0625 -46.414062 21.78125 -47.363281 22.625 -47.9375 C 23.46875 -48.507812 24.4375 -48.796875 25.53125 -48.796875 C 26.570312 -48.796875 27.515625 -48.507812 28.359375 -47.9375 C 29.210938 -47.363281 29.929688 -46.414062 30.515625 -45.09375 L 48.65625 -5.0625 C 49.15625 -4.007812 49.335938 -3.050781 49.203125 -2.1875 C 49.066406 -1.320312 48.675781 -0.648438 48.03125 -0.171875 C 47.394531 0.304688 46.554688 0.546875 45.515625 0.546875 C 44.234375 0.546875 43.238281 0.238281 42.53125 -0.375 C 41.820312 -0.988281 41.195312 -1.9375 40.65625 -3.21875 L 36.203125 -13.546875 L 39.90625 -11.15625 L 11.015625 -11.15625 L 14.71875 -13.546875 L 10.328125 -3.21875 C 9.734375 -1.894531 9.117188 -0.9375 8.484375 -0.34375 C 7.847656 0.25 6.9375 0.546875 5.75 0.546875 Z M 25.390625 -38.734375 L 15.8125 -15.953125 L 14.03125 -18.140625 L 36.890625 -18.140625 L 35.171875 -15.953125 L 25.53125 -38.734375 Z M 25.390625 -38.734375 "/></g></g></g><g fill="#000000" fill-opacity="1"><g transform="translate(839.846287, 187.744329)"><g><path d="M 6.359375 -23.46875 C 5.398438 -23.46875 4.644531 -23.726562 4.09375 -24.25 C 3.550781 -24.78125 3.28125 -25.523438 3.28125 -26.484375 C 3.28125 -27.441406 3.550781 -28.179688 4.09375 -28.703125 C 4.644531 -29.234375 5.398438 -29.5 6.359375 -29.5 L 34.703125 -29.5 C 35.703125 -29.5 36.460938 -29.234375 36.984375 -28.703125 C 37.515625 -28.179688 37.78125 -27.441406 37.78125 -26.484375 C 37.78125 -25.523438 37.515625 -24.78125 36.984375 -24.25 C 36.460938 -23.726562 35.703125 -23.46875 34.703125 -23.46875 Z M 6.359375 -9.859375 C 5.398438 -9.859375 4.644531 -10.117188 4.09375 -10.640625 C 3.550781 -11.160156 3.28125 -11.898438 3.28125 -12.859375 C 3.28125 -13.816406 3.550781 -14.546875 4.09375 -15.046875 C 4.644531 -15.554688 5.398438 -15.8125 6.359375 -15.8125 L 34.703125 -15.8125 C 35.703125 -15.8125 36.460938 -15.554688 36.984375 -15.046875 C 37.515625 -14.546875 37.78125 -13.816406 37.78125 -12.859375 C 37.78125 -11.859375 37.515625 -11.109375 36.984375 -10.609375 C 36.460938 -10.109375 35.703125 -9.859375 34.703125 -9.859375 Z M 6.359375 -9.859375 "/></g></g></g><g fill="#000000" fill-opacity="1"><g transform="translate(836.836033, 251.463319)"><g><path d="M 9.921875 0 C 8.421875 0 7.269531 -0.394531 6.46875 -1.1875 C 5.664062 -1.988281 5.265625 -3.144531 5.265625 -4.65625 L 5.265625 -43.59375 C 5.265625 -45.101562 5.664062 -46.253906 6.46875 -47.046875 C 7.269531 -47.847656 8.421875 -48.25 9.921875 -48.25 L 26.34375 -48.25 C 29.71875 -48.25 32.59375 -47.742188 34.96875 -46.734375 C 37.34375 -45.734375 39.15625 -44.296875 40.40625 -42.421875 C 41.664062 -40.554688 42.296875 -38.320312 42.296875 -35.71875 C 42.296875 -32.800781 41.453125 -30.335938 39.765625 -28.328125 C 38.078125 -26.328125 35.769531 -24.984375 32.84375 -24.296875 L 32.84375 -25.328125 C 36.226562 -24.816406 38.851562 -23.535156 40.71875 -21.484375 C 42.59375 -19.429688 43.53125 -16.765625 43.53125 -13.484375 C 43.53125 -9.191406 42.078125 -5.867188 39.171875 -3.515625 C 36.273438 -1.171875 32.25 0 27.09375 0 Z M 13.6875 -6.640625 L 26 -6.640625 C 29.101562 -6.640625 31.382812 -7.242188 32.84375 -8.453125 C 34.3125 -9.660156 35.046875 -11.472656 35.046875 -13.890625 C 35.046875 -16.359375 34.3125 -18.179688 32.84375 -19.359375 C 31.382812 -20.546875 29.101562 -21.140625 26 -21.140625 L 13.6875 -21.140625 Z M 13.6875 -27.78125 L 24.84375 -27.78125 C 27.851562 -27.78125 30.097656 -28.363281 31.578125 -29.53125 C 33.066406 -30.695312 33.8125 -32.421875 33.8125 -34.703125 C 33.8125 -36.984375 33.066406 -38.703125 31.578125 -39.859375 C 30.097656 -41.023438 27.851562 -41.609375 24.84375 -41.609375 L 13.6875 -41.609375 Z M 13.6875 -27.78125 "/></g></g></g></svg>