<svg xmlns="http://www.w3.org/2000/svg" xmlns:xlink="http://www.w3.org/1999/xlink" width="414" zoomAndPan="magnify" viewBox="0 0 310.5 173.999997" height="232" preserveAspectRatio="xMidYMid meet" version="1.0"><defs><g/><clipPath id="35f386f234"><path d="M 5.121094 12 L 304.289062 12 L 304.289062 161.523438 L 5.121094 161.523438 Z M 5.121094 12 " clip-rule="nonzero"/></clipPath></defs><g clip-path="url(#35f386f234)"><path stroke-linecap="butt" transform="matrix(0.748794, 0, 0, 0.748794, 5.121074, 12.000763)" fill="none" stroke-linejoin="miter" d="M 0.0000259353 -0.00101903 L 399.533004 -0.00101903 L 399.533004 199.684611 L 0.0000259353 199.684611 Z M 0.0000259353 -0.00101903 " stroke="#000000" stroke-width="12" stroke-opacity="1" stroke-miterlimit="4"/></g><g fill="#000000" fill-opacity="1"><g transform="translate(28.225321, 119.70813)"><g><path d="M 18.78125 -40.890625 L 26.140625 -40.890625 C 29.640625 -40.890625 32.234375 -41.765625 33.921875 -43.515625 C 35.609375 -45.273438 36.453125 -47.601562 36.453125 -50.5 C 36.453125 -53.300781 35.613281 -55.484375 33.9375 -57.046875 C 32.269531 -58.609375 29.972656 -59.390625 27.046875 -59.390625 C 24.398438 -59.390625 22.179688 -58.660156 20.390625 -57.203125 C 18.609375 -55.753906 17.71875 -53.867188 17.71875 -51.546875 L 3.921875 -51.546875 C 3.921875 -55.179688 4.898438 -58.4375 6.859375 -61.3125 C 8.816406 -64.195312 11.554688 -66.453125 15.078125 -68.078125 C 18.597656 -69.703125 22.472656 -70.515625 26.703125 -70.515625 C 34.066406 -70.515625 39.832031 -68.753906 44 -65.234375 C 48.175781 -61.710938 50.265625 -56.863281 50.265625 -50.6875 C 50.265625 -47.5 49.289062 -44.566406 47.34375 -41.890625 C 45.40625 -39.222656 42.859375 -37.171875 39.703125 -35.734375 C 43.617188 -34.335938 46.539062 -32.234375 48.46875 -29.421875 C 50.394531 -26.617188 51.359375 -23.3125 51.359375 -19.5 C 51.359375 -13.3125 49.101562 -8.351562 44.59375 -4.625 C 40.09375 -0.90625 34.128906 0.953125 26.703125 0.953125 C 19.765625 0.953125 14.085938 -0.875 9.671875 -4.53125 C 5.265625 -8.195312 3.0625 -13.039062 3.0625 -19.0625 L 16.859375 -19.0625 C 16.859375 -16.445312 17.835938 -14.3125 19.796875 -12.65625 C 21.753906 -11 24.171875 -10.171875 27.046875 -10.171875 C 30.328125 -10.171875 32.894531 -11.039062 34.75 -12.78125 C 36.613281 -14.519531 37.546875 -16.820312 37.546875 -19.6875 C 37.546875 -26.625 33.722656 -30.09375 26.078125 -30.09375 L 18.78125 -30.09375 Z M 18.78125 -40.890625 "/></g></g></g><g fill="#000000" fill-opacity="1"><g transform="translate(84.356035, 119.70813)"><g><path d="M 6.015625 -6.78125 C 6.015625 -8.976562 6.753906 -10.757812 8.234375 -12.125 C 9.722656 -13.5 11.582031 -14.1875 13.8125 -14.1875 C 16.070312 -14.1875 17.941406 -13.5 19.421875 -12.125 C 20.898438 -10.757812 21.640625 -8.976562 21.640625 -6.78125 C 21.640625 -4.613281 20.90625 -2.851562 19.4375 -1.5 C 17.976562 -0.144531 16.101562 0.53125 13.8125 0.53125 C 11.550781 0.53125 9.6875 -0.144531 8.21875 -1.5 C 6.75 -2.851562 6.015625 -4.613281 6.015625 -6.78125 Z M 6.015625 -6.78125 "/></g></g></g><g fill="#000000" fill-opacity="1"><g transform="translate(112.779673, 119.70813)"><g><path d="M 38.265625 0 L 24.46875 0 L 24.46875 -53.21875 L 7.984375 -48.109375 L 7.984375 -59.34375 L 36.78125 -69.65625 L 38.265625 -69.65625 Z M 38.265625 0 "/></g></g></g><g fill="#000000" fill-opacity="1"><g transform="translate(168.910387, 119.70813)"><g><path d="M 52.40625 0 L 4.734375 0 L 4.734375 -9.453125 L 27.234375 -33.4375 C 30.316406 -36.8125 32.597656 -39.757812 34.078125 -42.28125 C 35.566406 -44.800781 36.3125 -47.191406 36.3125 -49.453125 C 36.3125 -52.535156 35.53125 -54.960938 33.96875 -56.734375 C 32.40625 -58.503906 30.175781 -59.390625 27.28125 -59.390625 C 24.15625 -59.390625 21.691406 -58.3125 19.890625 -56.15625 C 18.097656 -54.007812 17.203125 -51.1875 17.203125 -47.6875 L 3.34375 -47.6875 C 3.34375 -51.914062 4.351562 -55.78125 6.375 -59.28125 C 8.394531 -62.789062 11.253906 -65.539062 14.953125 -67.53125 C 18.648438 -69.519531 22.835938 -70.515625 27.515625 -70.515625 C 34.679688 -70.515625 40.242188 -68.796875 44.203125 -65.359375 C 48.171875 -61.921875 50.15625 -57.0625 50.15625 -50.78125 C 50.15625 -47.34375 49.265625 -43.835938 47.484375 -40.265625 C 45.703125 -36.703125 42.644531 -32.550781 38.3125 -27.8125 L 22.5 -11.125 L 52.40625 -11.125 Z M 52.40625 0 "/></g></g></g><g fill="#000000" fill-opacity="1"><g transform="translate(225.041101, 119.70813)"><g><path d="M 6.78125 -34.203125 L 10.796875 -69.5625 L 49.78125 -69.5625 L 49.78125 -58.046875 L 22.125 -58.046875 L 20.40625 -43.09375 C 23.6875 -44.84375 27.171875 -45.71875 30.859375 -45.71875 C 37.484375 -45.71875 42.675781 -43.660156 46.4375 -39.546875 C 50.195312 -35.441406 52.078125 -29.695312 52.078125 -22.3125 C 52.078125 -17.820312 51.128906 -13.800781 49.234375 -10.25 C 47.335938 -6.695312 44.617188 -3.941406 41.078125 -1.984375 C 37.546875 -0.0234375 33.375 0.953125 28.5625 0.953125 C 24.363281 0.953125 20.460938 0.101562 16.859375 -1.59375 C 13.265625 -3.300781 10.421875 -5.695312 8.328125 -8.78125 C 6.242188 -11.875 5.140625 -15.394531 5.015625 -19.34375 L 18.6875 -19.34375 C 18.96875 -16.445312 19.972656 -14.191406 21.703125 -12.578125 C 23.441406 -10.972656 25.710938 -10.171875 28.515625 -10.171875 C 31.640625 -10.171875 34.046875 -11.289062 35.734375 -13.53125 C 37.421875 -15.78125 38.265625 -18.960938 38.265625 -23.078125 C 38.265625 -27.023438 37.289062 -30.050781 35.34375 -32.15625 C 33.40625 -34.257812 30.65625 -35.3125 27.09375 -35.3125 C 23.8125 -35.3125 21.148438 -34.445312 19.109375 -32.71875 L 17.765625 -31.484375 Z M 6.78125 -34.203125 "/></g></g></g></svg>