<svg xmlns="http://www.w3.org/2000/svg" xmlns:xlink="http://www.w3.org/1999/xlink" width="846" zoomAndPan="magnify" viewBox="0 0 634.5 336.749994" height="449" preserveAspectRatio="xMidYMid meet" version="1.0"><defs><g/><clipPath id="876c30fb0a"><path d="M 4.015625 0.0078125 L 633.515625 0.0078125 L 633.515625 324.457031 L 4.015625 324.457031 Z M 4.015625 0.0078125 " clip-rule="nonzero"/></clipPath><clipPath id="9f32c9485b"><path d="M 28.082031 168 L 124.753906 168 L 124.753906 237 L 28.082031 237 Z M 28.082031 168 " clip-rule="nonzero"/></clipPath><clipPath id="e8656fa955"><rect x="0" width="96" y="0" height="35"/></clipPath><clipPath id="fb18ca565b"><path d="M 347 168 L 443.605469 168 L 443.605469 237 L 347 237 Z M 347 168 " clip-rule="nonzero"/></clipPath><clipPath id="a655fc152e"><path d="M 1 8 L 31.886719 8 L 31.886719 41 L 1 41 Z M 1 8 " clip-rule="nonzero"/></clipPath><clipPath id="958b02f4ac"><rect x="0" width="32" y="0" height="53"/></clipPath></defs><g clip-path="url(#876c30fb0a)"><path stroke-linecap="butt" transform="matrix(0.749409, 0, 0, 0.749409, 4.01667, 0.00767417)" fill="none" stroke-linejoin="miter" d="M -0.0013948 0.000184592 L 840.42086 0.000184592 L 840.42086 432.934874 L -0.0013948 432.934874 Z M -0.0013948 0.000184592 " stroke="#000000" stroke-width="12" stroke-opacity="1" stroke-miterlimit="4"/></g><path stroke-linecap="butt" transform="matrix(0, 0.749409, -0.749409, 0, 317.99239, 26.197952)" fill="none" stroke-linejoin="miter" d="M 0.0016897 2.50224 L 315.713837 2.50224 " stroke="#000000" stroke-width="5" stroke-opacity="1" stroke-miterlimit="4"/><path fill="#8bc28f" d="M 108.386719 112.894531 C 110.175781 111.230469 112.074219 109.289062 114.09375 107.070312 C 116.363281 104.570312 118.042969 102.75 119.128906 101.613281 C 123.15625 97.390625 129.847656 97.226562 134.078125 101.246094 C 138.308594 105.265625 138.472656 111.945312 134.445312 116.167969 C 133.476562 117.179688 131.917969 118.875 129.761719 121.246094 C 127.351562 123.898438 125.039062 126.257812 122.824219 128.320312 C 118.554688 132.300781 111.863281 132.070312 107.875 127.8125 C 103.890625 123.550781 104.121094 116.871094 108.386719 112.894531 Z M 108.386719 112.894531 " fill-opacity="1" fill-rule="nonzero"/><path fill="#8bc28f" d="M 144.472656 112.464844 C 145.203125 110.910156 146.050781 109.242188 147.011719 107.460938 C 149.785156 102.332031 156.199219 100.414062 161.339844 103.183594 C 166.480469 105.949219 168.398438 112.351562 165.628906 117.480469 C 164.851562 118.917969 164.179688 120.238281 163.613281 121.4375 C 161.132812 126.710938 154.832031 128.980469 149.546875 126.503906 C 144.261719 124.023438 141.988281 117.738281 144.472656 112.464844 Z M 144.472656 112.464844 " fill-opacity="1" fill-rule="nonzero"/><path fill="#8bc28f" d="M 150.390625 152.390625 C 149.691406 153.882812 148.855469 155.566406 147.882812 157.453125 L 147.882812 157.449219 C 146.898438 159.363281 145.867188 161.261719 144.789062 163.144531 C 141.886719 168.203125 135.425781 169.953125 130.355469 167.058594 C 125.289062 164.164062 123.53125 157.714844 126.433594 152.65625 C 127.355469 151.050781 128.234375 149.433594 129.074219 147.800781 C 129.929688 146.140625 130.652344 144.679688 131.25 143.417969 C 133.730469 138.140625 140.03125 135.875 145.316406 138.351562 C 150.601562 140.828125 152.875 147.113281 150.390625 152.390625 Z M 150.390625 152.390625 " fill-opacity="1" fill-rule="nonzero"/><path fill="#8bc28f" d="M 192.203125 135.40625 C 190.8125 137.851562 188.980469 140.875 186.703125 144.472656 C 184.464844 148.007812 182.390625 151.195312 180.488281 154.03125 L 177.714844 158.164062 C 174.464844 163.007812 167.894531 164.304688 163.042969 161.058594 C 158.191406 157.816406 156.890625 151.261719 160.140625 146.417969 L 162.917969 142.285156 C 164.714844 139.605469 166.683594 136.578125 168.820312 133.199219 C 170.921875 129.882812 172.582031 127.148438 173.808594 124.992188 C 176.6875 119.925781 183.140625 118.144531 188.222656 121.019531 C 193.304688 123.894531 195.085938 130.335938 192.203125 135.40625 Z M 192.203125 135.40625 " fill-opacity="1" fill-rule="nonzero"/><path fill="#8bc28f" d="M 212.316406 70.554688 C 210.871094 73.359375 209.449219 75.863281 208.054688 78.066406 C 206.898438 79.894531 205.757812 81.777344 204.632812 83.710938 L 202.847656 86.78125 C 199.914062 91.820312 193.441406 93.535156 188.390625 90.609375 C 183.339844 87.683594 181.621094 81.226562 184.554688 76.183594 L 186.339844 73.113281 C 187.597656 70.953125 188.875 68.847656 190.175781 66.792969 C 191.234375 65.117188 192.347656 63.15625 193.503906 60.90625 C 196.175781 55.722656 202.550781 53.679688 207.746094 56.34375 C 212.9375 59.007812 214.984375 65.371094 212.316406 70.554688 Z M 212.316406 70.554688 " fill-opacity="1" fill-rule="nonzero"/><path fill="#8bc28f" d="M 170.949219 64.328125 C 169.847656 66.964844 167.980469 70.335938 165.34375 74.433594 L 161.894531 79.792969 C 158.738281 84.699219 152.195312 86.121094 147.28125 82.972656 C 142.367188 79.820312 140.941406 73.292969 144.097656 68.386719 L 147.546875 63.027344 C 149.507812 59.980469 150.796875 57.714844 151.417969 56.230469 C 153.65625 50.847656 159.847656 48.296875 165.238281 50.53125 C 170.632812 52.769531 173.1875 58.945312 170.949219 64.328125 Z M 170.949219 64.328125 " fill-opacity="1" fill-rule="nonzero"/><path fill="#8bc28f" d="M 233.910156 121.085938 C 231.953125 123.34375 229.765625 126.222656 227.347656 129.714844 C 224.796875 133.402344 223.023438 136.03125 222.035156 137.59375 C 218.914062 142.523438 212.382812 143.992188 207.445312 140.878906 C 202.507812 137.765625 201.035156 131.25 204.152344 126.320312 C 205.296875 124.515625 207.226562 121.648438 209.945312 117.722656 C 212.796875 113.597656 215.453125 110.117188 217.917969 107.277344 C 221.738281 102.867188 228.417969 102.386719 232.832031 106.199219 C 237.25 110.015625 237.730469 116.679688 233.910156 121.085938 Z M 233.910156 121.085938 " fill-opacity="1" fill-rule="nonzero"/><path fill="#8bc28f" d="M 205.730469 183.371094 C 205.011719 184.277344 204.367188 185.257812 203.789062 186.324219 C 201.015625 191.453125 194.601562 193.371094 189.460938 190.601562 C 184.320312 187.835938 182.402344 181.433594 185.175781 176.304688 C 186.339844 174.148438 187.664062 172.136719 189.152344 170.261719 C 192.78125 165.695312 199.433594 164.925781 204.011719 168.546875 C 208.585938 172.167969 209.355469 178.804688 205.730469 183.371094 Z M 205.730469 183.371094 " fill-opacity="1" fill-rule="nonzero"/><path fill="#8bc28f" d="M 165.554688 190.539062 C 164.167969 192.414062 163.105469 193.933594 162.367188 195.097656 C 161.582031 196.339844 160.65625 197.894531 159.59375 199.761719 L 157.878906 202.785156 C 154.996094 207.855469 148.542969 209.632812 143.460938 206.757812 C 138.382812 203.882812 136.597656 197.441406 139.480469 192.375 L 141.199219 189.351562 C 142.425781 187.191406 143.523438 185.347656 144.488281 183.824219 C 145.5 182.222656 146.855469 180.28125 148.546875 177.992188 C 152.019531 173.308594 158.640625 172.316406 163.335938 175.78125 C 168.035156 179.246094 169.027344 185.851562 165.554688 190.539062 Z M 165.554688 190.539062 " fill-opacity="1" fill-rule="nonzero"/><path fill="#8bc28f" d="M 109.910156 155.191406 C 108.660156 157.164062 107.894531 158.375 107.613281 158.820312 C 106.851562 160.023438 105.707031 161.691406 104.179688 163.832031 L 102.0625 166.800781 C 98.671875 171.550781 92.070312 172.65625 87.3125 169.273438 C 82.554688 165.890625 81.445312 159.300781 84.835938 154.554688 L 86.953125 151.585938 C 88.253906 149.765625 89.179688 148.417969 89.734375 147.546875 C 90.765625 145.917969 91.53125 144.707031 92.03125 143.917969 C 95.148438 138.988281 101.679688 137.519531 106.617188 140.632812 C 111.554688 143.746094 113.03125 150.261719 109.910156 155.191406 Z M 109.910156 155.191406 " fill-opacity="1" fill-rule="nonzero"/><path fill="#8bc28f" d="M 258.933594 156.46875 C 257.910156 157.902344 256.539062 160.289062 254.820312 163.628906 C 252.859375 167.429688 251.382812 170.292969 250.386719 172.210938 C 247.699219 177.386719 241.316406 179.40625 236.128906 176.722656 C 230.945312 174.039062 228.921875 167.667969 231.609375 162.496094 C 232.597656 160.597656 234.0625 157.757812 236.011719 153.976562 C 238.195312 149.734375 240.09375 146.484375 241.710938 144.222656 C 245.097656 139.476562 251.703125 138.367188 256.457031 141.75 C 261.214844 145.132812 262.324219 151.722656 258.933594 156.46875 Z M 258.933594 156.46875 " fill-opacity="1" fill-rule="nonzero"/><path fill="#8bc28f" d="M 136.261719 73.792969 C 135.277344 74.824219 134.238281 76.109375 133.136719 77.652344 L 131.050781 80.574219 C 127.664062 85.320312 121.058594 86.425781 116.304688 83.046875 C 111.546875 79.664062 110.4375 73.074219 113.824219 68.328125 L 115.910156 65.40625 C 117.59375 63.050781 119.269531 60.996094 120.945312 59.238281 C 124.972656 55.019531 131.667969 54.855469 135.894531 58.871094 C 140.125 62.890625 140.289062 69.570312 136.261719 73.792969 Z M 136.261719 73.792969 " fill-opacity="1" fill-rule="nonzero"/><path fill="#8bc28f" d="M 96.972656 110.917969 C 95.027344 114.582031 93.242188 117.957031 91.621094 121.042969 C 80.21875 142.761719 78.742188 145.578125 87.183594 129.492188 C 84.476562 134.65625 78.082031 136.648438 72.910156 133.945312 C 67.738281 131.238281 65.742188 124.859375 68.449219 119.699219 C 79.554688 98.550781 81.03125 95.730469 72.886719 111.246094 C 74.527344 108.128906 76.328125 104.71875 78.292969 101.027344 C 81.027344 95.878906 87.429688 93.917969 92.589844 96.652344 C 97.75 99.382812 99.710938 105.769531 96.972656 110.917969 Z M 96.972656 110.917969 " fill-opacity="1" fill-rule="nonzero"/><path fill="#8bc28f" d="M 239.253906 211.898438 C 238.472656 213.386719 237.878906 214.785156 237.480469 216.089844 C 236.730469 218.523438 235.773438 220.957031 234.609375 223.378906 L 233.203125 226.304688 C 230.679688 231.558594 224.363281 233.777344 219.097656 231.257812 C 213.832031 228.734375 211.609375 222.433594 214.132812 217.175781 L 215.539062 214.253906 C 216.246094 212.78125 216.820312 211.332031 217.257812 209.90625 C 218.042969 207.351562 219.128906 204.75 220.519531 202.101562 C 223.230469 196.941406 229.621094 194.949219 234.792969 197.652344 C 239.96875 200.355469 241.964844 206.734375 239.253906 211.898438 Z M 239.253906 211.898438 " fill-opacity="1" fill-rule="nonzero"/><path fill="#8bc28f" d="M 263.222656 66.59375 C 262.628906 67.34375 262.054688 68.304688 261.503906 69.476562 C 260.636719 71.316406 259.675781 73.433594 258.613281 75.828125 L 256.972656 79.539062 C 254.617188 84.871094 248.371094 87.285156 243.027344 84.929688 C 237.6875 82.578125 235.265625 76.347656 237.625 71.015625 L 239.265625 67.304688 C 240.394531 64.757812 241.425781 62.492188 242.359375 60.503906 C 243.609375 57.851562 245.039062 55.511719 246.648438 53.484375 C 250.277344 48.917969 256.925781 48.148438 261.503906 51.769531 C 266.082031 55.390625 266.851562 62.027344 263.222656 66.59375 Z M 263.222656 66.59375 " fill-opacity="1" fill-rule="nonzero"/><path fill="#8bc28f" d="M 191.679688 220.996094 C 187.941406 227.914062 187.464844 228.792969 190.257812 223.625 C 190.609375 222.980469 190.054688 224 188.605469 226.6875 L 186.832031 229.964844 C 184.058594 235.097656 177.644531 237.011719 172.503906 234.246094 C 167.363281 231.476562 165.445312 225.078125 168.21875 219.945312 L 169.988281 216.667969 C 169.71875 217.167969 170.269531 216.148438 171.644531 213.605469 C 175.464844 206.539062 175.9375 205.664062 173.066406 210.972656 C 175.839844 205.84375 182.253906 203.929688 187.394531 206.695312 C 192.535156 209.460938 194.453125 215.863281 191.679688 220.996094 Z M 191.679688 220.996094 " fill-opacity="1" fill-rule="nonzero"/><path fill="#8bc28f" d="M 281.03125 193.039062 C 279.261719 195.3125 277.613281 197.652344 276.089844 200.058594 L 273.527344 204.101562 C 270.410156 209.03125 263.878906 210.5 258.941406 207.386719 C 254.003906 204.273438 252.527344 197.757812 255.648438 192.828125 L 258.210938 188.785156 C 260.101562 185.796875 262.144531 182.894531 264.339844 180.078125 C 267.925781 175.476562 274.570312 174.652344 279.179688 178.230469 C 283.789062 181.808594 284.617188 188.4375 281.03125 193.039062 Z M 281.03125 193.039062 " fill-opacity="1" fill-rule="nonzero"/><path fill="#8bc28f" d="M 283.933594 102.894531 C 283.035156 106.621094 282.113281 109.886719 281.164062 112.699219 C 280.171875 115.640625 279.898438 116.460938 280.335938 115.15625 C 279.796875 116.757812 279.285156 118.28125 278.796875 119.726562 C 276.9375 125.25 270.941406 128.222656 265.40625 126.367188 C 259.867188 124.507812 256.890625 118.523438 258.75 113 C 259.238281 111.554688 259.75 110.03125 260.289062 108.433594 C 261.265625 105.527344 261.542969 104.710938 261.117188 105.972656 C 261.867188 103.75 262.617188 101.078125 263.371094 97.957031 C 264.734375 92.289062 270.445312 88.800781 276.125 90.164062 C 281.804688 91.53125 285.296875 97.230469 283.933594 102.894531 Z M 283.933594 102.894531 " fill-opacity="1" fill-rule="nonzero"/><g clip-path="url(#9f32c9485b)"><path fill="#dfb0b0" d="M 80.949219 234.125 C 76.519531 234.089844 71.648438 233.636719 67.117188 233.804688 C 62.300781 233.992188 57.699219 235.601562 52.96875 236.355469 C 44.636719 237.515625 37.023438 231.941406 32.574219 225.316406 C 29.300781 220.621094 28.085938 214.757812 28.734375 209.085938 C 28.855469 207.1875 29.632812 205.519531 30.335938 203.828125 C 31.277344 201.566406 32.320312 199.34375 33.84375 197.402344 C 38.859375 191.308594 45.945312 187.480469 51.929688 182.464844 C 52.515625 182 52.917969 181.394531 53.261719 180.734375 C 55.128906 176.882812 57.0625 172.683594 61.164062 170.785156 C 67.839844 167.070312 76.59375 168.140625 82.296875 173.234375 C 83.71875 174.535156 84.90625 176.054688 86.347656 177.328125 C 90.507812 181.191406 94.613281 185.894531 100.398438 187.121094 C 106.515625 187.652344 109.699219 183.09375 116.261719 185.164062 C 122.609375 186.839844 124.757812 194.238281 124.480469 200.140625 C 124.007812 205.480469 121.867188 210.566406 119.003906 215.050781 C 109.710938 228.402344 97.105469 234.421875 80.949219 234.125 Z M 80.949219 234.125 " fill-opacity="1" fill-rule="nonzero"/></g><g transform="matrix(1, 0, 0, 1, 268, 274)"><g clip-path="url(#e8656fa955)"><g fill="#000000" fill-opacity="1"><g transform="translate(0.99811, 27.444705)"><g><path d="M 18.03125 -6.875 C 17.863281 -4.65625 17.039062 -2.90625 15.5625 -1.625 C 14.09375 -0.351562 12.148438 0.28125 9.734375 0.28125 C 7.085938 0.28125 5.003906 -0.609375 3.484375 -2.390625 C 1.972656 -4.171875 1.21875 -6.613281 1.21875 -9.71875 L 1.21875 -10.96875 C 1.21875 -12.957031 1.566406 -14.707031 2.265625 -16.21875 C 2.960938 -17.726562 3.957031 -18.882812 5.25 -19.6875 C 6.550781 -20.5 8.0625 -20.90625 9.78125 -20.90625 C 12.164062 -20.90625 14.082031 -20.265625 15.53125 -18.984375 C 16.988281 -17.710938 17.828125 -15.925781 18.046875 -13.625 L 13.8125 -13.625 C 13.707031 -14.957031 13.332031 -15.921875 12.6875 -16.515625 C 12.050781 -17.117188 11.082031 -17.421875 9.78125 -17.421875 C 8.363281 -17.421875 7.300781 -16.910156 6.59375 -15.890625 C 5.894531 -14.878906 5.535156 -13.304688 5.515625 -11.171875 L 5.515625 -9.609375 C 5.515625 -7.378906 5.851562 -5.75 6.53125 -4.71875 C 7.207031 -3.695312 8.273438 -3.1875 9.734375 -3.1875 C 11.046875 -3.1875 12.023438 -3.484375 12.671875 -4.078125 C 13.316406 -4.679688 13.6875 -5.613281 13.78125 -6.875 Z M 18.03125 -6.875 "/></g></g><g transform="translate(19.968642, 27.444705)"><g><path d="M 8.625 0.28125 C 6.375 0.28125 4.539062 -0.40625 3.125 -1.78125 C 1.71875 -3.164062 1.015625 -5.003906 1.015625 -7.296875 L 1.015625 -7.6875 C 1.015625 -9.226562 1.3125 -10.601562 1.90625 -11.8125 C 2.5 -13.03125 3.34375 -13.96875 4.4375 -14.625 C 5.53125 -15.28125 6.773438 -15.609375 8.171875 -15.609375 C 10.265625 -15.609375 11.910156 -14.945312 13.109375 -13.625 C 14.316406 -12.300781 14.921875 -10.425781 14.921875 -8 L 14.921875 -6.328125 L 5.171875 -6.328125 C 5.296875 -5.328125 5.691406 -4.523438 6.359375 -3.921875 C 7.023438 -3.316406 7.867188 -3.015625 8.890625 -3.015625 C 10.460938 -3.015625 11.695312 -3.585938 12.59375 -4.734375 L 14.59375 -2.484375 C 13.976562 -1.609375 13.144531 -0.925781 12.09375 -0.4375 C 11.050781 0.0390625 9.894531 0.28125 8.625 0.28125 Z M 8.15625 -12.296875 C 7.34375 -12.296875 6.679688 -12.019531 6.171875 -11.46875 C 5.671875 -10.925781 5.351562 -10.144531 5.21875 -9.125 L 10.90625 -9.125 L 10.90625 -9.4375 C 10.882812 -10.34375 10.632812 -11.046875 10.15625 -11.546875 C 9.6875 -12.046875 9.019531 -12.296875 8.15625 -12.296875 Z M 8.15625 -12.296875 "/></g></g><g transform="translate(35.640565, 27.444705)"><g><path d="M 10.1875 -11.484375 C 9.625 -11.554688 9.128906 -11.59375 8.703125 -11.59375 C 7.160156 -11.59375 6.148438 -11.070312 5.671875 -10.03125 L 5.671875 0 L 1.578125 0 L 1.578125 -15.328125 L 5.4375 -15.328125 L 5.546875 -13.5 C 6.367188 -14.90625 7.507812 -15.609375 8.96875 -15.609375 C 9.414062 -15.609375 9.835938 -15.546875 10.234375 -15.421875 Z M 10.1875 -11.484375 "/></g></g><g transform="translate(46.215929, 27.444705)"><g><path d="M 5.40625 -15.328125 L 5.53125 -13.609375 C 6.625 -14.941406 8.09375 -15.609375 9.9375 -15.609375 C 11.914062 -15.609375 13.269531 -14.828125 14 -13.265625 C 15.082031 -14.828125 16.617188 -15.609375 18.609375 -15.609375 C 20.265625 -15.609375 21.5 -15.125 22.3125 -14.15625 C 23.125 -13.1875 23.53125 -11.726562 23.53125 -9.78125 L 23.53125 0 L 19.421875 0 L 19.421875 -9.765625 C 19.421875 -10.640625 19.25 -11.273438 18.90625 -11.671875 C 18.570312 -12.078125 17.976562 -12.28125 17.125 -12.28125 C 15.894531 -12.28125 15.046875 -11.691406 14.578125 -10.515625 L 14.578125 0 L 10.5 0 L 10.5 -9.75 C 10.5 -10.644531 10.320312 -11.289062 9.96875 -11.6875 C 9.613281 -12.082031 9.019531 -12.28125 8.1875 -12.28125 C 7.019531 -12.28125 6.179688 -11.796875 5.671875 -10.828125 L 5.671875 0 L 1.578125 0 L 1.578125 -15.328125 Z M 5.40625 -15.328125 "/></g></g><g transform="translate(71.31649, 27.444705)"><g><path d="M 5.890625 0 L 1.78125 0 L 1.78125 -15.328125 L 5.890625 -15.328125 Z M 1.546875 -19.28125 C 1.546875 -19.894531 1.75 -20.398438 2.15625 -20.796875 C 2.570312 -21.191406 3.132812 -21.390625 3.84375 -21.390625 C 4.539062 -21.390625 5.09375 -21.191406 5.5 -20.796875 C 5.914062 -20.398438 6.125 -19.894531 6.125 -19.28125 C 6.125 -18.664062 5.914062 -18.15625 5.5 -17.75 C 5.082031 -17.351562 4.523438 -17.15625 3.828125 -17.15625 C 3.140625 -17.15625 2.585938 -17.351562 2.171875 -17.75 C 1.753906 -18.15625 1.546875 -18.664062 1.546875 -19.28125 Z M 1.546875 -19.28125 "/></g></g><g transform="translate(79.003803, 27.444705)"><g><path d="M 5.34375 -15.328125 L 5.46875 -13.546875 C 6.5625 -14.921875 8.03125 -15.609375 9.875 -15.609375 C 11.5 -15.609375 12.707031 -15.128906 13.5 -14.171875 C 14.289062 -13.222656 14.695312 -11.796875 14.71875 -9.890625 L 14.71875 0 L 10.625 0 L 10.625 -9.796875 C 10.625 -10.671875 10.429688 -11.300781 10.046875 -11.6875 C 9.671875 -12.082031 9.046875 -12.28125 8.171875 -12.28125 C 7.015625 -12.28125 6.148438 -11.785156 5.578125 -10.796875 L 5.578125 0 L 1.484375 0 L 1.484375 -15.328125 Z M 5.34375 -15.328125 "/></g></g></g></g></g><path fill="#8bc28f" d="M 427.238281 112.894531 C 429.027344 111.230469 430.925781 109.289062 432.941406 107.070312 C 435.214844 104.570312 436.894531 102.75 437.980469 101.613281 C 442.007812 97.390625 448.699219 97.226562 452.929688 101.246094 C 457.160156 105.265625 457.324219 111.945312 453.296875 116.167969 C 452.328125 117.179688 450.765625 118.875 448.613281 121.246094 C 446.203125 123.898438 443.890625 126.257812 441.675781 128.320312 C 437.40625 132.300781 430.714844 132.070312 426.726562 127.8125 C 422.742188 123.550781 422.972656 116.871094 427.238281 112.894531 Z M 427.238281 112.894531 " fill-opacity="1" fill-rule="nonzero"/><path fill="#8bc28f" d="M 463.324219 112.464844 C 464.054688 110.910156 464.902344 109.242188 465.863281 107.460938 C 468.636719 102.332031 475.050781 100.414062 480.191406 103.183594 C 485.332031 105.949219 487.25 112.351562 484.480469 117.480469 C 483.703125 118.917969 483.03125 120.238281 482.464844 121.4375 C 479.984375 126.710938 473.683594 128.980469 468.398438 126.503906 C 463.113281 124.023438 460.839844 117.738281 463.324219 112.464844 Z M 463.324219 112.464844 " fill-opacity="1" fill-rule="nonzero"/><path fill="#8bc28f" d="M 469.242188 152.390625 C 468.542969 153.882812 467.707031 155.566406 466.734375 157.453125 L 466.734375 157.449219 C 465.75 159.363281 464.71875 161.261719 463.636719 163.144531 C 460.738281 168.203125 454.277344 169.953125 449.207031 167.058594 C 444.140625 164.164062 442.382812 157.714844 445.28125 152.65625 C 446.207031 151.050781 447.085938 149.433594 447.925781 147.800781 C 448.78125 146.140625 449.503906 144.679688 450.101562 143.417969 C 452.582031 138.140625 458.882812 135.875 464.167969 138.351562 C 469.453125 140.828125 471.726562 147.113281 469.242188 152.390625 Z M 469.242188 152.390625 " fill-opacity="1" fill-rule="nonzero"/><path fill="#8bc28f" d="M 511.054688 135.40625 C 509.664062 137.851562 507.832031 140.875 505.554688 144.472656 C 503.3125 148.007812 501.242188 151.195312 499.339844 154.03125 L 496.566406 158.164062 C 493.316406 163.007812 486.746094 164.304688 481.894531 161.058594 C 477.042969 157.816406 475.742188 151.261719 478.992188 146.417969 L 481.769531 142.285156 C 483.566406 139.605469 485.535156 136.578125 487.671875 133.199219 C 489.773438 129.882812 491.433594 127.148438 492.660156 124.992188 C 495.539062 119.925781 501.992188 118.144531 507.074219 121.019531 C 512.152344 123.894531 513.9375 130.335938 511.054688 135.40625 Z M 511.054688 135.40625 " fill-opacity="1" fill-rule="nonzero"/><path fill="#8bc28f" d="M 531.167969 70.554688 C 529.722656 73.359375 528.300781 75.863281 526.90625 78.066406 C 525.75 79.894531 524.609375 81.777344 523.484375 83.710938 L 521.699219 86.78125 C 518.765625 91.820312 512.292969 93.535156 507.242188 90.609375 C 502.191406 87.683594 500.472656 81.226562 503.40625 76.183594 L 505.191406 73.113281 C 506.449219 70.953125 507.726562 68.847656 509.027344 66.792969 C 510.085938 65.117188 511.199219 63.15625 512.355469 60.90625 C 515.027344 55.722656 521.402344 53.679688 526.597656 56.34375 C 531.789062 59.007812 533.835938 65.371094 531.167969 70.554688 Z M 531.167969 70.554688 " fill-opacity="1" fill-rule="nonzero"/><path fill="#8bc28f" d="M 489.800781 64.328125 C 488.699219 66.964844 486.832031 70.335938 484.195312 74.433594 L 480.746094 79.792969 C 477.589844 84.699219 471.046875 86.121094 466.132812 82.972656 C 461.21875 79.820312 459.792969 73.292969 462.949219 68.386719 L 466.398438 63.027344 C 468.359375 59.980469 469.648438 57.714844 470.269531 56.230469 C 472.507812 50.847656 478.695312 48.296875 484.089844 50.53125 C 489.484375 52.769531 492.039062 58.945312 489.800781 64.328125 Z M 489.800781 64.328125 " fill-opacity="1" fill-rule="nonzero"/><path fill="#8bc28f" d="M 552.761719 121.085938 C 550.804688 123.34375 548.617188 126.222656 546.199219 129.714844 C 543.648438 133.402344 541.875 136.03125 540.882812 137.59375 C 537.765625 142.523438 531.234375 143.992188 526.296875 140.878906 C 521.359375 137.765625 519.886719 131.25 523.003906 126.320312 C 524.148438 124.515625 526.078125 121.648438 528.796875 117.722656 C 531.648438 113.597656 534.304688 110.117188 536.769531 107.277344 C 540.589844 102.867188 547.269531 102.386719 551.683594 106.199219 C 556.101562 110.015625 556.582031 116.679688 552.761719 121.085938 Z M 552.761719 121.085938 " fill-opacity="1" fill-rule="nonzero"/><path fill="#8bc28f" d="M 524.578125 183.371094 C 523.863281 184.277344 523.214844 185.257812 522.640625 186.324219 C 519.867188 191.453125 513.453125 193.371094 508.3125 190.601562 C 503.171875 187.835938 501.253906 181.433594 504.027344 176.304688 C 505.191406 174.148438 506.515625 172.136719 508.003906 170.261719 C 511.632812 165.695312 518.285156 164.925781 522.859375 168.546875 C 527.4375 172.167969 528.207031 178.804688 524.578125 183.371094 Z M 524.578125 183.371094 " fill-opacity="1" fill-rule="nonzero"/><path fill="#8bc28f" d="M 484.40625 190.539062 C 483.019531 192.414062 481.957031 193.933594 481.21875 195.097656 C 480.433594 196.339844 479.507812 197.894531 478.445312 199.761719 L 476.730469 202.785156 C 473.847656 207.855469 467.394531 209.632812 462.3125 206.757812 C 457.234375 203.882812 455.449219 197.441406 458.332031 192.375 L 460.050781 189.351562 C 461.277344 187.191406 462.375 185.347656 463.339844 183.824219 C 464.351562 182.222656 465.707031 180.28125 467.398438 177.992188 C 470.871094 173.308594 477.492188 172.316406 482.1875 175.78125 C 486.882812 179.246094 487.878906 185.851562 484.40625 190.539062 Z M 484.40625 190.539062 " fill-opacity="1" fill-rule="nonzero"/><path fill="#8bc28f" d="M 428.761719 155.191406 C 427.511719 157.164062 426.746094 158.375 426.464844 158.820312 C 425.703125 160.023438 424.558594 161.691406 423.03125 163.832031 L 420.910156 166.800781 C 417.523438 171.550781 410.921875 172.65625 406.164062 169.273438 C 401.40625 165.890625 400.296875 159.300781 403.6875 154.554688 L 405.804688 151.585938 C 407.105469 149.765625 408.03125 148.417969 408.582031 147.546875 C 409.617188 145.917969 410.382812 144.707031 410.882812 143.917969 C 414 138.988281 420.53125 137.519531 425.46875 140.632812 C 430.40625 143.746094 431.882812 150.261719 428.761719 155.191406 Z M 428.761719 155.191406 " fill-opacity="1" fill-rule="nonzero"/><path fill="#8bc28f" d="M 577.785156 156.46875 C 576.761719 157.902344 575.390625 160.289062 573.671875 163.628906 C 571.710938 167.429688 570.234375 170.292969 569.238281 172.210938 C 566.550781 177.386719 560.167969 179.40625 554.980469 176.722656 C 549.796875 174.039062 547.773438 167.667969 550.460938 162.496094 C 551.449219 160.597656 552.914062 157.757812 554.859375 153.976562 C 557.046875 149.734375 558.945312 146.484375 560.5625 144.222656 C 563.949219 139.476562 570.550781 138.367188 575.308594 141.75 C 580.066406 145.132812 581.175781 151.722656 577.785156 156.46875 Z M 577.785156 156.46875 " fill-opacity="1" fill-rule="nonzero"/><path fill="#8bc28f" d="M 455.113281 73.792969 C 454.128906 74.824219 453.089844 76.109375 451.988281 77.652344 L 449.902344 80.574219 C 446.515625 85.320312 439.910156 86.425781 435.152344 83.046875 C 430.398438 79.664062 429.289062 73.074219 432.675781 68.328125 L 434.761719 65.40625 C 436.445312 63.050781 438.121094 60.996094 439.796875 59.238281 C 443.824219 55.019531 450.515625 54.855469 454.746094 58.871094 C 458.976562 62.890625 459.140625 69.570312 455.113281 73.792969 Z M 455.113281 73.792969 " fill-opacity="1" fill-rule="nonzero"/><path fill="#8bc28f" d="M 415.824219 110.917969 C 413.878906 114.582031 412.09375 117.957031 410.472656 121.042969 C 399.070312 142.761719 397.59375 145.578125 406.035156 129.492188 C 403.324219 134.65625 396.933594 136.648438 391.761719 133.945312 C 386.589844 131.238281 384.59375 124.859375 387.300781 119.699219 C 398.40625 98.550781 399.882812 95.730469 391.738281 111.246094 C 393.375 108.128906 395.179688 104.71875 397.140625 101.027344 C 399.878906 95.878906 406.28125 93.917969 411.441406 96.652344 C 416.597656 99.382812 418.5625 105.769531 415.824219 110.917969 Z M 415.824219 110.917969 " fill-opacity="1" fill-rule="nonzero"/><path fill="#8bc28f" d="M 558.105469 211.898438 C 557.324219 213.386719 556.730469 214.785156 556.332031 216.089844 C 555.582031 218.523438 554.625 220.957031 553.460938 223.378906 L 552.054688 226.304688 C 549.53125 231.558594 543.214844 233.777344 537.949219 231.257812 C 532.683594 228.734375 530.460938 222.433594 532.984375 217.175781 L 534.390625 214.253906 C 535.097656 212.78125 535.671875 211.332031 536.109375 209.90625 C 536.894531 207.351562 537.980469 204.75 539.371094 202.101562 C 542.082031 196.941406 548.472656 194.949219 553.644531 197.652344 C 558.816406 200.355469 560.816406 206.734375 558.105469 211.898438 Z M 558.105469 211.898438 " fill-opacity="1" fill-rule="nonzero"/><path fill="#8bc28f" d="M 582.074219 66.59375 C 581.480469 67.34375 580.90625 68.304688 580.355469 69.476562 C 579.488281 71.316406 578.527344 73.433594 577.464844 75.828125 L 575.824219 79.539062 C 573.464844 84.871094 567.222656 87.285156 561.878906 84.929688 C 556.539062 82.578125 554.117188 76.347656 556.476562 71.015625 L 558.117188 67.304688 C 559.246094 64.757812 560.277344 62.492188 561.210938 60.503906 C 562.460938 57.851562 563.886719 55.511719 565.5 53.484375 C 569.128906 48.917969 575.777344 48.148438 580.355469 51.769531 C 584.933594 55.390625 585.703125 62.027344 582.074219 66.59375 Z M 582.074219 66.59375 " fill-opacity="1" fill-rule="nonzero"/><path fill="#8bc28f" d="M 510.53125 220.996094 C 506.792969 227.914062 506.316406 228.792969 509.109375 223.625 C 509.460938 222.980469 508.90625 224 507.457031 226.6875 L 505.683594 229.964844 C 502.910156 235.097656 496.496094 237.011719 491.355469 234.246094 C 486.214844 231.476562 484.296875 225.078125 487.066406 219.945312 L 488.839844 216.667969 C 488.570312 217.167969 489.121094 216.148438 490.496094 213.605469 C 494.3125 206.539062 494.789062 205.664062 491.917969 210.972656 C 494.691406 205.84375 501.105469 203.929688 506.246094 206.695312 C 511.386719 209.460938 513.304688 215.863281 510.53125 220.996094 Z M 510.53125 220.996094 " fill-opacity="1" fill-rule="nonzero"/><path fill="#8bc28f" d="M 599.882812 193.039062 C 598.113281 195.3125 596.464844 197.652344 594.941406 200.058594 L 592.378906 204.101562 C 589.261719 209.03125 582.730469 210.5 577.792969 207.386719 C 572.855469 204.273438 571.378906 197.757812 574.5 192.828125 L 577.0625 188.785156 C 578.953125 185.796875 580.996094 182.894531 583.191406 180.078125 C 586.777344 175.476562 593.421875 174.652344 598.03125 178.230469 C 602.640625 181.808594 603.46875 188.4375 599.882812 193.039062 Z M 599.882812 193.039062 " fill-opacity="1" fill-rule="nonzero"/><path fill="#8bc28f" d="M 602.785156 102.894531 C 601.886719 106.621094 600.960938 109.886719 600.015625 112.699219 C 599.023438 115.640625 598.75 116.460938 599.1875 115.15625 C 598.648438 116.757812 598.136719 118.28125 597.648438 119.726562 C 595.789062 125.25 589.792969 128.222656 584.257812 126.367188 C 578.71875 124.507812 575.742188 118.523438 577.601562 113 C 578.089844 111.554688 578.601562 110.03125 579.140625 108.433594 C 580.117188 105.527344 580.394531 104.710938 579.96875 105.972656 C 580.71875 103.75 581.46875 101.078125 582.222656 97.957031 C 583.585938 92.289062 589.296875 88.800781 594.976562 90.164062 C 600.65625 91.53125 604.148438 97.230469 602.785156 102.894531 Z M 602.785156 102.894531 " fill-opacity="1" fill-rule="nonzero"/><g clip-path="url(#fb18ca565b)"><path fill="#dfb0b0" d="M 399.800781 234.125 C 395.371094 234.089844 390.5 233.636719 385.96875 233.804688 C 381.152344 233.992188 376.550781 235.601562 371.820312 236.355469 C 363.488281 237.515625 355.871094 231.941406 351.425781 225.316406 C 348.152344 220.621094 346.9375 214.757812 347.585938 209.085938 C 347.707031 207.1875 348.484375 205.519531 349.1875 203.828125 C 350.128906 201.566406 351.171875 199.34375 352.695312 197.402344 C 357.710938 191.308594 364.796875 187.480469 370.78125 182.464844 C 371.367188 182 371.769531 181.394531 372.113281 180.734375 C 373.980469 176.882812 375.914062 172.683594 380.015625 170.785156 C 386.691406 167.070312 395.445312 168.140625 401.148438 173.234375 C 402.570312 174.535156 403.757812 176.054688 405.199219 177.328125 C 409.359375 181.191406 413.464844 185.894531 419.25 187.121094 C 425.367188 187.652344 428.550781 183.09375 435.113281 185.164062 C 441.460938 186.839844 443.609375 194.238281 443.328125 200.140625 C 442.859375 205.480469 440.71875 210.566406 437.855469 215.050781 C 428.5625 228.402344 415.957031 234.421875 399.800781 234.125 Z M 399.800781 234.125 " fill-opacity="1" fill-rule="nonzero"/></g><g transform="matrix(1, 0, 0, 1, 12, 270)"><g clip-path="url(#958b02f4ac)"><g clip-path="url(#a655fc152e)"><g fill="#000000" fill-opacity="1"><g transform="translate(0.962009, 40.919661)"><g><path d="M 20.875 -6.578125 L 9.34375 -6.578125 L 7.15625 0 L 0.15625 0 L 12.046875 -31.9375 L 18.140625 -31.9375 L 30.09375 0 L 23.09375 0 Z M 11.125 -11.90625 L 19.109375 -11.90625 L 15.09375 -23.859375 Z M 11.125 -11.90625 "/></g></g></g></g></g></g></svg>