<svg width="514" height="47" viewBox="0 0 514 47" fill="none" xmlns="http://www.w3.org/2000/svg">
<path d="M37.7907 34.842C38.0067 35.31 38.1147 35.778 38.1147 36.246C38.1147 37.074 37.7727 37.776 37.0887 38.352C36.4407 38.928 35.6847 39.216 34.8207 39.216C34.2447 39.216 33.7047 39.072 33.2007 38.784C32.6967 38.46 32.3007 37.974 32.0127 37.326L28.7727 30.09H9.76466L6.52466 37.326C6.23666 37.974 5.84066 38.46 5.33666 38.784C4.83266 39.072 4.27466 39.216 3.66266 39.216C2.83466 39.216 2.07866 38.928 1.39466 38.352C0.710664 37.776 0.368664 37.074 0.368664 36.246C0.368664 35.778 0.476664 35.31 0.692664 34.842L15.5967 2.82C15.9207 2.1 16.4067 1.56 17.0547 1.2C17.7387 0.803998 18.4587 0.605999 19.2147 0.605999C19.9707 0.605999 20.6727 0.803998 21.3207 1.2C22.0047 1.56 22.5087 2.1 22.8327 2.82L37.7907 34.842ZM12.1407 24.69H26.3967L19.2687 8.652L12.1407 24.69ZM59.6429 20.532C58.9589 20.532 58.3829 20.316 57.9149 19.884C57.4829 19.416 57.2669 18.84 57.2669 18.156C57.2669 17.472 57.4829 16.914 57.9149 16.482C58.3829 16.014 58.9589 15.78 59.6429 15.78H81.2429C81.9269 15.78 82.4849 16.014 82.9169 16.482C83.3849 16.95 83.6189 17.526 83.6189 18.21C83.6189 18.858 83.3849 19.416 82.9169 19.884C82.4849 20.316 81.9269 20.532 81.2429 20.532H59.6429ZM59.6429 31.332C58.9589 31.332 58.3829 31.116 57.9149 30.684C57.4829 30.216 57.2669 29.64 57.2669 28.956C57.2669 28.272 57.4829 27.714 57.9149 27.282C58.3829 26.814 58.9589 26.58 59.6429 26.58H81.2429C81.9269 26.58 82.4849 26.814 82.9169 27.282C83.3849 27.75 83.6189 28.326 83.6189 29.01C83.6189 29.658 83.3849 30.216 82.9169 30.684C82.4849 31.116 81.9269 31.332 81.2429 31.332H59.6429ZM119.48 14.592C121.748 14.592 123.764 15.114 125.528 16.158C127.292 17.166 128.66 18.606 129.632 20.478C130.64 22.314 131.144 24.42 131.144 26.796C131.144 29.244 130.586 31.44 129.47 33.384C128.39 35.292 126.878 36.786 124.934 37.866C123.026 38.946 120.848 39.486 118.4 39.486C113.576 39.486 109.85 37.866 107.222 34.626C104.63 31.35 103.334 26.688 103.334 20.64C103.334 16.5 103.946 12.918 105.17 9.894C106.394 6.834 108.14 4.494 110.408 2.874C112.712 1.254 115.412 0.443998 118.508 0.443998C120.56 0.443998 122.612 0.821998 124.664 1.578C126.752 2.298 128.516 3.288 129.956 4.548C130.424 4.944 130.748 5.34 130.928 5.736C131.144 6.096 131.252 6.546 131.252 7.086C131.252 7.878 131.018 8.562 130.55 9.138C130.118 9.678 129.596 9.948 128.984 9.948C128.624 9.948 128.282 9.894 127.958 9.786C127.634 9.642 127.238 9.426 126.77 9.138C123.782 7.05 121.118 6.006 118.778 6.006C116.15 6.006 114.08 7.23 112.568 9.678C111.056 12.09 110.264 15.492 110.192 19.884C111.02 18.264 112.262 16.986 113.918 16.05C115.574 15.078 117.428 14.592 119.48 14.592ZM118.022 33.978C120.002 33.978 121.586 33.348 122.774 32.088C123.962 30.792 124.556 29.1 124.556 27.012C124.556 24.924 123.962 23.25 122.774 21.99C121.586 20.73 120.002 20.1 118.022 20.1C116.006 20.1 114.368 20.748 113.108 22.044C111.884 23.304 111.272 24.96 111.272 27.012C111.272 29.1 111.884 30.792 113.108 32.088C114.368 33.348 116.006 33.978 118.022 33.978ZM139.925 31.224C141.149 31.224 142.139 31.674 142.895 32.574C143.651 33.474 144.029 34.788 144.029 36.516C144.029 39.936 142.841 42.888 140.465 45.372C139.997 45.84 139.493 46.074 138.953 46.074C138.413 46.074 137.945 45.894 137.549 45.534C137.153 45.174 136.955 44.742 136.955 44.238C136.955 43.806 137.135 43.392 137.495 42.996C138.575 41.844 139.277 40.548 139.601 39.108C138.557 39 137.693 38.604 137.009 37.92C136.361 37.2 136.037 36.318 136.037 35.274C136.037 34.122 136.397 33.168 137.117 32.412C137.873 31.62 138.809 31.224 139.925 31.224ZM188.932 19.344C191.128 19.956 192.82 21.072 194.008 22.692C195.232 24.312 195.844 26.292 195.844 28.632C195.844 31.872 194.674 34.41 192.334 36.246C190.03 38.082 186.844 39 182.776 39H168.844C167.8 39 166.972 38.712 166.36 38.136C165.784 37.56 165.496 36.75 165.496 35.706V4.224C165.496 3.18 165.784 2.37 166.36 1.794C166.972 1.218 167.8 0.929998 168.844 0.929998H182.236C186.196 0.929998 189.292 1.812 191.524 3.576C193.792 5.304 194.926 7.734 194.926 10.866C194.926 12.882 194.386 14.628 193.306 16.104C192.262 17.58 190.804 18.66 188.932 19.344ZM172.3 16.968H181.102C185.89 16.968 188.284 15.186 188.284 11.622C188.284 9.822 187.69 8.49 186.502 7.626C185.314 6.762 183.514 6.33 181.102 6.33H172.3V16.968ZM182.02 33.6C184.54 33.6 186.376 33.15 187.528 32.25C188.68 31.35 189.256 29.946 189.256 28.038C189.256 26.13 188.662 24.708 187.474 23.772C186.322 22.836 184.504 22.368 182.02 22.368H172.3V33.6H182.02ZM218.637 20.532C217.953 20.532 217.377 20.316 216.909 19.884C216.477 19.416 216.261 18.84 216.261 18.156C216.261 17.472 216.477 16.914 216.909 16.482C217.377 16.014 217.953 15.78 218.637 15.78H240.237C240.921 15.78 241.479 16.014 241.911 16.482C242.379 16.95 242.613 17.526 242.613 18.21C242.613 18.858 242.379 19.416 241.911 19.884C241.479 20.316 240.921 20.532 240.237 20.532H218.637ZM218.637 31.332C217.953 31.332 217.377 31.116 216.909 30.684C216.477 30.216 216.261 29.64 216.261 28.956C216.261 28.272 216.477 27.714 216.909 27.282C217.377 26.814 217.953 26.58 218.637 26.58H240.237C240.921 26.58 241.479 26.814 241.911 27.282C242.379 27.75 242.613 28.326 242.613 29.01C242.613 29.658 242.379 30.216 241.911 30.684C241.479 31.116 240.921 31.332 240.237 31.332H218.637ZM281.984 19.452C284.252 20.028 285.98 21.126 287.168 22.746C288.392 24.33 289.004 26.31 289.004 28.686C289.004 31.962 287.798 34.572 285.386 36.516C282.974 38.46 279.716 39.432 275.612 39.432C273.272 39.432 271.022 39.072 268.862 38.352C266.702 37.632 264.866 36.624 263.354 35.328C262.526 34.608 262.112 33.762 262.112 32.79C262.112 31.998 262.328 31.332 262.76 30.792C263.228 30.216 263.768 29.928 264.38 29.928C264.74 29.928 265.064 30 265.352 30.144C265.64 30.252 266.036 30.45 266.54 30.738C268.052 31.746 269.492 32.52 270.86 33.06C272.228 33.6 273.722 33.87 275.342 33.87C277.718 33.87 279.482 33.402 280.634 32.466C281.786 31.494 282.362 30.036 282.362 28.092C282.362 26.184 281.75 24.78 280.526 23.88C279.338 22.944 277.484 22.476 274.964 22.476H271.886C271.058 22.476 270.41 22.206 269.942 21.666C269.51 21.09 269.294 20.442 269.294 19.722C269.294 18.966 269.51 18.318 269.942 17.778C270.41 17.238 271.058 16.968 271.886 16.968H274.046C278.978 16.968 281.444 15.114 281.444 11.406C281.444 9.678 280.922 8.346 279.878 7.41C278.834 6.474 277.394 6.006 275.558 6.006C272.93 6.006 270.122 7.05 267.134 9.138C266.63 9.426 266.234 9.642 265.946 9.786C265.658 9.894 265.334 9.948 264.974 9.948C264.362 9.948 263.822 9.678 263.354 9.138C262.922 8.562 262.706 7.878 262.706 7.086C262.706 6.546 262.796 6.096 262.976 5.736C263.192 5.34 263.516 4.944 263.948 4.548C265.46 3.288 267.26 2.298 269.348 1.578C271.472 0.821998 273.632 0.443998 275.828 0.443998C279.572 0.443998 282.542 1.362 284.738 3.198C286.97 5.034 288.086 7.482 288.086 10.542C288.05 12.63 287.492 14.466 286.412 16.05C285.368 17.598 283.892 18.732 281.984 19.452ZM298.919 31.224C300.143 31.224 301.133 31.674 301.889 32.574C302.645 33.474 303.023 34.788 303.023 36.516C303.023 39.936 301.835 42.888 299.459 45.372C298.991 45.84 298.487 46.074 297.947 46.074C297.407 46.074 296.939 45.894 296.543 45.534C296.147 45.174 295.949 44.742 295.949 44.238C295.949 43.806 296.129 43.392 296.489 42.996C297.569 41.844 298.271 40.548 298.595 39.108C297.551 39 296.687 38.604 296.003 37.92C295.355 37.2 295.031 36.318 295.031 35.274C295.031 34.122 295.391 33.168 296.111 32.412C296.867 31.62 297.803 31.224 298.919 31.224ZM341.5 39.486C337.828 39.486 334.606 38.694 331.834 37.11C329.098 35.526 326.992 33.258 325.516 30.306C324.04 27.354 323.302 23.898 323.302 19.938C323.302 15.978 324.04 12.54 325.516 9.624C326.992 6.672 329.098 4.404 331.834 2.82C334.606 1.236 337.828 0.443998 341.5 0.443998C343.876 0.443998 346.108 0.803998 348.196 1.524C350.284 2.208 352.138 3.216 353.758 4.548C354.226 4.908 354.55 5.286 354.73 5.682C354.91 6.078 355 6.564 355 7.14C355 7.932 354.784 8.598 354.352 9.138C353.92 9.678 353.398 9.948 352.786 9.948C352.066 9.948 351.328 9.696 350.572 9.192C349.024 8.04 347.584 7.248 346.252 6.816C344.92 6.348 343.444 6.114 341.824 6.114C338.08 6.114 335.236 7.284 333.292 9.624C331.384 11.964 330.43 15.402 330.43 19.938C330.43 24.51 331.384 27.966 333.292 30.306C335.236 32.646 338.08 33.816 341.824 33.816C343.372 33.816 344.794 33.582 346.09 33.114C347.422 32.646 348.916 31.854 350.572 30.738C350.932 30.522 351.292 30.342 351.652 30.198C352.012 30.054 352.39 29.982 352.786 29.982C353.398 29.982 353.92 30.252 354.352 30.792C354.784 31.332 355 31.998 355 32.79C355 33.33 354.91 33.816 354.73 34.248C354.55 34.644 354.226 35.022 353.758 35.382C352.138 36.714 350.284 37.74 348.196 38.46C346.108 39.144 343.876 39.486 341.5 39.486ZM377.368 20.532C376.684 20.532 376.108 20.316 375.64 19.884C375.208 19.416 374.992 18.84 374.992 18.156C374.992 17.472 375.208 16.914 375.64 16.482C376.108 16.014 376.684 15.78 377.368 15.78H398.968C399.652 15.78 400.21 16.014 400.642 16.482C401.11 16.95 401.344 17.526 401.344 18.21C401.344 18.858 401.11 19.416 400.642 19.884C400.21 20.316 399.652 20.532 398.968 20.532H377.368ZM377.368 31.332C376.684 31.332 376.108 31.116 375.64 30.684C375.208 30.216 374.992 29.64 374.992 28.956C374.992 28.272 375.208 27.714 375.64 27.282C376.108 26.814 376.684 26.58 377.368 26.58H398.968C399.652 26.58 400.21 26.814 400.642 27.282C401.11 27.75 401.344 28.326 401.344 29.01C401.344 29.658 401.11 30.216 400.642 30.684C400.21 31.116 399.652 31.332 398.968 31.332H377.368ZM445.737 33.384C447.897 33.384 448.977 34.302 448.977 36.138C448.977 38.046 447.897 39 445.737 39H427.485C425.289 39 424.191 38.046 424.191 36.138C424.191 34.302 425.289 33.384 427.485 33.384H433.101V8.76L427.917 11.946C427.413 12.234 426.963 12.378 426.567 12.378C425.811 12.378 425.163 12.054 424.623 11.406C424.119 10.758 423.867 10.038 423.867 9.246C423.867 8.202 424.335 7.392 425.271 6.816L433.641 1.632C434.721 0.983998 435.747 0.659998 436.719 0.659998C437.727 0.659998 438.537 0.965998 439.149 1.578C439.761 2.19 440.067 3.036 440.067 4.116V33.384H445.737ZM467.262 39.486C462.762 39.486 459.324 37.83 456.948 34.518C454.572 31.17 453.384 26.31 453.384 19.938C453.384 13.602 454.572 8.778 456.948 5.466C459.324 2.118 462.762 0.443998 467.262 0.443998C471.762 0.443998 475.2 2.118 477.576 5.466C479.952 8.778 481.14 13.602 481.14 19.938C481.14 26.274 479.952 31.116 477.576 34.464C475.2 37.812 471.762 39.486 467.262 39.486ZM467.262 34.032C469.71 34.032 471.492 32.916 472.608 30.684C473.724 28.416 474.282 24.834 474.282 19.938C474.282 15.006 473.724 11.442 472.608 9.246C471.492 7.014 469.71 5.898 467.262 5.898C464.814 5.898 463.032 7.014 461.916 9.246C460.8 11.478 460.242 15.042 460.242 19.938C460.242 24.834 460.8 28.416 461.916 30.684C463.032 32.916 464.814 34.032 467.262 34.032ZM499.64 39.486C495.14 39.486 491.702 37.83 489.326 34.518C486.95 31.17 485.762 26.31 485.762 19.938C485.762 13.602 486.95 8.778 489.326 5.466C491.702 2.118 495.14 0.443998 499.64 0.443998C504.14 0.443998 507.578 2.118 509.954 5.466C512.33 8.778 513.518 13.602 513.518 19.938C513.518 26.274 512.33 31.116 509.954 34.464C507.578 37.812 504.14 39.486 499.64 39.486ZM499.64 34.032C502.088 34.032 503.87 32.916 504.986 30.684C506.102 28.416 506.66 24.834 506.66 19.938C506.66 15.006 506.102 11.442 504.986 9.246C503.87 7.014 502.088 5.898 499.64 5.898C497.192 5.898 495.41 7.014 494.294 9.246C493.178 11.478 492.62 15.042 492.62 19.938C492.62 24.834 493.178 28.416 494.294 30.684C495.41 32.916 497.192 34.032 499.64 34.032Z" fill="black"/>
</svg>
