<svg width="212" height="272" viewBox="0 0 212 272" fill="none" xmlns="http://www.w3.org/2000/svg">
<mask id="mask0_295_116" style="mask-type:luminance" maskUnits="userSpaceOnUse" x="0" y="0" width="212" height="211">
<path d="M0.546875 0H211.422V210.875H0.546875V0Z" fill="white"/>
</mask>
<g mask="url(#mask0_295_116)">
<path d="M211.422 210.875H0.546875V0H211.422V210.875Z" stroke="black" stroke-width="12"/>
</g>
<path d="M124.071 255.842C124.287 256.31 124.395 256.778 124.395 257.246C124.395 258.074 124.053 258.776 123.369 259.352C122.721 259.928 121.965 260.216 121.101 260.216C120.525 260.216 119.985 260.072 119.481 259.784C118.977 259.46 118.581 258.974 118.293 258.326L115.053 251.09H96.0449L92.8049 258.326C92.5169 258.974 92.1209 259.46 91.6169 259.784C91.1129 260.072 90.5549 260.216 89.9429 260.216C89.1149 260.216 88.3589 259.928 87.6749 259.352C86.9909 258.776 86.6489 258.074 86.6489 257.246C86.6489 256.778 86.7569 256.31 86.9729 255.842L101.877 223.82C102.201 223.1 102.687 222.56 103.335 222.2C104.019 221.804 104.739 221.606 105.495 221.606C106.251 221.606 106.953 221.804 107.601 222.2C108.285 222.56 108.789 223.1 109.113 223.82L124.071 255.842ZM98.4209 245.69H112.677L105.549 229.652L98.4209 245.69Z" fill="black"/>
</svg>
