<svg xmlns="http://www.w3.org/2000/svg" xmlns:xlink="http://www.w3.org/1999/xlink" width="832" zoomAndPan="magnify" viewBox="0 0 624 153.750002" height="205" preserveAspectRatio="xMidYMid meet" version="1.0"><defs><g/><clipPath id="7f9508a329"><path d="M 0.507812 0 L 622.746094 0 L 622.746094 153.230469 L 0.507812 153.230469 Z M 0.507812 0 " clip-rule="nonzero"/></clipPath></defs><g clip-path="url(#7f9508a329)"><path stroke-linecap="butt" transform="matrix(0.748782, 0, 0, 0.748782, 0.509286, 0.00000698864)" fill="none" stroke-linejoin="miter" d="M -0.00196784 -0.00000933333 L 831.227716 -0.00000933333 L 831.227716 204.639508 L -0.00196784 204.639508 Z M -0.00196784 -0.00000933333 " stroke="#000000" stroke-width="12" stroke-opacity="1" stroke-miterlimit="4"/></g><g fill="#000000" fill-opacity="1"><g transform="translate(23.31086, 66.763015)"><g><path d="M 10.484375 -12.5 L 10.484375 0 L 3.171875 0 L 3.171875 -35.484375 L 17.015625 -35.484375 C 19.671875 -35.484375 22.007812 -34.992188 24.03125 -34.015625 C 26.0625 -33.046875 27.617188 -31.660156 28.703125 -29.859375 C 29.796875 -28.066406 30.34375 -26.023438 30.34375 -23.734375 C 30.34375 -20.253906 29.148438 -17.507812 26.765625 -15.5 C 24.390625 -13.5 21.097656 -12.5 16.890625 -12.5 Z M 10.484375 -18.421875 L 17.015625 -18.421875 C 18.941406 -18.421875 20.410156 -18.875 21.421875 -19.78125 C 22.441406 -20.695312 22.953125 -22 22.953125 -23.6875 C 22.953125 -25.425781 22.441406 -26.832031 21.421875 -27.90625 C 20.398438 -28.976562 18.984375 -29.53125 17.171875 -29.5625 L 10.484375 -29.5625 Z M 10.484375 -18.421875 "/></g></g></g><g fill="#000000" fill-opacity="1"><g transform="translate(55.504449, 66.763015)"><g><path d="M 14.84375 0.484375 C 10.976562 0.484375 7.828125 -0.695312 5.390625 -3.0625 C 2.960938 -5.4375 1.75 -8.597656 1.75 -12.546875 L 1.75 -13.234375 C 1.75 -15.878906 2.257812 -18.242188 3.28125 -20.328125 C 4.3125 -22.421875 5.765625 -24.03125 7.640625 -25.15625 C 9.515625 -26.289062 11.65625 -26.859375 14.0625 -26.859375 C 17.664062 -26.859375 20.503906 -25.71875 22.578125 -23.4375 C 24.648438 -21.164062 25.6875 -17.941406 25.6875 -13.765625 L 25.6875 -10.890625 L 8.890625 -10.890625 C 9.117188 -9.171875 9.804688 -7.789062 10.953125 -6.75 C 12.097656 -5.707031 13.546875 -5.1875 15.296875 -5.1875 C 18.015625 -5.1875 20.132812 -6.171875 21.65625 -8.140625 L 25.125 -4.265625 C 24.070312 -2.765625 22.640625 -1.597656 20.828125 -0.765625 C 19.023438 0.0664062 17.03125 0.484375 14.84375 0.484375 Z M 14.03125 -21.15625 C 12.632812 -21.15625 11.5 -20.679688 10.625 -19.734375 C 9.757812 -18.796875 9.207031 -17.445312 8.96875 -15.6875 L 18.765625 -15.6875 L 18.765625 -16.25 C 18.734375 -17.8125 18.3125 -19.019531 17.5 -19.875 C 16.6875 -20.726562 15.53125 -21.15625 14.03125 -21.15625 Z M 14.03125 -21.15625 "/></g></g></g><g fill="#000000" fill-opacity="1"><g transform="translate(82.482726, 66.763015)"><g><path d="M 9.1875 -26.359375 L 9.40625 -23.328125 C 11.289062 -25.679688 13.816406 -26.859375 16.984375 -26.859375 C 19.773438 -26.859375 21.851562 -26.035156 23.21875 -24.390625 C 24.582031 -22.753906 25.28125 -20.300781 25.3125 -17.03125 L 25.3125 0 L 18.28125 0 L 18.28125 -16.859375 C 18.28125 -18.359375 17.953125 -19.441406 17.296875 -20.109375 C 16.648438 -20.785156 15.570312 -21.125 14.0625 -21.125 C 12.082031 -21.125 10.59375 -20.28125 9.59375 -18.59375 L 9.59375 0 L 2.5625 0 L 2.5625 -26.359375 Z M 9.1875 -26.359375 "/></g></g></g><g fill="#000000" fill-opacity="1"><g transform="translate(110.435827, 66.763015)"><g><path d="M 13.671875 -5.1875 C 14.972656 -5.1875 16.03125 -5.539062 16.84375 -6.25 C 17.65625 -6.96875 18.078125 -7.921875 18.109375 -9.109375 L 24.703125 -9.109375 C 24.691406 -7.328125 24.207031 -5.691406 23.25 -4.203125 C 22.289062 -2.710938 20.976562 -1.554688 19.3125 -0.734375 C 17.644531 0.078125 15.804688 0.484375 13.796875 0.484375 C 10.023438 0.484375 7.050781 -0.710938 4.875 -3.109375 C 2.695312 -5.503906 1.609375 -8.8125 1.609375 -13.03125 L 1.609375 -13.5 C 1.609375 -17.5625 2.6875 -20.800781 4.84375 -23.21875 C 7.007812 -25.644531 9.976562 -26.859375 13.75 -26.859375 C 17.039062 -26.859375 19.679688 -25.914062 21.671875 -24.03125 C 23.660156 -22.15625 24.671875 -19.660156 24.703125 -16.546875 L 18.109375 -16.546875 C 18.078125 -17.910156 17.65625 -19.019531 16.84375 -19.875 C 16.03125 -20.726562 14.957031 -21.15625 13.625 -21.15625 C 11.976562 -21.15625 10.738281 -20.554688 9.90625 -19.359375 C 9.070312 -18.160156 8.65625 -16.222656 8.65625 -13.546875 L 8.65625 -12.8125 C 8.65625 -10.101562 9.066406 -8.15625 9.890625 -6.96875 C 10.722656 -5.78125 11.984375 -5.1875 13.671875 -5.1875 Z M 13.671875 -5.1875 "/></g></g></g><g fill="#000000" fill-opacity="1"><g transform="translate(136.463649, 66.763015)"><g><path d="M 14.84375 0.484375 C 10.976562 0.484375 7.828125 -0.695312 5.390625 -3.0625 C 2.960938 -5.4375 1.75 -8.597656 1.75 -12.546875 L 1.75 -13.234375 C 1.75 -15.878906 2.257812 -18.242188 3.28125 -20.328125 C 4.3125 -22.421875 5.765625 -24.03125 7.640625 -25.15625 C 9.515625 -26.289062 11.65625 -26.859375 14.0625 -26.859375 C 17.664062 -26.859375 20.503906 -25.71875 22.578125 -23.4375 C 24.648438 -21.164062 25.6875 -17.941406 25.6875 -13.765625 L 25.6875 -10.890625 L 8.890625 -10.890625 C 9.117188 -9.171875 9.804688 -7.789062 10.953125 -6.75 C 12.097656 -5.707031 13.546875 -5.1875 15.296875 -5.1875 C 18.015625 -5.1875 20.132812 -6.171875 21.65625 -8.140625 L 25.125 -4.265625 C 24.070312 -2.765625 22.640625 -1.597656 20.828125 -0.765625 C 19.023438 0.0664062 17.03125 0.484375 14.84375 0.484375 Z M 14.03125 -21.15625 C 12.632812 -21.15625 11.5 -20.679688 10.625 -19.734375 C 9.757812 -18.796875 9.207031 -17.445312 8.96875 -15.6875 L 18.765625 -15.6875 L 18.765625 -16.25 C 18.734375 -17.8125 18.3125 -19.019531 17.5 -19.875 C 16.6875 -20.726562 15.53125 -21.15625 14.03125 -21.15625 Z M 14.03125 -21.15625 "/></g></g></g><g fill="#000000" fill-opacity="1"><g transform="translate(163.441926, 66.763015)"><g><path d="M 17.515625 -19.765625 C 16.554688 -19.890625 15.710938 -19.953125 14.984375 -19.953125 C 12.316406 -19.953125 10.570312 -19.050781 9.75 -17.25 L 9.75 0 L 2.703125 0 L 2.703125 -26.359375 L 9.359375 -26.359375 L 9.546875 -23.21875 C 10.960938 -25.644531 12.921875 -26.859375 15.421875 -26.859375 C 16.203125 -26.859375 16.9375 -26.75 17.625 -26.53125 Z M 17.515625 -19.765625 "/></g></g></g><g fill="#000000" fill-opacity="1"><g transform="translate(181.646779, 66.763015)"><g><path d="M 9.3125 -26.359375 L 9.53125 -23.421875 C 11.394531 -25.710938 13.921875 -26.859375 17.109375 -26.859375 C 20.503906 -26.859375 22.832031 -25.515625 24.09375 -22.828125 C 25.945312 -25.515625 28.585938 -26.859375 32.015625 -26.859375 C 34.878906 -26.859375 37.007812 -26.023438 38.40625 -24.359375 C 39.800781 -22.691406 40.5 -20.1875 40.5 -16.84375 L 40.5 0 L 33.4375 0 L 33.4375 -16.8125 C 33.4375 -18.3125 33.140625 -19.40625 32.546875 -20.09375 C 31.960938 -20.78125 30.9375 -21.125 29.46875 -21.125 C 27.351562 -21.125 25.890625 -20.117188 25.078125 -18.109375 L 25.09375 0 L 18.0625 0 L 18.0625 -16.796875 C 18.0625 -18.316406 17.757812 -19.414062 17.15625 -20.09375 C 16.550781 -20.78125 15.523438 -21.125 14.078125 -21.125 C 12.085938 -21.125 10.644531 -20.296875 9.75 -18.640625 L 9.75 0 L 2.703125 0 L 2.703125 -26.359375 Z M 9.3125 -26.359375 "/></g></g></g><g fill="#000000" fill-opacity="1"><g transform="translate(224.855889, 66.763015)"><g><path d="M 10.140625 0 L 3.078125 0 L 3.078125 -26.359375 L 10.140625 -26.359375 Z M 2.65625 -33.1875 C 2.65625 -34.25 3.007812 -35.117188 3.71875 -35.796875 C 4.425781 -36.484375 5.390625 -36.828125 6.609375 -36.828125 C 7.804688 -36.828125 8.757812 -36.484375 9.46875 -35.796875 C 10.1875 -35.117188 10.546875 -34.25 10.546875 -33.1875 C 10.546875 -32.113281 10.179688 -31.234375 9.453125 -30.546875 C 8.734375 -29.867188 7.78125 -29.53125 6.59375 -29.53125 C 5.414062 -29.53125 4.460938 -29.867188 3.734375 -30.546875 C 3.015625 -31.234375 2.65625 -32.113281 2.65625 -33.1875 Z M 2.65625 -33.1875 "/></g></g></g><g fill="#000000" fill-opacity="1"><g transform="translate(238.089124, 66.763015)"><g><path d="M 9.1875 -26.359375 L 9.40625 -23.328125 C 11.289062 -25.679688 13.816406 -26.859375 16.984375 -26.859375 C 19.773438 -26.859375 21.851562 -26.035156 23.21875 -24.390625 C 24.582031 -22.753906 25.28125 -20.300781 25.3125 -17.03125 L 25.3125 0 L 18.28125 0 L 18.28125 -16.859375 C 18.28125 -18.359375 17.953125 -19.441406 17.296875 -20.109375 C 16.648438 -20.785156 15.570312 -21.125 14.0625 -21.125 C 12.082031 -21.125 10.59375 -20.28125 9.59375 -18.59375 L 9.59375 0 L 2.5625 0 L 2.5625 -26.359375 Z M 9.1875 -26.359375 "/></g></g></g><g fill="#000000" fill-opacity="1"><g transform="translate(266.042237, 66.763015)"><g><path d="M 17.984375 0 C 17.660156 -0.632812 17.425781 -1.421875 17.28125 -2.359375 C 15.570312 -0.460938 13.351562 0.484375 10.625 0.484375 C 8.039062 0.484375 5.898438 -0.257812 4.203125 -1.75 C 2.503906 -3.25 1.65625 -5.132812 1.65625 -7.40625 C 1.65625 -10.195312 2.691406 -12.335938 4.765625 -13.828125 C 6.835938 -15.328125 9.832031 -16.085938 13.75 -16.109375 L 16.984375 -16.109375 L 16.984375 -17.625 C 16.984375 -18.84375 16.671875 -19.816406 16.046875 -20.546875 C 15.421875 -21.273438 14.429688 -21.640625 13.078125 -21.640625 C 11.898438 -21.640625 10.972656 -21.351562 10.296875 -20.78125 C 9.617188 -20.21875 9.28125 -19.441406 9.28125 -18.453125 L 2.234375 -18.453125 C 2.234375 -19.972656 2.703125 -21.382812 3.640625 -22.6875 C 4.585938 -23.988281 5.921875 -25.007812 7.640625 -25.75 C 9.367188 -26.488281 11.304688 -26.859375 13.453125 -26.859375 C 16.703125 -26.859375 19.28125 -26.039062 21.1875 -24.40625 C 23.09375 -22.769531 24.046875 -20.472656 24.046875 -17.515625 L 24.046875 -6.09375 C 24.066406 -3.59375 24.414062 -1.703125 25.09375 -0.421875 L 25.09375 0 Z M 12.15625 -4.890625 C 13.195312 -4.890625 14.15625 -5.117188 15.03125 -5.578125 C 15.90625 -6.046875 16.554688 -6.671875 16.984375 -7.453125 L 16.984375 -11.984375 L 14.359375 -11.984375 C 10.828125 -11.984375 8.945312 -10.765625 8.71875 -8.328125 L 8.703125 -7.921875 C 8.703125 -7.046875 9.007812 -6.320312 9.625 -5.75 C 10.238281 -5.175781 11.082031 -4.890625 12.15625 -4.890625 Z M 12.15625 -4.890625 "/></g></g></g><g fill="#000000" fill-opacity="1"><g transform="translate(292.801178, 66.763015)"><g><path d="M 9.1875 -26.359375 L 9.40625 -23.328125 C 11.289062 -25.679688 13.816406 -26.859375 16.984375 -26.859375 C 19.773438 -26.859375 21.851562 -26.035156 23.21875 -24.390625 C 24.582031 -22.753906 25.28125 -20.300781 25.3125 -17.03125 L 25.3125 0 L 18.28125 0 L 18.28125 -16.859375 C 18.28125 -18.359375 17.953125 -19.441406 17.296875 -20.109375 C 16.648438 -20.785156 15.570312 -21.125 14.0625 -21.125 C 12.082031 -21.125 10.59375 -20.28125 9.59375 -18.59375 L 9.59375 0 L 2.5625 0 L 2.5625 -26.359375 Z M 9.1875 -26.359375 "/></g></g></g><g fill="#000000" fill-opacity="1"><g transform="translate(320.754267, 66.763015)"><g/></g></g><g fill="#000000" fill-opacity="1"><g transform="translate(333.183306, 66.763015)"><g><path d="M 12.546875 -9.96875 L 17.421875 -26.359375 L 24.984375 -26.359375 L 14.375 4.09375 L 13.796875 5.484375 C 12.210938 8.929688 9.613281 10.65625 6 10.65625 C 4.96875 10.65625 3.925781 10.5 2.875 10.1875 L 2.875 4.84375 L 3.953125 4.875 C 5.285156 4.875 6.28125 4.671875 6.9375 4.265625 C 7.59375 3.859375 8.109375 3.179688 8.484375 2.234375 L 9.3125 0.078125 L 0.078125 -26.359375 L 7.65625 -26.359375 Z M 12.546875 -9.96875 "/></g></g></g><g fill="#000000" fill-opacity="1"><g transform="translate(358.236304, 66.763015)"><g><path d="M 17.984375 0 C 17.660156 -0.632812 17.425781 -1.421875 17.28125 -2.359375 C 15.570312 -0.460938 13.351562 0.484375 10.625 0.484375 C 8.039062 0.484375 5.898438 -0.257812 4.203125 -1.75 C 2.503906 -3.25 1.65625 -5.132812 1.65625 -7.40625 C 1.65625 -10.195312 2.691406 -12.335938 4.765625 -13.828125 C 6.835938 -15.328125 9.832031 -16.085938 13.75 -16.109375 L 16.984375 -16.109375 L 16.984375 -17.625 C 16.984375 -18.84375 16.671875 -19.816406 16.046875 -20.546875 C 15.421875 -21.273438 14.429688 -21.640625 13.078125 -21.640625 C 11.898438 -21.640625 10.972656 -21.351562 10.296875 -20.78125 C 9.617188 -20.21875 9.28125 -19.441406 9.28125 -18.453125 L 2.234375 -18.453125 C 2.234375 -19.972656 2.703125 -21.382812 3.640625 -22.6875 C 4.585938 -23.988281 5.921875 -25.007812 7.640625 -25.75 C 9.367188 -26.488281 11.304688 -26.859375 13.453125 -26.859375 C 16.703125 -26.859375 19.28125 -26.039062 21.1875 -24.40625 C 23.09375 -22.769531 24.046875 -20.472656 24.046875 -17.515625 L 24.046875 -6.09375 C 24.066406 -3.59375 24.414062 -1.703125 25.09375 -0.421875 L 25.09375 0 Z M 12.15625 -4.890625 C 13.195312 -4.890625 14.15625 -5.117188 15.03125 -5.578125 C 15.90625 -6.046875 16.554688 -6.671875 16.984375 -7.453125 L 16.984375 -11.984375 L 14.359375 -11.984375 C 10.828125 -11.984375 8.945312 -10.765625 8.71875 -8.328125 L 8.703125 -7.921875 C 8.703125 -7.046875 9.007812 -6.320312 9.625 -5.75 C 10.238281 -5.175781 11.082031 -4.890625 12.15625 -4.890625 Z M 12.15625 -4.890625 "/></g></g></g><g fill="#000000" fill-opacity="1"><g transform="translate(384.995222, 66.763015)"><g><path d="M 9.1875 -26.359375 L 9.40625 -23.328125 C 11.289062 -25.679688 13.816406 -26.859375 16.984375 -26.859375 C 19.773438 -26.859375 21.851562 -26.035156 23.21875 -24.390625 C 24.582031 -22.753906 25.28125 -20.300781 25.3125 -17.03125 L 25.3125 0 L 18.28125 0 L 18.28125 -16.859375 C 18.28125 -18.359375 17.953125 -19.441406 17.296875 -20.109375 C 16.648438 -20.785156 15.570312 -21.125 14.0625 -21.125 C 12.082031 -21.125 10.59375 -20.28125 9.59375 -18.59375 L 9.59375 0 L 2.5625 0 L 2.5625 -26.359375 Z M 9.1875 -26.359375 "/></g></g></g><g fill="#000000" fill-opacity="1"><g transform="translate(412.948334, 66.763015)"><g><path d="M 1.6875 -13.375 C 1.6875 -17.425781 2.644531 -20.6875 4.5625 -23.15625 C 6.488281 -25.625 9.085938 -26.859375 12.359375 -26.859375 C 15.242188 -26.859375 17.492188 -25.863281 19.109375 -23.875 L 19.390625 -26.359375 L 25.78125 -26.359375 L 25.78125 -0.875 C 25.78125 1.425781 25.253906 3.429688 24.203125 5.140625 C 23.160156 6.847656 21.6875 8.144531 19.78125 9.03125 C 17.882812 9.925781 15.660156 10.375 13.109375 10.375 C 11.171875 10.375 9.285156 9.988281 7.453125 9.21875 C 5.617188 8.445312 4.234375 7.453125 3.296875 6.234375 L 6.40625 1.953125 C 8.164062 3.910156 10.296875 4.890625 12.796875 4.890625 C 14.660156 4.890625 16.113281 4.390625 17.15625 3.390625 C 18.195312 2.398438 18.71875 0.984375 18.71875 -0.859375 L 18.71875 -2.265625 C 17.09375 -0.429688 14.957031 0.484375 12.3125 0.484375 C 9.132812 0.484375 6.566406 -0.75 4.609375 -3.21875 C 2.660156 -5.695312 1.6875 -8.984375 1.6875 -13.078125 Z M 8.71875 -12.859375 C 8.71875 -10.472656 9.195312 -8.601562 10.15625 -7.25 C 11.113281 -5.894531 12.429688 -5.21875 14.109375 -5.21875 C 16.253906 -5.21875 17.789062 -6.019531 18.71875 -7.625 L 18.71875 -18.71875 C 17.769531 -20.320312 16.25 -21.125 14.15625 -21.125 C 12.46875 -21.125 11.140625 -20.429688 10.171875 -19.046875 C 9.203125 -17.671875 8.71875 -15.609375 8.71875 -12.859375 Z M 8.71875 -12.859375 "/></g></g></g><g fill="#000000" fill-opacity="1"><g transform="translate(441.437578, 66.763015)"><g/></g></g><g fill="#000000" fill-opacity="1"><g transform="translate(453.866617, 66.763015)"><g><path d="M 16.984375 -7.28125 C 16.984375 -8.144531 16.554688 -8.820312 15.703125 -9.3125 C 14.847656 -9.8125 13.476562 -10.257812 11.59375 -10.65625 C 5.320312 -11.96875 2.1875 -14.628906 2.1875 -18.640625 C 2.1875 -20.984375 3.15625 -22.9375 5.09375 -24.5 C 7.039062 -26.070312 9.582031 -26.859375 12.71875 -26.859375 C 16.0625 -26.859375 18.738281 -26.066406 20.75 -24.484375 C 22.757812 -22.910156 23.765625 -20.863281 23.765625 -18.34375 L 16.71875 -18.34375 C 16.71875 -19.351562 16.390625 -20.1875 15.734375 -20.84375 C 15.085938 -21.5 14.078125 -21.828125 12.703125 -21.828125 C 11.515625 -21.828125 10.59375 -21.554688 9.9375 -21.015625 C 9.289062 -20.484375 8.96875 -19.804688 8.96875 -18.984375 C 8.96875 -18.203125 9.335938 -17.570312 10.078125 -17.09375 C 10.816406 -16.613281 12.0625 -16.195312 13.8125 -15.84375 C 15.570312 -15.5 17.050781 -15.109375 18.25 -14.671875 C 21.96875 -13.304688 23.828125 -10.941406 23.828125 -7.578125 C 23.828125 -5.171875 22.796875 -3.222656 20.734375 -1.734375 C 18.671875 -0.253906 16.007812 0.484375 12.75 0.484375 C 10.539062 0.484375 8.578125 0.09375 6.859375 -0.6875 C 5.140625 -1.476562 3.789062 -2.5625 2.8125 -3.9375 C 1.84375 -5.3125 1.359375 -6.789062 1.359375 -8.375 L 8.046875 -8.375 C 8.109375 -7.125 8.566406 -6.164062 9.421875 -5.5 C 10.285156 -4.84375 11.441406 -4.515625 12.890625 -4.515625 C 14.234375 -4.515625 15.25 -4.769531 15.9375 -5.28125 C 16.632812 -5.789062 16.984375 -6.457031 16.984375 -7.28125 Z M 16.984375 -7.28125 "/></g></g></g><g fill="#000000" fill-opacity="1"><g transform="translate(479.528868, 66.763015)"><g><path d="M 14.84375 0.484375 C 10.976562 0.484375 7.828125 -0.695312 5.390625 -3.0625 C 2.960938 -5.4375 1.75 -8.597656 1.75 -12.546875 L 1.75 -13.234375 C 1.75 -15.878906 2.257812 -18.242188 3.28125 -20.328125 C 4.3125 -22.421875 5.765625 -24.03125 7.640625 -25.15625 C 9.515625 -26.289062 11.65625 -26.859375 14.0625 -26.859375 C 17.664062 -26.859375 20.503906 -25.71875 22.578125 -23.4375 C 24.648438 -21.164062 25.6875 -17.941406 25.6875 -13.765625 L 25.6875 -10.890625 L 8.890625 -10.890625 C 9.117188 -9.171875 9.804688 -7.789062 10.953125 -6.75 C 12.097656 -5.707031 13.546875 -5.1875 15.296875 -5.1875 C 18.015625 -5.1875 20.132812 -6.171875 21.65625 -8.140625 L 25.125 -4.265625 C 24.070312 -2.765625 22.640625 -1.597656 20.828125 -0.765625 C 19.023438 0.0664062 17.03125 0.484375 14.84375 0.484375 Z M 14.03125 -21.15625 C 12.632812 -21.15625 11.5 -20.679688 10.625 -19.734375 C 9.757812 -18.796875 9.207031 -17.445312 8.96875 -15.6875 L 18.765625 -15.6875 L 18.765625 -16.25 C 18.734375 -17.8125 18.3125 -19.019531 17.5 -19.875 C 16.6875 -20.726562 15.53125 -21.15625 14.03125 -21.15625 Z M 14.03125 -21.15625 "/></g></g></g><g fill="#000000" fill-opacity="1"><g transform="translate(506.507156, 66.763015)"><g><path d="M 16.984375 -7.28125 C 16.984375 -8.144531 16.554688 -8.820312 15.703125 -9.3125 C 14.847656 -9.8125 13.476562 -10.257812 11.59375 -10.65625 C 5.320312 -11.96875 2.1875 -14.628906 2.1875 -18.640625 C 2.1875 -20.984375 3.15625 -22.9375 5.09375 -24.5 C 7.039062 -26.070312 9.582031 -26.859375 12.71875 -26.859375 C 16.0625 -26.859375 18.738281 -26.066406 20.75 -24.484375 C 22.757812 -22.910156 23.765625 -20.863281 23.765625 -18.34375 L 16.71875 -18.34375 C 16.71875 -19.351562 16.390625 -20.1875 15.734375 -20.84375 C 15.085938 -21.5 14.078125 -21.828125 12.703125 -21.828125 C 11.515625 -21.828125 10.59375 -21.554688 9.9375 -21.015625 C 9.289062 -20.484375 8.96875 -19.804688 8.96875 -18.984375 C 8.96875 -18.203125 9.335938 -17.570312 10.078125 -17.09375 C 10.816406 -16.613281 12.0625 -16.195312 13.8125 -15.84375 C 15.570312 -15.5 17.050781 -15.109375 18.25 -14.671875 C 21.96875 -13.304688 23.828125 -10.941406 23.828125 -7.578125 C 23.828125 -5.171875 22.796875 -3.222656 20.734375 -1.734375 C 18.671875 -0.253906 16.007812 0.484375 12.75 0.484375 C 10.539062 0.484375 8.578125 0.09375 6.859375 -0.6875 C 5.140625 -1.476562 3.789062 -2.5625 2.8125 -3.9375 C 1.84375 -5.3125 1.359375 -6.789062 1.359375 -8.375 L 8.046875 -8.375 C 8.109375 -7.125 8.566406 -6.164062 9.421875 -5.5 C 10.285156 -4.84375 11.441406 -4.515625 12.890625 -4.515625 C 14.234375 -4.515625 15.25 -4.769531 15.9375 -5.28125 C 16.632812 -5.789062 16.984375 -6.457031 16.984375 -7.28125 Z M 16.984375 -7.28125 "/></g></g></g><g fill="#000000" fill-opacity="1"><g transform="translate(532.169408, 66.763015)"><g><path d="M 18.5 -2.6875 C 16.757812 -0.570312 14.351562 0.484375 11.28125 0.484375 C 8.457031 0.484375 6.300781 -0.328125 4.8125 -1.953125 C 3.320312 -3.578125 2.5625 -5.957031 2.53125 -9.09375 L 2.53125 -26.359375 L 9.578125 -26.359375 L 9.578125 -9.328125 C 9.578125 -6.585938 10.828125 -5.21875 13.328125 -5.21875 C 15.710938 -5.21875 17.351562 -6.046875 18.25 -7.703125 L 18.25 -26.359375 L 25.3125 -26.359375 L 25.3125 0 L 18.6875 0 Z M 18.5 -2.6875 "/></g></g></g><g fill="#000000" fill-opacity="1"><g transform="translate(560.098116, 66.763015)"><g><path d="M 17.984375 0 C 17.660156 -0.632812 17.425781 -1.421875 17.28125 -2.359375 C 15.570312 -0.460938 13.351562 0.484375 10.625 0.484375 C 8.039062 0.484375 5.898438 -0.257812 4.203125 -1.75 C 2.503906 -3.25 1.65625 -5.132812 1.65625 -7.40625 C 1.65625 -10.195312 2.691406 -12.335938 4.765625 -13.828125 C 6.835938 -15.328125 9.832031 -16.085938 13.75 -16.109375 L 16.984375 -16.109375 L 16.984375 -17.625 C 16.984375 -18.84375 16.671875 -19.816406 16.046875 -20.546875 C 15.421875 -21.273438 14.429688 -21.640625 13.078125 -21.640625 C 11.898438 -21.640625 10.972656 -21.351562 10.296875 -20.78125 C 9.617188 -20.21875 9.28125 -19.441406 9.28125 -18.453125 L 2.234375 -18.453125 C 2.234375 -19.972656 2.703125 -21.382812 3.640625 -22.6875 C 4.585938 -23.988281 5.921875 -25.007812 7.640625 -25.75 C 9.367188 -26.488281 11.304688 -26.859375 13.453125 -26.859375 C 16.703125 -26.859375 19.28125 -26.039062 21.1875 -24.40625 C 23.09375 -22.769531 24.046875 -20.472656 24.046875 -17.515625 L 24.046875 -6.09375 C 24.066406 -3.59375 24.414062 -1.703125 25.09375 -0.421875 L 25.09375 0 Z M 12.15625 -4.890625 C 13.195312 -4.890625 14.15625 -5.117188 15.03125 -5.578125 C 15.90625 -6.046875 16.554688 -6.671875 16.984375 -7.453125 L 16.984375 -11.984375 L 14.359375 -11.984375 C 10.828125 -11.984375 8.945312 -10.765625 8.71875 -8.328125 L 8.703125 -7.921875 C 8.703125 -7.046875 9.007812 -6.320312 9.625 -5.75 C 10.238281 -5.175781 11.082031 -4.890625 12.15625 -4.890625 Z M 12.15625 -4.890625 "/></g></g></g><g fill="#000000" fill-opacity="1"><g transform="translate(586.857079, 66.763015)"><g><path d="M 10.140625 0 L 3.078125 0 L 3.078125 -26.359375 L 10.140625 -26.359375 Z M 2.65625 -33.1875 C 2.65625 -34.25 3.007812 -35.117188 3.71875 -35.796875 C 4.425781 -36.484375 5.390625 -36.828125 6.609375 -36.828125 C 7.804688 -36.828125 8.757812 -36.484375 9.46875 -35.796875 C 10.1875 -35.117188 10.546875 -34.25 10.546875 -33.1875 C 10.546875 -32.113281 10.179688 -31.234375 9.453125 -30.546875 C 8.734375 -29.867188 7.78125 -29.53125 6.59375 -29.53125 C 5.414062 -29.53125 4.460938 -29.867188 3.734375 -30.546875 C 3.015625 -31.234375 2.65625 -32.113281 2.65625 -33.1875 Z M 2.65625 -33.1875 "/></g></g></g><g fill="#000000" fill-opacity="1"><g transform="translate(22.550378, 113.187526)"><g><path d="M 12.28125 -10.578125 L 9.75 -8.046875 L 9.75 0 L 2.703125 0 L 2.703125 -37.4375 L 9.75 -37.4375 L 9.75 -16.6875 L 11.109375 -18.453125 L 17.859375 -26.359375 L 26.3125 -26.359375 L 16.796875 -15.375 L 27.140625 0 L 19.0625 0 Z M 12.28125 -10.578125 "/></g></g></g><g fill="#000000" fill-opacity="1"><g transform="translate(49.211836, 113.187526)"><g><path d="M 17.984375 0 C 17.660156 -0.632812 17.425781 -1.421875 17.28125 -2.359375 C 15.570312 -0.460938 13.351562 0.484375 10.625 0.484375 C 8.039062 0.484375 5.898438 -0.257812 4.203125 -1.75 C 2.503906 -3.25 1.65625 -5.132812 1.65625 -7.40625 C 1.65625 -10.195312 2.691406 -12.335938 4.765625 -13.828125 C 6.835938 -15.328125 9.832031 -16.085938 13.75 -16.109375 L 16.984375 -16.109375 L 16.984375 -17.625 C 16.984375 -18.84375 16.671875 -19.816406 16.046875 -20.546875 C 15.421875 -21.273438 14.429688 -21.640625 13.078125 -21.640625 C 11.898438 -21.640625 10.972656 -21.351562 10.296875 -20.78125 C 9.617188 -20.21875 9.28125 -19.441406 9.28125 -18.453125 L 2.234375 -18.453125 C 2.234375 -19.972656 2.703125 -21.382812 3.640625 -22.6875 C 4.585938 -23.988281 5.921875 -25.007812 7.640625 -25.75 C 9.367188 -26.488281 11.304688 -26.859375 13.453125 -26.859375 C 16.703125 -26.859375 19.28125 -26.039062 21.1875 -24.40625 C 23.09375 -22.769531 24.046875 -20.472656 24.046875 -17.515625 L 24.046875 -6.09375 C 24.066406 -3.59375 24.414062 -1.703125 25.09375 -0.421875 L 25.09375 0 Z M 12.15625 -4.890625 C 13.195312 -4.890625 14.15625 -5.117188 15.03125 -5.578125 C 15.90625 -6.046875 16.554688 -6.671875 16.984375 -7.453125 L 16.984375 -11.984375 L 14.359375 -11.984375 C 10.828125 -11.984375 8.945312 -10.765625 8.71875 -8.328125 L 8.703125 -7.921875 C 8.703125 -7.046875 9.007812 -6.320312 9.625 -5.75 C 10.238281 -5.175781 11.082031 -4.890625 12.15625 -4.890625 Z M 12.15625 -4.890625 "/></g></g></g><g fill="#000000" fill-opacity="1"><g transform="translate(75.970777, 113.187526)"><g><path d="M 10.140625 0 L 3.078125 0 L 3.078125 -26.359375 L 10.140625 -26.359375 Z M 2.65625 -33.1875 C 2.65625 -34.25 3.007812 -35.117188 3.71875 -35.796875 C 4.425781 -36.484375 5.390625 -36.828125 6.609375 -36.828125 C 7.804688 -36.828125 8.757812 -36.484375 9.46875 -35.796875 C 10.1875 -35.117188 10.546875 -34.25 10.546875 -33.1875 C 10.546875 -32.113281 10.179688 -31.234375 9.453125 -30.546875 C 8.734375 -29.867188 7.78125 -29.53125 6.59375 -29.53125 C 5.414062 -29.53125 4.460938 -29.867188 3.734375 -30.546875 C 3.015625 -31.234375 2.65625 -32.113281 2.65625 -33.1875 Z M 2.65625 -33.1875 "/></g></g></g><g fill="#000000" fill-opacity="1"><g transform="translate(89.204024, 113.187526)"><g><path d="M 1.609375 -13.375 C 1.609375 -17.488281 2.53125 -20.765625 4.375 -23.203125 C 6.21875 -25.640625 8.738281 -26.859375 11.9375 -26.859375 C 14.507812 -26.859375 16.628906 -25.898438 18.296875 -23.984375 L 18.296875 -37.4375 L 25.375 -37.4375 L 25.375 0 L 19 0 L 18.671875 -2.796875 C 16.910156 -0.609375 14.648438 0.484375 11.890625 0.484375 C 8.785156 0.484375 6.296875 -0.734375 4.421875 -3.171875 C 2.546875 -5.617188 1.609375 -9.019531 1.609375 -13.375 Z M 8.65625 -12.859375 C 8.65625 -10.390625 9.082031 -8.5 9.9375 -7.1875 C 10.800781 -5.875 12.050781 -5.21875 13.6875 -5.21875 C 15.863281 -5.21875 17.398438 -6.132812 18.296875 -7.96875 L 18.296875 -18.375 C 17.421875 -20.207031 15.90625 -21.125 13.75 -21.125 C 10.351562 -21.125 8.65625 -18.367188 8.65625 -12.859375 Z M 8.65625 -12.859375 "/></g></g></g><g fill="#000000" fill-opacity="1"><g transform="translate(117.32772, 113.187526)"><g><path d="M 17.984375 0 C 17.660156 -0.632812 17.425781 -1.421875 17.28125 -2.359375 C 15.570312 -0.460938 13.351562 0.484375 10.625 0.484375 C 8.039062 0.484375 5.898438 -0.257812 4.203125 -1.75 C 2.503906 -3.25 1.65625 -5.132812 1.65625 -7.40625 C 1.65625 -10.195312 2.691406 -12.335938 4.765625 -13.828125 C 6.835938 -15.328125 9.832031 -16.085938 13.75 -16.109375 L 16.984375 -16.109375 L 16.984375 -17.625 C 16.984375 -18.84375 16.671875 -19.816406 16.046875 -20.546875 C 15.421875 -21.273438 14.429688 -21.640625 13.078125 -21.640625 C 11.898438 -21.640625 10.972656 -21.351562 10.296875 -20.78125 C 9.617188 -20.21875 9.28125 -19.441406 9.28125 -18.453125 L 2.234375 -18.453125 C 2.234375 -19.972656 2.703125 -21.382812 3.640625 -22.6875 C 4.585938 -23.988281 5.921875 -25.007812 7.640625 -25.75 C 9.367188 -26.488281 11.304688 -26.859375 13.453125 -26.859375 C 16.703125 -26.859375 19.28125 -26.039062 21.1875 -24.40625 C 23.09375 -22.769531 24.046875 -20.472656 24.046875 -17.515625 L 24.046875 -6.09375 C 24.066406 -3.59375 24.414062 -1.703125 25.09375 -0.421875 L 25.09375 0 Z M 12.15625 -4.890625 C 13.195312 -4.890625 14.15625 -5.117188 15.03125 -5.578125 C 15.90625 -6.046875 16.554688 -6.671875 16.984375 -7.453125 L 16.984375 -11.984375 L 14.359375 -11.984375 C 10.828125 -11.984375 8.945312 -10.765625 8.71875 -8.328125 L 8.703125 -7.921875 C 8.703125 -7.046875 9.007812 -6.320312 9.625 -5.75 C 10.238281 -5.175781 11.082031 -4.890625 12.15625 -4.890625 Z M 12.15625 -4.890625 "/></g></g></g><g fill="#000000" fill-opacity="1"><g transform="translate(144.086661, 113.187526)"><g><path d="M 9.578125 -23.484375 C 11.441406 -25.734375 13.789062 -26.859375 16.625 -26.859375 C 22.34375 -26.859375 25.238281 -23.535156 25.3125 -16.890625 L 25.3125 0 L 18.28125 0 L 18.28125 -16.6875 C 18.28125 -18.195312 17.953125 -19.3125 17.296875 -20.03125 C 16.648438 -20.757812 15.570312 -21.125 14.0625 -21.125 C 12 -21.125 10.503906 -20.328125 9.578125 -18.734375 L 9.578125 0 L 2.53125 0 L 2.53125 -37.4375 L 9.578125 -37.4375 Z M 9.578125 -23.484375 "/></g></g></g><g fill="#000000" fill-opacity="1"><g transform="translate(172.015391, 113.187526)"><g/></g></g><g fill="#000000" fill-opacity="1"><g transform="translate(184.444408, 113.187526)"><g><path d="M 1.609375 -13.375 C 1.609375 -17.488281 2.53125 -20.765625 4.375 -23.203125 C 6.21875 -25.640625 8.738281 -26.859375 11.9375 -26.859375 C 14.507812 -26.859375 16.628906 -25.898438 18.296875 -23.984375 L 18.296875 -37.4375 L 25.375 -37.4375 L 25.375 0 L 19 0 L 18.671875 -2.796875 C 16.910156 -0.609375 14.648438 0.484375 11.890625 0.484375 C 8.785156 0.484375 6.296875 -0.734375 4.421875 -3.171875 C 2.546875 -5.617188 1.609375 -9.019531 1.609375 -13.375 Z M 8.65625 -12.859375 C 8.65625 -10.390625 9.082031 -8.5 9.9375 -7.1875 C 10.800781 -5.875 12.050781 -5.21875 13.6875 -5.21875 C 15.863281 -5.21875 17.398438 -6.132812 18.296875 -7.96875 L 18.296875 -18.375 C 17.421875 -20.207031 15.90625 -21.125 13.75 -21.125 C 10.351562 -21.125 8.65625 -18.367188 8.65625 -12.859375 Z M 8.65625 -12.859375 "/></g></g></g><g fill="#000000" fill-opacity="1"><g transform="translate(212.568104, 113.187526)"><g><path d="M 10.140625 0 L 3.078125 0 L 3.078125 -26.359375 L 10.140625 -26.359375 Z M 2.65625 -33.1875 C 2.65625 -34.25 3.007812 -35.117188 3.71875 -35.796875 C 4.425781 -36.484375 5.390625 -36.828125 6.609375 -36.828125 C 7.804688 -36.828125 8.757812 -36.484375 9.46875 -35.796875 C 10.1875 -35.117188 10.546875 -34.25 10.546875 -33.1875 C 10.546875 -32.113281 10.179688 -31.234375 9.453125 -30.546875 C 8.734375 -29.867188 7.78125 -29.53125 6.59375 -29.53125 C 5.414062 -29.53125 4.460938 -29.867188 3.734375 -30.546875 C 3.015625 -31.234375 2.65625 -32.113281 2.65625 -33.1875 Z M 2.65625 -33.1875 "/></g></g></g><g fill="#000000" fill-opacity="1"><g transform="translate(225.80135, 113.187526)"><g><path d="M 26.46875 -12.9375 C 26.46875 -8.71875 25.5625 -5.425781 23.75 -3.0625 C 21.945312 -0.695312 19.429688 0.484375 16.203125 0.484375 C 13.347656 0.484375 11.066406 -0.609375 9.359375 -2.796875 L 9.046875 0 L 2.703125 0 L 2.703125 -37.4375 L 9.75 -37.4375 L 9.75 -24 C 11.375 -25.90625 13.507812 -26.859375 16.15625 -26.859375 C 19.375 -26.859375 21.894531 -25.675781 23.71875 -23.3125 C 25.550781 -20.945312 26.46875 -17.617188 26.46875 -13.328125 Z M 19.421875 -13.453125 C 19.421875 -16.117188 19 -18.0625 18.15625 -19.28125 C 17.3125 -20.507812 16.050781 -21.125 14.375 -21.125 C 12.132812 -21.125 10.59375 -20.207031 9.75 -18.375 L 9.75 -7.96875 C 10.601562 -6.113281 12.160156 -5.1875 14.421875 -5.1875 C 16.703125 -5.1875 18.195312 -6.304688 18.90625 -8.546875 C 19.25 -9.617188 19.421875 -11.253906 19.421875 -13.453125 Z M 19.421875 -13.453125 "/></g></g></g><g fill="#000000" fill-opacity="1"><g transform="translate(253.900663, 113.187526)"><g><path d="M 17.984375 0 C 17.660156 -0.632812 17.425781 -1.421875 17.28125 -2.359375 C 15.570312 -0.460938 13.351562 0.484375 10.625 0.484375 C 8.039062 0.484375 5.898438 -0.257812 4.203125 -1.75 C 2.503906 -3.25 1.65625 -5.132812 1.65625 -7.40625 C 1.65625 -10.195312 2.691406 -12.335938 4.765625 -13.828125 C 6.835938 -15.328125 9.832031 -16.085938 13.75 -16.109375 L 16.984375 -16.109375 L 16.984375 -17.625 C 16.984375 -18.84375 16.671875 -19.816406 16.046875 -20.546875 C 15.421875 -21.273438 14.429688 -21.640625 13.078125 -21.640625 C 11.898438 -21.640625 10.972656 -21.351562 10.296875 -20.78125 C 9.617188 -20.21875 9.28125 -19.441406 9.28125 -18.453125 L 2.234375 -18.453125 C 2.234375 -19.972656 2.703125 -21.382812 3.640625 -22.6875 C 4.585938 -23.988281 5.921875 -25.007812 7.640625 -25.75 C 9.367188 -26.488281 11.304688 -26.859375 13.453125 -26.859375 C 16.703125 -26.859375 19.28125 -26.039062 21.1875 -24.40625 C 23.09375 -22.769531 24.046875 -20.472656 24.046875 -17.515625 L 24.046875 -6.09375 C 24.066406 -3.59375 24.414062 -1.703125 25.09375 -0.421875 L 25.09375 0 Z M 12.15625 -4.890625 C 13.195312 -4.890625 14.15625 -5.117188 15.03125 -5.578125 C 15.90625 -6.046875 16.554688 -6.671875 16.984375 -7.453125 L 16.984375 -11.984375 L 14.359375 -11.984375 C 10.828125 -11.984375 8.945312 -10.765625 8.71875 -8.328125 L 8.703125 -7.921875 C 8.703125 -7.046875 9.007812 -6.320312 9.625 -5.75 C 10.238281 -5.175781 11.082031 -4.890625 12.15625 -4.890625 Z M 12.15625 -4.890625 "/></g></g></g><g fill="#000000" fill-opacity="1"><g transform="translate(280.659627, 113.187526)"><g><path d="M 25.640625 -9.578125 L 29.09375 -26.359375 L 35.890625 -26.359375 L 29.171875 0 L 23.265625 0 L 18.28125 -16.59375 L 13.28125 0 L 7.40625 0 L 0.6875 -26.359375 L 7.484375 -26.359375 L 10.921875 -9.59375 L 15.734375 -26.359375 L 20.828125 -26.359375 Z M 25.640625 -9.578125 "/></g></g></g><g fill="#000000" fill-opacity="1"><g transform="translate(317.337398, 113.187526)"><g><path d="M 17.984375 0 C 17.660156 -0.632812 17.425781 -1.421875 17.28125 -2.359375 C 15.570312 -0.460938 13.351562 0.484375 10.625 0.484375 C 8.039062 0.484375 5.898438 -0.257812 4.203125 -1.75 C 2.503906 -3.25 1.65625 -5.132812 1.65625 -7.40625 C 1.65625 -10.195312 2.691406 -12.335938 4.765625 -13.828125 C 6.835938 -15.328125 9.832031 -16.085938 13.75 -16.109375 L 16.984375 -16.109375 L 16.984375 -17.625 C 16.984375 -18.84375 16.671875 -19.816406 16.046875 -20.546875 C 15.421875 -21.273438 14.429688 -21.640625 13.078125 -21.640625 C 11.898438 -21.640625 10.972656 -21.351562 10.296875 -20.78125 C 9.617188 -20.21875 9.28125 -19.441406 9.28125 -18.453125 L 2.234375 -18.453125 C 2.234375 -19.972656 2.703125 -21.382812 3.640625 -22.6875 C 4.585938 -23.988281 5.921875 -25.007812 7.640625 -25.75 C 9.367188 -26.488281 11.304688 -26.859375 13.453125 -26.859375 C 16.703125 -26.859375 19.28125 -26.039062 21.1875 -24.40625 C 23.09375 -22.769531 24.046875 -20.472656 24.046875 -17.515625 L 24.046875 -6.09375 C 24.066406 -3.59375 24.414062 -1.703125 25.09375 -0.421875 L 25.09375 0 Z M 12.15625 -4.890625 C 13.195312 -4.890625 14.15625 -5.117188 15.03125 -5.578125 C 15.90625 -6.046875 16.554688 -6.671875 16.984375 -7.453125 L 16.984375 -11.984375 L 14.359375 -11.984375 C 10.828125 -11.984375 8.945312 -10.765625 8.71875 -8.328125 L 8.703125 -7.921875 C 8.703125 -7.046875 9.007812 -6.320312 9.625 -5.75 C 10.238281 -5.175781 11.082031 -4.890625 12.15625 -4.890625 Z M 12.15625 -4.890625 "/></g></g></g><g fill="#000000" fill-opacity="1"><g transform="translate(344.096339, 113.187526)"><g><path d="M 9.578125 -23.484375 C 11.441406 -25.734375 13.789062 -26.859375 16.625 -26.859375 C 22.34375 -26.859375 25.238281 -23.535156 25.3125 -16.890625 L 25.3125 0 L 18.28125 0 L 18.28125 -16.6875 C 18.28125 -18.195312 17.953125 -19.3125 17.296875 -20.03125 C 16.648438 -20.757812 15.570312 -21.125 14.0625 -21.125 C 12 -21.125 10.503906 -20.328125 9.578125 -18.734375 L 9.578125 0 L 2.53125 0 L 2.53125 -37.4375 L 9.578125 -37.4375 Z M 9.578125 -23.484375 "/></g></g></g><g fill="#000000" fill-opacity="1"><g transform="translate(372.02507, 113.187526)"><g/></g></g><g fill="#000000" fill-opacity="1"><g transform="translate(384.454086, 113.187526)"><g><path d="M 10.140625 0 L 3.078125 0 L 3.078125 -26.359375 L 10.140625 -26.359375 Z M 2.65625 -33.1875 C 2.65625 -34.25 3.007812 -35.117188 3.71875 -35.796875 C 4.425781 -36.484375 5.390625 -36.828125 6.609375 -36.828125 C 7.804688 -36.828125 8.757812 -36.484375 9.46875 -35.796875 C 10.1875 -35.117188 10.546875 -34.25 10.546875 -33.1875 C 10.546875 -32.113281 10.179688 -31.234375 9.453125 -30.546875 C 8.734375 -29.867188 7.78125 -29.53125 6.59375 -29.53125 C 5.414062 -29.53125 4.460938 -29.867188 3.734375 -30.546875 C 3.015625 -31.234375 2.65625 -32.113281 2.65625 -33.1875 Z M 2.65625 -33.1875 "/></g></g></g><g fill="#000000" fill-opacity="1"><g transform="translate(397.687322, 113.187526)"><g><path d="M 9.1875 -26.359375 L 9.40625 -23.328125 C 11.289062 -25.679688 13.816406 -26.859375 16.984375 -26.859375 C 19.773438 -26.859375 21.851562 -26.035156 23.21875 -24.390625 C 24.582031 -22.753906 25.28125 -20.300781 25.3125 -17.03125 L 25.3125 0 L 18.28125 0 L 18.28125 -16.859375 C 18.28125 -18.359375 17.953125 -19.441406 17.296875 -20.109375 C 16.648438 -20.785156 15.570312 -21.125 14.0625 -21.125 C 12.082031 -21.125 10.59375 -20.28125 9.59375 -18.59375 L 9.59375 0 L 2.5625 0 L 2.5625 -26.359375 Z M 9.1875 -26.359375 "/></g></g></g><g fill="#000000" fill-opacity="1"><g transform="translate(425.640434, 113.187526)"><g><path d="M 10.140625 0 L 3.078125 0 L 3.078125 -26.359375 L 10.140625 -26.359375 Z M 2.65625 -33.1875 C 2.65625 -34.25 3.007812 -35.117188 3.71875 -35.796875 C 4.425781 -36.484375 5.390625 -36.828125 6.609375 -36.828125 C 7.804688 -36.828125 8.757812 -36.484375 9.46875 -35.796875 C 10.1875 -35.117188 10.546875 -34.25 10.546875 -33.1875 C 10.546875 -32.113281 10.179688 -31.234375 9.453125 -30.546875 C 8.734375 -29.867188 7.78125 -29.53125 6.59375 -29.53125 C 5.414062 -29.53125 4.460938 -29.867188 3.734375 -30.546875 C 3.015625 -31.234375 2.65625 -32.113281 2.65625 -33.1875 Z M 2.65625 -33.1875 "/></g></g></g><g fill="#000000" fill-opacity="1"><g transform="translate(438.873693, 113.187526)"><g/></g></g><g fill="#000000" fill-opacity="1"><g transform="translate(451.302686, 113.187526)"><g><path d="M 17.984375 0 C 17.660156 -0.632812 17.425781 -1.421875 17.28125 -2.359375 C 15.570312 -0.460938 13.351562 0.484375 10.625 0.484375 C 8.039062 0.484375 5.898438 -0.257812 4.203125 -1.75 C 2.503906 -3.25 1.65625 -5.132812 1.65625 -7.40625 C 1.65625 -10.195312 2.691406 -12.335938 4.765625 -13.828125 C 6.835938 -15.328125 9.832031 -16.085938 13.75 -16.109375 L 16.984375 -16.109375 L 16.984375 -17.625 C 16.984375 -18.84375 16.671875 -19.816406 16.046875 -20.546875 C 15.421875 -21.273438 14.429688 -21.640625 13.078125 -21.640625 C 11.898438 -21.640625 10.972656 -21.351562 10.296875 -20.78125 C 9.617188 -20.21875 9.28125 -19.441406 9.28125 -18.453125 L 2.234375 -18.453125 C 2.234375 -19.972656 2.703125 -21.382812 3.640625 -22.6875 C 4.585938 -23.988281 5.921875 -25.007812 7.640625 -25.75 C 9.367188 -26.488281 11.304688 -26.859375 13.453125 -26.859375 C 16.703125 -26.859375 19.28125 -26.039062 21.1875 -24.40625 C 23.09375 -22.769531 24.046875 -20.472656 24.046875 -17.515625 L 24.046875 -6.09375 C 24.066406 -3.59375 24.414062 -1.703125 25.09375 -0.421875 L 25.09375 0 Z M 12.15625 -4.890625 C 13.195312 -4.890625 14.15625 -5.117188 15.03125 -5.578125 C 15.90625 -6.046875 16.554688 -6.671875 16.984375 -7.453125 L 16.984375 -11.984375 L 14.359375 -11.984375 C 10.828125 -11.984375 8.945312 -10.765625 8.71875 -8.328125 L 8.703125 -7.921875 C 8.703125 -7.046875 9.007812 -6.320312 9.625 -5.75 C 10.238281 -5.175781 11.082031 -4.890625 12.15625 -4.890625 Z M 12.15625 -4.890625 "/></g></g></g><g fill="#000000" fill-opacity="1"><g transform="translate(478.061649, 113.187526)"><g><path d="M 1.609375 -13.375 C 1.609375 -17.488281 2.53125 -20.765625 4.375 -23.203125 C 6.21875 -25.640625 8.738281 -26.859375 11.9375 -26.859375 C 14.507812 -26.859375 16.628906 -25.898438 18.296875 -23.984375 L 18.296875 -37.4375 L 25.375 -37.4375 L 25.375 0 L 19 0 L 18.671875 -2.796875 C 16.910156 -0.609375 14.648438 0.484375 11.890625 0.484375 C 8.785156 0.484375 6.296875 -0.734375 4.421875 -3.171875 C 2.546875 -5.617188 1.609375 -9.019531 1.609375 -13.375 Z M 8.65625 -12.859375 C 8.65625 -10.390625 9.082031 -8.5 9.9375 -7.1875 C 10.800781 -5.875 12.050781 -5.21875 13.6875 -5.21875 C 15.863281 -5.21875 17.398438 -6.132812 18.296875 -7.96875 L 18.296875 -18.375 C 17.421875 -20.207031 15.90625 -21.125 13.75 -21.125 C 10.351562 -21.125 8.65625 -18.367188 8.65625 -12.859375 Z M 8.65625 -12.859375 "/></g></g></g><g fill="#000000" fill-opacity="1"><g transform="translate(506.185322, 113.187526)"><g><path d="M 17.984375 0 C 17.660156 -0.632812 17.425781 -1.421875 17.28125 -2.359375 C 15.570312 -0.460938 13.351562 0.484375 10.625 0.484375 C 8.039062 0.484375 5.898438 -0.257812 4.203125 -1.75 C 2.503906 -3.25 1.65625 -5.132812 1.65625 -7.40625 C 1.65625 -10.195312 2.691406 -12.335938 4.765625 -13.828125 C 6.835938 -15.328125 9.832031 -16.085938 13.75 -16.109375 L 16.984375 -16.109375 L 16.984375 -17.625 C 16.984375 -18.84375 16.671875 -19.816406 16.046875 -20.546875 C 15.421875 -21.273438 14.429688 -21.640625 13.078125 -21.640625 C 11.898438 -21.640625 10.972656 -21.351562 10.296875 -20.78125 C 9.617188 -20.21875 9.28125 -19.441406 9.28125 -18.453125 L 2.234375 -18.453125 C 2.234375 -19.972656 2.703125 -21.382812 3.640625 -22.6875 C 4.585938 -23.988281 5.921875 -25.007812 7.640625 -25.75 C 9.367188 -26.488281 11.304688 -26.859375 13.453125 -26.859375 C 16.703125 -26.859375 19.28125 -26.039062 21.1875 -24.40625 C 23.09375 -22.769531 24.046875 -20.472656 24.046875 -17.515625 L 24.046875 -6.09375 C 24.066406 -3.59375 24.414062 -1.703125 25.09375 -0.421875 L 25.09375 0 Z M 12.15625 -4.890625 C 13.195312 -4.890625 14.15625 -5.117188 15.03125 -5.578125 C 15.90625 -6.046875 16.554688 -6.671875 16.984375 -7.453125 L 16.984375 -11.984375 L 14.359375 -11.984375 C 10.828125 -11.984375 8.945312 -10.765625 8.71875 -8.328125 L 8.703125 -7.921875 C 8.703125 -7.046875 9.007812 -6.320312 9.625 -5.75 C 10.238281 -5.175781 11.082031 -4.890625 12.15625 -4.890625 Z M 12.15625 -4.890625 "/></g></g></g><g fill="#000000" fill-opacity="1"><g transform="translate(532.944286, 113.187526)"><g><path d="M 10.140625 0 L 3.078125 0 L 3.078125 -37.4375 L 10.140625 -37.4375 Z M 10.140625 0 "/></g></g></g><g fill="#000000" fill-opacity="1"><g transform="translate(546.177544, 113.187526)"><g><path d="M 17.984375 0 C 17.660156 -0.632812 17.425781 -1.421875 17.28125 -2.359375 C 15.570312 -0.460938 13.351562 0.484375 10.625 0.484375 C 8.039062 0.484375 5.898438 -0.257812 4.203125 -1.75 C 2.503906 -3.25 1.65625 -5.132812 1.65625 -7.40625 C 1.65625 -10.195312 2.691406 -12.335938 4.765625 -13.828125 C 6.835938 -15.328125 9.832031 -16.085938 13.75 -16.109375 L 16.984375 -16.109375 L 16.984375 -17.625 C 16.984375 -18.84375 16.671875 -19.816406 16.046875 -20.546875 C 15.421875 -21.273438 14.429688 -21.640625 13.078125 -21.640625 C 11.898438 -21.640625 10.972656 -21.351562 10.296875 -20.78125 C 9.617188 -20.21875 9.28125 -19.441406 9.28125 -18.453125 L 2.234375 -18.453125 C 2.234375 -19.972656 2.703125 -21.382812 3.640625 -22.6875 C 4.585938 -23.988281 5.921875 -25.007812 7.640625 -25.75 C 9.367188 -26.488281 11.304688 -26.859375 13.453125 -26.859375 C 16.703125 -26.859375 19.28125 -26.039062 21.1875 -24.40625 C 23.09375 -22.769531 24.046875 -20.472656 24.046875 -17.515625 L 24.046875 -6.09375 C 24.066406 -3.59375 24.414062 -1.703125 25.09375 -0.421875 L 25.09375 0 Z M 12.15625 -4.890625 C 13.195312 -4.890625 14.15625 -5.117188 15.03125 -5.578125 C 15.90625 -6.046875 16.554688 -6.671875 16.984375 -7.453125 L 16.984375 -11.984375 L 14.359375 -11.984375 C 10.828125 -11.984375 8.945312 -10.765625 8.71875 -8.328125 L 8.703125 -7.921875 C 8.703125 -7.046875 9.007812 -6.320312 9.625 -5.75 C 10.238281 -5.175781 11.082031 -4.890625 12.15625 -4.890625 Z M 12.15625 -4.890625 "/></g></g></g><g fill="#000000" fill-opacity="1"><g transform="translate(572.936462, 113.187526)"><g><path d="M 9.578125 -23.484375 C 11.441406 -25.734375 13.789062 -26.859375 16.625 -26.859375 C 22.34375 -26.859375 25.238281 -23.535156 25.3125 -16.890625 L 25.3125 0 L 18.28125 0 L 18.28125 -16.6875 C 18.28125 -18.195312 17.953125 -19.3125 17.296875 -20.03125 C 16.648438 -20.757812 15.570312 -21.125 14.0625 -21.125 C 12 -21.125 10.503906 -20.328125 9.578125 -18.734375 L 9.578125 0 L 2.53125 0 L 2.53125 -37.4375 L 9.578125 -37.4375 Z M 9.578125 -23.484375 "/></g></g></g></svg>