<svg width="548" height="47" viewBox="0 0 548 47" fill="none" xmlns="http://www.w3.org/2000/svg">
<path d="M37.6012 34.842C37.8172 35.31 37.9252 35.778 37.9252 36.246C37.9252 37.074 37.5832 37.776 36.8992 38.352C36.2512 38.928 35.4952 39.216 34.6312 39.216C34.0552 39.216 33.5152 39.072 33.0112 38.784C32.5072 38.46 32.1112 37.974 31.8232 37.326L28.5832 30.09H9.57521L6.33521 37.326C6.04721 37.974 5.65121 38.46 5.14721 38.784C4.64321 39.072 4.08521 39.216 3.47321 39.216C2.64521 39.216 1.88921 38.928 1.20521 38.352C0.521211 37.776 0.179211 37.074 0.179211 36.246C0.179211 35.778 0.287211 35.31 0.503211 34.842L15.4072 2.82C15.7312 2.1 16.2172 1.56 16.8652 1.2C17.5492 0.803998 18.2692 0.605999 19.0252 0.605999C19.7812 0.605999 20.4832 0.803998 21.1312 1.2C21.8152 1.56 22.3192 2.1 22.6432 2.82L37.6012 34.842ZM11.9512 24.69H26.2072L19.0792 8.652L11.9512 24.69ZM59.4535 20.532C58.7695 20.532 58.1935 20.316 57.7255 19.884C57.2935 19.416 57.0775 18.84 57.0775 18.156C57.0775 17.472 57.2935 16.914 57.7255 16.482C58.1935 16.014 58.7695 15.78 59.4535 15.78H81.0535C81.7375 15.78 82.2955 16.014 82.7275 16.482C83.1955 16.95 83.4295 17.526 83.4295 18.21C83.4295 18.858 83.1955 19.416 82.7275 19.884C82.2955 20.316 81.7375 20.532 81.0535 20.532H59.4535ZM59.4535 31.332C58.7695 31.332 58.1935 31.116 57.7255 30.684C57.2935 30.216 57.0775 29.64 57.0775 28.956C57.0775 28.272 57.2935 27.714 57.7255 27.282C58.1935 26.814 58.7695 26.58 59.4535 26.58H81.0535C81.7375 26.58 82.2955 26.814 82.7275 27.282C83.1955 27.75 83.4295 28.326 83.4295 29.01C83.4295 29.658 83.1955 30.216 82.7275 30.684C82.2955 31.116 81.7375 31.332 81.0535 31.332H59.4535ZM115.727 0.443998C120.551 0.443998 124.259 2.082 126.851 5.358C129.479 8.598 130.793 13.242 130.793 19.29C130.793 23.43 130.181 27.03 128.957 30.09C127.733 33.114 125.969 35.436 123.665 37.056C121.397 38.676 118.715 39.486 115.619 39.486C113.567 39.486 111.497 39.126 109.409 38.406C107.357 37.65 105.611 36.642 104.171 35.382C103.703 34.986 103.361 34.608 103.145 34.248C102.965 33.852 102.875 33.384 102.875 32.844C102.875 32.052 103.091 31.386 103.523 30.846C103.991 30.27 104.531 29.982 105.143 29.982C105.503 29.982 105.845 30.054 106.169 30.198C106.493 30.306 106.889 30.504 107.357 30.792C110.345 32.88 113.009 33.924 115.349 33.924C117.977 33.924 120.047 32.718 121.559 30.306C123.071 27.858 123.863 24.438 123.935 20.046C123.107 21.666 121.865 22.962 120.209 23.934C118.553 24.87 116.699 25.338 114.647 25.338C112.379 25.338 110.363 24.834 108.599 23.826C106.835 22.782 105.449 21.342 104.441 19.506C103.469 17.634 102.983 15.51 102.983 13.134C102.983 10.686 103.523 8.508 104.603 6.6C105.719 4.656 107.231 3.144 109.139 2.064C111.083 0.983998 113.279 0.443998 115.727 0.443998ZM116.105 19.83C118.121 19.83 119.741 19.2 120.965 17.94C122.225 16.644 122.855 14.97 122.855 12.918C122.855 10.83 122.225 9.156 120.965 7.896C119.741 6.6 118.121 5.952 116.105 5.952C114.125 5.952 112.541 6.6 111.353 7.896C110.165 9.156 109.571 10.83 109.571 12.918C109.571 15.006 110.165 16.68 111.353 17.94C112.541 19.2 114.125 19.83 116.105 19.83ZM139.735 31.224C140.959 31.224 141.949 31.674 142.705 32.574C143.461 33.474 143.839 34.788 143.839 36.516C143.839 39.936 142.651 42.888 140.275 45.372C139.807 45.84 139.303 46.074 138.763 46.074C138.223 46.074 137.755 45.894 137.359 45.534C136.963 45.174 136.765 44.742 136.765 44.238C136.765 43.806 136.945 43.392 137.305 42.996C138.385 41.844 139.087 40.548 139.411 39.108C138.367 39 137.503 38.604 136.819 37.92C136.171 37.2 135.847 36.318 135.847 35.274C135.847 34.122 136.207 33.168 136.927 32.412C137.683 31.62 138.619 31.224 139.735 31.224ZM188.742 19.344C190.938 19.956 192.63 21.072 193.818 22.692C195.042 24.312 195.654 26.292 195.654 28.632C195.654 31.872 194.484 34.41 192.144 36.246C189.84 38.082 186.654 39 182.586 39H168.654C167.61 39 166.782 38.712 166.17 38.136C165.594 37.56 165.306 36.75 165.306 35.706V4.224C165.306 3.18 165.594 2.37 166.17 1.794C166.782 1.218 167.61 0.929998 168.654 0.929998H182.046C186.006 0.929998 189.102 1.812 191.334 3.576C193.602 5.304 194.736 7.734 194.736 10.866C194.736 12.882 194.196 14.628 193.116 16.104C192.072 17.58 190.614 18.66 188.742 19.344ZM172.11 16.968H180.912C185.7 16.968 188.094 15.186 188.094 11.622C188.094 9.822 187.5 8.49 186.312 7.626C185.124 6.762 183.324 6.33 180.912 6.33H172.11V16.968ZM181.83 33.6C184.35 33.6 186.186 33.15 187.338 32.25C188.49 31.35 189.066 29.946 189.066 28.038C189.066 26.13 188.472 24.708 187.284 23.772C186.132 22.836 184.314 22.368 181.83 22.368H172.11V33.6H181.83ZM218.448 20.532C217.764 20.532 217.188 20.316 216.72 19.884C216.288 19.416 216.072 18.84 216.072 18.156C216.072 17.472 216.288 16.914 216.72 16.482C217.188 16.014 217.764 15.78 218.448 15.78H240.048C240.732 15.78 241.29 16.014 241.722 16.482C242.19 16.95 242.424 17.526 242.424 18.21C242.424 18.858 242.19 19.416 241.722 19.884C241.29 20.316 240.732 20.532 240.048 20.532H218.448ZM218.448 31.332C217.764 31.332 217.188 31.116 216.72 30.684C216.288 30.216 216.072 29.64 216.072 28.956C216.072 28.272 216.288 27.714 216.72 27.282C217.188 26.814 217.764 26.58 218.448 26.58H240.048C240.732 26.58 241.29 26.814 241.722 27.282C242.19 27.75 242.424 28.326 242.424 29.01C242.424 29.658 242.19 30.216 241.722 30.684C241.29 31.116 240.732 31.332 240.048 31.332H218.448ZM281.795 19.452C284.063 20.028 285.791 21.126 286.979 22.746C288.203 24.33 288.815 26.31 288.815 28.686C288.815 31.962 287.609 34.572 285.197 36.516C282.785 38.46 279.527 39.432 275.423 39.432C273.083 39.432 270.833 39.072 268.673 38.352C266.513 37.632 264.677 36.624 263.165 35.328C262.337 34.608 261.923 33.762 261.923 32.79C261.923 31.998 262.139 31.332 262.571 30.792C263.039 30.216 263.579 29.928 264.191 29.928C264.551 29.928 264.875 30 265.163 30.144C265.451 30.252 265.847 30.45 266.351 30.738C267.863 31.746 269.303 32.52 270.671 33.06C272.039 33.6 273.533 33.87 275.153 33.87C277.529 33.87 279.293 33.402 280.445 32.466C281.597 31.494 282.173 30.036 282.173 28.092C282.173 26.184 281.561 24.78 280.337 23.88C279.149 22.944 277.295 22.476 274.775 22.476H271.697C270.869 22.476 270.221 22.206 269.753 21.666C269.321 21.09 269.105 20.442 269.105 19.722C269.105 18.966 269.321 18.318 269.753 17.778C270.221 17.238 270.869 16.968 271.697 16.968H273.857C278.789 16.968 281.255 15.114 281.255 11.406C281.255 9.678 280.733 8.346 279.689 7.41C278.645 6.474 277.205 6.006 275.369 6.006C272.741 6.006 269.933 7.05 266.945 9.138C266.441 9.426 266.045 9.642 265.757 9.786C265.469 9.894 265.145 9.948 264.785 9.948C264.173 9.948 263.633 9.678 263.165 9.138C262.733 8.562 262.517 7.878 262.517 7.086C262.517 6.546 262.607 6.096 262.787 5.736C263.003 5.34 263.327 4.944 263.759 4.548C265.271 3.288 267.071 2.298 269.159 1.578C271.283 0.821998 273.443 0.443998 275.639 0.443998C279.383 0.443998 282.353 1.362 284.549 3.198C286.781 5.034 287.897 7.482 287.897 10.542C287.861 12.63 287.303 14.466 286.223 16.05C285.179 17.598 283.703 18.732 281.795 19.452ZM310.34 14.646C312.716 14.646 314.804 15.168 316.604 16.212C318.44 17.22 319.862 18.642 320.87 20.478C321.878 22.314 322.382 24.42 322.382 26.796C322.382 29.28 321.806 31.476 320.654 33.384C319.538 35.292 317.936 36.786 315.848 37.866C313.796 38.91 311.42 39.432 308.72 39.432C306.488 39.432 304.292 39.072 302.132 38.352C300.008 37.596 298.19 36.588 296.678 35.328C295.85 34.608 295.436 33.762 295.436 32.79C295.436 31.998 295.652 31.332 296.084 30.792C296.552 30.216 297.092 29.928 297.704 29.928C298.064 29.928 298.406 30 298.73 30.144C299.054 30.252 299.432 30.45 299.864 30.738C301.304 31.746 302.708 32.52 304.076 33.06C305.444 33.6 306.902 33.87 308.45 33.87C310.826 33.87 312.644 33.276 313.904 32.088C315.164 30.9 315.794 29.208 315.794 27.012C315.794 24.888 315.146 23.214 313.85 21.99C312.59 20.73 310.844 20.1 308.612 20.1C307.208 20.1 305.948 20.298 304.832 20.694C303.752 21.09 302.636 21.756 301.484 22.692C300.8 23.16 300.098 23.394 299.378 23.394C298.658 23.394 298.046 23.178 297.542 22.746C297.038 22.314 296.786 21.738 296.786 21.018V4.17C296.786 3.162 297.074 2.37 297.65 1.794C298.226 1.218 299.036 0.929998 300.08 0.929998H318.062C320.222 0.929998 321.302 1.83 321.302 3.63C321.302 5.43 320.222 6.33 318.062 6.33H303.59V16.59C305.426 15.294 307.676 14.646 310.34 14.646ZM331.109 31.224C332.333 31.224 333.323 31.674 334.079 32.574C334.835 33.474 335.213 34.788 335.213 36.516C335.213 39.936 334.025 42.888 331.649 45.372C331.181 45.84 330.677 46.074 330.137 46.074C329.597 46.074 329.129 45.894 328.733 45.534C328.337 45.174 328.139 44.742 328.139 44.238C328.139 43.806 328.319 43.392 328.679 42.996C329.759 41.844 330.461 40.548 330.785 39.108C329.741 39 328.877 38.604 328.193 37.92C327.545 37.2 327.221 36.318 327.221 35.274C327.221 34.122 327.581 33.168 328.301 32.412C329.057 31.62 329.993 31.224 331.109 31.224ZM373.689 39.486C370.017 39.486 366.795 38.694 364.023 37.11C361.287 35.526 359.181 33.258 357.705 30.306C356.229 27.354 355.491 23.898 355.491 19.938C355.491 15.978 356.229 12.54 357.705 9.624C359.181 6.672 361.287 4.404 364.023 2.82C366.795 1.236 370.017 0.443998 373.689 0.443998C376.065 0.443998 378.297 0.803998 380.385 1.524C382.473 2.208 384.327 3.216 385.947 4.548C386.415 4.908 386.739 5.286 386.919 5.682C387.099 6.078 387.189 6.564 387.189 7.14C387.189 7.932 386.973 8.598 386.541 9.138C386.109 9.678 385.587 9.948 384.975 9.948C384.255 9.948 383.517 9.696 382.761 9.192C381.213 8.04 379.773 7.248 378.441 6.816C377.109 6.348 375.633 6.114 374.013 6.114C370.269 6.114 367.425 7.284 365.481 9.624C363.573 11.964 362.619 15.402 362.619 19.938C362.619 24.51 363.573 27.966 365.481 30.306C367.425 32.646 370.269 33.816 374.013 33.816C375.561 33.816 376.983 33.582 378.279 33.114C379.611 32.646 381.105 31.854 382.761 30.738C383.121 30.522 383.481 30.342 383.841 30.198C384.201 30.054 384.579 29.982 384.975 29.982C385.587 29.982 386.109 30.252 386.541 30.792C386.973 31.332 387.189 31.998 387.189 32.79C387.189 33.33 387.099 33.816 386.919 34.248C386.739 34.644 386.415 35.022 385.947 35.382C384.327 36.714 382.473 37.74 380.385 38.46C378.297 39.144 376.065 39.486 373.689 39.486ZM409.557 20.532C408.873 20.532 408.297 20.316 407.829 19.884C407.397 19.416 407.181 18.84 407.181 18.156C407.181 17.472 407.397 16.914 407.829 16.482C408.297 16.014 408.873 15.78 409.557 15.78H431.157C431.841 15.78 432.399 16.014 432.831 16.482C433.299 16.95 433.533 17.526 433.533 18.21C433.533 18.858 433.299 19.416 432.831 19.884C432.399 20.316 431.841 20.532 431.157 20.532H409.557ZM409.557 31.332C408.873 31.332 408.297 31.116 407.829 30.684C407.397 30.216 407.181 29.64 407.181 28.956C407.181 28.272 407.397 27.714 407.829 27.282C408.297 26.814 408.873 26.58 409.557 26.58H431.157C431.841 26.58 432.399 26.814 432.831 27.282C433.299 27.75 433.533 28.326 433.533 29.01C433.533 29.658 433.299 30.216 432.831 30.684C432.399 31.116 431.841 31.332 431.157 31.332H409.557ZM477.926 33.384C480.086 33.384 481.166 34.302 481.166 36.138C481.166 38.046 480.086 39 477.926 39H459.674C457.478 39 456.38 38.046 456.38 36.138C456.38 34.302 457.478 33.384 459.674 33.384H465.29V8.76L460.106 11.946C459.602 12.234 459.152 12.378 458.756 12.378C458 12.378 457.352 12.054 456.812 11.406C456.308 10.758 456.056 10.038 456.056 9.246C456.056 8.202 456.524 7.392 457.46 6.816L465.83 1.632C466.91 0.983998 467.936 0.659998 468.908 0.659998C469.916 0.659998 470.726 0.965998 471.338 1.578C471.95 2.19 472.256 3.036 472.256 4.116V33.384H477.926ZM511.601 26.148C512.681 26.148 513.491 26.382 514.031 26.85C514.571 27.318 514.841 27.984 514.841 28.848C514.841 30.648 513.761 31.548 511.601 31.548H508.847V35.814C508.847 36.93 508.523 37.794 507.875 38.406C507.263 39.018 506.453 39.324 505.445 39.324C504.437 39.324 503.609 39.018 502.961 38.406C502.349 37.794 502.043 36.93 502.043 35.814V31.548H487.895C486.923 31.548 486.167 31.278 485.627 30.738C485.087 30.162 484.817 29.46 484.817 28.632C484.817 27.768 485.105 26.94 485.681 26.148L502.367 2.172C502.727 1.668 503.177 1.29 503.717 1.038C504.257 0.749999 504.815 0.605999 505.391 0.605999C506.327 0.605999 507.137 0.911999 507.821 1.524C508.505 2.136 508.847 3 508.847 4.116V26.148H511.601ZM491.999 26.148H502.043V11.622L491.999 26.148ZM543.98 26.148C545.06 26.148 545.87 26.382 546.41 26.85C546.95 27.318 547.22 27.984 547.22 28.848C547.22 30.648 546.14 31.548 543.98 31.548H541.226V35.814C541.226 36.93 540.902 37.794 540.254 38.406C539.642 39.018 538.832 39.324 537.824 39.324C536.816 39.324 535.988 39.018 535.34 38.406C534.728 37.794 534.422 36.93 534.422 35.814V31.548H520.274C519.302 31.548 518.546 31.278 518.006 30.738C517.466 30.162 517.196 29.46 517.196 28.632C517.196 27.768 517.484 26.94 518.06 26.148L534.746 2.172C535.106 1.668 535.556 1.29 536.096 1.038C536.636 0.749999 537.194 0.605999 537.77 0.605999C538.706 0.605999 539.516 0.911999 540.2 1.524C540.884 2.136 541.226 3 541.226 4.116V26.148H543.98ZM524.378 26.148H534.422V11.622L524.378 26.148Z" fill="black"/>
</svg>
