<svg xmlns="http://www.w3.org/2000/svg" xmlns:xlink="http://www.w3.org/1999/xlink" width="847" zoomAndPan="magnify" viewBox="0 0 635.25 338.250003" height="451" preserveAspectRatio="xMidYMid meet" version="1.0"><defs><g/><clipPath id="9c0bdf5381"><path d="M 0.328125 0 L 634.171875 0 L 634.171875 337.5 L 0.328125 337.5 Z M 0.328125 0 " clip-rule="nonzero"/></clipPath><clipPath id="f3aa75a5ce"><path d="M 4.695312 0 L 633.496094 0 L 633.496094 323.984375 L 4.695312 323.984375 Z M 4.695312 0 " clip-rule="nonzero"/></clipPath><clipPath id="a2176e0975"><path d="M 363.414062 32.746094 L 551.863281 32.746094 L 551.863281 251.960938 L 363.414062 251.960938 Z M 363.414062 32.746094 " clip-rule="nonzero"/></clipPath><clipPath id="75039ed6d3"><path d="M 42 193 L 80 193 L 80 219.960938 L 42 219.960938 Z M 42 193 " clip-rule="nonzero"/></clipPath><clipPath id="3824d6c659"><rect x="0" width="189" y="0" height="220"/></clipPath><clipPath id="0504f075a5"><path d="M 29 168 L 124.878906 168 L 124.878906 237 L 29 237 Z M 29 168 " clip-rule="nonzero"/></clipPath><clipPath id="28905e6832"><rect x="0" width="96" y="0" height="36"/></clipPath><clipPath id="5dbb0e6de5"><path d="M 495 8 L 609 8 L 609 128 L 495 128 Z M 495 8 " clip-rule="nonzero"/></clipPath><clipPath id="6af52bfeaa"><path d="M 551.222656 127.476562 L 495.925781 48.820312 L 553.34375 8.457031 L 608.640625 87.109375 Z M 551.222656 127.476562 " clip-rule="nonzero"/></clipPath><clipPath id="9acc864a1e"><path d="M 22 10 L 95 10 L 95 105 L 22 105 Z M 22 10 " clip-rule="nonzero"/></clipPath><clipPath id="5ee708d10b"><path d="M 56.222656 119.476562 L 0.925781 40.820312 L 58.34375 0.457031 L 113.640625 79.109375 Z M 56.222656 119.476562 " clip-rule="nonzero"/></clipPath><clipPath id="893024cdf5"><path d="M 0.839844 40.699219 L 56.136719 119.355469 L 113.554688 78.988281 L 58.257812 0.332031 Z M 0.839844 40.699219 " clip-rule="nonzero"/></clipPath><clipPath id="7f1ac2dec3"><path d="M 0.839844 40.699219 L 56.136719 119.355469 L 113.554688 78.988281 L 58.257812 0.332031 Z M 0.839844 40.699219 " clip-rule="nonzero"/></clipPath><clipPath id="4c072fd09e"><rect x="0" width="114" y="0" height="120"/></clipPath><clipPath id="fd5b561d8e"><rect x="0" width="635" y="0" height="338"/></clipPath></defs><g clip-path="url(#9c0bdf5381)"><g transform="matrix(1, 0, 0, 1, 0.000000000000000056, -0.000000000000001151)"><g clip-path="url(#fd5b561d8e)"><g clip-path="url(#f3aa75a5ce)"><path stroke-linecap="butt" transform="matrix(0.961468, 0, 0, 0.961468, 4.694679, 0.000278064)" fill="none" stroke-linejoin="miter" d="M 0.000658649 -0.000289207 L 654.123156 -0.000289207 L 654.123156 336.96809 L 0.000658649 336.96809 Z M 0.000658649 -0.000289207 " stroke="#000000" stroke-width="9.339974" stroke-opacity="1" stroke-miterlimit="4"/></g><path stroke-linecap="butt" transform="matrix(0, 0.961468, -0.961468, 0, 318.279405, 26.154303)" fill="none" stroke-linejoin="miter" d="M 0.00202498 2.00104 L 245.72811 2.00104 " stroke="#000000" stroke-width="4" stroke-opacity="1" stroke-miterlimit="4"/><path fill="#8bc28f" d="M 108.914062 112.679688 C 110.695312 111.019531 112.59375 109.082031 114.609375 106.867188 C 116.875 104.375 118.550781 102.558594 119.636719 101.421875 C 123.65625 97.210938 130.339844 97.046875 134.5625 101.058594 C 138.785156 105.066406 138.949219 111.734375 134.925781 115.945312 C 133.960938 116.957031 132.402344 118.648438 130.25 121.015625 C 127.84375 123.660156 125.535156 126.015625 123.324219 128.074219 C 119.0625 132.042969 112.382812 131.816406 108.402344 127.566406 C 104.425781 123.3125 104.652344 116.648438 108.914062 112.679688 Z M 108.914062 112.679688 " fill-opacity="1" fill-rule="nonzero"/><path fill="#8bc28f" d="M 144.9375 112.25 C 145.667969 110.699219 146.511719 109.035156 147.476562 107.257812 C 150.242188 102.140625 156.648438 100.226562 161.777344 102.988281 C 166.910156 105.75 168.828125 112.136719 166.058594 117.257812 C 165.28125 118.691406 164.613281 120.007812 164.050781 121.203125 C 161.570312 126.46875 155.28125 128.730469 150.003906 126.257812 C 144.726562 123.785156 142.457031 117.515625 144.9375 112.25 Z M 144.9375 112.25 " fill-opacity="1" fill-rule="nonzero"/><path fill="#8bc28f" d="M 150.847656 152.089844 C 150.148438 153.578125 149.3125 155.261719 148.34375 157.140625 C 147.363281 159.050781 146.332031 160.941406 145.253906 162.820312 C 142.355469 167.867188 135.90625 169.617188 130.847656 166.730469 C 125.785156 163.839844 124.03125 157.40625 126.929688 152.359375 C 127.847656 150.753906 128.726562 149.140625 129.566406 147.511719 C 130.417969 145.855469 131.144531 144.398438 131.738281 143.136719 C 134.214844 137.871094 140.503906 135.609375 145.78125 138.082031 C 151.058594 140.554688 153.328125 146.828125 150.847656 152.089844 Z M 150.847656 152.089844 " fill-opacity="1" fill-rule="nonzero"/><path fill="#8bc28f" d="M 192.589844 135.144531 C 191.203125 137.585938 189.371094 140.601562 187.097656 144.191406 C 184.863281 147.71875 182.796875 150.898438 180.898438 153.726562 L 178.125 157.851562 C 174.882812 162.683594 168.324219 163.980469 163.480469 160.742188 C 158.632812 157.507812 157.335938 150.964844 160.582031 146.132812 L 163.351562 142.007812 C 165.148438 139.332031 167.113281 136.3125 169.246094 132.941406 C 171.34375 129.632812 173.003906 126.902344 174.226562 124.753906 C 177.101562 119.695312 183.542969 117.917969 188.617188 120.789062 C 193.6875 123.65625 195.46875 130.085938 192.589844 135.144531 Z M 192.589844 135.144531 " fill-opacity="1" fill-rule="nonzero"/><path fill="#8bc28f" d="M 212.667969 70.433594 C 211.226562 73.230469 209.808594 75.730469 208.417969 77.929688 C 207.261719 79.753906 206.121094 81.628906 205 83.558594 L 203.214844 86.621094 C 200.289062 91.652344 193.828125 93.363281 188.785156 90.445312 C 183.742188 87.523438 182.027344 81.082031 184.953125 76.050781 L 186.738281 72.984375 C 187.992188 70.828125 189.269531 68.726562 190.566406 66.679688 C 191.625 65.007812 192.734375 63.046875 193.890625 60.804688 C 196.554688 55.628906 202.921875 53.59375 208.105469 56.253906 C 213.292969 58.910156 215.335938 65.257812 212.667969 70.433594 Z M 212.667969 70.433594 " fill-opacity="1" fill-rule="nonzero"/><path fill="#8bc28f" d="M 171.371094 64.21875 C 170.273438 66.851562 168.40625 70.214844 165.773438 74.304688 L 162.332031 79.652344 C 159.179688 84.546875 152.648438 85.964844 147.742188 82.820312 C 142.835938 79.679688 141.414062 73.164062 144.566406 68.269531 L 148.007812 62.921875 C 149.964844 59.882812 151.253906 57.621094 151.871094 56.136719 C 154.109375 50.765625 160.285156 48.222656 165.671875 50.453125 C 171.054688 52.683594 173.605469 58.847656 171.371094 64.21875 Z M 171.371094 64.21875 " fill-opacity="1" fill-rule="nonzero"/><path fill="#8bc28f" d="M 234.230469 120.855469 C 232.273438 123.109375 230.089844 125.976562 227.679688 129.464844 C 225.128906 133.144531 223.359375 135.765625 222.371094 137.328125 C 219.257812 142.246094 212.738281 143.710938 207.808594 140.605469 C 202.878906 137.5 201.40625 130.996094 204.519531 126.078125 C 205.664062 124.273438 207.589844 121.414062 210.300781 117.496094 C 213.152344 113.382812 215.804688 109.90625 218.261719 107.074219 C 222.078125 102.675781 228.746094 102.195312 233.152344 106 C 237.5625 109.804688 238.042969 116.457031 234.230469 120.855469 Z M 234.230469 120.855469 " fill-opacity="1" fill-rule="nonzero"/><path fill="#8bc28f" d="M 206.09375 183.007812 C 205.378906 183.90625 204.734375 184.890625 204.160156 185.953125 C 201.390625 191.070312 194.988281 192.980469 189.855469 190.222656 C 184.722656 187.460938 182.804688 181.070312 185.574219 175.953125 C 186.738281 173.804688 188.0625 171.792969 189.546875 169.925781 C 193.167969 165.367188 199.808594 164.601562 204.378906 168.214844 C 208.949219 171.824219 209.714844 178.449219 206.09375 183.007812 Z M 206.09375 183.007812 " fill-opacity="1" fill-rule="nonzero"/><path fill="#8bc28f" d="M 165.988281 190.15625 C 164.601562 192.027344 163.539062 193.542969 162.804688 194.707031 C 162.019531 195.945312 161.097656 197.496094 160.035156 199.363281 L 158.320312 202.378906 C 155.445312 207.4375 149.003906 209.210938 143.929688 206.34375 C 138.859375 203.472656 137.078125 197.046875 139.953125 191.988281 L 141.671875 188.972656 C 142.894531 186.816406 143.992188 184.976562 144.953125 183.457031 C 145.964844 181.859375 147.316406 179.921875 149.007812 177.640625 C 152.472656 172.960938 159.082031 171.972656 163.773438 175.429688 C 168.460938 178.886719 169.453125 185.480469 165.988281 190.15625 Z M 165.988281 190.15625 " fill-opacity="1" fill-rule="nonzero"/><path fill="#8bc28f" d="M 110.433594 154.886719 C 109.183594 156.855469 108.421875 158.0625 108.140625 158.507812 C 107.378906 159.707031 106.238281 161.375 104.714844 163.507812 L 102.597656 166.472656 C 99.214844 171.207031 92.621094 172.3125 87.871094 168.9375 C 83.125 165.5625 82.015625 158.988281 85.398438 154.25 L 87.515625 151.289062 C 88.8125 149.472656 89.738281 148.128906 90.289062 147.257812 C 91.320312 145.632812 92.082031 144.425781 92.582031 143.636719 C 95.699219 138.71875 102.21875 137.25 107.148438 140.359375 C 112.078125 143.464844 113.546875 149.96875 110.433594 154.886719 Z M 110.433594 154.886719 " fill-opacity="1" fill-rule="nonzero"/><path fill="#8bc28f" d="M 259.210938 156.160156 C 258.191406 157.589844 256.820312 159.972656 255.105469 163.304688 C 253.148438 167.097656 251.671875 169.953125 250.675781 171.867188 C 247.992188 177.03125 241.621094 179.046875 236.445312 176.371094 C 231.269531 173.691406 229.25 167.335938 231.933594 162.175781 C 232.917969 160.28125 234.382812 157.449219 236.324219 153.675781 C 238.507812 149.441406 240.402344 146.195312 242.015625 143.941406 C 245.398438 139.203125 251.992188 138.097656 256.738281 141.472656 C 261.488281 144.847656 262.597656 151.421875 259.210938 156.160156 Z M 259.210938 156.160156 " fill-opacity="1" fill-rule="nonzero"/><path fill="#8bc28f" d="M 136.742188 73.664062 C 135.761719 74.691406 134.71875 75.976562 133.621094 77.515625 L 131.539062 80.429688 C 128.15625 85.164062 121.566406 86.269531 116.816406 82.894531 C 112.066406 79.523438 110.960938 72.945312 114.34375 68.210938 L 116.425781 65.292969 C 118.101562 62.945312 119.777344 60.894531 121.449219 59.140625 C 125.472656 54.929688 132.152344 54.765625 136.375 58.777344 C 140.597656 62.785156 140.761719 69.453125 136.742188 73.664062 Z M 136.742188 73.664062 " fill-opacity="1" fill-rule="nonzero"/><path fill="#8bc28f" d="M 97.519531 110.710938 C 95.574219 114.363281 93.792969 117.730469 92.175781 120.808594 C 80.792969 142.484375 79.316406 145.292969 87.746094 129.242188 C 85.039062 134.394531 78.660156 136.382812 73.496094 133.683594 C 68.328125 130.984375 66.335938 124.621094 69.042969 119.46875 C 80.125 98.367188 81.601562 95.554688 73.472656 111.035156 C 75.105469 107.921875 76.90625 104.523438 78.867188 100.835938 C 81.597656 95.699219 87.992188 93.746094 93.140625 96.472656 C 98.292969 99.199219 100.25 105.574219 97.519531 110.710938 Z M 97.519531 110.710938 " fill-opacity="1" fill-rule="nonzero"/><path fill="#8bc28f" d="M 239.5625 211.46875 C 238.78125 212.957031 238.191406 214.351562 237.792969 215.652344 C 237.046875 218.082031 236.089844 220.507812 234.925781 222.929688 L 233.523438 225.84375 C 231.003906 231.089844 224.695312 233.300781 219.441406 230.785156 C 214.183594 228.273438 211.964844 221.980469 214.484375 216.738281 L 215.886719 213.820312 C 216.59375 212.351562 217.167969 210.90625 217.601562 209.484375 C 218.386719 206.933594 219.472656 204.339844 220.859375 201.695312 C 223.566406 196.542969 229.945312 194.554688 235.109375 197.253906 C 240.277344 199.953125 242.269531 206.320312 239.5625 211.46875 Z M 239.5625 211.46875 " fill-opacity="1" fill-rule="nonzero"/><path fill="#8bc28f" d="M 263.492188 66.480469 C 262.898438 67.226562 262.328125 68.1875 261.777344 69.355469 C 260.914062 71.191406 259.949219 73.304688 258.890625 75.695312 L 257.253906 79.398438 C 254.898438 84.71875 248.667969 87.125 243.332031 84.777344 C 238 82.429688 235.582031 76.210938 237.9375 70.890625 L 239.574219 67.191406 C 240.703125 64.648438 241.730469 62.386719 242.664062 60.402344 C 243.910156 57.757812 245.335938 55.421875 246.945312 53.398438 C 250.566406 48.839844 257.207031 48.074219 261.777344 51.6875 C 266.347656 55.300781 267.113281 61.921875 263.492188 66.480469 Z M 263.492188 66.480469 " fill-opacity="1" fill-rule="nonzero"/><path fill="#8bc28f" d="M 192.070312 220.546875 C 188.335938 227.453125 187.863281 228.328125 190.648438 223.171875 C 190.996094 222.527344 190.445312 223.546875 188.996094 226.226562 L 187.226562 229.5 C 184.460938 234.617188 178.054688 236.53125 172.925781 233.769531 C 167.792969 231.007812 165.875 224.621094 168.644531 219.503906 L 170.414062 216.230469 C 170.144531 216.730469 170.695312 215.710938 172.066406 213.171875 C 175.878906 206.125 176.351562 205.25 173.484375 210.546875 C 176.253906 205.429688 182.65625 203.519531 187.789062 206.28125 C 192.921875 209.039062 194.835938 215.429688 192.070312 220.546875 Z M 192.070312 220.546875 " fill-opacity="1" fill-rule="nonzero"/><path fill="#8bc28f" d="M 281.273438 192.652344 C 279.503906 194.921875 277.859375 197.253906 276.339844 199.65625 L 273.78125 203.691406 C 270.667969 208.609375 264.148438 210.078125 259.21875 206.96875 C 254.289062 203.863281 252.816406 197.359375 255.929688 192.441406 L 258.488281 188.40625 C 260.378906 185.425781 262.417969 182.527344 264.609375 179.71875 C 268.1875 175.128906 274.820312 174.304688 279.425781 177.875 C 284.027344 181.445312 284.855469 188.0625 281.273438 192.652344 Z M 281.273438 192.652344 " fill-opacity="1" fill-rule="nonzero"/><path fill="#8bc28f" d="M 284.167969 102.703125 C 283.273438 106.421875 282.351562 109.679688 281.40625 112.484375 C 280.414062 115.421875 280.140625 116.238281 280.578125 114.9375 C 280.039062 116.535156 279.527344 118.054688 279.042969 119.496094 C 277.183594 125.007812 271.199219 127.976562 265.671875 126.121094 C 260.144531 124.269531 257.171875 118.296875 259.027344 112.785156 C 259.515625 111.34375 260.027344 109.824219 260.5625 108.226562 C 261.539062 105.332031 261.816406 104.511719 261.390625 105.773438 C 262.136719 103.558594 262.886719 100.890625 263.640625 97.777344 C 265.003906 92.121094 270.707031 88.640625 276.375 90 C 282.042969 91.363281 285.53125 97.046875 284.167969 102.703125 Z M 284.167969 102.703125 " fill-opacity="1" fill-rule="nonzero"/><g clip-path="url(#a2176e0975)"><g transform="matrix(1, 0, 0, 1, 363, 32)"><g clip-path="url(#3824d6c659)"><path fill="#8bc28f" d="M 65.011719 43.519531 C 63.347656 45.304688 61.410156 47.199219 59.195312 49.214844 C 56.703125 51.480469 54.886719 53.15625 53.75 54.242188 C 49.539062 58.261719 49.375 64.945312 53.386719 69.167969 C 57.398438 73.390625 64.0625 73.554688 68.273438 69.535156 C 69.285156 68.566406 70.976562 67.007812 73.34375 64.855469 C 75.992188 62.449219 78.34375 60.140625 80.402344 57.929688 C 84.371094 53.667969 84.144531 46.988281 79.894531 43.007812 C 75.644531 39.03125 68.980469 39.257812 65.011719 43.519531 Z M 65.011719 43.519531 " fill-opacity="1" fill-rule="nonzero"/><path fill="#8bc28f" d="M 64.578125 79.542969 C 63.027344 80.273438 61.363281 81.121094 59.585938 82.082031 C 54.46875 84.847656 52.558594 91.253906 55.316406 96.382812 C 58.078125 101.515625 64.464844 103.433594 69.585938 100.664062 C 71.019531 99.886719 72.335938 99.21875 73.535156 98.65625 C 78.796875 96.175781 81.0625 89.886719 78.589844 84.609375 C 76.113281 79.332031 69.84375 77.0625 64.578125 79.542969 Z M 64.578125 79.542969 " fill-opacity="1" fill-rule="nonzero"/><path fill="#8bc28f" d="M 104.421875 85.453125 C 105.90625 84.753906 107.589844 83.917969 109.46875 82.949219 C 111.378906 81.96875 113.269531 80.9375 115.148438 79.859375 C 120.199219 76.960938 121.945312 70.511719 119.058594 65.453125 C 116.167969 60.390625 109.734375 58.636719 104.6875 61.535156 C 103.082031 62.453125 101.46875 63.332031 99.839844 64.171875 C 98.183594 65.023438 96.726562 65.75 95.464844 66.34375 C 90.203125 68.820312 87.9375 75.109375 90.410156 80.386719 C 92.882812 85.664062 99.15625 87.933594 104.421875 85.453125 Z M 104.421875 85.453125 " fill-opacity="1" fill-rule="nonzero"/><path fill="#8bc28f" d="M 87.472656 127.199219 C 89.914062 125.808594 92.929688 123.976562 96.519531 121.703125 C 100.046875 119.46875 103.226562 117.402344 106.054688 115.503906 L 110.183594 112.730469 C 115.015625 109.488281 116.308594 102.929688 113.070312 98.085938 C 109.835938 93.238281 103.292969 91.941406 98.460938 95.1875 L 94.335938 97.957031 C 91.664062 99.753906 88.640625 101.71875 85.269531 103.851562 C 81.960938 105.949219 79.234375 107.609375 77.082031 108.832031 C 72.023438 111.707031 70.25 118.148438 73.117188 123.222656 C 75.988281 128.292969 82.414062 130.074219 87.472656 127.199219 Z M 87.472656 127.199219 " fill-opacity="1" fill-rule="nonzero"/><path fill="#8bc28f" d="M 22.761719 147.273438 C 25.558594 145.832031 28.058594 144.414062 30.257812 143.023438 C 32.082031 141.867188 33.957031 140.726562 35.886719 139.605469 L 38.953125 137.820312 C 43.980469 134.894531 45.691406 128.433594 42.773438 123.390625 C 39.855469 118.347656 33.410156 116.632812 28.378906 119.558594 L 25.316406 121.34375 C 23.160156 122.597656 21.054688 123.875 19.007812 125.171875 C 17.335938 126.230469 15.378906 127.339844 13.132812 128.496094 C 7.960938 131.160156 5.921875 137.527344 8.582031 142.710938 C 11.238281 147.898438 17.589844 149.941406 22.761719 147.273438 Z M 22.761719 147.273438 " fill-opacity="1" fill-rule="nonzero"/><path fill="#8bc28f" d="M 16.546875 105.976562 C 19.179688 104.878906 22.542969 103.011719 26.632812 100.378906 L 31.980469 96.9375 C 36.875 93.785156 38.292969 87.253906 35.152344 82.347656 C 32.007812 77.441406 25.492188 76.019531 20.601562 79.171875 L 15.253906 82.613281 C 12.210938 84.570312 9.949219 85.859375 8.46875 86.476562 C 3.097656 88.714844 0.550781 94.890625 2.78125 100.277344 C 5.011719 105.660156 11.175781 108.210938 16.546875 105.976562 Z M 16.546875 105.976562 " fill-opacity="1" fill-rule="nonzero"/><path fill="#8bc28f" d="M 73.183594 168.835938 C 75.4375 166.878906 78.308594 164.695312 81.792969 162.285156 C 85.472656 159.734375 88.097656 157.964844 89.65625 156.976562 C 94.574219 153.863281 96.042969 147.34375 92.933594 142.414062 C 89.828125 137.484375 83.324219 136.011719 78.40625 139.125 C 76.605469 140.269531 73.742188 142.195312 69.824219 144.90625 C 65.710938 147.757812 62.238281 150.410156 59.402344 152.867188 C 55.003906 156.683594 54.523438 163.351562 58.328125 167.757812 C 62.136719 172.167969 68.785156 172.648438 73.183594 168.835938 Z M 73.183594 168.835938 " fill-opacity="1" fill-rule="nonzero"/><path fill="#8bc28f" d="M 135.335938 140.699219 C 136.238281 139.984375 137.21875 139.339844 138.28125 138.765625 C 143.398438 135.996094 145.3125 129.59375 142.550781 124.460938 C 139.789062 119.328125 133.402344 117.410156 128.28125 120.179688 C 126.132812 121.34375 124.125 122.667969 122.253906 124.152344 C 117.695312 127.773438 116.929688 134.414062 120.542969 138.984375 C 124.15625 143.554688 130.777344 144.320312 135.335938 140.699219 Z M 135.335938 140.699219 " fill-opacity="1" fill-rule="nonzero"/><path fill="#8bc28f" d="M 142.488281 100.59375 C 144.355469 99.207031 145.871094 98.144531 147.035156 97.410156 C 148.273438 96.625 149.824219 95.703125 151.691406 94.640625 L 154.707031 92.925781 C 159.765625 90.050781 161.539062 83.609375 158.671875 78.535156 C 155.800781 73.464844 149.375 71.683594 144.316406 74.5625 L 141.300781 76.277344 C 139.144531 77.5 137.304688 78.597656 135.785156 79.558594 C 134.1875 80.570312 132.25 81.921875 129.96875 83.613281 C 125.292969 87.078125 124.300781 93.6875 127.757812 98.378906 C 131.214844 103.066406 137.808594 104.058594 142.488281 100.59375 Z M 142.488281 100.59375 " fill-opacity="1" fill-rule="nonzero"/><path fill="#8bc28f" d="M 107.214844 45.039062 C 109.183594 43.789062 110.394531 43.027344 110.835938 42.746094 C 112.035156 41.984375 113.703125 40.84375 115.835938 39.320312 L 118.800781 37.203125 C 123.539062 33.820312 124.640625 27.226562 121.265625 22.476562 C 117.894531 17.730469 111.316406 16.621094 106.582031 20.003906 L 103.617188 22.121094 C 101.800781 23.417969 100.457031 24.34375 99.585938 24.894531 C 97.960938 25.925781 96.753906 26.691406 95.964844 27.1875 C 91.046875 30.304688 89.582031 36.824219 92.6875 41.753906 C 95.792969 46.683594 102.296875 48.152344 107.214844 45.039062 Z M 107.214844 45.039062 " fill-opacity="1" fill-rule="nonzero"/><path fill="#8bc28f" d="M 108.488281 193.816406 C 109.917969 192.796875 112.300781 191.425781 115.632812 189.710938 C 119.429688 187.753906 122.28125 186.277344 124.199219 185.28125 C 129.359375 182.597656 131.375 176.226562 128.699219 171.050781 C 126.023438 165.875 119.667969 163.855469 114.503906 166.539062 C 112.609375 167.523438 109.777344 168.988281 106.003906 170.929688 C 101.769531 173.113281 98.527344 175.007812 96.269531 176.621094 C 91.53125 180.003906 90.429688 186.597656 93.800781 191.34375 C 97.175781 196.09375 103.753906 197.203125 108.488281 193.816406 Z M 108.488281 193.816406 " fill-opacity="1" fill-rule="nonzero"/><path fill="#8bc28f" d="M 25.992188 71.347656 C 27.023438 70.367188 28.304688 69.324219 29.84375 68.226562 L 32.757812 66.144531 C 37.496094 62.761719 38.597656 56.171875 35.226562 51.421875 C 31.851562 46.671875 25.277344 45.566406 20.539062 48.949219 L 17.625 51.03125 C 15.273438 52.707031 13.222656 54.382812 11.46875 56.054688 C 7.257812 60.078125 7.09375 66.757812 11.105469 70.980469 C 15.113281 75.203125 21.78125 75.367188 25.992188 71.347656 Z M 25.992188 71.347656 " fill-opacity="1" fill-rule="nonzero"/><path fill="#8bc28f" d="M 63.039062 32.125 C 66.691406 30.179688 70.058594 28.398438 73.140625 26.78125 C 94.8125 15.398438 97.621094 13.921875 81.574219 22.351562 C 86.722656 19.644531 88.710938 13.265625 86.011719 8.101562 C 83.3125 2.933594 76.949219 0.941406 71.796875 3.648438 C 50.695312 14.730469 47.882812 16.207031 63.363281 8.078125 C 60.253906 9.710938 56.851562 11.511719 53.167969 13.472656 C 48.03125 16.207031 46.074219 22.597656 48.800781 27.746094 C 51.527344 32.898438 57.902344 34.855469 63.039062 32.125 Z M 63.039062 32.125 " fill-opacity="1" fill-rule="nonzero"/><path fill="#8bc28f" d="M 163.800781 174.167969 C 165.285156 173.386719 166.679688 172.796875 167.980469 172.398438 C 170.414062 171.652344 172.835938 170.695312 175.257812 169.53125 L 178.175781 168.128906 C 183.417969 165.609375 185.628906 159.300781 183.117188 154.046875 C 180.601562 148.789062 174.3125 146.570312 169.066406 149.089844 L 166.148438 150.492188 C 164.679688 151.199219 163.234375 151.773438 161.8125 152.207031 C 159.261719 152.992188 156.667969 154.078125 154.023438 155.464844 C 148.875 158.171875 146.886719 164.550781 149.585938 169.714844 C 152.285156 174.882812 158.648438 176.875 163.800781 174.167969 Z M 163.800781 174.167969 " fill-opacity="1" fill-rule="nonzero"/><path fill="#8bc28f" d="M 18.808594 198.097656 C 19.554688 197.503906 20.515625 196.933594 21.6875 196.382812 C 23.519531 195.519531 25.632812 194.554688 28.023438 193.496094 L 31.726562 191.859375 C 37.046875 189.503906 39.457031 183.273438 37.105469 177.9375 C 34.757812 172.605469 28.539062 170.1875 23.21875 172.542969 L 19.519531 174.179688 C 16.976562 175.308594 14.714844 176.335938 12.730469 177.269531 C 10.085938 178.515625 7.75 179.941406 5.726562 181.550781 C 1.167969 185.171875 0.402344 191.8125 4.015625 196.382812 C 7.628906 200.953125 14.25 201.71875 18.808594 198.097656 Z M 18.808594 198.097656 " fill-opacity="1" fill-rule="nonzero"/><path fill="#8bc28f" d="M 172.875 126.675781 C 179.78125 122.941406 180.65625 122.46875 175.5 125.253906 C 174.855469 125.605469 175.875 125.050781 178.558594 123.601562 L 181.828125 121.832031 C 186.949219 119.066406 188.859375 112.660156 186.097656 107.53125 C 183.335938 102.398438 176.949219 100.480469 171.832031 103.25 L 168.558594 105.019531 C 169.058594 104.75 168.039062 105.300781 165.503906 106.671875 C 158.453125 110.484375 157.578125 110.957031 162.878906 108.089844 C 157.757812 110.859375 155.847656 117.261719 158.609375 122.394531 C 161.371094 127.527344 167.757812 129.441406 172.875 126.675781 Z M 172.875 126.675781 " fill-opacity="1" fill-rule="nonzero"/><path fill="#8bc28f" d="M 144.980469 215.878906 C 147.25 214.109375 149.582031 212.464844 151.984375 210.945312 L 156.019531 208.386719 C 160.9375 205.273438 162.40625 198.753906 159.300781 193.824219 C 156.191406 188.894531 149.6875 187.421875 144.773438 190.539062 L 140.734375 193.09375 C 137.753906 194.984375 134.859375 197.023438 132.046875 199.214844 C 127.457031 202.792969 126.632812 209.425781 130.203125 214.03125 C 133.773438 218.632812 140.390625 219.460938 144.980469 215.878906 Z M 144.980469 215.878906 " fill-opacity="1" fill-rule="nonzero"/><g clip-path="url(#75039ed6d3)"><path fill="#8bc28f" d="M 55.03125 218.773438 C 58.75 217.878906 62.011719 216.957031 64.816406 216.011719 C 67.75 215.019531 68.570312 214.746094 67.269531 215.183594 C 68.863281 214.644531 70.382812 214.132812 71.824219 213.648438 C 77.339844 211.789062 80.304688 205.804688 78.453125 200.277344 C 76.597656 194.75 70.628906 191.777344 65.113281 193.632812 C 63.671875 194.121094 62.152344 194.632812 60.558594 195.171875 C 57.660156 196.148438 56.84375 196.421875 58.105469 195.996094 C 55.886719 196.742188 53.21875 197.492188 50.105469 198.246094 C 44.449219 199.609375 40.96875 205.3125 42.332031 210.980469 C 43.691406 216.648438 49.378906 220.136719 55.03125 218.773438 Z M 55.03125 218.773438 " fill-opacity="1" fill-rule="nonzero"/></g></g></g></g><g clip-path="url(#0504f075a5)"><path fill="#dfb0b0" d="M 81.3125 233.636719 C 76.90625 233.597656 72.0625 233.148438 67.554688 233.316406 C 62.765625 233.5 58.1875 235.105469 53.484375 235.855469 C 45.199219 237.011719 37.625 231.457031 33.203125 224.859375 C 29.945312 220.179688 28.738281 214.339844 29.382812 208.683594 C 29.503906 206.792969 30.277344 205.132812 30.976562 203.449219 C 31.910156 201.195312 32.949219 198.980469 34.464844 197.042969 C 39.453125 190.972656 46.5 187.160156 52.449219 182.164062 C 53.03125 181.699219 53.433594 181.097656 53.777344 180.441406 C 55.632812 176.601562 57.554688 172.417969 61.632812 170.527344 C 68.273438 166.824219 76.976562 167.890625 82.652344 172.96875 C 84.066406 174.261719 85.246094 175.777344 86.679688 177.042969 C 90.816406 180.890625 94.898438 185.578125 100.652344 186.800781 C 106.738281 187.328125 109.902344 182.789062 116.425781 184.851562 C 122.742188 186.519531 124.878906 193.894531 124.601562 199.773438 C 124.132812 205.09375 122.003906 210.160156 119.15625 214.628906 C 109.914062 227.933594 97.378906 233.929688 81.3125 233.636719 Z M 81.3125 233.636719 " fill-opacity="1" fill-rule="nonzero"/></g><g transform="matrix(1, 0, 0, 1, 269, 273)"><g clip-path="url(#28905e6832)"><g fill="#000000" fill-opacity="1"><g transform="translate(0.304278, 28.007161)"><g><path d="M 18 -6.859375 C 17.832031 -4.640625 17.007812 -2.894531 15.53125 -1.625 C 14.0625 -0.351562 12.125 0.28125 9.71875 0.28125 C 7.070312 0.28125 4.992188 -0.601562 3.484375 -2.375 C 1.972656 -4.15625 1.21875 -6.597656 1.21875 -9.703125 L 1.21875 -10.953125 C 1.21875 -12.929688 1.566406 -14.675781 2.265625 -16.1875 C 2.960938 -17.695312 3.957031 -18.851562 5.25 -19.65625 C 6.550781 -20.457031 8.054688 -20.859375 9.765625 -20.859375 C 12.140625 -20.859375 14.050781 -20.222656 15.5 -18.953125 C 16.957031 -17.679688 17.800781 -15.894531 18.03125 -13.59375 L 13.78125 -13.59375 C 13.675781 -14.925781 13.304688 -15.890625 12.671875 -16.484375 C 12.035156 -17.085938 11.066406 -17.390625 9.765625 -17.390625 C 8.347656 -17.390625 7.289062 -16.878906 6.59375 -15.859375 C 5.894531 -14.847656 5.535156 -13.28125 5.515625 -11.15625 L 5.515625 -9.59375 C 5.515625 -7.375 5.847656 -5.75 6.515625 -4.71875 C 7.191406 -3.695312 8.257812 -3.1875 9.71875 -3.1875 C 11.019531 -3.1875 11.992188 -3.484375 12.640625 -4.078125 C 13.285156 -4.671875 13.65625 -5.597656 13.75 -6.859375 Z M 18 -6.859375 "/></g></g><g transform="translate(19.247756, 28.007161)"><g><path d="M 8.609375 0.28125 C 6.367188 0.28125 4.539062 -0.40625 3.125 -1.78125 C 1.71875 -3.15625 1.015625 -4.988281 1.015625 -7.28125 L 1.015625 -7.671875 C 1.015625 -9.210938 1.3125 -10.585938 1.90625 -11.796875 C 2.5 -13.003906 3.335938 -13.9375 4.421875 -14.59375 C 5.515625 -15.25 6.757812 -15.578125 8.15625 -15.578125 C 10.25 -15.578125 11.894531 -14.914062 13.09375 -13.59375 C 14.300781 -12.28125 14.90625 -10.410156 14.90625 -7.984375 L 14.90625 -6.3125 L 5.15625 -6.3125 C 5.289062 -5.320312 5.6875 -4.523438 6.34375 -3.921875 C 7.007812 -3.316406 7.851562 -3.015625 8.875 -3.015625 C 10.445312 -3.015625 11.675781 -3.582031 12.5625 -4.71875 L 14.578125 -2.46875 C 13.960938 -1.601562 13.128906 -0.925781 12.078125 -0.4375 C 11.035156 0.0390625 9.878906 0.28125 8.609375 0.28125 Z M 8.140625 -12.265625 C 7.328125 -12.265625 6.671875 -11.988281 6.171875 -11.4375 C 5.671875 -10.894531 5.347656 -10.117188 5.203125 -9.109375 L 10.890625 -9.109375 L 10.890625 -9.421875 C 10.867188 -10.328125 10.617188 -11.023438 10.140625 -11.515625 C 9.671875 -12.015625 9.003906 -12.265625 8.140625 -12.265625 Z M 8.140625 -12.265625 "/></g></g><g transform="translate(34.89733, 28.007161)"><g><path d="M 10.171875 -11.46875 C 9.609375 -11.539062 9.113281 -11.578125 8.6875 -11.578125 C 7.144531 -11.578125 6.132812 -11.054688 5.65625 -10.015625 L 5.65625 0 L 1.5625 0 L 1.5625 -15.296875 L 5.421875 -15.296875 L 5.546875 -13.46875 C 6.359375 -14.875 7.492188 -15.578125 8.953125 -15.578125 C 9.398438 -15.578125 9.820312 -15.515625 10.21875 -15.390625 Z M 10.171875 -11.46875 "/></g></g><g transform="translate(45.457612, 28.007161)"><g><path d="M 5.40625 -15.296875 L 5.53125 -13.578125 C 6.613281 -14.910156 8.078125 -15.578125 9.921875 -15.578125 C 11.890625 -15.578125 13.242188 -14.800781 13.984375 -13.25 C 15.054688 -14.800781 16.585938 -15.578125 18.578125 -15.578125 C 20.234375 -15.578125 21.46875 -15.09375 22.28125 -14.125 C 23.09375 -13.164062 23.5 -11.710938 23.5 -9.765625 L 23.5 0 L 19.390625 0 L 19.390625 -9.75 C 19.390625 -10.625 19.21875 -11.257812 18.875 -11.65625 C 18.539062 -12.050781 17.945312 -12.25 17.09375 -12.25 C 15.863281 -12.25 15.015625 -11.664062 14.546875 -10.5 L 14.5625 0 L 10.46875 0 L 10.46875 -9.734375 C 10.46875 -10.617188 10.289062 -11.257812 9.9375 -11.65625 C 9.59375 -12.050781 9.003906 -12.25 8.171875 -12.25 C 7.015625 -12.25 6.175781 -11.769531 5.65625 -10.8125 L 5.65625 0 L 1.5625 0 L 1.5625 -15.296875 Z M 5.40625 -15.296875 "/></g></g><g transform="translate(70.522377, 28.007161)"><g><path d="M 5.875 0 L 1.78125 0 L 1.78125 -15.296875 L 5.875 -15.296875 Z M 1.546875 -19.25 C 1.546875 -19.863281 1.75 -20.367188 2.15625 -20.765625 C 2.5625 -21.160156 3.117188 -21.359375 3.828125 -21.359375 C 4.523438 -21.359375 5.082031 -21.160156 5.5 -20.765625 C 5.914062 -20.367188 6.125 -19.863281 6.125 -19.25 C 6.125 -18.632812 5.910156 -18.128906 5.484375 -17.734375 C 5.066406 -17.335938 4.515625 -17.140625 3.828125 -17.140625 C 3.140625 -17.140625 2.585938 -17.335938 2.171875 -17.734375 C 1.753906 -18.128906 1.546875 -18.632812 1.546875 -19.25 Z M 1.546875 -19.25 "/></g></g><g transform="translate(78.198727, 28.007161)"><g><path d="M 5.328125 -15.296875 L 5.453125 -13.53125 C 6.546875 -14.894531 8.015625 -15.578125 9.859375 -15.578125 C 11.472656 -15.578125 12.675781 -15.097656 13.46875 -14.140625 C 14.257812 -13.191406 14.664062 -11.769531 14.6875 -9.875 L 14.6875 0 L 10.609375 0 L 10.609375 -9.78125 C 10.609375 -10.644531 10.414062 -11.269531 10.03125 -11.65625 C 9.65625 -12.050781 9.03125 -12.25 8.15625 -12.25 C 7.007812 -12.25 6.144531 -11.757812 5.5625 -10.78125 L 5.5625 0 L 1.484375 0 L 1.484375 -15.296875 Z M 5.328125 -15.296875 "/></g></g></g></g></g><g clip-path="url(#5dbb0e6de5)"><g clip-path="url(#6af52bfeaa)"><g transform="matrix(1, 0, 0, 1, 495, 8)"><g clip-path="url(#4c072fd09e)"><g clip-path="url(#9acc864a1e)"><g clip-path="url(#5ee708d10b)"><g clip-path="url(#893024cdf5)"><g clip-path="url(#7f1ac2dec3)"><path fill="#dfb0b0" d="M 85.742188 45.285156 C 83.175781 41.703125 80.019531 37.996094 77.566406 34.214844 C 74.964844 30.191406 73.640625 25.523438 71.554688 21.246094 C 67.730469 13.800781 58.832031 10.796875 50.890625 10.976562 C 45.191406 11.003906 39.71875 13.375 35.464844 17.152344 C 33.984375 18.339844 33.070312 19.929688 32.097656 21.46875 C 30.789062 23.527344 29.574219 25.652344 28.863281 28.007812 C 26.765625 35.578125 27.699219 43.535156 27.03125 51.277344 C 26.988281 52.019531 26.726562 52.695312 26.386719 53.355469 C 24.3125 57.078125 22 61.058594 22.796875 65.484375 C 23.585938 73.042969 29.464844 79.550781 36.878906 81.273438 C 38.753906 81.683594 40.671875 81.78125 42.53125 82.222656 C 48.058594 83.394531 54.242188 84.039062 58.550781 88.042969 C 62.480469 92.71875 60.585938 97.917969 66.027344 102.070312 C 71.023438 106.273438 78.285156 103.78125 82.933594 100.175781 C 87.019531 96.730469 89.9375 92.074219 91.957031 87.175781 C 97.523438 71.964844 95.21875 58.261719 85.742188 45.285156 Z M 85.742188 45.285156 " fill-opacity="1" fill-rule="nonzero"/></g></g></g></g></g></g></g></g><g fill="#000000" fill-opacity="1"><g transform="translate(13.272061, 311.430075)"><g><path d="M 27.890625 -10.625 C 27.640625 -7.1875 26.367188 -4.484375 24.078125 -2.515625 C 21.796875 -0.546875 18.785156 0.4375 15.046875 0.4375 C 10.960938 0.4375 7.75 -0.9375 5.40625 -3.6875 C 3.0625 -6.4375 1.890625 -10.21875 1.890625 -15.03125 L 1.890625 -16.96875 C 1.890625 -20.039062 2.425781 -22.742188 3.5 -25.078125 C 4.582031 -27.410156 6.128906 -29.203125 8.140625 -30.453125 C 10.148438 -31.703125 12.484375 -32.328125 15.140625 -32.328125 C 18.816406 -32.328125 21.78125 -31.34375 24.03125 -29.375 C 26.28125 -27.40625 27.578125 -24.640625 27.921875 -21.078125 L 21.359375 -21.078125 C 21.191406 -23.128906 20.613281 -24.617188 19.625 -25.546875 C 18.644531 -26.472656 17.148438 -26.9375 15.140625 -26.9375 C 12.941406 -26.9375 11.300781 -26.148438 10.21875 -24.578125 C 9.132812 -23.015625 8.578125 -20.582031 8.546875 -17.28125 L 8.546875 -14.875 C 8.546875 -11.425781 9.066406 -8.90625 10.109375 -7.3125 C 11.148438 -5.71875 12.796875 -4.921875 15.046875 -4.921875 C 17.078125 -4.921875 18.59375 -5.382812 19.59375 -6.3125 C 20.59375 -7.238281 21.164062 -8.675781 21.3125 -10.625 Z M 27.890625 -10.625 "/></g></g></g></g></g></g></svg>