<svg xmlns="http://www.w3.org/2000/svg" xmlns:xlink="http://www.w3.org/1999/xlink" width="574" zoomAndPan="magnify" viewBox="0 0 430.5 77.999999" height="104" preserveAspectRatio="xMidYMid meet" version="1.0"><defs><g/><clipPath id="b0fe148373"><path d="M 5.261719 2.175781 L 424.445312 2.175781 L 424.445312 75.589844 L 5.261719 75.589844 Z M 5.261719 2.175781 " clip-rule="nonzero"/></clipPath></defs><g fill="#000000" fill-opacity="1"><g transform="translate(15.173772, 51.676675)"><g><path d="M 22.109375 0 L 19.671875 -7.015625 L 9.1875 -7.015625 L 6.75 0 L 1 0 L 11.015625 -27.484375 L 17.8125 -27.484375 L 27.796875 0 Z M 14.421875 -23.25 L 14.296875 -22.828125 C 14.171875 -22.359375 14.015625 -21.820312 13.828125 -21.21875 C 13.648438 -20.625 12.53125 -17.335938 10.46875 -11.359375 L 18.375 -11.359375 L 15.671875 -19.25 L 14.828125 -21.90625 Z M 14.421875 -23.25 "/></g></g></g><g fill="#000000" fill-opacity="1"><g transform="translate(42.541602, 51.676675)"><g/></g></g><g fill="#000000" fill-opacity="1"><g transform="translate(53.640912, 51.676675)"><g><path d="M 1.65625 -16.421875 L 1.65625 -20.78125 L 21.6875 -20.78125 L 21.6875 -16.421875 Z M 1.65625 -5.671875 L 1.65625 -9.984375 L 21.6875 -9.984375 L 21.6875 -5.671875 Z M 1.65625 -5.671875 "/></g></g></g><g fill="#000000" fill-opacity="1"><g transform="translate(76.970908, 51.676675)"><g/></g></g><g fill="#000000" fill-opacity="1"><g transform="translate(88.070218, 51.676675)"><g><path d="M 20.78125 -9 C 20.78125 -6.070312 19.957031 -3.773438 18.3125 -2.109375 C 16.675781 -0.441406 14.414062 0.390625 11.53125 0.390625 C 8.289062 0.390625 5.800781 -0.742188 4.0625 -3.015625 C 2.332031 -5.285156 1.46875 -8.648438 1.46875 -13.109375 C 1.46875 -18.015625 2.347656 -21.703125 4.109375 -24.171875 C 5.867188 -26.648438 8.390625 -27.890625 11.671875 -27.890625 C 13.992188 -27.890625 15.828125 -27.375 17.171875 -26.34375 C 18.523438 -25.320312 19.476562 -23.734375 20.03125 -21.578125 L 14.859375 -20.859375 C 14.367188 -22.660156 13.265625 -23.5625 11.546875 -23.5625 C 10.078125 -23.5625 8.921875 -22.828125 8.078125 -21.359375 C 7.242188 -19.890625 6.828125 -17.660156 6.828125 -14.671875 C 7.410156 -15.648438 8.222656 -16.394531 9.265625 -16.90625 C 10.304688 -17.425781 11.484375 -17.6875 12.796875 -17.6875 C 15.253906 -17.6875 17.195312 -16.90625 18.625 -15.34375 C 20.0625 -13.789062 20.78125 -11.675781 20.78125 -9 Z M 15.28125 -8.84375 C 15.28125 -10.394531 14.914062 -11.582031 14.1875 -12.40625 C 13.46875 -13.238281 12.476562 -13.65625 11.21875 -13.65625 C 10.007812 -13.65625 9.039062 -13.265625 8.3125 -12.484375 C 7.582031 -11.710938 7.21875 -10.691406 7.21875 -9.421875 C 7.21875 -7.816406 7.597656 -6.488281 8.359375 -5.4375 C 9.117188 -4.394531 10.117188 -3.875 11.359375 -3.875 C 12.585938 -3.875 13.546875 -4.3125 14.234375 -5.1875 C 14.929688 -6.070312 15.28125 -7.289062 15.28125 -8.84375 Z M 15.28125 -8.84375 "/></g></g></g><g fill="#000000" fill-opacity="1"><g transform="translate(110.288339, 51.676675)"><g><path d="M 8.421875 -1.28125 C 8.421875 0.269531 8.253906 1.644531 7.921875 2.84375 C 7.597656 4.039062 7.066406 5.15625 6.328125 6.1875 L 2.71875 6.1875 C 3.476562 5.257812 4.097656 4.242188 4.578125 3.140625 C 5.066406 2.035156 5.3125 0.988281 5.3125 0 L 2.796875 0 L 2.796875 -5.953125 L 8.421875 -5.953125 Z M 8.421875 -1.28125 "/></g></g></g><g fill="#000000" fill-opacity="1"><g transform="translate(121.387649, 51.676675)"><g/></g></g><g fill="#000000" fill-opacity="1"><g transform="translate(132.486959, 51.676675)"><g><path d="M 27.03125 -7.84375 C 27.03125 -5.34375 26.09375 -3.410156 24.21875 -2.046875 C 22.351562 -0.679688 19.753906 0 16.421875 0 L 2.671875 0 L 2.671875 -27.484375 L 15.25 -27.484375 C 18.601562 -27.484375 21.140625 -26.898438 22.859375 -25.734375 C 24.585938 -24.578125 25.453125 -22.859375 25.453125 -20.578125 C 25.453125 -19.015625 25.019531 -17.695312 24.15625 -16.625 C 23.289062 -15.550781 21.972656 -14.828125 20.203125 -14.453125 C 22.429688 -14.191406 24.125 -13.492188 25.28125 -12.359375 C 26.445312 -11.222656 27.03125 -9.71875 27.03125 -7.84375 Z M 19.671875 -19.796875 C 19.671875 -21.035156 19.273438 -21.914062 18.484375 -22.4375 C 17.691406 -22.957031 16.523438 -23.21875 14.984375 -23.21875 L 8.421875 -23.21875 L 8.421875 -16.40625 L 15.015625 -16.40625 C 16.640625 -16.40625 17.820312 -16.6875 18.5625 -17.25 C 19.300781 -17.820312 19.671875 -18.671875 19.671875 -19.796875 Z M 21.265625 -8.296875 C 21.265625 -10.867188 19.414062 -12.15625 15.71875 -12.15625 L 8.421875 -12.15625 L 8.421875 -4.265625 L 15.9375 -4.265625 C 17.78125 -4.265625 19.128906 -4.597656 19.984375 -5.265625 C 20.835938 -5.941406 21.265625 -6.953125 21.265625 -8.296875 Z M 21.265625 -8.296875 "/></g></g></g><g fill="#000000" fill-opacity="1"><g transform="translate(161.337353, 51.676675)"><g/></g></g><g fill="#000000" fill-opacity="1"><g transform="translate(172.436663, 51.676675)"><g><path d="M 1.65625 -16.421875 L 1.65625 -20.78125 L 21.6875 -20.78125 L 21.6875 -16.421875 Z M 1.65625 -5.671875 L 1.65625 -9.984375 L 21.6875 -9.984375 L 21.6875 -5.671875 Z M 1.65625 -5.671875 "/></g></g></g><g fill="#000000" fill-opacity="1"><g transform="translate(195.76666, 51.676675)"><g/></g></g><g fill="#000000" fill-opacity="1"><g transform="translate(206.86597, 51.676675)"><g><path d="M 1.390625 0 L 1.390625 -3.796875 C 2.097656 -5.378906 3.113281 -6.914062 4.4375 -8.40625 C 5.757812 -9.90625 7.421875 -11.46875 9.421875 -13.09375 C 11.347656 -14.65625 12.695312 -15.941406 13.46875 -16.953125 C 14.238281 -17.960938 14.625 -18.957031 14.625 -19.9375 C 14.625 -22.332031 13.421875 -23.53125 11.015625 -23.53125 C 9.847656 -23.53125 8.953125 -23.210938 8.328125 -22.578125 C 7.710938 -21.953125 7.316406 -21.007812 7.140625 -19.75 L 1.625 -20.046875 C 1.9375 -22.597656 2.882812 -24.539062 4.46875 -25.875 C 6.0625 -27.21875 8.234375 -27.890625 10.984375 -27.890625 C 13.953125 -27.890625 16.226562 -27.210938 17.8125 -25.859375 C 19.394531 -24.515625 20.1875 -22.617188 20.1875 -20.171875 C 20.1875 -18.878906 19.929688 -17.710938 19.421875 -16.671875 C 18.921875 -15.640625 18.273438 -14.679688 17.484375 -13.796875 C 16.691406 -12.921875 15.804688 -12.097656 14.828125 -11.328125 C 13.859375 -10.566406 12.921875 -9.820312 12.015625 -9.09375 C 11.109375 -8.363281 10.28125 -7.628906 9.53125 -6.890625 C 8.78125 -6.148438 8.222656 -5.351562 7.859375 -4.5 L 20.625 -4.5 L 20.625 0 Z M 1.390625 0 "/></g></g></g><g fill="#000000" fill-opacity="1"><g transform="translate(229.084103, 51.676675)"><g><path d="M 18.34375 -5.59375 L 18.34375 0 L 13.109375 0 L 13.109375 -5.59375 L 0.609375 -5.59375 L 0.609375 -9.71875 L 12.21875 -27.484375 L 18.34375 -27.484375 L 18.34375 -9.671875 L 22 -9.671875 L 22 -5.59375 Z M 13.109375 -18.671875 C 13.109375 -19.367188 13.128906 -20.128906 13.171875 -20.953125 C 13.222656 -21.773438 13.257812 -22.300781 13.28125 -22.53125 C 12.945312 -21.800781 12.335938 -20.75 11.453125 -19.375 L 5.078125 -9.671875 L 13.109375 -9.671875 Z M 13.109375 -18.671875 "/></g></g></g><g fill="#000000" fill-opacity="1"><g transform="translate(251.302223, 51.676675)"><g><path d="M 8.421875 -1.28125 C 8.421875 0.269531 8.253906 1.644531 7.921875 2.84375 C 7.597656 4.039062 7.066406 5.15625 6.328125 6.1875 L 2.71875 6.1875 C 3.476562 5.257812 4.097656 4.242188 4.578125 3.140625 C 5.066406 2.035156 5.3125 0.988281 5.3125 0 L 2.796875 0 L 2.796875 -5.953125 L 8.421875 -5.953125 Z M 8.421875 -1.28125 "/></g></g></g><g fill="#000000" fill-opacity="1"><g transform="translate(262.401522, 51.676675)"><g/></g></g><g fill="#000000" fill-opacity="1"><g transform="translate(273.500821, 51.676675)"><g><path d="M 15.515625 -4.140625 C 18.984375 -4.140625 21.394531 -5.878906 22.75 -9.359375 L 27.765625 -7.46875 C 26.679688 -4.8125 25.09375 -2.835938 23 -1.546875 C 20.914062 -0.253906 18.421875 0.390625 15.515625 0.390625 C 11.085938 0.390625 7.664062 -0.859375 5.25 -3.359375 C 2.84375 -5.867188 1.640625 -9.375 1.640625 -13.875 C 1.640625 -18.382812 2.800781 -21.847656 5.125 -24.265625 C 7.457031 -26.679688 10.832031 -27.890625 15.25 -27.890625 C 18.476562 -27.890625 21.109375 -27.242188 23.140625 -25.953125 C 25.171875 -24.660156 26.59375 -22.757812 27.40625 -20.25 L 22.34375 -18.859375 C 21.90625 -20.242188 21.054688 -21.34375 19.796875 -22.15625 C 18.546875 -22.96875 17.070312 -23.375 15.375 -23.375 C 12.769531 -23.375 10.796875 -22.566406 9.453125 -20.953125 C 8.109375 -19.335938 7.4375 -16.976562 7.4375 -13.875 C 7.4375 -10.707031 8.128906 -8.289062 9.515625 -6.625 C 10.898438 -4.96875 12.898438 -4.140625 15.515625 -4.140625 Z M 15.515625 -4.140625 "/></g></g></g><g fill="#000000" fill-opacity="1"><g transform="translate(302.351238, 51.676675)"><g/></g></g><g fill="#000000" fill-opacity="1"><g transform="translate(313.450537, 51.676675)"><g><path d="M 1.65625 -16.421875 L 1.65625 -20.78125 L 21.6875 -20.78125 L 21.6875 -16.421875 Z M 1.65625 -5.671875 L 1.65625 -9.984375 L 21.6875 -9.984375 L 21.6875 -5.671875 Z M 1.65625 -5.671875 "/></g></g></g><g fill="#000000" fill-opacity="1"><g transform="translate(336.780533, 51.676675)"><g/></g></g><g fill="#000000" fill-opacity="1"><g transform="translate(347.879855, 51.676675)"><g><path d="M 2.515625 0 L 2.515625 -4.078125 L 9.328125 -4.078125 L 9.328125 -22.828125 L 2.734375 -18.703125 L 2.734375 -23.015625 L 9.625 -27.484375 L 14.8125 -27.484375 L 14.8125 -4.078125 L 21.109375 -4.078125 L 21.109375 0 Z M 2.515625 0 "/></g></g></g><g fill="#000000" fill-opacity="1"><g transform="translate(370.097976, 51.676675)"><g><path d="M 18.34375 -5.59375 L 18.34375 0 L 13.109375 0 L 13.109375 -5.59375 L 0.609375 -5.59375 L 0.609375 -9.71875 L 12.21875 -27.484375 L 18.34375 -27.484375 L 18.34375 -9.671875 L 22 -9.671875 L 22 -5.59375 Z M 13.109375 -18.671875 C 13.109375 -19.367188 13.128906 -20.128906 13.171875 -20.953125 C 13.222656 -21.773438 13.257812 -22.300781 13.28125 -22.53125 C 12.945312 -21.800781 12.335938 -20.75 11.453125 -19.375 L 5.078125 -9.671875 L 13.109375 -9.671875 Z M 13.109375 -18.671875 "/></g></g></g><g fill="#000000" fill-opacity="1"><g transform="translate(392.316096, 51.676675)"><g><path d="M 18.34375 -5.59375 L 18.34375 0 L 13.109375 0 L 13.109375 -5.59375 L 0.609375 -5.59375 L 0.609375 -9.71875 L 12.21875 -27.484375 L 18.34375 -27.484375 L 18.34375 -9.671875 L 22 -9.671875 L 22 -5.59375 Z M 13.109375 -18.671875 C 13.109375 -19.367188 13.128906 -20.128906 13.171875 -20.953125 C 13.222656 -21.773438 13.257812 -22.300781 13.28125 -22.53125 C 12.945312 -21.800781 12.335938 -20.75 11.453125 -19.375 L 5.078125 -9.671875 L 13.109375 -9.671875 Z M 13.109375 -18.671875 "/></g></g></g><g clip-path="url(#b0fe148373)"><path stroke-linecap="butt" transform="matrix(0.74913, 0, 0, 0.74913, 5.260632, 2.173948)" fill="none" stroke-linejoin="miter" d="M 0.00145128 0.00244784 L 559.562075 0.00244784 L 559.562075 98.157988 L 0.00145128 98.157988 Z M 0.00145128 0.00244784 " stroke="#000000" stroke-width="12" stroke-opacity="1" stroke-miterlimit="4"/></g></svg>