<svg xmlns="http://www.w3.org/2000/svg" xmlns:xlink="http://www.w3.org/1999/xlink" width="225" zoomAndPan="magnify" viewBox="0 0 168.75 167.999997" height="224" preserveAspectRatio="xMidYMid meet" version="1.0"><defs><g/><clipPath id="27a1f452f8"><path d="M 11.566406 11.394531 L 156.097656 11.394531 L 156.097656 155.929688 L 11.566406 155.929688 Z M 11.566406 11.394531 " clip-rule="nonzero"/></clipPath></defs><g clip-path="url(#27a1f452f8)"><path stroke-linecap="butt" transform="matrix(0.748891, 0, 0, 0.748891, 11.565331, 11.394488)" fill="none" stroke-linejoin="miter" d="M 0.00143551 0.0000581935 L 193.2039 0.0000581935 L 193.2039 193.155579 L 0.00143551 193.155579 Z M 0.00143551 0.0000581935 " stroke="#000000" stroke-width="12" stroke-opacity="1" stroke-miterlimit="4"/></g><g fill="#000000" fill-opacity="1"><g transform="translate(25.197732, 115.178899)"><g><path d="M 40.40625 0.78125 C 38.445312 0.78125 36.910156 0.242188 35.796875 -0.828125 C 34.691406 -1.910156 34.140625 -3.460938 34.140625 -5.484375 L 34.140625 -13.109375 L 9.984375 -13.109375 C 7.960938 -13.109375 6.347656 -13.53125 5.140625 -14.375 C 3.929688 -15.226562 3.328125 -16.566406 3.328125 -18.390625 C 3.328125 -19.429688 3.601562 -20.570312 4.15625 -21.8125 C 4.707031 -23.050781 5.703125 -24.6875 7.140625 -26.71875 L 33.953125 -65.5625 C 34.867188 -66.925781 35.878906 -67.96875 36.984375 -68.6875 C 38.085938 -69.40625 39.359375 -69.765625 40.796875 -69.765625 C 42.492188 -69.765625 43.894531 -69.257812 45 -68.25 C 46.113281 -67.238281 46.671875 -65.65625 46.671875 -63.5 L 46.671875 -23.484375 L 51.46875 -23.484375 C 53.351562 -23.484375 54.769531 -23.039062 55.71875 -22.15625 C 56.664062 -21.28125 57.140625 -19.992188 57.140625 -18.296875 C 57.140625 -16.597656 56.664062 -15.304688 55.71875 -14.421875 C 54.769531 -13.546875 53.351562 -13.109375 51.46875 -13.109375 L 46.671875 -13.109375 L 46.671875 -5.484375 C 46.671875 -3.460938 46.113281 -1.910156 45 -0.828125 C 43.894531 0.242188 42.363281 0.78125 40.40625 0.78125 Z M 34.140625 -23.484375 L 34.140625 -54.015625 L 36.984375 -54.015625 L 13.890625 -20.15625 L 13.890625 -23.484375 Z M 34.140625 -23.484375 "/></g></g></g><g fill="#000000" fill-opacity="1"><g transform="translate(83.906069, 115.178899)"><g><path d="M 29.359375 0.984375 C 21.203125 0.984375 14.96875 -2.097656 10.65625 -8.265625 C 6.351562 -14.429688 4.203125 -23.222656 4.203125 -34.640625 C 4.203125 -42.335938 5.164062 -48.8125 7.09375 -54.0625 C 9.019531 -59.3125 11.859375 -63.269531 15.609375 -65.9375 C 19.359375 -68.613281 23.941406 -69.953125 29.359375 -69.953125 C 37.578125 -69.953125 43.820312 -66.953125 48.09375 -60.953125 C 52.363281 -54.953125 54.5 -46.210938 54.5 -34.734375 C 54.5 -27.097656 53.535156 -20.625 51.609375 -15.3125 C 49.679688 -10 46.859375 -5.953125 43.140625 -3.171875 C 39.429688 -0.398438 34.835938 0.984375 29.359375 0.984375 Z M 29.359375 -9.296875 C 33.785156 -9.296875 37.054688 -11.347656 39.171875 -15.453125 C 41.296875 -19.566406 42.359375 -25.992188 42.359375 -34.734375 C 42.359375 -43.472656 41.296875 -49.816406 39.171875 -53.765625 C 37.054688 -57.710938 33.785156 -59.6875 29.359375 -59.6875 C 24.984375 -59.6875 21.71875 -57.710938 19.5625 -53.765625 C 17.414062 -49.816406 16.34375 -43.472656 16.34375 -34.734375 C 16.34375 -25.992188 17.414062 -19.566406 19.5625 -15.453125 C 21.71875 -11.347656 24.984375 -9.296875 29.359375 -9.296875 Z M 29.359375 -9.296875 "/></g></g></g></svg>