<svg xmlns="http://www.w3.org/2000/svg" xmlns:xlink="http://www.w3.org/1999/xlink" width="226" zoomAndPan="magnify" viewBox="0 0 169.5 173.999997" height="232" preserveAspectRatio="xMidYMid meet" version="1.0"><defs><g/><clipPath id="2a2a7128fe"><path d="M 12.011719 14.535156 L 156.328125 14.535156 L 156.328125 158.859375 L 12.011719 158.859375 Z M 12.011719 14.535156 " clip-rule="nonzero"/></clipPath></defs><g clip-path="url(#2a2a7128fe)"><path stroke-linecap="butt" transform="matrix(0.747794, 0, 0, 0.747794, 12.010207, 14.536392)" fill="none" stroke-linejoin="miter" d="M 0.00202108 -0.00165201 L 193.205679 -0.00165201 L 193.205679 193.154993 L 0.00202108 193.154993 Z M 0.00202108 -0.00165201 " stroke="#000000" stroke-width="12" stroke-opacity="1" stroke-miterlimit="4"/></g><g fill="#000000" fill-opacity="1"><g transform="translate(28.187623, 119.664444)"><g><path d="M 18.75 -40.84375 L 26.09375 -40.84375 C 29.59375 -40.84375 32.1875 -41.710938 33.875 -43.453125 C 35.5625 -45.203125 36.40625 -47.523438 36.40625 -50.421875 C 36.40625 -53.222656 35.566406 -55.398438 33.890625 -56.953125 C 32.222656 -58.515625 29.925781 -59.296875 27 -59.296875 C 24.363281 -59.296875 22.15625 -58.570312 20.375 -57.125 C 18.59375 -55.675781 17.703125 -53.789062 17.703125 -51.46875 L 3.90625 -51.46875 C 3.90625 -55.09375 4.882812 -58.34375 6.84375 -61.21875 C 8.800781 -64.101562 11.535156 -66.359375 15.046875 -67.984375 C 18.566406 -69.609375 22.441406 -70.421875 26.671875 -70.421875 C 34.015625 -70.421875 39.769531 -68.660156 43.9375 -65.140625 C 48.101562 -61.628906 50.1875 -56.785156 50.1875 -50.609375 C 50.1875 -47.429688 49.210938 -44.503906 47.265625 -41.828125 C 45.328125 -39.160156 42.785156 -37.113281 39.640625 -35.6875 C 43.554688 -34.28125 46.472656 -32.175781 48.390625 -29.375 C 50.316406 -26.582031 51.28125 -23.28125 51.28125 -19.46875 C 51.28125 -13.289062 49.03125 -8.34375 44.53125 -4.625 C 40.03125 -0.90625 34.078125 0.953125 26.671875 0.953125 C 19.734375 0.953125 14.0625 -0.875 9.65625 -4.53125 C 5.25 -8.1875 3.046875 -13.019531 3.046875 -19.03125 L 16.84375 -19.03125 C 16.84375 -16.425781 17.816406 -14.296875 19.765625 -12.640625 C 21.722656 -10.984375 24.132812 -10.15625 27 -10.15625 C 30.28125 -10.15625 32.847656 -11.019531 34.703125 -12.75 C 36.566406 -14.488281 37.5 -16.789062 37.5 -19.65625 C 37.5 -26.59375 33.679688 -30.0625 26.046875 -30.0625 L 18.75 -30.0625 Z M 18.75 -40.84375 "/></g></g></g><g fill="#000000" fill-opacity="1"><g transform="translate(84.243369, 119.664444)"><g><path d="M 6.78125 -34.15625 L 10.78125 -69.453125 L 49.703125 -69.453125 L 49.703125 -57.96875 L 22.09375 -57.96875 L 20.375 -43.03125 C 23.644531 -44.78125 27.125 -45.65625 30.8125 -45.65625 C 37.425781 -45.65625 42.609375 -43.601562 46.359375 -39.5 C 50.117188 -35.394531 52 -29.65625 52 -22.28125 C 52 -17.789062 51.050781 -13.769531 49.15625 -10.21875 C 47.269531 -6.675781 44.5625 -3.925781 41.03125 -1.96875 C 37.5 -0.0195312 33.332031 0.953125 28.53125 0.953125 C 24.332031 0.953125 20.4375 0.101562 16.84375 -1.59375 C 13.25 -3.300781 10.410156 -5.695312 8.328125 -8.78125 C 6.242188 -11.863281 5.140625 -15.378906 5.015625 -19.328125 L 18.65625 -19.328125 C 18.9375 -16.429688 19.941406 -14.175781 21.671875 -12.5625 C 23.410156 -10.957031 25.679688 -10.15625 28.484375 -10.15625 C 31.597656 -10.15625 34 -11.273438 35.6875 -13.515625 C 37.375 -15.765625 38.21875 -18.941406 38.21875 -23.046875 C 38.21875 -26.984375 37.242188 -30 35.296875 -32.09375 C 33.359375 -34.195312 30.609375 -35.25 27.046875 -35.25 C 23.773438 -35.25 21.117188 -34.390625 19.078125 -32.671875 L 17.75 -31.4375 Z M 6.78125 -34.15625 "/></g></g></g></svg>