<svg width="1081" height="364" viewBox="0 0 1081 364" fill="none" xmlns="http://www.w3.org/2000/svg">
<mask id="mask0_295_102" style="mask-type:luminance" maskUnits="userSpaceOnUse" x="0" y="0" width="364" height="364">
<path d="M364 0H0V364H364V0Z" fill="white"/>
</mask>
<g mask="url(#mask0_295_102)">
<mask id="mask1_295_102" style="mask-type:luminance" maskUnits="userSpaceOnUse" x="29" y="29" width="306" height="306">
<path d="M29.5469 29.3335H334.776V334.563H29.5469V29.3335Z" fill="white"/>
</mask>
<g mask="url(#mask1_295_102)">
<path d="M29.5469 29.3335H334.776V334.563H29.5469V29.3335Z" stroke="black" stroke-width="12"/>
</g>
<mask id="mask2_295_102" style="mask-type:luminance" maskUnits="userSpaceOnUse" x="48" y="49" width="66" height="76">
<path d="M48.5684 49.6719H113.745V124.271H48.5684V49.6719Z" fill="white"/>
</mask>
<g mask="url(#mask2_295_102)">
<mask id="mask3_295_102" style="mask-type:luminance" maskUnits="userSpaceOnUse" x="48" y="49" width="66" height="76">
<path d="M113.745 86.9167L48.5684 124.161V49.6719L113.745 86.9167Z" fill="white"/>
</mask>
<g mask="url(#mask3_295_102)">
<mask id="mask4_295_102" style="mask-type:luminance" maskUnits="userSpaceOnUse" x="48" y="49" width="67" height="77">
<path d="M114.667 49.3335H48V125.333H114.667V49.3335Z" fill="white"/>
</mask>
<g mask="url(#mask4_295_102)">
<mask id="mask5_295_102" style="mask-type:luminance" maskUnits="userSpaceOnUse" x="48" y="49" width="66" height="76">
<path d="M48.5684 49.6719H113.745V124.271H48.5684V49.6719Z" fill="white"/>
</mask>
<g mask="url(#mask5_295_102)">
<mask id="mask6_295_102" style="mask-type:luminance" maskUnits="userSpaceOnUse" x="48" y="49" width="66" height="76">
<path d="M113.745 86.9167L48.5684 124.161V49.6719L113.745 86.9167Z" fill="white"/>
</mask>
<g mask="url(#mask6_295_102)">
<path d="M113.745 49.6719V124.271H48.5684V49.6719H113.745Z" fill="black"/>
</g>
</g>
</g>
</g>
</g>
<mask id="mask7_295_102" style="mask-type:luminance" maskUnits="userSpaceOnUse" x="47" y="253" width="66" height="66">
<path d="M47.1348 253.787H112.27V318.922H47.1348V253.787Z" fill="white"/>
</mask>
<g mask="url(#mask7_295_102)">
<mask id="mask8_295_102" style="mask-type:luminance" maskUnits="userSpaceOnUse" x="47" y="253" width="66" height="66">
<path d="M79.7129 253.787C61.7233 253.787 47.1348 268.375 47.1348 286.365C47.1348 304.36 61.7233 318.943 79.7129 318.943C97.7077 318.943 112.291 304.36 112.291 286.365C112.291 268.375 97.7077 253.787 79.7129 253.787Z" fill="white"/>
</mask>
<g mask="url(#mask8_295_102)">
<path d="M79.7129 253.787C61.7233 253.787 47.1348 268.375 47.1348 286.365C47.1348 304.36 61.7233 318.943 79.7129 318.943C97.7077 318.943 112.291 304.36 112.291 286.365C112.291 268.375 97.7077 253.787 79.7129 253.787Z" stroke="black" stroke-width="8"/>
</g>
</g>
<mask id="mask9_295_102" style="mask-type:luminance" maskUnits="userSpaceOnUse" x="250" y="49" width="66" height="66">
<path d="M250.541 49.6772H315.723V114.854H250.541V49.6772Z" fill="white"/>
</mask>
<g mask="url(#mask9_295_102)">
<mask id="mask10_295_102" style="mask-type:luminance" maskUnits="userSpaceOnUse" x="249" y="49" width="67" height="67">
<path d="M315.999 49.3335H249.332V116H315.999V49.3335Z" fill="white"/>
</mask>
<g mask="url(#mask10_295_102)">
<mask id="mask11_295_102" style="mask-type:luminance" maskUnits="userSpaceOnUse" x="250" y="49" width="66" height="66">
<path d="M250.541 49.6772H315.723V114.854H250.541V49.6772Z" fill="white"/>
</mask>
<g mask="url(#mask11_295_102)">
<path d="M250.541 49.6772H315.723V114.854H250.541V49.6772Z" fill="black"/>
</g>
</g>
</g>
</g>
<path d="M427.858 101.993C428.902 101.993 429.73 102.317 430.342 102.965C430.954 103.577 431.26 104.405 431.26 105.449V137.147C431.26 138.191 430.936 139.037 430.288 139.685C429.676 140.333 428.866 140.657 427.858 140.657C426.814 140.657 425.986 140.333 425.374 139.685C424.762 139.037 424.456 138.191 424.456 137.147V123.809H404.962V137.147C404.962 138.191 404.638 139.037 403.99 139.685C403.378 140.333 402.55 140.657 401.506 140.657C400.498 140.657 399.67 140.333 399.022 139.685C398.41 139.037 398.104 138.191 398.104 137.147V105.449C398.104 104.405 398.41 103.577 399.022 102.965C399.634 102.317 400.462 101.993 401.506 101.993C402.55 101.993 403.378 102.317 403.99 102.965C404.638 103.577 404.962 104.405 404.962 105.449V118.193H424.456V105.449C424.456 104.405 424.762 103.577 425.374 102.965C425.986 102.317 426.814 101.993 427.858 101.993ZM450.302 113.279C453.974 113.279 456.692 114.197 458.456 116.033C460.256 117.833 461.156 120.587 461.156 124.295V137.471C461.156 138.443 460.868 139.217 460.292 139.793C459.716 140.333 458.924 140.603 457.916 140.603C456.98 140.603 456.206 140.315 455.594 139.739C455.018 139.163 454.73 138.407 454.73 137.471V136.283C454.118 137.687 453.146 138.785 451.814 139.577C450.518 140.369 449.006 140.765 447.278 140.765C445.514 140.765 443.912 140.405 442.472 139.685C441.032 138.965 439.898 137.975 439.07 136.715C438.242 135.455 437.828 134.051 437.828 132.503C437.828 130.559 438.314 129.029 439.286 127.913C440.294 126.797 441.914 125.987 444.146 125.483C446.378 124.979 449.456 124.727 453.38 124.727H454.73V123.485C454.73 121.721 454.352 120.443 453.596 119.651C452.84 118.823 451.616 118.409 449.924 118.409C448.88 118.409 447.818 118.571 446.738 118.895C445.658 119.183 444.38 119.615 442.904 120.191C441.968 120.659 441.284 120.893 440.852 120.893C440.204 120.893 439.664 120.659 439.232 120.191C438.836 119.723 438.638 119.111 438.638 118.355C438.638 117.743 438.782 117.221 439.07 116.789C439.394 116.321 439.916 115.889 440.636 115.493C441.896 114.809 443.39 114.269 445.118 113.873C446.882 113.477 448.61 113.279 450.302 113.279ZM448.628 135.905C450.428 135.905 451.886 135.311 453.002 134.123C454.154 132.899 454.73 131.333 454.73 129.425V128.291H453.758C451.346 128.291 449.474 128.399 448.142 128.615C446.81 128.831 445.856 129.209 445.28 129.749C444.704 130.289 444.416 131.027 444.416 131.963C444.416 133.115 444.812 134.069 445.604 134.825C446.432 135.545 447.44 135.905 448.628 135.905ZM477.574 140.765C473.65 140.765 470.482 139.991 468.07 138.443C466.918 137.759 466.342 136.787 466.342 135.527C466.342 134.807 466.54 134.231 466.936 133.799C467.332 133.331 467.818 133.097 468.394 133.097C469.006 133.097 469.852 133.385 470.932 133.961C472.084 134.501 473.128 134.915 474.064 135.203C475.036 135.491 476.26 135.635 477.736 135.635C479.248 135.635 480.418 135.383 481.246 134.879C482.11 134.375 482.542 133.673 482.542 132.773C482.542 132.161 482.362 131.675 482.002 131.315C481.678 130.955 481.066 130.631 480.166 130.343C479.302 130.019 477.97 129.659 476.17 129.263C472.966 128.615 470.662 127.697 469.258 126.509C467.89 125.321 467.206 123.683 467.206 121.595C467.206 120.011 467.674 118.589 468.61 117.329C469.546 116.033 470.824 115.043 472.444 114.359C474.1 113.639 475.972 113.279 478.06 113.279C479.572 113.279 481.03 113.477 482.434 113.873C483.838 114.233 485.098 114.773 486.214 115.493C487.366 116.213 487.942 117.167 487.942 118.355C487.942 119.075 487.744 119.687 487.348 120.191C486.952 120.659 486.466 120.893 485.89 120.893C485.494 120.893 485.098 120.821 484.702 120.677C484.342 120.497 483.874 120.245 483.298 119.921C482.254 119.381 481.354 118.985 480.598 118.733C479.842 118.445 478.906 118.301 477.79 118.301C476.458 118.301 475.396 118.571 474.604 119.111C473.848 119.651 473.47 120.389 473.47 121.325C473.47 122.225 473.866 122.909 474.658 123.377C475.45 123.845 476.98 124.313 479.248 124.781C481.66 125.285 483.55 125.861 484.918 126.509C486.286 127.157 487.258 127.967 487.834 128.939C488.446 129.911 488.752 131.153 488.752 132.665C488.752 135.113 487.726 137.075 485.674 138.551C483.658 140.027 480.958 140.765 477.574 140.765ZM497.573 140.657C496.601 140.657 495.791 140.387 495.143 139.847C494.531 139.271 494.225 138.461 494.225 137.417V116.573C494.225 115.529 494.531 114.737 495.143 114.197C495.791 113.657 496.601 113.387 497.573 113.387C498.545 113.387 499.355 113.657 500.003 114.197C500.651 114.737 500.975 115.529 500.975 116.573V137.417C500.975 138.461 500.651 139.271 500.003 139.847C499.355 140.387 498.545 140.657 497.573 140.657ZM497.573 108.581C496.349 108.581 495.377 108.257 494.657 107.609C493.937 106.925 493.577 106.043 493.577 104.963C493.577 103.883 493.937 103.019 494.657 102.371C495.377 101.723 496.349 101.399 497.573 101.399C498.761 101.399 499.715 101.723 500.435 102.371C501.191 103.019 501.569 103.883 501.569 104.963C501.569 106.043 501.209 106.925 500.489 107.609C499.769 108.257 498.797 108.581 497.573 108.581ZM511.284 140.657C510.312 140.657 509.502 140.387 508.854 139.847C508.242 139.271 507.936 138.461 507.936 137.417V105.179C507.936 104.135 508.242 103.343 508.854 102.803C509.502 102.263 510.312 101.993 511.284 101.993C512.256 101.993 513.066 102.263 513.714 102.803C514.362 103.343 514.686 104.135 514.686 105.179V137.417C514.686 138.461 514.362 139.271 513.714 139.847C513.066 140.387 512.256 140.657 511.284 140.657ZM551.049 113.387C551.985 113.315 552.723 113.513 553.263 113.981C553.803 114.449 554.073 115.151 554.073 116.087C554.073 117.059 553.839 117.779 553.371 118.247C552.903 118.715 552.057 119.021 550.833 119.165L549.213 119.327C547.089 119.543 545.523 120.263 544.515 121.487C543.543 122.711 543.057 124.241 543.057 126.077V137.417C543.057 138.461 542.733 139.271 542.085 139.847C541.437 140.387 540.627 140.657 539.655 140.657C538.683 140.657 537.873 140.387 537.225 139.847C536.613 139.271 536.307 138.461 536.307 137.417V116.519C536.307 115.511 536.613 114.737 537.225 114.197C537.873 113.657 538.665 113.387 539.601 113.387C540.537 113.387 541.293 113.657 541.869 114.197C542.445 114.701 542.733 115.439 542.733 116.411V118.571C543.417 116.987 544.425 115.763 545.757 114.899C547.125 114.035 548.637 113.549 550.293 113.441L551.049 113.387ZM568.493 140.765C565.793 140.765 563.417 140.207 561.365 139.091C559.349 137.975 557.783 136.373 556.667 134.285C555.551 132.197 554.993 129.767 554.993 126.995C554.993 124.223 555.551 121.811 556.667 119.759C557.783 117.671 559.349 116.069 561.365 114.953C563.417 113.837 565.793 113.279 568.493 113.279C571.193 113.279 573.551 113.837 575.567 114.953C577.619 116.069 579.185 117.671 580.265 119.759C581.381 121.811 581.939 124.223 581.939 126.995C581.939 129.767 581.381 132.197 580.265 134.285C579.185 136.373 577.619 137.975 575.567 139.091C573.551 140.207 571.193 140.765 568.493 140.765ZM568.439 135.527C570.635 135.527 572.309 134.807 573.461 133.367C574.613 131.927 575.189 129.803 575.189 126.995C575.189 124.223 574.613 122.117 573.461 120.677C572.309 119.201 570.653 118.463 568.493 118.463C566.333 118.463 564.659 119.201 563.471 120.677C562.319 122.117 561.743 124.223 561.743 126.995C561.743 129.803 562.319 131.927 563.471 133.367C564.623 134.807 566.279 135.527 568.439 135.527ZM601.07 135.635C602.87 135.743 603.77 136.553 603.77 138.065C603.77 138.929 603.41 139.595 602.69 140.063C602.006 140.495 601.016 140.675 599.72 140.603L598.262 140.495C592.214 140.063 589.19 136.823 589.19 130.775V119.003H586.49C585.518 119.003 584.762 118.787 584.222 118.355C583.718 117.923 583.466 117.293 583.466 116.465C583.466 115.637 583.718 115.007 584.222 114.575C584.762 114.143 585.518 113.927 586.49 113.927H589.19V108.959C589.19 107.987 589.496 107.213 590.108 106.637C590.72 106.061 591.548 105.773 592.592 105.773C593.6 105.773 594.41 106.061 595.022 106.637C595.634 107.213 595.94 107.987 595.94 108.959V113.927H600.53C601.502 113.927 602.24 114.143 602.744 114.575C603.284 115.007 603.554 115.637 603.554 116.465C603.554 117.293 603.284 117.923 602.744 118.355C602.24 118.787 601.502 119.003 600.53 119.003H595.94V131.261C595.94 133.925 597.164 135.347 599.612 135.527L601.07 135.635ZM618.735 113.279C622.407 113.279 625.125 114.197 626.889 116.033C628.689 117.833 629.589 120.587 629.589 124.295V137.471C629.589 138.443 629.301 139.217 628.725 139.793C628.149 140.333 627.357 140.603 626.349 140.603C625.413 140.603 624.639 140.315 624.027 139.739C623.451 139.163 623.163 138.407 623.163 137.471V136.283C622.551 137.687 621.579 138.785 620.247 139.577C618.951 140.369 617.439 140.765 615.711 140.765C613.947 140.765 612.345 140.405 610.905 139.685C609.465 138.965 608.331 137.975 607.503 136.715C606.675 135.455 606.261 134.051 606.261 132.503C606.261 130.559 606.747 129.029 607.719 127.913C608.727 126.797 610.347 125.987 612.579 125.483C614.811 124.979 617.889 124.727 621.813 124.727H623.163V123.485C623.163 121.721 622.785 120.443 622.029 119.651C621.273 118.823 620.049 118.409 618.357 118.409C617.313 118.409 616.251 118.571 615.171 118.895C614.091 119.183 612.813 119.615 611.337 120.191C610.401 120.659 609.717 120.893 609.285 120.893C608.637 120.893 608.097 120.659 607.665 120.191C607.269 119.723 607.071 119.111 607.071 118.355C607.071 117.743 607.215 117.221 607.503 116.789C607.827 116.321 608.349 115.889 609.069 115.493C610.329 114.809 611.823 114.269 613.551 113.873C615.315 113.477 617.043 113.279 618.735 113.279ZM617.061 135.905C618.861 135.905 620.319 135.311 621.435 134.123C622.587 132.899 623.163 131.333 623.163 129.425V128.291H622.191C619.779 128.291 617.907 128.399 616.575 128.615C615.243 128.831 614.289 129.209 613.713 129.749C613.137 130.289 612.849 131.027 612.849 131.963C612.849 133.115 613.245 134.069 614.037 134.825C614.865 135.545 615.873 135.905 617.061 135.905ZM646.007 140.765C642.083 140.765 638.915 139.991 636.503 138.443C635.351 137.759 634.775 136.787 634.775 135.527C634.775 134.807 634.973 134.231 635.369 133.799C635.765 133.331 636.251 133.097 636.827 133.097C637.439 133.097 638.285 133.385 639.365 133.961C640.517 134.501 641.561 134.915 642.497 135.203C643.469 135.491 644.693 135.635 646.169 135.635C647.681 135.635 648.851 135.383 649.679 134.879C650.543 134.375 650.975 133.673 650.975 132.773C650.975 132.161 650.795 131.675 650.435 131.315C650.111 130.955 649.499 130.631 648.599 130.343C647.735 130.019 646.403 129.659 644.603 129.263C641.399 128.615 639.095 127.697 637.691 126.509C636.323 125.321 635.639 123.683 635.639 121.595C635.639 120.011 636.107 118.589 637.043 117.329C637.979 116.033 639.257 115.043 640.877 114.359C642.533 113.639 644.405 113.279 646.493 113.279C648.005 113.279 649.463 113.477 650.867 113.873C652.271 114.233 653.531 114.773 654.647 115.493C655.799 116.213 656.375 117.167 656.375 118.355C656.375 119.075 656.177 119.687 655.781 120.191C655.385 120.659 654.899 120.893 654.323 120.893C653.927 120.893 653.531 120.821 653.135 120.677C652.775 120.497 652.307 120.245 651.731 119.921C650.687 119.381 649.787 118.985 649.031 118.733C648.275 118.445 647.339 118.301 646.223 118.301C644.891 118.301 643.829 118.571 643.037 119.111C642.281 119.651 641.903 120.389 641.903 121.325C641.903 122.225 642.299 122.909 643.091 123.377C643.883 123.845 645.413 124.313 647.681 124.781C650.093 125.285 651.983 125.861 653.351 126.509C654.719 127.157 655.691 127.967 656.267 128.939C656.879 129.911 657.185 131.153 657.185 132.665C657.185 135.113 656.159 137.075 654.107 138.551C652.091 140.027 649.391 140.765 646.007 140.765ZM666.006 140.657C665.034 140.657 664.224 140.387 663.576 139.847C662.964 139.271 662.658 138.461 662.658 137.417V116.573C662.658 115.529 662.964 114.737 663.576 114.197C664.224 113.657 665.034 113.387 666.006 113.387C666.978 113.387 667.788 113.657 668.436 114.197C669.084 114.737 669.408 115.529 669.408 116.573V137.417C669.408 138.461 669.084 139.271 668.436 139.847C667.788 140.387 666.978 140.657 666.006 140.657ZM666.006 108.581C664.782 108.581 663.81 108.257 663.09 107.609C662.37 106.925 662.01 106.043 662.01 104.963C662.01 103.883 662.37 103.019 663.09 102.371C663.81 101.723 664.782 101.399 666.006 101.399C667.194 101.399 668.148 101.723 668.868 102.371C669.624 103.019 670.002 103.883 670.002 104.963C670.002 106.043 669.642 106.925 668.922 107.609C668.202 108.257 667.23 108.581 666.006 108.581ZM709.444 115.331C709.732 114.683 710.11 114.215 710.578 113.927C711.082 113.603 711.622 113.441 712.198 113.441C713.026 113.441 713.764 113.729 714.412 114.305C715.096 114.845 715.438 115.529 715.438 116.357C715.438 116.753 715.33 117.167 715.114 117.599L700.372 148.487C699.76 149.711 698.806 150.323 697.51 150.323C696.682 150.323 695.944 150.053 695.296 149.513C694.684 149.009 694.378 148.361 694.378 147.569C694.378 147.173 694.486 146.723 694.702 146.219L698.374 138.497L688.33 117.599C688.15 117.239 688.06 116.825 688.06 116.357C688.06 115.529 688.402 114.827 689.086 114.251C689.806 113.675 690.616 113.387 691.516 113.387C692.128 113.387 692.686 113.549 693.19 113.873C693.694 114.161 694.09 114.629 694.378 115.277L701.938 131.963L709.444 115.331ZM730.532 113.279C734.204 113.279 736.922 114.197 738.686 116.033C740.486 117.833 741.386 120.587 741.386 124.295V137.471C741.386 138.443 741.098 139.217 740.522 139.793C739.946 140.333 739.154 140.603 738.146 140.603C737.21 140.603 736.436 140.315 735.824 139.739C735.248 139.163 734.96 138.407 734.96 137.471V136.283C734.348 137.687 733.376 138.785 732.044 139.577C730.748 140.369 729.236 140.765 727.508 140.765C725.744 140.765 724.142 140.405 722.702 139.685C721.262 138.965 720.128 137.975 719.3 136.715C718.472 135.455 718.058 134.051 718.058 132.503C718.058 130.559 718.544 129.029 719.516 127.913C720.524 126.797 722.144 125.987 724.376 125.483C726.608 124.979 729.686 124.727 733.61 124.727H734.96V123.485C734.96 121.721 734.582 120.443 733.826 119.651C733.07 118.823 731.846 118.409 730.154 118.409C729.11 118.409 728.048 118.571 726.968 118.895C725.888 119.183 724.61 119.615 723.134 120.191C722.198 120.659 721.514 120.893 721.082 120.893C720.434 120.893 719.894 120.659 719.462 120.191C719.066 119.723 718.868 119.111 718.868 118.355C718.868 117.743 719.012 117.221 719.3 116.789C719.624 116.321 720.146 115.889 720.866 115.493C722.126 114.809 723.62 114.269 725.348 113.873C727.112 113.477 728.84 113.279 730.532 113.279ZM728.858 135.905C730.658 135.905 732.116 135.311 733.232 134.123C734.384 132.899 734.96 131.333 734.96 129.425V128.291H733.988C731.576 128.291 729.704 128.399 728.372 128.615C727.04 128.831 726.086 129.209 725.51 129.749C724.934 130.289 724.646 131.027 724.646 131.963C724.646 133.115 725.042 134.069 725.834 134.825C726.662 135.545 727.67 135.905 728.858 135.905ZM763.582 113.279C766.75 113.279 769.108 114.179 770.656 115.979C772.204 117.779 772.978 120.497 772.978 124.133V137.417C772.978 138.425 772.672 139.217 772.06 139.793C771.484 140.369 770.674 140.657 769.63 140.657C768.586 140.657 767.758 140.369 767.146 139.793C766.534 139.217 766.228 138.425 766.228 137.417V124.511C766.228 122.459 765.832 120.965 765.04 120.029C764.284 119.093 763.078 118.625 761.422 118.625C759.478 118.625 757.912 119.237 756.724 120.461C755.572 121.685 754.996 123.323 754.996 125.375V137.417C754.996 138.425 754.69 139.217 754.078 139.793C753.466 140.369 752.638 140.657 751.594 140.657C750.55 140.657 749.722 140.369 749.11 139.793C748.534 139.217 748.246 138.425 748.246 137.417V116.519C748.246 115.583 748.552 114.827 749.164 114.251C749.776 113.675 750.604 113.387 751.648 113.387C752.584 113.387 753.34 113.675 753.916 114.251C754.528 114.791 754.834 115.511 754.834 116.411V117.869C755.734 116.393 756.94 115.259 758.452 114.467C759.964 113.675 761.674 113.279 763.582 113.279ZM802.19 113.387C803.198 113.387 804.008 113.675 804.62 114.251C805.232 114.827 805.538 115.601 805.538 116.573V137.903C805.538 142.043 804.386 145.175 802.082 147.299C799.778 149.423 796.376 150.485 791.876 150.485C787.952 150.485 784.676 149.747 782.048 148.271C780.716 147.479 780.05 146.525 780.05 145.409C780.05 144.617 780.23 143.987 780.59 143.519C780.986 143.051 781.49 142.817 782.102 142.817C782.426 142.817 782.822 142.889 783.29 143.033C783.758 143.213 784.244 143.411 784.748 143.627C786.044 144.167 787.196 144.581 788.204 144.869C789.248 145.157 790.436 145.301 791.768 145.301C796.484 145.301 798.842 142.997 798.842 138.389V134.933C798.05 136.409 796.898 137.561 795.386 138.389C793.874 139.181 792.146 139.577 790.202 139.577C787.898 139.577 785.846 139.037 784.046 137.957C782.282 136.841 780.896 135.293 779.888 133.313C778.88 131.333 778.376 129.047 778.376 126.455C778.376 123.863 778.862 121.577 779.834 119.597C780.842 117.581 782.246 116.033 784.046 114.953C785.846 113.837 787.898 113.279 790.202 113.279C792.146 113.279 793.874 113.693 795.386 114.521C796.898 115.313 798.05 116.447 798.842 117.923V116.519C798.842 115.583 799.148 114.827 799.76 114.251C800.372 113.675 801.182 113.387 802.19 113.387ZM791.984 134.339C794.144 134.339 795.818 133.637 797.006 132.233C798.23 130.829 798.842 128.903 798.842 126.455C798.842 123.971 798.23 122.027 797.006 120.623C795.818 119.219 794.144 118.517 791.984 118.517C789.86 118.517 788.186 119.219 786.962 120.623C785.738 122.027 785.126 123.971 785.126 126.455C785.126 128.903 785.738 130.829 786.962 132.233C788.186 133.637 789.86 134.339 791.984 134.339ZM840.906 135.635C842.706 135.743 843.606 136.553 843.606 138.065C843.606 138.929 843.246 139.595 842.526 140.063C841.842 140.495 840.852 140.675 839.556 140.603L838.098 140.495C832.05 140.063 829.026 136.823 829.026 130.775V119.003H826.326C825.354 119.003 824.598 118.787 824.058 118.355C823.554 117.923 823.302 117.293 823.302 116.465C823.302 115.637 823.554 115.007 824.058 114.575C824.598 114.143 825.354 113.927 826.326 113.927H829.026V108.959C829.026 107.987 829.332 107.213 829.944 106.637C830.556 106.061 831.384 105.773 832.428 105.773C833.436 105.773 834.246 106.061 834.858 106.637C835.47 107.213 835.776 107.987 835.776 108.959V113.927H840.366C841.338 113.927 842.076 114.143 842.58 114.575C843.12 115.007 843.39 115.637 843.39 116.465C843.39 117.293 843.12 117.923 842.58 118.355C842.076 118.787 841.338 119.003 840.366 119.003H835.776V131.261C835.776 133.925 837 135.347 839.448 135.527L840.906 135.635ZM868.021 133.097C868.633 133.097 869.119 133.331 869.479 133.799C869.875 134.267 870.073 134.897 870.073 135.689C870.073 136.805 869.407 137.741 868.075 138.497C866.851 139.181 865.465 139.739 863.917 140.171C862.369 140.567 860.893 140.765 859.489 140.765C855.241 140.765 851.875 139.541 849.391 137.093C846.907 134.645 845.665 131.297 845.665 127.049C845.665 124.349 846.205 121.955 847.285 119.867C848.365 117.779 849.877 116.159 851.821 115.007C853.801 113.855 856.033 113.279 858.517 113.279C860.893 113.279 862.963 113.801 864.727 114.845C866.491 115.889 867.859 117.365 868.831 119.273C869.803 121.181 870.289 123.431 870.289 126.023C870.289 127.571 869.605 128.345 868.237 128.345H852.307C852.523 130.829 853.225 132.665 854.413 133.853C855.601 135.005 857.329 135.581 859.597 135.581C860.749 135.581 861.757 135.437 862.621 135.149C863.521 134.861 864.529 134.465 865.645 133.961C866.725 133.385 867.517 133.097 868.021 133.097ZM858.679 118.031C856.843 118.031 855.367 118.607 854.251 119.759C853.171 120.911 852.523 122.567 852.307 124.727H864.511C864.439 122.531 863.899 120.875 862.891 119.759C861.883 118.607 860.479 118.031 858.679 118.031ZM890.985 113.279C893.253 113.279 895.269 113.855 897.033 115.007C898.833 116.159 900.219 117.797 901.191 119.921C902.199 122.009 902.703 124.421 902.703 127.157C902.703 129.893 902.199 132.287 901.191 134.339C900.219 136.391 898.851 137.975 897.087 139.091C895.323 140.207 893.289 140.765 890.985 140.765C889.113 140.765 887.439 140.369 885.963 139.577C884.487 138.785 883.353 137.687 882.561 136.283V147.299C882.561 148.235 882.255 148.973 881.643 149.513C881.031 150.053 880.221 150.323 879.213 150.323C878.205 150.323 877.377 150.035 876.729 149.459C876.117 148.883 875.811 148.127 875.811 147.191V116.573C875.811 115.601 876.099 114.827 876.675 114.251C877.287 113.675 878.097 113.387 879.105 113.387C880.113 113.387 880.923 113.675 881.535 114.251C882.147 114.827 882.453 115.601 882.453 116.573V117.923C883.245 116.447 884.379 115.313 885.855 114.521C887.367 113.693 889.077 113.279 890.985 113.279ZM889.203 135.527C891.327 135.527 892.983 134.807 894.171 133.367C895.359 131.891 895.953 129.821 895.953 127.157C895.953 124.421 895.359 122.297 894.171 120.785C892.983 119.273 891.327 118.517 889.203 118.517C887.043 118.517 885.369 119.255 884.181 120.731C883.029 122.207 882.453 124.313 882.453 127.049C882.453 129.749 883.029 131.837 884.181 133.313C885.369 134.789 887.043 135.527 889.203 135.527ZM919.69 113.279C923.362 113.279 926.08 114.197 927.844 116.033C929.644 117.833 930.544 120.587 930.544 124.295V137.471C930.544 138.443 930.256 139.217 929.68 139.793C929.104 140.333 928.312 140.603 927.304 140.603C926.368 140.603 925.594 140.315 924.982 139.739C924.406 139.163 924.118 138.407 924.118 137.471V136.283C923.506 137.687 922.534 138.785 921.202 139.577C919.906 140.369 918.394 140.765 916.666 140.765C914.902 140.765 913.3 140.405 911.86 139.685C910.42 138.965 909.286 137.975 908.458 136.715C907.63 135.455 907.216 134.051 907.216 132.503C907.216 130.559 907.702 129.029 908.674 127.913C909.682 126.797 911.302 125.987 913.534 125.483C915.766 124.979 918.844 124.727 922.768 124.727H924.118V123.485C924.118 121.721 923.74 120.443 922.984 119.651C922.228 118.823 921.004 118.409 919.312 118.409C918.268 118.409 917.206 118.571 916.126 118.895C915.046 119.183 913.768 119.615 912.292 120.191C911.356 120.659 910.672 120.893 910.24 120.893C909.592 120.893 909.052 120.659 908.62 120.191C908.224 119.723 908.026 119.111 908.026 118.355C908.026 117.743 908.17 117.221 908.458 116.789C908.782 116.321 909.304 115.889 910.024 115.493C911.284 114.809 912.778 114.269 914.506 113.873C916.27 113.477 917.998 113.279 919.69 113.279ZM918.016 135.905C919.816 135.905 921.274 135.311 922.39 134.123C923.542 132.899 924.118 131.333 924.118 129.425V128.291H923.146C920.734 128.291 918.862 128.399 917.53 128.615C916.198 128.831 915.244 129.209 914.668 129.749C914.092 130.289 913.804 131.027 913.804 131.963C913.804 133.115 914.2 134.069 914.992 134.825C915.82 135.545 916.828 135.905 918.016 135.905ZM951.121 135.635C952.921 135.743 953.821 136.553 953.821 138.065C953.821 138.929 953.461 139.595 952.741 140.063C952.057 140.495 951.067 140.675 949.771 140.603L948.313 140.495C942.265 140.063 939.241 136.823 939.241 130.775V119.003H936.541C935.569 119.003 934.813 118.787 934.273 118.355C933.769 117.923 933.517 117.293 933.517 116.465C933.517 115.637 933.769 115.007 934.273 114.575C934.813 114.143 935.569 113.927 936.541 113.927H939.241V108.959C939.241 107.987 939.547 107.213 940.159 106.637C940.771 106.061 941.599 105.773 942.643 105.773C943.651 105.773 944.461 106.061 945.073 106.637C945.685 107.213 945.991 107.987 945.991 108.959V113.927H950.581C951.553 113.927 952.291 114.143 952.795 114.575C953.335 115.007 953.605 115.637 953.605 116.465C953.605 117.293 953.335 117.923 952.795 118.355C952.291 118.787 951.553 119.003 950.581 119.003H945.991V131.261C945.991 133.925 947.215 135.347 949.663 135.527L951.121 135.635ZM407.068 200.765C403.144 200.765 399.976 199.991 397.564 198.443C396.412 197.759 395.836 196.787 395.836 195.527C395.836 194.807 396.034 194.231 396.43 193.799C396.826 193.331 397.312 193.097 397.888 193.097C398.5 193.097 399.346 193.385 400.426 193.961C401.578 194.501 402.622 194.915 403.558 195.203C404.53 195.491 405.754 195.635 407.23 195.635C408.742 195.635 409.912 195.383 410.74 194.879C411.604 194.375 412.036 193.673 412.036 192.773C412.036 192.161 411.856 191.675 411.496 191.315C411.172 190.955 410.56 190.631 409.66 190.343C408.796 190.019 407.464 189.659 405.664 189.263C402.46 188.615 400.156 187.697 398.752 186.509C397.384 185.321 396.7 183.683 396.7 181.595C396.7 180.011 397.168 178.589 398.104 177.329C399.04 176.033 400.318 175.043 401.938 174.359C403.594 173.639 405.466 173.279 407.554 173.279C409.066 173.279 410.524 173.477 411.928 173.873C413.332 174.233 414.592 174.773 415.708 175.493C416.86 176.213 417.436 177.167 417.436 178.355C417.436 179.075 417.238 179.687 416.842 180.191C416.446 180.659 415.96 180.893 415.384 180.893C414.988 180.893 414.592 180.821 414.196 180.677C413.836 180.497 413.368 180.245 412.792 179.921C411.748 179.381 410.848 178.985 410.092 178.733C409.336 178.445 408.4 178.301 407.284 178.301C405.952 178.301 404.89 178.571 404.098 179.111C403.342 179.651 402.964 180.389 402.964 181.325C402.964 182.225 403.36 182.909 404.152 183.377C404.944 183.845 406.474 184.313 408.742 184.781C411.154 185.285 413.044 185.861 414.412 186.509C415.78 187.157 416.752 187.967 417.328 188.939C417.94 189.911 418.246 191.153 418.246 192.665C418.246 195.113 417.22 197.075 415.168 198.551C413.152 200.027 410.452 200.765 407.068 200.765ZM444.617 193.097C445.229 193.097 445.715 193.331 446.075 193.799C446.471 194.267 446.669 194.897 446.669 195.689C446.669 196.805 446.003 197.741 444.671 198.497C443.447 199.181 442.061 199.739 440.513 200.171C438.965 200.567 437.489 200.765 436.085 200.765C431.837 200.765 428.471 199.541 425.987 197.093C423.503 194.645 422.261 191.297 422.261 187.049C422.261 184.349 422.801 181.955 423.881 179.867C424.961 177.779 426.473 176.159 428.417 175.007C430.397 173.855 432.629 173.279 435.113 173.279C437.489 173.279 439.559 173.801 441.323 174.845C443.087 175.889 444.455 177.365 445.427 179.273C446.399 181.181 446.885 183.431 446.885 186.023C446.885 187.571 446.201 188.345 444.833 188.345H428.903C429.119 190.829 429.821 192.665 431.009 193.853C432.197 195.005 433.925 195.581 436.193 195.581C437.345 195.581 438.353 195.437 439.217 195.149C440.117 194.861 441.125 194.465 442.241 193.961C443.321 193.385 444.113 193.097 444.617 193.097ZM435.275 178.031C433.439 178.031 431.963 178.607 430.847 179.759C429.767 180.911 429.119 182.567 428.903 184.727H441.107C441.035 182.531 440.495 180.875 439.487 179.759C438.479 178.607 437.075 178.031 435.275 178.031ZM461.964 200.765C458.04 200.765 454.872 199.991 452.46 198.443C451.308 197.759 450.732 196.787 450.732 195.527C450.732 194.807 450.93 194.231 451.326 193.799C451.722 193.331 452.208 193.097 452.784 193.097C453.396 193.097 454.242 193.385 455.322 193.961C456.474 194.501 457.518 194.915 458.454 195.203C459.426 195.491 460.65 195.635 462.126 195.635C463.638 195.635 464.808 195.383 465.636 194.879C466.5 194.375 466.932 193.673 466.932 192.773C466.932 192.161 466.752 191.675 466.392 191.315C466.068 190.955 465.456 190.631 464.556 190.343C463.692 190.019 462.36 189.659 460.56 189.263C457.356 188.615 455.052 187.697 453.648 186.509C452.28 185.321 451.596 183.683 451.596 181.595C451.596 180.011 452.064 178.589 453 177.329C453.936 176.033 455.214 175.043 456.834 174.359C458.49 173.639 460.362 173.279 462.45 173.279C463.962 173.279 465.42 173.477 466.824 173.873C468.228 174.233 469.488 174.773 470.604 175.493C471.756 176.213 472.332 177.167 472.332 178.355C472.332 179.075 472.134 179.687 471.738 180.191C471.342 180.659 470.856 180.893 470.28 180.893C469.884 180.893 469.488 180.821 469.092 180.677C468.732 180.497 468.264 180.245 467.688 179.921C466.644 179.381 465.744 178.985 464.988 178.733C464.232 178.445 463.296 178.301 462.18 178.301C460.848 178.301 459.786 178.571 458.994 179.111C458.238 179.651 457.86 180.389 457.86 181.325C457.86 182.225 458.256 182.909 459.048 183.377C459.84 183.845 461.37 184.313 463.638 184.781C466.05 185.285 467.94 185.861 469.308 186.509C470.676 187.157 471.648 187.967 472.224 188.939C472.836 189.911 473.142 191.153 473.142 192.665C473.142 195.113 472.116 197.075 470.064 198.551C468.048 200.027 465.348 200.765 461.964 200.765ZM499.459 173.387C500.503 173.387 501.331 173.675 501.943 174.251C502.555 174.827 502.861 175.601 502.861 176.573V197.525C502.861 198.461 502.537 199.217 501.889 199.793C501.277 200.369 500.467 200.657 499.459 200.657C498.487 200.657 497.713 200.387 497.137 199.847C496.561 199.307 496.273 198.569 496.273 197.633V196.283C495.445 197.723 494.329 198.839 492.925 199.631C491.521 200.387 489.937 200.765 488.173 200.765C481.693 200.765 478.453 197.129 478.453 189.857V176.573C478.453 175.601 478.759 174.827 479.371 174.251C479.983 173.675 480.793 173.387 481.801 173.387C482.845 173.387 483.673 173.675 484.285 174.251C484.897 174.827 485.203 175.601 485.203 176.573V189.911C485.203 191.783 485.581 193.169 486.337 194.069C487.093 194.969 488.281 195.419 489.901 195.419C491.773 195.419 493.267 194.807 494.383 193.583C495.535 192.323 496.111 190.667 496.111 188.615V176.573C496.111 175.601 496.417 174.827 497.029 174.251C497.641 173.675 498.451 173.387 499.459 173.387ZM521.335 173.279C525.007 173.279 527.725 174.197 529.489 176.033C531.289 177.833 532.189 180.587 532.189 184.295V197.471C532.189 198.443 531.901 199.217 531.325 199.793C530.749 200.333 529.957 200.603 528.949 200.603C528.013 200.603 527.239 200.315 526.627 199.739C526.051 199.163 525.763 198.407 525.763 197.471V196.283C525.151 197.687 524.179 198.785 522.847 199.577C521.551 200.369 520.039 200.765 518.311 200.765C516.547 200.765 514.945 200.405 513.505 199.685C512.065 198.965 510.931 197.975 510.103 196.715C509.275 195.455 508.861 194.051 508.861 192.503C508.861 190.559 509.347 189.029 510.319 187.913C511.327 186.797 512.947 185.987 515.179 185.483C517.411 184.979 520.489 184.727 524.413 184.727H525.763V183.485C525.763 181.721 525.385 180.443 524.629 179.651C523.873 178.823 522.649 178.409 520.957 178.409C519.913 178.409 518.851 178.571 517.771 178.895C516.691 179.183 515.413 179.615 513.937 180.191C513.001 180.659 512.317 180.893 511.885 180.893C511.237 180.893 510.697 180.659 510.265 180.191C509.869 179.723 509.671 179.111 509.671 178.355C509.671 177.743 509.815 177.221 510.103 176.789C510.427 176.321 510.949 175.889 511.669 175.493C512.929 174.809 514.423 174.269 516.151 173.873C517.915 173.477 519.643 173.279 521.335 173.279ZM519.661 195.905C521.461 195.905 522.919 195.311 524.035 194.123C525.187 192.899 525.763 191.333 525.763 189.425V188.291H524.791C522.379 188.291 520.507 188.399 519.175 188.615C517.843 188.831 516.889 189.209 516.313 189.749C515.737 190.289 515.449 191.027 515.449 191.963C515.449 193.115 515.845 194.069 516.637 194.825C517.465 195.545 518.473 195.905 519.661 195.905ZM542.397 200.657C541.425 200.657 540.615 200.387 539.967 199.847C539.355 199.271 539.049 198.461 539.049 197.417V176.573C539.049 175.529 539.355 174.737 539.967 174.197C540.615 173.657 541.425 173.387 542.397 173.387C543.369 173.387 544.179 173.657 544.827 174.197C545.475 174.737 545.799 175.529 545.799 176.573V197.417C545.799 198.461 545.475 199.271 544.827 199.847C544.179 200.387 543.369 200.657 542.397 200.657ZM542.397 168.581C541.173 168.581 540.201 168.257 539.481 167.609C538.761 166.925 538.401 166.043 538.401 164.963C538.401 163.883 538.761 163.019 539.481 162.371C540.201 161.723 541.173 161.399 542.397 161.399C543.585 161.399 544.539 161.723 545.259 162.371C546.015 163.019 546.393 163.883 546.393 164.963C546.393 166.043 546.033 166.925 545.313 167.609C544.593 168.257 543.621 168.581 542.397 168.581ZM589.776 173.387C590.784 173.387 591.594 173.675 592.206 174.251C592.818 174.827 593.124 175.601 593.124 176.573V197.903C593.124 202.043 591.972 205.175 589.668 207.299C587.364 209.423 583.962 210.485 579.462 210.485C575.538 210.485 572.262 209.747 569.634 208.271C568.302 207.479 567.636 206.525 567.636 205.409C567.636 204.617 567.816 203.987 568.176 203.519C568.572 203.051 569.076 202.817 569.688 202.817C570.012 202.817 570.408 202.889 570.876 203.033C571.344 203.213 571.83 203.411 572.334 203.627C573.63 204.167 574.782 204.581 575.79 204.869C576.834 205.157 578.022 205.301 579.354 205.301C584.07 205.301 586.428 202.997 586.428 198.389V194.933C585.636 196.409 584.484 197.561 582.972 198.389C581.46 199.181 579.732 199.577 577.788 199.577C575.484 199.577 573.432 199.037 571.632 197.957C569.868 196.841 568.482 195.293 567.474 193.313C566.466 191.333 565.962 189.047 565.962 186.455C565.962 183.863 566.448 181.577 567.42 179.597C568.428 177.581 569.832 176.033 571.632 174.953C573.432 173.837 575.484 173.279 577.788 173.279C579.732 173.279 581.46 173.693 582.972 174.521C584.484 175.313 585.636 176.447 586.428 177.923V176.519C586.428 175.583 586.734 174.827 587.346 174.251C587.958 173.675 588.768 173.387 589.776 173.387ZM579.57 194.339C581.73 194.339 583.404 193.637 584.592 192.233C585.816 190.829 586.428 188.903 586.428 186.455C586.428 183.971 585.816 182.027 584.592 180.623C583.404 179.219 581.73 178.517 579.57 178.517C577.446 178.517 575.772 179.219 574.548 180.623C573.324 182.027 572.712 183.971 572.712 186.455C572.712 188.903 573.324 190.829 574.548 192.233C575.772 193.637 577.446 194.339 579.57 194.339ZM611.563 173.279C615.235 173.279 617.953 174.197 619.717 176.033C621.517 177.833 622.417 180.587 622.417 184.295V197.471C622.417 198.443 622.129 199.217 621.553 199.793C620.977 200.333 620.185 200.603 619.177 200.603C618.241 200.603 617.467 200.315 616.855 199.739C616.279 199.163 615.991 198.407 615.991 197.471V196.283C615.379 197.687 614.407 198.785 613.075 199.577C611.779 200.369 610.267 200.765 608.539 200.765C606.775 200.765 605.173 200.405 603.733 199.685C602.293 198.965 601.159 197.975 600.331 196.715C599.503 195.455 599.089 194.051 599.089 192.503C599.089 190.559 599.575 189.029 600.547 187.913C601.555 186.797 603.175 185.987 605.407 185.483C607.639 184.979 610.717 184.727 614.641 184.727H615.991V183.485C615.991 181.721 615.613 180.443 614.857 179.651C614.101 178.823 612.877 178.409 611.185 178.409C610.141 178.409 609.079 178.571 607.999 178.895C606.919 179.183 605.641 179.615 604.165 180.191C603.229 180.659 602.545 180.893 602.113 180.893C601.465 180.893 600.925 180.659 600.493 180.191C600.097 179.723 599.899 179.111 599.899 178.355C599.899 177.743 600.043 177.221 600.331 176.789C600.655 176.321 601.177 175.889 601.897 175.493C603.157 174.809 604.651 174.269 606.379 173.873C608.143 173.477 609.871 173.279 611.563 173.279ZM609.889 195.905C611.689 195.905 613.147 195.311 614.263 194.123C615.415 192.899 615.991 191.333 615.991 189.425V188.291H615.019C612.607 188.291 610.735 188.399 609.403 188.615C608.071 188.831 607.117 189.209 606.541 189.749C605.965 190.289 605.677 191.027 605.677 191.963C605.677 193.115 606.073 194.069 606.865 194.825C607.693 195.545 608.701 195.905 609.889 195.905ZM660.652 173.279C663.532 173.279 665.728 174.143 667.24 175.871C668.788 177.563 669.562 180.317 669.562 184.133V197.417C669.562 198.461 669.238 199.271 668.59 199.847C667.978 200.387 667.168 200.657 666.16 200.657C665.188 200.657 664.378 200.387 663.73 199.847C663.118 199.271 662.812 198.461 662.812 197.417V184.133C662.812 182.153 662.452 180.749 661.732 179.921C661.048 179.057 659.986 178.625 658.546 178.625C656.782 178.625 655.378 179.237 654.334 180.461C653.29 181.649 652.768 183.287 652.768 185.375V197.417C652.768 198.461 652.444 199.271 651.796 199.847C651.184 200.387 650.392 200.657 649.42 200.657C648.448 200.657 647.638 200.387 646.99 199.847C646.342 199.271 646.018 198.461 646.018 197.417V184.133C646.018 182.153 645.658 180.749 644.938 179.921C644.254 179.057 643.192 178.625 641.752 178.625C639.988 178.625 638.584 179.237 637.54 180.461C636.532 181.649 636.028 183.287 636.028 185.375V197.417C636.028 198.461 635.704 199.271 635.056 199.847C634.408 200.387 633.598 200.657 632.626 200.657C631.654 200.657 630.844 200.387 630.196 199.847C629.584 199.271 629.278 198.461 629.278 197.417V176.519C629.278 175.511 629.602 174.737 630.25 174.197C630.898 173.657 631.708 173.387 632.68 173.387C633.616 173.387 634.372 173.657 634.948 174.197C635.56 174.701 635.866 175.439 635.866 176.411V177.707C636.694 176.267 637.792 175.169 639.16 174.413C640.564 173.657 642.166 173.279 643.966 173.279C647.926 173.279 650.572 174.935 651.904 178.247C652.696 176.735 653.866 175.529 655.414 174.629C656.962 173.729 658.708 173.279 660.652 173.279ZM691.596 173.279C693.9 173.279 695.934 173.837 697.698 174.953C699.462 176.069 700.83 177.653 701.802 179.705C702.81 181.757 703.314 184.151 703.314 186.887C703.314 189.623 702.81 192.053 701.802 194.177C700.83 196.265 699.444 197.885 697.644 199.037C695.88 200.189 693.864 200.765 691.596 200.765C689.688 200.765 687.978 200.351 686.466 199.523C684.99 198.695 683.856 197.543 683.064 196.067V197.417C683.064 198.389 682.758 199.163 682.146 199.739C681.534 200.315 680.724 200.603 679.716 200.603C678.708 200.603 677.898 200.315 677.286 199.739C676.71 199.163 676.422 198.389 676.422 197.417V165.125C676.422 164.189 676.728 163.433 677.34 162.857C677.988 162.281 678.816 161.993 679.824 161.993C680.832 161.993 681.642 162.263 682.254 162.803C682.866 163.343 683.172 164.081 683.172 165.017V177.761C683.964 176.321 685.098 175.223 686.574 174.467C688.05 173.675 689.724 173.279 691.596 173.279ZM689.814 195.527C691.938 195.527 693.594 194.771 694.782 193.259C695.97 191.747 696.564 189.623 696.564 186.887C696.564 184.187 695.97 182.117 694.782 180.677C693.63 179.237 691.974 178.517 689.814 178.517C687.654 178.517 685.98 179.255 684.792 180.731C683.64 182.171 683.064 184.259 683.064 186.995C683.064 189.731 683.64 191.837 684.792 193.313C685.98 194.789 687.654 195.527 689.814 195.527ZM720.302 173.279C723.974 173.279 726.692 174.197 728.456 176.033C730.256 177.833 731.156 180.587 731.156 184.295V197.471C731.156 198.443 730.868 199.217 730.292 199.793C729.716 200.333 728.924 200.603 727.916 200.603C726.98 200.603 726.206 200.315 725.594 199.739C725.018 199.163 724.73 198.407 724.73 197.471V196.283C724.118 197.687 723.146 198.785 721.814 199.577C720.518 200.369 719.006 200.765 717.278 200.765C715.514 200.765 713.912 200.405 712.472 199.685C711.032 198.965 709.898 197.975 709.07 196.715C708.242 195.455 707.828 194.051 707.828 192.503C707.828 190.559 708.314 189.029 709.286 187.913C710.294 186.797 711.914 185.987 714.146 185.483C716.378 184.979 719.456 184.727 723.38 184.727H724.73V183.485C724.73 181.721 724.352 180.443 723.596 179.651C722.84 178.823 721.616 178.409 719.924 178.409C718.88 178.409 717.818 178.571 716.738 178.895C715.658 179.183 714.38 179.615 712.904 180.191C711.968 180.659 711.284 180.893 710.852 180.893C710.204 180.893 709.664 180.659 709.232 180.191C708.836 179.723 708.638 179.111 708.638 178.355C708.638 177.743 708.782 177.221 709.07 176.789C709.394 176.321 709.916 175.889 710.636 175.493C711.896 174.809 713.39 174.269 715.118 173.873C716.882 173.477 718.61 173.279 720.302 173.279ZM718.628 195.905C720.428 195.905 721.886 195.311 723.002 194.123C724.154 192.899 724.73 191.333 724.73 189.425V188.291H723.758C721.346 188.291 719.474 188.399 718.142 188.615C716.81 188.831 715.856 189.209 715.28 189.749C714.704 190.289 714.416 191.027 714.416 191.963C714.416 193.115 714.812 194.069 715.604 194.825C716.432 195.545 717.44 195.905 718.628 195.905ZM752.758 173.387C753.694 173.315 754.432 173.513 754.972 173.981C755.512 174.449 755.782 175.151 755.782 176.087C755.782 177.059 755.548 177.779 755.08 178.247C754.612 178.715 753.766 179.021 752.542 179.165L750.922 179.327C748.798 179.543 747.232 180.263 746.224 181.487C745.252 182.711 744.766 184.241 744.766 186.077V197.417C744.766 198.461 744.442 199.271 743.794 199.847C743.146 200.387 742.336 200.657 741.364 200.657C740.392 200.657 739.582 200.387 738.934 199.847C738.322 199.271 738.016 198.461 738.016 197.417V176.519C738.016 175.511 738.322 174.737 738.934 174.197C739.582 173.657 740.374 173.387 741.31 173.387C742.246 173.387 743.002 173.657 743.578 174.197C744.154 174.701 744.442 175.439 744.442 176.411V178.571C745.126 176.987 746.134 175.763 747.466 174.899C748.834 174.035 750.346 173.549 752.002 173.441L752.758 173.387ZM795.38 161.993C796.388 161.993 797.216 162.281 797.864 162.857C798.512 163.433 798.836 164.189 798.836 165.125V197.417C798.836 198.389 798.53 199.163 797.918 199.739C797.306 200.315 796.496 200.603 795.488 200.603C794.48 200.603 793.67 200.315 793.058 199.739C792.446 199.163 792.14 198.389 792.14 197.417V196.067C791.348 197.543 790.196 198.695 788.684 199.523C787.208 200.351 785.516 200.765 783.608 200.765C781.34 200.765 779.306 200.189 777.506 199.037C775.742 197.885 774.356 196.265 773.348 194.177C772.376 192.053 771.89 189.623 771.89 186.887C771.89 184.151 772.376 181.757 773.348 179.705C774.356 177.653 775.742 176.069 777.506 174.953C779.27 173.837 781.304 173.279 783.608 173.279C785.516 173.279 787.208 173.675 788.684 174.467C790.16 175.259 791.294 176.375 792.086 177.815V165.017C792.086 164.117 792.374 163.397 792.95 162.857C793.562 162.281 794.372 161.993 795.38 161.993ZM785.39 195.527C787.55 195.527 789.206 194.789 790.358 193.313C791.546 191.837 792.14 189.731 792.14 186.995C792.14 184.259 791.546 182.171 790.358 180.731C789.206 179.255 787.568 178.517 785.444 178.517C783.284 178.517 781.61 179.237 780.422 180.677C779.234 182.117 778.64 184.187 778.64 186.887C778.64 189.623 779.234 191.747 780.422 193.259C781.61 194.771 783.266 195.527 785.39 195.527ZM809.128 200.657C808.156 200.657 807.346 200.387 806.698 199.847C806.086 199.271 805.78 198.461 805.78 197.417V176.573C805.78 175.529 806.086 174.737 806.698 174.197C807.346 173.657 808.156 173.387 809.128 173.387C810.1 173.387 810.91 173.657 811.558 174.197C812.206 174.737 812.53 175.529 812.53 176.573V197.417C812.53 198.461 812.206 199.271 811.558 199.847C810.91 200.387 810.1 200.657 809.128 200.657ZM809.128 168.581C807.904 168.581 806.932 168.257 806.212 167.609C805.492 166.925 805.132 166.043 805.132 164.963C805.132 163.883 805.492 163.019 806.212 162.371C806.932 161.723 807.904 161.399 809.128 161.399C810.316 161.399 811.27 161.723 811.99 162.371C812.746 163.019 813.124 163.883 813.124 164.963C813.124 166.043 812.764 166.925 812.044 167.609C811.324 168.257 810.352 168.581 809.128 168.581ZM829.048 200.765C825.124 200.765 821.956 199.991 819.544 198.443C818.392 197.759 817.816 196.787 817.816 195.527C817.816 194.807 818.014 194.231 818.41 193.799C818.806 193.331 819.292 193.097 819.868 193.097C820.48 193.097 821.326 193.385 822.406 193.961C823.558 194.501 824.602 194.915 825.538 195.203C826.51 195.491 827.734 195.635 829.21 195.635C830.722 195.635 831.892 195.383 832.72 194.879C833.584 194.375 834.016 193.673 834.016 192.773C834.016 192.161 833.836 191.675 833.476 191.315C833.152 190.955 832.54 190.631 831.64 190.343C830.776 190.019 829.444 189.659 827.644 189.263C824.44 188.615 822.136 187.697 820.732 186.509C819.364 185.321 818.68 183.683 818.68 181.595C818.68 180.011 819.148 178.589 820.084 177.329C821.02 176.033 822.298 175.043 823.918 174.359C825.574 173.639 827.446 173.279 829.534 173.279C831.046 173.279 832.504 173.477 833.908 173.873C835.312 174.233 836.572 174.773 837.688 175.493C838.84 176.213 839.416 177.167 839.416 178.355C839.416 179.075 839.218 179.687 838.822 180.191C838.426 180.659 837.94 180.893 837.364 180.893C836.968 180.893 836.572 180.821 836.176 180.677C835.816 180.497 835.348 180.245 834.772 179.921C833.728 179.381 832.828 178.985 832.072 178.733C831.316 178.445 830.38 178.301 829.264 178.301C827.932 178.301 826.87 178.571 826.078 179.111C825.322 179.651 824.944 180.389 824.944 181.325C824.944 182.225 825.34 182.909 826.132 183.377C826.924 183.845 828.454 184.313 830.722 184.781C833.134 185.285 835.024 185.861 836.392 186.509C837.76 187.157 838.732 187.967 839.308 188.939C839.92 189.911 840.226 191.153 840.226 192.665C840.226 195.113 839.2 197.075 837.148 198.551C835.132 200.027 832.432 200.765 829.048 200.765ZM857.147 173.279C860.819 173.279 863.537 174.197 865.301 176.033C867.101 177.833 868.001 180.587 868.001 184.295V197.471C868.001 198.443 867.713 199.217 867.137 199.793C866.561 200.333 865.769 200.603 864.761 200.603C863.825 200.603 863.051 200.315 862.439 199.739C861.863 199.163 861.575 198.407 861.575 197.471V196.283C860.963 197.687 859.991 198.785 858.659 199.577C857.363 200.369 855.851 200.765 854.123 200.765C852.359 200.765 850.757 200.405 849.317 199.685C847.877 198.965 846.743 197.975 845.915 196.715C845.087 195.455 844.673 194.051 844.673 192.503C844.673 190.559 845.159 189.029 846.131 187.913C847.139 186.797 848.759 185.987 850.991 185.483C853.223 184.979 856.301 184.727 860.225 184.727H861.575V183.485C861.575 181.721 861.197 180.443 860.441 179.651C859.685 178.823 858.461 178.409 856.769 178.409C855.725 178.409 854.663 178.571 853.583 178.895C852.503 179.183 851.225 179.615 849.749 180.191C848.813 180.659 848.129 180.893 847.697 180.893C847.049 180.893 846.509 180.659 846.077 180.191C845.681 179.723 845.483 179.111 845.483 178.355C845.483 177.743 845.627 177.221 845.915 176.789C846.239 176.321 846.761 175.889 847.481 175.493C848.741 174.809 850.235 174.269 851.963 173.873C853.727 173.477 855.455 173.279 857.147 173.279ZM855.473 195.905C857.273 195.905 858.731 195.311 859.847 194.123C860.999 192.899 861.575 191.333 861.575 189.425V188.291H860.603C858.191 188.291 856.319 188.399 854.987 188.615C853.655 188.831 852.701 189.209 852.125 189.749C851.549 190.289 851.261 191.027 851.261 191.963C851.261 193.115 851.657 194.069 852.449 194.825C853.277 195.545 854.285 195.905 855.473 195.905ZM906.236 173.279C909.116 173.279 911.312 174.143 912.824 175.871C914.372 177.563 915.146 180.317 915.146 184.133V197.417C915.146 198.461 914.822 199.271 914.174 199.847C913.562 200.387 912.752 200.657 911.744 200.657C910.772 200.657 909.962 200.387 909.314 199.847C908.702 199.271 908.396 198.461 908.396 197.417V184.133C908.396 182.153 908.036 180.749 907.316 179.921C906.632 179.057 905.57 178.625 904.13 178.625C902.366 178.625 900.962 179.237 899.918 180.461C898.874 181.649 898.352 183.287 898.352 185.375V197.417C898.352 198.461 898.028 199.271 897.38 199.847C896.768 200.387 895.976 200.657 895.004 200.657C894.032 200.657 893.222 200.387 892.574 199.847C891.926 199.271 891.602 198.461 891.602 197.417V184.133C891.602 182.153 891.242 180.749 890.522 179.921C889.838 179.057 888.776 178.625 887.336 178.625C885.572 178.625 884.168 179.237 883.124 180.461C882.116 181.649 881.612 183.287 881.612 185.375V197.417C881.612 198.461 881.288 199.271 880.64 199.847C879.992 200.387 879.182 200.657 878.21 200.657C877.238 200.657 876.428 200.387 875.78 199.847C875.168 199.271 874.862 198.461 874.862 197.417V176.519C874.862 175.511 875.186 174.737 875.834 174.197C876.482 173.657 877.292 173.387 878.264 173.387C879.2 173.387 879.956 173.657 880.532 174.197C881.144 174.701 881.45 175.439 881.45 176.411V177.707C882.278 176.267 883.376 175.169 884.744 174.413C886.148 173.657 887.75 173.279 889.55 173.279C893.51 173.279 896.156 174.935 897.488 178.247C898.28 176.735 899.45 175.529 900.998 174.629C902.546 173.729 904.292 173.279 906.236 173.279ZM937.18 173.279C939.448 173.279 941.464 173.855 943.228 175.007C945.028 176.159 946.414 177.797 947.386 179.921C948.394 182.009 948.898 184.421 948.898 187.157C948.898 189.893 948.394 192.287 947.386 194.339C946.414 196.391 945.046 197.975 943.282 199.091C941.518 200.207 939.484 200.765 937.18 200.765C935.308 200.765 933.634 200.369 932.158 199.577C930.682 198.785 929.548 197.687 928.756 196.283V207.299C928.756 208.235 928.45 208.973 927.838 209.513C927.226 210.053 926.416 210.323 925.408 210.323C924.4 210.323 923.572 210.035 922.924 209.459C922.312 208.883 922.006 208.127 922.006 207.191V176.573C922.006 175.601 922.294 174.827 922.87 174.251C923.482 173.675 924.292 173.387 925.3 173.387C926.308 173.387 927.118 173.675 927.73 174.251C928.342 174.827 928.648 175.601 928.648 176.573V177.923C929.44 176.447 930.574 175.313 932.05 174.521C933.562 173.693 935.272 173.279 937.18 173.279ZM935.398 195.527C937.522 195.527 939.178 194.807 940.366 193.367C941.554 191.891 942.148 189.821 942.148 187.157C942.148 184.421 941.554 182.297 940.366 180.785C939.178 179.273 937.522 178.517 935.398 178.517C933.238 178.517 931.564 179.255 930.376 180.731C929.224 182.207 928.648 184.313 928.648 187.049C928.648 189.749 929.224 191.837 930.376 193.313C931.564 194.789 933.238 195.527 935.398 195.527ZM957.786 200.657C956.814 200.657 956.004 200.387 955.356 199.847C954.744 199.271 954.438 198.461 954.438 197.417V176.573C954.438 175.529 954.744 174.737 955.356 174.197C956.004 173.657 956.814 173.387 957.786 173.387C958.758 173.387 959.568 173.657 960.216 174.197C960.864 174.737 961.188 175.529 961.188 176.573V197.417C961.188 198.461 960.864 199.271 960.216 199.847C959.568 200.387 958.758 200.657 957.786 200.657ZM957.786 168.581C956.562 168.581 955.59 168.257 954.87 167.609C954.15 166.925 953.79 166.043 953.79 164.963C953.79 163.883 954.15 163.019 954.87 162.371C955.59 161.723 956.562 161.399 957.786 161.399C958.974 161.399 959.928 161.723 960.648 162.371C961.404 163.019 961.782 163.883 961.782 164.963C961.782 166.043 961.422 166.925 960.702 167.609C959.982 168.257 959.01 168.581 957.786 168.581ZM983.485 173.279C986.653 173.279 989.011 174.179 990.559 175.979C992.107 177.779 992.881 180.497 992.881 184.133V197.417C992.881 198.425 992.575 199.217 991.963 199.793C991.387 200.369 990.577 200.657 989.533 200.657C988.489 200.657 987.661 200.369 987.049 199.793C986.437 199.217 986.131 198.425 986.131 197.417V184.511C986.131 182.459 985.735 180.965 984.943 180.029C984.187 179.093 982.981 178.625 981.325 178.625C979.381 178.625 977.815 179.237 976.627 180.461C975.475 181.685 974.899 183.323 974.899 185.375V197.417C974.899 198.425 974.593 199.217 973.981 199.793C973.369 200.369 972.541 200.657 971.497 200.657C970.453 200.657 969.625 200.369 969.013 199.793C968.437 199.217 968.149 198.425 968.149 197.417V176.519C968.149 175.583 968.455 174.827 969.067 174.251C969.679 173.675 970.507 173.387 971.551 173.387C972.487 173.387 973.243 173.675 973.819 174.251C974.431 174.791 974.737 175.511 974.737 176.411V177.869C975.637 176.393 976.843 175.259 978.355 174.467C979.867 173.675 981.577 173.279 983.485 173.279ZM1022.09 173.387C1023.1 173.387 1023.91 173.675 1024.52 174.251C1025.13 174.827 1025.44 175.601 1025.44 176.573V197.903C1025.44 202.043 1024.29 205.175 1021.98 207.299C1019.68 209.423 1016.28 210.485 1011.78 210.485C1007.85 210.485 1004.58 209.747 1001.95 208.271C1000.62 207.479 999.953 206.525 999.953 205.409C999.953 204.617 1000.13 203.987 1000.49 203.519C1000.89 203.051 1001.39 202.817 1002 202.817C1002.33 202.817 1002.72 202.889 1003.19 203.033C1003.66 203.213 1004.15 203.411 1004.65 203.627C1005.95 204.167 1007.1 204.581 1008.11 204.869C1009.15 205.157 1010.34 205.301 1011.67 205.301C1016.39 205.301 1018.74 202.997 1018.74 198.389V194.933C1017.95 196.409 1016.8 197.561 1015.29 198.389C1013.78 199.181 1012.05 199.577 1010.1 199.577C1007.8 199.577 1005.75 199.037 1003.95 197.957C1002.18 196.841 1000.8 195.293 999.791 193.313C998.783 191.333 998.279 189.047 998.279 186.455C998.279 183.863 998.765 181.577 999.737 179.597C1000.74 177.581 1002.15 176.033 1003.95 174.953C1005.75 173.837 1007.8 173.279 1010.1 173.279C1012.05 173.279 1013.78 173.693 1015.29 174.521C1016.8 175.313 1017.95 176.447 1018.74 177.923V176.519C1018.74 175.583 1019.05 174.827 1019.66 174.251C1020.27 173.675 1021.08 173.387 1022.09 173.387ZM1011.89 194.339C1014.05 194.339 1015.72 193.637 1016.91 192.233C1018.13 190.829 1018.74 188.903 1018.74 186.455C1018.74 183.971 1018.13 182.027 1016.91 180.623C1015.72 179.219 1014.05 178.517 1011.89 178.517C1009.76 178.517 1008.09 179.219 1006.86 180.623C1005.64 182.027 1005.03 183.971 1005.03 186.455C1005.03 188.903 1005.64 190.829 1006.86 192.233C1008.09 193.637 1009.76 194.339 1011.89 194.339ZM408.958 233.279C412.63 233.279 415.348 234.197 417.112 236.033C418.912 237.833 419.812 240.587 419.812 244.295V257.471C419.812 258.443 419.524 259.217 418.948 259.793C418.372 260.333 417.58 260.603 416.572 260.603C415.636 260.603 414.862 260.315 414.25 259.739C413.674 259.163 413.386 258.407 413.386 257.471V256.283C412.774 257.687 411.802 258.785 410.47 259.577C409.174 260.369 407.662 260.765 405.934 260.765C404.17 260.765 402.568 260.405 401.128 259.685C399.688 258.965 398.554 257.975 397.726 256.715C396.898 255.455 396.484 254.051 396.484 252.503C396.484 250.559 396.97 249.029 397.942 247.913C398.95 246.797 400.57 245.987 402.802 245.483C405.034 244.979 408.112 244.727 412.036 244.727H413.386V243.485C413.386 241.721 413.008 240.443 412.252 239.651C411.496 238.823 410.272 238.409 408.58 238.409C407.536 238.409 406.474 238.571 405.394 238.895C404.314 239.183 403.036 239.615 401.56 240.191C400.624 240.659 399.94 240.893 399.508 240.893C398.86 240.893 398.32 240.659 397.888 240.191C397.492 239.723 397.294 239.111 397.294 238.355C397.294 237.743 397.438 237.221 397.726 236.789C398.05 236.321 398.572 235.889 399.292 235.493C400.552 234.809 402.046 234.269 403.774 233.873C405.538 233.477 407.266 233.279 408.958 233.279ZM407.284 255.905C409.084 255.905 410.542 255.311 411.658 254.123C412.81 252.899 413.386 251.333 413.386 249.425V248.291H412.414C410.002 248.291 408.13 248.399 406.798 248.615C405.466 248.831 404.512 249.209 403.936 249.749C403.36 250.289 403.072 251.027 403.072 251.963C403.072 253.115 403.468 254.069 404.26 254.825C405.088 255.545 406.096 255.905 407.284 255.905ZM448.704 221.993C449.712 221.993 450.54 222.281 451.188 222.857C451.836 223.433 452.16 224.189 452.16 225.125V257.417C452.16 258.389 451.854 259.163 451.242 259.739C450.63 260.315 449.82 260.603 448.812 260.603C447.804 260.603 446.994 260.315 446.382 259.739C445.77 259.163 445.464 258.389 445.464 257.417V256.067C444.672 257.543 443.52 258.695 442.008 259.523C440.532 260.351 438.84 260.765 436.932 260.765C434.664 260.765 432.63 260.189 430.83 259.037C429.066 257.885 427.68 256.265 426.672 254.177C425.7 252.053 425.214 249.623 425.214 246.887C425.214 244.151 425.7 241.757 426.672 239.705C427.68 237.653 429.066 236.069 430.83 234.953C432.594 233.837 434.628 233.279 436.932 233.279C438.84 233.279 440.532 233.675 442.008 234.467C443.484 235.259 444.618 236.375 445.41 237.815V225.017C445.41 224.117 445.698 223.397 446.274 222.857C446.886 222.281 447.696 221.993 448.704 221.993ZM438.714 255.527C440.874 255.527 442.53 254.789 443.682 253.313C444.87 251.837 445.464 249.731 445.464 246.995C445.464 244.259 444.87 242.171 443.682 240.731C442.53 239.255 440.892 238.517 438.768 238.517C436.608 238.517 434.934 239.237 433.746 240.677C432.558 242.117 431.964 244.187 431.964 246.887C431.964 249.623 432.558 251.747 433.746 253.259C434.934 254.771 436.59 255.527 438.714 255.527ZM470.552 233.279C474.224 233.279 476.942 234.197 478.706 236.033C480.506 237.833 481.406 240.587 481.406 244.295V257.471C481.406 258.443 481.118 259.217 480.542 259.793C479.966 260.333 479.174 260.603 478.166 260.603C477.23 260.603 476.456 260.315 475.844 259.739C475.268 259.163 474.98 258.407 474.98 257.471V256.283C474.368 257.687 473.396 258.785 472.064 259.577C470.768 260.369 469.256 260.765 467.528 260.765C465.764 260.765 464.162 260.405 462.722 259.685C461.282 258.965 460.148 257.975 459.32 256.715C458.492 255.455 458.078 254.051 458.078 252.503C458.078 250.559 458.564 249.029 459.536 247.913C460.544 246.797 462.164 245.987 464.396 245.483C466.628 244.979 469.706 244.727 473.63 244.727H474.98V243.485C474.98 241.721 474.602 240.443 473.846 239.651C473.09 238.823 471.866 238.409 470.174 238.409C469.13 238.409 468.068 238.571 466.988 238.895C465.908 239.183 464.63 239.615 463.154 240.191C462.218 240.659 461.534 240.893 461.102 240.893C460.454 240.893 459.914 240.659 459.482 240.191C459.086 239.723 458.888 239.111 458.888 238.355C458.888 237.743 459.032 237.221 459.32 236.789C459.644 236.321 460.166 235.889 460.886 235.493C462.146 234.809 463.64 234.269 465.368 233.873C467.132 233.477 468.86 233.279 470.552 233.279ZM468.878 255.905C470.678 255.905 472.136 255.311 473.252 254.123C474.404 252.899 474.98 251.333 474.98 249.425V248.291H474.008C471.596 248.291 469.724 248.399 468.392 248.615C467.06 248.831 466.106 249.209 465.53 249.749C464.954 250.289 464.666 251.027 464.666 251.963C464.666 253.115 465.062 254.069 465.854 254.825C466.682 255.545 467.69 255.905 468.878 255.905ZM491.614 260.657C490.642 260.657 489.832 260.387 489.184 259.847C488.572 259.271 488.266 258.461 488.266 257.417V225.179C488.266 224.135 488.572 223.343 489.184 222.803C489.832 222.263 490.642 221.993 491.614 221.993C492.586 221.993 493.396 222.263 494.044 222.803C494.692 223.343 495.016 224.135 495.016 225.179V257.417C495.016 258.461 494.692 259.271 494.044 259.847C493.396 260.387 492.586 260.657 491.614 260.657ZM513.425 233.279C517.097 233.279 519.815 234.197 521.579 236.033C523.379 237.833 524.279 240.587 524.279 244.295V257.471C524.279 258.443 523.991 259.217 523.415 259.793C522.839 260.333 522.047 260.603 521.039 260.603C520.103 260.603 519.329 260.315 518.717 259.739C518.141 259.163 517.853 258.407 517.853 257.471V256.283C517.241 257.687 516.269 258.785 514.937 259.577C513.641 260.369 512.129 260.765 510.401 260.765C508.637 260.765 507.035 260.405 505.595 259.685C504.155 258.965 503.021 257.975 502.193 256.715C501.365 255.455 500.951 254.051 500.951 252.503C500.951 250.559 501.437 249.029 502.409 247.913C503.417 246.797 505.037 245.987 507.269 245.483C509.501 244.979 512.579 244.727 516.503 244.727H517.853V243.485C517.853 241.721 517.475 240.443 516.719 239.651C515.963 238.823 514.739 238.409 513.047 238.409C512.003 238.409 510.941 238.571 509.861 238.895C508.781 239.183 507.503 239.615 506.027 240.191C505.091 240.659 504.407 240.893 503.975 240.893C503.327 240.893 502.787 240.659 502.355 240.191C501.959 239.723 501.761 239.111 501.761 238.355C501.761 237.743 501.905 237.221 502.193 236.789C502.517 236.321 503.039 235.889 503.759 235.493C505.019 234.809 506.513 234.269 508.241 233.873C510.005 233.477 511.733 233.279 513.425 233.279ZM511.751 255.905C513.551 255.905 515.009 255.311 516.125 254.123C517.277 252.899 517.853 251.333 517.853 249.425V248.291H516.881C514.469 248.291 512.597 248.399 511.265 248.615C509.933 248.831 508.979 249.209 508.403 249.749C507.827 250.289 507.539 251.027 507.539 251.963C507.539 253.115 507.935 254.069 508.727 254.825C509.555 255.545 510.563 255.905 511.751 255.905ZM546.583 233.279C552.775 233.279 555.871 236.897 555.871 244.133V257.417C555.871 258.425 555.565 259.217 554.953 259.793C554.377 260.369 553.567 260.657 552.523 260.657C551.479 260.657 550.651 260.369 550.039 259.793C549.427 259.217 549.121 258.425 549.121 257.417V244.133C549.121 242.225 548.725 240.839 547.933 239.975C547.177 239.075 545.971 238.625 544.315 238.625C542.371 238.625 540.805 239.237 539.617 240.461C538.465 241.685 537.889 243.323 537.889 245.375V257.417C537.889 258.425 537.583 259.217 536.971 259.793C536.359 260.369 535.531 260.657 534.487 260.657C533.443 260.657 532.615 260.369 532.003 259.793C531.427 259.217 531.139 258.425 531.139 257.417V225.125C531.139 224.189 531.445 223.433 532.057 222.857C532.705 222.281 533.533 221.993 534.541 221.993C535.549 221.993 536.359 222.263 536.971 222.803C537.583 223.343 537.889 224.081 537.889 225.017V237.599C538.789 236.195 539.977 235.133 541.453 234.413C542.965 233.657 544.675 233.279 546.583 233.279ZM565.913 260.657C564.761 260.657 563.807 260.279 563.051 259.523C562.295 258.731 561.917 257.759 561.917 256.607C561.917 255.455 562.295 254.501 563.051 253.745C563.807 252.953 564.761 252.557 565.913 252.557C567.065 252.557 568.019 252.953 568.775 253.745C569.531 254.501 569.909 255.455 569.909 256.607C569.909 257.759 569.531 258.731 568.775 259.523C568.019 260.279 567.065 260.657 565.913 260.657ZM579.307 260.657C578.155 260.657 577.201 260.279 576.445 259.523C575.689 258.731 575.311 257.759 575.311 256.607C575.311 255.455 575.689 254.501 576.445 253.745C577.201 252.953 578.155 252.557 579.307 252.557C580.459 252.557 581.413 252.953 582.169 253.745C582.925 254.501 583.303 255.455 583.303 256.607C583.303 257.759 582.925 258.731 582.169 259.523C581.413 260.279 580.459 260.657 579.307 260.657ZM592.702 260.657C591.55 260.657 590.596 260.279 589.84 259.523C589.084 258.731 588.706 257.759 588.706 256.607C588.706 255.455 589.084 254.501 589.84 253.745C590.596 252.953 591.55 252.557 592.702 252.557C593.854 252.557 594.808 252.953 595.564 253.745C596.32 254.501 596.698 255.455 596.698 256.607C596.698 257.759 596.32 258.731 595.564 259.523C594.808 260.279 593.854 260.657 592.702 260.657Z" fill="black"/>
</svg>
