<svg xmlns="http://www.w3.org/2000/svg" xmlns:xlink="http://www.w3.org/1999/xlink" width="849" zoomAndPan="magnify" viewBox="0 0 636.75 338.250003" height="451" preserveAspectRatio="xMidYMid meet" version="1.0"><defs><g/><clipPath id="885c0c39a9"><path d="M 0.578125 0 L 635.921875 0 L 635.921875 337.5 L 0.578125 337.5 Z M 0.578125 0 " clip-rule="nonzero"/></clipPath><clipPath id="2eabfd91ea"><path d="M 6.953125 0 L 635.753906 0 L 635.753906 323.984375 L 6.953125 323.984375 Z M 6.953125 0 " clip-rule="nonzero"/></clipPath><clipPath id="30a8646b50"><path d="M 365 43 L 589 43 L 589 237 L 365 237 Z M 365 43 " clip-rule="nonzero"/></clipPath><clipPath id="db56859178"><path d="M 584.625 236.832031 L 365.464844 231.824219 L 369.773438 43.425781 L 588.929688 48.433594 Z M 584.625 236.832031 " clip-rule="nonzero"/></clipPath><clipPath id="c6bdec1855"><path d="M 41 107 L 74 107 L 74 141 L 41 141 Z M 41 107 " clip-rule="nonzero"/></clipPath><clipPath id="162339739e"><path d="M 219.625 193.832031 L 0.464844 188.824219 L 4.773438 0.425781 L 223.929688 5.433594 Z M 219.625 193.832031 " clip-rule="nonzero"/></clipPath><clipPath id="63576c01c5"><path d="M 0.675781 188.828125 L 219.835938 193.835938 L 224.140625 5.4375 L 4.984375 0.429688 Z M 0.675781 188.828125 " clip-rule="nonzero"/></clipPath><clipPath id="4fc66db5de"><path d="M 0.675781 188.828125 L 219.835938 193.835938 L 224.140625 5.4375 L 4.984375 0.429688 Z M 0.675781 188.828125 " clip-rule="nonzero"/></clipPath><clipPath id="62a91fe041"><path d="M 79 111 L 104 111 L 104 138 L 79 138 Z M 79 111 " clip-rule="nonzero"/></clipPath><clipPath id="81590a9560"><path d="M 219.625 193.832031 L 0.464844 188.824219 L 4.773438 0.425781 L 223.929688 5.433594 Z M 219.625 193.832031 " clip-rule="nonzero"/></clipPath><clipPath id="4051f79640"><path d="M 0.675781 188.828125 L 219.835938 193.835938 L 224.140625 5.4375 L 4.984375 0.429688 Z M 0.675781 188.828125 " clip-rule="nonzero"/></clipPath><clipPath id="031a3f26ba"><path d="M 0.675781 188.828125 L 219.835938 193.835938 L 224.140625 5.4375 L 4.984375 0.429688 Z M 0.675781 188.828125 " clip-rule="nonzero"/></clipPath><clipPath id="1766c79b4d"><path d="M 62 70 L 89 70 L 89 102 L 62 102 Z M 62 70 " clip-rule="nonzero"/></clipPath><clipPath id="63a8ce4392"><path d="M 219.625 193.832031 L 0.464844 188.824219 L 4.773438 0.425781 L 223.929688 5.433594 Z M 219.625 193.832031 " clip-rule="nonzero"/></clipPath><clipPath id="efdbba0401"><path d="M 0.675781 188.828125 L 219.835938 193.835938 L 224.140625 5.4375 L 4.984375 0.429688 Z M 0.675781 188.828125 " clip-rule="nonzero"/></clipPath><clipPath id="8db3a4c346"><path d="M 0.675781 188.828125 L 219.835938 193.835938 L 224.140625 5.4375 L 4.984375 0.429688 Z M 0.675781 188.828125 " clip-rule="nonzero"/></clipPath><clipPath id="23c26e0c86"><path d="M 95 76 L 131 76 L 131 121 L 95 121 Z M 95 76 " clip-rule="nonzero"/></clipPath><clipPath id="8b9df26014"><path d="M 219.625 193.832031 L 0.464844 188.824219 L 4.773438 0.425781 L 223.929688 5.433594 Z M 219.625 193.832031 " clip-rule="nonzero"/></clipPath><clipPath id="6f4d741be5"><path d="M 0.675781 188.828125 L 219.835938 193.835938 L 224.140625 5.4375 L 4.984375 0.429688 Z M 0.675781 188.828125 " clip-rule="nonzero"/></clipPath><clipPath id="6b95470583"><path d="M 0.675781 188.828125 L 219.835938 193.835938 L 224.140625 5.4375 L 4.984375 0.429688 Z M 0.675781 188.828125 " clip-rule="nonzero"/></clipPath><clipPath id="f3fac07ed1"><path d="M 118 147 L 149 147 L 149 185 L 118 185 Z M 118 147 " clip-rule="nonzero"/></clipPath><clipPath id="e6e5c7437e"><path d="M 219.625 193.832031 L 0.464844 188.824219 L 4.773438 0.425781 L 223.929688 5.433594 Z M 219.625 193.832031 " clip-rule="nonzero"/></clipPath><clipPath id="eba4c8a99b"><path d="M 0.675781 188.828125 L 219.835938 193.835938 L 224.140625 5.4375 L 4.984375 0.429688 Z M 0.675781 188.828125 " clip-rule="nonzero"/></clipPath><clipPath id="d0a68d1c83"><path d="M 0.675781 188.828125 L 219.835938 193.835938 L 224.140625 5.4375 L 4.984375 0.429688 Z M 0.675781 188.828125 " clip-rule="nonzero"/></clipPath><clipPath id="bb84d406ef"><path d="M 77 154 L 107 154 L 107 190 L 77 190 Z M 77 154 " clip-rule="nonzero"/></clipPath><clipPath id="f43a382435"><path d="M 219.625 193.832031 L 0.464844 188.824219 L 4.773438 0.425781 L 223.929688 5.433594 Z M 219.625 193.832031 " clip-rule="nonzero"/></clipPath><clipPath id="f795e70bb6"><path d="M 0.675781 188.828125 L 219.835938 193.835938 L 224.140625 5.4375 L 4.984375 0.429688 Z M 0.675781 188.828125 " clip-rule="nonzero"/></clipPath><clipPath id="95985aaacb"><path d="M 0.675781 188.828125 L 219.835938 193.835938 L 224.140625 5.4375 L 4.984375 0.429688 Z M 0.675781 188.828125 " clip-rule="nonzero"/></clipPath><clipPath id="5298a18815"><path d="M 139 98 L 173 98 L 173 138 L 139 138 Z M 139 98 " clip-rule="nonzero"/></clipPath><clipPath id="8282859751"><path d="M 219.625 193.832031 L 0.464844 188.824219 L 4.773438 0.425781 L 223.929688 5.433594 Z M 219.625 193.832031 " clip-rule="nonzero"/></clipPath><clipPath id="37bcbb87c6"><path d="M 0.675781 188.828125 L 219.835938 193.835938 L 224.140625 5.4375 L 4.984375 0.429688 Z M 0.675781 188.828125 " clip-rule="nonzero"/></clipPath><clipPath id="6356210074"><path d="M 0.675781 188.828125 L 219.835938 193.835938 L 224.140625 5.4375 L 4.984375 0.429688 Z M 0.675781 188.828125 " clip-rule="nonzero"/></clipPath><clipPath id="343e7a0223"><path d="M 121 48 L 146 48 L 146 75 L 121 75 Z M 121 48 " clip-rule="nonzero"/></clipPath><clipPath id="3b14c71675"><path d="M 219.625 193.832031 L 0.464844 188.824219 L 4.773438 0.425781 L 223.929688 5.433594 Z M 219.625 193.832031 " clip-rule="nonzero"/></clipPath><clipPath id="3635d3d45f"><path d="M 0.675781 188.828125 L 219.835938 193.835938 L 224.140625 5.4375 L 4.984375 0.429688 Z M 0.675781 188.828125 " clip-rule="nonzero"/></clipPath><clipPath id="dd645509f4"><path d="M 0.675781 188.828125 L 219.835938 193.835938 L 224.140625 5.4375 L 4.984375 0.429688 Z M 0.675781 188.828125 " clip-rule="nonzero"/></clipPath><clipPath id="b53954ad1c"><path d="M 76 31 L 106 31 L 106 66 L 76 66 Z M 76 31 " clip-rule="nonzero"/></clipPath><clipPath id="4102fc9429"><path d="M 219.625 193.832031 L 0.464844 188.824219 L 4.773438 0.425781 L 223.929688 5.433594 Z M 219.625 193.832031 " clip-rule="nonzero"/></clipPath><clipPath id="e298aab2c8"><path d="M 0.675781 188.828125 L 219.835938 193.835938 L 224.140625 5.4375 L 4.984375 0.429688 Z M 0.675781 188.828125 " clip-rule="nonzero"/></clipPath><clipPath id="63f1b373cd"><path d="M 0.675781 188.828125 L 219.835938 193.835938 L 224.140625 5.4375 L 4.984375 0.429688 Z M 0.675781 188.828125 " clip-rule="nonzero"/></clipPath><clipPath id="83bbcfe1ba"><path d="M 20 66 L 49 66 L 49 100 L 20 100 Z M 20 66 " clip-rule="nonzero"/></clipPath><clipPath id="c357ed01aa"><path d="M 219.625 193.832031 L 0.464844 188.824219 L 4.773438 0.425781 L 223.929688 5.433594 Z M 219.625 193.832031 " clip-rule="nonzero"/></clipPath><clipPath id="241f6822a0"><path d="M 0.675781 188.828125 L 219.835938 193.835938 L 224.140625 5.4375 L 4.984375 0.429688 Z M 0.675781 188.828125 " clip-rule="nonzero"/></clipPath><clipPath id="c593e770f6"><path d="M 0.675781 188.828125 L 219.835938 193.835938 L 224.140625 5.4375 L 4.984375 0.429688 Z M 0.675781 188.828125 " clip-rule="nonzero"/></clipPath><clipPath id="79d0d9a0a2"><path d="M 167 63 L 198 63 L 198 102 L 167 102 Z M 167 63 " clip-rule="nonzero"/></clipPath><clipPath id="9d8b42b31f"><path d="M 219.625 193.832031 L 0.464844 188.824219 L 4.773438 0.425781 L 223.929688 5.433594 Z M 219.625 193.832031 " clip-rule="nonzero"/></clipPath><clipPath id="04e913f353"><path d="M 0.675781 188.828125 L 219.835938 193.835938 L 224.140625 5.4375 L 4.984375 0.429688 Z M 0.675781 188.828125 " clip-rule="nonzero"/></clipPath><clipPath id="f2d171234c"><path d="M 0.675781 188.828125 L 219.835938 193.835938 L 224.140625 5.4375 L 4.984375 0.429688 Z M 0.675781 188.828125 " clip-rule="nonzero"/></clipPath><clipPath id="d33ba74afb"><path d="M 47 153 L 75 153 L 75 183 L 47 183 Z M 47 153 " clip-rule="nonzero"/></clipPath><clipPath id="889a0cc248"><path d="M 219.625 193.832031 L 0.464844 188.824219 L 4.773438 0.425781 L 223.929688 5.433594 Z M 219.625 193.832031 " clip-rule="nonzero"/></clipPath><clipPath id="95dbbde6de"><path d="M 0.675781 188.828125 L 219.835938 193.835938 L 224.140625 5.4375 L 4.984375 0.429688 Z M 0.675781 188.828125 " clip-rule="nonzero"/></clipPath><clipPath id="7e682b2729"><path d="M 0.675781 188.828125 L 219.835938 193.835938 L 224.140625 5.4375 L 4.984375 0.429688 Z M 0.675781 188.828125 " clip-rule="nonzero"/></clipPath><clipPath id="bd57bb2593"><path d="M 3 97 L 35 97 L 35 143 L 3 143 Z M 3 97 " clip-rule="nonzero"/></clipPath><clipPath id="9338b697d5"><path d="M 219.625 193.832031 L 0.464844 188.824219 L 4.773438 0.425781 L 223.929688 5.433594 Z M 219.625 193.832031 " clip-rule="nonzero"/></clipPath><clipPath id="c2c17f54e2"><path d="M 0.675781 188.828125 L 219.835938 193.835938 L 224.140625 5.4375 L 4.984375 0.429688 Z M 0.675781 188.828125 " clip-rule="nonzero"/></clipPath><clipPath id="3c77813624"><path d="M 0.675781 188.828125 L 219.835938 193.835938 L 224.140625 5.4375 L 4.984375 0.429688 Z M 0.675781 188.828125 " clip-rule="nonzero"/></clipPath><clipPath id="ddf31c284b"><path d="M 151 8 L 179 8 L 179 45 L 151 45 Z M 151 8 " clip-rule="nonzero"/></clipPath><clipPath id="e8808e5543"><path d="M 219.625 193.832031 L 0.464844 188.824219 L 4.773438 0.425781 L 223.929688 5.433594 Z M 219.625 193.832031 " clip-rule="nonzero"/></clipPath><clipPath id="620fea28da"><path d="M 0.675781 188.828125 L 219.835938 193.835938 L 224.140625 5.4375 L 4.984375 0.429688 Z M 0.675781 188.828125 " clip-rule="nonzero"/></clipPath><clipPath id="516a784675"><path d="M 0.675781 188.828125 L 219.835938 193.835938 L 224.140625 5.4375 L 4.984375 0.429688 Z M 0.675781 188.828125 " clip-rule="nonzero"/></clipPath><clipPath id="20ca5b42d9"><path d="M 171 155 L 201 155 L 201 192 L 171 192 Z M 171 155 " clip-rule="nonzero"/></clipPath><clipPath id="0d7eca1b50"><path d="M 219.625 193.832031 L 0.464844 188.824219 L 4.773438 0.425781 L 223.929688 5.433594 Z M 219.625 193.832031 " clip-rule="nonzero"/></clipPath><clipPath id="3648d2d97b"><path d="M 0.675781 188.828125 L 219.835938 193.835938 L 224.140625 5.4375 L 4.984375 0.429688 Z M 0.675781 188.828125 " clip-rule="nonzero"/></clipPath><clipPath id="b72c868608"><path d="M 0.675781 188.828125 L 219.835938 193.835938 L 224.140625 5.4375 L 4.984375 0.429688 Z M 0.675781 188.828125 " clip-rule="nonzero"/></clipPath><clipPath id="2fc96729c6"><path d="M 105 4 L 132 4 L 132 35 L 105 35 Z M 105 4 " clip-rule="nonzero"/></clipPath><clipPath id="1fc6068287"><path d="M 219.625 193.832031 L 0.464844 188.824219 L 4.773438 0.425781 L 223.929688 5.433594 Z M 219.625 193.832031 " clip-rule="nonzero"/></clipPath><clipPath id="19cfceefe6"><path d="M 0.675781 188.828125 L 219.835938 193.835938 L 224.140625 5.4375 L 4.984375 0.429688 Z M 0.675781 188.828125 " clip-rule="nonzero"/></clipPath><clipPath id="96f270027c"><path d="M 0.675781 188.828125 L 219.835938 193.835938 L 224.140625 5.4375 L 4.984375 0.429688 Z M 0.675781 188.828125 " clip-rule="nonzero"/></clipPath><clipPath id="a67e0a9d14"><path d="M 192 32 L 221 32 L 221 67 L 192 67 Z M 192 32 " clip-rule="nonzero"/></clipPath><clipPath id="38c7b62396"><path d="M 219.625 193.832031 L 0.464844 188.824219 L 4.773438 0.425781 L 223.929688 5.433594 Z M 219.625 193.832031 " clip-rule="nonzero"/></clipPath><clipPath id="d798475ca5"><path d="M 0.675781 188.828125 L 219.835938 193.835938 L 224.140625 5.4375 L 4.984375 0.429688 Z M 0.675781 188.828125 " clip-rule="nonzero"/></clipPath><clipPath id="96c91bbb6f"><path d="M 0.675781 188.828125 L 219.835938 193.835938 L 224.140625 5.4375 L 4.984375 0.429688 Z M 0.675781 188.828125 " clip-rule="nonzero"/></clipPath><clipPath id="d44c16f82d"><path d="M 194 114 L 220 114 L 220 152 L 194 152 Z M 194 114 " clip-rule="nonzero"/></clipPath><clipPath id="892cb92fbe"><path d="M 219.625 193.832031 L 0.464844 188.824219 L 4.773438 0.425781 L 223.929688 5.433594 Z M 219.625 193.832031 " clip-rule="nonzero"/></clipPath><clipPath id="965eba3405"><path d="M 0.675781 188.828125 L 219.835938 193.835938 L 224.140625 5.4375 L 4.984375 0.429688 Z M 0.675781 188.828125 " clip-rule="nonzero"/></clipPath><clipPath id="fbdfca381b"><path d="M 0.675781 188.828125 L 219.835938 193.835938 L 224.140625 5.4375 L 4.984375 0.429688 Z M 0.675781 188.828125 " clip-rule="nonzero"/></clipPath><clipPath id="7cba5cf964"><rect x="0" width="224" y="0" height="194"/></clipPath><clipPath id="965531733f"><rect x="0" width="96" y="0" height="36"/></clipPath><clipPath id="e805f43e5c"><path d="M 365.675781 43.128906 L 461.824219 43.128906 L 461.824219 113.316406 L 365.675781 113.316406 Z M 365.675781 43.128906 " clip-rule="nonzero"/></clipPath><clipPath id="fd737b9ab5"><path d="M 1 1 L 96.824219 1 L 96.824219 70 L 1 70 Z M 1 1 " clip-rule="nonzero"/></clipPath><clipPath id="99737a0c23"><rect x="0" width="97" y="0" height="71"/></clipPath><clipPath id="7dce19e479"><rect x="0" width="636" y="0" height="338"/></clipPath></defs><g clip-path="url(#885c0c39a9)"><g transform="matrix(1, 0, 0, 1, 0.000000000000000111, -0.000000000000001151)"><g clip-path="url(#7dce19e479)"><g clip-path="url(#2eabfd91ea)"><path stroke-linecap="butt" transform="matrix(0.961468, 0, 0, 0.961468, 6.953851, 0.000278064)" fill="none" stroke-linejoin="miter" d="M -0.000754807 -0.000289207 L 654.125805 -0.000289207 L 654.125805 336.96809 L -0.000754807 336.96809 Z M -0.000754807 -0.000289207 " stroke="#000000" stroke-width="9.339974" stroke-opacity="1" stroke-miterlimit="4"/></g><path stroke-linecap="butt" transform="matrix(0, 0.961468, -0.961468, 0, 320.538579, 26.154303)" fill="none" stroke-linejoin="miter" d="M 0.00202498 1.998393 L 245.72811 1.998393 " stroke="#000000" stroke-width="4" stroke-opacity="1" stroke-miterlimit="4"/><path fill="#8bc28f" d="M 111.171875 112.679688 C 112.957031 111.019531 114.855469 109.082031 116.867188 106.867188 C 119.136719 104.375 120.8125 102.558594 121.894531 101.421875 C 125.914062 97.210938 132.597656 97.046875 136.820312 101.058594 C 141.042969 105.066406 141.207031 111.734375 137.1875 115.945312 C 136.222656 116.957031 134.664062 118.648438 132.511719 121.015625 C 130.105469 123.660156 127.796875 126.015625 125.585938 128.074219 C 121.324219 132.042969 114.640625 131.816406 110.664062 127.566406 C 106.683594 123.3125 106.910156 116.648438 111.171875 112.679688 Z M 111.171875 112.679688 " fill-opacity="1" fill-rule="nonzero"/><path fill="#8bc28f" d="M 147.195312 112.25 C 147.925781 110.699219 148.773438 109.035156 149.734375 107.257812 C 152.5 102.140625 158.90625 100.226562 164.039062 102.988281 C 169.167969 105.75 171.085938 112.136719 168.316406 117.257812 C 167.542969 118.691406 166.871094 120.007812 166.308594 121.203125 C 163.828125 126.46875 157.542969 128.730469 152.265625 126.257812 C 146.988281 123.785156 144.71875 117.515625 147.195312 112.25 Z M 147.195312 112.25 " fill-opacity="1" fill-rule="nonzero"/><path fill="#8bc28f" d="M 153.109375 152.089844 C 152.40625 153.578125 151.574219 155.261719 150.605469 157.140625 C 149.621094 159.050781 148.589844 160.941406 147.511719 162.820312 C 144.617188 167.867188 138.164062 169.617188 133.105469 166.730469 C 128.042969 163.839844 126.289062 157.40625 129.1875 152.359375 C 130.105469 150.753906 130.988281 149.140625 131.824219 147.511719 C 132.679688 145.855469 133.402344 144.398438 133.996094 143.136719 C 136.476562 137.871094 142.761719 135.609375 148.039062 138.082031 C 153.316406 140.554688 155.585938 146.828125 153.109375 152.089844 Z M 153.109375 152.089844 " fill-opacity="1" fill-rule="nonzero"/><path fill="#8bc28f" d="M 194.851562 135.144531 C 193.460938 137.585938 191.632812 140.601562 189.355469 144.191406 C 187.121094 147.71875 185.054688 150.898438 183.15625 153.726562 L 180.386719 157.851562 C 177.140625 162.683594 170.582031 163.980469 165.738281 160.742188 C 160.894531 157.507812 159.597656 150.964844 162.839844 146.132812 L 165.613281 142.007812 C 167.40625 139.332031 169.371094 136.3125 171.507812 132.941406 C 173.601562 129.632812 175.261719 126.902344 176.484375 124.753906 C 179.359375 119.695312 185.804688 117.917969 190.875 120.789062 C 195.949219 123.65625 197.726562 130.085938 194.851562 135.144531 Z M 194.851562 135.144531 " fill-opacity="1" fill-rule="nonzero"/><path fill="#8bc28f" d="M 214.929688 70.433594 C 213.484375 73.230469 212.066406 75.730469 210.675781 77.929688 C 209.519531 79.753906 208.378906 81.628906 207.257812 83.558594 L 205.476562 86.621094 C 202.546875 91.652344 196.085938 93.363281 191.046875 90.445312 C 186.003906 87.523438 184.285156 81.082031 187.214844 76.050781 L 188.996094 72.984375 C 190.25 70.828125 191.527344 68.726562 192.824219 66.679688 C 193.882812 65.007812 194.992188 63.046875 196.148438 60.804688 C 198.816406 55.628906 205.179688 53.59375 210.367188 56.253906 C 215.550781 58.910156 217.59375 65.257812 214.929688 70.433594 Z M 214.929688 70.433594 " fill-opacity="1" fill-rule="nonzero"/><path fill="#8bc28f" d="M 173.628906 64.21875 C 172.53125 66.851562 170.667969 70.214844 168.035156 74.304688 L 164.589844 79.652344 C 161.441406 84.546875 154.910156 85.964844 150.003906 82.820312 C 145.097656 79.679688 143.671875 73.164062 146.824219 68.269531 L 150.265625 62.921875 C 152.226562 59.882812 153.511719 57.621094 154.128906 56.136719 C 156.367188 50.765625 162.546875 48.222656 167.929688 50.453125 C 173.316406 52.683594 175.867188 58.847656 173.628906 64.21875 Z M 173.628906 64.21875 " fill-opacity="1" fill-rule="nonzero"/><path fill="#8bc28f" d="M 236.488281 120.855469 C 234.53125 123.109375 232.347656 125.976562 229.9375 129.464844 C 227.386719 133.144531 225.621094 135.765625 224.628906 137.328125 C 221.515625 142.246094 214.996094 143.710938 210.066406 140.605469 C 205.136719 137.5 203.664062 130.996094 206.78125 126.078125 C 207.921875 124.273438 209.851562 121.414062 212.5625 117.496094 C 215.410156 113.382812 218.0625 109.90625 220.519531 107.074219 C 224.335938 102.675781 231.003906 102.195312 235.414062 106 C 239.820312 109.804688 240.304688 116.457031 236.488281 120.855469 Z M 236.488281 120.855469 " fill-opacity="1" fill-rule="nonzero"/><path fill="#8bc28f" d="M 208.351562 183.007812 C 207.636719 183.90625 206.992188 184.890625 206.417969 185.953125 C 203.648438 191.070312 197.246094 192.980469 192.113281 190.222656 C 186.980469 187.460938 185.066406 181.070312 187.832031 175.953125 C 188.996094 173.804688 190.320312 171.792969 191.804688 169.925781 C 195.425781 165.367188 202.066406 164.601562 206.636719 168.214844 C 211.207031 171.824219 211.976562 178.449219 208.351562 183.007812 Z M 208.351562 183.007812 " fill-opacity="1" fill-rule="nonzero"/><path fill="#8bc28f" d="M 168.246094 190.15625 C 166.859375 192.027344 165.800781 193.542969 165.0625 194.707031 C 164.277344 195.945312 163.355469 197.496094 162.296875 199.363281 L 160.582031 202.378906 C 157.703125 207.4375 151.261719 209.210938 146.1875 206.34375 C 141.117188 203.472656 139.335938 197.046875 142.214844 191.988281 L 143.929688 188.972656 C 145.15625 186.816406 146.25 184.976562 147.214844 183.457031 C 148.222656 181.859375 149.574219 179.921875 151.265625 177.640625 C 154.730469 172.960938 161.34375 171.972656 166.03125 175.429688 C 170.71875 178.886719 171.710938 185.480469 168.246094 190.15625 Z M 168.246094 190.15625 " fill-opacity="1" fill-rule="nonzero"/><path fill="#8bc28f" d="M 112.691406 154.886719 C 111.445312 156.855469 110.679688 158.0625 110.398438 158.507812 C 109.640625 159.707031 108.496094 161.375 106.972656 163.507812 L 104.855469 166.472656 C 101.472656 171.207031 94.878906 172.3125 90.132812 168.9375 C 85.382812 165.5625 84.277344 158.988281 87.660156 154.25 L 89.773438 151.289062 C 91.074219 149.472656 91.996094 148.128906 92.546875 147.257812 C 93.578125 145.632812 94.34375 144.425781 94.84375 143.636719 C 97.957031 138.71875 104.476562 137.25 109.40625 140.359375 C 114.335938 143.464844 115.808594 149.96875 112.691406 154.886719 Z M 112.691406 154.886719 " fill-opacity="1" fill-rule="nonzero"/><path fill="#8bc28f" d="M 261.472656 156.160156 C 260.449219 157.589844 259.082031 159.972656 257.363281 163.304688 C 255.40625 167.097656 253.933594 169.953125 252.9375 171.867188 C 250.253906 177.03125 243.878906 179.046875 238.703125 176.371094 C 233.527344 173.691406 231.507812 167.335938 234.191406 162.175781 C 235.175781 160.28125 236.640625 157.449219 238.585938 153.675781 C 240.765625 149.441406 242.664062 146.195312 244.273438 143.941406 C 247.65625 139.203125 254.25 138.097656 259 141.472656 C 263.746094 144.847656 264.855469 151.421875 261.472656 156.160156 Z M 261.472656 156.160156 " fill-opacity="1" fill-rule="nonzero"/><path fill="#8bc28f" d="M 139 73.664062 C 138.019531 74.691406 136.980469 75.976562 135.882812 77.515625 L 133.800781 80.429688 C 130.414062 85.164062 123.824219 86.269531 119.074219 82.894531 C 114.324219 79.523438 113.21875 72.945312 116.601562 68.210938 L 118.683594 65.292969 C 120.363281 62.945312 122.039062 60.894531 123.710938 59.140625 C 127.730469 54.929688 134.414062 54.765625 138.636719 58.777344 C 142.859375 62.785156 143.023438 69.453125 139 73.664062 Z M 139 73.664062 " fill-opacity="1" fill-rule="nonzero"/><path fill="#8bc28f" d="M 99.777344 110.710938 C 97.832031 114.363281 96.050781 117.730469 94.433594 120.808594 C 83.050781 142.484375 81.574219 145.292969 90.003906 129.242188 C 87.300781 134.394531 80.917969 136.382812 75.753906 133.683594 C 70.589844 130.984375 68.597656 124.621094 71.300781 119.46875 C 82.386719 98.367188 83.863281 95.554688 75.730469 111.035156 C 77.367188 107.921875 79.164062 104.523438 81.125 100.835938 C 83.859375 95.699219 90.25 93.746094 95.398438 96.472656 C 100.550781 99.199219 102.511719 105.574219 99.777344 110.710938 Z M 99.777344 110.710938 " fill-opacity="1" fill-rule="nonzero"/><path fill="#8bc28f" d="M 241.820312 211.46875 C 241.042969 212.957031 240.453125 214.351562 240.050781 215.652344 C 239.304688 218.082031 238.351562 220.507812 237.1875 222.929688 L 235.785156 225.84375 C 233.261719 231.089844 226.957031 233.300781 221.699219 230.785156 C 216.441406 228.273438 214.222656 221.980469 216.746094 216.738281 L 218.148438 213.820312 C 218.855469 212.351562 219.425781 210.90625 219.863281 209.484375 C 220.644531 206.933594 221.730469 204.339844 223.117188 201.695312 C 225.824219 196.542969 232.207031 194.554688 237.371094 197.253906 C 242.535156 199.953125 244.527344 206.320312 241.820312 211.46875 Z M 241.820312 211.46875 " fill-opacity="1" fill-rule="nonzero"/><path fill="#8bc28f" d="M 265.753906 66.480469 C 265.160156 67.226562 264.585938 68.1875 264.035156 69.355469 C 263.171875 71.191406 262.210938 73.304688 261.152344 75.695312 L 259.515625 79.398438 C 257.160156 84.71875 250.925781 87.125 245.59375 84.777344 C 240.257812 82.429688 237.84375 76.210938 240.199219 70.890625 L 241.835938 67.191406 C 242.960938 64.648438 243.988281 62.386719 244.921875 60.402344 C 246.167969 57.757812 247.597656 55.421875 249.203125 53.398438 C 252.828125 48.839844 259.46875 48.074219 264.035156 51.6875 C 268.605469 55.300781 269.375 61.921875 265.753906 66.480469 Z M 265.753906 66.480469 " fill-opacity="1" fill-rule="nonzero"/><path fill="#8bc28f" d="M 194.328125 220.546875 C 190.59375 227.453125 190.121094 228.328125 192.910156 223.171875 C 193.257812 222.527344 192.707031 223.546875 191.257812 226.226562 L 189.488281 229.5 C 186.71875 234.617188 180.316406 236.53125 175.183594 233.769531 C 170.050781 231.007812 168.136719 224.621094 170.902344 219.503906 L 172.671875 216.230469 C 172.402344 216.730469 172.953125 215.710938 174.324219 213.171875 C 178.136719 206.125 178.609375 205.25 175.746094 210.546875 C 178.511719 205.429688 184.917969 203.519531 190.046875 206.28125 C 195.179688 209.039062 197.097656 215.429688 194.328125 220.546875 Z M 194.328125 220.546875 " fill-opacity="1" fill-rule="nonzero"/><path fill="#8bc28f" d="M 283.53125 192.652344 C 281.765625 194.921875 280.117188 197.253906 278.597656 199.65625 L 276.042969 203.691406 C 272.925781 208.609375 266.40625 210.078125 261.476562 206.96875 C 256.546875 203.863281 255.078125 197.359375 258.191406 192.441406 L 260.746094 188.40625 C 262.636719 185.425781 264.675781 182.527344 266.867188 179.71875 C 270.449219 175.128906 277.082031 174.304688 281.683594 177.875 C 286.285156 181.445312 287.113281 188.0625 283.53125 192.652344 Z M 283.53125 192.652344 " fill-opacity="1" fill-rule="nonzero"/><path fill="#8bc28f" d="M 286.425781 102.703125 C 285.53125 106.421875 284.609375 109.679688 283.664062 112.484375 C 282.675781 115.421875 282.398438 116.238281 282.835938 114.9375 C 282.300781 116.535156 281.789062 118.054688 281.300781 119.496094 C 279.445312 125.007812 273.457031 127.976562 267.929688 126.121094 C 262.402344 124.269531 259.429688 118.296875 261.289062 112.785156 C 261.773438 111.34375 262.285156 109.824219 262.824219 108.226562 C 263.800781 105.332031 264.074219 104.511719 263.652344 105.773438 L 263.648438 105.773438 C 264.398438 103.558594 265.148438 100.890625 265.898438 97.777344 C 267.261719 92.121094 272.964844 88.640625 278.632812 90 C 284.300781 91.363281 287.792969 97.046875 286.425781 102.703125 Z M 286.425781 102.703125 " fill-opacity="1" fill-rule="nonzero"/><g clip-path="url(#30a8646b50)"><g clip-path="url(#db56859178)"><g transform="matrix(1, 0, 0, 1, 365, 43)"><g clip-path="url(#7cba5cf964)"><g clip-path="url(#c6bdec1855)"><g clip-path="url(#162339739e)"><g clip-path="url(#63576c01c5)"><g clip-path="url(#4fc66db5de)"><path fill="#8bc28f" d="M 44.707031 125.222656 C 46.449219 126.921875 48.300781 128.902344 50.265625 131.164062 C 52.472656 133.707031 54.109375 135.5625 55.167969 136.722656 C 59.089844 141.023438 65.765625 141.339844 70.078125 137.429688 C 74.394531 133.515625 74.710938 126.855469 70.785156 122.550781 C 69.84375 121.519531 68.324219 119.792969 66.226562 117.378906 C 63.882812 114.675781 61.628906 112.269531 59.464844 110.160156 C 55.292969 106.097656 48.609375 106.171875 44.535156 110.332031 C 40.457031 114.488281 40.535156 121.15625 44.707031 125.222656 Z M 44.707031 125.222656 " fill-opacity="1" fill-rule="nonzero"/></g></g></g></g><g clip-path="url(#62a91fe041)"><g clip-path="url(#81590a9560)"><g clip-path="url(#4051f79640)"><g clip-path="url(#031a3f26ba)"><path fill="#8bc28f" d="M 80.710938 126.476562 C 81.402344 128.042969 82.210938 129.726562 83.132812 131.523438 C 85.78125 136.703125 92.140625 138.761719 97.332031 136.121094 C 102.527344 133.476562 104.589844 127.132812 101.9375 121.953125 C 101.195312 120.5 100.558594 119.171875 100.019531 117.960938 C 97.660156 112.640625 91.425781 110.234375 86.09375 112.585938 C 80.761719 114.9375 78.351562 121.15625 80.710938 126.476562 Z M 80.710938 126.476562 " fill-opacity="1" fill-rule="nonzero"/></g></g></g></g><g clip-path="url(#1766c79b4d)"><g clip-path="url(#63a8ce4392)"><g clip-path="url(#efdbba0401)"><g clip-path="url(#8db3a4c346)"><path fill="#8bc28f" d="M 87.527344 86.78125 C 86.863281 85.277344 86.066406 83.574219 85.140625 81.675781 C 84.203125 79.746094 83.214844 77.828125 82.179688 75.925781 C 79.398438 70.8125 72.992188 68.917969 67.867188 71.6875 C 62.742188 74.460938 60.839844 80.855469 63.621094 85.964844 C 64.503906 87.589844 65.347656 89.226562 66.148438 90.871094 C 66.960938 92.546875 67.652344 94.019531 68.21875 95.296875 C 70.574219 100.613281 76.808594 103.019531 82.144531 100.667969 C 87.476562 98.316406 89.886719 92.097656 87.527344 86.78125 Z M 87.527344 86.78125 " fill-opacity="1" fill-rule="nonzero"/></g></g></g></g><g clip-path="url(#23c26e0c86)"><g clip-path="url(#8b9df26014)"><g clip-path="url(#6f4d741be5)"><g clip-path="url(#6b95470583)"><path fill="#8bc28f" d="M 128.875 104.675781 C 127.542969 102.203125 125.78125 99.148438 123.589844 95.507812 C 121.433594 91.929688 119.441406 88.703125 117.605469 85.832031 L 114.929688 81.644531 C 111.796875 76.738281 105.269531 75.292969 100.355469 78.417969 C 95.4375 81.542969 93.992188 88.054688 97.125 92.960938 L 99.800781 97.148438 C 101.53125 99.859375 103.429688 102.925781 105.484375 106.34375 C 107.503906 109.699219 109.101562 112.464844 110.273438 114.644531 C 113.035156 119.769531 119.4375 121.691406 124.570312 118.9375 C 129.707031 116.183594 131.632812 109.800781 128.875 104.675781 Z M 128.875 104.675781 " fill-opacity="1" fill-rule="nonzero"/></g></g></g></g><g clip-path="url(#f3fac07ed1)"><g clip-path="url(#e6e5c7437e)"><g clip-path="url(#eba4c8a99b)"><g clip-path="url(#d0a68d1c83)"><path fill="#8bc28f" d="M 147.46875 169.832031 C 146.089844 167 144.730469 164.46875 143.386719 162.238281 C 142.273438 160.386719 141.175781 158.484375 140.097656 156.53125 L 138.386719 153.429688 C 135.574219 148.332031 129.15625 146.476562 124.046875 149.277344 C 118.9375 152.082031 117.078125 158.484375 119.886719 163.582031 L 121.601562 166.683594 C 122.804688 168.871094 124.035156 171 125.285156 173.078125 C 126.304688 174.773438 127.367188 176.757812 128.472656 179.027344 C 131.019531 184.261719 137.335938 186.441406 142.582031 183.902344 C 147.828125 181.363281 150.015625 175.0625 147.46875 169.832031 Z M 147.46875 169.832031 " fill-opacity="1" fill-rule="nonzero"/></g></g></g></g><g clip-path="url(#bb84d406ef)"><g clip-path="url(#f43a382435)"><g clip-path="url(#f795e70bb6)"><g clip-path="url(#95985aaacb)"><path fill="#8bc28f" d="M 106.039062 175.101562 C 105 172.441406 103.210938 169.039062 100.671875 164.886719 L 97.351562 159.464844 C 94.316406 154.5 87.816406 152.929688 82.839844 155.960938 C 77.863281 158.992188 76.292969 165.472656 79.332031 170.433594 L 82.652344 175.859375 C 84.539062 178.945312 85.773438 181.234375 86.359375 182.730469 C 88.472656 188.152344 94.589844 190.839844 100.023438 188.730469 C 105.460938 186.621094 108.152344 180.519531 106.039062 175.101562 Z M 106.039062 175.101562 " fill-opacity="1" fill-rule="nonzero"/></g></g></g></g><g clip-path="url(#5298a18815)"><g clip-path="url(#8282859751)"><g clip-path="url(#37bcbb87c6)"><g clip-path="url(#6356210074)"><path fill="#8bc28f" d="M 170.175781 119.914062 C 168.269531 117.617188 166.152344 114.695312 163.820312 111.15625 C 161.355469 107.417969 159.648438 104.757812 158.695312 103.171875 C 155.695312 98.1875 149.210938 96.570312 144.210938 99.5625 C 139.210938 102.558594 137.589844 109.027344 140.59375 114.011719 C 141.695312 115.84375 143.554688 118.746094 146.175781 122.722656 C 148.929688 126.902344 151.503906 130.4375 153.894531 133.328125 C 157.609375 137.808594 164.265625 138.441406 168.757812 134.738281 C 173.253906 131.035156 173.886719 124.398438 170.175781 119.914062 Z M 170.175781 119.914062 " fill-opacity="1" fill-rule="nonzero"/></g></g></g></g><g clip-path="url(#343e7a0223)"><g clip-path="url(#3b14c71675)"><g clip-path="url(#3635d3d45f)"><g clip-path="url(#dd645509f4)"><path fill="#8bc28f" d="M 143.464844 57.136719 C 142.769531 56.21875 142.148438 55.222656 141.597656 54.148438 C 138.949219 48.964844 132.589844 46.910156 127.394531 49.550781 C 122.203125 52.195312 120.140625 58.535156 122.789062 63.71875 C 123.902344 65.894531 125.179688 67.933594 126.625 69.835938 C 130.140625 74.476562 136.761719 75.394531 141.414062 71.886719 C 146.0625 68.378906 146.984375 61.773438 143.464844 57.136719 Z M 143.464844 57.136719 " fill-opacity="1" fill-rule="nonzero"/></g></g></g></g><g clip-path="url(#b53954ad1c)"><g clip-path="url(#4102fc9429)"><g clip-path="url(#e298aab2c8)"><g clip-path="url(#63f1b373cd)"><path fill="#8bc28f" d="M 103.53125 49.070312 C 102.191406 47.167969 101.164062 45.628906 100.457031 44.449219 C 99.699219 43.195312 98.8125 41.621094 97.792969 39.730469 L 96.148438 36.679688 C 93.390625 31.554688 86.988281 29.632812 81.851562 32.386719 C 76.714844 35.136719 74.789062 41.523438 77.550781 46.644531 L 79.195312 49.699219 C 80.371094 51.882812 81.425781 53.746094 82.351562 55.289062 C 83.328125 56.90625 84.632812 58.878906 86.269531 61.195312 C 89.628906 65.953125 96.214844 67.089844 100.980469 63.742188 C 105.75 60.394531 106.890625 53.824219 103.53125 49.070312 Z M 103.53125 49.070312 " fill-opacity="1" fill-rule="nonzero"/></g></g></g></g><g clip-path="url(#83bbcfe1ba)"><g clip-path="url(#c357ed01aa)"><g clip-path="url(#241f6822a0)"><g clip-path="url(#c593e770f6)"><path fill="#8bc28f" d="M 47.1875 83.0625 C 45.984375 81.0625 45.25 79.839844 44.976562 79.390625 C 44.246094 78.171875 43.140625 76.480469 41.667969 74.3125 L 39.617188 71.300781 C 36.34375 66.488281 29.777344 65.234375 24.953125 68.5 C 20.128906 71.761719 18.871094 78.3125 22.144531 83.125 L 24.195312 86.136719 C 25.449219 87.980469 26.34375 89.347656 26.875 90.226562 C 27.867188 91.878906 28.605469 93.101562 29.085938 93.902344 C 32.085938 98.886719 38.574219 100.503906 43.570312 97.511719 C 48.570312 94.519531 50.191406 88.050781 47.1875 83.0625 Z M 47.1875 83.0625 " fill-opacity="1" fill-rule="nonzero"/></g></g></g></g><g clip-path="url(#79d0d9a0a2)"><g clip-path="url(#9d8b42b31f)"><g clip-path="url(#04e913f353)"><g clip-path="url(#f2d171234c)"><path fill="#8bc28f" d="M 195.957031 85.1875 C 194.96875 83.734375 193.652344 81.324219 192.011719 77.953125 C 190.144531 74.113281 188.734375 71.226562 187.785156 69.289062 C 185.21875 64.066406 178.894531 61.90625 173.65625 64.464844 C 168.421875 67.023438 166.257812 73.328125 168.820312 78.550781 C 169.761719 80.46875 171.160156 83.335938 173.019531 87.148438 C 175.105469 91.433594 176.925781 94.71875 178.484375 97.011719 C 181.757812 101.824219 188.324219 103.078125 193.148438 99.816406 C 197.972656 96.550781 199.230469 90 195.957031 85.1875 Z M 195.957031 85.1875 " fill-opacity="1" fill-rule="nonzero"/></g></g></g></g><g clip-path="url(#d33ba74afb)"><g clip-path="url(#889a0cc248)"><g clip-path="url(#95dbbde6de)"><g clip-path="url(#7e682b2729)"><path fill="#8bc28f" d="M 71.632812 164.863281 C 70.675781 163.8125 69.664062 162.507812 68.601562 160.945312 L 66.585938 157.980469 C 63.3125 153.167969 56.75 151.914062 51.921875 155.179688 C 47.097656 158.445312 45.839844 164.992188 49.117188 169.804688 L 51.128906 172.769531 C 52.753906 175.15625 54.382812 177.246094 56.015625 179.035156 C 59.9375 183.335938 66.613281 183.652344 70.929688 179.742188 C 75.242188 175.828125 75.558594 169.167969 71.632812 164.863281 Z M 71.632812 164.863281 " fill-opacity="1" fill-rule="nonzero"/></g></g></g></g><g clip-path="url(#bd57bb2593)"><g clip-path="url(#9338b697d5)"><g clip-path="url(#c2c17f54e2)"><g clip-path="url(#3c77813624)"><path fill="#8bc28f" d="M 33.265625 126.933594 C 31.40625 123.234375 29.703125 119.828125 28.15625 116.710938 C 17.269531 94.785156 15.859375 91.941406 23.921875 108.179688 C 21.332031 102.96875 15 100.835938 9.773438 103.414062 C 4.550781 105.996094 2.410156 112.3125 5 117.523438 C 15.597656 138.875 17.011719 141.71875 9.234375 126.054688 C 10.796875 129.207031 12.519531 132.644531 14.394531 136.375 C 17.007812 141.574219 23.355469 143.675781 28.566406 141.066406 C 33.777344 138.457031 35.882812 132.128906 33.265625 126.933594 Z M 33.265625 126.933594 " fill-opacity="1" fill-rule="nonzero"/></g></g></g></g><g clip-path="url(#ddf31c284b)"><g clip-path="url(#e8808e5543)"><g clip-path="url(#620fea28da)"><g clip-path="url(#516a784675)"><path fill="#8bc28f" d="M 177.578125 29.445312 C 176.832031 27.941406 176.273438 26.53125 175.902344 25.222656 C 175.210938 22.773438 174.3125 20.328125 173.203125 17.882812 L 171.867188 14.933594 C 169.46875 9.632812 163.214844 7.277344 157.902344 9.671875 C 152.585938 12.066406 150.226562 18.304688 152.625 23.605469 L 153.960938 26.554688 L 153.960938 26.550781 C 154.636719 28.039062 155.171875 29.496094 155.578125 30.929688 C 156.300781 33.496094 157.328125 36.113281 158.65625 38.789062 C 161.242188 44 167.574219 46.132812 172.800781 43.554688 C 178.027344 40.972656 180.164062 34.65625 177.578125 29.445312 Z M 177.578125 29.445312 " fill-opacity="1" fill-rule="nonzero"/></g></g></g></g><g clip-path="url(#20ca5b42d9)"><g clip-path="url(#0d7eca1b50)"><g clip-path="url(#3648d2d97b)"><g clip-path="url(#b72c868608)"><path fill="#8bc28f" d="M 198.1875 174.941406 C 197.613281 174.183594 197.0625 173.210938 196.535156 172.027344 C 195.714844 170.175781 194.800781 168.039062 193.796875 165.625 L 192.246094 161.886719 C 190.011719 156.515625 183.835938 153.964844 178.449219 156.191406 C 173.0625 158.414062 170.507812 164.574219 172.742188 169.949219 L 174.292969 173.6875 C 175.359375 176.253906 176.335938 178.539062 177.226562 180.542969 C 178.410156 183.214844 179.785156 185.582031 181.34375 187.644531 C 184.863281 192.28125 191.484375 193.199219 196.132812 189.691406 C 200.785156 186.1875 201.703125 179.582031 198.1875 174.941406 Z M 198.1875 174.941406 " fill-opacity="1" fill-rule="nonzero"/></g></g></g></g><g clip-path="url(#2fc96729c6)"><g clip-path="url(#1fc6068287)"><g clip-path="url(#19cfceefe6)"><g clip-path="url(#96f270027c)"><path fill="#8bc28f" d="M 130.304688 19.285156 C 126.726562 12.296875 126.273438 11.410156 128.945312 16.628906 C 129.277344 17.277344 128.75 16.246094 127.363281 13.535156 L 125.667969 10.222656 C 123.015625 5.042969 116.660156 2.984375 111.464844 5.628906 C 106.273438 8.269531 104.210938 14.613281 106.859375 19.792969 L 108.554688 23.105469 C 108.296875 22.597656 108.824219 23.628906 110.136719 26.199219 C 113.785156 33.332031 114.238281 34.21875 111.496094 28.855469 C 114.144531 34.035156 120.503906 36.09375 125.699219 33.449219 C 130.890625 30.808594 132.953125 24.464844 130.304688 19.285156 Z M 130.304688 19.285156 " fill-opacity="1" fill-rule="nonzero"/></g></g></g></g><g clip-path="url(#a67e0a9d14)"><g clip-path="url(#38c7b62396)"><g clip-path="url(#d798475ca5)"><g clip-path="url(#96c91bbb6f)"><path fill="#8bc28f" d="M 218.847656 49.210938 C 217.128906 46.902344 215.539062 44.53125 214.074219 42.097656 L 211.609375 38 C 208.609375 33.015625 202.121094 31.398438 197.125 34.390625 C 192.125 37.386719 190.503906 43.855469 193.507812 48.839844 L 195.96875 52.933594 C 197.789062 55.957031 199.765625 58.898438 201.890625 61.757812 C 205.363281 66.429688 211.976562 67.40625 216.660156 63.941406 C 221.34375 60.476562 222.320312 53.878906 218.847656 49.210938 Z M 218.847656 49.210938 " fill-opacity="1" fill-rule="nonzero"/></g></g></g></g><g clip-path="url(#d44c16f82d)"><g clip-path="url(#892cb92fbe)"><g clip-path="url(#965eba3405)"><g clip-path="url(#fbdfca381b)"><path fill="#8bc28f" d="M 219.683594 139.203125 C 218.875 135.464844 218.027344 132.183594 217.148438 129.359375 C 216.222656 126.402344 215.96875 125.578125 216.375 126.886719 C 215.875 125.277344 215.398438 123.75 214.945312 122.296875 C 213.214844 116.742188 207.296875 113.640625 201.726562 115.367188 C 196.160156 117.09375 193.050781 122.992188 194.78125 128.546875 C 195.234375 130 195.710938 131.53125 196.214844 133.140625 C 197.125 136.058594 197.378906 136.882812 196.984375 135.609375 C 197.679688 137.84375 198.367188 140.527344 199.050781 143.660156 C 200.285156 149.34375 205.90625 152.953125 211.601562 151.722656 C 217.300781 150.492188 220.921875 144.886719 219.683594 139.203125 Z M 219.683594 139.203125 " fill-opacity="1" fill-rule="nonzero"/></g></g></g></g></g></g></g></g><path fill="#dfb0b0" d="M 83.570312 233.636719 C 79.164062 233.597656 74.320312 233.148438 69.8125 233.316406 C 65.023438 233.5 60.445312 235.105469 55.746094 235.855469 C 47.457031 237.011719 39.882812 231.457031 35.460938 224.859375 C 32.203125 220.179688 30.996094 214.339844 31.640625 208.683594 C 31.761719 206.792969 32.535156 205.132812 33.234375 203.449219 C 34.167969 201.195312 35.207031 198.980469 36.722656 197.042969 C 41.710938 190.972656 48.757812 187.160156 54.707031 182.164062 C 55.289062 181.699219 55.695312 181.097656 56.035156 180.441406 C 57.890625 176.601562 59.816406 172.417969 63.894531 170.527344 C 70.53125 166.824219 79.238281 167.890625 84.910156 172.96875 C 86.324219 174.261719 87.503906 175.777344 88.9375 177.042969 C 93.074219 180.890625 97.160156 185.578125 102.910156 186.800781 C 108.996094 187.328125 112.164062 182.789062 118.6875 184.851562 C 125 186.519531 127.136719 193.894531 126.859375 199.773438 C 126.390625 205.09375 124.261719 210.160156 121.417969 214.628906 C 112.175781 227.933594 99.640625 233.929688 83.570312 233.636719 Z M 83.570312 233.636719 " fill-opacity="1" fill-rule="nonzero"/><g transform="matrix(1, 0, 0, 1, 271, 273)"><g clip-path="url(#965531733f)"><g fill="#000000" fill-opacity="1"><g transform="translate(0.563422, 28.007161)"><g><path d="M 18 -6.859375 C 17.832031 -4.640625 17.007812 -2.894531 15.53125 -1.625 C 14.0625 -0.351562 12.125 0.28125 9.71875 0.28125 C 7.070312 0.28125 4.992188 -0.601562 3.484375 -2.375 C 1.972656 -4.15625 1.21875 -6.597656 1.21875 -9.703125 L 1.21875 -10.953125 C 1.21875 -12.929688 1.566406 -14.675781 2.265625 -16.1875 C 2.960938 -17.695312 3.957031 -18.851562 5.25 -19.65625 C 6.550781 -20.457031 8.054688 -20.859375 9.765625 -20.859375 C 12.140625 -20.859375 14.050781 -20.222656 15.5 -18.953125 C 16.957031 -17.679688 17.800781 -15.894531 18.03125 -13.59375 L 13.78125 -13.59375 C 13.675781 -14.925781 13.304688 -15.890625 12.671875 -16.484375 C 12.035156 -17.085938 11.066406 -17.390625 9.765625 -17.390625 C 8.347656 -17.390625 7.289062 -16.878906 6.59375 -15.859375 C 5.894531 -14.847656 5.535156 -13.28125 5.515625 -11.15625 L 5.515625 -9.59375 C 5.515625 -7.375 5.847656 -5.75 6.515625 -4.71875 C 7.191406 -3.695312 8.257812 -3.1875 9.71875 -3.1875 C 11.019531 -3.1875 11.992188 -3.484375 12.640625 -4.078125 C 13.285156 -4.671875 13.65625 -5.597656 13.75 -6.859375 Z M 18 -6.859375 "/></g></g><g transform="translate(19.5069, 28.007161)"><g><path d="M 8.609375 0.28125 C 6.367188 0.28125 4.539062 -0.40625 3.125 -1.78125 C 1.71875 -3.15625 1.015625 -4.988281 1.015625 -7.28125 L 1.015625 -7.671875 C 1.015625 -9.210938 1.3125 -10.585938 1.90625 -11.796875 C 2.5 -13.003906 3.335938 -13.9375 4.421875 -14.59375 C 5.515625 -15.25 6.757812 -15.578125 8.15625 -15.578125 C 10.25 -15.578125 11.894531 -14.914062 13.09375 -13.59375 C 14.300781 -12.28125 14.90625 -10.410156 14.90625 -7.984375 L 14.90625 -6.3125 L 5.15625 -6.3125 C 5.289062 -5.320312 5.6875 -4.523438 6.34375 -3.921875 C 7.007812 -3.316406 7.851562 -3.015625 8.875 -3.015625 C 10.445312 -3.015625 11.675781 -3.582031 12.5625 -4.71875 L 14.578125 -2.46875 C 13.960938 -1.601562 13.128906 -0.925781 12.078125 -0.4375 C 11.035156 0.0390625 9.878906 0.28125 8.609375 0.28125 Z M 8.140625 -12.265625 C 7.328125 -12.265625 6.671875 -11.988281 6.171875 -11.4375 C 5.671875 -10.894531 5.347656 -10.117188 5.203125 -9.109375 L 10.890625 -9.109375 L 10.890625 -9.421875 C 10.867188 -10.328125 10.617188 -11.023438 10.140625 -11.515625 C 9.671875 -12.015625 9.003906 -12.265625 8.140625 -12.265625 Z M 8.140625 -12.265625 "/></g></g><g transform="translate(35.156474, 28.007161)"><g><path d="M 10.171875 -11.46875 C 9.609375 -11.539062 9.113281 -11.578125 8.6875 -11.578125 C 7.144531 -11.578125 6.132812 -11.054688 5.65625 -10.015625 L 5.65625 0 L 1.5625 0 L 1.5625 -15.296875 L 5.421875 -15.296875 L 5.546875 -13.46875 C 6.359375 -14.875 7.492188 -15.578125 8.953125 -15.578125 C 9.398438 -15.578125 9.820312 -15.515625 10.21875 -15.390625 Z M 10.171875 -11.46875 "/></g></g><g transform="translate(45.716756, 28.007161)"><g><path d="M 5.40625 -15.296875 L 5.53125 -13.578125 C 6.613281 -14.910156 8.078125 -15.578125 9.921875 -15.578125 C 11.890625 -15.578125 13.242188 -14.800781 13.984375 -13.25 C 15.054688 -14.800781 16.585938 -15.578125 18.578125 -15.578125 C 20.234375 -15.578125 21.46875 -15.09375 22.28125 -14.125 C 23.09375 -13.164062 23.5 -11.710938 23.5 -9.765625 L 23.5 0 L 19.390625 0 L 19.390625 -9.75 C 19.390625 -10.625 19.21875 -11.257812 18.875 -11.65625 C 18.539062 -12.050781 17.945312 -12.25 17.09375 -12.25 C 15.863281 -12.25 15.015625 -11.664062 14.546875 -10.5 L 14.5625 0 L 10.46875 0 L 10.46875 -9.734375 C 10.46875 -10.617188 10.289062 -11.257812 9.9375 -11.65625 C 9.59375 -12.050781 9.003906 -12.25 8.171875 -12.25 C 7.015625 -12.25 6.175781 -11.769531 5.65625 -10.8125 L 5.65625 0 L 1.5625 0 L 1.5625 -15.296875 Z M 5.40625 -15.296875 "/></g></g><g transform="translate(70.781521, 28.007161)"><g><path d="M 5.875 0 L 1.78125 0 L 1.78125 -15.296875 L 5.875 -15.296875 Z M 1.546875 -19.25 C 1.546875 -19.863281 1.75 -20.367188 2.15625 -20.765625 C 2.5625 -21.160156 3.117188 -21.359375 3.828125 -21.359375 C 4.523438 -21.359375 5.082031 -21.160156 5.5 -20.765625 C 5.914062 -20.367188 6.125 -19.863281 6.125 -19.25 C 6.125 -18.632812 5.910156 -18.128906 5.484375 -17.734375 C 5.066406 -17.335938 4.515625 -17.140625 3.828125 -17.140625 C 3.140625 -17.140625 2.585938 -17.335938 2.171875 -17.734375 C 1.753906 -18.128906 1.546875 -18.632812 1.546875 -19.25 Z M 1.546875 -19.25 "/></g></g><g transform="translate(78.457871, 28.007161)"><g><path d="M 5.328125 -15.296875 L 5.453125 -13.53125 C 6.546875 -14.894531 8.015625 -15.578125 9.859375 -15.578125 C 11.472656 -15.578125 12.675781 -15.097656 13.46875 -14.140625 C 14.257812 -13.191406 14.664062 -11.769531 14.6875 -9.875 L 14.6875 0 L 10.609375 0 L 10.609375 -9.78125 C 10.609375 -10.644531 10.414062 -11.269531 10.03125 -11.65625 C 9.65625 -12.050781 9.03125 -12.25 8.15625 -12.25 C 7.007812 -12.25 6.144531 -11.757812 5.5625 -10.78125 L 5.5625 0 L 1.484375 0 L 1.484375 -15.296875 Z M 5.328125 -15.296875 "/></g></g></g></g></g><g clip-path="url(#e805f43e5c)"><g transform="matrix(1, 0, 0, 1, 365, 43)"><g clip-path="url(#99737a0c23)"><g clip-path="url(#fd737b9ab5)"><path fill="#dfb0b0" d="M 44.394531 66.945312 C 48.796875 66.910156 53.644531 66.457031 58.152344 66.625 C 62.941406 66.8125 67.515625 68.414062 72.21875 69.167969 C 80.507812 70.320312 88.082031 64.769531 92.503906 58.167969 C 95.757812 53.492188 96.96875 47.648438 96.320312 41.996094 C 96.203125 40.105469 95.429688 38.445312 94.730469 36.757812 C 93.796875 34.503906 92.757812 32.292969 91.238281 30.355469 C 86.253906 24.285156 79.207031 20.472656 73.257812 15.472656 C 72.671875 15.011719 72.269531 14.410156 71.929688 13.75 C 70.074219 9.910156 68.148438 5.730469 64.070312 3.835938 C 57.433594 0.132812 48.726562 1.203125 43.054688 6.277344 C 41.640625 7.574219 40.457031 9.089844 39.027344 10.355469 C 34.890625 14.203125 30.804688 18.890625 25.054688 20.113281 C 18.96875 20.640625 15.800781 16.097656 9.277344 18.164062 C 2.964844 19.832031 0.828125 27.203125 1.105469 33.082031 C 1.574219 38.40625 3.703125 43.472656 6.546875 47.941406 C 15.789062 61.242188 28.324219 67.238281 44.394531 66.945312 Z M 44.394531 66.945312 " fill-opacity="1" fill-rule="nonzero"/></g></g></g></g><g fill="#000000" fill-opacity="1"><g transform="translate(13.523167, 311.430075)"><g><path d="M 2.84375 0 L 2.84375 -31.890625 L 12.65625 -31.890625 C 15.457031 -31.890625 17.960938 -31.257812 20.171875 -30 C 22.390625 -28.738281 24.117188 -26.941406 25.359375 -24.609375 C 26.609375 -22.273438 27.234375 -19.628906 27.234375 -16.671875 L 27.234375 -15.203125 C 27.234375 -12.234375 26.617188 -9.59375 25.390625 -7.28125 C 24.171875 -4.976562 22.453125 -3.191406 20.234375 -1.921875 C 18.015625 -0.648438 15.507812 -0.0078125 12.71875 0 Z M 9.421875 -26.5625 L 9.421875 -5.28125 L 12.59375 -5.28125 C 15.164062 -5.28125 17.128906 -6.117188 18.484375 -7.796875 C 19.847656 -9.472656 20.539062 -11.875 20.5625 -15 L 20.5625 -16.6875 C 20.5625 -19.925781 19.890625 -22.378906 18.546875 -24.046875 C 17.203125 -25.722656 15.238281 -26.5625 12.65625 -26.5625 Z M 9.421875 -26.5625 "/></g></g></g></g></g></g></svg>