<svg xmlns="http://www.w3.org/2000/svg" xmlns:xlink="http://www.w3.org/1999/xlink" width="574" zoomAndPan="magnify" viewBox="0 0 430.5 77.999999" height="104" preserveAspectRatio="xMidYMid meet" version="1.0"><defs><g/><clipPath id="fb0eb52889"><path d="M 5.261719 2.175781 L 424.445312 2.175781 L 424.445312 75.589844 L 5.261719 75.589844 Z M 5.261719 2.175781 " clip-rule="nonzero"/></clipPath></defs><g fill="#000000" fill-opacity="1"><g transform="translate(15.173772, 51.676675)"><g><path d="M 22.109375 0 L 19.671875 -7.015625 L 9.1875 -7.015625 L 6.75 0 L 1 0 L 11.015625 -27.484375 L 17.8125 -27.484375 L 27.796875 0 Z M 14.421875 -23.25 L 14.296875 -22.828125 C 14.171875 -22.359375 14.015625 -21.820312 13.828125 -21.21875 C 13.648438 -20.625 12.53125 -17.335938 10.46875 -11.359375 L 18.375 -11.359375 L 15.671875 -19.25 L 14.828125 -21.90625 Z M 14.421875 -23.25 "/></g></g></g><g fill="#000000" fill-opacity="1"><g transform="translate(42.541602, 51.676675)"><g/></g></g><g fill="#000000" fill-opacity="1"><g transform="translate(53.640912, 51.676675)"><g><path d="M 1.65625 -16.421875 L 1.65625 -20.78125 L 21.6875 -20.78125 L 21.6875 -16.421875 Z M 1.65625 -5.671875 L 1.65625 -9.984375 L 21.6875 -9.984375 L 21.6875 -5.671875 Z M 1.65625 -5.671875 "/></g></g></g><g fill="#000000" fill-opacity="1"><g transform="translate(76.970908, 51.676675)"><g/></g></g><g fill="#000000" fill-opacity="1"><g transform="translate(88.070218, 51.676675)"><g><path d="M 20.734375 -14.1875 C 20.734375 -9.300781 19.84375 -5.648438 18.0625 -3.234375 C 16.28125 -0.816406 13.75 0.390625 10.46875 0.390625 C 8.050781 0.390625 6.15625 -0.125 4.78125 -1.15625 C 3.414062 -2.195312 2.445312 -3.832031 1.875 -6.0625 L 7.015625 -6.78125 C 7.523438 -4.875 8.695312 -3.921875 10.53125 -3.921875 C 12.070312 -3.921875 13.253906 -4.65625 14.078125 -6.125 C 14.898438 -7.59375 15.328125 -9.769531 15.359375 -12.65625 C 14.859375 -11.6875 14.046875 -10.925781 12.921875 -10.375 C 11.796875 -9.820312 10.582031 -9.546875 9.28125 -9.546875 C 6.863281 -9.546875 4.941406 -10.363281 3.515625 -12 C 2.097656 -13.644531 1.390625 -15.875 1.390625 -18.6875 C 1.390625 -21.570312 2.222656 -23.828125 3.890625 -25.453125 C 5.566406 -27.078125 7.929688 -27.890625 10.984375 -27.890625 C 14.273438 -27.890625 16.722656 -26.75 18.328125 -24.46875 C 19.929688 -22.1875 20.734375 -18.757812 20.734375 -14.1875 Z M 14.9375 -18.03125 C 14.9375 -19.726562 14.5625 -21.082031 13.8125 -22.09375 C 13.070312 -23.101562 12.082031 -23.609375 10.84375 -23.609375 C 9.632812 -23.609375 8.679688 -23.164062 7.984375 -22.28125 C 7.285156 -21.40625 6.9375 -20.195312 6.9375 -18.65625 C 6.9375 -17.132812 7.28125 -15.910156 7.96875 -14.984375 C 8.664062 -14.066406 9.628906 -13.609375 10.859375 -13.609375 C 12.035156 -13.609375 13.007812 -14.007812 13.78125 -14.8125 C 14.550781 -15.613281 14.9375 -16.6875 14.9375 -18.03125 Z M 14.9375 -18.03125 "/></g></g></g><g fill="#000000" fill-opacity="1"><g transform="translate(110.288339, 51.676675)"><g><path d="M 8.421875 -1.28125 C 8.421875 0.269531 8.253906 1.644531 7.921875 2.84375 C 7.597656 4.039062 7.066406 5.15625 6.328125 6.1875 L 2.71875 6.1875 C 3.476562 5.257812 4.097656 4.242188 4.578125 3.140625 C 5.066406 2.035156 5.3125 0.988281 5.3125 0 L 2.796875 0 L 2.796875 -5.953125 L 8.421875 -5.953125 Z M 8.421875 -1.28125 "/></g></g></g><g fill="#000000" fill-opacity="1"><g transform="translate(121.387649, 51.676675)"><g/></g></g><g fill="#000000" fill-opacity="1"><g transform="translate(132.486959, 51.676675)"><g><path d="M 27.03125 -7.84375 C 27.03125 -5.34375 26.09375 -3.410156 24.21875 -2.046875 C 22.351562 -0.679688 19.753906 0 16.421875 0 L 2.671875 0 L 2.671875 -27.484375 L 15.25 -27.484375 C 18.601562 -27.484375 21.140625 -26.898438 22.859375 -25.734375 C 24.585938 -24.578125 25.453125 -22.859375 25.453125 -20.578125 C 25.453125 -19.015625 25.019531 -17.695312 24.15625 -16.625 C 23.289062 -15.550781 21.972656 -14.828125 20.203125 -14.453125 C 22.429688 -14.191406 24.125 -13.492188 25.28125 -12.359375 C 26.445312 -11.222656 27.03125 -9.71875 27.03125 -7.84375 Z M 19.671875 -19.796875 C 19.671875 -21.035156 19.273438 -21.914062 18.484375 -22.4375 C 17.691406 -22.957031 16.523438 -23.21875 14.984375 -23.21875 L 8.421875 -23.21875 L 8.421875 -16.40625 L 15.015625 -16.40625 C 16.640625 -16.40625 17.820312 -16.6875 18.5625 -17.25 C 19.300781 -17.820312 19.671875 -18.671875 19.671875 -19.796875 Z M 21.265625 -8.296875 C 21.265625 -10.867188 19.414062 -12.15625 15.71875 -12.15625 L 8.421875 -12.15625 L 8.421875 -4.265625 L 15.9375 -4.265625 C 17.78125 -4.265625 19.128906 -4.597656 19.984375 -5.265625 C 20.835938 -5.941406 21.265625 -6.953125 21.265625 -8.296875 Z M 21.265625 -8.296875 "/></g></g></g><g fill="#000000" fill-opacity="1"><g transform="translate(161.337353, 51.676675)"><g/></g></g><g fill="#000000" fill-opacity="1"><g transform="translate(172.436663, 51.676675)"><g><path d="M 1.65625 -16.421875 L 1.65625 -20.78125 L 21.6875 -20.78125 L 21.6875 -16.421875 Z M 1.65625 -5.671875 L 1.65625 -9.984375 L 21.6875 -9.984375 L 21.6875 -5.671875 Z M 1.65625 -5.671875 "/></g></g></g><g fill="#000000" fill-opacity="1"><g transform="translate(195.76666, 51.676675)"><g/></g></g><g fill="#000000" fill-opacity="1"><g transform="translate(206.86597, 51.676675)"><g><path d="M 20.78125 -7.625 C 20.78125 -5.050781 19.929688 -3.0625 18.234375 -1.65625 C 16.546875 -0.25 14.140625 0.453125 11.015625 0.453125 C 8.066406 0.453125 5.71875 -0.222656 3.96875 -1.578125 C 2.226562 -2.941406 1.210938 -4.90625 0.921875 -7.46875 L 6.5 -7.953125 C 6.84375 -5.316406 8.34375 -4 11 -4 C 12.3125 -4 13.332031 -4.320312 14.0625 -4.96875 C 14.789062 -5.625 15.15625 -6.617188 15.15625 -7.953125 C 15.15625 -9.179688 14.710938 -10.117188 13.828125 -10.765625 C 12.941406 -11.421875 11.628906 -11.75 9.890625 -11.75 L 7.984375 -11.75 L 7.984375 -16.171875 L 9.78125 -16.171875 C 11.351562 -16.171875 12.535156 -16.492188 13.328125 -17.140625 C 14.117188 -17.785156 14.515625 -18.707031 14.515625 -19.90625 C 14.515625 -21.03125 14.195312 -21.914062 13.5625 -22.5625 C 12.9375 -23.207031 12.019531 -23.53125 10.8125 -23.53125 C 9.675781 -23.53125 8.757812 -23.21875 8.0625 -22.59375 C 7.363281 -21.96875 6.960938 -21.082031 6.859375 -19.9375 L 1.390625 -20.328125 C 1.671875 -22.691406 2.648438 -24.539062 4.328125 -25.875 C 6.003906 -27.21875 8.195312 -27.890625 10.90625 -27.890625 C 13.78125 -27.890625 16.023438 -27.242188 17.640625 -25.953125 C 19.265625 -24.660156 20.078125 -22.867188 20.078125 -20.578125 C 20.078125 -18.859375 19.570312 -17.445312 18.5625 -16.34375 C 17.550781 -15.238281 16.097656 -14.503906 14.203125 -14.140625 L 14.203125 -14.0625 C 16.304688 -13.8125 17.925781 -13.117188 19.0625 -11.984375 C 20.207031 -10.847656 20.78125 -9.394531 20.78125 -7.625 Z M 20.78125 -7.625 "/></g></g></g><g fill="#000000" fill-opacity="1"><g transform="translate(229.084103, 51.676675)"><g><path d="M 21.109375 -9.15625 C 21.109375 -6.238281 20.203125 -3.914062 18.390625 -2.1875 C 16.578125 -0.46875 14.085938 0.390625 10.921875 0.390625 C 8.160156 0.390625 5.953125 -0.226562 4.296875 -1.46875 C 2.640625 -2.707031 1.617188 -4.503906 1.234375 -6.859375 L 6.703125 -7.3125 C 6.992188 -6.144531 7.503906 -5.289062 8.234375 -4.75 C 8.960938 -4.21875 9.878906 -3.953125 10.984375 -3.953125 C 12.347656 -3.953125 13.4375 -4.390625 14.25 -5.265625 C 15.0625 -6.140625 15.46875 -7.394531 15.46875 -9.03125 C 15.46875 -10.476562 15.082031 -11.632812 14.3125 -12.5 C 13.550781 -13.363281 12.476562 -13.796875 11.09375 -13.796875 C 9.570312 -13.796875 8.332031 -13.203125 7.375 -12.015625 L 2.03125 -12.015625 L 2.984375 -27.484375 L 19.515625 -27.484375 L 19.515625 -23.40625 L 7.953125 -23.40625 L 7.515625 -16.46875 C 8.835938 -17.632812 10.492188 -18.21875 12.484375 -18.21875 C 15.097656 -18.21875 17.1875 -17.40625 18.75 -15.78125 C 20.320312 -14.15625 21.109375 -11.945312 21.109375 -9.15625 Z M 21.109375 -9.15625 "/></g></g></g><g fill="#000000" fill-opacity="1"><g transform="translate(251.302223, 51.676675)"><g><path d="M 8.421875 -1.28125 C 8.421875 0.269531 8.253906 1.644531 7.921875 2.84375 C 7.597656 4.039062 7.066406 5.15625 6.328125 6.1875 L 2.71875 6.1875 C 3.476562 5.257812 4.097656 4.242188 4.578125 3.140625 C 5.066406 2.035156 5.3125 0.988281 5.3125 0 L 2.796875 0 L 2.796875 -5.953125 L 8.421875 -5.953125 Z M 8.421875 -1.28125 "/></g></g></g><g fill="#000000" fill-opacity="1"><g transform="translate(262.401522, 51.676675)"><g/></g></g><g fill="#000000" fill-opacity="1"><g transform="translate(273.500821, 51.676675)"><g><path d="M 15.515625 -4.140625 C 18.984375 -4.140625 21.394531 -5.878906 22.75 -9.359375 L 27.765625 -7.46875 C 26.679688 -4.8125 25.09375 -2.835938 23 -1.546875 C 20.914062 -0.253906 18.421875 0.390625 15.515625 0.390625 C 11.085938 0.390625 7.664062 -0.859375 5.25 -3.359375 C 2.84375 -5.867188 1.640625 -9.375 1.640625 -13.875 C 1.640625 -18.382812 2.800781 -21.847656 5.125 -24.265625 C 7.457031 -26.679688 10.832031 -27.890625 15.25 -27.890625 C 18.476562 -27.890625 21.109375 -27.242188 23.140625 -25.953125 C 25.171875 -24.660156 26.59375 -22.757812 27.40625 -20.25 L 22.34375 -18.859375 C 21.90625 -20.242188 21.054688 -21.34375 19.796875 -22.15625 C 18.546875 -22.96875 17.070312 -23.375 15.375 -23.375 C 12.769531 -23.375 10.796875 -22.566406 9.453125 -20.953125 C 8.109375 -19.335938 7.4375 -16.976562 7.4375 -13.875 C 7.4375 -10.707031 8.128906 -8.289062 9.515625 -6.625 C 10.898438 -4.96875 12.898438 -4.140625 15.515625 -4.140625 Z M 15.515625 -4.140625 "/></g></g></g><g fill="#000000" fill-opacity="1"><g transform="translate(302.351238, 51.676675)"><g/></g></g><g fill="#000000" fill-opacity="1"><g transform="translate(313.450537, 51.676675)"><g><path d="M 1.65625 -16.421875 L 1.65625 -20.78125 L 21.6875 -20.78125 L 21.6875 -16.421875 Z M 1.65625 -5.671875 L 1.65625 -9.984375 L 21.6875 -9.984375 L 21.6875 -5.671875 Z M 1.65625 -5.671875 "/></g></g></g><g fill="#000000" fill-opacity="1"><g transform="translate(336.780533, 51.676675)"><g/></g></g><g fill="#000000" fill-opacity="1"><g transform="translate(347.879855, 51.676675)"><g><path d="M 2.515625 0 L 2.515625 -4.078125 L 9.328125 -4.078125 L 9.328125 -22.828125 L 2.734375 -18.703125 L 2.734375 -23.015625 L 9.625 -27.484375 L 14.8125 -27.484375 L 14.8125 -4.078125 L 21.109375 -4.078125 L 21.109375 0 Z M 2.515625 0 "/></g></g></g><g fill="#000000" fill-opacity="1"><g transform="translate(370.097976, 51.676675)"><g><path d="M 18.34375 -5.59375 L 18.34375 0 L 13.109375 0 L 13.109375 -5.59375 L 0.609375 -5.59375 L 0.609375 -9.71875 L 12.21875 -27.484375 L 18.34375 -27.484375 L 18.34375 -9.671875 L 22 -9.671875 L 22 -5.59375 Z M 13.109375 -18.671875 C 13.109375 -19.367188 13.128906 -20.128906 13.171875 -20.953125 C 13.222656 -21.773438 13.257812 -22.300781 13.28125 -22.53125 C 12.945312 -21.800781 12.335938 -20.75 11.453125 -19.375 L 5.078125 -9.671875 L 13.109375 -9.671875 Z M 13.109375 -18.671875 "/></g></g></g><g fill="#000000" fill-opacity="1"><g transform="translate(392.316096, 51.676675)"><g><path d="M 18.34375 -5.59375 L 18.34375 0 L 13.109375 0 L 13.109375 -5.59375 L 0.609375 -5.59375 L 0.609375 -9.71875 L 12.21875 -27.484375 L 18.34375 -27.484375 L 18.34375 -9.671875 L 22 -9.671875 L 22 -5.59375 Z M 13.109375 -18.671875 C 13.109375 -19.367188 13.128906 -20.128906 13.171875 -20.953125 C 13.222656 -21.773438 13.257812 -22.300781 13.28125 -22.53125 C 12.945312 -21.800781 12.335938 -20.75 11.453125 -19.375 L 5.078125 -9.671875 L 13.109375 -9.671875 Z M 13.109375 -18.671875 "/></g></g></g><g clip-path="url(#fb0eb52889)"><path stroke-linecap="butt" transform="matrix(0.74913, 0, 0, 0.74913, 5.260632, 2.173948)" fill="none" stroke-linejoin="miter" d="M 0.00145128 0.00244784 L 559.562075 0.00244784 L 559.562075 98.157988 L 0.00145128 98.157988 Z M 0.00145128 0.00244784 " stroke="#000000" stroke-width="12" stroke-opacity="1" stroke-miterlimit="4"/></g></svg>