<svg xmlns="http://www.w3.org/2000/svg" xmlns:xlink="http://www.w3.org/1999/xlink" width="226" zoomAndPan="magnify" viewBox="0 0 169.5 173.999997" height="232" preserveAspectRatio="xMidYMid meet" version="1.0"><defs><g/><clipPath id="1dc4cedc5e"><path d="M 12.011719 14.535156 L 156.328125 14.535156 L 156.328125 158.859375 L 12.011719 158.859375 Z M 12.011719 14.535156 " clip-rule="nonzero"/></clipPath></defs><g clip-path="url(#1dc4cedc5e)"><path stroke-linecap="butt" transform="matrix(0.747794, 0, 0, 0.747794, 12.010207, 14.536392)" fill="none" stroke-linejoin="miter" d="M 0.00202108 -0.00165201 L 193.205679 -0.00165201 L 193.205679 193.154993 L 0.00202108 193.154993 Z M 0.00202108 -0.00165201 " stroke="#000000" stroke-width="12" stroke-opacity="1" stroke-miterlimit="4"/></g><g fill="#000000" fill-opacity="1"><g transform="translate(28.187623, 119.664444)"><g><path d="M 18.75 -40.84375 L 26.09375 -40.84375 C 29.59375 -40.84375 32.1875 -41.710938 33.875 -43.453125 C 35.5625 -45.203125 36.40625 -47.523438 36.40625 -50.421875 C 36.40625 -53.222656 35.566406 -55.398438 33.890625 -56.953125 C 32.222656 -58.515625 29.925781 -59.296875 27 -59.296875 C 24.363281 -59.296875 22.15625 -58.570312 20.375 -57.125 C 18.59375 -55.675781 17.703125 -53.789062 17.703125 -51.46875 L 3.90625 -51.46875 C 3.90625 -55.09375 4.882812 -58.34375 6.84375 -61.21875 C 8.800781 -64.101562 11.535156 -66.359375 15.046875 -67.984375 C 18.566406 -69.609375 22.441406 -70.421875 26.671875 -70.421875 C 34.015625 -70.421875 39.769531 -68.660156 43.9375 -65.140625 C 48.101562 -61.628906 50.1875 -56.785156 50.1875 -50.609375 C 50.1875 -47.429688 49.210938 -44.503906 47.265625 -41.828125 C 45.328125 -39.160156 42.785156 -37.113281 39.640625 -35.6875 C 43.554688 -34.28125 46.472656 -32.175781 48.390625 -29.375 C 50.316406 -26.582031 51.28125 -23.28125 51.28125 -19.46875 C 51.28125 -13.289062 49.03125 -8.34375 44.53125 -4.625 C 40.03125 -0.90625 34.078125 0.953125 26.671875 0.953125 C 19.734375 0.953125 14.0625 -0.875 9.65625 -4.53125 C 5.25 -8.1875 3.046875 -13.019531 3.046875 -19.03125 L 16.84375 -19.03125 C 16.84375 -16.425781 17.816406 -14.296875 19.765625 -12.640625 C 21.722656 -10.984375 24.132812 -10.15625 27 -10.15625 C 30.28125 -10.15625 32.847656 -11.019531 34.703125 -12.75 C 36.566406 -14.488281 37.5 -16.789062 37.5 -19.65625 C 37.5 -26.59375 33.679688 -30.0625 26.046875 -30.0625 L 18.75 -30.0625 Z M 18.75 -40.84375 "/></g></g></g><g fill="#000000" fill-opacity="1"><g transform="translate(84.243369, 119.664444)"><g><path d="M 42.125 -70.171875 L 42.125 -58.828125 L 40.796875 -58.828125 C 34.554688 -58.722656 29.535156 -57.097656 25.734375 -53.953125 C 21.929688 -50.804688 19.648438 -46.4375 18.890625 -40.84375 C 22.578125 -44.59375 27.238281 -46.46875 32.875 -46.46875 C 38.914062 -46.46875 43.71875 -44.300781 47.28125 -39.96875 C 50.84375 -35.644531 52.625 -29.957031 52.625 -22.90625 C 52.625 -18.382812 51.644531 -14.296875 49.6875 -10.640625 C 47.726562 -6.984375 44.957031 -4.132812 41.375 -2.09375 C 37.800781 -0.0625 33.757812 0.953125 29.25 0.953125 C 21.925781 0.953125 16.015625 -1.585938 11.515625 -6.671875 C 7.015625 -11.765625 4.765625 -18.554688 4.765625 -27.046875 L 4.765625 -32.015625 C 4.765625 -39.546875 6.1875 -46.195312 9.03125 -51.96875 C 11.882812 -57.75 15.972656 -62.21875 21.296875 -65.375 C 26.628906 -68.539062 32.804688 -70.140625 39.828125 -70.171875 Z M 28.671875 -35.390625 C 26.441406 -35.390625 24.421875 -34.8125 22.609375 -33.65625 C 20.796875 -32.5 19.460938 -30.960938 18.609375 -29.046875 L 18.609375 -24.859375 C 18.609375 -20.242188 19.515625 -16.640625 21.328125 -14.046875 C 23.140625 -11.453125 25.679688 -10.15625 28.953125 -10.15625 C 31.910156 -10.15625 34.300781 -11.320312 36.125 -13.65625 C 37.957031 -16 38.875 -19.03125 38.875 -22.75 C 38.875 -26.539062 37.953125 -29.59375 36.109375 -31.90625 C 34.265625 -34.226562 31.785156 -35.390625 28.671875 -35.390625 Z M 28.671875 -35.390625 "/></g></g></g></svg>