<svg xmlns="http://www.w3.org/2000/svg" xmlns:xlink="http://www.w3.org/1999/xlink" width="400" zoomAndPan="magnify" viewBox="0 0 300 173.999997" height="232" preserveAspectRatio="xMidYMid meet" version="1.0"><defs><g/><clipPath id="def2bbacb7"><path d="M 0 11.878906 L 299.648438 11.878906 L 299.648438 161.640625 L 0 161.640625 Z M 0 11.878906 " clip-rule="nonzero"/></clipPath></defs><g clip-path="url(#def2bbacb7)"><path stroke-linecap="butt" transform="matrix(0.75, 0, 0, 0.75, 0.00000293103, 11.879993)" fill="none" stroke-linejoin="miter" d="M -0.00000390805 -0.00144872 L 399.531271 -0.00144872 L 399.531271 199.680855 L -0.00000390805 199.680855 Z M -0.00000390805 -0.00144872 " stroke="#000000" stroke-width="12" stroke-opacity="1" stroke-miterlimit="4"/></g><g fill="#000000" fill-opacity="1"><g transform="translate(93.601828, 119.760799)"><g><path d="M 6.796875 -34.265625 L 10.8125 -69.671875 L 49.859375 -69.671875 L 49.859375 -58.140625 L 22.15625 -58.140625 L 20.4375 -43.15625 C 23.71875 -44.914062 27.207031 -45.796875 30.90625 -45.796875 C 37.539062 -45.796875 42.738281 -43.738281 46.5 -39.625 C 50.269531 -35.507812 52.15625 -29.75 52.15625 -22.34375 C 52.15625 -17.84375 51.207031 -13.8125 49.3125 -10.25 C 47.414062 -6.695312 44.695312 -3.941406 41.15625 -1.984375 C 37.613281 -0.0234375 33.429688 0.953125 28.609375 0.953125 C 24.398438 0.953125 20.492188 0.101562 16.890625 -1.59375 C 13.285156 -3.300781 10.4375 -5.703125 8.34375 -8.796875 C 6.257812 -11.898438 5.15625 -15.425781 5.03125 -19.375 L 18.703125 -19.375 C 18.992188 -16.476562 20.007812 -14.222656 21.75 -12.609375 C 23.488281 -10.992188 25.757812 -10.1875 28.5625 -10.1875 C 31.6875 -10.1875 34.09375 -11.3125 35.78125 -13.5625 C 37.476562 -15.8125 38.328125 -18.992188 38.328125 -23.109375 C 38.328125 -27.066406 37.351562 -30.097656 35.40625 -32.203125 C 33.457031 -34.304688 30.695312 -35.359375 27.125 -35.359375 C 23.84375 -35.359375 21.179688 -34.5 19.140625 -32.78125 L 17.796875 -31.53125 Z M 6.796875 -34.265625 "/></g></g></g><g fill="#000000" fill-opacity="1"><g transform="translate(149.822929, 119.760799)"><g><path d="M 6.796875 -34.265625 L 10.8125 -69.671875 L 49.859375 -69.671875 L 49.859375 -58.140625 L 22.15625 -58.140625 L 20.4375 -43.15625 C 23.71875 -44.914062 27.207031 -45.796875 30.90625 -45.796875 C 37.539062 -45.796875 42.738281 -43.738281 46.5 -39.625 C 50.269531 -35.507812 52.15625 -29.75 52.15625 -22.34375 C 52.15625 -17.84375 51.207031 -13.8125 49.3125 -10.25 C 47.414062 -6.695312 44.695312 -3.941406 41.15625 -1.984375 C 37.613281 -0.0234375 33.429688 0.953125 28.609375 0.953125 C 24.398438 0.953125 20.492188 0.101562 16.890625 -1.59375 C 13.285156 -3.300781 10.4375 -5.703125 8.34375 -8.796875 C 6.257812 -11.898438 5.15625 -15.425781 5.03125 -19.375 L 18.703125 -19.375 C 18.992188 -16.476562 20.007812 -14.222656 21.75 -12.609375 C 23.488281 -10.992188 25.757812 -10.1875 28.5625 -10.1875 C 31.6875 -10.1875 34.09375 -11.3125 35.78125 -13.5625 C 37.476562 -15.8125 38.328125 -18.992188 38.328125 -23.109375 C 38.328125 -27.066406 37.351562 -30.097656 35.40625 -32.203125 C 33.457031 -34.304688 30.695312 -35.359375 27.125 -35.359375 C 23.84375 -35.359375 21.179688 -34.5 19.140625 -32.78125 L 17.796875 -31.53125 Z M 6.796875 -34.265625 "/></g></g></g></svg>