<svg xmlns="http://www.w3.org/2000/svg" xmlns:xlink="http://www.w3.org/1999/xlink" width="571" zoomAndPan="magnify" viewBox="0 0 428.25 74.249996" height="99" preserveAspectRatio="xMidYMid meet" version="1.0"><defs><g/><clipPath id="ffdfe94d4b"><path d="M 5.695312 0 L 421.171875 0 L 421.171875 72.765625 L 5.695312 72.765625 Z M 5.695312 0 " clip-rule="nonzero"/></clipPath></defs><g clip-path="url(#ffdfe94d4b)"><path stroke-linecap="butt" transform="matrix(0.7425, 0, 0, 0.7425, 5.693872, -0.00000198)" fill="none" stroke-linejoin="miter" d="M 0.00194001 0.00000266667 L 559.566387 0.00000266667 L 559.566387 98.158682 L 0.00194001 98.158682 Z M 0.00194001 0.00000266667 " stroke="#000000" stroke-width="12" stroke-opacity="1" stroke-miterlimit="4"/></g><g fill="#000000" fill-opacity="1"><g transform="translate(11.967004, 49.064615)"><g><path d="M 3.328125 0.3125 C 2.691406 0.3125 2.179688 0.171875 1.796875 -0.109375 C 1.421875 -0.398438 1.191406 -0.789062 1.109375 -1.28125 C 1.023438 -1.769531 1.117188 -2.320312 1.390625 -2.9375 L 11.84375 -26.09375 C 12.1875 -26.851562 12.597656 -27.398438 13.078125 -27.734375 C 13.566406 -28.066406 14.128906 -28.234375 14.765625 -28.234375 C 15.367188 -28.234375 15.914062 -28.066406 16.40625 -27.734375 C 16.894531 -27.398438 17.3125 -26.851562 17.65625 -26.09375 L 28.15625 -2.9375 C 28.445312 -2.320312 28.550781 -1.765625 28.46875 -1.265625 C 28.382812 -0.765625 28.15625 -0.375 27.78125 -0.09375 C 27.414062 0.175781 26.929688 0.3125 26.328125 0.3125 C 25.585938 0.3125 25.015625 0.132812 24.609375 -0.21875 C 24.203125 -0.570312 23.835938 -1.117188 23.515625 -1.859375 L 20.9375 -7.84375 L 23.078125 -6.453125 L 6.375 -6.453125 L 8.515625 -7.84375 L 5.984375 -1.859375 C 5.640625 -1.097656 5.28125 -0.546875 4.90625 -0.203125 C 4.539062 0.140625 4.015625 0.3125 3.328125 0.3125 Z M 14.6875 -22.40625 L 9.140625 -9.21875 L 8.109375 -10.5 L 21.34375 -10.5 L 20.34375 -9.21875 L 14.765625 -22.40625 Z M 14.6875 -22.40625 "/></g></g></g><g fill="#000000" fill-opacity="1"><g transform="translate(41.426473, 49.064615)"><g/></g></g><g fill="#000000" fill-opacity="1"><g transform="translate(52.157011, 49.064615)"><g><path d="M 3.6875 -13.578125 C 3.125 -13.578125 2.6875 -13.726562 2.375 -14.03125 C 2.0625 -14.332031 1.90625 -14.765625 1.90625 -15.328125 C 1.90625 -15.878906 2.0625 -16.304688 2.375 -16.609375 C 2.6875 -16.910156 3.125 -17.0625 3.6875 -17.0625 L 20.078125 -17.0625 C 20.648438 -17.0625 21.085938 -16.910156 21.390625 -16.609375 C 21.703125 -16.304688 21.859375 -15.878906 21.859375 -15.328125 C 21.859375 -14.765625 21.703125 -14.332031 21.390625 -14.03125 C 21.085938 -13.726562 20.648438 -13.578125 20.078125 -13.578125 Z M 3.6875 -5.703125 C 3.125 -5.703125 2.6875 -5.851562 2.375 -6.15625 C 2.0625 -6.457031 1.90625 -6.882812 1.90625 -7.4375 C 1.90625 -8 2.0625 -8.421875 2.375 -8.703125 C 2.6875 -8.992188 3.125 -9.140625 3.6875 -9.140625 L 20.078125 -9.140625 C 20.648438 -9.140625 21.085938 -8.992188 21.390625 -8.703125 C 21.703125 -8.421875 21.859375 -8 21.859375 -7.4375 C 21.859375 -6.863281 21.703125 -6.429688 21.390625 -6.140625 C 21.085938 -5.847656 20.648438 -5.703125 20.078125 -5.703125 Z M 3.6875 -5.703125 "/></g></g></g><g fill="#000000" fill-opacity="1"><g transform="translate(75.914652, 49.064615)"><g/></g></g><g fill="#000000" fill-opacity="1"><g transform="translate(86.64519, 49.064615)"><g><path d="M 12.90625 0.390625 C 10.613281 0.390625 8.65625 -0.15625 7.03125 -1.25 C 5.40625 -2.34375 4.171875 -3.914062 3.328125 -5.96875 C 2.484375 -8.03125 2.0625 -10.53125 2.0625 -13.46875 C 2.0625 -15.84375 2.332031 -17.945312 2.875 -19.78125 C 3.414062 -21.613281 4.195312 -23.160156 5.21875 -24.421875 C 6.25 -25.691406 7.507812 -26.65625 9 -27.3125 C 10.5 -27.976562 12.1875 -28.3125 14.0625 -28.3125 C 15.21875 -28.3125 16.394531 -28.128906 17.59375 -27.765625 C 18.800781 -27.410156 19.929688 -26.878906 20.984375 -26.171875 C 21.410156 -25.910156 21.6875 -25.566406 21.8125 -25.140625 C 21.945312 -24.722656 21.96875 -24.304688 21.875 -23.890625 C 21.78125 -23.484375 21.59375 -23.128906 21.3125 -22.828125 C 21.039062 -22.523438 20.691406 -22.335938 20.265625 -22.265625 C 19.847656 -22.203125 19.390625 -22.316406 18.890625 -22.609375 C 17.992188 -23.140625 17.148438 -23.507812 16.359375 -23.71875 C 15.566406 -23.925781 14.773438 -24.03125 13.984375 -24.03125 C 12.453125 -24.03125 11.15625 -23.671875 10.09375 -22.953125 C 9.039062 -22.242188 8.242188 -21.175781 7.703125 -19.75 C 7.160156 -18.332031 6.890625 -16.550781 6.890625 -14.40625 L 6.890625 -11.4375 L 6.421875 -11.4375 C 6.628906 -12.789062 7.066406 -13.945312 7.734375 -14.90625 C 8.410156 -15.875 9.273438 -16.613281 10.328125 -17.125 C 11.390625 -17.632812 12.566406 -17.890625 13.859375 -17.890625 C 15.460938 -17.890625 16.882812 -17.503906 18.125 -16.734375 C 19.375 -15.972656 20.351562 -14.921875 21.0625 -13.578125 C 21.78125 -12.234375 22.140625 -10.691406 22.140625 -8.953125 C 22.140625 -7.148438 21.75 -5.539062 20.96875 -4.125 C 20.1875 -2.71875 19.101562 -1.613281 17.71875 -0.8125 C 16.332031 -0.0078125 14.726562 0.390625 12.90625 0.390625 Z M 12.625 -3.640625 C 13.582031 -3.640625 14.421875 -3.847656 15.140625 -4.265625 C 15.867188 -4.691406 16.429688 -5.296875 16.828125 -6.078125 C 17.222656 -6.859375 17.421875 -7.75 17.421875 -8.75 C 17.421875 -9.78125 17.222656 -10.675781 16.828125 -11.4375 C 16.429688 -12.207031 15.867188 -12.804688 15.140625 -13.234375 C 14.421875 -13.671875 13.582031 -13.890625 12.625 -13.890625 C 11.675781 -13.890625 10.84375 -13.671875 10.125 -13.234375 C 9.414062 -12.804688 8.859375 -12.207031 8.453125 -11.4375 C 8.046875 -10.675781 7.84375 -9.78125 7.84375 -8.75 C 7.84375 -7.75 8.046875 -6.859375 8.453125 -6.078125 C 8.859375 -5.296875 9.414062 -4.691406 10.125 -4.265625 C 10.84375 -3.847656 11.675781 -3.640625 12.625 -3.640625 Z M 12.625 -3.640625 "/></g></g></g><g fill="#000000" fill-opacity="1"><g transform="translate(110.402831, 49.064615)"><g><path d="M 5.578125 4.234375 C 5.234375 4.660156 4.867188 4.90625 4.484375 4.96875 C 4.109375 5.03125 3.773438 4.957031 3.484375 4.75 C 3.191406 4.539062 3.03125 4.242188 3 3.859375 C 2.976562 3.472656 3.15625 3.054688 3.53125 2.609375 C 4.050781 1.953125 4.40625 1.289062 4.59375 0.625 C 4.78125 -0.03125 4.875 -0.617188 4.875 -1.140625 L 5.0625 0.203125 C 4.144531 0.203125 3.398438 -0.0664062 2.828125 -0.609375 C 2.265625 -1.148438 1.984375 -1.867188 1.984375 -2.765625 C 1.984375 -3.609375 2.242188 -4.300781 2.765625 -4.84375 C 3.296875 -5.382812 4.007812 -5.65625 4.90625 -5.65625 C 5.832031 -5.65625 6.554688 -5.34375 7.078125 -4.71875 C 7.609375 -4.101562 7.875 -3.21875 7.875 -2.0625 C 7.875 -1.425781 7.8125 -0.769531 7.6875 -0.09375 C 7.570312 0.570312 7.347656 1.269531 7.015625 2 C 6.691406 2.726562 6.210938 3.472656 5.578125 4.234375 Z M 5.578125 4.234375 "/></g></g></g><g fill="#000000" fill-opacity="1"><g transform="translate(120.222658, 49.064615)"><g/></g></g><g fill="#000000" fill-opacity="1"><g transform="translate(130.953196, 49.064615)"><g><path d="M 5.734375 0 C 4.867188 0 4.203125 -0.226562 3.734375 -0.6875 C 3.273438 -1.15625 3.046875 -1.820312 3.046875 -2.6875 L 3.046875 -25.21875 C 3.046875 -26.09375 3.273438 -26.757812 3.734375 -27.21875 C 4.203125 -27.675781 4.867188 -27.90625 5.734375 -27.90625 L 15.25 -27.90625 C 17.195312 -27.90625 18.859375 -27.613281 20.234375 -27.03125 C 21.609375 -26.457031 22.65625 -25.628906 23.375 -24.546875 C 24.101562 -23.460938 24.46875 -22.171875 24.46875 -20.671875 C 24.46875 -18.984375 23.976562 -17.554688 23 -16.390625 C 22.019531 -15.234375 20.6875 -14.457031 19 -14.0625 L 19 -14.65625 C 20.957031 -14.363281 22.476562 -13.625 23.5625 -12.4375 C 24.644531 -11.25 25.1875 -9.703125 25.1875 -7.796875 C 25.1875 -5.316406 24.347656 -3.394531 22.671875 -2.03125 C 20.992188 -0.675781 18.660156 0 15.671875 0 Z M 7.921875 -3.84375 L 15.046875 -3.84375 C 16.835938 -3.84375 18.15625 -4.191406 19 -4.890625 C 19.84375 -5.585938 20.265625 -6.632812 20.265625 -8.03125 C 20.265625 -9.457031 19.84375 -10.515625 19 -11.203125 C 18.15625 -11.890625 16.835938 -12.234375 15.046875 -12.234375 L 7.921875 -12.234375 Z M 7.921875 -16.078125 L 14.375 -16.078125 C 16.113281 -16.078125 17.410156 -16.410156 18.265625 -17.078125 C 19.128906 -17.753906 19.5625 -18.753906 19.5625 -20.078125 C 19.5625 -21.390625 19.128906 -22.382812 18.265625 -23.0625 C 17.410156 -23.738281 16.113281 -24.078125 14.375 -24.078125 L 7.921875 -24.078125 Z M 7.921875 -16.078125 "/></g></g></g><g fill="#000000" fill-opacity="1"><g transform="translate(158.195293, 49.064615)"><g/></g></g><g fill="#000000" fill-opacity="1"><g transform="translate(168.925831, 49.064615)"><g><path d="M 3.6875 -13.578125 C 3.125 -13.578125 2.6875 -13.726562 2.375 -14.03125 C 2.0625 -14.332031 1.90625 -14.765625 1.90625 -15.328125 C 1.90625 -15.878906 2.0625 -16.304688 2.375 -16.609375 C 2.6875 -16.910156 3.125 -17.0625 3.6875 -17.0625 L 20.078125 -17.0625 C 20.648438 -17.0625 21.085938 -16.910156 21.390625 -16.609375 C 21.703125 -16.304688 21.859375 -15.878906 21.859375 -15.328125 C 21.859375 -14.765625 21.703125 -14.332031 21.390625 -14.03125 C 21.085938 -13.726562 20.648438 -13.578125 20.078125 -13.578125 Z M 3.6875 -5.703125 C 3.125 -5.703125 2.6875 -5.851562 2.375 -6.15625 C 2.0625 -6.457031 1.90625 -6.882812 1.90625 -7.4375 C 1.90625 -8 2.0625 -8.421875 2.375 -8.703125 C 2.6875 -8.992188 3.125 -9.140625 3.6875 -9.140625 L 20.078125 -9.140625 C 20.648438 -9.140625 21.085938 -8.992188 21.390625 -8.703125 C 21.703125 -8.421875 21.859375 -8 21.859375 -7.4375 C 21.859375 -6.863281 21.703125 -6.429688 21.390625 -6.140625 C 21.085938 -5.847656 20.648438 -5.703125 20.078125 -5.703125 Z M 3.6875 -5.703125 "/></g></g></g><g fill="#000000" fill-opacity="1"><g transform="translate(192.683472, 49.064615)"><g/></g></g><g fill="#000000" fill-opacity="1"><g transform="translate(203.414021, 49.064615)"><g><path d="M 5.265625 0 C 4.421875 0 3.804688 -0.1875 3.421875 -0.5625 C 3.035156 -0.945312 2.84375 -1.507812 2.84375 -2.25 C 2.84375 -2.707031 2.960938 -3.144531 3.203125 -3.5625 C 3.441406 -3.988281 3.785156 -4.4375 4.234375 -4.90625 L 12.1875 -13.375 C 13.40625 -14.644531 14.273438 -15.800781 14.796875 -16.84375 C 15.328125 -17.882812 15.59375 -18.9375 15.59375 -20 C 15.59375 -21.3125 15.175781 -22.3125 14.34375 -23 C 13.519531 -23.6875 12.316406 -24.03125 10.734375 -24.03125 C 9.835938 -24.03125 8.9375 -23.90625 8.03125 -23.65625 C 7.132812 -23.40625 6.226562 -22.976562 5.3125 -22.375 C 4.832031 -22.050781 4.382812 -21.914062 3.96875 -21.96875 C 3.5625 -22.019531 3.207031 -22.191406 2.90625 -22.484375 C 2.601562 -22.773438 2.398438 -23.128906 2.296875 -23.546875 C 2.191406 -23.972656 2.210938 -24.40625 2.359375 -24.84375 C 2.503906 -25.28125 2.8125 -25.65625 3.28125 -25.96875 C 4.414062 -26.738281 5.6875 -27.320312 7.09375 -27.71875 C 8.507812 -28.113281 9.929688 -28.3125 11.359375 -28.3125 C 13.367188 -28.3125 15.054688 -28.003906 16.421875 -27.390625 C 17.796875 -26.785156 18.835938 -25.898438 19.546875 -24.734375 C 20.265625 -23.578125 20.625 -22.171875 20.625 -20.515625 C 20.625 -19.398438 20.445312 -18.3125 20.09375 -17.25 C 19.738281 -16.195312 19.195312 -15.128906 18.46875 -14.046875 C 17.738281 -12.972656 16.796875 -11.828125 15.640625 -10.609375 L 8.203125 -2.84375 L 8.203125 -4.203125 L 19.84375 -4.203125 C 20.550781 -4.203125 21.085938 -4.03125 21.453125 -3.6875 C 21.828125 -3.34375 22.015625 -2.828125 22.015625 -2.140625 C 22.015625 -1.453125 21.828125 -0.921875 21.453125 -0.546875 C 21.085938 -0.179688 20.550781 0 19.84375 0 Z M 5.265625 0 "/></g></g></g><g fill="#000000" fill-opacity="1"><g transform="translate(227.171662, 49.064615)"><g><path d="M 16.359375 0.3125 C 15.566406 0.3125 14.941406 0.0976562 14.484375 -0.328125 C 14.035156 -0.765625 13.8125 -1.394531 13.8125 -2.21875 L 13.8125 -5.3125 L 4.03125 -5.3125 C 3.21875 -5.3125 2.566406 -5.476562 2.078125 -5.8125 C 1.585938 -6.15625 1.34375 -6.695312 1.34375 -7.4375 C 1.34375 -7.863281 1.453125 -8.328125 1.671875 -8.828125 C 1.898438 -9.328125 2.304688 -9.988281 2.890625 -10.8125 L 13.734375 -26.53125 C 14.109375 -27.082031 14.519531 -27.503906 14.96875 -27.796875 C 15.414062 -28.085938 15.929688 -28.234375 16.515625 -28.234375 C 17.203125 -28.234375 17.769531 -28.023438 18.21875 -27.609375 C 18.664062 -27.203125 18.890625 -26.566406 18.890625 -25.703125 L 18.890625 -9.5 L 20.828125 -9.5 C 21.585938 -9.5 22.160156 -9.320312 22.546875 -8.96875 C 22.929688 -8.613281 23.125 -8.09375 23.125 -7.40625 C 23.125 -6.71875 22.929688 -6.195312 22.546875 -5.84375 C 22.160156 -5.488281 21.585938 -5.3125 20.828125 -5.3125 L 18.890625 -5.3125 L 18.890625 -2.21875 C 18.890625 -1.394531 18.664062 -0.765625 18.21875 -0.328125 C 17.769531 0.0976562 17.148438 0.3125 16.359375 0.3125 Z M 13.8125 -9.5 L 13.8125 -21.859375 L 14.96875 -21.859375 L 5.625 -8.15625 L 5.625 -9.5 Z M 13.8125 -9.5 "/></g></g></g><g fill="#000000" fill-opacity="1"><g transform="translate(250.929303, 49.064615)"><g><path d="M 5.578125 4.234375 C 5.234375 4.660156 4.867188 4.90625 4.484375 4.96875 C 4.109375 5.03125 3.773438 4.957031 3.484375 4.75 C 3.191406 4.539062 3.03125 4.242188 3 3.859375 C 2.976562 3.472656 3.15625 3.054688 3.53125 2.609375 C 4.050781 1.953125 4.40625 1.289062 4.59375 0.625 C 4.78125 -0.03125 4.875 -0.617188 4.875 -1.140625 L 5.0625 0.203125 C 4.144531 0.203125 3.398438 -0.0664062 2.828125 -0.609375 C 2.265625 -1.148438 1.984375 -1.867188 1.984375 -2.765625 C 1.984375 -3.609375 2.242188 -4.300781 2.765625 -4.84375 C 3.296875 -5.382812 4.007812 -5.65625 4.90625 -5.65625 C 5.832031 -5.65625 6.554688 -5.34375 7.078125 -4.71875 C 7.609375 -4.101562 7.875 -3.21875 7.875 -2.0625 C 7.875 -1.425781 7.8125 -0.769531 7.6875 -0.09375 C 7.570312 0.570312 7.347656 1.269531 7.015625 2 C 6.691406 2.726562 6.210938 3.472656 5.578125 4.234375 Z M 5.578125 4.234375 "/></g></g></g><g fill="#000000" fill-opacity="1"><g transform="translate(260.749119, 49.064615)"><g/></g></g><g fill="#000000" fill-opacity="1"><g transform="translate(271.479657, 49.064615)"><g><path d="M 16.03125 0.390625 C 13.132812 0.390625 10.648438 -0.191406 8.578125 -1.359375 C 6.503906 -2.535156 4.910156 -4.195312 3.796875 -6.34375 C 2.691406 -8.5 2.140625 -11.046875 2.140625 -13.984375 C 2.140625 -16.171875 2.453125 -18.140625 3.078125 -19.890625 C 3.710938 -21.648438 4.625 -23.15625 5.8125 -24.40625 C 7.007812 -25.664062 8.46875 -26.628906 10.1875 -27.296875 C 11.914062 -27.972656 13.863281 -28.3125 16.03125 -28.3125 C 17.488281 -28.3125 18.914062 -28.125 20.3125 -27.75 C 21.707031 -27.382812 22.9375 -26.859375 24 -26.171875 C 24.550781 -25.828125 24.914062 -25.410156 25.09375 -24.921875 C 25.28125 -24.429688 25.320312 -23.957031 25.21875 -23.5 C 25.113281 -23.039062 24.894531 -22.648438 24.5625 -22.328125 C 24.238281 -22.015625 23.832031 -21.835938 23.34375 -21.796875 C 22.851562 -21.753906 22.316406 -21.921875 21.734375 -22.296875 C 20.921875 -22.816406 20.035156 -23.195312 19.078125 -23.4375 C 18.128906 -23.675781 17.164062 -23.796875 16.1875 -23.796875 C 14.3125 -23.796875 12.726562 -23.410156 11.4375 -22.640625 C 10.144531 -21.878906 9.164062 -20.769531 8.5 -19.3125 C 7.84375 -17.863281 7.515625 -16.085938 7.515625 -13.984375 C 7.515625 -11.890625 7.84375 -10.101562 8.5 -8.625 C 9.164062 -7.15625 10.144531 -6.035156 11.4375 -5.265625 C 12.726562 -4.503906 14.3125 -4.125 16.1875 -4.125 C 17.195312 -4.125 18.1875 -4.25 19.15625 -4.5 C 20.132812 -4.75 21.0625 -5.132812 21.9375 -5.65625 C 22.519531 -6 23.039062 -6.148438 23.5 -6.109375 C 23.957031 -6.078125 24.34375 -5.914062 24.65625 -5.625 C 24.976562 -5.332031 25.191406 -4.96875 25.296875 -4.53125 C 25.398438 -4.09375 25.375 -3.644531 25.21875 -3.1875 C 25.0625 -2.726562 24.742188 -2.328125 24.265625 -1.984375 C 23.210938 -1.210938 21.953125 -0.625 20.484375 -0.21875 C 19.023438 0.1875 17.539062 0.390625 16.03125 0.390625 Z M 16.03125 0.390625 "/></g></g></g><g fill="#000000" fill-opacity="1"><g transform="translate(298.404978, 49.064615)"><g/></g></g><g fill="#000000" fill-opacity="1"><g transform="translate(309.135516, 49.064615)"><g><path d="M 3.6875 -13.578125 C 3.125 -13.578125 2.6875 -13.726562 2.375 -14.03125 C 2.0625 -14.332031 1.90625 -14.765625 1.90625 -15.328125 C 1.90625 -15.878906 2.0625 -16.304688 2.375 -16.609375 C 2.6875 -16.910156 3.125 -17.0625 3.6875 -17.0625 L 20.078125 -17.0625 C 20.648438 -17.0625 21.085938 -16.910156 21.390625 -16.609375 C 21.703125 -16.304688 21.859375 -15.878906 21.859375 -15.328125 C 21.859375 -14.765625 21.703125 -14.332031 21.390625 -14.03125 C 21.085938 -13.726562 20.648438 -13.578125 20.078125 -13.578125 Z M 3.6875 -5.703125 C 3.125 -5.703125 2.6875 -5.851562 2.375 -6.15625 C 2.0625 -6.457031 1.90625 -6.882812 1.90625 -7.4375 C 1.90625 -8 2.0625 -8.421875 2.375 -8.703125 C 2.6875 -8.992188 3.125 -9.140625 3.6875 -9.140625 L 20.078125 -9.140625 C 20.648438 -9.140625 21.085938 -8.992188 21.390625 -8.703125 C 21.703125 -8.421875 21.859375 -8 21.859375 -7.4375 C 21.859375 -6.863281 21.703125 -6.429688 21.390625 -6.140625 C 21.085938 -5.847656 20.648438 -5.703125 20.078125 -5.703125 Z M 3.6875 -5.703125 "/></g></g></g><g fill="#000000" fill-opacity="1"><g transform="translate(332.893157, 49.064615)"><g/></g></g><g fill="#000000" fill-opacity="1"><g transform="translate(343.623694, 49.064615)"><g><path d="M 6.171875 0 C 5.484375 0 4.945312 -0.1875 4.5625 -0.5625 C 4.1875 -0.945312 4 -1.472656 4 -2.140625 C 4 -2.828125 4.1875 -3.34375 4.5625 -3.6875 C 4.945312 -4.03125 5.484375 -4.203125 6.171875 -4.203125 L 10.609375 -4.203125 L 10.609375 -23.640625 L 13.0625 -23.640625 L 7.25 -20.109375 C 6.75 -19.816406 6.28125 -19.703125 5.84375 -19.765625 C 5.40625 -19.835938 5.035156 -20.023438 4.734375 -20.328125 C 4.429688 -20.628906 4.222656 -20.988281 4.109375 -21.40625 C 4.003906 -21.832031 4.035156 -22.265625 4.203125 -22.703125 C 4.378906 -23.140625 4.71875 -23.503906 5.21875 -23.796875 L 10.6875 -27.078125 C 11.21875 -27.398438 11.742188 -27.671875 12.265625 -27.890625 C 12.796875 -28.117188 13.285156 -28.234375 13.734375 -28.234375 C 14.296875 -28.234375 14.757812 -28.078125 15.125 -27.765625 C 15.488281 -27.460938 15.671875 -26.972656 15.671875 -26.296875 L 15.671875 -4.203125 L 19.71875 -4.203125 C 20.40625 -4.203125 20.9375 -4.03125 21.3125 -3.6875 C 21.695312 -3.34375 21.890625 -2.828125 21.890625 -2.140625 C 21.890625 -1.453125 21.695312 -0.921875 21.3125 -0.546875 C 20.9375 -0.179688 20.40625 0 19.71875 0 Z M 6.171875 0 "/></g></g></g><g fill="#000000" fill-opacity="1"><g transform="translate(367.381336, 49.064615)"><g><path d="M 16.359375 0.3125 C 15.566406 0.3125 14.941406 0.0976562 14.484375 -0.328125 C 14.035156 -0.765625 13.8125 -1.394531 13.8125 -2.21875 L 13.8125 -5.3125 L 4.03125 -5.3125 C 3.21875 -5.3125 2.566406 -5.476562 2.078125 -5.8125 C 1.585938 -6.15625 1.34375 -6.695312 1.34375 -7.4375 C 1.34375 -7.863281 1.453125 -8.328125 1.671875 -8.828125 C 1.898438 -9.328125 2.304688 -9.988281 2.890625 -10.8125 L 13.734375 -26.53125 C 14.109375 -27.082031 14.519531 -27.503906 14.96875 -27.796875 C 15.414062 -28.085938 15.929688 -28.234375 16.515625 -28.234375 C 17.203125 -28.234375 17.769531 -28.023438 18.21875 -27.609375 C 18.664062 -27.203125 18.890625 -26.566406 18.890625 -25.703125 L 18.890625 -9.5 L 20.828125 -9.5 C 21.585938 -9.5 22.160156 -9.320312 22.546875 -8.96875 C 22.929688 -8.613281 23.125 -8.09375 23.125 -7.40625 C 23.125 -6.71875 22.929688 -6.195312 22.546875 -5.84375 C 22.160156 -5.488281 21.585938 -5.3125 20.828125 -5.3125 L 18.890625 -5.3125 L 18.890625 -2.21875 C 18.890625 -1.394531 18.664062 -0.765625 18.21875 -0.328125 C 17.769531 0.0976562 17.148438 0.3125 16.359375 0.3125 Z M 13.8125 -9.5 L 13.8125 -21.859375 L 14.96875 -21.859375 L 5.625 -8.15625 L 5.625 -9.5 Z M 13.8125 -9.5 "/></g></g></g><g fill="#000000" fill-opacity="1"><g transform="translate(391.138977, 49.064615)"><g><path d="M 16.359375 0.3125 C 15.566406 0.3125 14.941406 0.0976562 14.484375 -0.328125 C 14.035156 -0.765625 13.8125 -1.394531 13.8125 -2.21875 L 13.8125 -5.3125 L 4.03125 -5.3125 C 3.21875 -5.3125 2.566406 -5.476562 2.078125 -5.8125 C 1.585938 -6.15625 1.34375 -6.695312 1.34375 -7.4375 C 1.34375 -7.863281 1.453125 -8.328125 1.671875 -8.828125 C 1.898438 -9.328125 2.304688 -9.988281 2.890625 -10.8125 L 13.734375 -26.53125 C 14.109375 -27.082031 14.519531 -27.503906 14.96875 -27.796875 C 15.414062 -28.085938 15.929688 -28.234375 16.515625 -28.234375 C 17.203125 -28.234375 17.769531 -28.023438 18.21875 -27.609375 C 18.664062 -27.203125 18.890625 -26.566406 18.890625 -25.703125 L 18.890625 -9.5 L 20.828125 -9.5 C 21.585938 -9.5 22.160156 -9.320312 22.546875 -8.96875 C 22.929688 -8.613281 23.125 -8.09375 23.125 -7.40625 C 23.125 -6.71875 22.929688 -6.195312 22.546875 -5.84375 C 22.160156 -5.488281 21.585938 -5.3125 20.828125 -5.3125 L 18.890625 -5.3125 L 18.890625 -2.21875 C 18.890625 -1.394531 18.664062 -0.765625 18.21875 -0.328125 C 17.769531 0.0976562 17.148438 0.3125 16.359375 0.3125 Z M 13.8125 -9.5 L 13.8125 -21.859375 L 14.96875 -21.859375 L 5.625 -8.15625 L 5.625 -9.5 Z M 13.8125 -9.5 "/></g></g></g></svg>