<svg xmlns="http://www.w3.org/2000/svg" xmlns:xlink="http://www.w3.org/1999/xlink" width="844" zoomAndPan="magnify" viewBox="0 0 633 337.499995" height="450" preserveAspectRatio="xMidYMid meet" version="1.0"><defs><g/><clipPath id="2b7e67522c"><path d="M 3.09375 0 L 632.152344 0 L 632.152344 336.683594 L 3.09375 336.683594 Z M 3.09375 0 " clip-rule="nonzero"/></clipPath><clipPath id="766346319d"><path d="M 27.140625 168 L 123.746094 168 L 123.746094 237 L 27.140625 237 Z M 27.140625 168 " clip-rule="nonzero"/></clipPath><clipPath id="1e8d31c261"><path d="M 346 168 L 442.375 168 L 442.375 237 L 346 237 Z M 346 168 " clip-rule="nonzero"/></clipPath></defs><g clip-path="url(#2b7e67522c)"><path stroke-linecap="butt" transform="matrix(0.748891, 0, 0, 0.748891, 3.092712, -0.000000000000021285)" fill="none" stroke-linejoin="miter" d="M 0.00138589 0.000000000000028422 L 840.416472 0.000000000000028422 L 840.416472 449.576509 L 0.00138589 449.576509 Z M 0.00138589 0.000000000000028422 " stroke="#000000" stroke-width="12" stroke-opacity="1" stroke-miterlimit="4"/></g><path stroke-linecap="butt" transform="matrix(0, 0.74889, -0.74889, 0, 316.849509, 26.172143)" fill="none" stroke-linejoin="miter" d="M -0.000357722 2.500962 L 315.711481 2.500962 " stroke="#000000" stroke-width="5" stroke-opacity="1" stroke-miterlimit="4"/><path fill="#8bc28f" d="M 107.390625 112.808594 C 109.175781 111.144531 111.074219 109.207031 113.089844 106.988281 C 115.359375 104.488281 117.039062 102.671875 118.121094 101.535156 C 122.148438 97.316406 128.835938 97.152344 133.0625 101.167969 C 137.289062 105.183594 137.453125 111.859375 133.429688 116.078125 C 132.460938 117.089844 130.902344 118.785156 128.746094 121.15625 C 126.339844 123.804688 124.027344 126.164062 121.816406 128.226562 C 117.550781 132.199219 110.863281 131.972656 106.878906 127.714844 C 102.894531 123.457031 103.125 116.785156 107.390625 112.808594 Z M 107.390625 112.808594 " fill-opacity="1" fill-rule="nonzero"/><path fill="#8bc28f" d="M 143.449219 112.378906 C 144.179688 110.824219 145.027344 109.160156 145.988281 107.378906 C 148.757812 102.253906 155.167969 100.335938 160.304688 103.101562 C 165.441406 105.867188 167.359375 112.265625 164.589844 117.390625 C 163.8125 118.828125 163.144531 120.144531 162.578125 121.34375 C 160.097656 126.617188 153.804688 128.882812 148.519531 126.40625 C 143.238281 123.929688 140.96875 117.648438 143.449219 112.378906 Z M 143.449219 112.378906 " fill-opacity="1" fill-rule="nonzero"/><path fill="#8bc28f" d="M 149.363281 152.277344 C 148.664062 153.765625 147.828125 155.453125 146.859375 157.335938 C 145.875 159.246094 144.84375 161.140625 143.765625 163.023438 C 140.863281 168.078125 134.410156 169.828125 129.34375 166.9375 C 124.277344 164.042969 122.523438 157.597656 125.421875 152.542969 C 126.34375 150.9375 127.222656 149.320312 128.0625 147.691406 C 128.917969 146.03125 129.640625 144.574219 130.234375 143.308594 C 132.71875 138.039062 139.011719 135.773438 144.292969 138.25 C 149.574219 140.726562 151.847656 147.003906 149.363281 152.277344 Z M 149.363281 152.277344 " fill-opacity="1" fill-rule="nonzero"/><path fill="#8bc28f" d="M 191.148438 135.304688 C 189.757812 137.75 187.925781 140.769531 185.648438 144.367188 C 183.414062 147.898438 181.34375 151.082031 179.441406 153.914062 L 176.667969 158.046875 C 173.421875 162.886719 166.855469 164.183594 162.007812 160.941406 C 157.160156 157.699219 155.859375 151.148438 159.109375 146.308594 L 161.882812 142.179688 C 163.679688 139.5 165.644531 136.476562 167.78125 133.101562 C 169.878906 129.785156 171.539062 127.054688 172.765625 124.898438 C 175.644531 119.832031 182.09375 118.054688 187.167969 120.929688 C 192.246094 123.800781 194.027344 130.238281 191.148438 135.304688 Z M 191.148438 135.304688 " fill-opacity="1" fill-rule="nonzero"/><path fill="#8bc28f" d="M 211.246094 70.496094 C 209.800781 73.300781 208.382812 75.804688 206.988281 78.007812 C 205.832031 79.832031 204.691406 81.710938 203.566406 83.644531 L 201.785156 86.710938 C 198.855469 91.75 192.386719 93.464844 187.339844 90.539062 C 182.292969 87.617188 180.574219 81.160156 183.503906 76.125 L 185.289062 73.054688 C 186.546875 70.894531 187.824219 68.789062 189.121094 66.738281 C 190.179688 65.066406 191.289062 63.101562 192.449219 60.855469 C 195.117188 55.675781 201.488281 53.632812 206.679688 56.296875 C 211.871094 58.960938 213.914062 65.316406 211.246094 70.496094 Z M 211.246094 70.496094 " fill-opacity="1" fill-rule="nonzero"/><path fill="#8bc28f" d="M 169.90625 64.273438 C 168.808594 66.914062 166.941406 70.28125 164.304688 74.375 L 160.859375 79.730469 C 157.707031 84.632812 151.167969 86.054688 146.257812 82.90625 C 141.347656 79.757812 139.921875 73.234375 143.074219 68.332031 L 146.523438 62.976562 C 148.480469 59.933594 149.769531 57.667969 150.390625 56.183594 C 152.628906 50.804688 158.8125 48.253906 164.203125 50.488281 C 169.589844 52.722656 172.144531 58.894531 169.90625 64.273438 Z M 169.90625 64.273438 " fill-opacity="1" fill-rule="nonzero"/><path fill="#8bc28f" d="M 232.828125 120.996094 C 230.867188 123.253906 228.683594 126.125 226.269531 129.617188 C 223.71875 133.304688 221.945312 135.929688 220.957031 137.492188 C 217.839844 142.417969 211.3125 143.886719 206.378906 140.773438 C 201.445312 137.664062 199.972656 131.148438 203.089844 126.226562 C 204.234375 124.417969 206.160156 121.554688 208.875 117.632812 C 211.726562 113.511719 214.382812 110.03125 216.84375 107.195312 C 220.664062 102.789062 227.335938 102.308594 231.75 106.117188 C 236.164062 109.929688 236.644531 116.589844 232.828125 120.996094 Z M 232.828125 120.996094 " fill-opacity="1" fill-rule="nonzero"/><path fill="#8bc28f" d="M 204.664062 183.238281 C 203.945312 184.140625 203.300781 185.125 202.726562 186.1875 C 199.957031 191.3125 193.546875 193.226562 188.410156 190.460938 C 183.273438 187.699219 181.355469 181.300781 184.125 176.175781 C 185.289062 174.023438 186.613281 172.007812 188.101562 170.136719 C 191.726562 165.570312 198.371094 164.804688 202.945312 168.421875 C 207.519531 172.039062 208.289062 178.671875 204.664062 183.238281 Z M 204.664062 183.238281 " fill-opacity="1" fill-rule="nonzero"/><path fill="#8bc28f" d="M 164.519531 190.398438 C 163.132812 192.273438 162.070312 193.789062 161.332031 194.953125 C 160.546875 196.195312 159.625 197.75 158.5625 199.617188 L 156.84375 202.636719 C 153.964844 207.703125 147.515625 209.480469 142.441406 206.609375 C 137.363281 203.734375 135.582031 197.296875 138.460938 192.230469 L 140.179688 189.210938 C 141.40625 187.054688 142.5 185.210938 143.464844 183.6875 C 144.476562 182.089844 145.828125 180.148438 147.523438 177.863281 C 150.992188 173.179688 157.609375 172.1875 162.300781 175.652344 C 166.996094 179.113281 167.988281 185.714844 164.519531 190.398438 Z M 164.519531 190.398438 " fill-opacity="1" fill-rule="nonzero"/><path fill="#8bc28f" d="M 108.910156 155.074219 C 107.660156 157.050781 106.898438 158.257812 106.617188 158.703125 C 105.855469 159.902344 104.710938 161.574219 103.1875 163.710938 L 101.066406 166.679688 C 97.679688 171.421875 91.082031 172.527344 86.328125 169.148438 C 81.574219 165.769531 80.46875 159.183594 83.855469 154.441406 L 85.972656 151.472656 C 87.269531 149.652344 88.195312 148.308594 88.746094 147.4375 C 89.777344 145.808594 90.542969 144.597656 91.042969 143.808594 C 94.160156 138.886719 100.6875 137.414062 105.621094 140.527344 C 110.554688 143.636719 112.027344 150.152344 108.910156 155.074219 Z M 108.910156 155.074219 " fill-opacity="1" fill-rule="nonzero"/><path fill="#8bc28f" d="M 257.832031 156.351562 C 256.8125 157.785156 255.441406 160.167969 253.722656 163.507812 C 251.761719 167.308594 250.285156 170.164062 249.289062 172.082031 C 246.601562 177.253906 240.226562 179.273438 235.042969 176.589844 C 229.863281 173.910156 227.839844 167.546875 230.527344 162.375 C 231.511719 160.476562 232.976562 157.640625 234.925781 153.863281 C 237.109375 149.625 239.007812 146.375 240.621094 144.113281 C 244.003906 139.371094 250.605469 138.265625 255.359375 141.644531 C 260.109375 145.023438 261.21875 151.609375 257.832031 156.351562 Z M 257.832031 156.351562 " fill-opacity="1" fill-rule="nonzero"/><path fill="#8bc28f" d="M 135.246094 73.734375 C 134.261719 74.765625 133.222656 76.050781 132.121094 77.589844 L 130.039062 80.507812 C 126.652344 85.253906 120.054688 86.359375 115.300781 82.980469 C 110.546875 79.601562 109.4375 73.015625 112.824219 68.273438 L 114.90625 65.351562 C 116.589844 63 118.265625 60.945312 119.9375 59.191406 C 123.964844 54.972656 130.652344 54.808594 134.878906 58.824219 C 139.105469 62.839844 139.269531 69.515625 135.246094 73.734375 Z M 135.246094 73.734375 " fill-opacity="1" fill-rule="nonzero"/><path fill="#8bc28f" d="M 95.984375 110.835938 C 94.039062 114.496094 92.253906 117.867188 90.636719 120.949219 C 79.242188 142.65625 77.761719 145.46875 86.203125 129.394531 C 83.492188 134.554688 77.105469 136.546875 71.9375 133.84375 C 66.769531 131.140625 64.773438 124.765625 67.480469 119.609375 C 78.574219 98.472656 80.054688 95.660156 71.914062 111.160156 C 73.550781 108.042969 75.351562 104.640625 77.3125 100.949219 C 80.050781 95.804688 86.445312 93.847656 91.601562 96.578125 C 96.757812 99.304688 98.71875 105.691406 95.984375 110.835938 Z M 95.984375 110.835938 " fill-opacity="1" fill-rule="nonzero"/><path fill="#8bc28f" d="M 238.164062 211.742188 C 237.382812 213.230469 236.792969 214.628906 236.390625 215.933594 C 235.644531 218.367188 234.6875 220.792969 233.523438 223.21875 L 232.121094 226.140625 C 229.597656 231.390625 223.285156 233.605469 218.023438 231.089844 C 212.761719 228.570312 210.539062 222.269531 213.0625 217.019531 L 214.46875 214.097656 C 215.175781 212.625 215.746094 211.179688 216.183594 209.753906 C 216.96875 207.199219 218.054688 204.601562 219.445312 201.957031 C 222.152344 196.796875 228.539062 194.804688 233.707031 197.507812 C 238.878906 200.210938 240.875 206.585938 238.164062 211.742188 Z M 238.164062 211.742188 " fill-opacity="1" fill-rule="nonzero"/><path fill="#8bc28f" d="M 262.117188 66.539062 C 261.523438 67.289062 260.949219 68.25 260.398438 69.421875 C 259.535156 71.257812 258.574219 73.375 257.511719 75.769531 L 255.875 79.476562 C 253.515625 84.804688 247.277344 87.214844 241.9375 84.863281 C 236.597656 82.511719 234.179688 76.285156 236.539062 70.957031 L 238.179688 67.25 C 239.304688 64.707031 240.335938 62.441406 241.269531 60.453125 C 242.515625 57.804688 243.945312 55.464844 245.554688 53.4375 C 249.179688 48.875 255.828125 48.105469 260.398438 51.726562 C 264.972656 55.34375 265.742188 61.976562 262.117188 66.539062 Z M 262.117188 66.539062 " fill-opacity="1" fill-rule="nonzero"/><path fill="#8bc28f" d="M 190.625 220.832031 C 186.886719 227.75 186.414062 228.625 189.203125 223.460938 C 189.554688 222.816406 189 223.839844 187.550781 226.523438 L 185.78125 229.800781 C 183.007812 234.925781 176.597656 236.839844 171.460938 234.074219 C 166.324219 231.308594 164.40625 224.914062 167.179688 219.789062 L 168.949219 216.511719 C 168.679688 217.011719 169.230469 215.992188 170.601562 213.449219 C 174.417969 206.390625 174.890625 205.511719 172.023438 210.820312 C 174.792969 205.695312 181.203125 203.78125 186.339844 206.546875 C 191.476562 209.308594 193.394531 215.707031 190.625 220.832031 Z M 190.625 220.832031 " fill-opacity="1" fill-rule="nonzero"/><path fill="#8bc28f" d="M 279.914062 192.898438 C 278.144531 195.167969 276.5 197.507812 274.976562 199.910156 L 272.417969 203.953125 C 269.300781 208.878906 262.773438 210.347656 257.839844 207.238281 C 252.90625 204.125 251.433594 197.613281 254.550781 192.6875 L 257.109375 188.644531 C 259 185.660156 261.039062 182.761719 263.234375 179.945312 C 266.816406 175.347656 273.457031 174.523438 278.0625 178.097656 C 282.671875 181.675781 283.5 188.300781 279.914062 192.898438 Z M 279.914062 192.898438 " fill-opacity="1" fill-rule="nonzero"/><path fill="#8bc28f" d="M 282.8125 102.816406 C 281.914062 106.539062 280.992188 109.804688 280.046875 112.613281 C 279.058594 115.554688 278.78125 116.371094 279.21875 115.070312 C 278.679688 116.667969 278.167969 118.191406 277.683594 119.632812 C 275.824219 125.15625 269.832031 128.125 264.296875 126.269531 C 258.765625 124.414062 255.789062 118.433594 257.648438 112.914062 C 258.136719 111.46875 258.648438 109.949219 259.1875 108.347656 C 260.164062 105.449219 260.441406 104.628906 260.015625 105.894531 C 260.761719 103.671875 261.511719 101 262.265625 97.882812 C 263.628906 92.21875 269.335938 88.734375 275.011719 90.097656 C 280.683594 91.457031 284.179688 97.152344 282.8125 102.816406 Z M 282.8125 102.816406 " fill-opacity="1" fill-rule="nonzero"/><g clip-path="url(#766346319d)"><path fill="#dfb0b0" d="M 79.972656 233.957031 C 75.546875 233.921875 70.675781 233.46875 66.148438 233.636719 C 61.335938 233.820312 56.734375 235.429688 52.011719 236.183594 C 43.683594 237.339844 36.074219 231.773438 31.628906 225.152344 C 28.359375 220.460938 27.144531 214.601562 27.792969 208.933594 C 27.914062 207.035156 28.691406 205.371094 29.394531 203.679688 C 30.332031 201.417969 31.375 199.199219 32.898438 197.257812 C 37.910156 191.167969 44.992188 187.34375 50.96875 182.332031 C 51.554688 181.867188 51.960938 181.261719 52.304688 180.601562 C 54.167969 176.753906 56.101562 172.558594 60.199219 170.660156 C 66.871094 166.945312 75.617188 168.015625 81.316406 173.109375 C 82.738281 174.40625 83.925781 175.925781 85.367188 177.195312 C 89.519531 181.054688 93.625 185.757812 99.40625 186.984375 C 105.519531 187.511719 108.699219 182.957031 115.257812 185.027344 C 121.601562 186.703125 123.75 194.097656 123.46875 199.992188 C 123 205.332031 120.859375 210.414062 118 214.894531 C 108.714844 228.238281 96.117188 234.25 79.972656 233.957031 Z M 79.972656 233.957031 " fill-opacity="1" fill-rule="nonzero"/></g><g fill="#000000" fill-opacity="1"><g transform="translate(267.249, 315.573559)"><g><path d="M 11.734375 0.296875 C 9.609375 0.296875 7.785156 -0.128906 6.265625 -0.984375 C 4.753906 -1.847656 3.59375 -3.066406 2.78125 -4.640625 C 1.96875 -6.222656 1.5625 -8.082031 1.5625 -10.21875 C 1.5625 -11.820312 1.789062 -13.265625 2.25 -14.546875 C 2.71875 -15.835938 3.382812 -16.941406 4.25 -17.859375 C 5.125 -18.773438 6.191406 -19.476562 7.453125 -19.96875 C 8.722656 -20.46875 10.148438 -20.71875 11.734375 -20.71875 C 12.796875 -20.71875 13.835938 -20.582031 14.859375 -20.3125 C 15.878906 -20.039062 16.78125 -19.648438 17.5625 -19.140625 C 17.957031 -18.890625 18.222656 -18.585938 18.359375 -18.234375 C 18.492188 -17.878906 18.523438 -17.53125 18.453125 -17.1875 C 18.378906 -16.851562 18.21875 -16.566406 17.96875 -16.328125 C 17.726562 -16.097656 17.429688 -15.96875 17.078125 -15.9375 C 16.722656 -15.914062 16.332031 -16.039062 15.90625 -16.3125 C 15.300781 -16.695312 14.648438 -16.972656 13.953125 -17.140625 C 13.265625 -17.316406 12.5625 -17.40625 11.84375 -17.40625 C 10.476562 -17.40625 9.320312 -17.125 8.375 -16.5625 C 7.425781 -16.007812 6.707031 -15.203125 6.21875 -14.140625 C 5.738281 -13.078125 5.5 -11.769531 5.5 -10.21875 C 5.5 -8.695312 5.738281 -7.394531 6.21875 -6.3125 C 6.707031 -5.226562 7.425781 -4.40625 8.375 -3.84375 C 9.320312 -3.289062 10.476562 -3.015625 11.84375 -3.015625 C 12.582031 -3.015625 13.304688 -3.101562 14.015625 -3.28125 C 14.734375 -3.46875 15.410156 -3.753906 16.046875 -4.140625 C 16.472656 -4.390625 16.851562 -4.5 17.1875 -4.46875 C 17.53125 -4.445312 17.816406 -4.328125 18.046875 -4.109375 C 18.273438 -3.898438 18.425781 -3.632812 18.5 -3.3125 C 18.582031 -3 18.566406 -2.671875 18.453125 -2.328125 C 18.335938 -1.992188 18.109375 -1.703125 17.765625 -1.453125 C 16.984375 -0.890625 16.054688 -0.457031 14.984375 -0.15625 C 13.921875 0.144531 12.835938 0.296875 11.734375 0.296875 Z M 11.734375 0.296875 "/></g></g></g><g fill="#000000" fill-opacity="1"><g transform="translate(285.928672, 315.573559)"><g><path d="M 8.859375 0.296875 C 7.253906 0.296875 5.875 0 4.71875 -0.59375 C 3.5625 -1.195312 2.664062 -2.050781 2.03125 -3.15625 C 1.40625 -4.257812 1.09375 -5.5625 1.09375 -7.0625 C 1.09375 -8.53125 1.394531 -9.816406 2 -10.921875 C 2.613281 -12.023438 3.457031 -12.890625 4.53125 -13.515625 C 5.601562 -14.140625 6.828125 -14.453125 8.203125 -14.453125 C 9.203125 -14.453125 10.101562 -14.285156 10.90625 -13.953125 C 11.707031 -13.628906 12.390625 -13.15625 12.953125 -12.53125 C 13.523438 -11.914062 13.960938 -11.171875 14.265625 -10.296875 C 14.566406 -9.421875 14.71875 -8.429688 14.71875 -7.328125 C 14.71875 -6.984375 14.59375 -6.71875 14.34375 -6.53125 C 14.101562 -6.34375 13.765625 -6.25 13.328125 -6.25 L 4.03125 -6.25 L 4.03125 -8.34375 L 12.171875 -8.34375 L 11.703125 -7.90625 C 11.703125 -8.789062 11.570312 -9.53125 11.3125 -10.125 C 11.050781 -10.726562 10.671875 -11.191406 10.171875 -11.515625 C 9.679688 -11.835938 9.070312 -12 8.34375 -12 C 7.53125 -12 6.835938 -11.804688 6.265625 -11.421875 C 5.703125 -11.046875 5.269531 -10.515625 4.96875 -9.828125 C 4.664062 -9.148438 4.515625 -8.335938 4.515625 -7.390625 L 4.515625 -7.1875 C 4.515625 -5.601562 4.882812 -4.421875 5.625 -3.640625 C 6.375 -2.859375 7.472656 -2.46875 8.921875 -2.46875 C 9.421875 -2.46875 9.984375 -2.53125 10.609375 -2.65625 C 11.242188 -2.78125 11.84375 -2.992188 12.40625 -3.296875 C 12.800781 -3.535156 13.15625 -3.640625 13.46875 -3.609375 C 13.78125 -3.578125 14.023438 -3.460938 14.203125 -3.265625 C 14.390625 -3.078125 14.5 -2.84375 14.53125 -2.5625 C 14.570312 -2.28125 14.519531 -1.992188 14.375 -1.703125 C 14.238281 -1.421875 13.992188 -1.171875 13.640625 -0.953125 C 12.960938 -0.523438 12.1875 -0.207031 11.3125 0 C 10.4375 0.195312 9.617188 0.296875 8.859375 0.296875 Z M 8.859375 0.296875 "/></g></g></g><g fill="#000000" fill-opacity="1"><g transform="translate(301.625571, 315.573559)"><g><path d="M 3.734375 0.234375 C 3.140625 0.234375 2.679688 0.078125 2.359375 -0.234375 C 2.046875 -0.554688 1.890625 -1.019531 1.890625 -1.625 L 1.890625 -12.578125 C 1.890625 -13.171875 2.039062 -13.617188 2.34375 -13.921875 C 2.65625 -14.234375 3.09375 -14.390625 3.65625 -14.390625 C 4.207031 -14.390625 4.640625 -14.234375 4.953125 -13.921875 C 5.265625 -13.617188 5.421875 -13.171875 5.421875 -12.578125 L 5.421875 -10.75 L 5.125 -10.75 C 5.394531 -11.90625 5.925781 -12.78125 6.71875 -13.375 C 7.507812 -13.976562 8.5625 -14.335938 9.875 -14.453125 C 10.28125 -14.492188 10.601562 -14.394531 10.84375 -14.15625 C 11.082031 -13.914062 11.222656 -13.539062 11.265625 -13.03125 C 11.304688 -12.550781 11.195312 -12.160156 10.9375 -11.859375 C 10.675781 -11.554688 10.285156 -11.378906 9.765625 -11.328125 L 9.125 -11.265625 C 7.945312 -11.148438 7.054688 -10.785156 6.453125 -10.171875 C 5.859375 -9.566406 5.5625 -8.71875 5.5625 -7.625 L 5.5625 -1.625 C 5.5625 -1.019531 5.40625 -0.554688 5.09375 -0.234375 C 4.789062 0.078125 4.335938 0.234375 3.734375 0.234375 Z M 3.734375 0.234375 "/></g></g></g><g fill="#000000" fill-opacity="1"><g transform="translate(312.978308, 315.573559)"><g><path d="M 3.734375 0.234375 C 3.160156 0.234375 2.71875 0.078125 2.40625 -0.234375 C 2.09375 -0.554688 1.9375 -1.019531 1.9375 -1.625 L 1.9375 -12.578125 C 1.9375 -13.171875 2.09375 -13.617188 2.40625 -13.921875 C 2.71875 -14.234375 3.148438 -14.390625 3.703125 -14.390625 C 4.265625 -14.390625 4.695312 -14.234375 5 -13.921875 C 5.3125 -13.617188 5.46875 -13.171875 5.46875 -12.578125 L 5.46875 -10.453125 L 5.15625 -11.328125 C 5.539062 -12.296875 6.140625 -13.054688 6.953125 -13.609375 C 7.765625 -14.171875 8.726562 -14.453125 9.84375 -14.453125 C 10.988281 -14.453125 11.925781 -14.179688 12.65625 -13.640625 C 13.394531 -13.097656 13.90625 -12.269531 14.1875 -11.15625 L 13.796875 -11.15625 C 14.179688 -12.175781 14.816406 -12.976562 15.703125 -13.5625 C 16.585938 -14.15625 17.609375 -14.453125 18.765625 -14.453125 C 19.847656 -14.453125 20.742188 -14.238281 21.453125 -13.8125 C 22.160156 -13.394531 22.6875 -12.753906 23.03125 -11.890625 C 23.375 -11.035156 23.546875 -9.945312 23.546875 -8.625 L 23.546875 -1.625 C 23.546875 -1.019531 23.382812 -0.554688 23.0625 -0.234375 C 22.75 0.078125 22.304688 0.234375 21.734375 0.234375 C 21.148438 0.234375 20.703125 0.078125 20.390625 -0.234375 C 20.085938 -0.554688 19.9375 -1.019531 19.9375 -1.625 L 19.9375 -8.484375 C 19.9375 -9.566406 19.753906 -10.359375 19.390625 -10.859375 C 19.035156 -11.359375 18.429688 -11.609375 17.578125 -11.609375 C 16.640625 -11.609375 15.898438 -11.273438 15.359375 -10.609375 C 14.816406 -9.953125 14.546875 -9.03125 14.546875 -7.84375 L 14.546875 -1.625 C 14.546875 -1.019531 14.390625 -0.554688 14.078125 -0.234375 C 13.765625 0.078125 13.320312 0.234375 12.75 0.234375 C 12.164062 0.234375 11.710938 0.078125 11.390625 -0.234375 C 11.078125 -0.554688 10.921875 -1.019531 10.921875 -1.625 L 10.921875 -8.484375 C 10.921875 -9.566406 10.738281 -10.359375 10.375 -10.859375 C 10.019531 -11.359375 9.429688 -11.609375 8.609375 -11.609375 C 7.660156 -11.609375 6.914062 -11.273438 6.375 -10.609375 C 5.832031 -9.953125 5.5625 -9.03125 5.5625 -7.84375 L 5.5625 -1.625 C 5.5625 -0.382812 4.953125 0.234375 3.734375 0.234375 Z M 3.734375 0.234375 "/></g></g></g><g fill="#000000" fill-opacity="1"><g transform="translate(338.377164, 315.573559)"><g><path d="M 3.671875 0.203125 C 3.097656 0.203125 2.65625 0.03125 2.34375 -0.3125 C 2.039062 -0.664062 1.890625 -1.148438 1.890625 -1.765625 L 1.890625 -12.40625 C 1.890625 -13.039062 2.039062 -13.523438 2.34375 -13.859375 C 2.65625 -14.203125 3.097656 -14.375 3.671875 -14.375 C 4.253906 -14.375 4.703125 -14.203125 5.015625 -13.859375 C 5.335938 -13.523438 5.5 -13.039062 5.5 -12.40625 L 5.5 -1.765625 C 5.5 -1.148438 5.34375 -0.664062 5.03125 -0.3125 C 4.726562 0.03125 4.273438 0.203125 3.671875 0.203125 Z M 3.671875 -17.0625 C 3.003906 -17.0625 2.476562 -17.226562 2.09375 -17.5625 C 1.71875 -17.90625 1.53125 -18.375 1.53125 -18.96875 C 1.53125 -19.59375 1.71875 -20.066406 2.09375 -20.390625 C 2.476562 -20.722656 3.003906 -20.890625 3.671875 -20.890625 C 4.367188 -20.890625 4.898438 -20.722656 5.265625 -20.390625 C 5.640625 -20.066406 5.828125 -19.59375 5.828125 -18.96875 C 5.828125 -18.375 5.640625 -17.90625 5.265625 -17.5625 C 4.898438 -17.226562 4.367188 -17.0625 3.671875 -17.0625 Z M 3.671875 -17.0625 "/></g></g></g><g fill="#000000" fill-opacity="1"><g transform="translate(345.762241, 315.573559)"><g><path d="M 3.671875 0.234375 C 3.097656 0.234375 2.65625 0.078125 2.34375 -0.234375 C 2.039062 -0.554688 1.890625 -1.019531 1.890625 -1.625 L 1.890625 -12.578125 C 1.890625 -13.171875 2.039062 -13.617188 2.34375 -13.921875 C 2.65625 -14.234375 3.09375 -14.390625 3.65625 -14.390625 C 4.207031 -14.390625 4.640625 -14.234375 4.953125 -13.921875 C 5.265625 -13.617188 5.421875 -13.171875 5.421875 -12.578125 L 5.421875 -10.609375 L 5.09375 -11.328125 C 5.519531 -12.347656 6.179688 -13.125 7.078125 -13.65625 C 7.984375 -14.1875 9.003906 -14.453125 10.140625 -14.453125 C 11.273438 -14.453125 12.207031 -14.238281 12.9375 -13.8125 C 13.675781 -13.394531 14.226562 -12.753906 14.59375 -11.890625 C 14.96875 -11.035156 15.15625 -9.945312 15.15625 -8.625 L 15.15625 -1.625 C 15.15625 -1.019531 15 -0.554688 14.6875 -0.234375 C 14.375 0.078125 13.929688 0.234375 13.359375 0.234375 C 12.773438 0.234375 12.320312 0.078125 12 -0.234375 C 11.6875 -0.554688 11.53125 -1.019531 11.53125 -1.625 L 11.53125 -8.453125 C 11.53125 -9.554688 11.320312 -10.359375 10.90625 -10.859375 C 10.488281 -11.359375 9.847656 -11.609375 8.984375 -11.609375 C 7.921875 -11.609375 7.070312 -11.273438 6.4375 -10.609375 C 5.8125 -9.953125 5.5 -9.070312 5.5 -7.96875 L 5.5 -1.625 C 5.5 -0.382812 4.890625 0.234375 3.671875 0.234375 Z M 3.671875 0.234375 "/></g></g></g><path fill="#8bc28f" d="M 426.019531 112.808594 C 427.804688 111.144531 429.707031 109.207031 431.722656 106.988281 C 433.992188 104.488281 435.667969 102.671875 436.753906 101.535156 C 440.777344 97.316406 447.464844 97.152344 451.691406 101.167969 C 455.921875 105.183594 456.085938 111.859375 452.058594 116.078125 C 451.09375 117.089844 449.53125 118.785156 447.378906 121.15625 C 444.96875 123.804688 442.660156 126.164062 440.445312 128.226562 C 436.179688 132.199219 429.492188 131.972656 425.511719 127.714844 C 421.527344 123.457031 421.753906 116.785156 426.019531 112.808594 Z M 426.019531 112.808594 " fill-opacity="1" fill-rule="nonzero"/><path fill="#8bc28f" d="M 462.078125 112.378906 C 462.808594 110.824219 463.65625 109.160156 464.617188 107.378906 C 467.390625 102.253906 473.800781 100.335938 478.9375 103.101562 C 484.074219 105.867188 485.992188 112.265625 483.21875 117.390625 C 482.445312 118.828125 481.773438 120.144531 481.210938 121.34375 C 478.726562 126.617188 472.433594 128.882812 467.152344 126.40625 C 461.867188 123.929688 459.597656 117.648438 462.078125 112.378906 Z M 462.078125 112.378906 " fill-opacity="1" fill-rule="nonzero"/><path fill="#8bc28f" d="M 467.996094 152.277344 C 467.292969 153.765625 466.460938 155.453125 465.488281 157.335938 C 464.503906 159.246094 463.472656 161.140625 462.394531 163.023438 C 459.496094 168.078125 453.039062 169.828125 447.972656 166.9375 C 442.910156 164.042969 441.152344 157.597656 444.050781 152.542969 C 444.972656 150.9375 445.855469 149.320312 446.691406 147.691406 C 447.546875 146.03125 448.273438 144.574219 448.867188 143.308594 C 451.347656 138.039062 457.640625 135.773438 462.925781 138.25 C 468.207031 140.726562 470.476562 147.003906 467.996094 152.277344 Z M 467.996094 152.277344 " fill-opacity="1" fill-rule="nonzero"/><path fill="#8bc28f" d="M 509.777344 135.304688 C 508.390625 137.75 506.554688 140.769531 504.28125 144.367188 C 502.042969 147.898438 499.972656 151.082031 498.074219 153.914062 L 495.300781 158.046875 C 492.050781 162.886719 485.488281 164.183594 480.636719 160.941406 C 475.789062 157.699219 474.492188 151.148438 477.738281 146.308594 L 480.511719 142.179688 C 482.308594 139.5 484.277344 136.476562 486.414062 133.101562 C 488.511719 129.785156 490.171875 127.054688 491.394531 124.898438 C 494.273438 119.832031 500.722656 118.054688 505.800781 120.929688 C 510.875 123.800781 512.65625 130.238281 509.777344 135.304688 Z M 509.777344 135.304688 " fill-opacity="1" fill-rule="nonzero"/><path fill="#8bc28f" d="M 529.875 70.496094 C 528.433594 73.300781 527.011719 75.804688 525.617188 78.007812 C 524.460938 79.832031 523.320312 81.710938 522.199219 83.644531 L 520.414062 86.710938 C 517.484375 91.75 511.015625 93.464844 505.96875 90.539062 C 500.921875 87.617188 499.203125 81.160156 502.132812 76.125 L 503.917969 73.054688 C 505.175781 70.894531 506.453125 68.789062 507.75 66.738281 C 508.8125 65.066406 509.921875 63.101562 511.078125 60.855469 C 513.746094 55.675781 520.117188 53.632812 525.308594 56.296875 C 530.5 58.960938 532.542969 65.316406 529.875 70.496094 Z M 529.875 70.496094 " fill-opacity="1" fill-rule="nonzero"/><path fill="#8bc28f" d="M 488.539062 64.273438 C 487.4375 66.914062 485.570312 70.28125 482.9375 74.375 L 479.488281 79.730469 C 476.335938 84.632812 469.796875 86.054688 464.886719 82.90625 C 459.976562 79.757812 458.550781 73.234375 461.707031 68.332031 L 465.152344 62.976562 C 467.113281 59.933594 468.402344 57.667969 469.019531 56.183594 C 471.257812 50.804688 477.441406 48.253906 482.832031 50.488281 C 488.222656 52.722656 490.777344 58.894531 488.539062 64.273438 Z M 488.539062 64.273438 " fill-opacity="1" fill-rule="nonzero"/><path fill="#8bc28f" d="M 551.457031 120.996094 C 549.5 123.253906 547.3125 126.125 544.898438 129.617188 C 542.347656 133.304688 540.578125 135.929688 539.585938 137.492188 C 536.46875 142.417969 529.941406 143.886719 525.007812 140.773438 C 520.074219 137.664062 518.601562 131.148438 521.71875 126.226562 C 522.863281 124.417969 524.792969 121.554688 527.507812 117.632812 C 530.359375 113.511719 533.011719 110.03125 535.472656 107.195312 C 539.292969 102.789062 545.964844 102.308594 550.378906 106.117188 C 554.792969 109.929688 555.277344 116.589844 551.457031 120.996094 Z M 551.457031 120.996094 " fill-opacity="1" fill-rule="nonzero"/><path fill="#8bc28f" d="M 523.292969 183.238281 C 522.578125 184.140625 521.929688 185.125 521.355469 186.1875 C 518.585938 191.3125 512.175781 193.226562 507.039062 190.460938 C 501.902344 187.699219 499.984375 181.300781 502.753906 176.175781 C 503.917969 174.023438 505.242188 172.007812 506.730469 170.136719 C 510.355469 165.570312 517.003906 164.804688 521.578125 168.421875 C 526.148438 172.039062 526.917969 178.671875 523.292969 183.238281 Z M 523.292969 183.238281 " fill-opacity="1" fill-rule="nonzero"/><path fill="#8bc28f" d="M 483.148438 190.398438 C 481.761719 192.273438 480.699219 193.789062 479.964844 194.953125 C 479.179688 196.195312 478.253906 197.75 477.191406 199.617188 L 475.476562 202.636719 C 472.597656 207.703125 466.148438 209.480469 461.070312 206.609375 C 455.996094 203.734375 454.210938 197.296875 457.09375 192.230469 L 458.808594 189.210938 C 460.035156 187.054688 461.132812 185.210938 462.09375 183.6875 C 463.109375 182.089844 464.460938 180.148438 466.152344 177.863281 C 469.621094 173.179688 476.238281 172.1875 480.929688 175.652344 C 485.625 179.113281 486.617188 185.714844 483.148438 190.398438 Z M 483.148438 190.398438 " fill-opacity="1" fill-rule="nonzero"/><path fill="#8bc28f" d="M 427.542969 155.074219 C 426.292969 157.050781 425.527344 158.257812 425.246094 158.703125 C 424.484375 159.902344 423.34375 161.574219 421.816406 163.710938 L 419.699219 166.679688 C 416.3125 171.421875 409.714844 172.527344 404.960938 169.148438 C 400.207031 165.769531 399.097656 159.183594 402.484375 154.441406 L 404.601562 151.472656 C 405.902344 149.652344 406.828125 148.308594 407.378906 147.4375 C 408.410156 145.808594 409.175781 144.597656 409.675781 143.808594 C 412.792969 138.886719 419.320312 137.414062 424.253906 140.527344 C 429.1875 143.636719 430.660156 150.152344 427.542969 155.074219 Z M 427.542969 155.074219 " fill-opacity="1" fill-rule="nonzero"/><path fill="#8bc28f" d="M 576.464844 156.351562 C 575.441406 157.785156 574.070312 160.167969 572.351562 163.507812 C 570.394531 167.308594 568.917969 170.164062 567.921875 172.082031 C 565.234375 177.253906 558.855469 179.273438 553.675781 176.589844 C 548.492188 173.910156 546.472656 167.546875 549.15625 162.375 C 550.144531 160.476562 551.609375 157.640625 553.554688 153.863281 C 555.738281 149.625 557.636719 146.375 559.25 144.113281 C 562.636719 139.371094 569.234375 138.265625 573.988281 141.644531 C 578.742188 145.023438 579.851562 151.609375 576.464844 156.351562 Z M 576.464844 156.351562 " fill-opacity="1" fill-rule="nonzero"/><path fill="#8bc28f" d="M 453.875 73.734375 C 452.894531 74.765625 451.851562 76.050781 450.753906 77.589844 L 448.667969 80.507812 C 445.28125 85.253906 438.683594 86.359375 433.929688 82.980469 C 429.175781 79.601562 428.066406 73.015625 431.453125 68.273438 L 433.539062 65.351562 C 435.21875 63 436.894531 60.945312 438.570312 59.191406 C 442.59375 54.972656 449.28125 54.808594 453.511719 58.824219 C 457.738281 62.839844 457.902344 69.515625 453.875 73.734375 Z M 453.875 73.734375 " fill-opacity="1" fill-rule="nonzero"/><path fill="#8bc28f" d="M 414.613281 110.835938 C 412.667969 114.496094 410.886719 117.867188 409.265625 120.949219 C 397.871094 142.65625 396.394531 145.46875 404.832031 129.394531 C 402.125 134.554688 395.738281 136.546875 390.566406 133.84375 C 385.398438 131.140625 383.402344 124.765625 386.113281 119.609375 C 397.207031 98.472656 398.683594 95.660156 390.546875 111.160156 C 392.183594 108.042969 393.980469 104.640625 395.945312 100.949219 C 398.679688 95.804688 405.078125 93.847656 410.234375 96.578125 C 415.386719 99.304688 417.351562 105.691406 414.613281 110.835938 Z M 414.613281 110.835938 " fill-opacity="1" fill-rule="nonzero"/><path fill="#8bc28f" d="M 556.796875 211.742188 C 556.015625 213.230469 555.421875 214.628906 555.023438 215.933594 C 554.277344 218.367188 553.320312 220.792969 552.15625 223.21875 L 550.75 226.140625 C 548.226562 231.390625 541.914062 233.605469 536.652344 231.089844 C 531.390625 228.570312 529.171875 222.269531 531.695312 217.019531 L 533.097656 214.097656 C 533.804688 212.625 534.378906 211.179688 534.816406 209.753906 C 535.597656 207.199219 536.683594 204.601562 538.074219 201.957031 C 540.78125 196.796875 547.167969 194.804688 552.339844 197.507812 C 557.507812 200.210938 559.503906 206.585938 556.796875 211.742188 Z M 556.796875 211.742188 " fill-opacity="1" fill-rule="nonzero"/><path fill="#8bc28f" d="M 580.75 66.539062 C 580.15625 67.289062 579.582031 68.25 579.03125 69.421875 C 578.164062 71.257812 577.203125 73.375 576.144531 75.769531 L 574.503906 79.476562 C 572.148438 84.804688 565.90625 87.214844 560.570312 84.863281 C 555.230469 82.511719 552.8125 76.285156 555.167969 70.957031 L 556.808594 67.25 C 557.933594 64.707031 558.964844 62.441406 559.898438 60.453125 C 561.148438 57.804688 562.574219 55.464844 564.183594 53.4375 C 567.808594 48.875 574.457031 48.105469 579.03125 51.726562 C 583.605469 55.34375 584.375 61.976562 580.75 66.539062 Z M 580.75 66.539062 " fill-opacity="1" fill-rule="nonzero"/><path fill="#8bc28f" d="M 509.257812 220.832031 C 505.519531 227.75 505.042969 228.625 507.835938 223.460938 C 508.183594 222.816406 507.632812 223.839844 506.179688 226.523438 L 504.410156 229.800781 C 501.640625 234.925781 495.230469 236.839844 490.09375 234.074219 C 484.957031 231.308594 483.039062 224.914062 485.808594 219.789062 L 487.578125 216.511719 C 487.308594 217.011719 487.859375 215.992188 489.234375 213.449219 C 493.050781 206.390625 493.523438 205.511719 490.65625 210.820312 C 493.425781 205.695312 499.835938 203.78125 504.972656 206.546875 C 510.109375 209.308594 512.027344 215.707031 509.257812 220.832031 Z M 509.257812 220.832031 " fill-opacity="1" fill-rule="nonzero"/><path fill="#8bc28f" d="M 598.546875 192.898438 C 596.773438 195.167969 595.128906 197.507812 593.605469 199.910156 L 591.046875 203.953125 C 587.929688 208.878906 581.402344 210.347656 576.46875 207.238281 C 571.535156 204.125 570.0625 197.613281 573.179688 192.6875 L 575.738281 188.644531 C 577.628906 185.660156 579.671875 182.761719 581.863281 179.945312 C 585.449219 175.347656 592.089844 174.523438 596.695312 178.097656 C 601.300781 181.675781 602.128906 188.300781 598.546875 192.898438 Z M 598.546875 192.898438 " fill-opacity="1" fill-rule="nonzero"/><path fill="#8bc28f" d="M 601.445312 102.816406 C 600.546875 106.539062 599.625 109.804688 598.679688 112.613281 C 597.6875 115.554688 597.410156 116.371094 597.851562 115.070312 C 597.3125 116.667969 596.800781 118.191406 596.3125 119.632812 C 594.453125 125.15625 588.460938 128.125 582.929688 126.269531 C 577.398438 124.414062 574.417969 118.433594 576.28125 112.914062 C 576.765625 111.46875 577.277344 109.949219 577.816406 108.347656 C 578.792969 105.449219 579.070312 104.628906 578.644531 105.894531 C 579.390625 103.671875 580.144531 101 580.894531 97.882812 C 582.261719 92.21875 587.96875 88.734375 593.640625 90.097656 C 599.316406 91.457031 602.808594 97.152344 601.445312 102.816406 Z M 601.445312 102.816406 " fill-opacity="1" fill-rule="nonzero"/><g clip-path="url(#1e8d31c261)"><path fill="#dfb0b0" d="M 398.601562 233.957031 C 394.175781 233.921875 389.308594 233.46875 384.777344 233.636719 C 379.964844 233.820312 375.367188 235.429688 370.640625 236.183594 C 362.316406 237.339844 354.703125 231.773438 350.257812 225.152344 C 346.988281 220.460938 345.773438 214.601562 346.421875 208.933594 C 346.542969 207.035156 347.320312 205.371094 348.023438 203.679688 C 348.960938 201.417969 350.007812 199.199219 351.53125 197.257812 C 356.539062 191.167969 363.621094 187.34375 369.601562 182.332031 C 370.183594 181.867188 370.589844 181.261719 370.933594 180.601562 C 372.800781 176.753906 374.730469 172.558594 378.828125 170.660156 C 385.5 166.945312 394.246094 168.015625 399.949219 173.109375 C 401.367188 174.40625 402.554688 175.925781 403.996094 177.195312 C 408.152344 181.054688 412.257812 185.757812 418.035156 186.984375 C 424.152344 187.511719 427.332031 182.957031 433.886719 185.027344 C 440.230469 186.703125 442.378906 194.097656 442.101562 199.992188 C 441.628906 205.332031 439.488281 210.414062 436.628906 214.894531 C 427.34375 228.238281 414.746094 234.25 398.601562 233.957031 Z M 398.601562 233.957031 " fill-opacity="1" fill-rule="nonzero"/></g><g fill="#000000" fill-opacity="1"><g transform="translate(12.030343, 311.654873)"><g><path d="M 3.765625 0.359375 C 3.046875 0.359375 2.46875 0.195312 2.03125 -0.125 C 1.601562 -0.457031 1.34375 -0.898438 1.25 -1.453125 C 1.164062 -2.015625 1.273438 -2.640625 1.578125 -3.328125 L 13.421875 -29.578125 C 13.804688 -30.453125 14.273438 -31.070312 14.828125 -31.4375 C 15.390625 -31.8125 16.03125 -32 16.75 -32 C 17.4375 -32 18.054688 -31.8125 18.609375 -31.4375 C 19.160156 -31.070312 19.628906 -30.453125 20.015625 -29.578125 L 31.921875 -3.328125 C 32.242188 -2.640625 32.359375 -2.007812 32.265625 -1.4375 C 32.179688 -0.863281 31.929688 -0.421875 31.515625 -0.109375 C 31.097656 0.203125 30.546875 0.359375 29.859375 0.359375 C 29.015625 0.359375 28.359375 0.15625 27.890625 -0.25 C 27.429688 -0.65625 27.023438 -1.273438 26.671875 -2.109375 L 23.75 -8.890625 L 26.171875 -7.3125 L 7.234375 -7.3125 L 9.65625 -8.890625 L 6.78125 -2.109375 C 6.382812 -1.242188 5.976562 -0.613281 5.5625 -0.21875 C 5.144531 0.164062 4.546875 0.359375 3.765625 0.359375 Z M 16.65625 -25.40625 L 10.375 -10.453125 L 9.203125 -11.890625 L 24.203125 -11.890625 L 23.078125 -10.453125 L 16.75 -25.40625 Z M 16.65625 -25.40625 "/></g></g></g></svg>