<svg xmlns="http://www.w3.org/2000/svg" xmlns:xlink="http://www.w3.org/1999/xlink" width="972" zoomAndPan="magnify" viewBox="0 0 729 731.249977" height="975" preserveAspectRatio="xMidYMid meet" version="1.0"><defs><g/><clipPath id="879f9b1845"><path d="M 0.375 0 L 728.625 0 L 728.625 730.5 L 0.375 730.5 Z M 0.375 0 " clip-rule="nonzero"/></clipPath><clipPath id="249cdeed90"><path d="M 0.375 1.0625 L 728.617188 1.0625 L 728.617188 729.304688 L 0.375 729.304688 Z M 0.375 1.0625 " clip-rule="nonzero"/></clipPath><clipPath id="e9365d6a67"><rect x="0" width="447" y="0" height="652"/></clipPath><clipPath id="e4ed1bfca1"><rect x="0" width="729" y="0" height="731"/></clipPath></defs><g clip-path="url(#879f9b1845)"><g transform="matrix(1, 0, 0, 1, 0.000000000000000056, 0)"><g clip-path="url(#e4ed1bfca1)"><g clip-path="url(#249cdeed90)"><path stroke-linecap="butt" transform="matrix(1.265203, 0, 0, 1.265203, 0.373475, 1.062121)" fill="none" stroke-linejoin="miter" d="M 0.00120568 0.000299873 L 575.594329 0.000299873 L 575.594329 575.593423 L 0.00120568 575.593423 Z M 0.00120568 0.000299873 " stroke="#000000" stroke-width="7.106193" stroke-opacity="1" stroke-miterlimit="4"/></g><g transform="matrix(1, 0, 0, 1, 141, 39)"><g clip-path="url(#e9365d6a67)"><g fill="#000000" fill-opacity="1"><g transform="translate(1.049508, 123.414441)"><g><path d="M 51.703125 0 L 33.046875 0 L 33.046875 -71.90625 L 10.78125 -65 L 10.78125 -80.171875 L 49.703125 -94.125 L 51.703125 -94.125 Z M 51.703125 0 "/></g></g></g><g fill="#000000" fill-opacity="1"><g transform="translate(76.898383, 123.414441)"><g/></g></g><g fill="#000000" fill-opacity="1"><g transform="translate(109.820019, 123.414441)"><g><path d="M 66.484375 -48.15625 L 8.78125 -48.15625 L 8.78125 -63.390625 L 66.484375 -63.390625 Z M 66.484375 -20.203125 L 8.78125 -20.203125 L 8.78125 -35.4375 L 66.484375 -35.4375 Z M 66.484375 -20.203125 "/></g></g></g><g fill="#000000" fill-opacity="1"><g transform="translate(185.47523, 123.414441)"><g/></g></g><g fill="#000000" fill-opacity="1"><g transform="translate(218.396866, 123.414441)"><g><path d="M 9.171875 -46.21875 L 14.59375 -93.984375 L 67.265625 -93.984375 L 67.265625 -78.4375 L 29.890625 -78.4375 L 27.5625 -58.21875 C 32 -60.59375 36.710938 -61.78125 41.703125 -61.78125 C 50.648438 -61.78125 57.660156 -59.003906 62.734375 -53.453125 C 67.816406 -47.898438 70.359375 -40.128906 70.359375 -30.140625 C 70.359375 -24.078125 69.078125 -18.644531 66.515625 -13.84375 C 63.960938 -9.050781 60.296875 -5.328125 55.515625 -2.671875 C 50.734375 -0.0234375 45.097656 1.296875 38.609375 1.296875 C 32.921875 1.296875 27.644531 0.144531 22.78125 -2.15625 C 17.925781 -4.457031 14.085938 -7.695312 11.265625 -11.875 C 8.441406 -16.050781 6.945312 -20.804688 6.78125 -26.140625 L 25.234375 -26.140625 C 25.628906 -22.222656 27 -19.175781 29.34375 -17 C 31.6875 -14.832031 34.75 -13.75 38.53125 -13.75 C 42.75 -13.75 46 -15.265625 48.28125 -18.296875 C 50.5625 -21.328125 51.703125 -25.617188 51.703125 -31.171875 C 51.703125 -36.515625 50.390625 -40.601562 47.765625 -43.4375 C 45.140625 -46.28125 41.414062 -47.703125 36.59375 -47.703125 C 32.164062 -47.703125 28.578125 -46.539062 25.828125 -44.21875 L 24.015625 -42.546875 Z M 9.171875 -46.21875 "/></g></g></g><g fill="#000000" fill-opacity="1"><g transform="translate(1.049508, 247.35956)"><g><path d="M 70.8125 0 L 6.390625 0 L 6.390625 -12.78125 L 36.796875 -45.1875 C 40.972656 -49.75 44.0625 -53.726562 46.0625 -57.125 C 48.0625 -60.53125 49.0625 -63.757812 49.0625 -66.8125 C 49.0625 -70.988281 48.003906 -74.269531 45.890625 -76.65625 C 43.785156 -79.039062 40.773438 -80.234375 36.859375 -80.234375 C 32.640625 -80.234375 29.3125 -78.78125 26.875 -75.875 C 24.445312 -72.976562 23.234375 -69.160156 23.234375 -64.421875 L 4.515625 -64.421875 C 4.515625 -70.148438 5.878906 -75.378906 8.609375 -80.109375 C 11.347656 -84.835938 15.210938 -88.546875 20.203125 -91.234375 C 25.191406 -93.929688 30.851562 -95.28125 37.1875 -95.28125 C 46.863281 -95.28125 54.378906 -92.953125 59.734375 -88.296875 C 65.097656 -83.648438 67.78125 -77.09375 67.78125 -68.625 C 67.78125 -63.96875 66.570312 -59.226562 64.15625 -54.40625 C 61.75 -49.59375 57.617188 -43.976562 51.765625 -37.5625 L 30.40625 -15.046875 L 70.8125 -15.046875 Z M 70.8125 0 "/></g></g></g><g fill="#000000" fill-opacity="1"><g transform="translate(76.898383, 247.35956)"><g/></g></g><g fill="#000000" fill-opacity="1"><g transform="translate(109.820019, 247.35956)"><g><path d="M 66.484375 -48.15625 L 8.78125 -48.15625 L 8.78125 -63.390625 L 66.484375 -63.390625 Z M 66.484375 -20.203125 L 8.78125 -20.203125 L 8.78125 -35.4375 L 66.484375 -35.4375 Z M 66.484375 -20.203125 "/></g></g></g><g fill="#000000" fill-opacity="1"><g transform="translate(185.47523, 247.35956)"><g/></g></g><g fill="#000000" fill-opacity="1"><g transform="translate(218.396866, 247.35956)"><g><path d="M 70.8125 0 L 6.390625 0 L 6.390625 -12.78125 L 36.796875 -45.1875 C 40.972656 -49.75 44.0625 -53.726562 46.0625 -57.125 C 48.0625 -60.53125 49.0625 -63.757812 49.0625 -66.8125 C 49.0625 -70.988281 48.003906 -74.269531 45.890625 -76.65625 C 43.785156 -79.039062 40.773438 -80.234375 36.859375 -80.234375 C 32.640625 -80.234375 29.3125 -78.78125 26.875 -75.875 C 24.445312 -72.976562 23.234375 -69.160156 23.234375 -64.421875 L 4.515625 -64.421875 C 4.515625 -70.148438 5.878906 -75.378906 8.609375 -80.109375 C 11.347656 -84.835938 15.210938 -88.546875 20.203125 -91.234375 C 25.191406 -93.929688 30.851562 -95.28125 37.1875 -95.28125 C 46.863281 -95.28125 54.378906 -92.953125 59.734375 -88.296875 C 65.097656 -83.648438 67.78125 -77.09375 67.78125 -68.625 C 67.78125 -63.96875 66.570312 -59.226562 64.15625 -54.40625 C 61.75 -49.59375 57.617188 -43.976562 51.765625 -37.5625 L 30.40625 -15.046875 L 70.8125 -15.046875 Z M 70.8125 0 "/></g></g></g><g fill="#000000" fill-opacity="1"><g transform="translate(294.245741, 247.35956)"><g><path d="M 9.171875 -46.21875 L 14.59375 -93.984375 L 67.265625 -93.984375 L 67.265625 -78.4375 L 29.890625 -78.4375 L 27.5625 -58.21875 C 32 -60.59375 36.710938 -61.78125 41.703125 -61.78125 C 50.648438 -61.78125 57.660156 -59.003906 62.734375 -53.453125 C 67.816406 -47.898438 70.359375 -40.128906 70.359375 -30.140625 C 70.359375 -24.078125 69.078125 -18.644531 66.515625 -13.84375 C 63.960938 -9.050781 60.296875 -5.328125 55.515625 -2.671875 C 50.734375 -0.0234375 45.097656 1.296875 38.609375 1.296875 C 32.921875 1.296875 27.644531 0.144531 22.78125 -2.15625 C 17.925781 -4.457031 14.085938 -7.695312 11.265625 -11.875 C 8.441406 -16.050781 6.945312 -20.804688 6.78125 -26.140625 L 25.234375 -26.140625 C 25.628906 -22.222656 27 -19.175781 29.34375 -17 C 31.6875 -14.832031 34.75 -13.75 38.53125 -13.75 C 42.75 -13.75 46 -15.265625 48.28125 -18.296875 C 50.5625 -21.328125 51.703125 -25.617188 51.703125 -31.171875 C 51.703125 -36.515625 50.390625 -40.601562 47.765625 -43.4375 C 45.140625 -46.28125 41.414062 -47.703125 36.59375 -47.703125 C 32.164062 -47.703125 28.578125 -46.539062 25.828125 -44.21875 L 24.015625 -42.546875 Z M 9.171875 -46.21875 "/></g></g></g><g fill="#000000" fill-opacity="1"><g transform="translate(1.049508, 371.304679)"><g><path d="M 25.375 -55.25 L 35.3125 -55.25 C 40.039062 -55.25 43.546875 -56.429688 45.828125 -58.796875 C 48.109375 -61.171875 49.25 -64.316406 49.25 -68.234375 C 49.25 -72.015625 48.117188 -74.957031 45.859375 -77.0625 C 43.597656 -79.175781 40.488281 -80.234375 36.53125 -80.234375 C 32.957031 -80.234375 29.96875 -79.253906 27.5625 -77.296875 C 25.15625 -75.335938 23.953125 -72.789062 23.953125 -69.65625 L 5.296875 -69.65625 C 5.296875 -74.5625 6.617188 -78.957031 9.265625 -82.84375 C 11.910156 -86.738281 15.609375 -89.785156 20.359375 -91.984375 C 25.117188 -94.179688 30.359375 -95.28125 36.078125 -95.28125 C 46.023438 -95.28125 53.816406 -92.898438 59.453125 -88.140625 C 65.085938 -83.390625 67.90625 -76.835938 67.90625 -68.484375 C 67.90625 -64.179688 66.59375 -60.222656 63.96875 -56.609375 C 61.34375 -52.992188 57.898438 -50.21875 53.640625 -48.28125 C 58.929688 -46.382812 62.878906 -43.539062 65.484375 -39.75 C 68.085938 -35.96875 69.390625 -31.5 69.390625 -26.34375 C 69.390625 -17.988281 66.34375 -11.289062 60.25 -6.25 C 54.164062 -1.21875 46.109375 1.296875 36.078125 1.296875 C 26.703125 1.296875 19.03125 -1.175781 13.0625 -6.125 C 7.101562 -11.082031 4.125 -17.625 4.125 -25.75 L 22.78125 -25.75 C 22.78125 -22.226562 24.101562 -19.347656 26.75 -17.109375 C 29.40625 -14.867188 32.664062 -13.75 36.53125 -13.75 C 40.96875 -13.75 44.441406 -14.921875 46.953125 -17.265625 C 49.472656 -19.609375 50.734375 -22.71875 50.734375 -26.59375 C 50.734375 -35.976562 45.570312 -40.671875 35.25 -40.671875 L 25.375 -40.671875 Z M 25.375 -55.25 "/></g></g></g><g fill="#000000" fill-opacity="1"><g transform="translate(76.898383, 371.304679)"><g/></g></g><g fill="#000000" fill-opacity="1"><g transform="translate(109.820019, 371.304679)"><g><path d="M 66.484375 -48.15625 L 8.78125 -48.15625 L 8.78125 -63.390625 L 66.484375 -63.390625 Z M 66.484375 -20.203125 L 8.78125 -20.203125 L 8.78125 -35.4375 L 66.484375 -35.4375 Z M 66.484375 -20.203125 "/></g></g></g><g fill="#000000" fill-opacity="1"><g transform="translate(185.47523, 371.304679)"><g/></g></g><g fill="#000000" fill-opacity="1"><g transform="translate(218.396866, 371.304679)"><g><path d="M 51.703125 0 L 33.046875 0 L 33.046875 -71.90625 L 10.78125 -65 L 10.78125 -80.171875 L 49.703125 -94.125 L 51.703125 -94.125 Z M 51.703125 0 "/></g></g></g><g fill="#000000" fill-opacity="1"><g transform="translate(294.245741, 371.304679)"><g><path d="M 70.8125 0 L 6.390625 0 L 6.390625 -12.78125 L 36.796875 -45.1875 C 40.972656 -49.75 44.0625 -53.726562 46.0625 -57.125 C 48.0625 -60.53125 49.0625 -63.757812 49.0625 -66.8125 C 49.0625 -70.988281 48.003906 -74.269531 45.890625 -76.65625 C 43.785156 -79.039062 40.773438 -80.234375 36.859375 -80.234375 C 32.640625 -80.234375 29.3125 -78.78125 26.875 -75.875 C 24.445312 -72.976562 23.234375 -69.160156 23.234375 -64.421875 L 4.515625 -64.421875 C 4.515625 -70.148438 5.878906 -75.378906 8.609375 -80.109375 C 11.347656 -84.835938 15.210938 -88.546875 20.203125 -91.234375 C 25.191406 -93.929688 30.851562 -95.28125 37.1875 -95.28125 C 46.863281 -95.28125 54.378906 -92.953125 59.734375 -88.296875 C 65.097656 -83.648438 67.78125 -77.09375 67.78125 -68.625 C 67.78125 -63.96875 66.570312 -59.226562 64.15625 -54.40625 C 61.75 -49.59375 57.617188 -43.976562 51.765625 -37.5625 L 30.40625 -15.046875 L 70.8125 -15.046875 Z M 70.8125 0 "/></g></g></g><g fill="#000000" fill-opacity="1"><g transform="translate(370.094616, 371.304679)"><g><path d="M 9.171875 -46.21875 L 14.59375 -93.984375 L 67.265625 -93.984375 L 67.265625 -78.4375 L 29.890625 -78.4375 L 27.5625 -58.21875 C 32 -60.59375 36.710938 -61.78125 41.703125 -61.78125 C 50.648438 -61.78125 57.660156 -59.003906 62.734375 -53.453125 C 67.816406 -47.898438 70.359375 -40.128906 70.359375 -30.140625 C 70.359375 -24.078125 69.078125 -18.644531 66.515625 -13.84375 C 63.960938 -9.050781 60.296875 -5.328125 55.515625 -2.671875 C 50.734375 -0.0234375 45.097656 1.296875 38.609375 1.296875 C 32.921875 1.296875 27.644531 0.144531 22.78125 -2.15625 C 17.925781 -4.457031 14.085938 -7.695312 11.265625 -11.875 C 8.441406 -16.050781 6.945312 -20.804688 6.78125 -26.140625 L 25.234375 -26.140625 C 25.628906 -22.222656 27 -19.175781 29.34375 -17 C 31.6875 -14.832031 34.75 -13.75 38.53125 -13.75 C 42.75 -13.75 46 -15.265625 48.28125 -18.296875 C 50.5625 -21.328125 51.703125 -25.617188 51.703125 -31.171875 C 51.703125 -36.515625 50.390625 -40.601562 47.765625 -43.4375 C 45.140625 -46.28125 41.414062 -47.703125 36.59375 -47.703125 C 32.164062 -47.703125 28.578125 -46.539062 25.828125 -44.21875 L 24.015625 -42.546875 Z M 9.171875 -46.21875 "/></g></g></g><g fill="#000000" fill-opacity="1"><g transform="translate(1.049508, 495.249798)"><g><path d="M 61.578125 -35.375 L 72.234375 -35.375 L 72.234375 -20.328125 L 61.578125 -20.328125 L 61.578125 0 L 42.921875 0 L 42.921875 -20.328125 L 4.390625 -20.328125 L 3.546875 -32.078125 L 42.734375 -93.984375 L 61.578125 -93.984375 Z M 22.140625 -35.375 L 42.921875 -35.375 L 42.921875 -68.546875 L 41.703125 -66.421875 Z M 22.140625 -35.375 "/></g></g></g><g fill="#000000" fill-opacity="1"><g transform="translate(76.898383, 495.249798)"><g/></g></g><g fill="#000000" fill-opacity="1"><g transform="translate(109.820019, 495.249798)"><g><path d="M 66.484375 -48.15625 L 8.78125 -48.15625 L 8.78125 -63.390625 L 66.484375 -63.390625 Z M 66.484375 -20.203125 L 8.78125 -20.203125 L 8.78125 -35.4375 L 66.484375 -35.4375 Z M 66.484375 -20.203125 "/></g></g></g><g fill="#000000" fill-opacity="1"><g transform="translate(185.47523, 495.249798)"><g/></g></g><g fill="#000000" fill-opacity="1"><g transform="translate(218.396866, 495.249798)"><g><path d="M 57 -94.953125 L 57 -79.59375 L 55.1875 -79.59375 C 46.757812 -79.46875 39.972656 -77.273438 34.828125 -73.015625 C 29.679688 -68.753906 26.59375 -62.832031 25.5625 -55.25 C 30.550781 -60.332031 36.851562 -62.875 44.46875 -62.875 C 52.644531 -62.875 59.144531 -59.945312 63.96875 -54.09375 C 68.789062 -48.238281 71.203125 -40.535156 71.203125 -30.984375 C 71.203125 -24.867188 69.878906 -19.335938 67.234375 -14.390625 C 64.585938 -9.441406 60.84375 -5.585938 56 -2.828125 C 51.15625 -0.078125 45.679688 1.296875 39.578125 1.296875 C 29.671875 1.296875 21.671875 -2.144531 15.578125 -9.03125 C 9.492188 -15.914062 6.453125 -25.101562 6.453125 -36.59375 L 6.453125 -43.3125 C 6.453125 -53.507812 8.378906 -62.515625 12.234375 -70.328125 C 16.085938 -78.140625 21.617188 -84.1875 28.828125 -88.46875 C 36.035156 -92.75 44.394531 -94.910156 53.90625 -94.953125 Z M 38.796875 -47.890625 C 35.785156 -47.890625 33.050781 -47.101562 30.59375 -45.53125 C 28.144531 -43.96875 26.335938 -41.894531 25.171875 -39.3125 L 25.171875 -33.625 C 25.171875 -27.382812 26.394531 -22.507812 28.84375 -19 C 31.300781 -15.5 34.75 -13.75 39.1875 -13.75 C 43.1875 -13.75 46.421875 -15.328125 48.890625 -18.484375 C 51.367188 -21.648438 52.609375 -25.753906 52.609375 -30.796875 C 52.609375 -35.910156 51.359375 -40.035156 48.859375 -43.171875 C 46.367188 -46.316406 43.015625 -47.890625 38.796875 -47.890625 Z M 38.796875 -47.890625 "/></g></g></g><g fill="#000000" fill-opacity="1"><g transform="translate(294.245741, 495.249798)"><g><path d="M 70.8125 0 L 6.390625 0 L 6.390625 -12.78125 L 36.796875 -45.1875 C 40.972656 -49.75 44.0625 -53.726562 46.0625 -57.125 C 48.0625 -60.53125 49.0625 -63.757812 49.0625 -66.8125 C 49.0625 -70.988281 48.003906 -74.269531 45.890625 -76.65625 C 43.785156 -79.039062 40.773438 -80.234375 36.859375 -80.234375 C 32.640625 -80.234375 29.3125 -78.78125 26.875 -75.875 C 24.445312 -72.976562 23.234375 -69.160156 23.234375 -64.421875 L 4.515625 -64.421875 C 4.515625 -70.148438 5.878906 -75.378906 8.609375 -80.109375 C 11.347656 -84.835938 15.210938 -88.546875 20.203125 -91.234375 C 25.191406 -93.929688 30.851562 -95.28125 37.1875 -95.28125 C 46.863281 -95.28125 54.378906 -92.953125 59.734375 -88.296875 C 65.097656 -83.648438 67.78125 -77.09375 67.78125 -68.625 C 67.78125 -63.96875 66.570312 -59.226562 64.15625 -54.40625 C 61.75 -49.59375 57.617188 -43.976562 51.765625 -37.5625 L 30.40625 -15.046875 L 70.8125 -15.046875 Z M 70.8125 0 "/></g></g></g><g fill="#000000" fill-opacity="1"><g transform="translate(370.094616, 495.249798)"><g><path d="M 9.171875 -46.21875 L 14.59375 -93.984375 L 67.265625 -93.984375 L 67.265625 -78.4375 L 29.890625 -78.4375 L 27.5625 -58.21875 C 32 -60.59375 36.710938 -61.78125 41.703125 -61.78125 C 50.648438 -61.78125 57.660156 -59.003906 62.734375 -53.453125 C 67.816406 -47.898438 70.359375 -40.128906 70.359375 -30.140625 C 70.359375 -24.078125 69.078125 -18.644531 66.515625 -13.84375 C 63.960938 -9.050781 60.296875 -5.328125 55.515625 -2.671875 C 50.734375 -0.0234375 45.097656 1.296875 38.609375 1.296875 C 32.921875 1.296875 27.644531 0.144531 22.78125 -2.15625 C 17.925781 -4.457031 14.085938 -7.695312 11.265625 -11.875 C 8.441406 -16.050781 6.945312 -20.804688 6.78125 -26.140625 L 25.234375 -26.140625 C 25.628906 -22.222656 27 -19.175781 29.34375 -17 C 31.6875 -14.832031 34.75 -13.75 38.53125 -13.75 C 42.75 -13.75 46 -15.265625 48.28125 -18.296875 C 50.5625 -21.328125 51.703125 -25.617188 51.703125 -31.171875 C 51.703125 -36.515625 50.390625 -40.601562 47.765625 -43.4375 C 45.140625 -46.28125 41.414062 -47.703125 36.59375 -47.703125 C 32.164062 -47.703125 28.578125 -46.539062 25.828125 -44.21875 L 24.015625 -42.546875 Z M 9.171875 -46.21875 "/></g></g></g><g fill="#000000" fill-opacity="1"><g transform="translate(1.049508, 619.194916)"><g><path d="M 9.171875 -46.21875 L 14.59375 -93.984375 L 67.265625 -93.984375 L 67.265625 -78.4375 L 29.890625 -78.4375 L 27.5625 -58.21875 C 32 -60.59375 36.710938 -61.78125 41.703125 -61.78125 C 50.648438 -61.78125 57.660156 -59.003906 62.734375 -53.453125 C 67.816406 -47.898438 70.359375 -40.128906 70.359375 -30.140625 C 70.359375 -24.078125 69.078125 -18.644531 66.515625 -13.84375 C 63.960938 -9.050781 60.296875 -5.328125 55.515625 -2.671875 C 50.734375 -0.0234375 45.097656 1.296875 38.609375 1.296875 C 32.921875 1.296875 27.644531 0.144531 22.78125 -2.15625 C 17.925781 -4.457031 14.085938 -7.695312 11.265625 -11.875 C 8.441406 -16.050781 6.945312 -20.804688 6.78125 -26.140625 L 25.234375 -26.140625 C 25.628906 -22.222656 27 -19.175781 29.34375 -17 C 31.6875 -14.832031 34.75 -13.75 38.53125 -13.75 C 42.75 -13.75 46 -15.265625 48.28125 -18.296875 C 50.5625 -21.328125 51.703125 -25.617188 51.703125 -31.171875 C 51.703125 -36.515625 50.390625 -40.601562 47.765625 -43.4375 C 45.140625 -46.28125 41.414062 -47.703125 36.59375 -47.703125 C 32.164062 -47.703125 28.578125 -46.539062 25.828125 -44.21875 L 24.015625 -42.546875 Z M 9.171875 -46.21875 "/></g></g></g><g fill="#000000" fill-opacity="1"><g transform="translate(76.898383, 619.194916)"><g/></g></g><g fill="#000000" fill-opacity="1"><g transform="translate(109.820019, 619.194916)"><g><path d="M 66.484375 -48.15625 L 8.78125 -48.15625 L 8.78125 -63.390625 L 66.484375 -63.390625 Z M 66.484375 -20.203125 L 8.78125 -20.203125 L 8.78125 -35.4375 L 66.484375 -35.4375 Z M 66.484375 -20.203125 "/></g></g></g><g fill="#000000" fill-opacity="1"><g transform="translate(185.47523, 619.194916)"><g/></g></g><g fill="#000000" fill-opacity="1"><g transform="translate(218.396866, 619.194916)"><g><path d="M 22.40625 -28.859375 C 22.40625 -34.878906 23.132812 -39.675781 24.59375 -43.25 C 26.0625 -46.820312 28.738281 -50.335938 32.625 -53.796875 C 36.519531 -57.265625 39.113281 -60.082031 40.40625 -62.25 C 41.695312 -64.425781 42.34375 -66.722656 42.34375 -69.140625 C 42.34375 -76.410156 38.988281 -80.046875 32.28125 -80.046875 C 29.09375 -80.046875 26.539062 -79.066406 24.625 -77.109375 C 22.707031 -75.148438 21.707031 -72.445312 21.625 -69 L 2.90625 -69 C 2.988281 -77.21875 5.644531 -83.648438 10.875 -88.296875 C 16.101562 -92.953125 23.238281 -95.28125 32.28125 -95.28125 C 41.40625 -95.28125 48.484375 -93.070312 53.515625 -88.65625 C 58.546875 -84.25 61.0625 -78.019531 61.0625 -69.96875 C 61.0625 -66.3125 60.242188 -62.859375 58.609375 -59.609375 C 56.972656 -56.359375 54.113281 -52.753906 50.03125 -48.796875 L 44.796875 -43.828125 C 41.523438 -40.691406 39.65625 -37.015625 39.1875 -32.796875 L 38.921875 -28.859375 Z M 20.53125 -9.03125 C 20.53125 -11.914062 21.507812 -14.296875 23.46875 -16.171875 C 25.425781 -18.046875 27.929688 -18.984375 30.984375 -18.984375 C 34.035156 -18.984375 36.539062 -18.046875 38.5 -16.171875 C 40.457031 -14.296875 41.4375 -11.914062 41.4375 -9.03125 C 41.4375 -6.195312 40.476562 -3.851562 38.5625 -2 C 36.65625 -0.144531 34.128906 0.78125 30.984375 0.78125 C 27.835938 0.78125 25.304688 -0.144531 23.390625 -2 C 21.484375 -3.851562 20.53125 -6.195312 20.53125 -9.03125 Z M 20.53125 -9.03125 "/></g></g></g></g></g></g></g></g></svg>