<svg width="548" height="47" viewBox="0 0 548 47" fill="none" xmlns="http://www.w3.org/2000/svg">
<path d="M37.5748 34.842C37.7908 35.31 37.8988 35.778 37.8988 36.246C37.8988 37.074 37.5568 37.776 36.8728 38.352C36.2248 38.928 35.4688 39.216 34.6048 39.216C34.0288 39.216 33.4888 39.072 32.9848 38.784C32.4808 38.46 32.0848 37.974 31.7968 37.326L28.5568 30.09H9.54884L6.30884 37.326C6.02084 37.974 5.62484 38.46 5.12084 38.784C4.61684 39.072 4.05884 39.216 3.44684 39.216C2.61884 39.216 1.86284 38.928 1.17884 38.352C0.494844 37.776 0.152844 37.074 0.152844 36.246C0.152844 35.778 0.260844 35.31 0.476844 34.842L15.3808 2.82C15.7048 2.1 16.1908 1.56 16.8388 1.2C17.5228 0.803998 18.2428 0.605999 18.9988 0.605999C19.7548 0.605999 20.4568 0.803998 21.1048 1.2C21.7888 1.56 22.2928 2.1 22.6168 2.82L37.5748 34.842ZM11.9248 24.69H26.1808L19.0528 8.652L11.9248 24.69ZM59.4271 20.532C58.7431 20.532 58.1671 20.316 57.6991 19.884C57.2671 19.416 57.0511 18.84 57.0511 18.156C57.0511 17.472 57.2671 16.914 57.6991 16.482C58.1671 16.014 58.7431 15.78 59.4271 15.78H81.0271C81.7111 15.78 82.2691 16.014 82.7011 16.482C83.1691 16.95 83.4031 17.526 83.4031 18.21C83.4031 18.858 83.1691 19.416 82.7011 19.884C82.2691 20.316 81.7111 20.532 81.0271 20.532H59.4271ZM59.4271 31.332C58.7431 31.332 58.1671 31.116 57.6991 30.684C57.2671 30.216 57.0511 29.64 57.0511 28.956C57.0511 28.272 57.2671 27.714 57.6991 27.282C58.1671 26.814 58.7431 26.58 59.4271 26.58H81.0271C81.7111 26.58 82.2691 26.814 82.7011 27.282C83.1691 27.75 83.4031 28.326 83.4031 29.01C83.4031 29.658 83.1691 30.216 82.7011 30.684C82.2691 31.116 81.7111 31.332 81.0271 31.332H59.4271ZM119.264 14.592C121.532 14.592 123.548 15.114 125.312 16.158C127.076 17.166 128.444 18.606 129.416 20.478C130.424 22.314 130.928 24.42 130.928 26.796C130.928 29.244 130.37 31.44 129.254 33.384C128.174 35.292 126.662 36.786 124.718 37.866C122.81 38.946 120.632 39.486 118.184 39.486C113.36 39.486 109.634 37.866 107.006 34.626C104.414 31.35 103.118 26.688 103.118 20.64C103.118 16.5 103.73 12.918 104.954 9.894C106.178 6.834 107.924 4.494 110.192 2.874C112.496 1.254 115.196 0.443998 118.292 0.443998C120.344 0.443998 122.396 0.821998 124.448 1.578C126.536 2.298 128.3 3.288 129.74 4.548C130.208 4.944 130.532 5.34 130.712 5.736C130.928 6.096 131.036 6.546 131.036 7.086C131.036 7.878 130.802 8.562 130.334 9.138C129.902 9.678 129.38 9.948 128.768 9.948C128.408 9.948 128.066 9.894 127.742 9.786C127.418 9.642 127.022 9.426 126.554 9.138C123.566 7.05 120.902 6.006 118.562 6.006C115.934 6.006 113.864 7.23 112.352 9.678C110.84 12.09 110.048 15.492 109.976 19.884C110.804 18.264 112.046 16.986 113.702 16.05C115.358 15.078 117.212 14.592 119.264 14.592ZM117.806 33.978C119.786 33.978 121.37 33.348 122.558 32.088C123.746 30.792 124.34 29.1 124.34 27.012C124.34 24.924 123.746 23.25 122.558 21.99C121.37 20.73 119.786 20.1 117.806 20.1C115.79 20.1 114.152 20.748 112.892 22.044C111.668 23.304 111.056 24.96 111.056 27.012C111.056 29.1 111.668 30.792 112.892 32.088C114.152 33.348 115.79 33.978 117.806 33.978ZM139.709 31.224C140.933 31.224 141.923 31.674 142.679 32.574C143.435 33.474 143.813 34.788 143.813 36.516C143.813 39.936 142.625 42.888 140.249 45.372C139.781 45.84 139.277 46.074 138.737 46.074C138.197 46.074 137.729 45.894 137.333 45.534C136.937 45.174 136.739 44.742 136.739 44.238C136.739 43.806 136.919 43.392 137.279 42.996C138.359 41.844 139.061 40.548 139.385 39.108C138.341 39 137.477 38.604 136.793 37.92C136.145 37.2 135.821 36.318 135.821 35.274C135.821 34.122 136.181 33.168 136.901 32.412C137.657 31.62 138.593 31.224 139.709 31.224ZM188.716 19.344C190.912 19.956 192.604 21.072 193.792 22.692C195.016 24.312 195.628 26.292 195.628 28.632C195.628 31.872 194.458 34.41 192.118 36.246C189.814 38.082 186.628 39 182.56 39H168.628C167.584 39 166.756 38.712 166.144 38.136C165.568 37.56 165.28 36.75 165.28 35.706V4.224C165.28 3.18 165.568 2.37 166.144 1.794C166.756 1.218 167.584 0.929998 168.628 0.929998H182.02C185.98 0.929998 189.076 1.812 191.308 3.576C193.576 5.304 194.71 7.734 194.71 10.866C194.71 12.882 194.17 14.628 193.09 16.104C192.046 17.58 190.588 18.66 188.716 19.344ZM172.084 16.968H180.886C185.674 16.968 188.068 15.186 188.068 11.622C188.068 9.822 187.474 8.49 186.286 7.626C185.098 6.762 183.298 6.33 180.886 6.33H172.084V16.968ZM181.804 33.6C184.324 33.6 186.16 33.15 187.312 32.25C188.464 31.35 189.04 29.946 189.04 28.038C189.04 26.13 188.446 24.708 187.258 23.772C186.106 22.836 184.288 22.368 181.804 22.368H172.084V33.6H181.804ZM218.421 20.532C217.737 20.532 217.161 20.316 216.693 19.884C216.261 19.416 216.045 18.84 216.045 18.156C216.045 17.472 216.261 16.914 216.693 16.482C217.161 16.014 217.737 15.78 218.421 15.78H240.021C240.705 15.78 241.263 16.014 241.695 16.482C242.163 16.95 242.397 17.526 242.397 18.21C242.397 18.858 242.163 19.416 241.695 19.884C241.263 20.316 240.705 20.532 240.021 20.532H218.421ZM218.421 31.332C217.737 31.332 217.161 31.116 216.693 30.684C216.261 30.216 216.045 29.64 216.045 28.956C216.045 28.272 216.261 27.714 216.693 27.282C217.161 26.814 217.737 26.58 218.421 26.58H240.021C240.705 26.58 241.263 26.814 241.695 27.282C242.163 27.75 242.397 28.326 242.397 29.01C242.397 29.658 242.163 30.216 241.695 30.684C241.263 31.116 240.705 31.332 240.021 31.332H218.421ZM286.628 33.384C288.788 33.384 289.868 34.302 289.868 36.138C289.868 38.046 288.788 39 286.628 39H266.108C265.172 39 264.434 38.73 263.894 38.19C263.354 37.614 263.084 36.912 263.084 36.084C263.084 35.004 263.498 34.032 264.326 33.168L276.638 19.938C278.15 18.282 279.248 16.77 279.932 15.402C280.652 13.998 281.012 12.612 281.012 11.244C281.012 9.552 280.526 8.256 279.554 7.356C278.582 6.456 277.196 6.006 275.396 6.006C273.92 6.006 272.48 6.294 271.076 6.87C269.708 7.41 268.322 8.166 266.918 9.138C266.558 9.39 266.198 9.606 265.838 9.786C265.478 9.93 265.118 10.002 264.758 10.002C264.146 10.002 263.606 9.714 263.138 9.138C262.706 8.562 262.49 7.878 262.49 7.086C262.49 6.546 262.58 6.078 262.76 5.682C262.976 5.286 263.3 4.908 263.732 4.548C265.316 3.288 267.17 2.298 269.294 1.578C271.418 0.821998 273.542 0.443998 275.666 0.443998C279.374 0.443998 282.326 1.38 284.522 3.252C286.754 5.124 287.87 7.644 287.87 10.812C287.87 13.008 287.402 15.078 286.466 17.022C285.53 18.93 283.946 21.072 281.714 23.448L272.372 33.384H286.628ZM320.518 26.148C321.598 26.148 322.408 26.382 322.948 26.85C323.488 27.318 323.758 27.984 323.758 28.848C323.758 30.648 322.678 31.548 320.518 31.548H317.764V35.814C317.764 36.93 317.44 37.794 316.792 38.406C316.18 39.018 315.37 39.324 314.362 39.324C313.354 39.324 312.526 39.018 311.878 38.406C311.266 37.794 310.96 36.93 310.96 35.814V31.548H296.812C295.84 31.548 295.084 31.278 294.544 30.738C294.004 30.162 293.734 29.46 293.734 28.632C293.734 27.768 294.022 26.94 294.598 26.148L311.284 2.172C311.644 1.668 312.094 1.29 312.634 1.038C313.174 0.749999 313.732 0.605999 314.308 0.605999C315.244 0.605999 316.054 0.911999 316.738 1.524C317.422 2.136 317.764 3 317.764 4.116V26.148H320.518ZM300.916 26.148H310.96V11.622L300.916 26.148ZM331.135 31.224C332.359 31.224 333.349 31.674 334.105 32.574C334.861 33.474 335.239 34.788 335.239 36.516C335.239 39.936 334.051 42.888 331.675 45.372C331.207 45.84 330.703 46.074 330.163 46.074C329.623 46.074 329.155 45.894 328.759 45.534C328.363 45.174 328.165 44.742 328.165 44.238C328.165 43.806 328.345 43.392 328.705 42.996C329.785 41.844 330.487 40.548 330.811 39.108C329.767 39 328.903 38.604 328.219 37.92C327.571 37.2 327.247 36.318 327.247 35.274C327.247 34.122 327.607 33.168 328.327 32.412C329.083 31.62 330.019 31.224 331.135 31.224ZM373.716 39.486C370.044 39.486 366.822 38.694 364.05 37.11C361.314 35.526 359.208 33.258 357.732 30.306C356.256 27.354 355.518 23.898 355.518 19.938C355.518 15.978 356.256 12.54 357.732 9.624C359.208 6.672 361.314 4.404 364.05 2.82C366.822 1.236 370.044 0.443998 373.716 0.443998C376.092 0.443998 378.324 0.803998 380.412 1.524C382.5 2.208 384.354 3.216 385.974 4.548C386.442 4.908 386.766 5.286 386.946 5.682C387.126 6.078 387.216 6.564 387.216 7.14C387.216 7.932 387 8.598 386.568 9.138C386.136 9.678 385.614 9.948 385.002 9.948C384.282 9.948 383.544 9.696 382.788 9.192C381.24 8.04 379.8 7.248 378.468 6.816C377.136 6.348 375.66 6.114 374.04 6.114C370.296 6.114 367.452 7.284 365.508 9.624C363.6 11.964 362.646 15.402 362.646 19.938C362.646 24.51 363.6 27.966 365.508 30.306C367.452 32.646 370.296 33.816 374.04 33.816C375.588 33.816 377.01 33.582 378.306 33.114C379.638 32.646 381.132 31.854 382.788 30.738C383.148 30.522 383.508 30.342 383.868 30.198C384.228 30.054 384.606 29.982 385.002 29.982C385.614 29.982 386.136 30.252 386.568 30.792C387 31.332 387.216 31.998 387.216 32.79C387.216 33.33 387.126 33.816 386.946 34.248C386.766 34.644 386.442 35.022 385.974 35.382C384.354 36.714 382.5 37.74 380.412 38.46C378.324 39.144 376.092 39.486 373.716 39.486ZM409.583 20.532C408.899 20.532 408.323 20.316 407.855 19.884C407.423 19.416 407.207 18.84 407.207 18.156C407.207 17.472 407.423 16.914 407.855 16.482C408.323 16.014 408.899 15.78 409.583 15.78H431.183C431.867 15.78 432.425 16.014 432.857 16.482C433.325 16.95 433.559 17.526 433.559 18.21C433.559 18.858 433.325 19.416 432.857 19.884C432.425 20.316 431.867 20.532 431.183 20.532H409.583ZM409.583 31.332C408.899 31.332 408.323 31.116 407.855 30.684C407.423 30.216 407.207 29.64 407.207 28.956C407.207 28.272 407.423 27.714 407.855 27.282C408.323 26.814 408.899 26.58 409.583 26.58H431.183C431.867 26.58 432.425 26.814 432.857 27.282C433.325 27.75 433.559 28.326 433.559 29.01C433.559 29.658 433.325 30.216 432.857 30.684C432.425 31.116 431.867 31.332 431.183 31.332H409.583ZM477.952 33.384C480.112 33.384 481.192 34.302 481.192 36.138C481.192 38.046 480.112 39 477.952 39H459.7C457.504 39 456.406 38.046 456.406 36.138C456.406 34.302 457.504 33.384 459.7 33.384H465.316V8.76L460.132 11.946C459.628 12.234 459.178 12.378 458.782 12.378C458.026 12.378 457.378 12.054 456.838 11.406C456.334 10.758 456.082 10.038 456.082 9.246C456.082 8.202 456.55 7.392 457.486 6.816L465.856 1.632C466.936 0.983998 467.962 0.659998 468.934 0.659998C469.942 0.659998 470.752 0.965998 471.364 1.578C471.976 2.19 472.282 3.036 472.282 4.116V33.384H477.952ZM511.627 26.148C512.707 26.148 513.517 26.382 514.057 26.85C514.597 27.318 514.867 27.984 514.867 28.848C514.867 30.648 513.787 31.548 511.627 31.548H508.873V35.814C508.873 36.93 508.549 37.794 507.901 38.406C507.289 39.018 506.479 39.324 505.471 39.324C504.463 39.324 503.635 39.018 502.987 38.406C502.375 37.794 502.069 36.93 502.069 35.814V31.548H487.921C486.949 31.548 486.193 31.278 485.653 30.738C485.113 30.162 484.843 29.46 484.843 28.632C484.843 27.768 485.131 26.94 485.707 26.148L502.393 2.172C502.753 1.668 503.203 1.29 503.743 1.038C504.283 0.749999 504.841 0.605999 505.417 0.605999C506.353 0.605999 507.163 0.911999 507.847 1.524C508.531 2.136 508.873 3 508.873 4.116V26.148H511.627ZM492.025 26.148H502.069V11.622L492.025 26.148ZM544.006 26.148C545.086 26.148 545.896 26.382 546.436 26.85C546.976 27.318 547.246 27.984 547.246 28.848C547.246 30.648 546.166 31.548 544.006 31.548H541.252V35.814C541.252 36.93 540.928 37.794 540.28 38.406C539.668 39.018 538.858 39.324 537.85 39.324C536.842 39.324 536.014 39.018 535.366 38.406C534.754 37.794 534.448 36.93 534.448 35.814V31.548H520.3C519.328 31.548 518.572 31.278 518.032 30.738C517.492 30.162 517.222 29.46 517.222 28.632C517.222 27.768 517.51 26.94 518.086 26.148L534.772 2.172C535.132 1.668 535.582 1.29 536.122 1.038C536.662 0.749999 537.22 0.605999 537.796 0.605999C538.732 0.605999 539.542 0.911999 540.226 1.524C540.91 2.136 541.252 3 541.252 4.116V26.148H544.006ZM524.404 26.148H534.448V11.622L524.404 26.148Z" fill="black"/>
</svg>
