<svg xmlns="http://www.w3.org/2000/svg" xmlns:xlink="http://www.w3.org/1999/xlink" width="560" zoomAndPan="magnify" viewBox="0 0 420 77.999999" height="104" preserveAspectRatio="xMidYMid meet" version="1.0"><defs><g/><clipPath id="191f55a90a"><path d="M 0.0117188 2.132812 L 419.683594 2.132812 L 419.683594 75.632812 L 0.0117188 75.632812 Z M 0.0117188 2.132812 " clip-rule="nonzero"/></clipPath></defs><g fill="#000000" fill-opacity="1"><g transform="translate(21.060284, 51.691398)"><g><path d="M 22.125 0 L 19.6875 -7.03125 L 9.203125 -7.03125 L 6.765625 0 L 1 0 L 11.03125 -27.515625 L 17.828125 -27.515625 L 27.828125 0 Z M 14.4375 -23.28125 L 14.3125 -22.859375 C 14.1875 -22.390625 14.03125 -21.851562 13.84375 -21.25 C 13.664062 -20.65625 12.546875 -17.363281 10.484375 -11.375 L 18.40625 -11.375 L 15.6875 -19.28125 L 14.84375 -21.9375 Z M 14.4375 -23.28125 "/></g></g></g><g fill="#000000" fill-opacity="1"><g transform="translate(48.4599, 51.691398)"><g/></g></g><g fill="#000000" fill-opacity="1"><g transform="translate(59.572101, 51.691398)"><g><path d="M 1.65625 -16.453125 L 1.65625 -20.796875 L 21.71875 -20.796875 L 21.71875 -16.453125 Z M 1.65625 -5.6875 L 1.65625 -10 L 21.71875 -10 L 21.71875 -5.6875 Z M 1.65625 -5.6875 "/></g></g></g><g fill="#000000" fill-opacity="1"><g transform="translate(82.929194, 51.691398)"><g/></g></g><g fill="#000000" fill-opacity="1"><g transform="translate(94.041395, 51.691398)"><g><path d="M 20.796875 -9 C 20.796875 -6.070312 19.972656 -3.773438 18.328125 -2.109375 C 16.691406 -0.441406 14.429688 0.390625 11.546875 0.390625 C 8.304688 0.390625 5.816406 -0.742188 4.078125 -3.015625 C 2.335938 -5.285156 1.46875 -8.65625 1.46875 -13.125 C 1.46875 -18.03125 2.347656 -21.722656 4.109375 -24.203125 C 5.878906 -26.691406 8.40625 -27.9375 11.6875 -27.9375 C 14.007812 -27.9375 15.84375 -27.421875 17.1875 -26.390625 C 18.539062 -25.359375 19.5 -23.765625 20.0625 -21.609375 L 14.890625 -20.875 C 14.390625 -22.6875 13.28125 -23.59375 11.5625 -23.59375 C 10.09375 -23.59375 8.9375 -22.859375 8.09375 -21.390625 C 7.257812 -19.921875 6.84375 -17.6875 6.84375 -14.6875 C 7.425781 -15.664062 8.238281 -16.414062 9.28125 -16.9375 C 10.320312 -17.457031 11.5 -17.71875 12.8125 -17.71875 C 15.269531 -17.71875 17.210938 -16.9375 18.640625 -15.375 C 20.078125 -13.8125 20.796875 -11.6875 20.796875 -9 Z M 15.296875 -8.84375 C 15.296875 -10.40625 14.929688 -11.597656 14.203125 -12.421875 C 13.484375 -13.253906 12.492188 -13.671875 11.234375 -13.671875 C 10.023438 -13.671875 9.054688 -13.28125 8.328125 -12.5 C 7.597656 -11.726562 7.234375 -10.707031 7.234375 -9.4375 C 7.234375 -7.832031 7.613281 -6.503906 8.375 -5.453125 C 9.132812 -4.410156 10.132812 -3.890625 11.375 -3.890625 C 12.601562 -3.890625 13.5625 -4.328125 14.25 -5.203125 C 14.945312 -6.085938 15.296875 -7.300781 15.296875 -8.84375 Z M 15.296875 -8.84375 "/></g></g></g><g fill="#000000" fill-opacity="1"><g transform="translate(116.28532, 51.691398)"><g><path d="M 8.4375 -1.296875 C 8.4375 0.273438 8.269531 1.660156 7.9375 2.859375 C 7.601562 4.054688 7.066406 5.164062 6.328125 6.1875 L 2.71875 6.1875 C 3.488281 5.269531 4.113281 4.253906 4.59375 3.140625 C 5.070312 2.035156 5.3125 0.988281 5.3125 0 L 2.796875 0 L 2.796875 -5.953125 L 8.4375 -5.953125 Z M 8.4375 -1.296875 "/></g></g></g><g fill="#000000" fill-opacity="1"><g transform="translate(127.397522, 51.691398)"><g/></g></g><g fill="#000000" fill-opacity="1"><g transform="translate(138.509723, 51.691398)"><g><path d="M 27.078125 -7.859375 C 27.078125 -5.359375 26.140625 -3.421875 24.265625 -2.046875 C 22.390625 -0.679688 19.785156 0 16.453125 0 L 2.671875 0 L 2.671875 -27.515625 L 15.28125 -27.515625 C 18.632812 -27.515625 21.171875 -26.929688 22.890625 -25.765625 C 24.617188 -24.609375 25.484375 -22.890625 25.484375 -20.609375 C 25.484375 -19.046875 25.050781 -17.726562 24.1875 -16.65625 C 23.320312 -15.582031 22.003906 -14.851562 20.234375 -14.46875 C 22.460938 -14.207031 24.160156 -13.507812 25.328125 -12.375 C 26.492188 -11.238281 27.078125 -9.734375 27.078125 -7.859375 Z M 19.6875 -19.828125 C 19.6875 -21.066406 19.289062 -21.945312 18.5 -22.46875 C 17.71875 -22.988281 16.550781 -23.25 15 -23.25 L 8.4375 -23.25 L 8.4375 -16.421875 L 15.046875 -16.421875 C 16.671875 -16.421875 17.847656 -16.703125 18.578125 -17.265625 C 19.316406 -17.835938 19.6875 -18.691406 19.6875 -19.828125 Z M 21.296875 -8.296875 C 21.296875 -10.878906 19.445312 -12.171875 15.75 -12.171875 L 8.4375 -12.171875 L 8.4375 -4.28125 L 15.953125 -4.28125 C 17.804688 -4.28125 19.160156 -4.613281 20.015625 -5.28125 C 20.867188 -5.957031 21.296875 -6.960938 21.296875 -8.296875 Z M 21.296875 -8.296875 "/></g></g></g><g fill="#000000" fill-opacity="1"><g transform="translate(167.393624, 51.691398)"><g/></g></g><g fill="#000000" fill-opacity="1"><g transform="translate(178.505826, 51.691398)"><g><path d="M 1.65625 -16.453125 L 1.65625 -20.796875 L 21.71875 -20.796875 L 21.71875 -16.453125 Z M 1.65625 -5.6875 L 1.65625 -10 L 21.71875 -10 L 21.71875 -5.6875 Z M 1.65625 -5.6875 "/></g></g></g><g fill="#000000" fill-opacity="1"><g transform="translate(201.862918, 51.691398)"><g/></g></g><g fill="#000000" fill-opacity="1"><g transform="translate(212.97512, 51.691398)"><g><path d="M 20.796875 -7.640625 C 20.796875 -5.054688 19.945312 -3.0625 18.25 -1.65625 C 16.5625 -0.25 14.15625 0.453125 11.03125 0.453125 C 8.082031 0.453125 5.734375 -0.226562 3.984375 -1.59375 C 2.242188 -2.957031 1.222656 -4.921875 0.921875 -7.484375 L 6.5 -7.96875 C 6.851562 -5.320312 8.359375 -4 11.015625 -4 C 12.328125 -4 13.347656 -4.320312 14.078125 -4.96875 C 14.804688 -5.625 15.171875 -6.625 15.171875 -7.96875 C 15.171875 -9.195312 14.726562 -10.132812 13.84375 -10.78125 C 12.957031 -11.4375 11.644531 -11.765625 9.90625 -11.765625 L 7.984375 -11.765625 L 7.984375 -16.1875 L 9.78125 -16.1875 C 11.363281 -16.1875 12.550781 -16.507812 13.34375 -17.15625 C 14.132812 -17.800781 14.53125 -18.722656 14.53125 -19.921875 C 14.53125 -21.054688 14.210938 -21.945312 13.578125 -22.59375 C 12.953125 -23.238281 12.035156 -23.5625 10.828125 -23.5625 C 9.691406 -23.5625 8.773438 -23.25 8.078125 -22.625 C 7.378906 -22 6.976562 -21.113281 6.875 -19.96875 L 1.390625 -20.359375 C 1.671875 -22.722656 2.648438 -24.578125 4.328125 -25.921875 C 6.015625 -27.265625 8.210938 -27.9375 10.921875 -27.9375 C 13.796875 -27.9375 16.039062 -27.285156 17.65625 -25.984375 C 19.28125 -24.691406 20.09375 -22.898438 20.09375 -20.609375 C 20.09375 -18.890625 19.585938 -17.472656 18.578125 -16.359375 C 17.578125 -15.253906 16.125 -14.519531 14.21875 -14.15625 L 14.21875 -14.078125 C 16.332031 -13.835938 17.957031 -13.144531 19.09375 -12 C 20.226562 -10.863281 20.796875 -9.410156 20.796875 -7.640625 Z M 20.796875 -7.640625 "/></g></g></g><g fill="#000000" fill-opacity="1"><g transform="translate(235.219057, 51.691398)"><g><path d="M 8.4375 -1.296875 C 8.4375 0.273438 8.269531 1.660156 7.9375 2.859375 C 7.601562 4.054688 7.066406 5.164062 6.328125 6.1875 L 2.71875 6.1875 C 3.488281 5.269531 4.113281 4.253906 4.59375 3.140625 C 5.070312 2.035156 5.3125 0.988281 5.3125 0 L 2.796875 0 L 2.796875 -5.953125 L 8.4375 -5.953125 Z M 8.4375 -1.296875 "/></g></g></g><g fill="#000000" fill-opacity="1"><g transform="translate(246.331247, 51.691398)"><g/></g></g><g fill="#000000" fill-opacity="1"><g transform="translate(257.443437, 51.691398)"><g><path d="M 15.53125 -4.140625 C 19.007812 -4.140625 21.425781 -5.882812 22.78125 -9.375 L 27.796875 -7.484375 C 26.710938 -4.828125 25.125 -2.847656 23.03125 -1.546875 C 20.945312 -0.253906 18.445312 0.390625 15.53125 0.390625 C 11.101562 0.390625 7.679688 -0.859375 5.265625 -3.359375 C 2.847656 -5.867188 1.640625 -9.378906 1.640625 -13.890625 C 1.640625 -18.410156 2.804688 -21.878906 5.140625 -24.296875 C 7.472656 -26.722656 10.851562 -27.9375 15.28125 -27.9375 C 18.507812 -27.9375 21.140625 -27.285156 23.171875 -25.984375 C 25.203125 -24.691406 26.625 -22.789062 27.4375 -20.28125 L 22.359375 -18.890625 C 21.929688 -20.265625 21.085938 -21.359375 19.828125 -22.171875 C 18.578125 -22.992188 17.097656 -23.40625 15.390625 -23.40625 C 12.785156 -23.40625 10.804688 -22.597656 9.453125 -20.984375 C 8.109375 -19.367188 7.4375 -17.003906 7.4375 -13.890625 C 7.4375 -10.722656 8.128906 -8.304688 9.515625 -6.640625 C 10.910156 -4.972656 12.914062 -4.140625 15.53125 -4.140625 Z M 15.53125 -4.140625 "/></g></g></g><g fill="#000000" fill-opacity="1"><g transform="translate(286.327362, 51.691398)"><g/></g></g><g fill="#000000" fill-opacity="1"><g transform="translate(297.439551, 51.691398)"><g><path d="M 1.65625 -16.453125 L 1.65625 -20.796875 L 21.71875 -20.796875 L 21.71875 -16.453125 Z M 1.65625 -5.6875 L 1.65625 -10 L 21.71875 -10 L 21.71875 -5.6875 Z M 1.65625 -5.6875 "/></g></g></g><g fill="#000000" fill-opacity="1"><g transform="translate(320.796644, 51.691398)"><g/></g></g><g fill="#000000" fill-opacity="1"><g transform="translate(331.908857, 51.691398)"><g><path d="M 2.515625 0 L 2.515625 -4.078125 L 9.34375 -4.078125 L 9.34375 -22.859375 L 2.734375 -18.734375 L 2.734375 -23.046875 L 9.625 -27.515625 L 14.828125 -27.515625 L 14.828125 -4.078125 L 21.140625 -4.078125 L 21.140625 0 Z M 2.515625 0 "/></g></g></g><g fill="#000000" fill-opacity="1"><g transform="translate(354.152783, 51.691398)"><g><path d="M 20.609375 -13.765625 C 20.609375 -9.117188 19.8125 -5.597656 18.21875 -3.203125 C 16.625 -0.804688 14.226562 0.390625 11.03125 0.390625 C 4.726562 0.390625 1.578125 -4.328125 1.578125 -13.765625 C 1.578125 -17.066406 1.921875 -19.757812 2.609375 -21.84375 C 3.304688 -23.925781 4.34375 -25.460938 5.71875 -26.453125 C 7.101562 -27.441406 8.925781 -27.9375 11.1875 -27.9375 C 14.445312 -27.9375 16.832031 -26.753906 18.34375 -24.390625 C 19.851562 -22.035156 20.609375 -18.492188 20.609375 -13.765625 Z M 15.09375 -13.765625 C 15.09375 -16.304688 14.96875 -18.28125 14.71875 -19.6875 C 14.476562 -21.09375 14.082031 -22.101562 13.53125 -22.71875 C 12.988281 -23.332031 12.195312 -23.640625 11.15625 -23.640625 C 10.050781 -23.640625 9.210938 -23.328125 8.640625 -22.703125 C 8.078125 -22.085938 7.675781 -21.078125 7.4375 -19.671875 C 7.195312 -18.273438 7.078125 -16.304688 7.078125 -13.765625 C 7.078125 -11.253906 7.203125 -9.289062 7.453125 -7.875 C 7.703125 -6.46875 8.101562 -5.457031 8.65625 -4.84375 C 9.21875 -4.226562 10.023438 -3.921875 11.078125 -3.921875 C 12.117188 -3.921875 12.921875 -4.242188 13.484375 -4.890625 C 14.054688 -5.535156 14.46875 -6.566406 14.71875 -7.984375 C 14.96875 -9.410156 15.09375 -11.335938 15.09375 -13.765625 Z M 15.09375 -13.765625 "/></g></g></g><g fill="#000000" fill-opacity="1"><g transform="translate(376.396708, 51.691398)"><g><path d="M 20.609375 -13.765625 C 20.609375 -9.117188 19.8125 -5.597656 18.21875 -3.203125 C 16.625 -0.804688 14.226562 0.390625 11.03125 0.390625 C 4.726562 0.390625 1.578125 -4.328125 1.578125 -13.765625 C 1.578125 -17.066406 1.921875 -19.757812 2.609375 -21.84375 C 3.304688 -23.925781 4.34375 -25.460938 5.71875 -26.453125 C 7.101562 -27.441406 8.925781 -27.9375 11.1875 -27.9375 C 14.445312 -27.9375 16.832031 -26.753906 18.34375 -24.390625 C 19.851562 -22.035156 20.609375 -18.492188 20.609375 -13.765625 Z M 15.09375 -13.765625 C 15.09375 -16.304688 14.96875 -18.28125 14.71875 -19.6875 C 14.476562 -21.09375 14.082031 -22.101562 13.53125 -22.71875 C 12.988281 -23.332031 12.195312 -23.640625 11.15625 -23.640625 C 10.050781 -23.640625 9.210938 -23.328125 8.640625 -22.703125 C 8.078125 -22.085938 7.675781 -21.078125 7.4375 -19.671875 C 7.195312 -18.273438 7.078125 -16.304688 7.078125 -13.765625 C 7.078125 -11.253906 7.203125 -9.289062 7.453125 -7.875 C 7.703125 -6.46875 8.101562 -5.457031 8.65625 -4.84375 C 9.21875 -4.226562 10.023438 -3.921875 11.078125 -3.921875 C 12.117188 -3.921875 12.921875 -4.242188 13.484375 -4.890625 C 14.054688 -5.535156 14.46875 -6.566406 14.71875 -7.984375 C 14.96875 -9.410156 15.09375 -11.335938 15.09375 -13.765625 Z M 15.09375 -13.765625 "/></g></g></g><g clip-path="url(#191f55a90a)"><path stroke-linecap="butt" transform="matrix(0.75, 0, 0, 0.75, 0.0111824, 2.131177)" fill="none" stroke-linejoin="miter" d="M 0.000715145 0.0021813 L 559.563243 0.0021813 L 559.563243 98.158436 L 0.000715145 98.158436 Z M 0.000715145 0.0021813 " stroke="#000000" stroke-width="12" stroke-opacity="1" stroke-miterlimit="4"/></g></svg>