<svg xmlns="http://www.w3.org/2000/svg" xmlns:xlink="http://www.w3.org/1999/xlink" width="225" zoomAndPan="magnify" viewBox="0 0 168.75 167.999997" height="224" preserveAspectRatio="xMidYMid meet" version="1.0"><defs><g/><clipPath id="eab0d34f5b"><path d="M 11.566406 11.394531 L 156.097656 11.394531 L 156.097656 155.929688 L 11.566406 155.929688 Z M 11.566406 11.394531 " clip-rule="nonzero"/></clipPath></defs><g clip-path="url(#eab0d34f5b)"><path stroke-linecap="butt" transform="matrix(0.748891, 0, 0, 0.748891, 11.565331, 11.394488)" fill="none" stroke-linejoin="miter" d="M 0.00143551 0.0000581935 L 193.2039 0.0000581935 L 193.2039 193.155579 L 0.00143551 193.155579 Z M 0.00143551 0.0000581935 " stroke="#000000" stroke-width="12" stroke-opacity="1" stroke-miterlimit="4"/></g><g fill="#000000" fill-opacity="1"><g transform="translate(25.197732, 115.178899)"><g><path d="M 27.984375 0.984375 C 24.460938 0.984375 20.804688 0.523438 17.015625 -0.390625 C 13.234375 -1.304688 9.941406 -2.675781 7.140625 -4.5 C 5.835938 -5.34375 4.957031 -6.316406 4.5 -7.421875 C 4.039062 -8.535156 3.925781 -9.597656 4.15625 -10.609375 C 4.382812 -11.617188 4.875 -12.484375 5.625 -13.203125 C 6.375 -13.921875 7.316406 -14.34375 8.453125 -14.46875 C 9.597656 -14.601562 10.859375 -14.3125 12.234375 -13.59375 C 14.898438 -12.164062 17.472656 -11.140625 19.953125 -10.515625 C 22.429688 -9.898438 24.976562 -9.59375 27.59375 -9.59375 C 30.457031 -9.59375 32.867188 -9.984375 34.828125 -10.765625 C 36.785156 -11.546875 38.269531 -12.71875 39.28125 -14.28125 C 40.289062 -15.851562 40.796875 -17.742188 40.796875 -19.953125 C 40.796875 -23.222656 39.703125 -25.65625 37.515625 -27.25 C 35.335938 -28.84375 32.160156 -29.640625 27.984375 -29.640625 L 21.71875 -29.640625 C 19.894531 -29.640625 18.507812 -30.097656 17.5625 -31.015625 C 16.613281 -31.929688 16.140625 -33.203125 16.140625 -34.828125 C 16.140625 -36.460938 16.613281 -37.734375 17.5625 -38.640625 C 18.507812 -39.554688 19.894531 -40.015625 21.71875 -40.015625 L 26.8125 -40.015625 C 29.289062 -40.015625 31.410156 -40.421875 33.171875 -41.234375 C 34.929688 -42.054688 36.300781 -43.21875 37.28125 -44.71875 C 38.257812 -46.21875 38.75 -48.039062 38.75 -50.1875 C 38.75 -53.1875 37.753906 -55.46875 35.765625 -57.03125 C 33.773438 -58.601562 30.890625 -59.390625 27.109375 -59.390625 C 24.691406 -59.390625 22.421875 -59.113281 20.296875 -58.5625 C 18.179688 -58.007812 15.851562 -56.984375 13.3125 -55.484375 C 12.132812 -54.765625 11.003906 -54.46875 9.921875 -54.59375 C 8.847656 -54.726562 7.953125 -55.148438 7.234375 -55.859375 C 6.523438 -56.578125 6.035156 -57.441406 5.765625 -58.453125 C 5.503906 -59.472656 5.570312 -60.519531 5.96875 -61.59375 C 6.363281 -62.664062 7.179688 -63.59375 8.421875 -64.375 C 11.222656 -66.207031 14.316406 -67.59375 17.703125 -68.53125 C 21.097656 -69.476562 24.585938 -69.953125 28.171875 -69.953125 C 32.941406 -69.953125 37.019531 -69.21875 40.40625 -67.75 C 43.800781 -66.289062 46.394531 -64.207031 48.1875 -61.5 C 49.976562 -58.789062 50.875 -55.507812 50.875 -51.65625 C 50.875 -48.914062 50.351562 -46.421875 49.3125 -44.171875 C 48.269531 -41.921875 46.800781 -40.015625 44.90625 -38.453125 C 43.019531 -36.890625 40.738281 -35.78125 38.0625 -35.125 L 38.0625 -36.296875 C 42.757812 -35.515625 46.410156 -33.570312 49.015625 -30.46875 C 51.628906 -27.375 52.9375 -23.515625 52.9375 -18.890625 C 52.9375 -14.835938 51.921875 -11.3125 49.890625 -8.3125 C 47.867188 -5.3125 45 -3.007812 41.28125 -1.40625 C 37.570312 0.1875 33.140625 0.984375 27.984375 0.984375 Z M 27.984375 0.984375 "/></g></g></g><g fill="#000000" fill-opacity="1"><g transform="translate(83.906069, 115.178899)"><g><path d="M 23.96875 0.984375 C 21.164062 0.984375 18.265625 0.546875 15.265625 -0.328125 C 12.265625 -1.210938 9.457031 -2.539062 6.84375 -4.3125 C 5.800781 -4.957031 5.117188 -5.800781 4.796875 -6.84375 C 4.472656 -7.894531 4.421875 -8.925781 4.640625 -9.9375 C 4.867188 -10.945312 5.328125 -11.828125 6.015625 -12.578125 C 6.703125 -13.328125 7.566406 -13.78125 8.609375 -13.9375 C 9.648438 -14.101562 10.789062 -13.828125 12.03125 -13.109375 C 14.25 -11.804688 16.335938 -10.894531 18.296875 -10.375 C 20.253906 -9.851562 22.210938 -9.59375 24.171875 -9.59375 C 27.953125 -9.59375 31.144531 -10.472656 33.75 -12.234375 C 36.363281 -13.992188 38.335938 -16.648438 39.671875 -20.203125 C 41.015625 -23.753906 41.6875 -28.140625 41.6875 -33.359375 L 41.6875 -40.703125 L 42.859375 -40.703125 C 42.398438 -37.441406 41.320312 -34.601562 39.625 -32.1875 C 37.925781 -29.78125 35.769531 -27.9375 33.15625 -26.65625 C 30.550781 -25.382812 27.648438 -24.75 24.453125 -24.75 C 20.546875 -24.75 17.039062 -25.691406 13.9375 -27.578125 C 10.84375 -29.472656 8.414062 -32.097656 6.65625 -35.453125 C 4.894531 -38.816406 4.015625 -42.617188 4.015625 -46.859375 C 4.015625 -51.367188 4.972656 -55.347656 6.890625 -58.796875 C 8.816406 -62.253906 11.507812 -64.976562 14.96875 -66.96875 C 18.425781 -68.957031 22.375 -69.953125 26.8125 -69.953125 C 32.550781 -69.953125 37.410156 -68.613281 41.390625 -65.9375 C 45.367188 -63.269531 48.398438 -59.375 50.484375 -54.25 C 52.578125 -49.132812 53.625 -42.957031 53.625 -35.71875 C 53.625 -29.84375 52.953125 -24.640625 51.609375 -20.109375 C 50.273438 -15.578125 48.332031 -11.742188 45.78125 -8.609375 C 43.238281 -5.472656 40.125 -3.085938 36.4375 -1.453125 C 32.757812 0.171875 28.601562 0.984375 23.96875 0.984375 Z M 27.59375 -34.734375 C 29.9375 -34.734375 32.003906 -35.269531 33.796875 -36.34375 C 35.597656 -37.425781 36.988281 -38.925781 37.96875 -40.84375 C 38.945312 -42.769531 39.4375 -44.972656 39.4375 -47.453125 C 39.4375 -49.992188 38.945312 -52.207031 37.96875 -54.09375 C 36.988281 -55.988281 35.597656 -57.457031 33.796875 -58.5 C 32.003906 -59.550781 29.9375 -60.078125 27.59375 -60.078125 C 25.238281 -60.078125 23.179688 -59.550781 21.421875 -58.5 C 19.660156 -57.457031 18.273438 -55.988281 17.265625 -54.09375 C 16.253906 -52.207031 15.75 -49.992188 15.75 -47.453125 C 15.75 -44.972656 16.253906 -42.769531 17.265625 -40.84375 C 18.273438 -38.925781 19.660156 -37.425781 21.421875 -36.34375 C 23.179688 -35.269531 25.238281 -34.734375 27.59375 -34.734375 Z M 27.59375 -34.734375 "/></g></g></g></svg>