<svg xmlns="http://www.w3.org/2000/svg" xmlns:xlink="http://www.w3.org/1999/xlink" width="849" zoomAndPan="magnify" viewBox="0 0 636.75 336.749987" height="449" preserveAspectRatio="xMidYMid meet" version="1.0"><defs><g/><clipPath id="acb6081abd"><path d="M 0.109375 0 L 636.390625 0 L 636.390625 336.5 L 0.109375 336.5 Z M 0.109375 0 " clip-rule="nonzero"/></clipPath><clipPath id="868ab5e2b5"><path d="M 6.230469 0 L 635.90625 0 L 635.90625 324.261719 L 6.230469 324.261719 Z M 6.230469 0 " clip-rule="nonzero"/></clipPath><clipPath id="232311861a"><path d="M 351.214844 48.15625 L 570.613281 48.15625 L 570.613281 237.105469 L 351.214844 237.105469 Z M 351.214844 48.15625 " clip-rule="nonzero"/></clipPath><clipPath id="31048b41fc"><rect x="0" width="220" y="0" height="190"/></clipPath><clipPath id="6301d1db25"><path d="M 30.300781 168 L 126.953125 168 L 126.953125 237 L 30.300781 237 Z M 30.300781 168 " clip-rule="nonzero"/></clipPath><clipPath id="41bc8d9d5a"><path d="M 512.140625 167.066406 L 608.789062 167.066406 L 608.789062 237.136719 L 512.140625 237.136719 Z M 512.140625 167.066406 " clip-rule="nonzero"/></clipPath><clipPath id="98925353d5"><path d="M 0.140625 1 L 96.578125 1 L 96.578125 70 L 0.140625 70 Z M 0.140625 1 " clip-rule="nonzero"/></clipPath><clipPath id="ee27ffb949"><rect x="0" width="97" y="0" height="71"/></clipPath><clipPath id="9ed8f20b03"><rect x="0" width="30" y="0" height="53"/></clipPath><clipPath id="5c5f4dd18c"><rect x="0" width="637" y="0" height="337"/></clipPath></defs><g clip-path="url(#acb6081abd)"><g><g clip-path="url(#5c5f4dd18c)"><g clip-path="url(#868ab5e2b5)"><path stroke-linecap="butt" transform="matrix(0.483251, 0, 0, 0.483251, 6.231305, 0.0000000000000213)" fill="none" stroke-linejoin="miter" d="M -0.00172955 -0.000000000000044077 L 1303.368266 -0.000000000000044077 L 1303.368266 671.420291 L -0.00172955 671.420291 Z M -0.00172955 -0.000000000000044077 " stroke="#000000" stroke-width="18.610027" stroke-opacity="1" stroke-miterlimit="4"/></g><path stroke-linecap="butt" transform="matrix(0, 0.483251, -0.483251, 0, 320.286693, 26.190083)" fill="none" stroke-linejoin="miter" d="M 0.00273883 3.996313 L 489.61422 3.996313 " stroke="#000000" stroke-width="8" stroke-opacity="1" stroke-miterlimit="4"/><path fill="#8bc28f" d="M 110.574219 112.921875 C 112.359375 111.257812 114.257812 109.316406 116.273438 107.09375 C 118.542969 104.59375 120.222656 102.773438 121.304688 101.636719 C 125.328125 97.410156 132.019531 97.246094 136.246094 101.269531 C 140.46875 105.289062 140.632812 111.972656 136.609375 116.195312 C 135.644531 117.210938 134.085938 118.90625 131.929688 121.28125 C 129.523438 123.933594 127.210938 126.292969 125 128.359375 C 120.734375 132.339844 114.046875 132.109375 110.066406 127.847656 C 106.082031 123.585938 106.3125 116.902344 110.574219 112.921875 Z M 110.574219 112.921875 " fill-opacity="1" fill-rule="nonzero"/><path fill="#8bc28f" d="M 146.628906 112.492188 C 147.359375 110.9375 148.207031 109.269531 149.167969 107.484375 C 151.9375 102.355469 158.347656 100.4375 163.484375 103.207031 C 168.621094 105.972656 170.539062 112.378906 167.765625 117.511719 C 166.992188 118.949219 166.320312 120.269531 165.757812 121.46875 C 163.273438 126.75 156.980469 129.015625 151.699219 126.539062 C 146.417969 124.058594 144.148438 117.769531 146.628906 112.492188 Z M 146.628906 112.492188 " fill-opacity="1" fill-rule="nonzero"/><path fill="#8bc28f" d="M 152.542969 152.441406 C 151.84375 153.933594 151.007812 155.621094 150.039062 157.503906 C 149.054688 159.417969 148.023438 161.316406 146.945312 163.199219 C 144.046875 168.261719 137.589844 170.015625 132.527344 167.117188 C 127.460938 164.21875 125.707031 157.769531 128.605469 152.707031 C 129.523438 151.101562 130.40625 149.480469 131.246094 147.847656 C 132.097656 146.1875 132.824219 144.726562 133.417969 143.460938 C 135.898438 138.183594 142.191406 135.914062 147.472656 138.394531 C 152.753906 140.875 155.027344 147.164062 152.542969 152.441406 Z M 152.542969 152.441406 " fill-opacity="1" fill-rule="nonzero"/><path fill="#8bc28f" d="M 194.320312 135.445312 C 192.933594 137.894531 191.101562 140.917969 188.824219 144.519531 C 186.585938 148.058594 184.519531 151.242188 182.617188 154.082031 L 179.84375 158.21875 C 176.597656 163.0625 170.035156 164.359375 165.183594 161.113281 C 160.335938 157.871094 159.039062 151.3125 162.285156 146.464844 L 165.058594 142.328125 C 166.855469 139.648438 168.824219 136.617188 170.957031 133.238281 C 173.054688 129.921875 174.714844 127.183594 175.941406 125.027344 C 178.820312 119.957031 185.269531 118.175781 190.34375 121.054688 C 195.417969 123.929688 197.199219 130.375 194.320312 135.445312 Z M 194.320312 135.445312 " fill-opacity="1" fill-rule="nonzero"/><path fill="#8bc28f" d="M 214.417969 70.558594 C 212.972656 73.367188 211.554688 75.871094 210.160156 78.078125 C 209.003906 79.90625 207.863281 81.789062 206.738281 83.722656 L 204.957031 86.792969 C 202.027344 91.839844 195.558594 93.554688 190.511719 90.625 C 185.464844 87.699219 183.75 81.238281 186.679688 76.195312 L 188.464844 73.121094 C 189.71875 70.957031 190.996094 68.851562 192.292969 66.796875 C 193.355469 65.121094 194.464844 63.15625 195.621094 60.90625 C 198.289062 55.71875 204.660156 53.675781 209.851562 56.34375 C 215.039062 59.007812 217.085938 65.375 214.417969 70.558594 Z M 214.417969 70.558594 " fill-opacity="1" fill-rule="nonzero"/><path fill="#8bc28f" d="M 173.082031 64.328125 C 171.984375 66.96875 170.117188 70.339844 167.484375 74.441406 L 164.035156 79.804688 C 160.882812 84.710938 154.347656 86.136719 149.4375 82.984375 C 144.527344 79.832031 143.101562 73.300781 146.253906 68.394531 L 149.703125 63.03125 C 151.660156 59.980469 152.949219 57.714844 153.566406 56.226562 C 155.808594 50.84375 161.992188 48.289062 167.378906 50.527344 C 172.769531 52.765625 175.320312 58.945312 173.082031 64.328125 Z M 173.082031 64.328125 " fill-opacity="1" fill-rule="nonzero"/><path fill="#8bc28f" d="M 235.996094 121.117188 C 234.035156 123.378906 231.851562 126.257812 229.4375 129.75 C 226.886719 133.441406 225.117188 136.070312 224.125 137.636719 C 221.007812 142.566406 214.484375 144.039062 209.550781 140.925781 C 204.617188 137.808594 203.144531 131.289062 206.261719 126.355469 C 207.40625 124.546875 209.332031 121.679688 212.046875 117.753906 C 214.898438 113.625 217.554688 110.140625 220.015625 107.300781 C 223.832031 102.890625 230.503906 102.410156 234.917969 106.226562 C 239.332031 110.039062 239.8125 116.710938 235.996094 121.117188 Z M 235.996094 121.117188 " fill-opacity="1" fill-rule="nonzero"/><path fill="#8bc28f" d="M 207.835938 183.4375 C 207.117188 184.34375 206.472656 185.328125 205.898438 186.390625 C 203.128906 191.523438 196.71875 193.441406 191.582031 190.671875 C 186.445312 187.90625 184.527344 181.5 187.300781 176.367188 C 188.460938 174.210938 189.789062 172.195312 191.273438 170.320312 C 194.898438 165.75 201.542969 164.984375 206.117188 168.605469 C 210.691406 172.226562 211.460938 178.871094 207.835938 183.4375 Z M 207.835938 183.4375 " fill-opacity="1" fill-rule="nonzero"/><path fill="#8bc28f" d="M 167.695312 190.609375 C 166.308594 192.484375 165.246094 194.003906 164.511719 195.171875 C 163.726562 196.410156 162.800781 197.96875 161.738281 199.839844 L 160.023438 202.863281 C 157.144531 207.933594 150.695312 209.714844 145.621094 206.839844 C 140.542969 203.960938 138.761719 197.515625 141.640625 192.445312 L 143.359375 189.421875 C 144.585938 187.257812 145.679688 185.414062 146.644531 183.890625 C 147.65625 182.289062 149.007812 180.34375 150.699219 178.058594 C 154.167969 173.367188 160.785156 172.375 165.480469 175.84375 C 170.171875 179.308594 171.164062 185.921875 167.695312 190.609375 Z M 167.695312 190.609375 " fill-opacity="1" fill-rule="nonzero"/><path fill="#8bc28f" d="M 112.097656 155.242188 C 110.847656 157.21875 110.082031 158.429688 109.800781 158.875 C 109.039062 160.078125 107.898438 161.746094 106.371094 163.886719 L 104.253906 166.859375 C 100.867188 171.609375 94.269531 172.714844 89.515625 169.332031 C 84.765625 165.949219 83.65625 159.355469 87.042969 154.605469 L 89.160156 151.636719 C 90.457031 149.8125 91.382812 148.464844 91.933594 147.59375 C 92.964844 145.964844 93.730469 144.753906 94.230469 143.960938 C 97.347656 139.03125 103.875 137.5625 108.808594 140.675781 C 113.742188 143.789062 115.214844 150.3125 112.097656 155.242188 Z M 112.097656 155.242188 " fill-opacity="1" fill-rule="nonzero"/><path fill="#8bc28f" d="M 260.996094 156.519531 C 259.976562 157.953125 258.605469 160.34375 256.886719 163.683594 C 254.929688 167.488281 253.453125 170.351562 252.457031 172.269531 C 249.769531 177.449219 243.390625 179.46875 238.210938 176.785156 C 233.03125 174.101562 231.007812 167.726562 233.695312 162.550781 C 234.679688 160.652344 236.144531 157.8125 238.089844 154.027344 C 240.277344 149.785156 242.171875 146.53125 243.785156 144.265625 C 247.171875 139.519531 253.769531 138.410156 258.523438 141.792969 C 263.277344 145.175781 264.382812 151.769531 260.996094 156.519531 Z M 260.996094 156.519531 " fill-opacity="1" fill-rule="nonzero"/><path fill="#8bc28f" d="M 138.425781 73.800781 C 137.445312 74.832031 136.402344 76.121094 135.304688 77.660156 L 133.21875 80.585938 C 129.835938 85.335938 123.238281 86.441406 118.484375 83.058594 C 113.730469 79.675781 112.621094 73.082031 116.007812 68.332031 L 118.09375 65.410156 C 119.773438 63.050781 121.449219 60.996094 123.121094 59.238281 C 127.144531 55.015625 133.835938 54.851562 138.058594 58.871094 C 142.285156 62.894531 142.449219 69.578125 138.425781 73.800781 Z M 138.425781 73.800781 " fill-opacity="1" fill-rule="nonzero"/><path fill="#8bc28f" d="M 99.167969 110.949219 C 97.222656 114.609375 95.441406 117.988281 93.824219 121.074219 C 82.429688 142.804688 80.953125 145.625 89.390625 129.53125 C 86.683594 134.695312 80.296875 136.691406 75.128906 133.984375 C 69.957031 131.277344 67.964844 124.894531 70.671875 119.730469 C 81.765625 98.570312 83.242188 95.75 75.105469 111.273438 C 76.742188 108.152344 78.539062 104.746094 80.503906 101.046875 C 83.238281 95.898438 89.636719 93.9375 94.789062 96.671875 C 99.945312 99.402344 101.90625 105.796875 99.167969 110.949219 Z M 99.167969 110.949219 " fill-opacity="1" fill-rule="nonzero"/><path fill="#8bc28f" d="M 241.332031 211.980469 C 240.550781 213.46875 239.960938 214.867188 239.558594 216.175781 C 238.8125 218.609375 237.855469 221.042969 236.691406 223.46875 L 235.289062 226.394531 C 232.765625 231.652344 226.453125 233.871094 221.191406 231.347656 C 215.929688 228.828125 213.710938 222.519531 216.234375 217.261719 L 217.636719 214.335938 C 218.34375 212.863281 218.917969 211.414062 219.355469 209.988281 C 220.136719 207.429688 221.222656 204.828125 222.613281 202.179688 C 225.320312 197.015625 231.707031 195.019531 236.875 197.726562 C 242.046875 200.433594 244.039062 206.8125 241.332031 211.980469 Z M 241.332031 211.980469 " fill-opacity="1" fill-rule="nonzero"/><path fill="#8bc28f" d="M 265.28125 66.597656 C 264.6875 67.347656 264.113281 68.308594 263.5625 69.484375 C 262.699219 71.320312 261.738281 73.441406 260.675781 75.839844 L 259.039062 79.550781 C 256.679688 84.882812 250.445312 87.300781 245.105469 84.945312 C 239.765625 82.589844 237.347656 76.355469 239.707031 71.019531 L 241.34375 67.308594 C 242.472656 64.761719 243.5 62.492188 244.4375 60.503906 C 245.683594 57.851562 247.113281 55.511719 248.722656 53.480469 C 252.34375 48.910156 258.992188 48.140625 263.566406 51.765625 C 268.136719 55.386719 268.90625 62.027344 265.28125 66.597656 Z M 265.28125 66.597656 " fill-opacity="1" fill-rule="nonzero"/><path fill="#8bc28f" d="M 193.800781 221.082031 C 190.0625 228.003906 189.589844 228.882812 192.378906 223.710938 C 192.726562 223.066406 192.175781 224.089844 190.726562 226.777344 L 188.953125 230.058594 C 186.183594 235.191406 179.773438 237.109375 174.636719 234.339844 C 169.503906 231.570312 167.585938 225.164062 170.355469 220.035156 L 172.125 216.753906 C 171.855469 217.253906 172.40625 216.230469 173.78125 213.6875 C 177.59375 206.617188 178.066406 205.742188 175.199219 211.054688 C 177.96875 205.921875 184.378906 204.007812 189.515625 206.773438 C 194.652344 209.542969 196.570312 215.949219 193.800781 221.082031 Z M 193.800781 221.082031 " fill-opacity="1" fill-rule="nonzero"/><path fill="#8bc28f" d="M 283.078125 193.109375 C 281.304688 195.386719 279.660156 197.726562 278.136719 200.132812 L 275.578125 204.179688 C 272.460938 209.109375 265.9375 210.582031 261.003906 207.46875 C 256.070312 204.351562 254.597656 197.832031 257.714844 192.902344 L 260.273438 188.851562 C 262.164062 185.863281 264.203125 182.960938 266.398438 180.144531 C 269.980469 175.539062 276.621094 174.710938 281.226562 178.292969 C 285.832031 181.875 286.660156 188.507812 283.078125 193.109375 Z M 283.078125 193.109375 " fill-opacity="1" fill-rule="nonzero"/><path fill="#8bc28f" d="M 285.972656 102.917969 C 285.078125 106.644531 284.15625 109.914062 283.207031 112.726562 C 282.21875 115.671875 281.941406 116.492188 282.382812 115.1875 C 281.84375 116.789062 281.332031 118.3125 280.84375 119.757812 C 278.984375 125.285156 272.992188 128.261719 267.460938 126.402344 C 261.929688 124.542969 258.953125 118.554688 260.8125 113.027344 C 261.300781 111.582031 261.8125 110.058594 262.351562 108.457031 C 263.328125 105.554688 263.605469 104.734375 263.179688 106 C 263.925781 103.773438 264.675781 101.101562 265.429688 97.976562 C 266.792969 92.308594 272.5 88.816406 278.171875 90.183594 C 283.847656 91.546875 287.339844 97.25 285.972656 102.917969 Z M 285.972656 102.917969 " fill-opacity="1" fill-rule="nonzero"/><g clip-path="url(#232311861a)"><g transform="matrix(1, 0, 0, 1, 351, 48)"><g clip-path="url(#31048b41fc)"><path fill="#8bc28f" d="M 176.953125 64.921875 C 175.167969 63.257812 173.269531 61.316406 171.253906 59.09375 C 168.984375 56.59375 167.308594 54.773438 166.222656 53.636719 C 162.199219 49.410156 155.511719 49.246094 151.285156 53.269531 C 147.058594 57.289062 146.894531 63.972656 150.917969 68.195312 C 151.886719 69.210938 153.445312 70.90625 155.597656 73.28125 C 158.007812 75.933594 160.320312 78.292969 162.53125 80.359375 C 166.796875 84.339844 173.480469 84.109375 177.464844 79.847656 C 181.449219 75.585938 181.21875 68.902344 176.953125 64.921875 Z M 176.953125 64.921875 " fill-opacity="1" fill-rule="nonzero"/><path fill="#8bc28f" d="M 140.902344 64.492188 C 140.167969 62.9375 139.324219 61.269531 138.363281 59.484375 C 135.589844 54.355469 129.183594 52.4375 124.046875 55.207031 C 118.910156 57.972656 116.992188 64.378906 119.761719 69.511719 C 120.539062 70.949219 121.210938 72.269531 121.773438 73.46875 C 124.253906 78.75 130.546875 81.015625 135.828125 78.539062 C 141.113281 76.058594 143.382812 69.769531 140.902344 64.492188 Z M 140.902344 64.492188 " fill-opacity="1" fill-rule="nonzero"/><path fill="#8bc28f" d="M 134.984375 104.441406 C 135.6875 105.933594 136.519531 107.621094 137.492188 109.503906 C 138.476562 111.417969 139.507812 113.316406 140.585938 115.199219 C 143.484375 120.261719 149.941406 122.015625 155.003906 119.117188 C 160.070312 116.21875 161.824219 109.769531 158.925781 104.707031 C 158.003906 103.101562 157.125 101.480469 156.285156 99.847656 C 155.429688 98.1875 154.707031 96.726562 154.113281 95.460938 C 151.632812 90.183594 145.339844 87.914062 140.054688 90.394531 C 134.773438 92.875 132.503906 99.164062 134.984375 104.441406 Z M 134.984375 104.441406 " fill-opacity="1" fill-rule="nonzero"/><path fill="#8bc28f" d="M 93.207031 87.445312 C 94.597656 89.894531 96.429688 92.917969 98.707031 96.519531 C 100.941406 100.058594 103.011719 103.242188 104.914062 106.082031 L 107.683594 110.21875 C 110.933594 115.0625 117.496094 116.359375 122.34375 113.113281 C 127.191406 109.871094 128.492188 103.3125 125.242188 98.464844 L 122.46875 94.328125 C 120.671875 91.648438 118.707031 88.617188 116.570312 85.238281 C 114.472656 81.921875 112.8125 79.183594 111.589844 77.027344 C 108.710938 71.957031 102.261719 70.175781 97.1875 73.054688 C 92.109375 75.929688 90.328125 82.375 93.207031 87.445312 Z M 93.207031 87.445312 " fill-opacity="1" fill-rule="nonzero"/><path fill="#8bc28f" d="M 73.113281 22.558594 C 74.558594 25.367188 75.976562 27.871094 77.371094 30.078125 C 78.527344 31.90625 79.667969 33.789062 80.789062 35.722656 L 82.574219 38.792969 C 85.503906 43.839844 91.96875 45.554688 97.015625 42.625 C 102.0625 39.699219 103.78125 33.238281 100.851562 28.195312 L 99.066406 25.121094 C 97.808594 22.957031 96.53125 20.851562 95.234375 18.796875 C 94.175781 17.121094 93.066406 15.15625 91.90625 12.90625 C 89.238281 7.71875 82.871094 5.675781 77.679688 8.34375 C 72.488281 11.007812 70.445312 17.375 73.113281 22.558594 Z M 73.113281 22.558594 " fill-opacity="1" fill-rule="nonzero"/><path fill="#8bc28f" d="M 114.445312 16.328125 C 115.542969 18.96875 117.410156 22.339844 120.046875 26.441406 L 123.492188 31.804688 C 126.644531 36.710938 133.183594 38.136719 138.09375 34.984375 C 143.003906 31.832031 144.425781 25.300781 141.273438 20.394531 L 137.828125 15.03125 C 135.867188 11.980469 134.578125 9.714844 133.960938 8.226562 C 131.722656 2.84375 125.539062 0.289062 120.148438 2.527344 C 114.761719 4.765625 112.207031 10.945312 114.445312 16.328125 Z M 114.445312 16.328125 " fill-opacity="1" fill-rule="nonzero"/><path fill="#8bc28f" d="M 51.535156 73.117188 C 53.492188 75.378906 55.679688 78.257812 58.09375 81.75 C 60.644531 85.441406 62.414062 88.070312 63.402344 89.636719 C 66.519531 94.566406 73.046875 96.039062 77.980469 92.925781 C 82.914062 89.808594 84.386719 83.289062 81.269531 78.355469 C 80.125 76.546875 78.195312 73.679688 75.480469 69.753906 C 72.632812 65.625 69.976562 62.140625 67.515625 59.300781 C 63.699219 54.890625 57.023438 54.410156 52.613281 58.226562 C 48.199219 62.039062 47.71875 68.710938 51.535156 73.117188 Z M 51.535156 73.117188 " fill-opacity="1" fill-rule="nonzero"/><path fill="#8bc28f" d="M 79.695312 135.4375 C 80.410156 136.34375 81.054688 137.328125 81.632812 138.390625 C 84.402344 143.523438 90.8125 145.441406 95.945312 142.671875 C 101.082031 139.90625 103 133.5 100.230469 128.367188 C 99.066406 126.210938 97.742188 124.195312 96.253906 122.320312 C 92.628906 117.75 85.984375 116.984375 81.410156 120.605469 C 76.839844 124.226562 76.070312 130.871094 79.695312 135.4375 Z M 79.695312 135.4375 " fill-opacity="1" fill-rule="nonzero"/><path fill="#8bc28f" d="M 119.835938 142.609375 C 121.21875 144.484375 122.28125 146.003906 123.019531 147.171875 C 123.804688 148.410156 124.726562 149.96875 125.789062 151.839844 L 127.503906 154.863281 C 130.382812 159.933594 136.832031 161.714844 141.910156 158.839844 C 146.984375 155.960938 148.765625 149.515625 145.886719 144.445312 L 144.171875 141.421875 C 142.945312 139.257812 141.847656 137.414062 140.882812 135.890625 C 139.871094 134.289062 138.519531 132.34375 136.828125 130.058594 C 133.359375 125.367188 126.742188 124.375 122.050781 127.84375 C 117.359375 131.308594 116.367188 137.921875 119.835938 142.609375 Z M 119.835938 142.609375 " fill-opacity="1" fill-rule="nonzero"/><path fill="#8bc28f" d="M 175.433594 107.242188 C 176.683594 109.21875 177.449219 110.429688 177.730469 110.875 C 178.488281 112.078125 179.632812 113.746094 181.15625 115.886719 L 183.277344 118.859375 C 186.660156 123.609375 193.261719 124.714844 198.011719 121.332031 C 202.765625 117.949219 203.875 111.355469 200.488281 106.605469 L 198.371094 103.636719 C 197.070312 101.8125 196.144531 100.464844 195.59375 99.59375 C 194.5625 97.964844 193.796875 96.753906 193.296875 95.960938 C 190.179688 91.03125 183.65625 89.5625 178.722656 92.675781 C 173.789062 95.789062 172.316406 102.3125 175.433594 107.242188 Z M 175.433594 107.242188 " fill-opacity="1" fill-rule="nonzero"/><path fill="#8bc28f" d="M 26.53125 108.519531 C 27.554688 109.953125 28.925781 112.34375 30.644531 115.683594 C 32.601562 119.488281 34.078125 122.351562 35.074219 124.269531 C 37.761719 129.449219 44.136719 131.46875 49.316406 128.785156 C 54.5 126.101562 56.519531 119.726562 53.835938 114.550781 C 52.847656 112.652344 51.382812 109.8125 49.4375 106.027344 C 47.253906 101.785156 45.355469 98.53125 43.742188 96.265625 C 40.355469 91.519531 33.757812 90.410156 29.007812 93.792969 C 24.253906 97.175781 23.144531 103.769531 26.53125 108.519531 Z M 26.53125 108.519531 " fill-opacity="1" fill-rule="nonzero"/><path fill="#8bc28f" d="M 149.101562 25.800781 C 150.085938 26.832031 151.128906 28.121094 152.226562 29.660156 L 154.308594 32.585938 C 157.695312 37.335938 164.292969 38.441406 169.046875 35.058594 C 173.796875 31.675781 174.90625 25.082031 171.519531 20.332031 L 169.4375 17.410156 C 167.757812 15.050781 166.082031 12.996094 164.40625 11.238281 C 160.382812 7.015625 153.695312 6.851562 149.46875 10.871094 C 145.242188 14.894531 145.078125 21.578125 149.101562 25.800781 Z M 149.101562 25.800781 " fill-opacity="1" fill-rule="nonzero"/><path fill="#8bc28f" d="M 188.359375 62.949219 C 190.304688 66.609375 192.085938 69.988281 193.707031 73.074219 C 205.097656 94.804688 206.578125 97.625 198.140625 81.53125 C 200.847656 86.695312 207.234375 88.691406 212.402344 85.984375 C 217.570312 83.277344 219.566406 76.894531 216.859375 71.730469 C 205.765625 50.570312 204.289062 47.75 212.425781 63.273438 C 210.789062 60.152344 208.988281 56.746094 207.027344 53.046875 C 204.289062 47.898438 197.894531 45.9375 192.738281 48.671875 C 187.585938 51.402344 185.625 57.796875 188.359375 62.949219 Z M 188.359375 62.949219 " fill-opacity="1" fill-rule="nonzero"/><path fill="#8bc28f" d="M 46.199219 163.980469 C 46.980469 165.46875 47.570312 166.867188 47.96875 168.175781 C 48.71875 170.609375 49.671875 173.042969 50.835938 175.46875 L 52.242188 178.394531 C 54.765625 183.652344 61.074219 185.871094 66.335938 183.347656 C 71.597656 180.828125 73.820312 174.519531 71.296875 169.261719 L 69.890625 166.335938 C 69.183594 164.863281 68.613281 163.414062 68.175781 161.988281 C 67.390625 159.429688 66.304688 156.828125 64.917969 154.179688 C 62.207031 149.015625 55.824219 147.019531 50.652344 149.726562 C 45.484375 152.433594 43.488281 158.8125 46.199219 163.980469 Z M 46.199219 163.980469 " fill-opacity="1" fill-rule="nonzero"/><path fill="#8bc28f" d="M 22.246094 18.597656 C 22.839844 19.347656 23.414062 20.308594 23.964844 21.484375 C 24.832031 23.320312 25.792969 25.441406 26.851562 27.839844 L 28.492188 31.550781 C 30.847656 36.882812 37.085938 39.300781 42.425781 36.945312 C 47.761719 34.589844 50.179688 28.355469 47.824219 23.019531 L 46.183594 19.308594 C 45.058594 16.761719 44.027344 14.492188 43.09375 12.503906 C 41.847656 9.851562 40.417969 7.511719 38.808594 5.480469 C 35.183594 0.910156 28.539062 0.140625 23.964844 3.765625 C 19.390625 7.386719 18.621094 14.027344 22.246094 18.597656 Z M 22.246094 18.597656 " fill-opacity="1" fill-rule="nonzero"/><path fill="#8bc28f" d="M 93.730469 173.082031 C 97.46875 180.003906 97.941406 180.882812 95.152344 175.710938 C 94.800781 175.066406 95.355469 176.089844 96.804688 178.777344 L 98.574219 182.058594 C 101.347656 187.191406 107.753906 189.109375 112.890625 186.339844 C 118.027344 183.570312 119.945312 177.164062 117.175781 172.035156 L 115.402344 168.753906 C 115.675781 169.253906 115.125 168.230469 113.75 165.6875 C 109.933594 158.617188 109.460938 157.742188 112.328125 163.054688 C 109.558594 157.921875 103.148438 156.007812 98.015625 158.773438 C 92.878906 161.542969 90.960938 167.949219 93.730469 173.082031 Z M 93.730469 173.082031 " fill-opacity="1" fill-rule="nonzero"/><path fill="#8bc28f" d="M 4.453125 145.109375 C 6.222656 147.386719 7.871094 149.726562 9.390625 152.132812 L 11.949219 156.179688 C 15.066406 161.109375 21.59375 162.582031 26.527344 159.46875 C 31.460938 156.351562 32.933594 149.832031 29.816406 144.902344 L 27.257812 140.851562 C 25.367188 137.863281 23.324219 134.960938 21.132812 132.144531 C 17.546875 127.539062 10.910156 126.710938 6.304688 130.292969 C 1.699219 133.875 0.871094 140.507812 4.453125 145.109375 Z M 4.453125 145.109375 " fill-opacity="1" fill-rule="nonzero"/><path fill="#8bc28f" d="M 1.554688 54.917969 C 2.453125 58.644531 3.375 61.914062 4.320312 64.726562 C 5.3125 67.671875 5.585938 68.492188 5.148438 67.1875 C 5.6875 68.789062 6.199219 70.3125 6.683594 71.757812 C 8.542969 77.285156 14.535156 80.261719 20.066406 78.402344 C 25.597656 76.542969 28.574219 70.554688 26.714844 65.027344 C 26.230469 63.582031 25.71875 62.058594 25.179688 60.457031 C 24.203125 57.554688 23.925781 56.734375 24.351562 58 C 23.601562 55.773438 22.851562 53.101562 22.101562 49.976562 C 20.734375 44.308594 15.03125 40.816406 9.355469 42.183594 C 3.683594 43.546875 0.191406 49.25 1.554688 54.917969 Z M 1.554688 54.917969 " fill-opacity="1" fill-rule="nonzero"/></g></g></g><g clip-path="url(#6301d1db25)"><path fill="#dfb0b0" d="M 83.15625 233.769531 C 78.730469 233.734375 73.859375 233.285156 69.324219 233.449219 C 64.511719 233.636719 59.910156 235.238281 55.183594 235.988281 C 46.851562 237.140625 39.238281 231.597656 34.792969 225.007812 C 31.519531 220.339844 30.304688 214.507812 30.953125 208.863281 C 31.074219 206.972656 31.851562 205.316406 32.554688 203.632812 C 33.492188 201.382812 34.539062 199.171875 36.0625 197.242188 C 41.074219 191.179688 48.160156 187.375 54.140625 182.382812 C 54.726562 181.921875 55.132812 181.320312 55.476562 180.664062 C 57.34375 176.832031 59.277344 172.65625 63.375 170.765625 C 70.050781 167.070312 78.800781 168.136719 84.503906 173.203125 C 85.925781 174.496094 87.113281 176.007812 88.554688 177.273438 C 92.710938 181.113281 96.820312 185.792969 102.601562 187.015625 C 108.71875 187.542969 111.902344 183.007812 118.460938 185.070312 C 124.808594 186.734375 126.957031 194.09375 126.679688 199.964844 C 126.207031 205.277344 124.066406 210.335938 121.203125 214.796875 C 111.914062 228.078125 99.3125 234.0625 83.15625 233.769531 Z M 83.15625 233.769531 " fill-opacity="1" fill-rule="nonzero"/></g><g fill="#000000" fill-opacity="1"><g transform="translate(271.229405, 301.450792)"><g><path d="M 18.03125 -6.875 C 17.863281 -4.65625 17.039062 -2.90625 15.5625 -1.625 C 14.09375 -0.351562 12.148438 0.28125 9.734375 0.28125 C 7.085938 0.28125 5.003906 -0.609375 3.484375 -2.390625 C 1.972656 -4.171875 1.21875 -6.613281 1.21875 -9.71875 L 1.21875 -10.96875 C 1.21875 -12.957031 1.566406 -14.707031 2.265625 -16.21875 C 2.960938 -17.726562 3.957031 -18.882812 5.25 -19.6875 C 6.550781 -20.5 8.0625 -20.90625 9.78125 -20.90625 C 12.164062 -20.90625 14.082031 -20.265625 15.53125 -18.984375 C 16.988281 -17.710938 17.828125 -15.925781 18.046875 -13.625 L 13.8125 -13.625 C 13.707031 -14.957031 13.332031 -15.921875 12.6875 -16.515625 C 12.050781 -17.117188 11.082031 -17.421875 9.78125 -17.421875 C 8.363281 -17.421875 7.300781 -16.910156 6.59375 -15.890625 C 5.894531 -14.878906 5.535156 -13.304688 5.515625 -11.171875 L 5.515625 -9.609375 C 5.515625 -7.378906 5.851562 -5.75 6.53125 -4.71875 C 7.207031 -3.695312 8.273438 -3.1875 9.734375 -3.1875 C 11.046875 -3.1875 12.023438 -3.484375 12.671875 -4.078125 C 13.316406 -4.679688 13.6875 -5.613281 13.78125 -6.875 Z M 18.03125 -6.875 "/></g></g><g transform="translate(290.200801, 301.450792)"><g><path d="M 8.625 0.28125 C 6.375 0.28125 4.539062 -0.40625 3.125 -1.78125 C 1.71875 -3.164062 1.015625 -5.003906 1.015625 -7.296875 L 1.015625 -7.6875 C 1.015625 -9.226562 1.3125 -10.601562 1.90625 -11.8125 C 2.5 -13.03125 3.34375 -13.96875 4.4375 -14.625 C 5.53125 -15.28125 6.773438 -15.609375 8.171875 -15.609375 C 10.265625 -15.609375 11.910156 -14.945312 13.109375 -13.625 C 14.316406 -12.300781 14.921875 -10.425781 14.921875 -8 L 14.921875 -6.328125 L 5.171875 -6.328125 C 5.296875 -5.328125 5.691406 -4.523438 6.359375 -3.921875 C 7.023438 -3.316406 7.867188 -3.015625 8.890625 -3.015625 C 10.460938 -3.015625 11.695312 -3.585938 12.59375 -4.734375 L 14.59375 -2.484375 C 13.976562 -1.609375 13.144531 -0.925781 12.09375 -0.4375 C 11.050781 0.0390625 9.894531 0.28125 8.625 0.28125 Z M 8.15625 -12.296875 C 7.34375 -12.296875 6.679688 -12.019531 6.171875 -11.46875 C 5.671875 -10.925781 5.351562 -10.144531 5.21875 -9.125 L 10.90625 -9.125 L 10.90625 -9.4375 C 10.882812 -10.34375 10.632812 -11.046875 10.15625 -11.546875 C 9.6875 -12.046875 9.019531 -12.296875 8.15625 -12.296875 Z M 8.15625 -12.296875 "/></g></g><g transform="translate(305.873439, 301.450792)"><g><path d="M 10.1875 -11.484375 C 9.625 -11.554688 9.128906 -11.59375 8.703125 -11.59375 C 7.160156 -11.59375 6.148438 -11.070312 5.671875 -10.03125 L 5.671875 0 L 1.578125 0 L 1.578125 -15.328125 L 5.4375 -15.328125 L 5.546875 -13.5 C 6.367188 -14.90625 7.507812 -15.609375 8.96875 -15.609375 C 9.414062 -15.609375 9.835938 -15.546875 10.234375 -15.421875 Z M 10.1875 -11.484375 "/></g></g><g transform="translate(316.449284, 301.450792)"><g><path d="M 5.40625 -15.328125 L 5.53125 -13.609375 C 6.625 -14.941406 8.09375 -15.609375 9.9375 -15.609375 C 11.914062 -15.609375 13.269531 -14.828125 14 -13.265625 C 15.082031 -14.828125 16.617188 -15.609375 18.609375 -15.609375 C 20.265625 -15.609375 21.5 -15.125 22.3125 -14.15625 C 23.125 -13.1875 23.53125 -11.726562 23.53125 -9.78125 L 23.53125 0 L 19.421875 0 L 19.421875 -9.765625 C 19.421875 -10.640625 19.25 -11.273438 18.90625 -11.671875 C 18.570312 -12.078125 17.976562 -12.28125 17.125 -12.28125 C 15.894531 -12.28125 15.046875 -11.691406 14.578125 -10.515625 L 14.578125 0 L 10.5 0 L 10.5 -9.75 C 10.5 -10.644531 10.320312 -11.289062 9.96875 -11.6875 C 9.613281 -12.082031 9.019531 -12.28125 8.1875 -12.28125 C 7.019531 -12.28125 6.179688 -11.796875 5.671875 -10.828125 L 5.671875 0 L 1.578125 0 L 1.578125 -15.328125 Z M 5.40625 -15.328125 "/></g></g><g transform="translate(341.550989, 301.450792)"><g><path d="M 5.890625 0 L 1.78125 0 L 1.78125 -15.328125 L 5.890625 -15.328125 Z M 1.546875 -19.28125 C 1.546875 -19.894531 1.75 -20.398438 2.15625 -20.796875 C 2.570312 -21.191406 3.132812 -21.390625 3.84375 -21.390625 C 4.539062 -21.390625 5.09375 -21.191406 5.5 -20.796875 C 5.914062 -20.398438 6.125 -19.894531 6.125 -19.28125 C 6.125 -18.664062 5.914062 -18.15625 5.5 -17.75 C 5.082031 -17.351562 4.523438 -17.15625 3.828125 -17.15625 C 3.140625 -17.15625 2.585938 -17.351562 2.171875 -17.75 C 1.753906 -18.15625 1.546875 -18.664062 1.546875 -19.28125 Z M 1.546875 -19.28125 "/></g></g><g transform="translate(349.238652, 301.450792)"><g><path d="M 5.34375 -15.328125 L 5.46875 -13.546875 C 6.5625 -14.921875 8.03125 -15.609375 9.875 -15.609375 C 11.5 -15.609375 12.707031 -15.128906 13.5 -14.171875 C 14.289062 -13.222656 14.695312 -11.796875 14.71875 -9.890625 L 14.71875 0 L 10.625 0 L 10.625 -9.796875 C 10.625 -10.671875 10.429688 -11.300781 10.046875 -11.6875 C 9.671875 -12.082031 9.046875 -12.28125 8.171875 -12.28125 C 7.015625 -12.28125 6.148438 -11.785156 5.578125 -10.796875 L 5.578125 0 L 1.484375 0 L 1.484375 -15.328125 Z M 5.34375 -15.328125 "/></g></g></g><g clip-path="url(#41bc8d9d5a)"><g transform="matrix(1, 0, 0, 1, 512, 167)"><g clip-path="url(#ee27ffb949)"><g clip-path="url(#98925353d5)"><path fill="#dfb0b0" d="M 43.722656 66.769531 C 48.148438 66.734375 53.023438 66.285156 57.554688 66.449219 C 62.367188 66.636719 66.96875 68.238281 71.695312 68.988281 C 80.027344 70.140625 87.640625 64.597656 92.089844 58.007812 C 95.363281 53.339844 96.578125 47.507812 95.925781 41.863281 C 95.808594 39.972656 95.027344 38.316406 94.324219 36.632812 C 93.386719 34.382812 92.34375 32.171875 90.816406 30.242188 C 85.804688 24.179688 78.71875 20.375 72.738281 15.382812 C 72.152344 14.921875 71.746094 14.320312 71.402344 13.664062 C 69.539062 9.832031 67.605469 5.65625 63.503906 3.765625 C 56.832031 0.0703125 48.078125 1.136719 42.375 6.203125 C 40.953125 7.496094 39.765625 9.007812 38.324219 10.273438 C 34.167969 14.113281 30.0625 18.792969 24.277344 20.015625 C 18.160156 20.542969 14.976562 16.007812 8.417969 18.070312 C 2.070312 19.734375 -0.078125 27.09375 0.203125 32.964844 C 0.671875 38.277344 2.8125 43.335938 5.675781 47.796875 C 14.964844 61.078125 27.566406 67.0625 43.722656 66.769531 Z M 43.722656 66.769531 " fill-opacity="1" fill-rule="nonzero"/></g></g></g></g><g transform="matrix(1, 0, 0, 1, 13, 270)"><g clip-path="url(#9ed8f20b03)"><g fill="#000000" fill-opacity="1"><g transform="translate(0.0738889, 40.926151)"><g><path d="M 2.84375 0 L 2.84375 -31.9375 L 14.03125 -31.9375 C 17.90625 -31.9375 20.84375 -31.191406 22.84375 -29.703125 C 24.851562 -28.222656 25.859375 -26.050781 25.859375 -23.1875 C 25.859375 -21.625 25.457031 -20.242188 24.65625 -19.046875 C 23.851562 -17.859375 22.734375 -16.984375 21.296875 -16.421875 C 22.929688 -16.015625 24.21875 -15.1875 25.15625 -13.9375 C 26.101562 -12.695312 26.578125 -11.179688 26.578125 -9.390625 C 26.578125 -6.316406 25.597656 -3.988281 23.640625 -2.40625 C 21.679688 -0.832031 18.890625 -0.03125 15.265625 0 Z M 9.4375 -13.90625 L 9.4375 -5.28125 L 15.0625 -5.28125 C 16.613281 -5.28125 17.820312 -5.648438 18.6875 -6.390625 C 19.5625 -7.128906 20 -8.148438 20 -9.453125 C 20 -12.378906 18.488281 -13.863281 15.46875 -13.90625 Z M 9.4375 -18.5625 L 14.296875 -18.5625 C 17.617188 -18.613281 19.28125 -19.9375 19.28125 -22.53125 C 19.28125 -23.976562 18.859375 -25.019531 18.015625 -25.65625 C 17.179688 -26.289062 15.851562 -26.609375 14.03125 -26.609375 L 9.4375 -26.609375 Z M 9.4375 -18.5625 "/></g></g></g></g></g></g></g></g></svg>