<svg xmlns="http://www.w3.org/2000/svg" xmlns:xlink="http://www.w3.org/1999/xlink" width="845" zoomAndPan="magnify" viewBox="0 0 633.75 326.250004" height="435" preserveAspectRatio="xMidYMid meet" version="1.0"><defs><g/><clipPath id="44225ea0f8"><path d="M 3.421875 0 L 631.96875 0 L 631.96875 323.957031 L 3.421875 323.957031 Z M 3.421875 0 " clip-rule="nonzero"/></clipPath><clipPath id="0dd797f25f"><path d="M 364 43 L 588 43 L 588 237 L 364 237 Z M 364 43 " clip-rule="nonzero"/></clipPath><clipPath id="87922f3e67"><path d="M 583.210938 236.8125 L 364.023438 231.800781 L 368.332031 43.285156 L 587.519531 48.292969 Z M 583.210938 236.8125 " clip-rule="nonzero"/></clipPath><clipPath id="4e993acdc2"><path d="M 41 107 L 74 107 L 74 141 L 41 141 Z M 41 107 " clip-rule="nonzero"/></clipPath><clipPath id="4f92ef354a"><path d="M 219.210938 193.8125 L 0.0234375 188.800781 L 4.332031 0.285156 L 223.519531 5.292969 Z M 219.210938 193.8125 " clip-rule="nonzero"/></clipPath><clipPath id="623bd7b561"><path d="M 0.28125 188.808594 L 219.46875 193.816406 L 223.777344 5.300781 L 4.589844 0.289062 Z M 0.28125 188.808594 " clip-rule="nonzero"/></clipPath><clipPath id="66248111e3"><path d="M 0.28125 188.808594 L 219.46875 193.816406 L 223.777344 5.300781 L 4.589844 0.289062 Z M 0.28125 188.808594 " clip-rule="nonzero"/></clipPath><clipPath id="5812be9d94"><path d="M 79 111 L 103 111 L 103 138 L 79 138 Z M 79 111 " clip-rule="nonzero"/></clipPath><clipPath id="72bd2b23c0"><path d="M 219.210938 193.8125 L 0.0234375 188.800781 L 4.332031 0.285156 L 223.519531 5.292969 Z M 219.210938 193.8125 " clip-rule="nonzero"/></clipPath><clipPath id="29b1db9292"><path d="M 0.28125 188.808594 L 219.46875 193.816406 L 223.777344 5.300781 L 4.589844 0.289062 Z M 0.28125 188.808594 " clip-rule="nonzero"/></clipPath><clipPath id="f0f2414744"><path d="M 0.28125 188.808594 L 219.46875 193.816406 L 223.777344 5.300781 L 4.589844 0.289062 Z M 0.28125 188.808594 " clip-rule="nonzero"/></clipPath><clipPath id="b3dda9b8be"><path d="M 61 70 L 89 70 L 89 102 L 61 102 Z M 61 70 " clip-rule="nonzero"/></clipPath><clipPath id="55d76f5c70"><path d="M 219.210938 193.8125 L 0.0234375 188.800781 L 4.332031 0.285156 L 223.519531 5.292969 Z M 219.210938 193.8125 " clip-rule="nonzero"/></clipPath><clipPath id="8b9f649a8e"><path d="M 0.28125 188.808594 L 219.46875 193.816406 L 223.777344 5.300781 L 4.589844 0.289062 Z M 0.28125 188.808594 " clip-rule="nonzero"/></clipPath><clipPath id="58c37cef9d"><path d="M 0.28125 188.808594 L 219.46875 193.816406 L 223.777344 5.300781 L 4.589844 0.289062 Z M 0.28125 188.808594 " clip-rule="nonzero"/></clipPath><clipPath id="d3ad49aad9"><path d="M 95 76 L 130 76 L 130 121 L 95 121 Z M 95 76 " clip-rule="nonzero"/></clipPath><clipPath id="e59fd8a1e9"><path d="M 219.210938 193.8125 L 0.0234375 188.800781 L 4.332031 0.285156 L 223.519531 5.292969 Z M 219.210938 193.8125 " clip-rule="nonzero"/></clipPath><clipPath id="883f991f54"><path d="M 0.28125 188.808594 L 219.46875 193.816406 L 223.777344 5.300781 L 4.589844 0.289062 Z M 0.28125 188.808594 " clip-rule="nonzero"/></clipPath><clipPath id="db1854303d"><path d="M 0.28125 188.808594 L 219.46875 193.816406 L 223.777344 5.300781 L 4.589844 0.289062 Z M 0.28125 188.808594 " clip-rule="nonzero"/></clipPath><clipPath id="5f298d0f19"><path d="M 118 147 L 149 147 L 149 185 L 118 185 Z M 118 147 " clip-rule="nonzero"/></clipPath><clipPath id="f62952cac1"><path d="M 219.210938 193.8125 L 0.0234375 188.800781 L 4.332031 0.285156 L 223.519531 5.292969 Z M 219.210938 193.8125 " clip-rule="nonzero"/></clipPath><clipPath id="2a6121bd7a"><path d="M 0.28125 188.808594 L 219.46875 193.816406 L 223.777344 5.300781 L 4.589844 0.289062 Z M 0.28125 188.808594 " clip-rule="nonzero"/></clipPath><clipPath id="f279f0d19e"><path d="M 0.28125 188.808594 L 219.46875 193.816406 L 223.777344 5.300781 L 4.589844 0.289062 Z M 0.28125 188.808594 " clip-rule="nonzero"/></clipPath><clipPath id="a988ba0958"><path d="M 77 154 L 107 154 L 107 190 L 77 190 Z M 77 154 " clip-rule="nonzero"/></clipPath><clipPath id="c076fdd1cf"><path d="M 219.210938 193.8125 L 0.0234375 188.800781 L 4.332031 0.285156 L 223.519531 5.292969 Z M 219.210938 193.8125 " clip-rule="nonzero"/></clipPath><clipPath id="272b696bff"><path d="M 0.28125 188.808594 L 219.46875 193.816406 L 223.777344 5.300781 L 4.589844 0.289062 Z M 0.28125 188.808594 " clip-rule="nonzero"/></clipPath><clipPath id="a1f7abea1a"><path d="M 0.28125 188.808594 L 219.46875 193.816406 L 223.777344 5.300781 L 4.589844 0.289062 Z M 0.28125 188.808594 " clip-rule="nonzero"/></clipPath><clipPath id="c9c8dca82d"><path d="M 138 97 L 173 97 L 173 138 L 138 138 Z M 138 97 " clip-rule="nonzero"/></clipPath><clipPath id="fc0a93cbe3"><path d="M 219.210938 193.8125 L 0.0234375 188.800781 L 4.332031 0.285156 L 223.519531 5.292969 Z M 219.210938 193.8125 " clip-rule="nonzero"/></clipPath><clipPath id="05125d90a3"><path d="M 0.28125 188.808594 L 219.46875 193.816406 L 223.777344 5.300781 L 4.589844 0.289062 Z M 0.28125 188.808594 " clip-rule="nonzero"/></clipPath><clipPath id="f0a875900c"><path d="M 0.28125 188.808594 L 219.46875 193.816406 L 223.777344 5.300781 L 4.589844 0.289062 Z M 0.28125 188.808594 " clip-rule="nonzero"/></clipPath><clipPath id="82776b06c0"><path d="M 121 48 L 146 48 L 146 74 L 121 74 Z M 121 48 " clip-rule="nonzero"/></clipPath><clipPath id="3e720ced6a"><path d="M 219.210938 193.8125 L 0.0234375 188.800781 L 4.332031 0.285156 L 223.519531 5.292969 Z M 219.210938 193.8125 " clip-rule="nonzero"/></clipPath><clipPath id="84dae0793d"><path d="M 0.28125 188.808594 L 219.46875 193.816406 L 223.777344 5.300781 L 4.589844 0.289062 Z M 0.28125 188.808594 " clip-rule="nonzero"/></clipPath><clipPath id="c3c8bb4190"><path d="M 0.28125 188.808594 L 219.46875 193.816406 L 223.777344 5.300781 L 4.589844 0.289062 Z M 0.28125 188.808594 " clip-rule="nonzero"/></clipPath><clipPath id="d22a130694"><path d="M 75 31 L 106 31 L 106 66 L 75 66 Z M 75 31 " clip-rule="nonzero"/></clipPath><clipPath id="bd7b4a84f9"><path d="M 219.210938 193.8125 L 0.0234375 188.800781 L 4.332031 0.285156 L 223.519531 5.292969 Z M 219.210938 193.8125 " clip-rule="nonzero"/></clipPath><clipPath id="0f5f8248ab"><path d="M 0.28125 188.808594 L 219.46875 193.816406 L 223.777344 5.300781 L 4.589844 0.289062 Z M 0.28125 188.808594 " clip-rule="nonzero"/></clipPath><clipPath id="87160236ff"><path d="M 0.28125 188.808594 L 219.46875 193.816406 L 223.777344 5.300781 L 4.589844 0.289062 Z M 0.28125 188.808594 " clip-rule="nonzero"/></clipPath><clipPath id="ef8541434c"><path d="M 19 66 L 49 66 L 49 99 L 19 99 Z M 19 66 " clip-rule="nonzero"/></clipPath><clipPath id="86dfbab77a"><path d="M 219.210938 193.8125 L 0.0234375 188.800781 L 4.332031 0.285156 L 223.519531 5.292969 Z M 219.210938 193.8125 " clip-rule="nonzero"/></clipPath><clipPath id="f984fda1e9"><path d="M 0.28125 188.808594 L 219.46875 193.816406 L 223.777344 5.300781 L 4.589844 0.289062 Z M 0.28125 188.808594 " clip-rule="nonzero"/></clipPath><clipPath id="ae52060cae"><path d="M 0.28125 188.808594 L 219.46875 193.816406 L 223.777344 5.300781 L 4.589844 0.289062 Z M 0.28125 188.808594 " clip-rule="nonzero"/></clipPath><clipPath id="082bccf2b2"><path d="M 167 63 L 198 63 L 198 102 L 167 102 Z M 167 63 " clip-rule="nonzero"/></clipPath><clipPath id="63523e0902"><path d="M 219.210938 193.8125 L 0.0234375 188.800781 L 4.332031 0.285156 L 223.519531 5.292969 Z M 219.210938 193.8125 " clip-rule="nonzero"/></clipPath><clipPath id="e2903695d1"><path d="M 0.28125 188.808594 L 219.46875 193.816406 L 223.777344 5.300781 L 4.589844 0.289062 Z M 0.28125 188.808594 " clip-rule="nonzero"/></clipPath><clipPath id="e3de2d47eb"><path d="M 0.28125 188.808594 L 219.46875 193.816406 L 223.777344 5.300781 L 4.589844 0.289062 Z M 0.28125 188.808594 " clip-rule="nonzero"/></clipPath><clipPath id="8859e270d2"><path d="M 46 153 L 74 153 L 74 183 L 46 183 Z M 46 153 " clip-rule="nonzero"/></clipPath><clipPath id="e5c2cdeaa9"><path d="M 219.210938 193.8125 L 0.0234375 188.800781 L 4.332031 0.285156 L 223.519531 5.292969 Z M 219.210938 193.8125 " clip-rule="nonzero"/></clipPath><clipPath id="f9c6efc547"><path d="M 0.28125 188.808594 L 219.46875 193.816406 L 223.777344 5.300781 L 4.589844 0.289062 Z M 0.28125 188.808594 " clip-rule="nonzero"/></clipPath><clipPath id="bda6b5e9a9"><path d="M 0.28125 188.808594 L 219.46875 193.816406 L 223.777344 5.300781 L 4.589844 0.289062 Z M 0.28125 188.808594 " clip-rule="nonzero"/></clipPath><clipPath id="5daf34e9c7"><path d="M 3 97 L 34 97 L 34 143 L 3 143 Z M 3 97 " clip-rule="nonzero"/></clipPath><clipPath id="fe18d6d506"><path d="M 219.210938 193.8125 L 0.0234375 188.800781 L 4.332031 0.285156 L 223.519531 5.292969 Z M 219.210938 193.8125 " clip-rule="nonzero"/></clipPath><clipPath id="90705fd478"><path d="M 0.28125 188.808594 L 219.46875 193.816406 L 223.777344 5.300781 L 4.589844 0.289062 Z M 0.28125 188.808594 " clip-rule="nonzero"/></clipPath><clipPath id="7e14e74ce1"><path d="M 0.28125 188.808594 L 219.46875 193.816406 L 223.777344 5.300781 L 4.589844 0.289062 Z M 0.28125 188.808594 " clip-rule="nonzero"/></clipPath><clipPath id="476c28090c"><path d="M 151 8 L 179 8 L 179 45 L 151 45 Z M 151 8 " clip-rule="nonzero"/></clipPath><clipPath id="7e625fdc07"><path d="M 219.210938 193.8125 L 0.0234375 188.800781 L 4.332031 0.285156 L 223.519531 5.292969 Z M 219.210938 193.8125 " clip-rule="nonzero"/></clipPath><clipPath id="b2a2e03cd3"><path d="M 0.28125 188.808594 L 219.46875 193.816406 L 223.777344 5.300781 L 4.589844 0.289062 Z M 0.28125 188.808594 " clip-rule="nonzero"/></clipPath><clipPath id="1e859a6bd2"><path d="M 0.28125 188.808594 L 219.46875 193.816406 L 223.777344 5.300781 L 4.589844 0.289062 Z M 0.28125 188.808594 " clip-rule="nonzero"/></clipPath><clipPath id="c60e876246"><path d="M 171 155 L 200 155 L 200 192 L 171 192 Z M 171 155 " clip-rule="nonzero"/></clipPath><clipPath id="a1644fe33c"><path d="M 219.210938 193.8125 L 0.0234375 188.800781 L 4.332031 0.285156 L 223.519531 5.292969 Z M 219.210938 193.8125 " clip-rule="nonzero"/></clipPath><clipPath id="85eaae4071"><path d="M 0.28125 188.808594 L 219.46875 193.816406 L 223.777344 5.300781 L 4.589844 0.289062 Z M 0.28125 188.808594 " clip-rule="nonzero"/></clipPath><clipPath id="2bb79f333f"><path d="M 0.28125 188.808594 L 219.46875 193.816406 L 223.777344 5.300781 L 4.589844 0.289062 Z M 0.28125 188.808594 " clip-rule="nonzero"/></clipPath><clipPath id="0045484dba"><path d="M 105 4 L 132 4 L 132 35 L 105 35 Z M 105 4 " clip-rule="nonzero"/></clipPath><clipPath id="29c8e426a1"><path d="M 219.210938 193.8125 L 0.0234375 188.800781 L 4.332031 0.285156 L 223.519531 5.292969 Z M 219.210938 193.8125 " clip-rule="nonzero"/></clipPath><clipPath id="d8e439c308"><path d="M 0.28125 188.808594 L 219.46875 193.816406 L 223.777344 5.300781 L 4.589844 0.289062 Z M 0.28125 188.808594 " clip-rule="nonzero"/></clipPath><clipPath id="8e3d31d629"><path d="M 0.28125 188.808594 L 219.46875 193.816406 L 223.777344 5.300781 L 4.589844 0.289062 Z M 0.28125 188.808594 " clip-rule="nonzero"/></clipPath><clipPath id="bde6e7b338"><path d="M 191 32 L 221 32 L 221 66 L 191 66 Z M 191 32 " clip-rule="nonzero"/></clipPath><clipPath id="d4a6e875b8"><path d="M 219.210938 193.8125 L 0.0234375 188.800781 L 4.332031 0.285156 L 223.519531 5.292969 Z M 219.210938 193.8125 " clip-rule="nonzero"/></clipPath><clipPath id="3a20a8456d"><path d="M 0.28125 188.808594 L 219.46875 193.816406 L 223.777344 5.300781 L 4.589844 0.289062 Z M 0.28125 188.808594 " clip-rule="nonzero"/></clipPath><clipPath id="cc6b3cc5b7"><path d="M 0.28125 188.808594 L 219.46875 193.816406 L 223.777344 5.300781 L 4.589844 0.289062 Z M 0.28125 188.808594 " clip-rule="nonzero"/></clipPath><clipPath id="e8a5231bae"><path d="M 193 114 L 220 114 L 220 152 L 193 152 Z M 193 114 " clip-rule="nonzero"/></clipPath><clipPath id="1342e50e95"><path d="M 219.210938 193.8125 L 0.0234375 188.800781 L 4.332031 0.285156 L 223.519531 5.292969 Z M 219.210938 193.8125 " clip-rule="nonzero"/></clipPath><clipPath id="ca54989075"><path d="M 0.28125 188.808594 L 219.46875 193.816406 L 223.777344 5.300781 L 4.589844 0.289062 Z M 0.28125 188.808594 " clip-rule="nonzero"/></clipPath><clipPath id="ea9b78b9d0"><path d="M 0.28125 188.808594 L 219.46875 193.816406 L 223.777344 5.300781 L 4.589844 0.289062 Z M 0.28125 188.808594 " clip-rule="nonzero"/></clipPath><clipPath id="4821390111"><rect x="0" width="224" y="0" height="194"/></clipPath></defs><g clip-path="url(#44225ea0f8)"><path stroke-linecap="butt" transform="matrix(0.74828, 0, 0, 0.74828, 3.4216, 0.00000997706)" fill="none" stroke-linejoin="miter" d="M 0.00036813 -0.0000133333 L 840.422813 -0.0000133333 L 840.422813 432.935707 L 0.00036813 432.935707 Z M 0.00036813 -0.0000133333 " stroke="#000000" stroke-width="12" stroke-opacity="1" stroke-miterlimit="4"/></g><path stroke-linecap="butt" transform="matrix(0, 0.74828, -0.74828, 0, 319.094494, 26.15081)" fill="none" stroke-linejoin="miter" d="M 0.00204924 2.501521 L 315.710536 2.501521 " stroke="#000000" stroke-width="5" stroke-opacity="1" stroke-miterlimit="4"/><path fill="#8bc28f" d="M 109.808594 112.71875 C 111.589844 111.054688 113.488281 109.117188 115.5 106.898438 C 117.769531 104.402344 119.445312 102.589844 120.53125 101.453125 C 124.550781 97.238281 131.234375 97.074219 135.457031 101.085938 C 139.679688 105.097656 139.84375 111.769531 135.824219 115.984375 C 134.859375 116.996094 133.300781 118.6875 131.144531 121.054688 C 128.738281 123.703125 126.429688 126.058594 124.21875 128.121094 C 119.957031 132.09375 113.277344 131.863281 109.296875 127.609375 C 105.316406 123.355469 105.542969 116.6875 109.808594 112.71875 Z M 109.808594 112.71875 " fill-opacity="1" fill-rule="nonzero"/><path fill="#8bc28f" d="M 145.835938 112.285156 C 146.566406 110.734375 147.410156 109.070312 148.371094 107.289062 C 151.140625 102.167969 157.546875 100.257812 162.679688 103.019531 C 167.8125 105.78125 169.726562 112.171875 166.960938 117.296875 C 166.183594 118.730469 165.511719 120.046875 164.949219 121.246094 C 162.46875 126.515625 156.179688 128.777344 150.902344 126.304688 C 145.625 123.828125 143.355469 117.554688 145.835938 112.285156 Z M 145.835938 112.285156 " fill-opacity="1" fill-rule="nonzero"/><path fill="#8bc28f" d="M 151.746094 152.152344 C 151.046875 153.640625 150.210938 155.324219 149.242188 157.207031 C 148.257812 159.117188 147.230469 161.011719 146.152344 162.890625 C 143.253906 167.941406 136.800781 169.691406 131.742188 166.800781 C 126.679688 163.910156 124.925781 157.472656 127.824219 152.421875 C 128.742188 150.816406 129.621094 149.199219 130.460938 147.570312 C 131.316406 145.914062 132.039062 144.453125 132.632812 143.191406 C 135.113281 137.925781 141.402344 135.660156 146.679688 138.136719 C 151.957031 140.609375 154.226562 146.886719 151.746094 152.152344 Z M 151.746094 152.152344 " fill-opacity="1" fill-rule="nonzero"/><path fill="#8bc28f" d="M 193.496094 135.195312 C 192.109375 137.636719 190.277344 140.65625 188 144.246094 C 185.765625 147.777344 183.699219 150.960938 181.800781 153.789062 L 179.027344 157.917969 C 175.78125 162.753906 169.222656 164.046875 164.378906 160.808594 C 159.535156 157.570312 158.238281 151.027344 161.480469 146.191406 L 164.253906 142.0625 C 166.046875 139.386719 168.011719 136.363281 170.148438 132.992188 C 172.246094 129.679688 173.902344 126.949219 175.125 124.796875 C 178.003906 119.734375 184.449219 117.960938 189.519531 120.832031 C 194.59375 123.703125 196.371094 130.132812 193.496094 135.195312 Z M 193.496094 135.195312 " fill-opacity="1" fill-rule="nonzero"/><path fill="#8bc28f" d="M 213.578125 70.441406 C 212.132812 73.242188 210.714844 75.742188 209.324219 77.941406 C 208.167969 79.769531 207.027344 81.644531 205.90625 83.574219 L 204.121094 86.640625 C 201.195312 91.675781 194.734375 93.386719 189.691406 90.464844 C 184.644531 87.542969 182.929688 81.09375 185.859375 76.0625 L 187.640625 72.996094 C 188.894531 70.839844 190.171875 68.734375 191.46875 66.6875 C 192.527344 65.011719 193.636719 63.050781 194.796875 60.804688 C 197.460938 55.628906 203.828125 53.589844 209.011719 56.25 C 214.199219 58.910156 216.242188 65.265625 213.578125 70.441406 Z M 213.578125 70.441406 " fill-opacity="1" fill-rule="nonzero"/><path fill="#8bc28f" d="M 172.273438 64.222656 C 171.175781 66.859375 169.308594 70.222656 166.675781 74.316406 L 163.230469 79.667969 C 160.082031 84.5625 153.546875 85.984375 148.640625 82.839844 C 143.734375 79.695312 142.3125 73.175781 145.460938 68.277344 L 148.90625 62.925781 C 150.863281 59.882812 152.152344 57.621094 152.769531 56.136719 C 155.007812 50.761719 161.1875 48.214844 166.570312 50.449219 C 171.957031 52.679688 174.507812 58.847656 172.273438 64.222656 Z M 172.273438 64.222656 " fill-opacity="1" fill-rule="nonzero"/><path fill="#8bc28f" d="M 235.140625 120.894531 C 233.183594 123.152344 231 126.023438 228.585938 129.511719 C 226.039062 133.195312 224.269531 135.816406 223.28125 137.378906 C 220.164062 142.300781 213.644531 143.769531 208.714844 140.660156 C 203.785156 137.550781 202.3125 131.042969 205.425781 126.125 C 206.570312 124.320312 208.496094 121.457031 211.210938 117.535156 C 214.058594 113.417969 216.710938 109.941406 219.171875 107.105469 C 222.984375 102.707031 229.652344 102.222656 234.0625 106.03125 C 238.472656 109.839844 238.957031 116.496094 235.140625 120.894531 Z M 235.140625 120.894531 " fill-opacity="1" fill-rule="nonzero"/><path fill="#8bc28f" d="M 207 183.089844 C 206.285156 183.992188 205.636719 184.972656 205.0625 186.035156 C 202.296875 191.15625 195.890625 193.070312 190.757812 190.308594 C 185.625 187.542969 183.710938 181.152344 186.476562 176.03125 C 187.640625 173.878906 188.964844 171.867188 190.449219 170 C 194.074219 165.4375 200.714844 164.671875 205.285156 168.285156 C 209.855469 171.898438 210.621094 178.527344 207 183.089844 Z M 207 183.089844 " fill-opacity="1" fill-rule="nonzero"/><path fill="#8bc28f" d="M 166.886719 190.246094 C 165.5 192.113281 164.441406 193.632812 163.703125 194.796875 C 162.917969 196.035156 161.996094 197.585938 160.9375 199.453125 L 159.222656 202.472656 C 156.34375 207.535156 149.898438 209.3125 144.828125 206.441406 C 139.753906 203.570312 137.976562 197.136719 140.851562 192.074219 L 142.566406 189.058594 C 143.792969 186.898438 144.886719 185.0625 145.851562 183.539062 C 146.863281 181.941406 148.214844 180 149.90625 177.71875 C 153.371094 173.039062 159.984375 172.046875 164.671875 175.507812 C 169.363281 178.964844 170.351562 185.566406 166.886719 190.246094 Z M 166.886719 190.246094 " fill-opacity="1" fill-rule="nonzero"/><path fill="#8bc28f" d="M 111.328125 154.949219 C 110.078125 156.921875 109.3125 158.128906 109.03125 158.574219 C 108.273438 159.773438 107.128906 161.441406 105.605469 163.578125 L 103.488281 166.542969 C 100.105469 171.28125 93.511719 172.386719 88.761719 169.011719 C 84.011719 165.632812 82.90625 159.054688 86.289062 154.316406 L 88.40625 151.347656 C 89.703125 149.53125 90.628906 148.1875 91.179688 147.316406 C 92.210938 145.6875 92.972656 144.480469 93.472656 143.691406 C 96.589844 138.773438 103.109375 137.304688 108.039062 140.414062 C 112.96875 143.519531 114.441406 150.027344 111.328125 154.949219 Z M 111.328125 154.949219 " fill-opacity="1" fill-rule="nonzero"/><path fill="#8bc28f" d="M 260.125 156.226562 C 259.105469 157.65625 257.734375 160.039062 256.015625 163.375 C 254.0625 167.171875 252.585938 170.027344 251.589844 171.945312 C 248.90625 177.109375 242.53125 179.125 237.355469 176.449219 C 232.179688 173.769531 230.15625 167.410156 232.84375 162.242188 C 233.828125 160.347656 235.292969 157.511719 237.234375 153.738281 C 239.417969 149.5 241.316406 146.253906 242.925781 143.996094 C 246.308594 139.257812 252.902344 138.152344 257.652344 141.527344 C 262.402344 144.90625 263.511719 151.484375 260.125 156.226562 Z M 260.125 156.226562 " fill-opacity="1" fill-rule="nonzero"/><path fill="#8bc28f" d="M 137.640625 73.675781 C 136.65625 74.703125 135.617188 75.988281 134.519531 77.527344 L 132.433594 80.445312 C 129.050781 85.183594 122.457031 86.289062 117.710938 82.914062 C 112.960938 79.535156 111.851562 72.957031 115.234375 68.214844 L 117.316406 65.300781 C 118.996094 62.949219 120.671875 60.894531 122.34375 59.140625 C 126.367188 54.925781 133.050781 54.765625 137.273438 58.777344 C 141.496094 62.789062 141.660156 69.460938 137.640625 73.675781 Z M 137.640625 73.675781 " fill-opacity="1" fill-rule="nonzero"/><path fill="#8bc28f" d="M 98.410156 110.746094 C 96.464844 114.402344 94.683594 117.769531 93.066406 120.851562 C 81.679688 142.539062 80.203125 145.351562 88.636719 129.289062 C 85.929688 134.445312 79.546875 136.433594 74.382812 133.734375 C 69.214844 131.035156 67.222656 124.664062 69.929688 119.511719 C 81.015625 98.394531 82.492188 95.582031 74.359375 111.070312 C 75.996094 107.957031 77.792969 104.554688 79.753906 100.867188 C 82.488281 95.726562 88.878906 93.769531 94.03125 96.496094 C 99.183594 99.226562 101.140625 105.605469 98.410156 110.746094 Z M 98.410156 110.746094 " fill-opacity="1" fill-rule="nonzero"/><path fill="#8bc28f" d="M 240.472656 211.570312 C 239.691406 213.058594 239.101562 214.453125 238.703125 215.757812 C 237.957031 218.1875 237 220.613281 235.835938 223.035156 L 234.433594 225.957031 C 231.914062 231.203125 225.605469 233.417969 220.347656 230.898438 C 215.089844 228.382812 212.871094 222.089844 215.394531 216.84375 L 216.796875 213.921875 C 217.503906 212.453125 218.074219 211.007812 218.511719 209.582031 C 219.292969 207.03125 220.378906 204.433594 221.769531 201.789062 C 224.472656 196.636719 230.855469 194.644531 236.019531 197.347656 C 241.1875 200.046875 243.179688 206.414062 240.472656 211.570312 Z M 240.472656 211.570312 " fill-opacity="1" fill-rule="nonzero"/><path fill="#8bc28f" d="M 264.40625 66.488281 C 263.8125 67.234375 263.242188 68.191406 262.691406 69.363281 C 261.828125 71.199219 260.863281 73.3125 259.804688 75.707031 L 258.167969 79.410156 C 255.8125 84.734375 249.578125 87.144531 244.246094 84.796875 C 238.910156 82.445312 236.492188 76.222656 238.847656 70.898438 L 240.488281 67.195312 C 241.613281 64.652344 242.640625 62.390625 243.574219 60.40625 C 244.820312 57.757812 246.25 55.421875 247.859375 53.394531 C 251.480469 48.835938 258.121094 48.066406 262.691406 51.683594 C 267.261719 55.296875 268.03125 61.925781 264.40625 66.488281 Z M 264.40625 66.488281 " fill-opacity="1" fill-rule="nonzero"/><path fill="#8bc28f" d="M 192.972656 220.652344 C 189.238281 227.5625 188.765625 228.4375 191.554688 223.28125 C 191.902344 222.636719 191.351562 223.65625 189.902344 226.339844 L 188.132812 229.613281 C 185.363281 234.734375 178.957031 236.648438 173.824219 233.882812 C 168.691406 231.121094 166.777344 224.730469 169.542969 219.609375 L 171.316406 216.332031 L 171.3125 216.332031 C 171.042969 216.832031 171.59375 215.8125 172.96875 213.273438 C 176.78125 206.222656 177.253906 205.34375 174.386719 210.648438 C 177.15625 205.527344 183.558594 203.613281 188.691406 206.375 C 193.824219 209.140625 195.742188 215.53125 192.972656 220.652344 Z M 192.972656 220.652344 " fill-opacity="1" fill-rule="nonzero"/><path fill="#8bc28f" d="M 282.191406 192.742188 C 280.421875 195.011719 278.777344 197.347656 277.253906 199.75 L 274.699219 203.789062 C 271.582031 208.707031 265.0625 210.175781 260.132812 207.066406 C 255.203125 203.960938 253.730469 197.449219 256.84375 192.53125 L 259.402344 188.492188 C 261.289062 185.507812 263.332031 182.609375 265.523438 179.800781 C 269.105469 175.207031 275.738281 174.378906 280.339844 177.953125 C 284.941406 181.527344 285.769531 188.148438 282.191406 192.742188 Z M 282.191406 192.742188 " fill-opacity="1" fill-rule="nonzero"/><path fill="#8bc28f" d="M 285.085938 102.734375 C 284.1875 106.453125 283.269531 109.714844 282.324219 112.523438 C 281.332031 115.460938 281.058594 116.277344 281.496094 114.976562 C 280.957031 116.574219 280.445312 118.09375 279.960938 119.539062 C 278.101562 125.054688 272.113281 128.023438 266.585938 126.167969 C 261.058594 124.3125 258.082031 118.339844 259.941406 112.820312 C 260.429688 111.378906 260.941406 109.859375 261.476562 108.261719 C 262.453125 105.363281 262.730469 104.542969 262.304688 105.804688 C 263.054688 103.585938 263.800781 100.917969 264.554688 97.800781 C 265.917969 92.144531 271.621094 88.660156 277.289062 90.023438 C 282.960938 91.382812 286.449219 97.074219 285.085938 102.734375 Z M 285.085938 102.734375 " fill-opacity="1" fill-rule="nonzero"/><g clip-path="url(#0dd797f25f)"><g clip-path="url(#87922f3e67)"><g transform="matrix(1, 0, 0, 1, 364, 43)"><g clip-path="url(#4821390111)"><g clip-path="url(#4e993acdc2)"><g clip-path="url(#4f92ef354a)"><g clip-path="url(#623bd7b561)"><g clip-path="url(#66248111e3)"><path fill="#8bc28f" d="M 44.316406 125.160156 C 46.058594 126.863281 47.914062 128.84375 49.875 131.105469 C 52.085938 133.652344 53.71875 135.507812 54.777344 136.667969 C 58.703125 140.972656 65.378906 141.289062 69.695312 137.375 C 74.007812 133.460938 74.324219 126.792969 70.398438 122.488281 C 69.457031 121.457031 67.9375 119.730469 65.839844 117.3125 C 63.492188 114.609375 61.238281 112.199219 59.074219 110.089844 C 54.90625 106.023438 48.21875 106.097656 44.144531 110.257812 C 40.066406 114.421875 40.144531 121.09375 44.316406 125.160156 Z M 44.316406 125.160156 " fill-opacity="1" fill-rule="nonzero"/></g></g></g></g><g clip-path="url(#5812be9d94)"><g clip-path="url(#72bd2b23c0)"><g clip-path="url(#29b1db9292)"><g clip-path="url(#f0f2414744)"><path fill="#8bc28f" d="M 80.324219 126.414062 C 81.019531 127.980469 81.828125 129.667969 82.746094 131.464844 C 85.398438 136.652344 91.757812 138.710938 96.953125 136.0625 C 102.144531 133.417969 104.207031 127.074219 101.558594 121.890625 C 100.816406 120.4375 100.175781 119.105469 99.636719 117.894531 C 97.28125 112.570312 91.042969 110.164062 85.710938 112.515625 C 80.378906 114.871094 77.964844 121.09375 80.324219 126.414062 Z M 80.324219 126.414062 " fill-opacity="1" fill-rule="nonzero"/></g></g></g></g><g clip-path="url(#b3dda9b8be)"><g clip-path="url(#55d76f5c70)"><g clip-path="url(#8b9f649a8e)"><g clip-path="url(#58c37cef9d)"><path fill="#8bc28f" d="M 87.144531 86.691406 C 86.480469 85.1875 85.683594 83.484375 84.757812 81.582031 L 84.757812 81.585938 C 83.816406 79.652344 82.832031 77.734375 81.796875 75.832031 C 79.015625 70.714844 72.605469 68.816406 67.480469 71.59375 C 62.355469 74.367188 60.453125 80.761719 63.234375 85.878906 C 64.117188 87.503906 64.960938 89.140625 65.761719 90.789062 C 66.578125 92.464844 67.265625 93.9375 67.832031 95.214844 C 70.191406 100.535156 76.425781 102.945312 81.757812 100.589844 C 87.09375 98.238281 89.503906 92.015625 87.144531 86.691406 Z M 87.144531 86.691406 " fill-opacity="1" fill-rule="nonzero"/></g></g></g></g><g clip-path="url(#d3ad49aad9)"><g clip-path="url(#e59fd8a1e9)"><g clip-path="url(#883f991f54)"><g clip-path="url(#db1854303d)"><path fill="#8bc28f" d="M 128.496094 104.601562 C 127.164062 102.128906 125.402344 99.066406 123.210938 95.425781 C 121.054688 91.84375 119.0625 88.617188 117.226562 85.742188 L 114.550781 81.550781 C 111.417969 76.644531 104.890625 75.199219 99.972656 78.328125 C 95.054688 81.453125 93.609375 87.96875 96.742188 92.875 L 99.417969 97.066406 C 101.152344 99.78125 103.046875 102.851562 105.105469 106.269531 C 107.125 109.628906 108.71875 112.394531 109.894531 114.574219 C 112.65625 119.703125 119.054688 121.625 124.191406 118.871094 C 129.328125 116.117188 131.257812 109.726562 128.496094 104.601562 Z M 128.496094 104.601562 " fill-opacity="1" fill-rule="nonzero"/></g></g></g></g><g clip-path="url(#5f298d0f19)"><g clip-path="url(#f62952cac1)"><g clip-path="url(#2a6121bd7a)"><g clip-path="url(#f279f0d19e)"><path fill="#8bc28f" d="M 147.09375 169.796875 C 145.714844 166.964844 144.351562 164.429688 143.011719 162.199219 C 141.898438 160.347656 140.800781 158.445312 139.722656 156.488281 L 139.722656 156.492188 L 138.011719 153.382812 C 135.199219 148.285156 128.777344 146.425781 123.667969 149.230469 C 118.558594 152.035156 116.695312 158.445312 119.507812 163.542969 L 121.222656 166.648438 C 122.425781 168.835938 123.65625 170.96875 124.90625 173.046875 C 125.925781 174.742188 126.988281 176.726562 128.09375 179 C 130.640625 184.234375 136.960938 186.421875 142.207031 183.878906 C 147.453125 181.335938 149.640625 175.03125 147.09375 169.796875 Z M 147.09375 169.796875 " fill-opacity="1" fill-rule="nonzero"/></g></g></g></g><g clip-path="url(#a988ba0958)"><g clip-path="url(#c076fdd1cf)"><g clip-path="url(#272b696bff)"><g clip-path="url(#a1f7abea1a)"><path fill="#8bc28f" d="M 105.65625 175.070312 C 104.617188 172.410156 102.832031 169.003906 100.292969 164.851562 L 96.96875 159.421875 C 93.933594 154.457031 87.433594 152.886719 82.457031 155.917969 C 77.480469 158.949219 75.90625 165.433594 78.945312 170.402344 L 82.265625 175.832031 C 84.15625 178.917969 85.390625 181.210938 85.972656 182.707031 C 88.085938 188.132812 94.207031 190.820312 99.640625 188.710938 C 105.078125 186.601562 107.769531 180.496094 105.65625 175.070312 Z M 105.65625 175.070312 " fill-opacity="1" fill-rule="nonzero"/></g></g></g></g><g clip-path="url(#c9c8dca82d)"><g clip-path="url(#fc0a93cbe3)"><g clip-path="url(#05125d90a3)"><g clip-path="url(#f0a875900c)"><path fill="#8bc28f" d="M 169.800781 119.847656 C 167.898438 117.546875 165.78125 114.628906 163.449219 111.085938 C 160.984375 107.34375 159.273438 104.679688 158.324219 103.097656 C 155.320312 98.105469 148.835938 96.488281 143.835938 99.484375 C 138.835938 102.480469 137.214844 108.953125 140.214844 113.941406 C 141.316406 115.773438 143.179688 118.679688 145.800781 122.660156 C 148.554688 126.839844 151.128906 130.378906 153.523438 133.269531 C 157.234375 137.757812 163.890625 138.390625 168.386719 134.683594 C 172.882812 130.976562 173.515625 124.335938 169.800781 119.847656 Z M 169.800781 119.847656 " fill-opacity="1" fill-rule="nonzero"/></g></g></g></g><g clip-path="url(#82776b06c0)"><g clip-path="url(#3e720ced6a)"><g clip-path="url(#84dae0793d)"><g clip-path="url(#c3c8bb4190)"><path fill="#8bc28f" d="M 143.089844 57.027344 C 142.394531 56.109375 141.773438 55.113281 141.222656 54.039062 C 138.574219 48.855469 132.214844 46.796875 127.019531 49.441406 C 121.824219 52.085938 119.761719 58.429688 122.414062 63.613281 C 123.527344 65.792969 124.804688 67.832031 126.246094 69.738281 C 129.761719 74.378906 136.386719 75.296875 141.035156 71.789062 C 145.6875 68.277344 146.609375 61.671875 143.089844 57.027344 Z M 143.089844 57.027344 " fill-opacity="1" fill-rule="nonzero"/></g></g></g></g><g clip-path="url(#d22a130694)"><g clip-path="url(#bd7b4a84f9)"><g clip-path="url(#0f5f8248ab)"><g clip-path="url(#87160236ff)"><path fill="#8bc28f" d="M 103.152344 48.957031 C 101.808594 47.054688 100.785156 45.515625 100.074219 44.335938 C 99.316406 43.078125 98.429688 41.503906 97.414062 39.613281 L 95.765625 36.558594 C 93.007812 31.429688 86.605469 29.507812 81.46875 32.261719 C 76.332031 35.015625 74.40625 41.40625 77.164062 46.53125 L 78.8125 49.589844 C 79.988281 51.773438 81.039062 53.636719 81.96875 55.179688 C 82.941406 56.800781 84.25 58.773438 85.886719 61.09375 C 89.246094 65.851562 95.832031 66.992188 100.601562 63.640625 C 105.367188 60.289062 106.511719 53.714844 103.152344 48.957031 Z M 103.152344 48.957031 " fill-opacity="1" fill-rule="nonzero"/></g></g></g></g><g clip-path="url(#ef8541434c)"><g clip-path="url(#86dfbab77a)"><g clip-path="url(#f984fda1e9)"><g clip-path="url(#ae52060cae)"><path fill="#8bc28f" d="M 46.800781 82.972656 C 45.597656 80.972656 44.859375 79.75 44.589844 79.296875 C 43.855469 78.082031 42.753906 76.386719 41.277344 74.21875 L 39.226562 71.203125 C 35.953125 66.386719 29.386719 65.132812 24.5625 68.398438 C 19.738281 71.667969 18.480469 78.21875 21.753906 83.035156 L 23.800781 86.050781 C 25.058594 87.894531 25.953125 89.261719 26.484375 90.144531 C 27.476562 91.792969 28.210938 93.019531 28.695312 93.820312 C 31.695312 98.808594 38.183594 100.425781 43.179688 97.433594 C 48.179688 94.4375 49.800781 87.964844 46.800781 82.972656 Z M 46.800781 82.972656 " fill-opacity="1" fill-rule="nonzero"/></g></g></g></g><g clip-path="url(#082bccf2b2)"><g clip-path="url(#63523e0902)"><g clip-path="url(#e2903695d1)"><g clip-path="url(#e3de2d47eb)"><path fill="#8bc28f" d="M 195.589844 85.097656 C 194.601562 83.644531 193.285156 81.230469 191.644531 77.859375 C 189.777344 74.015625 188.367188 71.128906 187.414062 69.1875 C 184.847656 63.964844 178.523438 61.800781 173.289062 64.359375 C 168.050781 66.921875 165.882812 73.234375 168.449219 78.460938 C 169.390625 80.375 170.789062 83.242188 172.648438 87.0625 C 174.734375 91.347656 176.554688 94.636719 178.113281 96.929688 C 181.390625 101.746094 187.957031 103.003906 192.78125 99.734375 C 197.605469 96.46875 198.863281 89.914062 195.589844 85.097656 Z M 195.589844 85.097656 " fill-opacity="1" fill-rule="nonzero"/></g></g></g></g><g clip-path="url(#8859e270d2)"><g clip-path="url(#e5c2cdeaa9)"><g clip-path="url(#f9c6efc547)"><g clip-path="url(#bda6b5e9a9)"><path fill="#8bc28f" d="M 71.246094 164.828125 C 70.289062 163.777344 69.277344 162.46875 68.214844 160.90625 L 66.199219 157.941406 C 62.925781 153.125 56.359375 151.871094 51.535156 155.136719 C 46.707031 158.40625 45.449219 164.957031 48.726562 169.773438 L 50.742188 172.738281 C 52.363281 175.125 53.992188 177.214844 55.625 179.007812 C 59.550781 183.3125 66.226562 183.628906 70.542969 179.714844 C 74.855469 175.800781 75.171875 169.132812 71.246094 164.828125 Z M 71.246094 164.828125 " fill-opacity="1" fill-rule="nonzero"/></g></g></g></g><g clip-path="url(#5daf34e9c7)"><g clip-path="url(#fe18d6d506)"><g clip-path="url(#90705fd478)"><g clip-path="url(#7e14e74ce1)"><path fill="#8bc28f" d="M 32.875 126.871094 C 31.015625 123.171875 29.3125 119.761719 27.765625 116.644531 C 16.878906 94.703125 15.464844 91.859375 23.527344 108.109375 C 20.941406 102.890625 14.605469 100.757812 9.378906 103.339844 C 4.152344 105.921875 2.015625 112.242188 4.601562 117.457031 C 15.203125 138.824219 16.617188 141.667969 8.839844 125.996094 C 10.402344 129.148438 12.125 132.589844 14 136.320312 C 16.613281 141.523438 22.960938 143.625 28.171875 141.015625 C 33.386719 138.40625 35.488281 132.074219 32.875 126.871094 Z M 32.875 126.871094 " fill-opacity="1" fill-rule="nonzero"/></g></g></g></g><g clip-path="url(#476c28090c)"><g clip-path="url(#7e625fdc07)"><g clip-path="url(#b2a2e03cd3)"><g clip-path="url(#1e859a6bd2)"><path fill="#8bc28f" d="M 177.207031 29.316406 C 176.460938 27.8125 175.902344 26.40625 175.53125 25.09375 C 174.839844 22.644531 173.941406 20.199219 172.832031 17.75 L 171.496094 14.800781 C 169.097656 9.496094 162.84375 7.136719 157.527344 9.535156 C 152.214844 11.929688 149.851562 18.171875 152.253906 23.476562 L 153.589844 26.425781 C 154.261719 27.910156 154.800781 29.371094 155.203125 30.804688 C 155.929688 33.371094 156.957031 35.992188 158.28125 38.667969 C 160.871094 43.882812 167.203125 46.019531 172.429688 43.4375 C 177.65625 40.855469 179.796875 34.535156 177.207031 29.316406 Z M 177.207031 29.316406 " fill-opacity="1" fill-rule="nonzero"/></g></g></g></g><g clip-path="url(#c60e876246)"><g clip-path="url(#a1644fe33c)"><g clip-path="url(#85eaae4071)"><g clip-path="url(#2bb79f333f)"><path fill="#8bc28f" d="M 197.820312 174.910156 C 197.242188 174.152344 196.691406 173.179688 196.167969 171.996094 C 195.347656 170.140625 194.433594 168.003906 193.429688 165.585938 L 191.875 161.847656 C 189.644531 156.472656 183.464844 153.917969 178.078125 156.148438 C 172.691406 158.375 170.136719 164.539062 172.367188 169.914062 L 173.921875 173.65625 C 174.988281 176.222656 175.964844 178.511719 176.855469 180.515625 C 178.039062 183.191406 179.414062 185.558594 180.972656 187.621094 C 184.492188 192.261719 191.113281 193.179688 195.765625 189.671875 C 200.417969 186.164062 201.335938 179.554688 197.820312 174.910156 Z M 197.820312 174.910156 " fill-opacity="1" fill-rule="nonzero"/></g></g></g></g><g clip-path="url(#0045484dba)"><g clip-path="url(#29c8e426a1)"><g clip-path="url(#d8e439c308)"><g clip-path="url(#8e3d31d629)"><path fill="#8bc28f" d="M 129.925781 19.152344 C 126.351562 12.160156 125.898438 11.273438 128.566406 16.496094 C 128.902344 17.144531 128.375 16.113281 126.984375 13.398438 L 125.289062 10.085938 C 122.640625 4.902344 116.28125 2.84375 111.085938 5.488281 C 105.890625 8.132812 103.828125 14.480469 106.480469 19.664062 L 108.175781 22.976562 C 107.914062 22.46875 108.441406 23.503906 109.757812 26.070312 C 113.40625 33.210938 113.859375 34.097656 111.117188 28.730469 C 113.765625 33.914062 120.125 35.972656 125.320312 33.328125 C 130.515625 30.683594 132.578125 24.335938 129.925781 19.152344 Z M 129.925781 19.152344 " fill-opacity="1" fill-rule="nonzero"/></g></g></g></g><g clip-path="url(#bde6e7b338)"><g clip-path="url(#d4a6e875b8)"><g clip-path="url(#3a20a8456d)"><g clip-path="url(#cc6b3cc5b7)"><path fill="#8bc28f" d="M 218.480469 49.097656 C 216.765625 46.789062 215.175781 44.414062 213.707031 41.976562 L 211.246094 37.882812 C 208.242188 32.890625 201.757812 31.273438 196.757812 34.269531 C 191.757812 37.265625 190.136719 43.738281 193.136719 48.726562 L 195.601562 52.824219 C 197.421875 55.851562 199.398438 58.792969 201.523438 61.652344 C 205 66.328125 211.613281 67.304688 216.296875 63.839844 C 220.976562 60.371094 221.957031 53.769531 218.480469 49.097656 Z M 218.480469 49.097656 " fill-opacity="1" fill-rule="nonzero"/></g></g></g></g><g clip-path="url(#e8a5231bae)"><g clip-path="url(#1342e50e95)"><g clip-path="url(#ca54989075)"><g clip-path="url(#ea9b78b9d0)"><path fill="#8bc28f" d="M 219.320312 139.148438 C 218.507812 135.410156 217.660156 132.125 216.78125 129.296875 C 215.859375 126.339844 215.601562 125.515625 216.011719 126.824219 C 215.507812 125.214844 215.03125 123.683594 214.578125 122.230469 C 212.847656 116.671875 206.929688 113.566406 201.359375 115.296875 C 195.792969 117.023438 192.683594 122.929688 194.414062 128.488281 C 194.867188 129.941406 195.34375 131.472656 195.84375 133.082031 C 196.753906 136 197.011719 136.824219 196.617188 135.554688 C 197.3125 137.789062 198 140.472656 198.679688 143.609375 C 199.914062 149.296875 205.535156 152.90625 211.234375 151.675781 C 216.933594 150.445312 220.554688 144.835938 219.320312 139.148438 Z M 219.320312 139.148438 " fill-opacity="1" fill-rule="nonzero"/></g></g></g></g></g></g></g></g><path fill="#dfb0b0" d="M 82.410156 233.765625 C 77.988281 233.730469 73.121094 233.277344 68.597656 233.445312 C 63.789062 233.632812 59.191406 235.238281 54.472656 235.992188 C 46.152344 237.148438 38.546875 231.585938 34.105469 224.96875 C 30.839844 220.28125 29.625 214.429688 30.273438 208.761719 C 30.394531 206.867188 31.171875 205.203125 31.871094 203.515625 C 32.808594 201.253906 33.851562 199.035156 35.375 197.097656 C 40.382812 191.011719 47.457031 187.191406 53.433594 182.183594 C 54.015625 181.71875 54.421875 181.113281 54.765625 180.457031 C 56.628906 176.609375 58.558594 172.417969 62.652344 170.519531 C 69.320312 166.808594 78.058594 167.878906 83.753906 172.96875 C 85.175781 174.265625 86.359375 175.785156 87.800781 177.050781 C 91.953125 180.910156 96.054688 185.605469 101.828125 186.832031 C 107.9375 187.359375 111.117188 182.808594 117.667969 184.878906 C 124.003906 186.550781 126.152344 193.9375 125.871094 199.828125 C 125.402344 205.164062 123.265625 210.242188 120.40625 214.71875 C 111.128906 228.050781 98.542969 234.058594 82.410156 233.765625 Z M 82.410156 233.765625 " fill-opacity="1" fill-rule="nonzero"/><g fill="#000000" fill-opacity="1"><g transform="translate(12.154775, 300.915586)"><g><path d="M 6.5 0 C 5.519531 0 4.765625 -0.257812 4.234375 -0.78125 C 3.710938 -1.300781 3.453125 -2.054688 3.453125 -3.046875 L 3.453125 -28.578125 C 3.453125 -29.566406 3.710938 -30.320312 4.234375 -30.84375 C 4.765625 -31.363281 5.519531 -31.625 6.5 -31.625 L 15.203125 -31.625 C 20.492188 -31.625 24.582031 -30.265625 27.46875 -27.546875 C 30.363281 -24.828125 31.8125 -20.921875 31.8125 -15.828125 C 31.8125 -13.285156 31.441406 -11.035156 30.703125 -9.078125 C 29.972656 -7.117188 28.894531 -5.46875 27.46875 -4.125 C 26.050781 -2.78125 24.316406 -1.753906 22.265625 -1.046875 C 20.222656 -0.347656 17.867188 0 15.203125 0 Z M 9.203125 -4.75 L 14.84375 -4.75 C 16.695312 -4.75 18.304688 -4.976562 19.671875 -5.4375 C 21.035156 -5.90625 22.171875 -6.59375 23.078125 -7.5 C 23.992188 -8.414062 24.675781 -9.566406 25.125 -10.953125 C 25.570312 -12.347656 25.796875 -13.972656 25.796875 -15.828125 C 25.796875 -19.535156 24.882812 -22.300781 23.0625 -24.125 C 21.238281 -25.957031 18.5 -26.875 14.84375 -26.875 L 9.203125 -26.875 Z M 9.203125 -4.75 "/></g></g></g><g fill="#000000" fill-opacity="1"><g transform="translate(269.534461, 306.725889)"><g><path d="M 11.71875 0.296875 C 9.59375 0.296875 7.773438 -0.128906 6.265625 -0.984375 C 4.753906 -1.847656 3.59375 -3.066406 2.78125 -4.640625 C 1.96875 -6.210938 1.5625 -8.070312 1.5625 -10.21875 C 1.5625 -11.8125 1.789062 -13.25 2.25 -14.53125 C 2.71875 -15.820312 3.382812 -16.925781 4.25 -17.84375 C 5.125 -18.757812 6.191406 -19.460938 7.453125 -19.953125 C 8.710938 -20.441406 10.132812 -20.6875 11.71875 -20.6875 C 12.78125 -20.6875 13.820312 -20.550781 14.84375 -20.28125 C 15.863281 -20.007812 16.757812 -19.625 17.53125 -19.125 C 17.9375 -18.875 18.207031 -18.570312 18.34375 -18.21875 C 18.476562 -17.863281 18.503906 -17.515625 18.421875 -17.171875 C 18.347656 -16.835938 18.191406 -16.550781 17.953125 -16.3125 C 17.710938 -16.082031 17.410156 -15.953125 17.046875 -15.921875 C 16.691406 -15.898438 16.304688 -16.023438 15.890625 -16.296875 C 15.285156 -16.679688 14.632812 -16.957031 13.9375 -17.125 C 13.25 -17.300781 12.546875 -17.390625 11.828125 -17.390625 C 10.460938 -17.390625 9.304688 -17.109375 8.359375 -16.546875 C 7.410156 -15.992188 6.695312 -15.1875 6.21875 -14.125 C 5.738281 -13.0625 5.5 -11.757812 5.5 -10.21875 C 5.5 -8.6875 5.738281 -7.378906 6.21875 -6.296875 C 6.695312 -5.222656 7.410156 -4.40625 8.359375 -3.84375 C 9.304688 -3.289062 10.460938 -3.015625 11.828125 -3.015625 C 12.566406 -3.015625 13.289062 -3.101562 14 -3.28125 C 14.71875 -3.46875 15.394531 -3.753906 16.03125 -4.140625 C 16.457031 -4.390625 16.835938 -4.5 17.171875 -4.46875 C 17.515625 -4.4375 17.800781 -4.316406 18.03125 -4.109375 C 18.257812 -3.898438 18.410156 -3.632812 18.484375 -3.3125 C 18.566406 -2.988281 18.550781 -2.660156 18.4375 -2.328125 C 18.320312 -1.992188 18.085938 -1.703125 17.734375 -1.453125 C 16.960938 -0.890625 16.039062 -0.457031 14.96875 -0.15625 C 13.90625 0.144531 12.820312 0.296875 11.71875 0.296875 Z M 11.71875 0.296875 "/></g></g></g><g fill="#000000" fill-opacity="1"><g transform="translate(288.198901, 306.725889)"><g><path d="M 8.859375 0.296875 C 7.253906 0.296875 5.875 0 4.71875 -0.59375 C 3.5625 -1.195312 2.664062 -2.046875 2.03125 -3.140625 C 1.40625 -4.242188 1.09375 -5.550781 1.09375 -7.0625 C 1.09375 -8.53125 1.394531 -9.8125 2 -10.90625 C 2.613281 -12.007812 3.457031 -12.875 4.53125 -13.5 C 5.601562 -14.125 6.820312 -14.4375 8.1875 -14.4375 C 9.1875 -14.4375 10.085938 -14.269531 10.890625 -13.9375 C 11.691406 -13.613281 12.375 -13.144531 12.9375 -12.53125 C 13.507812 -11.914062 13.945312 -11.164062 14.25 -10.28125 C 14.550781 -9.40625 14.703125 -8.421875 14.703125 -7.328125 C 14.703125 -6.972656 14.582031 -6.703125 14.34375 -6.515625 C 14.101562 -6.335938 13.757812 -6.25 13.3125 -6.25 L 4.015625 -6.25 L 4.015625 -8.328125 L 12.15625 -8.328125 L 11.6875 -7.90625 C 11.6875 -8.789062 11.554688 -9.53125 11.296875 -10.125 C 11.035156 -10.726562 10.660156 -11.1875 10.171875 -11.5 C 9.679688 -11.820312 9.066406 -11.984375 8.328125 -11.984375 C 7.523438 -11.984375 6.835938 -11.796875 6.265625 -11.421875 C 5.691406 -11.046875 5.253906 -10.515625 4.953125 -9.828125 C 4.660156 -9.140625 4.515625 -8.320312 4.515625 -7.375 L 4.515625 -7.171875 C 4.515625 -5.585938 4.882812 -4.40625 5.625 -3.625 C 6.375 -2.84375 7.46875 -2.453125 8.90625 -2.453125 C 9.414062 -2.453125 9.984375 -2.515625 10.609375 -2.640625 C 11.234375 -2.765625 11.828125 -2.984375 12.390625 -3.296875 C 12.796875 -3.523438 13.148438 -3.625 13.453125 -3.59375 C 13.765625 -3.570312 14.007812 -3.460938 14.1875 -3.265625 C 14.375 -3.078125 14.484375 -2.84375 14.515625 -2.5625 C 14.554688 -2.28125 14.503906 -1.992188 14.359375 -1.703125 C 14.222656 -1.410156 13.976562 -1.160156 13.625 -0.953125 C 12.945312 -0.523438 12.171875 -0.207031 11.296875 0 C 10.421875 0.195312 9.609375 0.296875 8.859375 0.296875 Z M 8.859375 0.296875 "/></g></g></g><g fill="#000000" fill-opacity="1"><g transform="translate(303.882999, 306.725889)"><g><path d="M 3.734375 0.234375 C 3.128906 0.234375 2.664062 0.078125 2.34375 -0.234375 C 2.03125 -0.554688 1.875 -1.019531 1.875 -1.625 L 1.875 -12.5625 C 1.875 -13.15625 2.03125 -13.601562 2.34375 -13.90625 C 2.65625 -14.21875 3.085938 -14.375 3.640625 -14.375 C 4.203125 -14.375 4.632812 -14.21875 4.9375 -13.90625 C 5.25 -13.601562 5.40625 -13.15625 5.40625 -12.5625 L 5.40625 -10.734375 L 5.125 -10.734375 C 5.394531 -11.890625 5.925781 -12.765625 6.71875 -13.359375 C 7.507812 -13.960938 8.5625 -14.320312 9.875 -14.4375 C 10.269531 -14.476562 10.585938 -14.378906 10.828125 -14.140625 C 11.078125 -13.898438 11.21875 -13.523438 11.25 -13.015625 C 11.289062 -12.535156 11.179688 -12.144531 10.921875 -11.84375 C 10.660156 -11.550781 10.269531 -11.375 9.75 -11.3125 L 9.109375 -11.25 C 7.929688 -11.132812 7.046875 -10.773438 6.453125 -10.171875 C 5.859375 -9.566406 5.5625 -8.710938 5.5625 -7.609375 L 5.5625 -1.625 C 5.5625 -1.019531 5.40625 -0.554688 5.09375 -0.234375 C 4.78125 0.078125 4.328125 0.234375 3.734375 0.234375 Z M 3.734375 0.234375 "/></g></g></g><g fill="#000000" fill-opacity="1"><g transform="translate(315.226478, 306.725889)"><g><path d="M 3.734375 0.234375 C 3.148438 0.234375 2.703125 0.078125 2.390625 -0.234375 C 2.085938 -0.554688 1.9375 -1.019531 1.9375 -1.625 L 1.9375 -12.5625 C 1.9375 -13.15625 2.085938 -13.601562 2.390625 -13.90625 C 2.703125 -14.21875 3.140625 -14.375 3.703125 -14.375 C 4.265625 -14.375 4.695312 -14.21875 5 -13.90625 C 5.3125 -13.601562 5.46875 -13.15625 5.46875 -12.5625 L 5.46875 -10.453125 L 5.15625 -11.3125 C 5.539062 -12.28125 6.132812 -13.039062 6.9375 -13.59375 C 7.75 -14.15625 8.71875 -14.4375 9.84375 -14.4375 C 10.976562 -14.4375 11.910156 -14.164062 12.640625 -13.625 C 13.378906 -13.082031 13.890625 -12.253906 14.171875 -11.140625 L 13.78125 -11.140625 C 14.164062 -12.160156 14.800781 -12.960938 15.6875 -13.546875 C 16.570312 -14.140625 17.59375 -14.4375 18.75 -14.4375 C 19.832031 -14.4375 20.722656 -14.222656 21.421875 -13.796875 C 22.128906 -13.378906 22.65625 -12.738281 23 -11.875 C 23.351562 -11.019531 23.53125 -9.9375 23.53125 -8.625 L 23.53125 -1.625 C 23.53125 -1.019531 23.367188 -0.554688 23.046875 -0.234375 C 22.734375 0.078125 22.285156 0.234375 21.703125 0.234375 C 21.117188 0.234375 20.671875 0.078125 20.359375 -0.234375 C 20.054688 -0.554688 19.90625 -1.019531 19.90625 -1.625 L 19.90625 -8.484375 C 19.90625 -9.554688 19.726562 -10.34375 19.375 -10.84375 C 19.019531 -11.351562 18.414062 -11.609375 17.5625 -11.609375 C 16.613281 -11.609375 15.867188 -11.273438 15.328125 -10.609375 C 14.796875 -9.941406 14.53125 -9.019531 14.53125 -7.84375 L 14.53125 -1.625 C 14.53125 -1.019531 14.375 -0.554688 14.0625 -0.234375 C 13.75 0.078125 13.304688 0.234375 12.734375 0.234375 C 12.148438 0.234375 11.695312 0.078125 11.375 -0.234375 C 11.0625 -0.554688 10.90625 -1.019531 10.90625 -1.625 L 10.90625 -8.484375 C 10.90625 -9.554688 10.726562 -10.34375 10.375 -10.84375 C 10.019531 -11.351562 9.425781 -11.609375 8.59375 -11.609375 C 7.644531 -11.609375 6.898438 -11.273438 6.359375 -10.609375 C 5.828125 -9.941406 5.5625 -9.019531 5.5625 -7.84375 L 5.5625 -1.625 C 5.5625 -0.382812 4.953125 0.234375 3.734375 0.234375 Z M 3.734375 0.234375 "/></g></g></g><g fill="#000000" fill-opacity="1"><g transform="translate(340.604622, 306.725889)"><g><path d="M 3.671875 0.203125 C 3.097656 0.203125 2.65625 0.03125 2.34375 -0.3125 C 2.03125 -0.664062 1.875 -1.148438 1.875 -1.765625 L 1.875 -12.390625 C 1.875 -13.023438 2.03125 -13.507812 2.34375 -13.84375 C 2.65625 -14.1875 3.097656 -14.359375 3.671875 -14.359375 C 4.253906 -14.359375 4.703125 -14.1875 5.015625 -13.84375 C 5.335938 -13.507812 5.5 -13.023438 5.5 -12.390625 L 5.5 -1.765625 C 5.5 -1.148438 5.34375 -0.664062 5.03125 -0.3125 C 4.726562 0.03125 4.273438 0.203125 3.671875 0.203125 Z M 3.671875 -17.046875 C 2.992188 -17.046875 2.46875 -17.210938 2.09375 -17.546875 C 1.71875 -17.890625 1.53125 -18.359375 1.53125 -18.953125 C 1.53125 -19.566406 1.71875 -20.035156 2.09375 -20.359375 C 2.46875 -20.691406 2.992188 -20.859375 3.671875 -20.859375 C 4.367188 -20.859375 4.898438 -20.691406 5.265625 -20.359375 C 5.628906 -20.035156 5.8125 -19.566406 5.8125 -18.953125 C 5.8125 -18.359375 5.628906 -17.890625 5.265625 -17.546875 C 4.898438 -17.210938 4.367188 -17.046875 3.671875 -17.046875 Z M 3.671875 -17.046875 "/></g></g></g><g fill="#000000" fill-opacity="1"><g transform="translate(347.983678, 306.725889)"><g><path d="M 3.671875 0.234375 C 3.097656 0.234375 2.65625 0.078125 2.34375 -0.234375 C 2.03125 -0.554688 1.875 -1.019531 1.875 -1.625 L 1.875 -12.5625 C 1.875 -13.15625 2.03125 -13.601562 2.34375 -13.90625 C 2.65625 -14.21875 3.085938 -14.375 3.640625 -14.375 C 4.203125 -14.375 4.632812 -14.21875 4.9375 -13.90625 C 5.25 -13.601562 5.40625 -13.15625 5.40625 -12.5625 L 5.40625 -10.59375 L 5.09375 -11.3125 C 5.519531 -12.332031 6.179688 -13.109375 7.078125 -13.640625 C 7.972656 -14.171875 8.988281 -14.4375 10.125 -14.4375 C 11.257812 -14.4375 12.191406 -14.222656 12.921875 -13.796875 C 13.660156 -13.378906 14.210938 -12.738281 14.578125 -11.875 C 14.953125 -11.019531 15.140625 -9.9375 15.140625 -8.625 L 15.140625 -1.625 C 15.140625 -1.019531 14.984375 -0.554688 14.671875 -0.234375 C 14.359375 0.078125 13.914062 0.234375 13.34375 0.234375 C 12.757812 0.234375 12.304688 0.078125 11.984375 -0.234375 C 11.671875 -0.554688 11.515625 -1.019531 11.515625 -1.625 L 11.515625 -8.453125 C 11.515625 -9.546875 11.304688 -10.34375 10.890625 -10.84375 C 10.472656 -11.351562 9.832031 -11.609375 8.96875 -11.609375 C 7.90625 -11.609375 7.0625 -11.273438 6.4375 -10.609375 C 5.8125 -9.941406 5.5 -9.054688 5.5 -7.953125 L 5.5 -1.625 C 5.5 -0.382812 4.890625 0.234375 3.671875 0.234375 Z M 3.671875 0.234375 "/></g></g></g></svg>