<svg xmlns="http://www.w3.org/2000/svg" xmlns:xlink="http://www.w3.org/1999/xlink" width="225" zoomAndPan="magnify" viewBox="0 0 168.75 167.999997" height="224" preserveAspectRatio="xMidYMid meet" version="1.0"><defs><g/><clipPath id="061d5c60a0"><path d="M 11.566406 11.394531 L 156.097656 11.394531 L 156.097656 155.929688 L 11.566406 155.929688 Z M 11.566406 11.394531 " clip-rule="nonzero"/></clipPath></defs><g clip-path="url(#061d5c60a0)"><path stroke-linecap="butt" transform="matrix(0.748891, 0, 0, 0.748891, 11.565331, 11.394488)" fill="none" stroke-linejoin="miter" d="M 0.00143551 0.0000581935 L 193.2039 0.0000581935 L 193.2039 193.155579 L 0.00143551 193.155579 Z M 0.00143551 0.0000581935 " stroke="#000000" stroke-width="12" stroke-opacity="1" stroke-miterlimit="4"/></g><g fill="#000000" fill-opacity="1"><g transform="translate(25.197732, 115.178899)"><g><path d="M 27.984375 0.984375 C 24.460938 0.984375 20.804688 0.523438 17.015625 -0.390625 C 13.234375 -1.304688 9.941406 -2.675781 7.140625 -4.5 C 5.835938 -5.34375 4.957031 -6.316406 4.5 -7.421875 C 4.039062 -8.535156 3.925781 -9.597656 4.15625 -10.609375 C 4.382812 -11.617188 4.875 -12.484375 5.625 -13.203125 C 6.375 -13.921875 7.316406 -14.34375 8.453125 -14.46875 C 9.597656 -14.601562 10.859375 -14.3125 12.234375 -13.59375 C 14.898438 -12.164062 17.472656 -11.140625 19.953125 -10.515625 C 22.429688 -9.898438 24.976562 -9.59375 27.59375 -9.59375 C 30.457031 -9.59375 32.867188 -9.984375 34.828125 -10.765625 C 36.785156 -11.546875 38.269531 -12.71875 39.28125 -14.28125 C 40.289062 -15.851562 40.796875 -17.742188 40.796875 -19.953125 C 40.796875 -23.222656 39.703125 -25.65625 37.515625 -27.25 C 35.335938 -28.84375 32.160156 -29.640625 27.984375 -29.640625 L 21.71875 -29.640625 C 19.894531 -29.640625 18.507812 -30.097656 17.5625 -31.015625 C 16.613281 -31.929688 16.140625 -33.203125 16.140625 -34.828125 C 16.140625 -36.460938 16.613281 -37.734375 17.5625 -38.640625 C 18.507812 -39.554688 19.894531 -40.015625 21.71875 -40.015625 L 26.8125 -40.015625 C 29.289062 -40.015625 31.410156 -40.421875 33.171875 -41.234375 C 34.929688 -42.054688 36.300781 -43.21875 37.28125 -44.71875 C 38.257812 -46.21875 38.75 -48.039062 38.75 -50.1875 C 38.75 -53.1875 37.753906 -55.46875 35.765625 -57.03125 C 33.773438 -58.601562 30.890625 -59.390625 27.109375 -59.390625 C 24.691406 -59.390625 22.421875 -59.113281 20.296875 -58.5625 C 18.179688 -58.007812 15.851562 -56.984375 13.3125 -55.484375 C 12.132812 -54.765625 11.003906 -54.46875 9.921875 -54.59375 C 8.847656 -54.726562 7.953125 -55.148438 7.234375 -55.859375 C 6.523438 -56.578125 6.035156 -57.441406 5.765625 -58.453125 C 5.503906 -59.472656 5.570312 -60.519531 5.96875 -61.59375 C 6.363281 -62.664062 7.179688 -63.59375 8.421875 -64.375 C 11.222656 -66.207031 14.316406 -67.59375 17.703125 -68.53125 C 21.097656 -69.476562 24.585938 -69.953125 28.171875 -69.953125 C 32.941406 -69.953125 37.019531 -69.21875 40.40625 -67.75 C 43.800781 -66.289062 46.394531 -64.207031 48.1875 -61.5 C 49.976562 -58.789062 50.875 -55.507812 50.875 -51.65625 C 50.875 -48.914062 50.351562 -46.421875 49.3125 -44.171875 C 48.269531 -41.921875 46.800781 -40.015625 44.90625 -38.453125 C 43.019531 -36.890625 40.738281 -35.78125 38.0625 -35.125 L 38.0625 -36.296875 C 42.757812 -35.515625 46.410156 -33.570312 49.015625 -30.46875 C 51.628906 -27.375 52.9375 -23.515625 52.9375 -18.890625 C 52.9375 -14.835938 51.921875 -11.3125 49.890625 -8.3125 C 47.867188 -5.3125 45 -3.007812 41.28125 -1.40625 C 37.570312 0.1875 33.140625 0.984375 27.984375 0.984375 Z M 27.984375 0.984375 "/></g></g></g><g fill="#000000" fill-opacity="1"><g transform="translate(83.906069, 115.178899)"><g><path d="M 29.9375 0.984375 C 26.476562 0.984375 22.953125 0.523438 19.359375 -0.390625 C 15.773438 -1.304688 12.484375 -2.707031 9.484375 -4.59375 C 8.242188 -5.375 7.410156 -6.300781 6.984375 -7.375 C 6.566406 -8.457031 6.472656 -9.535156 6.703125 -10.609375 C 6.929688 -11.691406 7.421875 -12.609375 8.171875 -13.359375 C 8.921875 -14.109375 9.832031 -14.546875 10.90625 -14.671875 C 11.988281 -14.804688 13.179688 -14.515625 14.484375 -13.796875 C 16.890625 -12.421875 19.332031 -11.375 21.8125 -10.65625 C 24.289062 -9.945312 26.9375 -9.59375 29.75 -9.59375 C 32.488281 -9.59375 34.832031 -10.082031 36.78125 -11.0625 C 38.738281 -12.039062 40.238281 -13.410156 41.28125 -15.171875 C 42.332031 -16.929688 42.859375 -18.984375 42.859375 -21.328125 C 42.859375 -24.984375 41.75 -27.9375 39.53125 -30.1875 C 37.3125 -32.4375 34.273438 -33.5625 30.421875 -33.5625 C 28.335938 -33.5625 26.316406 -33.21875 24.359375 -32.53125 C 22.398438 -31.84375 20.476562 -30.65625 18.59375 -28.96875 C 18 -28.4375 17.242188 -27.925781 16.328125 -27.4375 C 15.421875 -26.957031 14.445312 -26.71875 13.40625 -26.71875 C 11.769531 -26.71875 10.53125 -27.140625 9.6875 -27.984375 C 8.84375 -28.828125 8.421875 -30 8.421875 -31.5 L 8.421875 -63.5 C 8.421875 -65.257812 8.890625 -66.613281 9.828125 -67.5625 C 10.773438 -68.507812 12.128906 -68.984375 13.890625 -68.984375 L 46.078125 -68.984375 C 47.835938 -68.984375 49.191406 -68.539062 50.140625 -67.65625 C 51.085938 -66.78125 51.5625 -65.492188 51.5625 -63.796875 C 51.5625 -62.160156 51.085938 -60.882812 50.140625 -59.96875 C 49.191406 -59.0625 47.835938 -58.609375 46.078125 -58.609375 L 20.640625 -58.609375 L 20.640625 -36.6875 L 17.421875 -36.6875 C 19.109375 -38.96875 21.351562 -40.726562 24.15625 -41.96875 C 26.96875 -43.207031 30.035156 -43.828125 33.359375 -43.828125 C 37.734375 -43.828125 41.535156 -42.894531 44.765625 -41.03125 C 47.992188 -39.175781 50.503906 -36.601562 52.296875 -33.3125 C 54.085938 -30.019531 54.984375 -26.1875 54.984375 -21.8125 C 54.984375 -17.3125 53.972656 -13.347656 51.953125 -9.921875 C 49.929688 -6.503906 47.046875 -3.832031 43.296875 -1.90625 C 39.546875 0.0195312 35.09375 0.984375 29.9375 0.984375 Z M 29.9375 0.984375 "/></g></g></g></svg>