<svg width="546" height="47" viewBox="0 0 546 47" fill="none" xmlns="http://www.w3.org/2000/svg">
<path d="M37.6012 34.842C37.8172 35.31 37.9252 35.778 37.9252 36.246C37.9252 37.074 37.5832 37.776 36.8992 38.352C36.2512 38.928 35.4952 39.216 34.6312 39.216C34.0552 39.216 33.5152 39.072 33.0112 38.784C32.5072 38.46 32.1112 37.974 31.8232 37.326L28.5832 30.09H9.57521L6.33521 37.326C6.04721 37.974 5.65121 38.46 5.14721 38.784C4.64321 39.072 4.08521 39.216 3.47321 39.216C2.64521 39.216 1.88921 38.928 1.20521 38.352C0.521211 37.776 0.179211 37.074 0.179211 36.246C0.179211 35.778 0.287211 35.31 0.503211 34.842L15.4072 2.82C15.7312 2.1 16.2172 1.56 16.8652 1.2C17.5492 0.803998 18.2692 0.605999 19.0252 0.605999C19.7812 0.605999 20.4832 0.803998 21.1312 1.2C21.8152 1.56 22.3192 2.1 22.6432 2.82L37.6012 34.842ZM11.9512 24.69H26.2072L19.0792 8.652L11.9512 24.69ZM59.4535 20.532C58.7695 20.532 58.1935 20.316 57.7255 19.884C57.2935 19.416 57.0775 18.84 57.0775 18.156C57.0775 17.472 57.2935 16.914 57.7255 16.482C58.1935 16.014 58.7695 15.78 59.4535 15.78H81.0535C81.7375 15.78 82.2955 16.014 82.7275 16.482C83.1955 16.95 83.4295 17.526 83.4295 18.21C83.4295 18.858 83.1955 19.416 82.7275 19.884C82.2955 20.316 81.7375 20.532 81.0535 20.532H59.4535ZM59.4535 31.332C58.7695 31.332 58.1935 31.116 57.7255 30.684C57.2935 30.216 57.0775 29.64 57.0775 28.956C57.0775 28.272 57.2935 27.714 57.7255 27.282C58.1935 26.814 58.7695 26.58 59.4535 26.58H81.0535C81.7375 26.58 82.2955 26.814 82.7275 27.282C83.1955 27.75 83.4295 28.326 83.4295 29.01C83.4295 29.658 83.1955 30.216 82.7275 30.684C82.2955 31.116 81.7375 31.332 81.0535 31.332H59.4535ZM118.967 14.646C121.343 14.646 123.431 15.168 125.231 16.212C127.067 17.22 128.489 18.642 129.497 20.478C130.505 22.314 131.009 24.42 131.009 26.796C131.009 29.28 130.433 31.476 129.281 33.384C128.165 35.292 126.563 36.786 124.475 37.866C122.423 38.91 120.047 39.432 117.347 39.432C115.115 39.432 112.919 39.072 110.759 38.352C108.635 37.596 106.817 36.588 105.305 35.328C104.477 34.608 104.063 33.762 104.063 32.79C104.063 31.998 104.279 31.332 104.711 30.792C105.179 30.216 105.719 29.928 106.331 29.928C106.691 29.928 107.033 30 107.357 30.144C107.681 30.252 108.059 30.45 108.491 30.738C109.931 31.746 111.335 32.52 112.703 33.06C114.071 33.6 115.529 33.87 117.077 33.87C119.453 33.87 121.271 33.276 122.531 32.088C123.791 30.9 124.421 29.208 124.421 27.012C124.421 24.888 123.773 23.214 122.477 21.99C121.217 20.73 119.471 20.1 117.239 20.1C115.835 20.1 114.575 20.298 113.459 20.694C112.379 21.09 111.263 21.756 110.111 22.692C109.427 23.16 108.725 23.394 108.005 23.394C107.285 23.394 106.673 23.178 106.169 22.746C105.665 22.314 105.413 21.738 105.413 21.018V4.17C105.413 3.162 105.701 2.37 106.277 1.794C106.853 1.218 107.663 0.929998 108.707 0.929998H126.689C128.849 0.929998 129.929 1.83 129.929 3.63C129.929 5.43 128.849 6.33 126.689 6.33H112.217V16.59C114.053 15.294 116.303 14.646 118.967 14.646ZM139.735 31.224C140.959 31.224 141.949 31.674 142.705 32.574C143.461 33.474 143.839 34.788 143.839 36.516C143.839 39.936 142.651 42.888 140.275 45.372C139.807 45.84 139.303 46.074 138.763 46.074C138.223 46.074 137.755 45.894 137.359 45.534C136.963 45.174 136.765 44.742 136.765 44.238C136.765 43.806 136.945 43.392 137.305 42.996C138.385 41.844 139.087 40.548 139.411 39.108C138.367 39 137.503 38.604 136.819 37.92C136.171 37.2 135.847 36.318 135.847 35.274C135.847 34.122 136.207 33.168 136.927 32.412C137.683 31.62 138.619 31.224 139.735 31.224ZM188.742 19.344C190.938 19.956 192.63 21.072 193.818 22.692C195.042 24.312 195.654 26.292 195.654 28.632C195.654 31.872 194.484 34.41 192.144 36.246C189.84 38.082 186.654 39 182.586 39H168.654C167.61 39 166.782 38.712 166.17 38.136C165.594 37.56 165.306 36.75 165.306 35.706V4.224C165.306 3.18 165.594 2.37 166.17 1.794C166.782 1.218 167.61 0.929998 168.654 0.929998H182.046C186.006 0.929998 189.102 1.812 191.334 3.576C193.602 5.304 194.736 7.734 194.736 10.866C194.736 12.882 194.196 14.628 193.116 16.104C192.072 17.58 190.614 18.66 188.742 19.344ZM172.11 16.968H180.912C185.7 16.968 188.094 15.186 188.094 11.622C188.094 9.822 187.5 8.49 186.312 7.626C185.124 6.762 183.324 6.33 180.912 6.33H172.11V16.968ZM181.83 33.6C184.35 33.6 186.186 33.15 187.338 32.25C188.49 31.35 189.066 29.946 189.066 28.038C189.066 26.13 188.472 24.708 187.284 23.772C186.132 22.836 184.314 22.368 181.83 22.368H172.11V33.6H181.83ZM218.448 20.532C217.764 20.532 217.188 20.316 216.72 19.884C216.288 19.416 216.072 18.84 216.072 18.156C216.072 17.472 216.288 16.914 216.72 16.482C217.188 16.014 217.764 15.78 218.448 15.78H240.048C240.732 15.78 241.29 16.014 241.722 16.482C242.19 16.95 242.424 17.526 242.424 18.21C242.424 18.858 242.19 19.416 241.722 19.884C241.29 20.316 240.732 20.532 240.048 20.532H218.448ZM218.448 31.332C217.764 31.332 217.188 31.116 216.72 30.684C216.288 30.216 216.072 29.64 216.072 28.956C216.072 28.272 216.288 27.714 216.72 27.282C217.188 26.814 217.764 26.58 218.448 26.58H240.048C240.732 26.58 241.29 26.814 241.722 27.282C242.19 27.75 242.424 28.326 242.424 29.01C242.424 29.658 242.19 30.216 241.722 30.684C241.29 31.116 240.732 31.332 240.048 31.332H218.448ZM277.961 14.646C280.337 14.646 282.425 15.168 284.225 16.212C286.061 17.22 287.483 18.642 288.491 20.478C289.499 22.314 290.003 24.42 290.003 26.796C290.003 29.28 289.427 31.476 288.275 33.384C287.159 35.292 285.557 36.786 283.469 37.866C281.417 38.91 279.041 39.432 276.341 39.432C274.109 39.432 271.913 39.072 269.753 38.352C267.629 37.596 265.811 36.588 264.299 35.328C263.471 34.608 263.057 33.762 263.057 32.79C263.057 31.998 263.273 31.332 263.705 30.792C264.173 30.216 264.713 29.928 265.325 29.928C265.685 29.928 266.027 30 266.351 30.144C266.675 30.252 267.053 30.45 267.485 30.738C268.925 31.746 270.329 32.52 271.697 33.06C273.065 33.6 274.523 33.87 276.071 33.87C278.447 33.87 280.265 33.276 281.525 32.088C282.785 30.9 283.415 29.208 283.415 27.012C283.415 24.888 282.767 23.214 281.471 21.99C280.211 20.73 278.465 20.1 276.233 20.1C274.829 20.1 273.569 20.298 272.453 20.694C271.373 21.09 270.257 21.756 269.105 22.692C268.421 23.16 267.719 23.394 266.999 23.394C266.279 23.394 265.667 23.178 265.163 22.746C264.659 22.314 264.407 21.738 264.407 21.018V4.17C264.407 3.162 264.695 2.37 265.271 1.794C265.847 1.218 266.657 0.929998 267.701 0.929998H285.683C287.843 0.929998 288.923 1.83 288.923 3.63C288.923 5.43 287.843 6.33 285.683 6.33H271.211V16.59C273.047 15.294 275.297 14.646 277.961 14.646ZM308.342 39.486C303.842 39.486 300.404 37.83 298.028 34.518C295.652 31.17 294.464 26.31 294.464 19.938C294.464 13.602 295.652 8.778 298.028 5.466C300.404 2.118 303.842 0.443998 308.342 0.443998C312.842 0.443998 316.28 2.118 318.656 5.466C321.032 8.778 322.22 13.602 322.22 19.938C322.22 26.274 321.032 31.116 318.656 34.464C316.28 37.812 312.842 39.486 308.342 39.486ZM308.342 34.032C310.79 34.032 312.572 32.916 313.688 30.684C314.804 28.416 315.362 24.834 315.362 19.938C315.362 15.006 314.804 11.442 313.688 9.246C312.572 7.014 310.79 5.898 308.342 5.898C305.894 5.898 304.112 7.014 302.996 9.246C301.88 11.478 301.322 15.042 301.322 19.938C301.322 24.834 301.88 28.416 302.996 30.684C304.112 32.916 305.894 34.032 308.342 34.032ZM331.109 31.224C332.333 31.224 333.323 31.674 334.079 32.574C334.835 33.474 335.213 34.788 335.213 36.516C335.213 39.936 334.025 42.888 331.649 45.372C331.181 45.84 330.677 46.074 330.137 46.074C329.597 46.074 329.129 45.894 328.733 45.534C328.337 45.174 328.139 44.742 328.139 44.238C328.139 43.806 328.319 43.392 328.679 42.996C329.759 41.844 330.461 40.548 330.785 39.108C329.741 39 328.877 38.604 328.193 37.92C327.545 37.2 327.221 36.318 327.221 35.274C327.221 34.122 327.581 33.168 328.301 32.412C329.057 31.62 329.993 31.224 331.109 31.224ZM373.689 39.486C370.017 39.486 366.795 38.694 364.023 37.11C361.287 35.526 359.181 33.258 357.705 30.306C356.229 27.354 355.491 23.898 355.491 19.938C355.491 15.978 356.229 12.54 357.705 9.624C359.181 6.672 361.287 4.404 364.023 2.82C366.795 1.236 370.017 0.443998 373.689 0.443998C376.065 0.443998 378.297 0.803998 380.385 1.524C382.473 2.208 384.327 3.216 385.947 4.548C386.415 4.908 386.739 5.286 386.919 5.682C387.099 6.078 387.189 6.564 387.189 7.14C387.189 7.932 386.973 8.598 386.541 9.138C386.109 9.678 385.587 9.948 384.975 9.948C384.255 9.948 383.517 9.696 382.761 9.192C381.213 8.04 379.773 7.248 378.441 6.816C377.109 6.348 375.633 6.114 374.013 6.114C370.269 6.114 367.425 7.284 365.481 9.624C363.573 11.964 362.619 15.402 362.619 19.938C362.619 24.51 363.573 27.966 365.481 30.306C367.425 32.646 370.269 33.816 374.013 33.816C375.561 33.816 376.983 33.582 378.279 33.114C379.611 32.646 381.105 31.854 382.761 30.738C383.121 30.522 383.481 30.342 383.841 30.198C384.201 30.054 384.579 29.982 384.975 29.982C385.587 29.982 386.109 30.252 386.541 30.792C386.973 31.332 387.189 31.998 387.189 32.79C387.189 33.33 387.099 33.816 386.919 34.248C386.739 34.644 386.415 35.022 385.947 35.382C384.327 36.714 382.473 37.74 380.385 38.46C378.297 39.144 376.065 39.486 373.689 39.486ZM409.557 20.532C408.873 20.532 408.297 20.316 407.829 19.884C407.397 19.416 407.181 18.84 407.181 18.156C407.181 17.472 407.397 16.914 407.829 16.482C408.297 16.014 408.873 15.78 409.557 15.78H431.157C431.841 15.78 432.399 16.014 432.831 16.482C433.299 16.95 433.533 17.526 433.533 18.21C433.533 18.858 433.299 19.416 432.831 19.884C432.399 20.316 431.841 20.532 431.157 20.532H409.557ZM409.557 31.332C408.873 31.332 408.297 31.116 407.829 30.684C407.397 30.216 407.181 29.64 407.181 28.956C407.181 28.272 407.397 27.714 407.829 27.282C408.297 26.814 408.873 26.58 409.557 26.58H431.157C431.841 26.58 432.399 26.814 432.831 27.282C433.299 27.75 433.533 28.326 433.533 29.01C433.533 29.658 433.299 30.216 432.831 30.684C432.399 31.116 431.841 31.332 431.157 31.332H409.557ZM469.07 14.646C471.446 14.646 473.534 15.168 475.334 16.212C477.17 17.22 478.592 18.642 479.6 20.478C480.608 22.314 481.112 24.42 481.112 26.796C481.112 29.28 480.536 31.476 479.384 33.384C478.268 35.292 476.666 36.786 474.578 37.866C472.526 38.91 470.15 39.432 467.45 39.432C465.218 39.432 463.022 39.072 460.862 38.352C458.738 37.596 456.92 36.588 455.408 35.328C454.58 34.608 454.166 33.762 454.166 32.79C454.166 31.998 454.382 31.332 454.814 30.792C455.282 30.216 455.822 29.928 456.434 29.928C456.794 29.928 457.136 30 457.46 30.144C457.784 30.252 458.162 30.45 458.594 30.738C460.034 31.746 461.438 32.52 462.806 33.06C464.174 33.6 465.632 33.87 467.18 33.87C469.556 33.87 471.374 33.276 472.634 32.088C473.894 30.9 474.524 29.208 474.524 27.012C474.524 24.888 473.876 23.214 472.58 21.99C471.32 20.73 469.574 20.1 467.342 20.1C465.938 20.1 464.678 20.298 463.562 20.694C462.482 21.09 461.366 21.756 460.214 22.692C459.53 23.16 458.828 23.394 458.108 23.394C457.388 23.394 456.776 23.178 456.272 22.746C455.768 22.314 455.516 21.738 455.516 21.018V4.17C455.516 3.162 455.804 2.37 456.38 1.794C456.956 1.218 457.766 0.929998 458.81 0.929998H476.792C478.952 0.929998 480.032 1.83 480.032 3.63C480.032 5.43 478.952 6.33 476.792 6.33H462.32V16.59C464.156 15.294 466.406 14.646 469.07 14.646ZM499.451 39.486C494.951 39.486 491.513 37.83 489.137 34.518C486.761 31.17 485.573 26.31 485.573 19.938C485.573 13.602 486.761 8.778 489.137 5.466C491.513 2.118 494.951 0.443998 499.451 0.443998C503.951 0.443998 507.389 2.118 509.765 5.466C512.141 8.778 513.329 13.602 513.329 19.938C513.329 26.274 512.141 31.116 509.765 34.464C507.389 37.812 503.951 39.486 499.451 39.486ZM499.451 34.032C501.899 34.032 503.681 32.916 504.797 30.684C505.913 28.416 506.471 24.834 506.471 19.938C506.471 15.006 505.913 11.442 504.797 9.246C503.681 7.014 501.899 5.898 499.451 5.898C497.003 5.898 495.221 7.014 494.105 9.246C492.989 11.478 492.431 15.042 492.431 19.938C492.431 24.834 492.989 28.416 494.105 30.684C495.221 32.916 497.003 34.032 499.451 34.032ZM531.83 39.486C527.33 39.486 523.892 37.83 521.516 34.518C519.14 31.17 517.952 26.31 517.952 19.938C517.952 13.602 519.14 8.778 521.516 5.466C523.892 2.118 527.33 0.443998 531.83 0.443998C536.33 0.443998 539.768 2.118 542.144 5.466C544.52 8.778 545.708 13.602 545.708 19.938C545.708 26.274 544.52 31.116 542.144 34.464C539.768 37.812 536.33 39.486 531.83 39.486ZM531.83 34.032C534.278 34.032 536.06 32.916 537.176 30.684C538.292 28.416 538.85 24.834 538.85 19.938C538.85 15.006 538.292 11.442 537.176 9.246C536.06 7.014 534.278 5.898 531.83 5.898C529.382 5.898 527.6 7.014 526.484 9.246C525.368 11.478 524.81 15.042 524.81 19.938C524.81 24.834 525.368 28.416 526.484 30.684C527.6 32.916 529.382 34.032 531.83 34.032Z" fill="black"/>
</svg>
