<svg xmlns="http://www.w3.org/2000/svg" xmlns:xlink="http://www.w3.org/1999/xlink" width="1879" zoomAndPan="magnify" viewBox="0 0 1409.25 456.749983" height="609" preserveAspectRatio="xMidYMid meet" version="1.0"><defs><g/><clipPath id="85aa199c34"><path d="M 0.0117188 0 L 455.761719 0 L 455.761719 455.75 L 0.0117188 455.75 Z M 0.0117188 0 " clip-rule="nonzero"/></clipPath><clipPath id="d16ee16305"><rect x="0" width="241" y="0" height="286"/></clipPath><clipPath id="e948889e8e"><path d="M 475.902344 0 L 931.652344 0 L 931.652344 455.75 L 475.902344 455.75 Z M 475.902344 0 " clip-rule="nonzero"/></clipPath><clipPath id="f872665eeb"><rect x="0" width="208" y="0" height="286"/></clipPath><clipPath id="7f1fd69d65"><path d="M 951.792969 0 L 1407.542969 0 L 1407.542969 455.75 L 951.792969 455.75 Z M 951.792969 0 " clip-rule="nonzero"/></clipPath><clipPath id="bcf7e953d0"><rect x="0" width="209" y="0" height="286"/></clipPath></defs><g clip-path="url(#85aa199c34)"><path stroke-linecap="butt" transform="matrix(0.74959, 0, 0, 0.74959, 0.0106932, 0.000000000000042609)" fill="none" stroke-linejoin="miter" d="M 0.0013682 -0.000000000000056843 L 608.438425 -0.000000000000056843 L 608.438425 608.437057 L 0.0013682 608.437057 Z M 0.0013682 -0.000000000000056843 " stroke="#000000" stroke-width="12" stroke-opacity="1" stroke-miterlimit="4"/></g><g transform="matrix(1, 0, 0, 1, 108, 85)"><g clip-path="url(#d16ee16305)"><g fill="#000000" fill-opacity="1"><g transform="translate(0.88365, 86.733344)"><g><path d="M 43.609375 -13.75 L 19.515625 -13.75 L 14.9375 0 L 0.328125 0 L 25.15625 -66.703125 L 37.890625 -66.703125 L 62.859375 0 L 48.25 0 Z M 23.234375 -24.875 L 39.90625 -24.875 L 31.515625 -49.84375 Z M 23.234375 -24.875 "/></g></g></g><g fill="#000000" fill-opacity="1"><g transform="translate(64.016433, 86.733344)"><g/></g></g><g fill="#000000" fill-opacity="1"><g transform="translate(87.381977, 86.733344)"><g><path d="M 31.796875 -37.34375 L 48.328125 -37.34375 L 48.328125 -25.375 L 31.796875 -25.375 L 31.796875 -6.6875 L 19.203125 -6.6875 L 19.203125 -25.375 L 2.609375 -25.375 L 2.609375 -37.34375 L 19.203125 -37.34375 L 19.203125 -55.25 L 31.796875 -55.25 Z M 31.796875 -37.34375 "/></g></g></g><g fill="#000000" fill-opacity="1"><g transform="translate(138.602916, 86.733344)"><g/></g></g><g fill="#000000" fill-opacity="1"><g transform="translate(161.96846, 86.733344)"><g><path d="M 43.703125 -25.109375 L 51.265625 -25.109375 L 51.265625 -14.4375 L 43.703125 -14.4375 L 43.703125 0 L 30.46875 0 L 30.46875 -14.4375 L 3.109375 -14.4375 L 2.515625 -22.765625 L 30.328125 -66.703125 L 43.703125 -66.703125 Z M 15.71875 -25.109375 L 30.46875 -25.109375 L 30.46875 -48.65625 L 29.59375 -47.140625 Z M 15.71875 -25.109375 "/></g></g></g><g fill="#000000" fill-opacity="1"><g transform="translate(215.814264, 86.733344)"><g/></g></g><g fill="#000000" fill-opacity="1"><g transform="translate(81.493627, 174.007667)"><g><path d="M 47.1875 -34.171875 L 6.234375 -34.171875 L 6.234375 -44.984375 L 47.1875 -44.984375 Z M 47.1875 -14.34375 L 6.234375 -14.34375 L 6.234375 -25.15625 L 47.1875 -25.15625 Z M 47.1875 -14.34375 "/></g></g></g><g fill="#000000" fill-opacity="1"><g transform="translate(135.204287, 174.007667)"><g/></g></g><g fill="#000000" fill-opacity="1"><g transform="translate(66.207424, 261.281989)"><g><path d="M 36.703125 0 L 23.453125 0 L 23.453125 -51.03125 L 7.65625 -46.140625 L 7.65625 -56.90625 L 35.28125 -66.796875 L 36.703125 -66.796875 Z M 36.703125 0 "/></g></g></g><g fill="#000000" fill-opacity="1"><g transform="translate(120.039806, 261.281989)"><g><path d="M 49.4375 -27.578125 C 49.4375 -18.359375 47.523438 -11.300781 43.703125 -6.40625 C 39.890625 -1.519531 34.300781 0.921875 26.9375 0.921875 C 19.664062 0.921875 14.101562 -1.472656 10.25 -6.265625 C 6.40625 -11.066406 4.441406 -17.941406 4.359375 -26.890625 L 4.359375 -39.171875 C 4.359375 -48.484375 6.285156 -55.550781 10.140625 -60.375 C 14.003906 -65.207031 19.570312 -67.625 26.84375 -67.625 C 34.113281 -67.625 39.671875 -65.234375 43.515625 -60.453125 C 47.367188 -55.671875 49.34375 -48.804688 49.4375 -39.859375 Z M 36.1875 -41.046875 C 36.1875 -46.578125 35.429688 -50.601562 33.921875 -53.125 C 32.410156 -55.644531 30.050781 -56.90625 26.84375 -56.90625 C 23.726562 -56.90625 21.429688 -55.703125 19.953125 -53.296875 C 18.472656 -50.898438 17.6875 -47.15625 17.59375 -42.0625 L 17.59375 -25.84375 C 17.59375 -20.40625 18.332031 -16.363281 19.8125 -13.71875 C 21.289062 -11.082031 23.664062 -9.765625 26.9375 -9.765625 C 30.175781 -9.765625 32.515625 -11.03125 33.953125 -13.5625 C 35.390625 -16.09375 36.132812 -19.972656 36.1875 -25.203125 Z M 36.1875 -41.046875 "/></g></g></g></g></g><g clip-path="url(#e948889e8e)"><path stroke-linecap="butt" transform="matrix(0.74959, 0, 0, 0.74959, 475.901131, 0.000000000000042609)" fill="none" stroke-linejoin="miter" d="M 0.00161725 -0.000000000000056843 L 608.438675 -0.000000000000056843 L 608.438675 608.437057 L 0.00161725 608.437057 Z M 0.00161725 -0.000000000000056843 " stroke="#000000" stroke-width="12" stroke-opacity="1" stroke-miterlimit="4"/></g><g transform="matrix(1, 0, 0, 1, 600, 85)"><g clip-path="url(#f872665eeb)"><g fill="#000000" fill-opacity="1"><g transform="translate(0.865248, 86.733344)"><g><path d="M 5.953125 0 L 5.953125 -66.703125 L 29.328125 -66.703125 C 37.421875 -66.703125 43.554688 -65.148438 47.734375 -62.046875 C 51.921875 -58.953125 54.015625 -54.410156 54.015625 -48.421875 C 54.015625 -45.160156 53.171875 -42.285156 51.484375 -39.796875 C 49.804688 -37.304688 47.472656 -35.476562 44.484375 -34.3125 C 47.898438 -33.457031 50.59375 -31.734375 52.5625 -29.140625 C 54.539062 -26.546875 55.53125 -23.367188 55.53125 -19.609375 C 55.53125 -13.191406 53.484375 -8.332031 49.390625 -5.03125 C 45.296875 -1.738281 39.460938 -0.0625 31.890625 0 Z M 19.703125 -29.046875 L 19.703125 -11.046875 L 31.46875 -11.046875 C 34.707031 -11.046875 37.234375 -11.816406 39.046875 -13.359375 C 40.867188 -14.898438 41.78125 -17.03125 41.78125 -19.75 C 41.78125 -25.851562 38.617188 -28.953125 32.296875 -29.046875 Z M 19.703125 -38.765625 L 29.875 -38.765625 C 36.800781 -38.878906 40.265625 -41.640625 40.265625 -47.046875 C 40.265625 -50.078125 39.382812 -52.253906 37.625 -53.578125 C 35.875 -54.910156 33.109375 -55.578125 29.328125 -55.578125 L 19.703125 -55.578125 Z M 19.703125 -38.765625 "/></g></g></g><g fill="#000000" fill-opacity="1"><g transform="translate(60.745181, 86.733344)"><g/></g></g><g fill="#000000" fill-opacity="1"><g transform="translate(84.110725, 86.733344)"><g><path d="M 30.828125 -23.234375 L 5.046875 -23.234375 L 5.046875 -33.90625 L 30.828125 -33.90625 Z M 30.828125 -23.234375 "/></g></g></g><g fill="#000000" fill-opacity="1"><g transform="translate(120.48767, 86.733344)"><g/></g></g><g fill="#000000" fill-opacity="1"><g transform="translate(143.853215, 86.733344)"><g><path d="M 43.609375 -13.75 L 19.515625 -13.75 L 14.9375 0 L 0.328125 0 L 25.15625 -66.703125 L 37.890625 -66.703125 L 62.859375 0 L 48.25 0 Z M 23.234375 -24.875 L 39.90625 -24.875 L 31.515625 -49.84375 Z M 23.234375 -24.875 "/></g></g></g><g fill="#000000" fill-opacity="1"><g transform="translate(77.076318, 174.007667)"><g><path d="M 47.1875 -34.171875 L 6.234375 -34.171875 L 6.234375 -44.984375 L 47.1875 -44.984375 Z M 47.1875 -14.34375 L 6.234375 -14.34375 L 6.234375 -25.15625 L 47.1875 -25.15625 Z M 47.1875 -14.34375 "/></g></g></g><g fill="#000000" fill-opacity="1"><g transform="translate(50.089021, 261.281989)"><g><path d="M 36.703125 0 L 23.453125 0 L 23.453125 -51.03125 L 7.65625 -46.140625 L 7.65625 -56.90625 L 35.28125 -66.796875 L 36.703125 -66.796875 Z M 36.703125 0 "/></g></g></g><g fill="#000000" fill-opacity="1"><g transform="translate(103.921403, 261.281989)"><g><path d="M 48.015625 -48.96875 C 48.015625 -45.738281 47.203125 -42.867188 45.578125 -40.359375 C 43.960938 -37.859375 41.734375 -35.859375 38.890625 -34.359375 C 42.128906 -32.804688 44.695312 -30.660156 46.59375 -27.921875 C 48.488281 -25.191406 49.4375 -21.976562 49.4375 -18.28125 C 49.4375 -12.351562 47.421875 -7.671875 43.390625 -4.234375 C 39.359375 -0.796875 33.875 0.921875 26.9375 0.921875 C 20 0.921875 14.5 -0.800781 10.4375 -4.25 C 6.382812 -7.707031 4.359375 -12.382812 4.359375 -18.28125 C 4.359375 -21.976562 5.300781 -25.195312 7.1875 -27.9375 C 9.082031 -30.6875 11.632812 -32.828125 14.84375 -34.359375 C 12 -35.859375 9.773438 -37.859375 8.171875 -40.359375 C 6.566406 -42.867188 5.765625 -45.738281 5.765625 -48.96875 C 5.765625 -54.65625 7.660156 -59.1875 11.453125 -62.5625 C 15.242188 -65.9375 20.390625 -67.625 26.890625 -67.625 C 33.367188 -67.625 38.507812 -65.953125 42.3125 -62.609375 C 46.113281 -59.265625 48.015625 -54.71875 48.015625 -48.96875 Z M 36.140625 -19.234375 C 36.140625 -22.140625 35.300781 -24.460938 33.625 -26.203125 C 31.945312 -27.941406 29.6875 -28.8125 26.84375 -28.8125 C 24.03125 -28.8125 21.785156 -27.945312 20.109375 -26.21875 C 18.429688 -24.5 17.59375 -22.171875 17.59375 -19.234375 C 17.59375 -16.398438 18.414062 -14.113281 20.0625 -12.375 C 21.71875 -10.632812 24.007812 -9.765625 26.9375 -9.765625 C 29.8125 -9.765625 32.0625 -10.601562 33.6875 -12.28125 C 35.320312 -13.957031 36.140625 -16.273438 36.140625 -19.234375 Z M 34.765625 -48.328125 C 34.765625 -50.929688 34.078125 -53.019531 32.703125 -54.59375 C 31.335938 -56.164062 29.398438 -56.953125 26.890625 -56.953125 C 24.421875 -56.953125 22.5 -56.1875 21.125 -54.65625 C 19.75 -53.125 19.0625 -51.015625 19.0625 -48.328125 C 19.0625 -45.671875 19.75 -43.53125 21.125 -41.90625 C 22.5 -40.289062 24.4375 -39.484375 26.9375 -39.484375 C 29.445312 -39.484375 31.378906 -40.289062 32.734375 -41.90625 C 34.085938 -43.53125 34.765625 -45.671875 34.765625 -48.328125 Z M 34.765625 -48.328125 "/></g></g></g></g></g><g clip-path="url(#7f1fd69d65)"><path stroke-linecap="butt" transform="matrix(0.74959, 0, 0, 0.74959, 951.79157, 0.000000000000042609)" fill="none" stroke-linejoin="miter" d="M 0.00186629 -0.000000000000056843 L 608.438924 -0.000000000000056843 L 608.438924 608.437057 L 0.00186629 608.437057 Z M 0.00186629 -0.000000000000056843 " stroke="#000000" stroke-width="12" stroke-opacity="1" stroke-miterlimit="4"/></g><g transform="matrix(1, 0, 0, 1, 1091, 85)"><g clip-path="url(#bcf7e953d0)"><g fill="#000000" fill-opacity="1"><g transform="translate(1.060692, 86.733344)"><g><path d="M 58.328125 -22.21875 C 57.804688 -15.039062 55.15625 -9.390625 50.375 -5.265625 C 45.59375 -1.140625 39.289062 0.921875 31.46875 0.921875 C 22.914062 0.921875 16.1875 -1.957031 11.28125 -7.71875 C 6.382812 -13.476562 3.9375 -21.378906 3.9375 -31.421875 L 3.9375 -35.5 C 3.9375 -41.914062 5.066406 -47.566406 7.328125 -52.453125 C 9.585938 -57.335938 12.816406 -61.085938 17.015625 -63.703125 C 21.210938 -66.316406 26.09375 -67.625 31.65625 -67.625 C 39.351562 -67.625 45.550781 -65.5625 50.25 -61.4375 C 54.957031 -57.3125 57.675781 -51.523438 58.40625 -44.078125 L 44.671875 -44.078125 C 44.335938 -48.378906 43.140625 -51.5 41.078125 -53.4375 C 39.015625 -55.382812 35.875 -56.359375 31.65625 -56.359375 C 27.070312 -56.359375 23.640625 -54.710938 21.359375 -51.421875 C 19.085938 -48.140625 17.925781 -43.046875 17.875 -36.140625 L 17.875 -31.109375 C 17.875 -23.898438 18.960938 -18.628906 21.140625 -15.296875 C 23.328125 -11.972656 26.769531 -10.3125 31.46875 -10.3125 C 35.71875 -10.3125 38.890625 -11.28125 40.984375 -13.21875 C 43.078125 -15.15625 44.273438 -18.15625 44.578125 -22.21875 Z M 58.328125 -22.21875 "/></g></g></g><g fill="#000000" fill-opacity="1"><g transform="translate(62.452513, 86.733344)"><g/></g></g><g fill="#000000" fill-opacity="1"><g transform="translate(85.818057, 86.733344)"><g><path d="M 9.25 5.734375 L -0.59375 5.734375 L 23.96875 -66.703125 L 33.8125 -66.703125 Z M 9.25 5.734375 "/></g></g></g><g fill="#000000" fill-opacity="1"><g transform="translate(120.866374, 86.733344)"><g/></g></g><g fill="#000000" fill-opacity="1"><g transform="translate(144.231918, 86.733344)"><g><path d="M 43.609375 -13.75 L 19.515625 -13.75 L 14.9375 0 L 0.328125 0 L 25.15625 -66.703125 L 37.890625 -66.703125 L 62.859375 0 L 48.25 0 Z M 23.234375 -24.875 L 39.90625 -24.875 L 31.515625 -49.84375 Z M 23.234375 -24.875 "/></g></g></g><g fill="#000000" fill-opacity="1"><g transform="translate(77.35974, 174.007667)"><g><path d="M 47.1875 -34.171875 L 6.234375 -34.171875 L 6.234375 -44.984375 L 47.1875 -44.984375 Z M 47.1875 -14.34375 L 6.234375 -14.34375 L 6.234375 -25.15625 L 47.1875 -25.15625 Z M 47.1875 -14.34375 "/></g></g></g><g fill="#000000" fill-opacity="1"><g transform="translate(74.280505, 261.281989)"><g><path d="M 5.953125 0 L 5.953125 -66.703125 L 29.328125 -66.703125 C 37.421875 -66.703125 43.554688 -65.148438 47.734375 -62.046875 C 51.921875 -58.953125 54.015625 -54.410156 54.015625 -48.421875 C 54.015625 -45.160156 53.171875 -42.285156 51.484375 -39.796875 C 49.804688 -37.304688 47.472656 -35.476562 44.484375 -34.3125 C 47.898438 -33.457031 50.59375 -31.734375 52.5625 -29.140625 C 54.539062 -26.546875 55.53125 -23.367188 55.53125 -19.609375 C 55.53125 -13.191406 53.484375 -8.332031 49.390625 -5.03125 C 45.296875 -1.738281 39.460938 -0.0625 31.890625 0 Z M 19.703125 -29.046875 L 19.703125 -11.046875 L 31.46875 -11.046875 C 34.707031 -11.046875 37.234375 -11.816406 39.046875 -13.359375 C 40.867188 -14.898438 41.78125 -17.03125 41.78125 -19.75 C 41.78125 -25.851562 38.617188 -28.953125 32.296875 -29.046875 Z M 19.703125 -38.765625 L 29.875 -38.765625 C 36.800781 -38.878906 40.265625 -41.640625 40.265625 -47.046875 C 40.265625 -50.078125 39.382812 -52.253906 37.625 -53.578125 C 35.875 -54.910156 33.109375 -55.578125 29.328125 -55.578125 L 19.703125 -55.578125 Z M 19.703125 -38.765625 "/></g></g></g></g></g></svg>