<svg width="212" height="271" viewBox="0 0 212 271" fill="none" xmlns="http://www.w3.org/2000/svg">
<mask id="mask0_295_115" style="mask-type:luminance" maskUnits="userSpaceOnUse" x="0" y="0" width="212" height="211">
<path d="M0.828125 0H211.703V210.875H0.828125V0Z" fill="white"/>
</mask>
<g mask="url(#mask0_295_115)">
<path d="M211.703 210.875H0.828125V0H211.703V210.875Z" stroke="black" stroke-width="12"/>
</g>
<path d="M123.609 239.344C125.805 239.956 127.497 241.072 128.685 242.692C129.909 244.312 130.521 246.292 130.521 248.632C130.521 251.872 129.351 254.41 127.011 256.246C124.707 258.082 121.521 259 117.453 259H103.521C102.477 259 101.649 258.712 101.037 258.136C100.461 257.56 100.173 256.75 100.173 255.706V224.224C100.173 223.18 100.461 222.37 101.037 221.794C101.649 221.218 102.477 220.93 103.521 220.93H116.913C120.873 220.93 123.969 221.812 126.201 223.576C128.469 225.304 129.603 227.734 129.603 230.866C129.603 232.882 129.063 234.628 127.983 236.104C126.939 237.58 125.481 238.66 123.609 239.344ZM106.977 236.968H115.779C120.567 236.968 122.961 235.186 122.961 231.622C122.961 229.822 122.367 228.49 121.179 227.626C119.991 226.762 118.191 226.33 115.779 226.33H106.977V236.968ZM116.697 253.6C119.217 253.6 121.053 253.15 122.205 252.25C123.357 251.35 123.933 249.946 123.933 248.038C123.933 246.13 123.339 244.708 122.151 243.772C120.999 242.836 119.181 242.368 116.697 242.368H106.977V253.6H116.697Z" fill="black"/>
</svg>
