<svg xmlns="http://www.w3.org/2000/svg" xmlns:xlink="http://www.w3.org/1999/xlink" width="226" zoomAndPan="magnify" viewBox="0 0 169.5 173.999997" height="232" preserveAspectRatio="xMidYMid meet" version="1.0"><defs><g/><clipPath id="f89b008eb6"><path d="M 12.011719 14.535156 L 156.328125 14.535156 L 156.328125 158.859375 L 12.011719 158.859375 Z M 12.011719 14.535156 " clip-rule="nonzero"/></clipPath></defs><g clip-path="url(#f89b008eb6)"><path stroke-linecap="butt" transform="matrix(0.747794, 0, 0, 0.747794, 12.010207, 14.536392)" fill="none" stroke-linejoin="miter" d="M 0.00202108 -0.00165201 L 193.205679 -0.00165201 L 193.205679 193.154993 L 0.00202108 193.154993 Z M 0.00202108 -0.00165201 " stroke="#000000" stroke-width="12" stroke-opacity="1" stroke-miterlimit="4"/></g><g fill="#000000" fill-opacity="1"><g transform="translate(28.187623, 119.664444)"><g><path d="M 18.75 -40.84375 L 26.09375 -40.84375 C 29.59375 -40.84375 32.1875 -41.710938 33.875 -43.453125 C 35.5625 -45.203125 36.40625 -47.523438 36.40625 -50.421875 C 36.40625 -53.222656 35.566406 -55.398438 33.890625 -56.953125 C 32.222656 -58.515625 29.925781 -59.296875 27 -59.296875 C 24.363281 -59.296875 22.15625 -58.570312 20.375 -57.125 C 18.59375 -55.675781 17.703125 -53.789062 17.703125 -51.46875 L 3.90625 -51.46875 C 3.90625 -55.09375 4.882812 -58.34375 6.84375 -61.21875 C 8.800781 -64.101562 11.535156 -66.359375 15.046875 -67.984375 C 18.566406 -69.609375 22.441406 -70.421875 26.671875 -70.421875 C 34.015625 -70.421875 39.769531 -68.660156 43.9375 -65.140625 C 48.101562 -61.628906 50.1875 -56.785156 50.1875 -50.609375 C 50.1875 -47.429688 49.210938 -44.503906 47.265625 -41.828125 C 45.328125 -39.160156 42.785156 -37.113281 39.640625 -35.6875 C 43.554688 -34.28125 46.472656 -32.175781 48.390625 -29.375 C 50.316406 -26.582031 51.28125 -23.28125 51.28125 -19.46875 C 51.28125 -13.289062 49.03125 -8.34375 44.53125 -4.625 C 40.03125 -0.90625 34.078125 0.953125 26.671875 0.953125 C 19.734375 0.953125 14.0625 -0.875 9.65625 -4.53125 C 5.25 -8.1875 3.046875 -13.019531 3.046875 -19.03125 L 16.84375 -19.03125 C 16.84375 -16.425781 17.816406 -14.296875 19.765625 -12.640625 C 21.722656 -10.984375 24.132812 -10.15625 27 -10.15625 C 30.28125 -10.15625 32.847656 -11.019531 34.703125 -12.75 C 36.566406 -14.488281 37.5 -16.789062 37.5 -19.65625 C 37.5 -26.59375 33.679688 -30.0625 26.046875 -30.0625 L 18.75 -30.0625 Z M 18.75 -40.84375 "/></g></g></g><g fill="#000000" fill-opacity="1"><g transform="translate(84.243369, 119.664444)"><g><path d="M 36.96875 -27.765625 C 33.375 -24.234375 29.175781 -22.46875 24.375 -22.46875 C 18.238281 -22.46875 13.328125 -24.570312 9.640625 -28.78125 C 5.953125 -33 4.109375 -38.6875 4.109375 -45.84375 C 4.109375 -50.394531 5.097656 -54.566406 7.078125 -58.359375 C 9.066406 -62.160156 11.84375 -65.117188 15.40625 -67.234375 C 18.96875 -69.359375 22.976562 -70.421875 27.4375 -70.421875 C 32.007812 -70.421875 36.078125 -69.273438 39.640625 -66.984375 C 43.203125 -64.691406 45.96875 -61.398438 47.9375 -57.109375 C 49.914062 -52.816406 50.921875 -47.898438 50.953125 -42.359375 L 50.953125 -37.265625 C 50.953125 -25.679688 48.070312 -16.582031 42.3125 -9.96875 C 36.5625 -3.351562 28.40625 0.175781 17.84375 0.625 L 14.453125 0.671875 L 14.453125 -10.828125 L 17.515625 -10.875 C 29.503906 -11.414062 35.988281 -17.046875 36.96875 -27.765625 Z M 27.765625 -33.015625 C 29.992188 -33.015625 31.910156 -33.585938 33.515625 -34.734375 C 35.117188 -35.878906 36.332031 -37.257812 37.15625 -38.875 L 37.15625 -44.5625 C 37.15625 -49.238281 36.265625 -52.863281 34.484375 -55.4375 C 32.703125 -58.007812 30.316406 -59.296875 27.328125 -59.296875 C 24.566406 -59.296875 22.296875 -58.03125 20.515625 -55.5 C 18.734375 -52.976562 17.84375 -49.804688 17.84375 -45.984375 C 17.84375 -42.203125 18.707031 -39.09375 20.4375 -36.65625 C 22.175781 -34.226562 24.617188 -33.015625 27.765625 -33.015625 Z M 27.765625 -33.015625 "/></g></g></g></svg>