<svg xmlns="http://www.w3.org/2000/svg" xmlns:xlink="http://www.w3.org/1999/xlink" width="844" zoomAndPan="magnify" viewBox="0 0 633 338.250003" height="451" preserveAspectRatio="xMidYMid meet" version="1.0"><defs><g/><clipPath id="6c324d7534"><path d="M 2.992188 0 L 631.589844 0 L 631.589844 336.4375 L 2.992188 336.4375 Z M 2.992188 0 " clip-rule="nonzero"/></clipPath><clipPath id="dfd7526936"><path d="M 349.632812 49.488281 L 568.898438 49.488281 L 568.898438 238.070312 L 349.632812 238.070312 Z M 349.632812 49.488281 " clip-rule="nonzero"/></clipPath><clipPath id="d8b4fbb2f3"><rect x="0" width="220" y="0" height="190"/></clipPath><clipPath id="be922f7775"><path d="M 29.191406 169 L 125.726562 169 L 125.726562 238 L 29.191406 238 Z M 29.191406 169 " clip-rule="nonzero"/></clipPath><clipPath id="2ed3c812d8"><path d="M 510.320312 168.222656 L 606.855469 168.222656 L 606.855469 238.566406 L 510.320312 238.566406 Z M 510.320312 168.222656 " clip-rule="nonzero"/></clipPath><clipPath id="6dcc80ee0f"><path d="M 0.320312 1 L 96.609375 1 L 96.609375 70 L 0.320312 70 Z M 0.320312 1 " clip-rule="nonzero"/></clipPath><clipPath id="c3338d2cc6"><rect x="0" width="97" y="0" height="71"/></clipPath></defs><g clip-path="url(#6c324d7534)"><path stroke-linecap="butt" transform="matrix(0.748341, 0, 0, 0.748341, 2.992119, 0.00000997788)" fill="none" stroke-linejoin="miter" d="M 0.0000909549 -0.0000133333 L 840.416684 -0.0000133333 L 840.416684 449.577947 L 0.0000909549 449.577947 Z M 0.0000909549 -0.0000133333 " stroke="#000000" stroke-width="12" stroke-opacity="1" stroke-miterlimit="4"/></g><path stroke-linecap="butt" transform="matrix(0, 0.748341, -0.748341, 0, 318.689205, 27.557356)" fill="none" stroke-linejoin="miter" d="M 0.00165386 2.502602 L 315.710551 2.502602 " stroke="#000000" stroke-width="5" stroke-opacity="1" stroke-miterlimit="4"/><path fill="#8bc28f" d="M 109.382812 114.128906 C 111.167969 112.46875 113.066406 110.53125 115.078125 108.3125 C 117.347656 105.816406 119.023438 104 120.109375 102.863281 C 124.128906 98.648438 130.8125 98.484375 135.039062 102.5 C 139.261719 106.511719 139.425781 113.183594 135.402344 117.398438 C 134.4375 118.410156 132.878906 120.101562 130.726562 122.46875 C 128.320312 125.121094 126.007812 127.472656 123.796875 129.535156 C 119.535156 133.507812 112.855469 133.277344 108.875 129.023438 C 104.894531 124.769531 105.121094 118.101562 109.382812 114.128906 Z M 109.382812 114.128906 " fill-opacity="1" fill-rule="nonzero"/><path fill="#8bc28f" d="M 145.414062 113.699219 C 146.144531 112.148438 146.992188 110.484375 147.953125 108.703125 C 150.722656 103.582031 157.128906 101.667969 162.261719 104.429688 C 167.394531 107.195312 169.308594 113.585938 166.542969 118.710938 C 165.765625 120.144531 165.09375 121.460938 164.53125 122.660156 C 162.050781 127.929688 155.761719 130.191406 150.484375 127.71875 C 145.207031 125.242188 142.9375 118.96875 145.414062 113.699219 Z M 145.414062 113.699219 " fill-opacity="1" fill-rule="nonzero"/><path fill="#8bc28f" d="M 151.328125 153.570312 C 150.628906 155.058594 149.792969 156.742188 148.824219 158.625 C 147.839844 160.53125 146.808594 162.425781 145.730469 164.308594 C 142.835938 169.359375 136.382812 171.109375 131.320312 168.21875 C 126.257812 165.328125 124.503906 158.886719 127.402344 153.835938 C 128.324219 152.230469 129.203125 150.617188 130.039062 148.988281 C 130.894531 147.332031 131.617188 145.871094 132.210938 144.609375 C 134.691406 139.339844 140.980469 137.078125 146.257812 139.550781 C 151.539062 142.027344 153.808594 148.300781 151.328125 153.570312 Z M 151.328125 153.570312 " fill-opacity="1" fill-rule="nonzero"/><path fill="#8bc28f" d="M 193.082031 136.609375 C 191.691406 139.054688 189.859375 142.070312 187.585938 145.664062 C 185.351562 149.195312 183.28125 152.375 181.382812 155.207031 L 178.613281 159.335938 C 175.367188 164.171875 168.808594 165.464844 163.960938 162.226562 C 159.117188 158.988281 157.820312 152.441406 161.0625 147.609375 L 163.835938 143.476562 C 165.628906 140.804688 167.597656 137.777344 169.730469 134.40625 C 171.828125 131.097656 173.488281 128.363281 174.710938 126.210938 C 177.585938 121.148438 184.03125 119.375 189.105469 122.246094 C 194.175781 125.117188 195.957031 131.546875 193.082031 136.609375 Z M 193.082031 136.609375 " fill-opacity="1" fill-rule="nonzero"/><path fill="#8bc28f" d="M 213.164062 71.851562 C 211.71875 74.652344 210.300781 77.152344 208.910156 79.351562 C 207.753906 81.179688 206.613281 83.058594 205.492188 84.988281 L 203.707031 88.054688 C 200.78125 93.085938 194.316406 94.800781 189.273438 91.878906 C 184.230469 88.957031 182.515625 82.507812 185.441406 77.472656 L 187.226562 74.40625 C 188.480469 72.25 189.757812 70.144531 191.054688 68.09375 C 192.113281 66.421875 193.222656 64.460938 194.378906 62.214844 C 197.046875 57.039062 203.414062 55 208.597656 57.660156 C 213.785156 60.320312 215.828125 66.675781 213.164062 71.851562 Z M 213.164062 71.851562 " fill-opacity="1" fill-rule="nonzero"/><path fill="#8bc28f" d="M 171.855469 65.632812 C 170.757812 68.269531 168.890625 71.632812 166.257812 75.726562 L 162.8125 81.078125 C 159.660156 85.972656 153.128906 87.394531 148.222656 84.25 C 143.316406 81.105469 141.890625 74.585938 145.042969 69.6875 L 148.488281 64.335938 C 150.445312 61.292969 151.734375 59.03125 152.351562 57.546875 C 154.589844 52.171875 160.769531 49.625 166.152344 51.855469 C 171.539062 54.089844 174.089844 60.257812 171.855469 65.632812 Z M 171.855469 65.632812 " fill-opacity="1" fill-rule="nonzero"/><path fill="#8bc28f" d="M 234.726562 122.308594 C 232.773438 124.566406 230.585938 127.4375 228.175781 130.925781 C 225.625 134.609375 223.855469 137.234375 222.867188 138.796875 C 219.75 143.714844 213.230469 145.183594 208.300781 142.074219 C 203.367188 138.96875 201.898438 132.457031 205.011719 127.539062 C 206.15625 125.734375 208.082031 122.871094 210.796875 118.949219 C 213.644531 114.832031 216.296875 111.355469 218.757812 108.519531 C 222.574219 104.117188 229.242188 103.636719 233.652344 107.445312 C 238.0625 111.253906 238.542969 117.910156 234.726562 122.308594 Z M 234.726562 122.308594 " fill-opacity="1" fill-rule="nonzero"/><path fill="#8bc28f" d="M 206.585938 184.507812 C 205.871094 185.410156 205.222656 186.390625 204.648438 187.453125 C 201.882812 192.578125 195.476562 194.492188 190.34375 191.726562 C 185.210938 188.964844 183.292969 182.570312 186.0625 177.449219 C 187.222656 175.296875 188.546875 173.289062 190.035156 171.417969 C 193.65625 166.855469 200.296875 166.089844 204.871094 169.703125 C 209.441406 173.320312 210.207031 179.945312 206.585938 184.507812 Z M 206.585938 184.507812 " fill-opacity="1" fill-rule="nonzero"/><path fill="#8bc28f" d="M 166.46875 191.664062 C 165.085938 193.535156 164.023438 195.050781 163.285156 196.214844 C 162.5 197.453125 161.578125 199.007812 160.519531 200.875 L 158.804688 203.894531 C 155.925781 208.957031 149.480469 210.730469 144.40625 207.859375 C 139.335938 204.988281 137.554688 198.558594 140.433594 193.496094 L 142.148438 190.476562 C 143.375 188.320312 144.46875 186.480469 145.433594 184.957031 C 146.445312 183.359375 147.792969 181.417969 149.484375 179.136719 C 152.953125 174.457031 159.5625 173.46875 164.253906 176.925781 C 168.945312 180.386719 169.9375 186.984375 166.46875 191.664062 Z M 166.46875 191.664062 " fill-opacity="1" fill-rule="nonzero"/><path fill="#8bc28f" d="M 110.902344 156.367188 C 109.65625 158.339844 108.890625 159.546875 108.609375 159.992188 C 107.847656 161.191406 106.707031 162.859375 105.183594 164.996094 L 103.066406 167.960938 C 99.683594 172.699219 93.089844 173.804688 88.339844 170.429688 C 83.589844 167.050781 82.480469 160.472656 85.863281 155.730469 L 87.980469 152.765625 C 89.277344 150.949219 90.203125 149.601562 90.753906 148.734375 C 91.785156 147.105469 92.550781 145.898438 93.050781 145.109375 C 96.164062 140.1875 102.6875 138.71875 107.617188 141.828125 C 112.546875 144.9375 114.019531 151.445312 110.902344 156.367188 Z M 110.902344 156.367188 " fill-opacity="1" fill-rule="nonzero"/><path fill="#8bc28f" d="M 259.714844 157.640625 C 258.695312 159.074219 257.324219 161.457031 255.605469 164.792969 C 253.652344 168.589844 252.175781 171.445312 251.179688 173.363281 C 248.496094 178.527344 242.121094 180.546875 236.945312 177.867188 C 231.765625 175.1875 229.746094 168.828125 232.429688 163.660156 C 233.414062 161.765625 234.878906 158.929688 236.824219 155.15625 C 239.007812 150.917969 240.902344 147.671875 242.515625 145.414062 C 245.898438 140.671875 252.492188 139.566406 257.242188 142.945312 C 261.992188 146.320312 263.101562 152.902344 259.714844 157.640625 Z M 259.714844 157.640625 " fill-opacity="1" fill-rule="nonzero"/><path fill="#8bc28f" d="M 137.21875 75.085938 C 136.234375 76.113281 135.195312 77.398438 134.097656 78.9375 L 132.015625 81.855469 C 128.632812 86.59375 122.039062 87.699219 117.289062 84.324219 C 112.539062 80.945312 111.429688 74.367188 114.8125 69.625 L 116.894531 66.707031 C 118.574219 64.355469 120.25 62.304688 121.921875 60.550781 C 125.945312 56.335938 132.628906 56.171875 136.851562 60.1875 C 141.078125 64.199219 141.242188 70.871094 137.21875 75.085938 Z M 137.21875 75.085938 " fill-opacity="1" fill-rule="nonzero"/><path fill="#8bc28f" d="M 97.984375 112.160156 C 96.039062 115.816406 94.257812 119.183594 92.640625 122.265625 C 81.253906 143.953125 79.777344 146.765625 88.210938 130.707031 C 85.503906 135.859375 79.121094 137.851562 73.957031 135.148438 C 68.789062 132.449219 66.796875 126.078125 69.503906 120.925781 C 80.589844 99.804688 82.066406 96.992188 73.933594 112.484375 C 75.570312 109.371094 77.367188 105.96875 79.328125 102.277344 C 82.0625 97.136719 88.457031 95.179688 93.609375 97.910156 C 98.757812 100.636719 100.71875 107.015625 97.984375 112.160156 Z M 97.984375 112.160156 " fill-opacity="1" fill-rule="nonzero"/><path fill="#8bc28f" d="M 240.0625 212.992188 C 239.28125 214.480469 238.691406 215.875 238.289062 217.179688 C 237.542969 219.609375 236.589844 222.039062 235.425781 224.460938 L 234.023438 227.378906 C 231.5 232.625 225.191406 234.839844 219.933594 232.324219 C 214.675781 229.804688 212.457031 223.511719 214.980469 218.265625 L 216.382812 215.34375 C 217.089844 213.875 217.660156 212.425781 218.097656 211.003906 C 218.882812 208.453125 219.96875 205.855469 221.355469 203.210938 C 224.0625 198.054688 230.441406 196.066406 235.609375 198.765625 C 240.773438 201.46875 242.769531 207.835938 240.0625 212.992188 Z M 240.0625 212.992188 " fill-opacity="1" fill-rule="nonzero"/><path fill="#8bc28f" d="M 263.996094 67.894531 C 263.402344 68.644531 262.832031 69.601562 262.28125 70.773438 C 261.417969 72.609375 260.453125 74.726562 259.394531 77.117188 L 257.757812 80.820312 C 255.402344 86.144531 249.167969 88.558594 243.832031 86.207031 C 238.496094 83.855469 236.082031 77.632812 238.4375 72.308594 L 240.074219 68.605469 C 241.199219 66.0625 242.230469 63.796875 243.164062 61.8125 C 244.410156 59.167969 245.839844 56.828125 247.445312 54.804688 C 251.070312 50.242188 257.710938 49.476562 262.28125 53.089844 C 266.851562 56.707031 267.621094 63.335938 263.996094 67.894531 Z M 263.996094 67.894531 " fill-opacity="1" fill-rule="nonzero"/><path fill="#8bc28f" d="M 192.558594 222.074219 C 188.824219 228.988281 188.351562 229.863281 191.136719 224.703125 C 191.488281 224.058594 190.933594 225.078125 189.484375 227.761719 L 187.714844 231.035156 C 184.945312 236.15625 178.542969 238.070312 173.410156 235.308594 C 168.277344 232.546875 166.359375 226.152344 169.128906 221.03125 L 170.898438 217.753906 C 170.625 218.253906 171.179688 217.234375 172.550781 214.695312 C 176.363281 207.640625 176.835938 206.765625 173.96875 212.070312 C 176.738281 206.949219 183.144531 205.035156 188.277344 207.796875 C 193.410156 210.5625 195.328125 216.953125 192.558594 222.074219 Z M 192.558594 222.074219 " fill-opacity="1" fill-rule="nonzero"/><path fill="#8bc28f" d="M 281.78125 194.160156 C 280.011719 196.429688 278.367188 198.765625 276.847656 201.167969 L 274.289062 205.207031 C 271.175781 210.128906 264.652344 211.597656 259.722656 208.488281 C 254.792969 205.378906 253.320312 198.871094 256.433594 193.949219 L 258.992188 189.910156 C 260.882812 186.929688 262.921875 184.03125 265.113281 181.21875 C 268.695312 176.625 275.328125 175.796875 279.933594 179.371094 C 284.535156 182.945312 285.363281 189.566406 281.78125 194.160156 Z M 281.78125 194.160156 " fill-opacity="1" fill-rule="nonzero"/><path fill="#8bc28f" d="M 284.675781 104.144531 C 283.78125 107.867188 282.859375 111.128906 281.914062 113.933594 C 280.925781 116.875 280.648438 117.691406 281.085938 116.390625 C 280.550781 117.988281 280.035156 119.507812 279.550781 120.953125 C 277.691406 126.46875 271.703125 129.4375 266.175781 127.582031 C 260.648438 125.726562 257.671875 119.753906 259.53125 114.234375 C 260.019531 112.792969 260.53125 111.273438 261.070312 109.675781 C 262.046875 106.773438 262.320312 105.957031 261.894531 107.21875 C 262.644531 105 263.390625 102.332031 264.144531 99.214844 C 265.507812 93.554688 271.210938 90.074219 276.882812 91.433594 C 282.550781 92.796875 286.042969 98.488281 284.675781 104.144531 Z M 284.675781 104.144531 " fill-opacity="1" fill-rule="nonzero"/><g clip-path="url(#dfd7526936)"><g transform="matrix(1, 0, 0, 1, 349, 49)"><g clip-path="url(#d8b4fbb2f3)"><path fill="#8bc28f" d="M 177.066406 65.128906 C 175.285156 63.46875 173.386719 61.53125 171.371094 59.3125 C 169.105469 56.816406 167.429688 55 166.34375 53.863281 C 162.324219 49.648438 155.640625 49.484375 151.414062 53.5 C 147.191406 57.511719 147.027344 64.183594 151.050781 68.398438 C 152.015625 69.410156 153.574219 71.101562 155.726562 73.46875 C 158.132812 76.121094 160.441406 78.472656 162.652344 80.535156 C 166.917969 84.507812 173.597656 84.277344 177.578125 80.023438 C 181.558594 75.769531 181.332031 69.101562 177.066406 65.128906 Z M 177.066406 65.128906 " fill-opacity="1" fill-rule="nonzero"/><path fill="#8bc28f" d="M 141.035156 64.699219 C 140.304688 63.148438 139.460938 61.484375 138.5 59.703125 C 135.730469 54.582031 129.324219 52.667969 124.191406 55.429688 C 119.058594 58.195312 117.140625 64.585938 119.910156 69.710938 C 120.6875 71.144531 121.355469 72.460938 121.921875 73.660156 C 124.402344 78.929688 130.691406 81.191406 135.96875 78.71875 C 141.246094 76.242188 143.515625 69.96875 141.035156 64.699219 Z M 141.035156 64.699219 " fill-opacity="1" fill-rule="nonzero"/><path fill="#8bc28f" d="M 135.125 104.570312 C 135.824219 106.058594 136.660156 107.742188 137.628906 109.625 C 138.613281 111.53125 139.644531 113.425781 140.722656 115.308594 C 143.617188 120.359375 150.070312 122.109375 155.132812 119.21875 C 160.191406 116.328125 161.949219 109.886719 159.050781 104.835938 C 158.128906 103.230469 157.25 101.617188 156.410156 99.988281 C 155.558594 98.332031 154.835938 96.871094 154.242188 95.609375 C 151.761719 90.339844 145.472656 88.078125 140.191406 90.550781 C 134.914062 93.027344 132.644531 99.300781 135.125 104.570312 Z M 135.125 104.570312 " fill-opacity="1" fill-rule="nonzero"/><path fill="#8bc28f" d="M 93.371094 87.609375 C 94.761719 90.054688 96.59375 93.070312 98.867188 96.664062 C 101.101562 100.195312 103.171875 103.375 105.070312 106.207031 L 107.839844 110.335938 C 111.085938 115.171875 117.644531 116.464844 122.492188 113.226562 C 127.335938 109.988281 128.632812 103.441406 125.386719 98.609375 L 122.617188 94.476562 C 120.820312 91.804688 118.855469 88.777344 116.722656 85.40625 C 114.625 82.097656 112.964844 79.363281 111.742188 77.210938 C 108.867188 72.148438 102.421875 70.375 97.347656 73.246094 C 92.273438 76.117188 90.496094 82.546875 93.371094 87.609375 Z M 93.371094 87.609375 " fill-opacity="1" fill-rule="nonzero"/><path fill="#8bc28f" d="M 73.289062 22.851562 C 74.734375 25.652344 76.152344 28.152344 77.542969 30.351562 C 78.699219 32.179688 79.839844 34.058594 80.960938 35.988281 L 82.746094 39.054688 C 85.671875 44.085938 92.136719 45.800781 97.179688 42.878906 C 102.222656 39.957031 103.9375 33.507812 101.011719 28.472656 L 99.226562 25.40625 C 97.972656 23.25 96.695312 21.144531 95.398438 19.09375 C 94.339844 17.421875 93.230469 15.460938 92.074219 13.214844 C 89.40625 8.039062 83.039062 6 77.851562 8.660156 C 72.667969 11.320312 70.625 17.675781 73.289062 22.851562 Z M 73.289062 22.851562 " fill-opacity="1" fill-rule="nonzero"/><path fill="#8bc28f" d="M 114.597656 16.632812 C 115.695312 19.269531 117.5625 22.632812 120.195312 26.726562 L 123.640625 32.078125 C 126.789062 36.972656 133.324219 38.394531 138.230469 35.25 C 143.136719 32.105469 144.5625 25.585938 141.410156 20.6875 L 137.964844 15.335938 C 136.007812 12.292969 134.71875 10.03125 134.101562 8.546875 C 131.863281 3.171875 125.683594 0.625 120.296875 2.855469 C 114.914062 5.089844 112.359375 11.257812 114.597656 16.632812 Z M 114.597656 16.632812 " fill-opacity="1" fill-rule="nonzero"/><path fill="#8bc28f" d="M 51.726562 73.308594 C 53.679688 75.566406 55.867188 78.4375 58.277344 81.925781 C 60.828125 85.609375 62.597656 88.234375 63.585938 89.796875 C 66.699219 94.714844 73.222656 96.183594 78.152344 93.074219 C 83.082031 89.96875 84.554688 83.457031 81.441406 78.539062 C 80.296875 76.734375 78.371094 73.871094 75.65625 69.949219 C 72.808594 65.832031 70.15625 62.355469 67.695312 59.519531 C 63.878906 55.117188 57.210938 54.636719 52.800781 58.445312 C 48.390625 62.253906 47.910156 68.910156 51.726562 73.308594 Z M 51.726562 73.308594 " fill-opacity="1" fill-rule="nonzero"/><path fill="#8bc28f" d="M 79.867188 135.507812 C 80.582031 136.410156 81.226562 137.390625 81.804688 138.453125 C 84.570312 143.578125 90.976562 145.492188 96.109375 142.726562 C 101.242188 139.964844 103.160156 133.570312 100.390625 128.449219 C 99.226562 126.296875 97.902344 124.289062 96.417969 122.417969 C 92.796875 117.855469 86.152344 117.089844 81.582031 120.703125 C 77.011719 124.320312 76.246094 130.945312 79.867188 135.507812 Z M 79.867188 135.507812 " fill-opacity="1" fill-rule="nonzero"/><path fill="#8bc28f" d="M 119.984375 142.664062 C 121.367188 144.535156 122.429688 146.050781 123.167969 147.214844 C 123.949219 148.453125 124.875 150.007812 125.933594 151.875 L 127.648438 154.894531 C 130.527344 159.957031 136.972656 161.730469 142.042969 158.859375 C 147.117188 155.988281 148.898438 149.558594 146.019531 144.496094 L 144.304688 141.476562 C 143.078125 139.320312 141.984375 137.480469 141.019531 135.957031 C 140.007812 134.359375 138.65625 132.417969 136.96875 130.136719 C 133.5 125.457031 126.886719 124.46875 122.199219 127.925781 C 117.507812 131.386719 116.515625 137.984375 119.984375 142.664062 Z M 119.984375 142.664062 " fill-opacity="1" fill-rule="nonzero"/><path fill="#8bc28f" d="M 175.546875 107.367188 C 176.796875 109.339844 177.5625 110.546875 177.84375 110.992188 C 178.601562 112.191406 179.746094 113.859375 181.269531 115.996094 L 183.386719 118.960938 C 186.769531 123.699219 193.363281 124.804688 198.113281 121.429688 C 202.863281 118.050781 203.972656 111.472656 200.589844 106.730469 L 198.472656 103.765625 C 197.171875 101.949219 196.25 100.601562 195.699219 99.734375 C 194.667969 98.105469 193.902344 96.898438 193.402344 96.109375 C 190.289062 91.1875 183.765625 89.71875 178.835938 92.828125 C 173.90625 95.9375 172.433594 102.445312 175.546875 107.367188 Z M 175.546875 107.367188 " fill-opacity="1" fill-rule="nonzero"/><path fill="#8bc28f" d="M 26.734375 108.640625 C 27.757812 110.074219 29.128906 112.457031 30.847656 115.792969 C 32.800781 119.589844 34.277344 122.445312 35.273438 124.363281 C 37.957031 129.527344 44.332031 131.546875 49.507812 128.867188 C 54.6875 126.1875 56.707031 119.828125 54.023438 114.660156 C 53.039062 112.765625 51.574219 109.929688 49.628906 106.15625 C 47.445312 101.917969 45.550781 98.671875 43.9375 96.414062 C 40.554688 91.671875 33.960938 90.566406 29.210938 93.945312 C 24.460938 97.320312 23.351562 103.902344 26.734375 108.640625 Z M 26.734375 108.640625 " fill-opacity="1" fill-rule="nonzero"/><path fill="#8bc28f" d="M 149.234375 26.085938 C 150.214844 27.113281 151.257812 28.398438 152.355469 29.9375 L 154.4375 32.855469 C 157.820312 37.59375 164.414062 38.699219 169.164062 35.324219 C 173.914062 31.945312 175.023438 25.367188 171.640625 20.625 L 169.554688 17.707031 C 167.878906 15.355469 166.203125 13.304688 164.527344 11.550781 C 160.507812 7.335938 153.824219 7.171875 149.601562 11.1875 C 145.375 15.199219 145.210938 21.871094 149.234375 26.085938 Z M 149.234375 26.085938 " fill-opacity="1" fill-rule="nonzero"/><path fill="#8bc28f" d="M 188.46875 63.160156 C 190.410156 66.816406 192.191406 70.183594 193.8125 73.265625 C 205.195312 94.953125 206.671875 97.765625 198.242188 81.707031 C 200.949219 86.859375 207.328125 88.851562 212.496094 86.148438 C 217.660156 83.449219 219.65625 77.078125 216.949219 71.925781 C 205.863281 50.804688 204.386719 47.992188 212.519531 63.484375 C 210.882812 60.371094 209.085938 56.96875 207.121094 53.277344 C 204.390625 48.136719 197.996094 46.179688 192.84375 48.910156 C 187.695312 51.636719 185.734375 58.015625 188.46875 63.160156 Z M 188.46875 63.160156 " fill-opacity="1" fill-rule="nonzero"/><path fill="#8bc28f" d="M 46.390625 163.992188 C 47.171875 165.480469 47.761719 166.875 48.160156 168.179688 C 48.90625 170.609375 49.863281 173.039062 51.027344 175.460938 L 52.429688 178.378906 C 54.953125 183.625 61.257812 185.839844 66.519531 183.324219 C 71.777344 180.804688 73.996094 174.511719 71.472656 169.265625 L 70.070312 166.34375 C 69.363281 164.875 68.792969 163.425781 68.355469 162.003906 C 67.570312 159.453125 66.484375 156.855469 65.097656 154.210938 C 62.390625 149.054688 56.007812 147.066406 50.84375 149.765625 C 45.675781 152.46875 43.683594 158.835938 46.390625 163.992188 Z M 46.390625 163.992188 " fill-opacity="1" fill-rule="nonzero"/><path fill="#8bc28f" d="M 22.453125 18.894531 C 23.046875 19.644531 23.621094 20.601562 24.171875 21.773438 C 25.035156 23.609375 25.996094 25.726562 27.054688 28.117188 L 28.695312 31.820312 C 31.050781 37.144531 37.285156 39.558594 42.621094 37.207031 C 47.953125 34.855469 50.371094 28.632812 48.015625 23.308594 L 46.378906 19.605469 C 45.25 17.0625 44.222656 14.796875 43.289062 12.8125 C 42.042969 10.167969 40.613281 7.828125 39.007812 5.804688 C 35.382812 1.242188 28.742188 0.476562 24.171875 4.089844 C 19.601562 7.707031 18.832031 14.335938 22.453125 18.894531 Z M 22.453125 18.894531 " fill-opacity="1" fill-rule="nonzero"/><path fill="#8bc28f" d="M 93.894531 173.074219 C 97.628906 179.988281 98.101562 180.863281 95.3125 175.703125 C 94.964844 175.058594 95.515625 176.078125 96.96875 178.761719 L 98.738281 182.035156 C 101.503906 187.15625 107.910156 189.070312 113.042969 186.308594 C 118.175781 183.546875 120.09375 177.152344 117.324219 172.03125 L 115.554688 168.753906 C 115.824219 169.253906 115.273438 168.234375 113.902344 165.695312 C 110.089844 158.640625 109.617188 157.765625 112.484375 163.070312 C 109.714844 157.949219 103.308594 156.035156 98.175781 158.796875 C 93.042969 161.5625 91.125 167.953125 93.894531 173.074219 Z M 93.894531 173.074219 " fill-opacity="1" fill-rule="nonzero"/><path fill="#8bc28f" d="M 4.671875 145.160156 C 6.441406 147.429688 8.085938 149.765625 9.605469 152.167969 L 12.164062 156.207031 C 15.277344 161.128906 21.800781 162.597656 26.730469 159.488281 C 31.660156 156.378906 33.132812 149.871094 30.019531 144.949219 L 27.460938 140.910156 C 25.570312 137.929688 23.53125 135.03125 21.339844 132.21875 C 17.757812 127.625 11.125 126.796875 6.519531 130.371094 C 1.917969 133.945312 1.089844 140.566406 4.671875 145.160156 Z M 4.671875 145.160156 " fill-opacity="1" fill-rule="nonzero"/><path fill="#8bc28f" d="M 1.773438 55.144531 C 2.671875 58.867188 3.59375 62.128906 4.539062 64.933594 C 5.527344 67.875 5.804688 68.691406 5.367188 67.390625 C 5.902344 68.988281 6.414062 70.507812 6.902344 71.953125 C 8.761719 77.46875 14.746094 80.4375 20.277344 78.582031 C 25.804688 76.726562 28.777344 70.753906 26.921875 65.234375 C 26.433594 63.792969 25.921875 62.273438 25.382812 60.675781 C 24.40625 57.773438 24.132812 56.957031 24.558594 58.21875 C 23.808594 56 23.058594 53.332031 22.308594 50.214844 C 20.945312 44.554688 15.242188 41.074219 9.570312 42.433594 C 3.902344 43.796875 0.410156 49.488281 1.773438 55.144531 Z M 1.773438 55.144531 " fill-opacity="1" fill-rule="nonzero"/></g></g></g><g clip-path="url(#be922f7775)"><path fill="#dfb0b0" d="M 81.984375 235.191406 C 77.5625 235.152344 72.695312 234.699219 68.171875 234.867188 C 63.363281 235.054688 58.765625 236.660156 54.046875 237.414062 C 45.722656 238.570312 38.121094 233.007812 33.679688 226.390625 C 30.410156 221.703125 29.195312 215.851562 29.84375 210.183594 C 29.964844 208.289062 30.742188 206.625 31.445312 204.933594 C 32.382812 202.675781 33.425781 200.457031 34.945312 198.515625 C 39.953125 192.433594 47.03125 188.613281 53.003906 183.601562 C 53.589844 183.136719 53.996094 182.535156 54.335938 181.875 C 56.203125 178.027344 58.132812 173.835938 62.226562 171.9375 C 68.894531 168.226562 77.632812 169.296875 83.328125 174.386719 C 84.75 175.683594 85.9375 177.203125 87.375 178.46875 C 91.527344 182.328125 95.628906 187.023438 101.402344 188.25 C 107.515625 188.78125 110.695312 184.226562 117.246094 186.296875 C 123.585938 187.96875 125.730469 195.359375 125.453125 201.25 C 124.980469 206.585938 122.84375 211.664062 119.984375 216.140625 C 110.707031 229.472656 98.117188 235.484375 81.984375 235.191406 Z M 81.984375 235.191406 " fill-opacity="1" fill-rule="nonzero"/></g><g clip-path="url(#2ed3c812d8)"><g transform="matrix(1, 0, 0, 1, 510, 168)"><g clip-path="url(#c3338d2cc6)"><g clip-path="url(#6dcc80ee0f)"><path fill="#dfb0b0" d="M 43.816406 67.191406 C 48.238281 67.152344 53.105469 66.699219 57.632812 66.867188 C 62.4375 67.054688 67.035156 68.660156 71.757812 69.414062 C 80.078125 70.570312 87.683594 65.007812 92.125 58.390625 C 95.394531 53.703125 96.605469 47.851562 95.957031 42.183594 C 95.839844 40.289062 95.0625 38.625 94.359375 36.933594 C 93.421875 34.675781 92.378906 32.457031 90.855469 30.515625 C 85.847656 24.433594 78.769531 20.613281 72.796875 15.601562 C 72.214844 15.136719 71.808594 14.535156 71.464844 13.875 C 69.601562 10.027344 67.667969 5.835938 63.574219 3.9375 C 56.910156 0.226562 48.167969 1.296875 42.472656 6.386719 C 41.050781 7.683594 39.867188 9.203125 38.425781 10.46875 C 34.273438 14.328125 30.171875 19.023438 24.398438 20.25 C 18.285156 20.78125 15.109375 16.226562 8.558594 18.296875 C 2.21875 19.96875 0.0742188 27.359375 0.351562 33.25 C 0.820312 38.585938 2.960938 43.664062 5.816406 48.140625 C 15.097656 61.472656 27.683594 67.484375 43.816406 67.191406 Z M 43.816406 67.191406 " fill-opacity="1" fill-rule="nonzero"/></g></g></g></g><g fill="#000000" fill-opacity="1"><g transform="translate(12.253873, 312.830504)"><g><path d="M 6.5 0 C 5.519531 0 4.765625 -0.257812 4.234375 -0.78125 C 3.710938 -1.300781 3.453125 -2.054688 3.453125 -3.046875 L 3.453125 -28.578125 C 3.453125 -29.566406 3.710938 -30.320312 4.234375 -30.84375 C 4.765625 -31.363281 5.519531 -31.625 6.5 -31.625 L 17.265625 -31.625 C 19.484375 -31.625 21.367188 -31.296875 22.921875 -30.640625 C 24.472656 -29.984375 25.660156 -29.039062 26.484375 -27.8125 C 27.304688 -26.582031 27.71875 -25.117188 27.71875 -23.421875 C 27.71875 -21.503906 27.164062 -19.882812 26.0625 -18.5625 C 24.957031 -17.25 23.445312 -16.367188 21.53125 -15.921875 L 21.53125 -16.59375 C 23.75 -16.269531 25.46875 -15.429688 26.6875 -14.078125 C 27.914062 -12.734375 28.53125 -10.988281 28.53125 -8.84375 C 28.53125 -6.03125 27.578125 -3.851562 25.671875 -2.3125 C 23.773438 -0.769531 21.140625 0 17.765625 0 Z M 8.96875 -4.34375 L 17.046875 -4.34375 C 19.078125 -4.34375 20.570312 -4.738281 21.53125 -5.53125 C 22.488281 -6.332031 22.96875 -7.523438 22.96875 -9.109375 C 22.96875 -10.722656 22.488281 -11.914062 21.53125 -12.6875 C 20.570312 -13.46875 19.078125 -13.859375 17.046875 -13.859375 L 8.96875 -13.859375 Z M 8.96875 -18.21875 L 16.28125 -18.21875 C 18.257812 -18.21875 19.734375 -18.597656 20.703125 -19.359375 C 21.671875 -20.117188 22.15625 -21.25 22.15625 -22.75 C 22.15625 -24.238281 21.671875 -25.363281 20.703125 -26.125 C 19.734375 -26.894531 18.257812 -27.28125 16.28125 -27.28125 L 8.96875 -27.28125 Z M 8.96875 -18.21875 "/></g></g></g><g fill="#000000" fill-opacity="1"><g transform="translate(269.125111, 307.193803)"><g><path d="M 11.71875 0.296875 C 9.601562 0.296875 7.785156 -0.128906 6.265625 -0.984375 C 4.753906 -1.847656 3.59375 -3.066406 2.78125 -4.640625 C 1.96875 -6.210938 1.5625 -8.070312 1.5625 -10.21875 C 1.5625 -11.820312 1.789062 -13.265625 2.25 -14.546875 C 2.71875 -15.828125 3.382812 -16.925781 4.25 -17.84375 C 5.125 -18.757812 6.191406 -19.460938 7.453125 -19.953125 C 8.722656 -20.453125 10.144531 -20.703125 11.71875 -20.703125 C 12.78125 -20.703125 13.820312 -20.566406 14.84375 -20.296875 C 15.875 -20.023438 16.773438 -19.640625 17.546875 -19.140625 C 17.953125 -18.890625 18.222656 -18.582031 18.359375 -18.21875 C 18.492188 -17.863281 18.519531 -17.515625 18.4375 -17.171875 C 18.363281 -16.835938 18.207031 -16.554688 17.96875 -16.328125 C 17.726562 -16.097656 17.425781 -15.96875 17.0625 -15.9375 C 16.707031 -15.90625 16.316406 -16.023438 15.890625 -16.296875 C 15.296875 -16.679688 14.648438 -16.960938 13.953125 -17.140625 C 13.253906 -17.316406 12.550781 -17.40625 11.84375 -17.40625 C 10.46875 -17.40625 9.304688 -17.125 8.359375 -16.5625 C 7.421875 -16 6.707031 -15.1875 6.21875 -14.125 C 5.738281 -13.0625 5.5 -11.757812 5.5 -10.21875 C 5.5 -8.695312 5.738281 -7.394531 6.21875 -6.3125 C 6.707031 -5.226562 7.421875 -4.40625 8.359375 -3.84375 C 9.304688 -3.289062 10.46875 -3.015625 11.84375 -3.015625 C 12.570312 -3.015625 13.289062 -3.101562 14 -3.28125 C 14.71875 -3.46875 15.398438 -3.753906 16.046875 -4.140625 C 16.460938 -4.390625 16.835938 -4.5 17.171875 -4.46875 C 17.515625 -4.445312 17.800781 -4.328125 18.03125 -4.109375 C 18.269531 -3.898438 18.425781 -3.632812 18.5 -3.3125 C 18.570312 -3 18.550781 -2.671875 18.4375 -2.328125 C 18.320312 -1.992188 18.09375 -1.703125 17.75 -1.453125 C 16.976562 -0.890625 16.054688 -0.457031 14.984375 -0.15625 C 13.910156 0.144531 12.820312 0.296875 11.71875 0.296875 Z M 11.71875 0.296875 "/></g></g></g><g fill="#000000" fill-opacity="1"><g transform="translate(287.79107, 307.193803)"><g><path d="M 8.859375 0.296875 C 7.253906 0.296875 5.875 0 4.71875 -0.59375 C 3.5625 -1.195312 2.664062 -2.050781 2.03125 -3.15625 C 1.40625 -4.257812 1.09375 -5.5625 1.09375 -7.0625 C 1.09375 -8.53125 1.394531 -9.8125 2 -10.90625 C 2.613281 -12.007812 3.457031 -12.875 4.53125 -13.5 C 5.601562 -14.132812 6.820312 -14.453125 8.1875 -14.453125 C 9.195312 -14.453125 10.101562 -14.285156 10.90625 -13.953125 C 11.707031 -13.628906 12.390625 -13.15625 12.953125 -12.53125 C 13.523438 -11.914062 13.957031 -11.164062 14.25 -10.28125 C 14.550781 -9.40625 14.703125 -8.421875 14.703125 -7.328125 C 14.703125 -6.972656 14.582031 -6.703125 14.34375 -6.515625 C 14.101562 -6.335938 13.757812 -6.25 13.3125 -6.25 L 4.03125 -6.25 L 4.03125 -8.34375 L 12.15625 -8.34375 L 11.703125 -7.90625 C 11.703125 -8.789062 11.570312 -9.53125 11.3125 -10.125 C 11.050781 -10.726562 10.671875 -11.1875 10.171875 -11.5 C 9.679688 -11.820312 9.070312 -11.984375 8.34375 -11.984375 C 7.53125 -11.984375 6.835938 -11.796875 6.265625 -11.421875 C 5.703125 -11.046875 5.269531 -10.515625 4.96875 -9.828125 C 4.664062 -9.140625 4.515625 -8.328125 4.515625 -7.390625 L 4.515625 -7.1875 C 4.515625 -5.601562 4.882812 -4.421875 5.625 -3.640625 C 6.375 -2.859375 7.472656 -2.46875 8.921875 -2.46875 C 9.421875 -2.46875 9.984375 -2.53125 10.609375 -2.65625 C 11.234375 -2.78125 11.828125 -2.992188 12.390625 -3.296875 C 12.796875 -3.523438 13.148438 -3.625 13.453125 -3.59375 C 13.765625 -3.570312 14.007812 -3.460938 14.1875 -3.265625 C 14.375 -3.078125 14.488281 -2.84375 14.53125 -2.5625 C 14.570312 -2.28125 14.519531 -1.992188 14.375 -1.703125 C 14.226562 -1.421875 13.984375 -1.171875 13.640625 -0.953125 C 12.960938 -0.523438 12.179688 -0.207031 11.296875 0 C 10.421875 0.195312 9.609375 0.296875 8.859375 0.296875 Z M 8.859375 0.296875 "/></g></g></g><g fill="#000000" fill-opacity="1"><g transform="translate(303.476444, 307.193803)"><g><path d="M 3.734375 0.234375 C 3.140625 0.234375 2.679688 0.078125 2.359375 -0.234375 C 2.035156 -0.554688 1.875 -1.019531 1.875 -1.625 L 1.875 -12.5625 C 1.875 -13.164062 2.03125 -13.617188 2.34375 -13.921875 C 2.65625 -14.234375 3.085938 -14.390625 3.640625 -14.390625 C 4.203125 -14.390625 4.640625 -14.234375 4.953125 -13.921875 C 5.265625 -13.617188 5.421875 -13.164062 5.421875 -12.5625 L 5.421875 -10.734375 L 5.125 -10.734375 C 5.394531 -11.898438 5.925781 -12.78125 6.71875 -13.375 C 7.507812 -13.976562 8.5625 -14.335938 9.875 -14.453125 C 10.28125 -14.484375 10.601562 -14.378906 10.84375 -14.140625 C 11.082031 -13.898438 11.222656 -13.53125 11.265625 -13.03125 C 11.304688 -12.550781 11.191406 -12.160156 10.921875 -11.859375 C 10.660156 -11.554688 10.269531 -11.378906 9.75 -11.328125 L 9.125 -11.265625 C 7.945312 -11.148438 7.054688 -10.785156 6.453125 -10.171875 C 5.859375 -9.566406 5.5625 -8.710938 5.5625 -7.609375 L 5.5625 -1.625 C 5.5625 -1.019531 5.40625 -0.554688 5.09375 -0.234375 C 4.78125 0.078125 4.328125 0.234375 3.734375 0.234375 Z M 3.734375 0.234375 "/></g></g></g><g fill="#000000" fill-opacity="1"><g transform="translate(314.820846, 307.193803)"><g><path d="M 3.734375 0.234375 C 3.148438 0.234375 2.703125 0.078125 2.390625 -0.234375 C 2.085938 -0.554688 1.9375 -1.019531 1.9375 -1.625 L 1.9375 -12.5625 C 1.9375 -13.164062 2.085938 -13.617188 2.390625 -13.921875 C 2.703125 -14.234375 3.140625 -14.390625 3.703125 -14.390625 C 4.265625 -14.390625 4.695312 -14.234375 5 -13.921875 C 5.3125 -13.617188 5.46875 -13.164062 5.46875 -12.5625 L 5.46875 -10.453125 L 5.15625 -11.328125 C 5.539062 -12.285156 6.140625 -13.046875 6.953125 -13.609375 C 7.765625 -14.171875 8.726562 -14.453125 9.84375 -14.453125 C 10.976562 -14.453125 11.910156 -14.179688 12.640625 -13.640625 C 13.378906 -13.097656 13.894531 -12.265625 14.1875 -11.140625 L 13.78125 -11.140625 C 14.164062 -12.171875 14.800781 -12.976562 15.6875 -13.5625 C 16.582031 -14.15625 17.609375 -14.453125 18.765625 -14.453125 C 19.847656 -14.453125 20.738281 -14.238281 21.4375 -13.8125 C 22.144531 -13.382812 22.671875 -12.738281 23.015625 -11.875 C 23.359375 -11.019531 23.53125 -9.9375 23.53125 -8.625 L 23.53125 -1.625 C 23.53125 -1.019531 23.367188 -0.554688 23.046875 -0.234375 C 22.734375 0.078125 22.289062 0.234375 21.71875 0.234375 C 21.132812 0.234375 20.6875 0.078125 20.375 -0.234375 C 20.070312 -0.554688 19.921875 -1.019531 19.921875 -1.625 L 19.921875 -8.484375 C 19.921875 -9.566406 19.738281 -10.359375 19.375 -10.859375 C 19.019531 -11.359375 18.421875 -11.609375 17.578125 -11.609375 C 16.628906 -11.609375 15.882812 -11.273438 15.34375 -10.609375 C 14.800781 -9.941406 14.53125 -9.019531 14.53125 -7.84375 L 14.53125 -1.625 C 14.53125 -1.019531 14.375 -0.554688 14.0625 -0.234375 C 13.757812 0.078125 13.316406 0.234375 12.734375 0.234375 C 12.160156 0.234375 11.710938 0.078125 11.390625 -0.234375 C 11.078125 -0.554688 10.921875 -1.019531 10.921875 -1.625 L 10.921875 -8.484375 C 10.921875 -9.566406 10.738281 -10.359375 10.375 -10.859375 C 10.019531 -11.359375 9.425781 -11.609375 8.59375 -11.609375 C 7.65625 -11.609375 6.914062 -11.273438 6.375 -10.609375 C 5.832031 -9.941406 5.5625 -9.019531 5.5625 -7.84375 L 5.5625 -1.625 C 5.5625 -0.382812 4.953125 0.234375 3.734375 0.234375 Z M 3.734375 0.234375 "/></g></g></g><g fill="#000000" fill-opacity="1"><g transform="translate(340.201055, 307.193803)"><g><path d="M 3.671875 0.203125 C 3.097656 0.203125 2.65625 0.03125 2.34375 -0.3125 C 2.03125 -0.664062 1.875 -1.148438 1.875 -1.765625 L 1.875 -12.390625 C 1.875 -13.023438 2.03125 -13.507812 2.34375 -13.84375 C 2.65625 -14.1875 3.097656 -14.359375 3.671875 -14.359375 C 4.253906 -14.359375 4.703125 -14.1875 5.015625 -13.84375 C 5.335938 -13.507812 5.5 -13.023438 5.5 -12.390625 L 5.5 -1.765625 C 5.5 -1.148438 5.34375 -0.664062 5.03125 -0.3125 C 4.726562 0.03125 4.273438 0.203125 3.671875 0.203125 Z M 3.671875 -17.046875 C 2.992188 -17.046875 2.46875 -17.210938 2.09375 -17.546875 C 1.71875 -17.890625 1.53125 -18.363281 1.53125 -18.96875 C 1.53125 -19.582031 1.71875 -20.050781 2.09375 -20.375 C 2.46875 -20.707031 2.992188 -20.875 3.671875 -20.875 C 4.367188 -20.875 4.898438 -20.707031 5.265625 -20.375 C 5.628906 -20.050781 5.8125 -19.582031 5.8125 -18.96875 C 5.8125 -18.363281 5.628906 -17.890625 5.265625 -17.546875 C 4.898438 -17.210938 4.367188 -17.046875 3.671875 -17.046875 Z M 3.671875 -17.046875 "/></g></g></g><g fill="#000000" fill-opacity="1"><g transform="translate(347.580711, 307.193803)"><g><path d="M 3.671875 0.234375 C 3.097656 0.234375 2.65625 0.078125 2.34375 -0.234375 C 2.03125 -0.554688 1.875 -1.019531 1.875 -1.625 L 1.875 -12.5625 C 1.875 -13.164062 2.03125 -13.617188 2.34375 -13.921875 C 2.65625 -14.234375 3.085938 -14.390625 3.640625 -14.390625 C 4.203125 -14.390625 4.640625 -14.234375 4.953125 -13.921875 C 5.265625 -13.617188 5.421875 -13.164062 5.421875 -12.5625 L 5.421875 -10.59375 L 5.09375 -11.328125 C 5.519531 -12.347656 6.179688 -13.125 7.078125 -13.65625 C 7.972656 -14.1875 8.992188 -14.453125 10.140625 -14.453125 C 11.273438 -14.453125 12.207031 -14.238281 12.9375 -13.8125 C 13.675781 -13.382812 14.226562 -12.738281 14.59375 -11.875 C 14.957031 -11.019531 15.140625 -9.9375 15.140625 -8.625 L 15.140625 -1.625 C 15.140625 -1.019531 14.984375 -0.554688 14.671875 -0.234375 C 14.367188 0.078125 13.925781 0.234375 13.34375 0.234375 C 12.769531 0.234375 12.320312 0.078125 12 -0.234375 C 11.675781 -0.554688 11.515625 -1.019531 11.515625 -1.625 L 11.515625 -8.453125 C 11.515625 -9.554688 11.304688 -10.359375 10.890625 -10.859375 C 10.484375 -11.359375 9.84375 -11.609375 8.96875 -11.609375 C 7.914062 -11.609375 7.070312 -11.273438 6.4375 -10.609375 C 5.8125 -9.941406 5.5 -9.0625 5.5 -7.96875 L 5.5 -1.625 C 5.5 -0.382812 4.890625 0.234375 3.671875 0.234375 Z M 3.671875 0.234375 "/></g></g></g></svg>