<svg xmlns="http://www.w3.org/2000/svg" xmlns:xlink="http://www.w3.org/1999/xlink" width="226" zoomAndPan="magnify" viewBox="0 0 169.5 173.999997" height="232" preserveAspectRatio="xMidYMid meet" version="1.0"><defs><g/><clipPath id="ea47ebaa56"><path d="M 12.011719 14.535156 L 156.328125 14.535156 L 156.328125 158.859375 L 12.011719 158.859375 Z M 12.011719 14.535156 " clip-rule="nonzero"/></clipPath></defs><g clip-path="url(#ea47ebaa56)"><path stroke-linecap="butt" transform="matrix(0.747794, 0, 0, 0.747794, 12.010207, 14.536392)" fill="none" stroke-linejoin="miter" d="M 0.00202108 -0.00165201 L 193.205679 -0.00165201 L 193.205679 193.154993 L 0.00202108 193.154993 Z M 0.00202108 -0.00165201 " stroke="#000000" stroke-width="12" stroke-opacity="1" stroke-miterlimit="4"/></g><g fill="#000000" fill-opacity="1"><g transform="translate(28.187623, 119.664444)"><g><path d="M 45.515625 -26.140625 L 53.390625 -26.140625 L 53.390625 -15.03125 L 45.515625 -15.03125 L 45.515625 0 L 31.71875 0 L 31.71875 -15.03125 L 3.25 -15.03125 L 2.625 -23.703125 L 31.578125 -69.453125 L 45.515625 -69.453125 Z M 16.359375 -26.140625 L 31.71875 -26.140625 L 31.71875 -50.671875 L 30.8125 -49.09375 Z M 16.359375 -26.140625 "/></g></g></g><g fill="#000000" fill-opacity="1"><g transform="translate(84.243369, 119.664444)"><g><path d="M 51.46875 -28.71875 C 51.46875 -19.113281 49.476562 -11.765625 45.5 -6.671875 C 41.53125 -1.585938 35.710938 0.953125 28.046875 0.953125 C 20.484375 0.953125 14.695312 -1.539062 10.6875 -6.53125 C 6.675781 -11.53125 4.625 -18.6875 4.53125 -28 L 4.53125 -40.796875 C 4.53125 -50.492188 6.539062 -57.851562 10.5625 -62.875 C 14.59375 -67.90625 20.390625 -70.421875 27.953125 -70.421875 C 35.523438 -70.421875 41.3125 -67.929688 45.3125 -62.953125 C 49.320312 -57.972656 51.375 -50.820312 51.46875 -41.5 Z M 37.6875 -42.75 C 37.6875 -48.5 36.898438 -52.6875 35.328125 -55.3125 C 33.753906 -57.9375 31.296875 -59.25 27.953125 -59.25 C 24.710938 -59.25 22.320312 -58 20.78125 -55.5 C 19.238281 -53.007812 18.414062 -49.109375 18.3125 -43.796875 L 18.3125 -26.90625 C 18.3125 -21.25 19.082031 -17.039062 20.625 -14.28125 C 22.175781 -11.53125 24.648438 -10.15625 28.046875 -10.15625 C 31.421875 -10.15625 33.851562 -11.472656 35.34375 -14.109375 C 36.84375 -16.753906 37.625 -20.796875 37.6875 -26.234375 Z M 37.6875 -42.75 "/></g></g></g></svg>