<svg xmlns="http://www.w3.org/2000/svg" xmlns:xlink="http://www.w3.org/1999/xlink" width="866" zoomAndPan="magnify" viewBox="0 0 649.5 153.750002" height="205" preserveAspectRatio="xMidYMid meet" version="1.0"><defs><g/><clipPath id="1f4cbe27bd"><path d="M 0.277344 0 L 647.972656 0 L 647.972656 153.230469 L 0.277344 153.230469 Z M 0.277344 0 " clip-rule="nonzero"/></clipPath></defs><g clip-path="url(#1f4cbe27bd)"><path stroke-linecap="butt" transform="matrix(0.748782, 0, 0, 0.748782, 0.277593, 0.000316106)" fill="none" stroke-linejoin="miter" d="M -0.000333117 -0.00042216 L 865.091562 -0.00042216 L 865.091562 204.639082 L -0.000333117 204.639082 Z M -0.000333117 -0.00042216 " stroke="#000000" stroke-width="12" stroke-opacity="1" stroke-miterlimit="4"/></g><g fill="#000000" fill-opacity="1"><g transform="translate(31.251683, 66.014232)"><g><path d="M 7.03125 0.40625 C 6 0.40625 5.207031 0.113281 4.65625 -0.46875 C 4.113281 -1.050781 3.84375 -1.859375 3.84375 -2.890625 L 3.84375 -31.9375 C 3.84375 -33 4.125 -33.804688 4.6875 -34.359375 C 5.257812 -34.910156 6.0625 -35.1875 7.09375 -35.1875 L 19.109375 -35.1875 C 22.972656 -35.1875 25.953125 -34.21875 28.046875 -32.28125 C 30.140625 -30.351562 31.1875 -27.660156 31.1875 -24.203125 C 31.1875 -20.742188 30.140625 -18.039062 28.046875 -16.09375 C 25.953125 -14.144531 22.972656 -13.171875 19.109375 -13.171875 L 10.234375 -13.171875 L 10.234375 -2.890625 C 10.234375 -1.859375 9.96875 -1.050781 9.4375 -0.46875 C 8.90625 0.113281 8.101562 0.40625 7.03125 0.40625 Z M 10.234375 -18.21875 L 18.109375 -18.21875 C 20.378906 -18.21875 22.09375 -18.722656 23.25 -19.734375 C 24.414062 -20.753906 25 -22.242188 25 -24.203125 C 25 -26.171875 24.414062 -27.648438 23.25 -28.640625 C 22.09375 -29.640625 20.378906 -30.140625 18.109375 -30.140625 L 10.234375 -30.140625 Z M 10.234375 -18.21875 "/></g></g></g><g fill="#000000" fill-opacity="1"><g transform="translate(63.793728, 66.014232)"><g><path d="M 15.265625 0.5 C 12.503906 0.5 10.125 -0.015625 8.125 -1.046875 C 6.132812 -2.078125 4.597656 -3.539062 3.515625 -5.4375 C 2.429688 -7.332031 1.890625 -9.578125 1.890625 -12.171875 C 1.890625 -14.703125 2.414062 -16.914062 3.46875 -18.8125 C 4.519531 -20.707031 5.96875 -22.195312 7.8125 -23.28125 C 9.65625 -24.363281 11.757812 -24.90625 14.125 -24.90625 C 15.851562 -24.90625 17.40625 -24.617188 18.78125 -24.046875 C 20.164062 -23.484375 21.347656 -22.671875 22.328125 -21.609375 C 23.316406 -20.546875 24.066406 -19.253906 24.578125 -17.734375 C 25.097656 -16.222656 25.359375 -14.519531 25.359375 -12.625 C 25.359375 -12.03125 25.148438 -11.570312 24.734375 -11.25 C 24.316406 -10.9375 23.722656 -10.78125 22.953125 -10.78125 L 6.9375 -10.78125 L 6.9375 -14.375 L 20.953125 -14.375 L 20.15625 -13.625 C 20.15625 -15.15625 19.929688 -16.4375 19.484375 -17.46875 C 19.035156 -18.5 18.382812 -19.285156 17.53125 -19.828125 C 16.6875 -20.378906 15.632812 -20.65625 14.375 -20.65625 C 12.976562 -20.65625 11.785156 -20.332031 10.796875 -19.6875 C 9.816406 -19.039062 9.066406 -18.125 8.546875 -16.9375 C 8.035156 -15.757812 7.78125 -14.351562 7.78125 -12.71875 L 7.78125 -12.375 C 7.78125 -9.644531 8.421875 -7.601562 9.703125 -6.25 C 10.984375 -4.90625 12.875 -4.234375 15.375 -4.234375 C 16.238281 -4.234375 17.207031 -4.34375 18.28125 -4.5625 C 19.363281 -4.78125 20.390625 -5.15625 21.359375 -5.6875 C 22.054688 -6.082031 22.671875 -6.253906 23.203125 -6.203125 C 23.734375 -6.160156 24.15625 -5.972656 24.46875 -5.640625 C 24.789062 -5.304688 24.984375 -4.894531 25.046875 -4.40625 C 25.117188 -3.925781 25.03125 -3.4375 24.78125 -2.9375 C 24.53125 -2.445312 24.101562 -2.015625 23.5 -1.640625 C 22.34375 -0.910156 21.003906 -0.367188 19.484375 -0.015625 C 17.972656 0.328125 16.566406 0.5 15.265625 0.5 Z M 15.265625 0.5 "/></g></g></g><g fill="#000000" fill-opacity="1"><g transform="translate(90.84555, 66.014232)"><g><path d="M 6.34375 0.40625 C 5.34375 0.40625 4.578125 0.128906 4.046875 -0.421875 C 3.515625 -0.972656 3.25 -1.765625 3.25 -2.796875 L 3.25 -21.65625 C 3.25 -22.6875 3.515625 -23.46875 4.046875 -24 C 4.578125 -24.53125 5.320312 -24.796875 6.28125 -24.796875 C 7.25 -24.796875 8 -24.53125 8.53125 -24 C 9.0625 -23.46875 9.328125 -22.6875 9.328125 -21.65625 L 9.328125 -18.265625 L 8.78125 -19.515625 C 9.507812 -21.273438 10.644531 -22.613281 12.1875 -23.53125 C 13.738281 -24.445312 15.5 -24.90625 17.46875 -24.90625 C 19.425781 -24.90625 21.035156 -24.535156 22.296875 -23.796875 C 23.566406 -23.066406 24.515625 -21.960938 25.140625 -20.484375 C 25.773438 -19.003906 26.09375 -17.132812 26.09375 -14.875 L 26.09375 -2.796875 C 26.09375 -1.765625 25.828125 -0.972656 25.296875 -0.421875 C 24.765625 0.128906 24 0.40625 23 0.40625 C 22.007812 0.40625 21.238281 0.128906 20.6875 -0.421875 C 20.132812 -0.972656 19.859375 -1.765625 19.859375 -2.796875 L 19.859375 -14.578125 C 19.859375 -16.472656 19.5 -17.851562 18.78125 -18.71875 C 18.070312 -19.582031 16.96875 -20.015625 15.46875 -20.015625 C 13.632812 -20.015625 12.175781 -19.4375 11.09375 -18.28125 C 10.019531 -17.132812 9.484375 -15.613281 9.484375 -13.71875 L 9.484375 -2.796875 C 9.484375 -0.660156 8.4375 0.40625 6.34375 0.40625 Z M 6.34375 0.40625 "/></g></g></g><g fill="#000000" fill-opacity="1"><g transform="translate(120.043553, 66.014232)"><g><path d="M 14.515625 0.5 C 11.960938 0.5 9.734375 -0.0195312 7.828125 -1.0625 C 5.929688 -2.113281 4.46875 -3.601562 3.4375 -5.53125 C 2.40625 -7.46875 1.890625 -9.734375 1.890625 -12.328125 C 1.890625 -14.285156 2.179688 -16.035156 2.765625 -17.578125 C 3.347656 -19.128906 4.1875 -20.445312 5.28125 -21.53125 C 6.382812 -22.613281 7.71875 -23.445312 9.28125 -24.03125 C 10.84375 -24.613281 12.585938 -24.90625 14.515625 -24.90625 C 15.617188 -24.90625 16.8125 -24.753906 18.09375 -24.453125 C 19.375 -24.148438 20.578125 -23.648438 21.703125 -22.953125 C 22.234375 -22.617188 22.582031 -22.21875 22.75 -21.75 C 22.914062 -21.289062 22.945312 -20.816406 22.84375 -20.328125 C 22.75 -19.847656 22.546875 -19.429688 22.234375 -19.078125 C 21.921875 -18.734375 21.53125 -18.519531 21.0625 -18.4375 C 20.59375 -18.351562 20.078125 -18.460938 19.515625 -18.765625 C 18.785156 -19.191406 18.035156 -19.515625 17.265625 -19.734375 C 16.503906 -19.953125 15.773438 -20.0625 15.078125 -20.0625 C 13.972656 -20.0625 13.003906 -19.882812 12.171875 -19.53125 C 11.335938 -19.1875 10.628906 -18.6875 10.046875 -18.03125 C 9.472656 -17.382812 9.035156 -16.578125 8.734375 -15.609375 C 8.429688 -14.648438 8.28125 -13.539062 8.28125 -12.28125 C 8.28125 -9.8125 8.867188 -7.867188 10.046875 -6.453125 C 11.234375 -5.046875 12.910156 -4.34375 15.078125 -4.34375 C 15.773438 -4.34375 16.492188 -4.441406 17.234375 -4.640625 C 17.984375 -4.835938 18.742188 -5.15625 19.515625 -5.59375 C 20.078125 -5.882812 20.582031 -5.976562 21.03125 -5.875 C 21.476562 -5.78125 21.851562 -5.554688 22.15625 -5.203125 C 22.457031 -4.859375 22.640625 -4.445312 22.703125 -3.96875 C 22.773438 -3.488281 22.71875 -3.015625 22.53125 -2.546875 C 22.351562 -2.078125 22.015625 -1.691406 21.515625 -1.390625 C 20.410156 -0.734375 19.242188 -0.253906 18.015625 0.046875 C 16.785156 0.347656 15.617188 0.5 14.515625 0.5 Z M 14.515625 0.5 "/></g></g></g><g fill="#000000" fill-opacity="1"><g transform="translate(143.60159, 66.014232)"><g><path d="M 15.265625 0.5 C 12.503906 0.5 10.125 -0.015625 8.125 -1.046875 C 6.132812 -2.078125 4.597656 -3.539062 3.515625 -5.4375 C 2.429688 -7.332031 1.890625 -9.578125 1.890625 -12.171875 C 1.890625 -14.703125 2.414062 -16.914062 3.46875 -18.8125 C 4.519531 -20.707031 5.96875 -22.195312 7.8125 -23.28125 C 9.65625 -24.363281 11.757812 -24.90625 14.125 -24.90625 C 15.851562 -24.90625 17.40625 -24.617188 18.78125 -24.046875 C 20.164062 -23.484375 21.347656 -22.671875 22.328125 -21.609375 C 23.316406 -20.546875 24.066406 -19.253906 24.578125 -17.734375 C 25.097656 -16.222656 25.359375 -14.519531 25.359375 -12.625 C 25.359375 -12.03125 25.148438 -11.570312 24.734375 -11.25 C 24.316406 -10.9375 23.722656 -10.78125 22.953125 -10.78125 L 6.9375 -10.78125 L 6.9375 -14.375 L 20.953125 -14.375 L 20.15625 -13.625 C 20.15625 -15.15625 19.929688 -16.4375 19.484375 -17.46875 C 19.035156 -18.5 18.382812 -19.285156 17.53125 -19.828125 C 16.6875 -20.378906 15.632812 -20.65625 14.375 -20.65625 C 12.976562 -20.65625 11.785156 -20.332031 10.796875 -19.6875 C 9.816406 -19.039062 9.066406 -18.125 8.546875 -16.9375 C 8.035156 -15.757812 7.78125 -14.351562 7.78125 -12.71875 L 7.78125 -12.375 C 7.78125 -9.644531 8.421875 -7.601562 9.703125 -6.25 C 10.984375 -4.90625 12.875 -4.234375 15.375 -4.234375 C 16.238281 -4.234375 17.207031 -4.34375 18.28125 -4.5625 C 19.363281 -4.78125 20.390625 -5.15625 21.359375 -5.6875 C 22.054688 -6.082031 22.671875 -6.253906 23.203125 -6.203125 C 23.734375 -6.160156 24.15625 -5.972656 24.46875 -5.640625 C 24.789062 -5.304688 24.984375 -4.894531 25.046875 -4.40625 C 25.117188 -3.925781 25.03125 -3.4375 24.78125 -2.9375 C 24.53125 -2.445312 24.101562 -2.015625 23.5 -1.640625 C 22.34375 -0.910156 21.003906 -0.367188 19.484375 -0.015625 C 17.972656 0.328125 16.566406 0.5 15.265625 0.5 Z M 15.265625 0.5 "/></g></g></g><g fill="#000000" fill-opacity="1"><g transform="translate(170.653413, 66.014232)"><g><path d="M 6.4375 0.40625 C 5.40625 0.40625 4.613281 0.128906 4.0625 -0.421875 C 3.519531 -0.972656 3.25 -1.765625 3.25 -2.796875 L 3.25 -21.65625 C 3.25 -22.6875 3.515625 -23.46875 4.046875 -24 C 4.578125 -24.53125 5.320312 -24.796875 6.28125 -24.796875 C 7.25 -24.796875 8 -24.53125 8.53125 -24 C 9.0625 -23.46875 9.328125 -22.6875 9.328125 -21.65625 L 9.328125 -18.515625 L 8.828125 -18.515625 C 9.296875 -20.515625 10.210938 -22.03125 11.578125 -23.0625 C 12.941406 -24.09375 14.753906 -24.707031 17.015625 -24.90625 C 17.710938 -24.96875 18.269531 -24.789062 18.6875 -24.375 C 19.101562 -23.957031 19.34375 -23.316406 19.40625 -22.453125 C 19.476562 -21.617188 19.289062 -20.941406 18.84375 -20.421875 C 18.394531 -19.910156 17.71875 -19.609375 16.8125 -19.515625 L 15.71875 -19.40625 C 13.6875 -19.207031 12.15625 -18.582031 11.125 -17.53125 C 10.09375 -16.488281 9.578125 -15.019531 9.578125 -13.125 L 9.578125 -2.796875 C 9.578125 -1.765625 9.3125 -0.972656 8.78125 -0.421875 C 8.25 0.128906 7.46875 0.40625 6.4375 0.40625 Z M 6.4375 0.40625 "/></g></g></g><g fill="#000000" fill-opacity="1"><g transform="translate(190.218565, 66.014232)"><g><path d="M 6.4375 0.40625 C 5.4375 0.40625 4.671875 0.128906 4.140625 -0.421875 C 3.609375 -0.972656 3.34375 -1.765625 3.34375 -2.796875 L 3.34375 -21.65625 C 3.34375 -22.6875 3.609375 -23.46875 4.140625 -24 C 4.671875 -24.53125 5.421875 -24.796875 6.390625 -24.796875 C 7.347656 -24.796875 8.09375 -24.53125 8.625 -24 C 9.164062 -23.46875 9.4375 -22.6875 9.4375 -21.65625 L 9.4375 -18.015625 L 8.890625 -19.515625 C 9.546875 -21.179688 10.570312 -22.492188 11.96875 -23.453125 C 13.375 -24.421875 15.039062 -24.90625 16.96875 -24.90625 C 18.925781 -24.90625 20.535156 -24.4375 21.796875 -23.5 C 23.066406 -22.570312 23.953125 -21.144531 24.453125 -19.21875 L 23.75 -19.21875 C 24.414062 -20.976562 25.515625 -22.363281 27.046875 -23.375 C 28.578125 -24.394531 30.34375 -24.90625 32.34375 -24.90625 C 34.207031 -24.90625 35.742188 -24.535156 36.953125 -23.796875 C 38.171875 -23.066406 39.078125 -21.960938 39.671875 -20.484375 C 40.273438 -19.003906 40.578125 -17.132812 40.578125 -14.875 L 40.578125 -2.796875 C 40.578125 -1.765625 40.300781 -0.972656 39.75 -0.421875 C 39.195312 0.128906 38.425781 0.40625 37.4375 0.40625 C 36.4375 0.40625 35.664062 0.128906 35.125 -0.421875 C 34.59375 -0.972656 34.328125 -1.765625 34.328125 -2.796875 L 34.328125 -14.625 C 34.328125 -16.488281 34.019531 -17.851562 33.40625 -18.71875 C 32.789062 -19.582031 31.753906 -20.015625 30.296875 -20.015625 C 28.660156 -20.015625 27.375 -19.4375 26.4375 -18.28125 C 25.507812 -17.132812 25.046875 -15.550781 25.046875 -13.53125 L 25.046875 -2.796875 C 25.046875 -1.765625 24.78125 -0.972656 24.25 -0.421875 C 23.71875 0.128906 22.953125 0.40625 21.953125 0.40625 C 20.960938 0.40625 20.191406 0.128906 19.640625 -0.421875 C 19.085938 -0.972656 18.8125 -1.765625 18.8125 -2.796875 L 18.8125 -14.625 C 18.8125 -16.488281 18.503906 -17.851562 17.890625 -18.71875 C 17.273438 -19.582031 16.253906 -20.015625 14.828125 -20.015625 C 13.191406 -20.015625 11.90625 -19.4375 10.96875 -18.28125 C 10.039062 -17.132812 9.578125 -15.550781 9.578125 -13.53125 L 9.578125 -2.796875 C 9.578125 -0.660156 8.53125 0.40625 6.4375 0.40625 Z M 6.4375 0.40625 "/></g></g></g><g fill="#000000" fill-opacity="1"><g transform="translate(233.99061, 66.014232)"><g><path d="M 6.34375 0.34375 C 5.34375 0.34375 4.578125 0.046875 4.046875 -0.546875 C 3.515625 -1.148438 3.25 -1.984375 3.25 -3.046875 L 3.25 -21.359375 C 3.25 -22.453125 3.515625 -23.289062 4.046875 -23.875 C 4.578125 -24.457031 5.34375 -24.75 6.34375 -24.75 C 7.332031 -24.75 8.101562 -24.457031 8.65625 -23.875 C 9.207031 -23.289062 9.484375 -22.453125 9.484375 -21.359375 L 9.484375 -3.046875 C 9.484375 -1.984375 9.21875 -1.148438 8.6875 -0.546875 C 8.15625 0.046875 7.375 0.34375 6.34375 0.34375 Z M 6.34375 -29.390625 C 5.175781 -29.390625 4.265625 -29.679688 3.609375 -30.265625 C 2.960938 -30.847656 2.640625 -31.65625 2.640625 -32.6875 C 2.640625 -33.75 2.960938 -34.5625 3.609375 -35.125 C 4.265625 -35.695312 5.175781 -35.984375 6.34375 -35.984375 C 7.539062 -35.984375 8.453125 -35.695312 9.078125 -35.125 C 9.710938 -34.5625 10.03125 -33.75 10.03125 -32.6875 C 10.03125 -31.65625 9.710938 -30.847656 9.078125 -30.265625 C 8.453125 -29.679688 7.539062 -29.390625 6.34375 -29.390625 Z M 6.34375 -29.390625 "/></g></g></g><g fill="#000000" fill-opacity="1"><g transform="translate(246.717946, 66.014232)"><g><path d="M 6.34375 0.40625 C 5.34375 0.40625 4.578125 0.128906 4.046875 -0.421875 C 3.515625 -0.972656 3.25 -1.765625 3.25 -2.796875 L 3.25 -21.65625 C 3.25 -22.6875 3.515625 -23.46875 4.046875 -24 C 4.578125 -24.53125 5.320312 -24.796875 6.28125 -24.796875 C 7.25 -24.796875 8 -24.53125 8.53125 -24 C 9.0625 -23.46875 9.328125 -22.6875 9.328125 -21.65625 L 9.328125 -18.265625 L 8.78125 -19.515625 C 9.507812 -21.273438 10.644531 -22.613281 12.1875 -23.53125 C 13.738281 -24.445312 15.5 -24.90625 17.46875 -24.90625 C 19.425781 -24.90625 21.035156 -24.535156 22.296875 -23.796875 C 23.566406 -23.066406 24.515625 -21.960938 25.140625 -20.484375 C 25.773438 -19.003906 26.09375 -17.132812 26.09375 -14.875 L 26.09375 -2.796875 C 26.09375 -1.765625 25.828125 -0.972656 25.296875 -0.421875 C 24.765625 0.128906 24 0.40625 23 0.40625 C 22.007812 0.40625 21.238281 0.128906 20.6875 -0.421875 C 20.132812 -0.972656 19.859375 -1.765625 19.859375 -2.796875 L 19.859375 -14.578125 C 19.859375 -16.472656 19.5 -17.851562 18.78125 -18.71875 C 18.070312 -19.582031 16.96875 -20.015625 15.46875 -20.015625 C 13.632812 -20.015625 12.175781 -19.4375 11.09375 -18.28125 C 10.019531 -17.132812 9.484375 -15.613281 9.484375 -13.71875 L 9.484375 -2.796875 C 9.484375 -0.660156 8.4375 0.40625 6.34375 0.40625 Z M 6.34375 0.40625 "/></g></g></g><g fill="#000000" fill-opacity="1"><g transform="translate(275.915937, 66.014232)"><g><path d="M 11.28125 0.5 C 9.519531 0.5 7.945312 0.160156 6.5625 -0.515625 C 5.175781 -1.203125 4.09375 -2.128906 3.3125 -3.296875 C 2.53125 -4.460938 2.140625 -5.773438 2.140625 -7.234375 C 2.140625 -9.035156 2.601562 -10.457031 3.53125 -11.5 C 4.46875 -12.550781 5.984375 -13.304688 8.078125 -13.765625 C 10.179688 -14.234375 12.992188 -14.46875 16.515625 -14.46875 L 19.015625 -14.46875 L 19.015625 -10.875 L 16.5625 -10.875 C 14.5 -10.875 12.851562 -10.773438 11.625 -10.578125 C 10.394531 -10.378906 9.519531 -10.035156 9 -9.546875 C 8.488281 -9.066406 8.234375 -8.394531 8.234375 -7.53125 C 8.234375 -6.4375 8.613281 -5.539062 9.375 -4.84375 C 10.144531 -4.144531 11.210938 -3.796875 12.578125 -3.796875 C 13.671875 -3.796875 14.640625 -4.050781 15.484375 -4.5625 C 16.335938 -5.082031 17.015625 -5.789062 17.515625 -6.6875 C 18.015625 -7.582031 18.265625 -8.613281 18.265625 -9.78125 L 18.265625 -15.515625 C 18.265625 -17.179688 17.894531 -18.378906 17.15625 -19.109375 C 16.425781 -19.847656 15.195312 -20.21875 13.46875 -20.21875 C 12.507812 -20.21875 11.472656 -20.097656 10.359375 -19.859375 C 9.242188 -19.628906 8.070312 -19.234375 6.84375 -18.671875 C 6.207031 -18.367188 5.644531 -18.28125 5.15625 -18.40625 C 4.675781 -18.539062 4.300781 -18.816406 4.03125 -19.234375 C 3.769531 -19.648438 3.640625 -20.109375 3.640625 -20.609375 C 3.640625 -21.109375 3.769531 -21.597656 4.03125 -22.078125 C 4.300781 -22.566406 4.753906 -22.925781 5.390625 -23.15625 C 6.921875 -23.789062 8.390625 -24.238281 9.796875 -24.5 C 11.210938 -24.769531 12.503906 -24.90625 13.671875 -24.90625 C 16.066406 -24.90625 18.035156 -24.535156 19.578125 -23.796875 C 21.128906 -23.066406 22.285156 -21.960938 23.046875 -20.484375 C 23.816406 -19.003906 24.203125 -17.097656 24.203125 -14.765625 L 24.203125 -2.796875 C 24.203125 -1.765625 23.953125 -0.972656 23.453125 -0.421875 C 22.953125 0.128906 22.238281 0.40625 21.3125 0.40625 C 20.375 0.40625 19.644531 0.128906 19.125 -0.421875 C 18.613281 -0.972656 18.359375 -1.765625 18.359375 -2.796875 L 18.359375 -5.1875 L 18.765625 -5.1875 C 18.535156 -4.019531 18.078125 -3.007812 17.390625 -2.15625 C 16.710938 -1.3125 15.859375 -0.65625 14.828125 -0.1875 C 13.796875 0.269531 12.613281 0.5 11.28125 0.5 Z M 11.28125 0.5 "/></g></g></g><g fill="#000000" fill-opacity="1"><g transform="translate(303.217339, 66.014232)"><g><path d="M 6.34375 0.40625 C 5.34375 0.40625 4.578125 0.128906 4.046875 -0.421875 C 3.515625 -0.972656 3.25 -1.765625 3.25 -2.796875 L 3.25 -21.65625 C 3.25 -22.6875 3.515625 -23.46875 4.046875 -24 C 4.578125 -24.53125 5.320312 -24.796875 6.28125 -24.796875 C 7.25 -24.796875 8 -24.53125 8.53125 -24 C 9.0625 -23.46875 9.328125 -22.6875 9.328125 -21.65625 L 9.328125 -18.265625 L 8.78125 -19.515625 C 9.507812 -21.273438 10.644531 -22.613281 12.1875 -23.53125 C 13.738281 -24.445312 15.5 -24.90625 17.46875 -24.90625 C 19.425781 -24.90625 21.035156 -24.535156 22.296875 -23.796875 C 23.566406 -23.066406 24.515625 -21.960938 25.140625 -20.484375 C 25.773438 -19.003906 26.09375 -17.132812 26.09375 -14.875 L 26.09375 -2.796875 C 26.09375 -1.765625 25.828125 -0.972656 25.296875 -0.421875 C 24.765625 0.128906 24 0.40625 23 0.40625 C 22.007812 0.40625 21.238281 0.128906 20.6875 -0.421875 C 20.132812 -0.972656 19.859375 -1.765625 19.859375 -2.796875 L 19.859375 -14.578125 C 19.859375 -16.472656 19.5 -17.851562 18.78125 -18.71875 C 18.070312 -19.582031 16.96875 -20.015625 15.46875 -20.015625 C 13.632812 -20.015625 12.175781 -19.4375 11.09375 -18.28125 C 10.019531 -17.132812 9.484375 -15.613281 9.484375 -13.71875 L 9.484375 -2.796875 C 9.484375 -0.660156 8.4375 0.40625 6.34375 0.40625 Z M 6.34375 0.40625 "/></g></g></g><g fill="#000000" fill-opacity="1"><g transform="translate(332.41533, 66.014232)"><g/></g></g><g fill="#000000" fill-opacity="1"><g transform="translate(345.941241, 66.014232)"><g><path d="M 9.4375 9.375 C 8.695312 9.375 8.09375 9.179688 7.625 8.796875 C 7.164062 8.421875 6.894531 7.914062 6.8125 7.28125 C 6.726562 6.65625 6.835938 5.992188 7.140625 5.296875 L 10.53125 -2.25 L 10.53125 0.34375 L 1.453125 -20.65625 C 1.148438 -21.394531 1.046875 -22.078125 1.140625 -22.703125 C 1.242188 -23.335938 1.550781 -23.84375 2.0625 -24.21875 C 2.582031 -24.601562 3.289062 -24.796875 4.1875 -24.796875 C 4.957031 -24.796875 5.570312 -24.617188 6.03125 -24.265625 C 6.5 -23.921875 6.914062 -23.269531 7.28125 -22.3125 L 14.03125 -5.484375 L 12.53125 -5.484375 L 19.40625 -22.359375 C 19.78125 -23.285156 20.210938 -23.921875 20.703125 -24.265625 C 21.203125 -24.617188 21.867188 -24.796875 22.703125 -24.796875 C 23.441406 -24.796875 24.023438 -24.601562 24.453125 -24.21875 C 24.890625 -23.84375 25.15625 -23.347656 25.25 -22.734375 C 25.351562 -22.117188 25.238281 -21.445312 24.90625 -20.71875 L 12.78125 6.984375 C 12.34375 7.921875 11.875 8.550781 11.375 8.875 C 10.875 9.207031 10.226562 9.375 9.4375 9.375 Z M 9.4375 9.375 "/></g></g></g><g fill="#000000" fill-opacity="1"><g transform="translate(372.194489, 66.014232)"><g><path d="M 11.28125 0.5 C 9.519531 0.5 7.945312 0.160156 6.5625 -0.515625 C 5.175781 -1.203125 4.09375 -2.128906 3.3125 -3.296875 C 2.53125 -4.460938 2.140625 -5.773438 2.140625 -7.234375 C 2.140625 -9.035156 2.601562 -10.457031 3.53125 -11.5 C 4.46875 -12.550781 5.984375 -13.304688 8.078125 -13.765625 C 10.179688 -14.234375 12.992188 -14.46875 16.515625 -14.46875 L 19.015625 -14.46875 L 19.015625 -10.875 L 16.5625 -10.875 C 14.5 -10.875 12.851562 -10.773438 11.625 -10.578125 C 10.394531 -10.378906 9.519531 -10.035156 9 -9.546875 C 8.488281 -9.066406 8.234375 -8.394531 8.234375 -7.53125 C 8.234375 -6.4375 8.613281 -5.539062 9.375 -4.84375 C 10.144531 -4.144531 11.210938 -3.796875 12.578125 -3.796875 C 13.671875 -3.796875 14.640625 -4.050781 15.484375 -4.5625 C 16.335938 -5.082031 17.015625 -5.789062 17.515625 -6.6875 C 18.015625 -7.582031 18.265625 -8.613281 18.265625 -9.78125 L 18.265625 -15.515625 C 18.265625 -17.179688 17.894531 -18.378906 17.15625 -19.109375 C 16.425781 -19.847656 15.195312 -20.21875 13.46875 -20.21875 C 12.507812 -20.21875 11.472656 -20.097656 10.359375 -19.859375 C 9.242188 -19.628906 8.070312 -19.234375 6.84375 -18.671875 C 6.207031 -18.367188 5.644531 -18.28125 5.15625 -18.40625 C 4.675781 -18.539062 4.300781 -18.816406 4.03125 -19.234375 C 3.769531 -19.648438 3.640625 -20.109375 3.640625 -20.609375 C 3.640625 -21.109375 3.769531 -21.597656 4.03125 -22.078125 C 4.300781 -22.566406 4.753906 -22.925781 5.390625 -23.15625 C 6.921875 -23.789062 8.390625 -24.238281 9.796875 -24.5 C 11.210938 -24.769531 12.503906 -24.90625 13.671875 -24.90625 C 16.066406 -24.90625 18.035156 -24.535156 19.578125 -23.796875 C 21.128906 -23.066406 22.285156 -21.960938 23.046875 -20.484375 C 23.816406 -19.003906 24.203125 -17.097656 24.203125 -14.765625 L 24.203125 -2.796875 C 24.203125 -1.765625 23.953125 -0.972656 23.453125 -0.421875 C 22.953125 0.128906 22.238281 0.40625 21.3125 0.40625 C 20.375 0.40625 19.644531 0.128906 19.125 -0.421875 C 18.613281 -0.972656 18.359375 -1.765625 18.359375 -2.796875 L 18.359375 -5.1875 L 18.765625 -5.1875 C 18.535156 -4.019531 18.078125 -3.007812 17.390625 -2.15625 C 16.710938 -1.3125 15.859375 -0.65625 14.828125 -0.1875 C 13.796875 0.269531 12.613281 0.5 11.28125 0.5 Z M 11.28125 0.5 "/></g></g></g><g fill="#000000" fill-opacity="1"><g transform="translate(399.495845, 66.014232)"><g><path d="M 6.34375 0.40625 C 5.34375 0.40625 4.578125 0.128906 4.046875 -0.421875 C 3.515625 -0.972656 3.25 -1.765625 3.25 -2.796875 L 3.25 -21.65625 C 3.25 -22.6875 3.515625 -23.46875 4.046875 -24 C 4.578125 -24.53125 5.320312 -24.796875 6.28125 -24.796875 C 7.25 -24.796875 8 -24.53125 8.53125 -24 C 9.0625 -23.46875 9.328125 -22.6875 9.328125 -21.65625 L 9.328125 -18.265625 L 8.78125 -19.515625 C 9.507812 -21.273438 10.644531 -22.613281 12.1875 -23.53125 C 13.738281 -24.445312 15.5 -24.90625 17.46875 -24.90625 C 19.425781 -24.90625 21.035156 -24.535156 22.296875 -23.796875 C 23.566406 -23.066406 24.515625 -21.960938 25.140625 -20.484375 C 25.773438 -19.003906 26.09375 -17.132812 26.09375 -14.875 L 26.09375 -2.796875 C 26.09375 -1.765625 25.828125 -0.972656 25.296875 -0.421875 C 24.765625 0.128906 24 0.40625 23 0.40625 C 22.007812 0.40625 21.238281 0.128906 20.6875 -0.421875 C 20.132812 -0.972656 19.859375 -1.765625 19.859375 -2.796875 L 19.859375 -14.578125 C 19.859375 -16.472656 19.5 -17.851562 18.78125 -18.71875 C 18.070312 -19.582031 16.96875 -20.015625 15.46875 -20.015625 C 13.632812 -20.015625 12.175781 -19.4375 11.09375 -18.28125 C 10.019531 -17.132812 9.484375 -15.613281 9.484375 -13.71875 L 9.484375 -2.796875 C 9.484375 -0.660156 8.4375 0.40625 6.34375 0.40625 Z M 6.34375 0.40625 "/></g></g></g><g fill="#000000" fill-opacity="1"><g transform="translate(428.693836, 66.014232)"><g><path d="M 14.625 9.484375 C 12.820312 9.484375 11.082031 9.316406 9.40625 8.984375 C 7.726562 8.648438 6.207031 8.132812 4.84375 7.4375 C 4.207031 7.101562 3.78125 6.703125 3.5625 6.234375 C 3.351562 5.773438 3.289062 5.300781 3.375 4.8125 C 3.457031 4.332031 3.65625 3.910156 3.96875 3.546875 C 4.28125 3.179688 4.671875 2.929688 5.140625 2.796875 C 5.609375 2.660156 6.09375 2.726562 6.59375 3 C 8.050781 3.726562 9.4375 4.195312 10.75 4.40625 C 12.0625 4.625 13.1875 4.734375 14.125 4.734375 C 16.351562 4.734375 18.023438 4.191406 19.140625 3.109375 C 20.253906 2.035156 20.8125 0.429688 20.8125 -1.703125 L 20.8125 -6.1875 L 21.265625 -6.1875 C 20.765625 -4.488281 19.722656 -3.128906 18.140625 -2.109375 C 16.554688 -1.097656 14.769531 -0.59375 12.78125 -0.59375 C 10.582031 -0.59375 8.664062 -1.097656 7.03125 -2.109375 C 5.40625 -3.128906 4.140625 -4.554688 3.234375 -6.390625 C 2.335938 -8.222656 1.890625 -10.351562 1.890625 -12.78125 C 1.890625 -14.601562 2.144531 -16.253906 2.65625 -17.734375 C 3.175781 -19.222656 3.910156 -20.5 4.859375 -21.5625 C 5.804688 -22.625 6.953125 -23.445312 8.296875 -24.03125 C 9.648438 -24.613281 11.144531 -24.90625 12.78125 -24.90625 C 14.84375 -24.90625 16.644531 -24.394531 18.1875 -23.375 C 19.738281 -22.363281 20.742188 -21.023438 21.203125 -19.359375 L 20.71875 -18.109375 L 20.71875 -21.65625 C 20.71875 -22.6875 20.988281 -23.46875 21.53125 -24 C 22.082031 -24.53125 22.84375 -24.796875 23.8125 -24.796875 C 24.800781 -24.796875 25.5625 -24.53125 26.09375 -24 C 26.632812 -23.46875 26.90625 -22.6875 26.90625 -21.65625 L 26.90625 -2.453125 C 26.90625 1.515625 25.851562 4.492188 23.75 6.484375 C 21.65625 8.484375 18.613281 9.484375 14.625 9.484375 Z M 14.46875 -5.34375 C 15.769531 -5.34375 16.882812 -5.640625 17.8125 -6.234375 C 18.75 -6.835938 19.472656 -7.695312 19.984375 -8.8125 C 20.503906 -9.925781 20.765625 -11.25 20.765625 -12.78125 C 20.765625 -15.070312 20.195312 -16.875 19.0625 -18.1875 C 17.9375 -19.5 16.40625 -20.15625 14.46875 -20.15625 C 13.175781 -20.15625 12.0625 -19.851562 11.125 -19.25 C 10.195312 -18.65625 9.472656 -17.8125 8.953125 -16.71875 C 8.441406 -15.625 8.1875 -14.3125 8.1875 -12.78125 C 8.1875 -10.476562 8.75 -8.660156 9.875 -7.328125 C 11.007812 -6.003906 12.539062 -5.34375 14.46875 -5.34375 Z M 14.46875 -5.34375 "/></g></g></g><g fill="#000000" fill-opacity="1"><g transform="translate(458.84019, 66.014232)"><g/></g></g><g fill="#000000" fill-opacity="1"><g transform="translate(472.366079, 66.014232)"><g><path d="M 12.171875 0.5 C 10.742188 0.5 9.226562 0.347656 7.625 0.046875 C 6.03125 -0.253906 4.601562 -0.769531 3.34375 -1.5 C 2.8125 -1.832031 2.4375 -2.222656 2.21875 -2.671875 C 2 -3.117188 1.914062 -3.566406 1.96875 -4.015625 C 2.019531 -4.460938 2.1875 -4.851562 2.46875 -5.1875 C 2.75 -5.519531 3.113281 -5.734375 3.5625 -5.828125 C 4.007812 -5.929688 4.503906 -5.851562 5.046875 -5.59375 C 6.367188 -4.957031 7.613281 -4.515625 8.78125 -4.265625 C 9.945312 -4.015625 11.097656 -3.890625 12.234375 -3.890625 C 13.828125 -3.890625 15.015625 -4.164062 15.796875 -4.71875 C 16.578125 -5.269531 16.96875 -5.992188 16.96875 -6.890625 C 16.96875 -7.648438 16.707031 -8.238281 16.1875 -8.65625 C 15.675781 -9.070312 14.90625 -9.378906 13.875 -9.578125 L 8.890625 -10.53125 C 6.828125 -10.925781 5.253906 -11.679688 4.171875 -12.796875 C 3.085938 -13.910156 2.546875 -15.351562 2.546875 -17.125 C 2.546875 -18.71875 2.984375 -20.09375 3.859375 -21.25 C 4.742188 -22.414062 5.96875 -23.316406 7.53125 -23.953125 C 9.09375 -24.585938 10.890625 -24.90625 12.921875 -24.90625 C 14.390625 -24.90625 15.765625 -24.742188 17.046875 -24.421875 C 18.328125 -24.109375 19.566406 -23.617188 20.765625 -22.953125 C 21.265625 -22.691406 21.601562 -22.34375 21.78125 -21.90625 C 21.96875 -21.476562 22.007812 -21.035156 21.90625 -20.578125 C 21.8125 -20.128906 21.613281 -19.726562 21.3125 -19.375 C 21.007812 -19.03125 20.632812 -18.816406 20.1875 -18.734375 C 19.738281 -18.648438 19.234375 -18.742188 18.671875 -19.015625 C 17.640625 -19.546875 16.644531 -19.925781 15.6875 -20.15625 C 14.738281 -20.394531 13.832031 -20.515625 12.96875 -20.515625 C 11.34375 -20.515625 10.140625 -20.226562 9.359375 -19.65625 C 8.578125 -19.09375 8.1875 -18.347656 8.1875 -17.421875 C 8.1875 -16.722656 8.414062 -16.140625 8.875 -15.671875 C 9.34375 -15.203125 10.0625 -14.882812 11.03125 -14.71875 L 16.015625 -13.78125 C 18.179688 -13.375 19.820312 -12.640625 20.9375 -11.578125 C 22.050781 -10.515625 22.609375 -9.082031 22.609375 -7.28125 C 22.609375 -4.851562 21.660156 -2.945312 19.765625 -1.5625 C 17.867188 -0.1875 15.335938 0.5 12.171875 0.5 Z M 12.171875 0.5 "/></g></g></g><g fill="#000000" fill-opacity="1"><g transform="translate(496.722714, 66.014232)"><g><path d="M 15.265625 0.5 C 12.503906 0.5 10.125 -0.015625 8.125 -1.046875 C 6.132812 -2.078125 4.597656 -3.539062 3.515625 -5.4375 C 2.429688 -7.332031 1.890625 -9.578125 1.890625 -12.171875 C 1.890625 -14.703125 2.414062 -16.914062 3.46875 -18.8125 C 4.519531 -20.707031 5.96875 -22.195312 7.8125 -23.28125 C 9.65625 -24.363281 11.757812 -24.90625 14.125 -24.90625 C 15.851562 -24.90625 17.40625 -24.617188 18.78125 -24.046875 C 20.164062 -23.484375 21.347656 -22.671875 22.328125 -21.609375 C 23.316406 -20.546875 24.066406 -19.253906 24.578125 -17.734375 C 25.097656 -16.222656 25.359375 -14.519531 25.359375 -12.625 C 25.359375 -12.03125 25.148438 -11.570312 24.734375 -11.25 C 24.316406 -10.9375 23.722656 -10.78125 22.953125 -10.78125 L 6.9375 -10.78125 L 6.9375 -14.375 L 20.953125 -14.375 L 20.15625 -13.625 C 20.15625 -15.15625 19.929688 -16.4375 19.484375 -17.46875 C 19.035156 -18.5 18.382812 -19.285156 17.53125 -19.828125 C 16.6875 -20.378906 15.632812 -20.65625 14.375 -20.65625 C 12.976562 -20.65625 11.785156 -20.332031 10.796875 -19.6875 C 9.816406 -19.039062 9.066406 -18.125 8.546875 -16.9375 C 8.035156 -15.757812 7.78125 -14.351562 7.78125 -12.71875 L 7.78125 -12.375 C 7.78125 -9.644531 8.421875 -7.601562 9.703125 -6.25 C 10.984375 -4.90625 12.875 -4.234375 15.375 -4.234375 C 16.238281 -4.234375 17.207031 -4.34375 18.28125 -4.5625 C 19.363281 -4.78125 20.390625 -5.15625 21.359375 -5.6875 C 22.054688 -6.082031 22.671875 -6.253906 23.203125 -6.203125 C 23.734375 -6.160156 24.15625 -5.972656 24.46875 -5.640625 C 24.789062 -5.304688 24.984375 -4.894531 25.046875 -4.40625 C 25.117188 -3.925781 25.03125 -3.4375 24.78125 -2.9375 C 24.53125 -2.445312 24.101562 -2.015625 23.5 -1.640625 C 22.34375 -0.910156 21.003906 -0.367188 19.484375 -0.015625 C 17.972656 0.328125 16.566406 0.5 15.265625 0.5 Z M 15.265625 0.5 "/></g></g></g><g fill="#000000" fill-opacity="1"><g transform="translate(523.774536, 66.014232)"><g><path d="M 12.171875 0.5 C 10.742188 0.5 9.226562 0.347656 7.625 0.046875 C 6.03125 -0.253906 4.601562 -0.769531 3.34375 -1.5 C 2.8125 -1.832031 2.4375 -2.222656 2.21875 -2.671875 C 2 -3.117188 1.914062 -3.566406 1.96875 -4.015625 C 2.019531 -4.460938 2.1875 -4.851562 2.46875 -5.1875 C 2.75 -5.519531 3.113281 -5.734375 3.5625 -5.828125 C 4.007812 -5.929688 4.503906 -5.851562 5.046875 -5.59375 C 6.367188 -4.957031 7.613281 -4.515625 8.78125 -4.265625 C 9.945312 -4.015625 11.097656 -3.890625 12.234375 -3.890625 C 13.828125 -3.890625 15.015625 -4.164062 15.796875 -4.71875 C 16.578125 -5.269531 16.96875 -5.992188 16.96875 -6.890625 C 16.96875 -7.648438 16.707031 -8.238281 16.1875 -8.65625 C 15.675781 -9.070312 14.90625 -9.378906 13.875 -9.578125 L 8.890625 -10.53125 C 6.828125 -10.925781 5.253906 -11.679688 4.171875 -12.796875 C 3.085938 -13.910156 2.546875 -15.351562 2.546875 -17.125 C 2.546875 -18.71875 2.984375 -20.09375 3.859375 -21.25 C 4.742188 -22.414062 5.96875 -23.316406 7.53125 -23.953125 C 9.09375 -24.585938 10.890625 -24.90625 12.921875 -24.90625 C 14.390625 -24.90625 15.765625 -24.742188 17.046875 -24.421875 C 18.328125 -24.109375 19.566406 -23.617188 20.765625 -22.953125 C 21.265625 -22.691406 21.601562 -22.34375 21.78125 -21.90625 C 21.96875 -21.476562 22.007812 -21.035156 21.90625 -20.578125 C 21.8125 -20.128906 21.613281 -19.726562 21.3125 -19.375 C 21.007812 -19.03125 20.632812 -18.816406 20.1875 -18.734375 C 19.738281 -18.648438 19.234375 -18.742188 18.671875 -19.015625 C 17.640625 -19.546875 16.644531 -19.925781 15.6875 -20.15625 C 14.738281 -20.394531 13.832031 -20.515625 12.96875 -20.515625 C 11.34375 -20.515625 10.140625 -20.226562 9.359375 -19.65625 C 8.578125 -19.09375 8.1875 -18.347656 8.1875 -17.421875 C 8.1875 -16.722656 8.414062 -16.140625 8.875 -15.671875 C 9.34375 -15.203125 10.0625 -14.882812 11.03125 -14.71875 L 16.015625 -13.78125 C 18.179688 -13.375 19.820312 -12.640625 20.9375 -11.578125 C 22.050781 -10.515625 22.609375 -9.082031 22.609375 -7.28125 C 22.609375 -4.851562 21.660156 -2.945312 19.765625 -1.5625 C 17.867188 -0.1875 15.335938 0.5 12.171875 0.5 Z M 12.171875 0.5 "/></g></g></g><g fill="#000000" fill-opacity="1"><g transform="translate(548.131126, 66.014232)"><g><path d="M 12.078125 0.5 C 10.046875 0.5 8.363281 0.125 7.03125 -0.625 C 5.707031 -1.375 4.71875 -2.492188 4.0625 -3.984375 C 3.414062 -5.484375 3.09375 -7.347656 3.09375 -9.578125 L 3.09375 -21.65625 C 3.09375 -22.71875 3.359375 -23.503906 3.890625 -24.015625 C 4.421875 -24.535156 5.1875 -24.796875 6.1875 -24.796875 C 7.1875 -24.796875 7.957031 -24.535156 8.5 -24.015625 C 9.050781 -23.503906 9.328125 -22.71875 9.328125 -21.65625 L 9.328125 -9.484375 C 9.328125 -7.753906 9.675781 -6.472656 10.375 -5.640625 C 11.070312 -4.804688 12.1875 -4.390625 13.71875 -4.390625 C 15.382812 -4.390625 16.75 -4.960938 17.8125 -6.109375 C 18.875 -7.253906 19.40625 -8.78125 19.40625 -10.6875 L 19.40625 -21.65625 C 19.40625 -22.71875 19.671875 -23.503906 20.203125 -24.015625 C 20.742188 -24.535156 21.507812 -24.796875 22.5 -24.796875 C 23.5 -24.796875 24.273438 -24.535156 24.828125 -24.015625 C 25.378906 -23.503906 25.65625 -22.71875 25.65625 -21.65625 L 25.65625 -2.796875 C 25.65625 -0.660156 24.640625 0.40625 22.609375 0.40625 C 21.640625 0.40625 20.890625 0.128906 20.359375 -0.421875 C 19.828125 -0.972656 19.5625 -1.765625 19.5625 -2.796875 L 19.5625 -6.59375 L 20.265625 -5.09375 C 19.566406 -3.289062 18.507812 -1.90625 17.09375 -0.9375 C 15.675781 0.0195312 14.003906 0.5 12.078125 0.5 Z M 12.078125 0.5 "/></g></g></g><g fill="#000000" fill-opacity="1"><g transform="translate(577.029677, 66.014232)"><g><path d="M 11.28125 0.5 C 9.519531 0.5 7.945312 0.160156 6.5625 -0.515625 C 5.175781 -1.203125 4.09375 -2.128906 3.3125 -3.296875 C 2.53125 -4.460938 2.140625 -5.773438 2.140625 -7.234375 C 2.140625 -9.035156 2.601562 -10.457031 3.53125 -11.5 C 4.46875 -12.550781 5.984375 -13.304688 8.078125 -13.765625 C 10.179688 -14.234375 12.992188 -14.46875 16.515625 -14.46875 L 19.015625 -14.46875 L 19.015625 -10.875 L 16.5625 -10.875 C 14.5 -10.875 12.851562 -10.773438 11.625 -10.578125 C 10.394531 -10.378906 9.519531 -10.035156 9 -9.546875 C 8.488281 -9.066406 8.234375 -8.394531 8.234375 -7.53125 C 8.234375 -6.4375 8.613281 -5.539062 9.375 -4.84375 C 10.144531 -4.144531 11.210938 -3.796875 12.578125 -3.796875 C 13.671875 -3.796875 14.640625 -4.050781 15.484375 -4.5625 C 16.335938 -5.082031 17.015625 -5.789062 17.515625 -6.6875 C 18.015625 -7.582031 18.265625 -8.613281 18.265625 -9.78125 L 18.265625 -15.515625 C 18.265625 -17.179688 17.894531 -18.378906 17.15625 -19.109375 C 16.425781 -19.847656 15.195312 -20.21875 13.46875 -20.21875 C 12.507812 -20.21875 11.472656 -20.097656 10.359375 -19.859375 C 9.242188 -19.628906 8.070312 -19.234375 6.84375 -18.671875 C 6.207031 -18.367188 5.644531 -18.28125 5.15625 -18.40625 C 4.675781 -18.539062 4.300781 -18.816406 4.03125 -19.234375 C 3.769531 -19.648438 3.640625 -20.109375 3.640625 -20.609375 C 3.640625 -21.109375 3.769531 -21.597656 4.03125 -22.078125 C 4.300781 -22.566406 4.753906 -22.925781 5.390625 -23.15625 C 6.921875 -23.789062 8.390625 -24.238281 9.796875 -24.5 C 11.210938 -24.769531 12.503906 -24.90625 13.671875 -24.90625 C 16.066406 -24.90625 18.035156 -24.535156 19.578125 -23.796875 C 21.128906 -23.066406 22.285156 -21.960938 23.046875 -20.484375 C 23.816406 -19.003906 24.203125 -17.097656 24.203125 -14.765625 L 24.203125 -2.796875 C 24.203125 -1.765625 23.953125 -0.972656 23.453125 -0.421875 C 22.953125 0.128906 22.238281 0.40625 21.3125 0.40625 C 20.375 0.40625 19.644531 0.128906 19.125 -0.421875 C 18.613281 -0.972656 18.359375 -1.765625 18.359375 -2.796875 L 18.359375 -5.1875 L 18.765625 -5.1875 C 18.535156 -4.019531 18.078125 -3.007812 17.390625 -2.15625 C 16.710938 -1.3125 15.859375 -0.65625 14.828125 -0.1875 C 13.796875 0.269531 12.613281 0.5 11.28125 0.5 Z M 11.28125 0.5 "/></g></g></g><g fill="#000000" fill-opacity="1"><g transform="translate(604.331033, 66.014232)"><g><path d="M 6.34375 0.34375 C 5.34375 0.34375 4.578125 0.046875 4.046875 -0.546875 C 3.515625 -1.148438 3.25 -1.984375 3.25 -3.046875 L 3.25 -21.359375 C 3.25 -22.453125 3.515625 -23.289062 4.046875 -23.875 C 4.578125 -24.457031 5.34375 -24.75 6.34375 -24.75 C 7.332031 -24.75 8.101562 -24.457031 8.65625 -23.875 C 9.207031 -23.289062 9.484375 -22.453125 9.484375 -21.359375 L 9.484375 -3.046875 C 9.484375 -1.984375 9.21875 -1.148438 8.6875 -0.546875 C 8.15625 0.046875 7.375 0.34375 6.34375 0.34375 Z M 6.34375 -29.390625 C 5.175781 -29.390625 4.265625 -29.679688 3.609375 -30.265625 C 2.960938 -30.847656 2.640625 -31.65625 2.640625 -32.6875 C 2.640625 -33.75 2.960938 -34.5625 3.609375 -35.125 C 4.265625 -35.695312 5.175781 -35.984375 6.34375 -35.984375 C 7.539062 -35.984375 8.453125 -35.695312 9.078125 -35.125 C 9.710938 -34.5625 10.03125 -33.75 10.03125 -32.6875 C 10.03125 -31.65625 9.710938 -30.847656 9.078125 -30.265625 C 8.453125 -29.679688 7.539062 -29.390625 6.34375 -29.390625 Z M 6.34375 -29.390625 "/></g></g></g><g fill="#000000" fill-opacity="1"><g transform="translate(21.950401, 112.438744)"><g><path d="M 6.34375 0.40625 C 5.34375 0.40625 4.578125 0.128906 4.046875 -0.421875 C 3.515625 -0.972656 3.25 -1.765625 3.25 -2.796875 L 3.25 -32.4375 C 3.25 -33.46875 3.515625 -34.25 4.046875 -34.78125 C 4.578125 -35.3125 5.34375 -35.578125 6.34375 -35.578125 C 7.332031 -35.578125 8.101562 -35.3125 8.65625 -34.78125 C 9.207031 -34.25 9.484375 -33.46875 9.484375 -32.4375 L 9.484375 -14.03125 L 9.578125 -14.03125 L 17.8125 -22.703125 C 18.476562 -23.367188 19.0625 -23.882812 19.5625 -24.25 C 20.0625 -24.613281 20.742188 -24.796875 21.609375 -24.796875 C 22.472656 -24.796875 23.128906 -24.570312 23.578125 -24.125 C 24.023438 -23.675781 24.25 -23.132812 24.25 -22.5 C 24.25 -21.875 23.953125 -21.242188 23.359375 -20.609375 L 14.671875 -11.421875 L 14.671875 -14.03125 L 24.203125 -3.75 C 24.804688 -3.113281 25.082031 -2.46875 25.03125 -1.8125 C 24.976562 -1.164062 24.703125 -0.632812 24.203125 -0.21875 C 23.703125 0.195312 23.070312 0.40625 22.3125 0.40625 C 21.375 0.40625 20.628906 0.222656 20.078125 -0.140625 C 19.535156 -0.515625 18.929688 -1.066406 18.265625 -1.796875 L 9.578125 -10.875 L 9.484375 -10.875 L 9.484375 -2.796875 C 9.484375 -0.660156 8.4375 0.40625 6.34375 0.40625 Z M 6.34375 0.40625 "/></g></g></g><g fill="#000000" fill-opacity="1"><g transform="translate(48.702749, 112.438744)"><g><path d="M 11.28125 0.5 C 9.519531 0.5 7.945312 0.160156 6.5625 -0.515625 C 5.175781 -1.203125 4.09375 -2.128906 3.3125 -3.296875 C 2.53125 -4.460938 2.140625 -5.773438 2.140625 -7.234375 C 2.140625 -9.035156 2.601562 -10.457031 3.53125 -11.5 C 4.46875 -12.550781 5.984375 -13.304688 8.078125 -13.765625 C 10.179688 -14.234375 12.992188 -14.46875 16.515625 -14.46875 L 19.015625 -14.46875 L 19.015625 -10.875 L 16.5625 -10.875 C 14.5 -10.875 12.851562 -10.773438 11.625 -10.578125 C 10.394531 -10.378906 9.519531 -10.035156 9 -9.546875 C 8.488281 -9.066406 8.234375 -8.394531 8.234375 -7.53125 C 8.234375 -6.4375 8.613281 -5.539062 9.375 -4.84375 C 10.144531 -4.144531 11.210938 -3.796875 12.578125 -3.796875 C 13.671875 -3.796875 14.640625 -4.050781 15.484375 -4.5625 C 16.335938 -5.082031 17.015625 -5.789062 17.515625 -6.6875 C 18.015625 -7.582031 18.265625 -8.613281 18.265625 -9.78125 L 18.265625 -15.515625 C 18.265625 -17.179688 17.894531 -18.378906 17.15625 -19.109375 C 16.425781 -19.847656 15.195312 -20.21875 13.46875 -20.21875 C 12.507812 -20.21875 11.472656 -20.097656 10.359375 -19.859375 C 9.242188 -19.628906 8.070312 -19.234375 6.84375 -18.671875 C 6.207031 -18.367188 5.644531 -18.28125 5.15625 -18.40625 C 4.675781 -18.539062 4.300781 -18.816406 4.03125 -19.234375 C 3.769531 -19.648438 3.640625 -20.109375 3.640625 -20.609375 C 3.640625 -21.109375 3.769531 -21.597656 4.03125 -22.078125 C 4.300781 -22.566406 4.753906 -22.925781 5.390625 -23.15625 C 6.921875 -23.789062 8.390625 -24.238281 9.796875 -24.5 C 11.210938 -24.769531 12.503906 -24.90625 13.671875 -24.90625 C 16.066406 -24.90625 18.035156 -24.535156 19.578125 -23.796875 C 21.128906 -23.066406 22.285156 -21.960938 23.046875 -20.484375 C 23.816406 -19.003906 24.203125 -17.097656 24.203125 -14.765625 L 24.203125 -2.796875 C 24.203125 -1.765625 23.953125 -0.972656 23.453125 -0.421875 C 22.953125 0.128906 22.238281 0.40625 21.3125 0.40625 C 20.375 0.40625 19.644531 0.128906 19.125 -0.421875 C 18.613281 -0.972656 18.359375 -1.765625 18.359375 -2.796875 L 18.359375 -5.1875 L 18.765625 -5.1875 C 18.535156 -4.019531 18.078125 -3.007812 17.390625 -2.15625 C 16.710938 -1.3125 15.859375 -0.65625 14.828125 -0.1875 C 13.796875 0.269531 12.613281 0.5 11.28125 0.5 Z M 11.28125 0.5 "/></g></g></g><g fill="#000000" fill-opacity="1"><g transform="translate(76.004127, 112.438744)"><g><path d="M 6.34375 0.34375 C 5.34375 0.34375 4.578125 0.046875 4.046875 -0.546875 C 3.515625 -1.148438 3.25 -1.984375 3.25 -3.046875 L 3.25 -21.359375 C 3.25 -22.453125 3.515625 -23.289062 4.046875 -23.875 C 4.578125 -24.457031 5.34375 -24.75 6.34375 -24.75 C 7.332031 -24.75 8.101562 -24.457031 8.65625 -23.875 C 9.207031 -23.289062 9.484375 -22.453125 9.484375 -21.359375 L 9.484375 -3.046875 C 9.484375 -1.984375 9.21875 -1.148438 8.6875 -0.546875 C 8.15625 0.046875 7.375 0.34375 6.34375 0.34375 Z M 6.34375 -29.390625 C 5.175781 -29.390625 4.265625 -29.679688 3.609375 -30.265625 C 2.960938 -30.847656 2.640625 -31.65625 2.640625 -32.6875 C 2.640625 -33.75 2.960938 -34.5625 3.609375 -35.125 C 4.265625 -35.695312 5.175781 -35.984375 6.34375 -35.984375 C 7.539062 -35.984375 8.453125 -35.695312 9.078125 -35.125 C 9.710938 -34.5625 10.03125 -33.75 10.03125 -32.6875 C 10.03125 -31.65625 9.710938 -30.847656 9.078125 -30.265625 C 8.453125 -29.679688 7.539062 -29.390625 6.34375 -29.390625 Z M 6.34375 -29.390625 "/></g></g></g><g fill="#000000" fill-opacity="1"><g transform="translate(88.731463, 112.438744)"><g><path d="M 12.625 0.5 C 10.5 0.5 8.628906 -0.015625 7.015625 -1.046875 C 5.398438 -2.078125 4.140625 -3.546875 3.234375 -5.453125 C 2.335938 -7.367188 1.890625 -9.628906 1.890625 -12.234375 C 1.890625 -14.859375 2.335938 -17.109375 3.234375 -18.984375 C 4.140625 -20.867188 5.398438 -22.328125 7.015625 -23.359375 C 8.628906 -24.390625 10.5 -24.90625 12.625 -24.90625 C 14.65625 -24.90625 16.425781 -24.40625 17.9375 -23.40625 C 19.457031 -22.40625 20.484375 -21.09375 21.015625 -19.46875 L 20.46875 -19.46875 L 20.46875 -32.4375 C 20.46875 -33.46875 20.734375 -34.25 21.265625 -34.78125 C 21.796875 -35.3125 22.5625 -35.578125 23.5625 -35.578125 C 24.550781 -35.578125 25.320312 -35.3125 25.875 -34.78125 C 26.425781 -34.25 26.703125 -33.46875 26.703125 -32.4375 L 26.703125 -2.796875 C 26.703125 -1.765625 26.4375 -0.972656 25.90625 -0.421875 C 25.375 0.128906 24.609375 0.40625 23.609375 0.40625 C 22.609375 0.40625 21.84375 0.128906 21.3125 -0.421875 C 20.78125 -0.972656 20.515625 -1.765625 20.515625 -2.796875 L 20.515625 -6.6875 L 21.0625 -5.1875 C 20.5625 -3.457031 19.546875 -2.078125 18.015625 -1.046875 C 16.484375 -0.015625 14.6875 0.5 12.625 0.5 Z M 14.375 -4.234375 C 15.601562 -4.234375 16.679688 -4.53125 17.609375 -5.125 C 18.546875 -5.726562 19.269531 -6.617188 19.78125 -7.796875 C 20.300781 -8.984375 20.5625 -10.460938 20.5625 -12.234375 C 20.5625 -14.890625 19.992188 -16.875 18.859375 -18.1875 C 17.734375 -19.5 16.238281 -20.15625 14.375 -20.15625 C 13.144531 -20.15625 12.0625 -19.863281 11.125 -19.28125 C 10.195312 -18.707031 9.472656 -17.828125 8.953125 -16.640625 C 8.441406 -15.460938 8.1875 -13.992188 8.1875 -12.234375 C 8.1875 -9.597656 8.75 -7.601562 9.875 -6.25 C 11.007812 -4.90625 12.507812 -4.234375 14.375 -4.234375 Z M 14.375 -4.234375 "/></g></g></g><g fill="#000000" fill-opacity="1"><g transform="translate(118.678123, 112.438744)"><g><path d="M 11.28125 0.5 C 9.519531 0.5 7.945312 0.160156 6.5625 -0.515625 C 5.175781 -1.203125 4.09375 -2.128906 3.3125 -3.296875 C 2.53125 -4.460938 2.140625 -5.773438 2.140625 -7.234375 C 2.140625 -9.035156 2.601562 -10.457031 3.53125 -11.5 C 4.46875 -12.550781 5.984375 -13.304688 8.078125 -13.765625 C 10.179688 -14.234375 12.992188 -14.46875 16.515625 -14.46875 L 19.015625 -14.46875 L 19.015625 -10.875 L 16.5625 -10.875 C 14.5 -10.875 12.851562 -10.773438 11.625 -10.578125 C 10.394531 -10.378906 9.519531 -10.035156 9 -9.546875 C 8.488281 -9.066406 8.234375 -8.394531 8.234375 -7.53125 C 8.234375 -6.4375 8.613281 -5.539062 9.375 -4.84375 C 10.144531 -4.144531 11.210938 -3.796875 12.578125 -3.796875 C 13.671875 -3.796875 14.640625 -4.050781 15.484375 -4.5625 C 16.335938 -5.082031 17.015625 -5.789062 17.515625 -6.6875 C 18.015625 -7.582031 18.265625 -8.613281 18.265625 -9.78125 L 18.265625 -15.515625 C 18.265625 -17.179688 17.894531 -18.378906 17.15625 -19.109375 C 16.425781 -19.847656 15.195312 -20.21875 13.46875 -20.21875 C 12.507812 -20.21875 11.472656 -20.097656 10.359375 -19.859375 C 9.242188 -19.628906 8.070312 -19.234375 6.84375 -18.671875 C 6.207031 -18.367188 5.644531 -18.28125 5.15625 -18.40625 C 4.675781 -18.539062 4.300781 -18.816406 4.03125 -19.234375 C 3.769531 -19.648438 3.640625 -20.109375 3.640625 -20.609375 C 3.640625 -21.109375 3.769531 -21.597656 4.03125 -22.078125 C 4.300781 -22.566406 4.753906 -22.925781 5.390625 -23.15625 C 6.921875 -23.789062 8.390625 -24.238281 9.796875 -24.5 C 11.210938 -24.769531 12.503906 -24.90625 13.671875 -24.90625 C 16.066406 -24.90625 18.035156 -24.535156 19.578125 -23.796875 C 21.128906 -23.066406 22.285156 -21.960938 23.046875 -20.484375 C 23.816406 -19.003906 24.203125 -17.097656 24.203125 -14.765625 L 24.203125 -2.796875 C 24.203125 -1.765625 23.953125 -0.972656 23.453125 -0.421875 C 22.953125 0.128906 22.238281 0.40625 21.3125 0.40625 C 20.375 0.40625 19.644531 0.128906 19.125 -0.421875 C 18.613281 -0.972656 18.359375 -1.765625 18.359375 -2.796875 L 18.359375 -5.1875 L 18.765625 -5.1875 C 18.535156 -4.019531 18.078125 -3.007812 17.390625 -2.15625 C 16.710938 -1.3125 15.859375 -0.65625 14.828125 -0.1875 C 13.796875 0.269531 12.613281 0.5 11.28125 0.5 Z M 11.28125 0.5 "/></g></g></g><g fill="#000000" fill-opacity="1"><g transform="translate(145.979501, 112.438744)"><g><path d="M 6.34375 0.40625 C 5.34375 0.40625 4.578125 0.128906 4.046875 -0.421875 C 3.515625 -0.972656 3.25 -1.765625 3.25 -2.796875 L 3.25 -32.4375 C 3.25 -33.46875 3.515625 -34.25 4.046875 -34.78125 C 4.578125 -35.3125 5.34375 -35.578125 6.34375 -35.578125 C 7.332031 -35.578125 8.101562 -35.3125 8.65625 -34.78125 C 9.207031 -34.25 9.484375 -33.46875 9.484375 -32.4375 L 9.484375 -19.515625 L 8.78125 -19.515625 C 9.507812 -21.273438 10.644531 -22.613281 12.1875 -23.53125 C 13.738281 -24.445312 15.5 -24.90625 17.46875 -24.90625 C 19.425781 -24.90625 21.035156 -24.535156 22.296875 -23.796875 C 23.566406 -23.066406 24.515625 -21.960938 25.140625 -20.484375 C 25.773438 -19.003906 26.09375 -17.132812 26.09375 -14.875 L 26.09375 -2.796875 C 26.09375 -1.765625 25.828125 -0.972656 25.296875 -0.421875 C 24.765625 0.128906 24 0.40625 23 0.40625 C 22.007812 0.40625 21.238281 0.128906 20.6875 -0.421875 C 20.132812 -0.972656 19.859375 -1.765625 19.859375 -2.796875 L 19.859375 -14.578125 C 19.859375 -16.472656 19.5 -17.851562 18.78125 -18.71875 C 18.070312 -19.582031 16.96875 -20.015625 15.46875 -20.015625 C 13.632812 -20.015625 12.175781 -19.4375 11.09375 -18.28125 C 10.019531 -17.132812 9.484375 -15.613281 9.484375 -13.71875 L 9.484375 -2.796875 C 9.484375 -0.660156 8.4375 0.40625 6.34375 0.40625 Z M 6.34375 0.40625 "/></g></g></g><g fill="#000000" fill-opacity="1"><g transform="translate(175.177504, 112.438744)"><g/></g></g><g fill="#000000" fill-opacity="1"><g transform="translate(188.703415, 112.438744)"><g><path d="M 12.625 0.5 C 10.5 0.5 8.628906 -0.015625 7.015625 -1.046875 C 5.398438 -2.078125 4.140625 -3.546875 3.234375 -5.453125 C 2.335938 -7.367188 1.890625 -9.628906 1.890625 -12.234375 C 1.890625 -14.859375 2.335938 -17.109375 3.234375 -18.984375 C 4.140625 -20.867188 5.398438 -22.328125 7.015625 -23.359375 C 8.628906 -24.390625 10.5 -24.90625 12.625 -24.90625 C 14.65625 -24.90625 16.425781 -24.40625 17.9375 -23.40625 C 19.457031 -22.40625 20.484375 -21.09375 21.015625 -19.46875 L 20.46875 -19.46875 L 20.46875 -32.4375 C 20.46875 -33.46875 20.734375 -34.25 21.265625 -34.78125 C 21.796875 -35.3125 22.5625 -35.578125 23.5625 -35.578125 C 24.550781 -35.578125 25.320312 -35.3125 25.875 -34.78125 C 26.425781 -34.25 26.703125 -33.46875 26.703125 -32.4375 L 26.703125 -2.796875 C 26.703125 -1.765625 26.4375 -0.972656 25.90625 -0.421875 C 25.375 0.128906 24.609375 0.40625 23.609375 0.40625 C 22.609375 0.40625 21.84375 0.128906 21.3125 -0.421875 C 20.78125 -0.972656 20.515625 -1.765625 20.515625 -2.796875 L 20.515625 -6.6875 L 21.0625 -5.1875 C 20.5625 -3.457031 19.546875 -2.078125 18.015625 -1.046875 C 16.484375 -0.015625 14.6875 0.5 12.625 0.5 Z M 14.375 -4.234375 C 15.601562 -4.234375 16.679688 -4.53125 17.609375 -5.125 C 18.546875 -5.726562 19.269531 -6.617188 19.78125 -7.796875 C 20.300781 -8.984375 20.5625 -10.460938 20.5625 -12.234375 C 20.5625 -14.890625 19.992188 -16.875 18.859375 -18.1875 C 17.734375 -19.5 16.238281 -20.15625 14.375 -20.15625 C 13.144531 -20.15625 12.0625 -19.863281 11.125 -19.28125 C 10.195312 -18.707031 9.472656 -17.828125 8.953125 -16.640625 C 8.441406 -15.460938 8.1875 -13.992188 8.1875 -12.234375 C 8.1875 -9.597656 8.75 -7.601562 9.875 -6.25 C 11.007812 -4.90625 12.507812 -4.234375 14.375 -4.234375 Z M 14.375 -4.234375 "/></g></g></g><g fill="#000000" fill-opacity="1"><g transform="translate(218.650074, 112.438744)"><g><path d="M 6.34375 0.34375 C 5.34375 0.34375 4.578125 0.046875 4.046875 -0.546875 C 3.515625 -1.148438 3.25 -1.984375 3.25 -3.046875 L 3.25 -21.359375 C 3.25 -22.453125 3.515625 -23.289062 4.046875 -23.875 C 4.578125 -24.457031 5.34375 -24.75 6.34375 -24.75 C 7.332031 -24.75 8.101562 -24.457031 8.65625 -23.875 C 9.207031 -23.289062 9.484375 -22.453125 9.484375 -21.359375 L 9.484375 -3.046875 C 9.484375 -1.984375 9.21875 -1.148438 8.6875 -0.546875 C 8.15625 0.046875 7.375 0.34375 6.34375 0.34375 Z M 6.34375 -29.390625 C 5.175781 -29.390625 4.265625 -29.679688 3.609375 -30.265625 C 2.960938 -30.847656 2.640625 -31.65625 2.640625 -32.6875 C 2.640625 -33.75 2.960938 -34.5625 3.609375 -35.125 C 4.265625 -35.695312 5.175781 -35.984375 6.34375 -35.984375 C 7.539062 -35.984375 8.453125 -35.695312 9.078125 -35.125 C 9.710938 -34.5625 10.03125 -33.75 10.03125 -32.6875 C 10.03125 -31.65625 9.710938 -30.847656 9.078125 -30.265625 C 8.453125 -29.679688 7.539062 -29.390625 6.34375 -29.390625 Z M 6.34375 -29.390625 "/></g></g></g><g fill="#000000" fill-opacity="1"><g transform="translate(231.37741, 112.438744)"><g><path d="M 17.3125 0.5 C 15.25 0.5 13.441406 -0.015625 11.890625 -1.046875 C 10.347656 -2.078125 9.328125 -3.457031 8.828125 -5.1875 L 9.375 -6.4375 L 9.375 -2.796875 C 9.375 -1.765625 9.109375 -0.972656 8.578125 -0.421875 C 8.046875 0.128906 7.300781 0.40625 6.34375 0.40625 C 5.34375 0.40625 4.578125 0.128906 4.046875 -0.421875 C 3.515625 -0.972656 3.25 -1.765625 3.25 -2.796875 L 3.25 -32.4375 C 3.25 -33.46875 3.515625 -34.25 4.046875 -34.78125 C 4.578125 -35.3125 5.34375 -35.578125 6.34375 -35.578125 C 7.332031 -35.578125 8.101562 -35.3125 8.65625 -34.78125 C 9.207031 -34.25 9.484375 -33.46875 9.484375 -32.4375 L 9.484375 -19.46875 L 8.890625 -19.46875 C 9.421875 -21.09375 10.445312 -22.40625 11.96875 -23.40625 C 13.5 -24.40625 15.28125 -24.90625 17.3125 -24.90625 C 19.476562 -24.90625 21.359375 -24.390625 22.953125 -23.359375 C 24.554688 -22.328125 25.804688 -20.867188 26.703125 -18.984375 C 27.597656 -17.109375 28.046875 -14.859375 28.046875 -12.234375 C 28.046875 -9.628906 27.597656 -7.367188 26.703125 -5.453125 C 25.804688 -3.546875 24.550781 -2.078125 22.9375 -1.046875 C 21.320312 -0.015625 19.445312 0.5 17.3125 0.5 Z M 15.578125 -4.234375 C 16.804688 -4.234375 17.882812 -4.53125 18.8125 -5.125 C 19.75 -5.726562 20.472656 -6.617188 20.984375 -7.796875 C 21.503906 -8.984375 21.765625 -10.460938 21.765625 -12.234375 C 21.765625 -14.890625 21.195312 -16.875 20.0625 -18.1875 C 18.925781 -19.5 17.429688 -20.15625 15.578125 -20.15625 C 14.335938 -20.15625 13.25 -19.863281 12.3125 -19.28125 C 11.382812 -18.707031 10.660156 -17.828125 10.140625 -16.640625 C 9.628906 -15.460938 9.375 -13.992188 9.375 -12.234375 C 9.375 -9.597656 9.941406 -7.601562 11.078125 -6.25 C 12.210938 -4.90625 13.710938 -4.234375 15.578125 -4.234375 Z M 15.578125 -4.234375 "/></g></g></g><g fill="#000000" fill-opacity="1"><g transform="translate(261.324069, 112.438744)"><g><path d="M 11.28125 0.5 C 9.519531 0.5 7.945312 0.160156 6.5625 -0.515625 C 5.175781 -1.203125 4.09375 -2.128906 3.3125 -3.296875 C 2.53125 -4.460938 2.140625 -5.773438 2.140625 -7.234375 C 2.140625 -9.035156 2.601562 -10.457031 3.53125 -11.5 C 4.46875 -12.550781 5.984375 -13.304688 8.078125 -13.765625 C 10.179688 -14.234375 12.992188 -14.46875 16.515625 -14.46875 L 19.015625 -14.46875 L 19.015625 -10.875 L 16.5625 -10.875 C 14.5 -10.875 12.851562 -10.773438 11.625 -10.578125 C 10.394531 -10.378906 9.519531 -10.035156 9 -9.546875 C 8.488281 -9.066406 8.234375 -8.394531 8.234375 -7.53125 C 8.234375 -6.4375 8.613281 -5.539062 9.375 -4.84375 C 10.144531 -4.144531 11.210938 -3.796875 12.578125 -3.796875 C 13.671875 -3.796875 14.640625 -4.050781 15.484375 -4.5625 C 16.335938 -5.082031 17.015625 -5.789062 17.515625 -6.6875 C 18.015625 -7.582031 18.265625 -8.613281 18.265625 -9.78125 L 18.265625 -15.515625 C 18.265625 -17.179688 17.894531 -18.378906 17.15625 -19.109375 C 16.425781 -19.847656 15.195312 -20.21875 13.46875 -20.21875 C 12.507812 -20.21875 11.472656 -20.097656 10.359375 -19.859375 C 9.242188 -19.628906 8.070312 -19.234375 6.84375 -18.671875 C 6.207031 -18.367188 5.644531 -18.28125 5.15625 -18.40625 C 4.675781 -18.539062 4.300781 -18.816406 4.03125 -19.234375 C 3.769531 -19.648438 3.640625 -20.109375 3.640625 -20.609375 C 3.640625 -21.109375 3.769531 -21.597656 4.03125 -22.078125 C 4.300781 -22.566406 4.753906 -22.925781 5.390625 -23.15625 C 6.921875 -23.789062 8.390625 -24.238281 9.796875 -24.5 C 11.210938 -24.769531 12.503906 -24.90625 13.671875 -24.90625 C 16.066406 -24.90625 18.035156 -24.535156 19.578125 -23.796875 C 21.128906 -23.066406 22.285156 -21.960938 23.046875 -20.484375 C 23.816406 -19.003906 24.203125 -17.097656 24.203125 -14.765625 L 24.203125 -2.796875 C 24.203125 -1.765625 23.953125 -0.972656 23.453125 -0.421875 C 22.953125 0.128906 22.238281 0.40625 21.3125 0.40625 C 20.375 0.40625 19.644531 0.128906 19.125 -0.421875 C 18.613281 -0.972656 18.359375 -1.765625 18.359375 -2.796875 L 18.359375 -5.1875 L 18.765625 -5.1875 C 18.535156 -4.019531 18.078125 -3.007812 17.390625 -2.15625 C 16.710938 -1.3125 15.859375 -0.65625 14.828125 -0.1875 C 13.796875 0.269531 12.613281 0.5 11.28125 0.5 Z M 11.28125 0.5 "/></g></g></g><g fill="#000000" fill-opacity="1"><g transform="translate(288.625447, 112.438744)"><g><path d="M 12.671875 0.40625 C 11.835938 0.40625 11.117188 0.195312 10.515625 -0.21875 C 9.921875 -0.632812 9.441406 -1.296875 9.078125 -2.203125 L 1.84375 -20.65625 C 1.539062 -21.457031 1.445312 -22.164062 1.5625 -22.78125 C 1.6875 -23.394531 2 -23.882812 2.5 -24.25 C 3 -24.613281 3.660156 -24.796875 4.484375 -24.796875 C 5.222656 -24.796875 5.820312 -24.617188 6.28125 -24.265625 C 6.75 -23.921875 7.148438 -23.269531 7.484375 -22.3125 L 13.53125 -5.6875 L 12.375 -5.6875 L 18.609375 -22.703125 C 18.878906 -23.441406 19.238281 -23.972656 19.6875 -24.296875 C 20.132812 -24.628906 20.722656 -24.796875 21.453125 -24.796875 C 22.191406 -24.796875 22.789062 -24.617188 23.25 -24.265625 C 23.71875 -23.921875 24.066406 -23.398438 24.296875 -22.703125 L 30.4375 -5.6875 L 29.390625 -5.6875 L 35.484375 -22.453125 C 35.816406 -23.359375 36.238281 -23.972656 36.75 -24.296875 C 37.269531 -24.628906 37.847656 -24.796875 38.484375 -24.796875 C 39.273438 -24.796875 39.882812 -24.597656 40.3125 -24.203125 C 40.75 -23.804688 41 -23.300781 41.0625 -22.6875 C 41.132812 -22.070312 41.019531 -21.394531 40.71875 -20.65625 L 33.53125 -2.203125 C 33.195312 -1.328125 32.722656 -0.671875 32.109375 -0.234375 C 31.492188 0.191406 30.769531 0.40625 29.9375 0.40625 C 29.113281 0.40625 28.390625 0.191406 27.765625 -0.234375 C 27.148438 -0.671875 26.675781 -1.328125 26.34375 -2.203125 L 19.8125 -19.515625 L 22.65625 -19.515625 L 16.265625 -2.25 C 15.929688 -1.34375 15.460938 -0.671875 14.859375 -0.234375 C 14.265625 0.191406 13.535156 0.40625 12.671875 0.40625 Z M 12.671875 0.40625 "/></g></g></g><g fill="#000000" fill-opacity="1"><g transform="translate(331.199607, 112.438744)"><g><path d="M 11.28125 0.5 C 9.519531 0.5 7.945312 0.160156 6.5625 -0.515625 C 5.175781 -1.203125 4.09375 -2.128906 3.3125 -3.296875 C 2.53125 -4.460938 2.140625 -5.773438 2.140625 -7.234375 C 2.140625 -9.035156 2.601562 -10.457031 3.53125 -11.5 C 4.46875 -12.550781 5.984375 -13.304688 8.078125 -13.765625 C 10.179688 -14.234375 12.992188 -14.46875 16.515625 -14.46875 L 19.015625 -14.46875 L 19.015625 -10.875 L 16.5625 -10.875 C 14.5 -10.875 12.851562 -10.773438 11.625 -10.578125 C 10.394531 -10.378906 9.519531 -10.035156 9 -9.546875 C 8.488281 -9.066406 8.234375 -8.394531 8.234375 -7.53125 C 8.234375 -6.4375 8.613281 -5.539062 9.375 -4.84375 C 10.144531 -4.144531 11.210938 -3.796875 12.578125 -3.796875 C 13.671875 -3.796875 14.640625 -4.050781 15.484375 -4.5625 C 16.335938 -5.082031 17.015625 -5.789062 17.515625 -6.6875 C 18.015625 -7.582031 18.265625 -8.613281 18.265625 -9.78125 L 18.265625 -15.515625 C 18.265625 -17.179688 17.894531 -18.378906 17.15625 -19.109375 C 16.425781 -19.847656 15.195312 -20.21875 13.46875 -20.21875 C 12.507812 -20.21875 11.472656 -20.097656 10.359375 -19.859375 C 9.242188 -19.628906 8.070312 -19.234375 6.84375 -18.671875 C 6.207031 -18.367188 5.644531 -18.28125 5.15625 -18.40625 C 4.675781 -18.539062 4.300781 -18.816406 4.03125 -19.234375 C 3.769531 -19.648438 3.640625 -20.109375 3.640625 -20.609375 C 3.640625 -21.109375 3.769531 -21.597656 4.03125 -22.078125 C 4.300781 -22.566406 4.753906 -22.925781 5.390625 -23.15625 C 6.921875 -23.789062 8.390625 -24.238281 9.796875 -24.5 C 11.210938 -24.769531 12.503906 -24.90625 13.671875 -24.90625 C 16.066406 -24.90625 18.035156 -24.535156 19.578125 -23.796875 C 21.128906 -23.066406 22.285156 -21.960938 23.046875 -20.484375 C 23.816406 -19.003906 24.203125 -17.097656 24.203125 -14.765625 L 24.203125 -2.796875 C 24.203125 -1.765625 23.953125 -0.972656 23.453125 -0.421875 C 22.953125 0.128906 22.238281 0.40625 21.3125 0.40625 C 20.375 0.40625 19.644531 0.128906 19.125 -0.421875 C 18.613281 -0.972656 18.359375 -1.765625 18.359375 -2.796875 L 18.359375 -5.1875 L 18.765625 -5.1875 C 18.535156 -4.019531 18.078125 -3.007812 17.390625 -2.15625 C 16.710938 -1.3125 15.859375 -0.65625 14.828125 -0.1875 C 13.796875 0.269531 12.613281 0.5 11.28125 0.5 Z M 11.28125 0.5 "/></g></g></g><g fill="#000000" fill-opacity="1"><g transform="translate(358.501008, 112.438744)"><g><path d="M 6.34375 0.40625 C 5.34375 0.40625 4.578125 0.128906 4.046875 -0.421875 C 3.515625 -0.972656 3.25 -1.765625 3.25 -2.796875 L 3.25 -32.4375 C 3.25 -33.46875 3.515625 -34.25 4.046875 -34.78125 C 4.578125 -35.3125 5.34375 -35.578125 6.34375 -35.578125 C 7.332031 -35.578125 8.101562 -35.3125 8.65625 -34.78125 C 9.207031 -34.25 9.484375 -33.46875 9.484375 -32.4375 L 9.484375 -19.515625 L 8.78125 -19.515625 C 9.507812 -21.273438 10.644531 -22.613281 12.1875 -23.53125 C 13.738281 -24.445312 15.5 -24.90625 17.46875 -24.90625 C 19.425781 -24.90625 21.035156 -24.535156 22.296875 -23.796875 C 23.566406 -23.066406 24.515625 -21.960938 25.140625 -20.484375 C 25.773438 -19.003906 26.09375 -17.132812 26.09375 -14.875 L 26.09375 -2.796875 C 26.09375 -1.765625 25.828125 -0.972656 25.296875 -0.421875 C 24.765625 0.128906 24 0.40625 23 0.40625 C 22.007812 0.40625 21.238281 0.128906 20.6875 -0.421875 C 20.132812 -0.972656 19.859375 -1.765625 19.859375 -2.796875 L 19.859375 -14.578125 C 19.859375 -16.472656 19.5 -17.851562 18.78125 -18.71875 C 18.070312 -19.582031 16.96875 -20.015625 15.46875 -20.015625 C 13.632812 -20.015625 12.175781 -19.4375 11.09375 -18.28125 C 10.019531 -17.132812 9.484375 -15.613281 9.484375 -13.71875 L 9.484375 -2.796875 C 9.484375 -0.660156 8.4375 0.40625 6.34375 0.40625 Z M 6.34375 0.40625 "/></g></g></g><g fill="#000000" fill-opacity="1"><g transform="translate(387.699, 112.438744)"><g/></g></g><g fill="#000000" fill-opacity="1"><g transform="translate(401.224911, 112.438744)"><g><path d="M 6.34375 0.34375 C 5.34375 0.34375 4.578125 0.046875 4.046875 -0.546875 C 3.515625 -1.148438 3.25 -1.984375 3.25 -3.046875 L 3.25 -21.359375 C 3.25 -22.453125 3.515625 -23.289062 4.046875 -23.875 C 4.578125 -24.457031 5.34375 -24.75 6.34375 -24.75 C 7.332031 -24.75 8.101562 -24.457031 8.65625 -23.875 C 9.207031 -23.289062 9.484375 -22.453125 9.484375 -21.359375 L 9.484375 -3.046875 C 9.484375 -1.984375 9.21875 -1.148438 8.6875 -0.546875 C 8.15625 0.046875 7.375 0.34375 6.34375 0.34375 Z M 6.34375 -29.390625 C 5.175781 -29.390625 4.265625 -29.679688 3.609375 -30.265625 C 2.960938 -30.847656 2.640625 -31.65625 2.640625 -32.6875 C 2.640625 -33.75 2.960938 -34.5625 3.609375 -35.125 C 4.265625 -35.695312 5.175781 -35.984375 6.34375 -35.984375 C 7.539062 -35.984375 8.453125 -35.695312 9.078125 -35.125 C 9.710938 -34.5625 10.03125 -33.75 10.03125 -32.6875 C 10.03125 -31.65625 9.710938 -30.847656 9.078125 -30.265625 C 8.453125 -29.679688 7.539062 -29.390625 6.34375 -29.390625 Z M 6.34375 -29.390625 "/></g></g></g><g fill="#000000" fill-opacity="1"><g transform="translate(413.95227, 112.438744)"><g><path d="M 6.34375 0.40625 C 5.34375 0.40625 4.578125 0.128906 4.046875 -0.421875 C 3.515625 -0.972656 3.25 -1.765625 3.25 -2.796875 L 3.25 -21.65625 C 3.25 -22.6875 3.515625 -23.46875 4.046875 -24 C 4.578125 -24.53125 5.320312 -24.796875 6.28125 -24.796875 C 7.25 -24.796875 8 -24.53125 8.53125 -24 C 9.0625 -23.46875 9.328125 -22.6875 9.328125 -21.65625 L 9.328125 -18.265625 L 8.78125 -19.515625 C 9.507812 -21.273438 10.644531 -22.613281 12.1875 -23.53125 C 13.738281 -24.445312 15.5 -24.90625 17.46875 -24.90625 C 19.425781 -24.90625 21.035156 -24.535156 22.296875 -23.796875 C 23.566406 -23.066406 24.515625 -21.960938 25.140625 -20.484375 C 25.773438 -19.003906 26.09375 -17.132812 26.09375 -14.875 L 26.09375 -2.796875 C 26.09375 -1.765625 25.828125 -0.972656 25.296875 -0.421875 C 24.765625 0.128906 24 0.40625 23 0.40625 C 22.007812 0.40625 21.238281 0.128906 20.6875 -0.421875 C 20.132812 -0.972656 19.859375 -1.765625 19.859375 -2.796875 L 19.859375 -14.578125 C 19.859375 -16.472656 19.5 -17.851562 18.78125 -18.71875 C 18.070312 -19.582031 16.96875 -20.015625 15.46875 -20.015625 C 13.632812 -20.015625 12.175781 -19.4375 11.09375 -18.28125 C 10.019531 -17.132812 9.484375 -15.613281 9.484375 -13.71875 L 9.484375 -2.796875 C 9.484375 -0.660156 8.4375 0.40625 6.34375 0.40625 Z M 6.34375 0.40625 "/></g></g></g><g fill="#000000" fill-opacity="1"><g transform="translate(443.150261, 112.438744)"><g><path d="M 6.34375 0.34375 C 5.34375 0.34375 4.578125 0.046875 4.046875 -0.546875 C 3.515625 -1.148438 3.25 -1.984375 3.25 -3.046875 L 3.25 -21.359375 C 3.25 -22.453125 3.515625 -23.289062 4.046875 -23.875 C 4.578125 -24.457031 5.34375 -24.75 6.34375 -24.75 C 7.332031 -24.75 8.101562 -24.457031 8.65625 -23.875 C 9.207031 -23.289062 9.484375 -22.453125 9.484375 -21.359375 L 9.484375 -3.046875 C 9.484375 -1.984375 9.21875 -1.148438 8.6875 -0.546875 C 8.15625 0.046875 7.375 0.34375 6.34375 0.34375 Z M 6.34375 -29.390625 C 5.175781 -29.390625 4.265625 -29.679688 3.609375 -30.265625 C 2.960938 -30.847656 2.640625 -31.65625 2.640625 -32.6875 C 2.640625 -33.75 2.960938 -34.5625 3.609375 -35.125 C 4.265625 -35.695312 5.175781 -35.984375 6.34375 -35.984375 C 7.539062 -35.984375 8.453125 -35.695312 9.078125 -35.125 C 9.710938 -34.5625 10.03125 -33.75 10.03125 -32.6875 C 10.03125 -31.65625 9.710938 -30.847656 9.078125 -30.265625 C 8.453125 -29.679688 7.539062 -29.390625 6.34375 -29.390625 Z M 6.34375 -29.390625 "/></g></g></g><g fill="#000000" fill-opacity="1"><g transform="translate(455.877597, 112.438744)"><g/></g></g><g fill="#000000" fill-opacity="1"><g transform="translate(469.403486, 112.438744)"><g><path d="M 11.28125 0.5 C 9.519531 0.5 7.945312 0.160156 6.5625 -0.515625 C 5.175781 -1.203125 4.09375 -2.128906 3.3125 -3.296875 C 2.53125 -4.460938 2.140625 -5.773438 2.140625 -7.234375 C 2.140625 -9.035156 2.601562 -10.457031 3.53125 -11.5 C 4.46875 -12.550781 5.984375 -13.304688 8.078125 -13.765625 C 10.179688 -14.234375 12.992188 -14.46875 16.515625 -14.46875 L 19.015625 -14.46875 L 19.015625 -10.875 L 16.5625 -10.875 C 14.5 -10.875 12.851562 -10.773438 11.625 -10.578125 C 10.394531 -10.378906 9.519531 -10.035156 9 -9.546875 C 8.488281 -9.066406 8.234375 -8.394531 8.234375 -7.53125 C 8.234375 -6.4375 8.613281 -5.539062 9.375 -4.84375 C 10.144531 -4.144531 11.210938 -3.796875 12.578125 -3.796875 C 13.671875 -3.796875 14.640625 -4.050781 15.484375 -4.5625 C 16.335938 -5.082031 17.015625 -5.789062 17.515625 -6.6875 C 18.015625 -7.582031 18.265625 -8.613281 18.265625 -9.78125 L 18.265625 -15.515625 C 18.265625 -17.179688 17.894531 -18.378906 17.15625 -19.109375 C 16.425781 -19.847656 15.195312 -20.21875 13.46875 -20.21875 C 12.507812 -20.21875 11.472656 -20.097656 10.359375 -19.859375 C 9.242188 -19.628906 8.070312 -19.234375 6.84375 -18.671875 C 6.207031 -18.367188 5.644531 -18.28125 5.15625 -18.40625 C 4.675781 -18.539062 4.300781 -18.816406 4.03125 -19.234375 C 3.769531 -19.648438 3.640625 -20.109375 3.640625 -20.609375 C 3.640625 -21.109375 3.769531 -21.597656 4.03125 -22.078125 C 4.300781 -22.566406 4.753906 -22.925781 5.390625 -23.15625 C 6.921875 -23.789062 8.390625 -24.238281 9.796875 -24.5 C 11.210938 -24.769531 12.503906 -24.90625 13.671875 -24.90625 C 16.066406 -24.90625 18.035156 -24.535156 19.578125 -23.796875 C 21.128906 -23.066406 22.285156 -21.960938 23.046875 -20.484375 C 23.816406 -19.003906 24.203125 -17.097656 24.203125 -14.765625 L 24.203125 -2.796875 C 24.203125 -1.765625 23.953125 -0.972656 23.453125 -0.421875 C 22.953125 0.128906 22.238281 0.40625 21.3125 0.40625 C 20.375 0.40625 19.644531 0.128906 19.125 -0.421875 C 18.613281 -0.972656 18.359375 -1.765625 18.359375 -2.796875 L 18.359375 -5.1875 L 18.765625 -5.1875 C 18.535156 -4.019531 18.078125 -3.007812 17.390625 -2.15625 C 16.710938 -1.3125 15.859375 -0.65625 14.828125 -0.1875 C 13.796875 0.269531 12.613281 0.5 11.28125 0.5 Z M 11.28125 0.5 "/></g></g></g><g fill="#000000" fill-opacity="1"><g transform="translate(496.704887, 112.438744)"><g><path d="M 12.625 0.5 C 10.5 0.5 8.628906 -0.015625 7.015625 -1.046875 C 5.398438 -2.078125 4.140625 -3.546875 3.234375 -5.453125 C 2.335938 -7.367188 1.890625 -9.628906 1.890625 -12.234375 C 1.890625 -14.859375 2.335938 -17.109375 3.234375 -18.984375 C 4.140625 -20.867188 5.398438 -22.328125 7.015625 -23.359375 C 8.628906 -24.390625 10.5 -24.90625 12.625 -24.90625 C 14.65625 -24.90625 16.425781 -24.40625 17.9375 -23.40625 C 19.457031 -22.40625 20.484375 -21.09375 21.015625 -19.46875 L 20.46875 -19.46875 L 20.46875 -32.4375 C 20.46875 -33.46875 20.734375 -34.25 21.265625 -34.78125 C 21.796875 -35.3125 22.5625 -35.578125 23.5625 -35.578125 C 24.550781 -35.578125 25.320312 -35.3125 25.875 -34.78125 C 26.425781 -34.25 26.703125 -33.46875 26.703125 -32.4375 L 26.703125 -2.796875 C 26.703125 -1.765625 26.4375 -0.972656 25.90625 -0.421875 C 25.375 0.128906 24.609375 0.40625 23.609375 0.40625 C 22.609375 0.40625 21.84375 0.128906 21.3125 -0.421875 C 20.78125 -0.972656 20.515625 -1.765625 20.515625 -2.796875 L 20.515625 -6.6875 L 21.0625 -5.1875 C 20.5625 -3.457031 19.546875 -2.078125 18.015625 -1.046875 C 16.484375 -0.015625 14.6875 0.5 12.625 0.5 Z M 14.375 -4.234375 C 15.601562 -4.234375 16.679688 -4.53125 17.609375 -5.125 C 18.546875 -5.726562 19.269531 -6.617188 19.78125 -7.796875 C 20.300781 -8.984375 20.5625 -10.460938 20.5625 -12.234375 C 20.5625 -14.890625 19.992188 -16.875 18.859375 -18.1875 C 17.734375 -19.5 16.238281 -20.15625 14.375 -20.15625 C 13.144531 -20.15625 12.0625 -19.863281 11.125 -19.28125 C 10.195312 -18.707031 9.472656 -17.828125 8.953125 -16.640625 C 8.441406 -15.460938 8.1875 -13.992188 8.1875 -12.234375 C 8.1875 -9.597656 8.75 -7.601562 9.875 -6.25 C 11.007812 -4.90625 12.507812 -4.234375 14.375 -4.234375 Z M 14.375 -4.234375 "/></g></g></g><g fill="#000000" fill-opacity="1"><g transform="translate(526.651523, 112.438744)"><g><path d="M 11.28125 0.5 C 9.519531 0.5 7.945312 0.160156 6.5625 -0.515625 C 5.175781 -1.203125 4.09375 -2.128906 3.3125 -3.296875 C 2.53125 -4.460938 2.140625 -5.773438 2.140625 -7.234375 C 2.140625 -9.035156 2.601562 -10.457031 3.53125 -11.5 C 4.46875 -12.550781 5.984375 -13.304688 8.078125 -13.765625 C 10.179688 -14.234375 12.992188 -14.46875 16.515625 -14.46875 L 19.015625 -14.46875 L 19.015625 -10.875 L 16.5625 -10.875 C 14.5 -10.875 12.851562 -10.773438 11.625 -10.578125 C 10.394531 -10.378906 9.519531 -10.035156 9 -9.546875 C 8.488281 -9.066406 8.234375 -8.394531 8.234375 -7.53125 C 8.234375 -6.4375 8.613281 -5.539062 9.375 -4.84375 C 10.144531 -4.144531 11.210938 -3.796875 12.578125 -3.796875 C 13.671875 -3.796875 14.640625 -4.050781 15.484375 -4.5625 C 16.335938 -5.082031 17.015625 -5.789062 17.515625 -6.6875 C 18.015625 -7.582031 18.265625 -8.613281 18.265625 -9.78125 L 18.265625 -15.515625 C 18.265625 -17.179688 17.894531 -18.378906 17.15625 -19.109375 C 16.425781 -19.847656 15.195312 -20.21875 13.46875 -20.21875 C 12.507812 -20.21875 11.472656 -20.097656 10.359375 -19.859375 C 9.242188 -19.628906 8.070312 -19.234375 6.84375 -18.671875 C 6.207031 -18.367188 5.644531 -18.28125 5.15625 -18.40625 C 4.675781 -18.539062 4.300781 -18.816406 4.03125 -19.234375 C 3.769531 -19.648438 3.640625 -20.109375 3.640625 -20.609375 C 3.640625 -21.109375 3.769531 -21.597656 4.03125 -22.078125 C 4.300781 -22.566406 4.753906 -22.925781 5.390625 -23.15625 C 6.921875 -23.789062 8.390625 -24.238281 9.796875 -24.5 C 11.210938 -24.769531 12.503906 -24.90625 13.671875 -24.90625 C 16.066406 -24.90625 18.035156 -24.535156 19.578125 -23.796875 C 21.128906 -23.066406 22.285156 -21.960938 23.046875 -20.484375 C 23.816406 -19.003906 24.203125 -17.097656 24.203125 -14.765625 L 24.203125 -2.796875 C 24.203125 -1.765625 23.953125 -0.972656 23.453125 -0.421875 C 22.953125 0.128906 22.238281 0.40625 21.3125 0.40625 C 20.375 0.40625 19.644531 0.128906 19.125 -0.421875 C 18.613281 -0.972656 18.359375 -1.765625 18.359375 -2.796875 L 18.359375 -5.1875 L 18.765625 -5.1875 C 18.535156 -4.019531 18.078125 -3.007812 17.390625 -2.15625 C 16.710938 -1.3125 15.859375 -0.65625 14.828125 -0.1875 C 13.796875 0.269531 12.613281 0.5 11.28125 0.5 Z M 11.28125 0.5 "/></g></g></g><g fill="#000000" fill-opacity="1"><g transform="translate(553.952925, 112.438744)"><g><path d="M 11.578125 0.5 C 8.816406 0.5 6.738281 -0.285156 5.34375 -1.859375 C 3.945312 -3.441406 3.25 -5.765625 3.25 -8.828125 L 3.25 -32.4375 C 3.25 -33.46875 3.515625 -34.25 4.046875 -34.78125 C 4.578125 -35.3125 5.34375 -35.578125 6.34375 -35.578125 C 7.332031 -35.578125 8.101562 -35.3125 8.65625 -34.78125 C 9.207031 -34.25 9.484375 -33.46875 9.484375 -32.4375 L 9.484375 -9.140625 C 9.484375 -7.609375 9.804688 -6.472656 10.453125 -5.734375 C 11.097656 -5.003906 12.019531 -4.640625 13.21875 -4.640625 C 13.488281 -4.640625 13.738281 -4.644531 13.96875 -4.65625 C 14.207031 -4.675781 14.441406 -4.703125 14.671875 -4.734375 C 15.140625 -4.804688 15.457031 -4.679688 15.625 -4.359375 C 15.789062 -4.046875 15.875 -3.410156 15.875 -2.453125 C 15.875 -1.617188 15.707031 -0.96875 15.375 -0.5 C 15.039062 -0.03125 14.488281 0.25 13.71875 0.34375 C 13.382812 0.382812 13.035156 0.421875 12.671875 0.453125 C 12.304688 0.484375 11.941406 0.5 11.578125 0.5 Z M 11.578125 0.5 "/></g></g></g><g fill="#000000" fill-opacity="1"><g transform="translate(569.874561, 112.438744)"><g><path d="M 11.28125 0.5 C 9.519531 0.5 7.945312 0.160156 6.5625 -0.515625 C 5.175781 -1.203125 4.09375 -2.128906 3.3125 -3.296875 C 2.53125 -4.460938 2.140625 -5.773438 2.140625 -7.234375 C 2.140625 -9.035156 2.601562 -10.457031 3.53125 -11.5 C 4.46875 -12.550781 5.984375 -13.304688 8.078125 -13.765625 C 10.179688 -14.234375 12.992188 -14.46875 16.515625 -14.46875 L 19.015625 -14.46875 L 19.015625 -10.875 L 16.5625 -10.875 C 14.5 -10.875 12.851562 -10.773438 11.625 -10.578125 C 10.394531 -10.378906 9.519531 -10.035156 9 -9.546875 C 8.488281 -9.066406 8.234375 -8.394531 8.234375 -7.53125 C 8.234375 -6.4375 8.613281 -5.539062 9.375 -4.84375 C 10.144531 -4.144531 11.210938 -3.796875 12.578125 -3.796875 C 13.671875 -3.796875 14.640625 -4.050781 15.484375 -4.5625 C 16.335938 -5.082031 17.015625 -5.789062 17.515625 -6.6875 C 18.015625 -7.582031 18.265625 -8.613281 18.265625 -9.78125 L 18.265625 -15.515625 C 18.265625 -17.179688 17.894531 -18.378906 17.15625 -19.109375 C 16.425781 -19.847656 15.195312 -20.21875 13.46875 -20.21875 C 12.507812 -20.21875 11.472656 -20.097656 10.359375 -19.859375 C 9.242188 -19.628906 8.070312 -19.234375 6.84375 -18.671875 C 6.207031 -18.367188 5.644531 -18.28125 5.15625 -18.40625 C 4.675781 -18.539062 4.300781 -18.816406 4.03125 -19.234375 C 3.769531 -19.648438 3.640625 -20.109375 3.640625 -20.609375 C 3.640625 -21.109375 3.769531 -21.597656 4.03125 -22.078125 C 4.300781 -22.566406 4.753906 -22.925781 5.390625 -23.15625 C 6.921875 -23.789062 8.390625 -24.238281 9.796875 -24.5 C 11.210938 -24.769531 12.503906 -24.90625 13.671875 -24.90625 C 16.066406 -24.90625 18.035156 -24.535156 19.578125 -23.796875 C 21.128906 -23.066406 22.285156 -21.960938 23.046875 -20.484375 C 23.816406 -19.003906 24.203125 -17.097656 24.203125 -14.765625 L 24.203125 -2.796875 C 24.203125 -1.765625 23.953125 -0.972656 23.453125 -0.421875 C 22.953125 0.128906 22.238281 0.40625 21.3125 0.40625 C 20.375 0.40625 19.644531 0.128906 19.125 -0.421875 C 18.613281 -0.972656 18.359375 -1.765625 18.359375 -2.796875 L 18.359375 -5.1875 L 18.765625 -5.1875 C 18.535156 -4.019531 18.078125 -3.007812 17.390625 -2.15625 C 16.710938 -1.3125 15.859375 -0.65625 14.828125 -0.1875 C 13.796875 0.269531 12.613281 0.5 11.28125 0.5 Z M 11.28125 0.5 "/></g></g></g><g fill="#000000" fill-opacity="1"><g transform="translate(597.175917, 112.438744)"><g><path d="M 6.34375 0.40625 C 5.34375 0.40625 4.578125 0.128906 4.046875 -0.421875 C 3.515625 -0.972656 3.25 -1.765625 3.25 -2.796875 L 3.25 -32.4375 C 3.25 -33.46875 3.515625 -34.25 4.046875 -34.78125 C 4.578125 -35.3125 5.34375 -35.578125 6.34375 -35.578125 C 7.332031 -35.578125 8.101562 -35.3125 8.65625 -34.78125 C 9.207031 -34.25 9.484375 -33.46875 9.484375 -32.4375 L 9.484375 -19.515625 L 8.78125 -19.515625 C 9.507812 -21.273438 10.644531 -22.613281 12.1875 -23.53125 C 13.738281 -24.445312 15.5 -24.90625 17.46875 -24.90625 C 19.425781 -24.90625 21.035156 -24.535156 22.296875 -23.796875 C 23.566406 -23.066406 24.515625 -21.960938 25.140625 -20.484375 C 25.773438 -19.003906 26.09375 -17.132812 26.09375 -14.875 L 26.09375 -2.796875 C 26.09375 -1.765625 25.828125 -0.972656 25.296875 -0.421875 C 24.765625 0.128906 24 0.40625 23 0.40625 C 22.007812 0.40625 21.238281 0.128906 20.6875 -0.421875 C 20.132812 -0.972656 19.859375 -1.765625 19.859375 -2.796875 L 19.859375 -14.578125 C 19.859375 -16.472656 19.5 -17.851562 18.78125 -18.71875 C 18.070312 -19.582031 16.96875 -20.015625 15.46875 -20.015625 C 13.632812 -20.015625 12.175781 -19.4375 11.09375 -18.28125 C 10.019531 -17.132812 9.484375 -15.613281 9.484375 -13.71875 L 9.484375 -2.796875 C 9.484375 -0.660156 8.4375 0.40625 6.34375 0.40625 Z M 6.34375 0.40625 "/></g></g></g></svg>