<svg xmlns="http://www.w3.org/2000/svg" xmlns:xlink="http://www.w3.org/1999/xlink" width="238" zoomAndPan="magnify" viewBox="0 0 178.5 76.499998" height="102" preserveAspectRatio="xMidYMid meet" version="1.0"><defs><g/><clipPath id="ec5670e699"><path d="M 0.332031 0 L 177.589844 0 L 177.589844 75.257812 L 0.332031 75.257812 Z M 0.332031 0 " clip-rule="nonzero"/></clipPath></defs><g clip-path="url(#ec5670e699)"><path stroke-linecap="butt" transform="matrix(0.74513, 0, 0, 0.74513, 0.332484, 0.000000000000005294)" fill="none" stroke-linejoin="miter" d="M -0.000607433 -0.000000000000007105 L 237.88789 -0.000000000000007105 L 237.88789 101.015326 L -0.000607433 101.015326 Z M -0.000607433 -0.000000000000007105 " stroke="#000000" stroke-width="12" stroke-opacity="1" stroke-miterlimit="4"/></g><g fill="#000000" fill-opacity="1"><g transform="translate(77.039034, 50.302977)"><g><path d="M 6.203125 0 C 5.515625 0 4.976562 -0.191406 4.59375 -0.578125 C 4.207031 -0.960938 4.015625 -1.484375 4.015625 -2.140625 C 4.015625 -2.828125 4.207031 -3.34375 4.59375 -3.6875 C 4.976562 -4.039062 5.515625 -4.21875 6.203125 -4.21875 L 10.65625 -4.21875 L 10.65625 -23.71875 L 13.109375 -23.71875 L 7.265625 -20.1875 C 6.765625 -19.894531 6.296875 -19.78125 5.859375 -19.84375 C 5.421875 -19.914062 5.050781 -20.101562 4.75 -20.40625 C 4.445312 -20.707031 4.238281 -21.066406 4.125 -21.484375 C 4.019531 -21.910156 4.050781 -22.34375 4.21875 -22.78125 C 4.394531 -23.21875 4.738281 -23.582031 5.25 -23.875 L 10.734375 -27.171875 C 11.253906 -27.492188 11.78125 -27.765625 12.3125 -27.984375 C 12.84375 -28.210938 13.332031 -28.328125 13.78125 -28.328125 C 14.34375 -28.328125 14.804688 -28.175781 15.171875 -27.875 C 15.546875 -27.570312 15.734375 -27.078125 15.734375 -26.390625 L 15.734375 -4.21875 L 19.78125 -4.21875 C 20.476562 -4.21875 21.015625 -4.039062 21.390625 -3.6875 C 21.773438 -3.34375 21.96875 -2.828125 21.96875 -2.140625 C 21.96875 -1.453125 21.773438 -0.921875 21.390625 -0.546875 C 21.015625 -0.179688 20.476562 0 19.78125 0 Z M 6.203125 0 "/></g></g></g></svg>