<svg xmlns="http://www.w3.org/2000/svg" xmlns:xlink="http://www.w3.org/1999/xlink" width="225" zoomAndPan="magnify" viewBox="0 0 168.75 167.999997" height="224" preserveAspectRatio="xMidYMid meet" version="1.0"><defs><g/><clipPath id="e14d4ee33e"><path d="M 11.566406 11.394531 L 156.097656 11.394531 L 156.097656 155.929688 L 11.566406 155.929688 Z M 11.566406 11.394531 " clip-rule="nonzero"/></clipPath></defs><g clip-path="url(#e14d4ee33e)"><path stroke-linecap="butt" transform="matrix(0.748891, 0, 0, 0.748891, 11.565331, 11.394488)" fill="none" stroke-linejoin="miter" d="M 0.00143551 0.0000581935 L 193.2039 0.0000581935 L 193.2039 193.155579 L 0.00143551 193.155579 Z M 0.00143551 0.0000581935 " stroke="#000000" stroke-width="12" stroke-opacity="1" stroke-miterlimit="4"/></g><g fill="#000000" fill-opacity="1"><g transform="translate(25.197732, 115.178899)"><g><path d="M 27.984375 0.984375 C 24.460938 0.984375 20.804688 0.523438 17.015625 -0.390625 C 13.234375 -1.304688 9.941406 -2.675781 7.140625 -4.5 C 5.835938 -5.34375 4.957031 -6.316406 4.5 -7.421875 C 4.039062 -8.535156 3.925781 -9.597656 4.15625 -10.609375 C 4.382812 -11.617188 4.875 -12.484375 5.625 -13.203125 C 6.375 -13.921875 7.316406 -14.34375 8.453125 -14.46875 C 9.597656 -14.601562 10.859375 -14.3125 12.234375 -13.59375 C 14.898438 -12.164062 17.472656 -11.140625 19.953125 -10.515625 C 22.429688 -9.898438 24.976562 -9.59375 27.59375 -9.59375 C 30.457031 -9.59375 32.867188 -9.984375 34.828125 -10.765625 C 36.785156 -11.546875 38.269531 -12.71875 39.28125 -14.28125 C 40.289062 -15.851562 40.796875 -17.742188 40.796875 -19.953125 C 40.796875 -23.222656 39.703125 -25.65625 37.515625 -27.25 C 35.335938 -28.84375 32.160156 -29.640625 27.984375 -29.640625 L 21.71875 -29.640625 C 19.894531 -29.640625 18.507812 -30.097656 17.5625 -31.015625 C 16.613281 -31.929688 16.140625 -33.203125 16.140625 -34.828125 C 16.140625 -36.460938 16.613281 -37.734375 17.5625 -38.640625 C 18.507812 -39.554688 19.894531 -40.015625 21.71875 -40.015625 L 26.8125 -40.015625 C 29.289062 -40.015625 31.410156 -40.421875 33.171875 -41.234375 C 34.929688 -42.054688 36.300781 -43.21875 37.28125 -44.71875 C 38.257812 -46.21875 38.75 -48.039062 38.75 -50.1875 C 38.75 -53.1875 37.753906 -55.46875 35.765625 -57.03125 C 33.773438 -58.601562 30.890625 -59.390625 27.109375 -59.390625 C 24.691406 -59.390625 22.421875 -59.113281 20.296875 -58.5625 C 18.179688 -58.007812 15.851562 -56.984375 13.3125 -55.484375 C 12.132812 -54.765625 11.003906 -54.46875 9.921875 -54.59375 C 8.847656 -54.726562 7.953125 -55.148438 7.234375 -55.859375 C 6.523438 -56.578125 6.035156 -57.441406 5.765625 -58.453125 C 5.503906 -59.472656 5.570312 -60.519531 5.96875 -61.59375 C 6.363281 -62.664062 7.179688 -63.59375 8.421875 -64.375 C 11.222656 -66.207031 14.316406 -67.59375 17.703125 -68.53125 C 21.097656 -69.476562 24.585938 -69.953125 28.171875 -69.953125 C 32.941406 -69.953125 37.019531 -69.21875 40.40625 -67.75 C 43.800781 -66.289062 46.394531 -64.207031 48.1875 -61.5 C 49.976562 -58.789062 50.875 -55.507812 50.875 -51.65625 C 50.875 -48.914062 50.351562 -46.421875 49.3125 -44.171875 C 48.269531 -41.921875 46.800781 -40.015625 44.90625 -38.453125 C 43.019531 -36.890625 40.738281 -35.78125 38.0625 -35.125 L 38.0625 -36.296875 C 42.757812 -35.515625 46.410156 -33.570312 49.015625 -30.46875 C 51.628906 -27.375 52.9375 -23.515625 52.9375 -18.890625 C 52.9375 -14.835938 51.921875 -11.3125 49.890625 -8.3125 C 47.867188 -5.3125 45 -3.007812 41.28125 -1.40625 C 37.570312 0.1875 33.140625 0.984375 27.984375 0.984375 Z M 27.984375 0.984375 "/></g></g></g><g fill="#000000" fill-opacity="1"><g transform="translate(83.906069, 115.178899)"><g><path d="M 31.890625 0.984375 C 26.222656 0.984375 21.378906 -0.367188 17.359375 -3.078125 C 13.347656 -5.785156 10.300781 -9.679688 8.21875 -14.765625 C 6.132812 -19.859375 5.09375 -26.023438 5.09375 -33.265625 C 5.09375 -39.140625 5.757812 -44.34375 7.09375 -48.875 C 8.425781 -53.40625 10.363281 -57.234375 12.90625 -60.359375 C 15.457031 -63.492188 18.570312 -65.875 22.25 -67.5 C 25.9375 -69.132812 30.097656 -69.953125 34.734375 -69.953125 C 37.609375 -69.953125 40.523438 -69.507812 43.484375 -68.625 C 46.453125 -67.75 49.242188 -66.429688 51.859375 -64.671875 C 52.898438 -64.023438 53.582031 -63.175781 53.90625 -62.125 C 54.238281 -61.082031 54.289062 -60.054688 54.0625 -59.046875 C 53.832031 -58.035156 53.375 -57.15625 52.6875 -56.40625 C 52 -55.65625 51.132812 -55.195312 50.09375 -55.03125 C 49.050781 -54.875 47.910156 -55.15625 46.671875 -55.875 C 44.453125 -57.175781 42.363281 -58.085938 40.40625 -58.609375 C 38.445312 -59.128906 36.488281 -59.390625 34.53125 -59.390625 C 30.75 -59.390625 27.550781 -58.507812 24.9375 -56.75 C 22.332031 -54.988281 20.363281 -52.347656 19.03125 -48.828125 C 17.695312 -45.304688 17.03125 -40.898438 17.03125 -35.609375 L 17.03125 -28.28125 L 15.84375 -28.28125 C 16.375 -31.601562 17.46875 -34.453125 19.125 -36.828125 C 20.789062 -39.210938 22.925781 -41.039062 25.53125 -42.3125 C 28.144531 -43.582031 31.050781 -44.21875 34.25 -44.21875 C 38.226562 -44.21875 41.75 -43.269531 44.8125 -41.375 C 47.875 -39.488281 50.285156 -36.882812 52.046875 -33.5625 C 53.804688 -30.238281 54.6875 -26.421875 54.6875 -22.109375 C 54.6875 -17.671875 53.722656 -13.707031 51.796875 -10.21875 C 49.878906 -6.726562 47.207031 -3.988281 43.78125 -2 C 40.351562 -0.0078125 36.390625 0.984375 31.890625 0.984375 Z M 31.21875 -9 C 33.5625 -9 35.628906 -9.519531 37.421875 -10.5625 C 39.210938 -11.601562 40.597656 -13.085938 41.578125 -15.015625 C 42.554688 -16.941406 43.046875 -19.144531 43.046875 -21.625 C 43.046875 -24.164062 42.554688 -26.378906 41.578125 -28.265625 C 40.597656 -30.160156 39.210938 -31.644531 37.421875 -32.71875 C 35.628906 -33.800781 33.5625 -34.34375 31.21875 -34.34375 C 28.863281 -34.34375 26.804688 -33.800781 25.046875 -32.71875 C 23.285156 -31.644531 21.898438 -30.160156 20.890625 -28.265625 C 19.878906 -26.378906 19.375 -24.164062 19.375 -21.625 C 19.375 -19.144531 19.878906 -16.941406 20.890625 -15.015625 C 21.898438 -13.085938 23.285156 -11.601562 25.046875 -10.5625 C 26.804688 -9.519531 28.863281 -9 31.21875 -9 Z M 31.21875 -9 "/></g></g></g></svg>