<svg xmlns="http://www.w3.org/2000/svg" xmlns:xlink="http://www.w3.org/1999/xlink" width="571" zoomAndPan="magnify" viewBox="0 0 428.25 74.249996" height="99" preserveAspectRatio="xMidYMid meet" version="1.0"><defs><g/><clipPath id="ff2e9ebbbf"><path d="M 5.695312 0 L 421.171875 0 L 421.171875 72.765625 L 5.695312 72.765625 Z M 5.695312 0 " clip-rule="nonzero"/></clipPath></defs><g clip-path="url(#ff2e9ebbbf)"><path stroke-linecap="butt" transform="matrix(0.7425, 0, 0, 0.7425, 5.693872, -0.00000198)" fill="none" stroke-linejoin="miter" d="M 0.00194001 0.00000266667 L 559.566387 0.00000266667 L 559.566387 98.158682 L 0.00194001 98.158682 Z M 0.00194001 0.00000266667 " stroke="#000000" stroke-width="12" stroke-opacity="1" stroke-miterlimit="4"/></g><g fill="#000000" fill-opacity="1"><g transform="translate(11.967004, 49.064615)"><g><path d="M 3.328125 0.3125 C 2.691406 0.3125 2.179688 0.171875 1.796875 -0.109375 C 1.421875 -0.398438 1.191406 -0.789062 1.109375 -1.28125 C 1.023438 -1.769531 1.117188 -2.320312 1.390625 -2.9375 L 11.84375 -26.09375 C 12.1875 -26.851562 12.597656 -27.398438 13.078125 -27.734375 C 13.566406 -28.066406 14.128906 -28.234375 14.765625 -28.234375 C 15.367188 -28.234375 15.914062 -28.066406 16.40625 -27.734375 C 16.894531 -27.398438 17.3125 -26.851562 17.65625 -26.09375 L 28.15625 -2.9375 C 28.445312 -2.320312 28.550781 -1.765625 28.46875 -1.265625 C 28.382812 -0.765625 28.15625 -0.375 27.78125 -0.09375 C 27.414062 0.175781 26.929688 0.3125 26.328125 0.3125 C 25.585938 0.3125 25.015625 0.132812 24.609375 -0.21875 C 24.203125 -0.570312 23.835938 -1.117188 23.515625 -1.859375 L 20.9375 -7.84375 L 23.078125 -6.453125 L 6.375 -6.453125 L 8.515625 -7.84375 L 5.984375 -1.859375 C 5.640625 -1.097656 5.28125 -0.546875 4.90625 -0.203125 C 4.539062 0.140625 4.015625 0.3125 3.328125 0.3125 Z M 14.6875 -22.40625 L 9.140625 -9.21875 L 8.109375 -10.5 L 21.34375 -10.5 L 20.34375 -9.21875 L 14.765625 -22.40625 Z M 14.6875 -22.40625 "/></g></g></g><g fill="#000000" fill-opacity="1"><g transform="translate(41.426473, 49.064615)"><g/></g></g><g fill="#000000" fill-opacity="1"><g transform="translate(52.157011, 49.064615)"><g><path d="M 3.6875 -13.578125 C 3.125 -13.578125 2.6875 -13.726562 2.375 -14.03125 C 2.0625 -14.332031 1.90625 -14.765625 1.90625 -15.328125 C 1.90625 -15.878906 2.0625 -16.304688 2.375 -16.609375 C 2.6875 -16.910156 3.125 -17.0625 3.6875 -17.0625 L 20.078125 -17.0625 C 20.648438 -17.0625 21.085938 -16.910156 21.390625 -16.609375 C 21.703125 -16.304688 21.859375 -15.878906 21.859375 -15.328125 C 21.859375 -14.765625 21.703125 -14.332031 21.390625 -14.03125 C 21.085938 -13.726562 20.648438 -13.578125 20.078125 -13.578125 Z M 3.6875 -5.703125 C 3.125 -5.703125 2.6875 -5.851562 2.375 -6.15625 C 2.0625 -6.457031 1.90625 -6.882812 1.90625 -7.4375 C 1.90625 -8 2.0625 -8.421875 2.375 -8.703125 C 2.6875 -8.992188 3.125 -9.140625 3.6875 -9.140625 L 20.078125 -9.140625 C 20.648438 -9.140625 21.085938 -8.992188 21.390625 -8.703125 C 21.703125 -8.421875 21.859375 -8 21.859375 -7.4375 C 21.859375 -6.863281 21.703125 -6.429688 21.390625 -6.140625 C 21.085938 -5.847656 20.648438 -5.703125 20.078125 -5.703125 Z M 3.6875 -5.703125 "/></g></g></g><g fill="#000000" fill-opacity="1"><g transform="translate(75.914652, 49.064615)"><g/></g></g><g fill="#000000" fill-opacity="1"><g transform="translate(86.64519, 49.064615)"><g><path d="M 12.109375 0.390625 C 10.710938 0.390625 9.285156 0.207031 7.828125 -0.15625 C 6.378906 -0.53125 5.050781 -1.097656 3.84375 -1.859375 C 3.34375 -2.179688 3.003906 -2.554688 2.828125 -2.984375 C 2.660156 -3.421875 2.617188 -3.859375 2.703125 -4.296875 C 2.796875 -4.734375 2.992188 -5.101562 3.296875 -5.40625 C 3.609375 -5.707031 3.976562 -5.882812 4.40625 -5.9375 C 4.84375 -5.988281 5.328125 -5.867188 5.859375 -5.578125 C 6.835938 -5.023438 7.828125 -4.601562 8.828125 -4.3125 C 9.828125 -4.019531 10.894531 -3.875 12.03125 -3.875 C 13.144531 -3.875 14.097656 -4.070312 14.890625 -4.46875 C 15.679688 -4.863281 16.285156 -5.414062 16.703125 -6.125 C 17.128906 -6.84375 17.34375 -7.675781 17.34375 -8.625 C 17.34375 -10.101562 16.894531 -11.296875 16 -12.203125 C 15.101562 -13.117188 13.875 -13.578125 12.3125 -13.578125 C 11.46875 -13.578125 10.648438 -13.4375 9.859375 -13.15625 C 9.066406 -12.882812 8.285156 -12.40625 7.515625 -11.71875 C 7.285156 -11.507812 6.984375 -11.304688 6.609375 -11.109375 C 6.242188 -10.910156 5.847656 -10.8125 5.421875 -10.8125 C 4.765625 -10.8125 4.265625 -10.984375 3.921875 -11.328125 C 3.578125 -11.671875 3.40625 -12.144531 3.40625 -12.75 L 3.40625 -25.703125 C 3.40625 -26.410156 3.59375 -26.953125 3.96875 -27.328125 C 4.351562 -27.710938 4.90625 -27.90625 5.625 -27.90625 L 18.65625 -27.90625 C 19.363281 -27.90625 19.90625 -27.726562 20.28125 -27.375 C 20.664062 -27.019531 20.859375 -26.5 20.859375 -25.8125 C 20.859375 -25.15625 20.664062 -24.640625 20.28125 -24.265625 C 19.90625 -23.898438 19.363281 -23.71875 18.65625 -23.71875 L 8.359375 -23.71875 L 8.359375 -14.84375 L 7.046875 -14.84375 C 7.734375 -15.769531 8.644531 -16.484375 9.78125 -16.984375 C 10.914062 -17.484375 12.15625 -17.734375 13.5 -17.734375 C 15.269531 -17.734375 16.804688 -17.359375 18.109375 -16.609375 C 19.421875 -15.859375 20.4375 -14.816406 21.15625 -13.484375 C 21.882812 -12.148438 22.25 -10.597656 22.25 -8.828125 C 22.25 -7.003906 21.835938 -5.398438 21.015625 -4.015625 C 20.203125 -2.628906 19.035156 -1.546875 17.515625 -0.765625 C 16.003906 0.00390625 14.203125 0.390625 12.109375 0.390625 Z M 12.109375 0.390625 "/></g></g></g><g fill="#000000" fill-opacity="1"><g transform="translate(110.402831, 49.064615)"><g><path d="M 5.578125 4.234375 C 5.234375 4.660156 4.867188 4.90625 4.484375 4.96875 C 4.109375 5.03125 3.773438 4.957031 3.484375 4.75 C 3.191406 4.539062 3.03125 4.242188 3 3.859375 C 2.976562 3.472656 3.15625 3.054688 3.53125 2.609375 C 4.050781 1.953125 4.40625 1.289062 4.59375 0.625 C 4.78125 -0.03125 4.875 -0.617188 4.875 -1.140625 L 5.0625 0.203125 C 4.144531 0.203125 3.398438 -0.0664062 2.828125 -0.609375 C 2.265625 -1.148438 1.984375 -1.867188 1.984375 -2.765625 C 1.984375 -3.609375 2.242188 -4.300781 2.765625 -4.84375 C 3.296875 -5.382812 4.007812 -5.65625 4.90625 -5.65625 C 5.832031 -5.65625 6.554688 -5.34375 7.078125 -4.71875 C 7.609375 -4.101562 7.875 -3.21875 7.875 -2.0625 C 7.875 -1.425781 7.8125 -0.769531 7.6875 -0.09375 C 7.570312 0.570312 7.347656 1.269531 7.015625 2 C 6.691406 2.726562 6.210938 3.472656 5.578125 4.234375 Z M 5.578125 4.234375 "/></g></g></g><g fill="#000000" fill-opacity="1"><g transform="translate(120.222658, 49.064615)"><g/></g></g><g fill="#000000" fill-opacity="1"><g transform="translate(130.953196, 49.064615)"><g><path d="M 5.734375 0 C 4.867188 0 4.203125 -0.226562 3.734375 -0.6875 C 3.273438 -1.15625 3.046875 -1.820312 3.046875 -2.6875 L 3.046875 -25.21875 C 3.046875 -26.09375 3.273438 -26.757812 3.734375 -27.21875 C 4.203125 -27.675781 4.867188 -27.90625 5.734375 -27.90625 L 15.25 -27.90625 C 17.195312 -27.90625 18.859375 -27.613281 20.234375 -27.03125 C 21.609375 -26.457031 22.65625 -25.628906 23.375 -24.546875 C 24.101562 -23.460938 24.46875 -22.171875 24.46875 -20.671875 C 24.46875 -18.984375 23.976562 -17.554688 23 -16.390625 C 22.019531 -15.234375 20.6875 -14.457031 19 -14.0625 L 19 -14.65625 C 20.957031 -14.363281 22.476562 -13.625 23.5625 -12.4375 C 24.644531 -11.25 25.1875 -9.703125 25.1875 -7.796875 C 25.1875 -5.316406 24.347656 -3.394531 22.671875 -2.03125 C 20.992188 -0.675781 18.660156 0 15.671875 0 Z M 7.921875 -3.84375 L 15.046875 -3.84375 C 16.835938 -3.84375 18.15625 -4.191406 19 -4.890625 C 19.84375 -5.585938 20.265625 -6.632812 20.265625 -8.03125 C 20.265625 -9.457031 19.84375 -10.515625 19 -11.203125 C 18.15625 -11.890625 16.835938 -12.234375 15.046875 -12.234375 L 7.921875 -12.234375 Z M 7.921875 -16.078125 L 14.375 -16.078125 C 16.113281 -16.078125 17.410156 -16.410156 18.265625 -17.078125 C 19.128906 -17.753906 19.5625 -18.753906 19.5625 -20.078125 C 19.5625 -21.390625 19.128906 -22.382812 18.265625 -23.0625 C 17.410156 -23.738281 16.113281 -24.078125 14.375 -24.078125 L 7.921875 -24.078125 Z M 7.921875 -16.078125 "/></g></g></g><g fill="#000000" fill-opacity="1"><g transform="translate(158.195293, 49.064615)"><g/></g></g><g fill="#000000" fill-opacity="1"><g transform="translate(168.925831, 49.064615)"><g><path d="M 3.6875 -13.578125 C 3.125 -13.578125 2.6875 -13.726562 2.375 -14.03125 C 2.0625 -14.332031 1.90625 -14.765625 1.90625 -15.328125 C 1.90625 -15.878906 2.0625 -16.304688 2.375 -16.609375 C 2.6875 -16.910156 3.125 -17.0625 3.6875 -17.0625 L 20.078125 -17.0625 C 20.648438 -17.0625 21.085938 -16.910156 21.390625 -16.609375 C 21.703125 -16.304688 21.859375 -15.878906 21.859375 -15.328125 C 21.859375 -14.765625 21.703125 -14.332031 21.390625 -14.03125 C 21.085938 -13.726562 20.648438 -13.578125 20.078125 -13.578125 Z M 3.6875 -5.703125 C 3.125 -5.703125 2.6875 -5.851562 2.375 -6.15625 C 2.0625 -6.457031 1.90625 -6.882812 1.90625 -7.4375 C 1.90625 -8 2.0625 -8.421875 2.375 -8.703125 C 2.6875 -8.992188 3.125 -9.140625 3.6875 -9.140625 L 20.078125 -9.140625 C 20.648438 -9.140625 21.085938 -8.992188 21.390625 -8.703125 C 21.703125 -8.421875 21.859375 -8 21.859375 -7.4375 C 21.859375 -6.863281 21.703125 -6.429688 21.390625 -6.140625 C 21.085938 -5.847656 20.648438 -5.703125 20.078125 -5.703125 Z M 3.6875 -5.703125 "/></g></g></g><g fill="#000000" fill-opacity="1"><g transform="translate(192.683472, 49.064615)"><g/></g></g><g fill="#000000" fill-opacity="1"><g transform="translate(203.414021, 49.064615)"><g><path d="M 12.109375 0.390625 C 10.710938 0.390625 9.285156 0.207031 7.828125 -0.15625 C 6.378906 -0.53125 5.050781 -1.097656 3.84375 -1.859375 C 3.34375 -2.179688 3.003906 -2.554688 2.828125 -2.984375 C 2.660156 -3.421875 2.617188 -3.859375 2.703125 -4.296875 C 2.796875 -4.734375 2.992188 -5.101562 3.296875 -5.40625 C 3.609375 -5.707031 3.976562 -5.882812 4.40625 -5.9375 C 4.84375 -5.988281 5.328125 -5.867188 5.859375 -5.578125 C 6.835938 -5.023438 7.828125 -4.601562 8.828125 -4.3125 C 9.828125 -4.019531 10.894531 -3.875 12.03125 -3.875 C 13.144531 -3.875 14.097656 -4.070312 14.890625 -4.46875 C 15.679688 -4.863281 16.285156 -5.414062 16.703125 -6.125 C 17.128906 -6.84375 17.34375 -7.675781 17.34375 -8.625 C 17.34375 -10.101562 16.894531 -11.296875 16 -12.203125 C 15.101562 -13.117188 13.875 -13.578125 12.3125 -13.578125 C 11.46875 -13.578125 10.648438 -13.4375 9.859375 -13.15625 C 9.066406 -12.882812 8.285156 -12.40625 7.515625 -11.71875 C 7.285156 -11.507812 6.984375 -11.304688 6.609375 -11.109375 C 6.242188 -10.910156 5.847656 -10.8125 5.421875 -10.8125 C 4.765625 -10.8125 4.265625 -10.984375 3.921875 -11.328125 C 3.578125 -11.671875 3.40625 -12.144531 3.40625 -12.75 L 3.40625 -25.703125 C 3.40625 -26.410156 3.59375 -26.953125 3.96875 -27.328125 C 4.351562 -27.710938 4.90625 -27.90625 5.625 -27.90625 L 18.65625 -27.90625 C 19.363281 -27.90625 19.90625 -27.726562 20.28125 -27.375 C 20.664062 -27.019531 20.859375 -26.5 20.859375 -25.8125 C 20.859375 -25.15625 20.664062 -24.640625 20.28125 -24.265625 C 19.90625 -23.898438 19.363281 -23.71875 18.65625 -23.71875 L 8.359375 -23.71875 L 8.359375 -14.84375 L 7.046875 -14.84375 C 7.734375 -15.769531 8.644531 -16.484375 9.78125 -16.984375 C 10.914062 -17.484375 12.15625 -17.734375 13.5 -17.734375 C 15.269531 -17.734375 16.804688 -17.359375 18.109375 -16.609375 C 19.421875 -15.859375 20.4375 -14.816406 21.15625 -13.484375 C 21.882812 -12.148438 22.25 -10.597656 22.25 -8.828125 C 22.25 -7.003906 21.835938 -5.398438 21.015625 -4.015625 C 20.203125 -2.628906 19.035156 -1.546875 17.515625 -0.765625 C 16.003906 0.00390625 14.203125 0.390625 12.109375 0.390625 Z M 12.109375 0.390625 "/></g></g></g><g fill="#000000" fill-opacity="1"><g transform="translate(227.171662, 49.064615)"><g><path d="M 11.875 0.390625 C 8.570312 0.390625 6.050781 -0.851562 4.3125 -3.34375 C 2.570312 -5.84375 1.703125 -9.398438 1.703125 -14.015625 C 1.703125 -17.128906 2.085938 -19.75 2.859375 -21.875 C 3.640625 -24 4.789062 -25.601562 6.3125 -26.6875 C 7.832031 -27.769531 9.6875 -28.3125 11.875 -28.3125 C 15.195312 -28.3125 17.722656 -27.097656 19.453125 -24.671875 C 21.179688 -22.242188 22.046875 -18.707031 22.046875 -14.0625 C 22.046875 -10.96875 21.65625 -8.34375 20.875 -6.1875 C 20.101562 -4.039062 18.960938 -2.40625 17.453125 -1.28125 C 15.953125 -0.164062 14.09375 0.390625 11.875 0.390625 Z M 11.875 -3.765625 C 13.675781 -3.765625 15.003906 -4.59375 15.859375 -6.25 C 16.710938 -7.914062 17.140625 -10.519531 17.140625 -14.0625 C 17.140625 -17.59375 16.710938 -20.15625 15.859375 -21.75 C 15.003906 -23.351562 13.675781 -24.15625 11.875 -24.15625 C 10.101562 -24.15625 8.78125 -23.351562 7.90625 -21.75 C 7.039062 -20.15625 6.609375 -17.59375 6.609375 -14.0625 C 6.609375 -10.519531 7.039062 -7.914062 7.90625 -6.25 C 8.78125 -4.59375 10.101562 -3.765625 11.875 -3.765625 Z M 11.875 -3.765625 "/></g></g></g><g fill="#000000" fill-opacity="1"><g transform="translate(250.929303, 49.064615)"><g><path d="M 5.578125 4.234375 C 5.234375 4.660156 4.867188 4.90625 4.484375 4.96875 C 4.109375 5.03125 3.773438 4.957031 3.484375 4.75 C 3.191406 4.539062 3.03125 4.242188 3 3.859375 C 2.976562 3.472656 3.15625 3.054688 3.53125 2.609375 C 4.050781 1.953125 4.40625 1.289062 4.59375 0.625 C 4.78125 -0.03125 4.875 -0.617188 4.875 -1.140625 L 5.0625 0.203125 C 4.144531 0.203125 3.398438 -0.0664062 2.828125 -0.609375 C 2.265625 -1.148438 1.984375 -1.867188 1.984375 -2.765625 C 1.984375 -3.609375 2.242188 -4.300781 2.765625 -4.84375 C 3.296875 -5.382812 4.007812 -5.65625 4.90625 -5.65625 C 5.832031 -5.65625 6.554688 -5.34375 7.078125 -4.71875 C 7.609375 -4.101562 7.875 -3.21875 7.875 -2.0625 C 7.875 -1.425781 7.8125 -0.769531 7.6875 -0.09375 C 7.570312 0.570312 7.347656 1.269531 7.015625 2 C 6.691406 2.726562 6.210938 3.472656 5.578125 4.234375 Z M 5.578125 4.234375 "/></g></g></g><g fill="#000000" fill-opacity="1"><g transform="translate(260.749119, 49.064615)"><g/></g></g><g fill="#000000" fill-opacity="1"><g transform="translate(271.479657, 49.064615)"><g><path d="M 16.03125 0.390625 C 13.132812 0.390625 10.648438 -0.191406 8.578125 -1.359375 C 6.503906 -2.535156 4.910156 -4.195312 3.796875 -6.34375 C 2.691406 -8.5 2.140625 -11.046875 2.140625 -13.984375 C 2.140625 -16.171875 2.453125 -18.140625 3.078125 -19.890625 C 3.710938 -21.648438 4.625 -23.15625 5.8125 -24.40625 C 7.007812 -25.664062 8.46875 -26.628906 10.1875 -27.296875 C 11.914062 -27.972656 13.863281 -28.3125 16.03125 -28.3125 C 17.488281 -28.3125 18.914062 -28.125 20.3125 -27.75 C 21.707031 -27.382812 22.9375 -26.859375 24 -26.171875 C 24.550781 -25.828125 24.914062 -25.410156 25.09375 -24.921875 C 25.28125 -24.429688 25.320312 -23.957031 25.21875 -23.5 C 25.113281 -23.039062 24.894531 -22.648438 24.5625 -22.328125 C 24.238281 -22.015625 23.832031 -21.835938 23.34375 -21.796875 C 22.851562 -21.753906 22.316406 -21.921875 21.734375 -22.296875 C 20.921875 -22.816406 20.035156 -23.195312 19.078125 -23.4375 C 18.128906 -23.675781 17.164062 -23.796875 16.1875 -23.796875 C 14.3125 -23.796875 12.726562 -23.410156 11.4375 -22.640625 C 10.144531 -21.878906 9.164062 -20.769531 8.5 -19.3125 C 7.84375 -17.863281 7.515625 -16.085938 7.515625 -13.984375 C 7.515625 -11.890625 7.84375 -10.101562 8.5 -8.625 C 9.164062 -7.15625 10.144531 -6.035156 11.4375 -5.265625 C 12.726562 -4.503906 14.3125 -4.125 16.1875 -4.125 C 17.195312 -4.125 18.1875 -4.25 19.15625 -4.5 C 20.132812 -4.75 21.0625 -5.132812 21.9375 -5.65625 C 22.519531 -6 23.039062 -6.148438 23.5 -6.109375 C 23.957031 -6.078125 24.34375 -5.914062 24.65625 -5.625 C 24.976562 -5.332031 25.191406 -4.96875 25.296875 -4.53125 C 25.398438 -4.09375 25.375 -3.644531 25.21875 -3.1875 C 25.0625 -2.726562 24.742188 -2.328125 24.265625 -1.984375 C 23.210938 -1.210938 21.953125 -0.625 20.484375 -0.21875 C 19.023438 0.1875 17.539062 0.390625 16.03125 0.390625 Z M 16.03125 0.390625 "/></g></g></g><g fill="#000000" fill-opacity="1"><g transform="translate(298.404978, 49.064615)"><g/></g></g><g fill="#000000" fill-opacity="1"><g transform="translate(309.135516, 49.064615)"><g><path d="M 3.6875 -13.578125 C 3.125 -13.578125 2.6875 -13.726562 2.375 -14.03125 C 2.0625 -14.332031 1.90625 -14.765625 1.90625 -15.328125 C 1.90625 -15.878906 2.0625 -16.304688 2.375 -16.609375 C 2.6875 -16.910156 3.125 -17.0625 3.6875 -17.0625 L 20.078125 -17.0625 C 20.648438 -17.0625 21.085938 -16.910156 21.390625 -16.609375 C 21.703125 -16.304688 21.859375 -15.878906 21.859375 -15.328125 C 21.859375 -14.765625 21.703125 -14.332031 21.390625 -14.03125 C 21.085938 -13.726562 20.648438 -13.578125 20.078125 -13.578125 Z M 3.6875 -5.703125 C 3.125 -5.703125 2.6875 -5.851562 2.375 -6.15625 C 2.0625 -6.457031 1.90625 -6.882812 1.90625 -7.4375 C 1.90625 -8 2.0625 -8.421875 2.375 -8.703125 C 2.6875 -8.992188 3.125 -9.140625 3.6875 -9.140625 L 20.078125 -9.140625 C 20.648438 -9.140625 21.085938 -8.992188 21.390625 -8.703125 C 21.703125 -8.421875 21.859375 -8 21.859375 -7.4375 C 21.859375 -6.863281 21.703125 -6.429688 21.390625 -6.140625 C 21.085938 -5.847656 20.648438 -5.703125 20.078125 -5.703125 Z M 3.6875 -5.703125 "/></g></g></g><g fill="#000000" fill-opacity="1"><g transform="translate(332.893157, 49.064615)"><g/></g></g><g fill="#000000" fill-opacity="1"><g transform="translate(343.623694, 49.064615)"><g><path d="M 12.109375 0.390625 C 10.710938 0.390625 9.285156 0.207031 7.828125 -0.15625 C 6.378906 -0.53125 5.050781 -1.097656 3.84375 -1.859375 C 3.34375 -2.179688 3.003906 -2.554688 2.828125 -2.984375 C 2.660156 -3.421875 2.617188 -3.859375 2.703125 -4.296875 C 2.796875 -4.734375 2.992188 -5.101562 3.296875 -5.40625 C 3.609375 -5.707031 3.976562 -5.882812 4.40625 -5.9375 C 4.84375 -5.988281 5.328125 -5.867188 5.859375 -5.578125 C 6.835938 -5.023438 7.828125 -4.601562 8.828125 -4.3125 C 9.828125 -4.019531 10.894531 -3.875 12.03125 -3.875 C 13.144531 -3.875 14.097656 -4.070312 14.890625 -4.46875 C 15.679688 -4.863281 16.285156 -5.414062 16.703125 -6.125 C 17.128906 -6.84375 17.34375 -7.675781 17.34375 -8.625 C 17.34375 -10.101562 16.894531 -11.296875 16 -12.203125 C 15.101562 -13.117188 13.875 -13.578125 12.3125 -13.578125 C 11.46875 -13.578125 10.648438 -13.4375 9.859375 -13.15625 C 9.066406 -12.882812 8.285156 -12.40625 7.515625 -11.71875 C 7.285156 -11.507812 6.984375 -11.304688 6.609375 -11.109375 C 6.242188 -10.910156 5.847656 -10.8125 5.421875 -10.8125 C 4.765625 -10.8125 4.265625 -10.984375 3.921875 -11.328125 C 3.578125 -11.671875 3.40625 -12.144531 3.40625 -12.75 L 3.40625 -25.703125 C 3.40625 -26.410156 3.59375 -26.953125 3.96875 -27.328125 C 4.351562 -27.710938 4.90625 -27.90625 5.625 -27.90625 L 18.65625 -27.90625 C 19.363281 -27.90625 19.90625 -27.726562 20.28125 -27.375 C 20.664062 -27.019531 20.859375 -26.5 20.859375 -25.8125 C 20.859375 -25.15625 20.664062 -24.640625 20.28125 -24.265625 C 19.90625 -23.898438 19.363281 -23.71875 18.65625 -23.71875 L 8.359375 -23.71875 L 8.359375 -14.84375 L 7.046875 -14.84375 C 7.734375 -15.769531 8.644531 -16.484375 9.78125 -16.984375 C 10.914062 -17.484375 12.15625 -17.734375 13.5 -17.734375 C 15.269531 -17.734375 16.804688 -17.359375 18.109375 -16.609375 C 19.421875 -15.859375 20.4375 -14.816406 21.15625 -13.484375 C 21.882812 -12.148438 22.25 -10.597656 22.25 -8.828125 C 22.25 -7.003906 21.835938 -5.398438 21.015625 -4.015625 C 20.203125 -2.628906 19.035156 -1.546875 17.515625 -0.765625 C 16.003906 0.00390625 14.203125 0.390625 12.109375 0.390625 Z M 12.109375 0.390625 "/></g></g></g><g fill="#000000" fill-opacity="1"><g transform="translate(367.381336, 49.064615)"><g><path d="M 11.875 0.390625 C 8.570312 0.390625 6.050781 -0.851562 4.3125 -3.34375 C 2.570312 -5.84375 1.703125 -9.398438 1.703125 -14.015625 C 1.703125 -17.128906 2.085938 -19.75 2.859375 -21.875 C 3.640625 -24 4.789062 -25.601562 6.3125 -26.6875 C 7.832031 -27.769531 9.6875 -28.3125 11.875 -28.3125 C 15.195312 -28.3125 17.722656 -27.097656 19.453125 -24.671875 C 21.179688 -22.242188 22.046875 -18.707031 22.046875 -14.0625 C 22.046875 -10.96875 21.65625 -8.34375 20.875 -6.1875 C 20.101562 -4.039062 18.960938 -2.40625 17.453125 -1.28125 C 15.953125 -0.164062 14.09375 0.390625 11.875 0.390625 Z M 11.875 -3.765625 C 13.675781 -3.765625 15.003906 -4.59375 15.859375 -6.25 C 16.710938 -7.914062 17.140625 -10.519531 17.140625 -14.0625 C 17.140625 -17.59375 16.710938 -20.15625 15.859375 -21.75 C 15.003906 -23.351562 13.675781 -24.15625 11.875 -24.15625 C 10.101562 -24.15625 8.78125 -23.351562 7.90625 -21.75 C 7.039062 -20.15625 6.609375 -17.59375 6.609375 -14.0625 C 6.609375 -10.519531 7.039062 -7.914062 7.90625 -6.25 C 8.78125 -4.59375 10.101562 -3.765625 11.875 -3.765625 Z M 11.875 -3.765625 "/></g></g></g><g fill="#000000" fill-opacity="1"><g transform="translate(391.138977, 49.064615)"><g><path d="M 11.875 0.390625 C 8.570312 0.390625 6.050781 -0.851562 4.3125 -3.34375 C 2.570312 -5.84375 1.703125 -9.398438 1.703125 -14.015625 C 1.703125 -17.128906 2.085938 -19.75 2.859375 -21.875 C 3.640625 -24 4.789062 -25.601562 6.3125 -26.6875 C 7.832031 -27.769531 9.6875 -28.3125 11.875 -28.3125 C 15.195312 -28.3125 17.722656 -27.097656 19.453125 -24.671875 C 21.179688 -22.242188 22.046875 -18.707031 22.046875 -14.0625 C 22.046875 -10.96875 21.65625 -8.34375 20.875 -6.1875 C 20.101562 -4.039062 18.960938 -2.40625 17.453125 -1.28125 C 15.953125 -0.164062 14.09375 0.390625 11.875 0.390625 Z M 11.875 -3.765625 C 13.675781 -3.765625 15.003906 -4.59375 15.859375 -6.25 C 16.710938 -7.914062 17.140625 -10.519531 17.140625 -14.0625 C 17.140625 -17.59375 16.710938 -20.15625 15.859375 -21.75 C 15.003906 -23.351562 13.675781 -24.15625 11.875 -24.15625 C 10.101562 -24.15625 8.78125 -23.351562 7.90625 -21.75 C 7.039062 -20.15625 6.609375 -17.59375 6.609375 -14.0625 C 6.609375 -10.519531 7.039062 -7.914062 7.90625 -6.25 C 8.78125 -4.59375 10.101562 -3.765625 11.875 -3.765625 Z M 11.875 -3.765625 "/></g></g></g></svg>