<svg xmlns="http://www.w3.org/2000/svg" xmlns:xlink="http://www.w3.org/1999/xlink" width="579" zoomAndPan="magnify" viewBox="0 0 434.25 74.249996" height="99" preserveAspectRatio="xMidYMid meet" version="1.0"><defs><g/><clipPath id="3ecd9beff8"><path d="M 8.867188 0 L 424.34375 0 L 424.34375 72.765625 L 8.867188 72.765625 Z M 8.867188 0 " clip-rule="nonzero"/></clipPath></defs><g clip-path="url(#3ecd9beff8)"><path stroke-linecap="butt" transform="matrix(0.7425, 0, 0, 0.7425, 8.865973, -0.00000198)" fill="none" stroke-linejoin="miter" d="M 0.00163589 0.00000266667 L 559.566083 0.00000266667 L 559.566083 98.158682 L 0.00163589 98.158682 Z M 0.00163589 0.00000266667 " stroke="#000000" stroke-width="12" stroke-opacity="1" stroke-miterlimit="4"/></g><g fill="#000000" fill-opacity="1"><g transform="translate(15.141028, 49.064615)"><g><path d="M 3.328125 0.3125 C 2.691406 0.3125 2.179688 0.171875 1.796875 -0.109375 C 1.421875 -0.398438 1.191406 -0.789062 1.109375 -1.28125 C 1.023438 -1.769531 1.117188 -2.320312 1.390625 -2.9375 L 11.84375 -26.09375 C 12.1875 -26.851562 12.597656 -27.398438 13.078125 -27.734375 C 13.566406 -28.066406 14.128906 -28.234375 14.765625 -28.234375 C 15.367188 -28.234375 15.914062 -28.066406 16.40625 -27.734375 C 16.894531 -27.398438 17.3125 -26.851562 17.65625 -26.09375 L 28.15625 -2.9375 C 28.445312 -2.320312 28.550781 -1.765625 28.46875 -1.265625 C 28.382812 -0.765625 28.15625 -0.375 27.78125 -0.09375 C 27.414062 0.175781 26.929688 0.3125 26.328125 0.3125 C 25.585938 0.3125 25.015625 0.132812 24.609375 -0.21875 C 24.203125 -0.570312 23.835938 -1.117188 23.515625 -1.859375 L 20.9375 -7.84375 L 23.078125 -6.453125 L 6.375 -6.453125 L 8.515625 -7.84375 L 5.984375 -1.859375 C 5.640625 -1.097656 5.28125 -0.546875 4.90625 -0.203125 C 4.539062 0.140625 4.015625 0.3125 3.328125 0.3125 Z M 14.6875 -22.40625 L 9.140625 -9.21875 L 8.109375 -10.5 L 21.34375 -10.5 L 20.34375 -9.21875 L 14.765625 -22.40625 Z M 14.6875 -22.40625 "/></g></g></g><g fill="#000000" fill-opacity="1"><g transform="translate(44.600496, 49.064615)"><g/></g></g><g fill="#000000" fill-opacity="1"><g transform="translate(55.331034, 49.064615)"><g><path d="M 3.6875 -13.578125 C 3.125 -13.578125 2.6875 -13.726562 2.375 -14.03125 C 2.0625 -14.332031 1.90625 -14.765625 1.90625 -15.328125 C 1.90625 -15.878906 2.0625 -16.304688 2.375 -16.609375 C 2.6875 -16.910156 3.125 -17.0625 3.6875 -17.0625 L 20.078125 -17.0625 C 20.648438 -17.0625 21.085938 -16.910156 21.390625 -16.609375 C 21.703125 -16.304688 21.859375 -15.878906 21.859375 -15.328125 C 21.859375 -14.765625 21.703125 -14.332031 21.390625 -14.03125 C 21.085938 -13.726562 20.648438 -13.578125 20.078125 -13.578125 Z M 3.6875 -5.703125 C 3.125 -5.703125 2.6875 -5.851562 2.375 -6.15625 C 2.0625 -6.457031 1.90625 -6.882812 1.90625 -7.4375 C 1.90625 -8 2.0625 -8.421875 2.375 -8.703125 C 2.6875 -8.992188 3.125 -9.140625 3.6875 -9.140625 L 20.078125 -9.140625 C 20.648438 -9.140625 21.085938 -8.992188 21.390625 -8.703125 C 21.703125 -8.421875 21.859375 -8 21.859375 -7.4375 C 21.859375 -6.863281 21.703125 -6.429688 21.390625 -6.140625 C 21.085938 -5.847656 20.648438 -5.703125 20.078125 -5.703125 Z M 3.6875 -5.703125 "/></g></g></g><g fill="#000000" fill-opacity="1"><g transform="translate(79.088675, 49.064615)"><g/></g></g><g fill="#000000" fill-opacity="1"><g transform="translate(89.819213, 49.064615)"><g><path d="M 9.703125 0.390625 C 8.566406 0.390625 7.390625 0.210938 6.171875 -0.140625 C 4.960938 -0.492188 3.828125 -1.023438 2.765625 -1.734375 C 2.347656 -2.003906 2.070312 -2.347656 1.9375 -2.765625 C 1.800781 -3.191406 1.78125 -3.609375 1.875 -4.015625 C 1.96875 -4.421875 2.148438 -4.773438 2.421875 -5.078125 C 2.703125 -5.390625 3.054688 -5.578125 3.484375 -5.640625 C 3.910156 -5.703125 4.375 -5.59375 4.875 -5.3125 C 5.769531 -4.78125 6.613281 -4.40625 7.40625 -4.1875 C 8.195312 -3.976562 8.988281 -3.875 9.78125 -3.875 C 11.3125 -3.875 12.601562 -4.226562 13.65625 -4.9375 C 14.71875 -5.65625 15.515625 -6.734375 16.046875 -8.171875 C 16.585938 -9.609375 16.859375 -11.382812 16.859375 -13.5 L 16.859375 -16.46875 L 17.34375 -16.46875 C 17.15625 -15.144531 16.71875 -13.992188 16.03125 -13.015625 C 15.34375 -12.046875 14.472656 -11.300781 13.421875 -10.78125 C 12.367188 -10.269531 11.191406 -10.015625 9.890625 -10.015625 C 8.304688 -10.015625 6.890625 -10.394531 5.640625 -11.15625 C 4.390625 -11.925781 3.40625 -12.988281 2.6875 -14.34375 C 1.976562 -15.707031 1.625 -17.25 1.625 -18.96875 C 1.625 -20.789062 2.007812 -22.398438 2.78125 -23.796875 C 3.5625 -25.191406 4.648438 -26.289062 6.046875 -27.09375 C 7.453125 -27.90625 9.050781 -28.3125 10.84375 -28.3125 C 13.164062 -28.3125 15.128906 -27.769531 16.734375 -26.6875 C 18.347656 -25.601562 19.578125 -24.023438 20.421875 -21.953125 C 21.273438 -19.878906 21.703125 -17.378906 21.703125 -14.453125 C 21.703125 -12.078125 21.429688 -9.972656 20.890625 -8.140625 C 20.347656 -6.304688 19.5625 -4.753906 18.53125 -3.484375 C 17.5 -2.210938 16.238281 -1.25 14.75 -0.59375 C 13.257812 0.0625 11.578125 0.390625 9.703125 0.390625 Z M 11.171875 -14.0625 C 12.117188 -14.0625 12.953125 -14.273438 13.671875 -14.703125 C 14.398438 -15.140625 14.960938 -15.75 15.359375 -16.53125 C 15.753906 -17.3125 15.953125 -18.203125 15.953125 -19.203125 C 15.953125 -20.234375 15.753906 -21.128906 15.359375 -21.890625 C 14.960938 -22.660156 14.398438 -23.253906 13.671875 -23.671875 C 12.953125 -24.097656 12.117188 -24.3125 11.171875 -24.3125 C 10.210938 -24.3125 9.378906 -24.097656 8.671875 -23.671875 C 7.960938 -23.253906 7.398438 -22.660156 6.984375 -21.890625 C 6.578125 -21.128906 6.375 -20.234375 6.375 -19.203125 C 6.375 -18.203125 6.578125 -17.3125 6.984375 -16.53125 C 7.398438 -15.75 7.960938 -15.140625 8.671875 -14.703125 C 9.378906 -14.273438 10.210938 -14.0625 11.171875 -14.0625 Z M 11.171875 -14.0625 "/></g></g></g><g fill="#000000" fill-opacity="1"><g transform="translate(113.576854, 49.064615)"><g><path d="M 5.578125 4.234375 C 5.234375 4.660156 4.867188 4.90625 4.484375 4.96875 C 4.109375 5.03125 3.773438 4.957031 3.484375 4.75 C 3.191406 4.539062 3.03125 4.242188 3 3.859375 C 2.976562 3.472656 3.15625 3.054688 3.53125 2.609375 C 4.050781 1.953125 4.40625 1.289062 4.59375 0.625 C 4.78125 -0.03125 4.875 -0.617188 4.875 -1.140625 L 5.0625 0.203125 C 4.144531 0.203125 3.398438 -0.0664062 2.828125 -0.609375 C 2.265625 -1.148438 1.984375 -1.867188 1.984375 -2.765625 C 1.984375 -3.609375 2.242188 -4.300781 2.765625 -4.84375 C 3.296875 -5.382812 4.007812 -5.65625 4.90625 -5.65625 C 5.832031 -5.65625 6.554688 -5.34375 7.078125 -4.71875 C 7.609375 -4.101562 7.875 -3.21875 7.875 -2.0625 C 7.875 -1.425781 7.8125 -0.769531 7.6875 -0.09375 C 7.570312 0.570312 7.347656 1.269531 7.015625 2 C 6.691406 2.726562 6.210938 3.472656 5.578125 4.234375 Z M 5.578125 4.234375 "/></g></g></g><g fill="#000000" fill-opacity="1"><g transform="translate(123.396681, 49.064615)"><g/></g></g><g fill="#000000" fill-opacity="1"><g transform="translate(134.127219, 49.064615)"><g><path d="M 5.734375 0 C 4.867188 0 4.203125 -0.226562 3.734375 -0.6875 C 3.273438 -1.15625 3.046875 -1.820312 3.046875 -2.6875 L 3.046875 -25.21875 C 3.046875 -26.09375 3.273438 -26.757812 3.734375 -27.21875 C 4.203125 -27.675781 4.867188 -27.90625 5.734375 -27.90625 L 15.25 -27.90625 C 17.195312 -27.90625 18.859375 -27.613281 20.234375 -27.03125 C 21.609375 -26.457031 22.65625 -25.628906 23.375 -24.546875 C 24.101562 -23.460938 24.46875 -22.171875 24.46875 -20.671875 C 24.46875 -18.984375 23.976562 -17.554688 23 -16.390625 C 22.019531 -15.234375 20.6875 -14.457031 19 -14.0625 L 19 -14.65625 C 20.957031 -14.363281 22.476562 -13.625 23.5625 -12.4375 C 24.644531 -11.25 25.1875 -9.703125 25.1875 -7.796875 C 25.1875 -5.316406 24.347656 -3.394531 22.671875 -2.03125 C 20.992188 -0.675781 18.660156 0 15.671875 0 Z M 7.921875 -3.84375 L 15.046875 -3.84375 C 16.835938 -3.84375 18.15625 -4.191406 19 -4.890625 C 19.84375 -5.585938 20.265625 -6.632812 20.265625 -8.03125 C 20.265625 -9.457031 19.84375 -10.515625 19 -11.203125 C 18.15625 -11.890625 16.835938 -12.234375 15.046875 -12.234375 L 7.921875 -12.234375 Z M 7.921875 -16.078125 L 14.375 -16.078125 C 16.113281 -16.078125 17.410156 -16.410156 18.265625 -17.078125 C 19.128906 -17.753906 19.5625 -18.753906 19.5625 -20.078125 C 19.5625 -21.390625 19.128906 -22.382812 18.265625 -23.0625 C 17.410156 -23.738281 16.113281 -24.078125 14.375 -24.078125 L 7.921875 -24.078125 Z M 7.921875 -16.078125 "/></g></g></g><g fill="#000000" fill-opacity="1"><g transform="translate(161.369316, 49.064615)"><g/></g></g><g fill="#000000" fill-opacity="1"><g transform="translate(172.099854, 49.064615)"><g><path d="M 3.6875 -13.578125 C 3.125 -13.578125 2.6875 -13.726562 2.375 -14.03125 C 2.0625 -14.332031 1.90625 -14.765625 1.90625 -15.328125 C 1.90625 -15.878906 2.0625 -16.304688 2.375 -16.609375 C 2.6875 -16.910156 3.125 -17.0625 3.6875 -17.0625 L 20.078125 -17.0625 C 20.648438 -17.0625 21.085938 -16.910156 21.390625 -16.609375 C 21.703125 -16.304688 21.859375 -15.878906 21.859375 -15.328125 C 21.859375 -14.765625 21.703125 -14.332031 21.390625 -14.03125 C 21.085938 -13.726562 20.648438 -13.578125 20.078125 -13.578125 Z M 3.6875 -5.703125 C 3.125 -5.703125 2.6875 -5.851562 2.375 -6.15625 C 2.0625 -6.457031 1.90625 -6.882812 1.90625 -7.4375 C 1.90625 -8 2.0625 -8.421875 2.375 -8.703125 C 2.6875 -8.992188 3.125 -9.140625 3.6875 -9.140625 L 20.078125 -9.140625 C 20.648438 -9.140625 21.085938 -8.992188 21.390625 -8.703125 C 21.703125 -8.421875 21.859375 -8 21.859375 -7.4375 C 21.859375 -6.863281 21.703125 -6.429688 21.390625 -6.140625 C 21.085938 -5.847656 20.648438 -5.703125 20.078125 -5.703125 Z M 3.6875 -5.703125 "/></g></g></g><g fill="#000000" fill-opacity="1"><g transform="translate(195.857495, 49.064615)"><g/></g></g><g fill="#000000" fill-opacity="1"><g transform="translate(206.588045, 49.064615)"><g><path d="M 11.328125 0.390625 C 9.898438 0.390625 8.421875 0.207031 6.890625 -0.15625 C 5.359375 -0.53125 4.023438 -1.085938 2.890625 -1.828125 C 2.359375 -2.171875 2 -2.566406 1.8125 -3.015625 C 1.632812 -3.460938 1.59375 -3.890625 1.6875 -4.296875 C 1.78125 -4.703125 1.976562 -5.050781 2.28125 -5.34375 C 2.582031 -5.632812 2.960938 -5.804688 3.421875 -5.859375 C 3.890625 -5.910156 4.398438 -5.789062 4.953125 -5.5 C 6.035156 -4.914062 7.078125 -4.5 8.078125 -4.25 C 9.078125 -4 10.109375 -3.875 11.171875 -3.875 C 12.328125 -3.875 13.300781 -4.03125 14.09375 -4.34375 C 14.882812 -4.664062 15.484375 -5.144531 15.890625 -5.78125 C 16.304688 -6.414062 16.515625 -7.179688 16.515625 -8.078125 C 16.515625 -9.398438 16.070312 -10.382812 15.1875 -11.03125 C 14.300781 -11.675781 13.015625 -12 11.328125 -12 L 8.796875 -12 C 8.054688 -12 7.492188 -12.179688 7.109375 -12.546875 C 6.722656 -12.921875 6.53125 -13.4375 6.53125 -14.09375 C 6.53125 -14.75 6.722656 -15.257812 7.109375 -15.625 C 7.492188 -16 8.054688 -16.1875 8.796875 -16.1875 L 10.84375 -16.1875 C 11.851562 -16.1875 12.710938 -16.351562 13.421875 -16.6875 C 14.128906 -17.019531 14.679688 -17.488281 15.078125 -18.09375 C 15.472656 -18.695312 15.671875 -19.4375 15.671875 -20.3125 C 15.671875 -21.53125 15.269531 -22.453125 14.46875 -23.078125 C 13.664062 -23.710938 12.5 -24.03125 10.96875 -24.03125 C 9.988281 -24.03125 9.066406 -23.914062 8.203125 -23.6875 C 7.347656 -23.46875 6.410156 -23.054688 5.390625 -22.453125 C 4.910156 -22.160156 4.453125 -22.039062 4.015625 -22.09375 C 3.578125 -22.144531 3.210938 -22.316406 2.921875 -22.609375 C 2.640625 -22.898438 2.441406 -23.25 2.328125 -23.65625 C 2.222656 -24.0625 2.25 -24.484375 2.40625 -24.921875 C 2.570312 -25.359375 2.90625 -25.734375 3.40625 -26.046875 C 4.539062 -26.785156 5.789062 -27.347656 7.15625 -27.734375 C 8.53125 -28.117188 9.945312 -28.3125 11.40625 -28.3125 C 13.332031 -28.3125 14.976562 -28.015625 16.34375 -27.421875 C 17.71875 -26.828125 18.769531 -25.976562 19.5 -24.875 C 20.226562 -23.78125 20.59375 -22.457031 20.59375 -20.90625 C 20.59375 -19.800781 20.378906 -18.789062 19.953125 -17.875 C 19.535156 -16.96875 18.941406 -16.195312 18.171875 -15.5625 C 17.410156 -14.925781 16.488281 -14.476562 15.40625 -14.21875 L 15.40625 -14.6875 C 17.300781 -14.375 18.773438 -13.585938 19.828125 -12.328125 C 20.890625 -11.078125 21.421875 -9.515625 21.421875 -7.640625 C 21.421875 -6.003906 21.007812 -4.578125 20.1875 -3.359375 C 19.375 -2.148438 18.210938 -1.222656 16.703125 -0.578125 C 15.203125 0.0664062 13.410156 0.390625 11.328125 0.390625 Z M 11.328125 0.390625 "/></g></g></g><g fill="#000000" fill-opacity="1"><g transform="translate(230.345686, 49.064615)"><g><path d="M 12.109375 0.390625 C 10.710938 0.390625 9.285156 0.207031 7.828125 -0.15625 C 6.378906 -0.53125 5.050781 -1.097656 3.84375 -1.859375 C 3.34375 -2.179688 3.003906 -2.554688 2.828125 -2.984375 C 2.660156 -3.421875 2.617188 -3.859375 2.703125 -4.296875 C 2.796875 -4.734375 2.992188 -5.101562 3.296875 -5.40625 C 3.609375 -5.707031 3.976562 -5.882812 4.40625 -5.9375 C 4.84375 -5.988281 5.328125 -5.867188 5.859375 -5.578125 C 6.835938 -5.023438 7.828125 -4.601562 8.828125 -4.3125 C 9.828125 -4.019531 10.894531 -3.875 12.03125 -3.875 C 13.144531 -3.875 14.097656 -4.070312 14.890625 -4.46875 C 15.679688 -4.863281 16.285156 -5.414062 16.703125 -6.125 C 17.128906 -6.84375 17.34375 -7.675781 17.34375 -8.625 C 17.34375 -10.101562 16.894531 -11.296875 16 -12.203125 C 15.101562 -13.117188 13.875 -13.578125 12.3125 -13.578125 C 11.46875 -13.578125 10.648438 -13.4375 9.859375 -13.15625 C 9.066406 -12.882812 8.285156 -12.40625 7.515625 -11.71875 C 7.285156 -11.507812 6.984375 -11.304688 6.609375 -11.109375 C 6.242188 -10.910156 5.847656 -10.8125 5.421875 -10.8125 C 4.765625 -10.8125 4.265625 -10.984375 3.921875 -11.328125 C 3.578125 -11.671875 3.40625 -12.144531 3.40625 -12.75 L 3.40625 -25.703125 C 3.40625 -26.410156 3.59375 -26.953125 3.96875 -27.328125 C 4.351562 -27.710938 4.90625 -27.90625 5.625 -27.90625 L 18.65625 -27.90625 C 19.363281 -27.90625 19.90625 -27.726562 20.28125 -27.375 C 20.664062 -27.019531 20.859375 -26.5 20.859375 -25.8125 C 20.859375 -25.15625 20.664062 -24.640625 20.28125 -24.265625 C 19.90625 -23.898438 19.363281 -23.71875 18.65625 -23.71875 L 8.359375 -23.71875 L 8.359375 -14.84375 L 7.046875 -14.84375 C 7.734375 -15.769531 8.644531 -16.484375 9.78125 -16.984375 C 10.914062 -17.484375 12.15625 -17.734375 13.5 -17.734375 C 15.269531 -17.734375 16.804688 -17.359375 18.109375 -16.609375 C 19.421875 -15.859375 20.4375 -14.816406 21.15625 -13.484375 C 21.882812 -12.148438 22.25 -10.597656 22.25 -8.828125 C 22.25 -7.003906 21.835938 -5.398438 21.015625 -4.015625 C 20.203125 -2.628906 19.035156 -1.546875 17.515625 -0.765625 C 16.003906 0.00390625 14.203125 0.390625 12.109375 0.390625 Z M 12.109375 0.390625 "/></g></g></g><g fill="#000000" fill-opacity="1"><g transform="translate(254.103327, 49.064615)"><g><path d="M 5.578125 4.234375 C 5.234375 4.660156 4.867188 4.90625 4.484375 4.96875 C 4.109375 5.03125 3.773438 4.957031 3.484375 4.75 C 3.191406 4.539062 3.03125 4.242188 3 3.859375 C 2.976562 3.472656 3.15625 3.054688 3.53125 2.609375 C 4.050781 1.953125 4.40625 1.289062 4.59375 0.625 C 4.78125 -0.03125 4.875 -0.617188 4.875 -1.140625 L 5.0625 0.203125 C 4.144531 0.203125 3.398438 -0.0664062 2.828125 -0.609375 C 2.265625 -1.148438 1.984375 -1.867188 1.984375 -2.765625 C 1.984375 -3.609375 2.242188 -4.300781 2.765625 -4.84375 C 3.296875 -5.382812 4.007812 -5.65625 4.90625 -5.65625 C 5.832031 -5.65625 6.554688 -5.34375 7.078125 -4.71875 C 7.609375 -4.101562 7.875 -3.21875 7.875 -2.0625 C 7.875 -1.425781 7.8125 -0.769531 7.6875 -0.09375 C 7.570312 0.570312 7.347656 1.269531 7.015625 2 C 6.691406 2.726562 6.210938 3.472656 5.578125 4.234375 Z M 5.578125 4.234375 "/></g></g></g><g fill="#000000" fill-opacity="1"><g transform="translate(263.923142, 49.064615)"><g/></g></g><g fill="#000000" fill-opacity="1"><g transform="translate(274.65368, 49.064615)"><g><path d="M 16.03125 0.390625 C 13.132812 0.390625 10.648438 -0.191406 8.578125 -1.359375 C 6.503906 -2.535156 4.910156 -4.195312 3.796875 -6.34375 C 2.691406 -8.5 2.140625 -11.046875 2.140625 -13.984375 C 2.140625 -16.171875 2.453125 -18.140625 3.078125 -19.890625 C 3.710938 -21.648438 4.625 -23.15625 5.8125 -24.40625 C 7.007812 -25.664062 8.46875 -26.628906 10.1875 -27.296875 C 11.914062 -27.972656 13.863281 -28.3125 16.03125 -28.3125 C 17.488281 -28.3125 18.914062 -28.125 20.3125 -27.75 C 21.707031 -27.382812 22.9375 -26.859375 24 -26.171875 C 24.550781 -25.828125 24.914062 -25.410156 25.09375 -24.921875 C 25.28125 -24.429688 25.320312 -23.957031 25.21875 -23.5 C 25.113281 -23.039062 24.894531 -22.648438 24.5625 -22.328125 C 24.238281 -22.015625 23.832031 -21.835938 23.34375 -21.796875 C 22.851562 -21.753906 22.316406 -21.921875 21.734375 -22.296875 C 20.921875 -22.816406 20.035156 -23.195312 19.078125 -23.4375 C 18.128906 -23.675781 17.164062 -23.796875 16.1875 -23.796875 C 14.3125 -23.796875 12.726562 -23.410156 11.4375 -22.640625 C 10.144531 -21.878906 9.164062 -20.769531 8.5 -19.3125 C 7.84375 -17.863281 7.515625 -16.085938 7.515625 -13.984375 C 7.515625 -11.890625 7.84375 -10.101562 8.5 -8.625 C 9.164062 -7.15625 10.144531 -6.035156 11.4375 -5.265625 C 12.726562 -4.503906 14.3125 -4.125 16.1875 -4.125 C 17.195312 -4.125 18.1875 -4.25 19.15625 -4.5 C 20.132812 -4.75 21.0625 -5.132812 21.9375 -5.65625 C 22.519531 -6 23.039062 -6.148438 23.5 -6.109375 C 23.957031 -6.078125 24.34375 -5.914062 24.65625 -5.625 C 24.976562 -5.332031 25.191406 -4.96875 25.296875 -4.53125 C 25.398438 -4.09375 25.375 -3.644531 25.21875 -3.1875 C 25.0625 -2.726562 24.742188 -2.328125 24.265625 -1.984375 C 23.210938 -1.210938 21.953125 -0.625 20.484375 -0.21875 C 19.023438 0.1875 17.539062 0.390625 16.03125 0.390625 Z M 16.03125 0.390625 "/></g></g></g><g fill="#000000" fill-opacity="1"><g transform="translate(301.579001, 49.064615)"><g/></g></g><g fill="#000000" fill-opacity="1"><g transform="translate(312.309539, 49.064615)"><g><path d="M 3.6875 -13.578125 C 3.125 -13.578125 2.6875 -13.726562 2.375 -14.03125 C 2.0625 -14.332031 1.90625 -14.765625 1.90625 -15.328125 C 1.90625 -15.878906 2.0625 -16.304688 2.375 -16.609375 C 2.6875 -16.910156 3.125 -17.0625 3.6875 -17.0625 L 20.078125 -17.0625 C 20.648438 -17.0625 21.085938 -16.910156 21.390625 -16.609375 C 21.703125 -16.304688 21.859375 -15.878906 21.859375 -15.328125 C 21.859375 -14.765625 21.703125 -14.332031 21.390625 -14.03125 C 21.085938 -13.726562 20.648438 -13.578125 20.078125 -13.578125 Z M 3.6875 -5.703125 C 3.125 -5.703125 2.6875 -5.851562 2.375 -6.15625 C 2.0625 -6.457031 1.90625 -6.882812 1.90625 -7.4375 C 1.90625 -8 2.0625 -8.421875 2.375 -8.703125 C 2.6875 -8.992188 3.125 -9.140625 3.6875 -9.140625 L 20.078125 -9.140625 C 20.648438 -9.140625 21.085938 -8.992188 21.390625 -8.703125 C 21.703125 -8.421875 21.859375 -8 21.859375 -7.4375 C 21.859375 -6.863281 21.703125 -6.429688 21.390625 -6.140625 C 21.085938 -5.847656 20.648438 -5.703125 20.078125 -5.703125 Z M 3.6875 -5.703125 "/></g></g></g><g fill="#000000" fill-opacity="1"><g transform="translate(336.06718, 49.064615)"><g/></g></g><g fill="#000000" fill-opacity="1"><g transform="translate(346.797718, 49.064615)"><g><path d="M 6.171875 0 C 5.484375 0 4.945312 -0.1875 4.5625 -0.5625 C 4.1875 -0.945312 4 -1.472656 4 -2.140625 C 4 -2.828125 4.1875 -3.34375 4.5625 -3.6875 C 4.945312 -4.03125 5.484375 -4.203125 6.171875 -4.203125 L 10.609375 -4.203125 L 10.609375 -23.640625 L 13.0625 -23.640625 L 7.25 -20.109375 C 6.75 -19.816406 6.28125 -19.703125 5.84375 -19.765625 C 5.40625 -19.835938 5.035156 -20.023438 4.734375 -20.328125 C 4.429688 -20.628906 4.222656 -20.988281 4.109375 -21.40625 C 4.003906 -21.832031 4.035156 -22.265625 4.203125 -22.703125 C 4.378906 -23.140625 4.71875 -23.503906 5.21875 -23.796875 L 10.6875 -27.078125 C 11.21875 -27.398438 11.742188 -27.671875 12.265625 -27.890625 C 12.796875 -28.117188 13.285156 -28.234375 13.734375 -28.234375 C 14.296875 -28.234375 14.757812 -28.078125 15.125 -27.765625 C 15.488281 -27.460938 15.671875 -26.972656 15.671875 -26.296875 L 15.671875 -4.203125 L 19.71875 -4.203125 C 20.40625 -4.203125 20.9375 -4.03125 21.3125 -3.6875 C 21.695312 -3.34375 21.890625 -2.828125 21.890625 -2.140625 C 21.890625 -1.453125 21.695312 -0.921875 21.3125 -0.546875 C 20.9375 -0.179688 20.40625 0 19.71875 0 Z M 6.171875 0 "/></g></g></g><g fill="#000000" fill-opacity="1"><g transform="translate(370.555359, 49.064615)"><g><path d="M 16.359375 0.3125 C 15.566406 0.3125 14.941406 0.0976562 14.484375 -0.328125 C 14.035156 -0.765625 13.8125 -1.394531 13.8125 -2.21875 L 13.8125 -5.3125 L 4.03125 -5.3125 C 3.21875 -5.3125 2.566406 -5.476562 2.078125 -5.8125 C 1.585938 -6.15625 1.34375 -6.695312 1.34375 -7.4375 C 1.34375 -7.863281 1.453125 -8.328125 1.671875 -8.828125 C 1.898438 -9.328125 2.304688 -9.988281 2.890625 -10.8125 L 13.734375 -26.53125 C 14.109375 -27.082031 14.519531 -27.503906 14.96875 -27.796875 C 15.414062 -28.085938 15.929688 -28.234375 16.515625 -28.234375 C 17.203125 -28.234375 17.769531 -28.023438 18.21875 -27.609375 C 18.664062 -27.203125 18.890625 -26.566406 18.890625 -25.703125 L 18.890625 -9.5 L 20.828125 -9.5 C 21.585938 -9.5 22.160156 -9.320312 22.546875 -8.96875 C 22.929688 -8.613281 23.125 -8.09375 23.125 -7.40625 C 23.125 -6.71875 22.929688 -6.195312 22.546875 -5.84375 C 22.160156 -5.488281 21.585938 -5.3125 20.828125 -5.3125 L 18.890625 -5.3125 L 18.890625 -2.21875 C 18.890625 -1.394531 18.664062 -0.765625 18.21875 -0.328125 C 17.769531 0.0976562 17.148438 0.3125 16.359375 0.3125 Z M 13.8125 -9.5 L 13.8125 -21.859375 L 14.96875 -21.859375 L 5.625 -8.15625 L 5.625 -9.5 Z M 13.8125 -9.5 "/></g></g></g><g fill="#000000" fill-opacity="1"><g transform="translate(394.313, 49.064615)"><g><path d="M 16.359375 0.3125 C 15.566406 0.3125 14.941406 0.0976562 14.484375 -0.328125 C 14.035156 -0.765625 13.8125 -1.394531 13.8125 -2.21875 L 13.8125 -5.3125 L 4.03125 -5.3125 C 3.21875 -5.3125 2.566406 -5.476562 2.078125 -5.8125 C 1.585938 -6.15625 1.34375 -6.695312 1.34375 -7.4375 C 1.34375 -7.863281 1.453125 -8.328125 1.671875 -8.828125 C 1.898438 -9.328125 2.304688 -9.988281 2.890625 -10.8125 L 13.734375 -26.53125 C 14.109375 -27.082031 14.519531 -27.503906 14.96875 -27.796875 C 15.414062 -28.085938 15.929688 -28.234375 16.515625 -28.234375 C 17.203125 -28.234375 17.769531 -28.023438 18.21875 -27.609375 C 18.664062 -27.203125 18.890625 -26.566406 18.890625 -25.703125 L 18.890625 -9.5 L 20.828125 -9.5 C 21.585938 -9.5 22.160156 -9.320312 22.546875 -8.96875 C 22.929688 -8.613281 23.125 -8.09375 23.125 -7.40625 C 23.125 -6.71875 22.929688 -6.195312 22.546875 -5.84375 C 22.160156 -5.488281 21.585938 -5.3125 20.828125 -5.3125 L 18.890625 -5.3125 L 18.890625 -2.21875 C 18.890625 -1.394531 18.664062 -0.765625 18.21875 -0.328125 C 17.769531 0.0976562 17.148438 0.3125 16.359375 0.3125 Z M 13.8125 -9.5 L 13.8125 -21.859375 L 14.96875 -21.859375 L 5.625 -8.15625 L 5.625 -9.5 Z M 13.8125 -9.5 "/></g></g></g></svg>