<svg xmlns="http://www.w3.org/2000/svg" xmlns:xlink="http://www.w3.org/1999/xlink" width="238" zoomAndPan="magnify" viewBox="0 0 178.5 76.499998" height="102" preserveAspectRatio="xMidYMid meet" version="1.0"><defs><g/><clipPath id="167ce775ec"><path d="M 0.332031 0 L 177.589844 0 L 177.589844 75.257812 L 0.332031 75.257812 Z M 0.332031 0 " clip-rule="nonzero"/></clipPath></defs><g clip-path="url(#167ce775ec)"><path stroke-linecap="butt" transform="matrix(0.74513, 0, 0, 0.74513, 0.332484, 0.000000000000005294)" fill="none" stroke-linejoin="miter" d="M -0.000607433 -0.000000000000007105 L 237.88789 -0.000000000000007105 L 237.88789 101.015326 L -0.000607433 101.015326 Z M -0.000607433 -0.000000000000007105 " stroke="#000000" stroke-width="12" stroke-opacity="1" stroke-miterlimit="4"/></g><g fill="#000000" fill-opacity="1"><g transform="translate(36.347956, 50.302977)"><g><path d="M 11.359375 0.390625 C 9.929688 0.390625 8.445312 0.207031 6.90625 -0.15625 C 5.375 -0.53125 4.039062 -1.085938 2.90625 -1.828125 C 2.375 -2.171875 2.015625 -2.566406 1.828125 -3.015625 C 1.640625 -3.460938 1.59375 -3.890625 1.6875 -4.296875 C 1.78125 -4.710938 1.976562 -5.066406 2.28125 -5.359375 C 2.582031 -5.648438 2.960938 -5.820312 3.421875 -5.875 C 3.890625 -5.925781 4.40625 -5.804688 4.96875 -5.515625 C 6.050781 -4.941406 7.09375 -4.523438 8.09375 -4.265625 C 9.101562 -4.015625 10.140625 -3.890625 11.203125 -3.890625 C 12.367188 -3.890625 13.347656 -4.046875 14.140625 -4.359375 C 14.941406 -4.679688 15.546875 -5.160156 15.953125 -5.796875 C 16.359375 -6.429688 16.5625 -7.203125 16.5625 -8.109375 C 16.5625 -9.429688 16.117188 -10.414062 15.234375 -11.0625 C 14.347656 -11.71875 13.054688 -12.046875 11.359375 -12.046875 L 8.828125 -12.046875 C 8.078125 -12.046875 7.507812 -12.226562 7.125 -12.59375 C 6.75 -12.96875 6.5625 -13.484375 6.5625 -14.140625 C 6.5625 -14.804688 6.75 -15.320312 7.125 -15.6875 C 7.507812 -16.0625 8.078125 -16.25 8.828125 -16.25 L 10.890625 -16.25 C 11.890625 -16.25 12.75 -16.414062 13.46875 -16.75 C 14.1875 -17.082031 14.742188 -17.550781 15.140625 -18.15625 C 15.535156 -18.769531 15.734375 -19.515625 15.734375 -20.390625 C 15.734375 -21.609375 15.328125 -22.535156 14.515625 -23.171875 C 13.710938 -23.804688 12.539062 -24.125 11 -24.125 C 10.019531 -24.125 9.097656 -24.007812 8.234375 -23.78125 C 7.378906 -23.550781 6.4375 -23.132812 5.40625 -22.53125 C 4.925781 -22.238281 4.46875 -22.117188 4.03125 -22.171875 C 3.59375 -22.222656 3.226562 -22.394531 2.9375 -22.6875 C 2.644531 -22.976562 2.445312 -23.328125 2.34375 -23.734375 C 2.238281 -24.148438 2.265625 -24.578125 2.421875 -25.015625 C 2.578125 -25.453125 2.910156 -25.828125 3.421875 -26.140625 C 4.554688 -26.878906 5.8125 -27.441406 7.1875 -27.828125 C 8.570312 -28.210938 9.988281 -28.40625 11.4375 -28.40625 C 13.375 -28.40625 15.03125 -28.109375 16.40625 -27.515625 C 17.78125 -26.921875 18.832031 -26.070312 19.5625 -24.96875 C 20.289062 -23.875 20.65625 -22.546875 20.65625 -20.984375 C 20.65625 -19.867188 20.441406 -18.851562 20.015625 -17.9375 C 19.597656 -17.019531 19.003906 -16.242188 18.234375 -15.609375 C 17.460938 -14.972656 16.535156 -14.523438 15.453125 -14.265625 L 15.453125 -14.734375 C 17.359375 -14.421875 18.84375 -13.632812 19.90625 -12.375 C 20.96875 -11.113281 21.5 -9.546875 21.5 -7.671875 C 21.5 -6.023438 21.085938 -4.59375 20.265625 -3.375 C 19.441406 -2.15625 18.273438 -1.222656 16.765625 -0.578125 C 15.253906 0.0664062 13.453125 0.390625 11.359375 0.390625 Z M 11.359375 0.390625 "/></g></g></g><g fill="#000000" fill-opacity="1"><g transform="translate(60.189745, 50.302977)"><g><path d="M 4.96875 0.203125 C 4.0625 0.203125 3.335938 -0.0703125 2.796875 -0.625 C 2.253906 -1.1875 1.984375 -1.90625 1.984375 -2.78125 C 1.984375 -3.625 2.253906 -4.316406 2.796875 -4.859375 C 3.335938 -5.410156 4.0625 -5.6875 4.96875 -5.6875 C 5.894531 -5.6875 6.613281 -5.410156 7.125 -4.859375 C 7.644531 -4.316406 7.90625 -3.625 7.90625 -2.78125 C 7.90625 -1.90625 7.644531 -1.1875 7.125 -0.625 C 6.613281 -0.0703125 5.894531 0.203125 4.96875 0.203125 Z M 4.96875 0.203125 "/></g></g></g><g fill="#000000" fill-opacity="1"><g transform="translate(70.044353, 50.302977)"><g><path d="M 6.203125 0 C 5.515625 0 4.976562 -0.191406 4.59375 -0.578125 C 4.207031 -0.960938 4.015625 -1.484375 4.015625 -2.140625 C 4.015625 -2.828125 4.207031 -3.34375 4.59375 -3.6875 C 4.976562 -4.039062 5.515625 -4.21875 6.203125 -4.21875 L 10.65625 -4.21875 L 10.65625 -23.71875 L 13.109375 -23.71875 L 7.265625 -20.1875 C 6.765625 -19.894531 6.296875 -19.78125 5.859375 -19.84375 C 5.421875 -19.914062 5.050781 -20.101562 4.75 -20.40625 C 4.445312 -20.707031 4.238281 -21.066406 4.125 -21.484375 C 4.019531 -21.910156 4.050781 -22.34375 4.21875 -22.78125 C 4.394531 -23.21875 4.738281 -23.582031 5.25 -23.875 L 10.734375 -27.171875 C 11.253906 -27.492188 11.78125 -27.765625 12.3125 -27.984375 C 12.84375 -28.210938 13.332031 -28.328125 13.78125 -28.328125 C 14.34375 -28.328125 14.804688 -28.175781 15.171875 -27.875 C 15.546875 -27.570312 15.734375 -27.078125 15.734375 -26.390625 L 15.734375 -4.21875 L 19.78125 -4.21875 C 20.476562 -4.21875 21.015625 -4.039062 21.390625 -3.6875 C 21.773438 -3.34375 21.96875 -2.828125 21.96875 -2.140625 C 21.96875 -1.453125 21.773438 -0.921875 21.390625 -0.546875 C 21.015625 -0.179688 20.476562 0 19.78125 0 Z M 6.203125 0 "/></g></g></g><g fill="#000000" fill-opacity="1"><g transform="translate(93.886142, 50.302977)"><g><path d="M 5.28125 0 C 4.4375 0 3.820312 -0.191406 3.4375 -0.578125 C 3.050781 -0.960938 2.859375 -1.523438 2.859375 -2.265625 C 2.859375 -2.710938 2.976562 -3.148438 3.21875 -3.578125 C 3.457031 -4.003906 3.800781 -4.453125 4.25 -4.921875 L 12.234375 -13.4375 C 13.453125 -14.707031 14.328125 -15.863281 14.859375 -16.90625 C 15.390625 -17.945312 15.65625 -19 15.65625 -20.0625 C 15.65625 -21.382812 15.238281 -22.390625 14.40625 -23.078125 C 13.570312 -23.773438 12.359375 -24.125 10.765625 -24.125 C 9.867188 -24.125 8.96875 -23.992188 8.0625 -23.734375 C 7.164062 -23.484375 6.253906 -23.054688 5.328125 -22.453125 C 4.847656 -22.128906 4.398438 -21.992188 3.984375 -22.046875 C 3.578125 -22.097656 3.222656 -22.269531 2.921875 -22.5625 C 2.617188 -22.851562 2.410156 -23.210938 2.296875 -23.640625 C 2.191406 -24.066406 2.210938 -24.5 2.359375 -24.9375 C 2.503906 -25.375 2.816406 -25.75 3.296875 -26.0625 C 4.429688 -26.832031 5.707031 -27.414062 7.125 -27.8125 C 8.550781 -28.207031 9.976562 -28.40625 11.40625 -28.40625 C 13.414062 -28.40625 15.109375 -28.097656 16.484375 -27.484375 C 17.867188 -26.878906 18.914062 -25.992188 19.625 -24.828125 C 20.34375 -23.660156 20.703125 -22.242188 20.703125 -20.578125 C 20.703125 -19.460938 20.519531 -18.375 20.15625 -17.3125 C 19.800781 -16.257812 19.257812 -15.191406 18.53125 -14.109375 C 17.800781 -13.023438 16.851562 -11.875 15.6875 -10.65625 L 8.21875 -2.859375 L 8.21875 -4.21875 L 19.90625 -4.21875 C 20.625 -4.21875 21.164062 -4.039062 21.53125 -3.6875 C 21.90625 -3.34375 22.09375 -2.828125 22.09375 -2.140625 C 22.09375 -1.453125 21.90625 -0.921875 21.53125 -0.546875 C 21.164062 -0.179688 20.625 0 19.90625 0 Z M 5.28125 0 "/></g></g></g><g fill="#000000" fill-opacity="1"><g transform="translate(117.727932, 50.302977)"><g><path d="M 12.15625 0.390625 C 10.75 0.390625 9.316406 0.207031 7.859375 -0.15625 C 6.410156 -0.53125 5.078125 -1.101562 3.859375 -1.875 C 3.347656 -2.1875 3.003906 -2.5625 2.828125 -3 C 2.660156 -3.4375 2.625 -3.875 2.71875 -4.3125 C 2.8125 -4.75 3.007812 -5.117188 3.3125 -5.421875 C 3.625 -5.722656 4 -5.898438 4.4375 -5.953125 C 4.875 -6.015625 5.351562 -5.898438 5.875 -5.609375 C 6.851562 -5.046875 7.847656 -4.617188 8.859375 -4.328125 C 9.867188 -4.035156 10.941406 -3.890625 12.078125 -3.890625 C 13.191406 -3.890625 14.144531 -4.085938 14.9375 -4.484375 C 15.726562 -4.890625 16.335938 -5.445312 16.765625 -6.15625 C 17.191406 -6.875 17.40625 -7.707031 17.40625 -8.65625 C 17.40625 -10.144531 16.953125 -11.34375 16.046875 -12.25 C 15.148438 -13.164062 13.921875 -13.625 12.359375 -13.625 C 11.503906 -13.625 10.679688 -13.484375 9.890625 -13.203125 C 9.097656 -12.929688 8.316406 -12.453125 7.546875 -11.765625 C 7.304688 -11.546875 7 -11.335938 6.625 -11.140625 C 6.257812 -10.941406 5.863281 -10.84375 5.4375 -10.84375 C 4.78125 -10.84375 4.28125 -11.015625 3.9375 -11.359375 C 3.59375 -11.703125 3.421875 -12.179688 3.421875 -12.796875 L 3.421875 -25.78125 C 3.421875 -26.5 3.609375 -27.050781 3.984375 -27.4375 C 4.367188 -27.820312 4.921875 -28.015625 5.640625 -28.015625 L 18.71875 -28.015625 C 19.425781 -28.015625 19.972656 -27.832031 20.359375 -27.46875 C 20.742188 -27.113281 20.9375 -26.59375 20.9375 -25.90625 C 20.9375 -25.238281 20.742188 -24.71875 20.359375 -24.34375 C 19.972656 -23.976562 19.425781 -23.796875 18.71875 -23.796875 L 8.390625 -23.796875 L 8.390625 -14.90625 L 7.078125 -14.90625 C 7.765625 -15.832031 8.675781 -16.546875 9.8125 -17.046875 C 10.945312 -17.546875 12.191406 -17.796875 13.546875 -17.796875 C 15.328125 -17.796875 16.867188 -17.414062 18.171875 -16.65625 C 19.484375 -15.90625 20.503906 -14.859375 21.234375 -13.515625 C 21.960938 -12.179688 22.328125 -10.628906 22.328125 -8.859375 C 22.328125 -7.035156 21.914062 -5.425781 21.09375 -4.03125 C 20.269531 -2.644531 19.097656 -1.5625 17.578125 -0.78125 C 16.054688 0 14.25 0.390625 12.15625 0.390625 Z M 12.15625 0.390625 "/></g></g></g></svg>