<svg width="212" height="271" viewBox="0 0 212 271" fill="none" xmlns="http://www.w3.org/2000/svg">
<mask id="mask0_295_113" style="mask-type:luminance" maskUnits="userSpaceOnUse" x="0" y="0" width="212" height="211">
<path d="M0.599609 0H211.475V210.875H0.599609V0Z" fill="white"/>
</mask>
<g mask="url(#mask0_295_113)">
<path d="M211.475 210.875H0.599609V0H211.475V210.875Z" stroke="black" stroke-width="12"/>
</g>
<path d="M92.5965 259C91.5525 259 90.7245 258.712 90.1125 258.136C89.5365 257.56 89.2485 256.75 89.2485 255.706V224.224C89.2485 223.18 89.5365 222.37 90.1125 221.794C90.7245 221.218 91.5525 220.93 92.5965 220.93H103.289C109.517 220.93 114.341 222.604 117.761 225.952C121.217 229.264 122.945 233.926 122.945 239.938C122.945 245.986 121.217 250.684 117.761 254.032C114.341 257.344 109.517 259 103.289 259H92.5965ZM102.857 253.33C111.605 253.33 115.979 248.866 115.979 239.938C115.979 231.046 111.605 226.6 102.857 226.6H96.2145V253.33H102.857Z" fill="black"/>
</svg>
