<svg xmlns="http://www.w3.org/2000/svg" xmlns:xlink="http://www.w3.org/1999/xlink" width="238" zoomAndPan="magnify" viewBox="0 0 178.5 76.499998" height="102" preserveAspectRatio="xMidYMid meet" version="1.0"><defs><g/><clipPath id="6567d1dea9"><path d="M 0.332031 0 L 177.589844 0 L 177.589844 75.257812 L 0.332031 75.257812 Z M 0.332031 0 " clip-rule="nonzero"/></clipPath></defs><g clip-path="url(#6567d1dea9)"><path stroke-linecap="butt" transform="matrix(0.74513, 0, 0, 0.74513, 0.332484, 0.000000000000005294)" fill="none" stroke-linejoin="miter" d="M -0.000607433 -0.000000000000007105 L 237.88789 -0.000000000000007105 L 237.88789 101.015326 L -0.000607433 101.015326 Z M -0.000607433 -0.000000000000007105 " stroke="#000000" stroke-width="12" stroke-opacity="1" stroke-miterlimit="4"/></g><g fill="#000000" fill-opacity="1"><g transform="translate(53.196539, 50.302977)"><g><path d="M 6.203125 0 C 5.515625 0 4.976562 -0.191406 4.59375 -0.578125 C 4.207031 -0.960938 4.015625 -1.484375 4.015625 -2.140625 C 4.015625 -2.828125 4.207031 -3.34375 4.59375 -3.6875 C 4.976562 -4.039062 5.515625 -4.21875 6.203125 -4.21875 L 10.65625 -4.21875 L 10.65625 -23.71875 L 13.109375 -23.71875 L 7.265625 -20.1875 C 6.765625 -19.894531 6.296875 -19.78125 5.859375 -19.84375 C 5.421875 -19.914062 5.050781 -20.101562 4.75 -20.40625 C 4.445312 -20.707031 4.238281 -21.066406 4.125 -21.484375 C 4.019531 -21.910156 4.050781 -22.34375 4.21875 -22.78125 C 4.394531 -23.21875 4.738281 -23.582031 5.25 -23.875 L 10.734375 -27.171875 C 11.253906 -27.492188 11.78125 -27.765625 12.3125 -27.984375 C 12.84375 -28.210938 13.332031 -28.328125 13.78125 -28.328125 C 14.34375 -28.328125 14.804688 -28.175781 15.171875 -27.875 C 15.546875 -27.570312 15.734375 -27.078125 15.734375 -26.390625 L 15.734375 -4.21875 L 19.78125 -4.21875 C 20.476562 -4.21875 21.015625 -4.039062 21.390625 -3.6875 C 21.773438 -3.34375 21.96875 -2.828125 21.96875 -2.140625 C 21.96875 -1.453125 21.773438 -0.921875 21.390625 -0.546875 C 21.015625 -0.179688 20.476562 0 19.78125 0 Z M 6.203125 0 "/></g></g></g><g fill="#000000" fill-opacity="1"><g transform="translate(77.038328, 50.302977)"><g><path d="M 12.15625 0.390625 C 10.75 0.390625 9.316406 0.207031 7.859375 -0.15625 C 6.410156 -0.53125 5.078125 -1.101562 3.859375 -1.875 C 3.347656 -2.1875 3.003906 -2.5625 2.828125 -3 C 2.660156 -3.4375 2.625 -3.875 2.71875 -4.3125 C 2.8125 -4.75 3.007812 -5.117188 3.3125 -5.421875 C 3.625 -5.722656 4 -5.898438 4.4375 -5.953125 C 4.875 -6.015625 5.351562 -5.898438 5.875 -5.609375 C 6.851562 -5.046875 7.847656 -4.617188 8.859375 -4.328125 C 9.867188 -4.035156 10.941406 -3.890625 12.078125 -3.890625 C 13.191406 -3.890625 14.144531 -4.085938 14.9375 -4.484375 C 15.726562 -4.890625 16.335938 -5.445312 16.765625 -6.15625 C 17.191406 -6.875 17.40625 -7.707031 17.40625 -8.65625 C 17.40625 -10.144531 16.953125 -11.34375 16.046875 -12.25 C 15.148438 -13.164062 13.921875 -13.625 12.359375 -13.625 C 11.503906 -13.625 10.679688 -13.484375 9.890625 -13.203125 C 9.097656 -12.929688 8.316406 -12.453125 7.546875 -11.765625 C 7.304688 -11.546875 7 -11.335938 6.625 -11.140625 C 6.257812 -10.941406 5.863281 -10.84375 5.4375 -10.84375 C 4.78125 -10.84375 4.28125 -11.015625 3.9375 -11.359375 C 3.59375 -11.703125 3.421875 -12.179688 3.421875 -12.796875 L 3.421875 -25.78125 C 3.421875 -26.5 3.609375 -27.050781 3.984375 -27.4375 C 4.367188 -27.820312 4.921875 -28.015625 5.640625 -28.015625 L 18.71875 -28.015625 C 19.425781 -28.015625 19.972656 -27.832031 20.359375 -27.46875 C 20.742188 -27.113281 20.9375 -26.59375 20.9375 -25.90625 C 20.9375 -25.238281 20.742188 -24.71875 20.359375 -24.34375 C 19.972656 -23.976562 19.425781 -23.796875 18.71875 -23.796875 L 8.390625 -23.796875 L 8.390625 -14.90625 L 7.078125 -14.90625 C 7.765625 -15.832031 8.675781 -16.546875 9.8125 -17.046875 C 10.945312 -17.546875 12.191406 -17.796875 13.546875 -17.796875 C 15.328125 -17.796875 16.867188 -17.414062 18.171875 -16.65625 C 19.484375 -15.90625 20.503906 -14.859375 21.234375 -13.515625 C 21.960938 -12.179688 22.328125 -10.628906 22.328125 -8.859375 C 22.328125 -7.035156 21.914062 -5.425781 21.09375 -4.03125 C 20.269531 -2.644531 19.097656 -1.5625 17.578125 -0.78125 C 16.054688 0 14.25 0.390625 12.15625 0.390625 Z M 12.15625 0.390625 "/></g></g></g><g fill="#000000" fill-opacity="1"><g transform="translate(100.880117, 50.302977)"><g><path d="M 11.921875 0.390625 C 8.609375 0.390625 6.078125 -0.859375 4.328125 -3.359375 C 2.578125 -5.859375 1.703125 -9.425781 1.703125 -14.0625 C 1.703125 -17.1875 2.09375 -19.816406 2.875 -21.953125 C 3.65625 -24.085938 4.804688 -25.695312 6.328125 -26.78125 C 7.859375 -27.863281 9.722656 -28.40625 11.921875 -28.40625 C 15.253906 -28.40625 17.785156 -27.1875 19.515625 -24.75 C 21.253906 -22.3125 22.125 -18.765625 22.125 -14.109375 C 22.125 -11.003906 21.734375 -8.375 20.953125 -6.21875 C 20.171875 -4.0625 19.023438 -2.421875 17.515625 -1.296875 C 16.015625 -0.171875 14.148438 0.390625 11.921875 0.390625 Z M 11.921875 -3.78125 C 13.722656 -3.78125 15.050781 -4.613281 15.90625 -6.28125 C 16.769531 -7.945312 17.203125 -10.554688 17.203125 -14.109375 C 17.203125 -17.660156 16.769531 -20.234375 15.90625 -21.828125 C 15.050781 -23.429688 13.722656 -24.234375 11.921875 -24.234375 C 10.148438 -24.234375 8.828125 -23.429688 7.953125 -21.828125 C 7.078125 -20.234375 6.640625 -17.660156 6.640625 -14.109375 C 6.640625 -10.554688 7.078125 -7.945312 7.953125 -6.28125 C 8.828125 -4.613281 10.148438 -3.78125 11.921875 -3.78125 Z M 11.921875 -3.78125 "/></g></g></g></svg>