<svg xmlns="http://www.w3.org/2000/svg" xmlns:xlink="http://www.w3.org/1999/xlink" width="576" zoomAndPan="magnify" viewBox="0 0 432 431.999984" height="576" preserveAspectRatio="xMidYMid meet" version="1.0"><defs><g/><clipPath id="3bd35b364c"><path d="M 0 0 L 431.695312 0 L 431.695312 431.695312 L 0 431.695312 Z M 0 0 " clip-rule="nonzero"/></clipPath></defs><g clip-path="url(#3bd35b364c)"><path stroke-linecap="butt" transform="matrix(0.75, 0, 0, 0.75, 0.000008, 0)" fill="none" stroke-linejoin="miter" d="M -0.0000106667 0 L 575.593785 0 L 575.593785 575.593795 L -0.0000106667 575.593795 Z M -0.0000106667 0 " stroke="#000000" stroke-width="12" stroke-opacity="1" stroke-miterlimit="4"/></g><g fill="#000000" fill-opacity="1"><g transform="translate(77.058768, 94.353398)"><g><path d="M 12.21875 0 C 10.863281 0 9.804688 -0.375 9.046875 -1.125 C 8.296875 -1.882812 7.921875 -2.921875 7.921875 -4.234375 C 7.921875 -5.585938 8.296875 -6.601562 9.046875 -7.28125 C 9.804688 -7.96875 10.863281 -8.3125 12.21875 -8.3125 L 21 -8.3125 L 21 -46.796875 L 25.859375 -46.796875 L 14.34375 -39.8125 C 13.351562 -39.238281 12.425781 -39.015625 11.5625 -39.140625 C 10.695312 -39.273438 9.960938 -39.640625 9.359375 -40.234375 C 8.765625 -40.835938 8.363281 -41.554688 8.15625 -42.390625 C 7.945312 -43.234375 8.007812 -44.082031 8.34375 -44.9375 C 8.6875 -45.800781 9.351562 -46.523438 10.34375 -47.109375 L 21.15625 -53.609375 C 22.207031 -54.234375 23.253906 -54.765625 24.296875 -55.203125 C 25.335938 -55.648438 26.304688 -55.875 27.203125 -55.875 C 28.296875 -55.875 29.207031 -55.570312 29.9375 -54.96875 C 30.664062 -54.375 31.03125 -53.398438 31.03125 -52.046875 L 31.03125 -8.3125 L 39.03125 -8.3125 C 40.382812 -8.3125 41.441406 -7.96875 42.203125 -7.28125 C 42.960938 -6.601562 43.34375 -5.585938 43.34375 -4.234375 C 43.34375 -2.867188 42.960938 -1.820312 42.203125 -1.09375 C 41.441406 -0.363281 40.382812 0 39.03125 0 Z M 12.21875 0 "/></g></g></g><g fill="#000000" fill-opacity="1"><g transform="translate(124.076712, 94.353398)"><g/></g></g><g fill="#000000" fill-opacity="1"><g transform="translate(145.313146, 94.353398)"><g><path d="M 7.28125 -26.875 C 6.1875 -26.875 5.328125 -27.175781 4.703125 -27.78125 C 4.078125 -28.382812 3.765625 -29.234375 3.765625 -30.328125 C 3.765625 -31.429688 4.078125 -32.28125 4.703125 -32.875 C 5.328125 -33.476562 6.1875 -33.78125 7.28125 -33.78125 L 39.734375 -33.78125 C 40.878906 -33.78125 41.753906 -33.476562 42.359375 -32.875 C 42.960938 -32.28125 43.265625 -31.429688 43.265625 -30.328125 C 43.265625 -29.234375 42.960938 -28.382812 42.359375 -27.78125 C 41.753906 -27.175781 40.878906 -26.875 39.734375 -26.875 Z M 7.28125 -11.28125 C 6.1875 -11.28125 5.328125 -11.582031 4.703125 -12.1875 C 4.078125 -12.789062 3.765625 -13.640625 3.765625 -14.734375 C 3.765625 -15.828125 4.078125 -16.660156 4.703125 -17.234375 C 5.328125 -17.816406 6.1875 -18.109375 7.28125 -18.109375 L 39.734375 -18.109375 C 40.878906 -18.109375 41.753906 -17.816406 42.359375 -17.234375 C 42.960938 -16.660156 43.265625 -15.828125 43.265625 -14.734375 C 43.265625 -13.585938 42.960938 -12.722656 42.359375 -12.140625 C 41.753906 -11.566406 40.878906 -11.28125 39.734375 -11.28125 Z M 7.28125 -11.28125 "/></g></g></g><g fill="#000000" fill-opacity="1"><g transform="translate(192.331091, 94.353398)"><g/></g></g><g fill="#000000" fill-opacity="1"><g transform="translate(213.567524, 94.353398)"><g><path d="M 23.984375 0.78125 C 21.210938 0.78125 18.390625 0.414062 15.515625 -0.3125 C 12.640625 -1.039062 10.003906 -2.164062 7.609375 -3.6875 C 6.609375 -4.3125 5.9375 -5.050781 5.59375 -5.90625 C 5.257812 -6.769531 5.179688 -7.632812 5.359375 -8.5 C 5.546875 -9.363281 5.941406 -10.09375 6.546875 -10.6875 C 7.148438 -11.289062 7.878906 -11.644531 8.734375 -11.75 C 9.597656 -11.851562 10.550781 -11.617188 11.59375 -11.046875 C 13.53125 -9.953125 15.488281 -9.117188 17.46875 -8.546875 C 19.457031 -7.972656 21.578125 -7.6875 23.828125 -7.6875 C 26.023438 -7.6875 27.90625 -8.078125 29.46875 -8.859375 C 31.03125 -9.640625 32.226562 -10.734375 33.0625 -12.140625 C 33.90625 -13.554688 34.328125 -15.203125 34.328125 -17.078125 C 34.328125 -20.003906 33.4375 -22.367188 31.65625 -24.171875 C 29.882812 -25.972656 27.457031 -26.875 24.375 -26.875 C 22.695312 -26.875 21.078125 -26.597656 19.515625 -26.046875 C 17.953125 -25.503906 16.410156 -24.554688 14.890625 -23.203125 C 14.421875 -22.785156 13.816406 -22.378906 13.078125 -21.984375 C 12.347656 -21.585938 11.566406 -21.390625 10.734375 -21.390625 C 9.429688 -21.390625 8.4375 -21.726562 7.75 -22.40625 C 7.070312 -23.09375 6.734375 -24.035156 6.734375 -25.234375 L 6.734375 -50.859375 C 6.734375 -52.273438 7.113281 -53.359375 7.875 -54.109375 C 8.632812 -54.867188 9.71875 -55.25 11.125 -55.25 L 36.921875 -55.25 C 38.328125 -55.25 39.40625 -54.894531 40.15625 -54.1875 C 40.914062 -53.488281 41.296875 -52.457031 41.296875 -51.09375 C 41.296875 -49.789062 40.914062 -48.773438 40.15625 -48.046875 C 39.40625 -47.316406 38.328125 -46.953125 36.921875 -46.953125 L 16.53125 -46.953125 L 16.53125 -29.390625 L 13.953125 -29.390625 C 15.304688 -31.222656 17.109375 -32.632812 19.359375 -33.625 C 21.609375 -34.613281 24.0625 -35.109375 26.71875 -35.109375 C 30.226562 -35.109375 33.273438 -34.363281 35.859375 -32.875 C 38.441406 -31.382812 40.453125 -29.320312 41.890625 -26.6875 C 43.328125 -24.050781 44.046875 -20.984375 44.046875 -17.484375 C 44.046875 -13.867188 43.234375 -10.691406 41.609375 -7.953125 C 39.992188 -5.210938 37.679688 -3.070312 34.671875 -1.53125 C 31.671875 0.0078125 28.109375 0.78125 23.984375 0.78125 Z M 23.984375 0.78125 "/></g></g></g><g fill="#000000" fill-opacity="1"><g transform="translate(77.058768, 167.853393)"><g><path d="M 10.421875 0 C 8.753906 0 7.539062 -0.375 6.78125 -1.125 C 6.019531 -1.882812 5.640625 -3 5.640625 -4.46875 C 5.640625 -5.351562 5.875 -6.210938 6.34375 -7.046875 C 6.8125 -7.890625 7.492188 -8.78125 8.390625 -9.71875 L 24.140625 -26.484375 C 26.546875 -28.992188 28.269531 -31.28125 29.3125 -33.34375 C 30.351562 -35.40625 30.875 -37.484375 30.875 -39.578125 C 30.875 -42.191406 30.050781 -44.175781 28.40625 -45.53125 C 26.757812 -46.894531 24.367188 -47.578125 21.234375 -47.578125 C 19.460938 -47.578125 17.6875 -47.328125 15.90625 -46.828125 C 14.132812 -46.328125 12.332031 -45.476562 10.5 -44.28125 C 9.5625 -43.65625 8.6875 -43.394531 7.875 -43.5 C 7.0625 -43.601562 6.351562 -43.941406 5.75 -44.515625 C 5.15625 -45.085938 4.753906 -45.789062 4.546875 -46.625 C 4.335938 -47.46875 4.375 -48.316406 4.65625 -49.171875 C 4.945312 -50.035156 5.5625 -50.785156 6.5 -51.421875 C 8.75 -52.929688 11.269531 -54.078125 14.0625 -54.859375 C 16.863281 -55.640625 19.675781 -56.03125 22.5 -56.03125 C 26.46875 -56.03125 29.804688 -55.429688 32.515625 -54.234375 C 35.234375 -53.035156 37.296875 -51.285156 38.703125 -48.984375 C 40.117188 -46.679688 40.828125 -43.882812 40.828125 -40.59375 C 40.828125 -38.40625 40.472656 -36.265625 39.765625 -34.171875 C 39.066406 -32.078125 38 -29.957031 36.5625 -27.8125 C 35.125 -25.675781 33.253906 -23.40625 30.953125 -21 L 16.21875 -5.640625 L 16.21875 -8.3125 L 39.265625 -8.3125 C 40.671875 -8.3125 41.738281 -7.96875 42.46875 -7.28125 C 43.207031 -6.601562 43.578125 -5.585938 43.578125 -4.234375 C 43.578125 -2.867188 43.207031 -1.820312 42.46875 -1.09375 C 41.738281 -0.363281 40.671875 0 39.265625 0 Z M 10.421875 0 "/></g></g></g><g fill="#000000" fill-opacity="1"><g transform="translate(124.076712, 167.853393)"><g/></g></g><g fill="#000000" fill-opacity="1"><g transform="translate(145.313146, 167.853393)"><g><path d="M 7.28125 -26.875 C 6.1875 -26.875 5.328125 -27.175781 4.703125 -27.78125 C 4.078125 -28.382812 3.765625 -29.234375 3.765625 -30.328125 C 3.765625 -31.429688 4.078125 -32.28125 4.703125 -32.875 C 5.328125 -33.476562 6.1875 -33.78125 7.28125 -33.78125 L 39.734375 -33.78125 C 40.878906 -33.78125 41.753906 -33.476562 42.359375 -32.875 C 42.960938 -32.28125 43.265625 -31.429688 43.265625 -30.328125 C 43.265625 -29.234375 42.960938 -28.382812 42.359375 -27.78125 C 41.753906 -27.175781 40.878906 -26.875 39.734375 -26.875 Z M 7.28125 -11.28125 C 6.1875 -11.28125 5.328125 -11.582031 4.703125 -12.1875 C 4.078125 -12.789062 3.765625 -13.640625 3.765625 -14.734375 C 3.765625 -15.828125 4.078125 -16.660156 4.703125 -17.234375 C 5.328125 -17.816406 6.1875 -18.109375 7.28125 -18.109375 L 39.734375 -18.109375 C 40.878906 -18.109375 41.753906 -17.816406 42.359375 -17.234375 C 42.960938 -16.660156 43.265625 -15.828125 43.265625 -14.734375 C 43.265625 -13.585938 42.960938 -12.722656 42.359375 -12.140625 C 41.753906 -11.566406 40.878906 -11.28125 39.734375 -11.28125 Z M 7.28125 -11.28125 "/></g></g></g><g fill="#000000" fill-opacity="1"><g transform="translate(192.331091, 167.853393)"><g/></g></g><g fill="#000000" fill-opacity="1"><g transform="translate(213.567524, 167.853393)"><g><path d="M 10.421875 0 C 8.753906 0 7.539062 -0.375 6.78125 -1.125 C 6.019531 -1.882812 5.640625 -3 5.640625 -4.46875 C 5.640625 -5.351562 5.875 -6.210938 6.34375 -7.046875 C 6.8125 -7.890625 7.492188 -8.78125 8.390625 -9.71875 L 24.140625 -26.484375 C 26.546875 -28.992188 28.269531 -31.28125 29.3125 -33.34375 C 30.351562 -35.40625 30.875 -37.484375 30.875 -39.578125 C 30.875 -42.191406 30.050781 -44.175781 28.40625 -45.53125 C 26.757812 -46.894531 24.367188 -47.578125 21.234375 -47.578125 C 19.460938 -47.578125 17.6875 -47.328125 15.90625 -46.828125 C 14.132812 -46.328125 12.332031 -45.476562 10.5 -44.28125 C 9.5625 -43.65625 8.6875 -43.394531 7.875 -43.5 C 7.0625 -43.601562 6.351562 -43.941406 5.75 -44.515625 C 5.15625 -45.085938 4.753906 -45.789062 4.546875 -46.625 C 4.335938 -47.46875 4.375 -48.316406 4.65625 -49.171875 C 4.945312 -50.035156 5.5625 -50.785156 6.5 -51.421875 C 8.75 -52.929688 11.269531 -54.078125 14.0625 -54.859375 C 16.863281 -55.640625 19.675781 -56.03125 22.5 -56.03125 C 26.46875 -56.03125 29.804688 -55.429688 32.515625 -54.234375 C 35.234375 -53.035156 37.296875 -51.285156 38.703125 -48.984375 C 40.117188 -46.679688 40.828125 -43.882812 40.828125 -40.59375 C 40.828125 -38.40625 40.472656 -36.265625 39.765625 -34.171875 C 39.066406 -32.078125 38 -29.957031 36.5625 -27.8125 C 35.125 -25.675781 33.253906 -23.40625 30.953125 -21 L 16.21875 -5.640625 L 16.21875 -8.3125 L 39.265625 -8.3125 C 40.671875 -8.3125 41.738281 -7.96875 42.46875 -7.28125 C 43.207031 -6.601562 43.578125 -5.585938 43.578125 -4.234375 C 43.578125 -2.867188 43.207031 -1.820312 42.46875 -1.09375 C 41.738281 -0.363281 40.671875 0 39.265625 0 Z M 10.421875 0 "/></g></g></g><g fill="#000000" fill-opacity="1"><g transform="translate(260.585469, 167.853393)"><g><path d="M 23.984375 0.78125 C 21.210938 0.78125 18.390625 0.414062 15.515625 -0.3125 C 12.640625 -1.039062 10.003906 -2.164062 7.609375 -3.6875 C 6.609375 -4.3125 5.9375 -5.050781 5.59375 -5.90625 C 5.257812 -6.769531 5.179688 -7.632812 5.359375 -8.5 C 5.546875 -9.363281 5.941406 -10.09375 6.546875 -10.6875 C 7.148438 -11.289062 7.878906 -11.644531 8.734375 -11.75 C 9.597656 -11.851562 10.550781 -11.617188 11.59375 -11.046875 C 13.53125 -9.953125 15.488281 -9.117188 17.46875 -8.546875 C 19.457031 -7.972656 21.578125 -7.6875 23.828125 -7.6875 C 26.023438 -7.6875 27.90625 -8.078125 29.46875 -8.859375 C 31.03125 -9.640625 32.226562 -10.734375 33.0625 -12.140625 C 33.90625 -13.554688 34.328125 -15.203125 34.328125 -17.078125 C 34.328125 -20.003906 33.4375 -22.367188 31.65625 -24.171875 C 29.882812 -25.972656 27.457031 -26.875 24.375 -26.875 C 22.695312 -26.875 21.078125 -26.597656 19.515625 -26.046875 C 17.953125 -25.503906 16.410156 -24.554688 14.890625 -23.203125 C 14.421875 -22.785156 13.816406 -22.378906 13.078125 -21.984375 C 12.347656 -21.585938 11.566406 -21.390625 10.734375 -21.390625 C 9.429688 -21.390625 8.4375 -21.726562 7.75 -22.40625 C 7.070312 -23.09375 6.734375 -24.035156 6.734375 -25.234375 L 6.734375 -50.859375 C 6.734375 -52.273438 7.113281 -53.359375 7.875 -54.109375 C 8.632812 -54.867188 9.71875 -55.25 11.125 -55.25 L 36.921875 -55.25 C 38.328125 -55.25 39.40625 -54.894531 40.15625 -54.1875 C 40.914062 -53.488281 41.296875 -52.457031 41.296875 -51.09375 C 41.296875 -49.789062 40.914062 -48.773438 40.15625 -48.046875 C 39.40625 -47.316406 38.328125 -46.953125 36.921875 -46.953125 L 16.53125 -46.953125 L 16.53125 -29.390625 L 13.953125 -29.390625 C 15.304688 -31.222656 17.109375 -32.632812 19.359375 -33.625 C 21.609375 -34.613281 24.0625 -35.109375 26.71875 -35.109375 C 30.226562 -35.109375 33.273438 -34.363281 35.859375 -32.875 C 38.441406 -31.382812 40.453125 -29.320312 41.890625 -26.6875 C 43.328125 -24.050781 44.046875 -20.984375 44.046875 -17.484375 C 44.046875 -13.867188 43.234375 -10.691406 41.609375 -7.953125 C 39.992188 -5.210938 37.679688 -3.070312 34.671875 -1.53125 C 31.671875 0.0078125 28.109375 0.78125 23.984375 0.78125 Z M 23.984375 0.78125 "/></g></g></g><g fill="#000000" fill-opacity="1"><g transform="translate(77.058768, 241.353387)"><g><path d="M 22.421875 0.78125 C 19.597656 0.78125 16.671875 0.414062 13.640625 -0.3125 C 10.609375 -1.039062 7.96875 -2.140625 5.71875 -3.609375 C 4.675781 -4.285156 3.972656 -5.066406 3.609375 -5.953125 C 3.242188 -6.835938 3.148438 -7.6875 3.328125 -8.5 C 3.515625 -9.3125 3.90625 -10.003906 4.5 -10.578125 C 5.101562 -11.148438 5.863281 -11.488281 6.78125 -11.59375 C 7.695312 -11.695312 8.703125 -11.460938 9.796875 -10.890625 C 11.941406 -9.742188 14.003906 -8.921875 15.984375 -8.421875 C 17.972656 -7.929688 20.015625 -7.6875 22.109375 -7.6875 C 24.398438 -7.6875 26.328125 -8 27.890625 -8.625 C 29.460938 -9.25 30.65625 -10.1875 31.46875 -11.4375 C 32.28125 -12.695312 32.6875 -14.210938 32.6875 -15.984375 C 32.6875 -18.597656 31.8125 -20.546875 30.0625 -21.828125 C 28.3125 -23.109375 25.765625 -23.75 22.421875 -23.75 L 17.40625 -23.75 C 15.9375 -23.75 14.820312 -24.113281 14.0625 -24.84375 C 13.3125 -25.570312 12.9375 -26.59375 12.9375 -27.90625 C 12.9375 -29.207031 13.3125 -30.222656 14.0625 -30.953125 C 14.820312 -31.691406 15.9375 -32.0625 17.40625 -32.0625 L 21.46875 -32.0625 C 23.457031 -32.0625 25.15625 -32.382812 26.5625 -33.03125 C 27.976562 -33.6875 29.078125 -34.613281 29.859375 -35.8125 C 30.640625 -37.019531 31.03125 -38.484375 31.03125 -40.203125 C 31.03125 -42.609375 30.234375 -44.4375 28.640625 -45.6875 C 27.046875 -46.945312 24.734375 -47.578125 21.703125 -47.578125 C 19.773438 -47.578125 17.960938 -47.351562 16.265625 -46.90625 C 14.566406 -46.457031 12.695312 -45.632812 10.65625 -44.4375 C 9.71875 -43.863281 8.816406 -43.628906 7.953125 -43.734375 C 7.085938 -43.835938 6.367188 -44.175781 5.796875 -44.75 C 5.222656 -45.320312 4.832031 -46.015625 4.625 -46.828125 C 4.414062 -47.640625 4.46875 -48.472656 4.78125 -49.328125 C 5.09375 -50.191406 5.742188 -50.941406 6.734375 -51.578125 C 8.984375 -53.035156 11.46875 -54.140625 14.1875 -54.890625 C 16.90625 -55.648438 19.703125 -56.03125 22.578125 -56.03125 C 26.390625 -56.03125 29.648438 -55.441406 32.359375 -54.265625 C 35.078125 -53.097656 37.15625 -51.425781 38.59375 -49.25 C 40.03125 -47.082031 40.75 -44.457031 40.75 -41.375 C 40.75 -39.1875 40.332031 -37.191406 39.5 -35.390625 C 38.664062 -33.585938 37.488281 -32.054688 35.96875 -30.796875 C 34.457031 -29.546875 32.628906 -28.660156 30.484375 -28.140625 L 30.484375 -29.078125 C 34.242188 -28.453125 37.171875 -26.894531 39.265625 -24.40625 C 41.359375 -21.925781 42.40625 -18.832031 42.40625 -15.125 C 42.40625 -11.882812 41.59375 -9.0625 39.96875 -6.65625 C 38.351562 -4.257812 36.054688 -2.421875 33.078125 -1.140625 C 30.097656 0.140625 26.546875 0.78125 22.421875 0.78125 Z M 22.421875 0.78125 "/></g></g></g><g fill="#000000" fill-opacity="1"><g transform="translate(124.076712, 241.353387)"><g/></g></g><g fill="#000000" fill-opacity="1"><g transform="translate(145.313146, 241.353387)"><g><path d="M 7.28125 -26.875 C 6.1875 -26.875 5.328125 -27.175781 4.703125 -27.78125 C 4.078125 -28.382812 3.765625 -29.234375 3.765625 -30.328125 C 3.765625 -31.429688 4.078125 -32.28125 4.703125 -32.875 C 5.328125 -33.476562 6.1875 -33.78125 7.28125 -33.78125 L 39.734375 -33.78125 C 40.878906 -33.78125 41.753906 -33.476562 42.359375 -32.875 C 42.960938 -32.28125 43.265625 -31.429688 43.265625 -30.328125 C 43.265625 -29.234375 42.960938 -28.382812 42.359375 -27.78125 C 41.753906 -27.175781 40.878906 -26.875 39.734375 -26.875 Z M 7.28125 -11.28125 C 6.1875 -11.28125 5.328125 -11.582031 4.703125 -12.1875 C 4.078125 -12.789062 3.765625 -13.640625 3.765625 -14.734375 C 3.765625 -15.828125 4.078125 -16.660156 4.703125 -17.234375 C 5.328125 -17.816406 6.1875 -18.109375 7.28125 -18.109375 L 39.734375 -18.109375 C 40.878906 -18.109375 41.753906 -17.816406 42.359375 -17.234375 C 42.960938 -16.660156 43.265625 -15.828125 43.265625 -14.734375 C 43.265625 -13.585938 42.960938 -12.722656 42.359375 -12.140625 C 41.753906 -11.566406 40.878906 -11.28125 39.734375 -11.28125 Z M 7.28125 -11.28125 "/></g></g></g><g fill="#000000" fill-opacity="1"><g transform="translate(192.331091, 241.353387)"><g/></g></g><g fill="#000000" fill-opacity="1"><g transform="translate(213.567524, 241.353387)"><g><path d="M 12.21875 0 C 10.863281 0 9.804688 -0.375 9.046875 -1.125 C 8.296875 -1.882812 7.921875 -2.921875 7.921875 -4.234375 C 7.921875 -5.585938 8.296875 -6.601562 9.046875 -7.28125 C 9.804688 -7.96875 10.863281 -8.3125 12.21875 -8.3125 L 21 -8.3125 L 21 -46.796875 L 25.859375 -46.796875 L 14.34375 -39.8125 C 13.351562 -39.238281 12.425781 -39.015625 11.5625 -39.140625 C 10.695312 -39.273438 9.960938 -39.640625 9.359375 -40.234375 C 8.765625 -40.835938 8.363281 -41.554688 8.15625 -42.390625 C 7.945312 -43.234375 8.007812 -44.082031 8.34375 -44.9375 C 8.6875 -45.800781 9.351562 -46.523438 10.34375 -47.109375 L 21.15625 -53.609375 C 22.207031 -54.234375 23.253906 -54.765625 24.296875 -55.203125 C 25.335938 -55.648438 26.304688 -55.875 27.203125 -55.875 C 28.296875 -55.875 29.207031 -55.570312 29.9375 -54.96875 C 30.664062 -54.375 31.03125 -53.398438 31.03125 -52.046875 L 31.03125 -8.3125 L 39.03125 -8.3125 C 40.382812 -8.3125 41.441406 -7.96875 42.203125 -7.28125 C 42.960938 -6.601562 43.34375 -5.585938 43.34375 -4.234375 C 43.34375 -2.867188 42.960938 -1.820312 42.203125 -1.09375 C 41.441406 -0.363281 40.382812 0 39.03125 0 Z M 12.21875 0 "/></g></g></g><g fill="#000000" fill-opacity="1"><g transform="translate(260.585469, 241.353387)"><g><path d="M 10.421875 0 C 8.753906 0 7.539062 -0.375 6.78125 -1.125 C 6.019531 -1.882812 5.640625 -3 5.640625 -4.46875 C 5.640625 -5.351562 5.875 -6.210938 6.34375 -7.046875 C 6.8125 -7.890625 7.492188 -8.78125 8.390625 -9.71875 L 24.140625 -26.484375 C 26.546875 -28.992188 28.269531 -31.28125 29.3125 -33.34375 C 30.351562 -35.40625 30.875 -37.484375 30.875 -39.578125 C 30.875 -42.191406 30.050781 -44.175781 28.40625 -45.53125 C 26.757812 -46.894531 24.367188 -47.578125 21.234375 -47.578125 C 19.460938 -47.578125 17.6875 -47.328125 15.90625 -46.828125 C 14.132812 -46.328125 12.332031 -45.476562 10.5 -44.28125 C 9.5625 -43.65625 8.6875 -43.394531 7.875 -43.5 C 7.0625 -43.601562 6.351562 -43.941406 5.75 -44.515625 C 5.15625 -45.085938 4.753906 -45.789062 4.546875 -46.625 C 4.335938 -47.46875 4.375 -48.316406 4.65625 -49.171875 C 4.945312 -50.035156 5.5625 -50.785156 6.5 -51.421875 C 8.75 -52.929688 11.269531 -54.078125 14.0625 -54.859375 C 16.863281 -55.640625 19.675781 -56.03125 22.5 -56.03125 C 26.46875 -56.03125 29.804688 -55.429688 32.515625 -54.234375 C 35.234375 -53.035156 37.296875 -51.285156 38.703125 -48.984375 C 40.117188 -46.679688 40.828125 -43.882812 40.828125 -40.59375 C 40.828125 -38.40625 40.472656 -36.265625 39.765625 -34.171875 C 39.066406 -32.078125 38 -29.957031 36.5625 -27.8125 C 35.125 -25.675781 33.253906 -23.40625 30.953125 -21 L 16.21875 -5.640625 L 16.21875 -8.3125 L 39.265625 -8.3125 C 40.671875 -8.3125 41.738281 -7.96875 42.46875 -7.28125 C 43.207031 -6.601562 43.578125 -5.585938 43.578125 -4.234375 C 43.578125 -2.867188 43.207031 -1.820312 42.46875 -1.09375 C 41.738281 -0.363281 40.671875 0 39.265625 0 Z M 10.421875 0 "/></g></g></g><g fill="#000000" fill-opacity="1"><g transform="translate(307.603414, 241.353387)"><g><path d="M 23.984375 0.78125 C 21.210938 0.78125 18.390625 0.414062 15.515625 -0.3125 C 12.640625 -1.039062 10.003906 -2.164062 7.609375 -3.6875 C 6.609375 -4.3125 5.9375 -5.050781 5.59375 -5.90625 C 5.257812 -6.769531 5.179688 -7.632812 5.359375 -8.5 C 5.546875 -9.363281 5.941406 -10.09375 6.546875 -10.6875 C 7.148438 -11.289062 7.878906 -11.644531 8.734375 -11.75 C 9.597656 -11.851562 10.550781 -11.617188 11.59375 -11.046875 C 13.53125 -9.953125 15.488281 -9.117188 17.46875 -8.546875 C 19.457031 -7.972656 21.578125 -7.6875 23.828125 -7.6875 C 26.023438 -7.6875 27.90625 -8.078125 29.46875 -8.859375 C 31.03125 -9.640625 32.226562 -10.734375 33.0625 -12.140625 C 33.90625 -13.554688 34.328125 -15.203125 34.328125 -17.078125 C 34.328125 -20.003906 33.4375 -22.367188 31.65625 -24.171875 C 29.882812 -25.972656 27.457031 -26.875 24.375 -26.875 C 22.695312 -26.875 21.078125 -26.597656 19.515625 -26.046875 C 17.953125 -25.503906 16.410156 -24.554688 14.890625 -23.203125 C 14.421875 -22.785156 13.816406 -22.378906 13.078125 -21.984375 C 12.347656 -21.585938 11.566406 -21.390625 10.734375 -21.390625 C 9.429688 -21.390625 8.4375 -21.726562 7.75 -22.40625 C 7.070312 -23.09375 6.734375 -24.035156 6.734375 -25.234375 L 6.734375 -50.859375 C 6.734375 -52.273438 7.113281 -53.359375 7.875 -54.109375 C 8.632812 -54.867188 9.71875 -55.25 11.125 -55.25 L 36.921875 -55.25 C 38.328125 -55.25 39.40625 -54.894531 40.15625 -54.1875 C 40.914062 -53.488281 41.296875 -52.457031 41.296875 -51.09375 C 41.296875 -49.789062 40.914062 -48.773438 40.15625 -48.046875 C 39.40625 -47.316406 38.328125 -46.953125 36.921875 -46.953125 L 16.53125 -46.953125 L 16.53125 -29.390625 L 13.953125 -29.390625 C 15.304688 -31.222656 17.109375 -32.632812 19.359375 -33.625 C 21.609375 -34.613281 24.0625 -35.109375 26.71875 -35.109375 C 30.226562 -35.109375 33.273438 -34.363281 35.859375 -32.875 C 38.441406 -31.382812 40.453125 -29.320312 41.890625 -26.6875 C 43.328125 -24.050781 44.046875 -20.984375 44.046875 -17.484375 C 44.046875 -13.867188 43.234375 -10.691406 41.609375 -7.953125 C 39.992188 -5.210938 37.679688 -3.070312 34.671875 -1.53125 C 31.671875 0.0078125 28.109375 0.78125 23.984375 0.78125 Z M 23.984375 0.78125 "/></g></g></g><g fill="#000000" fill-opacity="1"><g transform="translate(77.058768, 314.853381)"><g><path d="M 32.375 0.625 C 30.800781 0.625 29.570312 0.195312 28.6875 -0.65625 C 27.800781 -1.519531 27.359375 -2.765625 27.359375 -4.390625 L 27.359375 -10.5 L 8 -10.5 C 6.375 -10.5 5.078125 -10.835938 4.109375 -11.515625 C 3.148438 -12.203125 2.671875 -13.273438 2.671875 -14.734375 C 2.671875 -15.566406 2.890625 -16.476562 3.328125 -17.46875 C 3.773438 -18.46875 4.570312 -19.773438 5.71875 -21.390625 L 27.203125 -52.515625 C 27.929688 -53.609375 28.738281 -54.441406 29.625 -55.015625 C 30.507812 -55.585938 31.53125 -55.875 32.6875 -55.875 C 34.039062 -55.875 35.160156 -55.46875 36.046875 -54.65625 C 36.941406 -53.851562 37.390625 -52.585938 37.390625 -50.859375 L 37.390625 -18.8125 L 41.21875 -18.8125 C 42.738281 -18.8125 43.875 -18.457031 44.625 -17.75 C 45.382812 -17.039062 45.765625 -16.007812 45.765625 -14.65625 C 45.765625 -13.300781 45.382812 -12.269531 44.625 -11.5625 C 43.875 -10.851562 42.738281 -10.5 41.21875 -10.5 L 37.390625 -10.5 L 37.390625 -4.390625 C 37.390625 -2.765625 36.941406 -1.519531 36.046875 -0.65625 C 35.160156 0.195312 33.9375 0.625 32.375 0.625 Z M 27.359375 -18.8125 L 27.359375 -43.265625 L 29.625 -43.265625 L 11.125 -16.140625 L 11.125 -18.8125 Z M 27.359375 -18.8125 "/></g></g></g><g fill="#000000" fill-opacity="1"><g transform="translate(124.076712, 314.853381)"><g/></g></g><g fill="#000000" fill-opacity="1"><g transform="translate(145.313146, 314.853381)"><g><path d="M 7.28125 -26.875 C 6.1875 -26.875 5.328125 -27.175781 4.703125 -27.78125 C 4.078125 -28.382812 3.765625 -29.234375 3.765625 -30.328125 C 3.765625 -31.429688 4.078125 -32.28125 4.703125 -32.875 C 5.328125 -33.476562 6.1875 -33.78125 7.28125 -33.78125 L 39.734375 -33.78125 C 40.878906 -33.78125 41.753906 -33.476562 42.359375 -32.875 C 42.960938 -32.28125 43.265625 -31.429688 43.265625 -30.328125 C 43.265625 -29.234375 42.960938 -28.382812 42.359375 -27.78125 C 41.753906 -27.175781 40.878906 -26.875 39.734375 -26.875 Z M 7.28125 -11.28125 C 6.1875 -11.28125 5.328125 -11.582031 4.703125 -12.1875 C 4.078125 -12.789062 3.765625 -13.640625 3.765625 -14.734375 C 3.765625 -15.828125 4.078125 -16.660156 4.703125 -17.234375 C 5.328125 -17.816406 6.1875 -18.109375 7.28125 -18.109375 L 39.734375 -18.109375 C 40.878906 -18.109375 41.753906 -17.816406 42.359375 -17.234375 C 42.960938 -16.660156 43.265625 -15.828125 43.265625 -14.734375 C 43.265625 -13.585938 42.960938 -12.722656 42.359375 -12.140625 C 41.753906 -11.566406 40.878906 -11.28125 39.734375 -11.28125 Z M 7.28125 -11.28125 "/></g></g></g><g fill="#000000" fill-opacity="1"><g transform="translate(192.331091, 314.853381)"><g/></g></g><g fill="#000000" fill-opacity="1"><g transform="translate(213.567524, 314.853381)"><g><path d="M 25.546875 0.78125 C 21.003906 0.78125 17.125 -0.300781 13.90625 -2.46875 C 10.695312 -4.632812 8.253906 -7.753906 6.578125 -11.828125 C 4.910156 -15.910156 4.078125 -20.847656 4.078125 -26.640625 C 4.078125 -31.347656 4.609375 -35.515625 5.671875 -39.140625 C 6.742188 -42.773438 8.300781 -45.847656 10.34375 -48.359375 C 12.382812 -50.867188 14.878906 -52.773438 17.828125 -54.078125 C 20.785156 -55.378906 24.117188 -56.03125 27.828125 -56.03125 C 30.117188 -56.03125 32.453125 -55.675781 34.828125 -54.96875 C 37.210938 -54.269531 39.445312 -53.21875 41.53125 -51.8125 C 42.375 -51.28125 42.925781 -50.597656 43.1875 -49.765625 C 43.445312 -48.929688 43.484375 -48.109375 43.296875 -47.296875 C 43.117188 -46.484375 42.753906 -45.773438 42.203125 -45.171875 C 41.648438 -44.578125 40.957031 -44.210938 40.125 -44.078125 C 39.289062 -43.953125 38.378906 -44.175781 37.390625 -44.75 C 35.609375 -45.789062 33.929688 -46.519531 32.359375 -46.9375 C 30.796875 -47.363281 29.234375 -47.578125 27.671875 -47.578125 C 24.640625 -47.578125 22.078125 -46.867188 19.984375 -45.453125 C 17.890625 -44.046875 16.304688 -41.929688 15.234375 -39.109375 C 14.171875 -36.285156 13.640625 -32.757812 13.640625 -28.53125 L 13.640625 -22.65625 L 12.703125 -22.65625 C 13.117188 -25.3125 13.992188 -27.59375 15.328125 -29.5 C 16.660156 -31.414062 18.367188 -32.878906 20.453125 -33.890625 C 22.546875 -34.910156 24.875 -35.421875 27.4375 -35.421875 C 30.625 -35.421875 33.441406 -34.660156 35.890625 -33.140625 C 38.347656 -31.628906 40.28125 -29.539062 41.6875 -26.875 C 43.101562 -24.21875 43.8125 -21.164062 43.8125 -17.71875 C 43.8125 -14.164062 43.039062 -10.988281 41.5 -8.1875 C 39.957031 -5.394531 37.8125 -3.203125 35.0625 -1.609375 C 32.320312 -0.015625 29.148438 0.78125 25.546875 0.78125 Z M 25 -7.203125 C 26.882812 -7.203125 28.546875 -7.617188 29.984375 -8.453125 C 31.421875 -9.296875 32.53125 -10.488281 33.3125 -12.03125 C 34.09375 -13.570312 34.484375 -15.335938 34.484375 -17.328125 C 34.484375 -19.359375 34.09375 -21.128906 33.3125 -22.640625 C 32.53125 -24.160156 31.421875 -25.351562 29.984375 -26.21875 C 28.546875 -27.082031 26.882812 -27.515625 25 -27.515625 C 23.125 -27.515625 21.476562 -27.082031 20.0625 -26.21875 C 18.65625 -25.351562 17.546875 -24.160156 16.734375 -22.640625 C 15.921875 -21.128906 15.515625 -19.359375 15.515625 -17.328125 C 15.515625 -15.335938 15.921875 -13.570312 16.734375 -12.03125 C 17.546875 -10.488281 18.65625 -9.296875 20.0625 -8.453125 C 21.476562 -7.617188 23.125 -7.203125 25 -7.203125 Z M 25 -7.203125 "/></g></g></g><g fill="#000000" fill-opacity="1"><g transform="translate(260.585469, 314.853381)"><g><path d="M 10.421875 0 C 8.753906 0 7.539062 -0.375 6.78125 -1.125 C 6.019531 -1.882812 5.640625 -3 5.640625 -4.46875 C 5.640625 -5.351562 5.875 -6.210938 6.34375 -7.046875 C 6.8125 -7.890625 7.492188 -8.78125 8.390625 -9.71875 L 24.140625 -26.484375 C 26.546875 -28.992188 28.269531 -31.28125 29.3125 -33.34375 C 30.351562 -35.40625 30.875 -37.484375 30.875 -39.578125 C 30.875 -42.191406 30.050781 -44.175781 28.40625 -45.53125 C 26.757812 -46.894531 24.367188 -47.578125 21.234375 -47.578125 C 19.460938 -47.578125 17.6875 -47.328125 15.90625 -46.828125 C 14.132812 -46.328125 12.332031 -45.476562 10.5 -44.28125 C 9.5625 -43.65625 8.6875 -43.394531 7.875 -43.5 C 7.0625 -43.601562 6.351562 -43.941406 5.75 -44.515625 C 5.15625 -45.085938 4.753906 -45.789062 4.546875 -46.625 C 4.335938 -47.46875 4.375 -48.316406 4.65625 -49.171875 C 4.945312 -50.035156 5.5625 -50.785156 6.5 -51.421875 C 8.75 -52.929688 11.269531 -54.078125 14.0625 -54.859375 C 16.863281 -55.640625 19.675781 -56.03125 22.5 -56.03125 C 26.46875 -56.03125 29.804688 -55.429688 32.515625 -54.234375 C 35.234375 -53.035156 37.296875 -51.285156 38.703125 -48.984375 C 40.117188 -46.679688 40.828125 -43.882812 40.828125 -40.59375 C 40.828125 -38.40625 40.472656 -36.265625 39.765625 -34.171875 C 39.066406 -32.078125 38 -29.957031 36.5625 -27.8125 C 35.125 -25.675781 33.253906 -23.40625 30.953125 -21 L 16.21875 -5.640625 L 16.21875 -8.3125 L 39.265625 -8.3125 C 40.671875 -8.3125 41.738281 -7.96875 42.46875 -7.28125 C 43.207031 -6.601562 43.578125 -5.585938 43.578125 -4.234375 C 43.578125 -2.867188 43.207031 -1.820312 42.46875 -1.09375 C 41.738281 -0.363281 40.671875 0 39.265625 0 Z M 10.421875 0 "/></g></g></g><g fill="#000000" fill-opacity="1"><g transform="translate(307.603414, 314.853381)"><g><path d="M 23.984375 0.78125 C 21.210938 0.78125 18.390625 0.414062 15.515625 -0.3125 C 12.640625 -1.039062 10.003906 -2.164062 7.609375 -3.6875 C 6.609375 -4.3125 5.9375 -5.050781 5.59375 -5.90625 C 5.257812 -6.769531 5.179688 -7.632812 5.359375 -8.5 C 5.546875 -9.363281 5.941406 -10.09375 6.546875 -10.6875 C 7.148438 -11.289062 7.878906 -11.644531 8.734375 -11.75 C 9.597656 -11.851562 10.550781 -11.617188 11.59375 -11.046875 C 13.53125 -9.953125 15.488281 -9.117188 17.46875 -8.546875 C 19.457031 -7.972656 21.578125 -7.6875 23.828125 -7.6875 C 26.023438 -7.6875 27.90625 -8.078125 29.46875 -8.859375 C 31.03125 -9.640625 32.226562 -10.734375 33.0625 -12.140625 C 33.90625 -13.554688 34.328125 -15.203125 34.328125 -17.078125 C 34.328125 -20.003906 33.4375 -22.367188 31.65625 -24.171875 C 29.882812 -25.972656 27.457031 -26.875 24.375 -26.875 C 22.695312 -26.875 21.078125 -26.597656 19.515625 -26.046875 C 17.953125 -25.503906 16.410156 -24.554688 14.890625 -23.203125 C 14.421875 -22.785156 13.816406 -22.378906 13.078125 -21.984375 C 12.347656 -21.585938 11.566406 -21.390625 10.734375 -21.390625 C 9.429688 -21.390625 8.4375 -21.726562 7.75 -22.40625 C 7.070312 -23.09375 6.734375 -24.035156 6.734375 -25.234375 L 6.734375 -50.859375 C 6.734375 -52.273438 7.113281 -53.359375 7.875 -54.109375 C 8.632812 -54.867188 9.71875 -55.25 11.125 -55.25 L 36.921875 -55.25 C 38.328125 -55.25 39.40625 -54.894531 40.15625 -54.1875 C 40.914062 -53.488281 41.296875 -52.457031 41.296875 -51.09375 C 41.296875 -49.789062 40.914062 -48.773438 40.15625 -48.046875 C 39.40625 -47.316406 38.328125 -46.953125 36.921875 -46.953125 L 16.53125 -46.953125 L 16.53125 -29.390625 L 13.953125 -29.390625 C 15.304688 -31.222656 17.109375 -32.632812 19.359375 -33.625 C 21.609375 -34.613281 24.0625 -35.109375 26.71875 -35.109375 C 30.226562 -35.109375 33.273438 -34.363281 35.859375 -32.875 C 38.441406 -31.382812 40.453125 -29.320312 41.890625 -26.6875 C 43.328125 -24.050781 44.046875 -20.984375 44.046875 -17.484375 C 44.046875 -13.867188 43.234375 -10.691406 41.609375 -7.953125 C 39.992188 -5.210938 37.679688 -3.070312 34.671875 -1.53125 C 31.671875 0.0078125 28.109375 0.78125 23.984375 0.78125 Z M 23.984375 0.78125 "/></g></g></g><g fill="#000000" fill-opacity="1"><g transform="translate(77.058768, 388.353375)"><g><path d="M 23.984375 0.78125 C 21.210938 0.78125 18.390625 0.414062 15.515625 -0.3125 C 12.640625 -1.039062 10.003906 -2.164062 7.609375 -3.6875 C 6.609375 -4.3125 5.9375 -5.050781 5.59375 -5.90625 C 5.257812 -6.769531 5.179688 -7.632812 5.359375 -8.5 C 5.546875 -9.363281 5.941406 -10.09375 6.546875 -10.6875 C 7.148438 -11.289062 7.878906 -11.644531 8.734375 -11.75 C 9.597656 -11.851562 10.550781 -11.617188 11.59375 -11.046875 C 13.53125 -9.953125 15.488281 -9.117188 17.46875 -8.546875 C 19.457031 -7.972656 21.578125 -7.6875 23.828125 -7.6875 C 26.023438 -7.6875 27.90625 -8.078125 29.46875 -8.859375 C 31.03125 -9.640625 32.226562 -10.734375 33.0625 -12.140625 C 33.90625 -13.554688 34.328125 -15.203125 34.328125 -17.078125 C 34.328125 -20.003906 33.4375 -22.367188 31.65625 -24.171875 C 29.882812 -25.972656 27.457031 -26.875 24.375 -26.875 C 22.695312 -26.875 21.078125 -26.597656 19.515625 -26.046875 C 17.953125 -25.503906 16.410156 -24.554688 14.890625 -23.203125 C 14.421875 -22.785156 13.816406 -22.378906 13.078125 -21.984375 C 12.347656 -21.585938 11.566406 -21.390625 10.734375 -21.390625 C 9.429688 -21.390625 8.4375 -21.726562 7.75 -22.40625 C 7.070312 -23.09375 6.734375 -24.035156 6.734375 -25.234375 L 6.734375 -50.859375 C 6.734375 -52.273438 7.113281 -53.359375 7.875 -54.109375 C 8.632812 -54.867188 9.71875 -55.25 11.125 -55.25 L 36.921875 -55.25 C 38.328125 -55.25 39.40625 -54.894531 40.15625 -54.1875 C 40.914062 -53.488281 41.296875 -52.457031 41.296875 -51.09375 C 41.296875 -49.789062 40.914062 -48.773438 40.15625 -48.046875 C 39.40625 -47.316406 38.328125 -46.953125 36.921875 -46.953125 L 16.53125 -46.953125 L 16.53125 -29.390625 L 13.953125 -29.390625 C 15.304688 -31.222656 17.109375 -32.632812 19.359375 -33.625 C 21.609375 -34.613281 24.0625 -35.109375 26.71875 -35.109375 C 30.226562 -35.109375 33.273438 -34.363281 35.859375 -32.875 C 38.441406 -31.382812 40.453125 -29.320312 41.890625 -26.6875 C 43.328125 -24.050781 44.046875 -20.984375 44.046875 -17.484375 C 44.046875 -13.867188 43.234375 -10.691406 41.609375 -7.953125 C 39.992188 -5.210938 37.679688 -3.070312 34.671875 -1.53125 C 31.671875 0.0078125 28.109375 0.78125 23.984375 0.78125 Z M 23.984375 0.78125 "/></g></g></g><g fill="#000000" fill-opacity="1"><g transform="translate(124.076712, 388.353375)"><g/></g></g><g fill="#000000" fill-opacity="1"><g transform="translate(145.313146, 388.353375)"><g><path d="M 7.28125 -26.875 C 6.1875 -26.875 5.328125 -27.175781 4.703125 -27.78125 C 4.078125 -28.382812 3.765625 -29.234375 3.765625 -30.328125 C 3.765625 -31.429688 4.078125 -32.28125 4.703125 -32.875 C 5.328125 -33.476562 6.1875 -33.78125 7.28125 -33.78125 L 39.734375 -33.78125 C 40.878906 -33.78125 41.753906 -33.476562 42.359375 -32.875 C 42.960938 -32.28125 43.265625 -31.429688 43.265625 -30.328125 C 43.265625 -29.234375 42.960938 -28.382812 42.359375 -27.78125 C 41.753906 -27.175781 40.878906 -26.875 39.734375 -26.875 Z M 7.28125 -11.28125 C 6.1875 -11.28125 5.328125 -11.582031 4.703125 -12.1875 C 4.078125 -12.789062 3.765625 -13.640625 3.765625 -14.734375 C 3.765625 -15.828125 4.078125 -16.660156 4.703125 -17.234375 C 5.328125 -17.816406 6.1875 -18.109375 7.28125 -18.109375 L 39.734375 -18.109375 C 40.878906 -18.109375 41.753906 -17.816406 42.359375 -17.234375 C 42.960938 -16.660156 43.265625 -15.828125 43.265625 -14.734375 C 43.265625 -13.585938 42.960938 -12.722656 42.359375 -12.140625 C 41.753906 -11.566406 40.878906 -11.28125 39.734375 -11.28125 Z M 7.28125 -11.28125 "/></g></g></g><g fill="#000000" fill-opacity="1"><g transform="translate(192.331091, 388.353375)"><g/></g></g><g fill="#000000" fill-opacity="1"><g transform="translate(213.567524, 388.353375)"><g><path d="M 17.484375 -15.984375 C 16.484375 -15.984375 15.707031 -16.3125 15.15625 -16.96875 C 14.613281 -17.625 14.34375 -18.5 14.34375 -19.59375 C 14.34375 -21.207031 14.535156 -22.734375 14.921875 -24.171875 C 15.316406 -25.609375 15.957031 -27.054688 16.84375 -28.515625 C 17.738281 -29.984375 18.914062 -31.53125 20.375 -33.15625 C 21.46875 -34.40625 22.34375 -35.515625 23 -36.484375 C 23.65625 -37.453125 24.125 -38.378906 24.40625 -39.265625 C 24.695312 -40.148438 24.84375 -41.066406 24.84375 -42.015625 C 24.84375 -43.734375 24.210938 -45.085938 22.953125 -46.078125 C 21.703125 -47.078125 19.929688 -47.578125 17.640625 -47.578125 C 15.546875 -47.578125 13.648438 -47.300781 11.953125 -46.75 C 10.253906 -46.195312 8.539062 -45.425781 6.8125 -44.4375 C 5.664062 -43.757812 4.632812 -43.457031 3.71875 -43.53125 C 2.800781 -43.613281 2.054688 -43.941406 1.484375 -44.515625 C 0.910156 -45.085938 0.546875 -45.789062 0.390625 -46.625 C 0.234375 -47.46875 0.363281 -48.332031 0.78125 -49.21875 C 1.195312 -50.101562 1.957031 -50.914062 3.0625 -51.65625 C 5.195312 -53.0625 7.648438 -54.140625 10.421875 -54.890625 C 13.191406 -55.648438 15.804688 -56.03125 18.265625 -56.03125 C 21.554688 -56.03125 24.441406 -55.484375 26.921875 -54.390625 C 29.398438 -53.296875 31.332031 -51.78125 32.71875 -49.84375 C 34.101562 -47.914062 34.796875 -45.644531 34.796875 -43.03125 C 34.796875 -41.40625 34.5625 -39.875 34.09375 -38.4375 C 33.625 -37 32.863281 -35.5625 31.8125 -34.125 C 30.769531 -32.695312 29.335938 -31.144531 27.515625 -29.46875 C 25.890625 -28.007812 24.59375 -26.675781 23.625 -25.46875 C 22.664062 -24.269531 21.960938 -23.117188 21.515625 -22.015625 C 21.066406 -20.921875 20.765625 -19.75 20.609375 -18.5 C 20.554688 -17.769531 20.253906 -17.164062 19.703125 -16.6875 C 19.160156 -16.21875 18.421875 -15.984375 17.484375 -15.984375 Z M 17.328125 0.390625 C 15.546875 0.390625 14.117188 -0.15625 13.046875 -1.25 C 11.972656 -2.351562 11.4375 -3.765625 11.4375 -5.484375 C 11.4375 -7.160156 11.972656 -8.53125 13.046875 -9.59375 C 14.117188 -10.664062 15.546875 -11.203125 17.328125 -11.203125 C 19.148438 -11.203125 20.570312 -10.664062 21.59375 -9.59375 C 22.613281 -8.53125 23.125 -7.160156 23.125 -5.484375 C 23.125 -3.765625 22.613281 -2.351562 21.59375 -1.25 C 20.570312 -0.15625 19.148438 0.390625 17.328125 0.390625 Z M 17.328125 0.390625 "/></g></g></g></svg>