<svg xmlns="http://www.w3.org/2000/svg" xmlns:xlink="http://www.w3.org/1999/xlink" width="845" zoomAndPan="magnify" viewBox="0 0 633.75 327.749992" height="437" preserveAspectRatio="xMidYMid meet" version="1.0"><defs><g/><clipPath id="a4a1a031e7"><path d="M 3.101562 0 L 632.617188 0 L 632.617188 324.457031 L 3.101562 324.457031 Z M 3.101562 0 " clip-rule="nonzero"/></clipPath><clipPath id="20c0c5ca1a"><path d="M 362.339844 32.746094 L 551.195312 32.746094 L 551.195312 252.328125 L 362.339844 252.328125 Z M 362.339844 32.746094 " clip-rule="nonzero"/></clipPath><clipPath id="567c496006"><rect x="0" width="190" y="0" height="221"/></clipPath><clipPath id="89e4d8e531"><path d="M 27.167969 168 L 123.84375 168 L 123.84375 237 L 27.167969 237 Z M 27.167969 168 " clip-rule="nonzero"/></clipPath><clipPath id="4c1833218e"><path d="M 494 8 L 609 8 L 609 128 L 494 128 Z M 494 8 " clip-rule="nonzero"/></clipPath><clipPath id="fbb6f847b7"><path d="M 550.414062 127.65625 L 494.8125 48.570312 L 552.441406 8.054688 L 608.042969 87.140625 Z M 550.414062 127.65625 " clip-rule="nonzero"/></clipPath><clipPath id="71aa24dabf"><path d="M 22 10 L 96 10 L 96 105 L 22 105 Z M 22 10 " clip-rule="nonzero"/></clipPath><clipPath id="16173a5c2e"><path d="M 56.414062 119.65625 L 0.8125 40.570312 L 58.441406 0.0546875 L 114.042969 79.140625 Z M 56.414062 119.65625 " clip-rule="nonzero"/></clipPath><clipPath id="f64790bbd9"><path d="M 0.957031 40.769531 L 56.554688 119.859375 L 114.1875 79.34375 L 58.585938 0.253906 Z M 0.957031 40.769531 " clip-rule="nonzero"/></clipPath><clipPath id="0e674e0a13"><path d="M 0.957031 40.769531 L 56.554688 119.859375 L 114.1875 79.34375 L 58.585938 0.253906 Z M 0.957031 40.769531 " clip-rule="nonzero"/></clipPath><clipPath id="8f0f71e7de"><rect x="0" width="115" y="0" height="120"/></clipPath></defs><g clip-path="url(#a4a1a031e7)"><path stroke-linecap="butt" transform="matrix(0.749428, 0, 0, 0.749428, 3.103296, 0)" fill="none" stroke-linejoin="miter" d="M -0.00231343 0 L 840.41961 0 L 840.41961 432.939415 L -0.00231343 432.939415 Z M -0.00231343 0 " stroke="#000000" stroke-width="12" stroke-opacity="1" stroke-miterlimit="4"/></g><path stroke-linecap="butt" transform="matrix(0, 0.749428, -0.749428, 0, 317.086915, 26.190938)" fill="none" stroke-linejoin="miter" d="M 0.000624292 2.497999 L 315.710027 2.497999 " stroke="#000000" stroke-width="5" stroke-opacity="1" stroke-miterlimit="4"/><path fill="#8bc28f" d="M 107.476562 112.890625 C 109.265625 111.226562 111.164062 109.285156 113.179688 107.0625 C 115.453125 104.566406 117.132812 102.746094 118.21875 101.605469 C 122.246094 97.386719 128.9375 97.222656 133.167969 101.242188 C 137.398438 105.261719 137.5625 111.941406 133.535156 116.160156 C 132.566406 117.175781 131.007812 118.867188 128.851562 121.242188 C 126.441406 123.894531 124.128906 126.253906 121.914062 128.316406 C 117.644531 132.296875 110.953125 132.066406 106.964844 127.804688 C 102.980469 123.546875 103.210938 116.867188 107.476562 112.890625 Z M 107.476562 112.890625 " fill-opacity="1" fill-rule="nonzero"/><path fill="#8bc28f" d="M 143.5625 112.457031 C 144.292969 110.90625 145.140625 109.238281 146.101562 107.457031 C 148.875 102.324219 155.289062 100.410156 160.429688 103.175781 C 165.570312 105.945312 167.492188 112.34375 164.71875 117.476562 C 163.941406 118.914062 163.269531 120.230469 162.707031 121.433594 C 160.222656 126.707031 153.921875 128.976562 148.636719 126.496094 C 143.351562 124.019531 141.078125 117.734375 143.5625 112.457031 Z M 143.5625 112.457031 " fill-opacity="1" fill-rule="nonzero"/><path fill="#8bc28f" d="M 149.480469 152.386719 C 148.78125 153.878906 147.945312 155.5625 146.976562 157.449219 C 145.988281 159.359375 144.957031 161.257812 143.878906 163.140625 C 140.976562 168.199219 134.515625 169.953125 129.445312 167.054688 C 124.378906 164.160156 122.621094 157.710938 125.523438 152.652344 C 126.445312 151.046875 127.324219 149.429688 128.164062 147.796875 C 129.019531 146.136719 129.742188 144.675781 130.339844 143.414062 C 132.820312 138.136719 139.121094 135.871094 144.40625 138.347656 C 149.691406 140.824219 151.964844 147.109375 149.480469 152.386719 Z M 149.480469 152.386719 " fill-opacity="1" fill-rule="nonzero"/><path fill="#8bc28f" d="M 191.296875 135.402344 C 189.90625 137.847656 188.070312 140.871094 185.792969 144.46875 C 183.554688 148.003906 181.484375 151.191406 179.582031 154.027344 L 176.804688 158.160156 C 173.554688 163.003906 166.988281 164.300781 162.132812 161.058594 C 157.28125 157.8125 155.984375 151.257812 159.234375 146.414062 L 162.007812 142.28125 C 163.804688 139.601562 165.773438 136.574219 167.914062 133.195312 C 170.011719 129.878906 171.671875 127.144531 172.898438 124.988281 C 175.78125 119.917969 182.234375 118.140625 187.3125 121.015625 C 192.394531 123.890625 194.175781 130.332031 191.296875 135.402344 Z M 191.296875 135.402344 " fill-opacity="1" fill-rule="nonzero"/><path fill="#8bc28f" d="M 211.40625 70.546875 C 209.960938 73.355469 208.542969 75.859375 207.148438 78.0625 C 205.988281 79.890625 204.847656 81.769531 203.722656 83.703125 L 201.9375 86.773438 C 199.007812 91.816406 192.535156 93.53125 187.484375 90.605469 C 182.433594 87.679688 180.714844 81.21875 183.644531 76.179688 L 185.433594 73.109375 C 186.6875 70.945312 187.96875 68.839844 189.265625 66.789062 C 190.328125 65.113281 191.4375 63.148438 192.597656 60.898438 C 195.265625 55.714844 201.644531 53.671875 206.835938 56.335938 C 212.03125 59.003906 214.078125 65.363281 211.40625 70.546875 Z M 211.40625 70.546875 " fill-opacity="1" fill-rule="nonzero"/><path fill="#8bc28f" d="M 170.039062 64.320312 C 168.941406 66.960938 167.070312 70.332031 164.433594 74.429688 L 160.984375 79.789062 C 157.828125 84.691406 151.285156 86.113281 146.371094 82.964844 C 141.457031 79.816406 140.03125 73.285156 143.1875 68.382812 L 146.636719 63.023438 C 148.597656 59.976562 149.886719 57.710938 150.507812 56.222656 C 152.746094 50.839844 158.9375 48.289062 164.328125 50.527344 C 169.722656 52.761719 172.28125 58.9375 170.039062 64.320312 Z M 170.039062 64.320312 " fill-opacity="1" fill-rule="nonzero"/><path fill="#8bc28f" d="M 233.003906 121.082031 C 231.042969 123.339844 228.855469 126.214844 226.441406 129.707031 C 223.886719 133.398438 222.117188 136.027344 221.125 137.589844 C 218.003906 142.519531 211.472656 143.988281 206.535156 140.875 C 201.597656 137.761719 200.125 131.246094 203.246094 126.316406 C 204.390625 124.507812 206.320312 121.640625 209.035156 117.714844 C 211.890625 113.59375 214.546875 110.109375 217.007812 107.269531 C 220.832031 102.863281 227.507812 102.382812 231.925781 106.195312 C 236.34375 110.007812 236.824219 116.671875 233.003906 121.082031 Z M 233.003906 121.082031 " fill-opacity="1" fill-rule="nonzero"/><path fill="#8bc28f" d="M 204.820312 183.371094 C 204.101562 184.273438 203.457031 185.257812 202.882812 186.320312 C 200.109375 191.449219 193.695312 193.367188 188.554688 190.601562 C 183.414062 187.832031 181.492188 181.429688 184.265625 176.300781 C 185.429688 174.148438 186.757812 172.132812 188.246094 170.257812 C 191.871094 165.691406 198.523438 164.921875 203.101562 168.542969 C 207.679688 172.164062 208.449219 178.800781 204.820312 183.371094 Z M 204.820312 183.371094 " fill-opacity="1" fill-rule="nonzero"/><path fill="#8bc28f" d="M 164.644531 190.535156 C 163.257812 192.410156 162.195312 193.929688 161.457031 195.09375 C 160.671875 196.335938 159.75 197.890625 158.6875 199.761719 L 156.96875 202.78125 C 154.085938 207.851562 147.632812 209.632812 142.550781 206.757812 C 137.472656 203.882812 135.691406 197.441406 138.570312 192.371094 L 140.289062 189.347656 C 141.515625 187.1875 142.613281 185.34375 143.578125 183.820312 C 144.589844 182.21875 145.945312 180.277344 147.636719 177.992188 C 151.109375 173.304688 157.730469 172.3125 162.425781 175.777344 C 167.125 179.242188 168.117188 185.851562 164.644531 190.535156 Z M 164.644531 190.535156 " fill-opacity="1" fill-rule="nonzero"/><path fill="#8bc28f" d="M 109 155.1875 C 107.75 157.164062 106.984375 158.371094 106.703125 158.816406 C 105.941406 160.019531 104.796875 161.6875 103.269531 163.828125 L 101.148438 166.796875 C 97.761719 171.546875 91.15625 172.652344 86.402344 169.269531 C 81.644531 165.890625 80.535156 159.300781 83.921875 154.550781 L 86.042969 151.582031 C 87.34375 149.761719 88.269531 148.414062 88.820312 147.542969 C 89.851562 145.914062 90.621094 144.703125 91.121094 143.914062 C 94.238281 138.984375 100.769531 137.515625 105.707031 140.628906 C 110.644531 143.742188 112.121094 150.257812 109 155.1875 Z M 109 155.1875 " fill-opacity="1" fill-rule="nonzero"/><path fill="#8bc28f" d="M 258.027344 156.464844 C 257.003906 157.898438 255.632812 160.285156 253.914062 163.625 C 251.953125 167.425781 250.476562 170.289062 249.480469 172.207031 C 246.789062 177.382812 240.40625 179.402344 235.222656 176.71875 C 230.039062 174.035156 228.015625 167.664062 230.703125 162.492188 C 231.6875 160.59375 233.15625 157.753906 235.101562 153.972656 C 237.289062 149.730469 239.1875 146.480469 240.800781 144.21875 C 244.191406 139.472656 250.792969 138.363281 255.550781 141.746094 C 260.308594 145.128906 261.417969 151.71875 258.027344 156.464844 Z M 258.027344 156.464844 " fill-opacity="1" fill-rule="nonzero"/><path fill="#8bc28f" d="M 135.351562 73.789062 C 134.367188 74.820312 133.328125 76.105469 132.226562 77.644531 L 130.140625 80.566406 C 126.753906 85.316406 120.148438 86.421875 115.390625 83.039062 C 110.636719 79.660156 109.527344 73.066406 112.914062 68.320312 L 115 65.398438 C 116.683594 63.042969 118.359375 60.988281 120.035156 59.234375 C 124.0625 55.011719 130.757812 54.847656 134.984375 58.867188 C 139.214844 62.886719 139.378906 69.566406 135.351562 73.789062 Z M 135.351562 73.789062 " fill-opacity="1" fill-rule="nonzero"/><path fill="#8bc28f" d="M 96.0625 110.914062 C 94.113281 114.578125 92.332031 117.949219 90.710938 121.035156 C 79.308594 142.757812 77.828125 145.574219 86.273438 129.488281 C 83.5625 134.652344 77.171875 136.644531 72 133.9375 C 66.824219 131.234375 64.828125 124.855469 67.539062 119.695312 C 78.640625 98.542969 80.121094 95.726562 71.976562 111.242188 C 73.613281 108.121094 75.414062 104.714844 77.378906 101.019531 C 80.117188 95.871094 86.519531 93.914062 91.679688 96.644531 C 96.835938 99.378906 98.800781 105.765625 96.0625 110.914062 Z M 96.0625 110.914062 " fill-opacity="1" fill-rule="nonzero"/><path fill="#8bc28f" d="M 238.347656 211.894531 C 237.5625 213.386719 236.972656 214.78125 236.570312 216.085938 C 235.824219 218.523438 234.867188 220.953125 233.703125 223.378906 L 232.296875 226.300781 C 229.769531 231.558594 223.453125 233.773438 218.1875 231.253906 C 212.921875 228.734375 210.699219 222.429688 213.226562 217.175781 L 214.632812 214.25 C 215.339844 212.777344 215.910156 211.328125 216.347656 209.90625 C 217.132812 207.347656 218.222656 204.746094 219.609375 202.101562 C 222.320312 196.9375 228.710938 194.945312 233.886719 197.648438 C 239.058594 200.355469 241.054688 206.734375 238.347656 211.894531 Z M 238.347656 211.894531 " fill-opacity="1" fill-rule="nonzero"/><path fill="#8bc28f" d="M 262.316406 66.589844 C 261.722656 67.335938 261.148438 68.296875 260.597656 69.472656 C 259.730469 71.308594 258.769531 73.425781 257.707031 75.824219 L 256.066406 79.53125 C 253.707031 84.863281 247.464844 87.28125 242.121094 84.925781 C 236.777344 82.570312 234.359375 76.339844 236.71875 71.007812 L 238.359375 67.300781 C 239.484375 64.753906 240.515625 62.484375 241.453125 60.496094 C 242.699219 57.84375 244.128906 55.503906 245.742188 53.476562 C 249.367188 48.910156 256.019531 48.140625 260.597656 51.761719 C 265.175781 55.382812 265.945312 62.019531 262.316406 66.589844 Z M 262.316406 66.589844 " fill-opacity="1" fill-rule="nonzero"/><path fill="#8bc28f" d="M 190.773438 220.992188 C 187.03125 227.914062 186.558594 228.789062 189.351562 223.621094 C 189.699219 222.976562 189.148438 224 187.695312 226.683594 L 187.695312 226.6875 L 185.921875 229.964844 C 183.148438 235.09375 176.734375 237.011719 171.59375 234.242188 C 166.453125 231.476562 164.535156 225.074219 167.308594 219.945312 L 169.082031 216.664062 L 169.078125 216.664062 C 168.808594 217.167969 169.359375 216.144531 170.734375 213.601562 C 174.554688 206.539062 175.027344 205.660156 172.15625 210.972656 C 174.929688 205.84375 181.34375 203.925781 186.484375 206.695312 C 191.625 209.460938 193.542969 215.863281 190.773438 220.992188 Z M 190.773438 220.992188 " fill-opacity="1" fill-rule="nonzero"/><path fill="#8bc28f" d="M 280.125 193.035156 C 278.355469 195.308594 276.707031 197.648438 275.183594 200.054688 L 272.621094 204.101562 C 269.503906 209.027344 262.972656 210.5 258.035156 207.386719 C 253.097656 204.273438 251.621094 197.753906 254.742188 192.828125 L 257.304688 188.78125 C 259.195312 185.792969 261.238281 182.890625 263.433594 180.074219 C 267.019531 175.476562 273.664062 174.648438 278.273438 178.226562 C 282.882812 181.804688 283.710938 188.4375 280.125 193.035156 Z M 280.125 193.035156 " fill-opacity="1" fill-rule="nonzero"/><path fill="#8bc28f" d="M 283.027344 102.890625 C 282.128906 106.617188 281.207031 109.882812 280.257812 112.695312 C 279.265625 115.636719 278.992188 116.457031 279.429688 115.152344 C 278.890625 116.753906 278.378906 118.277344 277.890625 119.71875 C 276.03125 125.246094 270.035156 128.21875 264.496094 126.359375 C 258.960938 124.503906 255.984375 118.519531 257.84375 112.996094 C 258.332031 111.550781 258.84375 110.027344 259.382812 108.425781 C 260.359375 105.523438 260.636719 104.703125 260.210938 105.96875 C 260.960938 103.746094 261.710938 101.074219 262.460938 97.953125 C 263.828125 92.285156 269.539062 88.796875 275.21875 90.160156 C 280.898438 91.523438 284.390625 97.222656 283.027344 102.890625 Z M 283.027344 102.890625 " fill-opacity="1" fill-rule="nonzero"/><g clip-path="url(#20c0c5ca1a)"><g transform="matrix(1, 0, 0, 1, 362, 32)"><g clip-path="url(#567c496006)"><path fill="#8bc28f" d="M 65.074219 43.636719 C 63.410156 45.421875 61.46875 47.324219 59.25 49.339844 C 56.75 51.613281 54.929688 53.289062 53.792969 54.375 C 49.570312 58.402344 49.40625 65.097656 53.425781 69.328125 C 57.445312 73.558594 64.125 73.722656 68.347656 69.695312 C 69.359375 68.726562 71.054688 67.164062 73.425781 65.007812 C 76.082031 62.597656 78.4375 60.285156 80.503906 58.070312 C 84.480469 53.804688 84.25 47.109375 79.992188 43.125 C 75.730469 39.140625 69.054688 39.367188 65.074219 43.636719 Z M 65.074219 43.636719 " fill-opacity="1" fill-rule="nonzero"/><path fill="#8bc28f" d="M 64.644531 79.71875 C 63.089844 80.453125 61.421875 81.300781 59.640625 82.261719 C 54.511719 85.035156 52.59375 91.449219 55.363281 96.589844 C 58.128906 101.730469 64.53125 103.648438 69.660156 100.878906 C 71.097656 100.101562 72.417969 99.429688 73.617188 98.863281 C 78.894531 96.378906 81.160156 90.082031 78.683594 84.796875 C 76.203125 79.507812 69.917969 77.238281 64.644531 79.71875 Z M 64.644531 79.71875 " fill-opacity="1" fill-rule="nonzero"/><path fill="#8bc28f" d="M 104.574219 85.640625 C 106.0625 84.941406 107.75 84.105469 109.632812 83.132812 C 111.546875 82.148438 113.441406 81.117188 115.324219 80.035156 C 120.382812 77.136719 122.136719 70.675781 119.242188 65.605469 C 116.347656 60.535156 109.898438 58.777344 104.839844 61.679688 C 103.230469 62.601562 101.613281 63.484375 99.984375 64.324219 C 98.324219 65.179688 96.863281 65.902344 95.597656 66.496094 C 90.324219 68.980469 88.054688 75.28125 90.53125 80.566406 C 93.011719 85.851562 99.296875 88.125 104.574219 85.640625 Z M 104.574219 85.640625 " fill-opacity="1" fill-rule="nonzero"/><path fill="#8bc28f" d="M 87.585938 127.453125 C 90.035156 126.0625 93.058594 124.230469 96.65625 121.953125 C 100.191406 119.714844 103.375 117.640625 106.210938 115.738281 L 110.347656 112.964844 C 115.1875 109.714844 116.484375 103.144531 113.242188 98.292969 C 110 93.441406 103.445312 92.140625 98.601562 95.390625 L 94.464844 98.167969 C 91.785156 99.964844 88.757812 101.933594 85.382812 104.070312 L 85.378906 104.070312 C 82.066406 106.171875 79.332031 107.832031 77.175781 109.058594 C 72.105469 111.9375 70.324219 118.390625 73.203125 123.472656 C 76.078125 128.554688 82.519531 130.335938 87.585938 127.453125 Z M 87.585938 127.453125 " fill-opacity="1" fill-rule="nonzero"/><path fill="#8bc28f" d="M 22.734375 147.566406 C 25.539062 146.121094 28.042969 144.699219 30.246094 143.304688 C 32.074219 142.148438 33.957031 141.007812 35.890625 139.882812 L 38.960938 138.097656 C 44 135.164062 45.714844 128.695312 42.789062 123.640625 C 39.863281 118.589844 33.40625 116.871094 28.363281 119.804688 L 25.292969 121.589844 C 23.132812 122.847656 21.027344 124.125 18.972656 125.425781 C 17.296875 126.488281 15.335938 127.597656 13.082031 128.753906 C 7.898438 131.425781 5.859375 137.800781 8.523438 142.996094 C 11.1875 148.191406 17.550781 150.234375 22.734375 147.566406 Z M 22.734375 147.566406 " fill-opacity="1" fill-rule="nonzero"/><path fill="#8bc28f" d="M 16.507812 106.199219 C 19.144531 105.097656 22.515625 103.230469 26.613281 100.59375 L 31.972656 97.144531 C 36.878906 93.988281 38.300781 87.445312 35.152344 82.53125 C 32 77.617188 25.472656 76.191406 20.566406 79.347656 L 15.207031 82.796875 C 12.160156 84.757812 9.894531 86.046875 8.410156 86.664062 C 3.027344 88.90625 0.476562 95.09375 2.710938 100.488281 C 4.949219 105.882812 11.125 108.4375 16.507812 106.199219 Z M 16.507812 106.199219 " fill-opacity="1" fill-rule="nonzero"/><path fill="#8bc28f" d="M 73.265625 169.164062 C 75.527344 167.203125 78.402344 165.015625 81.894531 162.601562 C 85.585938 160.046875 88.210938 158.273438 89.777344 157.285156 C 94.703125 154.164062 96.175781 147.632812 93.0625 142.695312 C 89.949219 137.757812 83.429688 136.285156 78.503906 139.402344 C 76.695312 140.546875 73.828125 142.480469 69.902344 145.195312 C 65.777344 148.046875 62.296875 150.707031 59.457031 153.167969 C 55.046875 156.988281 54.566406 163.667969 58.378906 168.085938 C 62.195312 172.5 68.859375 172.984375 73.265625 169.164062 Z M 73.265625 169.164062 " fill-opacity="1" fill-rule="nonzero"/><path fill="#8bc28f" d="M 135.554688 140.980469 C 136.457031 140.261719 137.441406 139.617188 138.507812 139.039062 C 143.636719 136.269531 145.550781 129.851562 142.785156 124.710938 C 140.019531 119.574219 133.617188 117.652344 128.488281 120.425781 C 126.332031 121.589844 124.316406 122.914062 122.445312 124.402344 C 117.875 128.03125 117.109375 134.683594 120.730469 139.261719 C 124.351562 143.835938 130.988281 144.605469 135.554688 140.980469 Z M 135.554688 140.980469 " fill-opacity="1" fill-rule="nonzero"/><path fill="#8bc28f" d="M 142.722656 100.804688 C 144.59375 99.417969 146.113281 98.355469 147.28125 97.617188 C 148.519531 96.832031 150.078125 95.90625 151.945312 94.84375 L 154.96875 93.128906 C 160.039062 90.246094 161.816406 83.792969 158.941406 78.710938 C 156.066406 73.632812 149.625 71.847656 144.554688 74.730469 L 141.535156 76.449219 C 139.371094 77.675781 137.53125 78.773438 136.007812 79.738281 C 134.40625 80.75 132.460938 82.101562 130.175781 83.796875 C 125.488281 87.269531 124.5 93.890625 127.960938 98.585938 C 131.425781 103.28125 138.035156 104.277344 142.722656 100.804688 Z M 142.722656 100.804688 " fill-opacity="1" fill-rule="nonzero"/><path fill="#8bc28f" d="M 107.371094 45.160156 C 109.347656 43.90625 110.558594 43.140625 111.003906 42.859375 C 112.203125 42.101562 113.875 40.957031 116.015625 39.429688 L 118.984375 37.308594 C 123.730469 33.921875 124.839844 27.316406 121.457031 22.558594 C 118.074219 17.804688 111.484375 16.695312 106.738281 20.082031 L 103.765625 22.203125 C 101.945312 23.503906 100.601562 24.429688 99.726562 24.980469 C 98.097656 26.011719 96.886719 26.777344 96.097656 27.277344 C 91.171875 30.398438 89.699219 36.929688 92.8125 41.867188 C 95.925781 46.804688 102.445312 48.277344 107.371094 45.160156 Z M 107.371094 45.160156 " fill-opacity="1" fill-rule="nonzero"/><path fill="#8bc28f" d="M 108.648438 194.1875 C 110.082031 193.164062 112.46875 191.792969 115.808594 190.070312 C 119.613281 188.113281 122.472656 186.636719 124.394531 185.636719 C 129.566406 182.949219 131.585938 176.566406 128.902344 171.382812 C 126.222656 166.195312 119.851562 164.171875 114.675781 166.859375 C 112.777344 167.847656 109.941406 169.3125 106.160156 171.261719 C 101.917969 173.445312 98.664062 175.347656 96.402344 176.960938 C 91.65625 180.351562 90.550781 186.953125 93.929688 191.710938 C 97.3125 196.46875 103.902344 197.574219 108.648438 194.1875 Z M 108.648438 194.1875 " fill-opacity="1" fill-rule="nonzero"/><path fill="#8bc28f" d="M 25.972656 71.511719 C 27.003906 70.527344 28.289062 69.484375 29.832031 68.386719 L 32.753906 66.300781 C 37.5 62.910156 38.605469 56.308594 35.226562 51.550781 C 31.84375 46.792969 25.253906 45.683594 20.507812 49.074219 L 17.585938 51.160156 C 15.230469 52.839844 13.175781 54.519531 11.417969 56.195312 C 7.195312 60.222656 7.035156 66.914062 11.050781 71.144531 C 15.070312 75.375 21.75 75.539062 25.972656 71.511719 Z M 25.972656 71.511719 " fill-opacity="1" fill-rule="nonzero"/><path fill="#8bc28f" d="M 63.101562 32.222656 C 66.761719 30.273438 70.136719 28.488281 73.222656 26.871094 C 94.941406 15.46875 97.761719 13.988281 81.675781 22.433594 C 86.835938 19.722656 88.828125 13.332031 86.125 8.15625 C 83.421875 2.984375 77.042969 0.988281 71.878906 3.699219 C 50.730469 14.800781 47.914062 16.28125 63.425781 8.136719 C 60.308594 9.773438 56.902344 11.574219 53.207031 13.539062 C 48.058594 16.277344 46.097656 22.679688 48.832031 27.835938 C 51.5625 32.996094 57.953125 34.957031 63.101562 32.222656 Z M 63.101562 32.222656 " fill-opacity="1" fill-rule="nonzero"/><path fill="#8bc28f" d="M 164.082031 174.503906 C 165.570312 173.722656 166.96875 173.132812 168.273438 172.730469 C 170.707031 171.984375 173.140625 171.027344 175.5625 169.859375 L 178.488281 168.457031 C 183.742188 165.929688 185.960938 159.613281 183.441406 154.347656 C 180.917969 149.082031 174.617188 146.859375 169.359375 149.386719 L 166.4375 150.789062 C 164.964844 151.5 163.515625 152.070312 162.089844 152.507812 C 159.535156 153.292969 156.933594 154.378906 154.285156 155.769531 C 149.121094 158.480469 147.128906 164.871094 149.835938 170.046875 C 152.539062 175.21875 158.917969 177.214844 164.082031 174.503906 Z M 164.082031 174.503906 " fill-opacity="1" fill-rule="nonzero"/><path fill="#8bc28f" d="M 18.773438 198.476562 C 19.523438 197.878906 20.484375 197.308594 21.65625 196.753906 C 23.496094 195.890625 25.613281 194.925781 28.007812 193.867188 L 31.71875 192.226562 C 37.050781 189.867188 39.464844 183.625 37.109375 178.28125 C 34.757812 172.9375 28.527344 170.519531 23.195312 172.878906 L 19.484375 174.519531 C 16.9375 175.644531 14.671875 176.675781 12.683594 177.609375 C 10.03125 178.859375 7.691406 180.289062 5.664062 181.898438 C 1.09375 185.527344 0.328125 192.179688 3.949219 196.757812 C 7.570312 201.332031 14.207031 202.101562 18.773438 198.476562 Z M 18.773438 198.476562 " fill-opacity="1" fill-rule="nonzero"/><path fill="#8bc28f" d="M 173.175781 126.929688 C 180.097656 123.191406 180.976562 122.71875 175.808594 125.507812 C 175.164062 125.859375 176.183594 125.304688 178.871094 123.855469 L 182.152344 122.082031 C 187.28125 119.308594 189.195312 112.894531 186.429688 107.753906 C 183.664062 102.613281 177.261719 100.695312 172.128906 103.464844 L 168.851562 105.238281 C 169.351562 104.96875 168.332031 105.519531 165.789062 106.894531 C 158.722656 110.710938 157.847656 111.1875 163.15625 108.316406 C 158.027344 111.089844 156.113281 117.503906 158.878906 122.644531 C 161.644531 127.785156 168.046875 129.703125 173.175781 126.929688 Z M 173.175781 126.929688 " fill-opacity="1" fill-rule="nonzero"/><path fill="#8bc28f" d="M 145.222656 216.285156 C 147.496094 214.511719 149.835938 212.867188 152.242188 211.34375 L 156.285156 208.78125 C 161.214844 205.660156 162.683594 199.128906 159.570312 194.191406 C 156.457031 189.253906 149.9375 187.78125 145.011719 190.902344 L 140.964844 193.460938 C 137.980469 195.355469 135.078125 197.398438 132.261719 199.59375 C 127.660156 203.179688 126.832031 209.824219 130.414062 214.433594 C 133.992188 219.042969 140.621094 219.871094 145.222656 216.285156 Z M 145.222656 216.285156 " fill-opacity="1" fill-rule="nonzero"/><path fill="#8bc28f" d="M 55.074219 219.183594 C 58.800781 218.285156 62.070312 217.363281 64.878906 216.417969 C 67.824219 215.425781 68.640625 215.148438 67.339844 215.589844 C 68.9375 215.050781 70.460938 214.539062 71.90625 214.050781 C 77.429688 212.1875 80.402344 206.191406 78.546875 200.65625 C 76.691406 195.121094 70.707031 192.140625 65.179688 194.003906 C 63.734375 194.488281 62.214844 195.003906 60.613281 195.542969 C 57.710938 196.519531 56.890625 196.796875 58.15625 196.371094 C 55.933594 197.117188 53.257812 197.867188 50.136719 198.621094 C 44.472656 199.988281 40.984375 205.699219 42.347656 211.378906 C 43.710938 217.054688 49.410156 220.550781 55.074219 219.183594 Z M 55.074219 219.183594 " fill-opacity="1" fill-rule="nonzero"/></g></g></g><g clip-path="url(#89e4d8e531)"><path fill="#dfb0b0" d="M 80.039062 234.125 C 75.609375 234.089844 70.738281 233.636719 66.203125 233.804688 C 61.390625 233.988281 56.785156 235.597656 52.058594 236.355469 C 43.726562 237.511719 36.109375 231.941406 31.660156 225.316406 C 28.386719 220.621094 27.171875 214.757812 27.824219 209.082031 C 27.941406 207.183594 28.722656 205.515625 29.425781 203.828125 C 30.363281 201.5625 31.40625 199.34375 32.933594 197.398438 C 37.945312 191.304688 45.035156 187.480469 51.015625 182.460938 C 51.601562 182 52.007812 181.394531 52.351562 180.734375 C 54.21875 176.878906 56.152344 172.683594 60.25 170.78125 C 66.925781 167.066406 75.679688 168.136719 81.386719 173.234375 C 82.808594 174.53125 83.996094 176.054688 85.4375 177.324219 C 89.59375 181.1875 93.703125 185.890625 99.484375 187.117188 C 105.605469 187.648438 108.789062 183.089844 115.351562 185.160156 C 121.699219 186.835938 123.847656 194.234375 123.570312 200.136719 C 123.097656 205.480469 120.957031 210.5625 118.09375 215.046875 C 108.800781 228.402344 96.195312 234.417969 80.039062 234.125 Z M 80.039062 234.125 " fill-opacity="1" fill-rule="nonzero"/></g><g clip-path="url(#4c1833218e)"><g clip-path="url(#fbb6f847b7)"><g transform="matrix(1, 0, 0, 1, 494, 8)"><g clip-path="url(#8f0f71e7de)"><g clip-path="url(#71aa24dabf)"><g clip-path="url(#16173a5c2e)"><g clip-path="url(#f64790bbd9)"><g clip-path="url(#0e674e0a13)"><path fill="#dfb0b0" d="M 86.222656 45.453125 C 83.648438 41.851562 80.472656 38.125 78.003906 34.320312 C 75.386719 30.273438 74.058594 25.582031 71.957031 21.28125 C 68.109375 13.796875 59.171875 10.769531 51.195312 10.945312 C 45.472656 10.964844 39.976562 13.34375 35.707031 17.136719 C 34.222656 18.328125 33.308594 19.925781 32.328125 21.472656 C 31.015625 23.539062 29.800781 25.671875 29.085938 28.039062 C 26.988281 35.644531 27.933594 43.644531 27.269531 51.421875 C 27.226562 52.167969 26.964844 52.847656 26.621094 53.507812 C 24.542969 57.25 22.222656 61.25 23.027344 65.695312 C 23.824219 73.292969 29.734375 79.839844 37.183594 81.574219 C 39.066406 81.992188 40.992188 82.085938 42.863281 82.535156 C 48.414062 83.714844 54.625 84.371094 58.953125 88.394531 C 62.90625 93.097656 61.007812 98.324219 66.476562 102.5 C 71.5 106.730469 78.789062 104.230469 83.453125 100.609375 C 87.554688 97.152344 90.480469 92.476562 92.503906 87.554688 C 98.082031 72.273438 95.757812 58.5 86.222656 45.453125 Z M 86.222656 45.453125 " fill-opacity="1" fill-rule="nonzero"/></g></g></g></g></g></g></g></g><g fill="#000000" fill-opacity="1"><g transform="translate(11.68707, 302.876298)"><g><path d="M 18.1875 0.453125 C 14.894531 0.453125 12.070312 -0.210938 9.71875 -1.546875 C 7.375 -2.878906 5.570312 -4.765625 4.3125 -7.203125 C 3.050781 -9.648438 2.421875 -12.535156 2.421875 -15.859375 C 2.421875 -18.347656 2.78125 -20.585938 3.5 -22.578125 C 4.21875 -24.566406 5.25 -26.269531 6.59375 -27.6875 C 7.945312 -29.113281 9.601562 -30.207031 11.5625 -30.96875 C 13.53125 -31.738281 15.738281 -32.125 18.1875 -32.125 C 19.84375 -32.125 21.460938 -31.910156 23.046875 -31.484375 C 24.628906 -31.066406 26.019531 -30.46875 27.21875 -29.6875 C 27.851562 -29.300781 28.273438 -28.832031 28.484375 -28.28125 C 28.691406 -27.726562 28.734375 -27.1875 28.609375 -26.65625 C 28.492188 -26.132812 28.25 -25.691406 27.875 -25.328125 C 27.5 -24.972656 27.035156 -24.769531 26.484375 -24.71875 C 25.929688 -24.675781 25.320312 -24.867188 24.65625 -25.296875 C 23.726562 -25.890625 22.722656 -26.320312 21.640625 -26.59375 C 20.566406 -26.863281 19.476562 -27 18.375 -27 C 16.25 -27 14.453125 -26.5625 12.984375 -25.6875 C 11.515625 -24.820312 10.40625 -23.566406 9.65625 -21.921875 C 8.90625 -20.273438 8.53125 -18.253906 8.53125 -15.859375 C 8.53125 -13.492188 8.90625 -11.472656 9.65625 -9.796875 C 10.40625 -8.117188 11.515625 -6.84375 12.984375 -5.96875 C 14.453125 -5.101562 16.25 -4.671875 18.375 -4.671875 C 19.507812 -4.671875 20.628906 -4.8125 21.734375 -5.09375 C 22.847656 -5.382812 23.898438 -5.828125 24.890625 -6.421875 C 25.546875 -6.816406 26.132812 -6.988281 26.65625 -6.9375 C 27.1875 -6.894531 27.628906 -6.707031 27.984375 -6.375 C 28.347656 -6.050781 28.585938 -5.640625 28.703125 -5.140625 C 28.828125 -4.648438 28.796875 -4.140625 28.609375 -3.609375 C 28.429688 -3.085938 28.070312 -2.632812 27.53125 -2.25 C 26.332031 -1.375 24.898438 -0.703125 23.234375 -0.234375 C 21.578125 0.222656 19.894531 0.453125 18.1875 0.453125 Z M 18.1875 0.453125 "/></g></g></g><g fill="#000000" fill-opacity="1"><g transform="translate(270.256165, 307.196662)"><g><path d="M 11.734375 0.296875 C 9.609375 0.296875 7.785156 -0.132812 6.265625 -1 C 4.753906 -1.863281 3.59375 -3.082031 2.78125 -4.65625 C 1.96875 -6.226562 1.5625 -8.085938 1.5625 -10.234375 C 1.5625 -11.835938 1.789062 -13.28125 2.25 -14.5625 C 2.71875 -15.84375 3.382812 -16.941406 4.25 -17.859375 C 5.125 -18.785156 6.191406 -19.492188 7.453125 -19.984375 C 8.722656 -20.472656 10.148438 -20.71875 11.734375 -20.71875 C 12.796875 -20.71875 13.835938 -20.582031 14.859375 -20.3125 C 15.890625 -20.039062 16.789062 -19.65625 17.5625 -19.15625 C 17.96875 -18.90625 18.238281 -18.597656 18.375 -18.234375 C 18.507812 -17.878906 18.535156 -17.53125 18.453125 -17.1875 C 18.378906 -16.851562 18.222656 -16.570312 17.984375 -16.34375 C 17.742188 -16.113281 17.441406 -15.984375 17.078125 -15.953125 C 16.722656 -15.921875 16.332031 -16.039062 15.90625 -16.3125 C 15.3125 -16.695312 14.664062 -16.976562 13.96875 -17.15625 C 13.269531 -17.332031 12.566406 -17.421875 11.859375 -17.421875 C 10.484375 -17.421875 9.320312 -17.140625 8.375 -16.578125 C 7.425781 -16.015625 6.707031 -15.203125 6.21875 -14.140625 C 5.738281 -13.078125 5.5 -11.773438 5.5 -10.234375 C 5.5 -8.703125 5.738281 -7.394531 6.21875 -6.3125 C 6.707031 -5.238281 7.425781 -4.421875 8.375 -3.859375 C 9.320312 -3.296875 10.484375 -3.015625 11.859375 -3.015625 C 12.585938 -3.015625 13.304688 -3.101562 14.015625 -3.28125 C 14.734375 -3.46875 15.414062 -3.753906 16.0625 -4.140625 C 16.476562 -4.390625 16.851562 -4.5 17.1875 -4.46875 C 17.53125 -4.445312 17.816406 -4.328125 18.046875 -4.109375 C 18.285156 -3.898438 18.441406 -3.632812 18.515625 -3.3125 C 18.597656 -3 18.582031 -2.671875 18.46875 -2.328125 C 18.351562 -1.992188 18.117188 -1.703125 17.765625 -1.453125 C 16.992188 -0.890625 16.070312 -0.457031 15 -0.15625 C 13.925781 0.144531 12.835938 0.296875 11.734375 0.296875 Z M 11.734375 0.296875 "/></g></g></g><g fill="#000000" fill-opacity="1"><g transform="translate(288.949252, 307.196662)"><g><path d="M 8.875 0.296875 C 7.269531 0.296875 5.882812 0 4.71875 -0.59375 C 3.5625 -1.195312 2.664062 -2.050781 2.03125 -3.15625 C 1.40625 -4.257812 1.09375 -5.566406 1.09375 -7.078125 C 1.09375 -8.546875 1.394531 -9.828125 2 -10.921875 C 2.613281 -12.023438 3.457031 -12.890625 4.53125 -13.515625 C 5.601562 -14.148438 6.828125 -14.46875 8.203125 -14.46875 C 9.203125 -14.46875 10.101562 -14.300781 10.90625 -13.96875 C 11.707031 -13.644531 12.394531 -13.171875 12.96875 -12.546875 C 13.539062 -11.929688 13.972656 -11.179688 14.265625 -10.296875 C 14.566406 -9.421875 14.71875 -8.429688 14.71875 -7.328125 C 14.71875 -6.984375 14.597656 -6.71875 14.359375 -6.53125 C 14.117188 -6.351562 13.773438 -6.265625 13.328125 -6.265625 L 4.03125 -6.265625 L 4.03125 -8.34375 L 12.171875 -8.34375 L 11.703125 -7.90625 C 11.703125 -8.800781 11.570312 -9.546875 11.3125 -10.140625 C 11.050781 -10.742188 10.675781 -11.203125 10.1875 -11.515625 C 9.695312 -11.835938 9.082031 -12 8.34375 -12 C 7.53125 -12 6.835938 -11.8125 6.265625 -11.4375 C 5.703125 -11.0625 5.269531 -10.53125 4.96875 -9.84375 C 4.664062 -9.15625 4.515625 -8.335938 4.515625 -7.390625 L 4.515625 -7.1875 C 4.515625 -5.601562 4.882812 -4.421875 5.625 -3.640625 C 6.375 -2.859375 7.472656 -2.46875 8.921875 -2.46875 C 9.429688 -2.46875 10 -2.53125 10.625 -2.65625 C 11.25 -2.78125 11.84375 -2.992188 12.40625 -3.296875 C 12.8125 -3.535156 13.164062 -3.640625 13.46875 -3.609375 C 13.78125 -3.578125 14.023438 -3.460938 14.203125 -3.265625 C 14.390625 -3.078125 14.503906 -2.84375 14.546875 -2.5625 C 14.585938 -2.28125 14.535156 -1.992188 14.390625 -1.703125 C 14.242188 -1.421875 14 -1.171875 13.65625 -0.953125 C 12.976562 -0.523438 12.195312 -0.207031 11.3125 0 C 10.4375 0.195312 9.625 0.296875 8.875 0.296875 Z M 8.875 0.296875 "/></g></g></g><g fill="#000000" fill-opacity="1"><g transform="translate(304.657423, 307.196662)"><g><path d="M 3.734375 0.234375 C 3.140625 0.234375 2.679688 0.078125 2.359375 -0.234375 C 2.046875 -0.554688 1.890625 -1.019531 1.890625 -1.625 L 1.890625 -12.578125 C 1.890625 -13.179688 2.039062 -13.632812 2.34375 -13.9375 C 2.65625 -14.25 3.09375 -14.40625 3.65625 -14.40625 C 4.21875 -14.40625 4.648438 -14.25 4.953125 -13.9375 C 5.265625 -13.632812 5.421875 -13.179688 5.421875 -12.578125 L 5.421875 -10.75 L 5.125 -10.75 C 5.394531 -11.914062 5.925781 -12.796875 6.71875 -13.390625 C 7.507812 -13.992188 8.566406 -14.351562 9.890625 -14.46875 C 10.296875 -14.5 10.617188 -14.394531 10.859375 -14.15625 C 11.097656 -13.914062 11.238281 -13.546875 11.28125 -13.046875 C 11.3125 -12.554688 11.195312 -12.160156 10.9375 -11.859375 C 10.675781 -11.566406 10.285156 -11.390625 9.765625 -11.328125 L 9.125 -11.28125 C 7.945312 -11.15625 7.054688 -10.789062 6.453125 -10.1875 C 5.859375 -9.582031 5.5625 -8.726562 5.5625 -7.625 L 5.5625 -1.625 C 5.5625 -1.019531 5.40625 -0.554688 5.09375 -0.234375 C 4.789062 0.078125 4.335938 0.234375 3.734375 0.234375 Z M 3.734375 0.234375 "/></g></g></g><g fill="#000000" fill-opacity="1"><g transform="translate(316.018313, 307.196662)"><g><path d="M 3.734375 0.234375 C 3.160156 0.234375 2.71875 0.078125 2.40625 -0.234375 C 2.09375 -0.554688 1.9375 -1.019531 1.9375 -1.625 L 1.9375 -12.578125 C 1.9375 -13.179688 2.09375 -13.632812 2.40625 -13.9375 C 2.71875 -14.25 3.148438 -14.40625 3.703125 -14.40625 C 4.265625 -14.40625 4.703125 -14.25 5.015625 -13.9375 C 5.328125 -13.632812 5.484375 -13.179688 5.484375 -12.578125 L 5.484375 -10.46875 L 5.15625 -11.328125 C 5.539062 -12.296875 6.140625 -13.0625 6.953125 -13.625 C 7.765625 -14.1875 8.734375 -14.46875 9.859375 -14.46875 C 10.992188 -14.46875 11.925781 -14.195312 12.65625 -13.65625 C 13.394531 -13.113281 13.910156 -12.28125 14.203125 -11.15625 L 13.796875 -11.15625 C 14.179688 -12.175781 14.816406 -12.984375 15.703125 -13.578125 C 16.597656 -14.171875 17.625 -14.46875 18.78125 -14.46875 C 19.863281 -14.46875 20.753906 -14.253906 21.453125 -13.828125 C 22.160156 -13.398438 22.6875 -12.753906 23.03125 -11.890625 C 23.382812 -11.035156 23.5625 -9.953125 23.5625 -8.640625 L 23.5625 -1.625 C 23.5625 -1.019531 23.398438 -0.554688 23.078125 -0.234375 C 22.765625 0.078125 22.316406 0.234375 21.734375 0.234375 C 21.160156 0.234375 20.71875 0.078125 20.40625 -0.234375 C 20.09375 -0.554688 19.9375 -1.019531 19.9375 -1.625 L 19.9375 -8.5 C 19.9375 -9.570312 19.757812 -10.359375 19.40625 -10.859375 C 19.050781 -11.367188 18.445312 -11.625 17.59375 -11.625 C 16.644531 -11.625 15.898438 -11.289062 15.359375 -10.625 C 14.816406 -9.957031 14.546875 -9.035156 14.546875 -7.859375 L 14.546875 -1.625 C 14.546875 -1.019531 14.390625 -0.554688 14.078125 -0.234375 C 13.773438 0.078125 13.332031 0.234375 12.75 0.234375 C 12.175781 0.234375 11.726562 0.078125 11.40625 -0.234375 C 11.082031 -0.554688 10.921875 -1.019531 10.921875 -1.625 L 10.921875 -8.5 C 10.921875 -9.570312 10.742188 -10.359375 10.390625 -10.859375 C 10.035156 -11.367188 9.441406 -11.625 8.609375 -11.625 C 7.660156 -11.625 6.914062 -11.289062 6.375 -10.625 C 5.832031 -9.957031 5.5625 -9.035156 5.5625 -7.859375 L 5.5625 -1.625 C 5.5625 -0.382812 4.953125 0.234375 3.734375 0.234375 Z M 3.734375 0.234375 "/></g></g></g><g fill="#000000" fill-opacity="1"><g transform="translate(341.435409, 307.196662)"><g><path d="M 3.6875 0.203125 C 3.101562 0.203125 2.65625 0.03125 2.34375 -0.3125 C 2.039062 -0.664062 1.890625 -1.148438 1.890625 -1.765625 L 1.890625 -12.40625 C 1.890625 -13.039062 2.039062 -13.523438 2.34375 -13.859375 C 2.65625 -14.203125 3.101562 -14.375 3.6875 -14.375 C 4.257812 -14.375 4.703125 -14.203125 5.015625 -13.859375 C 5.335938 -13.523438 5.5 -13.039062 5.5 -12.40625 L 5.5 -1.765625 C 5.5 -1.148438 5.34375 -0.664062 5.03125 -0.3125 C 4.726562 0.03125 4.28125 0.203125 3.6875 0.203125 Z M 3.6875 -17.078125 C 3.007812 -17.078125 2.476562 -17.242188 2.09375 -17.578125 C 1.71875 -17.921875 1.53125 -18.390625 1.53125 -18.984375 C 1.53125 -19.597656 1.71875 -20.066406 2.09375 -20.390625 C 2.476562 -20.722656 3.007812 -20.890625 3.6875 -20.890625 C 4.375 -20.890625 4.898438 -20.722656 5.265625 -20.390625 C 5.640625 -20.066406 5.828125 -19.597656 5.828125 -18.984375 C 5.828125 -18.390625 5.640625 -17.921875 5.265625 -17.578125 C 4.898438 -17.242188 4.375 -17.078125 3.6875 -17.078125 Z M 3.6875 -17.078125 "/></g></g></g><g fill="#000000" fill-opacity="1"><g transform="translate(348.825791, 307.196662)"><g><path d="M 3.6875 0.234375 C 3.101562 0.234375 2.65625 0.078125 2.34375 -0.234375 C 2.039062 -0.554688 1.890625 -1.019531 1.890625 -1.625 L 1.890625 -12.578125 C 1.890625 -13.179688 2.039062 -13.632812 2.34375 -13.9375 C 2.65625 -14.25 3.09375 -14.40625 3.65625 -14.40625 C 4.21875 -14.40625 4.648438 -14.25 4.953125 -13.9375 C 5.265625 -13.632812 5.421875 -13.179688 5.421875 -12.578125 L 5.421875 -10.609375 L 5.09375 -11.328125 C 5.519531 -12.359375 6.179688 -13.140625 7.078125 -13.671875 C 7.984375 -14.203125 9.003906 -14.46875 10.140625 -14.46875 C 11.285156 -14.46875 12.222656 -14.253906 12.953125 -13.828125 C 13.691406 -13.398438 14.242188 -12.753906 14.609375 -11.890625 C 14.972656 -11.035156 15.15625 -9.953125 15.15625 -8.640625 L 15.15625 -1.625 C 15.15625 -1.019531 15 -0.554688 14.6875 -0.234375 C 14.382812 0.078125 13.941406 0.234375 13.359375 0.234375 C 12.785156 0.234375 12.335938 0.078125 12.015625 -0.234375 C 11.691406 -0.554688 11.53125 -1.019531 11.53125 -1.625 L 11.53125 -8.46875 C 11.53125 -9.5625 11.320312 -10.359375 10.90625 -10.859375 C 10.5 -11.367188 9.859375 -11.625 8.984375 -11.625 C 7.921875 -11.625 7.070312 -11.289062 6.4375 -10.625 C 5.8125 -9.957031 5.5 -9.070312 5.5 -7.96875 L 5.5 -1.625 C 5.5 -0.382812 4.894531 0.234375 3.6875 0.234375 Z M 3.6875 0.234375 "/></g></g></g></svg>