<svg width="60" height="62" viewBox="0 0 60 62" fill="none" xmlns="http://www.w3.org/2000/svg">
<path fill-rule="evenodd" clip-rule="evenodd" d="M54 7.10048V46.7536C53.999 48.6959 53.3775 50.5874 52.2255 52.1546C51.0735 53.7217 49.4507 54.8831 47.592 55.4707C45.7333 56.0583 43.7351 56.0416 41.8866 55.4231C40.038 54.8045 38.435 53.6162 37.3095 52.03C36.1841 50.4439 35.5945 48.5422 35.6262 46.6002C35.6579 44.6581 36.3092 42.7765 37.4858 41.2276C38.6624 39.6787 40.3033 38.5429 42.171 37.9844C44.0387 37.426 46.0364 37.474 47.875 38.1214V13.201H23.375V52.8541C23.374 54.7964 22.7525 56.6879 21.6005 58.2551C20.4485 59.8222 18.8257 60.9836 16.967 61.5712C15.1083 62.1588 13.1101 62.1421 11.2615 61.5236C9.413 60.905 7.81001 59.7166 6.68455 58.1305C5.55909 56.5443 4.96954 54.6427 5.00121 52.7006C5.03289 50.7586 5.68415 48.877 6.86075 47.3281C8.03736 45.7792 9.67826 44.6433 11.546 44.0849C13.4137 43.5265 15.4114 43.5745 17.25 44.2219V7.10048C17.25 5.48253 17.8953 3.93085 19.044 2.78679C20.1926 1.64273 21.7505 1 23.375 1H47.875C49.4995 1 51.0574 1.64273 52.206 2.78679C53.3547 3.93085 54 5.48253 54 7.10048Z" fill="#544F4C"/>
</svg>
