<svg width="60" height="70" viewBox="0 0 60 70" fill="none" xmlns="http://www.w3.org/2000/svg">
<path fill-rule="evenodd" clip-rule="evenodd" d="M54 10.1005V49.7536C53.999 51.6959 53.3775 53.5874 52.2255 55.1546C51.0735 56.7217 49.4507 57.8831 47.592 58.4707C45.7333 59.0583 43.7351 59.0416 41.8866 58.4231C40.038 57.8045 38.435 56.6162 37.3095 55.03C36.1841 53.4439 35.5945 51.5422 35.6262 49.6002C35.6579 47.6581 36.3092 45.7765 37.4858 44.2276C38.6624 42.6787 40.3033 41.5429 42.171 40.9844C44.0387 40.426 46.0364 40.474 47.875 41.1214V16.201H23.375V55.8541C23.374 57.7964 22.7525 59.6879 21.6005 61.2551C20.4485 62.8222 18.8257 63.9836 16.967 64.5712C15.1083 65.1588 13.1101 65.1421 11.2615 64.5236C9.413 63.905 7.81001 62.7166 6.68455 61.1305C5.55909 59.5443 4.96954 57.6427 5.00121 55.7006C5.03289 53.7586 5.68415 51.877 6.86075 50.3281C8.03736 48.7792 9.67826 47.6433 11.546 47.0849C13.4137 46.5265 15.4114 46.5745 17.25 47.2219V10.1005C17.25 8.48253 17.8953 6.93085 19.044 5.78679C20.1926 4.64273 21.7505 4 23.375 4H47.875C49.4995 4 51.0574 4.64273 52.206 5.78679C53.3547 6.93085 54 8.48253 54 10.1005Z" fill="#544F4C"/>
<path d="M56 3L9 67" stroke="#AB9B85" stroke-width="5" stroke-linecap="round"/>
</svg>
