<svg width="65" height="62" viewBox="0 0 65 62" fill="none" xmlns="http://www.w3.org/2000/svg">
<g filter="url(#filter0_d_311_67)">
<path d="M18.3766 30.7023C21.0128 27.5637 24.5406 25.3176 28.4829 24.2678C32.4252 23.218 36.5919 23.415 40.4196 24.8323C44.2474 26.2496 47.5515 28.8187 49.8852 32.1924C52.219 35.566 53.4699 39.5814 53.4687 43.6957C53.4687 44.8372 53.9181 45.9321 54.7181 46.7393C55.518 47.5465 56.603 48 57.7343 48C58.8657 48 59.9507 47.5465 60.7506 46.7393C61.5506 45.9321 62 44.8372 62 43.6957C62 27.8471 49.2684 15 33.5623 15C29.5856 14.9951 25.6524 15.8344 22.018 17.4633C18.3837 19.0923 15.1297 21.4745 12.4672 24.4552L11.4805 18.8165C11.3931 18.251 11.1949 17.7087 10.8973 17.2214C10.5998 16.7341 10.2089 16.3115 9.74758 15.9785C9.28624 15.6454 8.76372 15.4086 8.21057 15.2818C7.65743 15.155 7.08478 15.1408 6.52613 15.2401C5.96748 15.3393 5.43406 15.55 4.95707 15.8597C4.48009 16.1695 4.06912 16.5722 3.74822 17.0441C3.42732 17.5161 3.20293 18.048 3.08819 18.6085C2.97344 19.169 2.97064 19.7471 3.07996 20.3087L6.04316 37.2678C6.23938 38.3898 6.86786 39.3913 7.79777 40.0456C8.94381 40.8548 10.4538 41.0356 11.7364 40.6252L27.7866 37.7671C28.3471 37.679 28.8845 37.479 29.3675 37.1787C29.8504 36.8785 30.2691 36.4841 30.5992 36.0185C30.9292 35.553 31.1639 35.0258 31.2896 34.4676C31.4152 33.9094 31.4293 33.3316 31.331 32.7679C31.2326 32.2042 31.0238 31.6659 30.7169 31.1846C30.4099 30.7033 30.0108 30.2886 29.5431 29.9648C29.0753 29.641 28.5483 29.4145 27.9928 29.2988C27.4373 29.183 26.8645 29.1801 26.3079 29.2904L18.3794 30.6994L18.3766 30.7023Z" fill="#FFEED2"/>
</g>
<defs>
<filter id="filter0_d_311_67" x="0" y="15" width="65" height="39" filterUnits="userSpaceOnUse" color-interpolation-filters="sRGB">
<feFlood flood-opacity="0" result="BackgroundImageFix"/>
<feColorMatrix in="SourceAlpha" type="matrix" values="0 0 0 0 0 0 0 0 0 0 0 0 0 0 0 0 0 0 127 0" result="hardAlpha"/>
<feOffset dy="3"/>
<feGaussianBlur stdDeviation="1.5"/>
<feComposite in2="hardAlpha" operator="out"/>
<feColorMatrix type="matrix" values="0 0 0 0 0 0 0 0 0 0 0 0 0 0 0 0 0 0 0.25 0"/>
<feBlend mode="normal" in2="BackgroundImageFix" result="effect1_dropShadow_311_67"/>
<feBlend mode="normal" in="SourceGraphic" in2="effect1_dropShadow_311_67" result="shape"/>
</filter>
</defs>
</svg>
