<svg width="59" height="33" viewBox="0 0 59 33" fill="none" xmlns="http://www.w3.org/2000/svg">
<path d="M15.3766 15.7023C18.0128 12.5637 21.5406 10.3176 25.4829 9.26781C29.4252 8.218 33.5919 8.41505 37.4196 9.83232C41.2474 11.2496 44.5515 13.8187 46.8852 17.1924C49.219 20.566 50.4699 24.5814 50.4687 28.6957C50.4687 29.8372 50.9181 30.9321 51.7181 31.7393C52.518 32.5465 53.603 33 54.7343 33C55.8657 33 56.9507 32.5465 57.7506 31.7393C58.5506 30.9321 59 29.8372 59 28.6957C59 12.8471 46.2684 2.15404e-05 30.5623 2.15404e-05C26.5856 -0.00490233 22.6524 0.834377 19.018 2.46334C15.3837 4.09231 12.1297 6.47452 9.46724 9.45523L8.48045 3.81654C8.39312 3.25098 8.19488 2.70868 7.89734 2.22137C7.59979 1.73405 7.20892 1.31152 6.74758 0.978483C6.28624 0.645448 5.76372 0.408605 5.21057 0.281812C4.65743 0.155019 4.08478 0.140823 3.52613 0.240055C2.96748 0.339287 2.43406 0.549954 1.95707 0.859728C1.48009 1.1695 1.06912 1.57216 0.748222 2.04414C0.427322 2.51613 0.202934 3.04795 0.0881885 3.6085C-0.0265571 4.16905 -0.0293556 4.74706 0.0799569 5.30871L3.04316 22.2678C3.23938 23.3898 3.86786 24.3913 4.79777 25.0456C5.94381 25.8548 7.45385 26.0356 8.73639 25.6252L24.7866 22.7671C25.3471 22.679 25.8845 22.479 26.3675 22.1787C26.8504 21.8785 27.2691 21.4841 27.5992 21.0185C27.9292 20.553 28.1639 20.0258 28.2896 19.4676C28.4152 18.9094 28.4293 18.3316 28.331 17.7679C28.2326 17.2042 28.0238 16.6659 27.7169 16.1846C27.4099 15.7033 27.0108 15.2886 26.5431 14.9648C26.0753 14.641 25.5483 14.4145 24.9928 14.2988C24.4373 14.183 23.8645 14.1801 23.3079 14.2904L15.3794 15.6994L15.3766 15.7023Z" fill="#544F4C"/>
</svg>
