<svg width="62" height="55" viewBox="0 0 62 55" fill="none" xmlns="http://www.w3.org/2000/svg">
<path fill-rule="evenodd" clip-rule="evenodd" d="M31 55C23.405 53.35 0 40.425 0 17.1875C0 13.5801 1.13731 10.0642 3.25083 7.13779C5.36435 4.21135 8.34693 2.02275 11.7761 0.882006C15.2052 -0.25874 18.9071 -0.293798 22.3573 0.781798C25.8076 1.85739 28.8312 5.76331 31 8.64919C33.1688 5.76331 36.1924 1.85739 39.6427 0.781798C43.0929 -0.293798 46.7948 -0.25874 50.2239 0.882006C53.6531 2.02275 56.6357 4.21135 58.7492 7.13779C60.8627 10.0642 62 13.5801 62 17.1875C62 40.425 38.595 53.35 31 55Z" fill="#FF0E0E"/>
</svg>
