<svg width="66" height="68" viewBox="0 0 66 68" fill="none" xmlns="http://www.w3.org/2000/svg">
<g filter="url(#filter0_d_131_11)">
<path d="M29.359 62C27.9645 62 26.7643 61.535 25.7582 60.605C24.7522 59.675 24.1448 58.5383 23.9362 57.195L23.239 52.08C22.5676 51.8217 21.9354 51.5117 21.3425 51.15C20.7496 50.7883 20.1681 50.4008 19.598 49.9875L14.7949 52.0025C13.5038 52.5708 12.2126 52.6225 10.9215 52.1575C9.63034 51.6925 8.62325 50.8658 7.90021 49.6775L4.25919 43.3225C3.53615 42.1342 3.32957 40.8683 3.63944 39.525C3.94932 38.1817 4.64653 37.0708 5.73109 36.1925L9.83692 33.0925C9.78528 32.7308 9.75945 32.3816 9.75945 32.0447V29.9522C9.75945 29.6174 9.78528 29.2692 9.83692 28.9075L5.73109 25.8075C4.64653 24.9292 3.94932 23.8183 3.63944 22.475C3.32957 21.1317 3.53615 19.8658 4.25919 18.6775L7.90021 12.3225C8.62325 11.1342 9.63034 10.3075 10.9215 9.8425C12.2126 9.3775 13.5038 9.42917 14.7949 9.9975L19.598 12.0125C20.1661 11.5992 20.76 11.2117 21.3797 10.85C21.9995 10.4883 22.6192 10.1783 23.239 9.92L23.9362 4.805C24.1428 3.46167 24.7501 2.325 25.7582 1.395C26.7664 0.465 27.9666 0 29.359 0H36.641C38.0354 0 39.2367 0.465 40.2449 1.395C41.253 2.325 41.8593 3.46167 42.0638 4.805L42.761 9.92C43.4324 10.1783 44.0656 10.4883 44.6606 10.85C45.2555 11.2117 45.836 11.5992 46.402 12.0125L51.2051 9.9975C52.4962 9.42917 53.7874 9.3775 55.0785 9.8425C56.3697 10.3075 57.3768 11.1342 58.0998 12.3225L61.7408 18.6775C62.4638 19.8658 62.6704 21.1317 62.3606 22.475C62.0507 23.8183 61.3535 24.9292 60.2689 25.8075L56.1631 28.9075C56.2147 29.2692 56.2405 29.6184 56.2405 29.9553V32.0447C56.2405 32.3816 56.1889 32.7308 56.0856 33.0925L60.1914 36.1925C61.276 37.0708 61.9732 38.1817 62.2831 39.525C62.593 40.8683 62.3864 42.1342 61.6633 43.3225L57.9449 49.6775C57.2218 50.8658 56.2147 51.6925 54.9236 52.1575C53.6324 52.6225 52.3413 52.5708 51.0502 52.0025L46.402 49.9875C45.8339 50.4008 45.24 50.7883 44.6203 51.15C44.0005 51.5117 43.3808 51.8217 42.761 52.08L42.0638 57.195C41.8572 58.5383 41.2509 59.675 40.2449 60.605C39.2388 61.535 38.0375 62 36.641 62H29.359ZM29.9013 55.8H36.0213L37.1058 47.585C38.7068 47.1717 40.1922 46.5651 41.5618 45.7653C42.9315 44.9655 44.1833 43.9962 45.3175 42.8575L52.9869 46.035L56.0081 40.765L49.3458 35.7275C49.6041 35.0042 49.7848 34.2426 49.8881 33.4428C49.9914 32.643 50.0431 31.8287 50.0431 31C50.0431 30.1713 49.9914 29.358 49.8881 28.5603C49.7848 27.7626 49.6041 27 49.3458 26.2725L56.0081 21.235L52.9869 15.965L45.3175 19.22C44.1813 18.0317 42.9294 17.0376 41.5618 16.2378C40.1942 15.438 38.7089 14.8304 37.1058 14.415L36.0987 6.2H29.9787L28.8942 14.415C27.2932 14.8283 25.8089 15.4359 24.4413 16.2378C23.0737 17.0397 21.8208 18.0079 20.6825 19.1425L13.0131 15.965L9.99186 21.235L16.6541 26.195C16.3959 26.97 16.2152 27.745 16.1119 28.52C16.0086 29.295 15.9569 30.1217 15.9569 31C15.9569 31.8267 16.0086 32.6275 16.1119 33.4025C16.2152 34.1775 16.3959 34.9525 16.6541 35.7275L9.99186 40.765L13.0131 46.035L20.6825 42.78C21.8187 43.9683 23.0716 44.9634 24.4413 45.7653C25.8109 46.5672 27.2952 47.1737 28.8942 47.585L29.9013 55.8ZM33.1549 41.85C36.1504 41.85 38.7068 40.7908 40.8243 38.6725C42.9418 36.5542 44.0005 33.9967 44.0005 31C44.0005 28.0033 42.9418 25.4458 40.8243 23.3275C38.7068 21.2092 36.1504 20.15 33.1549 20.15C30.1078 20.15 27.539 21.2092 25.4484 23.3275C23.3578 25.4458 22.3114 28.0033 22.3093 31C22.3073 33.9967 23.3536 36.5542 25.4484 38.6725C27.5431 40.7908 30.112 41.85 33.1549 41.85Z" fill="#FFEED2"/>
</g>
<defs>
<filter id="filter0_d_131_11" x="0.5" y="0" width="65" height="68" filterUnits="userSpaceOnUse" color-interpolation-filters="sRGB">
<feFlood flood-opacity="0" result="BackgroundImageFix"/>
<feColorMatrix in="SourceAlpha" type="matrix" values="0 0 0 0 0 0 0 0 0 0 0 0 0 0 0 0 0 0 127 0" result="hardAlpha"/>
<feOffset dy="3"/>
<feGaussianBlur stdDeviation="1.5"/>
<feComposite in2="hardAlpha" operator="out"/>
<feColorMatrix type="matrix" values="0 0 0 0 0 0 0 0 0 0 0 0 0 0 0 0 0 0 0.25 0"/>
<feBlend mode="normal" in2="BackgroundImageFix" result="effect1_dropShadow_131_11"/>
<feBlend mode="normal" in="SourceGraphic" in2="effect1_dropShadow_131_11" result="shape"/>
</filter>
</defs>
</svg>
