<svg xmlns="http://www.w3.org/2000/svg" xmlns:xlink="http://www.w3.org/1999/xlink" width="560" zoomAndPan="magnify" viewBox="0 0 420 67.499998" height="90" preserveAspectRatio="xMidYMid meet" version="1.0"><defs><g/><clipPath id="5cda317b33"><path d="M 1.574219 0 L 418.125 0 L 418.125 66.863281 L 1.574219 66.863281 Z M 1.574219 0 " clip-rule="nonzero"/></clipPath></defs><g clip-path="url(#5cda317b33)"><path stroke-linecap="butt" transform="matrix(0.744485, 0, 0, 0.744485, 1.573902, 0)" fill="none" stroke-linejoin="miter" d="M 0.000425837 0 L 559.515589 0 L 559.515589 89.811426 L 0.000425837 89.811426 Z M 0.000425837 0 " stroke="#000000" stroke-width="12" stroke-opacity="1" stroke-miterlimit="4"/></g><g fill="#000000" fill-opacity="1"><g transform="translate(89.679219, 43.859772)"><g><path d="M 4.765625 0.28125 C 4.109375 0.28125 3.609375 0.0976562 3.265625 -0.265625 C 2.921875 -0.640625 2.75 -1.15625 2.75 -1.8125 L 2.75 -22.6875 C 2.75 -23.351562 2.929688 -23.863281 3.296875 -24.21875 C 3.671875 -24.582031 4.179688 -24.765625 4.828125 -24.765625 C 5.410156 -24.765625 5.867188 -24.65625 6.203125 -24.4375 C 6.535156 -24.21875 6.84375 -23.84375 7.125 -23.3125 L 15.703125 -7.4375 L 14.59375 -7.4375 L 23.171875 -23.3125 C 23.441406 -23.84375 23.738281 -24.21875 24.0625 -24.4375 C 24.394531 -24.65625 24.847656 -24.765625 25.421875 -24.765625 C 26.066406 -24.765625 26.5625 -24.582031 26.90625 -24.21875 C 27.257812 -23.863281 27.4375 -23.351562 27.4375 -22.6875 L 27.4375 -1.8125 C 27.4375 -1.15625 27.269531 -0.640625 26.9375 -0.265625 C 26.601562 0.0976562 26.097656 0.28125 25.421875 0.28125 C 24.773438 0.28125 24.273438 0.0976562 23.921875 -0.265625 C 23.578125 -0.640625 23.40625 -1.15625 23.40625 -1.8125 L 23.40625 -17.890625 L 24.171875 -17.890625 L 16.875 -4.578125 C 16.644531 -4.191406 16.398438 -3.90625 16.140625 -3.71875 C 15.890625 -3.53125 15.546875 -3.4375 15.109375 -3.4375 C 14.671875 -3.4375 14.3125 -3.535156 14.03125 -3.734375 C 13.75 -3.929688 13.503906 -4.210938 13.296875 -4.578125 L 5.9375 -17.921875 L 6.765625 -17.921875 L 6.765625 -1.8125 C 6.765625 -1.15625 6.597656 -0.640625 6.265625 -0.265625 C 5.929688 0.0976562 5.429688 0.28125 4.765625 0.28125 Z M 4.765625 0.28125 "/></g></g></g><g fill="#000000" fill-opacity="1"><g transform="translate(119.829031, 43.859772)"><g><path d="M 2.921875 0.28125 C 2.359375 0.28125 1.910156 0.15625 1.578125 -0.09375 C 1.242188 -0.351562 1.039062 -0.695312 0.96875 -1.125 C 0.90625 -1.550781 0.988281 -2.035156 1.21875 -2.578125 L 10.390625 -22.890625 C 10.691406 -23.554688 11.054688 -24.035156 11.484375 -24.328125 C 11.910156 -24.617188 12.398438 -24.765625 12.953125 -24.765625 C 13.484375 -24.765625 13.960938 -24.617188 14.390625 -24.328125 C 14.828125 -24.035156 15.191406 -23.554688 15.484375 -22.890625 L 24.703125 -2.578125 C 24.953125 -2.035156 25.039062 -1.546875 24.96875 -1.109375 C 24.90625 -0.671875 24.707031 -0.328125 24.375 -0.078125 C 24.050781 0.160156 23.625 0.28125 23.09375 0.28125 C 22.445312 0.28125 21.941406 0.125 21.578125 -0.1875 C 21.222656 -0.5 20.90625 -0.976562 20.625 -1.625 L 18.375 -6.875 L 20.25 -5.65625 L 5.59375 -5.65625 L 7.46875 -6.875 L 5.25 -1.625 C 4.945312 -0.957031 4.632812 -0.472656 4.3125 -0.171875 C 3.988281 0.128906 3.523438 0.28125 2.921875 0.28125 Z M 12.890625 -19.65625 L 8.03125 -8.09375 L 7.125 -9.203125 L 18.71875 -9.203125 L 17.859375 -8.09375 L 12.953125 -19.65625 Z M 12.890625 -19.65625 "/></g></g></g><g fill="#000000" fill-opacity="1"><g transform="translate(145.67172, 43.859772)"><g><path d="M 4.890625 0.28125 C 4.179688 0.28125 3.632812 0.078125 3.25 -0.328125 C 2.863281 -0.734375 2.671875 -1.296875 2.671875 -2.015625 L 2.671875 -22.46875 C 2.671875 -23.207031 2.863281 -23.773438 3.25 -24.171875 C 3.632812 -24.566406 4.179688 -24.765625 4.890625 -24.765625 C 5.609375 -24.765625 6.160156 -24.566406 6.546875 -24.171875 C 6.929688 -23.773438 7.125 -23.207031 7.125 -22.46875 L 7.125 -2.015625 C 7.125 -1.296875 6.9375 -0.734375 6.5625 -0.328125 C 6.195312 0.078125 5.640625 0.28125 4.890625 0.28125 Z M 4.890625 0.28125 "/></g></g></g><g fill="#000000" fill-opacity="1"><g transform="translate(155.466934, 43.859772)"><g><path d="M 4.765625 0.28125 C 4.085938 0.28125 3.566406 0.0976562 3.203125 -0.265625 C 2.847656 -0.640625 2.671875 -1.175781 2.671875 -1.875 L 2.671875 -22.546875 C 2.671875 -23.265625 2.847656 -23.8125 3.203125 -24.1875 C 3.566406 -24.570312 4.039062 -24.765625 4.625 -24.765625 C 5.15625 -24.765625 5.550781 -24.664062 5.8125 -24.46875 C 6.082031 -24.269531 6.398438 -23.941406 6.765625 -23.484375 L 20.078125 -6.21875 L 19.171875 -6.21875 L 19.171875 -22.640625 C 19.171875 -23.316406 19.347656 -23.835938 19.703125 -24.203125 C 20.066406 -24.578125 20.582031 -24.765625 21.25 -24.765625 C 21.925781 -24.765625 22.4375 -24.578125 22.78125 -24.203125 C 23.132812 -23.835938 23.3125 -23.316406 23.3125 -22.640625 L 23.3125 -1.8125 C 23.3125 -1.15625 23.144531 -0.640625 22.8125 -0.265625 C 22.488281 0.0976562 22.050781 0.28125 21.5 0.28125 C 20.96875 0.28125 20.546875 0.175781 20.234375 -0.03125 C 19.921875 -0.238281 19.578125 -0.578125 19.203125 -1.046875 L 5.9375 -18.3125 L 6.8125 -18.3125 L 6.8125 -1.875 C 6.8125 -1.175781 6.632812 -0.640625 6.28125 -0.265625 C 5.9375 0.0976562 5.429688 0.28125 4.765625 0.28125 Z M 4.765625 0.28125 "/></g></g></g><g fill="#000000" fill-opacity="1"><g transform="translate(181.448566, 43.859772)"><g><path d="M 2.921875 0.28125 C 2.359375 0.28125 1.910156 0.15625 1.578125 -0.09375 C 1.242188 -0.351562 1.039062 -0.695312 0.96875 -1.125 C 0.90625 -1.550781 0.988281 -2.035156 1.21875 -2.578125 L 10.390625 -22.890625 C 10.691406 -23.554688 11.054688 -24.035156 11.484375 -24.328125 C 11.910156 -24.617188 12.398438 -24.765625 12.953125 -24.765625 C 13.484375 -24.765625 13.960938 -24.617188 14.390625 -24.328125 C 14.828125 -24.035156 15.191406 -23.554688 15.484375 -22.890625 L 24.703125 -2.578125 C 24.953125 -2.035156 25.039062 -1.546875 24.96875 -1.109375 C 24.90625 -0.671875 24.707031 -0.328125 24.375 -0.078125 C 24.050781 0.160156 23.625 0.28125 23.09375 0.28125 C 22.445312 0.28125 21.941406 0.125 21.578125 -0.1875 C 21.222656 -0.5 20.90625 -0.976562 20.625 -1.625 L 18.375 -6.875 L 20.25 -5.65625 L 5.59375 -5.65625 L 7.46875 -6.875 L 5.25 -1.625 C 4.945312 -0.957031 4.632812 -0.472656 4.3125 -0.171875 C 3.988281 0.128906 3.523438 0.28125 2.921875 0.28125 Z M 12.890625 -19.65625 L 8.03125 -8.09375 L 7.125 -9.203125 L 18.71875 -9.203125 L 17.859375 -8.09375 L 12.953125 -19.65625 Z M 12.890625 -19.65625 "/></g></g></g><g fill="#000000" fill-opacity="1"><g transform="translate(207.291256, 43.859772)"><g><path d="M 4.765625 0.28125 C 4.085938 0.28125 3.566406 0.0976562 3.203125 -0.265625 C 2.847656 -0.640625 2.671875 -1.175781 2.671875 -1.875 L 2.671875 -22.546875 C 2.671875 -23.265625 2.847656 -23.8125 3.203125 -24.1875 C 3.566406 -24.570312 4.039062 -24.765625 4.625 -24.765625 C 5.15625 -24.765625 5.550781 -24.664062 5.8125 -24.46875 C 6.082031 -24.269531 6.398438 -23.941406 6.765625 -23.484375 L 20.078125 -6.21875 L 19.171875 -6.21875 L 19.171875 -22.640625 C 19.171875 -23.316406 19.347656 -23.835938 19.703125 -24.203125 C 20.066406 -24.578125 20.582031 -24.765625 21.25 -24.765625 C 21.925781 -24.765625 22.4375 -24.578125 22.78125 -24.203125 C 23.132812 -23.835938 23.3125 -23.316406 23.3125 -22.640625 L 23.3125 -1.8125 C 23.3125 -1.15625 23.144531 -0.640625 22.8125 -0.265625 C 22.488281 0.0976562 22.050781 0.28125 21.5 0.28125 C 20.96875 0.28125 20.546875 0.175781 20.234375 -0.03125 C 19.921875 -0.238281 19.578125 -0.578125 19.203125 -1.046875 L 5.9375 -18.3125 L 6.8125 -18.3125 L 6.8125 -1.875 C 6.8125 -1.175781 6.632812 -0.640625 6.28125 -0.265625 C 5.9375 0.0976562 5.429688 0.28125 4.765625 0.28125 Z M 4.765625 0.28125 "/></g></g></g><g fill="#000000" fill-opacity="1"><g transform="translate(233.272888, 43.859772)"><g><path d="M 4.890625 0.28125 C 4.179688 0.28125 3.632812 0.078125 3.25 -0.328125 C 2.863281 -0.734375 2.671875 -1.296875 2.671875 -2.015625 L 2.671875 -22.515625 C 2.671875 -23.253906 2.863281 -23.8125 3.25 -24.1875 C 3.632812 -24.570312 4.179688 -24.765625 4.890625 -24.765625 C 5.609375 -24.765625 6.160156 -24.570312 6.546875 -24.1875 C 6.929688 -23.8125 7.125 -23.253906 7.125 -22.515625 L 7.125 -13.65625 L 7.1875 -13.65625 L 17.15625 -23.65625 C 17.53125 -24.019531 17.898438 -24.296875 18.265625 -24.484375 C 18.640625 -24.671875 19.054688 -24.765625 19.515625 -24.765625 C 20.191406 -24.765625 20.671875 -24.585938 20.953125 -24.234375 C 21.242188 -23.890625 21.359375 -23.484375 21.296875 -23.015625 C 21.242188 -22.554688 21.019531 -22.132812 20.625 -21.75 L 10.484375 -11.703125 L 10.53125 -13.71875 L 21.125 -2.953125 C 21.601562 -2.484375 21.851562 -1.992188 21.875 -1.484375 C 21.90625 -0.984375 21.75 -0.5625 21.40625 -0.21875 C 21.070312 0.113281 20.582031 0.28125 19.9375 0.28125 C 19.382812 0.28125 18.9375 0.164062 18.59375 -0.0625 C 18.257812 -0.300781 17.875 -0.640625 17.4375 -1.078125 L 7.1875 -11.328125 L 7.125 -11.328125 L 7.125 -2.015625 C 7.125 -1.296875 6.9375 -0.734375 6.5625 -0.328125 C 6.195312 0.078125 5.640625 0.28125 4.890625 0.28125 Z M 4.890625 0.28125 "/></g></g></g><g fill="#000000" fill-opacity="1"><g transform="translate(256.371526, 43.859772)"><g><path d="M 5.03125 0 C 4.269531 0 3.6875 -0.203125 3.28125 -0.609375 C 2.875 -1.015625 2.671875 -1.597656 2.671875 -2.359375 L 2.671875 -22.125 C 2.671875 -22.882812 2.875 -23.46875 3.28125 -23.875 C 3.6875 -24.28125 4.269531 -24.484375 5.03125 -24.484375 L 17.4375 -24.484375 C 18.019531 -24.484375 18.46875 -24.332031 18.78125 -24.03125 C 19.09375 -23.726562 19.25 -23.300781 19.25 -22.75 C 19.25 -22.164062 19.09375 -21.71875 18.78125 -21.40625 C 18.46875 -21.09375 18.019531 -20.9375 17.4375 -20.9375 L 6.953125 -20.9375 L 6.953125 -14.203125 L 16.671875 -14.203125 C 17.273438 -14.203125 17.726562 -14.050781 18.03125 -13.75 C 18.332031 -13.445312 18.484375 -13.007812 18.484375 -12.4375 C 18.484375 -11.851562 18.332031 -11.410156 18.03125 -11.109375 C 17.726562 -10.804688 17.273438 -10.65625 16.671875 -10.65625 L 6.953125 -10.65625 L 6.953125 -3.546875 L 17.4375 -3.546875 C 18.019531 -3.546875 18.46875 -3.394531 18.78125 -3.09375 C 19.09375 -2.789062 19.25 -2.347656 19.25 -1.765625 C 19.25 -1.191406 19.09375 -0.753906 18.78125 -0.453125 C 18.46875 -0.148438 18.019531 0 17.4375 0 Z M 5.03125 0 "/></g></g></g><g fill="#000000" fill-opacity="1"><g transform="translate(277.073467, 43.859772)"><g><path d="M 14.0625 0.34375 C 11.519531 0.34375 9.335938 -0.171875 7.515625 -1.203125 C 5.703125 -2.234375 4.304688 -3.691406 3.328125 -5.578125 C 2.359375 -7.460938 1.875 -9.691406 1.875 -12.265625 C 1.875 -14.179688 2.148438 -15.910156 2.703125 -17.453125 C 3.265625 -18.992188 4.066406 -20.3125 5.109375 -21.40625 C 6.148438 -22.507812 7.425781 -23.351562 8.9375 -23.9375 C 10.457031 -24.53125 12.164062 -24.828125 14.0625 -24.828125 C 15.34375 -24.828125 16.59375 -24.664062 17.8125 -24.34375 C 19.039062 -24.019531 20.117188 -23.554688 21.046875 -22.953125 C 21.535156 -22.660156 21.859375 -22.296875 22.015625 -21.859375 C 22.179688 -21.429688 22.21875 -21.015625 22.125 -20.609375 C 22.03125 -20.203125 21.835938 -19.859375 21.546875 -19.578125 C 21.265625 -19.304688 20.90625 -19.148438 20.46875 -19.109375 C 20.039062 -19.078125 19.570312 -19.226562 19.0625 -19.5625 C 18.351562 -20.019531 17.578125 -20.351562 16.734375 -20.5625 C 15.898438 -20.769531 15.054688 -20.875 14.203125 -20.875 C 12.554688 -20.875 11.164062 -20.535156 10.03125 -19.859375 C 8.90625 -19.191406 8.050781 -18.222656 7.46875 -16.953125 C 6.882812 -15.679688 6.59375 -14.117188 6.59375 -12.265625 C 6.59375 -10.429688 6.882812 -8.863281 7.46875 -7.5625 C 8.050781 -6.269531 8.90625 -5.285156 10.03125 -4.609375 C 11.164062 -3.941406 12.554688 -3.609375 14.203125 -3.609375 C 15.085938 -3.609375 15.957031 -3.71875 16.8125 -3.9375 C 17.664062 -4.15625 18.476562 -4.5 19.25 -4.96875 C 19.75 -5.269531 20.203125 -5.398438 20.609375 -5.359375 C 21.015625 -5.328125 21.359375 -5.179688 21.640625 -4.921875 C 21.921875 -4.671875 22.101562 -4.351562 22.1875 -3.96875 C 22.28125 -3.59375 22.257812 -3.203125 22.125 -2.796875 C 21.988281 -2.390625 21.710938 -2.035156 21.296875 -1.734375 C 20.367188 -1.066406 19.257812 -0.550781 17.96875 -0.1875 C 16.6875 0.164062 15.382812 0.34375 14.0625 0.34375 Z M 14.0625 0.34375 "/></g></g></g><g fill="#000000" fill-opacity="1"><g transform="translate(300.693118, 43.859772)"><g><path d="M 4.890625 0.28125 C 4.179688 0.28125 3.632812 0.078125 3.25 -0.328125 C 2.863281 -0.734375 2.671875 -1.296875 2.671875 -2.015625 L 2.671875 -22.46875 C 2.671875 -23.207031 2.863281 -23.773438 3.25 -24.171875 C 3.632812 -24.566406 4.179688 -24.765625 4.890625 -24.765625 C 5.609375 -24.765625 6.160156 -24.566406 6.546875 -24.171875 C 6.929688 -23.773438 7.125 -23.207031 7.125 -22.46875 L 7.125 -2.015625 C 7.125 -1.296875 6.9375 -0.734375 6.5625 -0.328125 C 6.195312 0.078125 5.640625 0.28125 4.890625 0.28125 Z M 4.890625 0.28125 "/></g></g></g><g fill="#000000" fill-opacity="1"><g transform="translate(310.488343, 43.859772)"><g><path d="M 4.9375 0 C 4.21875 0 3.660156 -0.203125 3.265625 -0.609375 C 2.867188 -1.015625 2.671875 -1.578125 2.671875 -2.296875 L 2.671875 -22.328125 C 2.671875 -23.078125 2.863281 -23.640625 3.25 -24.015625 C 3.632812 -24.398438 4.179688 -24.59375 4.890625 -24.59375 C 5.609375 -24.59375 6.160156 -24.398438 6.546875 -24.015625 C 6.929688 -23.640625 7.125 -23.078125 7.125 -22.328125 L 7.125 -3.78125 L 17.1875 -3.78125 C 17.8125 -3.78125 18.289062 -3.617188 18.625 -3.296875 C 18.96875 -2.972656 19.140625 -2.507812 19.140625 -1.90625 C 19.140625 -1.300781 18.96875 -0.832031 18.625 -0.5 C 18.289062 -0.164062 17.8125 0 17.1875 0 Z M 4.9375 0 "/></g></g></g></svg>