<svg xmlns="http://www.w3.org/2000/svg" xmlns:xlink="http://www.w3.org/1999/xlink" width="560" zoomAndPan="magnify" viewBox="0 0 420 67.499998" height="90" preserveAspectRatio="xMidYMid meet" version="1.0"><defs><g/><clipPath id="ddf034cb5b"><path d="M 1.574219 0 L 418.125 0 L 418.125 66.863281 L 1.574219 66.863281 Z M 1.574219 0 " clip-rule="nonzero"/></clipPath></defs><g clip-path="url(#ddf034cb5b)"><path stroke-linecap="butt" transform="matrix(0.744485, 0, 0, 0.744485, 1.573902, 0)" fill="none" stroke-linejoin="miter" d="M 0.000425837 0 L 559.515589 0 L 559.515589 89.811426 L 0.000425837 89.811426 Z M 0.000425837 0 " stroke="#000000" stroke-width="12" stroke-opacity="1" stroke-miterlimit="4"/></g><g fill="#000000" fill-opacity="1"><g transform="translate(77.278887, 43.859772)"><g><path d="M 4.765625 0.28125 C 4.109375 0.28125 3.609375 0.0976562 3.265625 -0.265625 C 2.921875 -0.640625 2.75 -1.15625 2.75 -1.8125 L 2.75 -22.6875 C 2.75 -23.351562 2.929688 -23.863281 3.296875 -24.21875 C 3.671875 -24.582031 4.179688 -24.765625 4.828125 -24.765625 C 5.410156 -24.765625 5.867188 -24.65625 6.203125 -24.4375 C 6.535156 -24.21875 6.84375 -23.84375 7.125 -23.3125 L 15.703125 -7.4375 L 14.59375 -7.4375 L 23.171875 -23.3125 C 23.441406 -23.84375 23.738281 -24.21875 24.0625 -24.4375 C 24.394531 -24.65625 24.847656 -24.765625 25.421875 -24.765625 C 26.066406 -24.765625 26.5625 -24.582031 26.90625 -24.21875 C 27.257812 -23.863281 27.4375 -23.351562 27.4375 -22.6875 L 27.4375 -1.8125 C 27.4375 -1.15625 27.269531 -0.640625 26.9375 -0.265625 C 26.601562 0.0976562 26.097656 0.28125 25.421875 0.28125 C 24.773438 0.28125 24.273438 0.0976562 23.921875 -0.265625 C 23.578125 -0.640625 23.40625 -1.15625 23.40625 -1.8125 L 23.40625 -17.890625 L 24.171875 -17.890625 L 16.875 -4.578125 C 16.644531 -4.191406 16.398438 -3.90625 16.140625 -3.71875 C 15.890625 -3.53125 15.546875 -3.4375 15.109375 -3.4375 C 14.671875 -3.4375 14.3125 -3.535156 14.03125 -3.734375 C 13.75 -3.929688 13.503906 -4.210938 13.296875 -4.578125 L 5.9375 -17.921875 L 6.765625 -17.921875 L 6.765625 -1.8125 C 6.765625 -1.15625 6.597656 -0.640625 6.265625 -0.265625 C 5.929688 0.0976562 5.429688 0.28125 4.765625 0.28125 Z M 4.765625 0.28125 "/></g></g></g><g fill="#000000" fill-opacity="1"><g transform="translate(107.428699, 43.859772)"><g><path d="M 2.921875 0.28125 C 2.359375 0.28125 1.910156 0.15625 1.578125 -0.09375 C 1.242188 -0.351562 1.039062 -0.695312 0.96875 -1.125 C 0.90625 -1.550781 0.988281 -2.035156 1.21875 -2.578125 L 10.390625 -22.890625 C 10.691406 -23.554688 11.054688 -24.035156 11.484375 -24.328125 C 11.910156 -24.617188 12.398438 -24.765625 12.953125 -24.765625 C 13.484375 -24.765625 13.960938 -24.617188 14.390625 -24.328125 C 14.828125 -24.035156 15.191406 -23.554688 15.484375 -22.890625 L 24.703125 -2.578125 C 24.953125 -2.035156 25.039062 -1.546875 24.96875 -1.109375 C 24.90625 -0.671875 24.707031 -0.328125 24.375 -0.078125 C 24.050781 0.160156 23.625 0.28125 23.09375 0.28125 C 22.445312 0.28125 21.941406 0.125 21.578125 -0.1875 C 21.222656 -0.5 20.90625 -0.976562 20.625 -1.625 L 18.375 -6.875 L 20.25 -5.65625 L 5.59375 -5.65625 L 7.46875 -6.875 L 5.25 -1.625 C 4.945312 -0.957031 4.632812 -0.472656 4.3125 -0.171875 C 3.988281 0.128906 3.523438 0.28125 2.921875 0.28125 Z M 12.890625 -19.65625 L 8.03125 -8.09375 L 7.125 -9.203125 L 18.71875 -9.203125 L 17.859375 -8.09375 L 12.953125 -19.65625 Z M 12.890625 -19.65625 "/></g></g></g><g fill="#000000" fill-opacity="1"><g transform="translate(133.271388, 43.859772)"><g><path d="M 4.890625 0.28125 C 4.179688 0.28125 3.632812 0.078125 3.25 -0.328125 C 2.863281 -0.734375 2.671875 -1.296875 2.671875 -2.015625 L 2.671875 -22.515625 C 2.671875 -23.253906 2.863281 -23.8125 3.25 -24.1875 C 3.632812 -24.570312 4.179688 -24.765625 4.890625 -24.765625 C 5.609375 -24.765625 6.160156 -24.570312 6.546875 -24.1875 C 6.929688 -23.8125 7.125 -23.253906 7.125 -22.515625 L 7.125 -13.65625 L 7.1875 -13.65625 L 17.15625 -23.65625 C 17.53125 -24.019531 17.898438 -24.296875 18.265625 -24.484375 C 18.640625 -24.671875 19.054688 -24.765625 19.515625 -24.765625 C 20.191406 -24.765625 20.671875 -24.585938 20.953125 -24.234375 C 21.242188 -23.890625 21.359375 -23.484375 21.296875 -23.015625 C 21.242188 -22.554688 21.019531 -22.132812 20.625 -21.75 L 10.484375 -11.703125 L 10.53125 -13.71875 L 21.125 -2.953125 C 21.601562 -2.484375 21.851562 -1.992188 21.875 -1.484375 C 21.90625 -0.984375 21.75 -0.5625 21.40625 -0.21875 C 21.070312 0.113281 20.582031 0.28125 19.9375 0.28125 C 19.382812 0.28125 18.9375 0.164062 18.59375 -0.0625 C 18.257812 -0.300781 17.875 -0.640625 17.4375 -1.078125 L 7.1875 -11.328125 L 7.125 -11.328125 L 7.125 -2.015625 C 7.125 -1.296875 6.9375 -0.734375 6.5625 -0.328125 C 6.195312 0.078125 5.640625 0.28125 4.890625 0.28125 Z M 4.890625 0.28125 "/></g></g></g><g fill="#000000" fill-opacity="1"><g transform="translate(155.501582, 43.859772)"><g><path d="M 2.921875 0.28125 C 2.359375 0.28125 1.910156 0.15625 1.578125 -0.09375 C 1.242188 -0.351562 1.039062 -0.695312 0.96875 -1.125 C 0.90625 -1.550781 0.988281 -2.035156 1.21875 -2.578125 L 10.390625 -22.890625 C 10.691406 -23.554688 11.054688 -24.035156 11.484375 -24.328125 C 11.910156 -24.617188 12.398438 -24.765625 12.953125 -24.765625 C 13.484375 -24.765625 13.960938 -24.617188 14.390625 -24.328125 C 14.828125 -24.035156 15.191406 -23.554688 15.484375 -22.890625 L 24.703125 -2.578125 C 24.953125 -2.035156 25.039062 -1.546875 24.96875 -1.109375 C 24.90625 -0.671875 24.707031 -0.328125 24.375 -0.078125 C 24.050781 0.160156 23.625 0.28125 23.09375 0.28125 C 22.445312 0.28125 21.941406 0.125 21.578125 -0.1875 C 21.222656 -0.5 20.90625 -0.976562 20.625 -1.625 L 18.375 -6.875 L 20.25 -5.65625 L 5.59375 -5.65625 L 7.46875 -6.875 L 5.25 -1.625 C 4.945312 -0.957031 4.632812 -0.472656 4.3125 -0.171875 C 3.988281 0.128906 3.523438 0.28125 2.921875 0.28125 Z M 12.890625 -19.65625 L 8.03125 -8.09375 L 7.125 -9.203125 L 18.71875 -9.203125 L 17.859375 -8.09375 L 12.953125 -19.65625 Z M 12.890625 -19.65625 "/></g></g></g><g fill="#000000" fill-opacity="1"><g transform="translate(181.344271, 43.859772)"><g><path d="M 4.765625 0.28125 C 4.085938 0.28125 3.566406 0.0976562 3.203125 -0.265625 C 2.847656 -0.640625 2.671875 -1.175781 2.671875 -1.875 L 2.671875 -22.546875 C 2.671875 -23.265625 2.847656 -23.8125 3.203125 -24.1875 C 3.566406 -24.570312 4.039062 -24.765625 4.625 -24.765625 C 5.15625 -24.765625 5.550781 -24.664062 5.8125 -24.46875 C 6.082031 -24.269531 6.398438 -23.941406 6.765625 -23.484375 L 20.078125 -6.21875 L 19.171875 -6.21875 L 19.171875 -22.640625 C 19.171875 -23.316406 19.347656 -23.835938 19.703125 -24.203125 C 20.066406 -24.578125 20.582031 -24.765625 21.25 -24.765625 C 21.925781 -24.765625 22.4375 -24.578125 22.78125 -24.203125 C 23.132812 -23.835938 23.3125 -23.316406 23.3125 -22.640625 L 23.3125 -1.8125 C 23.3125 -1.15625 23.144531 -0.640625 22.8125 -0.265625 C 22.488281 0.0976562 22.050781 0.28125 21.5 0.28125 C 20.96875 0.28125 20.546875 0.175781 20.234375 -0.03125 C 19.921875 -0.238281 19.578125 -0.578125 19.203125 -1.046875 L 5.9375 -18.3125 L 6.8125 -18.3125 L 6.8125 -1.875 C 6.8125 -1.175781 6.632812 -0.640625 6.28125 -0.265625 C 5.9375 0.0976562 5.429688 0.28125 4.765625 0.28125 Z M 4.765625 0.28125 "/></g></g></g><g fill="#000000" fill-opacity="1"><g transform="translate(207.325904, 43.859772)"><g><path d="M 2.921875 0.28125 C 2.359375 0.28125 1.910156 0.15625 1.578125 -0.09375 C 1.242188 -0.351562 1.039062 -0.695312 0.96875 -1.125 C 0.90625 -1.550781 0.988281 -2.035156 1.21875 -2.578125 L 10.390625 -22.890625 C 10.691406 -23.554688 11.054688 -24.035156 11.484375 -24.328125 C 11.910156 -24.617188 12.398438 -24.765625 12.953125 -24.765625 C 13.484375 -24.765625 13.960938 -24.617188 14.390625 -24.328125 C 14.828125 -24.035156 15.191406 -23.554688 15.484375 -22.890625 L 24.703125 -2.578125 C 24.953125 -2.035156 25.039062 -1.546875 24.96875 -1.109375 C 24.90625 -0.671875 24.707031 -0.328125 24.375 -0.078125 C 24.050781 0.160156 23.625 0.28125 23.09375 0.28125 C 22.445312 0.28125 21.941406 0.125 21.578125 -0.1875 C 21.222656 -0.5 20.90625 -0.976562 20.625 -1.625 L 18.375 -6.875 L 20.25 -5.65625 L 5.59375 -5.65625 L 7.46875 -6.875 L 5.25 -1.625 C 4.945312 -0.957031 4.632812 -0.472656 4.3125 -0.171875 C 3.988281 0.128906 3.523438 0.28125 2.921875 0.28125 Z M 12.890625 -19.65625 L 8.03125 -8.09375 L 7.125 -9.203125 L 18.71875 -9.203125 L 17.859375 -8.09375 L 12.953125 -19.65625 Z M 12.890625 -19.65625 "/></g></g></g><g fill="#000000" fill-opacity="1"><g transform="translate(233.168593, 43.859772)"><g><path d="M 4.765625 0.28125 C 4.085938 0.28125 3.566406 0.0976562 3.203125 -0.265625 C 2.847656 -0.640625 2.671875 -1.175781 2.671875 -1.875 L 2.671875 -22.546875 C 2.671875 -23.265625 2.847656 -23.8125 3.203125 -24.1875 C 3.566406 -24.570312 4.039062 -24.765625 4.625 -24.765625 C 5.15625 -24.765625 5.550781 -24.664062 5.8125 -24.46875 C 6.082031 -24.269531 6.398438 -23.941406 6.765625 -23.484375 L 20.078125 -6.21875 L 19.171875 -6.21875 L 19.171875 -22.640625 C 19.171875 -23.316406 19.347656 -23.835938 19.703125 -24.203125 C 20.066406 -24.578125 20.582031 -24.765625 21.25 -24.765625 C 21.925781 -24.765625 22.4375 -24.578125 22.78125 -24.203125 C 23.132812 -23.835938 23.3125 -23.316406 23.3125 -22.640625 L 23.3125 -1.8125 C 23.3125 -1.15625 23.144531 -0.640625 22.8125 -0.265625 C 22.488281 0.0976562 22.050781 0.28125 21.5 0.28125 C 20.96875 0.28125 20.546875 0.175781 20.234375 -0.03125 C 19.921875 -0.238281 19.578125 -0.578125 19.203125 -1.046875 L 5.9375 -18.3125 L 6.8125 -18.3125 L 6.8125 -1.875 C 6.8125 -1.175781 6.632812 -0.640625 6.28125 -0.265625 C 5.9375 0.0976562 5.429688 0.28125 4.765625 0.28125 Z M 4.765625 0.28125 "/></g></g></g><g fill="#000000" fill-opacity="1"><g transform="translate(259.150226, 43.859772)"><g><path d="M 2.921875 0.28125 C 2.359375 0.28125 1.910156 0.15625 1.578125 -0.09375 C 1.242188 -0.351562 1.039062 -0.695312 0.96875 -1.125 C 0.90625 -1.550781 0.988281 -2.035156 1.21875 -2.578125 L 10.390625 -22.890625 C 10.691406 -23.554688 11.054688 -24.035156 11.484375 -24.328125 C 11.910156 -24.617188 12.398438 -24.765625 12.953125 -24.765625 C 13.484375 -24.765625 13.960938 -24.617188 14.390625 -24.328125 C 14.828125 -24.035156 15.191406 -23.554688 15.484375 -22.890625 L 24.703125 -2.578125 C 24.953125 -2.035156 25.039062 -1.546875 24.96875 -1.109375 C 24.90625 -0.671875 24.707031 -0.328125 24.375 -0.078125 C 24.050781 0.160156 23.625 0.28125 23.09375 0.28125 C 22.445312 0.28125 21.941406 0.125 21.578125 -0.1875 C 21.222656 -0.5 20.90625 -0.976562 20.625 -1.625 L 18.375 -6.875 L 20.25 -5.65625 L 5.59375 -5.65625 L 7.46875 -6.875 L 5.25 -1.625 C 4.945312 -0.957031 4.632812 -0.472656 4.3125 -0.171875 C 3.988281 0.128906 3.523438 0.28125 2.921875 0.28125 Z M 12.890625 -19.65625 L 8.03125 -8.09375 L 7.125 -9.203125 L 18.71875 -9.203125 L 17.859375 -8.09375 L 12.953125 -19.65625 Z M 12.890625 -19.65625 "/></g></g></g><g fill="#000000" fill-opacity="1"><g transform="translate(284.715017, 43.859772)"><g><path d="M 11.109375 0.34375 C 10.097656 0.34375 9.082031 0.265625 8.0625 0.109375 C 7.039062 -0.0351562 6.078125 -0.265625 5.171875 -0.578125 C 4.273438 -0.890625 3.46875 -1.273438 2.75 -1.734375 C 2.332031 -2.015625 2.039062 -2.347656 1.875 -2.734375 C 1.707031 -3.128906 1.65625 -3.519531 1.71875 -3.90625 C 1.78125 -4.289062 1.929688 -4.625 2.171875 -4.90625 C 2.410156 -5.195312 2.710938 -5.378906 3.078125 -5.453125 C 3.453125 -5.523438 3.863281 -5.421875 4.3125 -5.140625 C 5.320312 -4.535156 6.394531 -4.09375 7.53125 -3.8125 C 8.664062 -3.539062 9.859375 -3.40625 11.109375 -3.40625 C 12.941406 -3.40625 14.273438 -3.710938 15.109375 -4.328125 C 15.941406 -4.941406 16.359375 -5.734375 16.359375 -6.703125 C 16.359375 -7.515625 16.0625 -8.148438 15.46875 -8.609375 C 14.882812 -9.078125 13.875 -9.460938 12.4375 -9.765625 L 8.609375 -10.5625 C 6.410156 -11.019531 4.769531 -11.796875 3.6875 -12.890625 C 2.613281 -13.992188 2.078125 -15.453125 2.078125 -17.265625 C 2.078125 -18.398438 2.304688 -19.429688 2.765625 -20.359375 C 3.234375 -21.285156 3.890625 -22.082031 4.734375 -22.75 C 5.585938 -23.425781 6.597656 -23.941406 7.765625 -24.296875 C 8.929688 -24.648438 10.222656 -24.828125 11.640625 -24.828125 C 13.023438 -24.828125 14.34375 -24.65625 15.59375 -24.3125 C 16.84375 -23.96875 17.96875 -23.457031 18.96875 -22.78125 C 19.332031 -22.53125 19.578125 -22.21875 19.703125 -21.84375 C 19.835938 -21.476562 19.867188 -21.113281 19.796875 -20.75 C 19.722656 -20.394531 19.5625 -20.085938 19.3125 -19.828125 C 19.0625 -19.578125 18.742188 -19.425781 18.359375 -19.375 C 17.972656 -19.332031 17.535156 -19.453125 17.046875 -19.734375 C 16.191406 -20.210938 15.320312 -20.554688 14.4375 -20.765625 C 13.5625 -20.972656 12.613281 -21.078125 11.59375 -21.078125 C 10.53125 -21.078125 9.617188 -20.925781 8.859375 -20.625 C 8.097656 -20.332031 7.515625 -19.910156 7.109375 -19.359375 C 6.703125 -18.816406 6.5 -18.175781 6.5 -17.4375 C 6.5 -16.601562 6.773438 -15.9375 7.328125 -15.4375 C 7.878906 -14.9375 8.828125 -14.550781 10.171875 -14.28125 L 13.96875 -13.484375 C 16.257812 -12.992188 17.960938 -12.226562 19.078125 -11.1875 C 20.203125 -10.144531 20.765625 -8.753906 20.765625 -7.015625 C 20.765625 -5.898438 20.539062 -4.890625 20.09375 -3.984375 C 19.644531 -3.085938 18.992188 -2.3125 18.140625 -1.65625 C 17.296875 -1.007812 16.285156 -0.515625 15.109375 -0.171875 C 13.929688 0.171875 12.597656 0.34375 11.109375 0.34375 Z M 11.109375 0.34375 "/></g></g></g><g fill="#000000" fill-opacity="1"><g transform="translate(306.632687, 43.859772)"><g><path d="M 4.890625 0.28125 C 4.179688 0.28125 3.632812 0.078125 3.25 -0.328125 C 2.863281 -0.734375 2.671875 -1.296875 2.671875 -2.015625 L 2.671875 -22.46875 C 2.671875 -23.207031 2.863281 -23.773438 3.25 -24.171875 C 3.632812 -24.566406 4.179688 -24.765625 4.890625 -24.765625 C 5.609375 -24.765625 6.160156 -24.566406 6.546875 -24.171875 C 6.929688 -23.773438 7.125 -23.207031 7.125 -22.46875 L 7.125 -2.015625 C 7.125 -1.296875 6.9375 -0.734375 6.5625 -0.328125 C 6.195312 0.078125 5.640625 0.28125 4.890625 0.28125 Z M 4.890625 0.28125 "/></g></g></g><g fill="#000000" fill-opacity="1"><g transform="translate(316.427889, 43.859772)"><g><path d="M 4.765625 0.28125 C 4.085938 0.28125 3.566406 0.0976562 3.203125 -0.265625 C 2.847656 -0.640625 2.671875 -1.175781 2.671875 -1.875 L 2.671875 -22.546875 C 2.671875 -23.265625 2.847656 -23.8125 3.203125 -24.1875 C 3.566406 -24.570312 4.039062 -24.765625 4.625 -24.765625 C 5.15625 -24.765625 5.550781 -24.664062 5.8125 -24.46875 C 6.082031 -24.269531 6.398438 -23.941406 6.765625 -23.484375 L 20.078125 -6.21875 L 19.171875 -6.21875 L 19.171875 -22.640625 C 19.171875 -23.316406 19.347656 -23.835938 19.703125 -24.203125 C 20.066406 -24.578125 20.582031 -24.765625 21.25 -24.765625 C 21.925781 -24.765625 22.4375 -24.578125 22.78125 -24.203125 C 23.132812 -23.835938 23.3125 -23.316406 23.3125 -22.640625 L 23.3125 -1.8125 C 23.3125 -1.15625 23.144531 -0.640625 22.8125 -0.265625 C 22.488281 0.0976562 22.050781 0.28125 21.5 0.28125 C 20.96875 0.28125 20.546875 0.175781 20.234375 -0.03125 C 19.921875 -0.238281 19.578125 -0.578125 19.203125 -1.046875 L 5.9375 -18.3125 L 6.8125 -18.3125 L 6.8125 -1.875 C 6.8125 -1.175781 6.632812 -0.640625 6.28125 -0.265625 C 5.9375 0.0976562 5.429688 0.28125 4.765625 0.28125 Z M 4.765625 0.28125 "/></g></g></g></svg>