<svg xmlns="http://www.w3.org/2000/svg" xmlns:xlink="http://www.w3.org/1999/xlink" width="848" zoomAndPan="magnify" viewBox="0 0 636 167.999997" height="224" preserveAspectRatio="xMidYMid meet" version="1.0"><defs><g/><clipPath id="853b2c2740"><path d="M 0 0 L 635.835938 0 L 635.835938 167.953125 L 0 167.953125 Z M 0 0 " clip-rule="nonzero"/></clipPath></defs><g clip-path="url(#853b2c2740)"><path stroke-linecap="butt" transform="matrix(0.75, 0, 0, 0.75, 0.00154795, -0.000000000000031974)" fill="none" stroke-linejoin="miter" d="M -0.00206393 0.000000000000042633 L 847.779237 0.000000000000042633 L 847.779237 223.937513 L -0.00206393 223.937513 Z M -0.00206393 0.000000000000042633 " stroke="#000000" stroke-width="12" stroke-opacity="1" stroke-miterlimit="4"/></g><g fill="#000000" fill-opacity="1"><g transform="translate(43.66717, 71.980249)"><g><path d="M 4.109375 0.234375 C 3.523438 0.234375 3.078125 0.078125 2.765625 -0.234375 C 2.460938 -0.554688 2.3125 -1.019531 2.3125 -1.625 L 2.3125 -19.46875 C 2.3125 -20.09375 2.460938 -20.566406 2.765625 -20.890625 C 3.078125 -21.222656 3.484375 -21.390625 3.984375 -21.390625 C 4.453125 -21.390625 4.800781 -21.300781 5.03125 -21.125 C 5.257812 -20.957031 5.53125 -20.675781 5.84375 -20.28125 L 17.34375 -5.375 L 16.5625 -5.375 L 16.5625 -19.5625 C 16.5625 -20.144531 16.710938 -20.59375 17.015625 -20.90625 C 17.328125 -21.226562 17.773438 -21.390625 18.359375 -21.390625 C 18.941406 -21.390625 19.378906 -21.226562 19.671875 -20.90625 C 19.972656 -20.59375 20.125 -20.144531 20.125 -19.5625 L 20.125 -1.5625 C 20.125 -1 19.984375 -0.554688 19.703125 -0.234375 C 19.429688 0.078125 19.050781 0.234375 18.5625 0.234375 C 18.101562 0.234375 17.738281 0.144531 17.46875 -0.03125 C 17.195312 -0.207031 16.90625 -0.5 16.59375 -0.90625 L 5.125 -15.8125 L 5.875 -15.8125 L 5.875 -1.625 C 5.875 -1.019531 5.722656 -0.554688 5.421875 -0.234375 C 5.128906 0.078125 4.691406 0.234375 4.109375 0.234375 Z M 4.109375 0.234375 "/></g></g></g><g fill="#000000" fill-opacity="1"><g transform="translate(66.107145, 71.980249)"><g><path d="M 9.1875 0.296875 C 7.519531 0.296875 6.085938 -0.0078125 4.890625 -0.625 C 3.691406 -1.25 2.765625 -2.128906 2.109375 -3.265625 C 1.460938 -4.410156 1.140625 -5.757812 1.140625 -7.3125 C 1.140625 -8.832031 1.453125 -10.160156 2.078125 -11.296875 C 2.710938 -12.441406 3.582031 -13.335938 4.6875 -13.984375 C 5.800781 -14.640625 7.066406 -14.96875 8.484375 -14.96875 C 9.523438 -14.96875 10.460938 -14.796875 11.296875 -14.453125 C 12.128906 -14.117188 12.835938 -13.628906 13.421875 -12.984375 C 14.015625 -12.347656 14.460938 -11.570312 14.765625 -10.65625 C 15.078125 -9.75 15.234375 -8.726562 15.234375 -7.59375 C 15.234375 -7.226562 15.109375 -6.953125 14.859375 -6.765625 C 14.609375 -6.578125 14.253906 -6.484375 13.796875 -6.484375 L 4.171875 -6.484375 L 4.171875 -8.640625 L 12.59375 -8.640625 L 12.125 -8.1875 C 12.125 -9.101562 11.988281 -9.875 11.71875 -10.5 C 11.445312 -11.125 11.054688 -11.597656 10.546875 -11.921875 C 10.035156 -12.253906 9.398438 -12.421875 8.640625 -12.421875 C 7.796875 -12.421875 7.078125 -12.222656 6.484375 -11.828125 C 5.898438 -11.441406 5.453125 -10.894531 5.140625 -10.1875 C 4.835938 -9.476562 4.6875 -8.632812 4.6875 -7.65625 L 4.6875 -7.4375 C 4.6875 -5.800781 5.066406 -4.578125 5.828125 -3.765625 C 6.597656 -2.953125 7.734375 -2.546875 9.234375 -2.546875 C 9.753906 -2.546875 10.335938 -2.609375 10.984375 -2.734375 C 11.640625 -2.867188 12.257812 -3.097656 12.84375 -3.421875 C 13.257812 -3.660156 13.628906 -3.765625 13.953125 -3.734375 C 14.273438 -3.703125 14.53125 -3.585938 14.71875 -3.390625 C 14.90625 -3.191406 15.019531 -2.945312 15.0625 -2.65625 C 15.101562 -2.363281 15.046875 -2.066406 14.890625 -1.765625 C 14.742188 -1.460938 14.488281 -1.203125 14.125 -0.984375 C 13.425781 -0.546875 12.617188 -0.222656 11.703125 -0.015625 C 10.796875 0.191406 9.957031 0.296875 9.1875 0.296875 Z M 9.1875 0.296875 "/></g></g></g><g fill="#000000" fill-opacity="1"><g transform="translate(82.367127, 71.980249)"><g><path d="M 6.953125 0.296875 C 5.296875 0.296875 4.046875 -0.175781 3.203125 -1.125 C 2.367188 -2.070312 1.953125 -3.46875 1.953125 -5.3125 L 1.953125 -19.5 C 1.953125 -20.125 2.109375 -20.59375 2.421875 -20.90625 C 2.742188 -21.226562 3.207031 -21.390625 3.8125 -21.390625 C 4.40625 -21.390625 4.867188 -21.226562 5.203125 -20.90625 C 5.535156 -20.59375 5.703125 -20.125 5.703125 -19.5 L 5.703125 -5.484375 C 5.703125 -4.566406 5.894531 -3.890625 6.28125 -3.453125 C 6.675781 -3.015625 7.234375 -2.796875 7.953125 -2.796875 C 8.109375 -2.796875 8.253906 -2.796875 8.390625 -2.796875 C 8.535156 -2.804688 8.675781 -2.820312 8.8125 -2.84375 C 9.09375 -2.882812 9.285156 -2.8125 9.390625 -2.625 C 9.492188 -2.4375 9.546875 -2.050781 9.546875 -1.46875 C 9.546875 -0.96875 9.441406 -0.578125 9.234375 -0.296875 C 9.035156 -0.015625 8.707031 0.148438 8.25 0.203125 C 8.050781 0.222656 7.84375 0.242188 7.625 0.265625 C 7.40625 0.285156 7.179688 0.296875 6.953125 0.296875 Z M 6.953125 0.296875 "/></g></g></g><g fill="#000000" fill-opacity="1"><g transform="translate(91.937122, 71.980249)"><g><path d="M 6.78125 0.296875 C 5.71875 0.296875 4.769531 0.09375 3.9375 -0.3125 C 3.113281 -0.726562 2.46875 -1.285156 2 -1.984375 C 1.53125 -2.679688 1.296875 -3.46875 1.296875 -4.34375 C 1.296875 -5.425781 1.570312 -6.28125 2.125 -6.90625 C 2.6875 -7.539062 3.597656 -8 4.859375 -8.28125 C 6.117188 -8.5625 7.8125 -8.703125 9.9375 -8.703125 L 11.4375 -8.703125 L 11.4375 -6.546875 L 9.953125 -6.546875 C 8.710938 -6.546875 7.722656 -6.484375 6.984375 -6.359375 C 6.242188 -6.242188 5.71875 -6.039062 5.40625 -5.75 C 5.101562 -5.457031 4.953125 -5.050781 4.953125 -4.53125 C 4.953125 -3.875 5.179688 -3.332031 5.640625 -2.90625 C 6.097656 -2.488281 6.738281 -2.28125 7.5625 -2.28125 C 8.21875 -2.28125 8.800781 -2.429688 9.3125 -2.734375 C 9.820312 -3.046875 10.226562 -3.472656 10.53125 -4.015625 C 10.832031 -4.554688 10.984375 -5.175781 10.984375 -5.875 L 10.984375 -9.328125 C 10.984375 -10.328125 10.757812 -11.046875 10.3125 -11.484375 C 9.875 -11.929688 9.132812 -12.15625 8.09375 -12.15625 C 7.519531 -12.15625 6.894531 -12.082031 6.21875 -11.9375 C 5.550781 -11.800781 4.847656 -11.5625 4.109375 -11.21875 C 3.734375 -11.039062 3.398438 -10.988281 3.109375 -11.0625 C 2.816406 -11.144531 2.585938 -11.3125 2.421875 -11.5625 C 2.265625 -11.8125 2.1875 -12.085938 2.1875 -12.390625 C 2.1875 -12.691406 2.265625 -12.984375 2.421875 -13.265625 C 2.585938 -13.554688 2.859375 -13.773438 3.234375 -13.921875 C 4.160156 -14.296875 5.046875 -14.5625 5.890625 -14.71875 C 6.742188 -14.882812 7.519531 -14.96875 8.21875 -14.96875 C 9.65625 -14.96875 10.835938 -14.75 11.765625 -14.3125 C 12.703125 -13.875 13.398438 -13.207031 13.859375 -12.3125 C 14.316406 -11.425781 14.546875 -10.28125 14.546875 -8.875 L 14.546875 -1.6875 C 14.546875 -1.0625 14.394531 -0.582031 14.09375 -0.25 C 13.800781 0.0703125 13.375 0.234375 12.8125 0.234375 C 12.25 0.234375 11.8125 0.0703125 11.5 -0.25 C 11.195312 -0.582031 11.046875 -1.0625 11.046875 -1.6875 L 11.046875 -3.125 L 11.28125 -3.125 C 11.132812 -2.414062 10.859375 -1.804688 10.453125 -1.296875 C 10.046875 -0.796875 9.53125 -0.40625 8.90625 -0.125 C 8.289062 0.15625 7.582031 0.296875 6.78125 0.296875 Z M 6.78125 0.296875 "/></g></g></g><g fill="#000000" fill-opacity="1"><g transform="translate(108.197104, 71.980249)"><g><path d="M 5.671875 5.640625 C 5.234375 5.640625 4.875 5.523438 4.59375 5.296875 C 4.3125 5.066406 4.144531 4.757812 4.09375 4.375 C 4.039062 4 4.109375 3.601562 4.296875 3.1875 L 6.328125 -1.34375 L 6.328125 0.203125 L 0.875 -12.421875 C 0.6875 -12.859375 0.625 -13.265625 0.6875 -13.640625 C 0.75 -14.023438 0.929688 -14.332031 1.234375 -14.5625 C 1.546875 -14.789062 1.972656 -14.90625 2.515625 -14.90625 C 2.972656 -14.90625 3.34375 -14.800781 3.625 -14.59375 C 3.90625 -14.382812 4.15625 -13.988281 4.375 -13.40625 L 8.4375 -3.296875 L 7.53125 -3.296875 L 11.671875 -13.4375 C 11.890625 -14 12.148438 -14.382812 12.453125 -14.59375 C 12.753906 -14.800781 13.15625 -14.90625 13.65625 -14.90625 C 14.09375 -14.90625 14.441406 -14.789062 14.703125 -14.5625 C 14.960938 -14.332031 15.117188 -14.03125 15.171875 -13.65625 C 15.234375 -13.289062 15.164062 -12.890625 14.96875 -12.453125 L 7.6875 4.203125 C 7.425781 4.765625 7.144531 5.144531 6.84375 5.34375 C 6.539062 5.539062 6.148438 5.640625 5.671875 5.640625 Z M 5.671875 5.640625 "/></g></g></g><g fill="#000000" fill-opacity="1"><g transform="translate(123.677091, 71.980249)"><g><path d="M 6.78125 0.296875 C 5.71875 0.296875 4.769531 0.09375 3.9375 -0.3125 C 3.113281 -0.726562 2.46875 -1.285156 2 -1.984375 C 1.53125 -2.679688 1.296875 -3.46875 1.296875 -4.34375 C 1.296875 -5.425781 1.570312 -6.28125 2.125 -6.90625 C 2.6875 -7.539062 3.597656 -8 4.859375 -8.28125 C 6.117188 -8.5625 7.8125 -8.703125 9.9375 -8.703125 L 11.4375 -8.703125 L 11.4375 -6.546875 L 9.953125 -6.546875 C 8.710938 -6.546875 7.722656 -6.484375 6.984375 -6.359375 C 6.242188 -6.242188 5.71875 -6.039062 5.40625 -5.75 C 5.101562 -5.457031 4.953125 -5.050781 4.953125 -4.53125 C 4.953125 -3.875 5.179688 -3.332031 5.640625 -2.90625 C 6.097656 -2.488281 6.738281 -2.28125 7.5625 -2.28125 C 8.21875 -2.28125 8.800781 -2.429688 9.3125 -2.734375 C 9.820312 -3.046875 10.226562 -3.472656 10.53125 -4.015625 C 10.832031 -4.554688 10.984375 -5.175781 10.984375 -5.875 L 10.984375 -9.328125 C 10.984375 -10.328125 10.757812 -11.046875 10.3125 -11.484375 C 9.875 -11.929688 9.132812 -12.15625 8.09375 -12.15625 C 7.519531 -12.15625 6.894531 -12.082031 6.21875 -11.9375 C 5.550781 -11.800781 4.847656 -11.5625 4.109375 -11.21875 C 3.734375 -11.039062 3.398438 -10.988281 3.109375 -11.0625 C 2.816406 -11.144531 2.585938 -11.3125 2.421875 -11.5625 C 2.265625 -11.8125 2.1875 -12.085938 2.1875 -12.390625 C 2.1875 -12.691406 2.265625 -12.984375 2.421875 -13.265625 C 2.585938 -13.554688 2.859375 -13.773438 3.234375 -13.921875 C 4.160156 -14.296875 5.046875 -14.5625 5.890625 -14.71875 C 6.742188 -14.882812 7.519531 -14.96875 8.21875 -14.96875 C 9.65625 -14.96875 10.835938 -14.75 11.765625 -14.3125 C 12.703125 -13.875 13.398438 -13.207031 13.859375 -12.3125 C 14.316406 -11.425781 14.546875 -10.28125 14.546875 -8.875 L 14.546875 -1.6875 C 14.546875 -1.0625 14.394531 -0.582031 14.09375 -0.25 C 13.800781 0.0703125 13.375 0.234375 12.8125 0.234375 C 12.25 0.234375 11.8125 0.0703125 11.5 -0.25 C 11.195312 -0.582031 11.046875 -1.0625 11.046875 -1.6875 L 11.046875 -3.125 L 11.28125 -3.125 C 11.132812 -2.414062 10.859375 -1.804688 10.453125 -1.296875 C 10.046875 -0.796875 9.53125 -0.40625 8.90625 -0.125 C 8.289062 0.15625 7.582031 0.296875 6.78125 0.296875 Z M 6.78125 0.296875 "/></g></g></g><g fill="#000000" fill-opacity="1"><g transform="translate(140.08707, 71.980249)"><g><path d="M 3.8125 0.234375 C 3.207031 0.234375 2.742188 0.0703125 2.421875 -0.25 C 2.109375 -0.582031 1.953125 -1.0625 1.953125 -1.6875 L 1.953125 -13.015625 C 1.953125 -13.640625 2.109375 -14.109375 2.421875 -14.421875 C 2.742188 -14.742188 3.195312 -14.90625 3.78125 -14.90625 C 4.363281 -14.90625 4.8125 -14.742188 5.125 -14.421875 C 5.445312 -14.109375 5.609375 -13.640625 5.609375 -13.015625 L 5.609375 -10.984375 L 5.28125 -11.734375 C 5.71875 -12.785156 6.398438 -13.585938 7.328125 -14.140625 C 8.265625 -14.691406 9.320312 -14.96875 10.5 -14.96875 C 11.675781 -14.96875 12.644531 -14.75 13.40625 -14.3125 C 14.164062 -13.875 14.734375 -13.207031 15.109375 -12.3125 C 15.492188 -11.425781 15.6875 -10.300781 15.6875 -8.9375 L 15.6875 -1.6875 C 15.6875 -1.0625 15.523438 -0.582031 15.203125 -0.25 C 14.890625 0.0703125 14.429688 0.234375 13.828125 0.234375 C 13.234375 0.234375 12.769531 0.0703125 12.4375 -0.25 C 12.101562 -0.582031 11.9375 -1.0625 11.9375 -1.6875 L 11.9375 -8.765625 C 11.9375 -9.898438 11.722656 -10.726562 11.296875 -11.25 C 10.867188 -11.769531 10.203125 -12.03125 9.296875 -12.03125 C 8.203125 -12.03125 7.328125 -11.679688 6.671875 -10.984375 C 6.023438 -10.296875 5.703125 -9.382812 5.703125 -8.25 L 5.703125 -1.6875 C 5.703125 -0.40625 5.070312 0.234375 3.8125 0.234375 Z M 3.8125 0.234375 "/></g></g></g><g fill="#000000" fill-opacity="1"><g transform="translate(157.637054, 71.980249)"><g/></g></g><g fill="#000000" fill-opacity="1"><g transform="translate(165.76705, 71.980249)"><g><path d="M 3.8125 0.234375 C 3.207031 0.234375 2.742188 0.0703125 2.421875 -0.25 C 2.109375 -0.582031 1.953125 -1.0625 1.953125 -1.6875 L 1.953125 -19.5 C 1.953125 -20.125 2.109375 -20.59375 2.421875 -20.90625 C 2.742188 -21.226562 3.207031 -21.390625 3.8125 -21.390625 C 4.40625 -21.390625 4.867188 -21.226562 5.203125 -20.90625 C 5.535156 -20.59375 5.703125 -20.125 5.703125 -19.5 L 5.703125 -8.4375 L 5.765625 -8.4375 L 10.703125 -13.65625 C 11.109375 -14.050781 11.457031 -14.359375 11.75 -14.578125 C 12.050781 -14.796875 12.460938 -14.90625 12.984375 -14.90625 C 13.503906 -14.90625 13.898438 -14.769531 14.171875 -14.5 C 14.441406 -14.226562 14.578125 -13.898438 14.578125 -13.515625 C 14.578125 -13.140625 14.398438 -12.765625 14.046875 -12.390625 L 8.8125 -6.875 L 8.8125 -8.4375 L 14.546875 -2.25 C 14.910156 -1.875 15.078125 -1.488281 15.046875 -1.09375 C 15.015625 -0.707031 14.847656 -0.390625 14.546875 -0.140625 C 14.242188 0.109375 13.863281 0.234375 13.40625 0.234375 C 12.84375 0.234375 12.394531 0.125 12.0625 -0.09375 C 11.738281 -0.3125 11.378906 -0.640625 10.984375 -1.078125 L 5.765625 -6.546875 L 5.703125 -6.546875 L 5.703125 -1.6875 C 5.703125 -0.40625 5.070312 0.234375 3.8125 0.234375 Z M 3.8125 0.234375 "/></g></g></g><g fill="#000000" fill-opacity="1"><g transform="translate(181.84704, 71.980249)"><g><path d="M 7.265625 0.296875 C 6.046875 0.296875 5.035156 0.0703125 4.234375 -0.375 C 3.429688 -0.820312 2.832031 -1.492188 2.4375 -2.390625 C 2.050781 -3.296875 1.859375 -4.421875 1.859375 -5.765625 L 1.859375 -13.015625 C 1.859375 -13.660156 2.015625 -14.132812 2.328125 -14.4375 C 2.648438 -14.75 3.113281 -14.90625 3.71875 -14.90625 C 4.320312 -14.90625 4.785156 -14.75 5.109375 -14.4375 C 5.441406 -14.132812 5.609375 -13.660156 5.609375 -13.015625 L 5.609375 -5.703125 C 5.609375 -4.660156 5.816406 -3.890625 6.234375 -3.390625 C 6.660156 -2.890625 7.332031 -2.640625 8.25 -2.640625 C 9.25 -2.640625 10.066406 -2.984375 10.703125 -3.671875 C 11.347656 -4.359375 11.671875 -5.273438 11.671875 -6.421875 L 11.671875 -13.015625 C 11.671875 -13.660156 11.828125 -14.132812 12.140625 -14.4375 C 12.460938 -14.75 12.925781 -14.90625 13.53125 -14.90625 C 14.132812 -14.90625 14.597656 -14.75 14.921875 -14.4375 C 15.253906 -14.132812 15.421875 -13.660156 15.421875 -13.015625 L 15.421875 -1.6875 C 15.421875 -0.40625 14.8125 0.234375 13.59375 0.234375 C 13.007812 0.234375 12.554688 0.0703125 12.234375 -0.25 C 11.921875 -0.582031 11.765625 -1.0625 11.765625 -1.6875 L 11.765625 -3.953125 L 12.1875 -3.0625 C 11.757812 -1.976562 11.117188 -1.144531 10.265625 -0.5625 C 9.421875 0.0078125 8.421875 0.296875 7.265625 0.296875 Z M 7.265625 0.296875 "/></g></g></g><g fill="#000000" fill-opacity="1"><g transform="translate(199.217018, 71.980249)"><g><path d="M 7.59375 0.296875 C 6.3125 0.296875 5.1875 -0.0078125 4.21875 -0.625 C 3.25 -1.25 2.492188 -2.132812 1.953125 -3.28125 C 1.410156 -4.4375 1.140625 -5.789062 1.140625 -7.34375 C 1.140625 -8.925781 1.410156 -10.28125 1.953125 -11.40625 C 2.492188 -12.539062 3.25 -13.414062 4.21875 -14.03125 C 5.1875 -14.65625 6.3125 -14.96875 7.59375 -14.96875 C 8.8125 -14.96875 9.875 -14.664062 10.78125 -14.0625 C 11.695312 -13.46875 12.3125 -12.679688 12.625 -11.703125 L 12.296875 -11.703125 L 12.296875 -19.5 C 12.296875 -20.125 12.457031 -20.59375 12.78125 -20.90625 C 13.101562 -21.226562 13.5625 -21.390625 14.15625 -21.390625 C 14.757812 -21.390625 15.222656 -21.226562 15.546875 -20.90625 C 15.878906 -20.59375 16.046875 -20.125 16.046875 -19.5 L 16.046875 -1.6875 C 16.046875 -1.0625 15.882812 -0.582031 15.5625 -0.25 C 15.25 0.0703125 14.789062 0.234375 14.1875 0.234375 C 13.59375 0.234375 13.132812 0.0703125 12.8125 -0.25 C 12.488281 -0.582031 12.328125 -1.0625 12.328125 -1.6875 L 12.328125 -4.015625 L 12.65625 -3.125 C 12.351562 -2.082031 11.742188 -1.25 10.828125 -0.625 C 9.910156 -0.0078125 8.832031 0.296875 7.59375 0.296875 Z M 8.640625 -2.546875 C 9.378906 -2.546875 10.03125 -2.722656 10.59375 -3.078125 C 11.15625 -3.441406 11.585938 -3.976562 11.890625 -4.6875 C 12.203125 -5.40625 12.359375 -6.289062 12.359375 -7.34375 C 12.359375 -8.945312 12.015625 -10.144531 11.328125 -10.9375 C 10.648438 -11.726562 9.753906 -12.125 8.640625 -12.125 C 7.898438 -12.125 7.25 -11.945312 6.6875 -11.59375 C 6.125 -11.238281 5.6875 -10.707031 5.375 -10 C 5.070312 -9.289062 4.921875 -8.40625 4.921875 -7.34375 C 4.921875 -5.769531 5.257812 -4.578125 5.9375 -3.765625 C 6.613281 -2.953125 7.515625 -2.546875 8.640625 -2.546875 Z M 8.640625 -2.546875 "/></g></g></g><g fill="#000000" fill-opacity="1"><g transform="translate(217.217006, 71.980249)"><g><path d="M 6.78125 0.296875 C 5.71875 0.296875 4.769531 0.09375 3.9375 -0.3125 C 3.113281 -0.726562 2.46875 -1.285156 2 -1.984375 C 1.53125 -2.679688 1.296875 -3.46875 1.296875 -4.34375 C 1.296875 -5.425781 1.570312 -6.28125 2.125 -6.90625 C 2.6875 -7.539062 3.597656 -8 4.859375 -8.28125 C 6.117188 -8.5625 7.8125 -8.703125 9.9375 -8.703125 L 11.4375 -8.703125 L 11.4375 -6.546875 L 9.953125 -6.546875 C 8.710938 -6.546875 7.722656 -6.484375 6.984375 -6.359375 C 6.242188 -6.242188 5.71875 -6.039062 5.40625 -5.75 C 5.101562 -5.457031 4.953125 -5.050781 4.953125 -4.53125 C 4.953125 -3.875 5.179688 -3.332031 5.640625 -2.90625 C 6.097656 -2.488281 6.738281 -2.28125 7.5625 -2.28125 C 8.21875 -2.28125 8.800781 -2.429688 9.3125 -2.734375 C 9.820312 -3.046875 10.226562 -3.472656 10.53125 -4.015625 C 10.832031 -4.554688 10.984375 -5.175781 10.984375 -5.875 L 10.984375 -9.328125 C 10.984375 -10.328125 10.757812 -11.046875 10.3125 -11.484375 C 9.875 -11.929688 9.132812 -12.15625 8.09375 -12.15625 C 7.519531 -12.15625 6.894531 -12.082031 6.21875 -11.9375 C 5.550781 -11.800781 4.847656 -11.5625 4.109375 -11.21875 C 3.734375 -11.039062 3.398438 -10.988281 3.109375 -11.0625 C 2.816406 -11.144531 2.585938 -11.3125 2.421875 -11.5625 C 2.265625 -11.8125 2.1875 -12.085938 2.1875 -12.390625 C 2.1875 -12.691406 2.265625 -12.984375 2.421875 -13.265625 C 2.585938 -13.554688 2.859375 -13.773438 3.234375 -13.921875 C 4.160156 -14.296875 5.046875 -14.5625 5.890625 -14.71875 C 6.742188 -14.882812 7.519531 -14.96875 8.21875 -14.96875 C 9.65625 -14.96875 10.835938 -14.75 11.765625 -14.3125 C 12.703125 -13.875 13.398438 -13.207031 13.859375 -12.3125 C 14.316406 -11.425781 14.546875 -10.28125 14.546875 -8.875 L 14.546875 -1.6875 C 14.546875 -1.0625 14.394531 -0.582031 14.09375 -0.25 C 13.800781 0.0703125 13.375 0.234375 12.8125 0.234375 C 12.25 0.234375 11.8125 0.0703125 11.5 -0.25 C 11.195312 -0.582031 11.046875 -1.0625 11.046875 -1.6875 L 11.046875 -3.125 L 11.28125 -3.125 C 11.132812 -2.414062 10.859375 -1.804688 10.453125 -1.296875 C 10.046875 -0.796875 9.53125 -0.40625 8.90625 -0.125 C 8.289062 0.15625 7.582031 0.296875 6.78125 0.296875 Z M 6.78125 0.296875 "/></g></g></g><g fill="#000000" fill-opacity="1"><g transform="translate(233.626985, 71.980249)"><g/></g></g><g fill="#000000" fill-opacity="1"><g transform="translate(241.756971, 71.980249)"><g><path d="M 6.953125 0.296875 C 5.296875 0.296875 4.046875 -0.175781 3.203125 -1.125 C 2.367188 -2.070312 1.953125 -3.46875 1.953125 -5.3125 L 1.953125 -19.5 C 1.953125 -20.125 2.109375 -20.59375 2.421875 -20.90625 C 2.742188 -21.226562 3.207031 -21.390625 3.8125 -21.390625 C 4.40625 -21.390625 4.867188 -21.226562 5.203125 -20.90625 C 5.535156 -20.59375 5.703125 -20.125 5.703125 -19.5 L 5.703125 -5.484375 C 5.703125 -4.566406 5.894531 -3.890625 6.28125 -3.453125 C 6.675781 -3.015625 7.234375 -2.796875 7.953125 -2.796875 C 8.109375 -2.796875 8.253906 -2.796875 8.390625 -2.796875 C 8.535156 -2.804688 8.675781 -2.820312 8.8125 -2.84375 C 9.09375 -2.882812 9.285156 -2.8125 9.390625 -2.625 C 9.492188 -2.4375 9.546875 -2.050781 9.546875 -1.46875 C 9.546875 -0.96875 9.441406 -0.578125 9.234375 -0.296875 C 9.035156 -0.015625 8.707031 0.148438 8.25 0.203125 C 8.050781 0.222656 7.84375 0.242188 7.625 0.265625 C 7.40625 0.285156 7.179688 0.296875 6.953125 0.296875 Z M 6.953125 0.296875 "/></g></g></g><g fill="#000000" fill-opacity="1"><g transform="translate(251.326978, 71.980249)"><g><path d="M 6.78125 0.296875 C 5.71875 0.296875 4.769531 0.09375 3.9375 -0.3125 C 3.113281 -0.726562 2.46875 -1.285156 2 -1.984375 C 1.53125 -2.679688 1.296875 -3.46875 1.296875 -4.34375 C 1.296875 -5.425781 1.570312 -6.28125 2.125 -6.90625 C 2.6875 -7.539062 3.597656 -8 4.859375 -8.28125 C 6.117188 -8.5625 7.8125 -8.703125 9.9375 -8.703125 L 11.4375 -8.703125 L 11.4375 -6.546875 L 9.953125 -6.546875 C 8.710938 -6.546875 7.722656 -6.484375 6.984375 -6.359375 C 6.242188 -6.242188 5.71875 -6.039062 5.40625 -5.75 C 5.101562 -5.457031 4.953125 -5.050781 4.953125 -4.53125 C 4.953125 -3.875 5.179688 -3.332031 5.640625 -2.90625 C 6.097656 -2.488281 6.738281 -2.28125 7.5625 -2.28125 C 8.21875 -2.28125 8.800781 -2.429688 9.3125 -2.734375 C 9.820312 -3.046875 10.226562 -3.472656 10.53125 -4.015625 C 10.832031 -4.554688 10.984375 -5.175781 10.984375 -5.875 L 10.984375 -9.328125 C 10.984375 -10.328125 10.757812 -11.046875 10.3125 -11.484375 C 9.875 -11.929688 9.132812 -12.15625 8.09375 -12.15625 C 7.519531 -12.15625 6.894531 -12.082031 6.21875 -11.9375 C 5.550781 -11.800781 4.847656 -11.5625 4.109375 -11.21875 C 3.734375 -11.039062 3.398438 -10.988281 3.109375 -11.0625 C 2.816406 -11.144531 2.585938 -11.3125 2.421875 -11.5625 C 2.265625 -11.8125 2.1875 -12.085938 2.1875 -12.390625 C 2.1875 -12.691406 2.265625 -12.984375 2.421875 -13.265625 C 2.585938 -13.554688 2.859375 -13.773438 3.234375 -13.921875 C 4.160156 -14.296875 5.046875 -14.5625 5.890625 -14.71875 C 6.742188 -14.882812 7.519531 -14.96875 8.21875 -14.96875 C 9.65625 -14.96875 10.835938 -14.75 11.765625 -14.3125 C 12.703125 -13.875 13.398438 -13.207031 13.859375 -12.3125 C 14.316406 -11.425781 14.546875 -10.28125 14.546875 -8.875 L 14.546875 -1.6875 C 14.546875 -1.0625 14.394531 -0.582031 14.09375 -0.25 C 13.800781 0.0703125 13.375 0.234375 12.8125 0.234375 C 12.25 0.234375 11.8125 0.0703125 11.5 -0.25 C 11.195312 -0.582031 11.046875 -1.0625 11.046875 -1.6875 L 11.046875 -3.125 L 11.28125 -3.125 C 11.132812 -2.414062 10.859375 -1.804688 10.453125 -1.296875 C 10.046875 -0.796875 9.53125 -0.40625 8.90625 -0.125 C 8.289062 0.15625 7.582031 0.296875 6.78125 0.296875 Z M 6.78125 0.296875 "/></g></g></g><g fill="#000000" fill-opacity="1"><g transform="translate(267.736957, 71.980249)"><g><path d="M 7.265625 0.296875 C 6.046875 0.296875 5.035156 0.0703125 4.234375 -0.375 C 3.429688 -0.820312 2.832031 -1.492188 2.4375 -2.390625 C 2.050781 -3.296875 1.859375 -4.421875 1.859375 -5.765625 L 1.859375 -13.015625 C 1.859375 -13.660156 2.015625 -14.132812 2.328125 -14.4375 C 2.648438 -14.75 3.113281 -14.90625 3.71875 -14.90625 C 4.320312 -14.90625 4.785156 -14.75 5.109375 -14.4375 C 5.441406 -14.132812 5.609375 -13.660156 5.609375 -13.015625 L 5.609375 -5.703125 C 5.609375 -4.660156 5.816406 -3.890625 6.234375 -3.390625 C 6.660156 -2.890625 7.332031 -2.640625 8.25 -2.640625 C 9.25 -2.640625 10.066406 -2.984375 10.703125 -3.671875 C 11.347656 -4.359375 11.671875 -5.273438 11.671875 -6.421875 L 11.671875 -13.015625 C 11.671875 -13.660156 11.828125 -14.132812 12.140625 -14.4375 C 12.460938 -14.75 12.925781 -14.90625 13.53125 -14.90625 C 14.132812 -14.90625 14.597656 -14.75 14.921875 -14.4375 C 15.253906 -14.132812 15.421875 -13.660156 15.421875 -13.015625 L 15.421875 -1.6875 C 15.421875 -0.40625 14.8125 0.234375 13.59375 0.234375 C 13.007812 0.234375 12.554688 0.0703125 12.234375 -0.25 C 11.921875 -0.582031 11.765625 -1.0625 11.765625 -1.6875 L 11.765625 -3.953125 L 12.1875 -3.0625 C 11.757812 -1.976562 11.117188 -1.144531 10.265625 -0.5625 C 9.421875 0.0078125 8.421875 0.296875 7.265625 0.296875 Z M 7.265625 0.296875 "/></g></g></g><g fill="#000000" fill-opacity="1"><g transform="translate(285.106936, 71.980249)"><g><path d="M 8.671875 0.296875 C 7.367188 0.296875 6.28125 0.078125 5.40625 -0.359375 C 4.539062 -0.796875 3.894531 -1.4375 3.46875 -2.28125 C 3.050781 -3.132812 2.84375 -4.191406 2.84375 -5.453125 L 2.84375 -11.84375 L 1.296875 -11.84375 C 0.804688 -11.84375 0.429688 -11.96875 0.171875 -12.21875 C -0.078125 -12.46875 -0.203125 -12.816406 -0.203125 -13.265625 C -0.203125 -13.722656 -0.078125 -14.070312 0.171875 -14.3125 C 0.429688 -14.550781 0.804688 -14.671875 1.296875 -14.671875 L 2.84375 -14.671875 L 2.84375 -17.40625 C 2.84375 -18.019531 3.007812 -18.488281 3.34375 -18.8125 C 3.675781 -19.132812 4.140625 -19.296875 4.734375 -19.296875 C 5.335938 -19.296875 5.796875 -19.132812 6.109375 -18.8125 C 6.429688 -18.488281 6.59375 -18.019531 6.59375 -17.40625 L 6.59375 -14.671875 L 9.78125 -14.671875 C 10.257812 -14.671875 10.628906 -14.550781 10.890625 -14.3125 C 11.148438 -14.070312 11.28125 -13.722656 11.28125 -13.265625 C 11.28125 -12.816406 11.148438 -12.46875 10.890625 -12.21875 C 10.628906 -11.96875 10.257812 -11.84375 9.78125 -11.84375 L 6.59375 -11.84375 L 6.59375 -5.671875 C 6.59375 -4.710938 6.800781 -3.992188 7.21875 -3.515625 C 7.644531 -3.035156 8.328125 -2.796875 9.265625 -2.796875 C 9.609375 -2.796875 9.910156 -2.820312 10.171875 -2.875 C 10.429688 -2.9375 10.660156 -2.976562 10.859375 -3 C 11.097656 -3.019531 11.296875 -2.941406 11.453125 -2.765625 C 11.617188 -2.597656 11.703125 -2.253906 11.703125 -1.734375 C 11.703125 -1.335938 11.632812 -0.984375 11.5 -0.671875 C 11.375 -0.359375 11.140625 -0.144531 10.796875 -0.03125 C 10.535156 0.0507812 10.195312 0.125 9.78125 0.1875 C 9.363281 0.257812 8.992188 0.296875 8.671875 0.296875 Z M 8.671875 0.296875 "/></g></g></g><g fill="#000000" fill-opacity="1"><g transform="translate(296.626924, 71.980249)"><g/></g></g><g fill="#000000" fill-opacity="1"><g transform="translate(304.756921, 71.980249)"><g><path d="M 3.875 0.234375 C 3.269531 0.234375 2.804688 0.0703125 2.484375 -0.25 C 2.171875 -0.582031 2.015625 -1.0625 2.015625 -1.6875 L 2.015625 -13.015625 C 2.015625 -13.640625 2.171875 -14.109375 2.484375 -14.421875 C 2.804688 -14.742188 3.257812 -14.90625 3.84375 -14.90625 C 4.414062 -14.90625 4.863281 -14.742188 5.1875 -14.421875 C 5.507812 -14.109375 5.671875 -13.640625 5.671875 -13.015625 L 5.671875 -10.828125 L 5.34375 -11.734375 C 5.738281 -12.734375 6.351562 -13.519531 7.1875 -14.09375 C 8.03125 -14.675781 9.035156 -14.96875 10.203125 -14.96875 C 11.378906 -14.96875 12.347656 -14.6875 13.109375 -14.125 C 13.867188 -13.570312 14.398438 -12.710938 14.703125 -11.546875 L 14.28125 -11.546875 C 14.675781 -12.609375 15.332031 -13.441406 16.25 -14.046875 C 17.175781 -14.660156 18.238281 -14.96875 19.4375 -14.96875 C 20.5625 -14.96875 21.488281 -14.75 22.21875 -14.3125 C 22.945312 -13.875 23.488281 -13.207031 23.84375 -12.3125 C 24.207031 -11.425781 24.390625 -10.300781 24.390625 -8.9375 L 24.390625 -1.6875 C 24.390625 -1.0625 24.222656 -0.582031 23.890625 -0.25 C 23.566406 0.0703125 23.101562 0.234375 22.5 0.234375 C 21.894531 0.234375 21.429688 0.0703125 21.109375 -0.25 C 20.796875 -0.582031 20.640625 -1.0625 20.640625 -1.6875 L 20.640625 -8.796875 C 20.640625 -9.910156 20.453125 -10.726562 20.078125 -11.25 C 19.710938 -11.769531 19.085938 -12.03125 18.203125 -12.03125 C 17.222656 -12.03125 16.453125 -11.679688 15.890625 -10.984375 C 15.335938 -10.296875 15.0625 -9.34375 15.0625 -8.125 L 15.0625 -1.6875 C 15.0625 -1.0625 14.898438 -0.582031 14.578125 -0.25 C 14.253906 0.0703125 13.796875 0.234375 13.203125 0.234375 C 12.597656 0.234375 12.128906 0.0703125 11.796875 -0.25 C 11.472656 -0.582031 11.3125 -1.0625 11.3125 -1.6875 L 11.3125 -8.796875 C 11.3125 -9.910156 11.125 -10.726562 10.75 -11.25 C 10.382812 -11.769531 9.769531 -12.03125 8.90625 -12.03125 C 7.925781 -12.03125 7.15625 -11.679688 6.59375 -10.984375 C 6.039062 -10.296875 5.765625 -9.34375 5.765625 -8.125 L 5.765625 -1.6875 C 5.765625 -0.40625 5.132812 0.234375 3.875 0.234375 Z M 3.875 0.234375 "/></g></g></g><g fill="#000000" fill-opacity="1"><g transform="translate(331.066886, 71.980249)"><g><path d="M 9.1875 0.296875 C 7.519531 0.296875 6.085938 -0.0078125 4.890625 -0.625 C 3.691406 -1.25 2.765625 -2.128906 2.109375 -3.265625 C 1.460938 -4.410156 1.140625 -5.757812 1.140625 -7.3125 C 1.140625 -8.832031 1.453125 -10.160156 2.078125 -11.296875 C 2.710938 -12.441406 3.582031 -13.335938 4.6875 -13.984375 C 5.800781 -14.640625 7.066406 -14.96875 8.484375 -14.96875 C 9.523438 -14.96875 10.460938 -14.796875 11.296875 -14.453125 C 12.128906 -14.117188 12.835938 -13.628906 13.421875 -12.984375 C 14.015625 -12.347656 14.460938 -11.570312 14.765625 -10.65625 C 15.078125 -9.75 15.234375 -8.726562 15.234375 -7.59375 C 15.234375 -7.226562 15.109375 -6.953125 14.859375 -6.765625 C 14.609375 -6.578125 14.253906 -6.484375 13.796875 -6.484375 L 4.171875 -6.484375 L 4.171875 -8.640625 L 12.59375 -8.640625 L 12.125 -8.1875 C 12.125 -9.101562 11.988281 -9.875 11.71875 -10.5 C 11.445312 -11.125 11.054688 -11.597656 10.546875 -11.921875 C 10.035156 -12.253906 9.398438 -12.421875 8.640625 -12.421875 C 7.796875 -12.421875 7.078125 -12.222656 6.484375 -11.828125 C 5.898438 -11.441406 5.453125 -10.894531 5.140625 -10.1875 C 4.835938 -9.476562 4.6875 -8.632812 4.6875 -7.65625 L 4.6875 -7.4375 C 4.6875 -5.800781 5.066406 -4.578125 5.828125 -3.765625 C 6.597656 -2.953125 7.734375 -2.546875 9.234375 -2.546875 C 9.753906 -2.546875 10.335938 -2.609375 10.984375 -2.734375 C 11.640625 -2.867188 12.257812 -3.097656 12.84375 -3.421875 C 13.257812 -3.660156 13.628906 -3.765625 13.953125 -3.734375 C 14.273438 -3.703125 14.53125 -3.585938 14.71875 -3.390625 C 14.90625 -3.191406 15.019531 -2.945312 15.0625 -2.65625 C 15.101562 -2.363281 15.046875 -2.066406 14.890625 -1.765625 C 14.742188 -1.460938 14.488281 -1.203125 14.125 -0.984375 C 13.425781 -0.546875 12.617188 -0.222656 11.703125 -0.015625 C 10.796875 0.191406 9.957031 0.296875 9.1875 0.296875 Z M 9.1875 0.296875 "/></g></g></g><g fill="#000000" fill-opacity="1"><g transform="translate(347.32688, 71.980249)"><g><path d="M 3.8125 0.234375 C 3.207031 0.234375 2.742188 0.0703125 2.421875 -0.25 C 2.109375 -0.582031 1.953125 -1.0625 1.953125 -1.6875 L 1.953125 -13.015625 C 1.953125 -13.640625 2.109375 -14.109375 2.421875 -14.421875 C 2.742188 -14.742188 3.195312 -14.90625 3.78125 -14.90625 C 4.363281 -14.90625 4.8125 -14.742188 5.125 -14.421875 C 5.445312 -14.109375 5.609375 -13.640625 5.609375 -13.015625 L 5.609375 -10.984375 L 5.28125 -11.734375 C 5.71875 -12.785156 6.398438 -13.585938 7.328125 -14.140625 C 8.265625 -14.691406 9.320312 -14.96875 10.5 -14.96875 C 11.675781 -14.96875 12.644531 -14.75 13.40625 -14.3125 C 14.164062 -13.875 14.734375 -13.207031 15.109375 -12.3125 C 15.492188 -11.425781 15.6875 -10.300781 15.6875 -8.9375 L 15.6875 -1.6875 C 15.6875 -1.0625 15.523438 -0.582031 15.203125 -0.25 C 14.890625 0.0703125 14.429688 0.234375 13.828125 0.234375 C 13.234375 0.234375 12.769531 0.0703125 12.4375 -0.25 C 12.101562 -0.582031 11.9375 -1.0625 11.9375 -1.6875 L 11.9375 -8.765625 C 11.9375 -9.898438 11.722656 -10.726562 11.296875 -11.25 C 10.867188 -11.769531 10.203125 -12.03125 9.296875 -12.03125 C 8.203125 -12.03125 7.328125 -11.679688 6.671875 -10.984375 C 6.023438 -10.296875 5.703125 -9.382812 5.703125 -8.25 L 5.703125 -1.6875 C 5.703125 -0.40625 5.070312 0.234375 3.8125 0.234375 Z M 3.8125 0.234375 "/></g></g></g><g fill="#000000" fill-opacity="1"><g transform="translate(364.876851, 71.980249)"><g><path d="M 9.1875 0.296875 C 7.519531 0.296875 6.085938 -0.0078125 4.890625 -0.625 C 3.691406 -1.25 2.765625 -2.128906 2.109375 -3.265625 C 1.460938 -4.410156 1.140625 -5.757812 1.140625 -7.3125 C 1.140625 -8.832031 1.453125 -10.160156 2.078125 -11.296875 C 2.710938 -12.441406 3.582031 -13.335938 4.6875 -13.984375 C 5.800781 -14.640625 7.066406 -14.96875 8.484375 -14.96875 C 9.523438 -14.96875 10.460938 -14.796875 11.296875 -14.453125 C 12.128906 -14.117188 12.835938 -13.628906 13.421875 -12.984375 C 14.015625 -12.347656 14.460938 -11.570312 14.765625 -10.65625 C 15.078125 -9.75 15.234375 -8.726562 15.234375 -7.59375 C 15.234375 -7.226562 15.109375 -6.953125 14.859375 -6.765625 C 14.609375 -6.578125 14.253906 -6.484375 13.796875 -6.484375 L 4.171875 -6.484375 L 4.171875 -8.640625 L 12.59375 -8.640625 L 12.125 -8.1875 C 12.125 -9.101562 11.988281 -9.875 11.71875 -10.5 C 11.445312 -11.125 11.054688 -11.597656 10.546875 -11.921875 C 10.035156 -12.253906 9.398438 -12.421875 8.640625 -12.421875 C 7.796875 -12.421875 7.078125 -12.222656 6.484375 -11.828125 C 5.898438 -11.441406 5.453125 -10.894531 5.140625 -10.1875 C 4.835938 -9.476562 4.6875 -8.632812 4.6875 -7.65625 L 4.6875 -7.4375 C 4.6875 -5.800781 5.066406 -4.578125 5.828125 -3.765625 C 6.597656 -2.953125 7.734375 -2.546875 9.234375 -2.546875 C 9.753906 -2.546875 10.335938 -2.609375 10.984375 -2.734375 C 11.640625 -2.867188 12.257812 -3.097656 12.84375 -3.421875 C 13.257812 -3.660156 13.628906 -3.765625 13.953125 -3.734375 C 14.273438 -3.703125 14.53125 -3.585938 14.71875 -3.390625 C 14.90625 -3.191406 15.019531 -2.945312 15.0625 -2.65625 C 15.101562 -2.363281 15.046875 -2.066406 14.890625 -1.765625 C 14.742188 -1.460938 14.488281 -1.203125 14.125 -0.984375 C 13.425781 -0.546875 12.617188 -0.222656 11.703125 -0.015625 C 10.796875 0.191406 9.957031 0.296875 9.1875 0.296875 Z M 9.1875 0.296875 "/></g></g></g><g fill="#000000" fill-opacity="1"><g transform="translate(381.136845, 71.980249)"><g><path d="M 3.8125 0.234375 C 3.207031 0.234375 2.742188 0.0703125 2.421875 -0.25 C 2.109375 -0.582031 1.953125 -1.0625 1.953125 -1.6875 L 1.953125 -13.015625 C 1.953125 -13.640625 2.109375 -14.109375 2.421875 -14.421875 C 2.742188 -14.742188 3.195312 -14.90625 3.78125 -14.90625 C 4.363281 -14.90625 4.8125 -14.742188 5.125 -14.421875 C 5.445312 -14.109375 5.609375 -13.640625 5.609375 -13.015625 L 5.609375 -10.984375 L 5.28125 -11.734375 C 5.71875 -12.785156 6.398438 -13.585938 7.328125 -14.140625 C 8.265625 -14.691406 9.320312 -14.96875 10.5 -14.96875 C 11.675781 -14.96875 12.644531 -14.75 13.40625 -14.3125 C 14.164062 -13.875 14.734375 -13.207031 15.109375 -12.3125 C 15.492188 -11.425781 15.6875 -10.300781 15.6875 -8.9375 L 15.6875 -1.6875 C 15.6875 -1.0625 15.523438 -0.582031 15.203125 -0.25 C 14.890625 0.0703125 14.429688 0.234375 13.828125 0.234375 C 13.234375 0.234375 12.769531 0.0703125 12.4375 -0.25 C 12.101562 -0.582031 11.9375 -1.0625 11.9375 -1.6875 L 11.9375 -8.765625 C 11.9375 -9.898438 11.722656 -10.726562 11.296875 -11.25 C 10.867188 -11.769531 10.203125 -12.03125 9.296875 -12.03125 C 8.203125 -12.03125 7.328125 -11.679688 6.671875 -10.984375 C 6.023438 -10.296875 5.703125 -9.382812 5.703125 -8.25 L 5.703125 -1.6875 C 5.703125 -0.40625 5.070312 0.234375 3.8125 0.234375 Z M 3.8125 0.234375 "/></g></g></g><g fill="#000000" fill-opacity="1"><g transform="translate(398.686816, 71.980249)"><g><path d="M 8.671875 0.296875 C 7.367188 0.296875 6.28125 0.078125 5.40625 -0.359375 C 4.539062 -0.796875 3.894531 -1.4375 3.46875 -2.28125 C 3.050781 -3.132812 2.84375 -4.191406 2.84375 -5.453125 L 2.84375 -11.84375 L 1.296875 -11.84375 C 0.804688 -11.84375 0.429688 -11.96875 0.171875 -12.21875 C -0.078125 -12.46875 -0.203125 -12.816406 -0.203125 -13.265625 C -0.203125 -13.722656 -0.078125 -14.070312 0.171875 -14.3125 C 0.429688 -14.550781 0.804688 -14.671875 1.296875 -14.671875 L 2.84375 -14.671875 L 2.84375 -17.40625 C 2.84375 -18.019531 3.007812 -18.488281 3.34375 -18.8125 C 3.675781 -19.132812 4.140625 -19.296875 4.734375 -19.296875 C 5.335938 -19.296875 5.796875 -19.132812 6.109375 -18.8125 C 6.429688 -18.488281 6.59375 -18.019531 6.59375 -17.40625 L 6.59375 -14.671875 L 9.78125 -14.671875 C 10.257812 -14.671875 10.628906 -14.550781 10.890625 -14.3125 C 11.148438 -14.070312 11.28125 -13.722656 11.28125 -13.265625 C 11.28125 -12.816406 11.148438 -12.46875 10.890625 -12.21875 C 10.628906 -11.96875 10.257812 -11.84375 9.78125 -11.84375 L 6.59375 -11.84375 L 6.59375 -5.671875 C 6.59375 -4.710938 6.800781 -3.992188 7.21875 -3.515625 C 7.644531 -3.035156 8.328125 -2.796875 9.265625 -2.796875 C 9.609375 -2.796875 9.910156 -2.820312 10.171875 -2.875 C 10.429688 -2.9375 10.660156 -2.976562 10.859375 -3 C 11.097656 -3.019531 11.296875 -2.941406 11.453125 -2.765625 C 11.617188 -2.597656 11.703125 -2.253906 11.703125 -1.734375 C 11.703125 -1.335938 11.632812 -0.984375 11.5 -0.671875 C 11.375 -0.359375 11.140625 -0.144531 10.796875 -0.03125 C 10.535156 0.0507812 10.195312 0.125 9.78125 0.1875 C 9.363281 0.257812 8.992188 0.296875 8.671875 0.296875 Z M 8.671875 0.296875 "/></g></g></g><g fill="#000000" fill-opacity="1"><g transform="translate(410.206805, 71.980249)"><g><path d="M 6.78125 0.296875 C 5.71875 0.296875 4.769531 0.09375 3.9375 -0.3125 C 3.113281 -0.726562 2.46875 -1.285156 2 -1.984375 C 1.53125 -2.679688 1.296875 -3.46875 1.296875 -4.34375 C 1.296875 -5.425781 1.570312 -6.28125 2.125 -6.90625 C 2.6875 -7.539062 3.597656 -8 4.859375 -8.28125 C 6.117188 -8.5625 7.8125 -8.703125 9.9375 -8.703125 L 11.4375 -8.703125 L 11.4375 -6.546875 L 9.953125 -6.546875 C 8.710938 -6.546875 7.722656 -6.484375 6.984375 -6.359375 C 6.242188 -6.242188 5.71875 -6.039062 5.40625 -5.75 C 5.101562 -5.457031 4.953125 -5.050781 4.953125 -4.53125 C 4.953125 -3.875 5.179688 -3.332031 5.640625 -2.90625 C 6.097656 -2.488281 6.738281 -2.28125 7.5625 -2.28125 C 8.21875 -2.28125 8.800781 -2.429688 9.3125 -2.734375 C 9.820312 -3.046875 10.226562 -3.472656 10.53125 -4.015625 C 10.832031 -4.554688 10.984375 -5.175781 10.984375 -5.875 L 10.984375 -9.328125 C 10.984375 -10.328125 10.757812 -11.046875 10.3125 -11.484375 C 9.875 -11.929688 9.132812 -12.15625 8.09375 -12.15625 C 7.519531 -12.15625 6.894531 -12.082031 6.21875 -11.9375 C 5.550781 -11.800781 4.847656 -11.5625 4.109375 -11.21875 C 3.734375 -11.039062 3.398438 -10.988281 3.109375 -11.0625 C 2.816406 -11.144531 2.585938 -11.3125 2.421875 -11.5625 C 2.265625 -11.8125 2.1875 -12.085938 2.1875 -12.390625 C 2.1875 -12.691406 2.265625 -12.984375 2.421875 -13.265625 C 2.585938 -13.554688 2.859375 -13.773438 3.234375 -13.921875 C 4.160156 -14.296875 5.046875 -14.5625 5.890625 -14.71875 C 6.742188 -14.882812 7.519531 -14.96875 8.21875 -14.96875 C 9.65625 -14.96875 10.835938 -14.75 11.765625 -14.3125 C 12.703125 -13.875 13.398438 -13.207031 13.859375 -12.3125 C 14.316406 -11.425781 14.546875 -10.28125 14.546875 -8.875 L 14.546875 -1.6875 C 14.546875 -1.0625 14.394531 -0.582031 14.09375 -0.25 C 13.800781 0.0703125 13.375 0.234375 12.8125 0.234375 C 12.25 0.234375 11.8125 0.0703125 11.5 -0.25 C 11.195312 -0.582031 11.046875 -1.0625 11.046875 -1.6875 L 11.046875 -3.125 L 11.28125 -3.125 C 11.132812 -2.414062 10.859375 -1.804688 10.453125 -1.296875 C 10.046875 -0.796875 9.53125 -0.40625 8.90625 -0.125 C 8.289062 0.15625 7.582031 0.296875 6.78125 0.296875 Z M 6.78125 0.296875 "/></g></g></g><g fill="#000000" fill-opacity="1"><g transform="translate(426.616807, 71.980249)"><g><path d="M 3.8125 0.234375 C 3.207031 0.234375 2.742188 0.0703125 2.421875 -0.25 C 2.109375 -0.582031 1.953125 -1.0625 1.953125 -1.6875 L 1.953125 -13.015625 C 1.953125 -13.640625 2.109375 -14.109375 2.421875 -14.421875 C 2.742188 -14.742188 3.195312 -14.90625 3.78125 -14.90625 C 4.363281 -14.90625 4.8125 -14.742188 5.125 -14.421875 C 5.445312 -14.109375 5.609375 -13.640625 5.609375 -13.015625 L 5.609375 -10.984375 L 5.28125 -11.734375 C 5.71875 -12.785156 6.398438 -13.585938 7.328125 -14.140625 C 8.265625 -14.691406 9.320312 -14.96875 10.5 -14.96875 C 11.675781 -14.96875 12.644531 -14.75 13.40625 -14.3125 C 14.164062 -13.875 14.734375 -13.207031 15.109375 -12.3125 C 15.492188 -11.425781 15.6875 -10.300781 15.6875 -8.9375 L 15.6875 -1.6875 C 15.6875 -1.0625 15.523438 -0.582031 15.203125 -0.25 C 14.890625 0.0703125 14.429688 0.234375 13.828125 0.234375 C 13.234375 0.234375 12.769531 0.0703125 12.4375 -0.25 C 12.101562 -0.582031 11.9375 -1.0625 11.9375 -1.6875 L 11.9375 -8.765625 C 11.9375 -9.898438 11.722656 -10.726562 11.296875 -11.25 C 10.867188 -11.769531 10.203125 -12.03125 9.296875 -12.03125 C 8.203125 -12.03125 7.328125 -11.679688 6.671875 -10.984375 C 6.023438 -10.296875 5.703125 -9.382812 5.703125 -8.25 L 5.703125 -1.6875 C 5.703125 -0.40625 5.070312 0.234375 3.8125 0.234375 Z M 3.8125 0.234375 "/></g></g></g><g fill="#000000" fill-opacity="1"><g transform="translate(444.166779, 71.980249)"><g><path d="M 8.796875 5.703125 C 7.710938 5.703125 6.664062 5.597656 5.65625 5.390625 C 4.644531 5.191406 3.726562 4.882812 2.90625 4.46875 C 2.53125 4.269531 2.273438 4.03125 2.140625 3.75 C 2.015625 3.46875 1.972656 3.179688 2.015625 2.890625 C 2.066406 2.597656 2.1875 2.34375 2.375 2.125 C 2.570312 1.90625 2.8125 1.753906 3.09375 1.671875 C 3.375 1.597656 3.660156 1.640625 3.953125 1.796875 C 4.835938 2.234375 5.675781 2.515625 6.46875 2.640625 C 7.257812 2.773438 7.929688 2.84375 8.484375 2.84375 C 9.828125 2.84375 10.832031 2.519531 11.5 1.875 C 12.175781 1.226562 12.515625 0.265625 12.515625 -1.015625 L 12.515625 -3.71875 L 12.78125 -3.71875 C 12.476562 -2.695312 11.851562 -1.878906 10.90625 -1.265625 C 9.957031 -0.660156 8.882812 -0.359375 7.6875 -0.359375 C 6.363281 -0.359375 5.210938 -0.660156 4.234375 -1.265625 C 3.253906 -1.878906 2.492188 -2.734375 1.953125 -3.828125 C 1.410156 -4.929688 1.140625 -6.21875 1.140625 -7.6875 C 1.140625 -8.78125 1.289062 -9.769531 1.59375 -10.65625 C 1.90625 -11.550781 2.347656 -12.316406 2.921875 -12.953125 C 3.492188 -13.597656 4.179688 -14.09375 4.984375 -14.4375 C 5.796875 -14.789062 6.695312 -14.96875 7.6875 -14.96875 C 8.925781 -14.96875 10.007812 -14.660156 10.9375 -14.046875 C 11.863281 -13.441406 12.46875 -12.640625 12.75 -11.640625 L 12.453125 -10.890625 L 12.453125 -13.015625 C 12.453125 -13.640625 12.613281 -14.109375 12.9375 -14.421875 C 13.269531 -14.742188 13.726562 -14.90625 14.3125 -14.90625 C 14.90625 -14.90625 15.363281 -14.742188 15.6875 -14.421875 C 16.007812 -14.109375 16.171875 -13.640625 16.171875 -13.015625 L 16.171875 -1.46875 C 16.171875 0.90625 15.539062 2.691406 14.28125 3.890625 C 13.019531 5.097656 11.191406 5.703125 8.796875 5.703125 Z M 8.703125 -3.203125 C 9.484375 -3.203125 10.148438 -3.382812 10.703125 -3.75 C 11.265625 -4.113281 11.703125 -4.628906 12.015625 -5.296875 C 12.328125 -5.960938 12.484375 -6.757812 12.484375 -7.6875 C 12.484375 -9.0625 12.140625 -10.144531 11.453125 -10.9375 C 10.773438 -11.726562 9.859375 -12.125 8.703125 -12.125 C 7.921875 -12.125 7.25 -11.941406 6.6875 -11.578125 C 6.125 -11.222656 5.6875 -10.710938 5.375 -10.046875 C 5.070312 -9.390625 4.921875 -8.601562 4.921875 -7.6875 C 4.921875 -6.300781 5.257812 -5.207031 5.9375 -4.40625 C 6.613281 -3.601562 7.535156 -3.203125 8.703125 -3.203125 Z M 8.703125 -3.203125 "/></g></g></g><g fill="#000000" fill-opacity="1"><g transform="translate(462.286757, 71.980249)"><g/></g></g><g fill="#000000" fill-opacity="1"><g transform="translate(470.416777, 71.980249)"><g><path d="M 3.8125 5.640625 C 3.207031 5.640625 2.742188 5.476562 2.421875 5.15625 C 2.109375 4.84375 1.953125 4.375 1.953125 3.75 L 1.953125 -13.015625 C 1.953125 -13.640625 2.109375 -14.109375 2.421875 -14.421875 C 2.742188 -14.742188 3.195312 -14.90625 3.78125 -14.90625 C 4.382812 -14.90625 4.84375 -14.742188 5.15625 -14.421875 C 5.476562 -14.109375 5.640625 -13.640625 5.640625 -13.015625 L 5.640625 -10.6875 L 5.3125 -11.578125 C 5.613281 -12.597656 6.226562 -13.414062 7.15625 -14.03125 C 8.082031 -14.65625 9.164062 -14.96875 10.40625 -14.96875 C 11.6875 -14.96875 12.8125 -14.65625 13.78125 -14.03125 C 14.75 -13.414062 15.503906 -12.539062 16.046875 -11.40625 C 16.585938 -10.28125 16.859375 -8.925781 16.859375 -7.34375 C 16.859375 -5.789062 16.585938 -4.4375 16.046875 -3.28125 C 15.503906 -2.132812 14.753906 -1.25 13.796875 -0.625 C 12.835938 -0.0078125 11.707031 0.296875 10.40625 0.296875 C 9.1875 0.296875 8.113281 -0.00390625 7.1875 -0.609375 C 6.269531 -1.222656 5.65625 -2.019531 5.34375 -3 L 5.703125 -3 L 5.703125 3.75 C 5.703125 4.375 5.535156 4.84375 5.203125 5.15625 C 4.867188 5.476562 4.40625 5.640625 3.8125 5.640625 Z M 9.359375 -2.546875 C 10.097656 -2.546875 10.75 -2.722656 11.3125 -3.078125 C 11.875 -3.441406 12.304688 -3.976562 12.609375 -4.6875 C 12.921875 -5.40625 13.078125 -6.289062 13.078125 -7.34375 C 13.078125 -8.945312 12.738281 -10.144531 12.0625 -10.9375 C 11.382812 -11.726562 10.484375 -12.125 9.359375 -12.125 C 8.617188 -12.125 7.96875 -11.945312 7.40625 -11.59375 C 6.84375 -11.238281 6.40625 -10.707031 6.09375 -10 C 5.789062 -9.289062 5.640625 -8.40625 5.640625 -7.34375 C 5.640625 -5.769531 5.976562 -4.578125 6.65625 -3.765625 C 7.34375 -2.953125 8.242188 -2.546875 9.359375 -2.546875 Z M 9.359375 -2.546875 "/></g></g></g><g fill="#000000" fill-opacity="1"><g transform="translate(488.41673, 71.980249)"><g><path d="M 6.78125 0.296875 C 5.71875 0.296875 4.769531 0.09375 3.9375 -0.3125 C 3.113281 -0.726562 2.46875 -1.285156 2 -1.984375 C 1.53125 -2.679688 1.296875 -3.46875 1.296875 -4.34375 C 1.296875 -5.425781 1.570312 -6.28125 2.125 -6.90625 C 2.6875 -7.539062 3.597656 -8 4.859375 -8.28125 C 6.117188 -8.5625 7.8125 -8.703125 9.9375 -8.703125 L 11.4375 -8.703125 L 11.4375 -6.546875 L 9.953125 -6.546875 C 8.710938 -6.546875 7.722656 -6.484375 6.984375 -6.359375 C 6.242188 -6.242188 5.71875 -6.039062 5.40625 -5.75 C 5.101562 -5.457031 4.953125 -5.050781 4.953125 -4.53125 C 4.953125 -3.875 5.179688 -3.332031 5.640625 -2.90625 C 6.097656 -2.488281 6.738281 -2.28125 7.5625 -2.28125 C 8.21875 -2.28125 8.800781 -2.429688 9.3125 -2.734375 C 9.820312 -3.046875 10.226562 -3.472656 10.53125 -4.015625 C 10.832031 -4.554688 10.984375 -5.175781 10.984375 -5.875 L 10.984375 -9.328125 C 10.984375 -10.328125 10.757812 -11.046875 10.3125 -11.484375 C 9.875 -11.929688 9.132812 -12.15625 8.09375 -12.15625 C 7.519531 -12.15625 6.894531 -12.082031 6.21875 -11.9375 C 5.550781 -11.800781 4.847656 -11.5625 4.109375 -11.21875 C 3.734375 -11.039062 3.398438 -10.988281 3.109375 -11.0625 C 2.816406 -11.144531 2.585938 -11.3125 2.421875 -11.5625 C 2.265625 -11.8125 2.1875 -12.085938 2.1875 -12.390625 C 2.1875 -12.691406 2.265625 -12.984375 2.421875 -13.265625 C 2.585938 -13.554688 2.859375 -13.773438 3.234375 -13.921875 C 4.160156 -14.296875 5.046875 -14.5625 5.890625 -14.71875 C 6.742188 -14.882812 7.519531 -14.96875 8.21875 -14.96875 C 9.65625 -14.96875 10.835938 -14.75 11.765625 -14.3125 C 12.703125 -13.875 13.398438 -13.207031 13.859375 -12.3125 C 14.316406 -11.425781 14.546875 -10.28125 14.546875 -8.875 L 14.546875 -1.6875 C 14.546875 -1.0625 14.394531 -0.582031 14.09375 -0.25 C 13.800781 0.0703125 13.375 0.234375 12.8125 0.234375 C 12.25 0.234375 11.8125 0.0703125 11.5 -0.25 C 11.195312 -0.582031 11.046875 -1.0625 11.046875 -1.6875 L 11.046875 -3.125 L 11.28125 -3.125 C 11.132812 -2.414062 10.859375 -1.804688 10.453125 -1.296875 C 10.046875 -0.796875 9.53125 -0.40625 8.90625 -0.125 C 8.289062 0.15625 7.582031 0.296875 6.78125 0.296875 Z M 6.78125 0.296875 "/></g></g></g><g fill="#000000" fill-opacity="1"><g transform="translate(504.826733, 71.980249)"><g><path d="M 3.875 0.234375 C 3.25 0.234375 2.769531 0.0703125 2.4375 -0.25 C 2.113281 -0.582031 1.953125 -1.0625 1.953125 -1.6875 L 1.953125 -13.015625 C 1.953125 -13.640625 2.109375 -14.109375 2.421875 -14.421875 C 2.742188 -14.742188 3.195312 -14.90625 3.78125 -14.90625 C 4.363281 -14.90625 4.8125 -14.742188 5.125 -14.421875 C 5.445312 -14.109375 5.609375 -13.640625 5.609375 -13.015625 L 5.609375 -11.125 L 5.3125 -11.125 C 5.59375 -12.332031 6.140625 -13.242188 6.953125 -13.859375 C 7.773438 -14.484375 8.867188 -14.851562 10.234375 -14.96875 C 10.648438 -15.007812 10.984375 -14.90625 11.234375 -14.65625 C 11.484375 -14.40625 11.628906 -14.019531 11.671875 -13.5 C 11.710938 -13 11.597656 -12.59375 11.328125 -12.28125 C 11.054688 -11.96875 10.648438 -11.785156 10.109375 -11.734375 L 9.453125 -11.671875 C 8.234375 -11.546875 7.3125 -11.164062 6.6875 -10.53125 C 6.070312 -9.90625 5.765625 -9.023438 5.765625 -7.890625 L 5.765625 -1.6875 C 5.765625 -1.0625 5.601562 -0.582031 5.28125 -0.25 C 4.957031 0.0703125 4.488281 0.234375 3.875 0.234375 Z M 3.875 0.234375 "/></g></g></g><g fill="#000000" fill-opacity="1"><g transform="translate(516.436718, 71.980249)"><g><path d="M 6.78125 0.296875 C 5.71875 0.296875 4.769531 0.09375 3.9375 -0.3125 C 3.113281 -0.726562 2.46875 -1.285156 2 -1.984375 C 1.53125 -2.679688 1.296875 -3.46875 1.296875 -4.34375 C 1.296875 -5.425781 1.570312 -6.28125 2.125 -6.90625 C 2.6875 -7.539062 3.597656 -8 4.859375 -8.28125 C 6.117188 -8.5625 7.8125 -8.703125 9.9375 -8.703125 L 11.4375 -8.703125 L 11.4375 -6.546875 L 9.953125 -6.546875 C 8.710938 -6.546875 7.722656 -6.484375 6.984375 -6.359375 C 6.242188 -6.242188 5.71875 -6.039062 5.40625 -5.75 C 5.101562 -5.457031 4.953125 -5.050781 4.953125 -4.53125 C 4.953125 -3.875 5.179688 -3.332031 5.640625 -2.90625 C 6.097656 -2.488281 6.738281 -2.28125 7.5625 -2.28125 C 8.21875 -2.28125 8.800781 -2.429688 9.3125 -2.734375 C 9.820312 -3.046875 10.226562 -3.472656 10.53125 -4.015625 C 10.832031 -4.554688 10.984375 -5.175781 10.984375 -5.875 L 10.984375 -9.328125 C 10.984375 -10.328125 10.757812 -11.046875 10.3125 -11.484375 C 9.875 -11.929688 9.132812 -12.15625 8.09375 -12.15625 C 7.519531 -12.15625 6.894531 -12.082031 6.21875 -11.9375 C 5.550781 -11.800781 4.847656 -11.5625 4.109375 -11.21875 C 3.734375 -11.039062 3.398438 -10.988281 3.109375 -11.0625 C 2.816406 -11.144531 2.585938 -11.3125 2.421875 -11.5625 C 2.265625 -11.8125 2.1875 -12.085938 2.1875 -12.390625 C 2.1875 -12.691406 2.265625 -12.984375 2.421875 -13.265625 C 2.585938 -13.554688 2.859375 -13.773438 3.234375 -13.921875 C 4.160156 -14.296875 5.046875 -14.5625 5.890625 -14.71875 C 6.742188 -14.882812 7.519531 -14.96875 8.21875 -14.96875 C 9.65625 -14.96875 10.835938 -14.75 11.765625 -14.3125 C 12.703125 -13.875 13.398438 -13.207031 13.859375 -12.3125 C 14.316406 -11.425781 14.546875 -10.28125 14.546875 -8.875 L 14.546875 -1.6875 C 14.546875 -1.0625 14.394531 -0.582031 14.09375 -0.25 C 13.800781 0.0703125 13.375 0.234375 12.8125 0.234375 C 12.25 0.234375 11.8125 0.0703125 11.5 -0.25 C 11.195312 -0.582031 11.046875 -1.0625 11.046875 -1.6875 L 11.046875 -3.125 L 11.28125 -3.125 C 11.132812 -2.414062 10.859375 -1.804688 10.453125 -1.296875 C 10.046875 -0.796875 9.53125 -0.40625 8.90625 -0.125 C 8.289062 0.15625 7.582031 0.296875 6.78125 0.296875 Z M 6.78125 0.296875 "/></g></g></g><g fill="#000000" fill-opacity="1"><g transform="translate(532.846675, 71.980249)"><g/></g></g><g fill="#000000" fill-opacity="1"><g transform="translate(540.976694, 71.980249)"><g><path d="M 6.78125 0.296875 C 5.71875 0.296875 4.769531 0.09375 3.9375 -0.3125 C 3.113281 -0.726562 2.46875 -1.285156 2 -1.984375 C 1.53125 -2.679688 1.296875 -3.46875 1.296875 -4.34375 C 1.296875 -5.425781 1.570312 -6.28125 2.125 -6.90625 C 2.6875 -7.539062 3.597656 -8 4.859375 -8.28125 C 6.117188 -8.5625 7.8125 -8.703125 9.9375 -8.703125 L 11.4375 -8.703125 L 11.4375 -6.546875 L 9.953125 -6.546875 C 8.710938 -6.546875 7.722656 -6.484375 6.984375 -6.359375 C 6.242188 -6.242188 5.71875 -6.039062 5.40625 -5.75 C 5.101562 -5.457031 4.953125 -5.050781 4.953125 -4.53125 C 4.953125 -3.875 5.179688 -3.332031 5.640625 -2.90625 C 6.097656 -2.488281 6.738281 -2.28125 7.5625 -2.28125 C 8.21875 -2.28125 8.800781 -2.429688 9.3125 -2.734375 C 9.820312 -3.046875 10.226562 -3.472656 10.53125 -4.015625 C 10.832031 -4.554688 10.984375 -5.175781 10.984375 -5.875 L 10.984375 -9.328125 C 10.984375 -10.328125 10.757812 -11.046875 10.3125 -11.484375 C 9.875 -11.929688 9.132812 -12.15625 8.09375 -12.15625 C 7.519531 -12.15625 6.894531 -12.082031 6.21875 -11.9375 C 5.550781 -11.800781 4.847656 -11.5625 4.109375 -11.21875 C 3.734375 -11.039062 3.398438 -10.988281 3.109375 -11.0625 C 2.816406 -11.144531 2.585938 -11.3125 2.421875 -11.5625 C 2.265625 -11.8125 2.1875 -12.085938 2.1875 -12.390625 C 2.1875 -12.691406 2.265625 -12.984375 2.421875 -13.265625 C 2.585938 -13.554688 2.859375 -13.773438 3.234375 -13.921875 C 4.160156 -14.296875 5.046875 -14.5625 5.890625 -14.71875 C 6.742188 -14.882812 7.519531 -14.96875 8.21875 -14.96875 C 9.65625 -14.96875 10.835938 -14.75 11.765625 -14.3125 C 12.703125 -13.875 13.398438 -13.207031 13.859375 -12.3125 C 14.316406 -11.425781 14.546875 -10.28125 14.546875 -8.875 L 14.546875 -1.6875 C 14.546875 -1.0625 14.394531 -0.582031 14.09375 -0.25 C 13.800781 0.0703125 13.375 0.234375 12.8125 0.234375 C 12.25 0.234375 11.8125 0.0703125 11.5 -0.25 C 11.195312 -0.582031 11.046875 -1.0625 11.046875 -1.6875 L 11.046875 -3.125 L 11.28125 -3.125 C 11.132812 -2.414062 10.859375 -1.804688 10.453125 -1.296875 C 10.046875 -0.796875 9.53125 -0.40625 8.90625 -0.125 C 8.289062 0.15625 7.582031 0.296875 6.78125 0.296875 Z M 6.78125 0.296875 "/></g></g></g><g fill="#000000" fill-opacity="1"><g transform="translate(557.386651, 71.980249)"><g><path d="M 3.8125 0.234375 C 3.207031 0.234375 2.742188 0.0703125 2.421875 -0.25 C 2.109375 -0.582031 1.953125 -1.0625 1.953125 -1.6875 L 1.953125 -19.5 C 1.953125 -20.125 2.109375 -20.59375 2.421875 -20.90625 C 2.742188 -21.226562 3.207031 -21.390625 3.8125 -21.390625 C 4.40625 -21.390625 4.867188 -21.226562 5.203125 -20.90625 C 5.535156 -20.59375 5.703125 -20.125 5.703125 -19.5 L 5.703125 -11.734375 L 5.28125 -11.734375 C 5.71875 -12.785156 6.398438 -13.585938 7.328125 -14.140625 C 8.265625 -14.691406 9.320312 -14.96875 10.5 -14.96875 C 11.675781 -14.96875 12.644531 -14.75 13.40625 -14.3125 C 14.164062 -13.875 14.734375 -13.207031 15.109375 -12.3125 C 15.492188 -11.425781 15.6875 -10.300781 15.6875 -8.9375 L 15.6875 -1.6875 C 15.6875 -1.0625 15.523438 -0.582031 15.203125 -0.25 C 14.890625 0.0703125 14.429688 0.234375 13.828125 0.234375 C 13.234375 0.234375 12.769531 0.0703125 12.4375 -0.25 C 12.101562 -0.582031 11.9375 -1.0625 11.9375 -1.6875 L 11.9375 -8.765625 C 11.9375 -9.898438 11.722656 -10.726562 11.296875 -11.25 C 10.867188 -11.769531 10.203125 -12.03125 9.296875 -12.03125 C 8.203125 -12.03125 7.328125 -11.679688 6.671875 -10.984375 C 6.023438 -10.296875 5.703125 -9.382812 5.703125 -8.25 L 5.703125 -1.6875 C 5.703125 -0.40625 5.070312 0.234375 3.8125 0.234375 Z M 3.8125 0.234375 "/></g></g></g><g fill="#000000" fill-opacity="1"><g transform="translate(574.936668, 71.980249)"><g><path d="M 6.953125 0.296875 C 5.296875 0.296875 4.046875 -0.175781 3.203125 -1.125 C 2.367188 -2.070312 1.953125 -3.46875 1.953125 -5.3125 L 1.953125 -19.5 C 1.953125 -20.125 2.109375 -20.59375 2.421875 -20.90625 C 2.742188 -21.226562 3.207031 -21.390625 3.8125 -21.390625 C 4.40625 -21.390625 4.867188 -21.226562 5.203125 -20.90625 C 5.535156 -20.59375 5.703125 -20.125 5.703125 -19.5 L 5.703125 -5.484375 C 5.703125 -4.566406 5.894531 -3.890625 6.28125 -3.453125 C 6.675781 -3.015625 7.234375 -2.796875 7.953125 -2.796875 C 8.109375 -2.796875 8.253906 -2.796875 8.390625 -2.796875 C 8.535156 -2.804688 8.675781 -2.820312 8.8125 -2.84375 C 9.09375 -2.882812 9.285156 -2.8125 9.390625 -2.625 C 9.492188 -2.4375 9.546875 -2.050781 9.546875 -1.46875 C 9.546875 -0.96875 9.441406 -0.578125 9.234375 -0.296875 C 9.035156 -0.015625 8.707031 0.148438 8.25 0.203125 C 8.050781 0.222656 7.84375 0.242188 7.625 0.265625 C 7.40625 0.285156 7.179688 0.296875 6.953125 0.296875 Z M 6.953125 0.296875 "/></g></g></g><g fill="#000000" fill-opacity="1"><g transform="translate(584.506675, 71.980249)"><g><path d="M 3.8125 0.203125 C 3.207031 0.203125 2.742188 0.0234375 2.421875 -0.328125 C 2.109375 -0.691406 1.953125 -1.191406 1.953125 -1.828125 L 1.953125 -12.84375 C 1.953125 -13.5 2.109375 -14 2.421875 -14.34375 C 2.742188 -14.695312 3.207031 -14.875 3.8125 -14.875 C 4.40625 -14.875 4.867188 -14.695312 5.203125 -14.34375 C 5.535156 -14 5.703125 -13.5 5.703125 -12.84375 L 5.703125 -1.828125 C 5.703125 -1.191406 5.539062 -0.691406 5.21875 -0.328125 C 4.894531 0.0234375 4.425781 0.203125 3.8125 0.203125 Z M 3.8125 -17.671875 C 3.113281 -17.671875 2.566406 -17.84375 2.171875 -18.1875 C 1.785156 -18.539062 1.59375 -19.03125 1.59375 -19.65625 C 1.59375 -20.289062 1.785156 -20.773438 2.171875 -21.109375 C 2.566406 -21.453125 3.113281 -21.625 3.8125 -21.625 C 4.53125 -21.625 5.078125 -21.453125 5.453125 -21.109375 C 5.835938 -20.773438 6.03125 -20.289062 6.03125 -19.65625 C 6.03125 -19.03125 5.835938 -18.539062 5.453125 -18.1875 C 5.078125 -17.84375 4.53125 -17.671875 3.8125 -17.671875 Z M 3.8125 -17.671875 "/></g></g></g><g fill="#000000" fill-opacity="1"><g transform="translate(266.499188, 113.980246)"><g><path d="M 10.40625 0.296875 C 9.164062 0.296875 8.082031 -0.0078125 7.15625 -0.625 C 6.226562 -1.25 5.613281 -2.082031 5.3125 -3.125 L 5.640625 -3.875 L 5.640625 -1.6875 C 5.640625 -1.0625 5.476562 -0.582031 5.15625 -0.25 C 4.84375 0.0703125 4.394531 0.234375 3.8125 0.234375 C 3.207031 0.234375 2.742188 0.0703125 2.421875 -0.25 C 2.109375 -0.582031 1.953125 -1.0625 1.953125 -1.6875 L 1.953125 -19.5 C 1.953125 -20.125 2.109375 -20.59375 2.421875 -20.90625 C 2.742188 -21.226562 3.207031 -21.390625 3.8125 -21.390625 C 4.40625 -21.390625 4.867188 -21.226562 5.203125 -20.90625 C 5.535156 -20.59375 5.703125 -20.125 5.703125 -19.5 L 5.703125 -11.703125 L 5.34375 -11.703125 C 5.65625 -12.679688 6.269531 -13.46875 7.1875 -14.0625 C 8.113281 -14.664062 9.1875 -14.96875 10.40625 -14.96875 C 11.707031 -14.96875 12.835938 -14.65625 13.796875 -14.03125 C 14.753906 -13.414062 15.503906 -12.539062 16.046875 -11.40625 C 16.585938 -10.28125 16.859375 -8.925781 16.859375 -7.34375 C 16.859375 -5.789062 16.585938 -4.4375 16.046875 -3.28125 C 15.503906 -2.132812 14.75 -1.25 13.78125 -0.625 C 12.8125 -0.0078125 11.6875 0.296875 10.40625 0.296875 Z M 9.359375 -2.546875 C 10.097656 -2.546875 10.75 -2.722656 11.3125 -3.078125 C 11.875 -3.441406 12.304688 -3.976562 12.609375 -4.6875 C 12.921875 -5.40625 13.078125 -6.289062 13.078125 -7.34375 C 13.078125 -8.945312 12.738281 -10.144531 12.0625 -10.9375 C 11.382812 -11.726562 10.484375 -12.125 9.359375 -12.125 C 8.617188 -12.125 7.96875 -11.945312 7.40625 -11.59375 C 6.84375 -11.238281 6.40625 -10.707031 6.09375 -10 C 5.789062 -9.289062 5.640625 -8.40625 5.640625 -7.34375 C 5.640625 -5.769531 5.976562 -4.578125 6.65625 -3.765625 C 7.34375 -2.953125 8.242188 -2.546875 9.359375 -2.546875 Z M 9.359375 -2.546875 "/></g></g></g><g fill="#000000" fill-opacity="1"><g transform="translate(284.499176, 113.980246)"><g><path d="M 3.8125 0.203125 C 3.207031 0.203125 2.742188 0.0234375 2.421875 -0.328125 C 2.109375 -0.691406 1.953125 -1.191406 1.953125 -1.828125 L 1.953125 -12.84375 C 1.953125 -13.5 2.109375 -14 2.421875 -14.34375 C 2.742188 -14.695312 3.207031 -14.875 3.8125 -14.875 C 4.40625 -14.875 4.867188 -14.695312 5.203125 -14.34375 C 5.535156 -14 5.703125 -13.5 5.703125 -12.84375 L 5.703125 -1.828125 C 5.703125 -1.191406 5.539062 -0.691406 5.21875 -0.328125 C 4.894531 0.0234375 4.425781 0.203125 3.8125 0.203125 Z M 3.8125 -17.671875 C 3.113281 -17.671875 2.566406 -17.84375 2.171875 -18.1875 C 1.785156 -18.539062 1.59375 -19.03125 1.59375 -19.65625 C 1.59375 -20.289062 1.785156 -20.773438 2.171875 -21.109375 C 2.566406 -21.453125 3.113281 -21.625 3.8125 -21.625 C 4.53125 -21.625 5.078125 -21.453125 5.453125 -21.109375 C 5.835938 -20.773438 6.03125 -20.289062 6.03125 -19.65625 C 6.03125 -19.03125 5.835938 -18.539062 5.453125 -18.1875 C 5.078125 -17.84375 4.53125 -17.671875 3.8125 -17.671875 Z M 3.8125 -17.671875 "/></g></g></g><g fill="#000000" fill-opacity="1"><g transform="translate(292.149173, 113.980246)"><g><path d="M 8.640625 0.296875 C 7.117188 0.296875 5.796875 -0.0078125 4.671875 -0.625 C 3.554688 -1.25 2.6875 -2.132812 2.0625 -3.28125 C 1.445312 -4.4375 1.140625 -5.789062 1.140625 -7.34375 C 1.140625 -8.53125 1.3125 -9.585938 1.65625 -10.515625 C 2.007812 -11.441406 2.515625 -12.238281 3.171875 -12.90625 C 3.835938 -13.582031 4.628906 -14.09375 5.546875 -14.4375 C 6.472656 -14.789062 7.503906 -14.96875 8.640625 -14.96875 C 10.160156 -14.96875 11.476562 -14.65625 12.59375 -14.03125 C 13.71875 -13.414062 14.585938 -12.535156 15.203125 -11.390625 C 15.828125 -10.253906 16.140625 -8.90625 16.140625 -7.34375 C 16.140625 -6.164062 15.960938 -5.109375 15.609375 -4.171875 C 15.265625 -3.234375 14.757812 -2.425781 14.09375 -1.75 C 13.4375 -1.082031 12.644531 -0.570312 11.71875 -0.21875 C 10.800781 0.125 9.773438 0.296875 8.640625 0.296875 Z M 8.640625 -2.546875 C 9.378906 -2.546875 10.03125 -2.722656 10.59375 -3.078125 C 11.15625 -3.441406 11.585938 -3.976562 11.890625 -4.6875 C 12.203125 -5.40625 12.359375 -6.289062 12.359375 -7.34375 C 12.359375 -8.945312 12.015625 -10.144531 11.328125 -10.9375 C 10.648438 -11.726562 9.753906 -12.125 8.640625 -12.125 C 7.898438 -12.125 7.25 -11.945312 6.6875 -11.59375 C 6.125 -11.238281 5.6875 -10.707031 5.375 -10 C 5.070312 -9.289062 4.921875 -8.40625 4.921875 -7.34375 C 4.921875 -5.769531 5.257812 -4.578125 5.9375 -3.765625 C 6.613281 -2.953125 7.515625 -2.546875 8.640625 -2.546875 Z M 8.640625 -2.546875 "/></g></g></g><g fill="#000000" fill-opacity="1"><g transform="translate(309.429156, 113.980246)"><g><path d="M 6.953125 0.296875 C 5.296875 0.296875 4.046875 -0.175781 3.203125 -1.125 C 2.367188 -2.070312 1.953125 -3.46875 1.953125 -5.3125 L 1.953125 -19.5 C 1.953125 -20.125 2.109375 -20.59375 2.421875 -20.90625 C 2.742188 -21.226562 3.207031 -21.390625 3.8125 -21.390625 C 4.40625 -21.390625 4.867188 -21.226562 5.203125 -20.90625 C 5.535156 -20.59375 5.703125 -20.125 5.703125 -19.5 L 5.703125 -5.484375 C 5.703125 -4.566406 5.894531 -3.890625 6.28125 -3.453125 C 6.675781 -3.015625 7.234375 -2.796875 7.953125 -2.796875 C 8.109375 -2.796875 8.253906 -2.796875 8.390625 -2.796875 C 8.535156 -2.804688 8.675781 -2.820312 8.8125 -2.84375 C 9.09375 -2.882812 9.285156 -2.8125 9.390625 -2.625 C 9.492188 -2.4375 9.546875 -2.050781 9.546875 -1.46875 C 9.546875 -0.96875 9.441406 -0.578125 9.234375 -0.296875 C 9.035156 -0.015625 8.707031 0.148438 8.25 0.203125 C 8.050781 0.222656 7.84375 0.242188 7.625 0.265625 C 7.40625 0.285156 7.179688 0.296875 6.953125 0.296875 Z M 6.953125 0.296875 "/></g></g></g><g fill="#000000" fill-opacity="1"><g transform="translate(318.849153, 113.980246)"><g><path d="M 8.640625 0.296875 C 7.117188 0.296875 5.796875 -0.0078125 4.671875 -0.625 C 3.554688 -1.25 2.6875 -2.132812 2.0625 -3.28125 C 1.445312 -4.4375 1.140625 -5.789062 1.140625 -7.34375 C 1.140625 -8.53125 1.3125 -9.585938 1.65625 -10.515625 C 2.007812 -11.441406 2.515625 -12.238281 3.171875 -12.90625 C 3.835938 -13.582031 4.628906 -14.09375 5.546875 -14.4375 C 6.472656 -14.789062 7.503906 -14.96875 8.640625 -14.96875 C 10.160156 -14.96875 11.476562 -14.65625 12.59375 -14.03125 C 13.71875 -13.414062 14.585938 -12.535156 15.203125 -11.390625 C 15.828125 -10.253906 16.140625 -8.90625 16.140625 -7.34375 C 16.140625 -6.164062 15.960938 -5.109375 15.609375 -4.171875 C 15.265625 -3.234375 14.757812 -2.425781 14.09375 -1.75 C 13.4375 -1.082031 12.644531 -0.570312 11.71875 -0.21875 C 10.800781 0.125 9.773438 0.296875 8.640625 0.296875 Z M 8.640625 -2.546875 C 9.378906 -2.546875 10.03125 -2.722656 10.59375 -3.078125 C 11.15625 -3.441406 11.585938 -3.976562 11.890625 -4.6875 C 12.203125 -5.40625 12.359375 -6.289062 12.359375 -7.34375 C 12.359375 -8.945312 12.015625 -10.144531 11.328125 -10.9375 C 10.648438 -11.726562 9.753906 -12.125 8.640625 -12.125 C 7.898438 -12.125 7.25 -11.945312 6.6875 -11.59375 C 6.125 -11.238281 5.6875 -10.707031 5.375 -10 C 5.070312 -9.289062 4.921875 -8.40625 4.921875 -7.34375 C 4.921875 -5.769531 5.257812 -4.578125 5.9375 -3.765625 C 6.613281 -2.953125 7.515625 -2.546875 8.640625 -2.546875 Z M 8.640625 -2.546875 "/></g></g></g><g fill="#000000" fill-opacity="1"><g transform="translate(336.129136, 113.980246)"><g><path d="M 8.796875 5.703125 C 7.710938 5.703125 6.664062 5.597656 5.65625 5.390625 C 4.644531 5.191406 3.726562 4.882812 2.90625 4.46875 C 2.53125 4.269531 2.273438 4.03125 2.140625 3.75 C 2.015625 3.46875 1.972656 3.179688 2.015625 2.890625 C 2.066406 2.597656 2.1875 2.34375 2.375 2.125 C 2.570312 1.90625 2.8125 1.753906 3.09375 1.671875 C 3.375 1.597656 3.660156 1.640625 3.953125 1.796875 C 4.835938 2.234375 5.675781 2.515625 6.46875 2.640625 C 7.257812 2.773438 7.929688 2.84375 8.484375 2.84375 C 9.828125 2.84375 10.832031 2.519531 11.5 1.875 C 12.175781 1.226562 12.515625 0.265625 12.515625 -1.015625 L 12.515625 -3.71875 L 12.78125 -3.71875 C 12.476562 -2.695312 11.851562 -1.878906 10.90625 -1.265625 C 9.957031 -0.660156 8.882812 -0.359375 7.6875 -0.359375 C 6.363281 -0.359375 5.210938 -0.660156 4.234375 -1.265625 C 3.253906 -1.878906 2.492188 -2.734375 1.953125 -3.828125 C 1.410156 -4.929688 1.140625 -6.21875 1.140625 -7.6875 C 1.140625 -8.78125 1.289062 -9.769531 1.59375 -10.65625 C 1.90625 -11.550781 2.347656 -12.316406 2.921875 -12.953125 C 3.492188 -13.597656 4.179688 -14.09375 4.984375 -14.4375 C 5.796875 -14.789062 6.695312 -14.96875 7.6875 -14.96875 C 8.925781 -14.96875 10.007812 -14.660156 10.9375 -14.046875 C 11.863281 -13.441406 12.46875 -12.640625 12.75 -11.640625 L 12.453125 -10.890625 L 12.453125 -13.015625 C 12.453125 -13.640625 12.613281 -14.109375 12.9375 -14.421875 C 13.269531 -14.742188 13.726562 -14.90625 14.3125 -14.90625 C 14.90625 -14.90625 15.363281 -14.742188 15.6875 -14.421875 C 16.007812 -14.109375 16.171875 -13.640625 16.171875 -13.015625 L 16.171875 -1.46875 C 16.171875 0.90625 15.539062 2.691406 14.28125 3.890625 C 13.019531 5.097656 11.191406 5.703125 8.796875 5.703125 Z M 8.703125 -3.203125 C 9.484375 -3.203125 10.148438 -3.382812 10.703125 -3.75 C 11.265625 -4.113281 11.703125 -4.628906 12.015625 -5.296875 C 12.328125 -5.960938 12.484375 -6.757812 12.484375 -7.6875 C 12.484375 -9.0625 12.140625 -10.144531 11.453125 -10.9375 C 10.773438 -11.726562 9.859375 -12.125 8.703125 -12.125 C 7.921875 -12.125 7.25 -11.941406 6.6875 -11.578125 C 6.125 -11.222656 5.6875 -10.710938 5.375 -10.046875 C 5.070312 -9.390625 4.921875 -8.601562 4.921875 -7.6875 C 4.921875 -6.300781 5.257812 -5.207031 5.9375 -4.40625 C 6.613281 -3.601562 7.535156 -3.203125 8.703125 -3.203125 Z M 8.703125 -3.203125 "/></g></g></g><g fill="#000000" fill-opacity="1"><g transform="translate(354.249114, 113.980246)"><g><path d="M 3.8125 0.203125 C 3.207031 0.203125 2.742188 0.0234375 2.421875 -0.328125 C 2.109375 -0.691406 1.953125 -1.191406 1.953125 -1.828125 L 1.953125 -12.84375 C 1.953125 -13.5 2.109375 -14 2.421875 -14.34375 C 2.742188 -14.695312 3.207031 -14.875 3.8125 -14.875 C 4.40625 -14.875 4.867188 -14.695312 5.203125 -14.34375 C 5.535156 -14 5.703125 -13.5 5.703125 -12.84375 L 5.703125 -1.828125 C 5.703125 -1.191406 5.539062 -0.691406 5.21875 -0.328125 C 4.894531 0.0234375 4.425781 0.203125 3.8125 0.203125 Z M 3.8125 -17.671875 C 3.113281 -17.671875 2.566406 -17.84375 2.171875 -18.1875 C 1.785156 -18.539062 1.59375 -19.03125 1.59375 -19.65625 C 1.59375 -20.289062 1.785156 -20.773438 2.171875 -21.109375 C 2.566406 -21.453125 3.113281 -21.625 3.8125 -21.625 C 4.53125 -21.625 5.078125 -21.453125 5.453125 -21.109375 C 5.835938 -20.773438 6.03125 -20.289062 6.03125 -19.65625 C 6.03125 -19.03125 5.835938 -18.539062 5.453125 -18.1875 C 5.078125 -17.84375 4.53125 -17.671875 3.8125 -17.671875 Z M 3.8125 -17.671875 "/></g></g></g><g fill="#000000" fill-opacity="1"><g transform="translate(361.899112, 113.980246)"><g><path d="M 3.75 0.15625 C 3.070312 0.15625 2.523438 -0.0507812 2.109375 -0.46875 C 1.703125 -0.894531 1.5 -1.4375 1.5 -2.09375 C 1.5 -2.738281 1.703125 -3.265625 2.109375 -3.671875 C 2.523438 -4.085938 3.070312 -4.296875 3.75 -4.296875 C 4.445312 -4.296875 4.988281 -4.085938 5.375 -3.671875 C 5.769531 -3.265625 5.96875 -2.738281 5.96875 -2.09375 C 5.96875 -1.4375 5.769531 -0.894531 5.375 -0.46875 C 4.988281 -0.0507812 4.445312 0.15625 3.75 0.15625 Z M 3.75 0.15625 "/></g></g></g></svg>