<svg xmlns="http://www.w3.org/2000/svg" xmlns:xlink="http://www.w3.org/1999/xlink" width="560" zoomAndPan="magnify" viewBox="0 0 420 67.499998" height="90" preserveAspectRatio="xMidYMid meet" version="1.0"><defs><g/><clipPath id="2dd850520d"><path d="M 1.574219 0 L 418.125 0 L 418.125 66.863281 L 1.574219 66.863281 Z M 1.574219 0 " clip-rule="nonzero"/></clipPath></defs><g clip-path="url(#2dd850520d)"><path stroke-linecap="butt" transform="matrix(0.744485, 0, 0, 0.744485, 1.573902, 0)" fill="none" stroke-linejoin="miter" d="M 0.000425837 0 L 559.515589 0 L 559.515589 89.811426 L 0.000425837 89.811426 Z M 0.000425837 0 " stroke="#000000" stroke-width="12" stroke-opacity="1" stroke-miterlimit="4"/></g><g fill="#000000" fill-opacity="1"><g transform="translate(83.804765, 43.859772)"><g><path d="M 4.765625 0.28125 C 4.085938 0.28125 3.566406 0.0976562 3.203125 -0.265625 C 2.847656 -0.640625 2.671875 -1.175781 2.671875 -1.875 L 2.671875 -22.546875 C 2.671875 -23.265625 2.847656 -23.8125 3.203125 -24.1875 C 3.566406 -24.570312 4.039062 -24.765625 4.625 -24.765625 C 5.15625 -24.765625 5.550781 -24.664062 5.8125 -24.46875 C 6.082031 -24.269531 6.398438 -23.941406 6.765625 -23.484375 L 20.078125 -6.21875 L 19.171875 -6.21875 L 19.171875 -22.640625 C 19.171875 -23.316406 19.347656 -23.835938 19.703125 -24.203125 C 20.066406 -24.578125 20.582031 -24.765625 21.25 -24.765625 C 21.925781 -24.765625 22.4375 -24.578125 22.78125 -24.203125 C 23.132812 -23.835938 23.3125 -23.316406 23.3125 -22.640625 L 23.3125 -1.8125 C 23.3125 -1.15625 23.144531 -0.640625 22.8125 -0.265625 C 22.488281 0.0976562 22.050781 0.28125 21.5 0.28125 C 20.96875 0.28125 20.546875 0.175781 20.234375 -0.03125 C 19.921875 -0.238281 19.578125 -0.578125 19.203125 -1.046875 L 5.9375 -18.3125 L 6.8125 -18.3125 L 6.8125 -1.875 C 6.8125 -1.175781 6.632812 -0.640625 6.28125 -0.265625 C 5.9375 0.0976562 5.429688 0.28125 4.765625 0.28125 Z M 4.765625 0.28125 "/></g></g></g><g fill="#000000" fill-opacity="1"><g transform="translate(109.786398, 43.859772)"><g><path d="M 2.921875 0.28125 C 2.359375 0.28125 1.910156 0.15625 1.578125 -0.09375 C 1.242188 -0.351562 1.039062 -0.695312 0.96875 -1.125 C 0.90625 -1.550781 0.988281 -2.035156 1.21875 -2.578125 L 10.390625 -22.890625 C 10.691406 -23.554688 11.054688 -24.035156 11.484375 -24.328125 C 11.910156 -24.617188 12.398438 -24.765625 12.953125 -24.765625 C 13.484375 -24.765625 13.960938 -24.617188 14.390625 -24.328125 C 14.828125 -24.035156 15.191406 -23.554688 15.484375 -22.890625 L 24.703125 -2.578125 C 24.953125 -2.035156 25.039062 -1.546875 24.96875 -1.109375 C 24.90625 -0.671875 24.707031 -0.328125 24.375 -0.078125 C 24.050781 0.160156 23.625 0.28125 23.09375 0.28125 C 22.445312 0.28125 21.941406 0.125 21.578125 -0.1875 C 21.222656 -0.5 20.90625 -0.976562 20.625 -1.625 L 18.375 -6.875 L 20.25 -5.65625 L 5.59375 -5.65625 L 7.46875 -6.875 L 5.25 -1.625 C 4.945312 -0.957031 4.632812 -0.472656 4.3125 -0.171875 C 3.988281 0.128906 3.523438 0.28125 2.921875 0.28125 Z M 12.890625 -19.65625 L 8.03125 -8.09375 L 7.125 -9.203125 L 18.71875 -9.203125 L 17.859375 -8.09375 L 12.953125 -19.65625 Z M 12.890625 -19.65625 "/></g></g></g><g fill="#000000" fill-opacity="1"><g transform="translate(135.629087, 43.859772)"><g><path d="M 4.890625 0.28125 C 4.179688 0.28125 3.632812 0.078125 3.25 -0.328125 C 2.863281 -0.734375 2.671875 -1.296875 2.671875 -2.015625 L 2.671875 -22.46875 C 2.671875 -23.207031 2.863281 -23.773438 3.25 -24.171875 C 3.632812 -24.566406 4.179688 -24.765625 4.890625 -24.765625 C 5.609375 -24.765625 6.160156 -24.566406 6.546875 -24.171875 C 6.929688 -23.773438 7.125 -23.207031 7.125 -22.46875 L 7.125 -2.015625 C 7.125 -1.296875 6.9375 -0.734375 6.5625 -0.328125 C 6.195312 0.078125 5.640625 0.28125 4.890625 0.28125 Z M 4.890625 0.28125 "/></g></g></g><g fill="#000000" fill-opacity="1"><g transform="translate(145.424301, 43.859772)"><g><path d="M 4.9375 0 C 4.21875 0 3.660156 -0.203125 3.265625 -0.609375 C 2.867188 -1.015625 2.671875 -1.578125 2.671875 -2.296875 L 2.671875 -22.328125 C 2.671875 -23.078125 2.863281 -23.640625 3.25 -24.015625 C 3.632812 -24.398438 4.179688 -24.59375 4.890625 -24.59375 C 5.609375 -24.59375 6.160156 -24.398438 6.546875 -24.015625 C 6.929688 -23.640625 7.125 -23.078125 7.125 -22.328125 L 7.125 -3.78125 L 17.1875 -3.78125 C 17.8125 -3.78125 18.289062 -3.617188 18.625 -3.296875 C 18.96875 -2.972656 19.140625 -2.507812 19.140625 -1.90625 C 19.140625 -1.300781 18.96875 -0.832031 18.625 -0.5 C 18.289062 -0.164062 17.8125 0 17.1875 0 Z M 4.9375 0 "/></g></g></g><g fill="#000000" fill-opacity="1"><g transform="translate(163.625224, 43.859772)"><g><path d="M 13.65625 0.34375 C 11.289062 0.34375 9.222656 -0.175781 7.453125 -1.21875 C 5.679688 -2.257812 4.304688 -3.722656 3.328125 -5.609375 C 2.359375 -7.492188 1.875 -9.710938 1.875 -12.265625 C 1.875 -14.179688 2.148438 -15.910156 2.703125 -17.453125 C 3.265625 -18.992188 4.0625 -20.3125 5.09375 -21.40625 C 6.125 -22.507812 7.359375 -23.351562 8.796875 -23.9375 C 10.242188 -24.53125 11.863281 -24.828125 13.65625 -24.828125 C 16.039062 -24.828125 18.113281 -24.3125 19.875 -23.28125 C 21.632812 -22.257812 23 -20.804688 23.96875 -18.921875 C 24.9375 -17.046875 25.421875 -14.835938 25.421875 -12.296875 C 25.421875 -10.367188 25.144531 -8.628906 24.59375 -7.078125 C 24.039062 -5.535156 23.25 -4.207031 22.21875 -3.09375 C 21.1875 -1.976562 19.945312 -1.125 18.5 -0.53125 C 17.050781 0.0507812 15.4375 0.34375 13.65625 0.34375 Z M 13.65625 -3.46875 C 15.15625 -3.46875 16.429688 -3.816406 17.484375 -4.515625 C 18.535156 -5.210938 19.34375 -6.21875 19.90625 -7.53125 C 20.476562 -8.851562 20.765625 -10.429688 20.765625 -12.265625 C 20.765625 -15.035156 20.144531 -17.1875 18.90625 -18.71875 C 17.664062 -20.25 15.914062 -21.015625 13.65625 -21.015625 C 12.164062 -21.015625 10.890625 -20.671875 9.828125 -19.984375 C 8.765625 -19.304688 7.945312 -18.3125 7.375 -17 C 6.8125 -15.695312 6.53125 -14.117188 6.53125 -12.265625 C 6.53125 -9.503906 7.15625 -7.347656 8.40625 -5.796875 C 9.65625 -4.242188 11.40625 -3.46875 13.65625 -3.46875 Z M 13.65625 -3.46875 "/></g></g></g><g fill="#000000" fill-opacity="1"><g transform="translate(190.892042, 43.859772)"><g><path d="M 4.765625 0.28125 C 4.085938 0.28125 3.566406 0.0976562 3.203125 -0.265625 C 2.847656 -0.640625 2.671875 -1.175781 2.671875 -1.875 L 2.671875 -22.546875 C 2.671875 -23.265625 2.847656 -23.8125 3.203125 -24.1875 C 3.566406 -24.570312 4.039062 -24.765625 4.625 -24.765625 C 5.15625 -24.765625 5.550781 -24.664062 5.8125 -24.46875 C 6.082031 -24.269531 6.398438 -23.941406 6.765625 -23.484375 L 20.078125 -6.21875 L 19.171875 -6.21875 L 19.171875 -22.640625 C 19.171875 -23.316406 19.347656 -23.835938 19.703125 -24.203125 C 20.066406 -24.578125 20.582031 -24.765625 21.25 -24.765625 C 21.925781 -24.765625 22.4375 -24.578125 22.78125 -24.203125 C 23.132812 -23.835938 23.3125 -23.316406 23.3125 -22.640625 L 23.3125 -1.8125 C 23.3125 -1.15625 23.144531 -0.640625 22.8125 -0.265625 C 22.488281 0.0976562 22.050781 0.28125 21.5 0.28125 C 20.96875 0.28125 20.546875 0.175781 20.234375 -0.03125 C 19.921875 -0.238281 19.578125 -0.578125 19.203125 -1.046875 L 5.9375 -18.3125 L 6.8125 -18.3125 L 6.8125 -1.875 C 6.8125 -1.175781 6.632812 -0.640625 6.28125 -0.265625 C 5.9375 0.0976562 5.429688 0.28125 4.765625 0.28125 Z M 4.765625 0.28125 "/></g></g></g><g fill="#000000" fill-opacity="1"><g transform="translate(216.873674, 43.859772)"><g><path d="M 14.453125 0.34375 C 11.742188 0.34375 9.457031 -0.160156 7.59375 -1.171875 C 5.726562 -2.191406 4.304688 -3.640625 3.328125 -5.515625 C 2.359375 -7.398438 1.875 -9.625 1.875 -12.1875 C 1.875 -14.132812 2.15625 -15.882812 2.71875 -17.4375 C 3.289062 -18.988281 4.113281 -20.3125 5.1875 -21.40625 C 6.269531 -22.507812 7.585938 -23.351562 9.140625 -23.9375 C 10.691406 -24.53125 12.453125 -24.828125 14.421875 -24.828125 C 15.710938 -24.828125 17.007812 -24.671875 18.3125 -24.359375 C 19.625 -24.046875 20.859375 -23.519531 22.015625 -22.78125 C 22.410156 -22.53125 22.671875 -22.21875 22.796875 -21.84375 C 22.929688 -21.476562 22.953125 -21.101562 22.859375 -20.71875 C 22.765625 -20.332031 22.585938 -20 22.328125 -19.71875 C 22.078125 -19.445312 21.757812 -19.273438 21.375 -19.203125 C 21 -19.140625 20.578125 -19.234375 20.109375 -19.484375 C 19.234375 -19.992188 18.34375 -20.363281 17.4375 -20.59375 C 16.53125 -20.820312 15.523438 -20.9375 14.421875 -20.9375 C 12.703125 -20.9375 11.25 -20.59375 10.0625 -19.90625 C 8.882812 -19.226562 8 -18.238281 7.40625 -16.9375 C 6.820312 -15.644531 6.53125 -14.0625 6.53125 -12.1875 C 6.53125 -9.34375 7.210938 -7.175781 8.578125 -5.6875 C 9.941406 -4.207031 11.96875 -3.46875 14.65625 -3.46875 C 15.582031 -3.46875 16.519531 -3.5625 17.46875 -3.75 C 18.414062 -3.9375 19.34375 -4.191406 20.25 -4.515625 L 19.375 -2.53125 L 19.375 -9.9375 L 15.5625 -9.9375 C 14.976562 -9.9375 14.53125 -10.085938 14.21875 -10.390625 C 13.90625 -10.691406 13.75 -11.09375 13.75 -11.59375 C 13.75 -12.132812 13.90625 -12.539062 14.21875 -12.8125 C 14.53125 -13.09375 14.976562 -13.234375 15.5625 -13.234375 L 21.296875 -13.234375 C 21.867188 -13.234375 22.3125 -13.078125 22.625 -12.765625 C 22.9375 -12.453125 23.09375 -12.003906 23.09375 -11.421875 L 23.09375 -2.984375 C 23.09375 -2.472656 22.992188 -2.046875 22.796875 -1.703125 C 22.609375 -1.359375 22.289062 -1.101562 21.84375 -0.9375 C 20.820312 -0.5625 19.648438 -0.253906 18.328125 -0.015625 C 17.015625 0.222656 15.722656 0.34375 14.453125 0.34375 Z M 14.453125 0.34375 "/></g></g></g><g fill="#000000" fill-opacity="1"><g transform="translate(242.438488, 43.859772)"><g><path d="M 4.9375 0 C 4.21875 0 3.660156 -0.203125 3.265625 -0.609375 C 2.867188 -1.015625 2.671875 -1.578125 2.671875 -2.296875 L 2.671875 -22.328125 C 2.671875 -23.078125 2.863281 -23.640625 3.25 -24.015625 C 3.632812 -24.398438 4.179688 -24.59375 4.890625 -24.59375 C 5.609375 -24.59375 6.160156 -24.398438 6.546875 -24.015625 C 6.929688 -23.640625 7.125 -23.078125 7.125 -22.328125 L 7.125 -3.78125 L 17.1875 -3.78125 C 17.8125 -3.78125 18.289062 -3.617188 18.625 -3.296875 C 18.96875 -2.972656 19.140625 -2.507812 19.140625 -1.90625 C 19.140625 -1.300781 18.96875 -0.832031 18.625 -0.5 C 18.289062 -0.164062 17.8125 0 17.1875 0 Z M 4.9375 0 "/></g></g></g><g fill="#000000" fill-opacity="1"><g transform="translate(260.986799, 43.859772)"><g><path d="M 12.859375 0.34375 C 11.160156 0.34375 9.664062 0.125 8.375 -0.3125 C 7.09375 -0.75 6.015625 -1.398438 5.140625 -2.265625 C 4.265625 -3.140625 3.601562 -4.222656 3.15625 -5.515625 C 2.71875 -6.816406 2.5 -8.320312 2.5 -10.03125 L 2.5 -22.515625 C 2.5 -23.273438 2.6875 -23.835938 3.0625 -24.203125 C 3.445312 -24.578125 4 -24.765625 4.71875 -24.765625 C 5.4375 -24.765625 5.988281 -24.578125 6.375 -24.203125 C 6.757812 -23.835938 6.953125 -23.273438 6.953125 -22.515625 L 6.953125 -10.078125 C 6.953125 -7.867188 7.453125 -6.210938 8.453125 -5.109375 C 9.460938 -4.015625 10.929688 -3.46875 12.859375 -3.46875 C 14.773438 -3.46875 16.226562 -4.015625 17.21875 -5.109375 C 18.21875 -6.210938 18.71875 -7.867188 18.71875 -10.078125 L 18.71875 -22.515625 C 18.71875 -23.273438 18.910156 -23.835938 19.296875 -24.203125 C 19.679688 -24.578125 20.226562 -24.765625 20.9375 -24.765625 C 21.632812 -24.765625 22.175781 -24.578125 22.5625 -24.203125 C 22.945312 -23.835938 23.140625 -23.273438 23.140625 -22.515625 L 23.140625 -10.03125 C 23.140625 -7.769531 22.75 -5.863281 21.96875 -4.3125 C 21.195312 -2.757812 20.046875 -1.59375 18.515625 -0.8125 C 16.984375 -0.0390625 15.097656 0.34375 12.859375 0.34375 Z M 12.859375 0.34375 "/></g></g></g><g fill="#000000" fill-opacity="1"><g transform="translate(286.621078, 43.859772)"><g><path d="M 14.0625 0.34375 C 11.519531 0.34375 9.335938 -0.171875 7.515625 -1.203125 C 5.703125 -2.234375 4.304688 -3.691406 3.328125 -5.578125 C 2.359375 -7.460938 1.875 -9.691406 1.875 -12.265625 C 1.875 -14.179688 2.148438 -15.910156 2.703125 -17.453125 C 3.265625 -18.992188 4.066406 -20.3125 5.109375 -21.40625 C 6.148438 -22.507812 7.425781 -23.351562 8.9375 -23.9375 C 10.457031 -24.53125 12.164062 -24.828125 14.0625 -24.828125 C 15.34375 -24.828125 16.59375 -24.664062 17.8125 -24.34375 C 19.039062 -24.019531 20.117188 -23.554688 21.046875 -22.953125 C 21.535156 -22.660156 21.859375 -22.296875 22.015625 -21.859375 C 22.179688 -21.429688 22.21875 -21.015625 22.125 -20.609375 C 22.03125 -20.203125 21.835938 -19.859375 21.546875 -19.578125 C 21.265625 -19.304688 20.90625 -19.148438 20.46875 -19.109375 C 20.039062 -19.078125 19.570312 -19.226562 19.0625 -19.5625 C 18.351562 -20.019531 17.578125 -20.351562 16.734375 -20.5625 C 15.898438 -20.769531 15.054688 -20.875 14.203125 -20.875 C 12.554688 -20.875 11.164062 -20.535156 10.03125 -19.859375 C 8.90625 -19.191406 8.050781 -18.222656 7.46875 -16.953125 C 6.882812 -15.679688 6.59375 -14.117188 6.59375 -12.265625 C 6.59375 -10.429688 6.882812 -8.863281 7.46875 -7.5625 C 8.050781 -6.269531 8.90625 -5.285156 10.03125 -4.609375 C 11.164062 -3.941406 12.554688 -3.609375 14.203125 -3.609375 C 15.085938 -3.609375 15.957031 -3.71875 16.8125 -3.9375 C 17.664062 -4.15625 18.476562 -4.5 19.25 -4.96875 C 19.75 -5.269531 20.203125 -5.398438 20.609375 -5.359375 C 21.015625 -5.328125 21.359375 -5.179688 21.640625 -4.921875 C 21.921875 -4.671875 22.101562 -4.351562 22.1875 -3.96875 C 22.28125 -3.59375 22.257812 -3.203125 22.125 -2.796875 C 21.988281 -2.390625 21.710938 -2.035156 21.296875 -1.734375 C 20.367188 -1.066406 19.257812 -0.550781 17.96875 -0.1875 C 16.6875 0.164062 15.382812 0.34375 14.0625 0.34375 Z M 14.0625 0.34375 "/></g></g></g><g fill="#000000" fill-opacity="1"><g transform="translate(310.240741, 43.859772)"><g><path d="M 12.859375 0.34375 C 11.160156 0.34375 9.664062 0.125 8.375 -0.3125 C 7.09375 -0.75 6.015625 -1.398438 5.140625 -2.265625 C 4.265625 -3.140625 3.601562 -4.222656 3.15625 -5.515625 C 2.71875 -6.816406 2.5 -8.320312 2.5 -10.03125 L 2.5 -22.515625 C 2.5 -23.273438 2.6875 -23.835938 3.0625 -24.203125 C 3.445312 -24.578125 4 -24.765625 4.71875 -24.765625 C 5.4375 -24.765625 5.988281 -24.578125 6.375 -24.203125 C 6.757812 -23.835938 6.953125 -23.273438 6.953125 -22.515625 L 6.953125 -10.078125 C 6.953125 -7.867188 7.453125 -6.210938 8.453125 -5.109375 C 9.460938 -4.015625 10.929688 -3.46875 12.859375 -3.46875 C 14.773438 -3.46875 16.226562 -4.015625 17.21875 -5.109375 C 18.21875 -6.210938 18.71875 -7.867188 18.71875 -10.078125 L 18.71875 -22.515625 C 18.71875 -23.273438 18.910156 -23.835938 19.296875 -24.203125 C 19.679688 -24.578125 20.226562 -24.765625 20.9375 -24.765625 C 21.632812 -24.765625 22.175781 -24.578125 22.5625 -24.203125 C 22.945312 -23.835938 23.140625 -23.273438 23.140625 -22.515625 L 23.140625 -10.03125 C 23.140625 -7.769531 22.75 -5.863281 21.96875 -4.3125 C 21.195312 -2.757812 20.046875 -1.59375 18.515625 -0.8125 C 16.984375 -0.0390625 15.097656 0.34375 12.859375 0.34375 Z M 12.859375 0.34375 "/></g></g></g></svg>