<svg xmlns="http://www.w3.org/2000/svg" xmlns:xlink="http://www.w3.org/1999/xlink" width="848" zoomAndPan="magnify" viewBox="0 0 636 167.999997" height="224" preserveAspectRatio="xMidYMid meet" version="1.0"><defs><g/><clipPath id="b3237c0339"><path d="M 0 0 L 635.835938 0 L 635.835938 167.953125 L 0 167.953125 Z M 0 0 " clip-rule="nonzero"/></clipPath></defs><g clip-path="url(#b3237c0339)"><path stroke-linecap="butt" transform="matrix(0.75, 0, 0, 0.75, 0.00154795, -0.000000000000031974)" fill="none" stroke-linejoin="miter" d="M -0.00206393 0.000000000000042633 L 847.779237 0.000000000000042633 L 847.779237 223.937513 L -0.00206393 223.937513 Z M -0.00206393 0.000000000000042633 " stroke="#000000" stroke-width="12" stroke-opacity="1" stroke-miterlimit="4"/></g><g fill="#000000" fill-opacity="1"><g transform="translate(14.194516, 67.476899)"><g><path d="M 6.375 0 C 5.40625 0 4.664062 -0.253906 4.15625 -0.765625 C 3.644531 -1.285156 3.390625 -2.023438 3.390625 -2.984375 L 3.390625 -28.03125 C 3.390625 -29 3.644531 -29.738281 4.15625 -30.25 C 4.664062 -30.757812 5.40625 -31.015625 6.375 -31.015625 L 22.09375 -31.015625 C 22.820312 -31.015625 23.382812 -30.820312 23.78125 -30.4375 C 24.175781 -30.0625 24.375 -29.519531 24.375 -28.8125 C 24.375 -28.082031 24.175781 -27.519531 23.78125 -27.125 C 23.382812 -26.726562 22.820312 -26.53125 22.09375 -26.53125 L 8.796875 -26.53125 L 8.796875 -18 L 21.125 -18 C 21.882812 -18 22.453125 -17.804688 22.828125 -17.421875 C 23.210938 -17.046875 23.40625 -16.488281 23.40625 -15.75 C 23.40625 -15.019531 23.210938 -14.460938 22.828125 -14.078125 C 22.453125 -13.703125 21.882812 -13.515625 21.125 -13.515625 L 8.796875 -13.515625 L 8.796875 -4.484375 L 22.09375 -4.484375 C 22.820312 -4.484375 23.382812 -4.289062 23.78125 -3.90625 C 24.175781 -3.53125 24.375 -2.976562 24.375 -2.25 C 24.375 -1.507812 24.175781 -0.945312 23.78125 -0.5625 C 23.382812 -0.1875 22.820312 0 22.09375 0 Z M 6.375 0 "/></g></g></g><g fill="#000000" fill-opacity="1"><g transform="translate(40.457835, 67.476899)"><g><path d="M 5.671875 0.359375 C 4.765625 0.359375 4.066406 0.117188 3.578125 -0.359375 C 3.097656 -0.847656 2.859375 -1.550781 2.859375 -2.46875 L 2.859375 -19.09375 C 2.859375 -20 3.09375 -20.6875 3.5625 -21.15625 C 4.03125 -21.632812 4.691406 -21.875 5.546875 -21.875 C 6.390625 -21.875 7.046875 -21.632812 7.515625 -21.15625 C 7.992188 -20.6875 8.234375 -20 8.234375 -19.09375 L 8.234375 -16.328125 L 7.78125 -16.328125 C 8.195312 -18.085938 9.003906 -19.421875 10.203125 -20.328125 C 11.410156 -21.234375 13.007812 -21.773438 15 -21.953125 C 15.613281 -22.015625 16.101562 -21.859375 16.46875 -21.484375 C 16.84375 -21.117188 17.054688 -20.554688 17.109375 -19.796875 C 17.171875 -19.066406 17.003906 -18.472656 16.609375 -18.015625 C 16.210938 -17.566406 15.617188 -17.296875 14.828125 -17.203125 L 13.859375 -17.109375 C 12.066406 -16.941406 10.71875 -16.394531 9.8125 -15.46875 C 8.90625 -14.539062 8.453125 -13.242188 8.453125 -11.578125 L 8.453125 -2.46875 C 8.453125 -1.550781 8.21875 -0.847656 7.75 -0.359375 C 7.28125 0.117188 6.585938 0.359375 5.671875 0.359375 Z M 5.671875 0.359375 "/></g></g></g><g fill="#000000" fill-opacity="1"><g transform="translate(57.702764, 67.476899)"><g><path d="M 5.59375 0.3125 C 4.707031 0.3125 4.03125 0.046875 3.5625 -0.484375 C 3.09375 -1.015625 2.859375 -1.75 2.859375 -2.6875 L 2.859375 -18.828125 C 2.859375 -19.796875 3.09375 -20.535156 3.5625 -21.046875 C 4.03125 -21.566406 4.707031 -21.828125 5.59375 -21.828125 C 6.46875 -21.828125 7.144531 -21.566406 7.625 -21.046875 C 8.113281 -20.535156 8.359375 -19.796875 8.359375 -18.828125 L 8.359375 -2.6875 C 8.359375 -1.75 8.125 -1.015625 7.65625 -0.484375 C 7.1875 0.046875 6.5 0.3125 5.59375 0.3125 Z M 5.59375 -25.921875 C 4.5625 -25.921875 3.757812 -26.175781 3.1875 -26.6875 C 2.613281 -27.195312 2.328125 -27.90625 2.328125 -28.8125 C 2.328125 -29.757812 2.613281 -30.476562 3.1875 -30.96875 C 3.757812 -31.46875 4.5625 -31.71875 5.59375 -31.71875 C 6.644531 -31.71875 7.445312 -31.46875 8 -30.96875 C 8.5625 -30.476562 8.84375 -29.757812 8.84375 -28.8125 C 8.84375 -27.90625 8.5625 -27.195312 8 -26.6875 C 7.445312 -26.175781 6.644531 -25.921875 5.59375 -25.921875 Z M 5.59375 -25.921875 "/></g></g></g><g fill="#000000" fill-opacity="1"><g transform="translate(68.920765, 67.476899)"><g><path d="M 5.59375 0.359375 C 4.707031 0.359375 4.03125 0.117188 3.5625 -0.359375 C 3.09375 -0.847656 2.859375 -1.550781 2.859375 -2.46875 L 2.859375 -19.09375 C 2.859375 -20 3.09375 -20.6875 3.5625 -21.15625 C 4.03125 -21.632812 4.691406 -21.875 5.546875 -21.875 C 6.390625 -21.875 7.046875 -21.632812 7.515625 -21.15625 C 7.992188 -20.6875 8.234375 -20 8.234375 -19.09375 L 8.234375 -16.109375 L 7.75 -17.203125 C 8.394531 -18.753906 9.394531 -19.929688 10.75 -20.734375 C 12.113281 -21.546875 13.664062 -21.953125 15.40625 -21.953125 C 17.132812 -21.953125 18.554688 -21.628906 19.671875 -20.984375 C 20.785156 -20.335938 21.617188 -19.363281 22.171875 -18.0625 C 22.734375 -16.757812 23.015625 -15.109375 23.015625 -13.109375 L 23.015625 -2.46875 C 23.015625 -1.550781 22.78125 -0.847656 22.3125 -0.359375 C 21.84375 0.117188 21.164062 0.359375 20.28125 0.359375 C 19.40625 0.359375 18.722656 0.117188 18.234375 -0.359375 C 17.753906 -0.847656 17.515625 -1.550781 17.515625 -2.46875 L 17.515625 -12.84375 C 17.515625 -14.519531 17.195312 -15.738281 16.5625 -16.5 C 15.9375 -17.257812 14.960938 -17.640625 13.640625 -17.640625 C 12.023438 -17.640625 10.738281 -17.132812 9.78125 -16.125 C 8.832031 -15.113281 8.359375 -13.769531 8.359375 -12.09375 L 8.359375 -2.46875 C 8.359375 -0.582031 7.4375 0.359375 5.59375 0.359375 Z M 5.59375 0.359375 "/></g></g></g><g fill="#000000" fill-opacity="1"><g transform="translate(94.656181, 67.476899)"><g/></g></g><g fill="#000000" fill-opacity="1"><g transform="translate(106.578051, 67.476899)"><g><path d="M 11.125 0.4375 C 9.25 0.4375 7.597656 -0.015625 6.171875 -0.921875 C 4.753906 -1.828125 3.648438 -3.125 2.859375 -4.8125 C 2.066406 -6.5 1.671875 -8.488281 1.671875 -10.78125 C 1.671875 -13.09375 2.066406 -15.078125 2.859375 -16.734375 C 3.648438 -18.398438 4.753906 -19.6875 6.171875 -20.59375 C 7.597656 -21.5 9.25 -21.953125 11.125 -21.953125 C 12.914062 -21.953125 14.476562 -21.507812 15.8125 -20.625 C 17.144531 -19.75 18.050781 -18.59375 18.53125 -17.15625 L 18.046875 -17.15625 L 18.046875 -28.59375 C 18.046875 -29.507812 18.28125 -30.203125 18.75 -30.671875 C 19.21875 -31.140625 19.890625 -31.375 20.765625 -31.375 C 21.648438 -31.375 22.332031 -31.140625 22.8125 -30.671875 C 23.300781 -30.203125 23.546875 -29.507812 23.546875 -28.59375 L 23.546875 -2.46875 C 23.546875 -1.550781 23.304688 -0.847656 22.828125 -0.359375 C 22.359375 0.117188 21.6875 0.359375 20.8125 0.359375 C 19.925781 0.359375 19.25 0.117188 18.78125 -0.359375 C 18.3125 -0.847656 18.078125 -1.550781 18.078125 -2.46875 L 18.078125 -5.890625 L 18.5625 -4.578125 C 18.125 -3.046875 17.226562 -1.828125 15.875 -0.921875 C 14.53125 -0.015625 12.945312 0.4375 11.125 0.4375 Z M 12.671875 -3.734375 C 13.753906 -3.734375 14.707031 -4 15.53125 -4.53125 C 16.351562 -5.0625 16.988281 -5.847656 17.4375 -6.890625 C 17.894531 -7.929688 18.125 -9.226562 18.125 -10.78125 C 18.125 -13.125 17.625 -14.875 16.625 -16.03125 C 15.632812 -17.195312 14.316406 -17.78125 12.671875 -17.78125 C 11.585938 -17.78125 10.632812 -17.519531 9.8125 -17 C 8.988281 -16.488281 8.347656 -15.710938 7.890625 -14.671875 C 7.441406 -13.628906 7.21875 -12.332031 7.21875 -10.78125 C 7.21875 -8.457031 7.710938 -6.703125 8.703125 -5.515625 C 9.703125 -4.328125 11.023438 -3.734375 12.671875 -3.734375 Z M 12.671875 -3.734375 "/></g></g></g><g fill="#000000" fill-opacity="1"><g transform="translate(132.973344, 67.476899)"><g><path d="M 9.9375 0.4375 C 8.382812 0.4375 7 0.140625 5.78125 -0.453125 C 4.5625 -1.054688 3.609375 -1.867188 2.921875 -2.890625 C 2.234375 -3.921875 1.890625 -5.082031 1.890625 -6.375 C 1.890625 -7.957031 2.300781 -9.210938 3.125 -10.140625 C 3.945312 -11.066406 5.28125 -11.734375 7.125 -12.140625 C 8.976562 -12.554688 11.457031 -12.765625 14.5625 -12.765625 L 16.765625 -12.765625 L 16.765625 -9.59375 L 14.609375 -9.59375 C 12.785156 -9.59375 11.332031 -9.503906 10.25 -9.328125 C 9.164062 -9.148438 8.394531 -8.847656 7.9375 -8.421875 C 7.488281 -7.992188 7.265625 -7.398438 7.265625 -6.640625 C 7.265625 -5.671875 7.597656 -4.878906 8.265625 -4.265625 C 8.941406 -3.648438 9.882812 -3.34375 11.09375 -3.34375 C 12.0625 -3.34375 12.914062 -3.566406 13.65625 -4.015625 C 14.40625 -4.472656 15 -5.097656 15.4375 -5.890625 C 15.882812 -6.679688 16.109375 -7.59375 16.109375 -8.625 L 16.109375 -13.6875 C 16.109375 -15.15625 15.785156 -16.207031 15.140625 -16.84375 C 14.492188 -17.488281 13.40625 -17.8125 11.875 -17.8125 C 11.03125 -17.8125 10.113281 -17.707031 9.125 -17.5 C 8.144531 -17.300781 7.113281 -16.953125 6.03125 -16.453125 C 5.46875 -16.191406 4.972656 -16.117188 4.546875 -16.234375 C 4.128906 -16.347656 3.800781 -16.585938 3.5625 -16.953125 C 3.332031 -17.328125 3.21875 -17.734375 3.21875 -18.171875 C 3.21875 -18.609375 3.332031 -19.039062 3.5625 -19.46875 C 3.800781 -19.894531 4.195312 -20.210938 4.75 -20.421875 C 6.101562 -20.972656 7.398438 -21.363281 8.640625 -21.59375 C 9.890625 -21.832031 11.03125 -21.953125 12.0625 -21.953125 C 14.164062 -21.953125 15.898438 -21.628906 17.265625 -20.984375 C 18.628906 -20.335938 19.648438 -19.363281 20.328125 -18.0625 C 21.003906 -16.757812 21.34375 -15.082031 21.34375 -13.03125 L 21.34375 -2.46875 C 21.34375 -1.550781 21.117188 -0.847656 20.671875 -0.359375 C 20.234375 0.117188 19.601562 0.359375 18.78125 0.359375 C 17.96875 0.359375 17.332031 0.117188 16.875 -0.359375 C 16.414062 -0.847656 16.1875 -1.550781 16.1875 -2.46875 L 16.1875 -4.578125 L 16.546875 -4.578125 C 16.335938 -3.546875 15.929688 -2.65625 15.328125 -1.90625 C 14.734375 -1.164062 13.976562 -0.585938 13.0625 -0.171875 C 12.15625 0.234375 11.113281 0.4375 9.9375 0.4375 Z M 9.9375 0.4375 "/></g></g></g><g fill="#000000" fill-opacity="1"><g transform="translate(157.037052, 67.476899)"><g><path d="M 5.59375 0.359375 C 4.707031 0.359375 4.03125 0.117188 3.5625 -0.359375 C 3.09375 -0.847656 2.859375 -1.550781 2.859375 -2.46875 L 2.859375 -19.09375 C 2.859375 -20 3.09375 -20.6875 3.5625 -21.15625 C 4.03125 -21.632812 4.691406 -21.875 5.546875 -21.875 C 6.390625 -21.875 7.046875 -21.632812 7.515625 -21.15625 C 7.992188 -20.6875 8.234375 -20 8.234375 -19.09375 L 8.234375 -16.109375 L 7.75 -17.203125 C 8.394531 -18.753906 9.394531 -19.929688 10.75 -20.734375 C 12.113281 -21.546875 13.664062 -21.953125 15.40625 -21.953125 C 17.132812 -21.953125 18.554688 -21.628906 19.671875 -20.984375 C 20.785156 -20.335938 21.617188 -19.363281 22.171875 -18.0625 C 22.734375 -16.757812 23.015625 -15.109375 23.015625 -13.109375 L 23.015625 -2.46875 C 23.015625 -1.550781 22.78125 -0.847656 22.3125 -0.359375 C 21.84375 0.117188 21.164062 0.359375 20.28125 0.359375 C 19.40625 0.359375 18.722656 0.117188 18.234375 -0.359375 C 17.753906 -0.847656 17.515625 -1.550781 17.515625 -2.46875 L 17.515625 -12.84375 C 17.515625 -14.519531 17.195312 -15.738281 16.5625 -16.5 C 15.9375 -17.257812 14.960938 -17.640625 13.640625 -17.640625 C 12.023438 -17.640625 10.738281 -17.132812 9.78125 -16.125 C 8.832031 -15.113281 8.359375 -13.769531 8.359375 -12.09375 L 8.359375 -2.46875 C 8.359375 -0.582031 7.4375 0.359375 5.59375 0.359375 Z M 5.59375 0.359375 "/></g></g></g><g fill="#000000" fill-opacity="1"><g transform="translate(182.772467, 67.476899)"><g/></g></g><g fill="#000000" fill-opacity="1"><g transform="translate(194.694338, 67.476899)"><g><path d="M 12.671875 0.4375 C 10.441406 0.4375 8.503906 -0.015625 6.859375 -0.921875 C 5.222656 -1.828125 3.945312 -3.125 3.03125 -4.8125 C 2.125 -6.5 1.671875 -8.488281 1.671875 -10.78125 C 1.671875 -12.507812 1.925781 -14.054688 2.4375 -15.421875 C 2.957031 -16.785156 3.695312 -17.957031 4.65625 -18.9375 C 5.625 -19.925781 6.78125 -20.675781 8.125 -21.1875 C 9.476562 -21.695312 10.992188 -21.953125 12.671875 -21.953125 C 14.898438 -21.953125 16.832031 -21.5 18.46875 -20.59375 C 20.113281 -19.6875 21.390625 -18.394531 22.296875 -16.71875 C 23.210938 -15.050781 23.671875 -13.070312 23.671875 -10.78125 C 23.671875 -9.050781 23.410156 -7.492188 22.890625 -6.109375 C 22.378906 -4.734375 21.640625 -3.550781 20.671875 -2.5625 C 19.710938 -1.582031 18.554688 -0.835938 17.203125 -0.328125 C 15.859375 0.179688 14.347656 0.4375 12.671875 0.4375 Z M 12.671875 -3.734375 C 13.753906 -3.734375 14.707031 -4 15.53125 -4.53125 C 16.351562 -5.0625 16.988281 -5.847656 17.4375 -6.890625 C 17.894531 -7.929688 18.125 -9.226562 18.125 -10.78125 C 18.125 -13.125 17.625 -14.875 16.625 -16.03125 C 15.632812 -17.195312 14.316406 -17.78125 12.671875 -17.78125 C 11.585938 -17.78125 10.632812 -17.519531 9.8125 -17 C 8.988281 -16.488281 8.347656 -15.710938 7.890625 -14.671875 C 7.441406 -13.628906 7.21875 -12.332031 7.21875 -10.78125 C 7.21875 -8.457031 7.710938 -6.703125 8.703125 -5.515625 C 9.703125 -4.328125 11.023438 -3.734375 12.671875 -3.734375 Z M 12.671875 -3.734375 "/></g></g></g><g fill="#000000" fill-opacity="1"><g transform="translate(220.033821, 67.476899)"><g><path d="M 5.671875 0.359375 C 4.765625 0.359375 4.066406 0.117188 3.578125 -0.359375 C 3.097656 -0.847656 2.859375 -1.550781 2.859375 -2.46875 L 2.859375 -19.09375 C 2.859375 -20 3.09375 -20.6875 3.5625 -21.15625 C 4.03125 -21.632812 4.691406 -21.875 5.546875 -21.875 C 6.390625 -21.875 7.046875 -21.632812 7.515625 -21.15625 C 7.992188 -20.6875 8.234375 -20 8.234375 -19.09375 L 8.234375 -16.328125 L 7.78125 -16.328125 C 8.195312 -18.085938 9.003906 -19.421875 10.203125 -20.328125 C 11.410156 -21.234375 13.007812 -21.773438 15 -21.953125 C 15.613281 -22.015625 16.101562 -21.859375 16.46875 -21.484375 C 16.84375 -21.117188 17.054688 -20.554688 17.109375 -19.796875 C 17.171875 -19.066406 17.003906 -18.472656 16.609375 -18.015625 C 16.210938 -17.566406 15.617188 -17.296875 14.828125 -17.203125 L 13.859375 -17.109375 C 12.066406 -16.941406 10.71875 -16.394531 9.8125 -15.46875 C 8.90625 -14.539062 8.453125 -13.242188 8.453125 -11.578125 L 8.453125 -2.46875 C 8.453125 -1.550781 8.21875 -0.847656 7.75 -0.359375 C 7.28125 0.117188 6.585938 0.359375 5.671875 0.359375 Z M 5.671875 0.359375 "/></g></g></g><g fill="#000000" fill-opacity="1"><g transform="translate(237.058761, 67.476899)"><g><path d="M 9.9375 0.4375 C 8.382812 0.4375 7 0.140625 5.78125 -0.453125 C 4.5625 -1.054688 3.609375 -1.867188 2.921875 -2.890625 C 2.234375 -3.921875 1.890625 -5.082031 1.890625 -6.375 C 1.890625 -7.957031 2.300781 -9.210938 3.125 -10.140625 C 3.945312 -11.066406 5.28125 -11.734375 7.125 -12.140625 C 8.976562 -12.554688 11.457031 -12.765625 14.5625 -12.765625 L 16.765625 -12.765625 L 16.765625 -9.59375 L 14.609375 -9.59375 C 12.785156 -9.59375 11.332031 -9.503906 10.25 -9.328125 C 9.164062 -9.148438 8.394531 -8.847656 7.9375 -8.421875 C 7.488281 -7.992188 7.265625 -7.398438 7.265625 -6.640625 C 7.265625 -5.671875 7.597656 -4.878906 8.265625 -4.265625 C 8.941406 -3.648438 9.882812 -3.34375 11.09375 -3.34375 C 12.0625 -3.34375 12.914062 -3.566406 13.65625 -4.015625 C 14.40625 -4.472656 15 -5.097656 15.4375 -5.890625 C 15.882812 -6.679688 16.109375 -7.59375 16.109375 -8.625 L 16.109375 -13.6875 C 16.109375 -15.15625 15.785156 -16.207031 15.140625 -16.84375 C 14.492188 -17.488281 13.40625 -17.8125 11.875 -17.8125 C 11.03125 -17.8125 10.113281 -17.707031 9.125 -17.5 C 8.144531 -17.300781 7.113281 -16.953125 6.03125 -16.453125 C 5.46875 -16.191406 4.972656 -16.117188 4.546875 -16.234375 C 4.128906 -16.347656 3.800781 -16.585938 3.5625 -16.953125 C 3.332031 -17.328125 3.21875 -17.734375 3.21875 -18.171875 C 3.21875 -18.609375 3.332031 -19.039062 3.5625 -19.46875 C 3.800781 -19.894531 4.195312 -20.210938 4.75 -20.421875 C 6.101562 -20.972656 7.398438 -21.363281 8.640625 -21.59375 C 9.890625 -21.832031 11.03125 -21.953125 12.0625 -21.953125 C 14.164062 -21.953125 15.898438 -21.628906 17.265625 -20.984375 C 18.628906 -20.335938 19.648438 -19.363281 20.328125 -18.0625 C 21.003906 -16.757812 21.34375 -15.082031 21.34375 -13.03125 L 21.34375 -2.46875 C 21.34375 -1.550781 21.117188 -0.847656 20.671875 -0.359375 C 20.234375 0.117188 19.601562 0.359375 18.78125 0.359375 C 17.96875 0.359375 17.332031 0.117188 16.875 -0.359375 C 16.414062 -0.847656 16.1875 -1.550781 16.1875 -2.46875 L 16.1875 -4.578125 L 16.546875 -4.578125 C 16.335938 -3.546875 15.929688 -2.65625 15.328125 -1.90625 C 14.734375 -1.164062 13.976562 -0.585938 13.0625 -0.171875 C 12.15625 0.234375 11.113281 0.4375 9.9375 0.4375 Z M 9.9375 0.4375 "/></g></g></g><g fill="#000000" fill-opacity="1"><g transform="translate(261.12248, 67.476899)"><g><path d="M 5.59375 0.359375 C 4.707031 0.359375 4.03125 0.117188 3.5625 -0.359375 C 3.09375 -0.847656 2.859375 -1.550781 2.859375 -2.46875 L 2.859375 -19.09375 C 2.859375 -20 3.09375 -20.6875 3.5625 -21.15625 C 4.03125 -21.632812 4.691406 -21.875 5.546875 -21.875 C 6.390625 -21.875 7.046875 -21.632812 7.515625 -21.15625 C 7.992188 -20.6875 8.234375 -20 8.234375 -19.09375 L 8.234375 -16.109375 L 7.75 -17.203125 C 8.394531 -18.753906 9.394531 -19.929688 10.75 -20.734375 C 12.113281 -21.546875 13.664062 -21.953125 15.40625 -21.953125 C 17.132812 -21.953125 18.554688 -21.628906 19.671875 -20.984375 C 20.785156 -20.335938 21.617188 -19.363281 22.171875 -18.0625 C 22.734375 -16.757812 23.015625 -15.109375 23.015625 -13.109375 L 23.015625 -2.46875 C 23.015625 -1.550781 22.78125 -0.847656 22.3125 -0.359375 C 21.84375 0.117188 21.164062 0.359375 20.28125 0.359375 C 19.40625 0.359375 18.722656 0.117188 18.234375 -0.359375 C 17.753906 -0.847656 17.515625 -1.550781 17.515625 -2.46875 L 17.515625 -12.84375 C 17.515625 -14.519531 17.195312 -15.738281 16.5625 -16.5 C 15.9375 -17.257812 14.960938 -17.640625 13.640625 -17.640625 C 12.023438 -17.640625 10.738281 -17.132812 9.78125 -16.125 C 8.832031 -15.113281 8.359375 -13.769531 8.359375 -12.09375 L 8.359375 -2.46875 C 8.359375 -0.582031 7.4375 0.359375 5.59375 0.359375 Z M 5.59375 0.359375 "/></g></g></g><g fill="#000000" fill-opacity="1"><g transform="translate(286.857907, 67.476899)"><g><path d="M 12.890625 8.359375 C 11.304688 8.359375 9.773438 8.210938 8.296875 7.921875 C 6.816406 7.628906 5.472656 7.175781 4.265625 6.5625 C 3.710938 6.257812 3.335938 5.90625 3.140625 5.5 C 2.953125 5.09375 2.894531 4.675781 2.96875 4.25 C 3.039062 3.820312 3.21875 3.445312 3.5 3.125 C 3.78125 2.800781 4.125 2.578125 4.53125 2.453125 C 4.9375 2.335938 5.363281 2.398438 5.8125 2.640625 C 7.101562 3.285156 8.328125 3.703125 9.484375 3.890625 C 10.640625 4.085938 11.628906 4.1875 12.453125 4.1875 C 14.421875 4.1875 15.894531 3.707031 16.875 2.75 C 17.851562 1.789062 18.34375 0.375 18.34375 -1.5 L 18.34375 -5.453125 L 18.75 -5.453125 C 18.300781 -3.960938 17.378906 -2.769531 15.984375 -1.875 C 14.597656 -0.976562 13.023438 -0.53125 11.265625 -0.53125 C 9.328125 -0.53125 7.640625 -0.976562 6.203125 -1.875 C 4.765625 -2.769531 3.648438 -4.019531 2.859375 -5.625 C 2.066406 -7.238281 1.671875 -9.117188 1.671875 -11.265625 C 1.671875 -12.878906 1.894531 -14.335938 2.34375 -15.640625 C 2.800781 -16.941406 3.445312 -18.0625 4.28125 -19 C 5.125 -19.945312 6.140625 -20.675781 7.328125 -21.1875 C 8.515625 -21.695312 9.828125 -21.953125 11.265625 -21.953125 C 13.078125 -21.953125 14.664062 -21.503906 16.03125 -20.609375 C 17.394531 -19.710938 18.285156 -18.535156 18.703125 -17.078125 L 18.265625 -15.96875 L 18.265625 -19.09375 C 18.265625 -20 18.503906 -20.6875 18.984375 -21.15625 C 19.472656 -21.632812 20.140625 -21.875 20.984375 -21.875 C 21.867188 -21.875 22.546875 -21.632812 23.015625 -21.15625 C 23.484375 -20.6875 23.71875 -20 23.71875 -19.09375 L 23.71875 -2.15625 C 23.71875 1.332031 22.789062 3.957031 20.9375 5.71875 C 19.09375 7.476562 16.410156 8.359375 12.890625 8.359375 Z M 12.765625 -4.703125 C 13.898438 -4.703125 14.878906 -4.96875 15.703125 -5.5 C 16.523438 -6.03125 17.160156 -6.785156 17.609375 -7.765625 C 18.066406 -8.742188 18.296875 -9.910156 18.296875 -11.265625 C 18.296875 -13.285156 17.796875 -14.875 16.796875 -16.03125 C 15.804688 -17.195312 14.460938 -17.78125 12.765625 -17.78125 C 11.617188 -17.78125 10.632812 -17.515625 9.8125 -16.984375 C 8.988281 -16.453125 8.347656 -15.703125 7.890625 -14.734375 C 7.441406 -13.765625 7.21875 -12.609375 7.21875 -11.265625 C 7.21875 -9.242188 7.710938 -7.644531 8.703125 -6.46875 C 9.703125 -5.289062 11.054688 -4.703125 12.765625 -4.703125 Z M 12.765625 -4.703125 "/></g></g></g><g fill="#000000" fill-opacity="1"><g transform="translate(313.429164, 67.476899)"><g/></g></g><g fill="#000000" fill-opacity="1"><g transform="translate(325.351023, 67.476899)"><g><path d="M 12.71875 0.4375 C 10.8125 0.4375 9.21875 0.113281 7.9375 -0.53125 C 6.664062 -1.175781 5.722656 -2.117188 5.109375 -3.359375 C 4.492188 -4.609375 4.1875 -6.160156 4.1875 -8.015625 L 4.1875 -17.375 L 1.890625 -17.375 C 1.191406 -17.375 0.648438 -17.554688 0.265625 -17.921875 C -0.117188 -18.296875 -0.3125 -18.804688 -0.3125 -19.453125 C -0.3125 -20.117188 -0.117188 -20.628906 0.265625 -20.984375 C 0.648438 -21.335938 1.191406 -21.515625 1.890625 -21.515625 L 4.1875 -21.515625 L 4.1875 -25.515625 C 4.1875 -26.429688 4.425781 -27.125 4.90625 -27.59375 C 5.382812 -28.0625 6.066406 -28.296875 6.953125 -28.296875 C 7.828125 -28.296875 8.5 -28.0625 8.96875 -27.59375 C 9.445312 -27.125 9.6875 -26.429688 9.6875 -25.515625 L 9.6875 -21.515625 L 14.34375 -21.515625 C 15.050781 -21.515625 15.59375 -21.335938 15.96875 -20.984375 C 16.351562 -20.628906 16.546875 -20.117188 16.546875 -19.453125 C 16.546875 -18.804688 16.351562 -18.296875 15.96875 -17.921875 C 15.59375 -17.554688 15.050781 -17.375 14.34375 -17.375 L 9.6875 -17.375 L 9.6875 -8.3125 C 9.6875 -6.90625 9.992188 -5.847656 10.609375 -5.140625 C 11.222656 -4.441406 12.21875 -4.09375 13.59375 -4.09375 C 14.09375 -4.09375 14.53125 -4.132812 14.90625 -4.21875 C 15.289062 -4.3125 15.628906 -4.375 15.921875 -4.40625 C 16.273438 -4.425781 16.566406 -4.3125 16.796875 -4.0625 C 17.035156 -3.820312 17.15625 -3.316406 17.15625 -2.546875 C 17.15625 -1.960938 17.0625 -1.441406 16.875 -0.984375 C 16.6875 -0.535156 16.34375 -0.222656 15.84375 -0.046875 C 15.457031 0.0664062 14.957031 0.175781 14.34375 0.28125 C 13.726562 0.382812 13.1875 0.4375 12.71875 0.4375 Z M 12.71875 0.4375 "/></g></g></g><g fill="#000000" fill-opacity="1"><g transform="translate(342.244012, 67.476899)"><g><path d="M 10.640625 0.4375 C 8.859375 0.4375 7.378906 0.109375 6.203125 -0.546875 C 5.023438 -1.210938 4.148438 -2.203125 3.578125 -3.515625 C 3.015625 -4.835938 2.734375 -6.484375 2.734375 -8.453125 L 2.734375 -19.09375 C 2.734375 -20.03125 2.96875 -20.726562 3.4375 -21.1875 C 3.90625 -21.644531 4.578125 -21.875 5.453125 -21.875 C 6.335938 -21.875 7.019531 -21.644531 7.5 -21.1875 C 7.988281 -20.726562 8.234375 -20.03125 8.234375 -19.09375 L 8.234375 -8.359375 C 8.234375 -6.835938 8.539062 -5.707031 9.15625 -4.96875 C 9.769531 -4.238281 10.75 -3.875 12.09375 -3.875 C 13.5625 -3.875 14.765625 -4.378906 15.703125 -5.390625 C 16.640625 -6.398438 17.109375 -7.742188 17.109375 -9.421875 L 17.109375 -19.09375 C 17.109375 -20.03125 17.34375 -20.726562 17.8125 -21.1875 C 18.289062 -21.644531 18.96875 -21.875 19.84375 -21.875 C 20.71875 -21.875 21.394531 -21.644531 21.875 -21.1875 C 22.363281 -20.726562 22.609375 -20.03125 22.609375 -19.09375 L 22.609375 -2.46875 C 22.609375 -0.582031 21.71875 0.359375 19.9375 0.359375 C 19.082031 0.359375 18.421875 0.117188 17.953125 -0.359375 C 17.484375 -0.847656 17.25 -1.550781 17.25 -2.46875 L 17.25 -5.8125 L 17.859375 -4.484375 C 17.242188 -2.898438 16.3125 -1.679688 15.0625 -0.828125 C 13.820312 0.015625 12.347656 0.4375 10.640625 0.4375 Z M 10.640625 0.4375 "/></g></g></g><g fill="#000000" fill-opacity="1"><g transform="translate(367.715492, 67.476899)"><g><path d="M 9.9375 0.4375 C 8.382812 0.4375 7 0.140625 5.78125 -0.453125 C 4.5625 -1.054688 3.609375 -1.867188 2.921875 -2.890625 C 2.234375 -3.921875 1.890625 -5.082031 1.890625 -6.375 C 1.890625 -7.957031 2.300781 -9.210938 3.125 -10.140625 C 3.945312 -11.066406 5.28125 -11.734375 7.125 -12.140625 C 8.976562 -12.554688 11.457031 -12.765625 14.5625 -12.765625 L 16.765625 -12.765625 L 16.765625 -9.59375 L 14.609375 -9.59375 C 12.785156 -9.59375 11.332031 -9.503906 10.25 -9.328125 C 9.164062 -9.148438 8.394531 -8.847656 7.9375 -8.421875 C 7.488281 -7.992188 7.265625 -7.398438 7.265625 -6.640625 C 7.265625 -5.671875 7.597656 -4.878906 8.265625 -4.265625 C 8.941406 -3.648438 9.882812 -3.34375 11.09375 -3.34375 C 12.0625 -3.34375 12.914062 -3.566406 13.65625 -4.015625 C 14.40625 -4.472656 15 -5.097656 15.4375 -5.890625 C 15.882812 -6.679688 16.109375 -7.59375 16.109375 -8.625 L 16.109375 -13.6875 C 16.109375 -15.15625 15.785156 -16.207031 15.140625 -16.84375 C 14.492188 -17.488281 13.40625 -17.8125 11.875 -17.8125 C 11.03125 -17.8125 10.113281 -17.707031 9.125 -17.5 C 8.144531 -17.300781 7.113281 -16.953125 6.03125 -16.453125 C 5.46875 -16.191406 4.972656 -16.117188 4.546875 -16.234375 C 4.128906 -16.347656 3.800781 -16.585938 3.5625 -16.953125 C 3.332031 -17.328125 3.21875 -17.734375 3.21875 -18.171875 C 3.21875 -18.609375 3.332031 -19.039062 3.5625 -19.46875 C 3.800781 -19.894531 4.195312 -20.210938 4.75 -20.421875 C 6.101562 -20.972656 7.398438 -21.363281 8.640625 -21.59375 C 9.890625 -21.832031 11.03125 -21.953125 12.0625 -21.953125 C 14.164062 -21.953125 15.898438 -21.628906 17.265625 -20.984375 C 18.628906 -20.335938 19.648438 -19.363281 20.328125 -18.0625 C 21.003906 -16.757812 21.34375 -15.082031 21.34375 -13.03125 L 21.34375 -2.46875 C 21.34375 -1.550781 21.117188 -0.847656 20.671875 -0.359375 C 20.234375 0.117188 19.601562 0.359375 18.78125 0.359375 C 17.96875 0.359375 17.332031 0.117188 16.875 -0.359375 C 16.414062 -0.847656 16.1875 -1.550781 16.1875 -2.46875 L 16.1875 -4.578125 L 16.546875 -4.578125 C 16.335938 -3.546875 15.929688 -2.65625 15.328125 -1.90625 C 14.734375 -1.164062 13.976562 -0.585938 13.0625 -0.171875 C 12.15625 0.234375 11.113281 0.4375 9.9375 0.4375 Z M 9.9375 0.4375 "/></g></g></g><g fill="#000000" fill-opacity="1"><g transform="translate(391.779188, 67.476899)"><g><path d="M 5.59375 0.359375 C 4.707031 0.359375 4.03125 0.117188 3.5625 -0.359375 C 3.09375 -0.847656 2.859375 -1.550781 2.859375 -2.46875 L 2.859375 -19.09375 C 2.859375 -20 3.09375 -20.6875 3.5625 -21.15625 C 4.03125 -21.632812 4.691406 -21.875 5.546875 -21.875 C 6.390625 -21.875 7.046875 -21.632812 7.515625 -21.15625 C 7.992188 -20.6875 8.234375 -20 8.234375 -19.09375 L 8.234375 -16.109375 L 7.75 -17.203125 C 8.394531 -18.753906 9.394531 -19.929688 10.75 -20.734375 C 12.113281 -21.546875 13.664062 -21.953125 15.40625 -21.953125 C 17.132812 -21.953125 18.554688 -21.628906 19.671875 -20.984375 C 20.785156 -20.335938 21.617188 -19.363281 22.171875 -18.0625 C 22.734375 -16.757812 23.015625 -15.109375 23.015625 -13.109375 L 23.015625 -2.46875 C 23.015625 -1.550781 22.78125 -0.847656 22.3125 -0.359375 C 21.84375 0.117188 21.164062 0.359375 20.28125 0.359375 C 19.40625 0.359375 18.722656 0.117188 18.234375 -0.359375 C 17.753906 -0.847656 17.515625 -1.550781 17.515625 -2.46875 L 17.515625 -12.84375 C 17.515625 -14.519531 17.195312 -15.738281 16.5625 -16.5 C 15.9375 -17.257812 14.960938 -17.640625 13.640625 -17.640625 C 12.023438 -17.640625 10.738281 -17.132812 9.78125 -16.125 C 8.832031 -15.113281 8.359375 -13.769531 8.359375 -12.09375 L 8.359375 -2.46875 C 8.359375 -0.582031 7.4375 0.359375 5.59375 0.359375 Z M 5.59375 0.359375 "/></g></g></g><g fill="#000000" fill-opacity="1"><g transform="translate(417.294636, 67.476899)"><g><path d="M 8.3125 8.265625 C 7.664062 8.265625 7.132812 8.097656 6.71875 7.765625 C 6.3125 7.429688 6.070312 6.984375 6 6.421875 C 5.925781 5.867188 6.023438 5.28125 6.296875 4.65625 L 9.28125 -1.984375 L 9.28125 0.3125 L 1.28125 -18.21875 C 1.007812 -18.863281 0.914062 -19.460938 1 -20.015625 C 1.09375 -20.578125 1.367188 -21.023438 1.828125 -21.359375 C 2.285156 -21.703125 2.910156 -21.875 3.703125 -21.875 C 4.367188 -21.875 4.90625 -21.71875 5.3125 -21.40625 C 5.726562 -21.09375 6.097656 -20.515625 6.421875 -19.671875 L 12.359375 -4.84375 L 11.046875 -4.84375 L 17.109375 -19.71875 C 17.429688 -20.53125 17.8125 -21.09375 18.25 -21.40625 C 18.695312 -21.71875 19.285156 -21.875 20.015625 -21.875 C 20.660156 -21.875 21.171875 -21.703125 21.546875 -21.359375 C 21.929688 -21.023438 22.164062 -20.585938 22.25 -20.046875 C 22.34375 -19.503906 22.242188 -18.910156 21.953125 -18.265625 L 11.265625 6.15625 C 10.878906 6.976562 10.46875 7.535156 10.03125 7.828125 C 9.59375 8.117188 9.019531 8.265625 8.3125 8.265625 Z M 8.3125 8.265625 "/></g></g></g><g fill="#000000" fill-opacity="1"><g transform="translate(439.99454, 67.476899)"><g><path d="M 9.9375 0.4375 C 8.382812 0.4375 7 0.140625 5.78125 -0.453125 C 4.5625 -1.054688 3.609375 -1.867188 2.921875 -2.890625 C 2.234375 -3.921875 1.890625 -5.082031 1.890625 -6.375 C 1.890625 -7.957031 2.300781 -9.210938 3.125 -10.140625 C 3.945312 -11.066406 5.28125 -11.734375 7.125 -12.140625 C 8.976562 -12.554688 11.457031 -12.765625 14.5625 -12.765625 L 16.765625 -12.765625 L 16.765625 -9.59375 L 14.609375 -9.59375 C 12.785156 -9.59375 11.332031 -9.503906 10.25 -9.328125 C 9.164062 -9.148438 8.394531 -8.847656 7.9375 -8.421875 C 7.488281 -7.992188 7.265625 -7.398438 7.265625 -6.640625 C 7.265625 -5.671875 7.597656 -4.878906 8.265625 -4.265625 C 8.941406 -3.648438 9.882812 -3.34375 11.09375 -3.34375 C 12.0625 -3.34375 12.914062 -3.566406 13.65625 -4.015625 C 14.40625 -4.472656 15 -5.097656 15.4375 -5.890625 C 15.882812 -6.679688 16.109375 -7.59375 16.109375 -8.625 L 16.109375 -13.6875 C 16.109375 -15.15625 15.785156 -16.207031 15.140625 -16.84375 C 14.492188 -17.488281 13.40625 -17.8125 11.875 -17.8125 C 11.03125 -17.8125 10.113281 -17.707031 9.125 -17.5 C 8.144531 -17.300781 7.113281 -16.953125 6.03125 -16.453125 C 5.46875 -16.191406 4.972656 -16.117188 4.546875 -16.234375 C 4.128906 -16.347656 3.800781 -16.585938 3.5625 -16.953125 C 3.332031 -17.328125 3.21875 -17.734375 3.21875 -18.171875 C 3.21875 -18.609375 3.332031 -19.039062 3.5625 -19.46875 C 3.800781 -19.894531 4.195312 -20.210938 4.75 -20.421875 C 6.101562 -20.972656 7.398438 -21.363281 8.640625 -21.59375 C 9.890625 -21.832031 11.03125 -21.953125 12.0625 -21.953125 C 14.164062 -21.953125 15.898438 -21.628906 17.265625 -20.984375 C 18.628906 -20.335938 19.648438 -19.363281 20.328125 -18.0625 C 21.003906 -16.757812 21.34375 -15.082031 21.34375 -13.03125 L 21.34375 -2.46875 C 21.34375 -1.550781 21.117188 -0.847656 20.671875 -0.359375 C 20.234375 0.117188 19.601562 0.359375 18.78125 0.359375 C 17.96875 0.359375 17.332031 0.117188 16.875 -0.359375 C 16.414062 -0.847656 16.1875 -1.550781 16.1875 -2.46875 L 16.1875 -4.578125 L 16.546875 -4.578125 C 16.335938 -3.546875 15.929688 -2.65625 15.328125 -1.90625 C 14.734375 -1.164062 13.976562 -0.585938 13.0625 -0.171875 C 12.15625 0.234375 11.113281 0.4375 9.9375 0.4375 Z M 9.9375 0.4375 "/></g></g></g><g fill="#000000" fill-opacity="1"><g transform="translate(464.05826, 67.476899)"><g/></g></g><g fill="#000000" fill-opacity="1"><g transform="translate(475.980119, 67.476899)"><g><path d="M 12.71875 0.4375 C 10.8125 0.4375 9.21875 0.113281 7.9375 -0.53125 C 6.664062 -1.175781 5.722656 -2.117188 5.109375 -3.359375 C 4.492188 -4.609375 4.1875 -6.160156 4.1875 -8.015625 L 4.1875 -17.375 L 1.890625 -17.375 C 1.191406 -17.375 0.648438 -17.554688 0.265625 -17.921875 C -0.117188 -18.296875 -0.3125 -18.804688 -0.3125 -19.453125 C -0.3125 -20.117188 -0.117188 -20.628906 0.265625 -20.984375 C 0.648438 -21.335938 1.191406 -21.515625 1.890625 -21.515625 L 4.1875 -21.515625 L 4.1875 -25.515625 C 4.1875 -26.429688 4.425781 -27.125 4.90625 -27.59375 C 5.382812 -28.0625 6.066406 -28.296875 6.953125 -28.296875 C 7.828125 -28.296875 8.5 -28.0625 8.96875 -27.59375 C 9.445312 -27.125 9.6875 -26.429688 9.6875 -25.515625 L 9.6875 -21.515625 L 14.34375 -21.515625 C 15.050781 -21.515625 15.59375 -21.335938 15.96875 -20.984375 C 16.351562 -20.628906 16.546875 -20.117188 16.546875 -19.453125 C 16.546875 -18.804688 16.351562 -18.296875 15.96875 -17.921875 C 15.59375 -17.554688 15.050781 -17.375 14.34375 -17.375 L 9.6875 -17.375 L 9.6875 -8.3125 C 9.6875 -6.90625 9.992188 -5.847656 10.609375 -5.140625 C 11.222656 -4.441406 12.21875 -4.09375 13.59375 -4.09375 C 14.09375 -4.09375 14.53125 -4.132812 14.90625 -4.21875 C 15.289062 -4.3125 15.628906 -4.375 15.921875 -4.40625 C 16.273438 -4.425781 16.566406 -4.3125 16.796875 -4.0625 C 17.035156 -3.820312 17.15625 -3.316406 17.15625 -2.546875 C 17.15625 -1.960938 17.0625 -1.441406 16.875 -0.984375 C 16.6875 -0.535156 16.34375 -0.222656 15.84375 -0.046875 C 15.457031 0.0664062 14.957031 0.175781 14.34375 0.28125 C 13.726562 0.382812 13.1875 0.4375 12.71875 0.4375 Z M 12.71875 0.4375 "/></g></g></g><g fill="#000000" fill-opacity="1"><g transform="translate(493.445038, 67.476899)"><g><path d="M 5.59375 0.3125 C 4.707031 0.3125 4.03125 0.046875 3.5625 -0.484375 C 3.09375 -1.015625 2.859375 -1.75 2.859375 -2.6875 L 2.859375 -18.828125 C 2.859375 -19.796875 3.09375 -20.535156 3.5625 -21.046875 C 4.03125 -21.566406 4.707031 -21.828125 5.59375 -21.828125 C 6.46875 -21.828125 7.144531 -21.566406 7.625 -21.046875 C 8.113281 -20.535156 8.359375 -19.796875 8.359375 -18.828125 L 8.359375 -2.6875 C 8.359375 -1.75 8.125 -1.015625 7.65625 -0.484375 C 7.1875 0.046875 6.5 0.3125 5.59375 0.3125 Z M 5.59375 -25.921875 C 4.5625 -25.921875 3.757812 -26.175781 3.1875 -26.6875 C 2.613281 -27.195312 2.328125 -27.90625 2.328125 -28.8125 C 2.328125 -29.757812 2.613281 -30.476562 3.1875 -30.96875 C 3.757812 -31.46875 4.5625 -31.71875 5.59375 -31.71875 C 6.644531 -31.71875 7.445312 -31.46875 8 -30.96875 C 8.5625 -30.476562 8.84375 -29.757812 8.84375 -28.8125 C 8.84375 -27.90625 8.5625 -27.195312 8 -26.6875 C 7.445312 -26.175781 6.644531 -25.921875 5.59375 -25.921875 Z M 5.59375 -25.921875 "/></g></g></g><g fill="#000000" fill-opacity="1"><g transform="translate(504.663039, 67.476899)"><g><path d="M 5.59375 0.359375 C 4.707031 0.359375 4.03125 0.117188 3.5625 -0.359375 C 3.09375 -0.847656 2.859375 -1.550781 2.859375 -2.46875 L 2.859375 -19.09375 C 2.859375 -20 3.09375 -20.6875 3.5625 -21.15625 C 4.03125 -21.632812 4.691406 -21.875 5.546875 -21.875 C 6.390625 -21.875 7.046875 -21.632812 7.515625 -21.15625 C 7.992188 -20.6875 8.234375 -20 8.234375 -19.09375 L 8.234375 -16.109375 L 7.75 -17.203125 C 8.394531 -18.753906 9.394531 -19.929688 10.75 -20.734375 C 12.113281 -21.546875 13.664062 -21.953125 15.40625 -21.953125 C 17.132812 -21.953125 18.554688 -21.628906 19.671875 -20.984375 C 20.785156 -20.335938 21.617188 -19.363281 22.171875 -18.0625 C 22.734375 -16.757812 23.015625 -15.109375 23.015625 -13.109375 L 23.015625 -2.46875 C 23.015625 -1.550781 22.78125 -0.847656 22.3125 -0.359375 C 21.84375 0.117188 21.164062 0.359375 20.28125 0.359375 C 19.40625 0.359375 18.722656 0.117188 18.234375 -0.359375 C 17.753906 -0.847656 17.515625 -1.550781 17.515625 -2.46875 L 17.515625 -12.84375 C 17.515625 -14.519531 17.195312 -15.738281 16.5625 -16.5 C 15.9375 -17.257812 14.960938 -17.640625 13.640625 -17.640625 C 12.023438 -17.640625 10.738281 -17.132812 9.78125 -16.125 C 8.832031 -15.113281 8.359375 -13.769531 8.359375 -12.09375 L 8.359375 -2.46875 C 8.359375 -0.582031 7.4375 0.359375 5.59375 0.359375 Z M 5.59375 0.359375 "/></g></g></g><g fill="#000000" fill-opacity="1"><g transform="translate(530.398466, 67.476899)"><g><path d="M 12.890625 8.359375 C 11.304688 8.359375 9.773438 8.210938 8.296875 7.921875 C 6.816406 7.628906 5.472656 7.175781 4.265625 6.5625 C 3.710938 6.257812 3.335938 5.90625 3.140625 5.5 C 2.953125 5.09375 2.894531 4.675781 2.96875 4.25 C 3.039062 3.820312 3.21875 3.445312 3.5 3.125 C 3.78125 2.800781 4.125 2.578125 4.53125 2.453125 C 4.9375 2.335938 5.363281 2.398438 5.8125 2.640625 C 7.101562 3.285156 8.328125 3.703125 9.484375 3.890625 C 10.640625 4.085938 11.628906 4.1875 12.453125 4.1875 C 14.421875 4.1875 15.894531 3.707031 16.875 2.75 C 17.851562 1.789062 18.34375 0.375 18.34375 -1.5 L 18.34375 -5.453125 L 18.75 -5.453125 C 18.300781 -3.960938 17.378906 -2.769531 15.984375 -1.875 C 14.597656 -0.976562 13.023438 -0.53125 11.265625 -0.53125 C 9.328125 -0.53125 7.640625 -0.976562 6.203125 -1.875 C 4.765625 -2.769531 3.648438 -4.019531 2.859375 -5.625 C 2.066406 -7.238281 1.671875 -9.117188 1.671875 -11.265625 C 1.671875 -12.878906 1.894531 -14.335938 2.34375 -15.640625 C 2.800781 -16.941406 3.445312 -18.0625 4.28125 -19 C 5.125 -19.945312 6.140625 -20.675781 7.328125 -21.1875 C 8.515625 -21.695312 9.828125 -21.953125 11.265625 -21.953125 C 13.078125 -21.953125 14.664062 -21.503906 16.03125 -20.609375 C 17.394531 -19.710938 18.285156 -18.535156 18.703125 -17.078125 L 18.265625 -15.96875 L 18.265625 -19.09375 C 18.265625 -20 18.503906 -20.6875 18.984375 -21.15625 C 19.472656 -21.632812 20.140625 -21.875 20.984375 -21.875 C 21.867188 -21.875 22.546875 -21.632812 23.015625 -21.15625 C 23.484375 -20.6875 23.71875 -20 23.71875 -19.09375 L 23.71875 -2.15625 C 23.71875 1.332031 22.789062 3.957031 20.9375 5.71875 C 19.09375 7.476562 16.410156 8.359375 12.890625 8.359375 Z M 12.765625 -4.703125 C 13.898438 -4.703125 14.878906 -4.96875 15.703125 -5.5 C 16.523438 -6.03125 17.160156 -6.785156 17.609375 -7.765625 C 18.066406 -8.742188 18.296875 -9.910156 18.296875 -11.265625 C 18.296875 -13.285156 17.796875 -14.875 16.796875 -16.03125 C 15.804688 -17.195312 14.460938 -17.78125 12.765625 -17.78125 C 11.617188 -17.78125 10.632812 -17.515625 9.8125 -16.984375 C 8.988281 -16.453125 8.347656 -15.703125 7.890625 -14.734375 C 7.441406 -13.765625 7.21875 -12.609375 7.21875 -11.265625 C 7.21875 -9.242188 7.710938 -7.644531 8.703125 -6.46875 C 9.703125 -5.289062 11.054688 -4.703125 12.765625 -4.703125 Z M 12.765625 -4.703125 "/></g></g></g><g fill="#000000" fill-opacity="1"><g transform="translate(556.969723, 67.476899)"><g><path d="M 12.890625 8.359375 C 11.304688 8.359375 9.773438 8.210938 8.296875 7.921875 C 6.816406 7.628906 5.472656 7.175781 4.265625 6.5625 C 3.710938 6.257812 3.335938 5.90625 3.140625 5.5 C 2.953125 5.09375 2.894531 4.675781 2.96875 4.25 C 3.039062 3.820312 3.21875 3.445312 3.5 3.125 C 3.78125 2.800781 4.125 2.578125 4.53125 2.453125 C 4.9375 2.335938 5.363281 2.398438 5.8125 2.640625 C 7.101562 3.285156 8.328125 3.703125 9.484375 3.890625 C 10.640625 4.085938 11.628906 4.1875 12.453125 4.1875 C 14.421875 4.1875 15.894531 3.707031 16.875 2.75 C 17.851562 1.789062 18.34375 0.375 18.34375 -1.5 L 18.34375 -5.453125 L 18.75 -5.453125 C 18.300781 -3.960938 17.378906 -2.769531 15.984375 -1.875 C 14.597656 -0.976562 13.023438 -0.53125 11.265625 -0.53125 C 9.328125 -0.53125 7.640625 -0.976562 6.203125 -1.875 C 4.765625 -2.769531 3.648438 -4.019531 2.859375 -5.625 C 2.066406 -7.238281 1.671875 -9.117188 1.671875 -11.265625 C 1.671875 -12.878906 1.894531 -14.335938 2.34375 -15.640625 C 2.800781 -16.941406 3.445312 -18.0625 4.28125 -19 C 5.125 -19.945312 6.140625 -20.675781 7.328125 -21.1875 C 8.515625 -21.695312 9.828125 -21.953125 11.265625 -21.953125 C 13.078125 -21.953125 14.664062 -21.503906 16.03125 -20.609375 C 17.394531 -19.710938 18.285156 -18.535156 18.703125 -17.078125 L 18.265625 -15.96875 L 18.265625 -19.09375 C 18.265625 -20 18.503906 -20.6875 18.984375 -21.15625 C 19.472656 -21.632812 20.140625 -21.875 20.984375 -21.875 C 21.867188 -21.875 22.546875 -21.632812 23.015625 -21.15625 C 23.484375 -20.6875 23.71875 -20 23.71875 -19.09375 L 23.71875 -2.15625 C 23.71875 1.332031 22.789062 3.957031 20.9375 5.71875 C 19.09375 7.476562 16.410156 8.359375 12.890625 8.359375 Z M 12.765625 -4.703125 C 13.898438 -4.703125 14.878906 -4.96875 15.703125 -5.5 C 16.523438 -6.03125 17.160156 -6.785156 17.609375 -7.765625 C 18.066406 -8.742188 18.296875 -9.910156 18.296875 -11.265625 C 18.296875 -13.285156 17.796875 -14.875 16.796875 -16.03125 C 15.804688 -17.195312 14.460938 -17.78125 12.765625 -17.78125 C 11.617188 -17.78125 10.632812 -17.515625 9.8125 -16.984375 C 8.988281 -16.453125 8.347656 -15.703125 7.890625 -14.734375 C 7.441406 -13.765625 7.21875 -12.609375 7.21875 -11.265625 C 7.21875 -9.242188 7.710938 -7.644531 8.703125 -6.46875 C 9.703125 -5.289062 11.054688 -4.703125 12.765625 -4.703125 Z M 12.765625 -4.703125 "/></g></g></g><g fill="#000000" fill-opacity="1"><g transform="translate(583.54098, 67.476899)"><g><path d="M 9.9375 0.4375 C 8.382812 0.4375 7 0.140625 5.78125 -0.453125 C 4.5625 -1.054688 3.609375 -1.867188 2.921875 -2.890625 C 2.234375 -3.921875 1.890625 -5.082031 1.890625 -6.375 C 1.890625 -7.957031 2.300781 -9.210938 3.125 -10.140625 C 3.945312 -11.066406 5.28125 -11.734375 7.125 -12.140625 C 8.976562 -12.554688 11.457031 -12.765625 14.5625 -12.765625 L 16.765625 -12.765625 L 16.765625 -9.59375 L 14.609375 -9.59375 C 12.785156 -9.59375 11.332031 -9.503906 10.25 -9.328125 C 9.164062 -9.148438 8.394531 -8.847656 7.9375 -8.421875 C 7.488281 -7.992188 7.265625 -7.398438 7.265625 -6.640625 C 7.265625 -5.671875 7.597656 -4.878906 8.265625 -4.265625 C 8.941406 -3.648438 9.882812 -3.34375 11.09375 -3.34375 C 12.0625 -3.34375 12.914062 -3.566406 13.65625 -4.015625 C 14.40625 -4.472656 15 -5.097656 15.4375 -5.890625 C 15.882812 -6.679688 16.109375 -7.59375 16.109375 -8.625 L 16.109375 -13.6875 C 16.109375 -15.15625 15.785156 -16.207031 15.140625 -16.84375 C 14.492188 -17.488281 13.40625 -17.8125 11.875 -17.8125 C 11.03125 -17.8125 10.113281 -17.707031 9.125 -17.5 C 8.144531 -17.300781 7.113281 -16.953125 6.03125 -16.453125 C 5.46875 -16.191406 4.972656 -16.117188 4.546875 -16.234375 C 4.128906 -16.347656 3.800781 -16.585938 3.5625 -16.953125 C 3.332031 -17.328125 3.21875 -17.734375 3.21875 -18.171875 C 3.21875 -18.609375 3.332031 -19.039062 3.5625 -19.46875 C 3.800781 -19.894531 4.195312 -20.210938 4.75 -20.421875 C 6.101562 -20.972656 7.398438 -21.363281 8.640625 -21.59375 C 9.890625 -21.832031 11.03125 -21.953125 12.0625 -21.953125 C 14.164062 -21.953125 15.898438 -21.628906 17.265625 -20.984375 C 18.628906 -20.335938 19.648438 -19.363281 20.328125 -18.0625 C 21.003906 -16.757812 21.34375 -15.082031 21.34375 -13.03125 L 21.34375 -2.46875 C 21.34375 -1.550781 21.117188 -0.847656 20.671875 -0.359375 C 20.234375 0.117188 19.601562 0.359375 18.78125 0.359375 C 17.96875 0.359375 17.332031 0.117188 16.875 -0.359375 C 16.414062 -0.847656 16.1875 -1.550781 16.1875 -2.46875 L 16.1875 -4.578125 L 16.546875 -4.578125 C 16.335938 -3.546875 15.929688 -2.65625 15.328125 -1.90625 C 14.734375 -1.164062 13.976562 -0.585938 13.0625 -0.171875 C 12.15625 0.234375 11.113281 0.4375 9.9375 0.4375 Z M 9.9375 0.4375 "/></g></g></g><g fill="#000000" fill-opacity="1"><g transform="translate(607.604699, 67.476899)"><g><path d="M 10.203125 0.4375 C 7.773438 0.4375 5.941406 -0.253906 4.703125 -1.640625 C 3.472656 -3.035156 2.859375 -5.082031 2.859375 -7.78125 L 2.859375 -28.59375 C 2.859375 -29.507812 3.09375 -30.203125 3.5625 -30.671875 C 4.03125 -31.140625 4.707031 -31.375 5.59375 -31.375 C 6.46875 -31.375 7.144531 -31.140625 7.625 -30.671875 C 8.113281 -30.203125 8.359375 -29.507812 8.359375 -28.59375 L 8.359375 -8.046875 C 8.359375 -6.703125 8.644531 -5.707031 9.21875 -5.0625 C 9.789062 -4.414062 10.601562 -4.09375 11.65625 -4.09375 C 11.894531 -4.09375 12.113281 -4.097656 12.3125 -4.109375 C 12.519531 -4.128906 12.726562 -4.15625 12.9375 -4.1875 C 13.34375 -4.238281 13.617188 -4.125 13.765625 -3.84375 C 13.910156 -3.570312 13.984375 -3.007812 13.984375 -2.15625 C 13.984375 -1.425781 13.835938 -0.851562 13.546875 -0.4375 C 13.253906 -0.03125 12.769531 0.21875 12.09375 0.3125 C 11.800781 0.34375 11.492188 0.367188 11.171875 0.390625 C 10.847656 0.421875 10.523438 0.4375 10.203125 0.4375 Z M 10.203125 0.4375 "/></g></g></g><g fill="#000000" fill-opacity="1"><g transform="translate(97.409354, 128.976895)"><g><path d="M 11.125 0.4375 C 9.25 0.4375 7.597656 -0.015625 6.171875 -0.921875 C 4.753906 -1.828125 3.648438 -3.125 2.859375 -4.8125 C 2.066406 -6.5 1.671875 -8.488281 1.671875 -10.78125 C 1.671875 -13.09375 2.066406 -15.078125 2.859375 -16.734375 C 3.648438 -18.398438 4.753906 -19.6875 6.171875 -20.59375 C 7.597656 -21.5 9.25 -21.953125 11.125 -21.953125 C 12.914062 -21.953125 14.476562 -21.507812 15.8125 -20.625 C 17.144531 -19.75 18.050781 -18.59375 18.53125 -17.15625 L 18.046875 -17.15625 L 18.046875 -28.59375 C 18.046875 -29.507812 18.28125 -30.203125 18.75 -30.671875 C 19.21875 -31.140625 19.890625 -31.375 20.765625 -31.375 C 21.648438 -31.375 22.332031 -31.140625 22.8125 -30.671875 C 23.300781 -30.203125 23.546875 -29.507812 23.546875 -28.59375 L 23.546875 -2.46875 C 23.546875 -1.550781 23.304688 -0.847656 22.828125 -0.359375 C 22.359375 0.117188 21.6875 0.359375 20.8125 0.359375 C 19.925781 0.359375 19.25 0.117188 18.78125 -0.359375 C 18.3125 -0.847656 18.078125 -1.550781 18.078125 -2.46875 L 18.078125 -5.890625 L 18.5625 -4.578125 C 18.125 -3.046875 17.226562 -1.828125 15.875 -0.921875 C 14.53125 -0.015625 12.945312 0.4375 11.125 0.4375 Z M 12.671875 -3.734375 C 13.753906 -3.734375 14.707031 -4 15.53125 -4.53125 C 16.351562 -5.0625 16.988281 -5.847656 17.4375 -6.890625 C 17.894531 -7.929688 18.125 -9.226562 18.125 -10.78125 C 18.125 -13.125 17.625 -14.875 16.625 -16.03125 C 15.632812 -17.195312 14.316406 -17.78125 12.671875 -17.78125 C 11.585938 -17.78125 10.632812 -17.519531 9.8125 -17 C 8.988281 -16.488281 8.347656 -15.710938 7.890625 -14.671875 C 7.441406 -13.628906 7.21875 -12.332031 7.21875 -10.78125 C 7.21875 -8.457031 7.710938 -6.703125 8.703125 -5.515625 C 9.703125 -4.328125 11.023438 -3.734375 12.671875 -3.734375 Z M 12.671875 -3.734375 "/></g></g></g><g fill="#000000" fill-opacity="1"><g transform="translate(123.804647, 128.976895)"><g><path d="M 5.59375 0.3125 C 4.707031 0.3125 4.03125 0.046875 3.5625 -0.484375 C 3.09375 -1.015625 2.859375 -1.75 2.859375 -2.6875 L 2.859375 -18.828125 C 2.859375 -19.796875 3.09375 -20.535156 3.5625 -21.046875 C 4.03125 -21.566406 4.707031 -21.828125 5.59375 -21.828125 C 6.46875 -21.828125 7.144531 -21.566406 7.625 -21.046875 C 8.113281 -20.535156 8.359375 -19.796875 8.359375 -18.828125 L 8.359375 -2.6875 C 8.359375 -1.75 8.125 -1.015625 7.65625 -0.484375 C 7.1875 0.046875 6.5 0.3125 5.59375 0.3125 Z M 5.59375 -25.921875 C 4.5625 -25.921875 3.757812 -26.175781 3.1875 -26.6875 C 2.613281 -27.195312 2.328125 -27.90625 2.328125 -28.8125 C 2.328125 -29.757812 2.613281 -30.476562 3.1875 -30.96875 C 3.757812 -31.46875 4.5625 -31.71875 5.59375 -31.71875 C 6.644531 -31.71875 7.445312 -31.46875 8 -30.96875 C 8.5625 -30.476562 8.84375 -29.757812 8.84375 -28.8125 C 8.84375 -27.90625 8.5625 -27.195312 8 -26.6875 C 7.445312 -26.175781 6.644531 -25.921875 5.59375 -25.921875 Z M 5.59375 -25.921875 "/></g></g></g><g fill="#000000" fill-opacity="1"><g transform="translate(135.022649, 128.976895)"><g/></g></g><g fill="#000000" fill-opacity="1"><g transform="translate(146.944519, 128.976895)"><g><path d="M 10.734375 0.4375 C 9.472656 0.4375 8.140625 0.300781 6.734375 0.03125 C 5.328125 -0.226562 4.066406 -0.675781 2.953125 -1.3125 C 2.484375 -1.613281 2.148438 -1.960938 1.953125 -2.359375 C 1.765625 -2.753906 1.691406 -3.148438 1.734375 -3.546875 C 1.773438 -3.941406 1.921875 -4.285156 2.171875 -4.578125 C 2.421875 -4.867188 2.742188 -5.054688 3.140625 -5.140625 C 3.535156 -5.234375 3.96875 -5.160156 4.4375 -4.921875 C 5.613281 -4.367188 6.710938 -3.984375 7.734375 -3.765625 C 8.765625 -3.546875 9.78125 -3.4375 10.78125 -3.4375 C 12.1875 -3.4375 13.234375 -3.675781 13.921875 -4.15625 C 14.609375 -4.644531 14.953125 -5.285156 14.953125 -6.078125 C 14.953125 -6.742188 14.722656 -7.257812 14.265625 -7.625 C 13.816406 -8 13.140625 -8.273438 12.234375 -8.453125 L 7.828125 -9.28125 C 6.015625 -9.632812 4.628906 -10.300781 3.671875 -11.28125 C 2.722656 -12.269531 2.25 -13.539062 2.25 -15.09375 C 2.25 -16.5 2.632812 -17.710938 3.40625 -18.734375 C 4.1875 -19.765625 5.265625 -20.554688 6.640625 -21.109375 C 8.023438 -21.671875 9.609375 -21.953125 11.390625 -21.953125 C 12.679688 -21.953125 13.890625 -21.8125 15.015625 -21.53125 C 16.148438 -21.257812 17.242188 -20.828125 18.296875 -20.234375 C 18.742188 -20.003906 19.046875 -19.695312 19.203125 -19.3125 C 19.367188 -18.9375 19.40625 -18.550781 19.3125 -18.15625 C 19.226562 -17.757812 19.050781 -17.40625 18.78125 -17.09375 C 18.519531 -16.78125 18.191406 -16.585938 17.796875 -16.515625 C 17.398438 -16.441406 16.953125 -16.523438 16.453125 -16.765625 C 15.546875 -17.234375 14.671875 -17.566406 13.828125 -17.765625 C 12.992188 -17.972656 12.195312 -18.078125 11.4375 -18.078125 C 10 -18.078125 8.9375 -17.828125 8.25 -17.328125 C 7.5625 -16.835938 7.21875 -16.179688 7.21875 -15.359375 C 7.21875 -14.742188 7.421875 -14.226562 7.828125 -13.8125 C 8.242188 -13.40625 8.875 -13.128906 9.71875 -12.984375 L 14.125 -12.140625 C 16.03125 -11.785156 17.472656 -11.140625 18.453125 -10.203125 C 19.441406 -9.265625 19.9375 -8.003906 19.9375 -6.421875 C 19.9375 -4.285156 19.097656 -2.609375 17.421875 -1.390625 C 15.753906 -0.171875 13.523438 0.4375 10.734375 0.4375 Z M 10.734375 0.4375 "/></g></g></g><g fill="#000000" fill-opacity="1"><g transform="translate(168.412696, 128.976895)"><g><path d="M 13.46875 0.4375 C 11.03125 0.4375 8.929688 -0.015625 7.171875 -0.921875 C 5.410156 -1.828125 4.050781 -3.113281 3.09375 -4.78125 C 2.144531 -6.457031 1.671875 -8.441406 1.671875 -10.734375 C 1.671875 -12.960938 2.128906 -14.910156 3.046875 -16.578125 C 3.972656 -18.253906 5.25 -19.566406 6.875 -20.515625 C 8.507812 -21.472656 10.367188 -21.953125 12.453125 -21.953125 C 13.972656 -21.953125 15.34375 -21.703125 16.5625 -21.203125 C 17.78125 -20.703125 18.820312 -19.984375 19.6875 -19.046875 C 20.550781 -18.109375 21.210938 -16.972656 21.671875 -15.640625 C 22.128906 -14.304688 22.359375 -12.800781 22.359375 -11.125 C 22.359375 -10.601562 22.171875 -10.203125 21.796875 -9.921875 C 21.429688 -9.640625 20.910156 -9.5 20.234375 -9.5 L 6.109375 -9.5 L 6.109375 -12.671875 L 18.484375 -12.671875 L 17.78125 -12.015625 C 17.78125 -13.359375 17.582031 -14.484375 17.1875 -15.390625 C 16.789062 -16.304688 16.21875 -17.003906 15.46875 -17.484375 C 14.71875 -17.972656 13.785156 -18.21875 12.671875 -18.21875 C 11.441406 -18.21875 10.394531 -17.929688 9.53125 -17.359375 C 8.664062 -16.785156 8.003906 -15.976562 7.546875 -14.9375 C 7.085938 -13.894531 6.859375 -12.65625 6.859375 -11.21875 L 6.859375 -10.90625 C 6.859375 -8.5 7.421875 -6.703125 8.546875 -5.515625 C 9.679688 -4.328125 11.347656 -3.734375 13.546875 -3.734375 C 14.316406 -3.734375 15.175781 -3.828125 16.125 -4.015625 C 17.082031 -4.210938 17.984375 -4.546875 18.828125 -5.015625 C 19.441406 -5.367188 19.984375 -5.519531 20.453125 -5.46875 C 20.921875 -5.425781 21.296875 -5.257812 21.578125 -4.96875 C 21.859375 -4.675781 22.023438 -4.316406 22.078125 -3.890625 C 22.140625 -3.460938 22.0625 -3.03125 21.84375 -2.59375 C 21.625 -2.15625 21.25 -1.773438 20.71875 -1.453125 C 19.695312 -0.804688 18.519531 -0.328125 17.1875 -0.015625 C 15.851562 0.285156 14.613281 0.4375 13.46875 0.4375 Z M 13.46875 0.4375 "/></g></g></g><g fill="#000000" fill-opacity="1"><g transform="translate(192.256449, 128.976895)"><g><path d="M 15.265625 0.4375 C 13.453125 0.4375 11.863281 -0.015625 10.5 -0.921875 C 9.132812 -1.828125 8.226562 -3.046875 7.78125 -4.578125 L 8.265625 -5.671875 L 8.265625 -2.46875 C 8.265625 -1.550781 8.03125 -0.847656 7.5625 -0.359375 C 7.09375 0.117188 6.4375 0.359375 5.59375 0.359375 C 4.707031 0.359375 4.03125 0.117188 3.5625 -0.359375 C 3.09375 -0.847656 2.859375 -1.550781 2.859375 -2.46875 L 2.859375 -28.59375 C 2.859375 -29.507812 3.09375 -30.203125 3.5625 -30.671875 C 4.03125 -31.140625 4.707031 -31.375 5.59375 -31.375 C 6.46875 -31.375 7.144531 -31.140625 7.625 -30.671875 C 8.113281 -30.203125 8.359375 -29.507812 8.359375 -28.59375 L 8.359375 -17.15625 L 7.828125 -17.15625 C 8.296875 -18.59375 9.203125 -19.75 10.546875 -20.625 C 11.898438 -21.507812 13.472656 -21.953125 15.265625 -21.953125 C 17.171875 -21.953125 18.828125 -21.5 20.234375 -20.59375 C 21.648438 -19.6875 22.753906 -18.398438 23.546875 -16.734375 C 24.335938 -15.078125 24.734375 -13.09375 24.734375 -10.78125 C 24.734375 -8.488281 24.335938 -6.5 23.546875 -4.8125 C 22.753906 -3.125 21.644531 -1.828125 20.21875 -0.921875 C 18.789062 -0.015625 17.140625 0.4375 15.265625 0.4375 Z M 13.734375 -3.734375 C 14.816406 -3.734375 15.765625 -4 16.578125 -4.53125 C 17.398438 -5.0625 18.039062 -5.847656 18.5 -6.890625 C 18.957031 -7.929688 19.1875 -9.226562 19.1875 -10.78125 C 19.1875 -13.125 18.6875 -14.875 17.6875 -16.03125 C 16.6875 -17.195312 15.367188 -17.78125 13.734375 -17.78125 C 12.640625 -17.78125 11.679688 -17.519531 10.859375 -17 C 10.046875 -16.488281 9.410156 -15.710938 8.953125 -14.671875 C 8.492188 -13.628906 8.265625 -12.332031 8.265625 -10.78125 C 8.265625 -8.457031 8.765625 -6.703125 9.765625 -5.515625 C 10.765625 -4.328125 12.085938 -3.734375 13.734375 -3.734375 Z M 13.734375 -3.734375 "/></g></g></g><g fill="#000000" fill-opacity="1"><g transform="translate(218.651741, 128.976895)"><g><path d="M 10.640625 0.4375 C 8.859375 0.4375 7.378906 0.109375 6.203125 -0.546875 C 5.023438 -1.210938 4.148438 -2.203125 3.578125 -3.515625 C 3.015625 -4.835938 2.734375 -6.484375 2.734375 -8.453125 L 2.734375 -19.09375 C 2.734375 -20.03125 2.96875 -20.726562 3.4375 -21.1875 C 3.90625 -21.644531 4.578125 -21.875 5.453125 -21.875 C 6.335938 -21.875 7.019531 -21.644531 7.5 -21.1875 C 7.988281 -20.726562 8.234375 -20.03125 8.234375 -19.09375 L 8.234375 -8.359375 C 8.234375 -6.835938 8.539062 -5.707031 9.15625 -4.96875 C 9.769531 -4.238281 10.75 -3.875 12.09375 -3.875 C 13.5625 -3.875 14.765625 -4.378906 15.703125 -5.390625 C 16.640625 -6.398438 17.109375 -7.742188 17.109375 -9.421875 L 17.109375 -19.09375 C 17.109375 -20.03125 17.34375 -20.726562 17.8125 -21.1875 C 18.289062 -21.644531 18.96875 -21.875 19.84375 -21.875 C 20.71875 -21.875 21.394531 -21.644531 21.875 -21.1875 C 22.363281 -20.726562 22.609375 -20.03125 22.609375 -19.09375 L 22.609375 -2.46875 C 22.609375 -0.582031 21.71875 0.359375 19.9375 0.359375 C 19.082031 0.359375 18.421875 0.117188 17.953125 -0.359375 C 17.484375 -0.847656 17.25 -1.550781 17.25 -2.46875 L 17.25 -5.8125 L 17.859375 -4.484375 C 17.242188 -2.898438 16.3125 -1.679688 15.0625 -0.828125 C 13.820312 0.015625 12.347656 0.4375 10.640625 0.4375 Z M 10.640625 0.4375 "/></g></g></g><g fill="#000000" fill-opacity="1"><g transform="translate(244.123199, 128.976895)"><g><path d="M 9.9375 0.4375 C 8.382812 0.4375 7 0.140625 5.78125 -0.453125 C 4.5625 -1.054688 3.609375 -1.867188 2.921875 -2.890625 C 2.234375 -3.921875 1.890625 -5.082031 1.890625 -6.375 C 1.890625 -7.957031 2.300781 -9.210938 3.125 -10.140625 C 3.945312 -11.066406 5.28125 -11.734375 7.125 -12.140625 C 8.976562 -12.554688 11.457031 -12.765625 14.5625 -12.765625 L 16.765625 -12.765625 L 16.765625 -9.59375 L 14.609375 -9.59375 C 12.785156 -9.59375 11.332031 -9.503906 10.25 -9.328125 C 9.164062 -9.148438 8.394531 -8.847656 7.9375 -8.421875 C 7.488281 -7.992188 7.265625 -7.398438 7.265625 -6.640625 C 7.265625 -5.671875 7.597656 -4.878906 8.265625 -4.265625 C 8.941406 -3.648438 9.882812 -3.34375 11.09375 -3.34375 C 12.0625 -3.34375 12.914062 -3.566406 13.65625 -4.015625 C 14.40625 -4.472656 15 -5.097656 15.4375 -5.890625 C 15.882812 -6.679688 16.109375 -7.59375 16.109375 -8.625 L 16.109375 -13.6875 C 16.109375 -15.15625 15.785156 -16.207031 15.140625 -16.84375 C 14.492188 -17.488281 13.40625 -17.8125 11.875 -17.8125 C 11.03125 -17.8125 10.113281 -17.707031 9.125 -17.5 C 8.144531 -17.300781 7.113281 -16.953125 6.03125 -16.453125 C 5.46875 -16.191406 4.972656 -16.117188 4.546875 -16.234375 C 4.128906 -16.347656 3.800781 -16.585938 3.5625 -16.953125 C 3.332031 -17.328125 3.21875 -17.734375 3.21875 -18.171875 C 3.21875 -18.609375 3.332031 -19.039062 3.5625 -19.46875 C 3.800781 -19.894531 4.195312 -20.210938 4.75 -20.421875 C 6.101562 -20.972656 7.398438 -21.363281 8.640625 -21.59375 C 9.890625 -21.832031 11.03125 -21.953125 12.0625 -21.953125 C 14.164062 -21.953125 15.898438 -21.628906 17.265625 -20.984375 C 18.628906 -20.335938 19.648438 -19.363281 20.328125 -18.0625 C 21.003906 -16.757812 21.34375 -15.082031 21.34375 -13.03125 L 21.34375 -2.46875 C 21.34375 -1.550781 21.117188 -0.847656 20.671875 -0.359375 C 20.234375 0.117188 19.601562 0.359375 18.78125 0.359375 C 17.96875 0.359375 17.332031 0.117188 16.875 -0.359375 C 16.414062 -0.847656 16.1875 -1.550781 16.1875 -2.46875 L 16.1875 -4.578125 L 16.546875 -4.578125 C 16.335938 -3.546875 15.929688 -2.65625 15.328125 -1.90625 C 14.734375 -1.164062 13.976562 -0.585938 13.0625 -0.171875 C 12.15625 0.234375 11.113281 0.4375 9.9375 0.4375 Z M 9.9375 0.4375 "/></g></g></g><g fill="#000000" fill-opacity="1"><g transform="translate(268.186907, 128.976895)"><g><path d="M 5.59375 0.359375 C 4.707031 0.359375 4.03125 0.117188 3.5625 -0.359375 C 3.09375 -0.847656 2.859375 -1.550781 2.859375 -2.46875 L 2.859375 -28.59375 C 2.859375 -29.507812 3.09375 -30.203125 3.5625 -30.671875 C 4.03125 -31.140625 4.707031 -31.375 5.59375 -31.375 C 6.46875 -31.375 7.144531 -31.140625 7.625 -30.671875 C 8.113281 -30.203125 8.359375 -29.507812 8.359375 -28.59375 L 8.359375 -17.203125 L 7.75 -17.203125 C 8.394531 -18.753906 9.394531 -19.929688 10.75 -20.734375 C 12.113281 -21.546875 13.664062 -21.953125 15.40625 -21.953125 C 17.132812 -21.953125 18.554688 -21.628906 19.671875 -20.984375 C 20.785156 -20.335938 21.617188 -19.363281 22.171875 -18.0625 C 22.734375 -16.757812 23.015625 -15.109375 23.015625 -13.109375 L 23.015625 -2.46875 C 23.015625 -1.550781 22.78125 -0.847656 22.3125 -0.359375 C 21.84375 0.117188 21.164062 0.359375 20.28125 0.359375 C 19.40625 0.359375 18.722656 0.117188 18.234375 -0.359375 C 17.753906 -0.847656 17.515625 -1.550781 17.515625 -2.46875 L 17.515625 -12.84375 C 17.515625 -14.519531 17.195312 -15.738281 16.5625 -16.5 C 15.9375 -17.257812 14.960938 -17.640625 13.640625 -17.640625 C 12.023438 -17.640625 10.738281 -17.132812 9.78125 -16.125 C 8.832031 -15.113281 8.359375 -13.769531 8.359375 -12.09375 L 8.359375 -2.46875 C 8.359375 -0.582031 7.4375 0.359375 5.59375 0.359375 Z M 5.59375 0.359375 "/></g></g></g><g fill="#000000" fill-opacity="1"><g transform="translate(293.922322, 128.976895)"><g/></g></g><g fill="#000000" fill-opacity="1"><g transform="translate(305.844204, 128.976895)"><g><path d="M 9.9375 0.4375 C 8.382812 0.4375 7 0.140625 5.78125 -0.453125 C 4.5625 -1.054688 3.609375 -1.867188 2.921875 -2.890625 C 2.234375 -3.921875 1.890625 -5.082031 1.890625 -6.375 C 1.890625 -7.957031 2.300781 -9.210938 3.125 -10.140625 C 3.945312 -11.066406 5.28125 -11.734375 7.125 -12.140625 C 8.976562 -12.554688 11.457031 -12.765625 14.5625 -12.765625 L 16.765625 -12.765625 L 16.765625 -9.59375 L 14.609375 -9.59375 C 12.785156 -9.59375 11.332031 -9.503906 10.25 -9.328125 C 9.164062 -9.148438 8.394531 -8.847656 7.9375 -8.421875 C 7.488281 -7.992188 7.265625 -7.398438 7.265625 -6.640625 C 7.265625 -5.671875 7.597656 -4.878906 8.265625 -4.265625 C 8.941406 -3.648438 9.882812 -3.34375 11.09375 -3.34375 C 12.0625 -3.34375 12.914062 -3.566406 13.65625 -4.015625 C 14.40625 -4.472656 15 -5.097656 15.4375 -5.890625 C 15.882812 -6.679688 16.109375 -7.59375 16.109375 -8.625 L 16.109375 -13.6875 C 16.109375 -15.15625 15.785156 -16.207031 15.140625 -16.84375 C 14.492188 -17.488281 13.40625 -17.8125 11.875 -17.8125 C 11.03125 -17.8125 10.113281 -17.707031 9.125 -17.5 C 8.144531 -17.300781 7.113281 -16.953125 6.03125 -16.453125 C 5.46875 -16.191406 4.972656 -16.117188 4.546875 -16.234375 C 4.128906 -16.347656 3.800781 -16.585938 3.5625 -16.953125 C 3.332031 -17.328125 3.21875 -17.734375 3.21875 -18.171875 C 3.21875 -18.609375 3.332031 -19.039062 3.5625 -19.46875 C 3.800781 -19.894531 4.195312 -20.210938 4.75 -20.421875 C 6.101562 -20.972656 7.398438 -21.363281 8.640625 -21.59375 C 9.890625 -21.832031 11.03125 -21.953125 12.0625 -21.953125 C 14.164062 -21.953125 15.898438 -21.628906 17.265625 -20.984375 C 18.628906 -20.335938 19.648438 -19.363281 20.328125 -18.0625 C 21.003906 -16.757812 21.34375 -15.082031 21.34375 -13.03125 L 21.34375 -2.46875 C 21.34375 -1.550781 21.117188 -0.847656 20.671875 -0.359375 C 20.234375 0.117188 19.601562 0.359375 18.78125 0.359375 C 17.96875 0.359375 17.332031 0.117188 16.875 -0.359375 C 16.414062 -0.847656 16.1875 -1.550781 16.1875 -2.46875 L 16.1875 -4.578125 L 16.546875 -4.578125 C 16.335938 -3.546875 15.929688 -2.65625 15.328125 -1.90625 C 14.734375 -1.164062 13.976562 -0.585938 13.0625 -0.171875 C 12.15625 0.234375 11.113281 0.4375 9.9375 0.4375 Z M 9.9375 0.4375 "/></g></g></g><g fill="#000000" fill-opacity="1"><g transform="translate(329.9079, 128.976895)"><g><path d="M 5.59375 8.265625 C 4.707031 8.265625 4.03125 8.03125 3.5625 7.5625 C 3.09375 7.09375 2.859375 6.40625 2.859375 5.5 L 2.859375 -19.09375 C 2.859375 -20 3.09375 -20.6875 3.5625 -21.15625 C 4.03125 -21.632812 4.691406 -21.875 5.546875 -21.875 C 6.421875 -21.875 7.09375 -21.632812 7.5625 -21.15625 C 8.03125 -20.6875 8.265625 -20 8.265625 -19.09375 L 8.265625 -15.65625 L 7.78125 -16.984375 C 8.226562 -18.484375 9.132812 -19.6875 10.5 -20.59375 C 11.863281 -21.5 13.453125 -21.953125 15.265625 -21.953125 C 17.140625 -21.953125 18.789062 -21.5 20.21875 -20.59375 C 21.644531 -19.6875 22.753906 -18.398438 23.546875 -16.734375 C 24.335938 -15.078125 24.734375 -13.09375 24.734375 -10.78125 C 24.734375 -8.488281 24.335938 -6.5 23.546875 -4.8125 C 22.753906 -3.125 21.648438 -1.828125 20.234375 -0.921875 C 18.828125 -0.015625 17.171875 0.4375 15.265625 0.4375 C 13.472656 0.4375 11.898438 -0.0078125 10.546875 -0.90625 C 9.203125 -1.800781 8.296875 -2.96875 7.828125 -4.40625 L 8.359375 -4.40625 L 8.359375 5.5 C 8.359375 6.40625 8.113281 7.09375 7.625 7.5625 C 7.144531 8.03125 6.46875 8.265625 5.59375 8.265625 Z M 13.734375 -3.734375 C 14.816406 -3.734375 15.765625 -4 16.578125 -4.53125 C 17.398438 -5.0625 18.039062 -5.847656 18.5 -6.890625 C 18.957031 -7.929688 19.1875 -9.226562 19.1875 -10.78125 C 19.1875 -13.125 18.6875 -14.875 17.6875 -16.03125 C 16.6875 -17.195312 15.367188 -17.78125 13.734375 -17.78125 C 12.640625 -17.78125 11.679688 -17.519531 10.859375 -17 C 10.046875 -16.488281 9.410156 -15.710938 8.953125 -14.671875 C 8.492188 -13.628906 8.265625 -12.332031 8.265625 -10.78125 C 8.265625 -8.457031 8.765625 -6.703125 9.765625 -5.515625 C 10.765625 -4.328125 12.085938 -3.734375 13.734375 -3.734375 Z M 13.734375 -3.734375 "/></g></g></g><g fill="#000000" fill-opacity="1"><g transform="translate(356.303193, 128.976895)"><g><path d="M 9.9375 0.4375 C 8.382812 0.4375 7 0.140625 5.78125 -0.453125 C 4.5625 -1.054688 3.609375 -1.867188 2.921875 -2.890625 C 2.234375 -3.921875 1.890625 -5.082031 1.890625 -6.375 C 1.890625 -7.957031 2.300781 -9.210938 3.125 -10.140625 C 3.945312 -11.066406 5.28125 -11.734375 7.125 -12.140625 C 8.976562 -12.554688 11.457031 -12.765625 14.5625 -12.765625 L 16.765625 -12.765625 L 16.765625 -9.59375 L 14.609375 -9.59375 C 12.785156 -9.59375 11.332031 -9.503906 10.25 -9.328125 C 9.164062 -9.148438 8.394531 -8.847656 7.9375 -8.421875 C 7.488281 -7.992188 7.265625 -7.398438 7.265625 -6.640625 C 7.265625 -5.671875 7.597656 -4.878906 8.265625 -4.265625 C 8.941406 -3.648438 9.882812 -3.34375 11.09375 -3.34375 C 12.0625 -3.34375 12.914062 -3.566406 13.65625 -4.015625 C 14.40625 -4.472656 15 -5.097656 15.4375 -5.890625 C 15.882812 -6.679688 16.109375 -7.59375 16.109375 -8.625 L 16.109375 -13.6875 C 16.109375 -15.15625 15.785156 -16.207031 15.140625 -16.84375 C 14.492188 -17.488281 13.40625 -17.8125 11.875 -17.8125 C 11.03125 -17.8125 10.113281 -17.707031 9.125 -17.5 C 8.144531 -17.300781 7.113281 -16.953125 6.03125 -16.453125 C 5.46875 -16.191406 4.972656 -16.117188 4.546875 -16.234375 C 4.128906 -16.347656 3.800781 -16.585938 3.5625 -16.953125 C 3.332031 -17.328125 3.21875 -17.734375 3.21875 -18.171875 C 3.21875 -18.609375 3.332031 -19.039062 3.5625 -19.46875 C 3.800781 -19.894531 4.195312 -20.210938 4.75 -20.421875 C 6.101562 -20.972656 7.398438 -21.363281 8.640625 -21.59375 C 9.890625 -21.832031 11.03125 -21.953125 12.0625 -21.953125 C 14.164062 -21.953125 15.898438 -21.628906 17.265625 -20.984375 C 18.628906 -20.335938 19.648438 -19.363281 20.328125 -18.0625 C 21.003906 -16.757812 21.34375 -15.082031 21.34375 -13.03125 L 21.34375 -2.46875 C 21.34375 -1.550781 21.117188 -0.847656 20.671875 -0.359375 C 20.234375 0.117188 19.601562 0.359375 18.78125 0.359375 C 17.96875 0.359375 17.332031 0.117188 16.875 -0.359375 C 16.414062 -0.847656 16.1875 -1.550781 16.1875 -2.46875 L 16.1875 -4.578125 L 16.546875 -4.578125 C 16.335938 -3.546875 15.929688 -2.65625 15.328125 -1.90625 C 14.734375 -1.164062 13.976562 -0.585938 13.0625 -0.171875 C 12.15625 0.234375 11.113281 0.4375 9.9375 0.4375 Z M 9.9375 0.4375 "/></g></g></g><g fill="#000000" fill-opacity="1"><g transform="translate(380.366889, 128.976895)"><g><path d="M 5.671875 0.359375 C 4.765625 0.359375 4.066406 0.117188 3.578125 -0.359375 C 3.097656 -0.847656 2.859375 -1.550781 2.859375 -2.46875 L 2.859375 -19.09375 C 2.859375 -20 3.09375 -20.6875 3.5625 -21.15625 C 4.03125 -21.632812 4.691406 -21.875 5.546875 -21.875 C 6.390625 -21.875 7.046875 -21.632812 7.515625 -21.15625 C 7.992188 -20.6875 8.234375 -20 8.234375 -19.09375 L 8.234375 -16.328125 L 7.78125 -16.328125 C 8.195312 -18.085938 9.003906 -19.421875 10.203125 -20.328125 C 11.410156 -21.234375 13.007812 -21.773438 15 -21.953125 C 15.613281 -22.015625 16.101562 -21.859375 16.46875 -21.484375 C 16.84375 -21.117188 17.054688 -20.554688 17.109375 -19.796875 C 17.171875 -19.066406 17.003906 -18.472656 16.609375 -18.015625 C 16.210938 -17.566406 15.617188 -17.296875 14.828125 -17.203125 L 13.859375 -17.109375 C 12.066406 -16.941406 10.71875 -16.394531 9.8125 -15.46875 C 8.90625 -14.539062 8.453125 -13.242188 8.453125 -11.578125 L 8.453125 -2.46875 C 8.453125 -1.550781 8.21875 -0.847656 7.75 -0.359375 C 7.28125 0.117188 6.585938 0.359375 5.671875 0.359375 Z M 5.671875 0.359375 "/></g></g></g><g fill="#000000" fill-opacity="1"><g transform="translate(398.843694, 128.976895)"><g><path d="M 12.71875 0.4375 C 10.8125 0.4375 9.21875 0.113281 7.9375 -0.53125 C 6.664062 -1.175781 5.722656 -2.117188 5.109375 -3.359375 C 4.492188 -4.609375 4.1875 -6.160156 4.1875 -8.015625 L 4.1875 -17.375 L 1.890625 -17.375 C 1.191406 -17.375 0.648438 -17.554688 0.265625 -17.921875 C -0.117188 -18.296875 -0.3125 -18.804688 -0.3125 -19.453125 C -0.3125 -20.117188 -0.117188 -20.628906 0.265625 -20.984375 C 0.648438 -21.335938 1.191406 -21.515625 1.890625 -21.515625 L 4.1875 -21.515625 L 4.1875 -25.515625 C 4.1875 -26.429688 4.425781 -27.125 4.90625 -27.59375 C 5.382812 -28.0625 6.066406 -28.296875 6.953125 -28.296875 C 7.828125 -28.296875 8.5 -28.0625 8.96875 -27.59375 C 9.445312 -27.125 9.6875 -26.429688 9.6875 -25.515625 L 9.6875 -21.515625 L 14.34375 -21.515625 C 15.050781 -21.515625 15.59375 -21.335938 15.96875 -20.984375 C 16.351562 -20.628906 16.546875 -20.117188 16.546875 -19.453125 C 16.546875 -18.804688 16.351562 -18.296875 15.96875 -17.921875 C 15.59375 -17.554688 15.050781 -17.375 14.34375 -17.375 L 9.6875 -17.375 L 9.6875 -8.3125 C 9.6875 -6.90625 9.992188 -5.847656 10.609375 -5.140625 C 11.222656 -4.441406 12.21875 -4.09375 13.59375 -4.09375 C 14.09375 -4.09375 14.53125 -4.132812 14.90625 -4.21875 C 15.289062 -4.3125 15.628906 -4.375 15.921875 -4.40625 C 16.273438 -4.425781 16.566406 -4.3125 16.796875 -4.0625 C 17.035156 -3.820312 17.15625 -3.316406 17.15625 -2.546875 C 17.15625 -1.960938 17.0625 -1.441406 16.875 -0.984375 C 16.6875 -0.535156 16.34375 -0.222656 15.84375 -0.046875 C 15.457031 0.0664062 14.957031 0.175781 14.34375 0.28125 C 13.726562 0.382812 13.1875 0.4375 12.71875 0.4375 Z M 12.71875 0.4375 "/></g></g></g><g fill="#000000" fill-opacity="1"><g transform="translate(415.516705, 128.976895)"><g><path d="M 13.46875 0.4375 C 11.03125 0.4375 8.929688 -0.015625 7.171875 -0.921875 C 5.410156 -1.828125 4.050781 -3.113281 3.09375 -4.78125 C 2.144531 -6.457031 1.671875 -8.441406 1.671875 -10.734375 C 1.671875 -12.960938 2.128906 -14.910156 3.046875 -16.578125 C 3.972656 -18.253906 5.25 -19.566406 6.875 -20.515625 C 8.507812 -21.472656 10.367188 -21.953125 12.453125 -21.953125 C 13.972656 -21.953125 15.34375 -21.703125 16.5625 -21.203125 C 17.78125 -20.703125 18.820312 -19.984375 19.6875 -19.046875 C 20.550781 -18.109375 21.210938 -16.972656 21.671875 -15.640625 C 22.128906 -14.304688 22.359375 -12.800781 22.359375 -11.125 C 22.359375 -10.601562 22.171875 -10.203125 21.796875 -9.921875 C 21.429688 -9.640625 20.910156 -9.5 20.234375 -9.5 L 6.109375 -9.5 L 6.109375 -12.671875 L 18.484375 -12.671875 L 17.78125 -12.015625 C 17.78125 -13.359375 17.582031 -14.484375 17.1875 -15.390625 C 16.789062 -16.304688 16.21875 -17.003906 15.46875 -17.484375 C 14.71875 -17.972656 13.785156 -18.21875 12.671875 -18.21875 C 11.441406 -18.21875 10.394531 -17.929688 9.53125 -17.359375 C 8.664062 -16.785156 8.003906 -15.976562 7.546875 -14.9375 C 7.085938 -13.894531 6.859375 -12.65625 6.859375 -11.21875 L 6.859375 -10.90625 C 6.859375 -8.5 7.421875 -6.703125 8.546875 -5.515625 C 9.679688 -4.328125 11.347656 -3.734375 13.546875 -3.734375 C 14.316406 -3.734375 15.175781 -3.828125 16.125 -4.015625 C 17.082031 -4.210938 17.984375 -4.546875 18.828125 -5.015625 C 19.441406 -5.367188 19.984375 -5.519531 20.453125 -5.46875 C 20.921875 -5.425781 21.296875 -5.257812 21.578125 -4.96875 C 21.859375 -4.675781 22.023438 -4.316406 22.078125 -3.890625 C 22.140625 -3.460938 22.0625 -3.03125 21.84375 -2.59375 C 21.625 -2.15625 21.25 -1.773438 20.71875 -1.453125 C 19.695312 -0.804688 18.519531 -0.328125 17.1875 -0.015625 C 15.851562 0.285156 14.613281 0.4375 13.46875 0.4375 Z M 13.46875 0.4375 "/></g></g></g><g fill="#000000" fill-opacity="1"><g transform="translate(439.360445, 128.976895)"><g><path d="M 5.671875 0.359375 C 4.796875 0.359375 4.125 0.117188 3.65625 -0.359375 C 3.1875 -0.847656 2.953125 -1.550781 2.953125 -2.46875 L 2.953125 -19.09375 C 2.953125 -20 3.1875 -20.6875 3.65625 -21.15625 C 4.125 -21.632812 4.78125 -21.875 5.625 -21.875 C 6.476562 -21.875 7.140625 -21.632812 7.609375 -21.15625 C 8.078125 -20.6875 8.3125 -20 8.3125 -19.09375 L 8.3125 -15.890625 L 7.828125 -17.203125 C 8.421875 -18.671875 9.332031 -19.828125 10.5625 -20.671875 C 11.789062 -21.523438 13.253906 -21.953125 14.953125 -21.953125 C 16.691406 -21.953125 18.117188 -21.539062 19.234375 -20.71875 C 20.347656 -19.894531 21.125 -18.632812 21.5625 -16.9375 L 20.9375 -16.9375 C 21.53125 -18.488281 22.5 -19.710938 23.84375 -20.609375 C 25.195312 -21.503906 26.753906 -21.953125 28.515625 -21.953125 C 30.148438 -21.953125 31.503906 -21.628906 32.578125 -20.984375 C 33.648438 -20.335938 34.445312 -19.363281 34.96875 -18.0625 C 35.5 -16.757812 35.765625 -15.109375 35.765625 -13.109375 L 35.765625 -2.46875 C 35.765625 -1.550781 35.519531 -0.847656 35.03125 -0.359375 C 34.550781 0.117188 33.875 0.359375 33 0.359375 C 32.125 0.359375 31.445312 0.117188 30.96875 -0.359375 C 30.5 -0.847656 30.265625 -1.550781 30.265625 -2.46875 L 30.265625 -12.890625 C 30.265625 -14.535156 29.992188 -15.738281 29.453125 -16.5 C 28.910156 -17.257812 27.992188 -17.640625 26.703125 -17.640625 C 25.265625 -17.640625 24.132812 -17.132812 23.3125 -16.125 C 22.5 -15.113281 22.09375 -13.710938 22.09375 -11.921875 L 22.09375 -2.46875 C 22.09375 -1.550781 21.859375 -0.847656 21.390625 -0.359375 C 20.921875 0.117188 20.242188 0.359375 19.359375 0.359375 C 18.484375 0.359375 17.800781 0.117188 17.3125 -0.359375 C 16.832031 -0.847656 16.59375 -1.550781 16.59375 -2.46875 L 16.59375 -12.890625 C 16.59375 -14.535156 16.316406 -15.738281 15.765625 -16.5 C 15.222656 -17.257812 14.320312 -17.640625 13.0625 -17.640625 C 11.625 -17.640625 10.492188 -17.132812 9.671875 -16.125 C 8.859375 -15.113281 8.453125 -13.710938 8.453125 -11.921875 L 8.453125 -2.46875 C 8.453125 -0.582031 7.523438 0.359375 5.671875 0.359375 Z M 5.671875 0.359375 "/></g></g></g><g fill="#000000" fill-opacity="1"><g transform="translate(477.941589, 128.976895)"><g><path d="M 13.46875 0.4375 C 11.03125 0.4375 8.929688 -0.015625 7.171875 -0.921875 C 5.410156 -1.828125 4.050781 -3.113281 3.09375 -4.78125 C 2.144531 -6.457031 1.671875 -8.441406 1.671875 -10.734375 C 1.671875 -12.960938 2.128906 -14.910156 3.046875 -16.578125 C 3.972656 -18.253906 5.25 -19.566406 6.875 -20.515625 C 8.507812 -21.472656 10.367188 -21.953125 12.453125 -21.953125 C 13.972656 -21.953125 15.34375 -21.703125 16.5625 -21.203125 C 17.78125 -20.703125 18.820312 -19.984375 19.6875 -19.046875 C 20.550781 -18.109375 21.210938 -16.972656 21.671875 -15.640625 C 22.128906 -14.304688 22.359375 -12.800781 22.359375 -11.125 C 22.359375 -10.601562 22.171875 -10.203125 21.796875 -9.921875 C 21.429688 -9.640625 20.910156 -9.5 20.234375 -9.5 L 6.109375 -9.5 L 6.109375 -12.671875 L 18.484375 -12.671875 L 17.78125 -12.015625 C 17.78125 -13.359375 17.582031 -14.484375 17.1875 -15.390625 C 16.789062 -16.304688 16.21875 -17.003906 15.46875 -17.484375 C 14.71875 -17.972656 13.785156 -18.21875 12.671875 -18.21875 C 11.441406 -18.21875 10.394531 -17.929688 9.53125 -17.359375 C 8.664062 -16.785156 8.003906 -15.976562 7.546875 -14.9375 C 7.085938 -13.894531 6.859375 -12.65625 6.859375 -11.21875 L 6.859375 -10.90625 C 6.859375 -8.5 7.421875 -6.703125 8.546875 -5.515625 C 9.679688 -4.328125 11.347656 -3.734375 13.546875 -3.734375 C 14.316406 -3.734375 15.175781 -3.828125 16.125 -4.015625 C 17.082031 -4.210938 17.984375 -4.546875 18.828125 -5.015625 C 19.441406 -5.367188 19.984375 -5.519531 20.453125 -5.46875 C 20.921875 -5.425781 21.296875 -5.257812 21.578125 -4.96875 C 21.859375 -4.675781 22.023438 -4.316406 22.078125 -3.890625 C 22.140625 -3.460938 22.0625 -3.03125 21.84375 -2.59375 C 21.625 -2.15625 21.25 -1.773438 20.71875 -1.453125 C 19.695312 -0.804688 18.519531 -0.328125 17.1875 -0.015625 C 15.851562 0.285156 14.613281 0.4375 13.46875 0.4375 Z M 13.46875 0.4375 "/></g></g></g><g fill="#000000" fill-opacity="1"><g transform="translate(501.785307, 128.976895)"><g><path d="M 5.59375 0.359375 C 4.707031 0.359375 4.03125 0.117188 3.5625 -0.359375 C 3.09375 -0.847656 2.859375 -1.550781 2.859375 -2.46875 L 2.859375 -19.09375 C 2.859375 -20 3.09375 -20.6875 3.5625 -21.15625 C 4.03125 -21.632812 4.691406 -21.875 5.546875 -21.875 C 6.390625 -21.875 7.046875 -21.632812 7.515625 -21.15625 C 7.992188 -20.6875 8.234375 -20 8.234375 -19.09375 L 8.234375 -16.109375 L 7.75 -17.203125 C 8.394531 -18.753906 9.394531 -19.929688 10.75 -20.734375 C 12.113281 -21.546875 13.664062 -21.953125 15.40625 -21.953125 C 17.132812 -21.953125 18.554688 -21.628906 19.671875 -20.984375 C 20.785156 -20.335938 21.617188 -19.363281 22.171875 -18.0625 C 22.734375 -16.757812 23.015625 -15.109375 23.015625 -13.109375 L 23.015625 -2.46875 C 23.015625 -1.550781 22.78125 -0.847656 22.3125 -0.359375 C 21.84375 0.117188 21.164062 0.359375 20.28125 0.359375 C 19.40625 0.359375 18.722656 0.117188 18.234375 -0.359375 C 17.753906 -0.847656 17.515625 -1.550781 17.515625 -2.46875 L 17.515625 -12.84375 C 17.515625 -14.519531 17.195312 -15.738281 16.5625 -16.5 C 15.9375 -17.257812 14.960938 -17.640625 13.640625 -17.640625 C 12.023438 -17.640625 10.738281 -17.132812 9.78125 -16.125 C 8.832031 -15.113281 8.359375 -13.769531 8.359375 -12.09375 L 8.359375 -2.46875 C 8.359375 -0.582031 7.4375 0.359375 5.59375 0.359375 Z M 5.59375 0.359375 "/></g></g></g><g fill="#000000" fill-opacity="1"><g transform="translate(527.520734, 128.976895)"><g><path d="M 5.5 0.21875 C 4.5 0.21875 3.695312 -0.0859375 3.09375 -0.703125 C 2.5 -1.316406 2.203125 -2.109375 2.203125 -3.078125 C 2.203125 -4.015625 2.5 -4.785156 3.09375 -5.390625 C 3.695312 -5.992188 4.5 -6.296875 5.5 -6.296875 C 6.53125 -6.296875 7.328125 -5.992188 7.890625 -5.390625 C 8.460938 -4.785156 8.75 -4.015625 8.75 -3.078125 C 8.75 -2.109375 8.460938 -1.316406 7.890625 -0.703125 C 7.328125 -0.0859375 6.53125 0.21875 5.5 0.21875 Z M 5.5 0.21875 "/></g></g></g></svg>