<svg xmlns="http://www.w3.org/2000/svg" xmlns:xlink="http://www.w3.org/1999/xlink" width="848" zoomAndPan="magnify" viewBox="0 0 636 167.999997" height="224" preserveAspectRatio="xMidYMid meet" version="1.0"><defs><g/><clipPath id="49edf46bdd"><path d="M 0 0 L 635.835938 0 L 635.835938 167.953125 L 0 167.953125 Z M 0 0 " clip-rule="nonzero"/></clipPath></defs><g clip-path="url(#49edf46bdd)"><path stroke-linecap="butt" transform="matrix(0.75, 0, 0, 0.75, 0.00154795, -0.000000000000031974)" fill="none" stroke-linejoin="miter" d="M -0.00206393 0.000000000000042633 L 847.779237 0.000000000000042633 L 847.779237 223.937513 L -0.00206393 223.937513 Z M -0.00206393 0.000000000000042633 " stroke="#000000" stroke-width="12" stroke-opacity="1" stroke-miterlimit="4"/></g><g fill="#000000" fill-opacity="1"><g transform="translate(48.788264, 76.730261)"><g><path d="M 13.75 0.34375 C 11.375 0.34375 9.289062 -0.175781 7.5 -1.21875 C 5.71875 -2.269531 4.335938 -3.742188 3.359375 -5.640625 C 2.378906 -7.546875 1.890625 -9.785156 1.890625 -12.359375 C 1.890625 -14.296875 2.164062 -16.039062 2.71875 -17.59375 C 3.28125 -19.144531 4.082031 -20.472656 5.125 -21.578125 C 6.164062 -22.679688 7.414062 -23.53125 8.875 -24.125 C 10.332031 -24.726562 11.957031 -25.03125 13.75 -25.03125 C 16.15625 -25.03125 18.242188 -24.507812 20.015625 -23.46875 C 21.796875 -22.425781 23.175781 -20.957031 24.15625 -19.0625 C 25.132812 -17.175781 25.625 -14.953125 25.625 -12.390625 C 25.625 -10.453125 25.34375 -8.703125 24.78125 -7.140625 C 24.21875 -5.578125 23.414062 -4.234375 22.375 -3.109375 C 21.34375 -1.992188 20.097656 -1.140625 18.640625 -0.546875 C 17.179688 0.046875 15.550781 0.34375 13.75 0.34375 Z M 13.75 -3.5 C 15.269531 -3.5 16.5625 -3.847656 17.625 -4.546875 C 18.6875 -5.242188 19.503906 -6.257812 20.078125 -7.59375 C 20.648438 -8.925781 20.9375 -10.515625 20.9375 -12.359375 C 20.9375 -15.160156 20.3125 -17.328125 19.0625 -18.859375 C 17.8125 -20.398438 16.039062 -21.171875 13.75 -21.171875 C 12.257812 -21.171875 10.976562 -20.828125 9.90625 -20.140625 C 8.832031 -19.453125 8.007812 -18.445312 7.4375 -17.125 C 6.863281 -15.8125 6.578125 -14.222656 6.578125 -12.359375 C 6.578125 -9.578125 7.207031 -7.40625 8.46875 -5.84375 C 9.726562 -4.28125 11.488281 -3.5 13.75 -3.5 Z M 13.75 -3.5 "/></g></g></g><g fill="#000000" fill-opacity="1"><g transform="translate(76.257058, 76.730261)"><g><path d="M 4.515625 0.28125 C 3.796875 0.28125 3.242188 0.0859375 2.859375 -0.296875 C 2.472656 -0.679688 2.28125 -1.234375 2.28125 -1.953125 L 2.28125 -15.1875 C 2.28125 -15.914062 2.460938 -16.460938 2.828125 -16.828125 C 3.203125 -17.203125 3.726562 -17.390625 4.40625 -17.390625 C 5.082031 -17.390625 5.609375 -17.203125 5.984375 -16.828125 C 6.359375 -16.460938 6.546875 -15.914062 6.546875 -15.1875 L 6.546875 -12.984375 L 6.1875 -12.984375 C 6.519531 -14.378906 7.164062 -15.4375 8.125 -16.15625 C 9.082031 -16.882812 10.351562 -17.320312 11.9375 -17.46875 C 12.425781 -17.507812 12.816406 -17.382812 13.109375 -17.09375 C 13.398438 -16.800781 13.566406 -16.351562 13.609375 -15.75 C 13.660156 -15.164062 13.523438 -14.691406 13.203125 -14.328125 C 12.890625 -13.972656 12.421875 -13.757812 11.796875 -13.6875 L 11.03125 -13.609375 C 9.601562 -13.472656 8.523438 -13.035156 7.796875 -12.296875 C 7.078125 -11.566406 6.71875 -10.535156 6.71875 -9.203125 L 6.71875 -1.953125 C 6.71875 -1.234375 6.53125 -0.679688 6.15625 -0.296875 C 5.78125 0.0859375 5.234375 0.28125 4.515625 0.28125 Z M 4.515625 0.28125 "/></g></g></g><g fill="#000000" fill-opacity="1"><g transform="translate(89.798977, 76.730261)"><g><path d="M 7.90625 0.34375 C 6.675781 0.34375 5.578125 0.109375 4.609375 -0.359375 C 3.640625 -0.835938 2.878906 -1.484375 2.328125 -2.296875 C 1.773438 -3.117188 1.5 -4.046875 1.5 -5.078125 C 1.5 -6.335938 1.828125 -7.332031 2.484375 -8.0625 C 3.140625 -8.800781 4.203125 -9.332031 5.671875 -9.65625 C 7.140625 -9.988281 9.109375 -10.15625 11.578125 -10.15625 L 13.328125 -10.15625 L 13.328125 -7.625 L 11.625 -7.625 C 10.175781 -7.625 9.019531 -7.550781 8.15625 -7.40625 C 7.289062 -7.269531 6.675781 -7.03125 6.3125 -6.6875 C 5.957031 -6.351562 5.78125 -5.882812 5.78125 -5.28125 C 5.78125 -4.507812 6.046875 -3.878906 6.578125 -3.390625 C 7.117188 -2.898438 7.863281 -2.65625 8.8125 -2.65625 C 9.582031 -2.65625 10.265625 -2.835938 10.859375 -3.203125 C 11.460938 -3.566406 11.9375 -4.0625 12.28125 -4.6875 C 12.632812 -5.320312 12.8125 -6.046875 12.8125 -6.859375 L 12.8125 -10.890625 C 12.8125 -12.054688 12.550781 -12.894531 12.03125 -13.40625 C 11.519531 -13.914062 10.660156 -14.171875 9.453125 -14.171875 C 8.773438 -14.171875 8.046875 -14.085938 7.265625 -13.921875 C 6.484375 -13.765625 5.660156 -13.488281 4.796875 -13.09375 C 4.347656 -12.882812 3.953125 -12.828125 3.609375 -12.921875 C 3.273438 -13.015625 3.015625 -13.207031 2.828125 -13.5 C 2.648438 -13.789062 2.5625 -14.109375 2.5625 -14.453125 C 2.5625 -14.804688 2.648438 -15.148438 2.828125 -15.484375 C 3.015625 -15.828125 3.332031 -16.078125 3.78125 -16.234375 C 4.851562 -16.679688 5.882812 -17 6.875 -17.1875 C 7.863281 -17.375 8.769531 -17.46875 9.59375 -17.46875 C 11.269531 -17.46875 12.648438 -17.207031 13.734375 -16.6875 C 14.816406 -16.175781 15.625 -15.398438 16.15625 -14.359375 C 16.695312 -13.328125 16.96875 -11.992188 16.96875 -10.359375 L 16.96875 -1.953125 C 16.96875 -1.234375 16.789062 -0.679688 16.4375 -0.296875 C 16.09375 0.0859375 15.59375 0.28125 14.9375 0.28125 C 14.289062 0.28125 13.785156 0.0859375 13.421875 -0.296875 C 13.054688 -0.679688 12.875 -1.234375 12.875 -1.953125 L 12.875 -3.640625 L 13.15625 -3.640625 C 13 -2.828125 12.679688 -2.117188 12.203125 -1.515625 C 11.722656 -0.921875 11.117188 -0.460938 10.390625 -0.140625 C 9.671875 0.179688 8.84375 0.34375 7.90625 0.34375 Z M 7.90625 0.34375 "/></g></g></g><g fill="#000000" fill-opacity="1"><g transform="translate(108.939654, 76.730261)"><g><path d="M 4.4375 0.28125 C 3.738281 0.28125 3.203125 0.0859375 2.828125 -0.296875 C 2.460938 -0.679688 2.28125 -1.234375 2.28125 -1.953125 L 2.28125 -15.1875 C 2.28125 -15.914062 2.460938 -16.460938 2.828125 -16.828125 C 3.203125 -17.203125 3.726562 -17.390625 4.40625 -17.390625 C 5.082031 -17.390625 5.609375 -17.203125 5.984375 -16.828125 C 6.359375 -16.460938 6.546875 -15.914062 6.546875 -15.1875 L 6.546875 -12.8125 L 6.15625 -13.6875 C 6.675781 -14.925781 7.476562 -15.863281 8.5625 -16.5 C 9.644531 -17.144531 10.875 -17.46875 12.25 -17.46875 C 13.625 -17.46875 14.753906 -17.207031 15.640625 -16.6875 C 16.523438 -16.175781 17.191406 -15.398438 17.640625 -14.359375 C 18.085938 -13.328125 18.3125 -12.019531 18.3125 -10.4375 L 18.3125 -1.953125 C 18.3125 -1.234375 18.125 -0.679688 17.75 -0.296875 C 17.375 0.0859375 16.835938 0.28125 16.140625 0.28125 C 15.429688 0.28125 14.882812 0.0859375 14.5 -0.296875 C 14.125 -0.679688 13.9375 -1.234375 13.9375 -1.953125 L 13.9375 -10.21875 C 13.9375 -11.550781 13.679688 -12.519531 13.171875 -13.125 C 12.671875 -13.726562 11.894531 -14.03125 10.84375 -14.03125 C 9.5625 -14.03125 8.539062 -13.628906 7.78125 -12.828125 C 7.03125 -12.023438 6.65625 -10.957031 6.65625 -9.625 L 6.65625 -1.953125 C 6.65625 -0.460938 5.914062 0.28125 4.4375 0.28125 Z M 4.4375 0.28125 "/></g></g></g><g fill="#000000" fill-opacity="1"><g transform="translate(129.410032, 76.730261)"><g><path d="M 10.25 6.65625 C 8.988281 6.65625 7.769531 6.535156 6.59375 6.296875 C 5.414062 6.066406 4.347656 5.707031 3.390625 5.21875 C 2.953125 4.976562 2.65625 4.695312 2.5 4.375 C 2.351562 4.050781 2.304688 3.71875 2.359375 3.375 C 2.421875 3.039062 2.5625 2.742188 2.78125 2.484375 C 3 2.222656 3.269531 2.046875 3.59375 1.953125 C 3.925781 1.859375 4.269531 1.90625 4.625 2.09375 C 5.644531 2.613281 6.613281 2.945312 7.53125 3.09375 C 8.457031 3.25 9.25 3.328125 9.90625 3.328125 C 11.46875 3.328125 12.640625 2.945312 13.421875 2.1875 C 14.203125 1.425781 14.59375 0.300781 14.59375 -1.1875 L 14.59375 -4.34375 L 14.90625 -4.34375 C 14.5625 -3.15625 13.832031 -2.203125 12.71875 -1.484375 C 11.613281 -0.773438 10.359375 -0.421875 8.953125 -0.421875 C 7.421875 -0.421875 6.082031 -0.773438 4.9375 -1.484375 C 3.789062 -2.203125 2.898438 -3.203125 2.265625 -4.484375 C 1.640625 -5.765625 1.328125 -7.253906 1.328125 -8.953125 C 1.328125 -10.242188 1.507812 -11.40625 1.875 -12.4375 C 2.238281 -13.476562 2.75 -14.367188 3.40625 -15.109375 C 4.070312 -15.859375 4.878906 -16.4375 5.828125 -16.84375 C 6.773438 -17.257812 7.816406 -17.46875 8.953125 -17.46875 C 10.398438 -17.46875 11.664062 -17.109375 12.75 -16.390625 C 13.84375 -15.679688 14.550781 -14.742188 14.875 -13.578125 L 14.53125 -12.703125 L 14.53125 -15.1875 C 14.53125 -15.914062 14.722656 -16.460938 15.109375 -16.828125 C 15.492188 -17.203125 16.019531 -17.390625 16.6875 -17.390625 C 17.394531 -17.390625 17.929688 -17.203125 18.296875 -16.828125 C 18.671875 -16.460938 18.859375 -15.914062 18.859375 -15.1875 L 18.859375 -1.71875 C 18.859375 1.0625 18.125 3.148438 16.65625 4.546875 C 15.1875 5.953125 13.050781 6.65625 10.25 6.65625 Z M 10.15625 -3.75 C 11.0625 -3.75 11.835938 -3.957031 12.484375 -4.375 C 13.140625 -4.789062 13.648438 -5.390625 14.015625 -6.171875 C 14.378906 -6.953125 14.5625 -7.878906 14.5625 -8.953125 C 14.5625 -10.566406 14.164062 -11.832031 13.375 -12.75 C 12.582031 -13.675781 11.507812 -14.140625 10.15625 -14.140625 C 9.238281 -14.140625 8.453125 -13.925781 7.796875 -13.5 C 7.148438 -13.082031 6.644531 -12.488281 6.28125 -11.71875 C 5.914062 -10.945312 5.734375 -10.023438 5.734375 -8.953125 C 5.734375 -7.347656 6.128906 -6.078125 6.921875 -5.140625 C 7.722656 -4.210938 8.800781 -3.75 10.15625 -3.75 Z M 10.15625 -3.75 "/></g></g></g><g fill="#000000" fill-opacity="1"><g transform="translate(150.545255, 76.730261)"><g/></g></g><g fill="#000000" fill-opacity="1"><g transform="translate(160.028115, 76.730261)"><g><path d="M 10.109375 0.34375 C 8.597656 0.34375 7.332031 0.0859375 6.3125 -0.421875 C 5.300781 -0.929688 4.550781 -1.679688 4.0625 -2.671875 C 3.570312 -3.671875 3.328125 -4.90625 3.328125 -6.375 L 3.328125 -13.828125 L 1.5 -13.828125 C 0.945312 -13.828125 0.515625 -13.972656 0.203125 -14.265625 C -0.0976562 -14.554688 -0.25 -14.957031 -0.25 -15.46875 C -0.25 -16.007812 -0.0976562 -16.414062 0.203125 -16.6875 C 0.515625 -16.96875 0.945312 -17.109375 1.5 -17.109375 L 3.328125 -17.109375 L 3.328125 -20.296875 C 3.328125 -21.023438 3.519531 -21.570312 3.90625 -21.9375 C 4.289062 -22.3125 4.832031 -22.5 5.53125 -22.5 C 6.226562 -22.5 6.765625 -22.3125 7.140625 -21.9375 C 7.515625 -21.570312 7.703125 -21.023438 7.703125 -20.296875 L 7.703125 -17.109375 L 11.40625 -17.109375 C 11.96875 -17.109375 12.398438 -16.96875 12.703125 -16.6875 C 13.003906 -16.414062 13.15625 -16.007812 13.15625 -15.46875 C 13.15625 -14.957031 13.003906 -14.554688 12.703125 -14.265625 C 12.398438 -13.972656 11.96875 -13.828125 11.40625 -13.828125 L 7.703125 -13.828125 L 7.703125 -6.609375 C 7.703125 -5.492188 7.945312 -4.65625 8.4375 -4.09375 C 8.925781 -3.53125 9.71875 -3.25 10.8125 -3.25 C 11.207031 -3.25 11.554688 -3.285156 11.859375 -3.359375 C 12.160156 -3.429688 12.429688 -3.476562 12.671875 -3.5 C 12.953125 -3.519531 13.1875 -3.429688 13.375 -3.234375 C 13.5625 -3.035156 13.65625 -2.632812 13.65625 -2.03125 C 13.65625 -1.5625 13.578125 -1.144531 13.421875 -0.78125 C 13.265625 -0.425781 12.988281 -0.175781 12.59375 -0.03125 C 12.289062 0.0625 11.894531 0.144531 11.40625 0.21875 C 10.914062 0.300781 10.484375 0.34375 10.109375 0.34375 Z M 10.109375 0.34375 "/></g></g></g><g fill="#000000" fill-opacity="1"><g transform="translate(173.46508, 76.730261)"><g><path d="M 8.46875 0.34375 C 7.039062 0.34375 5.859375 0.0820312 4.921875 -0.4375 C 3.992188 -0.957031 3.300781 -1.742188 2.84375 -2.796875 C 2.394531 -3.847656 2.171875 -5.15625 2.171875 -6.71875 L 2.171875 -15.1875 C 2.171875 -15.9375 2.359375 -16.488281 2.734375 -16.84375 C 3.109375 -17.207031 3.644531 -17.390625 4.34375 -17.390625 C 5.039062 -17.390625 5.582031 -17.207031 5.96875 -16.84375 C 6.351562 -16.488281 6.546875 -15.9375 6.546875 -15.1875 L 6.546875 -6.65625 C 6.546875 -5.4375 6.789062 -4.535156 7.28125 -3.953125 C 7.769531 -3.367188 8.550781 -3.078125 9.625 -3.078125 C 10.789062 -3.078125 11.742188 -3.476562 12.484375 -4.28125 C 13.234375 -5.09375 13.609375 -6.160156 13.609375 -7.484375 L 13.609375 -15.1875 C 13.609375 -15.9375 13.796875 -16.488281 14.171875 -16.84375 C 14.546875 -17.207031 15.082031 -17.390625 15.78125 -17.390625 C 16.476562 -17.390625 17.019531 -17.207031 17.40625 -16.84375 C 17.789062 -16.488281 17.984375 -15.9375 17.984375 -15.1875 L 17.984375 -1.953125 C 17.984375 -0.460938 17.273438 0.28125 15.859375 0.28125 C 15.179688 0.28125 14.65625 0.0859375 14.28125 -0.296875 C 13.90625 -0.679688 13.71875 -1.234375 13.71875 -1.953125 L 13.71875 -4.625 L 14.203125 -3.5625 C 13.710938 -2.3125 12.972656 -1.347656 11.984375 -0.671875 C 10.992188 0.00390625 9.820312 0.34375 8.46875 0.34375 Z M 8.46875 0.34375 "/></g></g></g><g fill="#000000" fill-opacity="1"><g transform="translate(193.725505, 76.730261)"><g><path d="M 7.90625 0.34375 C 6.675781 0.34375 5.578125 0.109375 4.609375 -0.359375 C 3.640625 -0.835938 2.878906 -1.484375 2.328125 -2.296875 C 1.773438 -3.117188 1.5 -4.046875 1.5 -5.078125 C 1.5 -6.335938 1.828125 -7.332031 2.484375 -8.0625 C 3.140625 -8.800781 4.203125 -9.332031 5.671875 -9.65625 C 7.140625 -9.988281 9.109375 -10.15625 11.578125 -10.15625 L 13.328125 -10.15625 L 13.328125 -7.625 L 11.625 -7.625 C 10.175781 -7.625 9.019531 -7.550781 8.15625 -7.40625 C 7.289062 -7.269531 6.675781 -7.03125 6.3125 -6.6875 C 5.957031 -6.351562 5.78125 -5.882812 5.78125 -5.28125 C 5.78125 -4.507812 6.046875 -3.878906 6.578125 -3.390625 C 7.117188 -2.898438 7.863281 -2.65625 8.8125 -2.65625 C 9.582031 -2.65625 10.265625 -2.835938 10.859375 -3.203125 C 11.460938 -3.566406 11.9375 -4.0625 12.28125 -4.6875 C 12.632812 -5.320312 12.8125 -6.046875 12.8125 -6.859375 L 12.8125 -10.890625 C 12.8125 -12.054688 12.550781 -12.894531 12.03125 -13.40625 C 11.519531 -13.914062 10.660156 -14.171875 9.453125 -14.171875 C 8.773438 -14.171875 8.046875 -14.085938 7.265625 -13.921875 C 6.484375 -13.765625 5.660156 -13.488281 4.796875 -13.09375 C 4.347656 -12.882812 3.953125 -12.828125 3.609375 -12.921875 C 3.273438 -13.015625 3.015625 -13.207031 2.828125 -13.5 C 2.648438 -13.789062 2.5625 -14.109375 2.5625 -14.453125 C 2.5625 -14.804688 2.648438 -15.148438 2.828125 -15.484375 C 3.015625 -15.828125 3.332031 -16.078125 3.78125 -16.234375 C 4.851562 -16.679688 5.882812 -17 6.875 -17.1875 C 7.863281 -17.375 8.769531 -17.46875 9.59375 -17.46875 C 11.269531 -17.46875 12.648438 -17.207031 13.734375 -16.6875 C 14.816406 -16.175781 15.625 -15.398438 16.15625 -14.359375 C 16.695312 -13.328125 16.96875 -11.992188 16.96875 -10.359375 L 16.96875 -1.953125 C 16.96875 -1.234375 16.789062 -0.679688 16.4375 -0.296875 C 16.09375 0.0859375 15.59375 0.28125 14.9375 0.28125 C 14.289062 0.28125 13.785156 0.0859375 13.421875 -0.296875 C 13.054688 -0.679688 12.875 -1.234375 12.875 -1.953125 L 12.875 -3.640625 L 13.15625 -3.640625 C 13 -2.828125 12.679688 -2.117188 12.203125 -1.515625 C 11.722656 -0.921875 11.117188 -0.460938 10.390625 -0.140625 C 9.671875 0.179688 8.84375 0.34375 7.90625 0.34375 Z M 7.90625 0.34375 "/></g></g></g><g fill="#000000" fill-opacity="1"><g transform="translate(212.866182, 76.730261)"><g/></g></g><g fill="#000000" fill-opacity="1"><g transform="translate(222.349042, 76.730261)"><g><path d="M 5.078125 0 C 4.304688 0 3.710938 -0.203125 3.296875 -0.609375 C 2.890625 -1.015625 2.6875 -1.601562 2.6875 -2.375 L 2.6875 -22.296875 C 2.6875 -23.066406 2.890625 -23.65625 3.296875 -24.0625 C 3.710938 -24.46875 4.304688 -24.671875 5.078125 -24.671875 L 17.5625 -24.671875 C 18.144531 -24.671875 18.59375 -24.519531 18.90625 -24.21875 C 19.226562 -23.914062 19.390625 -23.484375 19.390625 -22.921875 C 19.390625 -22.335938 19.226562 -21.890625 18.90625 -21.578125 C 18.59375 -21.265625 18.144531 -21.109375 17.5625 -21.109375 L 7 -21.109375 L 7 -14.3125 L 16.796875 -14.3125 C 17.398438 -14.3125 17.851562 -14.160156 18.15625 -13.859375 C 18.46875 -13.554688 18.625 -13.113281 18.625 -12.53125 C 18.625 -11.945312 18.46875 -11.503906 18.15625 -11.203125 C 17.851562 -10.898438 17.398438 -10.75 16.796875 -10.75 L 7 -10.75 L 7 -3.5625 L 17.5625 -3.5625 C 18.144531 -3.5625 18.59375 -3.410156 18.90625 -3.109375 C 19.226562 -2.804688 19.390625 -2.363281 19.390625 -1.78125 C 19.390625 -1.195312 19.226562 -0.753906 18.90625 -0.453125 C 18.59375 -0.148438 18.144531 0 17.5625 0 Z M 5.078125 0 "/></g></g></g><g fill="#000000" fill-opacity="1"><g transform="translate(243.239326, 76.730261)"><g><path d="M 4.515625 0.28125 C 3.796875 0.28125 3.242188 0.0859375 2.859375 -0.296875 C 2.472656 -0.679688 2.28125 -1.234375 2.28125 -1.953125 L 2.28125 -15.1875 C 2.28125 -15.914062 2.460938 -16.460938 2.828125 -16.828125 C 3.203125 -17.203125 3.726562 -17.390625 4.40625 -17.390625 C 5.082031 -17.390625 5.609375 -17.203125 5.984375 -16.828125 C 6.359375 -16.460938 6.546875 -15.914062 6.546875 -15.1875 L 6.546875 -12.984375 L 6.1875 -12.984375 C 6.519531 -14.378906 7.164062 -15.4375 8.125 -16.15625 C 9.082031 -16.882812 10.351562 -17.320312 11.9375 -17.46875 C 12.425781 -17.507812 12.816406 -17.382812 13.109375 -17.09375 C 13.398438 -16.800781 13.566406 -16.351562 13.609375 -15.75 C 13.660156 -15.164062 13.523438 -14.691406 13.203125 -14.328125 C 12.890625 -13.972656 12.421875 -13.757812 11.796875 -13.6875 L 11.03125 -13.609375 C 9.601562 -13.472656 8.523438 -13.035156 7.796875 -12.296875 C 7.078125 -11.566406 6.71875 -10.535156 6.71875 -9.203125 L 6.71875 -1.953125 C 6.71875 -1.234375 6.53125 -0.679688 6.15625 -0.296875 C 5.78125 0.0859375 5.234375 0.28125 4.515625 0.28125 Z M 4.515625 0.28125 "/></g></g></g><g fill="#000000" fill-opacity="1"><g transform="translate(256.956237, 76.730261)"><g><path d="M 4.4375 0.25 C 3.738281 0.25 3.203125 0.0390625 2.828125 -0.375 C 2.460938 -0.800781 2.28125 -1.390625 2.28125 -2.140625 L 2.28125 -14.984375 C 2.28125 -15.753906 2.460938 -16.34375 2.828125 -16.75 C 3.203125 -17.15625 3.738281 -17.359375 4.4375 -17.359375 C 5.144531 -17.359375 5.691406 -17.15625 6.078125 -16.75 C 6.460938 -16.34375 6.65625 -15.753906 6.65625 -14.984375 L 6.65625 -2.140625 C 6.65625 -1.390625 6.46875 -0.800781 6.09375 -0.375 C 5.71875 0.0390625 5.164062 0.25 4.4375 0.25 Z M 4.4375 -20.609375 C 3.625 -20.609375 2.988281 -20.8125 2.53125 -21.21875 C 2.082031 -21.632812 1.859375 -22.203125 1.859375 -22.921875 C 1.859375 -23.671875 2.082031 -24.242188 2.53125 -24.640625 C 2.988281 -25.035156 3.625 -25.234375 4.4375 -25.234375 C 5.28125 -25.234375 5.921875 -25.035156 6.359375 -24.640625 C 6.804688 -24.242188 7.03125 -23.671875 7.03125 -22.921875 C 7.03125 -22.203125 6.804688 -21.632812 6.359375 -21.21875 C 5.921875 -20.8125 5.28125 -20.609375 4.4375 -20.609375 Z M 4.4375 -20.609375 "/></g></g></g><g fill="#000000" fill-opacity="1"><g transform="translate(265.879195, 76.730261)"><g><path d="M 4.4375 0.28125 C 3.738281 0.28125 3.203125 0.0859375 2.828125 -0.296875 C 2.460938 -0.679688 2.28125 -1.234375 2.28125 -1.953125 L 2.28125 -15.1875 C 2.28125 -15.914062 2.460938 -16.460938 2.828125 -16.828125 C 3.203125 -17.203125 3.726562 -17.390625 4.40625 -17.390625 C 5.082031 -17.390625 5.609375 -17.203125 5.984375 -16.828125 C 6.359375 -16.460938 6.546875 -15.914062 6.546875 -15.1875 L 6.546875 -12.8125 L 6.15625 -13.6875 C 6.675781 -14.925781 7.476562 -15.863281 8.5625 -16.5 C 9.644531 -17.144531 10.875 -17.46875 12.25 -17.46875 C 13.625 -17.46875 14.753906 -17.207031 15.640625 -16.6875 C 16.523438 -16.175781 17.191406 -15.398438 17.640625 -14.359375 C 18.085938 -13.328125 18.3125 -12.019531 18.3125 -10.4375 L 18.3125 -1.953125 C 18.3125 -1.234375 18.125 -0.679688 17.75 -0.296875 C 17.375 0.0859375 16.835938 0.28125 16.140625 0.28125 C 15.429688 0.28125 14.882812 0.0859375 14.5 -0.296875 C 14.125 -0.679688 13.9375 -1.234375 13.9375 -1.953125 L 13.9375 -10.21875 C 13.9375 -11.550781 13.679688 -12.519531 13.171875 -13.125 C 12.671875 -13.726562 11.894531 -14.03125 10.84375 -14.03125 C 9.5625 -14.03125 8.539062 -13.628906 7.78125 -12.828125 C 7.03125 -12.023438 6.65625 -10.957031 6.65625 -9.625 L 6.65625 -1.953125 C 6.65625 -0.460938 5.914062 0.28125 4.4375 0.28125 Z M 4.4375 0.28125 "/></g></g></g><g fill="#000000" fill-opacity="1"><g transform="translate(286.349584, 76.730261)"><g/></g></g><g fill="#000000" fill-opacity="1"><g transform="translate(295.832455, 76.730261)"><g><path d="M 8.125 0.34375 C 6.1875 0.34375 4.726562 -0.207031 3.75 -1.3125 C 2.769531 -2.414062 2.28125 -4.039062 2.28125 -6.1875 L 2.28125 -22.75 C 2.28125 -23.46875 2.460938 -24.015625 2.828125 -24.390625 C 3.203125 -24.765625 3.738281 -24.953125 4.4375 -24.953125 C 5.144531 -24.953125 5.691406 -24.765625 6.078125 -24.390625 C 6.460938 -24.015625 6.65625 -23.46875 6.65625 -22.75 L 6.65625 -6.40625 C 6.65625 -5.332031 6.878906 -4.535156 7.328125 -4.015625 C 7.785156 -3.503906 8.4375 -3.25 9.28125 -3.25 C 9.46875 -3.25 9.640625 -3.253906 9.796875 -3.265625 C 9.960938 -3.285156 10.128906 -3.304688 10.296875 -3.328125 C 10.617188 -3.367188 10.835938 -3.28125 10.953125 -3.0625 C 11.066406 -2.84375 11.125 -2.394531 11.125 -1.71875 C 11.125 -1.132812 11.007812 -0.675781 10.78125 -0.34375 C 10.550781 -0.0195312 10.164062 0.175781 9.625 0.25 C 9.394531 0.269531 9.148438 0.289062 8.890625 0.3125 C 8.628906 0.332031 8.375 0.34375 8.125 0.34375 Z M 8.125 0.34375 "/></g></g></g><g fill="#000000" fill-opacity="1"><g transform="translate(306.819927, 76.730261)"><g><path d="M 10.703125 0.34375 C 8.773438 0.34375 7.109375 -0.015625 5.703125 -0.734375 C 4.304688 -1.453125 3.226562 -2.476562 2.46875 -3.8125 C 1.707031 -5.144531 1.328125 -6.722656 1.328125 -8.546875 C 1.328125 -10.316406 1.691406 -11.863281 2.421875 -13.1875 C 3.160156 -14.519531 4.175781 -15.566406 5.46875 -16.328125 C 6.769531 -17.085938 8.25 -17.46875 9.90625 -17.46875 C 11.113281 -17.46875 12.203125 -17.269531 13.171875 -16.875 C 14.140625 -16.476562 14.96875 -15.90625 15.65625 -15.15625 C 16.34375 -14.40625 16.867188 -13.5 17.234375 -12.4375 C 17.597656 -11.375 17.78125 -10.179688 17.78125 -8.859375 C 17.78125 -8.429688 17.632812 -8.109375 17.34375 -7.890625 C 17.050781 -7.671875 16.632812 -7.5625 16.09375 -7.5625 L 4.859375 -7.5625 L 4.859375 -10.078125 L 14.703125 -10.078125 L 14.140625 -9.5625 C 14.140625 -10.632812 13.976562 -11.53125 13.65625 -12.25 C 13.34375 -12.96875 12.890625 -13.519531 12.296875 -13.90625 C 11.703125 -14.289062 10.960938 -14.484375 10.078125 -14.484375 C 9.097656 -14.484375 8.265625 -14.253906 7.578125 -13.796875 C 6.890625 -13.347656 6.363281 -12.707031 6 -11.875 C 5.632812 -11.050781 5.453125 -10.066406 5.453125 -8.921875 L 5.453125 -8.6875 C 5.453125 -6.769531 5.898438 -5.335938 6.796875 -4.390625 C 7.703125 -3.441406 9.03125 -2.96875 10.78125 -2.96875 C 11.382812 -2.96875 12.066406 -3.046875 12.828125 -3.203125 C 13.585938 -3.359375 14.304688 -3.617188 14.984375 -3.984375 C 15.472656 -4.265625 15.898438 -4.390625 16.265625 -4.359375 C 16.640625 -4.328125 16.9375 -4.191406 17.15625 -3.953125 C 17.382812 -3.722656 17.519531 -3.4375 17.5625 -3.09375 C 17.613281 -2.757812 17.550781 -2.414062 17.375 -2.0625 C 17.195312 -1.71875 16.898438 -1.414062 16.484375 -1.15625 C 15.671875 -0.644531 14.734375 -0.265625 13.671875 -0.015625 C 12.609375 0.222656 11.617188 0.34375 10.703125 0.34375 Z M 10.703125 0.34375 "/></g></g></g><g fill="#000000" fill-opacity="1"><g transform="translate(325.78567, 76.730261)"><g><path d="M 12.140625 0.34375 C 10.691406 0.34375 9.425781 -0.015625 8.34375 -0.734375 C 7.257812 -1.453125 6.539062 -2.421875 6.1875 -3.640625 L 6.578125 -4.515625 L 6.578125 -1.953125 C 6.578125 -1.234375 6.390625 -0.679688 6.015625 -0.296875 C 5.640625 0.0859375 5.113281 0.28125 4.4375 0.28125 C 3.738281 0.28125 3.203125 0.0859375 2.828125 -0.296875 C 2.460938 -0.679688 2.28125 -1.234375 2.28125 -1.953125 L 2.28125 -22.75 C 2.28125 -23.46875 2.460938 -24.015625 2.828125 -24.390625 C 3.203125 -24.765625 3.738281 -24.953125 4.4375 -24.953125 C 5.144531 -24.953125 5.691406 -24.765625 6.078125 -24.390625 C 6.460938 -24.015625 6.65625 -23.46875 6.65625 -22.75 L 6.65625 -13.65625 L 6.234375 -13.65625 C 6.609375 -14.789062 7.332031 -15.707031 8.40625 -16.40625 C 9.476562 -17.113281 10.722656 -17.46875 12.140625 -17.46875 C 13.660156 -17.46875 14.976562 -17.101562 16.09375 -16.375 C 17.21875 -15.65625 18.09375 -14.632812 18.71875 -13.3125 C 19.351562 -12 19.671875 -10.421875 19.671875 -8.578125 C 19.671875 -6.753906 19.351562 -5.171875 18.71875 -3.828125 C 18.09375 -2.484375 17.210938 -1.453125 16.078125 -0.734375 C 14.953125 -0.015625 13.640625 0.34375 12.140625 0.34375 Z M 10.921875 -2.96875 C 11.785156 -2.96875 12.539062 -3.175781 13.1875 -3.59375 C 13.84375 -4.019531 14.351562 -4.644531 14.71875 -5.46875 C 15.082031 -6.300781 15.265625 -7.335938 15.265625 -8.578125 C 15.265625 -10.441406 14.863281 -11.832031 14.0625 -12.75 C 13.269531 -13.675781 12.222656 -14.140625 10.921875 -14.140625 C 10.054688 -14.140625 9.296875 -13.9375 8.640625 -13.53125 C 7.992188 -13.125 7.488281 -12.503906 7.125 -11.671875 C 6.757812 -10.847656 6.578125 -9.816406 6.578125 -8.578125 C 6.578125 -6.734375 6.972656 -5.335938 7.765625 -4.390625 C 8.554688 -3.441406 9.609375 -2.96875 10.921875 -2.96875 Z M 10.921875 -2.96875 "/></g></g></g><g fill="#000000" fill-opacity="1"><g transform="translate(346.780908, 76.730261)"><g><path d="M 4.4375 0.25 C 3.738281 0.25 3.203125 0.0390625 2.828125 -0.375 C 2.460938 -0.800781 2.28125 -1.390625 2.28125 -2.140625 L 2.28125 -14.984375 C 2.28125 -15.753906 2.460938 -16.34375 2.828125 -16.75 C 3.203125 -17.15625 3.738281 -17.359375 4.4375 -17.359375 C 5.144531 -17.359375 5.691406 -17.15625 6.078125 -16.75 C 6.460938 -16.34375 6.65625 -15.753906 6.65625 -14.984375 L 6.65625 -2.140625 C 6.65625 -1.390625 6.46875 -0.800781 6.09375 -0.375 C 5.71875 0.0390625 5.164062 0.25 4.4375 0.25 Z M 4.4375 -20.609375 C 3.625 -20.609375 2.988281 -20.8125 2.53125 -21.21875 C 2.082031 -21.632812 1.859375 -22.203125 1.859375 -22.921875 C 1.859375 -23.671875 2.082031 -24.242188 2.53125 -24.640625 C 2.988281 -25.035156 3.625 -25.234375 4.4375 -25.234375 C 5.28125 -25.234375 5.921875 -25.035156 6.359375 -24.640625 C 6.804688 -24.242188 7.03125 -23.671875 7.03125 -22.921875 C 7.03125 -22.203125 6.804688 -21.632812 6.359375 -21.21875 C 5.921875 -20.8125 5.28125 -20.609375 4.4375 -20.609375 Z M 4.4375 -20.609375 "/></g></g></g><g fill="#000000" fill-opacity="1"><g transform="translate(355.703912, 76.730261)"><g><path d="M 4.4375 0.28125 C 3.738281 0.28125 3.203125 0.0859375 2.828125 -0.296875 C 2.460938 -0.679688 2.28125 -1.234375 2.28125 -1.953125 L 2.28125 -22.75 C 2.28125 -23.46875 2.460938 -24.015625 2.828125 -24.390625 C 3.203125 -24.765625 3.738281 -24.953125 4.4375 -24.953125 C 5.144531 -24.953125 5.691406 -24.765625 6.078125 -24.390625 C 6.460938 -24.015625 6.65625 -23.46875 6.65625 -22.75 L 6.65625 -13.6875 L 6.15625 -13.6875 C 6.675781 -14.925781 7.476562 -15.863281 8.5625 -16.5 C 9.644531 -17.144531 10.875 -17.46875 12.25 -17.46875 C 13.625 -17.46875 14.753906 -17.207031 15.640625 -16.6875 C 16.523438 -16.175781 17.191406 -15.398438 17.640625 -14.359375 C 18.085938 -13.328125 18.3125 -12.019531 18.3125 -10.4375 L 18.3125 -1.953125 C 18.3125 -1.234375 18.125 -0.679688 17.75 -0.296875 C 17.375 0.0859375 16.835938 0.28125 16.140625 0.28125 C 15.429688 0.28125 14.882812 0.0859375 14.5 -0.296875 C 14.125 -0.679688 13.9375 -1.234375 13.9375 -1.953125 L 13.9375 -10.21875 C 13.9375 -11.550781 13.679688 -12.519531 13.171875 -13.125 C 12.671875 -13.726562 11.894531 -14.03125 10.84375 -14.03125 C 9.5625 -14.03125 8.539062 -13.628906 7.78125 -12.828125 C 7.03125 -12.023438 6.65625 -10.957031 6.65625 -9.625 L 6.65625 -1.953125 C 6.65625 -0.460938 5.914062 0.28125 4.4375 0.28125 Z M 4.4375 0.28125 "/></g></g></g><g fill="#000000" fill-opacity="1"><g transform="translate(376.174278, 76.730261)"><g/></g></g><g fill="#000000" fill-opacity="1"><g transform="translate(385.657126, 76.730261)"><g><path d="M 8.546875 0.34375 C 7.535156 0.34375 6.46875 0.238281 5.34375 0.03125 C 4.226562 -0.175781 3.226562 -0.535156 2.34375 -1.046875 C 1.96875 -1.285156 1.703125 -1.5625 1.546875 -1.875 C 1.398438 -2.1875 1.34375 -2.5 1.375 -2.8125 C 1.414062 -3.132812 1.535156 -3.410156 1.734375 -3.640625 C 1.929688 -3.867188 2.1875 -4.019531 2.5 -4.09375 C 2.8125 -4.164062 3.15625 -4.109375 3.53125 -3.921875 C 4.46875 -3.472656 5.34375 -3.160156 6.15625 -2.984375 C 6.976562 -2.816406 7.785156 -2.734375 8.578125 -2.734375 C 9.691406 -2.734375 10.523438 -2.925781 11.078125 -3.3125 C 11.628906 -3.695312 11.90625 -4.203125 11.90625 -4.828125 C 11.90625 -5.367188 11.722656 -5.785156 11.359375 -6.078125 C 10.992188 -6.367188 10.453125 -6.582031 9.734375 -6.71875 L 6.234375 -7.390625 C 4.785156 -7.671875 3.679688 -8.203125 2.921875 -8.984375 C 2.160156 -9.765625 1.78125 -10.769531 1.78125 -12 C 1.78125 -13.125 2.085938 -14.09375 2.703125 -14.90625 C 3.328125 -15.726562 4.1875 -16.359375 5.28125 -16.796875 C 6.382812 -17.242188 7.644531 -17.46875 9.0625 -17.46875 C 10.09375 -17.46875 11.054688 -17.351562 11.953125 -17.125 C 12.847656 -16.90625 13.71875 -16.5625 14.5625 -16.09375 C 14.90625 -15.90625 15.140625 -15.660156 15.265625 -15.359375 C 15.398438 -15.054688 15.429688 -14.75 15.359375 -14.4375 C 15.296875 -14.125 15.15625 -13.84375 14.9375 -13.59375 C 14.726562 -13.351562 14.46875 -13.203125 14.15625 -13.140625 C 13.84375 -13.085938 13.488281 -13.148438 13.09375 -13.328125 C 12.363281 -13.703125 11.664062 -13.972656 11 -14.140625 C 10.34375 -14.304688 9.707031 -14.390625 9.09375 -14.390625 C 7.957031 -14.390625 7.113281 -14.1875 6.5625 -13.78125 C 6.007812 -13.382812 5.734375 -12.863281 5.734375 -12.21875 C 5.734375 -11.726562 5.894531 -11.316406 6.21875 -10.984375 C 6.550781 -10.660156 7.054688 -10.441406 7.734375 -10.328125 L 11.234375 -9.65625 C 12.753906 -9.375 13.90625 -8.859375 14.6875 -8.109375 C 15.46875 -7.367188 15.859375 -6.367188 15.859375 -5.109375 C 15.859375 -3.410156 15.191406 -2.078125 13.859375 -1.109375 C 12.523438 -0.140625 10.753906 0.34375 8.546875 0.34375 Z M 8.546875 0.34375 "/></g></g></g><g fill="#000000" fill-opacity="1"><g transform="translate(402.733266, 76.730261)"><g><path d="M 8.46875 0.34375 C 7.039062 0.34375 5.859375 0.0820312 4.921875 -0.4375 C 3.992188 -0.957031 3.300781 -1.742188 2.84375 -2.796875 C 2.394531 -3.847656 2.171875 -5.15625 2.171875 -6.71875 L 2.171875 -15.1875 C 2.171875 -15.9375 2.359375 -16.488281 2.734375 -16.84375 C 3.109375 -17.207031 3.644531 -17.390625 4.34375 -17.390625 C 5.039062 -17.390625 5.582031 -17.207031 5.96875 -16.84375 C 6.351562 -16.488281 6.546875 -15.9375 6.546875 -15.1875 L 6.546875 -6.65625 C 6.546875 -5.4375 6.789062 -4.535156 7.28125 -3.953125 C 7.769531 -3.367188 8.550781 -3.078125 9.625 -3.078125 C 10.789062 -3.078125 11.742188 -3.476562 12.484375 -4.28125 C 13.234375 -5.09375 13.609375 -6.160156 13.609375 -7.484375 L 13.609375 -15.1875 C 13.609375 -15.9375 13.796875 -16.488281 14.171875 -16.84375 C 14.546875 -17.207031 15.082031 -17.390625 15.78125 -17.390625 C 16.476562 -17.390625 17.019531 -17.207031 17.40625 -16.84375 C 17.789062 -16.488281 17.984375 -15.9375 17.984375 -15.1875 L 17.984375 -1.953125 C 17.984375 -0.460938 17.273438 0.28125 15.859375 0.28125 C 15.179688 0.28125 14.65625 0.0859375 14.28125 -0.296875 C 13.90625 -0.679688 13.71875 -1.234375 13.71875 -1.953125 L 13.71875 -4.625 L 14.203125 -3.5625 C 13.710938 -2.3125 12.972656 -1.347656 11.984375 -0.671875 C 10.992188 0.00390625 9.820312 0.34375 8.46875 0.34375 Z M 8.46875 0.34375 "/></g></g></g><g fill="#000000" fill-opacity="1"><g transform="translate(422.993702, 76.730261)"><g><path d="M 4.4375 0.28125 C 3.738281 0.28125 3.203125 0.0859375 2.828125 -0.296875 C 2.460938 -0.679688 2.28125 -1.234375 2.28125 -1.953125 L 2.28125 -22.75 C 2.28125 -23.46875 2.460938 -24.015625 2.828125 -24.390625 C 3.203125 -24.765625 3.738281 -24.953125 4.4375 -24.953125 C 5.144531 -24.953125 5.691406 -24.765625 6.078125 -24.390625 C 6.460938 -24.015625 6.65625 -23.46875 6.65625 -22.75 L 6.65625 -9.828125 L 6.71875 -9.828125 L 12.5 -15.921875 C 12.957031 -16.390625 13.363281 -16.75 13.71875 -17 C 14.070312 -17.257812 14.550781 -17.390625 15.15625 -17.390625 C 15.757812 -17.390625 16.21875 -17.234375 16.53125 -16.921875 C 16.851562 -16.609375 17.015625 -16.226562 17.015625 -15.78125 C 17.015625 -15.34375 16.800781 -14.898438 16.375 -14.453125 L 10.296875 -8.015625 L 10.296875 -9.828125 L 16.96875 -2.625 C 17.394531 -2.175781 17.585938 -1.722656 17.546875 -1.265625 C 17.515625 -0.816406 17.320312 -0.445312 16.96875 -0.15625 C 16.625 0.132812 16.179688 0.28125 15.640625 0.28125 C 14.992188 0.28125 14.476562 0.15625 14.09375 -0.09375 C 13.707031 -0.351562 13.28125 -0.742188 12.8125 -1.265625 L 6.71875 -7.625 L 6.65625 -7.625 L 6.65625 -1.953125 C 6.65625 -0.460938 5.914062 0.28125 4.4375 0.28125 Z M 4.4375 0.28125 "/></g></g></g><g fill="#000000" fill-opacity="1"><g transform="translate(441.574466, 76.730261)"><g><path d="M 7.90625 0.34375 C 6.675781 0.34375 5.578125 0.109375 4.609375 -0.359375 C 3.640625 -0.835938 2.878906 -1.484375 2.328125 -2.296875 C 1.773438 -3.117188 1.5 -4.046875 1.5 -5.078125 C 1.5 -6.335938 1.828125 -7.332031 2.484375 -8.0625 C 3.140625 -8.800781 4.203125 -9.332031 5.671875 -9.65625 C 7.140625 -9.988281 9.109375 -10.15625 11.578125 -10.15625 L 13.328125 -10.15625 L 13.328125 -7.625 L 11.625 -7.625 C 10.175781 -7.625 9.019531 -7.550781 8.15625 -7.40625 C 7.289062 -7.269531 6.675781 -7.03125 6.3125 -6.6875 C 5.957031 -6.351562 5.78125 -5.882812 5.78125 -5.28125 C 5.78125 -4.507812 6.046875 -3.878906 6.578125 -3.390625 C 7.117188 -2.898438 7.863281 -2.65625 8.8125 -2.65625 C 9.582031 -2.65625 10.265625 -2.835938 10.859375 -3.203125 C 11.460938 -3.566406 11.9375 -4.0625 12.28125 -4.6875 C 12.632812 -5.320312 12.8125 -6.046875 12.8125 -6.859375 L 12.8125 -10.890625 C 12.8125 -12.054688 12.550781 -12.894531 12.03125 -13.40625 C 11.519531 -13.914062 10.660156 -14.171875 9.453125 -14.171875 C 8.773438 -14.171875 8.046875 -14.085938 7.265625 -13.921875 C 6.484375 -13.765625 5.660156 -13.488281 4.796875 -13.09375 C 4.347656 -12.882812 3.953125 -12.828125 3.609375 -12.921875 C 3.273438 -13.015625 3.015625 -13.207031 2.828125 -13.5 C 2.648438 -13.789062 2.5625 -14.109375 2.5625 -14.453125 C 2.5625 -14.804688 2.648438 -15.148438 2.828125 -15.484375 C 3.015625 -15.828125 3.332031 -16.078125 3.78125 -16.234375 C 4.851562 -16.679688 5.882812 -17 6.875 -17.1875 C 7.863281 -17.375 8.769531 -17.46875 9.59375 -17.46875 C 11.269531 -17.46875 12.648438 -17.207031 13.734375 -16.6875 C 14.816406 -16.175781 15.625 -15.398438 16.15625 -14.359375 C 16.695312 -13.328125 16.96875 -11.992188 16.96875 -10.359375 L 16.96875 -1.953125 C 16.96875 -1.234375 16.789062 -0.679688 16.4375 -0.296875 C 16.09375 0.0859375 15.59375 0.28125 14.9375 0.28125 C 14.289062 0.28125 13.785156 0.0859375 13.421875 -0.296875 C 13.054688 -0.679688 12.875 -1.234375 12.875 -1.953125 L 12.875 -3.640625 L 13.15625 -3.640625 C 13 -2.828125 12.679688 -2.117188 12.203125 -1.515625 C 11.722656 -0.921875 11.117188 -0.460938 10.390625 -0.140625 C 9.671875 0.179688 8.84375 0.34375 7.90625 0.34375 Z M 7.90625 0.34375 "/></g></g></g><g fill="#000000" fill-opacity="1"><g transform="translate(460.715166, 76.730261)"><g/></g></g><g fill="#000000" fill-opacity="1"><g transform="translate(470.198014, 76.730261)"><g><path d="M 12.140625 0.34375 C 10.691406 0.34375 9.425781 -0.015625 8.34375 -0.734375 C 7.257812 -1.453125 6.539062 -2.421875 6.1875 -3.640625 L 6.578125 -4.515625 L 6.578125 -1.953125 C 6.578125 -1.234375 6.390625 -0.679688 6.015625 -0.296875 C 5.640625 0.0859375 5.113281 0.28125 4.4375 0.28125 C 3.738281 0.28125 3.203125 0.0859375 2.828125 -0.296875 C 2.460938 -0.679688 2.28125 -1.234375 2.28125 -1.953125 L 2.28125 -22.75 C 2.28125 -23.46875 2.460938 -24.015625 2.828125 -24.390625 C 3.203125 -24.765625 3.738281 -24.953125 4.4375 -24.953125 C 5.144531 -24.953125 5.691406 -24.765625 6.078125 -24.390625 C 6.460938 -24.015625 6.65625 -23.46875 6.65625 -22.75 L 6.65625 -13.65625 L 6.234375 -13.65625 C 6.609375 -14.789062 7.332031 -15.707031 8.40625 -16.40625 C 9.476562 -17.113281 10.722656 -17.46875 12.140625 -17.46875 C 13.660156 -17.46875 14.976562 -17.101562 16.09375 -16.375 C 17.21875 -15.65625 18.09375 -14.632812 18.71875 -13.3125 C 19.351562 -12 19.671875 -10.421875 19.671875 -8.578125 C 19.671875 -6.753906 19.351562 -5.171875 18.71875 -3.828125 C 18.09375 -2.484375 17.210938 -1.453125 16.078125 -0.734375 C 14.953125 -0.015625 13.640625 0.34375 12.140625 0.34375 Z M 10.921875 -2.96875 C 11.785156 -2.96875 12.539062 -3.175781 13.1875 -3.59375 C 13.84375 -4.019531 14.351562 -4.644531 14.71875 -5.46875 C 15.082031 -6.300781 15.265625 -7.335938 15.265625 -8.578125 C 15.265625 -10.441406 14.863281 -11.832031 14.0625 -12.75 C 13.269531 -13.675781 12.222656 -14.140625 10.921875 -14.140625 C 10.054688 -14.140625 9.296875 -13.9375 8.640625 -13.53125 C 7.992188 -13.125 7.488281 -12.503906 7.125 -11.671875 C 6.757812 -10.847656 6.578125 -9.816406 6.578125 -8.578125 C 6.578125 -6.734375 6.972656 -5.335938 7.765625 -4.390625 C 8.554688 -3.441406 9.609375 -2.96875 10.921875 -2.96875 Z M 10.921875 -2.96875 "/></g></g></g><g fill="#000000" fill-opacity="1"><g transform="translate(491.193298, 76.730261)"><g><path d="M 8.46875 0.34375 C 7.039062 0.34375 5.859375 0.0820312 4.921875 -0.4375 C 3.992188 -0.957031 3.300781 -1.742188 2.84375 -2.796875 C 2.394531 -3.847656 2.171875 -5.15625 2.171875 -6.71875 L 2.171875 -15.1875 C 2.171875 -15.9375 2.359375 -16.488281 2.734375 -16.84375 C 3.109375 -17.207031 3.644531 -17.390625 4.34375 -17.390625 C 5.039062 -17.390625 5.582031 -17.207031 5.96875 -16.84375 C 6.351562 -16.488281 6.546875 -15.9375 6.546875 -15.1875 L 6.546875 -6.65625 C 6.546875 -5.4375 6.789062 -4.535156 7.28125 -3.953125 C 7.769531 -3.367188 8.550781 -3.078125 9.625 -3.078125 C 10.789062 -3.078125 11.742188 -3.476562 12.484375 -4.28125 C 13.234375 -5.09375 13.609375 -6.160156 13.609375 -7.484375 L 13.609375 -15.1875 C 13.609375 -15.9375 13.796875 -16.488281 14.171875 -16.84375 C 14.546875 -17.207031 15.082031 -17.390625 15.78125 -17.390625 C 16.476562 -17.390625 17.019531 -17.207031 17.40625 -16.84375 C 17.789062 -16.488281 17.984375 -15.9375 17.984375 -15.1875 L 17.984375 -1.953125 C 17.984375 -0.460938 17.273438 0.28125 15.859375 0.28125 C 15.179688 0.28125 14.65625 0.0859375 14.28125 -0.296875 C 13.90625 -0.679688 13.71875 -1.234375 13.71875 -1.953125 L 13.71875 -4.625 L 14.203125 -3.5625 C 13.710938 -2.3125 12.972656 -1.347656 11.984375 -0.671875 C 10.992188 0.00390625 9.820312 0.34375 8.46875 0.34375 Z M 8.46875 0.34375 "/></g></g></g><g fill="#000000" fill-opacity="1"><g transform="translate(511.453734, 76.730261)"><g><path d="M 4.515625 0.28125 C 3.796875 0.28125 3.242188 0.0859375 2.859375 -0.296875 C 2.472656 -0.679688 2.28125 -1.234375 2.28125 -1.953125 L 2.28125 -15.1875 C 2.28125 -15.914062 2.460938 -16.460938 2.828125 -16.828125 C 3.203125 -17.203125 3.726562 -17.390625 4.40625 -17.390625 C 5.082031 -17.390625 5.609375 -17.203125 5.984375 -16.828125 C 6.359375 -16.460938 6.546875 -15.914062 6.546875 -15.1875 L 6.546875 -12.984375 L 6.1875 -12.984375 C 6.519531 -14.378906 7.164062 -15.4375 8.125 -16.15625 C 9.082031 -16.882812 10.351562 -17.320312 11.9375 -17.46875 C 12.425781 -17.507812 12.816406 -17.382812 13.109375 -17.09375 C 13.398438 -16.800781 13.566406 -16.351562 13.609375 -15.75 C 13.660156 -15.164062 13.523438 -14.691406 13.203125 -14.328125 C 12.890625 -13.972656 12.421875 -13.757812 11.796875 -13.6875 L 11.03125 -13.609375 C 9.601562 -13.472656 8.523438 -13.035156 7.796875 -12.296875 C 7.078125 -11.566406 6.71875 -10.535156 6.71875 -9.203125 L 6.71875 -1.953125 C 6.71875 -1.234375 6.53125 -0.679688 6.15625 -0.296875 C 5.78125 0.0859375 5.234375 0.28125 4.515625 0.28125 Z M 4.515625 0.28125 "/></g></g></g><g fill="#000000" fill-opacity="1"><g transform="translate(525.170622, 76.730261)"><g><path d="M 8.46875 0.34375 C 7.039062 0.34375 5.859375 0.0820312 4.921875 -0.4375 C 3.992188 -0.957031 3.300781 -1.742188 2.84375 -2.796875 C 2.394531 -3.847656 2.171875 -5.15625 2.171875 -6.71875 L 2.171875 -15.1875 C 2.171875 -15.9375 2.359375 -16.488281 2.734375 -16.84375 C 3.109375 -17.207031 3.644531 -17.390625 4.34375 -17.390625 C 5.039062 -17.390625 5.582031 -17.207031 5.96875 -16.84375 C 6.351562 -16.488281 6.546875 -15.9375 6.546875 -15.1875 L 6.546875 -6.65625 C 6.546875 -5.4375 6.789062 -4.535156 7.28125 -3.953125 C 7.769531 -3.367188 8.550781 -3.078125 9.625 -3.078125 C 10.789062 -3.078125 11.742188 -3.476562 12.484375 -4.28125 C 13.234375 -5.09375 13.609375 -6.160156 13.609375 -7.484375 L 13.609375 -15.1875 C 13.609375 -15.9375 13.796875 -16.488281 14.171875 -16.84375 C 14.546875 -17.207031 15.082031 -17.390625 15.78125 -17.390625 C 16.476562 -17.390625 17.019531 -17.207031 17.40625 -16.84375 C 17.789062 -16.488281 17.984375 -15.9375 17.984375 -15.1875 L 17.984375 -1.953125 C 17.984375 -0.460938 17.273438 0.28125 15.859375 0.28125 C 15.179688 0.28125 14.65625 0.0859375 14.28125 -0.296875 C 13.90625 -0.679688 13.71875 -1.234375 13.71875 -1.953125 L 13.71875 -4.625 L 14.203125 -3.5625 C 13.710938 -2.3125 12.972656 -1.347656 11.984375 -0.671875 C 10.992188 0.00390625 9.820312 0.34375 8.46875 0.34375 Z M 8.46875 0.34375 "/></g></g></g><g fill="#000000" fill-opacity="1"><g transform="translate(545.431057, 76.730261)"><g><path d="M 4.4375 0.28125 C 3.738281 0.28125 3.203125 0.0859375 2.828125 -0.296875 C 2.460938 -0.679688 2.28125 -1.234375 2.28125 -1.953125 L 2.28125 -15.1875 C 2.28125 -15.914062 2.460938 -16.460938 2.828125 -16.828125 C 3.203125 -17.203125 3.726562 -17.390625 4.40625 -17.390625 C 5.082031 -17.390625 5.609375 -17.203125 5.984375 -16.828125 C 6.359375 -16.460938 6.546875 -15.914062 6.546875 -15.1875 L 6.546875 -12.8125 L 6.15625 -13.6875 C 6.675781 -14.925781 7.476562 -15.863281 8.5625 -16.5 C 9.644531 -17.144531 10.875 -17.46875 12.25 -17.46875 C 13.625 -17.46875 14.753906 -17.207031 15.640625 -16.6875 C 16.523438 -16.175781 17.191406 -15.398438 17.640625 -14.359375 C 18.085938 -13.328125 18.3125 -12.019531 18.3125 -10.4375 L 18.3125 -1.953125 C 18.3125 -1.234375 18.125 -0.679688 17.75 -0.296875 C 17.375 0.0859375 16.835938 0.28125 16.140625 0.28125 C 15.429688 0.28125 14.882812 0.0859375 14.5 -0.296875 C 14.125 -0.679688 13.9375 -1.234375 13.9375 -1.953125 L 13.9375 -10.21875 C 13.9375 -11.550781 13.679688 -12.519531 13.171875 -13.125 C 12.671875 -13.726562 11.894531 -14.03125 10.84375 -14.03125 C 9.5625 -14.03125 8.539062 -13.628906 7.78125 -12.828125 C 7.03125 -12.023438 6.65625 -10.957031 6.65625 -9.625 L 6.65625 -1.953125 C 6.65625 -0.460938 5.914062 0.28125 4.4375 0.28125 Z M 4.4375 0.28125 "/></g></g></g><g fill="#000000" fill-opacity="1"><g transform="translate(565.901424, 76.730261)"><g><path d="M 10.25 6.65625 C 8.988281 6.65625 7.769531 6.535156 6.59375 6.296875 C 5.414062 6.066406 4.347656 5.707031 3.390625 5.21875 C 2.953125 4.976562 2.65625 4.695312 2.5 4.375 C 2.351562 4.050781 2.304688 3.71875 2.359375 3.375 C 2.421875 3.039062 2.5625 2.742188 2.78125 2.484375 C 3 2.222656 3.269531 2.046875 3.59375 1.953125 C 3.925781 1.859375 4.269531 1.90625 4.625 2.09375 C 5.644531 2.613281 6.613281 2.945312 7.53125 3.09375 C 8.457031 3.25 9.25 3.328125 9.90625 3.328125 C 11.46875 3.328125 12.640625 2.945312 13.421875 2.1875 C 14.203125 1.425781 14.59375 0.300781 14.59375 -1.1875 L 14.59375 -4.34375 L 14.90625 -4.34375 C 14.5625 -3.15625 13.832031 -2.203125 12.71875 -1.484375 C 11.613281 -0.773438 10.359375 -0.421875 8.953125 -0.421875 C 7.421875 -0.421875 6.082031 -0.773438 4.9375 -1.484375 C 3.789062 -2.203125 2.898438 -3.203125 2.265625 -4.484375 C 1.640625 -5.765625 1.328125 -7.253906 1.328125 -8.953125 C 1.328125 -10.242188 1.507812 -11.40625 1.875 -12.4375 C 2.238281 -13.476562 2.75 -14.367188 3.40625 -15.109375 C 4.070312 -15.859375 4.878906 -16.4375 5.828125 -16.84375 C 6.773438 -17.257812 7.816406 -17.46875 8.953125 -17.46875 C 10.398438 -17.46875 11.664062 -17.109375 12.75 -16.390625 C 13.84375 -15.679688 14.550781 -14.742188 14.875 -13.578125 L 14.53125 -12.703125 L 14.53125 -15.1875 C 14.53125 -15.914062 14.722656 -16.460938 15.109375 -16.828125 C 15.492188 -17.203125 16.019531 -17.390625 16.6875 -17.390625 C 17.394531 -17.390625 17.929688 -17.203125 18.296875 -16.828125 C 18.671875 -16.460938 18.859375 -15.914062 18.859375 -15.1875 L 18.859375 -1.71875 C 18.859375 1.0625 18.125 3.148438 16.65625 4.546875 C 15.1875 5.953125 13.050781 6.65625 10.25 6.65625 Z M 10.15625 -3.75 C 11.0625 -3.75 11.835938 -3.957031 12.484375 -4.375 C 13.140625 -4.789062 13.648438 -5.390625 14.015625 -6.171875 C 14.378906 -6.953125 14.5625 -7.878906 14.5625 -8.953125 C 14.5625 -10.566406 14.164062 -11.832031 13.375 -12.75 C 12.582031 -13.675781 11.507812 -14.140625 10.15625 -14.140625 C 9.238281 -14.140625 8.453125 -13.925781 7.796875 -13.5 C 7.148438 -13.082031 6.644531 -12.488281 6.28125 -11.71875 C 5.914062 -10.945312 5.734375 -10.023438 5.734375 -8.953125 C 5.734375 -7.347656 6.128906 -6.078125 6.921875 -5.140625 C 7.722656 -4.210938 8.800781 -3.75 10.15625 -3.75 Z M 10.15625 -3.75 "/></g></g></g><g fill="#000000" fill-opacity="1"><g transform="translate(187.71404, 125.480258)"><g><path d="M 8.859375 0.34375 C 7.359375 0.34375 6.039062 -0.015625 4.90625 -0.734375 C 3.78125 -1.453125 2.898438 -2.484375 2.265625 -3.828125 C 1.640625 -5.171875 1.328125 -6.753906 1.328125 -8.578125 C 1.328125 -10.421875 1.640625 -12 2.265625 -13.3125 C 2.898438 -14.632812 3.78125 -15.65625 4.90625 -16.375 C 6.039062 -17.101562 7.359375 -17.46875 8.859375 -17.46875 C 10.273438 -17.46875 11.515625 -17.113281 12.578125 -16.40625 C 13.640625 -15.707031 14.359375 -14.789062 14.734375 -13.65625 L 14.34375 -13.65625 L 14.34375 -22.75 C 14.34375 -23.46875 14.53125 -24.015625 14.90625 -24.390625 C 15.28125 -24.765625 15.816406 -24.953125 16.515625 -24.953125 C 17.210938 -24.953125 17.753906 -24.765625 18.140625 -24.390625 C 18.523438 -24.015625 18.71875 -23.46875 18.71875 -22.75 L 18.71875 -1.953125 C 18.71875 -1.234375 18.53125 -0.679688 18.15625 -0.296875 C 17.789062 0.0859375 17.257812 0.28125 16.5625 0.28125 C 15.851562 0.28125 15.3125 0.0859375 14.9375 -0.296875 C 14.570312 -0.679688 14.390625 -1.234375 14.390625 -1.953125 L 14.390625 -4.6875 L 14.765625 -3.640625 C 14.421875 -2.421875 13.710938 -1.453125 12.640625 -0.734375 C 11.566406 -0.015625 10.304688 0.34375 8.859375 0.34375 Z M 10.078125 -2.96875 C 10.941406 -2.96875 11.695312 -3.175781 12.34375 -3.59375 C 13 -4.019531 13.507812 -4.644531 13.875 -5.46875 C 14.238281 -6.300781 14.421875 -7.335938 14.421875 -8.578125 C 14.421875 -10.441406 14.023438 -11.832031 13.234375 -12.75 C 12.441406 -13.675781 11.390625 -14.140625 10.078125 -14.140625 C 9.210938 -14.140625 8.453125 -13.9375 7.796875 -13.53125 C 7.148438 -13.125 6.644531 -12.503906 6.28125 -11.671875 C 5.914062 -10.847656 5.734375 -9.816406 5.734375 -8.578125 C 5.734375 -6.734375 6.128906 -5.335938 6.921875 -4.390625 C 7.722656 -3.441406 8.773438 -2.96875 10.078125 -2.96875 Z M 10.078125 -2.96875 "/></g></g></g><g fill="#000000" fill-opacity="1"><g transform="translate(208.709301, 125.480258)"><g><path d="M 7.90625 0.34375 C 6.675781 0.34375 5.578125 0.109375 4.609375 -0.359375 C 3.640625 -0.835938 2.878906 -1.484375 2.328125 -2.296875 C 1.773438 -3.117188 1.5 -4.046875 1.5 -5.078125 C 1.5 -6.335938 1.828125 -7.332031 2.484375 -8.0625 C 3.140625 -8.800781 4.203125 -9.332031 5.671875 -9.65625 C 7.140625 -9.988281 9.109375 -10.15625 11.578125 -10.15625 L 13.328125 -10.15625 L 13.328125 -7.625 L 11.625 -7.625 C 10.175781 -7.625 9.019531 -7.550781 8.15625 -7.40625 C 7.289062 -7.269531 6.675781 -7.03125 6.3125 -6.6875 C 5.957031 -6.351562 5.78125 -5.882812 5.78125 -5.28125 C 5.78125 -4.507812 6.046875 -3.878906 6.578125 -3.390625 C 7.117188 -2.898438 7.863281 -2.65625 8.8125 -2.65625 C 9.582031 -2.65625 10.265625 -2.835938 10.859375 -3.203125 C 11.460938 -3.566406 11.9375 -4.0625 12.28125 -4.6875 C 12.632812 -5.320312 12.8125 -6.046875 12.8125 -6.859375 L 12.8125 -10.890625 C 12.8125 -12.054688 12.550781 -12.894531 12.03125 -13.40625 C 11.519531 -13.914062 10.660156 -14.171875 9.453125 -14.171875 C 8.773438 -14.171875 8.046875 -14.085938 7.265625 -13.921875 C 6.484375 -13.765625 5.660156 -13.488281 4.796875 -13.09375 C 4.347656 -12.882812 3.953125 -12.828125 3.609375 -12.921875 C 3.273438 -13.015625 3.015625 -13.207031 2.828125 -13.5 C 2.648438 -13.789062 2.5625 -14.109375 2.5625 -14.453125 C 2.5625 -14.804688 2.648438 -15.148438 2.828125 -15.484375 C 3.015625 -15.828125 3.332031 -16.078125 3.78125 -16.234375 C 4.851562 -16.679688 5.882812 -17 6.875 -17.1875 C 7.863281 -17.375 8.769531 -17.46875 9.59375 -17.46875 C 11.269531 -17.46875 12.648438 -17.207031 13.734375 -16.6875 C 14.816406 -16.175781 15.625 -15.398438 16.15625 -14.359375 C 16.695312 -13.328125 16.96875 -11.992188 16.96875 -10.359375 L 16.96875 -1.953125 C 16.96875 -1.234375 16.789062 -0.679688 16.4375 -0.296875 C 16.09375 0.0859375 15.59375 0.28125 14.9375 0.28125 C 14.289062 0.28125 13.785156 0.0859375 13.421875 -0.296875 C 13.054688 -0.679688 12.875 -1.234375 12.875 -1.953125 L 12.875 -3.640625 L 13.15625 -3.640625 C 13 -2.828125 12.679688 -2.117188 12.203125 -1.515625 C 11.722656 -0.921875 11.117188 -0.460938 10.390625 -0.140625 C 9.671875 0.179688 8.84375 0.34375 7.90625 0.34375 Z M 7.90625 0.34375 "/></g></g></g><g fill="#000000" fill-opacity="1"><g transform="translate(227.849979, 125.480258)"><g><path d="M 4.515625 0.28125 C 3.796875 0.28125 3.242188 0.0859375 2.859375 -0.296875 C 2.472656 -0.679688 2.28125 -1.234375 2.28125 -1.953125 L 2.28125 -15.1875 C 2.28125 -15.914062 2.460938 -16.460938 2.828125 -16.828125 C 3.203125 -17.203125 3.726562 -17.390625 4.40625 -17.390625 C 5.082031 -17.390625 5.609375 -17.203125 5.984375 -16.828125 C 6.359375 -16.460938 6.546875 -15.914062 6.546875 -15.1875 L 6.546875 -12.984375 L 6.1875 -12.984375 C 6.519531 -14.378906 7.164062 -15.4375 8.125 -16.15625 C 9.082031 -16.882812 10.351562 -17.320312 11.9375 -17.46875 C 12.425781 -17.507812 12.816406 -17.382812 13.109375 -17.09375 C 13.398438 -16.800781 13.566406 -16.351562 13.609375 -15.75 C 13.660156 -15.164062 13.523438 -14.691406 13.203125 -14.328125 C 12.890625 -13.972656 12.421875 -13.757812 11.796875 -13.6875 L 11.03125 -13.609375 C 9.601562 -13.472656 8.523438 -13.035156 7.796875 -12.296875 C 7.078125 -11.566406 6.71875 -10.535156 6.71875 -9.203125 L 6.71875 -1.953125 C 6.71875 -1.234375 6.53125 -0.679688 6.15625 -0.296875 C 5.78125 0.0859375 5.234375 0.28125 4.515625 0.28125 Z M 4.515625 0.28125 "/></g></g></g><g fill="#000000" fill-opacity="1"><g transform="translate(241.566878, 125.480258)"><g><path d="M 4.4375 0.25 C 3.738281 0.25 3.203125 0.0390625 2.828125 -0.375 C 2.460938 -0.800781 2.28125 -1.390625 2.28125 -2.140625 L 2.28125 -14.984375 C 2.28125 -15.753906 2.460938 -16.34375 2.828125 -16.75 C 3.203125 -17.15625 3.738281 -17.359375 4.4375 -17.359375 C 5.144531 -17.359375 5.691406 -17.15625 6.078125 -16.75 C 6.460938 -16.34375 6.65625 -15.753906 6.65625 -14.984375 L 6.65625 -2.140625 C 6.65625 -1.390625 6.46875 -0.800781 6.09375 -0.375 C 5.71875 0.0390625 5.164062 0.25 4.4375 0.25 Z M 4.4375 -20.609375 C 3.625 -20.609375 2.988281 -20.8125 2.53125 -21.21875 C 2.082031 -21.632812 1.859375 -22.203125 1.859375 -22.921875 C 1.859375 -23.671875 2.082031 -24.242188 2.53125 -24.640625 C 2.988281 -25.035156 3.625 -25.234375 4.4375 -25.234375 C 5.28125 -25.234375 5.921875 -25.035156 6.359375 -24.640625 C 6.804688 -24.242188 7.03125 -23.671875 7.03125 -22.921875 C 7.03125 -22.203125 6.804688 -21.632812 6.359375 -21.21875 C 5.921875 -20.8125 5.28125 -20.609375 4.4375 -20.609375 Z M 4.4375 -20.609375 "/></g></g></g><g fill="#000000" fill-opacity="1"><g transform="translate(250.489859, 125.480258)"><g><path d="M 4.4375 6.578125 C 3.738281 6.578125 3.203125 6.390625 2.828125 6.015625 C 2.460938 5.640625 2.28125 5.09375 2.28125 4.375 L 2.28125 -15.1875 C 2.28125 -15.914062 2.460938 -16.460938 2.828125 -16.828125 C 3.203125 -17.203125 3.726562 -17.390625 4.40625 -17.390625 C 5.101562 -17.390625 5.640625 -17.203125 6.015625 -16.828125 C 6.390625 -16.460938 6.578125 -15.914062 6.578125 -15.1875 L 6.578125 -12.453125 L 6.1875 -13.515625 C 6.539062 -14.703125 7.257812 -15.65625 8.34375 -16.375 C 9.425781 -17.101562 10.691406 -17.46875 12.140625 -17.46875 C 13.640625 -17.46875 14.953125 -17.101562 16.078125 -16.375 C 17.210938 -15.65625 18.09375 -14.632812 18.71875 -13.3125 C 19.351562 -12 19.671875 -10.421875 19.671875 -8.578125 C 19.671875 -6.753906 19.351562 -5.171875 18.71875 -3.828125 C 18.09375 -2.484375 17.21875 -1.453125 16.09375 -0.734375 C 14.976562 -0.015625 13.660156 0.34375 12.140625 0.34375 C 10.722656 0.34375 9.476562 -0.0078125 8.40625 -0.71875 C 7.332031 -1.425781 6.609375 -2.351562 6.234375 -3.5 L 6.65625 -3.5 L 6.65625 4.375 C 6.65625 5.09375 6.460938 5.640625 6.078125 6.015625 C 5.691406 6.390625 5.144531 6.578125 4.4375 6.578125 Z M 10.921875 -2.96875 C 11.785156 -2.96875 12.539062 -3.175781 13.1875 -3.59375 C 13.84375 -4.019531 14.351562 -4.644531 14.71875 -5.46875 C 15.082031 -6.300781 15.265625 -7.335938 15.265625 -8.578125 C 15.265625 -10.441406 14.863281 -11.832031 14.0625 -12.75 C 13.269531 -13.675781 12.222656 -14.140625 10.921875 -14.140625 C 10.054688 -14.140625 9.296875 -13.9375 8.640625 -13.53125 C 7.992188 -13.125 7.488281 -12.503906 7.125 -11.671875 C 6.757812 -10.847656 6.578125 -9.816406 6.578125 -8.578125 C 6.578125 -6.734375 6.972656 -5.335938 7.765625 -4.390625 C 8.554688 -3.441406 9.609375 -2.96875 10.921875 -2.96875 Z M 10.921875 -2.96875 "/></g></g></g><g fill="#000000" fill-opacity="1"><g transform="translate(271.48512, 125.480258)"><g><path d="M 7.90625 0.34375 C 6.675781 0.34375 5.578125 0.109375 4.609375 -0.359375 C 3.640625 -0.835938 2.878906 -1.484375 2.328125 -2.296875 C 1.773438 -3.117188 1.5 -4.046875 1.5 -5.078125 C 1.5 -6.335938 1.828125 -7.332031 2.484375 -8.0625 C 3.140625 -8.800781 4.203125 -9.332031 5.671875 -9.65625 C 7.140625 -9.988281 9.109375 -10.15625 11.578125 -10.15625 L 13.328125 -10.15625 L 13.328125 -7.625 L 11.625 -7.625 C 10.175781 -7.625 9.019531 -7.550781 8.15625 -7.40625 C 7.289062 -7.269531 6.675781 -7.03125 6.3125 -6.6875 C 5.957031 -6.351562 5.78125 -5.882812 5.78125 -5.28125 C 5.78125 -4.507812 6.046875 -3.878906 6.578125 -3.390625 C 7.117188 -2.898438 7.863281 -2.65625 8.8125 -2.65625 C 9.582031 -2.65625 10.265625 -2.835938 10.859375 -3.203125 C 11.460938 -3.566406 11.9375 -4.0625 12.28125 -4.6875 C 12.632812 -5.320312 12.8125 -6.046875 12.8125 -6.859375 L 12.8125 -10.890625 C 12.8125 -12.054688 12.550781 -12.894531 12.03125 -13.40625 C 11.519531 -13.914062 10.660156 -14.171875 9.453125 -14.171875 C 8.773438 -14.171875 8.046875 -14.085938 7.265625 -13.921875 C 6.484375 -13.765625 5.660156 -13.488281 4.796875 -13.09375 C 4.347656 -12.882812 3.953125 -12.828125 3.609375 -12.921875 C 3.273438 -13.015625 3.015625 -13.207031 2.828125 -13.5 C 2.648438 -13.789062 2.5625 -14.109375 2.5625 -14.453125 C 2.5625 -14.804688 2.648438 -15.148438 2.828125 -15.484375 C 3.015625 -15.828125 3.332031 -16.078125 3.78125 -16.234375 C 4.851562 -16.679688 5.882812 -17 6.875 -17.1875 C 7.863281 -17.375 8.769531 -17.46875 9.59375 -17.46875 C 11.269531 -17.46875 12.648438 -17.207031 13.734375 -16.6875 C 14.816406 -16.175781 15.625 -15.398438 16.15625 -14.359375 C 16.695312 -13.328125 16.96875 -11.992188 16.96875 -10.359375 L 16.96875 -1.953125 C 16.96875 -1.234375 16.789062 -0.679688 16.4375 -0.296875 C 16.09375 0.0859375 15.59375 0.28125 14.9375 0.28125 C 14.289062 0.28125 13.785156 0.0859375 13.421875 -0.296875 C 13.054688 -0.679688 12.875 -1.234375 12.875 -1.953125 L 12.875 -3.640625 L 13.15625 -3.640625 C 13 -2.828125 12.679688 -2.117188 12.203125 -1.515625 C 11.722656 -0.921875 11.117188 -0.460938 10.390625 -0.140625 C 9.671875 0.179688 8.84375 0.34375 7.90625 0.34375 Z M 7.90625 0.34375 "/></g></g></g><g fill="#000000" fill-opacity="1"><g transform="translate(290.625797, 125.480258)"><g><path d="M 8.859375 0.34375 C 7.359375 0.34375 6.039062 -0.015625 4.90625 -0.734375 C 3.78125 -1.453125 2.898438 -2.484375 2.265625 -3.828125 C 1.640625 -5.171875 1.328125 -6.753906 1.328125 -8.578125 C 1.328125 -10.421875 1.640625 -12 2.265625 -13.3125 C 2.898438 -14.632812 3.78125 -15.65625 4.90625 -16.375 C 6.039062 -17.101562 7.359375 -17.46875 8.859375 -17.46875 C 10.273438 -17.46875 11.515625 -17.113281 12.578125 -16.40625 C 13.640625 -15.707031 14.359375 -14.789062 14.734375 -13.65625 L 14.34375 -13.65625 L 14.34375 -22.75 C 14.34375 -23.46875 14.53125 -24.015625 14.90625 -24.390625 C 15.28125 -24.765625 15.816406 -24.953125 16.515625 -24.953125 C 17.210938 -24.953125 17.753906 -24.765625 18.140625 -24.390625 C 18.523438 -24.015625 18.71875 -23.46875 18.71875 -22.75 L 18.71875 -1.953125 C 18.71875 -1.234375 18.53125 -0.679688 18.15625 -0.296875 C 17.789062 0.0859375 17.257812 0.28125 16.5625 0.28125 C 15.851562 0.28125 15.3125 0.0859375 14.9375 -0.296875 C 14.570312 -0.679688 14.390625 -1.234375 14.390625 -1.953125 L 14.390625 -4.6875 L 14.765625 -3.640625 C 14.421875 -2.421875 13.710938 -1.453125 12.640625 -0.734375 C 11.566406 -0.015625 10.304688 0.34375 8.859375 0.34375 Z M 10.078125 -2.96875 C 10.941406 -2.96875 11.695312 -3.175781 12.34375 -3.59375 C 13 -4.019531 13.507812 -4.644531 13.875 -5.46875 C 14.238281 -6.300781 14.421875 -7.335938 14.421875 -8.578125 C 14.421875 -10.441406 14.023438 -11.832031 13.234375 -12.75 C 12.441406 -13.675781 11.390625 -14.140625 10.078125 -14.140625 C 9.210938 -14.140625 8.453125 -13.9375 7.796875 -13.53125 C 7.148438 -13.125 6.644531 -12.503906 6.28125 -11.671875 C 5.914062 -10.847656 5.734375 -9.816406 5.734375 -8.578125 C 5.734375 -6.734375 6.128906 -5.335938 6.921875 -4.390625 C 7.722656 -3.441406 8.773438 -2.96875 10.078125 -2.96875 Z M 10.078125 -2.96875 "/></g></g></g><g fill="#000000" fill-opacity="1"><g transform="translate(311.621058, 125.480258)"><g><path d="M 7.90625 0.34375 C 6.675781 0.34375 5.578125 0.109375 4.609375 -0.359375 C 3.640625 -0.835938 2.878906 -1.484375 2.328125 -2.296875 C 1.773438 -3.117188 1.5 -4.046875 1.5 -5.078125 C 1.5 -6.335938 1.828125 -7.332031 2.484375 -8.0625 C 3.140625 -8.800781 4.203125 -9.332031 5.671875 -9.65625 C 7.140625 -9.988281 9.109375 -10.15625 11.578125 -10.15625 L 13.328125 -10.15625 L 13.328125 -7.625 L 11.625 -7.625 C 10.175781 -7.625 9.019531 -7.550781 8.15625 -7.40625 C 7.289062 -7.269531 6.675781 -7.03125 6.3125 -6.6875 C 5.957031 -6.351562 5.78125 -5.882812 5.78125 -5.28125 C 5.78125 -4.507812 6.046875 -3.878906 6.578125 -3.390625 C 7.117188 -2.898438 7.863281 -2.65625 8.8125 -2.65625 C 9.582031 -2.65625 10.265625 -2.835938 10.859375 -3.203125 C 11.460938 -3.566406 11.9375 -4.0625 12.28125 -4.6875 C 12.632812 -5.320312 12.8125 -6.046875 12.8125 -6.859375 L 12.8125 -10.890625 C 12.8125 -12.054688 12.550781 -12.894531 12.03125 -13.40625 C 11.519531 -13.914062 10.660156 -14.171875 9.453125 -14.171875 C 8.773438 -14.171875 8.046875 -14.085938 7.265625 -13.921875 C 6.484375 -13.765625 5.660156 -13.488281 4.796875 -13.09375 C 4.347656 -12.882812 3.953125 -12.828125 3.609375 -12.921875 C 3.273438 -13.015625 3.015625 -13.207031 2.828125 -13.5 C 2.648438 -13.789062 2.5625 -14.109375 2.5625 -14.453125 C 2.5625 -14.804688 2.648438 -15.148438 2.828125 -15.484375 C 3.015625 -15.828125 3.332031 -16.078125 3.78125 -16.234375 C 4.851562 -16.679688 5.882812 -17 6.875 -17.1875 C 7.863281 -17.375 8.769531 -17.46875 9.59375 -17.46875 C 11.269531 -17.46875 12.648438 -17.207031 13.734375 -16.6875 C 14.816406 -16.175781 15.625 -15.398438 16.15625 -14.359375 C 16.695312 -13.328125 16.96875 -11.992188 16.96875 -10.359375 L 16.96875 -1.953125 C 16.96875 -1.234375 16.789062 -0.679688 16.4375 -0.296875 C 16.09375 0.0859375 15.59375 0.28125 14.9375 0.28125 C 14.289062 0.28125 13.785156 0.0859375 13.421875 -0.296875 C 13.054688 -0.679688 12.875 -1.234375 12.875 -1.953125 L 12.875 -3.640625 L 13.15625 -3.640625 C 13 -2.828125 12.679688 -2.117188 12.203125 -1.515625 C 11.722656 -0.921875 11.117188 -0.460938 10.390625 -0.140625 C 9.671875 0.179688 8.84375 0.34375 7.90625 0.34375 Z M 7.90625 0.34375 "/></g></g></g><g fill="#000000" fill-opacity="1"><g transform="translate(330.761736, 125.480258)"><g/></g></g><g fill="#000000" fill-opacity="1"><g transform="translate(340.244596, 125.480258)"><g><path d="M 7.90625 0.34375 C 6.675781 0.34375 5.578125 0.109375 4.609375 -0.359375 C 3.640625 -0.835938 2.878906 -1.484375 2.328125 -2.296875 C 1.773438 -3.117188 1.5 -4.046875 1.5 -5.078125 C 1.5 -6.335938 1.828125 -7.332031 2.484375 -8.0625 C 3.140625 -8.800781 4.203125 -9.332031 5.671875 -9.65625 C 7.140625 -9.988281 9.109375 -10.15625 11.578125 -10.15625 L 13.328125 -10.15625 L 13.328125 -7.625 L 11.625 -7.625 C 10.175781 -7.625 9.019531 -7.550781 8.15625 -7.40625 C 7.289062 -7.269531 6.675781 -7.03125 6.3125 -6.6875 C 5.957031 -6.351562 5.78125 -5.882812 5.78125 -5.28125 C 5.78125 -4.507812 6.046875 -3.878906 6.578125 -3.390625 C 7.117188 -2.898438 7.863281 -2.65625 8.8125 -2.65625 C 9.582031 -2.65625 10.265625 -2.835938 10.859375 -3.203125 C 11.460938 -3.566406 11.9375 -4.0625 12.28125 -4.6875 C 12.632812 -5.320312 12.8125 -6.046875 12.8125 -6.859375 L 12.8125 -10.890625 C 12.8125 -12.054688 12.550781 -12.894531 12.03125 -13.40625 C 11.519531 -13.914062 10.660156 -14.171875 9.453125 -14.171875 C 8.773438 -14.171875 8.046875 -14.085938 7.265625 -13.921875 C 6.484375 -13.765625 5.660156 -13.488281 4.796875 -13.09375 C 4.347656 -12.882812 3.953125 -12.828125 3.609375 -12.921875 C 3.273438 -13.015625 3.015625 -13.207031 2.828125 -13.5 C 2.648438 -13.789062 2.5625 -14.109375 2.5625 -14.453125 C 2.5625 -14.804688 2.648438 -15.148438 2.828125 -15.484375 C 3.015625 -15.828125 3.332031 -16.078125 3.78125 -16.234375 C 4.851562 -16.679688 5.882812 -17 6.875 -17.1875 C 7.863281 -17.375 8.769531 -17.46875 9.59375 -17.46875 C 11.269531 -17.46875 12.648438 -17.207031 13.734375 -16.6875 C 14.816406 -16.175781 15.625 -15.398438 16.15625 -14.359375 C 16.695312 -13.328125 16.96875 -11.992188 16.96875 -10.359375 L 16.96875 -1.953125 C 16.96875 -1.234375 16.789062 -0.679688 16.4375 -0.296875 C 16.09375 0.0859375 15.59375 0.28125 14.9375 0.28125 C 14.289062 0.28125 13.785156 0.0859375 13.421875 -0.296875 C 13.054688 -0.679688 12.875 -1.234375 12.875 -1.953125 L 12.875 -3.640625 L 13.15625 -3.640625 C 13 -2.828125 12.679688 -2.117188 12.203125 -1.515625 C 11.722656 -0.921875 11.117188 -0.460938 10.390625 -0.140625 C 9.671875 0.179688 8.84375 0.34375 7.90625 0.34375 Z M 7.90625 0.34375 "/></g></g></g><g fill="#000000" fill-opacity="1"><g transform="translate(359.385274, 125.480258)"><g><path d="M 4.4375 0.28125 C 3.738281 0.28125 3.203125 0.0859375 2.828125 -0.296875 C 2.460938 -0.679688 2.28125 -1.234375 2.28125 -1.953125 L 2.28125 -15.1875 C 2.28125 -15.914062 2.460938 -16.460938 2.828125 -16.828125 C 3.203125 -17.203125 3.726562 -17.390625 4.40625 -17.390625 C 5.082031 -17.390625 5.609375 -17.203125 5.984375 -16.828125 C 6.359375 -16.460938 6.546875 -15.914062 6.546875 -15.1875 L 6.546875 -12.8125 L 6.15625 -13.6875 C 6.675781 -14.925781 7.476562 -15.863281 8.5625 -16.5 C 9.644531 -17.144531 10.875 -17.46875 12.25 -17.46875 C 13.625 -17.46875 14.753906 -17.207031 15.640625 -16.6875 C 16.523438 -16.175781 17.191406 -15.398438 17.640625 -14.359375 C 18.085938 -13.328125 18.3125 -12.019531 18.3125 -10.4375 L 18.3125 -1.953125 C 18.3125 -1.234375 18.125 -0.679688 17.75 -0.296875 C 17.375 0.0859375 16.835938 0.28125 16.140625 0.28125 C 15.429688 0.28125 14.882812 0.0859375 14.5 -0.296875 C 14.125 -0.679688 13.9375 -1.234375 13.9375 -1.953125 L 13.9375 -10.21875 C 13.9375 -11.550781 13.679688 -12.519531 13.171875 -13.125 C 12.671875 -13.726562 11.894531 -14.03125 10.84375 -14.03125 C 9.5625 -14.03125 8.539062 -13.628906 7.78125 -12.828125 C 7.03125 -12.023438 6.65625 -10.957031 6.65625 -9.625 L 6.65625 -1.953125 C 6.65625 -0.460938 5.914062 0.28125 4.4375 0.28125 Z M 4.4375 0.28125 "/></g></g></g><g fill="#000000" fill-opacity="1"><g transform="translate(379.855663, 125.480258)"><g><path d="M 0.171875 6.609375 C -0.335938 6.660156 -0.753906 6.585938 -1.078125 6.390625 C -1.410156 6.191406 -1.640625 5.941406 -1.765625 5.640625 C -1.890625 5.335938 -1.925781 5.019531 -1.875 4.6875 C -1.832031 4.363281 -1.703125 4.078125 -1.484375 3.828125 C -1.265625 3.585938 -0.96875 3.457031 -0.59375 3.4375 C 0.457031 3.34375 1.222656 3.039062 1.703125 2.53125 C 2.179688 2.03125 2.421875 1.269531 2.421875 0.25 L 2.421875 -15.1875 C 2.421875 -15.914062 2.609375 -16.460938 2.984375 -16.828125 C 3.367188 -17.203125 3.914062 -17.390625 4.625 -17.390625 C 5.320312 -17.390625 5.859375 -17.203125 6.234375 -16.828125 C 6.609375 -16.460938 6.796875 -15.914062 6.796875 -15.1875 L 6.796875 -0.140625 C 6.796875 1.347656 6.554688 2.570312 6.078125 3.53125 C 5.597656 4.488281 4.875 5.210938 3.90625 5.703125 C 2.9375 6.191406 1.691406 6.492188 0.171875 6.609375 Z M 4.578125 -20.609375 C 3.765625 -20.609375 3.128906 -20.8125 2.671875 -21.21875 C 2.222656 -21.632812 2 -22.203125 2 -22.921875 C 2 -23.671875 2.222656 -24.242188 2.671875 -24.640625 C 3.128906 -25.035156 3.765625 -25.234375 4.578125 -25.234375 C 5.421875 -25.234375 6.0625 -25.035156 6.5 -24.640625 C 6.945312 -24.242188 7.171875 -23.671875 7.171875 -22.921875 C 7.171875 -22.203125 6.945312 -21.632812 6.5 -21.21875 C 6.0625 -20.8125 5.421875 -20.609375 4.578125 -20.609375 Z M 4.578125 -20.609375 "/></g></g></g><g fill="#000000" fill-opacity="1"><g transform="translate(388.918605, 125.480258)"><g><path d="M 4.4375 0.25 C 3.738281 0.25 3.203125 0.0390625 2.828125 -0.375 C 2.460938 -0.800781 2.28125 -1.390625 2.28125 -2.140625 L 2.28125 -14.984375 C 2.28125 -15.753906 2.460938 -16.34375 2.828125 -16.75 C 3.203125 -17.15625 3.738281 -17.359375 4.4375 -17.359375 C 5.144531 -17.359375 5.691406 -17.15625 6.078125 -16.75 C 6.460938 -16.34375 6.65625 -15.753906 6.65625 -14.984375 L 6.65625 -2.140625 C 6.65625 -1.390625 6.46875 -0.800781 6.09375 -0.375 C 5.71875 0.0390625 5.164062 0.25 4.4375 0.25 Z M 4.4375 -20.609375 C 3.625 -20.609375 2.988281 -20.8125 2.53125 -21.21875 C 2.082031 -21.632812 1.859375 -22.203125 1.859375 -22.921875 C 1.859375 -23.671875 2.082031 -24.242188 2.53125 -24.640625 C 2.988281 -25.035156 3.625 -25.234375 4.4375 -25.234375 C 5.28125 -25.234375 5.921875 -25.035156 6.359375 -24.640625 C 6.804688 -24.242188 7.03125 -23.671875 7.03125 -22.921875 C 7.03125 -22.203125 6.804688 -21.632812 6.359375 -21.21875 C 5.921875 -20.8125 5.28125 -20.609375 4.4375 -20.609375 Z M 4.4375 -20.609375 "/></g></g></g><g fill="#000000" fill-opacity="1"><g transform="translate(397.841586, 125.480258)"><g><path d="M 4.4375 0.28125 C 3.738281 0.28125 3.203125 0.0859375 2.828125 -0.296875 C 2.460938 -0.679688 2.28125 -1.234375 2.28125 -1.953125 L 2.28125 -15.1875 C 2.28125 -15.914062 2.460938 -16.460938 2.828125 -16.828125 C 3.203125 -17.203125 3.726562 -17.390625 4.40625 -17.390625 C 5.082031 -17.390625 5.609375 -17.203125 5.984375 -16.828125 C 6.359375 -16.460938 6.546875 -15.914062 6.546875 -15.1875 L 6.546875 -12.8125 L 6.15625 -13.6875 C 6.675781 -14.925781 7.476562 -15.863281 8.5625 -16.5 C 9.644531 -17.144531 10.875 -17.46875 12.25 -17.46875 C 13.625 -17.46875 14.753906 -17.207031 15.640625 -16.6875 C 16.523438 -16.175781 17.191406 -15.398438 17.640625 -14.359375 C 18.085938 -13.328125 18.3125 -12.019531 18.3125 -10.4375 L 18.3125 -1.953125 C 18.3125 -1.234375 18.125 -0.679688 17.75 -0.296875 C 17.375 0.0859375 16.835938 0.28125 16.140625 0.28125 C 15.429688 0.28125 14.882812 0.0859375 14.5 -0.296875 C 14.125 -0.679688 13.9375 -1.234375 13.9375 -1.953125 L 13.9375 -10.21875 C 13.9375 -11.550781 13.679688 -12.519531 13.171875 -13.125 C 12.671875 -13.726562 11.894531 -14.03125 10.84375 -14.03125 C 9.5625 -14.03125 8.539062 -13.628906 7.78125 -12.828125 C 7.03125 -12.023438 6.65625 -10.957031 6.65625 -9.625 L 6.65625 -1.953125 C 6.65625 -0.460938 5.914062 0.28125 4.4375 0.28125 Z M 4.4375 0.28125 "/></g></g></g><g fill="#000000" fill-opacity="1"><g transform="translate(418.311975, 125.480258)"><g><path d="M 10.25 6.65625 C 8.988281 6.65625 7.769531 6.535156 6.59375 6.296875 C 5.414062 6.066406 4.347656 5.707031 3.390625 5.21875 C 2.953125 4.976562 2.65625 4.695312 2.5 4.375 C 2.351562 4.050781 2.304688 3.71875 2.359375 3.375 C 2.421875 3.039062 2.5625 2.742188 2.78125 2.484375 C 3 2.222656 3.269531 2.046875 3.59375 1.953125 C 3.925781 1.859375 4.269531 1.90625 4.625 2.09375 C 5.644531 2.613281 6.613281 2.945312 7.53125 3.09375 C 8.457031 3.25 9.25 3.328125 9.90625 3.328125 C 11.46875 3.328125 12.640625 2.945312 13.421875 2.1875 C 14.203125 1.425781 14.59375 0.300781 14.59375 -1.1875 L 14.59375 -4.34375 L 14.90625 -4.34375 C 14.5625 -3.15625 13.832031 -2.203125 12.71875 -1.484375 C 11.613281 -0.773438 10.359375 -0.421875 8.953125 -0.421875 C 7.421875 -0.421875 6.082031 -0.773438 4.9375 -1.484375 C 3.789062 -2.203125 2.898438 -3.203125 2.265625 -4.484375 C 1.640625 -5.765625 1.328125 -7.253906 1.328125 -8.953125 C 1.328125 -10.242188 1.507812 -11.40625 1.875 -12.4375 C 2.238281 -13.476562 2.75 -14.367188 3.40625 -15.109375 C 4.070312 -15.859375 4.878906 -16.4375 5.828125 -16.84375 C 6.773438 -17.257812 7.816406 -17.46875 8.953125 -17.46875 C 10.398438 -17.46875 11.664062 -17.109375 12.75 -16.390625 C 13.84375 -15.679688 14.550781 -14.742188 14.875 -13.578125 L 14.53125 -12.703125 L 14.53125 -15.1875 C 14.53125 -15.914062 14.722656 -16.460938 15.109375 -16.828125 C 15.492188 -17.203125 16.019531 -17.390625 16.6875 -17.390625 C 17.394531 -17.390625 17.929688 -17.203125 18.296875 -16.828125 C 18.671875 -16.460938 18.859375 -15.914062 18.859375 -15.1875 L 18.859375 -1.71875 C 18.859375 1.0625 18.125 3.148438 16.65625 4.546875 C 15.1875 5.953125 13.050781 6.65625 10.25 6.65625 Z M 10.15625 -3.75 C 11.0625 -3.75 11.835938 -3.957031 12.484375 -4.375 C 13.140625 -4.789062 13.648438 -5.390625 14.015625 -6.171875 C 14.378906 -6.953125 14.5625 -7.878906 14.5625 -8.953125 C 14.5625 -10.566406 14.164062 -11.832031 13.375 -12.75 C 12.582031 -13.675781 11.507812 -14.140625 10.15625 -14.140625 C 9.238281 -14.140625 8.453125 -13.925781 7.796875 -13.5 C 7.148438 -13.082031 6.644531 -12.488281 6.28125 -11.71875 C 5.914062 -10.945312 5.734375 -10.023438 5.734375 -8.953125 C 5.734375 -7.347656 6.128906 -6.078125 6.921875 -5.140625 C 7.722656 -4.210938 8.800781 -3.75 10.15625 -3.75 Z M 10.15625 -3.75 "/></g></g></g><g fill="#000000" fill-opacity="1"><g transform="translate(439.447197, 125.480258)"><g><path d="M 4.375 0.171875 C 3.582031 0.171875 2.945312 -0.0703125 2.46875 -0.5625 C 1.988281 -1.050781 1.75 -1.679688 1.75 -2.453125 C 1.75 -3.191406 1.988281 -3.800781 2.46875 -4.28125 C 2.945312 -4.757812 3.582031 -5 4.375 -5 C 5.1875 -5 5.820312 -4.757812 6.28125 -4.28125 C 6.738281 -3.800781 6.96875 -3.191406 6.96875 -2.453125 C 6.96875 -1.679688 6.738281 -1.050781 6.28125 -0.5625 C 5.820312 -0.0703125 5.1875 0.171875 4.375 0.171875 Z M 4.375 0.171875 "/></g></g></g></svg>