<svg xmlns="http://www.w3.org/2000/svg" xmlns:xlink="http://www.w3.org/1999/xlink" width="851" zoomAndPan="magnify" viewBox="0 0 638.25 167.999997" height="224" preserveAspectRatio="xMidYMid meet" version="1.0"><defs><g/><clipPath id="286b19c18c"><path d="M 1.046875 0.0976562 L 636.132812 0.0976562 L 636.132812 167.855469 L 1.046875 167.855469 Z M 1.046875 0.0976562 " clip-rule="nonzero"/></clipPath></defs><g clip-path="url(#286b19c18c)"><path stroke-linecap="butt" transform="matrix(0.74912, 0, 0, 0.74912, 1.047859, 0.09859)" fill="none" stroke-linejoin="miter" d="M -0.00131393 -0.00124653 L 847.775014 -0.00124653 L 847.775014 223.938686 L -0.00131393 223.938686 Z M -0.00131393 -0.00124653 " stroke="#000000" stroke-width="12" stroke-opacity="1" stroke-miterlimit="4"/></g><g fill="#000000" fill-opacity="1"><g transform="translate(44.45154, 100.084671)"><g><path d="M 7.234375 0 C 6.140625 0 5.300781 -0.289062 4.71875 -0.875 C 4.132812 -1.457031 3.84375 -2.296875 3.84375 -3.390625 L 3.84375 -31.8125 C 3.84375 -32.90625 4.132812 -33.742188 4.71875 -34.328125 C 5.300781 -34.910156 6.140625 -35.203125 7.234375 -35.203125 L 25.0625 -35.203125 C 25.894531 -35.203125 26.535156 -34.984375 26.984375 -34.546875 C 27.441406 -34.117188 27.671875 -33.503906 27.671875 -32.703125 C 27.671875 -31.867188 27.441406 -31.226562 26.984375 -30.78125 C 26.535156 -30.332031 25.894531 -30.109375 25.0625 -30.109375 L 9.984375 -30.109375 L 9.984375 -20.421875 L 23.96875 -20.421875 C 24.832031 -20.421875 25.476562 -20.203125 25.90625 -19.765625 C 26.34375 -19.335938 26.5625 -18.707031 26.5625 -17.875 C 26.5625 -17.039062 26.34375 -16.40625 25.90625 -15.96875 C 25.476562 -15.539062 24.832031 -15.328125 23.96875 -15.328125 L 9.984375 -15.328125 L 9.984375 -5.09375 L 25.0625 -5.09375 C 25.894531 -5.09375 26.535156 -4.875 26.984375 -4.4375 C 27.441406 -4.007812 27.671875 -3.378906 27.671875 -2.546875 C 27.671875 -1.710938 27.441406 -1.078125 26.984375 -0.640625 C 26.535156 -0.210938 25.894531 0 25.0625 0 Z M 7.234375 0 "/></g></g></g><g fill="#000000" fill-opacity="1"><g transform="translate(74.261889, 100.084671)"><g><path d="M 6.4375 0.40625 C 5.40625 0.40625 4.613281 0.128906 4.0625 -0.421875 C 3.519531 -0.972656 3.25 -1.765625 3.25 -2.796875 L 3.25 -21.671875 C 3.25 -22.703125 3.515625 -23.484375 4.046875 -24.015625 C 4.578125 -24.546875 5.328125 -24.8125 6.296875 -24.8125 C 7.253906 -24.8125 8 -24.546875 8.53125 -24.015625 C 9.070312 -23.484375 9.34375 -22.703125 9.34375 -21.671875 L 9.34375 -18.53125 L 8.84375 -18.53125 C 9.300781 -20.519531 10.210938 -22.03125 11.578125 -23.0625 C 12.953125 -24.101562 14.769531 -24.722656 17.03125 -24.921875 C 17.726562 -24.984375 18.285156 -24.804688 18.703125 -24.390625 C 19.117188 -23.972656 19.359375 -23.332031 19.421875 -22.46875 C 19.492188 -21.632812 19.300781 -20.957031 18.84375 -20.4375 C 18.394531 -19.925781 17.722656 -19.625 16.828125 -19.53125 L 15.734375 -19.421875 C 13.703125 -19.222656 12.171875 -18.597656 11.140625 -17.546875 C 10.109375 -16.503906 9.59375 -15.035156 9.59375 -13.140625 L 9.59375 -2.796875 C 9.59375 -1.765625 9.320312 -0.972656 8.78125 -0.421875 C 8.25 0.128906 7.46875 0.40625 6.4375 0.40625 Z M 6.4375 0.40625 "/></g></g></g><g fill="#000000" fill-opacity="1"><g transform="translate(93.835853, 100.084671)"><g><path d="M 6.34375 0.34375 C 5.34375 0.34375 4.578125 0.046875 4.046875 -0.546875 C 3.515625 -1.148438 3.25 -1.984375 3.25 -3.046875 L 3.25 -21.375 C 3.25 -22.46875 3.515625 -23.304688 4.046875 -23.890625 C 4.578125 -24.472656 5.34375 -24.765625 6.34375 -24.765625 C 7.34375 -24.765625 8.113281 -24.472656 8.65625 -23.890625 C 9.207031 -23.304688 9.484375 -22.46875 9.484375 -21.375 L 9.484375 -3.046875 C 9.484375 -1.984375 9.21875 -1.148438 8.6875 -0.546875 C 8.15625 0.046875 7.375 0.34375 6.34375 0.34375 Z M 6.34375 -29.40625 C 5.175781 -29.40625 4.265625 -29.695312 3.609375 -30.28125 C 2.960938 -30.863281 2.640625 -31.671875 2.640625 -32.703125 C 2.640625 -33.773438 2.960938 -34.59375 3.609375 -35.15625 C 4.265625 -35.71875 5.175781 -36 6.34375 -36 C 7.539062 -36 8.453125 -35.71875 9.078125 -35.15625 C 9.710938 -34.59375 10.03125 -33.773438 10.03125 -32.703125 C 10.03125 -31.671875 9.710938 -30.863281 9.078125 -30.28125 C 8.453125 -29.695312 7.539062 -29.40625 6.34375 -29.40625 Z M 6.34375 -29.40625 "/></g></g></g><g fill="#000000" fill-opacity="1"><g transform="translate(106.568921, 100.084671)"><g><path d="M 6.34375 0.40625 C 5.34375 0.40625 4.578125 0.128906 4.046875 -0.421875 C 3.515625 -0.972656 3.25 -1.765625 3.25 -2.796875 L 3.25 -21.671875 C 3.25 -22.703125 3.515625 -23.484375 4.046875 -24.015625 C 4.578125 -24.546875 5.328125 -24.8125 6.296875 -24.8125 C 7.253906 -24.8125 8 -24.546875 8.53125 -24.015625 C 9.070312 -23.484375 9.34375 -22.703125 9.34375 -21.671875 L 9.34375 -18.28125 L 8.78125 -19.53125 C 9.519531 -21.289062 10.660156 -22.628906 12.203125 -23.546875 C 13.753906 -24.460938 15.515625 -24.921875 17.484375 -24.921875 C 19.441406 -24.921875 21.050781 -24.550781 22.3125 -23.8125 C 23.582031 -23.082031 24.535156 -21.976562 25.171875 -20.5 C 25.804688 -19.019531 26.125 -17.144531 26.125 -14.875 L 26.125 -2.796875 C 26.125 -1.765625 25.851562 -0.972656 25.3125 -0.421875 C 24.78125 0.128906 24.015625 0.40625 23.015625 0.40625 C 22.015625 0.40625 21.238281 0.128906 20.6875 -0.421875 C 20.144531 -0.972656 19.875 -1.765625 19.875 -2.796875 L 19.875 -14.578125 C 19.875 -16.472656 19.515625 -17.851562 18.796875 -18.71875 C 18.085938 -19.59375 16.984375 -20.03125 15.484375 -20.03125 C 13.648438 -20.03125 12.191406 -19.453125 11.109375 -18.296875 C 10.023438 -17.148438 9.484375 -15.628906 9.484375 -13.734375 L 9.484375 -2.796875 C 9.484375 -0.660156 8.4375 0.40625 6.34375 0.40625 Z M 6.34375 0.40625 "/></g></g></g><g fill="#000000" fill-opacity="1"><g transform="translate(135.780074, 100.084671)"><g/></g></g><g fill="#000000" fill-opacity="1"><g transform="translate(149.312077, 100.084671)"><g><path d="M 14.4375 0.5 C 12.269531 0.5 10.460938 0.132812 9.015625 -0.59375 C 7.566406 -1.332031 6.492188 -2.40625 5.796875 -3.8125 C 5.097656 -5.226562 4.75 -6.988281 4.75 -9.09375 L 4.75 -19.71875 L 2.140625 -19.71875 C 1.347656 -19.71875 0.734375 -19.925781 0.296875 -20.34375 C -0.128906 -20.757812 -0.34375 -21.335938 -0.34375 -22.078125 C -0.34375 -22.835938 -0.128906 -23.414062 0.296875 -23.8125 C 0.734375 -24.21875 1.347656 -24.421875 2.140625 -24.421875 L 4.75 -24.421875 L 4.75 -28.96875 C 4.75 -30 5.019531 -30.78125 5.5625 -31.3125 C 6.113281 -31.84375 6.890625 -32.109375 7.890625 -32.109375 C 8.890625 -32.109375 9.65625 -31.84375 10.1875 -31.3125 C 10.71875 -30.78125 10.984375 -30 10.984375 -28.96875 L 10.984375 -24.421875 L 16.28125 -24.421875 C 17.082031 -24.421875 17.695312 -24.21875 18.125 -23.8125 C 18.5625 -23.414062 18.78125 -22.835938 18.78125 -22.078125 C 18.78125 -21.335938 18.5625 -20.757812 18.125 -20.34375 C 17.695312 -19.925781 17.082031 -19.71875 16.28125 -19.71875 L 10.984375 -19.71875 L 10.984375 -9.4375 C 10.984375 -7.84375 11.332031 -6.644531 12.03125 -5.84375 C 12.726562 -5.039062 13.863281 -4.640625 15.4375 -4.640625 C 16 -4.640625 16.492188 -4.6875 16.921875 -4.78125 C 17.359375 -4.882812 17.742188 -4.957031 18.078125 -5 C 18.472656 -5.03125 18.800781 -4.898438 19.0625 -4.609375 C 19.332031 -4.328125 19.46875 -3.753906 19.46875 -2.890625 C 19.46875 -2.222656 19.359375 -1.628906 19.140625 -1.109375 C 18.929688 -0.597656 18.546875 -0.242188 17.984375 -0.046875 C 17.546875 0.0859375 16.976562 0.210938 16.28125 0.328125 C 15.582031 0.441406 14.96875 0.5 14.4375 0.5 Z M 14.4375 0.5 "/></g></g></g><g fill="#000000" fill-opacity="1"><g transform="translate(169.135743, 100.084671)"><g><path d="M 6.34375 0.34375 C 5.34375 0.34375 4.578125 0.046875 4.046875 -0.546875 C 3.515625 -1.148438 3.25 -1.984375 3.25 -3.046875 L 3.25 -21.375 C 3.25 -22.46875 3.515625 -23.304688 4.046875 -23.890625 C 4.578125 -24.472656 5.34375 -24.765625 6.34375 -24.765625 C 7.34375 -24.765625 8.113281 -24.472656 8.65625 -23.890625 C 9.207031 -23.304688 9.484375 -22.46875 9.484375 -21.375 L 9.484375 -3.046875 C 9.484375 -1.984375 9.21875 -1.148438 8.6875 -0.546875 C 8.15625 0.046875 7.375 0.34375 6.34375 0.34375 Z M 6.34375 -29.40625 C 5.175781 -29.40625 4.265625 -29.695312 3.609375 -30.28125 C 2.960938 -30.863281 2.640625 -31.671875 2.640625 -32.703125 C 2.640625 -33.773438 2.960938 -34.59375 3.609375 -35.15625 C 4.265625 -35.71875 5.175781 -36 6.34375 -36 C 7.539062 -36 8.453125 -35.71875 9.078125 -35.15625 C 9.710938 -34.59375 10.03125 -33.773438 10.03125 -32.703125 C 10.03125 -31.671875 9.710938 -30.863281 9.078125 -30.28125 C 8.453125 -29.695312 7.539062 -29.40625 6.34375 -29.40625 Z M 6.34375 -29.40625 "/></g></g></g><g fill="#000000" fill-opacity="1"><g transform="translate(181.868812, 100.084671)"><g><path d="M 12.640625 0.5 C 10.503906 0.5 8.628906 -0.015625 7.015625 -1.046875 C 5.398438 -2.078125 4.140625 -3.550781 3.234375 -5.46875 C 2.335938 -7.382812 1.890625 -9.640625 1.890625 -12.234375 C 1.890625 -14.867188 2.335938 -17.125 3.234375 -19 C 4.140625 -20.882812 5.398438 -22.34375 7.015625 -23.375 C 8.628906 -24.40625 10.503906 -24.921875 12.640625 -24.921875 C 14.671875 -24.921875 16.441406 -24.421875 17.953125 -23.421875 C 19.460938 -22.421875 20.488281 -21.101562 21.03125 -19.46875 L 20.46875 -19.46875 L 20.46875 -32.453125 C 20.46875 -33.484375 20.734375 -34.265625 21.265625 -34.796875 C 21.804688 -35.335938 22.578125 -35.609375 23.578125 -35.609375 C 24.566406 -35.609375 25.335938 -35.335938 25.890625 -34.796875 C 26.441406 -34.265625 26.71875 -33.484375 26.71875 -32.453125 L 26.71875 -2.796875 C 26.71875 -1.765625 26.453125 -0.972656 25.921875 -0.421875 C 25.390625 0.128906 24.625 0.40625 23.625 0.40625 C 22.625 0.40625 21.859375 0.128906 21.328125 -0.421875 C 20.796875 -0.972656 20.53125 -1.765625 20.53125 -2.796875 L 20.53125 -6.6875 L 21.078125 -5.1875 C 20.578125 -3.457031 19.5625 -2.078125 18.03125 -1.046875 C 16.5 -0.015625 14.703125 0.5 12.640625 0.5 Z M 14.375 -4.25 C 15.613281 -4.25 16.695312 -4.546875 17.625 -5.140625 C 18.5625 -5.742188 19.285156 -6.632812 19.796875 -7.8125 C 20.316406 -9 20.578125 -10.472656 20.578125 -12.234375 C 20.578125 -14.898438 20.007812 -16.890625 18.875 -18.203125 C 17.738281 -19.515625 16.238281 -20.171875 14.375 -20.171875 C 13.144531 -20.171875 12.0625 -19.878906 11.125 -19.296875 C 10.195312 -18.710938 9.472656 -17.828125 8.953125 -16.640625 C 8.441406 -15.460938 8.1875 -13.992188 8.1875 -12.234375 C 8.1875 -9.609375 8.75 -7.617188 9.875 -6.265625 C 11.007812 -4.921875 12.507812 -4.25 14.375 -4.25 Z M 14.375 -4.25 "/></g></g></g><g fill="#000000" fill-opacity="1"><g transform="translate(211.828958, 100.084671)"><g><path d="M 11.28125 0.5 C 9.519531 0.5 7.945312 0.160156 6.5625 -0.515625 C 5.1875 -1.203125 4.101562 -2.128906 3.3125 -3.296875 C 2.53125 -4.460938 2.140625 -5.773438 2.140625 -7.234375 C 2.140625 -9.035156 2.601562 -10.457031 3.53125 -11.5 C 4.46875 -12.550781 5.984375 -13.3125 8.078125 -13.78125 C 10.179688 -14.25 13 -14.484375 16.53125 -14.484375 L 19.03125 -14.484375 L 19.03125 -10.890625 L 16.578125 -10.890625 C 14.515625 -10.890625 12.863281 -10.785156 11.625 -10.578125 C 10.394531 -10.378906 9.519531 -10.039062 9 -9.5625 C 8.488281 -9.082031 8.234375 -8.410156 8.234375 -7.546875 C 8.234375 -6.441406 8.613281 -5.539062 9.375 -4.84375 C 10.144531 -4.144531 11.210938 -3.796875 12.578125 -3.796875 C 13.679688 -3.796875 14.65625 -4.050781 15.5 -4.5625 C 16.351562 -5.082031 17.03125 -5.789062 17.53125 -6.6875 C 18.03125 -7.59375 18.28125 -8.625 18.28125 -9.78125 L 18.28125 -15.53125 C 18.28125 -17.195312 17.910156 -18.394531 17.171875 -19.125 C 16.441406 -19.851562 15.210938 -20.21875 13.484375 -20.21875 C 12.515625 -20.21875 11.472656 -20.101562 10.359375 -19.875 C 9.242188 -19.644531 8.070312 -19.242188 6.84375 -18.671875 C 6.207031 -18.378906 5.644531 -18.296875 5.15625 -18.421875 C 4.675781 -18.554688 4.300781 -18.832031 4.03125 -19.25 C 3.769531 -19.664062 3.640625 -20.125 3.640625 -20.625 C 3.640625 -21.125 3.769531 -21.613281 4.03125 -22.09375 C 4.300781 -22.582031 4.753906 -22.941406 5.390625 -23.171875 C 6.921875 -23.804688 8.394531 -24.253906 9.8125 -24.515625 C 11.226562 -24.785156 12.519531 -24.921875 13.6875 -24.921875 C 16.082031 -24.921875 18.050781 -24.550781 19.59375 -23.8125 C 21.144531 -23.082031 22.300781 -21.976562 23.0625 -20.5 C 23.832031 -19.019531 24.21875 -17.113281 24.21875 -14.78125 L 24.21875 -2.796875 C 24.21875 -1.765625 23.96875 -0.972656 23.46875 -0.421875 C 22.96875 0.128906 22.253906 0.40625 21.328125 0.40625 C 20.390625 0.40625 19.660156 0.128906 19.140625 -0.421875 C 18.628906 -0.972656 18.375 -1.765625 18.375 -2.796875 L 18.375 -5.1875 L 18.78125 -5.1875 C 18.539062 -4.03125 18.078125 -3.023438 17.390625 -2.171875 C 16.710938 -1.328125 15.859375 -0.671875 14.828125 -0.203125 C 13.796875 0.265625 12.613281 0.5 11.28125 0.5 Z M 11.28125 0.5 "/></g></g></g><g fill="#000000" fill-opacity="1"><g transform="translate(239.142644, 100.084671)"><g><path d="M 6.34375 0.40625 C 5.34375 0.40625 4.578125 0.128906 4.046875 -0.421875 C 3.515625 -0.972656 3.25 -1.765625 3.25 -2.796875 L 3.25 -32.453125 C 3.25 -33.484375 3.515625 -34.265625 4.046875 -34.796875 C 4.578125 -35.335938 5.34375 -35.609375 6.34375 -35.609375 C 7.34375 -35.609375 8.113281 -35.335938 8.65625 -34.796875 C 9.207031 -34.265625 9.484375 -33.484375 9.484375 -32.453125 L 9.484375 -14.03125 L 9.59375 -14.03125 L 17.828125 -22.71875 C 18.492188 -23.382812 19.078125 -23.898438 19.578125 -24.265625 C 20.078125 -24.628906 20.757812 -24.8125 21.625 -24.8125 C 22.488281 -24.8125 23.144531 -24.585938 23.59375 -24.140625 C 24.039062 -23.691406 24.265625 -23.148438 24.265625 -22.515625 C 24.265625 -21.890625 23.96875 -21.257812 23.375 -20.625 L 14.6875 -11.4375 L 14.6875 -14.03125 L 24.21875 -3.75 C 24.820312 -3.113281 25.097656 -2.46875 25.046875 -1.8125 C 24.992188 -1.164062 24.71875 -0.632812 24.21875 -0.21875 C 23.71875 0.195312 23.085938 0.40625 22.328125 0.40625 C 21.390625 0.40625 20.644531 0.222656 20.09375 -0.140625 C 19.550781 -0.515625 18.945312 -1.066406 18.28125 -1.796875 L 9.59375 -10.890625 L 9.484375 -10.890625 L 9.484375 -2.796875 C 9.484375 -0.660156 8.4375 0.40625 6.34375 0.40625 Z M 6.34375 0.40625 "/></g></g></g><g fill="#000000" fill-opacity="1"><g transform="translate(265.90703, 100.084671)"><g/></g></g><g fill="#000000" fill-opacity="1"><g transform="translate(279.439033, 100.084671)"><g><path d="M 12.1875 0.5 C 10.75 0.5 9.234375 0.347656 7.640625 0.046875 C 6.046875 -0.253906 4.613281 -0.769531 3.34375 -1.5 C 2.8125 -1.832031 2.4375 -2.222656 2.21875 -2.671875 C 2 -3.117188 1.914062 -3.566406 1.96875 -4.015625 C 2.019531 -4.460938 2.1875 -4.851562 2.46875 -5.1875 C 2.75 -5.519531 3.113281 -5.738281 3.5625 -5.84375 C 4.019531 -5.945312 4.515625 -5.863281 5.046875 -5.59375 C 6.378906 -4.957031 7.625 -4.515625 8.78125 -4.265625 C 9.945312 -4.015625 11.097656 -3.890625 12.234375 -3.890625 C 13.828125 -3.890625 15.015625 -4.164062 15.796875 -4.71875 C 16.585938 -5.269531 16.984375 -5.992188 16.984375 -6.890625 C 16.984375 -7.660156 16.722656 -8.25 16.203125 -8.65625 C 15.691406 -9.070312 14.914062 -9.382812 13.875 -9.59375 L 8.890625 -10.53125 C 6.828125 -10.9375 5.253906 -11.695312 4.171875 -12.8125 C 3.085938 -13.925781 2.546875 -15.363281 2.546875 -17.125 C 2.546875 -18.726562 2.984375 -20.109375 3.859375 -21.265625 C 4.742188 -22.429688 5.96875 -23.332031 7.53125 -23.96875 C 9.101562 -24.601562 10.90625 -24.921875 12.9375 -24.921875 C 14.394531 -24.921875 15.765625 -24.757812 17.046875 -24.4375 C 18.328125 -24.125 19.570312 -23.632812 20.78125 -22.96875 C 21.269531 -22.707031 21.609375 -22.359375 21.796875 -21.921875 C 21.984375 -21.484375 22.023438 -21.039062 21.921875 -20.59375 C 21.816406 -20.144531 21.613281 -19.742188 21.3125 -19.390625 C 21.019531 -19.046875 20.648438 -18.832031 20.203125 -18.75 C 19.753906 -18.664062 19.242188 -18.757812 18.671875 -19.03125 C 17.640625 -19.5625 16.648438 -19.941406 15.703125 -20.171875 C 14.753906 -20.410156 13.847656 -20.53125 12.984375 -20.53125 C 11.347656 -20.53125 10.140625 -20.242188 9.359375 -19.671875 C 8.578125 -19.109375 8.1875 -18.359375 8.1875 -17.421875 C 8.1875 -16.722656 8.421875 -16.140625 8.890625 -15.671875 C 9.359375 -15.210938 10.070312 -14.898438 11.03125 -14.734375 L 16.03125 -13.78125 C 18.195312 -13.382812 19.835938 -12.648438 20.953125 -11.578125 C 22.066406 -10.515625 22.625 -9.085938 22.625 -7.296875 C 22.625 -4.859375 21.671875 -2.945312 19.765625 -1.5625 C 17.867188 -0.1875 15.34375 0.5 12.1875 0.5 Z M 12.1875 0.5 "/></g></g></g><g fill="#000000" fill-opacity="1"><g transform="translate(303.806615, 100.084671)"><g><path d="M 12.078125 0.5 C 10.046875 0.5 8.363281 0.125 7.03125 -0.625 C 5.707031 -1.375 4.71875 -2.492188 4.0625 -3.984375 C 3.414062 -5.484375 3.09375 -7.351562 3.09375 -9.59375 L 3.09375 -21.671875 C 3.09375 -22.734375 3.359375 -23.519531 3.890625 -24.03125 C 4.421875 -24.550781 5.1875 -24.8125 6.1875 -24.8125 C 7.1875 -24.8125 7.960938 -24.550781 8.515625 -24.03125 C 9.066406 -23.519531 9.34375 -22.734375 9.34375 -21.671875 L 9.34375 -9.484375 C 9.34375 -7.753906 9.691406 -6.472656 10.390625 -5.640625 C 11.085938 -4.804688 12.203125 -4.390625 13.734375 -4.390625 C 15.398438 -4.390625 16.765625 -4.960938 17.828125 -6.109375 C 18.890625 -7.265625 19.421875 -8.789062 19.421875 -10.6875 L 19.421875 -21.671875 C 19.421875 -22.734375 19.6875 -23.519531 20.21875 -24.03125 C 20.757812 -24.550781 21.523438 -24.8125 22.515625 -24.8125 C 23.515625 -24.8125 24.289062 -24.550781 24.84375 -24.03125 C 25.394531 -23.519531 25.671875 -22.734375 25.671875 -21.671875 L 25.671875 -2.796875 C 25.671875 -0.660156 24.65625 0.40625 22.625 0.40625 C 21.65625 0.40625 20.90625 0.128906 20.375 -0.421875 C 19.84375 -0.972656 19.578125 -1.765625 19.578125 -2.796875 L 19.578125 -6.59375 L 20.28125 -5.09375 C 19.570312 -3.289062 18.507812 -1.90625 17.09375 -0.9375 C 15.6875 0.0195312 14.015625 0.5 12.078125 0.5 Z M 12.078125 0.5 "/></g></g></g><g fill="#000000" fill-opacity="1"><g transform="translate(332.718181, 100.084671)"><g><path d="M 6.34375 0.40625 C 5.34375 0.40625 4.578125 0.128906 4.046875 -0.421875 C 3.515625 -0.972656 3.25 -1.765625 3.25 -2.796875 L 3.25 -32.453125 C 3.25 -33.484375 3.515625 -34.265625 4.046875 -34.796875 C 4.578125 -35.335938 5.34375 -35.609375 6.34375 -35.609375 C 7.34375 -35.609375 8.113281 -35.335938 8.65625 -34.796875 C 9.207031 -34.265625 9.484375 -33.484375 9.484375 -32.453125 L 9.484375 -14.03125 L 9.59375 -14.03125 L 17.828125 -22.71875 C 18.492188 -23.382812 19.078125 -23.898438 19.578125 -24.265625 C 20.078125 -24.628906 20.757812 -24.8125 21.625 -24.8125 C 22.488281 -24.8125 23.144531 -24.585938 23.59375 -24.140625 C 24.039062 -23.691406 24.265625 -23.148438 24.265625 -22.515625 C 24.265625 -21.890625 23.96875 -21.257812 23.375 -20.625 L 14.6875 -11.4375 L 14.6875 -14.03125 L 24.21875 -3.75 C 24.820312 -3.113281 25.097656 -2.46875 25.046875 -1.8125 C 24.992188 -1.164062 24.71875 -0.632812 24.21875 -0.21875 C 23.71875 0.195312 23.085938 0.40625 22.328125 0.40625 C 21.390625 0.40625 20.644531 0.222656 20.09375 -0.140625 C 19.550781 -0.515625 18.945312 -1.066406 18.28125 -1.796875 L 9.59375 -10.890625 L 9.484375 -10.890625 L 9.484375 -2.796875 C 9.484375 -0.660156 8.4375 0.40625 6.34375 0.40625 Z M 6.34375 0.40625 "/></g></g></g><g fill="#000000" fill-opacity="1"><g transform="translate(359.232876, 100.084671)"><g><path d="M 11.28125 0.5 C 9.519531 0.5 7.945312 0.160156 6.5625 -0.515625 C 5.1875 -1.203125 4.101562 -2.128906 3.3125 -3.296875 C 2.53125 -4.460938 2.140625 -5.773438 2.140625 -7.234375 C 2.140625 -9.035156 2.601562 -10.457031 3.53125 -11.5 C 4.46875 -12.550781 5.984375 -13.3125 8.078125 -13.78125 C 10.179688 -14.25 13 -14.484375 16.53125 -14.484375 L 19.03125 -14.484375 L 19.03125 -10.890625 L 16.578125 -10.890625 C 14.515625 -10.890625 12.863281 -10.785156 11.625 -10.578125 C 10.394531 -10.378906 9.519531 -10.039062 9 -9.5625 C 8.488281 -9.082031 8.234375 -8.410156 8.234375 -7.546875 C 8.234375 -6.441406 8.613281 -5.539062 9.375 -4.84375 C 10.144531 -4.144531 11.210938 -3.796875 12.578125 -3.796875 C 13.679688 -3.796875 14.65625 -4.050781 15.5 -4.5625 C 16.351562 -5.082031 17.03125 -5.789062 17.53125 -6.6875 C 18.03125 -7.59375 18.28125 -8.625 18.28125 -9.78125 L 18.28125 -15.53125 C 18.28125 -17.195312 17.910156 -18.394531 17.171875 -19.125 C 16.441406 -19.851562 15.210938 -20.21875 13.484375 -20.21875 C 12.515625 -20.21875 11.472656 -20.101562 10.359375 -19.875 C 9.242188 -19.644531 8.070312 -19.242188 6.84375 -18.671875 C 6.207031 -18.378906 5.644531 -18.296875 5.15625 -18.421875 C 4.675781 -18.554688 4.300781 -18.832031 4.03125 -19.25 C 3.769531 -19.664062 3.640625 -20.125 3.640625 -20.625 C 3.640625 -21.125 3.769531 -21.613281 4.03125 -22.09375 C 4.300781 -22.582031 4.753906 -22.941406 5.390625 -23.171875 C 6.921875 -23.804688 8.394531 -24.253906 9.8125 -24.515625 C 11.226562 -24.785156 12.519531 -24.921875 13.6875 -24.921875 C 16.082031 -24.921875 18.050781 -24.550781 19.59375 -23.8125 C 21.144531 -23.082031 22.300781 -21.976562 23.0625 -20.5 C 23.832031 -19.019531 24.21875 -17.113281 24.21875 -14.78125 L 24.21875 -2.796875 C 24.21875 -1.765625 23.96875 -0.972656 23.46875 -0.421875 C 22.96875 0.128906 22.253906 0.40625 21.328125 0.40625 C 20.390625 0.40625 19.660156 0.128906 19.140625 -0.421875 C 18.628906 -0.972656 18.375 -1.765625 18.375 -2.796875 L 18.375 -5.1875 L 18.78125 -5.1875 C 18.539062 -4.03125 18.078125 -3.023438 17.390625 -2.171875 C 16.710938 -1.328125 15.859375 -0.671875 14.828125 -0.203125 C 13.796875 0.265625 12.613281 0.5 11.28125 0.5 Z M 11.28125 0.5 "/></g></g></g><g fill="#000000" fill-opacity="1"><g transform="translate(386.546574, 100.084671)"><g/></g></g><g fill="#000000" fill-opacity="1"><g transform="translate(400.078554, 100.084671)"><g><path d="M 17.328125 0.5 C 15.265625 0.5 13.457031 -0.015625 11.90625 -1.046875 C 10.363281 -2.078125 9.34375 -3.457031 8.84375 -5.1875 L 9.390625 -6.4375 L 9.390625 -2.796875 C 9.390625 -1.765625 9.125 -0.972656 8.59375 -0.421875 C 8.0625 0.128906 7.3125 0.40625 6.34375 0.40625 C 5.34375 0.40625 4.578125 0.128906 4.046875 -0.421875 C 3.515625 -0.972656 3.25 -1.765625 3.25 -2.796875 L 3.25 -32.453125 C 3.25 -33.484375 3.515625 -34.265625 4.046875 -34.796875 C 4.578125 -35.335938 5.34375 -35.609375 6.34375 -35.609375 C 7.34375 -35.609375 8.113281 -35.335938 8.65625 -34.796875 C 9.207031 -34.265625 9.484375 -33.484375 9.484375 -32.453125 L 9.484375 -19.46875 L 8.890625 -19.46875 C 9.421875 -21.101562 10.453125 -22.421875 11.984375 -23.421875 C 13.515625 -24.421875 15.296875 -24.921875 17.328125 -24.921875 C 19.492188 -24.921875 21.375 -24.40625 22.96875 -23.375 C 24.570312 -22.34375 25.820312 -20.882812 26.71875 -19 C 27.613281 -17.125 28.0625 -14.867188 28.0625 -12.234375 C 28.0625 -9.640625 27.613281 -7.382812 26.71875 -5.46875 C 25.820312 -3.550781 24.566406 -2.078125 22.953125 -1.046875 C 21.335938 -0.015625 19.460938 0.5 17.328125 0.5 Z M 15.578125 -4.25 C 16.804688 -4.25 17.882812 -4.546875 18.8125 -5.140625 C 19.75 -5.742188 20.472656 -6.632812 20.984375 -7.8125 C 21.503906 -9 21.765625 -10.472656 21.765625 -12.234375 C 21.765625 -14.898438 21.195312 -16.890625 20.0625 -18.203125 C 18.9375 -19.515625 17.441406 -20.171875 15.578125 -20.171875 C 14.347656 -20.171875 13.265625 -19.878906 12.328125 -19.296875 C 11.398438 -18.710938 10.675781 -17.828125 10.15625 -16.640625 C 9.644531 -15.460938 9.390625 -13.992188 9.390625 -12.234375 C 9.390625 -9.609375 9.953125 -7.617188 11.078125 -6.265625 C 12.210938 -4.921875 13.710938 -4.25 15.578125 -4.25 Z M 15.578125 -4.25 "/></g></g></g><g fill="#000000" fill-opacity="1"><g transform="translate(430.038723, 100.084671)"><g><path d="M 12.078125 0.5 C 10.046875 0.5 8.363281 0.125 7.03125 -0.625 C 5.707031 -1.375 4.71875 -2.492188 4.0625 -3.984375 C 3.414062 -5.484375 3.09375 -7.351562 3.09375 -9.59375 L 3.09375 -21.671875 C 3.09375 -22.734375 3.359375 -23.519531 3.890625 -24.03125 C 4.421875 -24.550781 5.1875 -24.8125 6.1875 -24.8125 C 7.1875 -24.8125 7.960938 -24.550781 8.515625 -24.03125 C 9.066406 -23.519531 9.34375 -22.734375 9.34375 -21.671875 L 9.34375 -9.484375 C 9.34375 -7.753906 9.691406 -6.472656 10.390625 -5.640625 C 11.085938 -4.804688 12.203125 -4.390625 13.734375 -4.390625 C 15.398438 -4.390625 16.765625 -4.960938 17.828125 -6.109375 C 18.890625 -7.265625 19.421875 -8.789062 19.421875 -10.6875 L 19.421875 -21.671875 C 19.421875 -22.734375 19.6875 -23.519531 20.21875 -24.03125 C 20.757812 -24.550781 21.523438 -24.8125 22.515625 -24.8125 C 23.515625 -24.8125 24.289062 -24.550781 24.84375 -24.03125 C 25.394531 -23.519531 25.671875 -22.734375 25.671875 -21.671875 L 25.671875 -2.796875 C 25.671875 -0.660156 24.65625 0.40625 22.625 0.40625 C 21.65625 0.40625 20.90625 0.128906 20.375 -0.421875 C 19.84375 -0.972656 19.578125 -1.765625 19.578125 -2.796875 L 19.578125 -6.59375 L 20.28125 -5.09375 C 19.570312 -3.289062 18.507812 -1.90625 17.09375 -0.9375 C 15.6875 0.0195312 14.015625 0.5 12.078125 0.5 Z M 12.078125 0.5 "/></g></g></g><g fill="#000000" fill-opacity="1"><g transform="translate(458.950244, 100.084671)"><g><path d="M 6.4375 0.40625 C 5.40625 0.40625 4.613281 0.128906 4.0625 -0.421875 C 3.519531 -0.972656 3.25 -1.765625 3.25 -2.796875 L 3.25 -21.671875 C 3.25 -22.703125 3.515625 -23.484375 4.046875 -24.015625 C 4.578125 -24.546875 5.328125 -24.8125 6.296875 -24.8125 C 7.253906 -24.8125 8 -24.546875 8.53125 -24.015625 C 9.070312 -23.484375 9.34375 -22.703125 9.34375 -21.671875 L 9.34375 -18.53125 L 8.84375 -18.53125 C 9.300781 -20.519531 10.210938 -22.03125 11.578125 -23.0625 C 12.953125 -24.101562 14.769531 -24.722656 17.03125 -24.921875 C 17.726562 -24.984375 18.285156 -24.804688 18.703125 -24.390625 C 19.117188 -23.972656 19.359375 -23.332031 19.421875 -22.46875 C 19.492188 -21.632812 19.300781 -20.957031 18.84375 -20.4375 C 18.394531 -19.925781 17.722656 -19.625 16.828125 -19.53125 L 15.734375 -19.421875 C 13.703125 -19.222656 12.171875 -18.597656 11.140625 -17.546875 C 10.109375 -16.503906 9.59375 -15.035156 9.59375 -13.140625 L 9.59375 -2.796875 C 9.59375 -1.765625 9.320312 -0.972656 8.78125 -0.421875 C 8.25 0.128906 7.46875 0.40625 6.4375 0.40625 Z M 6.4375 0.40625 "/></g></g></g><g fill="#000000" fill-opacity="1"><g transform="translate(478.524242, 100.084671)"><g><path d="M 12.078125 0.5 C 10.046875 0.5 8.363281 0.125 7.03125 -0.625 C 5.707031 -1.375 4.71875 -2.492188 4.0625 -3.984375 C 3.414062 -5.484375 3.09375 -7.351562 3.09375 -9.59375 L 3.09375 -21.671875 C 3.09375 -22.734375 3.359375 -23.519531 3.890625 -24.03125 C 4.421875 -24.550781 5.1875 -24.8125 6.1875 -24.8125 C 7.1875 -24.8125 7.960938 -24.550781 8.515625 -24.03125 C 9.066406 -23.519531 9.34375 -22.734375 9.34375 -21.671875 L 9.34375 -9.484375 C 9.34375 -7.753906 9.691406 -6.472656 10.390625 -5.640625 C 11.085938 -4.804688 12.203125 -4.390625 13.734375 -4.390625 C 15.398438 -4.390625 16.765625 -4.960938 17.828125 -6.109375 C 18.890625 -7.265625 19.421875 -8.789062 19.421875 -10.6875 L 19.421875 -21.671875 C 19.421875 -22.734375 19.6875 -23.519531 20.21875 -24.03125 C 20.757812 -24.550781 21.523438 -24.8125 22.515625 -24.8125 C 23.515625 -24.8125 24.289062 -24.550781 24.84375 -24.03125 C 25.394531 -23.519531 25.671875 -22.734375 25.671875 -21.671875 L 25.671875 -2.796875 C 25.671875 -0.660156 24.65625 0.40625 22.625 0.40625 C 21.65625 0.40625 20.90625 0.128906 20.375 -0.421875 C 19.84375 -0.972656 19.578125 -1.765625 19.578125 -2.796875 L 19.578125 -6.59375 L 20.28125 -5.09375 C 19.570312 -3.289062 18.507812 -1.90625 17.09375 -0.9375 C 15.6875 0.0195312 14.015625 0.5 12.078125 0.5 Z M 12.078125 0.5 "/></g></g></g><g fill="#000000" fill-opacity="1"><g transform="translate(507.435762, 100.084671)"><g><path d="M 6.34375 0.40625 C 5.34375 0.40625 4.578125 0.128906 4.046875 -0.421875 C 3.515625 -0.972656 3.25 -1.765625 3.25 -2.796875 L 3.25 -21.671875 C 3.25 -22.703125 3.515625 -23.484375 4.046875 -24.015625 C 4.578125 -24.546875 5.328125 -24.8125 6.296875 -24.8125 C 7.253906 -24.8125 8 -24.546875 8.53125 -24.015625 C 9.070312 -23.484375 9.34375 -22.703125 9.34375 -21.671875 L 9.34375 -18.28125 L 8.78125 -19.53125 C 9.519531 -21.289062 10.660156 -22.628906 12.203125 -23.546875 C 13.753906 -24.460938 15.515625 -24.921875 17.484375 -24.921875 C 19.441406 -24.921875 21.050781 -24.550781 22.3125 -23.8125 C 23.582031 -23.082031 24.535156 -21.976562 25.171875 -20.5 C 25.804688 -19.019531 26.125 -17.144531 26.125 -14.875 L 26.125 -2.796875 C 26.125 -1.765625 25.851562 -0.972656 25.3125 -0.421875 C 24.78125 0.128906 24.015625 0.40625 23.015625 0.40625 C 22.015625 0.40625 21.238281 0.128906 20.6875 -0.421875 C 20.144531 -0.972656 19.875 -1.765625 19.875 -2.796875 L 19.875 -14.578125 C 19.875 -16.472656 19.515625 -17.851562 18.796875 -18.71875 C 18.085938 -19.59375 16.984375 -20.03125 15.484375 -20.03125 C 13.648438 -20.03125 12.191406 -19.453125 11.109375 -18.296875 C 10.023438 -17.148438 9.484375 -15.628906 9.484375 -13.734375 L 9.484375 -2.796875 C 9.484375 -0.660156 8.4375 0.40625 6.34375 0.40625 Z M 6.34375 0.40625 "/></g></g></g><g fill="#000000" fill-opacity="1"><g transform="translate(536.646904, 100.084671)"><g><path d="M 14.625 9.484375 C 12.832031 9.484375 11.09375 9.316406 9.40625 8.984375 C 7.726562 8.648438 6.207031 8.132812 4.84375 7.4375 C 4.207031 7.101562 3.78125 6.703125 3.5625 6.234375 C 3.351562 5.773438 3.289062 5.300781 3.375 4.8125 C 3.457031 4.332031 3.65625 3.910156 3.96875 3.546875 C 4.28125 3.179688 4.671875 2.929688 5.140625 2.796875 C 5.609375 2.660156 6.09375 2.726562 6.59375 3 C 8.050781 3.726562 9.4375 4.203125 10.75 4.421875 C 12.070312 4.640625 13.195312 4.75 14.125 4.75 C 16.363281 4.75 18.039062 4.207031 19.15625 3.125 C 20.269531 2.039062 20.828125 0.429688 20.828125 -1.703125 L 20.828125 -6.1875 L 21.265625 -6.1875 C 20.773438 -4.488281 19.738281 -3.128906 18.15625 -2.109375 C 16.570312 -1.097656 14.78125 -0.59375 12.78125 -0.59375 C 10.582031 -0.59375 8.664062 -1.097656 7.03125 -2.109375 C 5.40625 -3.128906 4.140625 -4.554688 3.234375 -6.390625 C 2.335938 -8.222656 1.890625 -10.351562 1.890625 -12.78125 C 1.890625 -14.613281 2.148438 -16.269531 2.671875 -17.75 C 3.191406 -19.226562 3.925781 -20.5 4.875 -21.5625 C 5.820312 -22.632812 6.96875 -23.460938 8.3125 -24.046875 C 9.664062 -24.628906 11.15625 -24.921875 12.78125 -24.921875 C 14.84375 -24.921875 16.648438 -24.410156 18.203125 -23.390625 C 19.753906 -22.378906 20.757812 -21.039062 21.21875 -19.375 L 20.71875 -18.125 L 20.71875 -21.671875 C 20.71875 -22.703125 20.992188 -23.484375 21.546875 -24.015625 C 22.097656 -24.546875 22.851562 -24.8125 23.8125 -24.8125 C 24.8125 -24.8125 25.578125 -24.546875 26.109375 -24.015625 C 26.648438 -23.484375 26.921875 -22.703125 26.921875 -21.671875 L 26.921875 -2.453125 C 26.921875 1.515625 25.867188 4.492188 23.765625 6.484375 C 21.671875 8.484375 18.625 9.484375 14.625 9.484375 Z M 14.484375 -5.34375 C 15.773438 -5.34375 16.882812 -5.640625 17.8125 -6.234375 C 18.75 -6.835938 19.476562 -7.695312 20 -8.8125 C 20.519531 -9.925781 20.78125 -11.25 20.78125 -12.78125 C 20.78125 -15.082031 20.210938 -16.890625 19.078125 -18.203125 C 17.941406 -19.515625 16.410156 -20.171875 14.484375 -20.171875 C 13.179688 -20.171875 12.0625 -19.867188 11.125 -19.265625 C 10.195312 -18.671875 9.472656 -17.820312 8.953125 -16.71875 C 8.441406 -15.625 8.1875 -14.3125 8.1875 -12.78125 C 8.1875 -10.488281 8.75 -8.675781 9.875 -7.34375 C 11.007812 -6.007812 12.546875 -5.34375 14.484375 -5.34375 Z M 14.484375 -5.34375 "/></g></g></g><g fill="#000000" fill-opacity="1"><g transform="translate(566.80679, 100.084671)"><g><path d="M 6.234375 0.25 C 5.109375 0.25 4.203125 -0.0976562 3.515625 -0.796875 C 2.835938 -1.492188 2.5 -2.394531 2.5 -3.5 C 2.5 -4.5625 2.835938 -5.429688 3.515625 -6.109375 C 4.203125 -6.796875 5.109375 -7.140625 6.234375 -7.140625 C 7.398438 -7.140625 8.304688 -6.796875 8.953125 -6.109375 C 9.609375 -5.429688 9.9375 -4.5625 9.9375 -3.5 C 9.9375 -2.394531 9.609375 -1.492188 8.953125 -0.796875 C 8.304688 -0.0976562 7.398438 0.25 6.234375 0.25 Z M 6.234375 0.25 "/></g></g></g><g fill="#000000" fill-opacity="1"><g transform="translate(579.194242, 100.084671)"><g/></g></g></svg>