<svg xmlns="http://www.w3.org/2000/svg" xmlns:xlink="http://www.w3.org/1999/xlink" width="560" zoomAndPan="magnify" viewBox="0 0 420 67.499998" height="90" preserveAspectRatio="xMidYMid meet" version="1.0"><defs><g/><clipPath id="70ab3c194e"><path d="M 1.574219 0 L 418.125 0 L 418.125 66.863281 L 1.574219 66.863281 Z M 1.574219 0 " clip-rule="nonzero"/></clipPath></defs><g clip-path="url(#70ab3c194e)"><path stroke-linecap="butt" transform="matrix(0.744485, 0, 0, 0.744485, 1.573902, 0)" fill="none" stroke-linejoin="miter" d="M 0.000425837 0 L 559.515589 0 L 559.515589 89.811426 L 0.000425837 89.811426 Z M 0.000425837 0 " stroke="#000000" stroke-width="12" stroke-opacity="1" stroke-miterlimit="4"/></g><g fill="#000000" fill-opacity="1"><g transform="translate(92.087164, 43.859772)"><g><path d="M 4.890625 0.28125 C 4.179688 0.28125 3.632812 0.078125 3.25 -0.328125 C 2.863281 -0.734375 2.671875 -1.296875 2.671875 -2.015625 L 2.671875 -22.234375 C 2.671875 -22.972656 2.867188 -23.53125 3.265625 -23.90625 C 3.660156 -24.289062 4.21875 -24.484375 4.9375 -24.484375 L 13.296875 -24.484375 C 15.984375 -24.484375 18.054688 -23.8125 19.515625 -22.46875 C 20.972656 -21.125 21.703125 -19.25 21.703125 -16.84375 C 21.703125 -14.4375 20.972656 -12.554688 19.515625 -11.203125 C 18.054688 -9.847656 15.984375 -9.171875 13.296875 -9.171875 L 7.125 -9.171875 L 7.125 -2.015625 C 7.125 -1.296875 6.9375 -0.734375 6.5625 -0.328125 C 6.195312 0.078125 5.640625 0.28125 4.890625 0.28125 Z M 7.125 -12.671875 L 12.609375 -12.671875 C 14.179688 -12.671875 15.375 -13.023438 16.1875 -13.734375 C 17 -14.441406 17.40625 -15.476562 17.40625 -16.84375 C 17.40625 -18.207031 17 -19.238281 16.1875 -19.9375 C 15.375 -20.632812 14.179688 -20.984375 12.609375 -20.984375 L 7.125 -20.984375 Z M 7.125 -12.671875 "/></g></g></g><g fill="#000000" fill-opacity="1"><g transform="translate(114.734256, 43.859772)"><g><path d="M 4.890625 0.28125 C 4.179688 0.28125 3.632812 0.078125 3.25 -0.328125 C 2.863281 -0.734375 2.671875 -1.296875 2.671875 -2.015625 L 2.671875 -22.46875 C 2.671875 -23.207031 2.863281 -23.773438 3.25 -24.171875 C 3.632812 -24.566406 4.179688 -24.765625 4.890625 -24.765625 C 5.609375 -24.765625 6.160156 -24.566406 6.546875 -24.171875 C 6.929688 -23.773438 7.125 -23.207031 7.125 -22.46875 L 7.125 -2.015625 C 7.125 -1.296875 6.9375 -0.734375 6.5625 -0.328125 C 6.195312 0.078125 5.640625 0.28125 4.890625 0.28125 Z M 4.890625 0.28125 "/></g></g></g><g fill="#000000" fill-opacity="1"><g transform="translate(124.529469, 43.859772)"><g><path d="M 4.765625 0.28125 C 4.085938 0.28125 3.566406 0.0976562 3.203125 -0.265625 C 2.847656 -0.640625 2.671875 -1.175781 2.671875 -1.875 L 2.671875 -22.546875 C 2.671875 -23.265625 2.847656 -23.8125 3.203125 -24.1875 C 3.566406 -24.570312 4.039062 -24.765625 4.625 -24.765625 C 5.15625 -24.765625 5.550781 -24.664062 5.8125 -24.46875 C 6.082031 -24.269531 6.398438 -23.941406 6.765625 -23.484375 L 20.078125 -6.21875 L 19.171875 -6.21875 L 19.171875 -22.640625 C 19.171875 -23.316406 19.347656 -23.835938 19.703125 -24.203125 C 20.066406 -24.578125 20.582031 -24.765625 21.25 -24.765625 C 21.925781 -24.765625 22.4375 -24.578125 22.78125 -24.203125 C 23.132812 -23.835938 23.3125 -23.316406 23.3125 -22.640625 L 23.3125 -1.8125 C 23.3125 -1.15625 23.144531 -0.640625 22.8125 -0.265625 C 22.488281 0.0976562 22.050781 0.28125 21.5 0.28125 C 20.96875 0.28125 20.546875 0.175781 20.234375 -0.03125 C 19.921875 -0.238281 19.578125 -0.578125 19.203125 -1.046875 L 5.9375 -18.3125 L 6.8125 -18.3125 L 6.8125 -1.875 C 6.8125 -1.175781 6.632812 -0.640625 6.28125 -0.265625 C 5.9375 0.0976562 5.429688 0.28125 4.765625 0.28125 Z M 4.765625 0.28125 "/></g></g></g><g fill="#000000" fill-opacity="1"><g transform="translate(150.511102, 43.859772)"><g><path d="M 10.796875 0.28125 C 10.078125 0.28125 9.523438 0.078125 9.140625 -0.328125 C 8.765625 -0.734375 8.578125 -1.296875 8.578125 -2.015625 L 8.578125 -20.765625 L 1.8125 -20.765625 C 1.207031 -20.765625 0.734375 -20.929688 0.390625 -21.265625 C 0.0546875 -21.609375 -0.109375 -22.066406 -0.109375 -22.640625 C -0.109375 -23.242188 0.0546875 -23.703125 0.390625 -24.015625 C 0.734375 -24.328125 1.207031 -24.484375 1.8125 -24.484375 L 19.796875 -24.484375 C 20.398438 -24.484375 20.867188 -24.328125 21.203125 -24.015625 C 21.535156 -23.703125 21.703125 -23.242188 21.703125 -22.640625 C 21.703125 -22.066406 21.535156 -21.609375 21.203125 -21.265625 C 20.867188 -20.929688 20.398438 -20.765625 19.796875 -20.765625 L 13.03125 -20.765625 L 13.03125 -2.015625 C 13.03125 -1.296875 12.84375 -0.734375 12.46875 -0.328125 C 12.09375 0.078125 11.535156 0.28125 10.796875 0.28125 Z M 10.796875 0.28125 "/></g></g></g><g fill="#000000" fill-opacity="1"><g transform="translate(172.081419, 43.859772)"><g><path d="M 12.859375 0.34375 C 11.160156 0.34375 9.664062 0.125 8.375 -0.3125 C 7.09375 -0.75 6.015625 -1.398438 5.140625 -2.265625 C 4.265625 -3.140625 3.601562 -4.222656 3.15625 -5.515625 C 2.71875 -6.816406 2.5 -8.320312 2.5 -10.03125 L 2.5 -22.515625 C 2.5 -23.273438 2.6875 -23.835938 3.0625 -24.203125 C 3.445312 -24.578125 4 -24.765625 4.71875 -24.765625 C 5.4375 -24.765625 5.988281 -24.578125 6.375 -24.203125 C 6.757812 -23.835938 6.953125 -23.273438 6.953125 -22.515625 L 6.953125 -10.078125 C 6.953125 -7.867188 7.453125 -6.210938 8.453125 -5.109375 C 9.460938 -4.015625 10.929688 -3.46875 12.859375 -3.46875 C 14.773438 -3.46875 16.226562 -4.015625 17.21875 -5.109375 C 18.21875 -6.210938 18.71875 -7.867188 18.71875 -10.078125 L 18.71875 -22.515625 C 18.71875 -23.273438 18.910156 -23.835938 19.296875 -24.203125 C 19.679688 -24.578125 20.226562 -24.765625 20.9375 -24.765625 C 21.632812 -24.765625 22.175781 -24.578125 22.5625 -24.203125 C 22.945312 -23.835938 23.140625 -23.273438 23.140625 -22.515625 L 23.140625 -10.03125 C 23.140625 -7.769531 22.75 -5.863281 21.96875 -4.3125 C 21.195312 -2.757812 20.046875 -1.59375 18.515625 -0.8125 C 16.984375 -0.0390625 15.097656 0.34375 12.859375 0.34375 Z M 12.859375 0.34375 "/></g></g></g><g fill="#000000" fill-opacity="1"><g transform="translate(197.715698, 43.859772)"><g><path d="M 4.9375 0 C 4.21875 0 3.660156 -0.203125 3.265625 -0.609375 C 2.867188 -1.015625 2.671875 -1.578125 2.671875 -2.296875 L 2.671875 -22.328125 C 2.671875 -23.078125 2.863281 -23.640625 3.25 -24.015625 C 3.632812 -24.398438 4.179688 -24.59375 4.890625 -24.59375 C 5.609375 -24.59375 6.160156 -24.398438 6.546875 -24.015625 C 6.929688 -23.640625 7.125 -23.078125 7.125 -22.328125 L 7.125 -3.78125 L 17.1875 -3.78125 C 17.8125 -3.78125 18.289062 -3.617188 18.625 -3.296875 C 18.96875 -2.972656 19.140625 -2.507812 19.140625 -1.90625 C 19.140625 -1.300781 18.96875 -0.832031 18.625 -0.5 C 18.289062 -0.164062 17.8125 0 17.1875 0 Z M 4.9375 0 "/></g></g></g><g fill="#000000" fill-opacity="1"><g transform="translate(217.236659, 43.859772)"><g><path d="M 5.03125 0 C 4.269531 0 3.6875 -0.203125 3.28125 -0.609375 C 2.875 -1.015625 2.671875 -1.597656 2.671875 -2.359375 L 2.671875 -22.125 C 2.671875 -22.882812 2.875 -23.46875 3.28125 -23.875 C 3.6875 -24.28125 4.269531 -24.484375 5.03125 -24.484375 L 17.4375 -24.484375 C 18.019531 -24.484375 18.46875 -24.332031 18.78125 -24.03125 C 19.09375 -23.726562 19.25 -23.300781 19.25 -22.75 C 19.25 -22.164062 19.09375 -21.71875 18.78125 -21.40625 C 18.46875 -21.09375 18.019531 -20.9375 17.4375 -20.9375 L 6.953125 -20.9375 L 6.953125 -14.203125 L 16.671875 -14.203125 C 17.273438 -14.203125 17.726562 -14.050781 18.03125 -13.75 C 18.332031 -13.445312 18.484375 -13.007812 18.484375 -12.4375 C 18.484375 -11.851562 18.332031 -11.410156 18.03125 -11.109375 C 17.726562 -10.804688 17.273438 -10.65625 16.671875 -10.65625 L 6.953125 -10.65625 L 6.953125 -3.546875 L 17.4375 -3.546875 C 18.019531 -3.546875 18.46875 -3.394531 18.78125 -3.09375 C 19.09375 -2.789062 19.25 -2.347656 19.25 -1.765625 C 19.25 -1.191406 19.09375 -0.753906 18.78125 -0.453125 C 18.46875 -0.148438 18.019531 0 17.4375 0 Z M 5.03125 0 "/></g></g></g><g fill="#000000" fill-opacity="1"><g transform="translate(237.973338, 43.859772)"><g><path d="M 4.765625 0.28125 C 4.109375 0.28125 3.609375 0.0976562 3.265625 -0.265625 C 2.921875 -0.640625 2.75 -1.15625 2.75 -1.8125 L 2.75 -22.6875 C 2.75 -23.351562 2.929688 -23.863281 3.296875 -24.21875 C 3.671875 -24.582031 4.179688 -24.765625 4.828125 -24.765625 C 5.410156 -24.765625 5.867188 -24.65625 6.203125 -24.4375 C 6.535156 -24.21875 6.84375 -23.84375 7.125 -23.3125 L 15.703125 -7.4375 L 14.59375 -7.4375 L 23.171875 -23.3125 C 23.441406 -23.84375 23.738281 -24.21875 24.0625 -24.4375 C 24.394531 -24.65625 24.847656 -24.765625 25.421875 -24.765625 C 26.066406 -24.765625 26.5625 -24.582031 26.90625 -24.21875 C 27.257812 -23.863281 27.4375 -23.351562 27.4375 -22.6875 L 27.4375 -1.8125 C 27.4375 -1.15625 27.269531 -0.640625 26.9375 -0.265625 C 26.601562 0.0976562 26.097656 0.28125 25.421875 0.28125 C 24.773438 0.28125 24.273438 0.0976562 23.921875 -0.265625 C 23.578125 -0.640625 23.40625 -1.15625 23.40625 -1.8125 L 23.40625 -17.890625 L 24.171875 -17.890625 L 16.875 -4.578125 C 16.644531 -4.191406 16.398438 -3.90625 16.140625 -3.71875 C 15.890625 -3.53125 15.546875 -3.4375 15.109375 -3.4375 C 14.671875 -3.4375 14.3125 -3.535156 14.03125 -3.734375 C 13.75 -3.929688 13.503906 -4.210938 13.296875 -4.578125 L 5.9375 -17.921875 L 6.765625 -17.921875 L 6.765625 -1.8125 C 6.765625 -1.15625 6.597656 -0.640625 6.265625 -0.265625 C 5.929688 0.0976562 5.429688 0.28125 4.765625 0.28125 Z M 4.765625 0.28125 "/></g></g></g><g fill="#000000" fill-opacity="1"><g transform="translate(268.12315, 43.859772)"><g><path d="M 2.921875 0.28125 C 2.359375 0.28125 1.910156 0.15625 1.578125 -0.09375 C 1.242188 -0.351562 1.039062 -0.695312 0.96875 -1.125 C 0.90625 -1.550781 0.988281 -2.035156 1.21875 -2.578125 L 10.390625 -22.890625 C 10.691406 -23.554688 11.054688 -24.035156 11.484375 -24.328125 C 11.910156 -24.617188 12.398438 -24.765625 12.953125 -24.765625 C 13.484375 -24.765625 13.960938 -24.617188 14.390625 -24.328125 C 14.828125 -24.035156 15.191406 -23.554688 15.484375 -22.890625 L 24.703125 -2.578125 C 24.953125 -2.035156 25.039062 -1.546875 24.96875 -1.109375 C 24.90625 -0.671875 24.707031 -0.328125 24.375 -0.078125 C 24.050781 0.160156 23.625 0.28125 23.09375 0.28125 C 22.445312 0.28125 21.941406 0.125 21.578125 -0.1875 C 21.222656 -0.5 20.90625 -0.976562 20.625 -1.625 L 18.375 -6.875 L 20.25 -5.65625 L 5.59375 -5.65625 L 7.46875 -6.875 L 5.25 -1.625 C 4.945312 -0.957031 4.632812 -0.472656 4.3125 -0.171875 C 3.988281 0.128906 3.523438 0.28125 2.921875 0.28125 Z M 12.890625 -19.65625 L 8.03125 -8.09375 L 7.125 -9.203125 L 18.71875 -9.203125 L 17.859375 -8.09375 L 12.953125 -19.65625 Z M 12.890625 -19.65625 "/></g></g></g><g fill="#000000" fill-opacity="1"><g transform="translate(293.96585, 43.859772)"><g><path d="M 4.890625 0.28125 C 4.179688 0.28125 3.632812 0.078125 3.25 -0.328125 C 2.863281 -0.734375 2.671875 -1.296875 2.671875 -2.015625 L 2.671875 -22.234375 C 2.671875 -22.972656 2.867188 -23.53125 3.265625 -23.90625 C 3.660156 -24.289062 4.21875 -24.484375 4.9375 -24.484375 L 13.296875 -24.484375 C 15.984375 -24.484375 18.054688 -23.835938 19.515625 -22.546875 C 20.972656 -21.265625 21.703125 -19.46875 21.703125 -17.15625 C 21.703125 -15.65625 21.375 -14.359375 20.71875 -13.265625 C 20.0625 -12.179688 19.109375 -11.347656 17.859375 -10.765625 C 16.609375 -10.191406 15.085938 -9.90625 13.296875 -9.90625 L 13.609375 -10.421875 L 14.765625 -10.421875 C 15.710938 -10.421875 16.539062 -10.1875 17.25 -9.71875 C 17.957031 -9.257812 18.578125 -8.53125 19.109375 -7.53125 L 21.703125 -2.703125 C 21.984375 -2.222656 22.113281 -1.75 22.09375 -1.28125 C 22.070312 -0.820312 21.894531 -0.445312 21.5625 -0.15625 C 21.238281 0.132812 20.765625 0.28125 20.140625 0.28125 C 19.515625 0.28125 19.003906 0.148438 18.609375 -0.109375 C 18.222656 -0.378906 17.878906 -0.796875 17.578125 -1.359375 L 14.0625 -7.8125 C 13.644531 -8.601562 13.148438 -9.128906 12.578125 -9.390625 C 12.015625 -9.660156 11.296875 -9.796875 10.421875 -9.796875 L 7.125 -9.796875 L 7.125 -2.015625 C 7.125 -1.296875 6.9375 -0.734375 6.5625 -0.328125 C 6.195312 0.078125 5.640625 0.28125 4.890625 0.28125 Z M 7.125 -13.09375 L 12.546875 -13.09375 C 14.140625 -13.09375 15.347656 -13.421875 16.171875 -14.078125 C 16.992188 -14.742188 17.40625 -15.734375 17.40625 -17.046875 C 17.40625 -18.347656 16.992188 -19.328125 16.171875 -19.984375 C 15.347656 -20.648438 14.140625 -20.984375 12.546875 -20.984375 L 7.125 -20.984375 Z M 7.125 -13.09375 "/></g></g></g><g fill="#000000" fill-opacity="1"><g transform="translate(317.793922, 43.859772)"><g><path d="M 4.890625 0.28125 C 4.179688 0.28125 3.632812 0.078125 3.25 -0.328125 C 2.863281 -0.734375 2.671875 -1.296875 2.671875 -2.015625 L 2.671875 -22.46875 C 2.671875 -23.207031 2.863281 -23.773438 3.25 -24.171875 C 3.632812 -24.566406 4.179688 -24.765625 4.890625 -24.765625 C 5.609375 -24.765625 6.160156 -24.566406 6.546875 -24.171875 C 6.929688 -23.773438 7.125 -23.207031 7.125 -22.46875 L 7.125 -2.015625 C 7.125 -1.296875 6.9375 -0.734375 6.5625 -0.328125 C 6.195312 0.078125 5.640625 0.28125 4.890625 0.28125 Z M 4.890625 0.28125 "/></g></g></g></svg>