<svg width="299" height="127" viewBox="0 0 299 127" fill="none" xmlns="http://www.w3.org/2000/svg">
<g filter="url(#filter0_d_152_1323)">
<path d="M11.8409 95.9911C11.7266 95.6745 11.7025 94.548 11.7684 92.6117C11.8344 90.6753 11.9174 88.2392 12.0174 85.3034C12.1799 82.3697 12.3541 79.0925 12.54 75.4718C12.7905 71.7906 13.0109 68.0772 13.201 64.3315C13.4558 60.5255 13.7063 56.8444 13.9525 53.2882C14.2009 49.6696 14.4042 46.4559 14.5624 43.6472C14.7831 40.8405 14.9545 38.5638 15.0765 36.817C15.2007 35.0076 15.2962 34.0416 15.3629 33.9188C15.4339 33.6711 15.7363 33.056 16.27 32.0736C16.8038 31.0912 17.4011 30.0797 18.0619 29.0391C18.7873 27.9382 19.5074 26.9934 20.2222 26.2048C20.9391 25.3537 21.5463 24.9679 22.0439 25.0474C22.2291 25.1162 22.3427 26.3708 22.3847 28.8112C22.4912 31.1912 22.543 34.2572 22.5403 38.0093C22.6 41.7635 22.5834 45.9216 22.4905 50.4836C22.4622 54.9852 22.4058 59.3921 22.3214 63.7043C22.3016 67.956 22.2634 71.832 22.2067 75.3321C22.1521 78.7697 22.1283 81.3016 22.1355 82.9278C24.1279 83.1833 26.1214 83.4076 28.116 83.6006C30.1731 83.7958 32.0104 84.0147 33.6281 84.2574C35.2479 84.4377 36.5554 84.6073 37.5505 84.7663C38.6082 84.9274 39.1672 85.0403 39.2275 85.1049C39.4064 85.3611 39.636 85.963 39.9164 86.9106C40.2614 87.7979 40.5719 88.7778 40.8481 89.8503C41.1264 90.8604 41.3131 91.8048 41.4082 92.6835C41.5658 93.5644 41.5165 94.0943 41.2602 94.2731C34.0322 95.3401 28.4431 96.0252 24.493 96.3284C20.5429 96.6315 17.6309 96.7512 15.757 96.6873C13.5707 96.6129 12.2654 96.3808 11.8409 95.9911ZM119.681 99.7593C119.544 100.13 119.149 100.71 118.496 101.501C117.844 102.292 117.066 103.11 116.161 103.954C115.257 104.799 114.356 105.55 113.458 106.207C112.56 106.865 111.827 107.277 111.259 107.446C109.996 107.778 108.657 107.638 107.239 107.027C105.882 106.481 104.562 105.748 103.28 104.829C102.061 103.912 100.999 102.969 100.094 102C99.1866 101.093 98.6155 100.417 98.3805 99.9715C98.2081 99.5279 98.0409 98.9281 97.879 98.1722C97.7796 97.4183 97.7115 96.6656 97.6746 95.9139C97.6376 95.1622 97.6589 94.5376 97.7384 94.04C97.8825 93.4821 98.1107 93.2084 98.423 93.2191C98.7353 93.2297 99.443 93.5665 100.546 94.2294C101.714 94.8321 102.912 95.467 104.14 96.1342C105.43 96.8035 106.631 97.3447 107.743 97.7578C108.854 98.1709 109.543 98.1318 109.81 97.6406C110.075 97.2119 110.335 96.0013 110.591 94.0089C110.911 91.9561 111.277 89.4671 111.689 86.5419C111.564 86.5377 111.438 86.5647 111.311 86.6229C111.249 86.6207 111.155 86.6175 111.03 86.6133C110.462 86.7815 109.678 86.8486 108.678 86.8146C107.679 86.7805 106.619 86.6819 105.499 86.5186C104.441 86.3575 103.387 86.1027 102.336 85.7542C101.349 85.3454 100.553 84.8492 99.9475 84.2658C99.7062 84.0074 99.4379 83.6231 99.1426 83.1127C98.9119 82.542 98.749 81.8173 98.6538 80.9386C98.4792 80.5574 98.2031 79.4849 97.8254 77.721C97.4499 75.8946 97.0818 73.8497 96.7212 71.5861C96.3627 69.26 96.0354 66.935 95.7394 64.6111C95.5058 62.2893 95.4749 60.4434 95.6466 59.0735C95.7559 57.7014 96.0537 56.3045 96.5399 54.8827C97.0282 53.3985 97.5758 52.0101 98.1827 50.7175C98.852 49.427 99.5462 48.325 100.265 47.4115C100.986 46.4355 101.697 45.7718 102.397 45.4204C103.921 44.7219 105.801 44.6296 108.034 45.1435C110.268 45.6573 112.644 46.5825 115.163 47.9191C115.247 47.2966 115.551 46.619 116.076 45.8865C116.602 45.154 117.186 44.5172 117.83 43.9764C118.538 43.3751 119.24 42.9613 119.936 42.7348C120.634 42.4459 121.166 42.4328 121.532 42.6954C121.715 42.8267 121.841 43.7065 121.911 45.3349C121.983 46.9007 122.006 48.9652 121.981 51.5284C122.021 54.0312 121.986 56.9066 121.875 60.1547C121.829 63.3425 121.716 66.6531 121.537 70.0865C121.422 73.4595 121.277 76.8003 121.101 80.1087C120.989 83.4193 120.823 86.4467 120.604 89.1908C120.448 91.9371 120.276 94.245 120.087 96.1147C119.961 97.9865 119.825 99.2013 119.681 99.7593ZM114.639 55.0304C114.273 54.7677 113.844 54.503 113.353 54.2361C112.924 53.9713 112.433 53.7045 111.879 53.4355C111.326 53.1664 110.708 52.9265 110.028 52.7157C109.72 52.5802 109.278 52.6902 108.703 53.0458C108.191 53.4036 107.642 53.9164 107.056 54.5844C106.533 55.2545 106.067 56.0828 105.658 57.0695C105.251 57.9937 105.03 58.9867 104.994 60.0486C104.99 60.1735 105.001 60.768 105.027 61.832C105.053 62.896 105.103 64.1797 105.177 65.6831C105.251 67.1865 105.321 68.8148 105.386 70.568C105.451 72.3213 105.521 73.9496 105.595 75.453C105.731 76.9585 105.843 78.2443 105.932 79.3105C106.023 80.3141 106.099 80.8483 106.159 80.9129C106.4 81.1712 106.74 81.3079 107.177 81.3228C107.677 81.3398 108.147 81.2933 108.589 81.1832C109.093 81.0753 109.535 80.9341 109.916 80.7595C110.298 80.5848 110.584 80.4383 110.776 80.3197C111.607 79.7852 112.144 78.7091 112.387 77.0915C112.516 76.9708 112.59 76.6294 112.609 76.0672C112.937 71.951 113.251 68.2408 113.551 64.9366C113.853 61.5699 114.216 58.2678 114.639 55.0304ZM137.272 57.021C137.386 57.3375 137.415 58.3391 137.357 60.0256C137.364 61.6518 137.296 63.6506 137.153 66.0221C137.074 68.3333 136.927 70.8297 136.71 73.5114C136.496 76.1306 136.254 78.6238 135.986 80.9911C135.783 83.298 135.558 85.2915 135.313 86.9716C135.071 88.5893 134.85 89.5511 134.652 89.8571C134.06 90.7124 133.198 91.2458 132.065 91.4574C130.934 91.6065 130.121 91.61 129.626 91.4681C129.376 91.4596 129.119 90.7316 128.856 89.2843C128.655 87.8392 128.467 86.0192 128.291 83.8245C128.116 81.6297 127.978 79.2486 127.878 76.6812C127.778 74.1138 127.705 71.6724 127.659 69.357C127.615 66.9791 127.622 64.9157 127.682 63.1667C127.742 61.4177 127.842 60.2955 127.984 59.8001C128.199 58.9944 128.755 58.2942 129.651 57.6993C130.609 57.1066 131.593 56.6711 132.603 56.3929C133.676 56.1167 134.648 56.0248 135.52 56.1171C136.457 56.149 137.041 56.4503 137.272 57.021ZM138.258 41.8582C138.49 42.3665 138.561 43.0568 138.468 43.9291C138.439 44.8036 138.314 45.7061 138.095 46.6367C137.875 47.5673 137.595 48.4645 137.253 49.3283C136.91 50.1922 136.575 50.8687 136.245 51.3577C135.591 52.2109 134.635 52.7412 133.377 52.9485C132.184 53.0954 131.308 53.0969 130.75 52.9528C130.315 52.8754 129.888 52.5794 129.467 52.0648C129.049 51.4878 128.697 50.8191 128.41 50.0589C128.125 49.2362 127.937 48.3543 127.844 47.4131C127.751 46.4719 127.812 45.5984 128.027 44.7928C128.242 43.9872 128.86 43.289 129.88 42.6985C130.903 42.0454 131.982 41.5819 133.117 41.3079C134.254 40.9714 135.321 40.8514 136.319 40.9479C137.318 40.982 137.964 41.2854 138.258 41.8582ZM159.945 46.8184C159.704 46.56 159.181 46.2921 158.378 46.0145C157.574 45.737 157.009 45.8116 156.682 46.2382C156.486 46.4816 156.146 47.283 155.662 48.6423C155.178 50.0016 154.65 51.7346 154.077 53.8414C153.568 55.9503 153.079 58.3725 152.61 61.1081C152.204 63.8459 151.951 66.6827 151.851 69.6185C151.779 71.7423 151.804 73.7755 151.925 75.7183C152.049 77.5986 152.211 79.2613 152.412 80.7065C152.675 82.1538 152.979 83.3211 153.324 84.2084C153.732 85.0977 154.153 85.5811 154.588 85.6585C154.963 85.6712 155.415 85.2489 155.944 84.3914C156.536 83.5361 157.101 82.5548 157.639 81.4474C158.242 80.2798 158.748 79.2026 159.157 78.216C159.63 77.169 159.966 76.4925 160.164 76.1866C160.691 75.3916 161.37 74.7268 162.202 74.1923C163.035 73.5954 163.733 73.3065 164.295 73.3256C164.607 73.3363 164.818 73.5623 164.928 74.0038C165.101 74.4475 165.208 74.9827 165.249 75.6094C165.355 76.1759 165.397 76.7714 165.376 77.396C165.354 78.0207 165.337 78.5204 165.325 78.8952C165.301 79.5823 165.133 80.8585 164.819 82.7239C164.505 84.5893 164.066 86.4817 163.5 88.401C162.997 90.3225 162.407 92.0222 161.731 93.5C161.118 94.98 160.469 95.6771 159.784 95.5912C159.099 95.5053 158.079 95.1579 156.724 94.5489C155.369 93.9399 153.986 93.2361 152.575 92.4376C151.226 91.6412 149.971 90.848 148.81 90.058C147.713 89.2077 147.047 88.5596 146.812 88.1139C146.577 87.6681 146.239 86.5935 145.797 84.8899C145.356 83.1239 144.898 80.982 144.421 78.4643C144.006 75.9488 143.663 73.1855 143.39 70.1744C143.117 67.1634 143.032 64.1588 143.134 61.1605C143.237 58.1622 143.4 55.1973 143.625 52.2658C143.912 49.3364 144.283 46.7225 144.736 44.4241C145.19 42.1257 145.722 40.2678 146.333 38.8502C147.007 37.4349 147.782 36.7108 148.659 36.6782C151.103 36.5113 153.532 36.8129 155.945 37.583C158.422 38.2928 160.61 39.2429 162.508 40.4332C164.47 41.5632 166.055 42.7741 167.262 44.0659C168.471 45.2953 169.092 46.3171 169.127 47.1312C169.16 48.0078 169.056 49.2238 168.815 50.779C168.637 52.3363 168.364 53.9217 167.997 55.5351C167.694 57.0882 167.332 58.5142 166.913 59.8132C166.558 61.0518 166.252 61.7606 165.996 61.9394C165.415 62.4825 164.739 63.0535 163.968 63.6526C163.197 64.2517 162.474 64.3522 161.8 63.954C161.554 63.8205 161.352 63.3446 161.192 62.5262C161.034 61.6453 160.883 60.5771 160.738 59.3214C160.656 58.0679 160.577 56.7206 160.501 55.2797C160.425 53.8388 160.345 52.5228 160.26 51.3317C160.24 50.0803 160.182 49.0465 160.084 48.2302C160.052 47.3536 160.005 46.883 159.945 46.8184ZM172.342 101.46C172.227 101.143 172.203 100.017 172.269 98.0803C172.335 96.1439 172.418 93.7078 172.518 90.772C172.681 87.8383 172.855 84.5611 173.041 80.9403C173.291 77.2592 173.511 73.5458 173.702 69.8001C173.956 65.9941 174.207 62.313 174.453 58.7568C174.701 55.1382 174.905 51.9245 175.063 49.1158C175.284 46.3091 175.455 44.0324 175.577 42.2856C175.701 40.4762 175.797 39.5102 175.864 39.3874C175.934 39.1396 176.237 38.5246 176.771 37.5422C177.304 36.5598 177.902 35.5483 178.562 34.5077C179.288 33.4068 180.008 32.462 180.723 31.6734C181.44 30.8223 182.047 30.4365 182.544 30.516C182.73 30.5848 182.843 31.8394 182.885 34.2798C182.992 36.6598 183.044 39.7258 183.041 43.4779C183.101 47.2321 183.084 51.3902 182.991 55.9522C182.963 60.4538 182.906 64.8607 182.822 69.1729C182.802 73.4246 182.764 77.3006 182.707 80.8007C182.653 84.2383 182.629 86.7702 182.636 88.3964C184.629 88.6519 186.622 88.8762 188.617 89.0692C190.674 89.2644 192.511 89.4833 194.129 89.726C195.749 89.9063 197.056 90.0759 198.051 90.2349C199.109 90.396 199.668 90.5089 199.728 90.5735C199.907 90.8297 200.137 91.4316 200.417 92.3792C200.762 93.2665 201.073 94.2464 201.349 95.3189C201.627 96.329 201.814 97.2734 201.909 98.1521C202.066 99.033 202.017 99.5629 201.761 99.7417C194.533 100.809 188.944 101.494 184.994 101.797C181.044 102.1 178.131 102.22 176.258 102.156C174.071 102.081 172.766 101.849 172.342 101.46ZM227.995 51.1069C228.355 51.5569 228.682 52.0371 228.977 52.5474C229.275 52.9953 229.535 53.6295 229.757 54.4501C229.981 55.2081 230.135 56.2139 230.217 57.4675C230.362 58.7231 230.4 60.3504 230.332 62.3492C230.223 65.5349 230.02 68.7486 229.722 71.9903C229.489 75.1717 229.268 77.9783 229.06 80.4101C228.923 82.5942 228.791 84.6222 228.665 86.494C228.539 88.3657 228.42 90.0189 228.308 91.4534C228.199 92.8255 228.068 93.9154 227.916 94.7232C227.826 95.5331 227.748 95.9682 227.684 96.0286C227.427 96.2074 227.023 96.1311 226.472 95.7997C225.985 95.4079 225.439 94.9202 224.833 94.3368C224.29 93.7554 223.78 93.144 223.301 92.5023C222.823 91.8606 222.527 91.3503 222.415 90.9712C222.426 90.6589 222.363 89.75 222.227 88.2445C220.698 89.0679 219.021 89.6361 217.197 89.9492C215.375 90.1998 213.559 90.263 211.75 90.1388C210.005 89.9543 208.393 89.5554 206.913 88.9422C205.433 88.3289 204.334 87.541 203.616 86.5785C203.317 86.1931 203.055 85.6214 202.831 84.8633C202.669 84.1073 202.51 83.2577 202.355 82.3144C202.264 81.3107 202.174 80.2758 202.085 79.2096C201.999 78.081 201.94 77.0472 201.909 76.1081C201.868 73.6678 202.251 71.5859 203.06 69.8624C203.872 68.0765 205.292 66.7804 207.32 65.974C208.207 65.629 209.369 65.481 210.806 65.5299C212.307 65.5185 213.773 65.631 215.203 65.8673C216.698 66.0434 218.035 66.2765 219.213 66.5668C220.394 66.7946 221.138 66.9763 221.446 67.1119C221.305 63.9177 221.211 61.1629 221.165 58.8475C221.121 56.4696 220.923 54.9308 220.571 54.2309C220.274 53.783 219.914 53.333 219.492 52.8808C219.128 52.5558 218.64 52.1952 218.028 51.7991C217.416 51.4031 216.676 51.0964 215.808 50.8792C215.125 50.7309 214.491 50.9907 213.905 51.6587C213.384 52.2663 212.877 53.3746 212.385 54.9838C211.957 56.5326 211.656 58.93 211.483 62.176C209.295 62.164 207.608 62.1065 206.424 62.0036C205.304 61.8404 204.465 61.6867 203.907 61.5427C203.224 61.3943 202.823 61.2243 202.705 61.0327C202.588 60.7786 202.681 59.875 202.984 58.3219C203.29 56.7063 203.693 54.9691 204.194 53.1101C204.757 51.2532 205.38 49.4921 206.062 47.8269C206.807 46.1638 207.561 45.1263 208.326 44.7146C209.855 43.8912 211.646 43.6396 213.699 43.9596C215.814 44.2819 217.857 44.883 219.828 45.7632C221.799 46.6433 223.549 47.6097 225.076 48.6623C226.604 49.7149 227.577 50.5298 227.995 51.1069ZM221.253 78.2681C221.264 77.9557 221.309 77.5508 221.389 77.0532C221.47 76.4932 221.521 75.932 221.54 75.3699C221.559 74.8077 221.546 74.2757 221.5 73.7739C221.517 73.2741 221.468 72.8972 221.351 72.6431C221.177 72.262 220.625 71.9305 219.697 71.6487C218.831 71.3691 217.837 71.1788 216.714 71.0781C215.594 70.9148 214.533 70.8474 213.532 70.8758C212.532 70.8418 211.841 70.9433 211.458 71.1804C210.947 71.4757 210.558 71.9002 210.289 72.4538C210.082 73.0096 209.927 73.8798 209.825 75.0645C209.805 75.6267 209.816 76.2212 209.858 76.8479C209.899 77.4747 209.94 78.1015 209.981 78.7282C210.087 79.2947 210.195 79.7986 210.305 80.2401C210.477 80.6838 210.655 80.9712 210.838 81.1025C211.265 81.4298 212.005 81.7364 213.058 82.0224C214.176 82.2481 215.298 82.3489 216.425 82.3247C217.554 82.2381 218.597 81.8985 219.555 81.3057C220.513 80.713 221.079 79.7005 221.253 78.2681ZM262.976 62.3358C262.942 63.3353 262.768 64.7677 262.455 66.6331C262.203 68.5006 261.852 70.5523 261.401 72.7882C260.951 74.9617 260.468 77.2278 259.95 79.5865C259.496 81.8849 259.018 83.9948 258.515 85.9163C258.074 87.8399 257.675 89.4523 257.318 90.7534C257.023 92.0566 256.843 92.7696 256.776 92.8924C256.645 93.0755 256.297 93.1888 255.733 93.2321C255.233 93.2151 254.642 93.1324 253.959 92.984C253.338 92.8378 252.751 92.6302 252.198 92.3612C251.706 92.0943 251.405 91.7714 251.293 91.3923C251.239 91.1403 251.237 90.2648 251.288 88.7657C251.402 87.2687 251.525 85.4906 251.658 83.4314C251.855 81.3119 252.057 79.0674 252.262 76.6981C252.47 74.2662 252.672 72.0218 252.867 69.9648C253.127 67.8474 253.313 66.0402 253.427 64.5432C253.603 63.0483 253.696 62.1447 253.707 61.8324C253.745 60.708 253.656 59.6419 253.441 58.634C253.289 57.5657 253.07 56.6515 252.784 55.8913C252.497 55.1311 252.141 54.5561 251.717 54.1664C251.357 53.7164 251.019 53.5485 250.702 53.6628C249.886 53.7601 249.191 53.9553 248.618 54.2485C248.048 54.4792 247.57 54.7443 247.184 55.0438C246.734 55.4037 246.376 55.8293 246.109 56.3205C246.042 56.4433 245.904 56.8138 245.696 57.432C245.55 58.0524 245.463 58.7686 245.435 59.5807C245.426 59.8305 245.396 60.7362 245.342 62.2978C245.291 63.797 245.198 65.6073 245.064 67.729C244.991 69.8528 244.881 72.1628 244.734 74.6593C244.651 77.0954 244.542 79.3742 244.407 81.4959C244.337 83.5572 244.245 85.3363 244.131 86.8333C244.018 88.3303 243.926 89.1715 243.858 89.3567C243.72 89.7272 243.39 90.2475 242.866 90.9176C242.345 91.5252 241.763 92.0995 241.119 92.6404C240.475 93.1813 239.867 93.5983 239.294 93.8915C238.724 94.1222 238.351 94.0469 238.176 93.6658C237.995 93.472 237.839 92.5599 237.707 90.9294C237.577 89.2365 237.427 87.199 237.258 84.8169C237.154 82.3744 237.025 79.7435 236.871 76.9241C236.719 74.0422 236.594 71.2864 236.496 68.6565C236.398 66.0267 236.322 63.6477 236.27 61.5197C236.217 59.3917 236.176 57.8581 236.145 56.919C236.127 55.6052 236.115 54.1351 236.108 52.5089C236.103 50.8203 236.094 49.2566 236.08 47.8178C236.131 46.3187 236.175 45.0381 236.211 43.9763C236.312 42.854 236.46 42.1712 236.656 41.9277C236.789 41.6821 237.198 41.6335 237.88 41.7818C238.626 41.9323 239.398 42.2088 240.197 42.6112C241.061 42.9533 241.859 43.387 242.592 43.9123C243.327 44.375 243.811 44.8293 244.046 45.2751C244.158 45.6541 244.3 46.0967 244.47 46.6028C244.643 47.0464 244.773 47.8013 244.862 48.8674C245.945 48.279 247.12 47.7562 248.386 47.299C249.655 46.7794 250.886 46.4149 252.082 46.2055C253.342 45.9357 254.532 45.8825 255.652 46.0457C256.774 46.1465 257.763 46.4929 258.618 47.0848C259.165 47.5412 259.702 48.3099 260.228 49.391C260.817 50.4742 261.305 51.7415 261.693 53.1931C262.144 54.6468 262.467 56.1899 262.661 57.8225C262.92 59.3947 263.025 60.8992 262.976 62.3358ZM295.515 40.65C295.651 42.1555 295.612 45.1559 295.396 49.6512C295.33 51.5876 295.188 53.9278 294.969 56.672C294.813 59.4182 294.575 62.7246 294.256 66.5909C293.939 70.3948 293.538 74.8213 293.053 79.8702C292.633 84.8588 292.096 90.5313 291.441 96.8877C291.295 97.508 290.991 98.1856 290.528 98.9202C290.127 99.657 289.667 100.329 289.146 100.937C288.625 101.544 288.076 102.057 287.499 102.475C286.924 102.831 286.42 102.939 285.987 102.799C285.864 102.732 285.725 102.227 285.569 101.284C285.476 100.343 285.396 99.0268 285.329 97.336C282.475 98.4895 279.792 99.2423 277.278 99.5945C274.765 99.9466 272.744 99.5963 271.217 98.5437C270.605 98.1476 270.003 97.4705 269.41 96.5122C268.882 95.4937 268.39 94.32 267.935 92.9912C267.48 91.6625 267.121 90.2744 266.858 88.8271C266.597 87.3173 266.488 85.9066 266.533 84.5949C266.565 83.6579 266.67 82.4107 266.848 80.8534C267.026 79.2961 267.24 77.6149 267.489 75.8098C267.74 73.9423 268.023 72.0758 268.336 70.2104C268.652 68.2826 268.963 66.5109 269.268 64.8953C269.573 63.2798 269.838 61.913 270.064 60.795C270.29 59.6771 270.469 58.9953 270.603 58.7497C270.753 58.0044 270.993 57.3872 271.323 56.8981C271.714 56.4112 272.039 56.0471 272.298 55.8057C272.94 55.3273 273.858 54.9834 275.053 54.7739C276.311 54.5667 277.597 54.4541 278.911 54.4364C280.287 54.4207 281.567 54.4956 282.749 54.6609C283.934 54.7638 284.804 54.9186 285.36 55.1251L285.547 55.1315C285.686 47.3817 285.889 41.4164 286.157 37.2356C286.425 33.0548 286.751 30.8146 287.136 30.5151C287.393 30.3362 287.95 30.5115 288.807 31.041C289.664 31.5705 290.546 32.3197 291.451 33.2886C292.418 34.2596 293.286 35.4148 294.053 36.7542C294.885 38.0333 295.372 39.3319 295.515 40.65ZM279.485 92.6343C280.366 92.4767 281.155 92.2847 281.85 92.0583C282.61 91.7715 283.245 91.5117 283.753 91.2789C284.323 91.0482 284.803 90.7518 285.19 90.3898C285.183 88.7636 285.182 86.95 285.188 84.9491C285.196 82.8856 285.206 80.7597 285.218 78.5714C285.23 76.383 285.243 74.1634 285.257 71.9126C285.273 69.5993 285.286 67.3797 285.296 65.2538C285.32 64.5667 285.215 63.9691 284.982 63.4608C284.812 62.9547 284.576 62.5402 284.274 62.2172C284.091 62.0859 283.721 61.917 283.166 61.7105C282.612 61.4415 281.962 61.2317 281.217 61.0812C280.536 60.8704 279.853 60.7533 279.165 60.7299C278.541 60.7086 278.099 60.8187 277.841 61.06C277.714 61.1182 277.568 61.7386 277.402 62.9212C277.302 64.0434 277.159 65.4769 276.974 67.2216C276.854 68.906 276.698 70.7455 276.505 72.74C276.374 74.7368 276.248 76.6085 276.126 78.3554C276.004 80.1023 275.89 81.5993 275.785 82.8464C275.68 84.0935 275.626 84.7796 275.621 84.9045C275.585 85.9664 275.676 86.9701 275.894 87.9155C276.174 88.8631 276.52 89.7192 276.932 90.4836C277.346 91.1856 277.795 91.7638 278.28 92.218C278.767 92.6099 279.169 92.7486 279.485 92.6343Z" fill="white"/>
</g>
<path fill-rule="evenodd" clip-rule="evenodd" d="M68.7154 44.0276C73.4426 43.9593 84.3791 44.2727 90.3078 46.0731C91.2232 46.3113 93.4083 47.3764 94.8258 49.7307C95.3807 50.4359 96.2318 51.8471 96.2936 54.3304L97.1108 64.4168C97.2606 67.331 97.4544 72.5906 97.3789 79.524C97.4174 80.4897 97.371 82.6698 96.8781 83.6649C96.6221 84.3557 95.78 86.0385 94.4598 87.2435C94.0648 87.6933 93.6876 88.281 89.6578 90.1578C84.0795 93.0749 73.3235 98.1522 67.9061 99.9097C67.6309 100.118 66.5938 100.525 64.6475 100.49C62.7552 100.457 61.3858 100.295 57.1361 98.9645C52.4022 97.3944 41.8439 93.3268 38.2103 90.7526C37.6043 90.2373 36.2558 88.7002 35.7093 86.6739C35.2912 85.6923 34.9214 83.831 34.7925 77.5709C34.6718 71.7021 34.7465 66.1883 35.2338 58.6843C35.2135 57.9427 35.2757 56.2523 36.3539 54.0755C37.3828 52.5197 38.6383 50.6629 41.4094 49.8668C51.7488 46.726 55.2138 45.9895 63.904 44.6137C65.1282 44.4024 67.8042 43.9894 68.7154 44.0276ZM95.0479 53.4552C94.9305 50.0408 93.164 48.3913 91.7118 47.6721C87.3129 45.2868 73.2208 44.5809 66.8556 44.9137C61.009 45.5034 46.0112 48.6606 39.9142 51.3207C37.0737 52.8829 36.4651 55.4214 36.313 56.7661C35.9889 59.632 35.7754 64.3514 35.6897 68.8499C35.6036 73.3698 35.6465 77.6667 35.8361 79.6368C35.9167 86.7767 36.8534 88.0151 38.6723 89.8196C45.1067 93.781 56.7765 97.8648 59.6193 98.6453C60.4295 98.8677 61.1604 99.0357 61.8196 99.1581C62.3789 99.2619 62.8866 99.3328 63.3474 99.3763C64.6118 99.4955 65.5234 99.408 66.1786 99.2245C66.4255 99.1553 66.6361 99.0726 66.8154 98.9822C74.4128 96.1615 84.0753 92.0401 91.6675 87.9259C94.0237 86.9242 94.8684 85.8968 95.5359 84.5492C96.152 83.3053 96.1963 81.477 96.1415 80.7184C96.4089 75.1709 96.171 62.4023 95.0479 53.4552Z" fill="#FFCD06"/>
<path fill-rule="evenodd" clip-rule="evenodd" d="M96.1415 80.7184C96.4089 75.1709 96.171 62.4023 95.0479 53.4552C95.0281 53.212 94.8484 52.9098 94.4058 52.665C92.4012 51.7571 84.7001 54.5264 78.2395 56.8774C72.3971 58.5019 70.3351 60.5787 69 61.4665C68.4813 62.3495 68.0487 63.4207 67.7638 64.727C68.7382 75.2785 70.5435 96.4624 66.1786 99.2245C66.4255 99.1553 66.6361 99.0726 66.8154 98.9822C74.4128 96.1615 84.0753 92.0401 91.6675 87.9259C94.0237 86.9242 94.8684 85.8968 95.5359 84.5492C96.152 83.3053 96.1963 81.477 96.1415 80.7184ZM87.7614 81.9896C87.4649 85.4572 85.3295 86.465 84.2598 86.4515C82.0079 86.2579 81.3453 84.1376 81.2643 82.5152L80.0936 66.5738C80.0917 66.5297 80.0904 66.4861 80.0898 66.4428C80.0328 62.5935 82.1232 61.5548 83.1755 61.5167C85.6479 61.2457 86.5925 63.4185 86.8177 64.8561C86.8413 65.007 86.857 65.1497 86.8657 65.2807L87.7085 81.0532C87.7548 81.3927 87.7694 81.7137 87.7614 81.9896ZM94.3867 56.355C94.1688 53.6653 92.3911 53.5163 91.5294 53.778C90.4604 53.937 87.1435 54.6006 82.4285 55.9831C85.8515 57.6785 89.9806 62.4344 90.7257 72.6142C91.3113 76.6479 90.099 84.051 82.8201 88.8366C79.2761 91.1261 71.2469 96.0393 69.1372 97.1631C77.7667 93.5627 86.1887 89.8596 92.0751 86.3206C94.3425 83.8291 94.6463 82.1723 94.8475 80.7229C95.6548 75.5461 95.1358 62.4059 94.3867 56.355Z" fill="#FFCC00"/>
<path d="M89.0399 52.545C85.4209 53.5925 77.8636 56.0716 74.7211 57.2002C73.3316 57.6992 70.7018 58.5697 69 61.4665C70.3351 60.5787 72.3971 58.5019 78.2395 56.8774C84.7001 54.5264 92.4012 51.7571 94.4058 52.665C93.6246 52.233 92.0245 51.9797 89.0399 52.545Z" fill="#FACC15"/>
<path d="M91.5294 53.778C92.3911 53.5163 94.1688 53.6653 94.3867 56.355C95.1358 62.4059 95.6548 75.5461 94.8475 80.7229C94.6463 82.1723 94.3425 83.8291 92.0751 86.3206C86.1887 89.8596 77.7667 93.5627 69.1372 97.1631C71.2469 96.0393 79.2761 91.1261 82.8201 88.8366C90.099 84.051 91.3113 76.6479 90.7257 72.6142C89.9806 62.4344 85.8515 57.6785 82.4285 55.9831C87.1435 54.6006 90.4604 53.937 91.5294 53.778Z" fill="#FFE684"/>
<path d="M84.2598 86.4515C85.3295 86.465 87.4649 85.4572 87.7614 81.9896C87.7694 81.7137 87.7548 81.3927 87.7085 81.0532L86.8657 65.2807C86.857 65.1497 86.8413 65.007 86.8177 64.8561C85.1998 62.9065 81.4897 63.0311 80.0936 66.5738L81.2643 82.5152C81.3453 84.1376 82.0079 86.2579 84.2598 86.4515Z" fill="#AF9327"/>
<path d="M83.1755 61.5167C82.1232 61.5548 80.0328 62.5935 80.0898 66.4428C80.0904 66.4861 80.0917 66.5297 80.0936 66.5738C81.4897 63.0311 85.1998 62.9065 86.8177 64.8561C86.5925 63.4185 85.6479 61.2457 83.1755 61.5167Z" fill="#998410"/>
<path d="M69.9611 57.6826C70.6213 57.6654 71.6205 57.859 70.3348 58.7714C69.4778 59.3796 67.8005 61.0016 67.4946 62.1409C67.2386 62.8317 66.4667 63.9554 66.0958 61.8354C65.8517 61.1981 65.0724 59.6245 63.9081 58.4282C62.9735 57.7072 62.2443 56.5715 64.4729 57.288C65.0254 57.3895 66.3065 57.6023 67.0106 57.6412C67.8561 57.6728 69.63 57.7252 69.9611 57.6826Z" fill="#FFD42B"/>
<path d="M38.067 55.3112C38.3412 54.8446 38.8392 54.2737 39.9771 54.0627C40.5974 53.8536 42.7505 53.8357 47.432 54.3987C49.6068 54.6153 55.1699 55.6236 60.024 57.9245C62.8257 59.5703 64.5769 61.6855 65.1161 62.7702C65.5834 63.1307 65.5642 62.6479 65.3729 62.2519C64.2748 59.5135 62.583 56.8313 57.7368 55.5008C53.6431 54.3769 49.137 53.6511 47.2214 53.5199C39.4542 52.7711 38.772 54.1113 38.067 55.3112Z" fill="#FFD42B"/>
<path d="M38.0764 57.6395C39.0508 55.4112 39.6711 55.2021 41.2753 55.093C44.7932 54.6667 51.5444 55.9192 54.4803 56.5987C58.2942 57.6615 59.7652 57.9254 60.024 57.9245C55.1699 55.6236 49.6068 54.6153 47.432 54.3987C42.7505 53.8357 40.5974 53.8536 39.9771 54.0627C38.8392 54.2737 38.3412 54.8446 38.067 55.3112C37.0391 57.1257 37.2036 59.4017 36.7006 63.0253C36.7878 64.1012 36.9793 63.6797 37.0642 63.3344C37.1627 62.0923 37.8207 58.4165 38.0764 57.6395Z" fill="#FFD326"/>
<path fill-rule="evenodd" clip-rule="evenodd" d="M95.0479 53.4552C94.9305 50.0408 93.164 48.3913 91.7118 47.6721C87.3129 45.2868 73.2208 44.5809 66.8556 44.9137C61.009 45.5034 46.0112 48.6606 39.9142 51.3207C37.0737 52.8829 36.4651 55.4214 36.313 56.7661C35.9889 59.632 35.7754 64.3514 35.6897 68.8499C36.4795 72.3392 40.2305 78.3279 47.1625 77.3722C51.5897 76.7619 55.8758 77.4278 57.5176 78.1119C64.7321 80.4459 67.0187 85.2704 67.3383 87.4941L67.1035 93.445C67.1792 95.5686 66.4762 99.304 63.3474 99.3763C64.6118 99.4955 65.5234 99.408 66.1786 99.2245C70.5435 96.4624 68.7382 75.2785 67.7638 64.727C68.0487 63.4207 68.4813 62.3495 69 61.4665C70.7018 58.5697 73.3316 57.6992 74.7211 57.2002C77.8636 56.0716 85.4209 53.5925 89.0399 52.545C92.0245 51.9797 93.6246 52.233 94.4058 52.665C94.8484 52.9098 95.0281 53.212 95.0479 53.4552ZM70.3348 58.7714C71.6205 57.859 70.6213 57.6654 69.9611 57.6826C69.63 57.7252 67.8561 57.6728 67.0106 57.6412C66.3065 57.6023 65.0254 57.3895 64.4729 57.288C62.2443 56.5715 62.9735 57.7072 63.9081 58.4282C65.0724 59.6245 65.8517 61.1981 66.0958 61.8354C66.4667 63.9554 67.2386 62.8317 67.4946 62.1409C67.8005 61.0016 69.4778 59.3796 70.3348 58.7714ZM41.2753 55.093C39.6711 55.2021 39.0508 55.4112 38.0764 57.6395C37.8207 58.4165 37.1627 62.0923 37.0642 63.3344C36.9793 63.6797 36.7878 64.1012 36.7006 63.0253C37.2036 59.4017 37.0391 57.1257 38.067 55.3112C38.772 54.1113 39.4542 52.7711 47.2214 53.5199C49.137 53.6511 53.6431 54.3769 57.7368 55.5008C62.583 56.8313 64.2748 59.5135 65.3729 62.2519C65.5642 62.6479 65.5834 63.1307 65.1161 62.7702C64.5769 61.6855 62.8257 59.5703 60.024 57.9245C59.7652 57.9254 58.2942 57.6615 54.4803 56.5987C51.5444 55.9192 44.7932 54.6667 41.2753 55.093Z" fill="#FFE684"/>
<path d="M38.6723 89.8196C45.1067 93.781 56.7765 97.8648 59.6193 98.6453C60.4295 98.8677 61.1604 99.0357 61.8196 99.1581C62.3789 99.2619 62.8866 99.3328 63.3474 99.3763C66.4762 99.304 67.1792 95.5686 67.1035 93.445L67.3383 87.4941C67.0187 85.2704 64.7321 80.4459 57.5176 78.1119C55.8758 77.4278 51.5897 76.7619 47.1625 77.3722C40.2305 78.3279 36.4795 72.3392 35.6897 68.8499C35.6036 73.3698 35.6465 77.6667 35.8361 79.6368C35.9167 86.7767 36.8534 88.0151 38.6723 89.8196Z" fill="#FFCC00"/>
<path d="M52.2627 88.249C53.3325 88.2625 55.4678 87.2546 55.7644 83.787C55.7724 83.5112 55.7578 83.1901 55.7115 82.8506L54.8687 67.0782C54.8599 66.9472 54.8442 66.8044 54.8206 66.6536C53.2027 64.704 49.4927 64.8286 48.0965 68.3712L49.2672 84.3126C49.3482 85.9351 50.0108 88.0554 52.2627 88.249Z" fill="#AF9327"/>
<path d="M51.1784 63.3141C50.1261 63.3523 48.0358 64.391 48.0927 68.2403C48.0934 68.2835 48.0946 68.3272 48.0965 68.3712C49.4927 64.8286 53.2027 64.704 54.8206 66.6536C54.5954 65.2159 53.6508 63.0432 51.1784 63.3141Z" fill="#998410"/>
<path d="M63.6847 80.0496C64.055 79.0465 63.8185 76.6977 60.6481 75.2572C60.3907 75.1573 60.0831 75.0635 59.7475 74.9935L44.5944 70.5056C44.468 70.4699 44.3282 70.4369 44.178 70.4087C41.7991 71.2797 40.6765 74.8158 43.5501 77.3172L58.9721 81.5528C60.5289 82.0198 62.7496 82.1057 63.6847 80.0496Z" fill="#AF9327"/>
<path d="M39.812 72.7209C39.4963 73.7248 39.777 76.0415 43.4254 77.2769C43.4664 77.2908 43.508 77.3042 43.5501 77.3172C40.6765 74.8158 41.7991 71.2797 44.178 70.4087C42.7472 70.1393 40.3829 70.3015 39.812 72.7209Z" fill="#998410"/>
<path d="M63.1348 51.6719C61.9466 50.9323 58.6738 49.8497 55.0889 51.4366C54.2943 51.8694 53.473 52.9959 55.4829 53.7789C56.5741 50.9493 61.2148 51.3631 63.3988 51.9237C63.3386 51.8321 63.2511 51.7474 63.1348 51.6719Z" fill="#998410"/>
<path d="M56.9669 54.1832C61.1071 54.9778 64.0994 52.989 63.3988 51.9237C61.2148 51.3631 56.5741 50.9493 55.4829 53.7789C55.8673 53.9287 56.3553 54.0659 56.9669 54.1832Z" fill="#AF9327"/>
<path d="M57.8277 49.31C57.8994 49.3296 57.9759 49.3489 58.0575 49.3676L73.3668 52.1631C76.7105 52.6579 81.2795 52.0048 80.406 50.3676C80.3269 50.2193 80.1959 50.0669 80.0062 49.9114C79.6178 49.677 78.8699 49.3856 77.8742 49.2605L71.7617 48.5662L64.0549 47.6909C62.5524 47.334 58.4653 47.6054 57.8277 49.31Z" fill="#AF9327"/>
<path d="M57.7411 47.92C57.0644 48.2033 56.1866 48.861 57.8277 49.31C58.4653 47.6054 62.5524 47.334 64.0549 47.6909L71.7617 48.5662L62.839 47.2817C61.6377 47.0372 59.825 47.0266 57.7411 47.92Z" fill="#998410"/>
<path d="M75.8341 46.2821C75.7122 46.2356 75.5576 46.1949 75.3773 46.161C73.1973 46.3023 69.1805 46.7783 70.5539 47.5522C72.6174 47.8813 77.1181 47.3037 75.8341 46.2821Z" fill="#AF9327"/>
<path d="M71.4337 46.2981C70.399 46.4743 68.6822 46.9496 70.0922 47.4411C70.2273 47.4882 70.3827 47.5249 70.5539 47.5522C69.1805 46.7783 73.1973 46.3023 75.3773 46.161C74.4322 45.983 72.7803 45.9891 71.4337 46.2981Z" fill="#998410"/>
<defs>
<filter id="filter0_d_152_1323" x="0.359802" y="17.9346" width="296.781" height="105.276" filterUnits="userSpaceOnUse" color-interpolation-filters="sRGB">
<feFlood flood-opacity="0" result="BackgroundImageFix"/>
<feColorMatrix in="SourceAlpha" type="matrix" values="0 0 0 0 0 0 0 0 0 0 0 0 0 0 0 0 0 0 127 0" result="hardAlpha"/>
<feOffset dx="-5" dy="3"/>
<feGaussianBlur stdDeviation="3"/>
<feComposite in2="hardAlpha" operator="out"/>
<feColorMatrix type="matrix" values="0 0 0 0 0 0 0 0 0 0 0 0 0 0 0 0 0 0 0.3 0"/>
<feBlend mode="normal" in2="BackgroundImageFix" result="effect1_dropShadow_152_1323"/>
<feBlend mode="normal" in="SourceGraphic" in2="effect1_dropShadow_152_1323" result="shape"/>
</filter>
</defs>
</svg>
