<svg width="60" height="62" viewBox="0 0 60 62" fill="none" xmlns="http://www.w3.org/2000/svg">
<path d="M26.359 62C24.9645 62 23.7643 61.535 22.7582 60.605C21.7522 59.675 21.1448 58.5383 20.9362 57.195L20.239 52.08C19.5676 51.8217 18.9354 51.5117 18.3425 51.15C17.7496 50.7883 17.1681 50.4008 16.598 49.9875L11.7949 52.0025C10.5038 52.5708 9.21262 52.6225 7.92148 52.1575C6.63034 51.6925 5.62325 50.8658 4.90021 49.6775L1.25919 43.3225C0.536152 42.1342 0.329569 40.8683 0.639443 39.525C0.949317 38.1817 1.64653 37.0708 2.73109 36.1925L6.83692 33.0925C6.78528 32.7308 6.75945 32.3816 6.75945 32.0447V29.9522C6.75945 29.6174 6.78528 29.2692 6.83692 28.9075L2.73109 25.8075C1.64653 24.9292 0.949317 23.8183 0.639443 22.475C0.329569 21.1317 0.536152 19.8658 1.25919 18.6775L4.90021 12.3225C5.62325 11.1342 6.63034 10.3075 7.92148 9.8425C9.21262 9.3775 10.5038 9.42917 11.7949 9.9975L16.598 12.0125C17.1661 11.5992 17.76 11.2117 18.3797 10.85C18.9995 10.4883 19.6192 10.1783 20.239 9.92L20.9362 4.805C21.1428 3.46167 21.7501 2.325 22.7582 1.395C23.7664 0.465 24.9666 0 26.359 0H33.641C35.0354 0 36.2367 0.465 37.2449 1.395C38.253 2.325 38.8593 3.46167 39.0638 4.805L39.761 9.92C40.4324 10.1783 41.0656 10.4883 41.6606 10.85C42.2555 11.2117 42.836 11.5992 43.402 12.0125L48.2051 9.9975C49.4962 9.42917 50.7874 9.3775 52.0785 9.8425C53.3697 10.3075 54.3768 11.1342 55.0998 12.3225L58.7408 18.6775C59.4638 19.8658 59.6704 21.1317 59.3606 22.475C59.0507 23.8183 58.3535 24.9292 57.2689 25.8075L53.1631 28.9075C53.2147 29.2692 53.2405 29.6184 53.2405 29.9553V32.0447C53.2405 32.3816 53.1889 32.7308 53.0856 33.0925L57.1914 36.1925C58.276 37.0708 58.9732 38.1817 59.2831 39.525C59.593 40.8683 59.3864 42.1342 58.6633 43.3225L54.9449 49.6775C54.2218 50.8658 53.2147 51.6925 51.9236 52.1575C50.6324 52.6225 49.3413 52.5708 48.0502 52.0025L43.402 49.9875C42.8339 50.4008 42.24 50.7883 41.6203 51.15C41.0005 51.5117 40.3808 51.8217 39.761 52.08L39.0638 57.195C38.8572 58.5383 38.2509 59.675 37.2449 60.605C36.2388 61.535 35.0375 62 33.641 62H26.359ZM30.1549 41.85C33.1504 41.85 35.7068 40.7908 37.8243 38.6725C39.9418 36.5542 41.0005 33.9967 41.0005 31C41.0005 28.0033 39.9418 25.4458 37.8243 23.3275C35.7068 21.2092 33.1504 20.15 30.1549 20.15C27.1078 20.15 24.538 21.2092 22.4453 23.3275C20.3526 25.4458 19.3073 28.0033 19.3093 31C19.3114 33.9967 20.3578 36.5542 22.4484 38.6725C24.539 40.7908 27.1078 41.85 30.1549 41.85Z" fill="#544F4C"/>
</svg>
