<svg xmlns="http://www.w3.org/2000/svg" xmlns:xlink="http://www.w3.org/1999/xlink" width="560" zoomAndPan="magnify" viewBox="0 0 420 68.999997" height="92" preserveAspectRatio="xMidYMid meet" version="1.0"><defs><g/><clipPath id="eb8a2606b9"><path d="M 0.03125 0.609375 L 419.664062 0.609375 L 419.664062 67.96875 L 0.03125 67.96875 Z M 0.03125 0.609375 " clip-rule="nonzero"/></clipPath></defs><g clip-path="url(#eb8a2606b9)"><path stroke-linecap="butt" transform="matrix(0.75, 0, 0, 0.75, 0.0300076, 0.607868)" fill="none" stroke-linejoin="miter" d="M 0.00165653 0.00200892 L 559.512121 0.00200892 L 559.512121 89.814517 L 0.00165653 89.814517 Z M 0.00165653 0.00200892 " stroke="#000000" stroke-width="12" stroke-opacity="1" stroke-miterlimit="4"/></g><g fill="#000000" fill-opacity="1"><g transform="translate(39.71654, 46.292527)"><g><path d="M 23.6875 -6.875 C 23.6875 -4.6875 22.863281 -2.992188 21.21875 -1.796875 C 19.582031 -0.597656 17.304688 0 14.390625 0 L 2.34375 0 L 2.34375 -24.078125 L 13.359375 -24.078125 C 16.304688 -24.078125 18.53125 -23.566406 20.03125 -22.546875 C 21.539062 -21.523438 22.296875 -20.019531 22.296875 -18.03125 C 22.296875 -16.664062 21.914062 -15.507812 21.15625 -14.5625 C 20.40625 -13.625 19.253906 -12.988281 17.703125 -12.65625 C 19.648438 -12.4375 21.132812 -11.828125 22.15625 -10.828125 C 23.175781 -9.828125 23.6875 -8.507812 23.6875 -6.875 Z M 17.234375 -17.34375 C 17.234375 -18.425781 16.882812 -19.195312 16.1875 -19.65625 C 15.5 -20.113281 14.476562 -20.34375 13.125 -20.34375 L 7.390625 -20.34375 L 7.390625 -14.375 L 13.15625 -14.375 C 14.582031 -14.375 15.617188 -14.617188 16.265625 -15.109375 C 16.910156 -15.609375 17.234375 -16.351562 17.234375 -17.34375 Z M 18.625 -7.265625 C 18.625 -9.515625 17.007812 -10.640625 13.78125 -10.640625 L 7.390625 -10.640625 L 7.390625 -3.75 L 13.96875 -3.75 C 15.582031 -3.75 16.757812 -4.039062 17.5 -4.625 C 18.25 -5.207031 18.625 -6.085938 18.625 -7.265625 Z M 18.625 -7.265625 "/></g></g></g><g fill="#000000" fill-opacity="1"><g transform="translate(64.986774, 46.292527)"><g><path d="M 6.96875 -18.484375 L 6.96875 -8.125 C 6.96875 -4.875 8.0625 -3.25 10.25 -3.25 C 11.414062 -3.25 12.351562 -3.742188 13.0625 -4.734375 C 13.78125 -5.734375 14.140625 -7.015625 14.140625 -8.578125 L 14.140625 -18.484375 L 18.9375 -18.484375 L 18.9375 -4.140625 C 18.9375 -2.566406 18.984375 -1.1875 19.078125 0 L 14.5 0 C 14.351562 -1.644531 14.28125 -2.867188 14.28125 -3.671875 L 14.203125 -3.671875 C 13.566406 -2.273438 12.753906 -1.253906 11.765625 -0.609375 C 10.773438 0.0234375 9.601562 0.34375 8.25 0.34375 C 6.289062 0.34375 4.785156 -0.253906 3.734375 -1.453125 C 2.691406 -2.660156 2.171875 -4.425781 2.171875 -6.75 L 2.171875 -18.484375 Z M 6.96875 -18.484375 "/></g></g></g><g fill="#000000" fill-opacity="1"><g transform="translate(86.361394, 46.292527)"><g><path d="M 14.25 0 L 9.3125 -8.375 L 7.25 -6.9375 L 7.25 0 L 2.4375 0 L 2.4375 -25.359375 L 7.25 -25.359375 L 7.25 -10.828125 L 13.84375 -18.484375 L 19 -18.484375 L 12.515625 -11.28125 L 19.5 0 Z M 14.25 0 "/></g></g></g><g fill="#000000" fill-opacity="1"><g transform="translate(105.82238, 46.292527)"><g><path d="M 6.71875 0.34375 C 4.925781 0.34375 3.53125 -0.140625 2.53125 -1.109375 C 1.53125 -2.085938 1.03125 -3.460938 1.03125 -5.234375 C 1.03125 -7.140625 1.648438 -8.59375 2.890625 -9.59375 C 4.140625 -10.601562 5.953125 -11.117188 8.328125 -11.140625 L 12.3125 -11.21875 L 12.3125 -12.15625 C 12.3125 -13.363281 12.097656 -14.257812 11.671875 -14.84375 C 11.253906 -15.425781 10.566406 -15.71875 9.609375 -15.71875 C 8.710938 -15.71875 8.054688 -15.515625 7.640625 -15.109375 C 7.234375 -14.710938 6.976562 -14.046875 6.875 -13.109375 L 1.859375 -13.34375 C 2.171875 -15.144531 2.992188 -16.507812 4.328125 -17.4375 C 5.671875 -18.363281 7.5 -18.828125 9.8125 -18.828125 C 12.144531 -18.828125 13.941406 -18.25 15.203125 -17.09375 C 16.472656 -15.945312 17.109375 -14.316406 17.109375 -12.203125 L 17.109375 -5.46875 C 17.109375 -4.425781 17.222656 -3.707031 17.453125 -3.3125 C 17.691406 -2.925781 18.082031 -2.734375 18.625 -2.734375 C 18.988281 -2.734375 19.34375 -2.769531 19.6875 -2.84375 L 19.6875 -0.234375 C 19.40625 -0.171875 19.148438 -0.109375 18.921875 -0.046875 C 18.691406 0.00390625 18.460938 0.046875 18.234375 0.078125 C 18.003906 0.117188 17.757812 0.148438 17.5 0.171875 C 17.25 0.191406 16.953125 0.203125 16.609375 0.203125 C 15.398438 0.203125 14.507812 -0.09375 13.9375 -0.6875 C 13.363281 -1.28125 13.019531 -2.148438 12.90625 -3.296875 L 12.796875 -3.296875 C 11.453125 -0.867188 9.425781 0.34375 6.71875 0.34375 Z M 12.3125 -8.5625 L 9.84375 -8.53125 C 8.726562 -8.476562 7.9375 -8.351562 7.46875 -8.15625 C 7 -7.957031 6.640625 -7.648438 6.390625 -7.234375 C 6.148438 -6.828125 6.03125 -6.285156 6.03125 -5.609375 C 6.03125 -4.734375 6.234375 -4.082031 6.640625 -3.65625 C 7.046875 -3.226562 7.582031 -3.015625 8.25 -3.015625 C 9 -3.015625 9.6875 -3.21875 10.3125 -3.625 C 10.9375 -4.03125 11.425781 -4.59375 11.78125 -5.3125 C 12.132812 -6.039062 12.3125 -6.8125 12.3125 -7.625 Z M 12.3125 -8.5625 "/></g></g></g><g fill="#000000" fill-opacity="1"><g transform="translate(125.283366, 46.292527)"><g><path d="M 14.421875 0 L 14.421875 -10.375 C 14.421875 -13.625 13.320312 -15.25 11.125 -15.25 C 9.957031 -15.25 9.019531 -14.75 8.3125 -13.75 C 7.601562 -12.75 7.25 -11.46875 7.25 -9.90625 L 7.25 0 L 2.4375 0 L 2.4375 -14.359375 C 2.4375 -15.347656 2.421875 -16.15625 2.390625 -16.78125 C 2.367188 -17.414062 2.34375 -17.984375 2.3125 -18.484375 L 6.890625 -18.484375 C 6.921875 -18.273438 6.960938 -17.695312 7.015625 -16.75 C 7.078125 -15.8125 7.109375 -15.164062 7.109375 -14.8125 L 7.171875 -14.8125 C 7.828125 -16.226562 8.644531 -17.253906 9.625 -17.890625 C 10.601562 -18.523438 11.769531 -18.84375 13.125 -18.84375 C 15.082031 -18.84375 16.582031 -18.238281 17.625 -17.03125 C 18.675781 -15.832031 19.203125 -14.066406 19.203125 -11.734375 L 19.203125 0 Z M 14.421875 0 "/></g></g></g><g fill="#000000" fill-opacity="1"><g transform="translate(146.657986, 46.292527)"><g/></g></g><g fill="#000000" fill-opacity="1"><g transform="translate(156.379936, 46.292527)"><g><path d="M 2.34375 0 L 2.34375 -24.078125 L 7.390625 -24.078125 L 7.390625 0 Z M 2.34375 0 "/></g></g></g><g fill="#000000" fill-opacity="1"><g transform="translate(166.101885, 46.292527)"><g/></g></g><g fill="#000000" fill-opacity="1"><g transform="translate(175.823835, 46.292527)"><g><path d="M 14.421875 0 C 14.378906 -0.164062 14.328125 -0.59375 14.265625 -1.28125 C 14.203125 -1.976562 14.171875 -2.554688 14.171875 -3.015625 L 14.09375 -3.015625 C 13.0625 -0.773438 11.09375 0.34375 8.1875 0.34375 C 6.03125 0.34375 4.363281 -0.492188 3.1875 -2.171875 C 2.019531 -3.859375 1.4375 -6.210938 1.4375 -9.234375 C 1.4375 -12.296875 2.050781 -14.660156 3.28125 -16.328125 C 4.519531 -17.992188 6.273438 -18.828125 8.546875 -18.828125 C 9.859375 -18.828125 10.988281 -18.550781 11.9375 -18 C 12.882812 -17.457031 13.617188 -16.644531 14.140625 -15.5625 L 14.171875 -15.5625 L 14.140625 -18.609375 L 14.140625 -25.359375 L 18.9375 -25.359375 L 18.9375 -4.03125 C 18.9375 -2.894531 18.984375 -1.550781 19.078125 0 Z M 14.203125 -9.34375 C 14.203125 -11.34375 13.867188 -12.878906 13.203125 -13.953125 C 12.535156 -15.023438 11.550781 -15.5625 10.25 -15.5625 C 8.96875 -15.5625 8.007812 -15.039062 7.375 -14 C 6.75 -12.957031 6.4375 -11.367188 6.4375 -9.234375 C 6.4375 -5.035156 7.695312 -2.9375 10.21875 -2.9375 C 11.476562 -2.9375 12.457031 -3.488281 13.15625 -4.59375 C 13.851562 -5.707031 14.203125 -7.289062 14.203125 -9.34375 Z M 14.203125 -9.34375 "/></g></g></g><g fill="#000000" fill-opacity="1"><g transform="translate(197.198455, 46.292527)"><g><path d="M 6.71875 0.34375 C 4.925781 0.34375 3.53125 -0.140625 2.53125 -1.109375 C 1.53125 -2.085938 1.03125 -3.460938 1.03125 -5.234375 C 1.03125 -7.140625 1.648438 -8.59375 2.890625 -9.59375 C 4.140625 -10.601562 5.953125 -11.117188 8.328125 -11.140625 L 12.3125 -11.21875 L 12.3125 -12.15625 C 12.3125 -13.363281 12.097656 -14.257812 11.671875 -14.84375 C 11.253906 -15.425781 10.566406 -15.71875 9.609375 -15.71875 C 8.710938 -15.71875 8.054688 -15.515625 7.640625 -15.109375 C 7.234375 -14.710938 6.976562 -14.046875 6.875 -13.109375 L 1.859375 -13.34375 C 2.171875 -15.144531 2.992188 -16.507812 4.328125 -17.4375 C 5.671875 -18.363281 7.5 -18.828125 9.8125 -18.828125 C 12.144531 -18.828125 13.941406 -18.25 15.203125 -17.09375 C 16.472656 -15.945312 17.109375 -14.316406 17.109375 -12.203125 L 17.109375 -5.46875 C 17.109375 -4.425781 17.222656 -3.707031 17.453125 -3.3125 C 17.691406 -2.925781 18.082031 -2.734375 18.625 -2.734375 C 18.988281 -2.734375 19.34375 -2.769531 19.6875 -2.84375 L 19.6875 -0.234375 C 19.40625 -0.171875 19.148438 -0.109375 18.921875 -0.046875 C 18.691406 0.00390625 18.460938 0.046875 18.234375 0.078125 C 18.003906 0.117188 17.757812 0.148438 17.5 0.171875 C 17.25 0.191406 16.953125 0.203125 16.609375 0.203125 C 15.398438 0.203125 14.507812 -0.09375 13.9375 -0.6875 C 13.363281 -1.28125 13.019531 -2.148438 12.90625 -3.296875 L 12.796875 -3.296875 C 11.453125 -0.867188 9.425781 0.34375 6.71875 0.34375 Z M 12.3125 -8.5625 L 9.84375 -8.53125 C 8.726562 -8.476562 7.9375 -8.351562 7.46875 -8.15625 C 7 -7.957031 6.640625 -7.648438 6.390625 -7.234375 C 6.148438 -6.828125 6.03125 -6.285156 6.03125 -5.609375 C 6.03125 -4.734375 6.234375 -4.082031 6.640625 -3.65625 C 7.046875 -3.226562 7.582031 -3.015625 8.25 -3.015625 C 9 -3.015625 9.6875 -3.21875 10.3125 -3.625 C 10.9375 -4.03125 11.425781 -4.59375 11.78125 -5.3125 C 12.132812 -6.039062 12.3125 -6.8125 12.3125 -7.625 Z M 12.3125 -8.5625 "/></g></g></g><g fill="#000000" fill-opacity="1"><g transform="translate(216.659441, 46.292527)"><g><path d="M 14.421875 0 L 14.421875 -10.375 C 14.421875 -13.625 13.320312 -15.25 11.125 -15.25 C 9.957031 -15.25 9.019531 -14.75 8.3125 -13.75 C 7.601562 -12.75 7.25 -11.46875 7.25 -9.90625 L 7.25 0 L 2.4375 0 L 2.4375 -14.359375 C 2.4375 -15.347656 2.421875 -16.15625 2.390625 -16.78125 C 2.367188 -17.414062 2.34375 -17.984375 2.3125 -18.484375 L 6.890625 -18.484375 C 6.921875 -18.273438 6.960938 -17.695312 7.015625 -16.75 C 7.078125 -15.8125 7.109375 -15.164062 7.109375 -14.8125 L 7.171875 -14.8125 C 7.828125 -16.226562 8.644531 -17.253906 9.625 -17.890625 C 10.601562 -18.523438 11.769531 -18.84375 13.125 -18.84375 C 15.082031 -18.84375 16.582031 -18.238281 17.625 -17.03125 C 18.675781 -15.832031 19.203125 -14.066406 19.203125 -11.734375 L 19.203125 0 Z M 14.421875 0 "/></g></g></g><g fill="#000000" fill-opacity="1"><g transform="translate(238.034073, 46.292527)"><g/></g></g><g fill="#000000" fill-opacity="1"><g transform="translate(247.756011, 46.292527)"><g><path d="M 19.9375 -9.3125 C 19.9375 -6.257812 19.320312 -3.882812 18.09375 -2.1875 C 16.875 -0.5 15.128906 0.34375 12.859375 0.34375 C 11.546875 0.34375 10.410156 0.0546875 9.453125 -0.515625 C 8.492188 -1.085938 7.757812 -1.90625 7.25 -2.96875 L 7.21875 -2.96875 C 7.21875 -2.570312 7.191406 -2.023438 7.140625 -1.328125 C 7.085938 -0.640625 7.03125 -0.195312 6.96875 0 L 2.3125 0 C 2.394531 -1.0625 2.4375 -2.46875 2.4375 -4.21875 L 2.4375 -25.359375 L 7.25 -25.359375 L 7.25 -18.28125 L 7.171875 -15.28125 L 7.25 -15.28125 C 8.332031 -17.644531 10.300781 -18.828125 13.15625 -18.828125 C 15.34375 -18.828125 17.019531 -18 18.1875 -16.34375 C 19.351562 -14.6875 19.9375 -12.34375 19.9375 -9.3125 Z M 14.9375 -9.3125 C 14.9375 -11.40625 14.628906 -12.957031 14.015625 -13.96875 C 13.398438 -14.988281 12.445312 -15.5 11.15625 -15.5 C 9.863281 -15.5 8.875 -14.953125 8.1875 -13.859375 C 7.507812 -12.773438 7.171875 -11.207031 7.171875 -9.15625 C 7.171875 -7.195312 7.503906 -5.671875 8.171875 -4.578125 C 8.835938 -3.484375 9.820312 -2.9375 11.125 -2.9375 C 13.664062 -2.9375 14.9375 -5.0625 14.9375 -9.3125 Z M 14.9375 -9.3125 "/></g></g></g><g fill="#000000" fill-opacity="1"><g transform="translate(269.130643, 46.292527)"><g><path d="M 6.96875 -18.484375 L 6.96875 -8.125 C 6.96875 -4.875 8.0625 -3.25 10.25 -3.25 C 11.414062 -3.25 12.351562 -3.742188 13.0625 -4.734375 C 13.78125 -5.734375 14.140625 -7.015625 14.140625 -8.578125 L 14.140625 -18.484375 L 18.9375 -18.484375 L 18.9375 -4.140625 C 18.9375 -2.566406 18.984375 -1.1875 19.078125 0 L 14.5 0 C 14.351562 -1.644531 14.28125 -2.867188 14.28125 -3.671875 L 14.203125 -3.671875 C 13.566406 -2.273438 12.753906 -1.253906 11.765625 -0.609375 C 10.773438 0.0234375 9.601562 0.34375 8.25 0.34375 C 6.289062 0.34375 4.785156 -0.253906 3.734375 -1.453125 C 2.691406 -2.660156 2.171875 -4.425781 2.171875 -6.75 L 2.171875 -18.484375 Z M 6.96875 -18.484375 "/></g></g></g><g fill="#000000" fill-opacity="1"><g transform="translate(290.505252, 46.292527)"><g><path d="M 14.25 0 L 9.3125 -8.375 L 7.25 -6.9375 L 7.25 0 L 2.4375 0 L 2.4375 -25.359375 L 7.25 -25.359375 L 7.25 -10.828125 L 13.84375 -18.484375 L 19 -18.484375 L 12.515625 -11.28125 L 19.5 0 Z M 14.25 0 "/></g></g></g><g fill="#000000" fill-opacity="1"><g transform="translate(309.966227, 46.292527)"><g><path d="M 6.71875 0.34375 C 4.925781 0.34375 3.53125 -0.140625 2.53125 -1.109375 C 1.53125 -2.085938 1.03125 -3.460938 1.03125 -5.234375 C 1.03125 -7.140625 1.648438 -8.59375 2.890625 -9.59375 C 4.140625 -10.601562 5.953125 -11.117188 8.328125 -11.140625 L 12.3125 -11.21875 L 12.3125 -12.15625 C 12.3125 -13.363281 12.097656 -14.257812 11.671875 -14.84375 C 11.253906 -15.425781 10.566406 -15.71875 9.609375 -15.71875 C 8.710938 -15.71875 8.054688 -15.515625 7.640625 -15.109375 C 7.234375 -14.710938 6.976562 -14.046875 6.875 -13.109375 L 1.859375 -13.34375 C 2.171875 -15.144531 2.992188 -16.507812 4.328125 -17.4375 C 5.671875 -18.363281 7.5 -18.828125 9.8125 -18.828125 C 12.144531 -18.828125 13.941406 -18.25 15.203125 -17.09375 C 16.472656 -15.945312 17.109375 -14.316406 17.109375 -12.203125 L 17.109375 -5.46875 C 17.109375 -4.425781 17.222656 -3.707031 17.453125 -3.3125 C 17.691406 -2.925781 18.082031 -2.734375 18.625 -2.734375 C 18.988281 -2.734375 19.34375 -2.769531 19.6875 -2.84375 L 19.6875 -0.234375 C 19.40625 -0.171875 19.148438 -0.109375 18.921875 -0.046875 C 18.691406 0.00390625 18.460938 0.046875 18.234375 0.078125 C 18.003906 0.117188 17.757812 0.148438 17.5 0.171875 C 17.25 0.191406 16.953125 0.203125 16.609375 0.203125 C 15.398438 0.203125 14.507812 -0.09375 13.9375 -0.6875 C 13.363281 -1.28125 13.019531 -2.148438 12.90625 -3.296875 L 12.796875 -3.296875 C 11.453125 -0.867188 9.425781 0.34375 6.71875 0.34375 Z M 12.3125 -8.5625 L 9.84375 -8.53125 C 8.726562 -8.476562 7.9375 -8.351562 7.46875 -8.15625 C 7 -7.957031 6.640625 -7.648438 6.390625 -7.234375 C 6.148438 -6.828125 6.03125 -6.285156 6.03125 -5.609375 C 6.03125 -4.734375 6.234375 -4.082031 6.640625 -3.65625 C 7.046875 -3.226562 7.582031 -3.015625 8.25 -3.015625 C 9 -3.015625 9.6875 -3.21875 10.3125 -3.625 C 10.9375 -4.03125 11.425781 -4.59375 11.78125 -5.3125 C 12.132812 -6.039062 12.3125 -6.8125 12.3125 -7.625 Z M 12.3125 -8.5625 "/></g></g></g><g fill="#000000" fill-opacity="1"><g transform="translate(329.427223, 46.292527)"><g><path d="M 14.421875 0 L 14.421875 -10.375 C 14.421875 -13.625 13.320312 -15.25 11.125 -15.25 C 9.957031 -15.25 9.019531 -14.75 8.3125 -13.75 C 7.601562 -12.75 7.25 -11.46875 7.25 -9.90625 L 7.25 0 L 2.4375 0 L 2.4375 -14.359375 C 2.4375 -15.347656 2.421875 -16.15625 2.390625 -16.78125 C 2.367188 -17.414062 2.34375 -17.984375 2.3125 -18.484375 L 6.890625 -18.484375 C 6.921875 -18.273438 6.960938 -17.695312 7.015625 -16.75 C 7.078125 -15.8125 7.109375 -15.164062 7.109375 -14.8125 L 7.171875 -14.8125 C 7.828125 -16.226562 8.644531 -17.253906 9.625 -17.890625 C 10.601562 -18.523438 11.769531 -18.84375 13.125 -18.84375 C 15.082031 -18.84375 16.582031 -18.238281 17.625 -17.03125 C 18.675781 -15.832031 19.203125 -14.066406 19.203125 -11.734375 L 19.203125 0 Z M 14.421875 0 "/></g></g></g><g fill="#000000" fill-opacity="1"><g transform="translate(350.801856, 46.292527)"><g/></g></g><g fill="#000000" fill-opacity="1"><g transform="translate(360.523794, 46.292527)"><g><path d="M 2.34375 0 L 2.34375 -24.078125 L 7.390625 -24.078125 L 7.390625 0 Z M 2.34375 0 "/></g></g></g><g fill="#000000" fill-opacity="1"><g transform="translate(370.245732, 46.292527)"><g><path d="M 2.34375 0 L 2.34375 -24.078125 L 7.390625 -24.078125 L 7.390625 0 Z M 2.34375 0 "/></g></g></g></svg>