<svg xmlns="http://www.w3.org/2000/svg" xmlns:xlink="http://www.w3.org/1999/xlink" width="567" zoomAndPan="magnify" viewBox="0 0 425.25 68.999997" height="92" preserveAspectRatio="xMidYMid meet" version="1.0"><defs><g/><clipPath id="ced455a345"><path d="M 2.789062 0.667969 L 421.683594 0.667969 L 421.683594 67.910156 L 2.789062 67.910156 Z M 2.789062 0.667969 " clip-rule="nonzero"/></clipPath></defs><g clip-path="url(#ced455a345)"><path stroke-linecap="butt" transform="matrix(0.74868, 0, 0, 0.74868, 2.787459, 0.667536)" fill="none" stroke-linejoin="miter" d="M 0.00214169 0.000577974 L 559.513261 0.000577974 L 559.513261 89.814956 L 0.00214169 89.814956 Z M 0.00214169 0.000577974 " stroke="#000000" stroke-width="12" stroke-opacity="1" stroke-miterlimit="4"/></g><g fill="#000000" fill-opacity="1"><g transform="translate(123.886519, 46.271766)"><g><path d="M 22.109375 -16.421875 C 22.109375 -14.878906 21.753906 -13.5 21.046875 -12.28125 C 20.347656 -11.0625 19.335938 -10.117188 18.015625 -9.453125 C 16.703125 -8.796875 15.144531 -8.46875 13.34375 -8.46875 L 7.375 -8.46875 L 7.375 0 L 2.34375 0 L 2.34375 -24.03125 L 13.140625 -24.03125 C 16.015625 -24.03125 18.226562 -23.367188 19.78125 -22.046875 C 21.332031 -20.722656 22.109375 -18.847656 22.109375 -16.421875 Z M 17.046875 -16.34375 C 17.046875 -18.863281 15.554688 -20.125 12.578125 -20.125 L 7.375 -20.125 L 7.375 -12.328125 L 12.703125 -12.328125 C 14.097656 -12.328125 15.171875 -12.671875 15.921875 -13.359375 C 16.671875 -14.046875 17.046875 -15.039062 17.046875 -16.34375 Z M 17.046875 -16.34375 "/></g></g></g><g fill="#000000" fill-opacity="1"><g transform="translate(147.184942, 46.271766)"><g><path d="M 6.703125 0.34375 C 4.921875 0.34375 3.53125 -0.140625 2.53125 -1.109375 C 1.53125 -2.085938 1.03125 -3.457031 1.03125 -5.21875 C 1.03125 -7.132812 1.648438 -8.59375 2.890625 -9.59375 C 4.140625 -10.59375 5.945312 -11.101562 8.3125 -11.125 L 12.28125 -11.1875 L 12.28125 -12.125 C 12.28125 -13.332031 12.066406 -14.226562 11.640625 -14.8125 C 11.222656 -15.394531 10.539062 -15.6875 9.59375 -15.6875 C 8.695312 -15.6875 8.039062 -15.484375 7.625 -15.078125 C 7.21875 -14.679688 6.960938 -14.015625 6.859375 -13.078125 L 1.859375 -13.328125 C 2.160156 -15.117188 2.976562 -16.476562 4.3125 -17.40625 C 5.65625 -18.332031 7.484375 -18.796875 9.796875 -18.796875 C 12.128906 -18.796875 13.925781 -18.222656 15.1875 -17.078125 C 16.445312 -15.929688 17.078125 -14.300781 17.078125 -12.1875 L 17.078125 -5.453125 C 17.078125 -4.421875 17.191406 -3.707031 17.421875 -3.3125 C 17.660156 -2.925781 18.050781 -2.734375 18.59375 -2.734375 C 18.957031 -2.734375 19.3125 -2.765625 19.65625 -2.828125 L 19.65625 -0.234375 C 19.363281 -0.171875 19.101562 -0.109375 18.875 -0.046875 C 18.65625 0.00390625 18.429688 0.046875 18.203125 0.078125 C 17.972656 0.117188 17.726562 0.148438 17.46875 0.171875 C 17.21875 0.191406 16.921875 0.203125 16.578125 0.203125 C 15.367188 0.203125 14.476562 -0.0859375 13.90625 -0.671875 C 13.332031 -1.265625 12.988281 -2.140625 12.875 -3.296875 L 12.78125 -3.296875 C 11.4375 -0.867188 9.410156 0.34375 6.703125 0.34375 Z M 12.28125 -8.546875 L 9.828125 -8.515625 C 8.710938 -8.460938 7.921875 -8.335938 7.453125 -8.140625 C 6.984375 -7.941406 6.625 -7.640625 6.375 -7.234375 C 6.132812 -6.828125 6.015625 -6.28125 6.015625 -5.59375 C 6.015625 -4.71875 6.21875 -4.066406 6.625 -3.640625 C 7.03125 -3.210938 7.566406 -3 8.234375 -3 C 8.984375 -3 9.664062 -3.203125 10.28125 -3.609375 C 10.90625 -4.023438 11.394531 -4.59375 11.75 -5.3125 C 12.101562 -6.03125 12.28125 -6.796875 12.28125 -7.609375 Z M 12.28125 -8.546875 "/></g></g></g><g fill="#000000" fill-opacity="1"><g transform="translate(166.611667, 46.271766)"><g><path d="M 14.234375 0 L 9.296875 -8.359375 L 7.234375 -6.921875 L 7.234375 0 L 2.4375 0 L 2.4375 -25.3125 L 7.234375 -25.3125 L 7.234375 -10.8125 L 13.8125 -18.453125 L 18.96875 -18.453125 L 12.484375 -11.265625 L 19.46875 0 Z M 14.234375 0 "/></g></g></g><g fill="#000000" fill-opacity="1"><g transform="translate(186.038391, 46.271766)"><g/></g></g><g fill="#000000" fill-opacity="1"><g transform="translate(195.743225, 46.271766)"><g><path d="M 21.9375 -6.921875 C 21.9375 -4.566406 21.0625 -2.765625 19.3125 -1.515625 C 17.570312 -0.273438 15.015625 0.34375 11.640625 0.34375 C 8.554688 0.34375 6.132812 -0.203125 4.375 -1.296875 C 2.625 -2.390625 1.5 -4.046875 1 -6.265625 L 5.875 -7.0625 C 6.195312 -5.789062 6.835938 -4.863281 7.796875 -4.28125 C 8.753906 -3.707031 10.078125 -3.421875 11.765625 -3.421875 C 15.285156 -3.421875 17.046875 -4.492188 17.046875 -6.640625 C 17.046875 -7.316406 16.84375 -7.875 16.4375 -8.3125 C 16.03125 -8.757812 15.457031 -9.128906 14.71875 -9.421875 C 13.988281 -9.722656 12.585938 -10.085938 10.515625 -10.515625 C 8.710938 -10.929688 7.457031 -11.265625 6.75 -11.515625 C 6.050781 -11.773438 5.414062 -12.078125 4.84375 -12.421875 C 4.269531 -12.773438 3.785156 -13.195312 3.390625 -13.6875 C 2.992188 -14.175781 2.679688 -14.75 2.453125 -15.40625 C 2.234375 -16.0625 2.125 -16.816406 2.125 -17.671875 C 2.125 -19.847656 2.941406 -21.507812 4.578125 -22.65625 C 6.210938 -23.8125 8.585938 -24.390625 11.703125 -24.390625 C 14.679688 -24.390625 16.914062 -23.921875 18.40625 -22.984375 C 19.90625 -22.054688 20.875 -20.519531 21.3125 -18.375 L 16.421875 -17.703125 C 16.171875 -18.742188 15.660156 -19.523438 14.890625 -20.046875 C 14.128906 -20.566406 13.03125 -20.828125 11.59375 -20.828125 C 8.550781 -20.828125 7.03125 -19.875 7.03125 -17.96875 C 7.03125 -17.34375 7.191406 -16.828125 7.515625 -16.421875 C 7.835938 -16.023438 8.316406 -15.6875 8.953125 -15.40625 C 9.585938 -15.132812 10.878906 -14.785156 12.828125 -14.359375 C 15.140625 -13.867188 16.789062 -13.414062 17.78125 -13 C 18.78125 -12.59375 19.566406 -12.113281 20.140625 -11.5625 C 20.722656 -11.007812 21.164062 -10.347656 21.46875 -9.578125 C 21.78125 -8.804688 21.9375 -7.921875 21.9375 -6.921875 Z M 21.9375 -6.921875 "/></g></g></g><g fill="#000000" fill-opacity="1"><g transform="translate(219.041649, 46.271766)"><g><path d="M 6.703125 0.34375 C 4.921875 0.34375 3.53125 -0.140625 2.53125 -1.109375 C 1.53125 -2.085938 1.03125 -3.457031 1.03125 -5.21875 C 1.03125 -7.132812 1.648438 -8.59375 2.890625 -9.59375 C 4.140625 -10.59375 5.945312 -11.101562 8.3125 -11.125 L 12.28125 -11.1875 L 12.28125 -12.125 C 12.28125 -13.332031 12.066406 -14.226562 11.640625 -14.8125 C 11.222656 -15.394531 10.539062 -15.6875 9.59375 -15.6875 C 8.695312 -15.6875 8.039062 -15.484375 7.625 -15.078125 C 7.21875 -14.679688 6.960938 -14.015625 6.859375 -13.078125 L 1.859375 -13.328125 C 2.160156 -15.117188 2.976562 -16.476562 4.3125 -17.40625 C 5.65625 -18.332031 7.484375 -18.796875 9.796875 -18.796875 C 12.128906 -18.796875 13.925781 -18.222656 15.1875 -17.078125 C 16.445312 -15.929688 17.078125 -14.300781 17.078125 -12.1875 L 17.078125 -5.453125 C 17.078125 -4.421875 17.191406 -3.707031 17.421875 -3.3125 C 17.660156 -2.925781 18.050781 -2.734375 18.59375 -2.734375 C 18.957031 -2.734375 19.3125 -2.765625 19.65625 -2.828125 L 19.65625 -0.234375 C 19.363281 -0.171875 19.101562 -0.109375 18.875 -0.046875 C 18.65625 0.00390625 18.429688 0.046875 18.203125 0.078125 C 17.972656 0.117188 17.726562 0.148438 17.46875 0.171875 C 17.21875 0.191406 16.921875 0.203125 16.578125 0.203125 C 15.367188 0.203125 14.476562 -0.0859375 13.90625 -0.671875 C 13.332031 -1.265625 12.988281 -2.140625 12.875 -3.296875 L 12.78125 -3.296875 C 11.4375 -0.867188 9.410156 0.34375 6.703125 0.34375 Z M 12.28125 -8.546875 L 9.828125 -8.515625 C 8.710938 -8.460938 7.921875 -8.335938 7.453125 -8.140625 C 6.984375 -7.941406 6.625 -7.640625 6.375 -7.234375 C 6.132812 -6.828125 6.015625 -6.28125 6.015625 -5.59375 C 6.015625 -4.71875 6.21875 -4.066406 6.625 -3.640625 C 7.03125 -3.210938 7.566406 -3 8.234375 -3 C 8.984375 -3 9.664062 -3.203125 10.28125 -3.609375 C 10.90625 -4.023438 11.394531 -4.59375 11.75 -5.3125 C 12.101562 -6.03125 12.28125 -6.796875 12.28125 -7.609375 Z M 12.28125 -8.546875 "/></g></g></g><g fill="#000000" fill-opacity="1"><g transform="translate(238.468373, 46.271766)"><g><path d="M 19.90625 -9.296875 C 19.90625 -6.242188 19.289062 -3.875 18.0625 -2.1875 C 16.84375 -0.5 15.097656 0.34375 12.828125 0.34375 C 11.515625 0.34375 10.378906 0.0625 9.421875 -0.5 C 8.472656 -1.070312 7.742188 -1.894531 7.234375 -2.96875 L 7.203125 -2.96875 C 7.203125 -2.570312 7.175781 -2.023438 7.125 -1.328125 C 7.070312 -0.640625 7.015625 -0.195312 6.953125 0 L 2.296875 0 C 2.390625 -1.0625 2.4375 -2.46875 2.4375 -4.21875 L 2.4375 -25.3125 L 7.234375 -25.3125 L 7.234375 -18.25 L 7.171875 -15.25 L 7.234375 -15.25 C 8.316406 -17.613281 10.285156 -18.796875 13.140625 -18.796875 C 15.316406 -18.796875 16.988281 -17.96875 18.15625 -16.3125 C 19.320312 -14.65625 19.90625 -12.316406 19.90625 -9.296875 Z M 14.90625 -9.296875 C 14.90625 -11.390625 14.597656 -12.941406 13.984375 -13.953125 C 13.367188 -14.960938 12.421875 -15.46875 11.140625 -15.46875 C 9.835938 -15.46875 8.847656 -14.925781 8.171875 -13.84375 C 7.503906 -12.757812 7.171875 -11.191406 7.171875 -9.140625 C 7.171875 -7.179688 7.5 -5.65625 8.15625 -4.5625 C 8.820312 -3.476562 9.804688 -2.9375 11.109375 -2.9375 C 13.640625 -2.9375 14.90625 -5.054688 14.90625 -9.296875 Z M 14.90625 -9.296875 "/></g></g></g><g fill="#000000" fill-opacity="1"><g transform="translate(259.805362, 46.271766)"><g><path d="M 6.703125 0.34375 C 4.921875 0.34375 3.53125 -0.140625 2.53125 -1.109375 C 1.53125 -2.085938 1.03125 -3.457031 1.03125 -5.21875 C 1.03125 -7.132812 1.648438 -8.59375 2.890625 -9.59375 C 4.140625 -10.59375 5.945312 -11.101562 8.3125 -11.125 L 12.28125 -11.1875 L 12.28125 -12.125 C 12.28125 -13.332031 12.066406 -14.226562 11.640625 -14.8125 C 11.222656 -15.394531 10.539062 -15.6875 9.59375 -15.6875 C 8.695312 -15.6875 8.039062 -15.484375 7.625 -15.078125 C 7.21875 -14.679688 6.960938 -14.015625 6.859375 -13.078125 L 1.859375 -13.328125 C 2.160156 -15.117188 2.976562 -16.476562 4.3125 -17.40625 C 5.65625 -18.332031 7.484375 -18.796875 9.796875 -18.796875 C 12.128906 -18.796875 13.925781 -18.222656 15.1875 -17.078125 C 16.445312 -15.929688 17.078125 -14.300781 17.078125 -12.1875 L 17.078125 -5.453125 C 17.078125 -4.421875 17.191406 -3.707031 17.421875 -3.3125 C 17.660156 -2.925781 18.050781 -2.734375 18.59375 -2.734375 C 18.957031 -2.734375 19.3125 -2.765625 19.65625 -2.828125 L 19.65625 -0.234375 C 19.363281 -0.171875 19.101562 -0.109375 18.875 -0.046875 C 18.65625 0.00390625 18.429688 0.046875 18.203125 0.078125 C 17.972656 0.117188 17.726562 0.148438 17.46875 0.171875 C 17.21875 0.191406 16.921875 0.203125 16.578125 0.203125 C 15.367188 0.203125 14.476562 -0.0859375 13.90625 -0.671875 C 13.332031 -1.265625 12.988281 -2.140625 12.875 -3.296875 L 12.78125 -3.296875 C 11.4375 -0.867188 9.410156 0.34375 6.703125 0.34375 Z M 12.28125 -8.546875 L 9.828125 -8.515625 C 8.710938 -8.460938 7.921875 -8.335938 7.453125 -8.140625 C 6.984375 -7.941406 6.625 -7.640625 6.375 -7.234375 C 6.132812 -6.828125 6.015625 -6.28125 6.015625 -5.59375 C 6.015625 -4.71875 6.21875 -4.066406 6.625 -3.640625 C 7.03125 -3.210938 7.566406 -3 8.234375 -3 C 8.984375 -3 9.664062 -3.203125 10.28125 -3.609375 C 10.90625 -4.023438 11.394531 -4.59375 11.75 -5.3125 C 12.101562 -6.03125 12.28125 -6.796875 12.28125 -7.609375 Z M 12.28125 -8.546875 "/></g></g></g><g fill="#000000" fill-opacity="1"><g transform="translate(279.232087, 46.271766)"><g><path d="M 14.390625 0 L 14.390625 -10.359375 C 14.390625 -13.597656 13.296875 -15.21875 11.109375 -15.21875 C 9.941406 -15.21875 9.003906 -14.71875 8.296875 -13.71875 C 7.585938 -12.726562 7.234375 -11.453125 7.234375 -9.890625 L 7.234375 0 L 2.4375 0 L 2.4375 -14.328125 C 2.4375 -15.316406 2.421875 -16.125 2.390625 -16.75 C 2.367188 -17.382812 2.335938 -17.953125 2.296875 -18.453125 L 6.875 -18.453125 C 6.90625 -18.242188 6.945312 -17.664062 7 -16.71875 C 7.0625 -15.78125 7.09375 -15.140625 7.09375 -14.796875 L 7.171875 -14.796875 C 7.816406 -16.203125 8.628906 -17.222656 9.609375 -17.859375 C 10.585938 -18.492188 11.753906 -18.8125 13.109375 -18.8125 C 15.054688 -18.8125 16.550781 -18.207031 17.59375 -17 C 18.644531 -15.800781 19.171875 -14.039062 19.171875 -11.71875 L 19.171875 0 Z M 14.390625 0 "/></g></g></g></svg>