<svg xmlns="http://www.w3.org/2000/svg" xmlns:xlink="http://www.w3.org/1999/xlink" width="560" zoomAndPan="magnify" viewBox="0 0 420 68.999997" height="92" preserveAspectRatio="xMidYMid meet" version="1.0"><defs><g/><clipPath id="0237b63ad1"><path d="M 0.03125 0.609375 L 419.664062 0.609375 L 419.664062 67.96875 L 0.03125 67.96875 Z M 0.03125 0.609375 " clip-rule="nonzero"/></clipPath></defs><g clip-path="url(#0237b63ad1)"><path stroke-linecap="butt" transform="matrix(0.75, 0, 0, 0.75, 0.0300076, 0.607868)" fill="none" stroke-linejoin="miter" d="M 0.00165653 0.00200892 L 559.512121 0.00200892 L 559.512121 89.814517 L 0.00165653 89.814517 Z M 0.00165653 0.00200892 " stroke="#000000" stroke-width="12" stroke-opacity="1" stroke-miterlimit="4"/></g><g fill="#000000" fill-opacity="1"><g transform="translate(65.9431, 46.292527)"><g><path d="M 17.875 0 L 17.875 -10.328125 L 7.390625 -10.328125 L 7.390625 0 L 2.34375 0 L 2.34375 -24.078125 L 7.390625 -24.078125 L 7.390625 -14.5 L 17.875 -14.5 L 17.875 -24.078125 L 22.921875 -24.078125 L 22.921875 0 Z M 17.875 0 "/></g></g></g><g fill="#000000" fill-opacity="1"><g transform="translate(91.213335, 46.292527)"><g><path d="M 6.71875 0.34375 C 4.925781 0.34375 3.53125 -0.140625 2.53125 -1.109375 C 1.53125 -2.085938 1.03125 -3.460938 1.03125 -5.234375 C 1.03125 -7.140625 1.648438 -8.59375 2.890625 -9.59375 C 4.140625 -10.601562 5.953125 -11.117188 8.328125 -11.140625 L 12.3125 -11.21875 L 12.3125 -12.15625 C 12.3125 -13.363281 12.097656 -14.257812 11.671875 -14.84375 C 11.253906 -15.425781 10.566406 -15.71875 9.609375 -15.71875 C 8.710938 -15.71875 8.054688 -15.515625 7.640625 -15.109375 C 7.234375 -14.710938 6.976562 -14.046875 6.875 -13.109375 L 1.859375 -13.34375 C 2.171875 -15.144531 2.992188 -16.507812 4.328125 -17.4375 C 5.671875 -18.363281 7.5 -18.828125 9.8125 -18.828125 C 12.144531 -18.828125 13.941406 -18.25 15.203125 -17.09375 C 16.472656 -15.945312 17.109375 -14.316406 17.109375 -12.203125 L 17.109375 -5.46875 C 17.109375 -4.425781 17.222656 -3.707031 17.453125 -3.3125 C 17.691406 -2.925781 18.082031 -2.734375 18.625 -2.734375 C 18.988281 -2.734375 19.34375 -2.769531 19.6875 -2.84375 L 19.6875 -0.234375 C 19.40625 -0.171875 19.148438 -0.109375 18.921875 -0.046875 C 18.691406 0.00390625 18.460938 0.046875 18.234375 0.078125 C 18.003906 0.117188 17.757812 0.148438 17.5 0.171875 C 17.25 0.191406 16.953125 0.203125 16.609375 0.203125 C 15.398438 0.203125 14.507812 -0.09375 13.9375 -0.6875 C 13.363281 -1.28125 13.019531 -2.148438 12.90625 -3.296875 L 12.796875 -3.296875 C 11.453125 -0.867188 9.425781 0.34375 6.71875 0.34375 Z M 12.3125 -8.5625 L 9.84375 -8.53125 C 8.726562 -8.476562 7.9375 -8.351562 7.46875 -8.15625 C 7 -7.957031 6.640625 -7.648438 6.390625 -7.234375 C 6.148438 -6.828125 6.03125 -6.285156 6.03125 -5.609375 C 6.03125 -4.734375 6.234375 -4.082031 6.640625 -3.65625 C 7.046875 -3.226562 7.582031 -3.015625 8.25 -3.015625 C 9 -3.015625 9.6875 -3.21875 10.3125 -3.625 C 10.9375 -4.03125 11.425781 -4.59375 11.78125 -5.3125 C 12.132812 -6.039062 12.3125 -6.8125 12.3125 -7.625 Z M 12.3125 -8.5625 "/></g></g></g><g fill="#000000" fill-opacity="1"><g transform="translate(110.67432, 46.292527)"><g><path d="M 14.421875 0 L 14.421875 -10.375 C 14.421875 -13.625 13.320312 -15.25 11.125 -15.25 C 9.957031 -15.25 9.019531 -14.75 8.3125 -13.75 C 7.601562 -12.75 7.25 -11.46875 7.25 -9.90625 L 7.25 0 L 2.4375 0 L 2.4375 -14.359375 C 2.4375 -15.347656 2.421875 -16.15625 2.390625 -16.78125 C 2.367188 -17.414062 2.34375 -17.984375 2.3125 -18.484375 L 6.890625 -18.484375 C 6.921875 -18.273438 6.960938 -17.695312 7.015625 -16.75 C 7.078125 -15.8125 7.109375 -15.164062 7.109375 -14.8125 L 7.171875 -14.8125 C 7.828125 -16.226562 8.644531 -17.253906 9.625 -17.890625 C 10.601562 -18.523438 11.769531 -18.84375 13.125 -18.84375 C 15.082031 -18.84375 16.582031 -18.238281 17.625 -17.03125 C 18.675781 -15.832031 19.203125 -14.066406 19.203125 -11.734375 L 19.203125 0 Z M 14.421875 0 "/></g></g></g><g fill="#000000" fill-opacity="1"><g transform="translate(132.04894, 46.292527)"><g><path d="M 4.84375 7.265625 C 3.6875 7.265625 2.675781 7.191406 1.8125 7.046875 L 1.8125 3.625 C 2.414062 3.71875 2.96875 3.765625 3.46875 3.765625 C 4.15625 3.765625 4.722656 3.65625 5.171875 3.4375 C 5.617188 3.21875 6.019531 2.859375 6.375 2.359375 C 6.738281 1.859375 7.144531 1.007812 7.59375 -0.1875 L 0.28125 -18.484375 L 5.34375 -18.484375 L 8.25 -9.828125 C 8.707031 -8.585938 9.285156 -6.6875 9.984375 -4.125 L 10.40625 -5.75 L 11.515625 -9.765625 L 14.25 -18.484375 L 19.28125 -18.484375 L 11.96875 0.96875 C 10.988281 3.34375 9.96875 4.984375 8.90625 5.890625 C 7.851562 6.804688 6.5 7.265625 4.84375 7.265625 Z M 4.84375 7.265625 "/></g></g></g><g fill="#000000" fill-opacity="1"><g transform="translate(151.509926, 46.292527)"><g><path d="M 6.71875 0.34375 C 4.925781 0.34375 3.53125 -0.140625 2.53125 -1.109375 C 1.53125 -2.085938 1.03125 -3.460938 1.03125 -5.234375 C 1.03125 -7.140625 1.648438 -8.59375 2.890625 -9.59375 C 4.140625 -10.601562 5.953125 -11.117188 8.328125 -11.140625 L 12.3125 -11.21875 L 12.3125 -12.15625 C 12.3125 -13.363281 12.097656 -14.257812 11.671875 -14.84375 C 11.253906 -15.425781 10.566406 -15.71875 9.609375 -15.71875 C 8.710938 -15.71875 8.054688 -15.515625 7.640625 -15.109375 C 7.234375 -14.710938 6.976562 -14.046875 6.875 -13.109375 L 1.859375 -13.34375 C 2.171875 -15.144531 2.992188 -16.507812 4.328125 -17.4375 C 5.671875 -18.363281 7.5 -18.828125 9.8125 -18.828125 C 12.144531 -18.828125 13.941406 -18.25 15.203125 -17.09375 C 16.472656 -15.945312 17.109375 -14.316406 17.109375 -12.203125 L 17.109375 -5.46875 C 17.109375 -4.425781 17.222656 -3.707031 17.453125 -3.3125 C 17.691406 -2.925781 18.082031 -2.734375 18.625 -2.734375 C 18.988281 -2.734375 19.34375 -2.769531 19.6875 -2.84375 L 19.6875 -0.234375 C 19.40625 -0.171875 19.148438 -0.109375 18.921875 -0.046875 C 18.691406 0.00390625 18.460938 0.046875 18.234375 0.078125 C 18.003906 0.117188 17.757812 0.148438 17.5 0.171875 C 17.25 0.191406 16.953125 0.203125 16.609375 0.203125 C 15.398438 0.203125 14.507812 -0.09375 13.9375 -0.6875 C 13.363281 -1.28125 13.019531 -2.148438 12.90625 -3.296875 L 12.796875 -3.296875 C 11.453125 -0.867188 9.425781 0.34375 6.71875 0.34375 Z M 12.3125 -8.5625 L 9.84375 -8.53125 C 8.726562 -8.476562 7.9375 -8.351562 7.46875 -8.15625 C 7 -7.957031 6.640625 -7.648438 6.390625 -7.234375 C 6.148438 -6.828125 6.03125 -6.285156 6.03125 -5.609375 C 6.03125 -4.734375 6.234375 -4.082031 6.640625 -3.65625 C 7.046875 -3.226562 7.582031 -3.015625 8.25 -3.015625 C 9 -3.015625 9.6875 -3.21875 10.3125 -3.625 C 10.9375 -4.03125 11.425781 -4.59375 11.78125 -5.3125 C 12.132812 -6.039062 12.3125 -6.8125 12.3125 -7.625 Z M 12.3125 -8.5625 "/></g></g></g><g fill="#000000" fill-opacity="1"><g transform="translate(170.970911, 46.292527)"><g/></g></g><g fill="#000000" fill-opacity="1"><g transform="translate(180.692861, 46.292527)"><g><path d="M 7.171875 0.3125 C 5.765625 0.3125 4.675781 -0.0703125 3.90625 -0.84375 C 3.144531 -1.613281 2.765625 -2.78125 2.765625 -4.34375 L 2.765625 -15.25 L 0.421875 -15.25 L 0.421875 -18.484375 L 3.015625 -18.484375 L 4.515625 -22.828125 L 7.515625 -22.828125 L 7.515625 -18.484375 L 11.015625 -18.484375 L 11.015625 -15.25 L 7.515625 -15.25 L 7.515625 -5.640625 C 7.515625 -4.742188 7.6875 -4.082031 8.03125 -3.65625 C 8.375 -3.226562 8.90625 -3.015625 9.625 -3.015625 C 10 -3.015625 10.535156 -3.09375 11.234375 -3.25 L 11.234375 -0.28125 C 10.046875 0.113281 8.691406 0.3125 7.171875 0.3125 Z M 7.171875 0.3125 "/></g></g></g><g fill="#000000" fill-opacity="1"><g transform="translate(192.345532, 46.292527)"><g><path d="M 2.4375 -21.828125 L 2.4375 -25.359375 L 7.25 -25.359375 L 7.25 -21.828125 Z M 2.4375 0 L 2.4375 -18.484375 L 7.25 -18.484375 L 7.25 0 Z M 2.4375 0 "/></g></g></g><g fill="#000000" fill-opacity="1"><g transform="translate(202.067482, 46.292527)"><g><path d="M 14.421875 0 L 14.421875 -10.375 C 14.421875 -13.625 13.320312 -15.25 11.125 -15.25 C 9.957031 -15.25 9.019531 -14.75 8.3125 -13.75 C 7.601562 -12.75 7.25 -11.46875 7.25 -9.90625 L 7.25 0 L 2.4375 0 L 2.4375 -14.359375 C 2.4375 -15.347656 2.421875 -16.15625 2.390625 -16.78125 C 2.367188 -17.414062 2.34375 -17.984375 2.3125 -18.484375 L 6.890625 -18.484375 C 6.921875 -18.273438 6.960938 -17.695312 7.015625 -16.75 C 7.078125 -15.8125 7.109375 -15.164062 7.109375 -14.8125 L 7.171875 -14.8125 C 7.828125 -16.226562 8.644531 -17.253906 9.625 -17.890625 C 10.601562 -18.523438 11.769531 -18.84375 13.125 -18.84375 C 15.082031 -18.84375 16.582031 -18.238281 17.625 -17.03125 C 18.675781 -15.832031 19.203125 -14.066406 19.203125 -11.734375 L 19.203125 0 Z M 14.421875 0 "/></g></g></g><g fill="#000000" fill-opacity="1"><g transform="translate(223.442102, 46.292527)"><g><path d="M 14.421875 0 C 14.378906 -0.164062 14.328125 -0.59375 14.265625 -1.28125 C 14.203125 -1.976562 14.171875 -2.554688 14.171875 -3.015625 L 14.09375 -3.015625 C 13.0625 -0.773438 11.09375 0.34375 8.1875 0.34375 C 6.03125 0.34375 4.363281 -0.492188 3.1875 -2.171875 C 2.019531 -3.859375 1.4375 -6.210938 1.4375 -9.234375 C 1.4375 -12.296875 2.050781 -14.660156 3.28125 -16.328125 C 4.519531 -17.992188 6.273438 -18.828125 8.546875 -18.828125 C 9.859375 -18.828125 10.988281 -18.550781 11.9375 -18 C 12.882812 -17.457031 13.617188 -16.644531 14.140625 -15.5625 L 14.171875 -15.5625 L 14.140625 -18.609375 L 14.140625 -25.359375 L 18.9375 -25.359375 L 18.9375 -4.03125 C 18.9375 -2.894531 18.984375 -1.550781 19.078125 0 Z M 14.203125 -9.34375 C 14.203125 -11.34375 13.867188 -12.878906 13.203125 -13.953125 C 12.535156 -15.023438 11.550781 -15.5625 10.25 -15.5625 C 8.96875 -15.5625 8.007812 -15.039062 7.375 -14 C 6.75 -12.957031 6.4375 -11.367188 6.4375 -9.234375 C 6.4375 -5.035156 7.695312 -2.9375 10.21875 -2.9375 C 11.476562 -2.9375 12.457031 -3.488281 13.15625 -4.59375 C 13.851562 -5.707031 14.203125 -7.289062 14.203125 -9.34375 Z M 14.203125 -9.34375 "/></g></g></g><g fill="#000000" fill-opacity="1"><g transform="translate(244.816722, 46.292527)"><g><path d="M 6.71875 0.34375 C 4.925781 0.34375 3.53125 -0.140625 2.53125 -1.109375 C 1.53125 -2.085938 1.03125 -3.460938 1.03125 -5.234375 C 1.03125 -7.140625 1.648438 -8.59375 2.890625 -9.59375 C 4.140625 -10.601562 5.953125 -11.117188 8.328125 -11.140625 L 12.3125 -11.21875 L 12.3125 -12.15625 C 12.3125 -13.363281 12.097656 -14.257812 11.671875 -14.84375 C 11.253906 -15.425781 10.566406 -15.71875 9.609375 -15.71875 C 8.710938 -15.71875 8.054688 -15.515625 7.640625 -15.109375 C 7.234375 -14.710938 6.976562 -14.046875 6.875 -13.109375 L 1.859375 -13.34375 C 2.171875 -15.144531 2.992188 -16.507812 4.328125 -17.4375 C 5.671875 -18.363281 7.5 -18.828125 9.8125 -18.828125 C 12.144531 -18.828125 13.941406 -18.25 15.203125 -17.09375 C 16.472656 -15.945312 17.109375 -14.316406 17.109375 -12.203125 L 17.109375 -5.46875 C 17.109375 -4.425781 17.222656 -3.707031 17.453125 -3.3125 C 17.691406 -2.925781 18.082031 -2.734375 18.625 -2.734375 C 18.988281 -2.734375 19.34375 -2.769531 19.6875 -2.84375 L 19.6875 -0.234375 C 19.40625 -0.171875 19.148438 -0.109375 18.921875 -0.046875 C 18.691406 0.00390625 18.460938 0.046875 18.234375 0.078125 C 18.003906 0.117188 17.757812 0.148438 17.5 0.171875 C 17.25 0.191406 16.953125 0.203125 16.609375 0.203125 C 15.398438 0.203125 14.507812 -0.09375 13.9375 -0.6875 C 13.363281 -1.28125 13.019531 -2.148438 12.90625 -3.296875 L 12.796875 -3.296875 C 11.453125 -0.867188 9.425781 0.34375 6.71875 0.34375 Z M 12.3125 -8.5625 L 9.84375 -8.53125 C 8.726562 -8.476562 7.9375 -8.351562 7.46875 -8.15625 C 7 -7.957031 6.640625 -7.648438 6.390625 -7.234375 C 6.148438 -6.828125 6.03125 -6.285156 6.03125 -5.609375 C 6.03125 -4.734375 6.234375 -4.082031 6.640625 -3.65625 C 7.046875 -3.226562 7.582031 -3.015625 8.25 -3.015625 C 9 -3.015625 9.6875 -3.21875 10.3125 -3.625 C 10.9375 -4.03125 11.425781 -4.59375 11.78125 -5.3125 C 12.132812 -6.039062 12.3125 -6.8125 12.3125 -7.625 Z M 12.3125 -8.5625 "/></g></g></g><g fill="#000000" fill-opacity="1"><g transform="translate(264.277708, 46.292527)"><g><path d="M 14.25 0 L 9.3125 -8.375 L 7.25 -6.9375 L 7.25 0 L 2.4375 0 L 2.4375 -25.359375 L 7.25 -25.359375 L 7.25 -10.828125 L 13.84375 -18.484375 L 19 -18.484375 L 12.515625 -11.28125 L 19.5 0 Z M 14.25 0 "/></g></g></g><g fill="#000000" fill-opacity="1"><g transform="translate(283.738705, 46.292527)"><g><path d="M 6.71875 0.34375 C 4.925781 0.34375 3.53125 -0.140625 2.53125 -1.109375 C 1.53125 -2.085938 1.03125 -3.460938 1.03125 -5.234375 C 1.03125 -7.140625 1.648438 -8.59375 2.890625 -9.59375 C 4.140625 -10.601562 5.953125 -11.117188 8.328125 -11.140625 L 12.3125 -11.21875 L 12.3125 -12.15625 C 12.3125 -13.363281 12.097656 -14.257812 11.671875 -14.84375 C 11.253906 -15.425781 10.566406 -15.71875 9.609375 -15.71875 C 8.710938 -15.71875 8.054688 -15.515625 7.640625 -15.109375 C 7.234375 -14.710938 6.976562 -14.046875 6.875 -13.109375 L 1.859375 -13.34375 C 2.171875 -15.144531 2.992188 -16.507812 4.328125 -17.4375 C 5.671875 -18.363281 7.5 -18.828125 9.8125 -18.828125 C 12.144531 -18.828125 13.941406 -18.25 15.203125 -17.09375 C 16.472656 -15.945312 17.109375 -14.316406 17.109375 -12.203125 L 17.109375 -5.46875 C 17.109375 -4.425781 17.222656 -3.707031 17.453125 -3.3125 C 17.691406 -2.925781 18.082031 -2.734375 18.625 -2.734375 C 18.988281 -2.734375 19.34375 -2.769531 19.6875 -2.84375 L 19.6875 -0.234375 C 19.40625 -0.171875 19.148438 -0.109375 18.921875 -0.046875 C 18.691406 0.00390625 18.460938 0.046875 18.234375 0.078125 C 18.003906 0.117188 17.757812 0.148438 17.5 0.171875 C 17.25 0.191406 16.953125 0.203125 16.609375 0.203125 C 15.398438 0.203125 14.507812 -0.09375 13.9375 -0.6875 C 13.363281 -1.28125 13.019531 -2.148438 12.90625 -3.296875 L 12.796875 -3.296875 C 11.453125 -0.867188 9.425781 0.34375 6.71875 0.34375 Z M 12.3125 -8.5625 L 9.84375 -8.53125 C 8.726562 -8.476562 7.9375 -8.351562 7.46875 -8.15625 C 7 -7.957031 6.640625 -7.648438 6.390625 -7.234375 C 6.148438 -6.828125 6.03125 -6.285156 6.03125 -5.609375 C 6.03125 -4.734375 6.234375 -4.082031 6.640625 -3.65625 C 7.046875 -3.226562 7.582031 -3.015625 8.25 -3.015625 C 9 -3.015625 9.6875 -3.21875 10.3125 -3.625 C 10.9375 -4.03125 11.425781 -4.59375 11.78125 -5.3125 C 12.132812 -6.039062 12.3125 -6.8125 12.3125 -7.625 Z M 12.3125 -8.5625 "/></g></g></g><g fill="#000000" fill-opacity="1"><g transform="translate(303.199679, 46.292527)"><g><path d="M 14.421875 0 L 14.421875 -10.375 C 14.421875 -13.625 13.320312 -15.25 11.125 -15.25 C 9.957031 -15.25 9.019531 -14.75 8.3125 -13.75 C 7.601562 -12.75 7.25 -11.46875 7.25 -9.90625 L 7.25 0 L 2.4375 0 L 2.4375 -14.359375 C 2.4375 -15.347656 2.421875 -16.15625 2.390625 -16.78125 C 2.367188 -17.414062 2.34375 -17.984375 2.3125 -18.484375 L 6.890625 -18.484375 C 6.921875 -18.273438 6.960938 -17.695312 7.015625 -16.75 C 7.078125 -15.8125 7.109375 -15.164062 7.109375 -14.8125 L 7.171875 -14.8125 C 7.828125 -16.226562 8.644531 -17.253906 9.625 -17.890625 C 10.601562 -18.523438 11.769531 -18.84375 13.125 -18.84375 C 15.082031 -18.84375 16.582031 -18.238281 17.625 -17.03125 C 18.675781 -15.832031 19.203125 -14.066406 19.203125 -11.734375 L 19.203125 0 Z M 14.421875 0 "/></g></g></g><g fill="#000000" fill-opacity="1"><g transform="translate(324.574288, 46.292527)"><g/></g></g><g fill="#000000" fill-opacity="1"><g transform="translate(334.296249, 46.292527)"><g><path d="M 2.34375 0 L 2.34375 -24.078125 L 7.390625 -24.078125 L 7.390625 0 Z M 2.34375 0 "/></g></g></g><g fill="#000000" fill-opacity="1"><g transform="translate(344.01821, 46.292527)"><g><path d="M 2.34375 0 L 2.34375 -24.078125 L 7.390625 -24.078125 L 7.390625 0 Z M 2.34375 0 "/></g></g></g></svg>