<svg xmlns="http://www.w3.org/2000/svg" xmlns:xlink="http://www.w3.org/1999/xlink" width="567" zoomAndPan="magnify" viewBox="0 0 425.25 68.999997" height="92" preserveAspectRatio="xMidYMid meet" version="1.0"><defs><g/><clipPath id="61e2b53a0f"><path d="M 2.789062 0.667969 L 421.683594 0.667969 L 421.683594 67.910156 L 2.789062 67.910156 Z M 2.789062 0.667969 " clip-rule="nonzero"/></clipPath></defs><g clip-path="url(#61e2b53a0f)"><path stroke-linecap="butt" transform="matrix(0.74868, 0, 0, 0.74868, 2.787459, 0.667536)" fill="none" stroke-linejoin="miter" d="M 0.00214169 0.000577974 L 559.513261 0.000577974 L 559.513261 89.814956 L 0.00214169 89.814956 Z M 0.00214169 0.000577974 " stroke="#000000" stroke-width="12" stroke-opacity="1" stroke-miterlimit="4"/></g><g fill="#000000" fill-opacity="1"><g transform="translate(134.590297, 46.271766)"><g><path d="M 23.640625 -6.859375 C 23.640625 -4.671875 22.820312 -2.976562 21.1875 -1.78125 C 19.550781 -0.59375 17.273438 0 14.359375 0 L 2.34375 0 L 2.34375 -24.03125 L 13.34375 -24.03125 C 16.269531 -24.03125 18.488281 -23.519531 20 -22.5 C 21.507812 -21.488281 22.265625 -19.988281 22.265625 -18 C 22.265625 -16.632812 21.882812 -15.484375 21.125 -14.546875 C 20.375 -13.609375 19.222656 -12.972656 17.671875 -12.640625 C 19.617188 -12.410156 21.097656 -11.796875 22.109375 -10.796875 C 23.128906 -9.804688 23.640625 -8.492188 23.640625 -6.859375 Z M 17.203125 -17.3125 C 17.203125 -18.394531 16.851562 -19.160156 16.15625 -19.609375 C 15.46875 -20.066406 14.453125 -20.296875 13.109375 -20.296875 L 7.375 -20.296875 L 7.375 -14.34375 L 13.140625 -14.34375 C 14.554688 -14.34375 15.585938 -14.585938 16.234375 -15.078125 C 16.878906 -15.578125 17.203125 -16.320312 17.203125 -17.3125 Z M 18.59375 -7.25 C 18.59375 -9.5 16.976562 -10.625 13.75 -10.625 L 7.375 -10.625 L 7.375 -3.734375 L 13.9375 -3.734375 C 15.550781 -3.734375 16.726562 -4.023438 17.46875 -4.609375 C 18.21875 -5.203125 18.59375 -6.082031 18.59375 -7.25 Z M 18.59375 -7.25 "/></g></g></g><g fill="#000000" fill-opacity="1"><g transform="translate(159.816042, 46.271766)"><g><path d="M 6.953125 -18.453125 L 6.953125 -8.109375 C 6.953125 -4.859375 8.046875 -3.234375 10.234375 -3.234375 C 11.390625 -3.234375 12.320312 -3.734375 13.03125 -4.734375 C 13.75 -5.734375 14.109375 -7.007812 14.109375 -8.5625 L 14.109375 -18.453125 L 18.90625 -18.453125 L 18.90625 -4.125 C 18.90625 -2.5625 18.945312 -1.1875 19.03125 0 L 14.46875 0 C 14.332031 -1.632812 14.265625 -2.859375 14.265625 -3.671875 L 14.171875 -3.671875 C 13.535156 -2.265625 12.722656 -1.242188 11.734375 -0.609375 C 10.753906 0.0234375 9.585938 0.34375 8.234375 0.34375 C 6.285156 0.34375 4.785156 -0.253906 3.734375 -1.453125 C 2.691406 -2.660156 2.171875 -4.421875 2.171875 -6.734375 L 2.171875 -18.453125 Z M 6.953125 -18.453125 "/></g></g></g><g fill="#000000" fill-opacity="1"><g transform="translate(181.153032, 46.271766)"><g/></g></g><g fill="#000000" fill-opacity="1"><g transform="translate(190.857866, 46.271766)"><g><path d="M 23.765625 -12.203125 C 23.765625 -9.722656 23.273438 -7.554688 22.296875 -5.703125 C 21.328125 -3.859375 19.953125 -2.445312 18.171875 -1.46875 C 16.390625 -0.488281 14.351562 0 12.0625 0 L 2.34375 0 L 2.34375 -24.03125 L 11.03125 -24.03125 C 15.082031 -24.03125 18.21875 -23.007812 20.4375 -20.96875 C 22.65625 -18.925781 23.765625 -16.003906 23.765625 -12.203125 Z M 18.703125 -12.203125 C 18.703125 -14.773438 18.03125 -16.738281 16.6875 -18.09375 C 15.34375 -19.457031 13.425781 -20.140625 10.9375 -20.140625 L 7.375 -20.140625 L 7.375 -3.890625 L 11.640625 -3.890625 C 13.796875 -3.890625 15.507812 -4.632812 16.78125 -6.125 C 18.0625 -7.613281 18.703125 -9.640625 18.703125 -12.203125 Z M 18.703125 -12.203125 "/></g></g></g><g fill="#000000" fill-opacity="1"><g transform="translate(216.083612, 46.271766)"><g><path d="M 6.703125 0.34375 C 4.921875 0.34375 3.53125 -0.140625 2.53125 -1.109375 C 1.53125 -2.085938 1.03125 -3.457031 1.03125 -5.21875 C 1.03125 -7.132812 1.648438 -8.59375 2.890625 -9.59375 C 4.140625 -10.59375 5.945312 -11.101562 8.3125 -11.125 L 12.28125 -11.1875 L 12.28125 -12.125 C 12.28125 -13.332031 12.066406 -14.226562 11.640625 -14.8125 C 11.222656 -15.394531 10.539062 -15.6875 9.59375 -15.6875 C 8.695312 -15.6875 8.039062 -15.484375 7.625 -15.078125 C 7.21875 -14.679688 6.960938 -14.015625 6.859375 -13.078125 L 1.859375 -13.328125 C 2.160156 -15.117188 2.976562 -16.476562 4.3125 -17.40625 C 5.65625 -18.332031 7.484375 -18.796875 9.796875 -18.796875 C 12.128906 -18.796875 13.925781 -18.222656 15.1875 -17.078125 C 16.445312 -15.929688 17.078125 -14.300781 17.078125 -12.1875 L 17.078125 -5.453125 C 17.078125 -4.421875 17.191406 -3.707031 17.421875 -3.3125 C 17.660156 -2.925781 18.050781 -2.734375 18.59375 -2.734375 C 18.957031 -2.734375 19.3125 -2.765625 19.65625 -2.828125 L 19.65625 -0.234375 C 19.363281 -0.171875 19.101562 -0.109375 18.875 -0.046875 C 18.65625 0.00390625 18.429688 0.046875 18.203125 0.078125 C 17.972656 0.117188 17.726562 0.148438 17.46875 0.171875 C 17.21875 0.191406 16.921875 0.203125 16.578125 0.203125 C 15.367188 0.203125 14.476562 -0.0859375 13.90625 -0.671875 C 13.332031 -1.265625 12.988281 -2.140625 12.875 -3.296875 L 12.78125 -3.296875 C 11.4375 -0.867188 9.410156 0.34375 6.703125 0.34375 Z M 12.28125 -8.546875 L 9.828125 -8.515625 C 8.710938 -8.460938 7.921875 -8.335938 7.453125 -8.140625 C 6.984375 -7.941406 6.625 -7.640625 6.375 -7.234375 C 6.132812 -6.828125 6.015625 -6.28125 6.015625 -5.59375 C 6.015625 -4.71875 6.21875 -4.066406 6.625 -3.640625 C 7.03125 -3.210938 7.566406 -3 8.234375 -3 C 8.984375 -3 9.664062 -3.203125 10.28125 -3.609375 C 10.90625 -4.023438 11.394531 -4.59375 11.75 -5.3125 C 12.101562 -6.03125 12.28125 -6.796875 12.28125 -7.609375 Z M 12.28125 -8.546875 "/></g></g></g><g fill="#000000" fill-opacity="1"><g transform="translate(235.510336, 46.271766)"><g><path d="M 2.4375 0 L 2.4375 -14.125 C 2.4375 -15.132812 2.421875 -15.976562 2.390625 -16.65625 C 2.367188 -17.332031 2.335938 -17.929688 2.296875 -18.453125 L 6.875 -18.453125 C 6.90625 -18.253906 6.945312 -17.632812 7 -16.59375 C 7.0625 -15.550781 7.09375 -14.859375 7.09375 -14.515625 L 7.171875 -14.515625 C 7.628906 -15.816406 8.039062 -16.726562 8.40625 -17.25 C 8.769531 -17.78125 9.203125 -18.171875 9.703125 -18.421875 C 10.203125 -18.679688 10.828125 -18.8125 11.578125 -18.8125 C 12.191406 -18.8125 12.6875 -18.726562 13.0625 -18.5625 L 13.0625 -14.546875 C 12.289062 -14.722656 11.609375 -14.8125 11.015625 -14.8125 C 9.828125 -14.8125 8.898438 -14.328125 8.234375 -13.359375 C 7.566406 -12.390625 7.234375 -10.957031 7.234375 -9.0625 L 7.234375 0 Z M 2.4375 0 "/></g></g></g><g fill="#000000" fill-opacity="1"><g transform="translate(249.103926, 46.271766)"><g><path d="M 13.3125 0 L 13.3125 -10.359375 C 13.3125 -13.597656 12.378906 -15.21875 10.515625 -15.21875 C 9.546875 -15.21875 8.753906 -14.722656 8.140625 -13.734375 C 7.535156 -12.742188 7.234375 -11.460938 7.234375 -9.890625 L 7.234375 0 L 2.4375 0 L 2.4375 -14.328125 C 2.4375 -15.316406 2.421875 -16.125 2.390625 -16.75 C 2.367188 -17.382812 2.335938 -17.953125 2.296875 -18.453125 L 6.875 -18.453125 C 6.90625 -18.242188 6.945312 -17.664062 7 -16.71875 C 7.0625 -15.78125 7.09375 -15.140625 7.09375 -14.796875 L 7.171875 -14.796875 C 7.753906 -16.203125 8.488281 -17.222656 9.375 -17.859375 C 10.257812 -18.492188 11.3125 -18.8125 12.53125 -18.8125 C 15.351562 -18.8125 17.066406 -17.472656 17.671875 -14.796875 L 17.78125 -14.796875 C 18.40625 -16.222656 19.15625 -17.25 20.03125 -17.875 C 20.90625 -18.5 22.019531 -18.8125 23.375 -18.8125 C 25.164062 -18.8125 26.535156 -18.203125 27.484375 -16.984375 C 28.429688 -15.765625 28.90625 -14.007812 28.90625 -11.71875 L 28.90625 0 L 24.140625 0 L 24.140625 -10.359375 C 24.140625 -13.597656 23.207031 -15.21875 21.34375 -15.21875 C 20.40625 -15.21875 19.640625 -14.765625 19.046875 -13.859375 C 18.453125 -12.953125 18.125 -11.703125 18.0625 -10.109375 L 18.0625 0 Z M 13.3125 0 "/></g></g></g><g fill="#000000" fill-opacity="1"><g transform="translate(280.162807, 46.271766)"><g><path d="M 2.4375 -21.78125 L 2.4375 -25.3125 L 7.234375 -25.3125 L 7.234375 -21.78125 Z M 2.4375 0 L 2.4375 -18.453125 L 7.234375 -18.453125 L 7.234375 0 Z M 2.4375 0 "/></g></g></g></svg>