<svg xmlns="http://www.w3.org/2000/svg" xmlns:xlink="http://www.w3.org/1999/xlink" width="567" zoomAndPan="magnify" viewBox="0 0 425.25 68.999997" height="92" preserveAspectRatio="xMidYMid meet" version="1.0"><defs><g/><clipPath id="d8b00d18ec"><path d="M 2.789062 0.667969 L 421.683594 0.667969 L 421.683594 67.910156 L 2.789062 67.910156 Z M 2.789062 0.667969 " clip-rule="nonzero"/></clipPath></defs><g clip-path="url(#d8b00d18ec)"><path stroke-linecap="butt" transform="matrix(0.74868, 0, 0, 0.74868, 2.787459, 0.667536)" fill="none" stroke-linejoin="miter" d="M 0.00214169 0.000577974 L 559.513261 0.000577974 L 559.513261 89.814956 L 0.00214169 89.814956 Z M 0.00214169 0.000577974 " stroke="#000000" stroke-width="12" stroke-opacity="1" stroke-miterlimit="4"/></g><g fill="#000000" fill-opacity="1"><g transform="translate(17.445344, 46.271766)"><g><path d="M 13.1875 -20.140625 L 13.1875 0 L 8.15625 0 L 8.15625 -20.140625 L 0.390625 -20.140625 L 0.390625 -24.03125 L 20.96875 -24.03125 L 20.96875 -20.140625 Z M 13.1875 -20.140625 "/></g></g></g><g fill="#000000" fill-opacity="1"><g transform="translate(38.151218, 46.271766)"><g><path d="M 2.4375 -21.78125 L 2.4375 -25.3125 L 7.234375 -25.3125 L 7.234375 -21.78125 Z M 2.4375 0 L 2.4375 -18.453125 L 7.234375 -18.453125 L 7.234375 0 Z M 2.4375 0 "/></g></g></g><g fill="#000000" fill-opacity="1"><g transform="translate(47.856052, 46.271766)"><g><path d="M 14.390625 0 C 14.347656 -0.164062 14.296875 -0.59375 14.234375 -1.28125 C 14.171875 -1.96875 14.140625 -2.539062 14.140625 -3 L 14.078125 -3 C 13.035156 -0.769531 11.066406 0.34375 8.171875 0.34375 C 6.023438 0.34375 4.363281 -0.492188 3.1875 -2.171875 C 2.019531 -3.847656 1.4375 -6.195312 1.4375 -9.21875 C 1.4375 -12.269531 2.050781 -14.628906 3.28125 -16.296875 C 4.519531 -17.960938 6.269531 -18.796875 8.53125 -18.796875 C 9.832031 -18.796875 10.957031 -18.519531 11.90625 -17.96875 C 12.863281 -17.425781 13.597656 -16.617188 14.109375 -15.546875 L 14.140625 -15.546875 L 14.109375 -18.578125 L 14.109375 -25.3125 L 18.90625 -25.3125 L 18.90625 -4.03125 C 18.90625 -2.882812 18.945312 -1.539062 19.03125 0 Z M 14.171875 -9.328125 C 14.171875 -11.316406 13.835938 -12.847656 13.171875 -13.921875 C 12.515625 -15.003906 11.535156 -15.546875 10.234375 -15.546875 C 8.953125 -15.546875 8 -15.023438 7.375 -13.984375 C 6.75 -12.941406 6.4375 -11.351562 6.4375 -9.21875 C 6.4375 -5.03125 7.691406 -2.9375 10.203125 -2.9375 C 11.460938 -2.9375 12.4375 -3.488281 13.125 -4.59375 C 13.820312 -5.707031 14.171875 -7.285156 14.171875 -9.328125 Z M 14.171875 -9.328125 "/></g></g></g><g fill="#000000" fill-opacity="1"><g transform="translate(69.193042, 46.271766)"><g><path d="M 6.703125 0.34375 C 4.921875 0.34375 3.53125 -0.140625 2.53125 -1.109375 C 1.53125 -2.085938 1.03125 -3.457031 1.03125 -5.21875 C 1.03125 -7.132812 1.648438 -8.59375 2.890625 -9.59375 C 4.140625 -10.59375 5.945312 -11.101562 8.3125 -11.125 L 12.28125 -11.1875 L 12.28125 -12.125 C 12.28125 -13.332031 12.066406 -14.226562 11.640625 -14.8125 C 11.222656 -15.394531 10.539062 -15.6875 9.59375 -15.6875 C 8.695312 -15.6875 8.039062 -15.484375 7.625 -15.078125 C 7.21875 -14.679688 6.960938 -14.015625 6.859375 -13.078125 L 1.859375 -13.328125 C 2.160156 -15.117188 2.976562 -16.476562 4.3125 -17.40625 C 5.65625 -18.332031 7.484375 -18.796875 9.796875 -18.796875 C 12.128906 -18.796875 13.925781 -18.222656 15.1875 -17.078125 C 16.445312 -15.929688 17.078125 -14.300781 17.078125 -12.1875 L 17.078125 -5.453125 C 17.078125 -4.421875 17.191406 -3.707031 17.421875 -3.3125 C 17.660156 -2.925781 18.050781 -2.734375 18.59375 -2.734375 C 18.957031 -2.734375 19.3125 -2.765625 19.65625 -2.828125 L 19.65625 -0.234375 C 19.363281 -0.171875 19.101562 -0.109375 18.875 -0.046875 C 18.65625 0.00390625 18.429688 0.046875 18.203125 0.078125 C 17.972656 0.117188 17.726562 0.148438 17.46875 0.171875 C 17.21875 0.191406 16.921875 0.203125 16.578125 0.203125 C 15.367188 0.203125 14.476562 -0.0859375 13.90625 -0.671875 C 13.332031 -1.265625 12.988281 -2.140625 12.875 -3.296875 L 12.78125 -3.296875 C 11.4375 -0.867188 9.410156 0.34375 6.703125 0.34375 Z M 12.28125 -8.546875 L 9.828125 -8.515625 C 8.710938 -8.460938 7.921875 -8.335938 7.453125 -8.140625 C 6.984375 -7.941406 6.625 -7.640625 6.375 -7.234375 C 6.132812 -6.828125 6.015625 -6.28125 6.015625 -5.59375 C 6.015625 -4.71875 6.21875 -4.066406 6.625 -3.640625 C 7.03125 -3.210938 7.566406 -3 8.234375 -3 C 8.984375 -3 9.664062 -3.203125 10.28125 -3.609375 C 10.90625 -4.023438 11.394531 -4.59375 11.75 -5.3125 C 12.101562 -6.03125 12.28125 -6.796875 12.28125 -7.609375 Z M 12.28125 -8.546875 "/></g></g></g><g fill="#000000" fill-opacity="1"><g transform="translate(88.619766, 46.271766)"><g><path d="M 14.234375 0 L 9.296875 -8.359375 L 7.234375 -6.921875 L 7.234375 0 L 2.4375 0 L 2.4375 -25.3125 L 7.234375 -25.3125 L 7.234375 -10.8125 L 13.8125 -18.453125 L 18.96875 -18.453125 L 12.484375 -11.265625 L 19.46875 0 Z M 14.234375 0 "/></g></g></g><g fill="#000000" fill-opacity="1"><g transform="translate(108.04649, 46.271766)"><g/></g></g><g fill="#000000" fill-opacity="1"><g transform="translate(117.751324, 46.271766)"><g><path d="M 6.703125 0.34375 C 4.921875 0.34375 3.53125 -0.140625 2.53125 -1.109375 C 1.53125 -2.085938 1.03125 -3.457031 1.03125 -5.21875 C 1.03125 -7.132812 1.648438 -8.59375 2.890625 -9.59375 C 4.140625 -10.59375 5.945312 -11.101562 8.3125 -11.125 L 12.28125 -11.1875 L 12.28125 -12.125 C 12.28125 -13.332031 12.066406 -14.226562 11.640625 -14.8125 C 11.222656 -15.394531 10.539062 -15.6875 9.59375 -15.6875 C 8.695312 -15.6875 8.039062 -15.484375 7.625 -15.078125 C 7.21875 -14.679688 6.960938 -14.015625 6.859375 -13.078125 L 1.859375 -13.328125 C 2.160156 -15.117188 2.976562 -16.476562 4.3125 -17.40625 C 5.65625 -18.332031 7.484375 -18.796875 9.796875 -18.796875 C 12.128906 -18.796875 13.925781 -18.222656 15.1875 -17.078125 C 16.445312 -15.929688 17.078125 -14.300781 17.078125 -12.1875 L 17.078125 -5.453125 C 17.078125 -4.421875 17.191406 -3.707031 17.421875 -3.3125 C 17.660156 -2.925781 18.050781 -2.734375 18.59375 -2.734375 C 18.957031 -2.734375 19.3125 -2.765625 19.65625 -2.828125 L 19.65625 -0.234375 C 19.363281 -0.171875 19.101562 -0.109375 18.875 -0.046875 C 18.65625 0.00390625 18.429688 0.046875 18.203125 0.078125 C 17.972656 0.117188 17.726562 0.148438 17.46875 0.171875 C 17.21875 0.191406 16.921875 0.203125 16.578125 0.203125 C 15.367188 0.203125 14.476562 -0.0859375 13.90625 -0.671875 C 13.332031 -1.265625 12.988281 -2.140625 12.875 -3.296875 L 12.78125 -3.296875 C 11.4375 -0.867188 9.410156 0.34375 6.703125 0.34375 Z M 12.28125 -8.546875 L 9.828125 -8.515625 C 8.710938 -8.460938 7.921875 -8.335938 7.453125 -8.140625 C 6.984375 -7.941406 6.625 -7.640625 6.375 -7.234375 C 6.132812 -6.828125 6.015625 -6.28125 6.015625 -5.59375 C 6.015625 -4.71875 6.21875 -4.066406 6.625 -3.640625 C 7.03125 -3.210938 7.566406 -3 8.234375 -3 C 8.984375 -3 9.664062 -3.203125 10.28125 -3.609375 C 10.90625 -4.023438 11.394531 -4.59375 11.75 -5.3125 C 12.101562 -6.03125 12.28125 -6.796875 12.28125 -7.609375 Z M 12.28125 -8.546875 "/></g></g></g><g fill="#000000" fill-opacity="1"><g transform="translate(137.178049, 46.271766)"><g><path d="M 14.390625 0 C 14.347656 -0.164062 14.296875 -0.59375 14.234375 -1.28125 C 14.171875 -1.96875 14.140625 -2.539062 14.140625 -3 L 14.078125 -3 C 13.035156 -0.769531 11.066406 0.34375 8.171875 0.34375 C 6.023438 0.34375 4.363281 -0.492188 3.1875 -2.171875 C 2.019531 -3.847656 1.4375 -6.195312 1.4375 -9.21875 C 1.4375 -12.269531 2.050781 -14.628906 3.28125 -16.296875 C 4.519531 -17.960938 6.269531 -18.796875 8.53125 -18.796875 C 9.832031 -18.796875 10.957031 -18.519531 11.90625 -17.96875 C 12.863281 -17.425781 13.597656 -16.617188 14.109375 -15.546875 L 14.140625 -15.546875 L 14.109375 -18.578125 L 14.109375 -25.3125 L 18.90625 -25.3125 L 18.90625 -4.03125 C 18.90625 -2.882812 18.945312 -1.539062 19.03125 0 Z M 14.171875 -9.328125 C 14.171875 -11.316406 13.835938 -12.847656 13.171875 -13.921875 C 12.515625 -15.003906 11.535156 -15.546875 10.234375 -15.546875 C 8.953125 -15.546875 8 -15.023438 7.375 -13.984375 C 6.75 -12.941406 6.4375 -11.351562 6.4375 -9.21875 C 6.4375 -5.03125 7.691406 -2.9375 10.203125 -2.9375 C 11.460938 -2.9375 12.4375 -3.488281 13.125 -4.59375 C 13.820312 -5.707031 14.171875 -7.285156 14.171875 -9.328125 Z M 14.171875 -9.328125 "/></g></g></g><g fill="#000000" fill-opacity="1"><g transform="translate(158.515038, 46.271766)"><g><path d="M 6.703125 0.34375 C 4.921875 0.34375 3.53125 -0.140625 2.53125 -1.109375 C 1.53125 -2.085938 1.03125 -3.457031 1.03125 -5.21875 C 1.03125 -7.132812 1.648438 -8.59375 2.890625 -9.59375 C 4.140625 -10.59375 5.945312 -11.101562 8.3125 -11.125 L 12.28125 -11.1875 L 12.28125 -12.125 C 12.28125 -13.332031 12.066406 -14.226562 11.640625 -14.8125 C 11.222656 -15.394531 10.539062 -15.6875 9.59375 -15.6875 C 8.695312 -15.6875 8.039062 -15.484375 7.625 -15.078125 C 7.21875 -14.679688 6.960938 -14.015625 6.859375 -13.078125 L 1.859375 -13.328125 C 2.160156 -15.117188 2.976562 -16.476562 4.3125 -17.40625 C 5.65625 -18.332031 7.484375 -18.796875 9.796875 -18.796875 C 12.128906 -18.796875 13.925781 -18.222656 15.1875 -17.078125 C 16.445312 -15.929688 17.078125 -14.300781 17.078125 -12.1875 L 17.078125 -5.453125 C 17.078125 -4.421875 17.191406 -3.707031 17.421875 -3.3125 C 17.660156 -2.925781 18.050781 -2.734375 18.59375 -2.734375 C 18.957031 -2.734375 19.3125 -2.765625 19.65625 -2.828125 L 19.65625 -0.234375 C 19.363281 -0.171875 19.101562 -0.109375 18.875 -0.046875 C 18.65625 0.00390625 18.429688 0.046875 18.203125 0.078125 C 17.972656 0.117188 17.726562 0.148438 17.46875 0.171875 C 17.21875 0.191406 16.921875 0.203125 16.578125 0.203125 C 15.367188 0.203125 14.476562 -0.0859375 13.90625 -0.671875 C 13.332031 -1.265625 12.988281 -2.140625 12.875 -3.296875 L 12.78125 -3.296875 C 11.4375 -0.867188 9.410156 0.34375 6.703125 0.34375 Z M 12.28125 -8.546875 L 9.828125 -8.515625 C 8.710938 -8.460938 7.921875 -8.335938 7.453125 -8.140625 C 6.984375 -7.941406 6.625 -7.640625 6.375 -7.234375 C 6.132812 -6.828125 6.015625 -6.28125 6.015625 -5.59375 C 6.015625 -4.71875 6.21875 -4.066406 6.625 -3.640625 C 7.03125 -3.210938 7.566406 -3 8.234375 -3 C 8.984375 -3 9.664062 -3.203125 10.28125 -3.609375 C 10.90625 -4.023438 11.394531 -4.59375 11.75 -5.3125 C 12.101562 -6.03125 12.28125 -6.796875 12.28125 -7.609375 Z M 12.28125 -8.546875 "/></g></g></g><g fill="#000000" fill-opacity="1"><g transform="translate(177.941762, 46.271766)"><g/></g></g><g fill="#000000" fill-opacity="1"><g transform="translate(187.646596, 46.271766)"><g><path d="M 4.828125 7.25 C 3.679688 7.25 2.675781 7.175781 1.8125 7.03125 L 1.8125 3.609375 C 2.414062 3.703125 2.96875 3.75 3.46875 3.75 C 4.144531 3.75 4.707031 3.640625 5.15625 3.421875 C 5.601562 3.210938 6.003906 2.859375 6.359375 2.359375 C 6.722656 1.859375 7.128906 1.007812 7.578125 -0.1875 L 0.265625 -18.453125 L 5.34375 -18.453125 L 8.234375 -9.8125 C 8.691406 -8.570312 9.269531 -6.671875 9.96875 -4.109375 L 10.390625 -5.734375 L 11.5 -9.734375 L 14.234375 -18.453125 L 19.25 -18.453125 L 11.9375 0.96875 C 10.957031 3.332031 9.941406 4.96875 8.890625 5.875 C 7.835938 6.789062 6.484375 7.25 4.828125 7.25 Z M 4.828125 7.25 "/></g></g></g><g fill="#000000" fill-opacity="1"><g transform="translate(207.073321, 46.271766)"><g><path d="M 6.703125 0.34375 C 4.921875 0.34375 3.53125 -0.140625 2.53125 -1.109375 C 1.53125 -2.085938 1.03125 -3.457031 1.03125 -5.21875 C 1.03125 -7.132812 1.648438 -8.59375 2.890625 -9.59375 C 4.140625 -10.59375 5.945312 -11.101562 8.3125 -11.125 L 12.28125 -11.1875 L 12.28125 -12.125 C 12.28125 -13.332031 12.066406 -14.226562 11.640625 -14.8125 C 11.222656 -15.394531 10.539062 -15.6875 9.59375 -15.6875 C 8.695312 -15.6875 8.039062 -15.484375 7.625 -15.078125 C 7.21875 -14.679688 6.960938 -14.015625 6.859375 -13.078125 L 1.859375 -13.328125 C 2.160156 -15.117188 2.976562 -16.476562 4.3125 -17.40625 C 5.65625 -18.332031 7.484375 -18.796875 9.796875 -18.796875 C 12.128906 -18.796875 13.925781 -18.222656 15.1875 -17.078125 C 16.445312 -15.929688 17.078125 -14.300781 17.078125 -12.1875 L 17.078125 -5.453125 C 17.078125 -4.421875 17.191406 -3.707031 17.421875 -3.3125 C 17.660156 -2.925781 18.050781 -2.734375 18.59375 -2.734375 C 18.957031 -2.734375 19.3125 -2.765625 19.65625 -2.828125 L 19.65625 -0.234375 C 19.363281 -0.171875 19.101562 -0.109375 18.875 -0.046875 C 18.65625 0.00390625 18.429688 0.046875 18.203125 0.078125 C 17.972656 0.117188 17.726562 0.148438 17.46875 0.171875 C 17.21875 0.191406 16.921875 0.203125 16.578125 0.203125 C 15.367188 0.203125 14.476562 -0.0859375 13.90625 -0.671875 C 13.332031 -1.265625 12.988281 -2.140625 12.875 -3.296875 L 12.78125 -3.296875 C 11.4375 -0.867188 9.410156 0.34375 6.703125 0.34375 Z M 12.28125 -8.546875 L 9.828125 -8.515625 C 8.710938 -8.460938 7.921875 -8.335938 7.453125 -8.140625 C 6.984375 -7.941406 6.625 -7.640625 6.375 -7.234375 C 6.132812 -6.828125 6.015625 -6.28125 6.015625 -5.59375 C 6.015625 -4.71875 6.21875 -4.066406 6.625 -3.640625 C 7.03125 -3.210938 7.566406 -3 8.234375 -3 C 8.984375 -3 9.664062 -3.203125 10.28125 -3.609375 C 10.90625 -4.023438 11.394531 -4.59375 11.75 -5.3125 C 12.101562 -6.03125 12.28125 -6.796875 12.28125 -7.609375 Z M 12.28125 -8.546875 "/></g></g></g><g fill="#000000" fill-opacity="1"><g transform="translate(226.500033, 46.271766)"><g><path d="M 14.390625 0 L 14.390625 -10.359375 C 14.390625 -13.597656 13.296875 -15.21875 11.109375 -15.21875 C 9.941406 -15.21875 9.003906 -14.71875 8.296875 -13.71875 C 7.585938 -12.726562 7.234375 -11.453125 7.234375 -9.890625 L 7.234375 0 L 2.4375 0 L 2.4375 -14.328125 C 2.4375 -15.316406 2.421875 -16.125 2.390625 -16.75 C 2.367188 -17.382812 2.335938 -17.953125 2.296875 -18.453125 L 6.875 -18.453125 C 6.90625 -18.242188 6.945312 -17.664062 7 -16.71875 C 7.0625 -15.78125 7.09375 -15.140625 7.09375 -14.796875 L 7.171875 -14.796875 C 7.816406 -16.203125 8.628906 -17.222656 9.609375 -17.859375 C 10.585938 -18.492188 11.753906 -18.8125 13.109375 -18.8125 C 15.054688 -18.8125 16.550781 -18.207031 17.59375 -17 C 18.644531 -15.800781 19.171875 -14.039062 19.171875 -11.71875 L 19.171875 0 Z M 14.390625 0 "/></g></g></g><g fill="#000000" fill-opacity="1"><g transform="translate(247.837035, 46.271766)"><g><path d="M 10.171875 7.40625 C 7.921875 7.40625 6.109375 6.972656 4.734375 6.109375 C 3.359375 5.253906 2.515625 4.03125 2.203125 2.4375 L 7 1.875 C 7.164062 2.613281 7.53125 3.191406 8.09375 3.609375 C 8.65625 4.035156 9.390625 4.25 10.296875 4.25 C 11.628906 4.25 12.601562 3.835938 13.21875 3.015625 C 13.832031 2.203125 14.140625 0.988281 14.140625 -0.625 L 14.140625 -1.609375 L 14.171875 -3.421875 L 14.140625 -3.421875 C 13.085938 -1.160156 11.109375 -0.03125 8.203125 -0.03125 C 6.054688 -0.03125 4.390625 -0.835938 3.203125 -2.453125 C 2.023438 -4.066406 1.4375 -6.375 1.4375 -9.375 C 1.4375 -12.394531 2.039062 -14.722656 3.25 -16.359375 C 4.46875 -17.992188 6.238281 -18.8125 8.5625 -18.8125 C 11.25 -18.8125 13.109375 -17.703125 14.140625 -15.484375 L 14.234375 -15.484375 C 14.234375 -15.890625 14.253906 -16.429688 14.296875 -17.109375 C 14.347656 -17.796875 14.40625 -18.242188 14.46875 -18.453125 L 19 -18.453125 C 18.9375 -17.222656 18.90625 -15.800781 18.90625 -14.1875 L 18.90625 -0.5625 C 18.90625 2.0625 18.160156 4.046875 16.671875 5.390625 C 15.179688 6.734375 13.015625 7.40625 10.171875 7.40625 Z M 14.171875 -9.484375 C 14.171875 -11.378906 13.832031 -12.859375 13.15625 -13.921875 C 12.476562 -14.992188 11.515625 -15.53125 10.265625 -15.53125 C 7.710938 -15.53125 6.4375 -13.476562 6.4375 -9.375 C 6.4375 -5.363281 7.703125 -3.359375 10.234375 -3.359375 C 11.503906 -3.359375 12.476562 -3.890625 13.15625 -4.953125 C 13.832031 -6.015625 14.171875 -7.523438 14.171875 -9.484375 Z M 14.171875 -9.484375 "/></g></g></g><g fill="#000000" fill-opacity="1"><g transform="translate(269.174037, 46.271766)"><g/></g></g><g fill="#000000" fill-opacity="1"><g transform="translate(278.878859, 46.271766)"><g><path d="M 7.171875 0.3125 C 5.753906 0.3125 4.664062 -0.0703125 3.90625 -0.84375 C 3.144531 -1.613281 2.765625 -2.773438 2.765625 -4.328125 L 2.765625 -15.21875 L 0.421875 -15.21875 L 0.421875 -18.453125 L 3 -18.453125 L 4.5 -22.796875 L 7.5 -22.796875 L 7.5 -18.453125 L 11 -18.453125 L 11 -15.21875 L 7.5 -15.21875 L 7.5 -5.625 C 7.5 -4.726562 7.671875 -4.066406 8.015625 -3.640625 C 8.359375 -3.210938 8.890625 -3 9.609375 -3 C 9.984375 -3 10.515625 -3.078125 11.203125 -3.234375 L 11.203125 -0.265625 C 10.023438 0.117188 8.679688 0.3125 7.171875 0.3125 Z M 7.171875 0.3125 "/></g></g></g><g fill="#000000" fill-opacity="1"><g transform="translate(290.511016, 46.271766)"><g><path d="M 10 0.34375 C 7.21875 0.34375 5.082031 -0.476562 3.59375 -2.125 C 2.101562 -3.769531 1.359375 -6.164062 1.359375 -9.3125 C 1.359375 -12.363281 2.113281 -14.707031 3.625 -16.34375 C 5.144531 -17.976562 7.289062 -18.796875 10.0625 -18.796875 C 12.71875 -18.796875 14.742188 -17.914062 16.140625 -16.15625 C 17.535156 -14.40625 18.234375 -11.832031 18.234375 -8.4375 L 18.234375 -8.3125 L 6.390625 -8.3125 C 6.390625 -6.507812 6.722656 -5.148438 7.390625 -4.234375 C 8.054688 -3.316406 9.003906 -2.859375 10.234375 -2.859375 C 11.929688 -2.859375 13 -3.59375 13.4375 -5.0625 L 17.96875 -4.671875 C 16.65625 -1.328125 14 0.34375 10 0.34375 Z M 10 -15.78125 C 8.875 -15.78125 8.003906 -15.382812 7.390625 -14.59375 C 6.785156 -13.8125 6.46875 -12.71875 6.4375 -11.3125 L 13.59375 -11.3125 C 13.5 -12.800781 13.140625 -13.914062 12.515625 -14.65625 C 11.890625 -15.40625 11.050781 -15.78125 10 -15.78125 Z M 10 -15.78125 "/></g></g></g><g fill="#000000" fill-opacity="1"><g transform="translate(309.937728, 46.271766)"><g><path d="M 2.4375 0 L 2.4375 -14.125 C 2.4375 -15.132812 2.421875 -15.976562 2.390625 -16.65625 C 2.367188 -17.332031 2.335938 -17.929688 2.296875 -18.453125 L 6.875 -18.453125 C 6.90625 -18.253906 6.945312 -17.632812 7 -16.59375 C 7.0625 -15.550781 7.09375 -14.859375 7.09375 -14.515625 L 7.171875 -14.515625 C 7.628906 -15.816406 8.039062 -16.726562 8.40625 -17.25 C 8.769531 -17.78125 9.203125 -18.171875 9.703125 -18.421875 C 10.203125 -18.679688 10.828125 -18.8125 11.578125 -18.8125 C 12.191406 -18.8125 12.6875 -18.726562 13.0625 -18.5625 L 13.0625 -14.546875 C 12.289062 -14.722656 11.609375 -14.8125 11.015625 -14.8125 C 9.828125 -14.8125 8.898438 -14.328125 8.234375 -13.359375 C 7.566406 -12.390625 7.234375 -10.957031 7.234375 -9.0625 L 7.234375 0 Z M 2.4375 0 "/></g></g></g><g fill="#000000" fill-opacity="1"><g transform="translate(323.53133, 46.271766)"><g><path d="M 18 -5.390625 C 18 -3.609375 17.265625 -2.207031 15.796875 -1.1875 C 14.335938 -0.164062 12.316406 0.34375 9.734375 0.34375 C 7.203125 0.34375 5.257812 -0.0546875 3.90625 -0.859375 C 2.5625 -1.660156 1.671875 -2.910156 1.234375 -4.609375 L 5.4375 -5.234375 C 5.675781 -4.359375 6.085938 -3.738281 6.671875 -3.375 C 7.265625 -3.007812 8.285156 -2.828125 9.734375 -2.828125 C 11.078125 -2.828125 12.054688 -3 12.671875 -3.34375 C 13.285156 -3.6875 13.59375 -4.222656 13.59375 -4.953125 C 13.59375 -5.535156 13.34375 -6 12.84375 -6.34375 C 12.351562 -6.695312 11.519531 -6.992188 10.34375 -7.234375 C 7.632812 -7.765625 5.804688 -8.257812 4.859375 -8.71875 C 3.921875 -9.1875 3.203125 -9.785156 2.703125 -10.515625 C 2.210938 -11.253906 1.96875 -12.15625 1.96875 -13.21875 C 1.96875 -14.976562 2.644531 -16.347656 4 -17.328125 C 5.351562 -18.316406 7.28125 -18.8125 9.78125 -18.8125 C 11.96875 -18.8125 13.726562 -18.382812 15.0625 -17.53125 C 16.40625 -16.675781 17.242188 -15.441406 17.578125 -13.828125 L 13.328125 -13.390625 C 13.191406 -14.140625 12.851562 -14.695312 12.3125 -15.0625 C 11.78125 -15.4375 10.9375 -15.625 9.78125 -15.625 C 8.632812 -15.625 7.773438 -15.476562 7.203125 -15.1875 C 6.640625 -14.894531 6.359375 -14.410156 6.359375 -13.734375 C 6.359375 -13.203125 6.578125 -12.78125 7.015625 -12.46875 C 7.453125 -12.15625 8.191406 -11.894531 9.234375 -11.6875 C 10.671875 -11.382812 11.945312 -11.078125 13.0625 -10.765625 C 14.1875 -10.453125 15.085938 -10.078125 15.765625 -9.640625 C 16.441406 -9.210938 16.984375 -8.660156 17.390625 -7.984375 C 17.796875 -7.316406 18 -6.453125 18 -5.390625 Z M 18 -5.390625 "/></g></g></g><g fill="#000000" fill-opacity="1"><g transform="translate(342.958043, 46.271766)"><g><path d="M 2.4375 -21.78125 L 2.4375 -25.3125 L 7.234375 -25.3125 L 7.234375 -21.78125 Z M 2.4375 0 L 2.4375 -18.453125 L 7.234375 -18.453125 L 7.234375 0 Z M 2.4375 0 "/></g></g></g><g fill="#000000" fill-opacity="1"><g transform="translate(352.662888, 46.271766)"><g><path d="M 2.4375 0 L 2.4375 -14.125 C 2.4375 -15.132812 2.421875 -15.976562 2.390625 -16.65625 C 2.367188 -17.332031 2.335938 -17.929688 2.296875 -18.453125 L 6.875 -18.453125 C 6.90625 -18.253906 6.945312 -17.632812 7 -16.59375 C 7.0625 -15.550781 7.09375 -14.859375 7.09375 -14.515625 L 7.171875 -14.515625 C 7.628906 -15.816406 8.039062 -16.726562 8.40625 -17.25 C 8.769531 -17.78125 9.203125 -18.171875 9.703125 -18.421875 C 10.203125 -18.679688 10.828125 -18.8125 11.578125 -18.8125 C 12.191406 -18.8125 12.6875 -18.726562 13.0625 -18.5625 L 13.0625 -14.546875 C 12.289062 -14.722656 11.609375 -14.8125 11.015625 -14.8125 C 9.828125 -14.8125 8.898438 -14.328125 8.234375 -13.359375 C 7.566406 -12.390625 7.234375 -10.957031 7.234375 -9.0625 L 7.234375 0 Z M 2.4375 0 "/></g></g></g><g fill="#000000" fill-opacity="1"><g transform="translate(366.25649, 46.271766)"><g><path d="M 6.703125 0.34375 C 4.921875 0.34375 3.53125 -0.140625 2.53125 -1.109375 C 1.53125 -2.085938 1.03125 -3.457031 1.03125 -5.21875 C 1.03125 -7.132812 1.648438 -8.59375 2.890625 -9.59375 C 4.140625 -10.59375 5.945312 -11.101562 8.3125 -11.125 L 12.28125 -11.1875 L 12.28125 -12.125 C 12.28125 -13.332031 12.066406 -14.226562 11.640625 -14.8125 C 11.222656 -15.394531 10.539062 -15.6875 9.59375 -15.6875 C 8.695312 -15.6875 8.039062 -15.484375 7.625 -15.078125 C 7.21875 -14.679688 6.960938 -14.015625 6.859375 -13.078125 L 1.859375 -13.328125 C 2.160156 -15.117188 2.976562 -16.476562 4.3125 -17.40625 C 5.65625 -18.332031 7.484375 -18.796875 9.796875 -18.796875 C 12.128906 -18.796875 13.925781 -18.222656 15.1875 -17.078125 C 16.445312 -15.929688 17.078125 -14.300781 17.078125 -12.1875 L 17.078125 -5.453125 C 17.078125 -4.421875 17.191406 -3.707031 17.421875 -3.3125 C 17.660156 -2.925781 18.050781 -2.734375 18.59375 -2.734375 C 18.957031 -2.734375 19.3125 -2.765625 19.65625 -2.828125 L 19.65625 -0.234375 C 19.363281 -0.171875 19.101562 -0.109375 18.875 -0.046875 C 18.65625 0.00390625 18.429688 0.046875 18.203125 0.078125 C 17.972656 0.117188 17.726562 0.148438 17.46875 0.171875 C 17.21875 0.191406 16.921875 0.203125 16.578125 0.203125 C 15.367188 0.203125 14.476562 -0.0859375 13.90625 -0.671875 C 13.332031 -1.265625 12.988281 -2.140625 12.875 -3.296875 L 12.78125 -3.296875 C 11.4375 -0.867188 9.410156 0.34375 6.703125 0.34375 Z M 12.28125 -8.546875 L 9.828125 -8.515625 C 8.710938 -8.460938 7.921875 -8.335938 7.453125 -8.140625 C 6.984375 -7.941406 6.625 -7.640625 6.375 -7.234375 C 6.132812 -6.828125 6.015625 -6.28125 6.015625 -5.59375 C 6.015625 -4.71875 6.21875 -4.066406 6.625 -3.640625 C 7.03125 -3.210938 7.566406 -3 8.234375 -3 C 8.984375 -3 9.664062 -3.203125 10.28125 -3.609375 C 10.90625 -4.023438 11.394531 -4.59375 11.75 -5.3125 C 12.101562 -6.03125 12.28125 -6.796875 12.28125 -7.609375 Z M 12.28125 -8.546875 "/></g></g></g><g fill="#000000" fill-opacity="1"><g transform="translate(385.683203, 46.271766)"><g><path d="M 7.171875 0.3125 C 5.753906 0.3125 4.664062 -0.0703125 3.90625 -0.84375 C 3.144531 -1.613281 2.765625 -2.773438 2.765625 -4.328125 L 2.765625 -15.21875 L 0.421875 -15.21875 L 0.421875 -18.453125 L 3 -18.453125 L 4.5 -22.796875 L 7.5 -22.796875 L 7.5 -18.453125 L 11 -18.453125 L 11 -15.21875 L 7.5 -15.21875 L 7.5 -5.625 C 7.5 -4.726562 7.671875 -4.066406 8.015625 -3.640625 C 8.359375 -3.210938 8.890625 -3 9.609375 -3 C 9.984375 -3 10.515625 -3.078125 11.203125 -3.234375 L 11.203125 -0.265625 C 10.023438 0.117188 8.679688 0.3125 7.171875 0.3125 Z M 7.171875 0.3125 "/></g></g></g><g fill="#000000" fill-opacity="1"><g transform="translate(397.315359, 46.271766)"><g><path d="M 2.375 0 L 2.375 -5.203125 L 7.296875 -5.203125 L 7.296875 0 Z M 2.375 0 "/></g></g></g></svg>