<svg xmlns="http://www.w3.org/2000/svg" xmlns:xlink="http://www.w3.org/1999/xlink" width="560" zoomAndPan="magnify" viewBox="0 0 420 104.999996" height="140" preserveAspectRatio="xMidYMid meet" version="1.0"><defs><g/><clipPath id="e21e765a3a"><path d="M 0 0 L 419.695312 0 L 419.695312 104.25 L 0 104.25 Z M 0 0 " clip-rule="nonzero"/></clipPath></defs><g clip-path="url(#e21e765a3a)"><path stroke-linecap="butt" transform="matrix(0.75, 0, 0, 0.75, 0.000008, 0.000965015)" fill="none" stroke-linejoin="miter" d="M -0.0000106667 -0.00128669 L 559.59382 -0.00128669 L 559.59382 139.264358 L -0.0000106667 139.264358 Z M -0.0000106667 -0.00128669 " stroke="#000000" stroke-width="12" stroke-opacity="1" stroke-miterlimit="4"/></g><g fill="#000000" fill-opacity="1"><g transform="translate(63.036849, 48.473634)"><g><path d="M 19.359375 0 L 17.234375 -6.15625 L 8.046875 -6.15625 L 5.90625 0 L 0.875 0 L 9.65625 -24.078125 L 15.609375 -24.078125 L 24.359375 0 Z M 12.625 -20.375 L 12.53125 -20 C 12.414062 -19.582031 12.273438 -19.113281 12.109375 -18.59375 C 11.953125 -18.070312 10.972656 -15.191406 9.171875 -9.953125 L 16.09375 -9.953125 L 13.71875 -16.875 L 12.984375 -19.1875 Z M 12.625 -20.375 "/></g></g></g><g fill="#000000" fill-opacity="1"><g transform="translate(88.307084, 48.473634)"><g><path d="M 2.4375 0 L 2.4375 -25.359375 L 7.25 -25.359375 L 7.25 0 Z M 2.4375 0 "/></g></g></g><g fill="#000000" fill-opacity="1"><g transform="translate(98.029034, 48.473634)"><g><path d="M 6.96875 -18.484375 L 6.96875 -8.125 C 6.96875 -4.875 8.0625 -3.25 10.25 -3.25 C 11.414062 -3.25 12.351562 -3.742188 13.0625 -4.734375 C 13.78125 -5.734375 14.140625 -7.015625 14.140625 -8.578125 L 14.140625 -18.484375 L 18.9375 -18.484375 L 18.9375 -4.140625 C 18.9375 -2.566406 18.984375 -1.1875 19.078125 0 L 14.5 0 C 14.351562 -1.644531 14.28125 -2.867188 14.28125 -3.671875 L 14.203125 -3.671875 C 13.566406 -2.273438 12.753906 -1.253906 11.765625 -0.609375 C 10.773438 0.0234375 9.601562 0.34375 8.25 0.34375 C 6.289062 0.34375 4.785156 -0.253906 3.734375 -1.453125 C 2.691406 -2.660156 2.171875 -4.425781 2.171875 -6.75 L 2.171875 -18.484375 Z M 6.96875 -18.484375 "/></g></g></g><g fill="#000000" fill-opacity="1"><g transform="translate(119.403654, 48.473634)"><g><path d="M 10.15625 0.34375 C 7.351562 0.34375 5.1875 -0.488281 3.65625 -2.15625 C 2.132812 -3.832031 1.375 -6.160156 1.375 -9.140625 C 1.375 -12.191406 2.140625 -14.566406 3.671875 -16.265625 C 5.210938 -17.972656 7.394531 -18.828125 10.21875 -18.828125 C 12.394531 -18.828125 14.191406 -18.28125 15.609375 -17.1875 C 17.035156 -16.09375 17.929688 -14.582031 18.296875 -12.65625 L 13.46875 -12.421875 C 13.332031 -13.367188 12.988281 -14.125 12.4375 -14.6875 C 11.894531 -15.25 11.125 -15.53125 10.125 -15.53125 C 7.644531 -15.53125 6.40625 -13.460938 6.40625 -9.328125 C 6.40625 -5.066406 7.664062 -2.9375 10.1875 -2.9375 C 11.09375 -2.9375 11.851562 -3.222656 12.46875 -3.796875 C 13.09375 -4.378906 13.476562 -5.238281 13.625 -6.375 L 18.4375 -6.15625 C 18.269531 -4.882812 17.816406 -3.753906 17.078125 -2.765625 C 16.347656 -1.773438 15.382812 -1.007812 14.1875 -0.46875 C 12.988281 0.0703125 11.644531 0.34375 10.15625 0.34375 Z M 10.15625 0.34375 "/></g></g></g><g fill="#000000" fill-opacity="1"><g transform="translate(138.86464, 48.473634)"><g><path d="M 6.71875 0.34375 C 4.925781 0.34375 3.53125 -0.140625 2.53125 -1.109375 C 1.53125 -2.085938 1.03125 -3.460938 1.03125 -5.234375 C 1.03125 -7.140625 1.648438 -8.59375 2.890625 -9.59375 C 4.140625 -10.601562 5.953125 -11.117188 8.328125 -11.140625 L 12.3125 -11.21875 L 12.3125 -12.15625 C 12.3125 -13.363281 12.097656 -14.257812 11.671875 -14.84375 C 11.253906 -15.425781 10.566406 -15.71875 9.609375 -15.71875 C 8.710938 -15.71875 8.054688 -15.515625 7.640625 -15.109375 C 7.234375 -14.710938 6.976562 -14.046875 6.875 -13.109375 L 1.859375 -13.34375 C 2.171875 -15.144531 2.992188 -16.507812 4.328125 -17.4375 C 5.671875 -18.363281 7.5 -18.828125 9.8125 -18.828125 C 12.144531 -18.828125 13.941406 -18.25 15.203125 -17.09375 C 16.472656 -15.945312 17.109375 -14.316406 17.109375 -12.203125 L 17.109375 -5.46875 C 17.109375 -4.425781 17.222656 -3.707031 17.453125 -3.3125 C 17.691406 -2.925781 18.082031 -2.734375 18.625 -2.734375 C 18.988281 -2.734375 19.34375 -2.769531 19.6875 -2.84375 L 19.6875 -0.234375 C 19.40625 -0.171875 19.148438 -0.109375 18.921875 -0.046875 C 18.691406 0.00390625 18.460938 0.046875 18.234375 0.078125 C 18.003906 0.117188 17.757812 0.148438 17.5 0.171875 C 17.25 0.191406 16.953125 0.203125 16.609375 0.203125 C 15.398438 0.203125 14.507812 -0.09375 13.9375 -0.6875 C 13.363281 -1.28125 13.019531 -2.148438 12.90625 -3.296875 L 12.796875 -3.296875 C 11.453125 -0.867188 9.425781 0.34375 6.71875 0.34375 Z M 12.3125 -8.5625 L 9.84375 -8.53125 C 8.726562 -8.476562 7.9375 -8.351562 7.46875 -8.15625 C 7 -7.957031 6.640625 -7.648438 6.390625 -7.234375 C 6.148438 -6.828125 6.03125 -6.285156 6.03125 -5.609375 C 6.03125 -4.734375 6.234375 -4.082031 6.640625 -3.65625 C 7.046875 -3.226562 7.582031 -3.015625 8.25 -3.015625 C 9 -3.015625 9.6875 -3.21875 10.3125 -3.625 C 10.9375 -4.03125 11.425781 -4.59375 11.78125 -5.3125 C 12.132812 -6.039062 12.3125 -6.8125 12.3125 -7.625 Z M 12.3125 -8.5625 "/></g></g></g><g fill="#000000" fill-opacity="1"><g transform="translate(158.325626, 48.473634)"><g><path d="M 2.4375 0 L 2.4375 -14.15625 C 2.4375 -15.164062 2.421875 -16.007812 2.390625 -16.6875 C 2.367188 -17.363281 2.34375 -17.960938 2.3125 -18.484375 L 6.890625 -18.484375 C 6.921875 -18.285156 6.960938 -17.664062 7.015625 -16.625 C 7.078125 -15.582031 7.109375 -14.890625 7.109375 -14.546875 L 7.171875 -14.546875 C 7.640625 -15.835938 8.054688 -16.75 8.421875 -17.28125 C 8.785156 -17.8125 9.21875 -18.203125 9.71875 -18.453125 C 10.21875 -18.710938 10.847656 -18.84375 11.609375 -18.84375 C 12.222656 -18.84375 12.71875 -18.757812 13.09375 -18.59375 L 13.09375 -14.578125 C 12.3125 -14.742188 11.628906 -14.828125 11.046875 -14.828125 C 9.847656 -14.828125 8.914062 -14.34375 8.25 -13.375 C 7.582031 -12.40625 7.25 -10.972656 7.25 -9.078125 L 7.25 0 Z M 2.4375 0 "/></g></g></g><g fill="#000000" fill-opacity="1"><g transform="translate(171.94319, 48.473634)"><g><path d="M 14.421875 0 C 14.378906 -0.164062 14.328125 -0.59375 14.265625 -1.28125 C 14.203125 -1.976562 14.171875 -2.554688 14.171875 -3.015625 L 14.09375 -3.015625 C 13.0625 -0.773438 11.09375 0.34375 8.1875 0.34375 C 6.03125 0.34375 4.363281 -0.492188 3.1875 -2.171875 C 2.019531 -3.859375 1.4375 -6.210938 1.4375 -9.234375 C 1.4375 -12.296875 2.050781 -14.660156 3.28125 -16.328125 C 4.519531 -17.992188 6.273438 -18.828125 8.546875 -18.828125 C 9.859375 -18.828125 10.988281 -18.550781 11.9375 -18 C 12.882812 -17.457031 13.617188 -16.644531 14.140625 -15.5625 L 14.171875 -15.5625 L 14.140625 -18.609375 L 14.140625 -25.359375 L 18.9375 -25.359375 L 18.9375 -4.03125 C 18.9375 -2.894531 18.984375 -1.550781 19.078125 0 Z M 14.203125 -9.34375 C 14.203125 -11.34375 13.867188 -12.878906 13.203125 -13.953125 C 12.535156 -15.023438 11.550781 -15.5625 10.25 -15.5625 C 8.96875 -15.5625 8.007812 -15.039062 7.375 -14 C 6.75 -12.957031 6.4375 -11.367188 6.4375 -9.234375 C 6.4375 -5.035156 7.695312 -2.9375 10.21875 -2.9375 C 11.476562 -2.9375 12.457031 -3.488281 13.15625 -4.59375 C 13.851562 -5.707031 14.203125 -7.289062 14.203125 -9.34375 Z M 14.203125 -9.34375 "/></g></g></g><g fill="#000000" fill-opacity="1"><g transform="translate(193.31781, 48.473634)"><g/></g></g><g fill="#000000" fill-opacity="1"><g transform="translate(203.03976, 48.473634)"><g><path d="M 24.046875 -6.546875 C 23.398438 -7.304688 22.722656 -8.425781 22.015625 -9.90625 L 23.25 -9.90625 C 24.6875 -8.207031 26.222656 -6.945312 27.859375 -6.125 L 27.859375 -5.5 C 26.222656 -4.664062 24.6875 -3.398438 23.25 -1.703125 L 22.015625 -1.703125 C 22.722656 -3.191406 23.398438 -4.316406 24.046875 -5.078125 L 7.140625 -5.078125 L 7.140625 -6.546875 Z M 24.046875 -6.546875 "/></g></g></g><g fill="#000000" fill-opacity="1"><g transform="translate(238.031945, 48.473634)"><g/></g></g><g fill="#000000" fill-opacity="1"><g transform="translate(247.753894, 48.473634)"><g><path d="M 13.59375 -3.625 C 16.632812 -3.625 18.742188 -5.148438 19.921875 -8.203125 L 24.3125 -6.546875 C 23.375 -4.222656 21.988281 -2.492188 20.15625 -1.359375 C 18.332031 -0.222656 16.144531 0.34375 13.59375 0.34375 C 9.71875 0.34375 6.722656 -0.75 4.609375 -2.9375 C 2.492188 -5.132812 1.4375 -8.207031 1.4375 -12.15625 C 1.4375 -16.101562 2.453125 -19.132812 4.484375 -21.25 C 6.523438 -23.375 9.484375 -24.4375 13.359375 -24.4375 C 16.191406 -24.4375 18.492188 -23.867188 20.265625 -22.734375 C 22.046875 -21.597656 23.296875 -19.929688 24.015625 -17.734375 L 19.5625 -16.53125 C 19.1875 -17.738281 18.445312 -18.695312 17.34375 -19.40625 C 16.25 -20.113281 14.957031 -20.46875 13.46875 -20.46875 C 11.1875 -20.46875 9.457031 -19.757812 8.28125 -18.34375 C 7.101562 -16.9375 6.515625 -14.875 6.515625 -12.15625 C 6.515625 -9.382812 7.117188 -7.269531 8.328125 -5.8125 C 9.546875 -4.351562 11.300781 -3.625 13.59375 -3.625 Z M 13.59375 -3.625 "/></g></g></g><g fill="#000000" fill-opacity="1"><g transform="translate(273.024129, 48.473634)"><g><path d="M 2.4375 -21.828125 L 2.4375 -25.359375 L 7.25 -25.359375 L 7.25 -21.828125 Z M 2.4375 0 L 2.4375 -18.484375 L 7.25 -18.484375 L 7.25 0 Z M 2.4375 0 "/></g></g></g><g fill="#000000" fill-opacity="1"><g transform="translate(282.74609, 48.473634)"><g><path d="M 10.15625 0.34375 C 7.351562 0.34375 5.1875 -0.488281 3.65625 -2.15625 C 2.132812 -3.832031 1.375 -6.160156 1.375 -9.140625 C 1.375 -12.191406 2.140625 -14.566406 3.671875 -16.265625 C 5.210938 -17.972656 7.394531 -18.828125 10.21875 -18.828125 C 12.394531 -18.828125 14.191406 -18.28125 15.609375 -17.1875 C 17.035156 -16.09375 17.929688 -14.582031 18.296875 -12.65625 L 13.46875 -12.421875 C 13.332031 -13.367188 12.988281 -14.125 12.4375 -14.6875 C 11.894531 -15.25 11.125 -15.53125 10.125 -15.53125 C 7.644531 -15.53125 6.40625 -13.460938 6.40625 -9.328125 C 6.40625 -5.066406 7.664062 -2.9375 10.1875 -2.9375 C 11.09375 -2.9375 11.851562 -3.222656 12.46875 -3.796875 C 13.09375 -4.378906 13.476562 -5.238281 13.625 -6.375 L 18.4375 -6.15625 C 18.269531 -4.882812 17.816406 -3.753906 17.078125 -2.765625 C 16.347656 -1.773438 15.382812 -1.007812 14.1875 -0.46875 C 12.988281 0.0703125 11.644531 0.34375 10.15625 0.34375 Z M 10.15625 0.34375 "/></g></g></g><g fill="#000000" fill-opacity="1"><g transform="translate(302.207065, 48.473634)"><g><path d="M 2.4375 -21.828125 L 2.4375 -25.359375 L 7.25 -25.359375 L 7.25 -21.828125 Z M 2.4375 0 L 2.4375 -18.484375 L 7.25 -18.484375 L 7.25 0 Z M 2.4375 0 "/></g></g></g><g fill="#000000" fill-opacity="1"><g transform="translate(311.929026, 48.473634)"><g/></g></g><g fill="#000000" fill-opacity="1"><g transform="translate(321.650964, 48.473634)"><g><path d="M 24.046875 -6.546875 C 23.398438 -7.304688 22.722656 -8.425781 22.015625 -9.90625 L 23.25 -9.90625 C 24.6875 -8.207031 26.222656 -6.945312 27.859375 -6.125 L 27.859375 -5.5 C 26.222656 -4.664062 24.6875 -3.398438 23.25 -1.703125 L 22.015625 -1.703125 C 22.722656 -3.191406 23.398438 -4.316406 24.046875 -5.078125 L 7.140625 -5.078125 L 7.140625 -6.546875 Z M 24.046875 -6.546875 "/></g></g></g><g fill="#000000" fill-opacity="1"><g transform="translate(100.947003, 79.973631)"><g><path d="M 23.6875 -6.875 C 23.6875 -4.6875 22.863281 -2.992188 21.21875 -1.796875 C 19.582031 -0.597656 17.304688 0 14.390625 0 L 2.34375 0 L 2.34375 -24.078125 L 13.359375 -24.078125 C 16.304688 -24.078125 18.53125 -23.566406 20.03125 -22.546875 C 21.539062 -21.523438 22.296875 -20.019531 22.296875 -18.03125 C 22.296875 -16.664062 21.914062 -15.507812 21.15625 -14.5625 C 20.40625 -13.625 19.253906 -12.988281 17.703125 -12.65625 C 19.648438 -12.4375 21.132812 -11.828125 22.15625 -10.828125 C 23.175781 -9.828125 23.6875 -8.507812 23.6875 -6.875 Z M 17.234375 -17.34375 C 17.234375 -18.425781 16.882812 -19.195312 16.1875 -19.65625 C 15.5 -20.113281 14.476562 -20.34375 13.125 -20.34375 L 7.390625 -20.34375 L 7.390625 -14.375 L 13.15625 -14.375 C 14.582031 -14.375 15.617188 -14.617188 16.265625 -15.109375 C 16.910156 -15.609375 17.234375 -16.351562 17.234375 -17.34375 Z M 18.625 -7.265625 C 18.625 -9.515625 17.007812 -10.640625 13.78125 -10.640625 L 7.390625 -10.640625 L 7.390625 -3.75 L 13.96875 -3.75 C 15.582031 -3.75 16.757812 -4.039062 17.5 -4.625 C 18.25 -5.207031 18.625 -6.085938 18.625 -7.265625 Z M 18.625 -7.265625 "/></g></g></g><g fill="#000000" fill-opacity="1"><g transform="translate(126.217237, 79.973631)"><g><path d="M 6.71875 0.34375 C 4.925781 0.34375 3.53125 -0.140625 2.53125 -1.109375 C 1.53125 -2.085938 1.03125 -3.460938 1.03125 -5.234375 C 1.03125 -7.140625 1.648438 -8.59375 2.890625 -9.59375 C 4.140625 -10.601562 5.953125 -11.117188 8.328125 -11.140625 L 12.3125 -11.21875 L 12.3125 -12.15625 C 12.3125 -13.363281 12.097656 -14.257812 11.671875 -14.84375 C 11.253906 -15.425781 10.566406 -15.71875 9.609375 -15.71875 C 8.710938 -15.71875 8.054688 -15.515625 7.640625 -15.109375 C 7.234375 -14.710938 6.976562 -14.046875 6.875 -13.109375 L 1.859375 -13.34375 C 2.171875 -15.144531 2.992188 -16.507812 4.328125 -17.4375 C 5.671875 -18.363281 7.5 -18.828125 9.8125 -18.828125 C 12.144531 -18.828125 13.941406 -18.25 15.203125 -17.09375 C 16.472656 -15.945312 17.109375 -14.316406 17.109375 -12.203125 L 17.109375 -5.46875 C 17.109375 -4.425781 17.222656 -3.707031 17.453125 -3.3125 C 17.691406 -2.925781 18.082031 -2.734375 18.625 -2.734375 C 18.988281 -2.734375 19.34375 -2.769531 19.6875 -2.84375 L 19.6875 -0.234375 C 19.40625 -0.171875 19.148438 -0.109375 18.921875 -0.046875 C 18.691406 0.00390625 18.460938 0.046875 18.234375 0.078125 C 18.003906 0.117188 17.757812 0.148438 17.5 0.171875 C 17.25 0.191406 16.953125 0.203125 16.609375 0.203125 C 15.398438 0.203125 14.507812 -0.09375 13.9375 -0.6875 C 13.363281 -1.28125 13.019531 -2.148438 12.90625 -3.296875 L 12.796875 -3.296875 C 11.453125 -0.867188 9.425781 0.34375 6.71875 0.34375 Z M 12.3125 -8.5625 L 9.84375 -8.53125 C 8.726562 -8.476562 7.9375 -8.351562 7.46875 -8.15625 C 7 -7.957031 6.640625 -7.648438 6.390625 -7.234375 C 6.148438 -6.828125 6.03125 -6.285156 6.03125 -5.609375 C 6.03125 -4.734375 6.234375 -4.082031 6.640625 -3.65625 C 7.046875 -3.226562 7.582031 -3.015625 8.25 -3.015625 C 9 -3.015625 9.6875 -3.21875 10.3125 -3.625 C 10.9375 -4.03125 11.425781 -4.59375 11.78125 -5.3125 C 12.132812 -6.039062 12.3125 -6.8125 12.3125 -7.625 Z M 12.3125 -8.5625 "/></g></g></g><g fill="#000000" fill-opacity="1"><g transform="translate(145.678223, 79.973631)"><g><path d="M 14.421875 0 L 14.421875 -10.375 C 14.421875 -13.625 13.320312 -15.25 11.125 -15.25 C 9.957031 -15.25 9.019531 -14.75 8.3125 -13.75 C 7.601562 -12.75 7.25 -11.46875 7.25 -9.90625 L 7.25 0 L 2.4375 0 L 2.4375 -14.359375 C 2.4375 -15.347656 2.421875 -16.15625 2.390625 -16.78125 C 2.367188 -17.414062 2.34375 -17.984375 2.3125 -18.484375 L 6.890625 -18.484375 C 6.921875 -18.273438 6.960938 -17.695312 7.015625 -16.75 C 7.078125 -15.8125 7.109375 -15.164062 7.109375 -14.8125 L 7.171875 -14.8125 C 7.828125 -16.226562 8.644531 -17.253906 9.625 -17.890625 C 10.601562 -18.523438 11.769531 -18.84375 13.125 -18.84375 C 15.082031 -18.84375 16.582031 -18.238281 17.625 -17.03125 C 18.675781 -15.832031 19.203125 -14.066406 19.203125 -11.734375 L 19.203125 0 Z M 14.421875 0 "/></g></g></g><g fill="#000000" fill-opacity="1"><g transform="translate(167.052843, 79.973631)"><g><path d="M 10.015625 0.34375 C 7.234375 0.34375 5.097656 -0.476562 3.609375 -2.125 C 2.117188 -3.769531 1.375 -6.171875 1.375 -9.328125 C 1.375 -12.378906 2.128906 -14.722656 3.640625 -16.359375 C 5.148438 -18.003906 7.296875 -18.828125 10.078125 -18.828125 C 12.734375 -18.828125 14.757812 -17.945312 16.15625 -16.1875 C 17.5625 -14.425781 18.265625 -11.847656 18.265625 -8.453125 L 18.265625 -8.328125 L 6.40625 -8.328125 C 6.40625 -6.523438 6.738281 -5.164062 7.40625 -4.25 C 8.070312 -3.332031 9.019531 -2.875 10.25 -2.875 C 11.945312 -2.875 13.019531 -3.609375 13.46875 -5.078125 L 18 -4.6875 C 16.6875 -1.332031 14.023438 0.34375 10.015625 0.34375 Z M 10.015625 -15.8125 C 8.890625 -15.8125 8.019531 -15.414062 7.40625 -14.625 C 6.800781 -13.84375 6.476562 -12.742188 6.4375 -11.328125 L 13.625 -11.328125 C 13.53125 -12.816406 13.171875 -13.9375 12.546875 -14.6875 C 11.921875 -15.4375 11.078125 -15.8125 10.015625 -15.8125 Z M 10.015625 -15.8125 "/></g></g></g><g fill="#000000" fill-opacity="1"><g transform="translate(186.513829, 79.973631)"><g/></g></g><g fill="#000000" fill-opacity="1"><g transform="translate(196.235779, 79.973631)"><g><path d="M 24.046875 -6.546875 C 23.398438 -7.304688 22.722656 -8.425781 22.015625 -9.90625 L 23.25 -9.90625 C 24.6875 -8.207031 26.222656 -6.945312 27.859375 -6.125 L 27.859375 -5.5 C 26.222656 -4.664062 24.6875 -3.398438 23.25 -1.703125 L 22.015625 -1.703125 C 22.722656 -3.191406 23.398438 -4.316406 24.046875 -5.078125 L 7.140625 -5.078125 L 7.140625 -6.546875 Z M 24.046875 -6.546875 "/></g></g></g><g fill="#000000" fill-opacity="1"><g transform="translate(231.227964, 79.973631)"><g/></g></g><g fill="#000000" fill-opacity="1"><g transform="translate(240.949913, 79.973631)"><g><path d="M 22.34375 0 L 22.34375 -14.59375 C 22.34375 -14.925781 22.34375 -15.253906 22.34375 -15.578125 C 22.351562 -15.910156 22.40625 -17.332031 22.5 -19.84375 C 21.695312 -16.78125 21.101562 -14.644531 20.71875 -13.4375 L 16.375 0 L 12.78125 0 L 8.4375 -13.4375 L 6.609375 -19.84375 C 6.742188 -17.195312 6.8125 -15.445312 6.8125 -14.59375 L 6.8125 0 L 2.34375 0 L 2.34375 -24.078125 L 9.09375 -24.078125 L 13.40625 -10.609375 L 13.78125 -9.3125 L 14.59375 -6.078125 L 15.671875 -9.953125 L 20.09375 -24.078125 L 26.8125 -24.078125 L 26.8125 0 Z M 22.34375 0 "/></g></g></g><g fill="#000000" fill-opacity="1"><g transform="translate(270.098677, 79.973631)"><g><path d="M 2.4375 -21.828125 L 2.4375 -25.359375 L 7.25 -25.359375 L 7.25 -21.828125 Z M 2.4375 0 L 2.4375 -18.484375 L 7.25 -18.484375 L 7.25 0 Z M 2.4375 0 "/></g></g></g><g fill="#000000" fill-opacity="1"><g transform="translate(279.820626, 79.973631)"><g><path d="M 4.84375 7.265625 C 3.6875 7.265625 2.675781 7.191406 1.8125 7.046875 L 1.8125 3.625 C 2.414062 3.71875 2.96875 3.765625 3.46875 3.765625 C 4.15625 3.765625 4.722656 3.65625 5.171875 3.4375 C 5.617188 3.21875 6.019531 2.859375 6.375 2.359375 C 6.738281 1.859375 7.144531 1.007812 7.59375 -0.1875 L 0.28125 -18.484375 L 5.34375 -18.484375 L 8.25 -9.828125 C 8.707031 -8.585938 9.285156 -6.6875 9.984375 -4.125 L 10.40625 -5.75 L 11.515625 -9.765625 L 14.25 -18.484375 L 19.28125 -18.484375 L 11.96875 0.96875 C 10.988281 3.34375 9.96875 4.984375 8.90625 5.890625 C 7.851562 6.804688 6.5 7.265625 4.84375 7.265625 Z M 4.84375 7.265625 "/></g></g></g><g fill="#000000" fill-opacity="1"><g transform="translate(299.281612, 79.973631)"><g><path d="M 6.71875 0.34375 C 4.925781 0.34375 3.53125 -0.140625 2.53125 -1.109375 C 1.53125 -2.085938 1.03125 -3.460938 1.03125 -5.234375 C 1.03125 -7.140625 1.648438 -8.59375 2.890625 -9.59375 C 4.140625 -10.601562 5.953125 -11.117188 8.328125 -11.140625 L 12.3125 -11.21875 L 12.3125 -12.15625 C 12.3125 -13.363281 12.097656 -14.257812 11.671875 -14.84375 C 11.253906 -15.425781 10.566406 -15.71875 9.609375 -15.71875 C 8.710938 -15.71875 8.054688 -15.515625 7.640625 -15.109375 C 7.234375 -14.710938 6.976562 -14.046875 6.875 -13.109375 L 1.859375 -13.34375 C 2.171875 -15.144531 2.992188 -16.507812 4.328125 -17.4375 C 5.671875 -18.363281 7.5 -18.828125 9.8125 -18.828125 C 12.144531 -18.828125 13.941406 -18.25 15.203125 -17.09375 C 16.472656 -15.945312 17.109375 -14.316406 17.109375 -12.203125 L 17.109375 -5.46875 C 17.109375 -4.425781 17.222656 -3.707031 17.453125 -3.3125 C 17.691406 -2.925781 18.082031 -2.734375 18.625 -2.734375 C 18.988281 -2.734375 19.34375 -2.769531 19.6875 -2.84375 L 19.6875 -0.234375 C 19.40625 -0.171875 19.148438 -0.109375 18.921875 -0.046875 C 18.691406 0.00390625 18.460938 0.046875 18.234375 0.078125 C 18.003906 0.117188 17.757812 0.148438 17.5 0.171875 C 17.25 0.191406 16.953125 0.203125 16.609375 0.203125 C 15.398438 0.203125 14.507812 -0.09375 13.9375 -0.6875 C 13.363281 -1.28125 13.019531 -2.148438 12.90625 -3.296875 L 12.796875 -3.296875 C 11.453125 -0.867188 9.425781 0.34375 6.71875 0.34375 Z M 12.3125 -8.5625 L 9.84375 -8.53125 C 8.726562 -8.476562 7.9375 -8.351562 7.46875 -8.15625 C 7 -7.957031 6.640625 -7.648438 6.390625 -7.234375 C 6.148438 -6.828125 6.03125 -6.285156 6.03125 -5.609375 C 6.03125 -4.734375 6.234375 -4.082031 6.640625 -3.65625 C 7.046875 -3.226562 7.582031 -3.015625 8.25 -3.015625 C 9 -3.015625 9.6875 -3.21875 10.3125 -3.625 C 10.9375 -4.03125 11.425781 -4.59375 11.78125 -5.3125 C 12.132812 -6.039062 12.3125 -6.8125 12.3125 -7.625 Z M 12.3125 -8.5625 "/></g></g></g></svg>