<svg xmlns="http://www.w3.org/2000/svg" xmlns:xlink="http://www.w3.org/1999/xlink" width="567" zoomAndPan="magnify" viewBox="0 0 425.25 68.999997" height="92" preserveAspectRatio="xMidYMid meet" version="1.0"><defs><g/><clipPath id="b81d3cff7f"><path d="M 2.789062 0.667969 L 421.683594 0.667969 L 421.683594 67.910156 L 2.789062 67.910156 Z M 2.789062 0.667969 " clip-rule="nonzero"/></clipPath></defs><g clip-path="url(#b81d3cff7f)"><path stroke-linecap="butt" transform="matrix(0.74868, 0, 0, 0.74868, 2.787459, 0.667536)" fill="none" stroke-linejoin="miter" d="M 0.00214169 0.000577974 L 559.513261 0.000577974 L 559.513261 89.814956 L 0.00214169 89.814956 Z M 0.00214169 0.000577974 " stroke="#000000" stroke-width="12" stroke-opacity="1" stroke-miterlimit="4"/></g><g fill="#000000" fill-opacity="1"><g transform="translate(127.126897, 46.271766)"><g><path d="M 13.1875 -20.140625 L 13.1875 0 L 8.15625 0 L 8.15625 -20.140625 L 0.390625 -20.140625 L 0.390625 -24.03125 L 20.96875 -24.03125 L 20.96875 -20.140625 Z M 13.1875 -20.140625 "/></g></g></g><g fill="#000000" fill-opacity="1"><g transform="translate(147.832772, 46.271766)"><g><path d="M 2.4375 -21.78125 L 2.4375 -25.3125 L 7.234375 -25.3125 L 7.234375 -21.78125 Z M 2.4375 0 L 2.4375 -18.453125 L 7.234375 -18.453125 L 7.234375 0 Z M 2.4375 0 "/></g></g></g><g fill="#000000" fill-opacity="1"><g transform="translate(157.537606, 46.271766)"><g><path d="M 14.390625 0 C 14.347656 -0.164062 14.296875 -0.59375 14.234375 -1.28125 C 14.171875 -1.96875 14.140625 -2.539062 14.140625 -3 L 14.078125 -3 C 13.035156 -0.769531 11.066406 0.34375 8.171875 0.34375 C 6.023438 0.34375 4.363281 -0.492188 3.1875 -2.171875 C 2.019531 -3.847656 1.4375 -6.195312 1.4375 -9.21875 C 1.4375 -12.269531 2.050781 -14.628906 3.28125 -16.296875 C 4.519531 -17.960938 6.269531 -18.796875 8.53125 -18.796875 C 9.832031 -18.796875 10.957031 -18.519531 11.90625 -17.96875 C 12.863281 -17.425781 13.597656 -16.617188 14.109375 -15.546875 L 14.140625 -15.546875 L 14.109375 -18.578125 L 14.109375 -25.3125 L 18.90625 -25.3125 L 18.90625 -4.03125 C 18.90625 -2.882812 18.945312 -1.539062 19.03125 0 Z M 14.171875 -9.328125 C 14.171875 -11.316406 13.835938 -12.847656 13.171875 -13.921875 C 12.515625 -15.003906 11.535156 -15.546875 10.234375 -15.546875 C 8.953125 -15.546875 8 -15.023438 7.375 -13.984375 C 6.75 -12.941406 6.4375 -11.351562 6.4375 -9.21875 C 6.4375 -5.03125 7.691406 -2.9375 10.203125 -2.9375 C 11.460938 -2.9375 12.4375 -3.488281 13.125 -4.59375 C 13.820312 -5.707031 14.171875 -7.285156 14.171875 -9.328125 Z M 14.171875 -9.328125 "/></g></g></g><g fill="#000000" fill-opacity="1"><g transform="translate(178.874596, 46.271766)"><g><path d="M 6.703125 0.34375 C 4.921875 0.34375 3.53125 -0.140625 2.53125 -1.109375 C 1.53125 -2.085938 1.03125 -3.457031 1.03125 -5.21875 C 1.03125 -7.132812 1.648438 -8.59375 2.890625 -9.59375 C 4.140625 -10.59375 5.945312 -11.101562 8.3125 -11.125 L 12.28125 -11.1875 L 12.28125 -12.125 C 12.28125 -13.332031 12.066406 -14.226562 11.640625 -14.8125 C 11.222656 -15.394531 10.539062 -15.6875 9.59375 -15.6875 C 8.695312 -15.6875 8.039062 -15.484375 7.625 -15.078125 C 7.21875 -14.679688 6.960938 -14.015625 6.859375 -13.078125 L 1.859375 -13.328125 C 2.160156 -15.117188 2.976562 -16.476562 4.3125 -17.40625 C 5.65625 -18.332031 7.484375 -18.796875 9.796875 -18.796875 C 12.128906 -18.796875 13.925781 -18.222656 15.1875 -17.078125 C 16.445312 -15.929688 17.078125 -14.300781 17.078125 -12.1875 L 17.078125 -5.453125 C 17.078125 -4.421875 17.191406 -3.707031 17.421875 -3.3125 C 17.660156 -2.925781 18.050781 -2.734375 18.59375 -2.734375 C 18.957031 -2.734375 19.3125 -2.765625 19.65625 -2.828125 L 19.65625 -0.234375 C 19.363281 -0.171875 19.101562 -0.109375 18.875 -0.046875 C 18.65625 0.00390625 18.429688 0.046875 18.203125 0.078125 C 17.972656 0.117188 17.726562 0.148438 17.46875 0.171875 C 17.21875 0.191406 16.921875 0.203125 16.578125 0.203125 C 15.367188 0.203125 14.476562 -0.0859375 13.90625 -0.671875 C 13.332031 -1.265625 12.988281 -2.140625 12.875 -3.296875 L 12.78125 -3.296875 C 11.4375 -0.867188 9.410156 0.34375 6.703125 0.34375 Z M 12.28125 -8.546875 L 9.828125 -8.515625 C 8.710938 -8.460938 7.921875 -8.335938 7.453125 -8.140625 C 6.984375 -7.941406 6.625 -7.640625 6.375 -7.234375 C 6.132812 -6.828125 6.015625 -6.28125 6.015625 -5.59375 C 6.015625 -4.71875 6.21875 -4.066406 6.625 -3.640625 C 7.03125 -3.210938 7.566406 -3 8.234375 -3 C 8.984375 -3 9.664062 -3.203125 10.28125 -3.609375 C 10.90625 -4.023438 11.394531 -4.59375 11.75 -5.3125 C 12.101562 -6.03125 12.28125 -6.796875 12.28125 -7.609375 Z M 12.28125 -8.546875 "/></g></g></g><g fill="#000000" fill-opacity="1"><g transform="translate(198.30132, 46.271766)"><g><path d="M 14.234375 0 L 9.296875 -8.359375 L 7.234375 -6.921875 L 7.234375 0 L 2.4375 0 L 2.4375 -25.3125 L 7.234375 -25.3125 L 7.234375 -10.8125 L 13.8125 -18.453125 L 18.96875 -18.453125 L 12.484375 -11.265625 L 19.46875 0 Z M 14.234375 0 "/></g></g></g><g fill="#000000" fill-opacity="1"><g transform="translate(217.728044, 46.271766)"><g/></g></g><g fill="#000000" fill-opacity="1"><g transform="translate(227.432878, 46.271766)"><g><path d="M 6.703125 0.34375 C 4.921875 0.34375 3.53125 -0.140625 2.53125 -1.109375 C 1.53125 -2.085938 1.03125 -3.457031 1.03125 -5.21875 C 1.03125 -7.132812 1.648438 -8.59375 2.890625 -9.59375 C 4.140625 -10.59375 5.945312 -11.101562 8.3125 -11.125 L 12.28125 -11.1875 L 12.28125 -12.125 C 12.28125 -13.332031 12.066406 -14.226562 11.640625 -14.8125 C 11.222656 -15.394531 10.539062 -15.6875 9.59375 -15.6875 C 8.695312 -15.6875 8.039062 -15.484375 7.625 -15.078125 C 7.21875 -14.679688 6.960938 -14.015625 6.859375 -13.078125 L 1.859375 -13.328125 C 2.160156 -15.117188 2.976562 -16.476562 4.3125 -17.40625 C 5.65625 -18.332031 7.484375 -18.796875 9.796875 -18.796875 C 12.128906 -18.796875 13.925781 -18.222656 15.1875 -17.078125 C 16.445312 -15.929688 17.078125 -14.300781 17.078125 -12.1875 L 17.078125 -5.453125 C 17.078125 -4.421875 17.191406 -3.707031 17.421875 -3.3125 C 17.660156 -2.925781 18.050781 -2.734375 18.59375 -2.734375 C 18.957031 -2.734375 19.3125 -2.765625 19.65625 -2.828125 L 19.65625 -0.234375 C 19.363281 -0.171875 19.101562 -0.109375 18.875 -0.046875 C 18.65625 0.00390625 18.429688 0.046875 18.203125 0.078125 C 17.972656 0.117188 17.726562 0.148438 17.46875 0.171875 C 17.21875 0.191406 16.921875 0.203125 16.578125 0.203125 C 15.367188 0.203125 14.476562 -0.0859375 13.90625 -0.671875 C 13.332031 -1.265625 12.988281 -2.140625 12.875 -3.296875 L 12.78125 -3.296875 C 11.4375 -0.867188 9.410156 0.34375 6.703125 0.34375 Z M 12.28125 -8.546875 L 9.828125 -8.515625 C 8.710938 -8.460938 7.921875 -8.335938 7.453125 -8.140625 C 6.984375 -7.941406 6.625 -7.640625 6.375 -7.234375 C 6.132812 -6.828125 6.015625 -6.28125 6.015625 -5.59375 C 6.015625 -4.71875 6.21875 -4.066406 6.625 -3.640625 C 7.03125 -3.210938 7.566406 -3 8.234375 -3 C 8.984375 -3 9.664062 -3.203125 10.28125 -3.609375 C 10.90625 -4.023438 11.394531 -4.59375 11.75 -5.3125 C 12.101562 -6.03125 12.28125 -6.796875 12.28125 -7.609375 Z M 12.28125 -8.546875 "/></g></g></g><g fill="#000000" fill-opacity="1"><g transform="translate(246.859602, 46.271766)"><g><path d="M 14.390625 0 C 14.347656 -0.164062 14.296875 -0.59375 14.234375 -1.28125 C 14.171875 -1.96875 14.140625 -2.539062 14.140625 -3 L 14.078125 -3 C 13.035156 -0.769531 11.066406 0.34375 8.171875 0.34375 C 6.023438 0.34375 4.363281 -0.492188 3.1875 -2.171875 C 2.019531 -3.847656 1.4375 -6.195312 1.4375 -9.21875 C 1.4375 -12.269531 2.050781 -14.628906 3.28125 -16.296875 C 4.519531 -17.960938 6.269531 -18.796875 8.53125 -18.796875 C 9.832031 -18.796875 10.957031 -18.519531 11.90625 -17.96875 C 12.863281 -17.425781 13.597656 -16.617188 14.109375 -15.546875 L 14.140625 -15.546875 L 14.109375 -18.578125 L 14.109375 -25.3125 L 18.90625 -25.3125 L 18.90625 -4.03125 C 18.90625 -2.882812 18.945312 -1.539062 19.03125 0 Z M 14.171875 -9.328125 C 14.171875 -11.316406 13.835938 -12.847656 13.171875 -13.921875 C 12.515625 -15.003906 11.535156 -15.546875 10.234375 -15.546875 C 8.953125 -15.546875 8 -15.023438 7.375 -13.984375 C 6.75 -12.941406 6.4375 -11.351562 6.4375 -9.21875 C 6.4375 -5.03125 7.691406 -2.9375 10.203125 -2.9375 C 11.460938 -2.9375 12.4375 -3.488281 13.125 -4.59375 C 13.820312 -5.707031 14.171875 -7.285156 14.171875 -9.328125 Z M 14.171875 -9.328125 "/></g></g></g><g fill="#000000" fill-opacity="1"><g transform="translate(268.196592, 46.271766)"><g><path d="M 6.703125 0.34375 C 4.921875 0.34375 3.53125 -0.140625 2.53125 -1.109375 C 1.53125 -2.085938 1.03125 -3.457031 1.03125 -5.21875 C 1.03125 -7.132812 1.648438 -8.59375 2.890625 -9.59375 C 4.140625 -10.59375 5.945312 -11.101562 8.3125 -11.125 L 12.28125 -11.1875 L 12.28125 -12.125 C 12.28125 -13.332031 12.066406 -14.226562 11.640625 -14.8125 C 11.222656 -15.394531 10.539062 -15.6875 9.59375 -15.6875 C 8.695312 -15.6875 8.039062 -15.484375 7.625 -15.078125 C 7.21875 -14.679688 6.960938 -14.015625 6.859375 -13.078125 L 1.859375 -13.328125 C 2.160156 -15.117188 2.976562 -16.476562 4.3125 -17.40625 C 5.65625 -18.332031 7.484375 -18.796875 9.796875 -18.796875 C 12.128906 -18.796875 13.925781 -18.222656 15.1875 -17.078125 C 16.445312 -15.929688 17.078125 -14.300781 17.078125 -12.1875 L 17.078125 -5.453125 C 17.078125 -4.421875 17.191406 -3.707031 17.421875 -3.3125 C 17.660156 -2.925781 18.050781 -2.734375 18.59375 -2.734375 C 18.957031 -2.734375 19.3125 -2.765625 19.65625 -2.828125 L 19.65625 -0.234375 C 19.363281 -0.171875 19.101562 -0.109375 18.875 -0.046875 C 18.65625 0.00390625 18.429688 0.046875 18.203125 0.078125 C 17.972656 0.117188 17.726562 0.148438 17.46875 0.171875 C 17.21875 0.191406 16.921875 0.203125 16.578125 0.203125 C 15.367188 0.203125 14.476562 -0.0859375 13.90625 -0.671875 C 13.332031 -1.265625 12.988281 -2.140625 12.875 -3.296875 L 12.78125 -3.296875 C 11.4375 -0.867188 9.410156 0.34375 6.703125 0.34375 Z M 12.28125 -8.546875 L 9.828125 -8.515625 C 8.710938 -8.460938 7.921875 -8.335938 7.453125 -8.140625 C 6.984375 -7.941406 6.625 -7.640625 6.375 -7.234375 C 6.132812 -6.828125 6.015625 -6.28125 6.015625 -5.59375 C 6.015625 -4.71875 6.21875 -4.066406 6.625 -3.640625 C 7.03125 -3.210938 7.566406 -3 8.234375 -3 C 8.984375 -3 9.664062 -3.203125 10.28125 -3.609375 C 10.90625 -4.023438 11.394531 -4.59375 11.75 -5.3125 C 12.101562 -6.03125 12.28125 -6.796875 12.28125 -7.609375 Z M 12.28125 -8.546875 "/></g></g></g><g fill="#000000" fill-opacity="1"><g transform="translate(287.625079, 46.271766)"><g/></g></g></svg>