<svg xmlns="http://www.w3.org/2000/svg" xmlns:xlink="http://www.w3.org/1999/xlink" width="567" zoomAndPan="magnify" viewBox="0 0 425.25 68.999997" height="92" preserveAspectRatio="xMidYMid meet" version="1.0"><defs><g/><clipPath id="e98992363f"><path d="M 2.789062 0.667969 L 421.683594 0.667969 L 421.683594 67.910156 L 2.789062 67.910156 Z M 2.789062 0.667969 " clip-rule="nonzero"/></clipPath></defs><g clip-path="url(#e98992363f)"><path stroke-linecap="butt" transform="matrix(0.74868, 0, 0, 0.74868, 2.787459, 0.667536)" fill="none" stroke-linejoin="miter" d="M 0.00214169 0.000577974 L 559.513261 0.000577974 L 559.513261 89.814956 L 0.00214169 89.814956 Z M 0.00214169 0.000577974 " stroke="#000000" stroke-width="12" stroke-opacity="1" stroke-miterlimit="4"/></g><g fill="#000000" fill-opacity="1"><g transform="translate(140.439359, 46.271766)"><g><path d="M 23.640625 -6.859375 C 23.640625 -4.671875 22.820312 -2.976562 21.1875 -1.78125 C 19.550781 -0.59375 17.273438 0 14.359375 0 L 2.34375 0 L 2.34375 -24.03125 L 13.34375 -24.03125 C 16.269531 -24.03125 18.488281 -23.519531 20 -22.5 C 21.507812 -21.488281 22.265625 -19.988281 22.265625 -18 C 22.265625 -16.632812 21.882812 -15.484375 21.125 -14.546875 C 20.375 -13.609375 19.222656 -12.972656 17.671875 -12.640625 C 19.617188 -12.410156 21.097656 -11.796875 22.109375 -10.796875 C 23.128906 -9.804688 23.640625 -8.492188 23.640625 -6.859375 Z M 17.203125 -17.3125 C 17.203125 -18.394531 16.851562 -19.160156 16.15625 -19.609375 C 15.46875 -20.066406 14.453125 -20.296875 13.109375 -20.296875 L 7.375 -20.296875 L 7.375 -14.34375 L 13.140625 -14.34375 C 14.554688 -14.34375 15.585938 -14.585938 16.234375 -15.078125 C 16.878906 -15.578125 17.203125 -16.320312 17.203125 -17.3125 Z M 18.59375 -7.25 C 18.59375 -9.5 16.976562 -10.625 13.75 -10.625 L 7.375 -10.625 L 7.375 -3.734375 L 13.9375 -3.734375 C 15.550781 -3.734375 16.726562 -4.023438 17.46875 -4.609375 C 18.21875 -5.203125 18.59375 -6.082031 18.59375 -7.25 Z M 18.59375 -7.25 "/></g></g></g><g fill="#000000" fill-opacity="1"><g transform="translate(165.665105, 46.271766)"><g><path d="M 6.953125 -18.453125 L 6.953125 -8.109375 C 6.953125 -4.859375 8.046875 -3.234375 10.234375 -3.234375 C 11.390625 -3.234375 12.320312 -3.734375 13.03125 -4.734375 C 13.75 -5.734375 14.109375 -7.007812 14.109375 -8.5625 L 14.109375 -18.453125 L 18.90625 -18.453125 L 18.90625 -4.125 C 18.90625 -2.5625 18.945312 -1.1875 19.03125 0 L 14.46875 0 C 14.332031 -1.632812 14.265625 -2.859375 14.265625 -3.671875 L 14.171875 -3.671875 C 13.535156 -2.265625 12.722656 -1.242188 11.734375 -0.609375 C 10.753906 0.0234375 9.585938 0.34375 8.234375 0.34375 C 6.285156 0.34375 4.785156 -0.253906 3.734375 -1.453125 C 2.691406 -2.660156 2.171875 -4.421875 2.171875 -6.734375 L 2.171875 -18.453125 Z M 6.953125 -18.453125 "/></g></g></g><g fill="#000000" fill-opacity="1"><g transform="translate(187.002095, 46.271766)"><g/></g></g><g fill="#000000" fill-opacity="1"><g transform="translate(196.706929, 46.271766)"><g><path d="M 18.84375 0 L 13.265625 -9.125 L 7.375 -9.125 L 7.375 0 L 2.34375 0 L 2.34375 -24.03125 L 14.34375 -24.03125 C 17.207031 -24.03125 19.414062 -23.410156 20.96875 -22.171875 C 22.53125 -20.941406 23.3125 -19.175781 23.3125 -16.875 C 23.3125 -15.1875 22.832031 -13.726562 21.875 -12.5 C 20.925781 -11.28125 19.640625 -10.476562 18.015625 -10.09375 L 24.515625 0 Z M 18.25 -16.671875 C 18.25 -18.972656 16.769531 -20.125 13.8125 -20.125 L 7.375 -20.125 L 7.375 -13.03125 L 13.953125 -13.03125 C 15.359375 -13.03125 16.425781 -13.347656 17.15625 -13.984375 C 17.882812 -14.617188 18.25 -15.515625 18.25 -16.671875 Z M 18.25 -16.671875 "/></g></g></g><g fill="#000000" fill-opacity="1"><g transform="translate(221.932675, 46.271766)"><g><path d="M 2.4375 -21.78125 L 2.4375 -25.3125 L 7.234375 -25.3125 L 7.234375 -21.78125 Z M 2.4375 0 L 2.4375 -18.453125 L 7.234375 -18.453125 L 7.234375 0 Z M 2.4375 0 "/></g></g></g><g fill="#000000" fill-opacity="1"><g transform="translate(231.637509, 46.271766)"><g><path d="M 14.390625 0 L 14.390625 -10.359375 C 14.390625 -13.597656 13.296875 -15.21875 11.109375 -15.21875 C 9.941406 -15.21875 9.003906 -14.71875 8.296875 -13.71875 C 7.585938 -12.726562 7.234375 -11.453125 7.234375 -9.890625 L 7.234375 0 L 2.4375 0 L 2.4375 -14.328125 C 2.4375 -15.316406 2.421875 -16.125 2.390625 -16.75 C 2.367188 -17.382812 2.335938 -17.953125 2.296875 -18.453125 L 6.875 -18.453125 C 6.90625 -18.242188 6.945312 -17.664062 7 -16.71875 C 7.0625 -15.78125 7.09375 -15.140625 7.09375 -14.796875 L 7.171875 -14.796875 C 7.816406 -16.203125 8.628906 -17.222656 9.609375 -17.859375 C 10.585938 -18.492188 11.753906 -18.8125 13.109375 -18.8125 C 15.054688 -18.8125 16.550781 -18.207031 17.59375 -17 C 18.644531 -15.800781 19.171875 -14.039062 19.171875 -11.71875 L 19.171875 0 Z M 14.390625 0 "/></g></g></g><g fill="#000000" fill-opacity="1"><g transform="translate(252.974498, 46.271766)"><g><path d="M 14.390625 0 C 14.347656 -0.164062 14.296875 -0.59375 14.234375 -1.28125 C 14.171875 -1.96875 14.140625 -2.539062 14.140625 -3 L 14.078125 -3 C 13.035156 -0.769531 11.066406 0.34375 8.171875 0.34375 C 6.023438 0.34375 4.363281 -0.492188 3.1875 -2.171875 C 2.019531 -3.847656 1.4375 -6.195312 1.4375 -9.21875 C 1.4375 -12.269531 2.050781 -14.628906 3.28125 -16.296875 C 4.519531 -17.960938 6.269531 -18.796875 8.53125 -18.796875 C 9.832031 -18.796875 10.957031 -18.519531 11.90625 -17.96875 C 12.863281 -17.425781 13.597656 -16.617188 14.109375 -15.546875 L 14.140625 -15.546875 L 14.109375 -18.578125 L 14.109375 -25.3125 L 18.90625 -25.3125 L 18.90625 -4.03125 C 18.90625 -2.882812 18.945312 -1.539062 19.03125 0 Z M 14.171875 -9.328125 C 14.171875 -11.316406 13.835938 -12.847656 13.171875 -13.921875 C 12.515625 -15.003906 11.535156 -15.546875 10.234375 -15.546875 C 8.953125 -15.546875 8 -15.023438 7.375 -13.984375 C 6.75 -12.941406 6.4375 -11.351562 6.4375 -9.21875 C 6.4375 -5.03125 7.691406 -2.9375 10.203125 -2.9375 C 11.460938 -2.9375 12.4375 -3.488281 13.125 -4.59375 C 13.820312 -5.707031 14.171875 -7.285156 14.171875 -9.328125 Z M 14.171875 -9.328125 "/></g></g></g><g fill="#000000" fill-opacity="1"><g transform="translate(274.311488, 46.271766)"><g><path d="M 2.4375 -21.78125 L 2.4375 -25.3125 L 7.234375 -25.3125 L 7.234375 -21.78125 Z M 2.4375 0 L 2.4375 -18.453125 L 7.234375 -18.453125 L 7.234375 0 Z M 2.4375 0 "/></g></g></g></svg>