<svg xmlns="http://www.w3.org/2000/svg" xmlns:xlink="http://www.w3.org/1999/xlink" width="567" zoomAndPan="magnify" viewBox="0 0 425.25 68.999997" height="92" preserveAspectRatio="xMidYMid meet" version="1.0"><defs><g/><clipPath id="eac70a6b20"><path d="M 2.789062 0.667969 L 421.683594 0.667969 L 421.683594 67.910156 L 2.789062 67.910156 Z M 2.789062 0.667969 " clip-rule="nonzero"/></clipPath></defs><g clip-path="url(#eac70a6b20)"><path stroke-linecap="butt" transform="matrix(0.74868, 0, 0, 0.74868, 2.787459, 0.667536)" fill="none" stroke-linejoin="miter" d="M 0.00214169 0.000577974 L 559.513261 0.000577974 L 559.513261 89.814956 L 0.00214169 89.814956 Z M 0.00214169 0.000577974 " stroke="#000000" stroke-width="12" stroke-opacity="1" stroke-miterlimit="4"/></g><g fill="#000000" fill-opacity="1"><g transform="translate(119.055196, 46.271766)"><g><path d="M 22.109375 -16.421875 C 22.109375 -14.878906 21.753906 -13.5 21.046875 -12.28125 C 20.347656 -11.0625 19.335938 -10.117188 18.015625 -9.453125 C 16.703125 -8.796875 15.144531 -8.46875 13.34375 -8.46875 L 7.375 -8.46875 L 7.375 0 L 2.34375 0 L 2.34375 -24.03125 L 13.140625 -24.03125 C 16.015625 -24.03125 18.226562 -23.367188 19.78125 -22.046875 C 21.332031 -20.722656 22.109375 -18.847656 22.109375 -16.421875 Z M 17.046875 -16.34375 C 17.046875 -18.863281 15.554688 -20.125 12.578125 -20.125 L 7.375 -20.125 L 7.375 -12.328125 L 12.703125 -12.328125 C 14.097656 -12.328125 15.171875 -12.671875 15.921875 -13.359375 C 16.671875 -14.046875 17.046875 -15.039062 17.046875 -16.34375 Z M 17.046875 -16.34375 "/></g></g></g><g fill="#000000" fill-opacity="1"><g transform="translate(142.35362, 46.271766)"><g><path d="M 6.703125 0.34375 C 4.921875 0.34375 3.53125 -0.140625 2.53125 -1.109375 C 1.53125 -2.085938 1.03125 -3.457031 1.03125 -5.21875 C 1.03125 -7.132812 1.648438 -8.59375 2.890625 -9.59375 C 4.140625 -10.59375 5.945312 -11.101562 8.3125 -11.125 L 12.28125 -11.1875 L 12.28125 -12.125 C 12.28125 -13.332031 12.066406 -14.226562 11.640625 -14.8125 C 11.222656 -15.394531 10.539062 -15.6875 9.59375 -15.6875 C 8.695312 -15.6875 8.039062 -15.484375 7.625 -15.078125 C 7.21875 -14.679688 6.960938 -14.015625 6.859375 -13.078125 L 1.859375 -13.328125 C 2.160156 -15.117188 2.976562 -16.476562 4.3125 -17.40625 C 5.65625 -18.332031 7.484375 -18.796875 9.796875 -18.796875 C 12.128906 -18.796875 13.925781 -18.222656 15.1875 -17.078125 C 16.445312 -15.929688 17.078125 -14.300781 17.078125 -12.1875 L 17.078125 -5.453125 C 17.078125 -4.421875 17.191406 -3.707031 17.421875 -3.3125 C 17.660156 -2.925781 18.050781 -2.734375 18.59375 -2.734375 C 18.957031 -2.734375 19.3125 -2.765625 19.65625 -2.828125 L 19.65625 -0.234375 C 19.363281 -0.171875 19.101562 -0.109375 18.875 -0.046875 C 18.65625 0.00390625 18.429688 0.046875 18.203125 0.078125 C 17.972656 0.117188 17.726562 0.148438 17.46875 0.171875 C 17.21875 0.191406 16.921875 0.203125 16.578125 0.203125 C 15.367188 0.203125 14.476562 -0.0859375 13.90625 -0.671875 C 13.332031 -1.265625 12.988281 -2.140625 12.875 -3.296875 L 12.78125 -3.296875 C 11.4375 -0.867188 9.410156 0.34375 6.703125 0.34375 Z M 12.28125 -8.546875 L 9.828125 -8.515625 C 8.710938 -8.460938 7.921875 -8.335938 7.453125 -8.140625 C 6.984375 -7.941406 6.625 -7.640625 6.375 -7.234375 C 6.132812 -6.828125 6.015625 -6.28125 6.015625 -5.59375 C 6.015625 -4.71875 6.21875 -4.066406 6.625 -3.640625 C 7.03125 -3.210938 7.566406 -3 8.234375 -3 C 8.984375 -3 9.664062 -3.203125 10.28125 -3.609375 C 10.90625 -4.023438 11.394531 -4.59375 11.75 -5.3125 C 12.101562 -6.03125 12.28125 -6.796875 12.28125 -7.609375 Z M 12.28125 -8.546875 "/></g></g></g><g fill="#000000" fill-opacity="1"><g transform="translate(161.780344, 46.271766)"><g><path d="M 14.234375 0 L 9.296875 -8.359375 L 7.234375 -6.921875 L 7.234375 0 L 2.4375 0 L 2.4375 -25.3125 L 7.234375 -25.3125 L 7.234375 -10.8125 L 13.8125 -18.453125 L 18.96875 -18.453125 L 12.484375 -11.265625 L 19.46875 0 Z M 14.234375 0 "/></g></g></g><g fill="#000000" fill-opacity="1"><g transform="translate(181.207068, 46.271766)"><g/></g></g><g fill="#000000" fill-opacity="1"><g transform="translate(190.911902, 46.271766)"><g><path d="M 18.84375 0 L 13.265625 -9.125 L 7.375 -9.125 L 7.375 0 L 2.34375 0 L 2.34375 -24.03125 L 14.34375 -24.03125 C 17.207031 -24.03125 19.414062 -23.410156 20.96875 -22.171875 C 22.53125 -20.941406 23.3125 -19.175781 23.3125 -16.875 C 23.3125 -15.1875 22.832031 -13.726562 21.875 -12.5 C 20.925781 -11.28125 19.640625 -10.476562 18.015625 -10.09375 L 24.515625 0 Z M 18.25 -16.671875 C 18.25 -18.972656 16.769531 -20.125 13.8125 -20.125 L 7.375 -20.125 L 7.375 -13.03125 L 13.953125 -13.03125 C 15.359375 -13.03125 16.425781 -13.347656 17.15625 -13.984375 C 17.882812 -14.617188 18.25 -15.515625 18.25 -16.671875 Z M 18.25 -16.671875 "/></g></g></g><g fill="#000000" fill-opacity="1"><g transform="translate(216.137648, 46.271766)"><g><path d="M 19.96875 -9.25 C 19.96875 -6.257812 19.140625 -3.910156 17.484375 -2.203125 C 15.828125 -0.503906 13.53125 0.34375 10.59375 0.34375 C 7.71875 0.34375 5.457031 -0.507812 3.8125 -2.21875 C 2.175781 -3.925781 1.359375 -6.269531 1.359375 -9.25 C 1.359375 -12.21875 2.175781 -14.550781 3.8125 -16.25 C 5.457031 -17.945312 7.753906 -18.796875 10.703125 -18.796875 C 13.710938 -18.796875 16.007812 -17.972656 17.59375 -16.328125 C 19.175781 -14.691406 19.96875 -12.332031 19.96875 -9.25 Z M 14.96875 -9.25 C 14.96875 -11.4375 14.609375 -13.023438 13.890625 -14.015625 C 13.171875 -15.003906 12.128906 -15.5 10.765625 -15.5 C 7.847656 -15.5 6.390625 -13.414062 6.390625 -9.25 C 6.390625 -7.1875 6.742188 -5.617188 7.453125 -4.546875 C 8.171875 -3.472656 9.203125 -2.9375 10.546875 -2.9375 C 13.492188 -2.9375 14.96875 -5.039062 14.96875 -9.25 Z M 14.96875 -9.25 "/></g></g></g><g fill="#000000" fill-opacity="1"><g transform="translate(237.474638, 46.271766)"><g><path d="M 22.40625 0 L 17.328125 0 L 14.390625 -11.265625 C 14.253906 -11.773438 13.988281 -13.035156 13.59375 -15.046875 L 12.703125 -11.21875 L 9.734375 0 L 4.671875 0 L -0.109375 -18.453125 L 4.40625 -18.453125 L 7.4375 -4.34375 L 7.671875 -5.609375 L 8.109375 -7.609375 L 11 -18.453125 L 16.140625 -18.453125 L 18.96875 -7.609375 C 19.125 -7.015625 19.359375 -5.925781 19.671875 -4.34375 L 20.140625 -6.609375 L 22.8125 -18.453125 L 27.25 -18.453125 Z M 22.40625 0 "/></g></g></g><g fill="#000000" fill-opacity="1"><g transform="translate(264.644762, 46.271766)"><g><path d="M 10 0.34375 C 7.21875 0.34375 5.082031 -0.476562 3.59375 -2.125 C 2.101562 -3.769531 1.359375 -6.164062 1.359375 -9.3125 C 1.359375 -12.363281 2.113281 -14.707031 3.625 -16.34375 C 5.144531 -17.976562 7.289062 -18.796875 10.0625 -18.796875 C 12.71875 -18.796875 14.742188 -17.914062 16.140625 -16.15625 C 17.535156 -14.40625 18.234375 -11.832031 18.234375 -8.4375 L 18.234375 -8.3125 L 6.390625 -8.3125 C 6.390625 -6.507812 6.722656 -5.148438 7.390625 -4.234375 C 8.054688 -3.316406 9.003906 -2.859375 10.234375 -2.859375 C 11.929688 -2.859375 13 -3.59375 13.4375 -5.0625 L 17.96875 -4.671875 C 16.65625 -1.328125 14 0.34375 10 0.34375 Z M 10 -15.78125 C 8.875 -15.78125 8.003906 -15.382812 7.390625 -14.59375 C 6.785156 -13.8125 6.46875 -12.71875 6.4375 -11.3125 L 13.59375 -11.3125 C 13.5 -12.800781 13.140625 -13.914062 12.515625 -14.65625 C 11.890625 -15.40625 11.050781 -15.78125 10 -15.78125 Z M 10 -15.78125 "/></g></g></g><g fill="#000000" fill-opacity="1"><g transform="translate(284.071486, 46.271766)"><g><path d="M 14.390625 0 L 14.390625 -10.359375 C 14.390625 -13.597656 13.296875 -15.21875 11.109375 -15.21875 C 9.941406 -15.21875 9.003906 -14.71875 8.296875 -13.71875 C 7.585938 -12.726562 7.234375 -11.453125 7.234375 -9.890625 L 7.234375 0 L 2.4375 0 L 2.4375 -14.328125 C 2.4375 -15.316406 2.421875 -16.125 2.390625 -16.75 C 2.367188 -17.382812 2.335938 -17.953125 2.296875 -18.453125 L 6.875 -18.453125 C 6.90625 -18.242188 6.945312 -17.664062 7 -16.71875 C 7.0625 -15.78125 7.09375 -15.140625 7.09375 -14.796875 L 7.171875 -14.796875 C 7.816406 -16.203125 8.628906 -17.222656 9.609375 -17.859375 C 10.585938 -18.492188 11.753906 -18.8125 13.109375 -18.8125 C 15.054688 -18.8125 16.550781 -18.207031 17.59375 -17 C 18.644531 -15.800781 19.171875 -14.039062 19.171875 -11.71875 L 19.171875 0 Z M 14.390625 0 "/></g></g></g></svg>