<svg xmlns="http://www.w3.org/2000/svg" xmlns:xlink="http://www.w3.org/1999/xlink" width="560" zoomAndPan="magnify" viewBox="0 0 420 67.499998" height="90" preserveAspectRatio="xMidYMid meet" version="1.0"><defs><g/><clipPath id="4ab88dfea5"><path d="M 1.574219 0 L 418.125 0 L 418.125 66.863281 L 1.574219 66.863281 Z M 1.574219 0 " clip-rule="nonzero"/></clipPath></defs><g clip-path="url(#4ab88dfea5)"><path stroke-linecap="butt" transform="matrix(0.744485, 0, 0, 0.744485, 1.573902, 0)" fill="none" stroke-linejoin="miter" d="M 0.000425837 0 L 559.515589 0 L 559.515589 89.811426 L 0.000425837 89.811426 Z M 0.000425837 0 " stroke="#000000" stroke-width="12" stroke-opacity="1" stroke-miterlimit="4"/></g><g fill="#000000" fill-opacity="1"><g transform="translate(18.662307, 43.859772)"><g><path d="M 10.796875 0.28125 C 10.078125 0.28125 9.523438 0.078125 9.140625 -0.328125 C 8.765625 -0.734375 8.578125 -1.296875 8.578125 -2.015625 L 8.578125 -20.765625 L 1.8125 -20.765625 C 1.207031 -20.765625 0.734375 -20.929688 0.390625 -21.265625 C 0.0546875 -21.609375 -0.109375 -22.066406 -0.109375 -22.640625 C -0.109375 -23.242188 0.0546875 -23.703125 0.390625 -24.015625 C 0.734375 -24.328125 1.207031 -24.484375 1.8125 -24.484375 L 19.796875 -24.484375 C 20.398438 -24.484375 20.867188 -24.328125 21.203125 -24.015625 C 21.535156 -23.703125 21.703125 -23.242188 21.703125 -22.640625 C 21.703125 -22.066406 21.535156 -21.609375 21.203125 -21.265625 C 20.867188 -20.929688 20.398438 -20.765625 19.796875 -20.765625 L 13.03125 -20.765625 L 13.03125 -2.015625 C 13.03125 -1.296875 12.84375 -0.734375 12.46875 -0.328125 C 12.09375 0.078125 11.535156 0.28125 10.796875 0.28125 Z M 10.796875 0.28125 "/></g></g></g><g fill="#000000" fill-opacity="1"><g transform="translate(42.143196, 43.859772)"><g><path d="M 4.40625 0.25 C 3.71875 0.25 3.1875 0.0390625 2.8125 -0.375 C 2.4375 -0.789062 2.25 -1.375 2.25 -2.125 L 2.25 -14.859375 C 2.25 -15.628906 2.4375 -16.21875 2.8125 -16.625 C 3.1875 -17.03125 3.71875 -17.234375 4.40625 -17.234375 C 5.101562 -17.234375 5.640625 -17.03125 6.015625 -16.625 C 6.398438 -16.21875 6.59375 -15.628906 6.59375 -14.859375 L 6.59375 -2.125 C 6.59375 -1.375 6.40625 -0.789062 6.03125 -0.375 C 5.664062 0.0390625 5.125 0.25 4.40625 0.25 Z M 4.40625 -20.453125 C 3.601562 -20.453125 2.972656 -20.65625 2.515625 -21.0625 C 2.066406 -21.46875 1.84375 -22.03125 1.84375 -22.75 C 1.84375 -23.488281 2.066406 -24.054688 2.515625 -24.453125 C 2.972656 -24.847656 3.601562 -25.046875 4.40625 -25.046875 C 5.238281 -25.046875 5.875 -24.847656 6.3125 -24.453125 C 6.757812 -24.054688 6.984375 -23.488281 6.984375 -22.75 C 6.984375 -22.03125 6.757812 -21.46875 6.3125 -21.0625 C 5.875 -20.65625 5.238281 -20.453125 4.40625 -20.453125 Z M 4.40625 -20.453125 "/></g></g></g><g fill="#000000" fill-opacity="1"><g transform="translate(51.000566, 43.859772)"><g><path d="M 8.78125 0.34375 C 7.300781 0.34375 6 -0.015625 4.875 -0.734375 C 3.757812 -1.453125 2.882812 -2.472656 2.25 -3.796875 C 1.625 -5.128906 1.3125 -6.703125 1.3125 -8.515625 C 1.3125 -10.335938 1.625 -11.898438 2.25 -13.203125 C 2.882812 -14.515625 3.757812 -15.53125 4.875 -16.25 C 6 -16.96875 7.300781 -17.328125 8.78125 -17.328125 C 10.195312 -17.328125 11.429688 -16.976562 12.484375 -16.28125 C 13.535156 -15.59375 14.25 -14.679688 14.625 -13.546875 L 14.234375 -13.546875 L 14.234375 -22.578125 C 14.234375 -23.296875 14.421875 -23.835938 14.796875 -24.203125 C 15.171875 -24.578125 15.703125 -24.765625 16.390625 -24.765625 C 17.085938 -24.765625 17.625 -24.578125 18 -24.203125 C 18.382812 -23.835938 18.578125 -23.296875 18.578125 -22.578125 L 18.578125 -1.9375 C 18.578125 -1.226562 18.390625 -0.679688 18.015625 -0.296875 C 17.648438 0.0859375 17.117188 0.28125 16.421875 0.28125 C 15.734375 0.28125 15.203125 0.0859375 14.828125 -0.296875 C 14.460938 -0.679688 14.28125 -1.226562 14.28125 -1.9375 L 14.28125 -4.65625 L 14.65625 -3.609375 C 14.3125 -2.410156 13.601562 -1.453125 12.53125 -0.734375 C 11.46875 -0.015625 10.21875 0.34375 8.78125 0.34375 Z M 10 -2.953125 C 10.851562 -2.953125 11.601562 -3.160156 12.25 -3.578125 C 12.90625 -3.992188 13.410156 -4.613281 13.765625 -5.4375 C 14.128906 -6.257812 14.3125 -7.285156 14.3125 -8.515625 C 14.3125 -10.359375 13.914062 -11.738281 13.125 -12.65625 C 12.34375 -13.570312 11.300781 -14.03125 10 -14.03125 C 9.144531 -14.03125 8.390625 -13.828125 7.734375 -13.421875 C 7.085938 -13.015625 6.585938 -12.398438 6.234375 -11.578125 C 5.878906 -10.753906 5.703125 -9.734375 5.703125 -8.515625 C 5.703125 -6.679688 6.09375 -5.296875 6.875 -4.359375 C 7.664062 -3.421875 8.707031 -2.953125 10 -2.953125 Z M 10 -2.953125 "/></g></g></g><g fill="#000000" fill-opacity="1"><g transform="translate(71.84145, 43.859772)"><g><path d="M 7.84375 0.34375 C 6.625 0.34375 5.53125 0.109375 4.5625 -0.359375 C 3.601562 -0.835938 2.851562 -1.484375 2.3125 -2.296875 C 1.769531 -3.109375 1.5 -4.019531 1.5 -5.03125 C 1.5 -6.28125 1.820312 -7.269531 2.46875 -8 C 3.113281 -8.726562 4.164062 -9.253906 5.625 -9.578125 C 7.082031 -9.910156 9.039062 -10.078125 11.5 -10.078125 L 13.234375 -10.078125 L 13.234375 -7.578125 L 11.53125 -7.578125 C 10.09375 -7.578125 8.945312 -7.503906 8.09375 -7.359375 C 7.238281 -7.222656 6.628906 -6.984375 6.265625 -6.640625 C 5.910156 -6.304688 5.734375 -5.84375 5.734375 -5.25 C 5.734375 -4.476562 6 -3.847656 6.53125 -3.359375 C 7.0625 -2.878906 7.800781 -2.640625 8.75 -2.640625 C 9.519531 -2.640625 10.195312 -2.816406 10.78125 -3.171875 C 11.375 -3.535156 11.84375 -4.03125 12.1875 -4.65625 C 12.539062 -5.28125 12.71875 -6 12.71875 -6.8125 L 12.71875 -10.796875 C 12.71875 -11.960938 12.460938 -12.796875 11.953125 -13.296875 C 11.441406 -13.804688 10.582031 -14.0625 9.375 -14.0625 C 8.707031 -14.0625 7.984375 -13.976562 7.203125 -13.8125 C 6.429688 -13.65625 5.617188 -13.378906 4.765625 -12.984375 C 4.316406 -12.773438 3.925781 -12.71875 3.59375 -12.8125 C 3.257812 -12.90625 3 -13.097656 2.8125 -13.390625 C 2.625 -13.679688 2.53125 -14 2.53125 -14.34375 C 2.53125 -14.6875 2.625 -15.023438 2.8125 -15.359375 C 3 -15.703125 3.3125 -15.953125 3.75 -16.109375 C 4.8125 -16.554688 5.832031 -16.867188 6.8125 -17.046875 C 7.800781 -17.234375 8.703125 -17.328125 9.515625 -17.328125 C 11.179688 -17.328125 12.550781 -17.070312 13.625 -16.5625 C 14.707031 -16.050781 15.515625 -15.28125 16.046875 -14.25 C 16.578125 -13.226562 16.84375 -11.90625 16.84375 -10.28125 L 16.84375 -1.9375 C 16.84375 -1.226562 16.664062 -0.679688 16.3125 -0.296875 C 15.96875 0.0859375 15.472656 0.28125 14.828125 0.28125 C 14.179688 0.28125 13.675781 0.0859375 13.3125 -0.296875 C 12.957031 -0.679688 12.78125 -1.226562 12.78125 -1.9375 L 12.78125 -3.609375 L 13.0625 -3.609375 C 12.894531 -2.796875 12.570312 -2.09375 12.09375 -1.5 C 11.625 -0.914062 11.03125 -0.460938 10.3125 -0.140625 C 9.59375 0.179688 8.769531 0.34375 7.84375 0.34375 Z M 7.84375 0.34375 "/></g></g></g><g fill="#000000" fill-opacity="1"><g transform="translate(90.841387, 43.859772)"><g><path d="M 4.40625 0.28125 C 3.71875 0.28125 3.1875 0.0859375 2.8125 -0.296875 C 2.4375 -0.679688 2.25 -1.226562 2.25 -1.9375 L 2.25 -22.578125 C 2.25 -23.296875 2.4375 -23.835938 2.8125 -24.203125 C 3.1875 -24.578125 3.71875 -24.765625 4.40625 -24.765625 C 5.101562 -24.765625 5.640625 -24.578125 6.015625 -24.203125 C 6.398438 -23.835938 6.59375 -23.296875 6.59375 -22.578125 L 6.59375 -9.765625 L 6.671875 -9.765625 L 12.40625 -15.796875 C 12.863281 -16.265625 13.265625 -16.625 13.609375 -16.875 C 13.960938 -17.132812 14.441406 -17.265625 15.046875 -17.265625 C 15.640625 -17.265625 16.09375 -17.109375 16.40625 -16.796875 C 16.71875 -16.484375 16.875 -16.101562 16.875 -15.65625 C 16.875 -15.21875 16.664062 -14.78125 16.25 -14.34375 L 10.21875 -7.953125 L 10.21875 -9.765625 L 16.84375 -2.609375 C 17.257812 -2.160156 17.453125 -1.710938 17.421875 -1.265625 C 17.390625 -0.816406 17.195312 -0.445312 16.84375 -0.15625 C 16.5 0.132812 16.0625 0.28125 15.53125 0.28125 C 14.875 0.28125 14.351562 0.15625 13.96875 -0.09375 C 13.59375 -0.351562 13.175781 -0.738281 12.71875 -1.25 L 6.671875 -7.578125 L 6.59375 -7.578125 L 6.59375 -1.9375 C 6.59375 -0.457031 5.863281 0.28125 4.40625 0.28125 Z M 4.40625 0.28125 "/></g></g></g><g fill="#000000" fill-opacity="1"><g transform="translate(109.459243, 43.859772)"><g/></g></g><g fill="#000000" fill-opacity="1"><g transform="translate(118.872376, 43.859772)"><g><path d="M 7.84375 0.34375 C 6.625 0.34375 5.53125 0.109375 4.5625 -0.359375 C 3.601562 -0.835938 2.851562 -1.484375 2.3125 -2.296875 C 1.769531 -3.109375 1.5 -4.019531 1.5 -5.03125 C 1.5 -6.28125 1.820312 -7.269531 2.46875 -8 C 3.113281 -8.726562 4.164062 -9.253906 5.625 -9.578125 C 7.082031 -9.910156 9.039062 -10.078125 11.5 -10.078125 L 13.234375 -10.078125 L 13.234375 -7.578125 L 11.53125 -7.578125 C 10.09375 -7.578125 8.945312 -7.503906 8.09375 -7.359375 C 7.238281 -7.222656 6.628906 -6.984375 6.265625 -6.640625 C 5.910156 -6.304688 5.734375 -5.84375 5.734375 -5.25 C 5.734375 -4.476562 6 -3.847656 6.53125 -3.359375 C 7.0625 -2.878906 7.800781 -2.640625 8.75 -2.640625 C 9.519531 -2.640625 10.195312 -2.816406 10.78125 -3.171875 C 11.375 -3.535156 11.84375 -4.03125 12.1875 -4.65625 C 12.539062 -5.28125 12.71875 -6 12.71875 -6.8125 L 12.71875 -10.796875 C 12.71875 -11.960938 12.460938 -12.796875 11.953125 -13.296875 C 11.441406 -13.804688 10.582031 -14.0625 9.375 -14.0625 C 8.707031 -14.0625 7.984375 -13.976562 7.203125 -13.8125 C 6.429688 -13.65625 5.617188 -13.378906 4.765625 -12.984375 C 4.316406 -12.773438 3.925781 -12.71875 3.59375 -12.8125 C 3.257812 -12.90625 3 -13.097656 2.8125 -13.390625 C 2.625 -13.679688 2.53125 -14 2.53125 -14.34375 C 2.53125 -14.6875 2.625 -15.023438 2.8125 -15.359375 C 3 -15.703125 3.3125 -15.953125 3.75 -16.109375 C 4.8125 -16.554688 5.832031 -16.867188 6.8125 -17.046875 C 7.800781 -17.234375 8.703125 -17.328125 9.515625 -17.328125 C 11.179688 -17.328125 12.550781 -17.070312 13.625 -16.5625 C 14.707031 -16.050781 15.515625 -15.28125 16.046875 -14.25 C 16.578125 -13.226562 16.84375 -11.90625 16.84375 -10.28125 L 16.84375 -1.9375 C 16.84375 -1.226562 16.664062 -0.679688 16.3125 -0.296875 C 15.96875 0.0859375 15.472656 0.28125 14.828125 0.28125 C 14.179688 0.28125 13.675781 0.0859375 13.3125 -0.296875 C 12.957031 -0.679688 12.78125 -1.226562 12.78125 -1.9375 L 12.78125 -3.609375 L 13.0625 -3.609375 C 12.894531 -2.796875 12.570312 -2.09375 12.09375 -1.5 C 11.625 -0.914062 11.03125 -0.460938 10.3125 -0.140625 C 9.59375 0.179688 8.769531 0.34375 7.84375 0.34375 Z M 7.84375 0.34375 "/></g></g></g><g fill="#000000" fill-opacity="1"><g transform="translate(137.872313, 43.859772)"><g><path d="M 8.78125 0.34375 C 7.300781 0.34375 6 -0.015625 4.875 -0.734375 C 3.757812 -1.453125 2.882812 -2.472656 2.25 -3.796875 C 1.625 -5.128906 1.3125 -6.703125 1.3125 -8.515625 C 1.3125 -10.335938 1.625 -11.898438 2.25 -13.203125 C 2.882812 -14.515625 3.757812 -15.53125 4.875 -16.25 C 6 -16.96875 7.300781 -17.328125 8.78125 -17.328125 C 10.195312 -17.328125 11.429688 -16.976562 12.484375 -16.28125 C 13.535156 -15.59375 14.25 -14.679688 14.625 -13.546875 L 14.234375 -13.546875 L 14.234375 -22.578125 C 14.234375 -23.296875 14.421875 -23.835938 14.796875 -24.203125 C 15.171875 -24.578125 15.703125 -24.765625 16.390625 -24.765625 C 17.085938 -24.765625 17.625 -24.578125 18 -24.203125 C 18.382812 -23.835938 18.578125 -23.296875 18.578125 -22.578125 L 18.578125 -1.9375 C 18.578125 -1.226562 18.390625 -0.679688 18.015625 -0.296875 C 17.648438 0.0859375 17.117188 0.28125 16.421875 0.28125 C 15.734375 0.28125 15.203125 0.0859375 14.828125 -0.296875 C 14.460938 -0.679688 14.28125 -1.226562 14.28125 -1.9375 L 14.28125 -4.65625 L 14.65625 -3.609375 C 14.3125 -2.410156 13.601562 -1.453125 12.53125 -0.734375 C 11.46875 -0.015625 10.21875 0.34375 8.78125 0.34375 Z M 10 -2.953125 C 10.851562 -2.953125 11.601562 -3.160156 12.25 -3.578125 C 12.90625 -3.992188 13.410156 -4.613281 13.765625 -5.4375 C 14.128906 -6.257812 14.3125 -7.285156 14.3125 -8.515625 C 14.3125 -10.359375 13.914062 -11.738281 13.125 -12.65625 C 12.34375 -13.570312 11.300781 -14.03125 10 -14.03125 C 9.144531 -14.03125 8.390625 -13.828125 7.734375 -13.421875 C 7.085938 -13.015625 6.585938 -12.398438 6.234375 -11.578125 C 5.878906 -10.753906 5.703125 -9.734375 5.703125 -8.515625 C 5.703125 -6.679688 6.09375 -5.296875 6.875 -4.359375 C 7.664062 -3.421875 8.707031 -2.953125 10 -2.953125 Z M 10 -2.953125 "/></g></g></g><g fill="#000000" fill-opacity="1"><g transform="translate(158.713197, 43.859772)"><g><path d="M 7.84375 0.34375 C 6.625 0.34375 5.53125 0.109375 4.5625 -0.359375 C 3.601562 -0.835938 2.851562 -1.484375 2.3125 -2.296875 C 1.769531 -3.109375 1.5 -4.019531 1.5 -5.03125 C 1.5 -6.28125 1.820312 -7.269531 2.46875 -8 C 3.113281 -8.726562 4.164062 -9.253906 5.625 -9.578125 C 7.082031 -9.910156 9.039062 -10.078125 11.5 -10.078125 L 13.234375 -10.078125 L 13.234375 -7.578125 L 11.53125 -7.578125 C 10.09375 -7.578125 8.945312 -7.503906 8.09375 -7.359375 C 7.238281 -7.222656 6.628906 -6.984375 6.265625 -6.640625 C 5.910156 -6.304688 5.734375 -5.84375 5.734375 -5.25 C 5.734375 -4.476562 6 -3.847656 6.53125 -3.359375 C 7.0625 -2.878906 7.800781 -2.640625 8.75 -2.640625 C 9.519531 -2.640625 10.195312 -2.816406 10.78125 -3.171875 C 11.375 -3.535156 11.84375 -4.03125 12.1875 -4.65625 C 12.539062 -5.28125 12.71875 -6 12.71875 -6.8125 L 12.71875 -10.796875 C 12.71875 -11.960938 12.460938 -12.796875 11.953125 -13.296875 C 11.441406 -13.804688 10.582031 -14.0625 9.375 -14.0625 C 8.707031 -14.0625 7.984375 -13.976562 7.203125 -13.8125 C 6.429688 -13.65625 5.617188 -13.378906 4.765625 -12.984375 C 4.316406 -12.773438 3.925781 -12.71875 3.59375 -12.8125 C 3.257812 -12.90625 3 -13.097656 2.8125 -13.390625 C 2.625 -13.679688 2.53125 -14 2.53125 -14.34375 C 2.53125 -14.6875 2.625 -15.023438 2.8125 -15.359375 C 3 -15.703125 3.3125 -15.953125 3.75 -16.109375 C 4.8125 -16.554688 5.832031 -16.867188 6.8125 -17.046875 C 7.800781 -17.234375 8.703125 -17.328125 9.515625 -17.328125 C 11.179688 -17.328125 12.550781 -17.070312 13.625 -16.5625 C 14.707031 -16.050781 15.515625 -15.28125 16.046875 -14.25 C 16.578125 -13.226562 16.84375 -11.90625 16.84375 -10.28125 L 16.84375 -1.9375 C 16.84375 -1.226562 16.664062 -0.679688 16.3125 -0.296875 C 15.96875 0.0859375 15.472656 0.28125 14.828125 0.28125 C 14.179688 0.28125 13.675781 0.0859375 13.3125 -0.296875 C 12.957031 -0.679688 12.78125 -1.226562 12.78125 -1.9375 L 12.78125 -3.609375 L 13.0625 -3.609375 C 12.894531 -2.796875 12.570312 -2.09375 12.09375 -1.5 C 11.625 -0.914062 11.03125 -0.460938 10.3125 -0.140625 C 9.59375 0.179688 8.769531 0.34375 7.84375 0.34375 Z M 7.84375 0.34375 "/></g></g></g><g fill="#000000" fill-opacity="1"><g transform="translate(177.713134, 43.859772)"><g/></g></g><g fill="#000000" fill-opacity="1"><g transform="translate(187.126267, 43.859772)"><g><path d="M 6.5625 6.53125 C 6.050781 6.53125 5.632812 6.394531 5.3125 6.125 C 4.988281 5.863281 4.796875 5.507812 4.734375 5.0625 C 4.679688 4.625 4.757812 4.164062 4.96875 3.6875 L 7.328125 -1.5625 L 7.328125 0.25 L 1 -14.375 C 0.789062 -14.882812 0.722656 -15.359375 0.796875 -15.796875 C 0.867188 -16.242188 1.082031 -16.597656 1.4375 -16.859375 C 1.800781 -17.128906 2.296875 -17.265625 2.921875 -17.265625 C 3.453125 -17.265625 3.878906 -17.140625 4.203125 -16.890625 C 4.523438 -16.648438 4.816406 -16.195312 5.078125 -15.53125 L 9.765625 -3.828125 L 8.71875 -3.828125 L 13.515625 -15.5625 C 13.765625 -16.207031 14.0625 -16.648438 14.40625 -16.890625 C 14.757812 -17.140625 15.222656 -17.265625 15.796875 -17.265625 C 16.304688 -17.265625 16.710938 -17.128906 17.015625 -16.859375 C 17.316406 -16.597656 17.503906 -16.25 17.578125 -15.8125 C 17.648438 -15.382812 17.566406 -14.921875 17.328125 -14.421875 L 8.890625 4.859375 C 8.585938 5.503906 8.265625 5.941406 7.921875 6.171875 C 7.578125 6.410156 7.125 6.53125 6.5625 6.53125 Z M 6.5625 6.53125 "/></g></g></g><g fill="#000000" fill-opacity="1"><g transform="translate(205.049395, 43.859772)"><g><path d="M 7.84375 0.34375 C 6.625 0.34375 5.53125 0.109375 4.5625 -0.359375 C 3.601562 -0.835938 2.851562 -1.484375 2.3125 -2.296875 C 1.769531 -3.109375 1.5 -4.019531 1.5 -5.03125 C 1.5 -6.28125 1.820312 -7.269531 2.46875 -8 C 3.113281 -8.726562 4.164062 -9.253906 5.625 -9.578125 C 7.082031 -9.910156 9.039062 -10.078125 11.5 -10.078125 L 13.234375 -10.078125 L 13.234375 -7.578125 L 11.53125 -7.578125 C 10.09375 -7.578125 8.945312 -7.503906 8.09375 -7.359375 C 7.238281 -7.222656 6.628906 -6.984375 6.265625 -6.640625 C 5.910156 -6.304688 5.734375 -5.84375 5.734375 -5.25 C 5.734375 -4.476562 6 -3.847656 6.53125 -3.359375 C 7.0625 -2.878906 7.800781 -2.640625 8.75 -2.640625 C 9.519531 -2.640625 10.195312 -2.816406 10.78125 -3.171875 C 11.375 -3.535156 11.84375 -4.03125 12.1875 -4.65625 C 12.539062 -5.28125 12.71875 -6 12.71875 -6.8125 L 12.71875 -10.796875 C 12.71875 -11.960938 12.460938 -12.796875 11.953125 -13.296875 C 11.441406 -13.804688 10.582031 -14.0625 9.375 -14.0625 C 8.707031 -14.0625 7.984375 -13.976562 7.203125 -13.8125 C 6.429688 -13.65625 5.617188 -13.378906 4.765625 -12.984375 C 4.316406 -12.773438 3.925781 -12.71875 3.59375 -12.8125 C 3.257812 -12.90625 3 -13.097656 2.8125 -13.390625 C 2.625 -13.679688 2.53125 -14 2.53125 -14.34375 C 2.53125 -14.6875 2.625 -15.023438 2.8125 -15.359375 C 3 -15.703125 3.3125 -15.953125 3.75 -16.109375 C 4.8125 -16.554688 5.832031 -16.867188 6.8125 -17.046875 C 7.800781 -17.234375 8.703125 -17.328125 9.515625 -17.328125 C 11.179688 -17.328125 12.550781 -17.070312 13.625 -16.5625 C 14.707031 -16.050781 15.515625 -15.28125 16.046875 -14.25 C 16.578125 -13.226562 16.84375 -11.90625 16.84375 -10.28125 L 16.84375 -1.9375 C 16.84375 -1.226562 16.664062 -0.679688 16.3125 -0.296875 C 15.96875 0.0859375 15.472656 0.28125 14.828125 0.28125 C 14.179688 0.28125 13.675781 0.0859375 13.3125 -0.296875 C 12.957031 -0.679688 12.78125 -1.226562 12.78125 -1.9375 L 12.78125 -3.609375 L 13.0625 -3.609375 C 12.894531 -2.796875 12.570312 -2.09375 12.09375 -1.5 C 11.625 -0.914062 11.03125 -0.460938 10.3125 -0.140625 C 9.59375 0.179688 8.769531 0.34375 7.84375 0.34375 Z M 7.84375 0.34375 "/></g></g></g><g fill="#000000" fill-opacity="1"><g transform="translate(224.049332, 43.859772)"><g><path d="M 4.40625 0.28125 C 3.71875 0.28125 3.1875 0.0859375 2.8125 -0.296875 C 2.4375 -0.679688 2.25 -1.226562 2.25 -1.9375 L 2.25 -15.078125 C 2.25 -15.796875 2.4375 -16.335938 2.8125 -16.703125 C 3.1875 -17.078125 3.707031 -17.265625 4.375 -17.265625 C 5.050781 -17.265625 5.570312 -17.078125 5.9375 -16.703125 C 6.3125 -16.335938 6.5 -15.796875 6.5 -15.078125 L 6.5 -12.71875 L 6.109375 -13.578125 C 6.617188 -14.804688 7.410156 -15.738281 8.484375 -16.375 C 9.566406 -17.007812 10.789062 -17.328125 12.15625 -17.328125 C 13.519531 -17.328125 14.640625 -17.070312 15.515625 -16.5625 C 16.398438 -16.050781 17.0625 -15.28125 17.5 -14.25 C 17.945312 -13.226562 18.171875 -11.925781 18.171875 -10.34375 L 18.171875 -1.9375 C 18.171875 -1.226562 17.984375 -0.679688 17.609375 -0.296875 C 17.234375 0.0859375 16.703125 0.28125 16.015625 0.28125 C 15.316406 0.28125 14.773438 0.0859375 14.390625 -0.296875 C 14.015625 -0.679688 13.828125 -1.226562 13.828125 -1.9375 L 13.828125 -10.140625 C 13.828125 -11.460938 13.578125 -12.421875 13.078125 -13.015625 C 12.578125 -13.617188 11.804688 -13.921875 10.765625 -13.921875 C 9.492188 -13.921875 8.476562 -13.519531 7.71875 -12.71875 C 6.96875 -11.925781 6.59375 -10.867188 6.59375 -9.546875 L 6.59375 -1.9375 C 6.59375 -0.457031 5.863281 0.28125 4.40625 0.28125 Z M 4.40625 0.28125 "/></g></g></g><g fill="#000000" fill-opacity="1"><g transform="translate(244.369204, 43.859772)"><g><path d="M 10.171875 6.59375 C 8.921875 6.59375 7.710938 6.476562 6.546875 6.25 C 5.378906 6.019531 4.320312 5.660156 3.375 5.171875 C 2.925781 4.941406 2.625 4.664062 2.46875 4.34375 C 2.320312 4.019531 2.28125 3.6875 2.34375 3.34375 C 2.40625 3.007812 2.546875 2.710938 2.765625 2.453125 C 2.984375 2.203125 3.253906 2.03125 3.578125 1.9375 C 3.898438 1.851562 4.234375 1.898438 4.578125 2.078125 C 5.597656 2.585938 6.566406 2.914062 7.484375 3.0625 C 8.398438 3.21875 9.179688 3.296875 9.828125 3.296875 C 11.378906 3.296875 12.539062 2.921875 13.3125 2.171875 C 14.09375 1.421875 14.484375 0.300781 14.484375 -1.1875 L 14.484375 -4.3125 L 14.796875 -4.3125 C 14.453125 -3.125 13.726562 -2.175781 12.625 -1.46875 C 11.519531 -0.769531 10.273438 -0.421875 8.890625 -0.421875 C 7.359375 -0.421875 6.023438 -0.769531 4.890625 -1.46875 C 3.765625 -2.175781 2.882812 -3.164062 2.25 -4.4375 C 1.625 -5.71875 1.3125 -7.203125 1.3125 -8.890625 C 1.3125 -10.160156 1.488281 -11.3125 1.84375 -12.34375 C 2.207031 -13.375 2.71875 -14.257812 3.375 -15 C 4.039062 -15.738281 4.84375 -16.3125 5.78125 -16.71875 C 6.71875 -17.125 7.753906 -17.328125 8.890625 -17.328125 C 10.328125 -17.328125 11.582031 -16.972656 12.65625 -16.265625 C 13.738281 -15.566406 14.441406 -14.640625 14.765625 -13.484375 L 14.421875 -12.609375 L 14.421875 -15.078125 C 14.421875 -15.796875 14.609375 -16.335938 14.984375 -16.703125 C 15.367188 -17.078125 15.894531 -17.265625 16.5625 -17.265625 C 17.257812 -17.265625 17.789062 -17.078125 18.15625 -16.703125 C 18.53125 -16.335938 18.71875 -15.796875 18.71875 -15.078125 L 18.71875 -1.703125 C 18.71875 1.054688 17.988281 3.128906 16.53125 4.515625 C 15.070312 5.898438 12.953125 6.59375 10.171875 6.59375 Z M 10.078125 -3.71875 C 10.972656 -3.71875 11.742188 -3.925781 12.390625 -4.34375 C 13.046875 -4.757812 13.550781 -5.351562 13.90625 -6.125 C 14.269531 -6.90625 14.453125 -7.828125 14.453125 -8.890625 C 14.453125 -10.484375 14.054688 -11.738281 13.265625 -12.65625 C 12.484375 -13.570312 11.421875 -14.03125 10.078125 -14.03125 C 9.171875 -14.03125 8.390625 -13.820312 7.734375 -13.40625 C 7.085938 -12.988281 6.585938 -12.394531 6.234375 -11.625 C 5.878906 -10.863281 5.703125 -9.953125 5.703125 -8.890625 C 5.703125 -7.296875 6.09375 -6.035156 6.875 -5.109375 C 7.664062 -4.179688 8.734375 -3.71875 10.078125 -3.71875 Z M 10.078125 -3.71875 "/></g></g></g><g fill="#000000" fill-opacity="1"><g transform="translate(265.34902, 43.859772)"><g/></g></g><g fill="#000000" fill-opacity="1"><g transform="translate(274.762141, 43.859772)"><g><path d="M 10.03125 0.34375 C 8.53125 0.34375 7.273438 0.0859375 6.265625 -0.421875 C 5.265625 -0.929688 4.519531 -1.675781 4.03125 -2.65625 C 3.539062 -3.644531 3.296875 -4.867188 3.296875 -6.328125 L 3.296875 -13.71875 L 1.5 -13.71875 C 0.9375 -13.71875 0.503906 -13.863281 0.203125 -14.15625 C -0.0976562 -14.445312 -0.25 -14.847656 -0.25 -15.359375 C -0.25 -15.890625 -0.0976562 -16.289062 0.203125 -16.5625 C 0.503906 -16.84375 0.9375 -16.984375 1.5 -16.984375 L 3.296875 -16.984375 L 3.296875 -20.140625 C 3.296875 -20.859375 3.488281 -21.398438 3.875 -21.765625 C 4.257812 -22.140625 4.796875 -22.328125 5.484375 -22.328125 C 6.179688 -22.328125 6.710938 -22.140625 7.078125 -21.765625 C 7.453125 -21.398438 7.640625 -20.859375 7.640625 -20.140625 L 7.640625 -16.984375 L 11.328125 -16.984375 C 11.878906 -16.984375 12.304688 -16.84375 12.609375 -16.5625 C 12.910156 -16.289062 13.0625 -15.890625 13.0625 -15.359375 C 13.0625 -14.847656 12.910156 -14.445312 12.609375 -14.15625 C 12.304688 -13.863281 11.878906 -13.71875 11.328125 -13.71875 L 7.640625 -13.71875 L 7.640625 -6.5625 C 7.640625 -5.445312 7.878906 -4.613281 8.359375 -4.0625 C 8.847656 -3.507812 9.640625 -3.234375 10.734375 -3.234375 C 11.128906 -3.234375 11.472656 -3.265625 11.765625 -3.328125 C 12.066406 -3.398438 12.335938 -3.445312 12.578125 -3.46875 C 12.847656 -3.5 13.078125 -3.414062 13.265625 -3.21875 C 13.453125 -3.019531 13.546875 -2.617188 13.546875 -2.015625 C 13.546875 -1.546875 13.46875 -1.132812 13.3125 -0.78125 C 13.164062 -0.425781 12.894531 -0.175781 12.5 -0.03125 C 12.195312 0.0625 11.800781 0.144531 11.3125 0.21875 C 10.832031 0.300781 10.40625 0.34375 10.03125 0.34375 Z M 10.03125 0.34375 "/></g></g></g><g fill="#000000" fill-opacity="1"><g transform="translate(287.926612, 43.859772)"><g><path d="M 10.625 0.34375 C 8.707031 0.34375 7.050781 -0.015625 5.65625 -0.734375 C 4.269531 -1.453125 3.195312 -2.46875 2.4375 -3.78125 C 1.6875 -5.101562 1.3125 -6.664062 1.3125 -8.46875 C 1.3125 -10.226562 1.675781 -11.769531 2.40625 -13.09375 C 3.144531 -14.414062 4.15625 -15.453125 5.4375 -16.203125 C 6.71875 -16.953125 8.179688 -17.328125 9.828125 -17.328125 C 11.035156 -17.328125 12.117188 -17.128906 13.078125 -16.734375 C 14.035156 -16.347656 14.851562 -15.78125 15.53125 -15.03125 C 16.21875 -14.289062 16.738281 -13.394531 17.09375 -12.34375 C 17.457031 -11.289062 17.640625 -10.101562 17.640625 -8.78125 C 17.640625 -8.363281 17.492188 -8.046875 17.203125 -7.828125 C 16.921875 -7.609375 16.515625 -7.5 15.984375 -7.5 L 4.828125 -7.5 L 4.828125 -10 L 14.59375 -10 L 14.03125 -9.484375 C 14.03125 -10.546875 13.875 -11.4375 13.5625 -12.15625 C 13.25 -12.875 12.796875 -13.421875 12.203125 -13.796875 C 11.617188 -14.179688 10.882812 -14.375 10 -14.375 C 9.03125 -14.375 8.203125 -14.148438 7.515625 -13.703125 C 6.835938 -13.253906 6.316406 -12.617188 5.953125 -11.796875 C 5.597656 -10.972656 5.421875 -9.992188 5.421875 -8.859375 L 5.421875 -8.609375 C 5.421875 -6.710938 5.863281 -5.296875 6.75 -4.359375 C 7.644531 -3.421875 8.960938 -2.953125 10.703125 -2.953125 C 11.296875 -2.953125 11.96875 -3.023438 12.71875 -3.171875 C 13.476562 -3.328125 14.191406 -3.585938 14.859375 -3.953125 C 15.347656 -4.234375 15.773438 -4.351562 16.140625 -4.3125 C 16.515625 -4.28125 16.8125 -4.148438 17.03125 -3.921875 C 17.257812 -3.691406 17.394531 -3.410156 17.4375 -3.078125 C 17.476562 -2.742188 17.410156 -2.398438 17.234375 -2.046875 C 17.066406 -1.703125 16.773438 -1.398438 16.359375 -1.140625 C 15.546875 -0.628906 14.613281 -0.253906 13.5625 -0.015625 C 12.507812 0.222656 11.53125 0.34375 10.625 0.34375 Z M 10.625 0.34375 "/></g></g></g><g fill="#000000" fill-opacity="1"><g transform="translate(306.752877, 43.859772)"><g><path d="M 4.484375 0.28125 C 3.765625 0.28125 3.210938 0.0859375 2.828125 -0.296875 C 2.441406 -0.679688 2.25 -1.226562 2.25 -1.9375 L 2.25 -15.078125 C 2.25 -15.796875 2.4375 -16.335938 2.8125 -16.703125 C 3.1875 -17.078125 3.707031 -17.265625 4.375 -17.265625 C 5.050781 -17.265625 5.570312 -17.078125 5.9375 -16.703125 C 6.3125 -16.335938 6.5 -15.796875 6.5 -15.078125 L 6.5 -12.890625 L 6.140625 -12.890625 C 6.472656 -14.273438 7.113281 -15.328125 8.0625 -16.046875 C 9.007812 -16.765625 10.269531 -17.191406 11.84375 -17.328125 C 12.332031 -17.378906 12.71875 -17.257812 13 -16.96875 C 13.289062 -16.675781 13.460938 -16.226562 13.515625 -15.625 C 13.554688 -15.050781 13.421875 -14.582031 13.109375 -14.21875 C 12.796875 -13.863281 12.328125 -13.648438 11.703125 -13.578125 L 10.9375 -13.515625 C 9.53125 -13.367188 8.46875 -12.929688 7.75 -12.203125 C 7.03125 -11.472656 6.671875 -10.453125 6.671875 -9.140625 L 6.671875 -1.9375 C 6.671875 -1.226562 6.484375 -0.679688 6.109375 -0.296875 C 5.742188 0.0859375 5.203125 0.28125 4.484375 0.28125 Z M 4.484375 0.28125 "/></g></g></g><g fill="#000000" fill-opacity="1"><g transform="translate(320.195234, 43.859772)"><g><path d="M 8.46875 0.34375 C 7.476562 0.34375 6.425781 0.238281 5.3125 0.03125 C 4.195312 -0.175781 3.203125 -0.535156 2.328125 -1.046875 C 1.953125 -1.273438 1.6875 -1.546875 1.53125 -1.859375 C 1.382812 -2.171875 1.328125 -2.484375 1.359375 -2.796875 C 1.398438 -3.109375 1.519531 -3.378906 1.71875 -3.609375 C 1.914062 -3.835938 2.171875 -3.988281 2.484375 -4.0625 C 2.796875 -4.132812 3.140625 -4.078125 3.515625 -3.890625 C 4.429688 -3.453125 5.296875 -3.144531 6.109375 -2.96875 C 6.921875 -2.789062 7.722656 -2.703125 8.515625 -2.703125 C 9.617188 -2.703125 10.441406 -2.894531 10.984375 -3.28125 C 11.535156 -3.664062 11.8125 -4.171875 11.8125 -4.796875 C 11.8125 -5.328125 11.628906 -5.734375 11.265625 -6.015625 C 10.910156 -6.304688 10.375 -6.523438 9.65625 -6.671875 L 6.1875 -7.328125 C 4.75 -7.609375 3.648438 -8.132812 2.890625 -8.90625 C 2.140625 -9.6875 1.765625 -10.6875 1.765625 -11.90625 C 1.765625 -13.019531 2.070312 -13.984375 2.6875 -14.796875 C 3.300781 -15.609375 4.148438 -16.234375 5.234375 -16.671875 C 6.328125 -17.109375 7.582031 -17.328125 9 -17.328125 C 10.019531 -17.328125 10.972656 -17.21875 11.859375 -17 C 12.753906 -16.78125 13.617188 -16.441406 14.453125 -15.984375 C 14.796875 -15.796875 15.03125 -15.550781 15.15625 -15.25 C 15.289062 -14.945312 15.320312 -14.640625 15.25 -14.328125 C 15.175781 -14.015625 15.035156 -13.734375 14.828125 -13.484375 C 14.617188 -13.242188 14.359375 -13.09375 14.046875 -13.03125 C 13.734375 -12.976562 13.378906 -13.046875 12.984375 -13.234375 C 12.265625 -13.609375 11.578125 -13.875 10.921875 -14.03125 C 10.265625 -14.195312 9.632812 -14.28125 9.03125 -14.28125 C 7.894531 -14.28125 7.054688 -14.082031 6.515625 -13.6875 C 5.972656 -13.289062 5.703125 -12.769531 5.703125 -12.125 C 5.703125 -11.632812 5.863281 -11.226562 6.1875 -10.90625 C 6.507812 -10.582031 7.003906 -10.363281 7.671875 -10.25 L 11.15625 -9.59375 C 12.65625 -9.3125 13.789062 -8.800781 14.5625 -8.0625 C 15.34375 -7.320312 15.734375 -6.328125 15.734375 -5.078125 C 15.734375 -3.378906 15.070312 -2.050781 13.75 -1.09375 C 12.4375 -0.132812 10.675781 0.34375 8.46875 0.34375 Z M 8.46875 0.34375 "/></g></g></g><g fill="#000000" fill-opacity="1"><g transform="translate(337.145814, 43.859772)"><g><path d="M 4.40625 0.25 C 3.71875 0.25 3.1875 0.0390625 2.8125 -0.375 C 2.4375 -0.789062 2.25 -1.375 2.25 -2.125 L 2.25 -14.859375 C 2.25 -15.628906 2.4375 -16.21875 2.8125 -16.625 C 3.1875 -17.03125 3.71875 -17.234375 4.40625 -17.234375 C 5.101562 -17.234375 5.640625 -17.03125 6.015625 -16.625 C 6.398438 -16.21875 6.59375 -15.628906 6.59375 -14.859375 L 6.59375 -2.125 C 6.59375 -1.375 6.40625 -0.789062 6.03125 -0.375 C 5.664062 0.0390625 5.125 0.25 4.40625 0.25 Z M 4.40625 -20.453125 C 3.601562 -20.453125 2.972656 -20.65625 2.515625 -21.0625 C 2.066406 -21.46875 1.84375 -22.03125 1.84375 -22.75 C 1.84375 -23.488281 2.066406 -24.054688 2.515625 -24.453125 C 2.972656 -24.847656 3.601562 -25.046875 4.40625 -25.046875 C 5.238281 -25.046875 5.875 -24.847656 6.3125 -24.453125 C 6.757812 -24.054688 6.984375 -23.488281 6.984375 -22.75 C 6.984375 -22.03125 6.757812 -21.46875 6.3125 -21.0625 C 5.875 -20.65625 5.238281 -20.453125 4.40625 -20.453125 Z M 4.40625 -20.453125 "/></g></g></g><g fill="#000000" fill-opacity="1"><g transform="translate(346.003162, 43.859772)"><g><path d="M 4.484375 0.28125 C 3.765625 0.28125 3.210938 0.0859375 2.828125 -0.296875 C 2.441406 -0.679688 2.25 -1.226562 2.25 -1.9375 L 2.25 -15.078125 C 2.25 -15.796875 2.4375 -16.335938 2.8125 -16.703125 C 3.1875 -17.078125 3.707031 -17.265625 4.375 -17.265625 C 5.050781 -17.265625 5.570312 -17.078125 5.9375 -16.703125 C 6.3125 -16.335938 6.5 -15.796875 6.5 -15.078125 L 6.5 -12.890625 L 6.140625 -12.890625 C 6.472656 -14.273438 7.113281 -15.328125 8.0625 -16.046875 C 9.007812 -16.765625 10.269531 -17.191406 11.84375 -17.328125 C 12.332031 -17.378906 12.71875 -17.257812 13 -16.96875 C 13.289062 -16.675781 13.460938 -16.226562 13.515625 -15.625 C 13.554688 -15.050781 13.421875 -14.582031 13.109375 -14.21875 C 12.796875 -13.863281 12.328125 -13.648438 11.703125 -13.578125 L 10.9375 -13.515625 C 9.53125 -13.367188 8.46875 -12.929688 7.75 -12.203125 C 7.03125 -11.472656 6.671875 -10.453125 6.671875 -9.140625 L 6.671875 -1.9375 C 6.671875 -1.226562 6.484375 -0.679688 6.109375 -0.296875 C 5.742188 0.0859375 5.203125 0.28125 4.484375 0.28125 Z M 4.484375 0.28125 "/></g></g></g><g fill="#000000" fill-opacity="1"><g transform="translate(359.445519, 43.859772)"><g><path d="M 7.84375 0.34375 C 6.625 0.34375 5.53125 0.109375 4.5625 -0.359375 C 3.601562 -0.835938 2.851562 -1.484375 2.3125 -2.296875 C 1.769531 -3.109375 1.5 -4.019531 1.5 -5.03125 C 1.5 -6.28125 1.820312 -7.269531 2.46875 -8 C 3.113281 -8.726562 4.164062 -9.253906 5.625 -9.578125 C 7.082031 -9.910156 9.039062 -10.078125 11.5 -10.078125 L 13.234375 -10.078125 L 13.234375 -7.578125 L 11.53125 -7.578125 C 10.09375 -7.578125 8.945312 -7.503906 8.09375 -7.359375 C 7.238281 -7.222656 6.628906 -6.984375 6.265625 -6.640625 C 5.910156 -6.304688 5.734375 -5.84375 5.734375 -5.25 C 5.734375 -4.476562 6 -3.847656 6.53125 -3.359375 C 7.0625 -2.878906 7.800781 -2.640625 8.75 -2.640625 C 9.519531 -2.640625 10.195312 -2.816406 10.78125 -3.171875 C 11.375 -3.535156 11.84375 -4.03125 12.1875 -4.65625 C 12.539062 -5.28125 12.71875 -6 12.71875 -6.8125 L 12.71875 -10.796875 C 12.71875 -11.960938 12.460938 -12.796875 11.953125 -13.296875 C 11.441406 -13.804688 10.582031 -14.0625 9.375 -14.0625 C 8.707031 -14.0625 7.984375 -13.976562 7.203125 -13.8125 C 6.429688 -13.65625 5.617188 -13.378906 4.765625 -12.984375 C 4.316406 -12.773438 3.925781 -12.71875 3.59375 -12.8125 C 3.257812 -12.90625 3 -13.097656 2.8125 -13.390625 C 2.625 -13.679688 2.53125 -14 2.53125 -14.34375 C 2.53125 -14.6875 2.625 -15.023438 2.8125 -15.359375 C 3 -15.703125 3.3125 -15.953125 3.75 -16.109375 C 4.8125 -16.554688 5.832031 -16.867188 6.8125 -17.046875 C 7.800781 -17.234375 8.703125 -17.328125 9.515625 -17.328125 C 11.179688 -17.328125 12.550781 -17.070312 13.625 -16.5625 C 14.707031 -16.050781 15.515625 -15.28125 16.046875 -14.25 C 16.578125 -13.226562 16.84375 -11.90625 16.84375 -10.28125 L 16.84375 -1.9375 C 16.84375 -1.226562 16.664062 -0.679688 16.3125 -0.296875 C 15.96875 0.0859375 15.472656 0.28125 14.828125 0.28125 C 14.179688 0.28125 13.675781 0.0859375 13.3125 -0.296875 C 12.957031 -0.679688 12.78125 -1.226562 12.78125 -1.9375 L 12.78125 -3.609375 L 13.0625 -3.609375 C 12.894531 -2.796875 12.570312 -2.09375 12.09375 -1.5 C 11.625 -0.914062 11.03125 -0.460938 10.3125 -0.140625 C 9.59375 0.179688 8.769531 0.34375 7.84375 0.34375 Z M 7.84375 0.34375 "/></g></g></g><g fill="#000000" fill-opacity="1"><g transform="translate(378.445456, 43.859772)"><g><path d="M 10.03125 0.34375 C 8.53125 0.34375 7.273438 0.0859375 6.265625 -0.421875 C 5.265625 -0.929688 4.519531 -1.675781 4.03125 -2.65625 C 3.539062 -3.644531 3.296875 -4.867188 3.296875 -6.328125 L 3.296875 -13.71875 L 1.5 -13.71875 C 0.9375 -13.71875 0.503906 -13.863281 0.203125 -14.15625 C -0.0976562 -14.445312 -0.25 -14.847656 -0.25 -15.359375 C -0.25 -15.890625 -0.0976562 -16.289062 0.203125 -16.5625 C 0.503906 -16.84375 0.9375 -16.984375 1.5 -16.984375 L 3.296875 -16.984375 L 3.296875 -20.140625 C 3.296875 -20.859375 3.488281 -21.398438 3.875 -21.765625 C 4.257812 -22.140625 4.796875 -22.328125 5.484375 -22.328125 C 6.179688 -22.328125 6.710938 -22.140625 7.078125 -21.765625 C 7.453125 -21.398438 7.640625 -20.859375 7.640625 -20.140625 L 7.640625 -16.984375 L 11.328125 -16.984375 C 11.878906 -16.984375 12.304688 -16.84375 12.609375 -16.5625 C 12.910156 -16.289062 13.0625 -15.890625 13.0625 -15.359375 C 13.0625 -14.847656 12.910156 -14.445312 12.609375 -14.15625 C 12.304688 -13.863281 11.878906 -13.71875 11.328125 -13.71875 L 7.640625 -13.71875 L 7.640625 -6.5625 C 7.640625 -5.445312 7.878906 -4.613281 8.359375 -4.0625 C 8.847656 -3.507812 9.640625 -3.234375 10.734375 -3.234375 C 11.128906 -3.234375 11.472656 -3.265625 11.765625 -3.328125 C 12.066406 -3.398438 12.335938 -3.445312 12.578125 -3.46875 C 12.847656 -3.5 13.078125 -3.414062 13.265625 -3.21875 C 13.453125 -3.019531 13.546875 -2.617188 13.546875 -2.015625 C 13.546875 -1.546875 13.46875 -1.132812 13.3125 -0.78125 C 13.164062 -0.425781 12.894531 -0.175781 12.5 -0.03125 C 12.195312 0.0625 11.800781 0.144531 11.3125 0.21875 C 10.832031 0.300781 10.40625 0.34375 10.03125 0.34375 Z M 10.03125 0.34375 "/></g></g></g><g fill="#000000" fill-opacity="1"><g transform="translate(392.408894, 43.859772)"><g><path d="M 4.34375 0.171875 C 3.550781 0.171875 2.914062 -0.0664062 2.4375 -0.546875 C 1.96875 -1.035156 1.734375 -1.664062 1.734375 -2.4375 C 1.734375 -3.175781 1.96875 -3.78125 2.4375 -4.25 C 2.914062 -4.726562 3.550781 -4.96875 4.34375 -4.96875 C 5.15625 -4.96875 5.785156 -4.726562 6.234375 -4.25 C 6.679688 -3.78125 6.90625 -3.175781 6.90625 -2.4375 C 6.90625 -1.664062 6.679688 -1.035156 6.234375 -0.546875 C 5.785156 -0.0664062 5.15625 0.171875 4.34375 0.171875 Z M 4.34375 0.171875 "/></g></g></g></svg>