<svg xmlns="http://www.w3.org/2000/svg" xmlns:xlink="http://www.w3.org/1999/xlink" width="560" zoomAndPan="magnify" viewBox="0 0 420 67.499998" height="90" preserveAspectRatio="xMidYMid meet" version="1.0"><defs><g/><clipPath id="52a44a5a2e"><path d="M 1.574219 0 L 418.125 0 L 418.125 66.863281 L 1.574219 66.863281 Z M 1.574219 0 " clip-rule="nonzero"/></clipPath></defs><g clip-path="url(#52a44a5a2e)"><path stroke-linecap="butt" transform="matrix(0.744485, 0, 0, 0.744485, 1.573902, 0)" fill="none" stroke-linejoin="miter" d="M 0.000425837 0 L 559.515589 0 L 559.515589 89.811426 L 0.000425837 89.811426 Z M 0.000425837 0 " stroke="#000000" stroke-width="12" stroke-opacity="1" stroke-miterlimit="4"/></g><g fill="#000000" fill-opacity="1"><g transform="translate(133.929561, 43.859772)"><g><path d="M 5.03125 0 C 4.269531 0 3.6875 -0.203125 3.28125 -0.609375 C 2.875 -1.015625 2.671875 -1.597656 2.671875 -2.359375 L 2.671875 -22.125 C 2.671875 -22.882812 2.875 -23.46875 3.28125 -23.875 C 3.6875 -24.28125 4.269531 -24.484375 5.03125 -24.484375 L 13.375 -24.484375 C 15.082031 -24.484375 16.539062 -24.226562 17.75 -23.71875 C 18.957031 -23.207031 19.878906 -22.476562 20.515625 -21.53125 C 21.148438 -20.582031 21.46875 -19.445312 21.46875 -18.125 C 21.46875 -16.644531 21.035156 -15.394531 20.171875 -14.375 C 19.316406 -13.363281 18.148438 -12.679688 16.671875 -12.328125 L 16.671875 -12.859375 C 18.390625 -12.597656 19.722656 -11.945312 20.671875 -10.90625 C 21.617188 -9.863281 22.09375 -8.507812 22.09375 -6.84375 C 22.09375 -4.664062 21.359375 -2.976562 19.890625 -1.78125 C 18.421875 -0.59375 16.375 0 13.75 0 Z M 6.953125 -3.375 L 13.203125 -3.375 C 14.773438 -3.375 15.929688 -3.675781 16.671875 -4.28125 C 17.410156 -4.894531 17.78125 -5.816406 17.78125 -7.046875 C 17.78125 -8.296875 17.410156 -9.222656 16.671875 -9.828125 C 15.929688 -10.429688 14.773438 -10.734375 13.203125 -10.734375 L 6.953125 -10.734375 Z M 6.953125 -14.109375 L 12.609375 -14.109375 C 14.140625 -14.109375 15.28125 -14.398438 16.03125 -14.984375 C 16.78125 -15.578125 17.15625 -16.453125 17.15625 -17.609375 C 17.15625 -18.765625 16.78125 -19.640625 16.03125 -20.234375 C 15.28125 -20.828125 14.140625 -21.125 12.609375 -21.125 L 6.953125 -21.125 Z M 6.953125 -14.109375 "/></g></g></g><g fill="#000000" fill-opacity="1"><g transform="translate(157.82711, 43.859772)"><g><path d="M 8.40625 0.34375 C 6.988281 0.34375 5.816406 0.0820312 4.890625 -0.4375 C 3.972656 -0.957031 3.285156 -1.738281 2.828125 -2.78125 C 2.378906 -3.820312 2.15625 -5.117188 2.15625 -6.671875 L 2.15625 -15.078125 C 2.15625 -15.816406 2.335938 -16.363281 2.703125 -16.71875 C 3.078125 -17.082031 3.613281 -17.265625 4.3125 -17.265625 C 5 -17.265625 5.535156 -17.082031 5.921875 -16.71875 C 6.304688 -16.363281 6.5 -15.816406 6.5 -15.078125 L 6.5 -6.59375 C 6.5 -5.394531 6.738281 -4.503906 7.21875 -3.921875 C 7.707031 -3.347656 8.484375 -3.0625 9.546875 -3.0625 C 10.703125 -3.0625 11.648438 -3.457031 12.390625 -4.25 C 13.140625 -5.050781 13.515625 -6.113281 13.515625 -7.4375 L 13.515625 -15.078125 C 13.515625 -15.816406 13.695312 -16.363281 14.0625 -16.71875 C 14.4375 -17.082031 14.972656 -17.265625 15.671875 -17.265625 C 16.359375 -17.265625 16.894531 -17.082031 17.28125 -16.71875 C 17.664062 -16.363281 17.859375 -15.816406 17.859375 -15.078125 L 17.859375 -1.9375 C 17.859375 -0.457031 17.148438 0.28125 15.734375 0.28125 C 15.066406 0.28125 14.546875 0.0859375 14.171875 -0.296875 C 13.796875 -0.679688 13.609375 -1.226562 13.609375 -1.9375 L 13.609375 -4.578125 L 14.109375 -3.546875 C 13.617188 -2.296875 12.878906 -1.332031 11.890625 -0.65625 C 10.910156 0.0078125 9.75 0.34375 8.40625 0.34375 Z M 8.40625 0.34375 "/></g></g></g><g fill="#000000" fill-opacity="1"><g transform="translate(177.93856, 43.859772)"><g/></g></g><g fill="#000000" fill-opacity="1"><g transform="translate(187.351693, 43.859772)"><g><path d="M 5.03125 0 C 4.269531 0 3.6875 -0.203125 3.28125 -0.609375 C 2.875 -1.015625 2.671875 -1.597656 2.671875 -2.359375 L 2.671875 -22.125 C 2.671875 -22.882812 2.875 -23.46875 3.28125 -23.875 C 3.6875 -24.28125 4.269531 -24.484375 5.03125 -24.484375 L 11.78125 -24.484375 C 15.875 -24.484375 19.035156 -23.429688 21.265625 -21.328125 C 23.503906 -19.222656 24.625 -16.203125 24.625 -12.265625 C 24.625 -10.296875 24.335938 -8.550781 23.765625 -7.03125 C 23.203125 -5.519531 22.367188 -4.238281 21.265625 -3.1875 C 20.171875 -2.144531 18.828125 -1.351562 17.234375 -0.8125 C 15.648438 -0.269531 13.832031 0 11.78125 0 Z M 7.125 -3.6875 L 11.5 -3.6875 C 12.9375 -3.6875 14.179688 -3.863281 15.234375 -4.21875 C 16.285156 -4.582031 17.164062 -5.113281 17.875 -5.8125 C 18.582031 -6.519531 19.109375 -7.410156 19.453125 -8.484375 C 19.796875 -9.566406 19.96875 -10.828125 19.96875 -12.265625 C 19.96875 -15.128906 19.257812 -17.269531 17.84375 -18.6875 C 16.4375 -20.101562 14.320312 -20.8125 11.5 -20.8125 L 7.125 -20.8125 Z M 7.125 -3.6875 "/></g></g></g><g fill="#000000" fill-opacity="1"><g transform="translate(213.819611, 43.859772)"><g><path d="M 7.84375 0.34375 C 6.625 0.34375 5.53125 0.109375 4.5625 -0.359375 C 3.601562 -0.835938 2.851562 -1.484375 2.3125 -2.296875 C 1.769531 -3.109375 1.5 -4.019531 1.5 -5.03125 C 1.5 -6.28125 1.820312 -7.269531 2.46875 -8 C 3.113281 -8.726562 4.164062 -9.253906 5.625 -9.578125 C 7.082031 -9.910156 9.039062 -10.078125 11.5 -10.078125 L 13.234375 -10.078125 L 13.234375 -7.578125 L 11.53125 -7.578125 C 10.09375 -7.578125 8.945312 -7.503906 8.09375 -7.359375 C 7.238281 -7.222656 6.628906 -6.984375 6.265625 -6.640625 C 5.910156 -6.304688 5.734375 -5.84375 5.734375 -5.25 C 5.734375 -4.476562 6 -3.847656 6.53125 -3.359375 C 7.0625 -2.878906 7.800781 -2.640625 8.75 -2.640625 C 9.519531 -2.640625 10.195312 -2.816406 10.78125 -3.171875 C 11.375 -3.535156 11.84375 -4.03125 12.1875 -4.65625 C 12.539062 -5.28125 12.71875 -6 12.71875 -6.8125 L 12.71875 -10.796875 C 12.71875 -11.960938 12.460938 -12.796875 11.953125 -13.296875 C 11.441406 -13.804688 10.582031 -14.0625 9.375 -14.0625 C 8.707031 -14.0625 7.984375 -13.976562 7.203125 -13.8125 C 6.429688 -13.65625 5.617188 -13.378906 4.765625 -12.984375 C 4.316406 -12.773438 3.925781 -12.71875 3.59375 -12.8125 C 3.257812 -12.90625 3 -13.097656 2.8125 -13.390625 C 2.625 -13.679688 2.53125 -14 2.53125 -14.34375 C 2.53125 -14.6875 2.625 -15.023438 2.8125 -15.359375 C 3 -15.703125 3.3125 -15.953125 3.75 -16.109375 C 4.8125 -16.554688 5.832031 -16.867188 6.8125 -17.046875 C 7.800781 -17.234375 8.703125 -17.328125 9.515625 -17.328125 C 11.179688 -17.328125 12.550781 -17.070312 13.625 -16.5625 C 14.707031 -16.050781 15.515625 -15.28125 16.046875 -14.25 C 16.578125 -13.226562 16.84375 -11.90625 16.84375 -10.28125 L 16.84375 -1.9375 C 16.84375 -1.226562 16.664062 -0.679688 16.3125 -0.296875 C 15.96875 0.0859375 15.472656 0.28125 14.828125 0.28125 C 14.179688 0.28125 13.675781 0.0859375 13.3125 -0.296875 C 12.957031 -0.679688 12.78125 -1.226562 12.78125 -1.9375 L 12.78125 -3.609375 L 13.0625 -3.609375 C 12.894531 -2.796875 12.570312 -2.09375 12.09375 -1.5 C 11.625 -0.914062 11.03125 -0.460938 10.3125 -0.140625 C 9.59375 0.179688 8.769531 0.34375 7.84375 0.34375 Z M 7.84375 0.34375 "/></g></g></g><g fill="#000000" fill-opacity="1"><g transform="translate(232.819548, 43.859772)"><g><path d="M 4.484375 0.28125 C 3.765625 0.28125 3.210938 0.0859375 2.828125 -0.296875 C 2.441406 -0.679688 2.25 -1.226562 2.25 -1.9375 L 2.25 -15.078125 C 2.25 -15.796875 2.4375 -16.335938 2.8125 -16.703125 C 3.1875 -17.078125 3.707031 -17.265625 4.375 -17.265625 C 5.050781 -17.265625 5.570312 -17.078125 5.9375 -16.703125 C 6.3125 -16.335938 6.5 -15.796875 6.5 -15.078125 L 6.5 -12.890625 L 6.140625 -12.890625 C 6.472656 -14.273438 7.113281 -15.328125 8.0625 -16.046875 C 9.007812 -16.765625 10.269531 -17.191406 11.84375 -17.328125 C 12.332031 -17.378906 12.71875 -17.257812 13 -16.96875 C 13.289062 -16.675781 13.460938 -16.226562 13.515625 -15.625 C 13.554688 -15.050781 13.421875 -14.582031 13.109375 -14.21875 C 12.796875 -13.863281 12.328125 -13.648438 11.703125 -13.578125 L 10.9375 -13.515625 C 9.53125 -13.367188 8.46875 -12.929688 7.75 -12.203125 C 7.03125 -11.472656 6.671875 -10.453125 6.671875 -9.140625 L 6.671875 -1.9375 C 6.671875 -1.226562 6.484375 -0.679688 6.109375 -0.296875 C 5.742188 0.0859375 5.203125 0.28125 4.484375 0.28125 Z M 4.484375 0.28125 "/></g></g></g><g fill="#000000" fill-opacity="1"><g transform="translate(246.435588, 43.859772)"><g><path d="M 4.484375 0.28125 C 3.785156 0.28125 3.25 0.0859375 2.875 -0.296875 C 2.507812 -0.679688 2.328125 -1.226562 2.328125 -1.9375 L 2.328125 -15.078125 C 2.328125 -15.796875 2.507812 -16.335938 2.875 -16.703125 C 3.25 -17.078125 3.773438 -17.265625 4.453125 -17.265625 C 5.117188 -17.265625 5.632812 -17.078125 6 -16.703125 C 6.375 -16.335938 6.5625 -15.796875 6.5625 -15.078125 L 6.5625 -12.546875 L 6.1875 -13.578125 C 6.644531 -14.734375 7.359375 -15.644531 8.328125 -16.3125 C 9.304688 -16.988281 10.46875 -17.328125 11.8125 -17.328125 C 13.175781 -17.328125 14.296875 -17.003906 15.171875 -16.359375 C 16.054688 -15.710938 16.671875 -14.71875 17.015625 -13.375 L 16.53125 -13.375 C 17 -14.601562 17.765625 -15.566406 18.828125 -16.265625 C 19.890625 -16.972656 21.117188 -17.328125 22.515625 -17.328125 C 23.804688 -17.328125 24.875 -17.070312 25.71875 -16.5625 C 26.5625 -16.050781 27.191406 -15.28125 27.609375 -14.25 C 28.023438 -13.226562 28.234375 -11.925781 28.234375 -10.34375 L 28.234375 -1.9375 C 28.234375 -1.226562 28.039062 -0.679688 27.65625 -0.296875 C 27.28125 0.0859375 26.742188 0.28125 26.046875 0.28125 C 25.359375 0.28125 24.828125 0.0859375 24.453125 -0.296875 C 24.078125 -0.679688 23.890625 -1.226562 23.890625 -1.9375 L 23.890625 -10.171875 C 23.890625 -11.472656 23.675781 -12.421875 23.25 -13.015625 C 22.820312 -13.617188 22.097656 -13.921875 21.078125 -13.921875 C 19.941406 -13.921875 19.050781 -13.519531 18.40625 -12.71875 C 17.757812 -11.925781 17.4375 -10.820312 17.4375 -9.40625 L 17.4375 -1.9375 C 17.4375 -1.226562 17.25 -0.679688 16.875 -0.296875 C 16.507812 0.0859375 15.976562 0.28125 15.28125 0.28125 C 14.582031 0.28125 14.039062 0.0859375 13.65625 -0.296875 C 13.28125 -0.679688 13.09375 -1.226562 13.09375 -1.9375 L 13.09375 -10.171875 C 13.09375 -11.472656 12.878906 -12.421875 12.453125 -13.015625 C 12.023438 -13.617188 11.3125 -13.921875 10.3125 -13.921875 C 9.175781 -13.921875 8.285156 -13.519531 7.640625 -12.71875 C 6.992188 -11.925781 6.671875 -10.820312 6.671875 -9.40625 L 6.671875 -1.9375 C 6.671875 -0.457031 5.941406 0.28125 4.484375 0.28125 Z M 4.484375 0.28125 "/></g></g></g><g fill="#000000" fill-opacity="1"><g transform="translate(276.898014, 43.859772)"><g><path d="M 4.40625 0.25 C 3.71875 0.25 3.1875 0.0390625 2.8125 -0.375 C 2.4375 -0.789062 2.25 -1.375 2.25 -2.125 L 2.25 -14.859375 C 2.25 -15.628906 2.4375 -16.21875 2.8125 -16.625 C 3.1875 -17.03125 3.71875 -17.234375 4.40625 -17.234375 C 5.101562 -17.234375 5.640625 -17.03125 6.015625 -16.625 C 6.398438 -16.21875 6.59375 -15.628906 6.59375 -14.859375 L 6.59375 -2.125 C 6.59375 -1.375 6.40625 -0.789062 6.03125 -0.375 C 5.664062 0.0390625 5.125 0.25 4.40625 0.25 Z M 4.40625 -20.453125 C 3.601562 -20.453125 2.972656 -20.65625 2.515625 -21.0625 C 2.066406 -21.46875 1.84375 -22.03125 1.84375 -22.75 C 1.84375 -23.488281 2.066406 -24.054688 2.515625 -24.453125 C 2.972656 -24.847656 3.601562 -25.046875 4.40625 -25.046875 C 5.238281 -25.046875 5.875 -24.847656 6.3125 -24.453125 C 6.757812 -24.054688 6.984375 -23.488281 6.984375 -22.75 C 6.984375 -22.03125 6.757812 -21.46875 6.3125 -21.0625 C 5.875 -20.65625 5.238281 -20.453125 4.40625 -20.453125 Z M 4.40625 -20.453125 "/></g></g></g></svg>