<svg xmlns="http://www.w3.org/2000/svg" xmlns:xlink="http://www.w3.org/1999/xlink" width="560" zoomAndPan="magnify" viewBox="0 0 420 67.499998" height="90" preserveAspectRatio="xMidYMid meet" version="1.0"><defs><g/><clipPath id="8437f63adb"><path d="M 1.574219 0 L 418.125 0 L 418.125 66.863281 L 1.574219 66.863281 Z M 1.574219 0 " clip-rule="nonzero"/></clipPath></defs><g clip-path="url(#8437f63adb)"><path stroke-linecap="butt" transform="matrix(0.744485, 0, 0, 0.744485, 1.573902, 0)" fill="none" stroke-linejoin="miter" d="M 0.000425837 0 L 559.515589 0 L 559.515589 89.811426 L 0.000425837 89.811426 Z M 0.000425837 0 " stroke="#000000" stroke-width="12" stroke-opacity="1" stroke-miterlimit="4"/></g><g fill="#000000" fill-opacity="1"><g transform="translate(119.668015, 43.859772)"><g><path d="M 4.890625 0.28125 C 4.179688 0.28125 3.632812 0.078125 3.25 -0.328125 C 2.863281 -0.734375 2.671875 -1.296875 2.671875 -2.015625 L 2.671875 -22.234375 C 2.671875 -22.972656 2.867188 -23.53125 3.265625 -23.90625 C 3.660156 -24.289062 4.21875 -24.484375 4.9375 -24.484375 L 13.296875 -24.484375 C 15.984375 -24.484375 18.054688 -23.8125 19.515625 -22.46875 C 20.972656 -21.125 21.703125 -19.25 21.703125 -16.84375 C 21.703125 -14.4375 20.972656 -12.554688 19.515625 -11.203125 C 18.054688 -9.847656 15.984375 -9.171875 13.296875 -9.171875 L 7.125 -9.171875 L 7.125 -2.015625 C 7.125 -1.296875 6.9375 -0.734375 6.5625 -0.328125 C 6.195312 0.078125 5.640625 0.28125 4.890625 0.28125 Z M 7.125 -12.671875 L 12.609375 -12.671875 C 14.179688 -12.671875 15.375 -13.023438 16.1875 -13.734375 C 17 -14.441406 17.40625 -15.476562 17.40625 -16.84375 C 17.40625 -18.207031 17 -19.238281 16.1875 -19.9375 C 15.375 -20.632812 14.179688 -20.984375 12.609375 -20.984375 L 7.125 -20.984375 Z M 7.125 -12.671875 "/></g></g></g><g fill="#000000" fill-opacity="1"><g transform="translate(141.51614, 43.859772)"><g><path d="M 7.84375 0.34375 C 6.625 0.34375 5.53125 0.109375 4.5625 -0.359375 C 3.601562 -0.835938 2.851562 -1.484375 2.3125 -2.296875 C 1.769531 -3.109375 1.5 -4.019531 1.5 -5.03125 C 1.5 -6.28125 1.820312 -7.269531 2.46875 -8 C 3.113281 -8.726562 4.164062 -9.253906 5.625 -9.578125 C 7.082031 -9.910156 9.039062 -10.078125 11.5 -10.078125 L 13.234375 -10.078125 L 13.234375 -7.578125 L 11.53125 -7.578125 C 10.09375 -7.578125 8.945312 -7.503906 8.09375 -7.359375 C 7.238281 -7.222656 6.628906 -6.984375 6.265625 -6.640625 C 5.910156 -6.304688 5.734375 -5.84375 5.734375 -5.25 C 5.734375 -4.476562 6 -3.847656 6.53125 -3.359375 C 7.0625 -2.878906 7.800781 -2.640625 8.75 -2.640625 C 9.519531 -2.640625 10.195312 -2.816406 10.78125 -3.171875 C 11.375 -3.535156 11.84375 -4.03125 12.1875 -4.65625 C 12.539062 -5.28125 12.71875 -6 12.71875 -6.8125 L 12.71875 -10.796875 C 12.71875 -11.960938 12.460938 -12.796875 11.953125 -13.296875 C 11.441406 -13.804688 10.582031 -14.0625 9.375 -14.0625 C 8.707031 -14.0625 7.984375 -13.976562 7.203125 -13.8125 C 6.429688 -13.65625 5.617188 -13.378906 4.765625 -12.984375 C 4.316406 -12.773438 3.925781 -12.71875 3.59375 -12.8125 C 3.257812 -12.90625 3 -13.097656 2.8125 -13.390625 C 2.625 -13.679688 2.53125 -14 2.53125 -14.34375 C 2.53125 -14.6875 2.625 -15.023438 2.8125 -15.359375 C 3 -15.703125 3.3125 -15.953125 3.75 -16.109375 C 4.8125 -16.554688 5.832031 -16.867188 6.8125 -17.046875 C 7.800781 -17.234375 8.703125 -17.328125 9.515625 -17.328125 C 11.179688 -17.328125 12.550781 -17.070312 13.625 -16.5625 C 14.707031 -16.050781 15.515625 -15.28125 16.046875 -14.25 C 16.578125 -13.226562 16.84375 -11.90625 16.84375 -10.28125 L 16.84375 -1.9375 C 16.84375 -1.226562 16.664062 -0.679688 16.3125 -0.296875 C 15.96875 0.0859375 15.472656 0.28125 14.828125 0.28125 C 14.179688 0.28125 13.675781 0.0859375 13.3125 -0.296875 C 12.957031 -0.679688 12.78125 -1.226562 12.78125 -1.9375 L 12.78125 -3.609375 L 13.0625 -3.609375 C 12.894531 -2.796875 12.570312 -2.09375 12.09375 -1.5 C 11.625 -0.914062 11.03125 -0.460938 10.3125 -0.140625 C 9.59375 0.179688 8.769531 0.34375 7.84375 0.34375 Z M 7.84375 0.34375 "/></g></g></g><g fill="#000000" fill-opacity="1"><g transform="translate(160.516077, 43.859772)"><g><path d="M 4.40625 0.28125 C 3.71875 0.28125 3.1875 0.0859375 2.8125 -0.296875 C 2.4375 -0.679688 2.25 -1.226562 2.25 -1.9375 L 2.25 -22.578125 C 2.25 -23.296875 2.4375 -23.835938 2.8125 -24.203125 C 3.1875 -24.578125 3.71875 -24.765625 4.40625 -24.765625 C 5.101562 -24.765625 5.640625 -24.578125 6.015625 -24.203125 C 6.398438 -23.835938 6.59375 -23.296875 6.59375 -22.578125 L 6.59375 -9.765625 L 6.671875 -9.765625 L 12.40625 -15.796875 C 12.863281 -16.265625 13.265625 -16.625 13.609375 -16.875 C 13.960938 -17.132812 14.441406 -17.265625 15.046875 -17.265625 C 15.640625 -17.265625 16.09375 -17.109375 16.40625 -16.796875 C 16.71875 -16.484375 16.875 -16.101562 16.875 -15.65625 C 16.875 -15.21875 16.664062 -14.78125 16.25 -14.34375 L 10.21875 -7.953125 L 10.21875 -9.765625 L 16.84375 -2.609375 C 17.257812 -2.160156 17.453125 -1.710938 17.421875 -1.265625 C 17.390625 -0.816406 17.195312 -0.445312 16.84375 -0.15625 C 16.5 0.132812 16.0625 0.28125 15.53125 0.28125 C 14.875 0.28125 14.351562 0.15625 13.96875 -0.09375 C 13.59375 -0.351562 13.175781 -0.738281 12.71875 -1.25 L 6.671875 -7.578125 L 6.59375 -7.578125 L 6.59375 -1.9375 C 6.59375 -0.457031 5.863281 0.28125 4.40625 0.28125 Z M 4.40625 0.28125 "/></g></g></g><g fill="#000000" fill-opacity="1"><g transform="translate(179.133933, 43.859772)"><g/></g></g><g fill="#000000" fill-opacity="1"><g transform="translate(188.547066, 43.859772)"><g><path d="M 4.890625 0.28125 C 4.179688 0.28125 3.632812 0.078125 3.25 -0.328125 C 2.863281 -0.734375 2.671875 -1.296875 2.671875 -2.015625 L 2.671875 -22.234375 C 2.671875 -22.972656 2.867188 -23.53125 3.265625 -23.90625 C 3.660156 -24.289062 4.21875 -24.484375 4.9375 -24.484375 L 13.296875 -24.484375 C 15.984375 -24.484375 18.054688 -23.835938 19.515625 -22.546875 C 20.972656 -21.265625 21.703125 -19.46875 21.703125 -17.15625 C 21.703125 -15.65625 21.375 -14.359375 20.71875 -13.265625 C 20.0625 -12.179688 19.109375 -11.347656 17.859375 -10.765625 C 16.609375 -10.191406 15.085938 -9.90625 13.296875 -9.90625 L 13.609375 -10.421875 L 14.765625 -10.421875 C 15.710938 -10.421875 16.539062 -10.1875 17.25 -9.71875 C 17.957031 -9.257812 18.578125 -8.53125 19.109375 -7.53125 L 21.703125 -2.703125 C 21.984375 -2.222656 22.113281 -1.75 22.09375 -1.28125 C 22.070312 -0.820312 21.894531 -0.445312 21.5625 -0.15625 C 21.238281 0.132812 20.765625 0.28125 20.140625 0.28125 C 19.515625 0.28125 19.003906 0.148438 18.609375 -0.109375 C 18.222656 -0.378906 17.878906 -0.796875 17.578125 -1.359375 L 14.0625 -7.8125 C 13.644531 -8.601562 13.148438 -9.128906 12.578125 -9.390625 C 12.015625 -9.660156 11.296875 -9.796875 10.421875 -9.796875 L 7.125 -9.796875 L 7.125 -2.015625 C 7.125 -1.296875 6.9375 -0.734375 6.5625 -0.328125 C 6.195312 0.078125 5.640625 0.28125 4.890625 0.28125 Z M 7.125 -13.09375 L 12.546875 -13.09375 C 14.140625 -13.09375 15.347656 -13.421875 16.171875 -14.078125 C 16.992188 -14.742188 17.40625 -15.734375 17.40625 -17.046875 C 17.40625 -18.347656 16.992188 -19.328125 16.171875 -19.984375 C 15.347656 -20.648438 14.140625 -20.984375 12.546875 -20.984375 L 7.125 -20.984375 Z M 7.125 -13.09375 "/></g></g></g><g fill="#000000" fill-opacity="1"><g transform="translate(211.923546, 43.859772)"><g><path d="M 10 0.34375 C 8.238281 0.34375 6.707031 -0.015625 5.40625 -0.734375 C 4.113281 -1.453125 3.109375 -2.472656 2.390625 -3.796875 C 1.671875 -5.128906 1.3125 -6.703125 1.3125 -8.515625 C 1.3125 -9.878906 1.515625 -11.097656 1.921875 -12.171875 C 2.328125 -13.253906 2.910156 -14.179688 3.671875 -14.953125 C 4.441406 -15.722656 5.359375 -16.3125 6.421875 -16.71875 C 7.492188 -17.125 8.6875 -17.328125 10 -17.328125 C 11.757812 -17.328125 13.285156 -16.96875 14.578125 -16.25 C 15.878906 -15.53125 16.890625 -14.507812 17.609375 -13.1875 C 18.328125 -11.875 18.6875 -10.316406 18.6875 -8.515625 C 18.6875 -7.140625 18.484375 -5.910156 18.078125 -4.828125 C 17.671875 -3.742188 17.082031 -2.8125 16.3125 -2.03125 C 15.550781 -1.257812 14.640625 -0.671875 13.578125 -0.265625 C 12.515625 0.140625 11.320312 0.34375 10 0.34375 Z M 10 -2.953125 C 10.851562 -2.953125 11.601562 -3.160156 12.25 -3.578125 C 12.90625 -3.992188 13.410156 -4.613281 13.765625 -5.4375 C 14.128906 -6.257812 14.3125 -7.285156 14.3125 -8.515625 C 14.3125 -10.359375 13.914062 -11.738281 13.125 -12.65625 C 12.34375 -13.570312 11.300781 -14.03125 10 -14.03125 C 9.144531 -14.03125 8.390625 -13.828125 7.734375 -13.421875 C 7.085938 -13.015625 6.585938 -12.398438 6.234375 -11.578125 C 5.878906 -10.753906 5.703125 -9.734375 5.703125 -8.515625 C 5.703125 -6.679688 6.09375 -5.296875 6.875 -4.359375 C 7.664062 -3.421875 8.707031 -2.953125 10 -2.953125 Z M 10 -2.953125 "/></g></g></g><g fill="#000000" fill-opacity="1"><g transform="translate(231.583416, 43.859772)"><g><path d="M 8.828125 0.28125 C 8.242188 0.28125 7.742188 0.132812 7.328125 -0.15625 C 6.910156 -0.445312 6.578125 -0.90625 6.328125 -1.53125 L 1.28125 -14.375 C 1.070312 -14.9375 1.007812 -15.429688 1.09375 -15.859375 C 1.175781 -16.285156 1.390625 -16.625 1.734375 -16.875 C 2.078125 -17.132812 2.539062 -17.265625 3.125 -17.265625 C 3.632812 -17.265625 4.050781 -17.140625 4.375 -16.890625 C 4.695312 -16.648438 4.972656 -16.195312 5.203125 -15.53125 L 9.40625 -3.953125 L 8.609375 -3.953125 L 12.953125 -15.796875 C 13.140625 -16.304688 13.390625 -16.675781 13.703125 -16.90625 C 14.015625 -17.144531 14.425781 -17.265625 14.9375 -17.265625 C 15.445312 -17.265625 15.863281 -17.140625 16.1875 -16.890625 C 16.507812 -16.648438 16.753906 -16.285156 16.921875 -15.796875 L 21.1875 -3.953125 L 20.453125 -3.953125 L 24.703125 -15.625 C 24.929688 -16.25 25.222656 -16.675781 25.578125 -16.90625 C 25.941406 -17.144531 26.34375 -17.265625 26.78125 -17.265625 C 27.332031 -17.265625 27.757812 -17.125 28.0625 -16.84375 C 28.363281 -16.5625 28.535156 -16.207031 28.578125 -15.78125 C 28.628906 -15.351562 28.550781 -14.882812 28.34375 -14.375 L 23.34375 -1.53125 C 23.113281 -0.925781 22.78125 -0.472656 22.34375 -0.171875 C 21.914062 0.128906 21.414062 0.28125 20.84375 0.28125 C 20.257812 0.28125 19.753906 0.128906 19.328125 -0.171875 C 18.898438 -0.472656 18.570312 -0.925781 18.34375 -1.53125 L 13.796875 -13.578125 L 15.765625 -13.578125 L 11.328125 -1.5625 C 11.085938 -0.9375 10.757812 -0.472656 10.34375 -0.171875 C 9.925781 0.128906 9.421875 0.28125 8.828125 0.28125 Z M 8.828125 0.28125 "/></g></g></g><g fill="#000000" fill-opacity="1"><g transform="translate(260.864828, 43.859772)"><g><path d="M 10.625 0.34375 C 8.707031 0.34375 7.050781 -0.015625 5.65625 -0.734375 C 4.269531 -1.453125 3.195312 -2.46875 2.4375 -3.78125 C 1.6875 -5.101562 1.3125 -6.664062 1.3125 -8.46875 C 1.3125 -10.226562 1.675781 -11.769531 2.40625 -13.09375 C 3.144531 -14.414062 4.15625 -15.453125 5.4375 -16.203125 C 6.71875 -16.953125 8.179688 -17.328125 9.828125 -17.328125 C 11.035156 -17.328125 12.117188 -17.128906 13.078125 -16.734375 C 14.035156 -16.347656 14.851562 -15.78125 15.53125 -15.03125 C 16.21875 -14.289062 16.738281 -13.394531 17.09375 -12.34375 C 17.457031 -11.289062 17.640625 -10.101562 17.640625 -8.78125 C 17.640625 -8.363281 17.492188 -8.046875 17.203125 -7.828125 C 16.921875 -7.609375 16.515625 -7.5 15.984375 -7.5 L 4.828125 -7.5 L 4.828125 -10 L 14.59375 -10 L 14.03125 -9.484375 C 14.03125 -10.546875 13.875 -11.4375 13.5625 -12.15625 C 13.25 -12.875 12.796875 -13.421875 12.203125 -13.796875 C 11.617188 -14.179688 10.882812 -14.375 10 -14.375 C 9.03125 -14.375 8.203125 -14.148438 7.515625 -13.703125 C 6.835938 -13.253906 6.316406 -12.617188 5.953125 -11.796875 C 5.597656 -10.972656 5.421875 -9.992188 5.421875 -8.859375 L 5.421875 -8.609375 C 5.421875 -6.710938 5.863281 -5.296875 6.75 -4.359375 C 7.644531 -3.421875 8.960938 -2.953125 10.703125 -2.953125 C 11.296875 -2.953125 11.96875 -3.023438 12.71875 -3.171875 C 13.476562 -3.328125 14.191406 -3.585938 14.859375 -3.953125 C 15.347656 -4.234375 15.773438 -4.351562 16.140625 -4.3125 C 16.515625 -4.28125 16.8125 -4.148438 17.03125 -3.921875 C 17.257812 -3.691406 17.394531 -3.410156 17.4375 -3.078125 C 17.476562 -2.742188 17.410156 -2.398438 17.234375 -2.046875 C 17.066406 -1.703125 16.773438 -1.398438 16.359375 -1.140625 C 15.546875 -0.628906 14.613281 -0.253906 13.5625 -0.015625 C 12.507812 0.222656 11.53125 0.34375 10.625 0.34375 Z M 10.625 0.34375 "/></g></g></g><g fill="#000000" fill-opacity="1"><g transform="translate(279.691094, 43.859772)"><g><path d="M 4.40625 0.28125 C 3.71875 0.28125 3.1875 0.0859375 2.8125 -0.296875 C 2.4375 -0.679688 2.25 -1.226562 2.25 -1.9375 L 2.25 -15.078125 C 2.25 -15.796875 2.4375 -16.335938 2.8125 -16.703125 C 3.1875 -17.078125 3.707031 -17.265625 4.375 -17.265625 C 5.050781 -17.265625 5.570312 -17.078125 5.9375 -16.703125 C 6.3125 -16.335938 6.5 -15.796875 6.5 -15.078125 L 6.5 -12.71875 L 6.109375 -13.578125 C 6.617188 -14.804688 7.410156 -15.738281 8.484375 -16.375 C 9.566406 -17.007812 10.789062 -17.328125 12.15625 -17.328125 C 13.519531 -17.328125 14.640625 -17.070312 15.515625 -16.5625 C 16.398438 -16.050781 17.0625 -15.28125 17.5 -14.25 C 17.945312 -13.226562 18.171875 -11.925781 18.171875 -10.34375 L 18.171875 -1.9375 C 18.171875 -1.226562 17.984375 -0.679688 17.609375 -0.296875 C 17.234375 0.0859375 16.703125 0.28125 16.015625 0.28125 C 15.316406 0.28125 14.773438 0.0859375 14.390625 -0.296875 C 14.015625 -0.679688 13.828125 -1.226562 13.828125 -1.9375 L 13.828125 -10.140625 C 13.828125 -11.460938 13.578125 -12.421875 13.078125 -13.015625 C 12.578125 -13.617188 11.804688 -13.921875 10.765625 -13.921875 C 9.492188 -13.921875 8.476562 -13.519531 7.71875 -12.71875 C 6.96875 -11.925781 6.59375 -10.867188 6.59375 -9.546875 L 6.59375 -1.9375 C 6.59375 -0.457031 5.863281 0.28125 4.40625 0.28125 Z M 4.40625 0.28125 "/></g></g></g></svg>