<svg xmlns="http://www.w3.org/2000/svg" xmlns:xlink="http://www.w3.org/1999/xlink" width="560" zoomAndPan="magnify" viewBox="0 0 420 67.499998" height="90" preserveAspectRatio="xMidYMid meet" version="1.0"><defs><g/><clipPath id="39f058ad20"><path d="M 1.574219 0 L 418.125 0 L 418.125 66.863281 L 1.574219 66.863281 Z M 1.574219 0 " clip-rule="nonzero"/></clipPath></defs><g clip-path="url(#39f058ad20)"><path stroke-linecap="butt" transform="matrix(0.744485, 0, 0, 0.744485, 1.573902, 0)" fill="none" stroke-linejoin="miter" d="M 0.000425837 0 L 559.515589 0 L 559.515589 89.811426 L 0.000425837 89.811426 Z M 0.000425837 0 " stroke="#000000" stroke-width="12" stroke-opacity="1" stroke-miterlimit="4"/></g><g fill="#000000" fill-opacity="1"><g transform="translate(39.421488, 43.859772)"><g><path d="M 5.03125 0 C 4.269531 0 3.6875 -0.203125 3.28125 -0.609375 C 2.875 -1.015625 2.671875 -1.597656 2.671875 -2.359375 L 2.671875 -22.125 C 2.671875 -22.882812 2.875 -23.46875 3.28125 -23.875 C 3.6875 -24.28125 4.269531 -24.484375 5.03125 -24.484375 L 11.78125 -24.484375 C 15.875 -24.484375 19.035156 -23.429688 21.265625 -21.328125 C 23.503906 -19.222656 24.625 -16.203125 24.625 -12.265625 C 24.625 -10.296875 24.335938 -8.550781 23.765625 -7.03125 C 23.203125 -5.519531 22.367188 -4.238281 21.265625 -3.1875 C 20.171875 -2.144531 18.828125 -1.351562 17.234375 -0.8125 C 15.648438 -0.269531 13.832031 0 11.78125 0 Z M 7.125 -3.6875 L 11.5 -3.6875 C 12.9375 -3.6875 14.179688 -3.863281 15.234375 -4.21875 C 16.285156 -4.582031 17.164062 -5.113281 17.875 -5.8125 C 18.582031 -6.519531 19.109375 -7.410156 19.453125 -8.484375 C 19.796875 -9.566406 19.96875 -10.828125 19.96875 -12.265625 C 19.96875 -15.128906 19.257812 -17.269531 17.84375 -18.6875 C 16.4375 -20.101562 14.320312 -20.8125 11.5 -20.8125 L 7.125 -20.8125 Z M 7.125 -3.6875 "/></g></g></g><g fill="#000000" fill-opacity="1"><g transform="translate(65.889406, 43.859772)"><g><path d="M 8.40625 0.34375 C 6.988281 0.34375 5.816406 0.0820312 4.890625 -0.4375 C 3.972656 -0.957031 3.285156 -1.738281 2.828125 -2.78125 C 2.378906 -3.820312 2.15625 -5.117188 2.15625 -6.671875 L 2.15625 -15.078125 C 2.15625 -15.816406 2.335938 -16.363281 2.703125 -16.71875 C 3.078125 -17.082031 3.613281 -17.265625 4.3125 -17.265625 C 5 -17.265625 5.535156 -17.082031 5.921875 -16.71875 C 6.304688 -16.363281 6.5 -15.816406 6.5 -15.078125 L 6.5 -6.59375 C 6.5 -5.394531 6.738281 -4.503906 7.21875 -3.921875 C 7.707031 -3.347656 8.484375 -3.0625 9.546875 -3.0625 C 10.703125 -3.0625 11.648438 -3.457031 12.390625 -4.25 C 13.140625 -5.050781 13.515625 -6.113281 13.515625 -7.4375 L 13.515625 -15.078125 C 13.515625 -15.816406 13.695312 -16.363281 14.0625 -16.71875 C 14.4375 -17.082031 14.972656 -17.265625 15.671875 -17.265625 C 16.359375 -17.265625 16.894531 -17.082031 17.28125 -16.71875 C 17.664062 -16.363281 17.859375 -15.816406 17.859375 -15.078125 L 17.859375 -1.9375 C 17.859375 -0.457031 17.148438 0.28125 15.734375 0.28125 C 15.066406 0.28125 14.546875 0.0859375 14.171875 -0.296875 C 13.796875 -0.679688 13.609375 -1.226562 13.609375 -1.9375 L 13.609375 -4.578125 L 14.109375 -3.546875 C 13.617188 -2.296875 12.878906 -1.332031 11.890625 -0.65625 C 10.910156 0.0078125 9.75 0.34375 8.40625 0.34375 Z M 8.40625 0.34375 "/></g></g></g><g fill="#000000" fill-opacity="1"><g transform="translate(86.000857, 43.859772)"><g><path d="M 7.84375 0.34375 C 6.625 0.34375 5.53125 0.109375 4.5625 -0.359375 C 3.601562 -0.835938 2.851562 -1.484375 2.3125 -2.296875 C 1.769531 -3.109375 1.5 -4.019531 1.5 -5.03125 C 1.5 -6.28125 1.820312 -7.269531 2.46875 -8 C 3.113281 -8.726562 4.164062 -9.253906 5.625 -9.578125 C 7.082031 -9.910156 9.039062 -10.078125 11.5 -10.078125 L 13.234375 -10.078125 L 13.234375 -7.578125 L 11.53125 -7.578125 C 10.09375 -7.578125 8.945312 -7.503906 8.09375 -7.359375 C 7.238281 -7.222656 6.628906 -6.984375 6.265625 -6.640625 C 5.910156 -6.304688 5.734375 -5.84375 5.734375 -5.25 C 5.734375 -4.476562 6 -3.847656 6.53125 -3.359375 C 7.0625 -2.878906 7.800781 -2.640625 8.75 -2.640625 C 9.519531 -2.640625 10.195312 -2.816406 10.78125 -3.171875 C 11.375 -3.535156 11.84375 -4.03125 12.1875 -4.65625 C 12.539062 -5.28125 12.71875 -6 12.71875 -6.8125 L 12.71875 -10.796875 C 12.71875 -11.960938 12.460938 -12.796875 11.953125 -13.296875 C 11.441406 -13.804688 10.582031 -14.0625 9.375 -14.0625 C 8.707031 -14.0625 7.984375 -13.976562 7.203125 -13.8125 C 6.429688 -13.65625 5.617188 -13.378906 4.765625 -12.984375 C 4.316406 -12.773438 3.925781 -12.71875 3.59375 -12.8125 C 3.257812 -12.90625 3 -13.097656 2.8125 -13.390625 C 2.625 -13.679688 2.53125 -14 2.53125 -14.34375 C 2.53125 -14.6875 2.625 -15.023438 2.8125 -15.359375 C 3 -15.703125 3.3125 -15.953125 3.75 -16.109375 C 4.8125 -16.554688 5.832031 -16.867188 6.8125 -17.046875 C 7.800781 -17.234375 8.703125 -17.328125 9.515625 -17.328125 C 11.179688 -17.328125 12.550781 -17.070312 13.625 -16.5625 C 14.707031 -16.050781 15.515625 -15.28125 16.046875 -14.25 C 16.578125 -13.226562 16.84375 -11.90625 16.84375 -10.28125 L 16.84375 -1.9375 C 16.84375 -1.226562 16.664062 -0.679688 16.3125 -0.296875 C 15.96875 0.0859375 15.472656 0.28125 14.828125 0.28125 C 14.179688 0.28125 13.675781 0.0859375 13.3125 -0.296875 C 12.957031 -0.679688 12.78125 -1.226562 12.78125 -1.9375 L 12.78125 -3.609375 L 13.0625 -3.609375 C 12.894531 -2.796875 12.570312 -2.09375 12.09375 -1.5 C 11.625 -0.914062 11.03125 -0.460938 10.3125 -0.140625 C 9.59375 0.179688 8.769531 0.34375 7.84375 0.34375 Z M 7.84375 0.34375 "/></g></g></g><g fill="#000000" fill-opacity="1"><g transform="translate(105.000794, 43.859772)"><g><path d="M 3.859375 -7.578125 C 3.347656 -7.578125 2.921875 -7.742188 2.578125 -8.078125 C 2.242188 -8.410156 2.078125 -8.820312 2.078125 -9.3125 C 2.078125 -9.820312 2.242188 -10.238281 2.578125 -10.5625 C 2.921875 -10.882812 3.347656 -11.046875 3.859375 -11.046875 L 11.25 -11.046875 C 11.738281 -11.046875 12.148438 -10.882812 12.484375 -10.5625 C 12.816406 -10.238281 12.984375 -9.820312 12.984375 -9.3125 C 12.984375 -8.820312 12.816406 -8.410156 12.484375 -8.078125 C 12.148438 -7.742188 11.738281 -7.578125 11.25 -7.578125 Z M 3.859375 -7.578125 "/></g></g></g><g fill="#000000" fill-opacity="1"><g transform="translate(120.596769, 43.859772)"><g><path d="M 8.78125 0.34375 C 7.300781 0.34375 6 -0.015625 4.875 -0.734375 C 3.757812 -1.453125 2.882812 -2.472656 2.25 -3.796875 C 1.625 -5.128906 1.3125 -6.703125 1.3125 -8.515625 C 1.3125 -10.335938 1.625 -11.898438 2.25 -13.203125 C 2.882812 -14.515625 3.757812 -15.53125 4.875 -16.25 C 6 -16.96875 7.300781 -17.328125 8.78125 -17.328125 C 10.195312 -17.328125 11.429688 -16.976562 12.484375 -16.28125 C 13.535156 -15.59375 14.25 -14.679688 14.625 -13.546875 L 14.234375 -13.546875 L 14.234375 -22.578125 C 14.234375 -23.296875 14.421875 -23.835938 14.796875 -24.203125 C 15.171875 -24.578125 15.703125 -24.765625 16.390625 -24.765625 C 17.085938 -24.765625 17.625 -24.578125 18 -24.203125 C 18.382812 -23.835938 18.578125 -23.296875 18.578125 -22.578125 L 18.578125 -1.9375 C 18.578125 -1.226562 18.390625 -0.679688 18.015625 -0.296875 C 17.648438 0.0859375 17.117188 0.28125 16.421875 0.28125 C 15.734375 0.28125 15.203125 0.0859375 14.828125 -0.296875 C 14.460938 -0.679688 14.28125 -1.226562 14.28125 -1.9375 L 14.28125 -4.65625 L 14.65625 -3.609375 C 14.3125 -2.410156 13.601562 -1.453125 12.53125 -0.734375 C 11.46875 -0.015625 10.21875 0.34375 8.78125 0.34375 Z M 10 -2.953125 C 10.851562 -2.953125 11.601562 -3.160156 12.25 -3.578125 C 12.90625 -3.992188 13.410156 -4.613281 13.765625 -5.4375 C 14.128906 -6.257812 14.3125 -7.285156 14.3125 -8.515625 C 14.3125 -10.359375 13.914062 -11.738281 13.125 -12.65625 C 12.34375 -13.570312 11.300781 -14.03125 10 -14.03125 C 9.144531 -14.03125 8.390625 -13.828125 7.734375 -13.421875 C 7.085938 -13.015625 6.585938 -12.398438 6.234375 -11.578125 C 5.878906 -10.753906 5.703125 -9.734375 5.703125 -8.515625 C 5.703125 -6.679688 6.09375 -5.296875 6.875 -4.359375 C 7.664062 -3.421875 8.707031 -2.953125 10 -2.953125 Z M 10 -2.953125 "/></g></g></g><g fill="#000000" fill-opacity="1"><g transform="translate(141.437652, 43.859772)"><g><path d="M 8.40625 0.34375 C 6.988281 0.34375 5.816406 0.0820312 4.890625 -0.4375 C 3.972656 -0.957031 3.285156 -1.738281 2.828125 -2.78125 C 2.378906 -3.820312 2.15625 -5.117188 2.15625 -6.671875 L 2.15625 -15.078125 C 2.15625 -15.816406 2.335938 -16.363281 2.703125 -16.71875 C 3.078125 -17.082031 3.613281 -17.265625 4.3125 -17.265625 C 5 -17.265625 5.535156 -17.082031 5.921875 -16.71875 C 6.304688 -16.363281 6.5 -15.816406 6.5 -15.078125 L 6.5 -6.59375 C 6.5 -5.394531 6.738281 -4.503906 7.21875 -3.921875 C 7.707031 -3.347656 8.484375 -3.0625 9.546875 -3.0625 C 10.703125 -3.0625 11.648438 -3.457031 12.390625 -4.25 C 13.140625 -5.050781 13.515625 -6.113281 13.515625 -7.4375 L 13.515625 -15.078125 C 13.515625 -15.816406 13.695312 -16.363281 14.0625 -16.71875 C 14.4375 -17.082031 14.972656 -17.265625 15.671875 -17.265625 C 16.359375 -17.265625 16.894531 -17.082031 17.28125 -16.71875 C 17.664062 -16.363281 17.859375 -15.816406 17.859375 -15.078125 L 17.859375 -1.9375 C 17.859375 -0.457031 17.148438 0.28125 15.734375 0.28125 C 15.066406 0.28125 14.546875 0.0859375 14.171875 -0.296875 C 13.796875 -0.679688 13.609375 -1.226562 13.609375 -1.9375 L 13.609375 -4.578125 L 14.109375 -3.546875 C 13.617188 -2.296875 12.878906 -1.332031 11.890625 -0.65625 C 10.910156 0.0078125 9.75 0.34375 8.40625 0.34375 Z M 8.40625 0.34375 "/></g></g></g><g fill="#000000" fill-opacity="1"><g transform="translate(161.549103, 43.859772)"><g><path d="M 7.84375 0.34375 C 6.625 0.34375 5.53125 0.109375 4.5625 -0.359375 C 3.601562 -0.835938 2.851562 -1.484375 2.3125 -2.296875 C 1.769531 -3.109375 1.5 -4.019531 1.5 -5.03125 C 1.5 -6.28125 1.820312 -7.269531 2.46875 -8 C 3.113281 -8.726562 4.164062 -9.253906 5.625 -9.578125 C 7.082031 -9.910156 9.039062 -10.078125 11.5 -10.078125 L 13.234375 -10.078125 L 13.234375 -7.578125 L 11.53125 -7.578125 C 10.09375 -7.578125 8.945312 -7.503906 8.09375 -7.359375 C 7.238281 -7.222656 6.628906 -6.984375 6.265625 -6.640625 C 5.910156 -6.304688 5.734375 -5.84375 5.734375 -5.25 C 5.734375 -4.476562 6 -3.847656 6.53125 -3.359375 C 7.0625 -2.878906 7.800781 -2.640625 8.75 -2.640625 C 9.519531 -2.640625 10.195312 -2.816406 10.78125 -3.171875 C 11.375 -3.535156 11.84375 -4.03125 12.1875 -4.65625 C 12.539062 -5.28125 12.71875 -6 12.71875 -6.8125 L 12.71875 -10.796875 C 12.71875 -11.960938 12.460938 -12.796875 11.953125 -13.296875 C 11.441406 -13.804688 10.582031 -14.0625 9.375 -14.0625 C 8.707031 -14.0625 7.984375 -13.976562 7.203125 -13.8125 C 6.429688 -13.65625 5.617188 -13.378906 4.765625 -12.984375 C 4.316406 -12.773438 3.925781 -12.71875 3.59375 -12.8125 C 3.257812 -12.90625 3 -13.097656 2.8125 -13.390625 C 2.625 -13.679688 2.53125 -14 2.53125 -14.34375 C 2.53125 -14.6875 2.625 -15.023438 2.8125 -15.359375 C 3 -15.703125 3.3125 -15.953125 3.75 -16.109375 C 4.8125 -16.554688 5.832031 -16.867188 6.8125 -17.046875 C 7.800781 -17.234375 8.703125 -17.328125 9.515625 -17.328125 C 11.179688 -17.328125 12.550781 -17.070312 13.625 -16.5625 C 14.707031 -16.050781 15.515625 -15.28125 16.046875 -14.25 C 16.578125 -13.226562 16.84375 -11.90625 16.84375 -10.28125 L 16.84375 -1.9375 C 16.84375 -1.226562 16.664062 -0.679688 16.3125 -0.296875 C 15.96875 0.0859375 15.472656 0.28125 14.828125 0.28125 C 14.179688 0.28125 13.675781 0.0859375 13.3125 -0.296875 C 12.957031 -0.679688 12.78125 -1.226562 12.78125 -1.9375 L 12.78125 -3.609375 L 13.0625 -3.609375 C 12.894531 -2.796875 12.570312 -2.09375 12.09375 -1.5 C 11.625 -0.914062 11.03125 -0.460938 10.3125 -0.140625 C 9.59375 0.179688 8.769531 0.34375 7.84375 0.34375 Z M 7.84375 0.34375 "/></g></g></g><g fill="#000000" fill-opacity="1"><g transform="translate(180.54904, 43.859772)"><g><path d="M 4.40625 0.28125 C 3.71875 0.28125 3.1875 0.0859375 2.8125 -0.296875 C 2.4375 -0.679688 2.25 -1.226562 2.25 -1.9375 L 2.25 -15.078125 C 2.25 -15.796875 2.4375 -16.335938 2.8125 -16.703125 C 3.1875 -17.078125 3.707031 -17.265625 4.375 -17.265625 C 5.050781 -17.265625 5.570312 -17.078125 5.9375 -16.703125 C 6.3125 -16.335938 6.5 -15.796875 6.5 -15.078125 L 6.5 -12.71875 L 6.109375 -13.578125 C 6.617188 -14.804688 7.410156 -15.738281 8.484375 -16.375 C 9.566406 -17.007812 10.789062 -17.328125 12.15625 -17.328125 C 13.519531 -17.328125 14.640625 -17.070312 15.515625 -16.5625 C 16.398438 -16.050781 17.0625 -15.28125 17.5 -14.25 C 17.945312 -13.226562 18.171875 -11.925781 18.171875 -10.34375 L 18.171875 -1.9375 C 18.171875 -1.226562 17.984375 -0.679688 17.609375 -0.296875 C 17.234375 0.0859375 16.703125 0.28125 16.015625 0.28125 C 15.316406 0.28125 14.773438 0.0859375 14.390625 -0.296875 C 14.015625 -0.679688 13.828125 -1.226562 13.828125 -1.9375 L 13.828125 -10.140625 C 13.828125 -11.460938 13.578125 -12.421875 13.078125 -13.015625 C 12.578125 -13.617188 11.804688 -13.921875 10.765625 -13.921875 C 9.492188 -13.921875 8.476562 -13.519531 7.71875 -12.71875 C 6.96875 -11.925781 6.59375 -10.867188 6.59375 -9.546875 L 6.59375 -1.9375 C 6.59375 -0.457031 5.863281 0.28125 4.40625 0.28125 Z M 4.40625 0.28125 "/></g></g></g><g fill="#000000" fill-opacity="1"><g transform="translate(200.695207, 43.859772)"><g><path d="M 6.5625 6.53125 C 6.050781 6.53125 5.632812 6.394531 5.3125 6.125 C 4.988281 5.863281 4.796875 5.507812 4.734375 5.0625 C 4.679688 4.625 4.757812 4.164062 4.96875 3.6875 L 7.328125 -1.5625 L 7.328125 0.25 L 1 -14.375 C 0.789062 -14.882812 0.722656 -15.359375 0.796875 -15.796875 C 0.867188 -16.242188 1.082031 -16.597656 1.4375 -16.859375 C 1.800781 -17.128906 2.296875 -17.265625 2.921875 -17.265625 C 3.453125 -17.265625 3.878906 -17.140625 4.203125 -16.890625 C 4.523438 -16.648438 4.816406 -16.195312 5.078125 -15.53125 L 9.765625 -3.828125 L 8.71875 -3.828125 L 13.515625 -15.5625 C 13.765625 -16.207031 14.0625 -16.648438 14.40625 -16.890625 C 14.757812 -17.140625 15.222656 -17.265625 15.796875 -17.265625 C 16.304688 -17.265625 16.710938 -17.128906 17.015625 -16.859375 C 17.316406 -16.597656 17.503906 -16.25 17.578125 -15.8125 C 17.648438 -15.382812 17.566406 -14.921875 17.328125 -14.421875 L 8.890625 4.859375 C 8.585938 5.503906 8.265625 5.941406 7.921875 6.171875 C 7.578125 6.410156 7.125 6.53125 6.5625 6.53125 Z M 6.5625 6.53125 "/></g></g></g><g fill="#000000" fill-opacity="1"><g transform="translate(218.618335, 43.859772)"><g><path d="M 7.84375 0.34375 C 6.625 0.34375 5.53125 0.109375 4.5625 -0.359375 C 3.601562 -0.835938 2.851562 -1.484375 2.3125 -2.296875 C 1.769531 -3.109375 1.5 -4.019531 1.5 -5.03125 C 1.5 -6.28125 1.820312 -7.269531 2.46875 -8 C 3.113281 -8.726562 4.164062 -9.253906 5.625 -9.578125 C 7.082031 -9.910156 9.039062 -10.078125 11.5 -10.078125 L 13.234375 -10.078125 L 13.234375 -7.578125 L 11.53125 -7.578125 C 10.09375 -7.578125 8.945312 -7.503906 8.09375 -7.359375 C 7.238281 -7.222656 6.628906 -6.984375 6.265625 -6.640625 C 5.910156 -6.304688 5.734375 -5.84375 5.734375 -5.25 C 5.734375 -4.476562 6 -3.847656 6.53125 -3.359375 C 7.0625 -2.878906 7.800781 -2.640625 8.75 -2.640625 C 9.519531 -2.640625 10.195312 -2.816406 10.78125 -3.171875 C 11.375 -3.535156 11.84375 -4.03125 12.1875 -4.65625 C 12.539062 -5.28125 12.71875 -6 12.71875 -6.8125 L 12.71875 -10.796875 C 12.71875 -11.960938 12.460938 -12.796875 11.953125 -13.296875 C 11.441406 -13.804688 10.582031 -14.0625 9.375 -14.0625 C 8.707031 -14.0625 7.984375 -13.976562 7.203125 -13.8125 C 6.429688 -13.65625 5.617188 -13.378906 4.765625 -12.984375 C 4.316406 -12.773438 3.925781 -12.71875 3.59375 -12.8125 C 3.257812 -12.90625 3 -13.097656 2.8125 -13.390625 C 2.625 -13.679688 2.53125 -14 2.53125 -14.34375 C 2.53125 -14.6875 2.625 -15.023438 2.8125 -15.359375 C 3 -15.703125 3.3125 -15.953125 3.75 -16.109375 C 4.8125 -16.554688 5.832031 -16.867188 6.8125 -17.046875 C 7.800781 -17.234375 8.703125 -17.328125 9.515625 -17.328125 C 11.179688 -17.328125 12.550781 -17.070312 13.625 -16.5625 C 14.707031 -16.050781 15.515625 -15.28125 16.046875 -14.25 C 16.578125 -13.226562 16.84375 -11.90625 16.84375 -10.28125 L 16.84375 -1.9375 C 16.84375 -1.226562 16.664062 -0.679688 16.3125 -0.296875 C 15.96875 0.0859375 15.472656 0.28125 14.828125 0.28125 C 14.179688 0.28125 13.675781 0.0859375 13.3125 -0.296875 C 12.957031 -0.679688 12.78125 -1.226562 12.78125 -1.9375 L 12.78125 -3.609375 L 13.0625 -3.609375 C 12.894531 -2.796875 12.570312 -2.09375 12.09375 -1.5 C 11.625 -0.914062 11.03125 -0.460938 10.3125 -0.140625 C 9.59375 0.179688 8.769531 0.34375 7.84375 0.34375 Z M 7.84375 0.34375 "/></g></g></g><g fill="#000000" fill-opacity="1"><g transform="translate(237.618283, 43.859772)"><g/></g></g><g fill="#000000" fill-opacity="1"><g transform="translate(247.031404, 43.859772)"><g><path d="M 7.53125 5.65625 C 6.101562 3.382812 5.066406 0.992188 4.421875 -1.515625 C 3.785156 -4.023438 3.46875 -6.566406 3.46875 -9.140625 C 3.46875 -10.847656 3.609375 -12.546875 3.890625 -14.234375 C 4.171875 -15.929688 4.609375 -17.59375 5.203125 -19.21875 C 5.804688 -20.851562 6.582031 -22.425781 7.53125 -23.9375 C 7.789062 -24.351562 8.132812 -24.613281 8.5625 -24.71875 C 8.988281 -24.820312 9.390625 -24.789062 9.765625 -24.625 C 10.148438 -24.46875 10.4375 -24.171875 10.625 -23.734375 C 10.8125 -23.304688 10.789062 -22.769531 10.5625 -22.125 C 10 -20.644531 9.539062 -19.191406 9.1875 -17.765625 C 8.832031 -16.335938 8.566406 -14.914062 8.390625 -13.5 C 8.210938 -12.09375 8.125 -10.640625 8.125 -9.140625 C 8.125 -7.628906 8.21875 -6.164062 8.40625 -4.75 C 8.59375 -3.34375 8.867188 -1.929688 9.234375 -0.515625 C 9.609375 0.890625 10.050781 2.347656 10.5625 3.859375 C 10.789062 4.503906 10.8125 5.039062 10.625 5.46875 C 10.4375 5.894531 10.148438 6.1875 9.765625 6.34375 C 9.390625 6.507812 8.988281 6.539062 8.5625 6.4375 C 8.132812 6.332031 7.789062 6.070312 7.53125 5.65625 Z M 7.53125 5.65625 "/></g></g></g><g fill="#000000" fill-opacity="1"><g transform="translate(259.466453, 43.859772)"><g><path d="M 4.890625 0.28125 C 4.179688 0.28125 3.632812 0.078125 3.25 -0.328125 C 2.863281 -0.734375 2.671875 -1.296875 2.671875 -2.015625 L 2.671875 -22.46875 C 2.671875 -23.207031 2.863281 -23.773438 3.25 -24.171875 C 3.632812 -24.566406 4.179688 -24.765625 4.890625 -24.765625 C 5.609375 -24.765625 6.160156 -24.566406 6.546875 -24.171875 C 6.929688 -23.773438 7.125 -23.207031 7.125 -22.46875 L 7.125 -2.015625 C 7.125 -1.296875 6.9375 -0.734375 6.5625 -0.328125 C 6.195312 0.078125 5.640625 0.28125 4.890625 0.28125 Z M 4.890625 0.28125 "/></g></g></g><g fill="#000000" fill-opacity="1"><g transform="translate(269.261677, 43.859772)"><g/></g></g><g fill="#000000" fill-opacity="1"><g transform="translate(278.674799, 43.859772)"><g><path d="M 8.78125 0.34375 C 7.300781 0.34375 6 -0.015625 4.875 -0.734375 C 3.757812 -1.453125 2.882812 -2.472656 2.25 -3.796875 C 1.625 -5.128906 1.3125 -6.703125 1.3125 -8.515625 C 1.3125 -10.335938 1.625 -11.898438 2.25 -13.203125 C 2.882812 -14.515625 3.757812 -15.53125 4.875 -16.25 C 6 -16.96875 7.300781 -17.328125 8.78125 -17.328125 C 10.195312 -17.328125 11.429688 -16.976562 12.484375 -16.28125 C 13.535156 -15.59375 14.25 -14.679688 14.625 -13.546875 L 14.234375 -13.546875 L 14.234375 -22.578125 C 14.234375 -23.296875 14.421875 -23.835938 14.796875 -24.203125 C 15.171875 -24.578125 15.703125 -24.765625 16.390625 -24.765625 C 17.085938 -24.765625 17.625 -24.578125 18 -24.203125 C 18.382812 -23.835938 18.578125 -23.296875 18.578125 -22.578125 L 18.578125 -1.9375 C 18.578125 -1.226562 18.390625 -0.679688 18.015625 -0.296875 C 17.648438 0.0859375 17.117188 0.28125 16.421875 0.28125 C 15.734375 0.28125 15.203125 0.0859375 14.828125 -0.296875 C 14.460938 -0.679688 14.28125 -1.226562 14.28125 -1.9375 L 14.28125 -4.65625 L 14.65625 -3.609375 C 14.3125 -2.410156 13.601562 -1.453125 12.53125 -0.734375 C 11.46875 -0.015625 10.21875 0.34375 8.78125 0.34375 Z M 10 -2.953125 C 10.851562 -2.953125 11.601562 -3.160156 12.25 -3.578125 C 12.90625 -3.992188 13.410156 -4.613281 13.765625 -5.4375 C 14.128906 -6.257812 14.3125 -7.285156 14.3125 -8.515625 C 14.3125 -10.359375 13.914062 -11.738281 13.125 -12.65625 C 12.34375 -13.570312 11.300781 -14.03125 10 -14.03125 C 9.144531 -14.03125 8.390625 -13.828125 7.734375 -13.421875 C 7.085938 -13.015625 6.585938 -12.398438 6.234375 -11.578125 C 5.878906 -10.753906 5.703125 -9.734375 5.703125 -8.515625 C 5.703125 -6.679688 6.09375 -5.296875 6.875 -4.359375 C 7.664062 -3.421875 8.707031 -2.953125 10 -2.953125 Z M 10 -2.953125 "/></g></g></g><g fill="#000000" fill-opacity="1"><g transform="translate(299.515705, 43.859772)"><g><path d="M 7.84375 0.34375 C 6.625 0.34375 5.53125 0.109375 4.5625 -0.359375 C 3.601562 -0.835938 2.851562 -1.484375 2.3125 -2.296875 C 1.769531 -3.109375 1.5 -4.019531 1.5 -5.03125 C 1.5 -6.28125 1.820312 -7.269531 2.46875 -8 C 3.113281 -8.726562 4.164062 -9.253906 5.625 -9.578125 C 7.082031 -9.910156 9.039062 -10.078125 11.5 -10.078125 L 13.234375 -10.078125 L 13.234375 -7.578125 L 11.53125 -7.578125 C 10.09375 -7.578125 8.945312 -7.503906 8.09375 -7.359375 C 7.238281 -7.222656 6.628906 -6.984375 6.265625 -6.640625 C 5.910156 -6.304688 5.734375 -5.84375 5.734375 -5.25 C 5.734375 -4.476562 6 -3.847656 6.53125 -3.359375 C 7.0625 -2.878906 7.800781 -2.640625 8.75 -2.640625 C 9.519531 -2.640625 10.195312 -2.816406 10.78125 -3.171875 C 11.375 -3.535156 11.84375 -4.03125 12.1875 -4.65625 C 12.539062 -5.28125 12.71875 -6 12.71875 -6.8125 L 12.71875 -10.796875 C 12.71875 -11.960938 12.460938 -12.796875 11.953125 -13.296875 C 11.441406 -13.804688 10.582031 -14.0625 9.375 -14.0625 C 8.707031 -14.0625 7.984375 -13.976562 7.203125 -13.8125 C 6.429688 -13.65625 5.617188 -13.378906 4.765625 -12.984375 C 4.316406 -12.773438 3.925781 -12.71875 3.59375 -12.8125 C 3.257812 -12.90625 3 -13.097656 2.8125 -13.390625 C 2.625 -13.679688 2.53125 -14 2.53125 -14.34375 C 2.53125 -14.6875 2.625 -15.023438 2.8125 -15.359375 C 3 -15.703125 3.3125 -15.953125 3.75 -16.109375 C 4.8125 -16.554688 5.832031 -16.867188 6.8125 -17.046875 C 7.800781 -17.234375 8.703125 -17.328125 9.515625 -17.328125 C 11.179688 -17.328125 12.550781 -17.070312 13.625 -16.5625 C 14.707031 -16.050781 15.515625 -15.28125 16.046875 -14.25 C 16.578125 -13.226562 16.84375 -11.90625 16.84375 -10.28125 L 16.84375 -1.9375 C 16.84375 -1.226562 16.664062 -0.679688 16.3125 -0.296875 C 15.96875 0.0859375 15.472656 0.28125 14.828125 0.28125 C 14.179688 0.28125 13.675781 0.0859375 13.3125 -0.296875 C 12.957031 -0.679688 12.78125 -1.226562 12.78125 -1.9375 L 12.78125 -3.609375 L 13.0625 -3.609375 C 12.894531 -2.796875 12.570312 -2.09375 12.09375 -1.5 C 11.625 -0.914062 11.03125 -0.460938 10.3125 -0.140625 C 9.59375 0.179688 8.769531 0.34375 7.84375 0.34375 Z M 7.84375 0.34375 "/></g></g></g><g fill="#000000" fill-opacity="1"><g transform="translate(318.515619, 43.859772)"><g><path d="M 4.40625 0.28125 C 3.71875 0.28125 3.1875 0.0859375 2.8125 -0.296875 C 2.4375 -0.679688 2.25 -1.226562 2.25 -1.9375 L 2.25 -15.078125 C 2.25 -15.796875 2.4375 -16.335938 2.8125 -16.703125 C 3.1875 -17.078125 3.707031 -17.265625 4.375 -17.265625 C 5.050781 -17.265625 5.570312 -17.078125 5.9375 -16.703125 C 6.3125 -16.335938 6.5 -15.796875 6.5 -15.078125 L 6.5 -12.71875 L 6.109375 -13.578125 C 6.617188 -14.804688 7.410156 -15.738281 8.484375 -16.375 C 9.566406 -17.007812 10.789062 -17.328125 12.15625 -17.328125 C 13.519531 -17.328125 14.640625 -17.070312 15.515625 -16.5625 C 16.398438 -16.050781 17.0625 -15.28125 17.5 -14.25 C 17.945312 -13.226562 18.171875 -11.925781 18.171875 -10.34375 L 18.171875 -1.9375 C 18.171875 -1.226562 17.984375 -0.679688 17.609375 -0.296875 C 17.234375 0.0859375 16.703125 0.28125 16.015625 0.28125 C 15.316406 0.28125 14.773438 0.0859375 14.390625 -0.296875 C 14.015625 -0.679688 13.828125 -1.226562 13.828125 -1.9375 L 13.828125 -10.140625 C 13.828125 -11.460938 13.578125 -12.421875 13.078125 -13.015625 C 12.578125 -13.617188 11.804688 -13.921875 10.765625 -13.921875 C 9.492188 -13.921875 8.476562 -13.519531 7.71875 -12.71875 C 6.96875 -11.925781 6.59375 -10.867188 6.59375 -9.546875 L 6.59375 -1.9375 C 6.59375 -0.457031 5.863281 0.28125 4.40625 0.28125 Z M 4.40625 0.28125 "/></g></g></g><g fill="#000000" fill-opacity="1"><g transform="translate(338.835491, 43.859772)"><g/></g></g><g fill="#000000" fill-opacity="1"><g transform="translate(348.248635, 43.859772)"><g><path d="M 4.890625 0.28125 C 4.179688 0.28125 3.632812 0.078125 3.25 -0.328125 C 2.863281 -0.734375 2.671875 -1.296875 2.671875 -2.015625 L 2.671875 -22.46875 C 2.671875 -23.207031 2.863281 -23.773438 3.25 -24.171875 C 3.632812 -24.566406 4.179688 -24.765625 4.890625 -24.765625 C 5.609375 -24.765625 6.160156 -24.566406 6.546875 -24.171875 C 6.929688 -23.773438 7.125 -23.207031 7.125 -22.46875 L 7.125 -2.015625 C 7.125 -1.296875 6.9375 -0.734375 6.5625 -0.328125 C 6.195312 0.078125 5.640625 0.28125 4.890625 0.28125 Z M 4.890625 0.28125 "/></g></g></g><g fill="#000000" fill-opacity="1"><g transform="translate(358.043837, 43.859772)"><g><path d="M 4.890625 0.28125 C 4.179688 0.28125 3.632812 0.078125 3.25 -0.328125 C 2.863281 -0.734375 2.671875 -1.296875 2.671875 -2.015625 L 2.671875 -22.46875 C 2.671875 -23.207031 2.863281 -23.773438 3.25 -24.171875 C 3.632812 -24.566406 4.179688 -24.765625 4.890625 -24.765625 C 5.609375 -24.765625 6.160156 -24.566406 6.546875 -24.171875 C 6.929688 -23.773438 7.125 -23.207031 7.125 -22.46875 L 7.125 -2.015625 C 7.125 -1.296875 6.9375 -0.734375 6.5625 -0.328125 C 6.195312 0.078125 5.640625 0.28125 4.890625 0.28125 Z M 4.890625 0.28125 "/></g></g></g><g fill="#000000" fill-opacity="1"><g transform="translate(367.839039, 43.859772)"><g><path d="M 4.890625 5.65625 C 4.640625 6.070312 4.300781 6.332031 3.875 6.4375 C 3.445312 6.539062 3.035156 6.503906 2.640625 6.328125 C 2.242188 6.160156 1.957031 5.867188 1.78125 5.453125 C 1.613281 5.035156 1.644531 4.503906 1.875 3.859375 C 2.457031 2.347656 2.921875 0.890625 3.265625 -0.515625 C 3.609375 -1.929688 3.867188 -3.34375 4.046875 -4.75 C 4.222656 -6.164062 4.3125 -7.628906 4.3125 -9.140625 C 4.3125 -10.640625 4.21875 -12.09375 4.03125 -13.5 C 3.84375 -14.914062 3.566406 -16.332031 3.203125 -17.75 C 2.847656 -19.164062 2.40625 -20.625 1.875 -22.125 C 1.644531 -22.769531 1.617188 -23.304688 1.796875 -23.734375 C 1.984375 -24.171875 2.273438 -24.46875 2.671875 -24.625 C 3.066406 -24.789062 3.472656 -24.820312 3.890625 -24.71875 C 4.304688 -24.613281 4.640625 -24.351562 4.890625 -23.9375 C 6.304688 -21.6875 7.335938 -19.296875 7.984375 -16.765625 C 8.640625 -14.242188 8.96875 -11.703125 8.96875 -9.140625 C 8.96875 -7.421875 8.820312 -5.71875 8.53125 -4.03125 C 8.238281 -2.34375 7.796875 -0.679688 7.203125 0.953125 C 6.617188 2.585938 5.847656 4.15625 4.890625 5.65625 Z M 4.890625 5.65625 "/></g></g></g></svg>