<svg xmlns="http://www.w3.org/2000/svg" xmlns:xlink="http://www.w3.org/1999/xlink" width="560" zoomAndPan="magnify" viewBox="0 0 420 67.499998" height="90" preserveAspectRatio="xMidYMid meet" version="1.0"><defs><g/><clipPath id="70dbf6b1be"><path d="M 1.574219 0 L 418.125 0 L 418.125 66.863281 L 1.574219 66.863281 Z M 1.574219 0 " clip-rule="nonzero"/></clipPath></defs><g clip-path="url(#70dbf6b1be)"><path stroke-linecap="butt" transform="matrix(0.744485, 0, 0, 0.744485, 1.573902, 0)" fill="none" stroke-linejoin="miter" d="M 0.000425837 0 L 559.515589 0 L 559.515589 89.811426 L 0.000425837 89.811426 Z M 0.000425837 0 " stroke="#000000" stroke-width="12" stroke-opacity="1" stroke-miterlimit="4"/></g><g fill="#000000" fill-opacity="1"><g transform="translate(68.886818, 43.859772)"><g><path d="M 4.890625 0.28125 C 4.179688 0.28125 3.632812 0.078125 3.25 -0.328125 C 2.863281 -0.734375 2.671875 -1.296875 2.671875 -2.015625 L 2.671875 -22.46875 C 2.671875 -23.207031 2.863281 -23.773438 3.25 -24.171875 C 3.632812 -24.566406 4.179688 -24.765625 4.890625 -24.765625 C 5.609375 -24.765625 6.160156 -24.566406 6.546875 -24.171875 C 6.929688 -23.773438 7.125 -23.207031 7.125 -22.46875 L 7.125 -14.28125 L 19.734375 -14.28125 L 19.734375 -22.46875 C 19.734375 -23.207031 19.921875 -23.773438 20.296875 -24.171875 C 20.679688 -24.566406 21.234375 -24.765625 21.953125 -24.765625 C 22.671875 -24.765625 23.21875 -24.566406 23.59375 -24.171875 C 23.976562 -23.773438 24.171875 -23.207031 24.171875 -22.46875 L 24.171875 -2.015625 C 24.171875 -1.296875 23.976562 -0.734375 23.59375 -0.328125 C 23.21875 0.078125 22.671875 0.28125 21.953125 0.28125 C 21.234375 0.28125 20.679688 0.078125 20.296875 -0.328125 C 19.921875 -0.734375 19.734375 -1.296875 19.734375 -2.015625 L 19.734375 -10.5625 L 7.125 -10.5625 L 7.125 -2.015625 C 7.125 -1.296875 6.9375 -0.734375 6.5625 -0.328125 C 6.195312 0.078125 5.640625 0.28125 4.890625 0.28125 Z M 4.890625 0.28125 "/></g></g></g><g fill="#000000" fill-opacity="1"><g transform="translate(95.736817, 43.859772)"><g><path d="M 7.84375 0.34375 C 6.625 0.34375 5.53125 0.109375 4.5625 -0.359375 C 3.601562 -0.835938 2.851562 -1.484375 2.3125 -2.296875 C 1.769531 -3.109375 1.5 -4.019531 1.5 -5.03125 C 1.5 -6.28125 1.820312 -7.269531 2.46875 -8 C 3.113281 -8.726562 4.164062 -9.253906 5.625 -9.578125 C 7.082031 -9.910156 9.039062 -10.078125 11.5 -10.078125 L 13.234375 -10.078125 L 13.234375 -7.578125 L 11.53125 -7.578125 C 10.09375 -7.578125 8.945312 -7.503906 8.09375 -7.359375 C 7.238281 -7.222656 6.628906 -6.984375 6.265625 -6.640625 C 5.910156 -6.304688 5.734375 -5.84375 5.734375 -5.25 C 5.734375 -4.476562 6 -3.847656 6.53125 -3.359375 C 7.0625 -2.878906 7.800781 -2.640625 8.75 -2.640625 C 9.519531 -2.640625 10.195312 -2.816406 10.78125 -3.171875 C 11.375 -3.535156 11.84375 -4.03125 12.1875 -4.65625 C 12.539062 -5.28125 12.71875 -6 12.71875 -6.8125 L 12.71875 -10.796875 C 12.71875 -11.960938 12.460938 -12.796875 11.953125 -13.296875 C 11.441406 -13.804688 10.582031 -14.0625 9.375 -14.0625 C 8.707031 -14.0625 7.984375 -13.976562 7.203125 -13.8125 C 6.429688 -13.65625 5.617188 -13.378906 4.765625 -12.984375 C 4.316406 -12.773438 3.925781 -12.71875 3.59375 -12.8125 C 3.257812 -12.90625 3 -13.097656 2.8125 -13.390625 C 2.625 -13.679688 2.53125 -14 2.53125 -14.34375 C 2.53125 -14.6875 2.625 -15.023438 2.8125 -15.359375 C 3 -15.703125 3.3125 -15.953125 3.75 -16.109375 C 4.8125 -16.554688 5.832031 -16.867188 6.8125 -17.046875 C 7.800781 -17.234375 8.703125 -17.328125 9.515625 -17.328125 C 11.179688 -17.328125 12.550781 -17.070312 13.625 -16.5625 C 14.707031 -16.050781 15.515625 -15.28125 16.046875 -14.25 C 16.578125 -13.226562 16.84375 -11.90625 16.84375 -10.28125 L 16.84375 -1.9375 C 16.84375 -1.226562 16.664062 -0.679688 16.3125 -0.296875 C 15.96875 0.0859375 15.472656 0.28125 14.828125 0.28125 C 14.179688 0.28125 13.675781 0.0859375 13.3125 -0.296875 C 12.957031 -0.679688 12.78125 -1.226562 12.78125 -1.9375 L 12.78125 -3.609375 L 13.0625 -3.609375 C 12.894531 -2.796875 12.570312 -2.09375 12.09375 -1.5 C 11.625 -0.914062 11.03125 -0.460938 10.3125 -0.140625 C 9.59375 0.179688 8.769531 0.34375 7.84375 0.34375 Z M 7.84375 0.34375 "/></g></g></g><g fill="#000000" fill-opacity="1"><g transform="translate(114.736754, 43.859772)"><g><path d="M 4.40625 0.28125 C 3.71875 0.28125 3.1875 0.0859375 2.8125 -0.296875 C 2.4375 -0.679688 2.25 -1.226562 2.25 -1.9375 L 2.25 -15.078125 C 2.25 -15.796875 2.4375 -16.335938 2.8125 -16.703125 C 3.1875 -17.078125 3.707031 -17.265625 4.375 -17.265625 C 5.050781 -17.265625 5.570312 -17.078125 5.9375 -16.703125 C 6.3125 -16.335938 6.5 -15.796875 6.5 -15.078125 L 6.5 -12.71875 L 6.109375 -13.578125 C 6.617188 -14.804688 7.410156 -15.738281 8.484375 -16.375 C 9.566406 -17.007812 10.789062 -17.328125 12.15625 -17.328125 C 13.519531 -17.328125 14.640625 -17.070312 15.515625 -16.5625 C 16.398438 -16.050781 17.0625 -15.28125 17.5 -14.25 C 17.945312 -13.226562 18.171875 -11.925781 18.171875 -10.34375 L 18.171875 -1.9375 C 18.171875 -1.226562 17.984375 -0.679688 17.609375 -0.296875 C 17.234375 0.0859375 16.703125 0.28125 16.015625 0.28125 C 15.316406 0.28125 14.773438 0.0859375 14.390625 -0.296875 C 14.015625 -0.679688 13.828125 -1.226562 13.828125 -1.9375 L 13.828125 -10.140625 C 13.828125 -11.460938 13.578125 -12.421875 13.078125 -13.015625 C 12.578125 -13.617188 11.804688 -13.921875 10.765625 -13.921875 C 9.492188 -13.921875 8.476562 -13.519531 7.71875 -12.71875 C 6.96875 -11.925781 6.59375 -10.867188 6.59375 -9.546875 L 6.59375 -1.9375 C 6.59375 -0.457031 5.863281 0.28125 4.40625 0.28125 Z M 4.40625 0.28125 "/></g></g></g><g fill="#000000" fill-opacity="1"><g transform="translate(134.882921, 43.859772)"><g><path d="M 6.5625 6.53125 C 6.050781 6.53125 5.632812 6.394531 5.3125 6.125 C 4.988281 5.863281 4.796875 5.507812 4.734375 5.0625 C 4.679688 4.625 4.757812 4.164062 4.96875 3.6875 L 7.328125 -1.5625 L 7.328125 0.25 L 1 -14.375 C 0.789062 -14.882812 0.722656 -15.359375 0.796875 -15.796875 C 0.867188 -16.242188 1.082031 -16.597656 1.4375 -16.859375 C 1.800781 -17.128906 2.296875 -17.265625 2.921875 -17.265625 C 3.453125 -17.265625 3.878906 -17.140625 4.203125 -16.890625 C 4.523438 -16.648438 4.816406 -16.195312 5.078125 -15.53125 L 9.765625 -3.828125 L 8.71875 -3.828125 L 13.515625 -15.5625 C 13.765625 -16.207031 14.0625 -16.648438 14.40625 -16.890625 C 14.757812 -17.140625 15.222656 -17.265625 15.796875 -17.265625 C 16.304688 -17.265625 16.710938 -17.128906 17.015625 -16.859375 C 17.316406 -16.597656 17.503906 -16.25 17.578125 -15.8125 C 17.648438 -15.382812 17.566406 -14.921875 17.328125 -14.421875 L 8.890625 4.859375 C 8.585938 5.503906 8.265625 5.941406 7.921875 6.171875 C 7.578125 6.410156 7.125 6.53125 6.5625 6.53125 Z M 6.5625 6.53125 "/></g></g></g><g fill="#000000" fill-opacity="1"><g transform="translate(152.806048, 43.859772)"><g><path d="M 7.84375 0.34375 C 6.625 0.34375 5.53125 0.109375 4.5625 -0.359375 C 3.601562 -0.835938 2.851562 -1.484375 2.3125 -2.296875 C 1.769531 -3.109375 1.5 -4.019531 1.5 -5.03125 C 1.5 -6.28125 1.820312 -7.269531 2.46875 -8 C 3.113281 -8.726562 4.164062 -9.253906 5.625 -9.578125 C 7.082031 -9.910156 9.039062 -10.078125 11.5 -10.078125 L 13.234375 -10.078125 L 13.234375 -7.578125 L 11.53125 -7.578125 C 10.09375 -7.578125 8.945312 -7.503906 8.09375 -7.359375 C 7.238281 -7.222656 6.628906 -6.984375 6.265625 -6.640625 C 5.910156 -6.304688 5.734375 -5.84375 5.734375 -5.25 C 5.734375 -4.476562 6 -3.847656 6.53125 -3.359375 C 7.0625 -2.878906 7.800781 -2.640625 8.75 -2.640625 C 9.519531 -2.640625 10.195312 -2.816406 10.78125 -3.171875 C 11.375 -3.535156 11.84375 -4.03125 12.1875 -4.65625 C 12.539062 -5.28125 12.71875 -6 12.71875 -6.8125 L 12.71875 -10.796875 C 12.71875 -11.960938 12.460938 -12.796875 11.953125 -13.296875 C 11.441406 -13.804688 10.582031 -14.0625 9.375 -14.0625 C 8.707031 -14.0625 7.984375 -13.976562 7.203125 -13.8125 C 6.429688 -13.65625 5.617188 -13.378906 4.765625 -12.984375 C 4.316406 -12.773438 3.925781 -12.71875 3.59375 -12.8125 C 3.257812 -12.90625 3 -13.097656 2.8125 -13.390625 C 2.625 -13.679688 2.53125 -14 2.53125 -14.34375 C 2.53125 -14.6875 2.625 -15.023438 2.8125 -15.359375 C 3 -15.703125 3.3125 -15.953125 3.75 -16.109375 C 4.8125 -16.554688 5.832031 -16.867188 6.8125 -17.046875 C 7.800781 -17.234375 8.703125 -17.328125 9.515625 -17.328125 C 11.179688 -17.328125 12.550781 -17.070312 13.625 -16.5625 C 14.707031 -16.050781 15.515625 -15.28125 16.046875 -14.25 C 16.578125 -13.226562 16.84375 -11.90625 16.84375 -10.28125 L 16.84375 -1.9375 C 16.84375 -1.226562 16.664062 -0.679688 16.3125 -0.296875 C 15.96875 0.0859375 15.472656 0.28125 14.828125 0.28125 C 14.179688 0.28125 13.675781 0.0859375 13.3125 -0.296875 C 12.957031 -0.679688 12.78125 -1.226562 12.78125 -1.9375 L 12.78125 -3.609375 L 13.0625 -3.609375 C 12.894531 -2.796875 12.570312 -2.09375 12.09375 -1.5 C 11.625 -0.914062 11.03125 -0.460938 10.3125 -0.140625 C 9.59375 0.179688 8.769531 0.34375 7.84375 0.34375 Z M 7.84375 0.34375 "/></g></g></g><g fill="#000000" fill-opacity="1"><g transform="translate(171.805986, 43.859772)"><g/></g></g><g fill="#000000" fill-opacity="1"><g transform="translate(181.219119, 43.859772)"><g><path d="M 10.03125 0.34375 C 8.53125 0.34375 7.273438 0.0859375 6.265625 -0.421875 C 5.265625 -0.929688 4.519531 -1.675781 4.03125 -2.65625 C 3.539062 -3.644531 3.296875 -4.867188 3.296875 -6.328125 L 3.296875 -13.71875 L 1.5 -13.71875 C 0.9375 -13.71875 0.503906 -13.863281 0.203125 -14.15625 C -0.0976562 -14.445312 -0.25 -14.847656 -0.25 -15.359375 C -0.25 -15.890625 -0.0976562 -16.289062 0.203125 -16.5625 C 0.503906 -16.84375 0.9375 -16.984375 1.5 -16.984375 L 3.296875 -16.984375 L 3.296875 -20.140625 C 3.296875 -20.859375 3.488281 -21.398438 3.875 -21.765625 C 4.257812 -22.140625 4.796875 -22.328125 5.484375 -22.328125 C 6.179688 -22.328125 6.710938 -22.140625 7.078125 -21.765625 C 7.453125 -21.398438 7.640625 -20.859375 7.640625 -20.140625 L 7.640625 -16.984375 L 11.328125 -16.984375 C 11.878906 -16.984375 12.304688 -16.84375 12.609375 -16.5625 C 12.910156 -16.289062 13.0625 -15.890625 13.0625 -15.359375 C 13.0625 -14.847656 12.910156 -14.445312 12.609375 -14.15625 C 12.304688 -13.863281 11.878906 -13.71875 11.328125 -13.71875 L 7.640625 -13.71875 L 7.640625 -6.5625 C 7.640625 -5.445312 7.878906 -4.613281 8.359375 -4.0625 C 8.847656 -3.507812 9.640625 -3.234375 10.734375 -3.234375 C 11.128906 -3.234375 11.472656 -3.265625 11.765625 -3.328125 C 12.066406 -3.398438 12.335938 -3.445312 12.578125 -3.46875 C 12.847656 -3.5 13.078125 -3.414062 13.265625 -3.21875 C 13.453125 -3.019531 13.546875 -2.617188 13.546875 -2.015625 C 13.546875 -1.546875 13.46875 -1.132812 13.3125 -0.78125 C 13.164062 -0.425781 12.894531 -0.175781 12.5 -0.03125 C 12.195312 0.0625 11.800781 0.144531 11.3125 0.21875 C 10.832031 0.300781 10.40625 0.34375 10.03125 0.34375 Z M 10.03125 0.34375 "/></g></g></g><g fill="#000000" fill-opacity="1"><g transform="translate(195.008874, 43.859772)"><g><path d="M 4.40625 0.25 C 3.71875 0.25 3.1875 0.0390625 2.8125 -0.375 C 2.4375 -0.789062 2.25 -1.375 2.25 -2.125 L 2.25 -14.859375 C 2.25 -15.628906 2.4375 -16.21875 2.8125 -16.625 C 3.1875 -17.03125 3.71875 -17.234375 4.40625 -17.234375 C 5.101562 -17.234375 5.640625 -17.03125 6.015625 -16.625 C 6.398438 -16.21875 6.59375 -15.628906 6.59375 -14.859375 L 6.59375 -2.125 C 6.59375 -1.375 6.40625 -0.789062 6.03125 -0.375 C 5.664062 0.0390625 5.125 0.25 4.40625 0.25 Z M 4.40625 -20.453125 C 3.601562 -20.453125 2.972656 -20.65625 2.515625 -21.0625 C 2.066406 -21.46875 1.84375 -22.03125 1.84375 -22.75 C 1.84375 -23.488281 2.066406 -24.054688 2.515625 -24.453125 C 2.972656 -24.847656 3.601562 -25.046875 4.40625 -25.046875 C 5.238281 -25.046875 5.875 -24.847656 6.3125 -24.453125 C 6.757812 -24.054688 6.984375 -23.488281 6.984375 -22.75 C 6.984375 -22.03125 6.757812 -21.46875 6.3125 -21.0625 C 5.875 -20.65625 5.238281 -20.453125 4.40625 -20.453125 Z M 4.40625 -20.453125 "/></g></g></g><g fill="#000000" fill-opacity="1"><g transform="translate(203.866244, 43.859772)"><g><path d="M 4.40625 0.28125 C 3.71875 0.28125 3.1875 0.0859375 2.8125 -0.296875 C 2.4375 -0.679688 2.25 -1.226562 2.25 -1.9375 L 2.25 -15.078125 C 2.25 -15.796875 2.4375 -16.335938 2.8125 -16.703125 C 3.1875 -17.078125 3.707031 -17.265625 4.375 -17.265625 C 5.050781 -17.265625 5.570312 -17.078125 5.9375 -16.703125 C 6.3125 -16.335938 6.5 -15.796875 6.5 -15.078125 L 6.5 -12.71875 L 6.109375 -13.578125 C 6.617188 -14.804688 7.410156 -15.738281 8.484375 -16.375 C 9.566406 -17.007812 10.789062 -17.328125 12.15625 -17.328125 C 13.519531 -17.328125 14.640625 -17.070312 15.515625 -16.5625 C 16.398438 -16.050781 17.0625 -15.28125 17.5 -14.25 C 17.945312 -13.226562 18.171875 -11.925781 18.171875 -10.34375 L 18.171875 -1.9375 C 18.171875 -1.226562 17.984375 -0.679688 17.609375 -0.296875 C 17.234375 0.0859375 16.703125 0.28125 16.015625 0.28125 C 15.316406 0.28125 14.773438 0.0859375 14.390625 -0.296875 C 14.015625 -0.679688 13.828125 -1.226562 13.828125 -1.9375 L 13.828125 -10.140625 C 13.828125 -11.460938 13.578125 -12.421875 13.078125 -13.015625 C 12.578125 -13.617188 11.804688 -13.921875 10.765625 -13.921875 C 9.492188 -13.921875 8.476562 -13.519531 7.71875 -12.71875 C 6.96875 -11.925781 6.59375 -10.867188 6.59375 -9.546875 L 6.59375 -1.9375 C 6.59375 -0.457031 5.863281 0.28125 4.40625 0.28125 Z M 4.40625 0.28125 "/></g></g></g><g fill="#000000" fill-opacity="1"><g transform="translate(224.186105, 43.859772)"><g><path d="M 8.78125 0.34375 C 7.300781 0.34375 6 -0.015625 4.875 -0.734375 C 3.757812 -1.453125 2.882812 -2.472656 2.25 -3.796875 C 1.625 -5.128906 1.3125 -6.703125 1.3125 -8.515625 C 1.3125 -10.335938 1.625 -11.898438 2.25 -13.203125 C 2.882812 -14.515625 3.757812 -15.53125 4.875 -16.25 C 6 -16.96875 7.300781 -17.328125 8.78125 -17.328125 C 10.195312 -17.328125 11.429688 -16.976562 12.484375 -16.28125 C 13.535156 -15.59375 14.25 -14.679688 14.625 -13.546875 L 14.234375 -13.546875 L 14.234375 -22.578125 C 14.234375 -23.296875 14.421875 -23.835938 14.796875 -24.203125 C 15.171875 -24.578125 15.703125 -24.765625 16.390625 -24.765625 C 17.085938 -24.765625 17.625 -24.578125 18 -24.203125 C 18.382812 -23.835938 18.578125 -23.296875 18.578125 -22.578125 L 18.578125 -1.9375 C 18.578125 -1.226562 18.390625 -0.679688 18.015625 -0.296875 C 17.648438 0.0859375 17.117188 0.28125 16.421875 0.28125 C 15.734375 0.28125 15.203125 0.0859375 14.828125 -0.296875 C 14.460938 -0.679688 14.28125 -1.226562 14.28125 -1.9375 L 14.28125 -4.65625 L 14.65625 -3.609375 C 14.3125 -2.410156 13.601562 -1.453125 12.53125 -0.734375 C 11.46875 -0.015625 10.21875 0.34375 8.78125 0.34375 Z M 10 -2.953125 C 10.851562 -2.953125 11.601562 -3.160156 12.25 -3.578125 C 12.90625 -3.992188 13.410156 -4.613281 13.765625 -5.4375 C 14.128906 -6.257812 14.3125 -7.285156 14.3125 -8.515625 C 14.3125 -10.359375 13.914062 -11.738281 13.125 -12.65625 C 12.34375 -13.570312 11.300781 -14.03125 10 -14.03125 C 9.144531 -14.03125 8.390625 -13.828125 7.734375 -13.421875 C 7.085938 -13.015625 6.585938 -12.398438 6.234375 -11.578125 C 5.878906 -10.753906 5.703125 -9.734375 5.703125 -8.515625 C 5.703125 -6.679688 6.09375 -5.296875 6.875 -4.359375 C 7.664062 -3.421875 8.707031 -2.953125 10 -2.953125 Z M 10 -2.953125 "/></g></g></g><g fill="#000000" fill-opacity="1"><g transform="translate(245.026989, 43.859772)"><g><path d="M 7.84375 0.34375 C 6.625 0.34375 5.53125 0.109375 4.5625 -0.359375 C 3.601562 -0.835938 2.851562 -1.484375 2.3125 -2.296875 C 1.769531 -3.109375 1.5 -4.019531 1.5 -5.03125 C 1.5 -6.28125 1.820312 -7.269531 2.46875 -8 C 3.113281 -8.726562 4.164062 -9.253906 5.625 -9.578125 C 7.082031 -9.910156 9.039062 -10.078125 11.5 -10.078125 L 13.234375 -10.078125 L 13.234375 -7.578125 L 11.53125 -7.578125 C 10.09375 -7.578125 8.945312 -7.503906 8.09375 -7.359375 C 7.238281 -7.222656 6.628906 -6.984375 6.265625 -6.640625 C 5.910156 -6.304688 5.734375 -5.84375 5.734375 -5.25 C 5.734375 -4.476562 6 -3.847656 6.53125 -3.359375 C 7.0625 -2.878906 7.800781 -2.640625 8.75 -2.640625 C 9.519531 -2.640625 10.195312 -2.816406 10.78125 -3.171875 C 11.375 -3.535156 11.84375 -4.03125 12.1875 -4.65625 C 12.539062 -5.28125 12.71875 -6 12.71875 -6.8125 L 12.71875 -10.796875 C 12.71875 -11.960938 12.460938 -12.796875 11.953125 -13.296875 C 11.441406 -13.804688 10.582031 -14.0625 9.375 -14.0625 C 8.707031 -14.0625 7.984375 -13.976562 7.203125 -13.8125 C 6.429688 -13.65625 5.617188 -13.378906 4.765625 -12.984375 C 4.316406 -12.773438 3.925781 -12.71875 3.59375 -12.8125 C 3.257812 -12.90625 3 -13.097656 2.8125 -13.390625 C 2.625 -13.679688 2.53125 -14 2.53125 -14.34375 C 2.53125 -14.6875 2.625 -15.023438 2.8125 -15.359375 C 3 -15.703125 3.3125 -15.953125 3.75 -16.109375 C 4.8125 -16.554688 5.832031 -16.867188 6.8125 -17.046875 C 7.800781 -17.234375 8.703125 -17.328125 9.515625 -17.328125 C 11.179688 -17.328125 12.550781 -17.070312 13.625 -16.5625 C 14.707031 -16.050781 15.515625 -15.28125 16.046875 -14.25 C 16.578125 -13.226562 16.84375 -11.90625 16.84375 -10.28125 L 16.84375 -1.9375 C 16.84375 -1.226562 16.664062 -0.679688 16.3125 -0.296875 C 15.96875 0.0859375 15.472656 0.28125 14.828125 0.28125 C 14.179688 0.28125 13.675781 0.0859375 13.3125 -0.296875 C 12.957031 -0.679688 12.78125 -1.226562 12.78125 -1.9375 L 12.78125 -3.609375 L 13.0625 -3.609375 C 12.894531 -2.796875 12.570312 -2.09375 12.09375 -1.5 C 11.625 -0.914062 11.03125 -0.460938 10.3125 -0.140625 C 9.59375 0.179688 8.769531 0.34375 7.84375 0.34375 Z M 7.84375 0.34375 "/></g></g></g><g fill="#000000" fill-opacity="1"><g transform="translate(264.026926, 43.859772)"><g><path d="M 4.40625 0.28125 C 3.71875 0.28125 3.1875 0.0859375 2.8125 -0.296875 C 2.4375 -0.679688 2.25 -1.226562 2.25 -1.9375 L 2.25 -22.578125 C 2.25 -23.296875 2.4375 -23.835938 2.8125 -24.203125 C 3.1875 -24.578125 3.71875 -24.765625 4.40625 -24.765625 C 5.101562 -24.765625 5.640625 -24.578125 6.015625 -24.203125 C 6.398438 -23.835938 6.59375 -23.296875 6.59375 -22.578125 L 6.59375 -9.765625 L 6.671875 -9.765625 L 12.40625 -15.796875 C 12.863281 -16.265625 13.265625 -16.625 13.609375 -16.875 C 13.960938 -17.132812 14.441406 -17.265625 15.046875 -17.265625 C 15.640625 -17.265625 16.09375 -17.109375 16.40625 -16.796875 C 16.71875 -16.484375 16.875 -16.101562 16.875 -15.65625 C 16.875 -15.21875 16.664062 -14.78125 16.25 -14.34375 L 10.21875 -7.953125 L 10.21875 -9.765625 L 16.84375 -2.609375 C 17.257812 -2.160156 17.453125 -1.710938 17.421875 -1.265625 C 17.390625 -0.816406 17.195312 -0.445312 16.84375 -0.15625 C 16.5 0.132812 16.0625 0.28125 15.53125 0.28125 C 14.875 0.28125 14.351562 0.15625 13.96875 -0.09375 C 13.59375 -0.351562 13.175781 -0.738281 12.71875 -1.25 L 6.671875 -7.578125 L 6.59375 -7.578125 L 6.59375 -1.9375 C 6.59375 -0.457031 5.863281 0.28125 4.40625 0.28125 Z M 4.40625 0.28125 "/></g></g></g><g fill="#000000" fill-opacity="1"><g transform="translate(282.471089, 43.859772)"><g><path d="M 7.84375 0.34375 C 6.625 0.34375 5.53125 0.109375 4.5625 -0.359375 C 3.601562 -0.835938 2.851562 -1.484375 2.3125 -2.296875 C 1.769531 -3.109375 1.5 -4.019531 1.5 -5.03125 C 1.5 -6.28125 1.820312 -7.269531 2.46875 -8 C 3.113281 -8.726562 4.164062 -9.253906 5.625 -9.578125 C 7.082031 -9.910156 9.039062 -10.078125 11.5 -10.078125 L 13.234375 -10.078125 L 13.234375 -7.578125 L 11.53125 -7.578125 C 10.09375 -7.578125 8.945312 -7.503906 8.09375 -7.359375 C 7.238281 -7.222656 6.628906 -6.984375 6.265625 -6.640625 C 5.910156 -6.304688 5.734375 -5.84375 5.734375 -5.25 C 5.734375 -4.476562 6 -3.847656 6.53125 -3.359375 C 7.0625 -2.878906 7.800781 -2.640625 8.75 -2.640625 C 9.519531 -2.640625 10.195312 -2.816406 10.78125 -3.171875 C 11.375 -3.535156 11.84375 -4.03125 12.1875 -4.65625 C 12.539062 -5.28125 12.71875 -6 12.71875 -6.8125 L 12.71875 -10.796875 C 12.71875 -11.960938 12.460938 -12.796875 11.953125 -13.296875 C 11.441406 -13.804688 10.582031 -14.0625 9.375 -14.0625 C 8.707031 -14.0625 7.984375 -13.976562 7.203125 -13.8125 C 6.429688 -13.65625 5.617188 -13.378906 4.765625 -12.984375 C 4.316406 -12.773438 3.925781 -12.71875 3.59375 -12.8125 C 3.257812 -12.90625 3 -13.097656 2.8125 -13.390625 C 2.625 -13.679688 2.53125 -14 2.53125 -14.34375 C 2.53125 -14.6875 2.625 -15.023438 2.8125 -15.359375 C 3 -15.703125 3.3125 -15.953125 3.75 -16.109375 C 4.8125 -16.554688 5.832031 -16.867188 6.8125 -17.046875 C 7.800781 -17.234375 8.703125 -17.328125 9.515625 -17.328125 C 11.179688 -17.328125 12.550781 -17.070312 13.625 -16.5625 C 14.707031 -16.050781 15.515625 -15.28125 16.046875 -14.25 C 16.578125 -13.226562 16.84375 -11.90625 16.84375 -10.28125 L 16.84375 -1.9375 C 16.84375 -1.226562 16.664062 -0.679688 16.3125 -0.296875 C 15.96875 0.0859375 15.472656 0.28125 14.828125 0.28125 C 14.179688 0.28125 13.675781 0.0859375 13.3125 -0.296875 C 12.957031 -0.679688 12.78125 -1.226562 12.78125 -1.9375 L 12.78125 -3.609375 L 13.0625 -3.609375 C 12.894531 -2.796875 12.570312 -2.09375 12.09375 -1.5 C 11.625 -0.914062 11.03125 -0.460938 10.3125 -0.140625 C 9.59375 0.179688 8.769531 0.34375 7.84375 0.34375 Z M 7.84375 0.34375 "/></g></g></g><g fill="#000000" fill-opacity="1"><g transform="translate(301.471026, 43.859772)"><g><path d="M 4.40625 0.28125 C 3.71875 0.28125 3.1875 0.0859375 2.8125 -0.296875 C 2.4375 -0.679688 2.25 -1.226562 2.25 -1.9375 L 2.25 -15.078125 C 2.25 -15.796875 2.4375 -16.335938 2.8125 -16.703125 C 3.1875 -17.078125 3.707031 -17.265625 4.375 -17.265625 C 5.050781 -17.265625 5.570312 -17.078125 5.9375 -16.703125 C 6.3125 -16.335938 6.5 -15.796875 6.5 -15.078125 L 6.5 -12.71875 L 6.109375 -13.578125 C 6.617188 -14.804688 7.410156 -15.738281 8.484375 -16.375 C 9.566406 -17.007812 10.789062 -17.328125 12.15625 -17.328125 C 13.519531 -17.328125 14.640625 -17.070312 15.515625 -16.5625 C 16.398438 -16.050781 17.0625 -15.28125 17.5 -14.25 C 17.945312 -13.226562 18.171875 -11.925781 18.171875 -10.34375 L 18.171875 -1.9375 C 18.171875 -1.226562 17.984375 -0.679688 17.609375 -0.296875 C 17.234375 0.0859375 16.703125 0.28125 16.015625 0.28125 C 15.316406 0.28125 14.773438 0.0859375 14.390625 -0.296875 C 14.015625 -0.679688 13.828125 -1.226562 13.828125 -1.9375 L 13.828125 -10.140625 C 13.828125 -11.460938 13.578125 -12.421875 13.078125 -13.015625 C 12.578125 -13.617188 11.804688 -13.921875 10.765625 -13.921875 C 9.492188 -13.921875 8.476562 -13.519531 7.71875 -12.71875 C 6.96875 -11.925781 6.59375 -10.867188 6.59375 -9.546875 L 6.59375 -1.9375 C 6.59375 -0.457031 5.863281 0.28125 4.40625 0.28125 Z M 4.40625 0.28125 "/></g></g></g><g fill="#000000" fill-opacity="1"><g transform="translate(321.790874, 43.859772)"><g/></g></g><g fill="#000000" fill-opacity="1"><g transform="translate(331.204019, 43.859772)"><g><path d="M 4.890625 0.28125 C 4.179688 0.28125 3.632812 0.078125 3.25 -0.328125 C 2.863281 -0.734375 2.671875 -1.296875 2.671875 -2.015625 L 2.671875 -22.46875 C 2.671875 -23.207031 2.863281 -23.773438 3.25 -24.171875 C 3.632812 -24.566406 4.179688 -24.765625 4.890625 -24.765625 C 5.609375 -24.765625 6.160156 -24.566406 6.546875 -24.171875 C 6.929688 -23.773438 7.125 -23.207031 7.125 -22.46875 L 7.125 -2.015625 C 7.125 -1.296875 6.9375 -0.734375 6.5625 -0.328125 C 6.195312 0.078125 5.640625 0.28125 4.890625 0.28125 Z M 4.890625 0.28125 "/></g></g></g><g fill="#000000" fill-opacity="1"><g transform="translate(340.999221, 43.859772)"><g><path d="M 4.890625 0.28125 C 4.179688 0.28125 3.632812 0.078125 3.25 -0.328125 C 2.863281 -0.734375 2.671875 -1.296875 2.671875 -2.015625 L 2.671875 -22.46875 C 2.671875 -23.207031 2.863281 -23.773438 3.25 -24.171875 C 3.632812 -24.566406 4.179688 -24.765625 4.890625 -24.765625 C 5.609375 -24.765625 6.160156 -24.566406 6.546875 -24.171875 C 6.929688 -23.773438 7.125 -23.207031 7.125 -22.46875 L 7.125 -2.015625 C 7.125 -1.296875 6.9375 -0.734375 6.5625 -0.328125 C 6.195312 0.078125 5.640625 0.28125 4.890625 0.28125 Z M 4.890625 0.28125 "/></g></g></g></svg>