<svg xmlns="http://www.w3.org/2000/svg" xmlns:xlink="http://www.w3.org/1999/xlink" width="560" zoomAndPan="magnify" viewBox="0 0 420 67.499998" height="90" preserveAspectRatio="xMidYMid meet" version="1.0"><defs><g/><clipPath id="5c4ece9f97"><path d="M 1.574219 0 L 418.125 0 L 418.125 66.863281 L 1.574219 66.863281 Z M 1.574219 0 " clip-rule="nonzero"/></clipPath></defs><g clip-path="url(#5c4ece9f97)"><path stroke-linecap="butt" transform="matrix(0.744485, 0, 0, 0.744485, 1.573902, 0)" fill="none" stroke-linejoin="miter" d="M 0.000425837 0 L 559.515589 0 L 559.515589 89.811426 L 0.000425837 89.811426 Z M 0.000425837 0 " stroke="#000000" stroke-width="12" stroke-opacity="1" stroke-miterlimit="4"/></g><g fill="#000000" fill-opacity="1"><g transform="translate(124.867779, 43.859772)"><g><path d="M 4.890625 0.28125 C 4.179688 0.28125 3.632812 0.078125 3.25 -0.328125 C 2.863281 -0.734375 2.671875 -1.296875 2.671875 -2.015625 L 2.671875 -22.234375 C 2.671875 -22.972656 2.867188 -23.53125 3.265625 -23.90625 C 3.660156 -24.289062 4.21875 -24.484375 4.9375 -24.484375 L 13.296875 -24.484375 C 15.984375 -24.484375 18.054688 -23.8125 19.515625 -22.46875 C 20.972656 -21.125 21.703125 -19.25 21.703125 -16.84375 C 21.703125 -14.4375 20.972656 -12.554688 19.515625 -11.203125 C 18.054688 -9.847656 15.984375 -9.171875 13.296875 -9.171875 L 7.125 -9.171875 L 7.125 -2.015625 C 7.125 -1.296875 6.9375 -0.734375 6.5625 -0.328125 C 6.195312 0.078125 5.640625 0.28125 4.890625 0.28125 Z M 7.125 -12.671875 L 12.609375 -12.671875 C 14.179688 -12.671875 15.375 -13.023438 16.1875 -13.734375 C 17 -14.441406 17.40625 -15.476562 17.40625 -16.84375 C 17.40625 -18.207031 17 -19.238281 16.1875 -19.9375 C 15.375 -20.632812 14.179688 -20.984375 12.609375 -20.984375 L 7.125 -20.984375 Z M 7.125 -12.671875 "/></g></g></g><g fill="#000000" fill-opacity="1"><g transform="translate(146.715904, 43.859772)"><g><path d="M 7.84375 0.34375 C 6.625 0.34375 5.53125 0.109375 4.5625 -0.359375 C 3.601562 -0.835938 2.851562 -1.484375 2.3125 -2.296875 C 1.769531 -3.109375 1.5 -4.019531 1.5 -5.03125 C 1.5 -6.28125 1.820312 -7.269531 2.46875 -8 C 3.113281 -8.726562 4.164062 -9.253906 5.625 -9.578125 C 7.082031 -9.910156 9.039062 -10.078125 11.5 -10.078125 L 13.234375 -10.078125 L 13.234375 -7.578125 L 11.53125 -7.578125 C 10.09375 -7.578125 8.945312 -7.503906 8.09375 -7.359375 C 7.238281 -7.222656 6.628906 -6.984375 6.265625 -6.640625 C 5.910156 -6.304688 5.734375 -5.84375 5.734375 -5.25 C 5.734375 -4.476562 6 -3.847656 6.53125 -3.359375 C 7.0625 -2.878906 7.800781 -2.640625 8.75 -2.640625 C 9.519531 -2.640625 10.195312 -2.816406 10.78125 -3.171875 C 11.375 -3.535156 11.84375 -4.03125 12.1875 -4.65625 C 12.539062 -5.28125 12.71875 -6 12.71875 -6.8125 L 12.71875 -10.796875 C 12.71875 -11.960938 12.460938 -12.796875 11.953125 -13.296875 C 11.441406 -13.804688 10.582031 -14.0625 9.375 -14.0625 C 8.707031 -14.0625 7.984375 -13.976562 7.203125 -13.8125 C 6.429688 -13.65625 5.617188 -13.378906 4.765625 -12.984375 C 4.316406 -12.773438 3.925781 -12.71875 3.59375 -12.8125 C 3.257812 -12.90625 3 -13.097656 2.8125 -13.390625 C 2.625 -13.679688 2.53125 -14 2.53125 -14.34375 C 2.53125 -14.6875 2.625 -15.023438 2.8125 -15.359375 C 3 -15.703125 3.3125 -15.953125 3.75 -16.109375 C 4.8125 -16.554688 5.832031 -16.867188 6.8125 -17.046875 C 7.800781 -17.234375 8.703125 -17.328125 9.515625 -17.328125 C 11.179688 -17.328125 12.550781 -17.070312 13.625 -16.5625 C 14.707031 -16.050781 15.515625 -15.28125 16.046875 -14.25 C 16.578125 -13.226562 16.84375 -11.90625 16.84375 -10.28125 L 16.84375 -1.9375 C 16.84375 -1.226562 16.664062 -0.679688 16.3125 -0.296875 C 15.96875 0.0859375 15.472656 0.28125 14.828125 0.28125 C 14.179688 0.28125 13.675781 0.0859375 13.3125 -0.296875 C 12.957031 -0.679688 12.78125 -1.226562 12.78125 -1.9375 L 12.78125 -3.609375 L 13.0625 -3.609375 C 12.894531 -2.796875 12.570312 -2.09375 12.09375 -1.5 C 11.625 -0.914062 11.03125 -0.460938 10.3125 -0.140625 C 9.59375 0.179688 8.769531 0.34375 7.84375 0.34375 Z M 7.84375 0.34375 "/></g></g></g><g fill="#000000" fill-opacity="1"><g transform="translate(165.715841, 43.859772)"><g><path d="M 4.40625 0.28125 C 3.71875 0.28125 3.1875 0.0859375 2.8125 -0.296875 C 2.4375 -0.679688 2.25 -1.226562 2.25 -1.9375 L 2.25 -22.578125 C 2.25 -23.296875 2.4375 -23.835938 2.8125 -24.203125 C 3.1875 -24.578125 3.71875 -24.765625 4.40625 -24.765625 C 5.101562 -24.765625 5.640625 -24.578125 6.015625 -24.203125 C 6.398438 -23.835938 6.59375 -23.296875 6.59375 -22.578125 L 6.59375 -9.765625 L 6.671875 -9.765625 L 12.40625 -15.796875 C 12.863281 -16.265625 13.265625 -16.625 13.609375 -16.875 C 13.960938 -17.132812 14.441406 -17.265625 15.046875 -17.265625 C 15.640625 -17.265625 16.09375 -17.109375 16.40625 -16.796875 C 16.71875 -16.484375 16.875 -16.101562 16.875 -15.65625 C 16.875 -15.21875 16.664062 -14.78125 16.25 -14.34375 L 10.21875 -7.953125 L 10.21875 -9.765625 L 16.84375 -2.609375 C 17.257812 -2.160156 17.453125 -1.710938 17.421875 -1.265625 C 17.390625 -0.816406 17.195312 -0.445312 16.84375 -0.15625 C 16.5 0.132812 16.0625 0.28125 15.53125 0.28125 C 14.875 0.28125 14.351562 0.15625 13.96875 -0.09375 C 13.59375 -0.351562 13.175781 -0.738281 12.71875 -1.25 L 6.671875 -7.578125 L 6.59375 -7.578125 L 6.59375 -1.9375 C 6.59375 -0.457031 5.863281 0.28125 4.40625 0.28125 Z M 4.40625 0.28125 "/></g></g></g><g fill="#000000" fill-opacity="1"><g transform="translate(184.333697, 43.859772)"><g/></g></g><g fill="#000000" fill-opacity="1"><g transform="translate(193.74683, 43.859772)"><g><path d="M 11.109375 0.34375 C 10.097656 0.34375 9.082031 0.265625 8.0625 0.109375 C 7.039062 -0.0351562 6.078125 -0.265625 5.171875 -0.578125 C 4.273438 -0.890625 3.46875 -1.273438 2.75 -1.734375 C 2.332031 -2.015625 2.039062 -2.347656 1.875 -2.734375 C 1.707031 -3.128906 1.65625 -3.519531 1.71875 -3.90625 C 1.78125 -4.289062 1.929688 -4.625 2.171875 -4.90625 C 2.410156 -5.195312 2.710938 -5.378906 3.078125 -5.453125 C 3.453125 -5.523438 3.863281 -5.421875 4.3125 -5.140625 C 5.320312 -4.535156 6.394531 -4.09375 7.53125 -3.8125 C 8.664062 -3.539062 9.859375 -3.40625 11.109375 -3.40625 C 12.941406 -3.40625 14.273438 -3.710938 15.109375 -4.328125 C 15.941406 -4.941406 16.359375 -5.734375 16.359375 -6.703125 C 16.359375 -7.515625 16.0625 -8.148438 15.46875 -8.609375 C 14.882812 -9.078125 13.875 -9.460938 12.4375 -9.765625 L 8.609375 -10.5625 C 6.410156 -11.019531 4.769531 -11.796875 3.6875 -12.890625 C 2.613281 -13.992188 2.078125 -15.453125 2.078125 -17.265625 C 2.078125 -18.398438 2.304688 -19.429688 2.765625 -20.359375 C 3.234375 -21.285156 3.890625 -22.082031 4.734375 -22.75 C 5.585938 -23.425781 6.597656 -23.941406 7.765625 -24.296875 C 8.929688 -24.648438 10.222656 -24.828125 11.640625 -24.828125 C 13.023438 -24.828125 14.34375 -24.65625 15.59375 -24.3125 C 16.84375 -23.96875 17.96875 -23.457031 18.96875 -22.78125 C 19.332031 -22.53125 19.578125 -22.21875 19.703125 -21.84375 C 19.835938 -21.476562 19.867188 -21.113281 19.796875 -20.75 C 19.722656 -20.394531 19.5625 -20.085938 19.3125 -19.828125 C 19.0625 -19.578125 18.742188 -19.425781 18.359375 -19.375 C 17.972656 -19.332031 17.535156 -19.453125 17.046875 -19.734375 C 16.191406 -20.210938 15.320312 -20.554688 14.4375 -20.765625 C 13.5625 -20.972656 12.613281 -21.078125 11.59375 -21.078125 C 10.53125 -21.078125 9.617188 -20.925781 8.859375 -20.625 C 8.097656 -20.332031 7.515625 -19.910156 7.109375 -19.359375 C 6.703125 -18.816406 6.5 -18.175781 6.5 -17.4375 C 6.5 -16.601562 6.773438 -15.9375 7.328125 -15.4375 C 7.878906 -14.9375 8.828125 -14.550781 10.171875 -14.28125 L 13.96875 -13.484375 C 16.257812 -12.992188 17.960938 -12.226562 19.078125 -11.1875 C 20.203125 -10.144531 20.765625 -8.753906 20.765625 -7.015625 C 20.765625 -5.898438 20.539062 -4.890625 20.09375 -3.984375 C 19.644531 -3.085938 18.992188 -2.3125 18.140625 -1.65625 C 17.296875 -1.007812 16.285156 -0.515625 15.109375 -0.171875 C 13.929688 0.171875 12.597656 0.34375 11.109375 0.34375 Z M 11.109375 0.34375 "/></g></g></g><g fill="#000000" fill-opacity="1"><g transform="translate(215.664489, 43.859772)"><g><path d="M 7.84375 0.34375 C 6.625 0.34375 5.53125 0.109375 4.5625 -0.359375 C 3.601562 -0.835938 2.851562 -1.484375 2.3125 -2.296875 C 1.769531 -3.109375 1.5 -4.019531 1.5 -5.03125 C 1.5 -6.28125 1.820312 -7.269531 2.46875 -8 C 3.113281 -8.726562 4.164062 -9.253906 5.625 -9.578125 C 7.082031 -9.910156 9.039062 -10.078125 11.5 -10.078125 L 13.234375 -10.078125 L 13.234375 -7.578125 L 11.53125 -7.578125 C 10.09375 -7.578125 8.945312 -7.503906 8.09375 -7.359375 C 7.238281 -7.222656 6.628906 -6.984375 6.265625 -6.640625 C 5.910156 -6.304688 5.734375 -5.84375 5.734375 -5.25 C 5.734375 -4.476562 6 -3.847656 6.53125 -3.359375 C 7.0625 -2.878906 7.800781 -2.640625 8.75 -2.640625 C 9.519531 -2.640625 10.195312 -2.816406 10.78125 -3.171875 C 11.375 -3.535156 11.84375 -4.03125 12.1875 -4.65625 C 12.539062 -5.28125 12.71875 -6 12.71875 -6.8125 L 12.71875 -10.796875 C 12.71875 -11.960938 12.460938 -12.796875 11.953125 -13.296875 C 11.441406 -13.804688 10.582031 -14.0625 9.375 -14.0625 C 8.707031 -14.0625 7.984375 -13.976562 7.203125 -13.8125 C 6.429688 -13.65625 5.617188 -13.378906 4.765625 -12.984375 C 4.316406 -12.773438 3.925781 -12.71875 3.59375 -12.8125 C 3.257812 -12.90625 3 -13.097656 2.8125 -13.390625 C 2.625 -13.679688 2.53125 -14 2.53125 -14.34375 C 2.53125 -14.6875 2.625 -15.023438 2.8125 -15.359375 C 3 -15.703125 3.3125 -15.953125 3.75 -16.109375 C 4.8125 -16.554688 5.832031 -16.867188 6.8125 -17.046875 C 7.800781 -17.234375 8.703125 -17.328125 9.515625 -17.328125 C 11.179688 -17.328125 12.550781 -17.070312 13.625 -16.5625 C 14.707031 -16.050781 15.515625 -15.28125 16.046875 -14.25 C 16.578125 -13.226562 16.84375 -11.90625 16.84375 -10.28125 L 16.84375 -1.9375 C 16.84375 -1.226562 16.664062 -0.679688 16.3125 -0.296875 C 15.96875 0.0859375 15.472656 0.28125 14.828125 0.28125 C 14.179688 0.28125 13.675781 0.0859375 13.3125 -0.296875 C 12.957031 -0.679688 12.78125 -1.226562 12.78125 -1.9375 L 12.78125 -3.609375 L 13.0625 -3.609375 C 12.894531 -2.796875 12.570312 -2.09375 12.09375 -1.5 C 11.625 -0.914062 11.03125 -0.460938 10.3125 -0.140625 C 9.59375 0.179688 8.769531 0.34375 7.84375 0.34375 Z M 7.84375 0.34375 "/></g></g></g><g fill="#000000" fill-opacity="1"><g transform="translate(234.664426, 43.859772)"><g><path d="M 12.046875 0.34375 C 10.617188 0.34375 9.363281 -0.015625 8.28125 -0.734375 C 7.207031 -1.453125 6.492188 -2.410156 6.140625 -3.609375 L 6.53125 -4.484375 L 6.53125 -1.9375 C 6.53125 -1.226562 6.34375 -0.679688 5.96875 -0.296875 C 5.601562 0.0859375 5.082031 0.28125 4.40625 0.28125 C 3.71875 0.28125 3.1875 0.0859375 2.8125 -0.296875 C 2.4375 -0.679688 2.25 -1.226562 2.25 -1.9375 L 2.25 -22.578125 C 2.25 -23.296875 2.4375 -23.835938 2.8125 -24.203125 C 3.1875 -24.578125 3.71875 -24.765625 4.40625 -24.765625 C 5.101562 -24.765625 5.640625 -24.578125 6.015625 -24.203125 C 6.398438 -23.835938 6.59375 -23.296875 6.59375 -22.578125 L 6.59375 -13.546875 L 6.1875 -13.546875 C 6.550781 -14.679688 7.265625 -15.59375 8.328125 -16.28125 C 9.398438 -16.976562 10.640625 -17.328125 12.046875 -17.328125 C 13.554688 -17.328125 14.863281 -16.96875 15.96875 -16.25 C 17.082031 -15.53125 17.953125 -14.515625 18.578125 -13.203125 C 19.203125 -11.898438 19.515625 -10.335938 19.515625 -8.515625 C 19.515625 -6.703125 19.203125 -5.128906 18.578125 -3.796875 C 17.953125 -2.472656 17.078125 -1.453125 15.953125 -0.734375 C 14.835938 -0.015625 13.535156 0.34375 12.046875 0.34375 Z M 10.84375 -2.953125 C 11.695312 -2.953125 12.445312 -3.160156 13.09375 -3.578125 C 13.738281 -3.992188 14.238281 -4.613281 14.59375 -5.4375 C 14.957031 -6.257812 15.140625 -7.285156 15.140625 -8.515625 C 15.140625 -10.359375 14.742188 -11.738281 13.953125 -12.65625 C 13.171875 -13.570312 12.132812 -14.03125 10.84375 -14.03125 C 9.976562 -14.03125 9.222656 -13.828125 8.578125 -13.421875 C 7.929688 -13.015625 7.425781 -12.398438 7.0625 -11.578125 C 6.707031 -10.753906 6.53125 -9.734375 6.53125 -8.515625 C 6.53125 -6.679688 6.921875 -5.296875 7.703125 -4.359375 C 8.492188 -3.421875 9.539062 -2.953125 10.84375 -2.953125 Z M 10.84375 -2.953125 "/></g></g></g><g fill="#000000" fill-opacity="1"><g transform="translate(255.50531, 43.859772)"><g><path d="M 7.84375 0.34375 C 6.625 0.34375 5.53125 0.109375 4.5625 -0.359375 C 3.601562 -0.835938 2.851562 -1.484375 2.3125 -2.296875 C 1.769531 -3.109375 1.5 -4.019531 1.5 -5.03125 C 1.5 -6.28125 1.820312 -7.269531 2.46875 -8 C 3.113281 -8.726562 4.164062 -9.253906 5.625 -9.578125 C 7.082031 -9.910156 9.039062 -10.078125 11.5 -10.078125 L 13.234375 -10.078125 L 13.234375 -7.578125 L 11.53125 -7.578125 C 10.09375 -7.578125 8.945312 -7.503906 8.09375 -7.359375 C 7.238281 -7.222656 6.628906 -6.984375 6.265625 -6.640625 C 5.910156 -6.304688 5.734375 -5.84375 5.734375 -5.25 C 5.734375 -4.476562 6 -3.847656 6.53125 -3.359375 C 7.0625 -2.878906 7.800781 -2.640625 8.75 -2.640625 C 9.519531 -2.640625 10.195312 -2.816406 10.78125 -3.171875 C 11.375 -3.535156 11.84375 -4.03125 12.1875 -4.65625 C 12.539062 -5.28125 12.71875 -6 12.71875 -6.8125 L 12.71875 -10.796875 C 12.71875 -11.960938 12.460938 -12.796875 11.953125 -13.296875 C 11.441406 -13.804688 10.582031 -14.0625 9.375 -14.0625 C 8.707031 -14.0625 7.984375 -13.976562 7.203125 -13.8125 C 6.429688 -13.65625 5.617188 -13.378906 4.765625 -12.984375 C 4.316406 -12.773438 3.925781 -12.71875 3.59375 -12.8125 C 3.257812 -12.90625 3 -13.097656 2.8125 -13.390625 C 2.625 -13.679688 2.53125 -14 2.53125 -14.34375 C 2.53125 -14.6875 2.625 -15.023438 2.8125 -15.359375 C 3 -15.703125 3.3125 -15.953125 3.75 -16.109375 C 4.8125 -16.554688 5.832031 -16.867188 6.8125 -17.046875 C 7.800781 -17.234375 8.703125 -17.328125 9.515625 -17.328125 C 11.179688 -17.328125 12.550781 -17.070312 13.625 -16.5625 C 14.707031 -16.050781 15.515625 -15.28125 16.046875 -14.25 C 16.578125 -13.226562 16.84375 -11.90625 16.84375 -10.28125 L 16.84375 -1.9375 C 16.84375 -1.226562 16.664062 -0.679688 16.3125 -0.296875 C 15.96875 0.0859375 15.472656 0.28125 14.828125 0.28125 C 14.179688 0.28125 13.675781 0.0859375 13.3125 -0.296875 C 12.957031 -0.679688 12.78125 -1.226562 12.78125 -1.9375 L 12.78125 -3.609375 L 13.0625 -3.609375 C 12.894531 -2.796875 12.570312 -2.09375 12.09375 -1.5 C 11.625 -0.914062 11.03125 -0.460938 10.3125 -0.140625 C 9.59375 0.179688 8.769531 0.34375 7.84375 0.34375 Z M 7.84375 0.34375 "/></g></g></g><g fill="#000000" fill-opacity="1"><g transform="translate(274.505247, 43.859772)"><g><path d="M 4.40625 0.28125 C 3.71875 0.28125 3.1875 0.0859375 2.8125 -0.296875 C 2.4375 -0.679688 2.25 -1.226562 2.25 -1.9375 L 2.25 -15.078125 C 2.25 -15.796875 2.4375 -16.335938 2.8125 -16.703125 C 3.1875 -17.078125 3.707031 -17.265625 4.375 -17.265625 C 5.050781 -17.265625 5.570312 -17.078125 5.9375 -16.703125 C 6.3125 -16.335938 6.5 -15.796875 6.5 -15.078125 L 6.5 -12.71875 L 6.109375 -13.578125 C 6.617188 -14.804688 7.410156 -15.738281 8.484375 -16.375 C 9.566406 -17.007812 10.789062 -17.328125 12.15625 -17.328125 C 13.519531 -17.328125 14.640625 -17.070312 15.515625 -16.5625 C 16.398438 -16.050781 17.0625 -15.28125 17.5 -14.25 C 17.945312 -13.226562 18.171875 -11.925781 18.171875 -10.34375 L 18.171875 -1.9375 C 18.171875 -1.226562 17.984375 -0.679688 17.609375 -0.296875 C 17.234375 0.0859375 16.703125 0.28125 16.015625 0.28125 C 15.316406 0.28125 14.773438 0.0859375 14.390625 -0.296875 C 14.015625 -0.679688 13.828125 -1.226562 13.828125 -1.9375 L 13.828125 -10.140625 C 13.828125 -11.460938 13.578125 -12.421875 13.078125 -13.015625 C 12.578125 -13.617188 11.804688 -13.921875 10.765625 -13.921875 C 9.492188 -13.921875 8.476562 -13.519531 7.71875 -12.71875 C 6.96875 -11.925781 6.59375 -10.867188 6.59375 -9.546875 L 6.59375 -1.9375 C 6.59375 -0.457031 5.863281 0.28125 4.40625 0.28125 Z M 4.40625 0.28125 "/></g></g></g></svg>