<svg xmlns="http://www.w3.org/2000/svg" xmlns:xlink="http://www.w3.org/1999/xlink" width="560" zoomAndPan="magnify" viewBox="0 0 420 67.499998" height="90" preserveAspectRatio="xMidYMid meet" version="1.0"><defs><g/><clipPath id="27645e39ab"><path d="M 1.574219 0 L 418.125 0 L 418.125 66.863281 L 1.574219 66.863281 Z M 1.574219 0 " clip-rule="nonzero"/></clipPath></defs><g clip-path="url(#27645e39ab)"><path stroke-linecap="butt" transform="matrix(0.744485, 0, 0, 0.744485, 1.573902, 0)" fill="none" stroke-linejoin="miter" d="M 0.000425837 0 L 559.515589 0 L 559.515589 89.811426 L 0.000425837 89.811426 Z M 0.000425837 0 " stroke="#000000" stroke-width="12" stroke-opacity="1" stroke-miterlimit="4"/></g><g fill="#000000" fill-opacity="1"><g transform="translate(141.781557, 43.859772)"><g><path d="M 5.03125 0 C 4.269531 0 3.6875 -0.203125 3.28125 -0.609375 C 2.875 -1.015625 2.671875 -1.597656 2.671875 -2.359375 L 2.671875 -22.125 C 2.671875 -22.882812 2.875 -23.46875 3.28125 -23.875 C 3.6875 -24.28125 4.269531 -24.484375 5.03125 -24.484375 L 13.375 -24.484375 C 15.082031 -24.484375 16.539062 -24.226562 17.75 -23.71875 C 18.957031 -23.207031 19.878906 -22.476562 20.515625 -21.53125 C 21.148438 -20.582031 21.46875 -19.445312 21.46875 -18.125 C 21.46875 -16.644531 21.035156 -15.394531 20.171875 -14.375 C 19.316406 -13.363281 18.148438 -12.679688 16.671875 -12.328125 L 16.671875 -12.859375 C 18.390625 -12.597656 19.722656 -11.945312 20.671875 -10.90625 C 21.617188 -9.863281 22.09375 -8.507812 22.09375 -6.84375 C 22.09375 -4.664062 21.359375 -2.976562 19.890625 -1.78125 C 18.421875 -0.59375 16.375 0 13.75 0 Z M 6.953125 -3.375 L 13.203125 -3.375 C 14.773438 -3.375 15.929688 -3.675781 16.671875 -4.28125 C 17.410156 -4.894531 17.78125 -5.816406 17.78125 -7.046875 C 17.78125 -8.296875 17.410156 -9.222656 16.671875 -9.828125 C 15.929688 -10.429688 14.773438 -10.734375 13.203125 -10.734375 L 6.953125 -10.734375 Z M 6.953125 -14.109375 L 12.609375 -14.109375 C 14.140625 -14.109375 15.28125 -14.398438 16.03125 -14.984375 C 16.78125 -15.578125 17.15625 -16.453125 17.15625 -17.609375 C 17.15625 -18.765625 16.78125 -19.640625 16.03125 -20.234375 C 15.28125 -20.828125 14.140625 -21.125 12.609375 -21.125 L 6.953125 -21.125 Z M 6.953125 -14.109375 "/></g></g></g><g fill="#000000" fill-opacity="1"><g transform="translate(165.679106, 43.859772)"><g><path d="M 8.40625 0.34375 C 6.988281 0.34375 5.816406 0.0820312 4.890625 -0.4375 C 3.972656 -0.957031 3.285156 -1.738281 2.828125 -2.78125 C 2.378906 -3.820312 2.15625 -5.117188 2.15625 -6.671875 L 2.15625 -15.078125 C 2.15625 -15.816406 2.335938 -16.363281 2.703125 -16.71875 C 3.078125 -17.082031 3.613281 -17.265625 4.3125 -17.265625 C 5 -17.265625 5.535156 -17.082031 5.921875 -16.71875 C 6.304688 -16.363281 6.5 -15.816406 6.5 -15.078125 L 6.5 -6.59375 C 6.5 -5.394531 6.738281 -4.503906 7.21875 -3.921875 C 7.707031 -3.347656 8.484375 -3.0625 9.546875 -3.0625 C 10.703125 -3.0625 11.648438 -3.457031 12.390625 -4.25 C 13.140625 -5.050781 13.515625 -6.113281 13.515625 -7.4375 L 13.515625 -15.078125 C 13.515625 -15.816406 13.695312 -16.363281 14.0625 -16.71875 C 14.4375 -17.082031 14.972656 -17.265625 15.671875 -17.265625 C 16.359375 -17.265625 16.894531 -17.082031 17.28125 -16.71875 C 17.664062 -16.363281 17.859375 -15.816406 17.859375 -15.078125 L 17.859375 -1.9375 C 17.859375 -0.457031 17.148438 0.28125 15.734375 0.28125 C 15.066406 0.28125 14.546875 0.0859375 14.171875 -0.296875 C 13.796875 -0.679688 13.609375 -1.226562 13.609375 -1.9375 L 13.609375 -4.578125 L 14.109375 -3.546875 C 13.617188 -2.296875 12.878906 -1.332031 11.890625 -0.65625 C 10.910156 0.0078125 9.75 0.34375 8.40625 0.34375 Z M 8.40625 0.34375 "/></g></g></g><g fill="#000000" fill-opacity="1"><g transform="translate(185.790557, 43.859772)"><g/></g></g><g fill="#000000" fill-opacity="1"><g transform="translate(195.20369, 43.859772)"><g><path d="M 4.890625 0.28125 C 4.179688 0.28125 3.632812 0.078125 3.25 -0.328125 C 2.863281 -0.734375 2.671875 -1.296875 2.671875 -2.015625 L 2.671875 -22.234375 C 2.671875 -22.972656 2.867188 -23.53125 3.265625 -23.90625 C 3.660156 -24.289062 4.21875 -24.484375 4.9375 -24.484375 L 13.296875 -24.484375 C 15.984375 -24.484375 18.054688 -23.835938 19.515625 -22.546875 C 20.972656 -21.265625 21.703125 -19.46875 21.703125 -17.15625 C 21.703125 -15.65625 21.375 -14.359375 20.71875 -13.265625 C 20.0625 -12.179688 19.109375 -11.347656 17.859375 -10.765625 C 16.609375 -10.191406 15.085938 -9.90625 13.296875 -9.90625 L 13.609375 -10.421875 L 14.765625 -10.421875 C 15.710938 -10.421875 16.539062 -10.1875 17.25 -9.71875 C 17.957031 -9.257812 18.578125 -8.53125 19.109375 -7.53125 L 21.703125 -2.703125 C 21.984375 -2.222656 22.113281 -1.75 22.09375 -1.28125 C 22.070312 -0.820312 21.894531 -0.445312 21.5625 -0.15625 C 21.238281 0.132812 20.765625 0.28125 20.140625 0.28125 C 19.515625 0.28125 19.003906 0.148438 18.609375 -0.109375 C 18.222656 -0.378906 17.878906 -0.796875 17.578125 -1.359375 L 14.0625 -7.8125 C 13.644531 -8.601562 13.148438 -9.128906 12.578125 -9.390625 C 12.015625 -9.660156 11.296875 -9.796875 10.421875 -9.796875 L 7.125 -9.796875 L 7.125 -2.015625 C 7.125 -1.296875 6.9375 -0.734375 6.5625 -0.328125 C 6.195312 0.078125 5.640625 0.28125 4.890625 0.28125 Z M 7.125 -13.09375 L 12.546875 -13.09375 C 14.140625 -13.09375 15.347656 -13.421875 16.171875 -14.078125 C 16.992188 -14.742188 17.40625 -15.734375 17.40625 -17.046875 C 17.40625 -18.347656 16.992188 -19.328125 16.171875 -19.984375 C 15.347656 -20.648438 14.140625 -20.984375 12.546875 -20.984375 L 7.125 -20.984375 Z M 7.125 -13.09375 "/></g></g></g><g fill="#000000" fill-opacity="1"><g transform="translate(219.031762, 43.859772)"><g><path d="M 4.40625 0.25 C 3.71875 0.25 3.1875 0.0390625 2.8125 -0.375 C 2.4375 -0.789062 2.25 -1.375 2.25 -2.125 L 2.25 -14.859375 C 2.25 -15.628906 2.4375 -16.21875 2.8125 -16.625 C 3.1875 -17.03125 3.71875 -17.234375 4.40625 -17.234375 C 5.101562 -17.234375 5.640625 -17.03125 6.015625 -16.625 C 6.398438 -16.21875 6.59375 -15.628906 6.59375 -14.859375 L 6.59375 -2.125 C 6.59375 -1.375 6.40625 -0.789062 6.03125 -0.375 C 5.664062 0.0390625 5.125 0.25 4.40625 0.25 Z M 4.40625 -20.453125 C 3.601562 -20.453125 2.972656 -20.65625 2.515625 -21.0625 C 2.066406 -21.46875 1.84375 -22.03125 1.84375 -22.75 C 1.84375 -23.488281 2.066406 -24.054688 2.515625 -24.453125 C 2.972656 -24.847656 3.601562 -25.046875 4.40625 -25.046875 C 5.238281 -25.046875 5.875 -24.847656 6.3125 -24.453125 C 6.757812 -24.054688 6.984375 -23.488281 6.984375 -22.75 C 6.984375 -22.03125 6.757812 -21.46875 6.3125 -21.0625 C 5.875 -20.65625 5.238281 -20.453125 4.40625 -20.453125 Z M 4.40625 -20.453125 "/></g></g></g><g fill="#000000" fill-opacity="1"><g transform="translate(227.889132, 43.859772)"><g><path d="M 4.40625 0.28125 C 3.71875 0.28125 3.1875 0.0859375 2.8125 -0.296875 C 2.4375 -0.679688 2.25 -1.226562 2.25 -1.9375 L 2.25 -15.078125 C 2.25 -15.796875 2.4375 -16.335938 2.8125 -16.703125 C 3.1875 -17.078125 3.707031 -17.265625 4.375 -17.265625 C 5.050781 -17.265625 5.570312 -17.078125 5.9375 -16.703125 C 6.3125 -16.335938 6.5 -15.796875 6.5 -15.078125 L 6.5 -12.71875 L 6.109375 -13.578125 C 6.617188 -14.804688 7.410156 -15.738281 8.484375 -16.375 C 9.566406 -17.007812 10.789062 -17.328125 12.15625 -17.328125 C 13.519531 -17.328125 14.640625 -17.070312 15.515625 -16.5625 C 16.398438 -16.050781 17.0625 -15.28125 17.5 -14.25 C 17.945312 -13.226562 18.171875 -11.925781 18.171875 -10.34375 L 18.171875 -1.9375 C 18.171875 -1.226562 17.984375 -0.679688 17.609375 -0.296875 C 17.234375 0.0859375 16.703125 0.28125 16.015625 0.28125 C 15.316406 0.28125 14.773438 0.0859375 14.390625 -0.296875 C 14.015625 -0.679688 13.828125 -1.226562 13.828125 -1.9375 L 13.828125 -10.140625 C 13.828125 -11.460938 13.578125 -12.421875 13.078125 -13.015625 C 12.578125 -13.617188 11.804688 -13.921875 10.765625 -13.921875 C 9.492188 -13.921875 8.476562 -13.519531 7.71875 -12.71875 C 6.96875 -11.925781 6.59375 -10.867188 6.59375 -9.546875 L 6.59375 -1.9375 C 6.59375 -0.457031 5.863281 0.28125 4.40625 0.28125 Z M 4.40625 0.28125 "/></g></g></g><g fill="#000000" fill-opacity="1"><g transform="translate(248.208993, 43.859772)"><g><path d="M 8.78125 0.34375 C 7.300781 0.34375 6 -0.015625 4.875 -0.734375 C 3.757812 -1.453125 2.882812 -2.472656 2.25 -3.796875 C 1.625 -5.128906 1.3125 -6.703125 1.3125 -8.515625 C 1.3125 -10.335938 1.625 -11.898438 2.25 -13.203125 C 2.882812 -14.515625 3.757812 -15.53125 4.875 -16.25 C 6 -16.96875 7.300781 -17.328125 8.78125 -17.328125 C 10.195312 -17.328125 11.429688 -16.976562 12.484375 -16.28125 C 13.535156 -15.59375 14.25 -14.679688 14.625 -13.546875 L 14.234375 -13.546875 L 14.234375 -22.578125 C 14.234375 -23.296875 14.421875 -23.835938 14.796875 -24.203125 C 15.171875 -24.578125 15.703125 -24.765625 16.390625 -24.765625 C 17.085938 -24.765625 17.625 -24.578125 18 -24.203125 C 18.382812 -23.835938 18.578125 -23.296875 18.578125 -22.578125 L 18.578125 -1.9375 C 18.578125 -1.226562 18.390625 -0.679688 18.015625 -0.296875 C 17.648438 0.0859375 17.117188 0.28125 16.421875 0.28125 C 15.734375 0.28125 15.203125 0.0859375 14.828125 -0.296875 C 14.460938 -0.679688 14.28125 -1.226562 14.28125 -1.9375 L 14.28125 -4.65625 L 14.65625 -3.609375 C 14.3125 -2.410156 13.601562 -1.453125 12.53125 -0.734375 C 11.46875 -0.015625 10.21875 0.34375 8.78125 0.34375 Z M 10 -2.953125 C 10.851562 -2.953125 11.601562 -3.160156 12.25 -3.578125 C 12.90625 -3.992188 13.410156 -4.613281 13.765625 -5.4375 C 14.128906 -6.257812 14.3125 -7.285156 14.3125 -8.515625 C 14.3125 -10.359375 13.914062 -11.738281 13.125 -12.65625 C 12.34375 -13.570312 11.300781 -14.03125 10 -14.03125 C 9.144531 -14.03125 8.390625 -13.828125 7.734375 -13.421875 C 7.085938 -13.015625 6.585938 -12.398438 6.234375 -11.578125 C 5.878906 -10.753906 5.703125 -9.734375 5.703125 -8.515625 C 5.703125 -6.679688 6.09375 -5.296875 6.875 -4.359375 C 7.664062 -3.421875 8.707031 -2.953125 10 -2.953125 Z M 10 -2.953125 "/></g></g></g><g fill="#000000" fill-opacity="1"><g transform="translate(269.049876, 43.859772)"><g><path d="M 4.40625 0.25 C 3.71875 0.25 3.1875 0.0390625 2.8125 -0.375 C 2.4375 -0.789062 2.25 -1.375 2.25 -2.125 L 2.25 -14.859375 C 2.25 -15.628906 2.4375 -16.21875 2.8125 -16.625 C 3.1875 -17.03125 3.71875 -17.234375 4.40625 -17.234375 C 5.101562 -17.234375 5.640625 -17.03125 6.015625 -16.625 C 6.398438 -16.21875 6.59375 -15.628906 6.59375 -14.859375 L 6.59375 -2.125 C 6.59375 -1.375 6.40625 -0.789062 6.03125 -0.375 C 5.664062 0.0390625 5.125 0.25 4.40625 0.25 Z M 4.40625 -20.453125 C 3.601562 -20.453125 2.972656 -20.65625 2.515625 -21.0625 C 2.066406 -21.46875 1.84375 -22.03125 1.84375 -22.75 C 1.84375 -23.488281 2.066406 -24.054688 2.515625 -24.453125 C 2.972656 -24.847656 3.601562 -25.046875 4.40625 -25.046875 C 5.238281 -25.046875 5.875 -24.847656 6.3125 -24.453125 C 6.757812 -24.054688 6.984375 -23.488281 6.984375 -22.75 C 6.984375 -22.03125 6.757812 -21.46875 6.3125 -21.0625 C 5.875 -20.65625 5.238281 -20.453125 4.40625 -20.453125 Z M 4.40625 -20.453125 "/></g></g></g></svg>