<svg xmlns="http://www.w3.org/2000/svg" xmlns:xlink="http://www.w3.org/1999/xlink" width="560" zoomAndPan="magnify" viewBox="0 0 420 104.999996" height="140" preserveAspectRatio="xMidYMid meet" version="1.0"><defs><g/><clipPath id="5f79f6d7b4"><path d="M 0 0 L 419.695312 0 L 419.695312 104.25 L 0 104.25 Z M 0 0 " clip-rule="nonzero"/></clipPath></defs><g clip-path="url(#5f79f6d7b4)"><path stroke-linecap="butt" transform="matrix(0.75, 0, 0, 0.75, 0.000008, 0.000965015)" fill="none" stroke-linejoin="miter" d="M -0.0000106667 -0.00128669 L 559.59382 -0.00128669 L 559.59382 139.264358 L -0.0000106667 139.264358 Z M -0.0000106667 -0.00128669 " stroke="#000000" stroke-width="12" stroke-opacity="1" stroke-miterlimit="4"/></g><g fill="#000000" fill-opacity="1"><g transform="translate(21.763415, 46.973634)"><g><path d="M 2.9375 0.28125 C 2.375 0.28125 1.921875 0.15625 1.578125 -0.09375 C 1.242188 -0.351562 1.039062 -0.695312 0.96875 -1.125 C 0.90625 -1.5625 0.988281 -2.050781 1.21875 -2.59375 L 10.46875 -23.0625 C 10.769531 -23.738281 11.132812 -24.222656 11.5625 -24.515625 C 12 -24.804688 12.5 -24.953125 13.0625 -24.953125 C 13.59375 -24.953125 14.070312 -24.804688 14.5 -24.515625 C 14.9375 -24.222656 15.304688 -23.738281 15.609375 -23.0625 L 24.890625 -2.59375 C 25.140625 -2.050781 25.226562 -1.554688 25.15625 -1.109375 C 25.09375 -0.671875 24.894531 -0.328125 24.5625 -0.078125 C 24.238281 0.160156 23.8125 0.28125 23.28125 0.28125 C 22.625 0.28125 22.113281 0.125 21.75 -0.1875 C 21.382812 -0.507812 21.066406 -0.992188 20.796875 -1.640625 L 18.515625 -6.9375 L 20.40625 -5.703125 L 5.640625 -5.703125 L 7.53125 -6.9375 L 5.28125 -1.640625 C 4.976562 -0.960938 4.660156 -0.472656 4.328125 -0.171875 C 4.003906 0.128906 3.539062 0.28125 2.9375 0.28125 Z M 12.984375 -19.8125 L 8.078125 -8.15625 L 7.171875 -9.28125 L 18.859375 -9.28125 L 17.984375 -8.15625 L 13.0625 -19.8125 Z M 12.984375 -19.8125 "/></g></g></g><g fill="#000000" fill-opacity="1"><g transform="translate(47.797532, 46.973634)"><g><path d="M 8.125 0.34375 C 6.1875 0.34375 4.726562 -0.207031 3.75 -1.3125 C 2.769531 -2.414062 2.28125 -4.039062 2.28125 -6.1875 L 2.28125 -22.75 C 2.28125 -23.46875 2.460938 -24.015625 2.828125 -24.390625 C 3.203125 -24.765625 3.738281 -24.953125 4.4375 -24.953125 C 5.144531 -24.953125 5.691406 -24.765625 6.078125 -24.390625 C 6.460938 -24.015625 6.65625 -23.46875 6.65625 -22.75 L 6.65625 -6.40625 C 6.65625 -5.332031 6.878906 -4.535156 7.328125 -4.015625 C 7.785156 -3.503906 8.4375 -3.25 9.28125 -3.25 C 9.46875 -3.25 9.640625 -3.253906 9.796875 -3.265625 C 9.960938 -3.285156 10.128906 -3.304688 10.296875 -3.328125 C 10.617188 -3.367188 10.835938 -3.28125 10.953125 -3.0625 C 11.066406 -2.84375 11.125 -2.394531 11.125 -1.71875 C 11.125 -1.132812 11.007812 -0.675781 10.78125 -0.34375 C 10.550781 -0.0195312 10.164062 0.175781 9.625 0.25 C 9.394531 0.269531 9.148438 0.289062 8.890625 0.3125 C 8.628906 0.332031 8.375 0.34375 8.125 0.34375 Z M 8.125 0.34375 "/></g></g></g><g fill="#000000" fill-opacity="1"><g transform="translate(58.960006, 46.973634)"><g><path d="M 8.46875 0.34375 C 7.039062 0.34375 5.859375 0.0820312 4.921875 -0.4375 C 3.992188 -0.957031 3.300781 -1.742188 2.84375 -2.796875 C 2.394531 -3.847656 2.171875 -5.15625 2.171875 -6.71875 L 2.171875 -15.1875 C 2.171875 -15.9375 2.359375 -16.488281 2.734375 -16.84375 C 3.109375 -17.207031 3.644531 -17.390625 4.34375 -17.390625 C 5.039062 -17.390625 5.582031 -17.207031 5.96875 -16.84375 C 6.351562 -16.488281 6.546875 -15.9375 6.546875 -15.1875 L 6.546875 -6.65625 C 6.546875 -5.4375 6.789062 -4.535156 7.28125 -3.953125 C 7.769531 -3.367188 8.550781 -3.078125 9.625 -3.078125 C 10.789062 -3.078125 11.742188 -3.476562 12.484375 -4.28125 C 13.234375 -5.09375 13.609375 -6.160156 13.609375 -7.484375 L 13.609375 -15.1875 C 13.609375 -15.9375 13.796875 -16.488281 14.171875 -16.84375 C 14.546875 -17.207031 15.082031 -17.390625 15.78125 -17.390625 C 16.476562 -17.390625 17.019531 -17.207031 17.40625 -16.84375 C 17.789062 -16.488281 17.984375 -15.9375 17.984375 -15.1875 L 17.984375 -1.953125 C 17.984375 -0.460938 17.273438 0.28125 15.859375 0.28125 C 15.179688 0.28125 14.65625 0.0859375 14.28125 -0.296875 C 13.90625 -0.679688 13.71875 -1.234375 13.71875 -1.953125 L 13.71875 -4.625 L 14.203125 -3.5625 C 13.710938 -2.3125 12.972656 -1.347656 11.984375 -0.671875 C 10.992188 0.00390625 9.820312 0.34375 8.46875 0.34375 Z M 8.46875 0.34375 "/></g></g></g><g fill="#000000" fill-opacity="1"><g transform="translate(79.22043, 46.973634)"><g><path d="M 10.1875 0.34375 C 8.382812 0.34375 6.816406 -0.0195312 5.484375 -0.75 C 4.160156 -1.488281 3.132812 -2.535156 2.40625 -3.890625 C 1.6875 -5.242188 1.328125 -6.828125 1.328125 -8.640625 C 1.328125 -10.015625 1.53125 -11.242188 1.9375 -12.328125 C 2.351562 -13.421875 2.941406 -14.34375 3.703125 -15.09375 C 4.472656 -15.851562 5.40625 -16.4375 6.5 -16.84375 C 7.601562 -17.257812 8.832031 -17.46875 10.1875 -17.46875 C 10.957031 -17.46875 11.789062 -17.359375 12.6875 -17.140625 C 13.582031 -16.929688 14.425781 -16.582031 15.21875 -16.09375 C 15.59375 -15.863281 15.835938 -15.582031 15.953125 -15.25 C 16.078125 -14.925781 16.101562 -14.59375 16.03125 -14.25 C 15.957031 -13.914062 15.8125 -13.625 15.59375 -13.375 C 15.375 -13.132812 15.097656 -12.984375 14.765625 -12.921875 C 14.441406 -12.867188 14.082031 -12.945312 13.6875 -13.15625 C 13.175781 -13.457031 12.648438 -13.679688 12.109375 -13.828125 C 11.578125 -13.984375 11.0625 -14.0625 10.5625 -14.0625 C 9.800781 -14.0625 9.128906 -13.9375 8.546875 -13.6875 C 7.960938 -13.445312 7.460938 -13.097656 7.046875 -12.640625 C 6.640625 -12.191406 6.332031 -11.628906 6.125 -10.953125 C 5.914062 -10.273438 5.8125 -9.492188 5.8125 -8.609375 C 5.8125 -6.878906 6.222656 -5.519531 7.046875 -4.53125 C 7.878906 -3.539062 9.050781 -3.046875 10.5625 -3.046875 C 11.0625 -3.046875 11.570312 -3.113281 12.09375 -3.25 C 12.613281 -3.394531 13.144531 -3.617188 13.6875 -3.921875 C 14.082031 -4.128906 14.4375 -4.195312 14.75 -4.125 C 15.0625 -4.0625 15.320312 -3.90625 15.53125 -3.65625 C 15.75 -3.414062 15.878906 -3.125 15.921875 -2.78125 C 15.972656 -2.445312 15.929688 -2.113281 15.796875 -1.78125 C 15.671875 -1.457031 15.429688 -1.191406 15.078125 -0.984375 C 14.316406 -0.515625 13.503906 -0.175781 12.640625 0.03125 C 11.773438 0.238281 10.957031 0.34375 10.1875 0.34375 Z M 10.1875 0.34375 "/></g></g></g><g fill="#000000" fill-opacity="1"><g transform="translate(95.631715, 46.973634)"><g><path d="M 7.90625 0.34375 C 6.675781 0.34375 5.578125 0.109375 4.609375 -0.359375 C 3.640625 -0.835938 2.878906 -1.484375 2.328125 -2.296875 C 1.773438 -3.117188 1.5 -4.046875 1.5 -5.078125 C 1.5 -6.335938 1.828125 -7.332031 2.484375 -8.0625 C 3.140625 -8.800781 4.203125 -9.332031 5.671875 -9.65625 C 7.140625 -9.988281 9.109375 -10.15625 11.578125 -10.15625 L 13.328125 -10.15625 L 13.328125 -7.625 L 11.625 -7.625 C 10.175781 -7.625 9.019531 -7.550781 8.15625 -7.40625 C 7.289062 -7.269531 6.675781 -7.03125 6.3125 -6.6875 C 5.957031 -6.351562 5.78125 -5.882812 5.78125 -5.28125 C 5.78125 -4.507812 6.046875 -3.878906 6.578125 -3.390625 C 7.117188 -2.898438 7.863281 -2.65625 8.8125 -2.65625 C 9.582031 -2.65625 10.265625 -2.835938 10.859375 -3.203125 C 11.460938 -3.566406 11.9375 -4.0625 12.28125 -4.6875 C 12.632812 -5.320312 12.8125 -6.046875 12.8125 -6.859375 L 12.8125 -10.890625 C 12.8125 -12.054688 12.550781 -12.894531 12.03125 -13.40625 C 11.519531 -13.914062 10.660156 -14.171875 9.453125 -14.171875 C 8.773438 -14.171875 8.046875 -14.085938 7.265625 -13.921875 C 6.484375 -13.765625 5.660156 -13.488281 4.796875 -13.09375 C 4.347656 -12.882812 3.953125 -12.828125 3.609375 -12.921875 C 3.273438 -13.015625 3.015625 -13.207031 2.828125 -13.5 C 2.648438 -13.789062 2.5625 -14.109375 2.5625 -14.453125 C 2.5625 -14.804688 2.648438 -15.148438 2.828125 -15.484375 C 3.015625 -15.828125 3.332031 -16.078125 3.78125 -16.234375 C 4.851562 -16.679688 5.882812 -17 6.875 -17.1875 C 7.863281 -17.375 8.769531 -17.46875 9.59375 -17.46875 C 11.269531 -17.46875 12.648438 -17.207031 13.734375 -16.6875 C 14.816406 -16.175781 15.625 -15.398438 16.15625 -14.359375 C 16.695312 -13.328125 16.96875 -11.992188 16.96875 -10.359375 L 16.96875 -1.953125 C 16.96875 -1.234375 16.789062 -0.679688 16.4375 -0.296875 C 16.09375 0.0859375 15.59375 0.28125 14.9375 0.28125 C 14.289062 0.28125 13.785156 0.0859375 13.421875 -0.296875 C 13.054688 -0.679688 12.875 -1.234375 12.875 -1.953125 L 12.875 -3.640625 L 13.15625 -3.640625 C 13 -2.828125 12.679688 -2.117188 12.203125 -1.515625 C 11.722656 -0.921875 11.117188 -0.460938 10.390625 -0.140625 C 9.671875 0.179688 8.84375 0.34375 7.90625 0.34375 Z M 7.90625 0.34375 "/></g></g></g><g fill="#000000" fill-opacity="1"><g transform="translate(114.772392, 46.973634)"><g><path d="M 4.515625 0.28125 C 3.796875 0.28125 3.242188 0.0859375 2.859375 -0.296875 C 2.472656 -0.679688 2.28125 -1.234375 2.28125 -1.953125 L 2.28125 -15.1875 C 2.28125 -15.914062 2.460938 -16.460938 2.828125 -16.828125 C 3.203125 -17.203125 3.726562 -17.390625 4.40625 -17.390625 C 5.082031 -17.390625 5.609375 -17.203125 5.984375 -16.828125 C 6.359375 -16.460938 6.546875 -15.914062 6.546875 -15.1875 L 6.546875 -12.984375 L 6.1875 -12.984375 C 6.519531 -14.378906 7.164062 -15.4375 8.125 -16.15625 C 9.082031 -16.882812 10.351562 -17.320312 11.9375 -17.46875 C 12.425781 -17.507812 12.816406 -17.382812 13.109375 -17.09375 C 13.398438 -16.800781 13.566406 -16.351562 13.609375 -15.75 C 13.660156 -15.164062 13.523438 -14.691406 13.203125 -14.328125 C 12.890625 -13.972656 12.421875 -13.757812 11.796875 -13.6875 L 11.03125 -13.609375 C 9.601562 -13.472656 8.523438 -13.035156 7.796875 -12.296875 C 7.078125 -11.566406 6.71875 -10.535156 6.71875 -9.203125 L 6.71875 -1.953125 C 6.71875 -1.234375 6.53125 -0.679688 6.15625 -0.296875 C 5.78125 0.0859375 5.234375 0.28125 4.515625 0.28125 Z M 4.515625 0.28125 "/></g></g></g><g fill="#000000" fill-opacity="1"><g transform="translate(128.209334, 46.973634)"><g><path d="M 8.859375 0.34375 C 7.359375 0.34375 6.039062 -0.015625 4.90625 -0.734375 C 3.78125 -1.453125 2.898438 -2.484375 2.265625 -3.828125 C 1.640625 -5.171875 1.328125 -6.753906 1.328125 -8.578125 C 1.328125 -10.421875 1.640625 -12 2.265625 -13.3125 C 2.898438 -14.632812 3.78125 -15.65625 4.90625 -16.375 C 6.039062 -17.101562 7.359375 -17.46875 8.859375 -17.46875 C 10.273438 -17.46875 11.515625 -17.113281 12.578125 -16.40625 C 13.640625 -15.707031 14.359375 -14.789062 14.734375 -13.65625 L 14.34375 -13.65625 L 14.34375 -22.75 C 14.34375 -23.46875 14.53125 -24.015625 14.90625 -24.390625 C 15.28125 -24.765625 15.816406 -24.953125 16.515625 -24.953125 C 17.210938 -24.953125 17.753906 -24.765625 18.140625 -24.390625 C 18.523438 -24.015625 18.71875 -23.46875 18.71875 -22.75 L 18.71875 -1.953125 C 18.71875 -1.234375 18.53125 -0.679688 18.15625 -0.296875 C 17.789062 0.0859375 17.257812 0.28125 16.5625 0.28125 C 15.851562 0.28125 15.3125 0.0859375 14.9375 -0.296875 C 14.570312 -0.679688 14.390625 -1.234375 14.390625 -1.953125 L 14.390625 -4.6875 L 14.765625 -3.640625 C 14.421875 -2.421875 13.710938 -1.453125 12.640625 -0.734375 C 11.566406 -0.015625 10.304688 0.34375 8.859375 0.34375 Z M 10.078125 -2.96875 C 10.941406 -2.96875 11.695312 -3.175781 12.34375 -3.59375 C 13 -4.019531 13.507812 -4.644531 13.875 -5.46875 C 14.238281 -6.300781 14.421875 -7.335938 14.421875 -8.578125 C 14.421875 -10.441406 14.023438 -11.832031 13.234375 -12.75 C 12.441406 -13.675781 11.390625 -14.140625 10.078125 -14.140625 C 9.210938 -14.140625 8.453125 -13.9375 7.796875 -13.53125 C 7.148438 -13.125 6.644531 -12.503906 6.28125 -11.671875 C 5.914062 -10.847656 5.734375 -9.816406 5.734375 -8.578125 C 5.734375 -6.734375 6.128906 -5.335938 6.921875 -4.390625 C 7.722656 -3.441406 8.773438 -2.96875 10.078125 -2.96875 Z M 10.078125 -2.96875 "/></g></g></g><g fill="#000000" fill-opacity="1"><g transform="translate(149.204594, 46.973634)"><g/></g></g><g fill="#000000" fill-opacity="1"><g transform="translate(158.687454, 46.973634)"><g><path d="M 1.398438 -11.511719 L 26.140625 -11.511719 C 24.636719 -10.429688 22.78125 -8.503906 21.488281 -6.71875 L 24.636719 -4.96875 C 27.050781 -8.050781 30.621094 -11.234375 33.769531 -13.296875 C 30.621094 -15.363281 27.050781 -18.546875 24.636719 -21.625 L 21.488281 -19.878906 C 22.78125 -18.09375 24.636719 -16.167969 26.140625 -15.082031 L 1.398438 -15.082031 Z M 1.398438 -11.511719 "/></g></g></g><g fill="#000000" fill-opacity="1"><g transform="translate(193.679549, 46.973634)"><g/></g></g><g fill="#000000" fill-opacity="1"><g transform="translate(203.162409, 46.973634)"><g><path d="M 14.171875 0.34375 C 11.609375 0.34375 9.410156 -0.171875 7.578125 -1.203125 C 5.742188 -2.242188 4.335938 -3.710938 3.359375 -5.609375 C 2.378906 -7.515625 1.890625 -9.765625 1.890625 -12.359375 C 1.890625 -14.296875 2.164062 -16.039062 2.71875 -17.59375 C 3.28125 -19.144531 4.085938 -20.472656 5.140625 -21.578125 C 6.191406 -22.679688 7.484375 -23.53125 9.015625 -24.125 C 10.546875 -24.726562 12.265625 -25.03125 14.171875 -25.03125 C 15.453125 -25.03125 16.710938 -24.863281 17.953125 -24.53125 C 19.191406 -24.207031 20.273438 -23.742188 21.203125 -23.140625 C 21.691406 -22.835938 22.019531 -22.46875 22.1875 -22.03125 C 22.351562 -21.601562 22.390625 -21.179688 22.296875 -20.765625 C 22.203125 -20.359375 22.007812 -20.015625 21.71875 -19.734375 C 21.425781 -19.453125 21.0625 -19.296875 20.625 -19.265625 C 20.195312 -19.234375 19.726562 -19.378906 19.21875 -19.703125 C 18.488281 -20.171875 17.703125 -20.507812 16.859375 -20.71875 C 16.023438 -20.925781 15.175781 -21.03125 14.3125 -21.03125 C 12.65625 -21.03125 11.253906 -20.691406 10.109375 -20.015625 C 8.972656 -19.335938 8.113281 -18.359375 7.53125 -17.078125 C 6.945312 -15.796875 6.65625 -14.222656 6.65625 -12.359375 C 6.65625 -10.515625 6.945312 -8.9375 7.53125 -7.625 C 8.113281 -6.320312 8.972656 -5.332031 10.109375 -4.65625 C 11.253906 -3.976562 12.65625 -3.640625 14.3125 -3.640625 C 15.195312 -3.640625 16.070312 -3.75 16.9375 -3.96875 C 17.800781 -4.195312 18.617188 -4.539062 19.390625 -5 C 19.898438 -5.300781 20.359375 -5.4375 20.765625 -5.40625 C 21.179688 -5.375 21.523438 -5.226562 21.796875 -4.96875 C 22.078125 -4.707031 22.265625 -4.382812 22.359375 -4 C 22.453125 -3.625 22.425781 -3.226562 22.28125 -2.8125 C 22.144531 -2.40625 21.867188 -2.050781 21.453125 -1.75 C 20.523438 -1.070312 19.410156 -0.550781 18.109375 -0.1875 C 16.816406 0.164062 15.503906 0.34375 14.171875 0.34375 Z M 14.171875 0.34375 "/></g></g></g><g fill="#000000" fill-opacity="1"><g transform="translate(226.95702, 46.973634)"><g><path d="M 4.4375 0.25 C 3.738281 0.25 3.203125 0.0390625 2.828125 -0.375 C 2.460938 -0.800781 2.28125 -1.390625 2.28125 -2.140625 L 2.28125 -14.984375 C 2.28125 -15.753906 2.460938 -16.34375 2.828125 -16.75 C 3.203125 -17.15625 3.738281 -17.359375 4.4375 -17.359375 C 5.144531 -17.359375 5.691406 -17.15625 6.078125 -16.75 C 6.460938 -16.34375 6.65625 -15.753906 6.65625 -14.984375 L 6.65625 -2.140625 C 6.65625 -1.390625 6.46875 -0.800781 6.09375 -0.375 C 5.71875 0.0390625 5.164062 0.25 4.4375 0.25 Z M 4.4375 -20.609375 C 3.625 -20.609375 2.988281 -20.8125 2.53125 -21.21875 C 2.082031 -21.632812 1.859375 -22.203125 1.859375 -22.921875 C 1.859375 -23.671875 2.082031 -24.242188 2.53125 -24.640625 C 2.988281 -25.035156 3.625 -25.234375 4.4375 -25.234375 C 5.28125 -25.234375 5.921875 -25.035156 6.359375 -24.640625 C 6.804688 -24.242188 7.03125 -23.671875 7.03125 -22.921875 C 7.03125 -22.203125 6.804688 -21.632812 6.359375 -21.21875 C 5.921875 -20.8125 5.28125 -20.609375 4.4375 -20.609375 Z M 4.4375 -20.609375 "/></g></g></g><g fill="#000000" fill-opacity="1"><g transform="translate(235.880024, 46.973634)"><g><path d="M 10.1875 0.34375 C 8.382812 0.34375 6.816406 -0.0195312 5.484375 -0.75 C 4.160156 -1.488281 3.132812 -2.535156 2.40625 -3.890625 C 1.6875 -5.242188 1.328125 -6.828125 1.328125 -8.640625 C 1.328125 -10.015625 1.53125 -11.242188 1.9375 -12.328125 C 2.351562 -13.421875 2.941406 -14.34375 3.703125 -15.09375 C 4.472656 -15.851562 5.40625 -16.4375 6.5 -16.84375 C 7.601562 -17.257812 8.832031 -17.46875 10.1875 -17.46875 C 10.957031 -17.46875 11.789062 -17.359375 12.6875 -17.140625 C 13.582031 -16.929688 14.425781 -16.582031 15.21875 -16.09375 C 15.59375 -15.863281 15.835938 -15.582031 15.953125 -15.25 C 16.078125 -14.925781 16.101562 -14.59375 16.03125 -14.25 C 15.957031 -13.914062 15.8125 -13.625 15.59375 -13.375 C 15.375 -13.132812 15.097656 -12.984375 14.765625 -12.921875 C 14.441406 -12.867188 14.082031 -12.945312 13.6875 -13.15625 C 13.175781 -13.457031 12.648438 -13.679688 12.109375 -13.828125 C 11.578125 -13.984375 11.0625 -14.0625 10.5625 -14.0625 C 9.800781 -14.0625 9.128906 -13.9375 8.546875 -13.6875 C 7.960938 -13.445312 7.460938 -13.097656 7.046875 -12.640625 C 6.640625 -12.191406 6.332031 -11.628906 6.125 -10.953125 C 5.914062 -10.273438 5.8125 -9.492188 5.8125 -8.609375 C 5.8125 -6.878906 6.222656 -5.519531 7.046875 -4.53125 C 7.878906 -3.539062 9.050781 -3.046875 10.5625 -3.046875 C 11.0625 -3.046875 11.570312 -3.113281 12.09375 -3.25 C 12.613281 -3.394531 13.144531 -3.617188 13.6875 -3.921875 C 14.082031 -4.128906 14.4375 -4.195312 14.75 -4.125 C 15.0625 -4.0625 15.320312 -3.90625 15.53125 -3.65625 C 15.75 -3.414062 15.878906 -3.125 15.921875 -2.78125 C 15.972656 -2.445312 15.929688 -2.113281 15.796875 -1.78125 C 15.671875 -1.457031 15.429688 -1.191406 15.078125 -0.984375 C 14.316406 -0.515625 13.503906 -0.175781 12.640625 0.03125 C 11.773438 0.238281 10.957031 0.34375 10.1875 0.34375 Z M 10.1875 0.34375 "/></g></g></g><g fill="#000000" fill-opacity="1"><g transform="translate(252.396273, 46.973634)"><g><path d="M 4.4375 0.25 C 3.738281 0.25 3.203125 0.0390625 2.828125 -0.375 C 2.460938 -0.800781 2.28125 -1.390625 2.28125 -2.140625 L 2.28125 -14.984375 C 2.28125 -15.753906 2.460938 -16.34375 2.828125 -16.75 C 3.203125 -17.15625 3.738281 -17.359375 4.4375 -17.359375 C 5.144531 -17.359375 5.691406 -17.15625 6.078125 -16.75 C 6.460938 -16.34375 6.65625 -15.753906 6.65625 -14.984375 L 6.65625 -2.140625 C 6.65625 -1.390625 6.46875 -0.800781 6.09375 -0.375 C 5.71875 0.0390625 5.164062 0.25 4.4375 0.25 Z M 4.4375 -20.609375 C 3.625 -20.609375 2.988281 -20.8125 2.53125 -21.21875 C 2.082031 -21.632812 1.859375 -22.203125 1.859375 -22.921875 C 1.859375 -23.671875 2.082031 -24.242188 2.53125 -24.640625 C 2.988281 -25.035156 3.625 -25.234375 4.4375 -25.234375 C 5.28125 -25.234375 5.921875 -25.035156 6.359375 -24.640625 C 6.804688 -24.242188 7.03125 -23.671875 7.03125 -22.921875 C 7.03125 -22.203125 6.804688 -21.632812 6.359375 -21.21875 C 5.921875 -20.8125 5.28125 -20.609375 4.4375 -20.609375 Z M 4.4375 -20.609375 "/></g></g></g><g fill="#000000" fill-opacity="1"><g transform="translate(261.319276, 46.973634)"><g/></g></g><g fill="#000000" fill-opacity="1"><g transform="translate(270.802125, 46.973634)"><g><path d="M 1.398438 -11.511719 L 26.140625 -11.511719 C 24.636719 -10.429688 22.78125 -8.503906 21.488281 -6.71875 L 24.636719 -4.96875 C 27.050781 -8.050781 30.621094 -11.234375 33.769531 -13.296875 C 30.621094 -15.363281 27.050781 -18.546875 24.636719 -21.625 L 21.488281 -19.878906 C 22.78125 -18.09375 24.636719 -16.167969 26.140625 -15.082031 L 1.398438 -15.082031 Z M 1.398438 -11.511719 "/></g></g></g><g fill="#000000" fill-opacity="1"><g transform="translate(305.794213, 46.973634)"><g/></g></g><g fill="#000000" fill-opacity="1"><g transform="translate(315.277061, 46.973634)"><g><path d="M 5.078125 0 C 4.304688 0 3.710938 -0.203125 3.296875 -0.609375 C 2.890625 -1.015625 2.6875 -1.601562 2.6875 -2.375 L 2.6875 -22.296875 C 2.6875 -23.066406 2.890625 -23.65625 3.296875 -24.0625 C 3.710938 -24.46875 4.304688 -24.671875 5.078125 -24.671875 L 13.46875 -24.671875 C 15.195312 -24.671875 16.664062 -24.414062 17.875 -23.90625 C 19.09375 -23.394531 20.019531 -22.660156 20.65625 -21.703125 C 21.300781 -20.742188 21.625 -19.597656 21.625 -18.265625 C 21.625 -16.773438 21.191406 -15.515625 20.328125 -14.484375 C 19.472656 -13.460938 18.296875 -12.773438 16.796875 -12.421875 L 16.796875 -12.953125 C 18.523438 -12.691406 19.867188 -12.035156 20.828125 -10.984375 C 21.785156 -9.941406 22.265625 -8.578125 22.265625 -6.890625 C 22.265625 -4.703125 21.519531 -3.003906 20.03125 -1.796875 C 18.550781 -0.597656 16.492188 0 13.859375 0 Z M 7 -3.390625 L 13.296875 -3.390625 C 14.890625 -3.390625 16.054688 -3.695312 16.796875 -4.3125 C 17.546875 -4.9375 17.921875 -5.867188 17.921875 -7.109375 C 17.921875 -8.367188 17.546875 -9.300781 16.796875 -9.90625 C 16.054688 -10.507812 14.890625 -10.8125 13.296875 -10.8125 L 7 -10.8125 Z M 7 -14.203125 L 12.703125 -14.203125 C 14.242188 -14.203125 15.394531 -14.5 16.15625 -15.09375 C 16.914062 -15.695312 17.296875 -16.582031 17.296875 -17.75 C 17.296875 -18.914062 16.914062 -19.796875 16.15625 -20.390625 C 15.394531 -20.984375 14.242188 -21.28125 12.703125 -21.28125 L 7 -21.28125 Z M 7 -14.203125 "/></g></g></g><g fill="#000000" fill-opacity="1"><g transform="translate(339.351628, 46.973634)"><g><path d="M 7.90625 0.34375 C 6.675781 0.34375 5.578125 0.109375 4.609375 -0.359375 C 3.640625 -0.835938 2.878906 -1.484375 2.328125 -2.296875 C 1.773438 -3.117188 1.5 -4.046875 1.5 -5.078125 C 1.5 -6.335938 1.828125 -7.332031 2.484375 -8.0625 C 3.140625 -8.800781 4.203125 -9.332031 5.671875 -9.65625 C 7.140625 -9.988281 9.109375 -10.15625 11.578125 -10.15625 L 13.328125 -10.15625 L 13.328125 -7.625 L 11.625 -7.625 C 10.175781 -7.625 9.019531 -7.550781 8.15625 -7.40625 C 7.289062 -7.269531 6.675781 -7.03125 6.3125 -6.6875 C 5.957031 -6.351562 5.78125 -5.882812 5.78125 -5.28125 C 5.78125 -4.507812 6.046875 -3.878906 6.578125 -3.390625 C 7.117188 -2.898438 7.863281 -2.65625 8.8125 -2.65625 C 9.582031 -2.65625 10.265625 -2.835938 10.859375 -3.203125 C 11.460938 -3.566406 11.9375 -4.0625 12.28125 -4.6875 C 12.632812 -5.320312 12.8125 -6.046875 12.8125 -6.859375 L 12.8125 -10.890625 C 12.8125 -12.054688 12.550781 -12.894531 12.03125 -13.40625 C 11.519531 -13.914062 10.660156 -14.171875 9.453125 -14.171875 C 8.773438 -14.171875 8.046875 -14.085938 7.265625 -13.921875 C 6.484375 -13.765625 5.660156 -13.488281 4.796875 -13.09375 C 4.347656 -12.882812 3.953125 -12.828125 3.609375 -12.921875 C 3.273438 -13.015625 3.015625 -13.207031 2.828125 -13.5 C 2.648438 -13.789062 2.5625 -14.109375 2.5625 -14.453125 C 2.5625 -14.804688 2.648438 -15.148438 2.828125 -15.484375 C 3.015625 -15.828125 3.332031 -16.078125 3.78125 -16.234375 C 4.851562 -16.679688 5.882812 -17 6.875 -17.1875 C 7.863281 -17.375 8.769531 -17.46875 9.59375 -17.46875 C 11.269531 -17.46875 12.648438 -17.207031 13.734375 -16.6875 C 14.816406 -16.175781 15.625 -15.398438 16.15625 -14.359375 C 16.695312 -13.328125 16.96875 -11.992188 16.96875 -10.359375 L 16.96875 -1.953125 C 16.96875 -1.234375 16.789062 -0.679688 16.4375 -0.296875 C 16.09375 0.0859375 15.59375 0.28125 14.9375 0.28125 C 14.289062 0.28125 13.785156 0.0859375 13.421875 -0.296875 C 13.054688 -0.679688 12.875 -1.234375 12.875 -1.953125 L 12.875 -3.640625 L 13.15625 -3.640625 C 13 -2.828125 12.679688 -2.117188 12.203125 -1.515625 C 11.722656 -0.921875 11.117188 -0.460938 10.390625 -0.140625 C 9.671875 0.179688 8.84375 0.34375 7.90625 0.34375 Z M 7.90625 0.34375 "/></g></g></g><g fill="#000000" fill-opacity="1"><g transform="translate(358.492328, 46.973634)"><g><path d="M 4.4375 0.28125 C 3.738281 0.28125 3.203125 0.0859375 2.828125 -0.296875 C 2.460938 -0.679688 2.28125 -1.234375 2.28125 -1.953125 L 2.28125 -15.1875 C 2.28125 -15.914062 2.460938 -16.460938 2.828125 -16.828125 C 3.203125 -17.203125 3.726562 -17.390625 4.40625 -17.390625 C 5.082031 -17.390625 5.609375 -17.203125 5.984375 -16.828125 C 6.359375 -16.460938 6.546875 -15.914062 6.546875 -15.1875 L 6.546875 -12.8125 L 6.15625 -13.6875 C 6.675781 -14.925781 7.476562 -15.863281 8.5625 -16.5 C 9.644531 -17.144531 10.875 -17.46875 12.25 -17.46875 C 13.625 -17.46875 14.753906 -17.207031 15.640625 -16.6875 C 16.523438 -16.175781 17.191406 -15.398438 17.640625 -14.359375 C 18.085938 -13.328125 18.3125 -12.019531 18.3125 -10.4375 L 18.3125 -1.953125 C 18.3125 -1.234375 18.125 -0.679688 17.75 -0.296875 C 17.375 0.0859375 16.835938 0.28125 16.140625 0.28125 C 15.429688 0.28125 14.882812 0.0859375 14.5 -0.296875 C 14.125 -0.679688 13.9375 -1.234375 13.9375 -1.953125 L 13.9375 -10.21875 C 13.9375 -11.550781 13.679688 -12.519531 13.171875 -13.125 C 12.671875 -13.726562 11.894531 -14.03125 10.84375 -14.03125 C 9.5625 -14.03125 8.539062 -13.628906 7.78125 -12.828125 C 7.03125 -12.023438 6.65625 -10.957031 6.65625 -9.625 L 6.65625 -1.953125 C 6.65625 -0.460938 5.914062 0.28125 4.4375 0.28125 Z M 4.4375 0.28125 "/></g></g></g><g fill="#000000" fill-opacity="1"><g transform="translate(378.962694, 46.973634)"><g><path d="M 10.703125 0.34375 C 8.773438 0.34375 7.109375 -0.015625 5.703125 -0.734375 C 4.304688 -1.453125 3.226562 -2.476562 2.46875 -3.8125 C 1.707031 -5.144531 1.328125 -6.722656 1.328125 -8.546875 C 1.328125 -10.316406 1.691406 -11.863281 2.421875 -13.1875 C 3.160156 -14.519531 4.175781 -15.566406 5.46875 -16.328125 C 6.769531 -17.085938 8.25 -17.46875 9.90625 -17.46875 C 11.113281 -17.46875 12.203125 -17.269531 13.171875 -16.875 C 14.140625 -16.476562 14.96875 -15.90625 15.65625 -15.15625 C 16.34375 -14.40625 16.867188 -13.5 17.234375 -12.4375 C 17.597656 -11.375 17.78125 -10.179688 17.78125 -8.859375 C 17.78125 -8.429688 17.632812 -8.109375 17.34375 -7.890625 C 17.050781 -7.671875 16.632812 -7.5625 16.09375 -7.5625 L 4.859375 -7.5625 L 4.859375 -10.078125 L 14.703125 -10.078125 L 14.140625 -9.5625 C 14.140625 -10.632812 13.976562 -11.53125 13.65625 -12.25 C 13.34375 -12.96875 12.890625 -13.519531 12.296875 -13.90625 C 11.703125 -14.289062 10.960938 -14.484375 10.078125 -14.484375 C 9.097656 -14.484375 8.265625 -14.253906 7.578125 -13.796875 C 6.890625 -13.347656 6.363281 -12.707031 6 -11.875 C 5.632812 -11.050781 5.453125 -10.066406 5.453125 -8.921875 L 5.453125 -8.6875 C 5.453125 -6.769531 5.898438 -5.335938 6.796875 -4.390625 C 7.703125 -3.441406 9.03125 -2.96875 10.78125 -2.96875 C 11.382812 -2.96875 12.066406 -3.046875 12.828125 -3.203125 C 13.585938 -3.359375 14.304688 -3.617188 14.984375 -3.984375 C 15.472656 -4.265625 15.898438 -4.390625 16.265625 -4.359375 C 16.640625 -4.328125 16.9375 -4.191406 17.15625 -3.953125 C 17.382812 -3.722656 17.519531 -3.4375 17.5625 -3.09375 C 17.613281 -2.757812 17.550781 -2.414062 17.375 -2.0625 C 17.195312 -1.71875 16.898438 -1.414062 16.484375 -1.15625 C 15.671875 -0.644531 14.734375 -0.265625 13.671875 -0.015625 C 12.609375 0.222656 11.617188 0.34375 10.703125 0.34375 Z M 10.703125 0.34375 "/></g></g></g><g fill="#000000" fill-opacity="1"><g transform="translate(149.357155, 78.473632)"><g><path d="M 1.398438 -11.511719 L 26.140625 -11.511719 C 24.636719 -10.429688 22.78125 -8.503906 21.488281 -6.71875 L 24.636719 -4.96875 C 27.050781 -8.050781 30.621094 -11.234375 33.769531 -13.296875 C 30.621094 -15.363281 27.050781 -18.546875 24.636719 -21.625 L 21.488281 -19.878906 C 22.78125 -18.09375 24.636719 -16.167969 26.140625 -15.082031 L 1.398438 -15.082031 Z M 1.398438 -11.511719 "/></g></g></g><g fill="#000000" fill-opacity="1"><g transform="translate(184.349248, 78.473632)"><g/></g></g><g fill="#000000" fill-opacity="1"><g transform="translate(193.832108, 78.473632)"><g><path d="M 4.796875 0.28125 C 4.140625 0.28125 3.632812 0.09375 3.28125 -0.28125 C 2.9375 -0.65625 2.765625 -1.164062 2.765625 -1.8125 L 2.765625 -22.859375 C 2.765625 -23.535156 2.953125 -24.050781 3.328125 -24.40625 C 3.703125 -24.769531 4.210938 -24.953125 4.859375 -24.953125 C 5.441406 -24.953125 5.898438 -24.84375 6.234375 -24.625 C 6.578125 -24.40625 6.890625 -24.023438 7.171875 -23.484375 L 15.8125 -7.484375 L 14.703125 -7.484375 L 23.34375 -23.484375 C 23.625 -24.023438 23.925781 -24.40625 24.25 -24.625 C 24.582031 -24.84375 25.039062 -24.953125 25.625 -24.953125 C 26.269531 -24.953125 26.769531 -24.769531 27.125 -24.40625 C 27.476562 -24.050781 27.65625 -23.535156 27.65625 -22.859375 L 27.65625 -1.8125 C 27.65625 -1.164062 27.484375 -0.65625 27.140625 -0.28125 C 26.804688 0.09375 26.300781 0.28125 25.625 0.28125 C 24.96875 0.28125 24.460938 0.09375 24.109375 -0.28125 C 23.765625 -0.65625 23.59375 -1.164062 23.59375 -1.8125 L 23.59375 -18.03125 L 24.359375 -18.03125 L 17.015625 -4.625 C 16.773438 -4.226562 16.523438 -3.9375 16.265625 -3.75 C 16.015625 -3.5625 15.664062 -3.46875 15.21875 -3.46875 C 14.78125 -3.46875 14.421875 -3.566406 14.140625 -3.765625 C 13.859375 -3.960938 13.613281 -4.25 13.40625 -4.625 L 5.984375 -18.0625 L 6.828125 -18.0625 L 6.828125 -1.8125 C 6.828125 -1.164062 6.65625 -0.65625 6.3125 -0.28125 C 5.976562 0.09375 5.472656 0.28125 4.796875 0.28125 Z M 4.796875 0.28125 "/></g></g></g><g fill="#000000" fill-opacity="1"><g transform="translate(224.205252, 78.473632)"><g><path d="M 4.4375 0.25 C 3.738281 0.25 3.203125 0.0390625 2.828125 -0.375 C 2.460938 -0.800781 2.28125 -1.390625 2.28125 -2.140625 L 2.28125 -14.984375 C 2.28125 -15.753906 2.460938 -16.34375 2.828125 -16.75 C 3.203125 -17.15625 3.738281 -17.359375 4.4375 -17.359375 C 5.144531 -17.359375 5.691406 -17.15625 6.078125 -16.75 C 6.460938 -16.34375 6.65625 -15.753906 6.65625 -14.984375 L 6.65625 -2.140625 C 6.65625 -1.390625 6.46875 -0.800781 6.09375 -0.375 C 5.71875 0.0390625 5.164062 0.25 4.4375 0.25 Z M 4.4375 -20.609375 C 3.625 -20.609375 2.988281 -20.8125 2.53125 -21.21875 C 2.082031 -21.632812 1.859375 -22.203125 1.859375 -22.921875 C 1.859375 -23.671875 2.082031 -24.242188 2.53125 -24.640625 C 2.988281 -25.035156 3.625 -25.234375 4.4375 -25.234375 C 5.28125 -25.234375 5.921875 -25.035156 6.359375 -24.640625 C 6.804688 -24.242188 7.03125 -23.671875 7.03125 -22.921875 C 7.03125 -22.203125 6.804688 -21.632812 6.359375 -21.21875 C 5.921875 -20.8125 5.28125 -20.609375 4.4375 -20.609375 Z M 4.4375 -20.609375 "/></g></g></g><g fill="#000000" fill-opacity="1"><g transform="translate(233.128232, 78.473632)"><g><path d="M 6.609375 6.578125 C 6.097656 6.578125 5.675781 6.441406 5.34375 6.171875 C 5.019531 5.910156 4.828125 5.554688 4.765625 5.109375 C 4.710938 4.660156 4.789062 4.191406 5 3.703125 L 7.390625 -1.578125 L 7.390625 0.25 L 1.015625 -14.484375 C 0.804688 -15.003906 0.734375 -15.484375 0.796875 -15.921875 C 0.867188 -16.367188 1.085938 -16.722656 1.453125 -16.984375 C 1.816406 -17.253906 2.3125 -17.390625 2.9375 -17.390625 C 3.476562 -17.390625 3.910156 -17.265625 4.234375 -17.015625 C 4.554688 -16.773438 4.847656 -16.316406 5.109375 -15.640625 L 9.828125 -3.84375 L 8.78125 -3.84375 L 13.609375 -15.6875 C 13.867188 -16.332031 14.171875 -16.773438 14.515625 -17.015625 C 14.867188 -17.265625 15.335938 -17.390625 15.921875 -17.390625 C 16.429688 -17.390625 16.835938 -17.253906 17.140625 -16.984375 C 17.453125 -16.722656 17.640625 -16.375 17.703125 -15.9375 C 17.773438 -15.507812 17.695312 -15.039062 17.46875 -14.53125 L 8.953125 4.90625 C 8.648438 5.550781 8.320312 5.988281 7.96875 6.21875 C 7.625 6.457031 7.171875 6.578125 6.609375 6.578125 Z M 6.609375 6.578125 "/></g></g></g><g fill="#000000" fill-opacity="1"><g transform="translate(251.184124, 78.473632)"><g><path d="M 7.90625 0.34375 C 6.675781 0.34375 5.578125 0.109375 4.609375 -0.359375 C 3.640625 -0.835938 2.878906 -1.484375 2.328125 -2.296875 C 1.773438 -3.117188 1.5 -4.046875 1.5 -5.078125 C 1.5 -6.335938 1.828125 -7.332031 2.484375 -8.0625 C 3.140625 -8.800781 4.203125 -9.332031 5.671875 -9.65625 C 7.140625 -9.988281 9.109375 -10.15625 11.578125 -10.15625 L 13.328125 -10.15625 L 13.328125 -7.625 L 11.625 -7.625 C 10.175781 -7.625 9.019531 -7.550781 8.15625 -7.40625 C 7.289062 -7.269531 6.675781 -7.03125 6.3125 -6.6875 C 5.957031 -6.351562 5.78125 -5.882812 5.78125 -5.28125 C 5.78125 -4.507812 6.046875 -3.878906 6.578125 -3.390625 C 7.117188 -2.898438 7.863281 -2.65625 8.8125 -2.65625 C 9.582031 -2.65625 10.265625 -2.835938 10.859375 -3.203125 C 11.460938 -3.566406 11.9375 -4.0625 12.28125 -4.6875 C 12.632812 -5.320312 12.8125 -6.046875 12.8125 -6.859375 L 12.8125 -10.890625 C 12.8125 -12.054688 12.550781 -12.894531 12.03125 -13.40625 C 11.519531 -13.914062 10.660156 -14.171875 9.453125 -14.171875 C 8.773438 -14.171875 8.046875 -14.085938 7.265625 -13.921875 C 6.484375 -13.765625 5.660156 -13.488281 4.796875 -13.09375 C 4.347656 -12.882812 3.953125 -12.828125 3.609375 -12.921875 C 3.273438 -13.015625 3.015625 -13.207031 2.828125 -13.5 C 2.648438 -13.789062 2.5625 -14.109375 2.5625 -14.453125 C 2.5625 -14.804688 2.648438 -15.148438 2.828125 -15.484375 C 3.015625 -15.828125 3.332031 -16.078125 3.78125 -16.234375 C 4.851562 -16.679688 5.882812 -17 6.875 -17.1875 C 7.863281 -17.375 8.769531 -17.46875 9.59375 -17.46875 C 11.269531 -17.46875 12.648438 -17.207031 13.734375 -16.6875 C 14.816406 -16.175781 15.625 -15.398438 16.15625 -14.359375 C 16.695312 -13.328125 16.96875 -11.992188 16.96875 -10.359375 L 16.96875 -1.953125 C 16.96875 -1.234375 16.789062 -0.679688 16.4375 -0.296875 C 16.09375 0.0859375 15.59375 0.28125 14.9375 0.28125 C 14.289062 0.28125 13.785156 0.0859375 13.421875 -0.296875 C 13.054688 -0.679688 12.875 -1.234375 12.875 -1.953125 L 12.875 -3.640625 L 13.15625 -3.640625 C 13 -2.828125 12.679688 -2.117188 12.203125 -1.515625 C 11.722656 -0.921875 11.117188 -0.460938 10.390625 -0.140625 C 9.671875 0.179688 8.84375 0.34375 7.90625 0.34375 Z M 7.90625 0.34375 "/></g></g></g></svg>