<svg xmlns="http://www.w3.org/2000/svg" xmlns:xlink="http://www.w3.org/1999/xlink" width="768" zoomAndPan="magnify" viewBox="0 0 576 207.75" height="277" preserveAspectRatio="xMidYMid meet" version="1.0"><defs><g/></defs><g fill="#000000" fill-opacity="1"><g transform="translate(104.805996, 179.457901)"><g><path d="M 10.484375 -5.875 L 26.015625 -5.875 L 26.015625 0 L 3.171875 0 L 3.171875 -35.5 L 10.484375 -35.5 Z M 10.484375 -5.875 "/></g></g></g><g fill="#000000" fill-opacity="1"><g transform="translate(130.283953, 179.457901)"><g><path d="M 32.28125 -16.953125 C 32.28125 -13.628906 31.742188 -10.742188 30.671875 -8.296875 C 29.597656 -5.859375 28.113281 -3.894531 26.21875 -2.40625 L 32.109375 2.21875 L 27.453125 6.34375 L 19.890625 0.265625 C 19.035156 0.410156 18.144531 0.484375 17.21875 0.484375 C 14.269531 0.484375 11.640625 -0.21875 9.328125 -1.625 C 7.023438 -3.039062 5.238281 -5.0625 3.96875 -7.6875 C 2.707031 -10.3125 2.066406 -13.332031 2.046875 -16.75 L 2.046875 -18.5 C 2.046875 -22 2.675781 -25.078125 3.9375 -27.734375 C 5.195312 -30.390625 6.976562 -32.425781 9.28125 -33.84375 C 11.582031 -35.269531 14.210938 -35.984375 17.171875 -35.984375 C 20.128906 -35.984375 22.753906 -35.269531 25.046875 -33.84375 C 27.347656 -32.425781 29.128906 -30.390625 30.390625 -27.734375 C 31.648438 -25.078125 32.28125 -22.007812 32.28125 -18.53125 Z M 24.875 -18.5625 C 24.875 -22.28125 24.207031 -25.101562 22.875 -27.03125 C 21.539062 -28.96875 19.640625 -29.9375 17.171875 -29.9375 C 14.710938 -29.9375 12.816406 -28.984375 11.484375 -27.078125 C 10.148438 -25.171875 9.472656 -22.367188 9.453125 -18.671875 L 9.453125 -16.953125 C 9.453125 -13.328125 10.117188 -10.515625 11.453125 -8.515625 C 12.785156 -6.515625 14.707031 -5.515625 17.21875 -5.515625 C 19.664062 -5.515625 21.546875 -6.476562 22.859375 -8.40625 C 24.179688 -10.332031 24.851562 -13.140625 24.875 -16.828125 Z M 24.875 -18.5625 "/></g></g></g><g fill="#000000" fill-opacity="1"><g transform="translate(164.758557, 179.457901)"><g><path d="M 31.265625 -4.484375 C 29.941406 -2.910156 28.078125 -1.6875 25.671875 -0.8125 C 23.265625 0.0507812 20.597656 0.484375 17.671875 0.484375 C 14.597656 0.484375 11.90625 -0.179688 9.59375 -1.515625 C 7.28125 -2.859375 5.492188 -4.804688 4.234375 -7.359375 C 2.972656 -9.910156 2.328125 -12.910156 2.296875 -16.359375 L 2.296875 -18.78125 C 2.296875 -22.320312 2.890625 -25.390625 4.078125 -27.984375 C 5.273438 -30.578125 7 -32.554688 9.25 -33.921875 C 11.5 -35.296875 14.140625 -35.984375 17.171875 -35.984375 C 21.378906 -35.984375 24.664062 -34.976562 27.03125 -32.96875 C 29.40625 -30.96875 30.816406 -28.050781 31.265625 -24.21875 L 24.140625 -24.21875 C 23.816406 -26.25 23.097656 -27.734375 21.984375 -28.671875 C 20.867188 -29.617188 19.335938 -30.09375 17.390625 -30.09375 C 14.898438 -30.09375 13.003906 -29.15625 11.703125 -27.28125 C 10.398438 -25.414062 9.742188 -22.640625 9.734375 -18.953125 L 9.734375 -16.671875 C 9.734375 -12.953125 10.4375 -10.140625 11.84375 -8.234375 C 13.257812 -6.335938 15.332031 -5.390625 18.0625 -5.390625 C 20.8125 -5.390625 22.769531 -5.972656 23.9375 -7.140625 L 23.9375 -13.265625 L 17.28125 -13.265625 L 17.28125 -18.65625 L 31.265625 -18.65625 Z M 31.265625 -4.484375 "/></g></g></g><g fill="#000000" fill-opacity="1"><g transform="translate(198.769923, 179.457901)"><g><path d="M 16.3125 -13 L 10.484375 -13 L 10.484375 0 L 3.171875 0 L 3.171875 -35.5 L 16.359375 -35.5 C 20.554688 -35.5 23.789062 -34.5625 26.0625 -32.6875 C 28.34375 -30.820312 29.484375 -28.1875 29.484375 -24.78125 C 29.484375 -22.351562 28.957031 -20.328125 27.90625 -18.703125 C 26.851562 -17.085938 25.265625 -15.800781 23.140625 -14.84375 L 30.828125 -0.34375 L 30.828125 0 L 22.96875 0 Z M 10.484375 -18.921875 L 16.390625 -18.921875 C 18.222656 -18.921875 19.644531 -19.382812 20.65625 -20.3125 C 21.664062 -21.25 22.171875 -22.539062 22.171875 -24.1875 C 22.171875 -25.863281 21.691406 -27.179688 20.734375 -28.140625 C 19.785156 -29.097656 18.328125 -29.578125 16.359375 -29.578125 L 10.484375 -29.578125 Z M 10.484375 -18.921875 "/></g></g></g><g fill="#000000" fill-opacity="1"><g transform="translate(230.635769, 179.457901)"><g><path d="M 32.28125 -16.953125 C 32.28125 -13.628906 31.742188 -10.742188 30.671875 -8.296875 C 29.597656 -5.859375 28.113281 -3.894531 26.21875 -2.40625 L 32.109375 2.21875 L 27.453125 6.34375 L 19.890625 0.265625 C 19.035156 0.410156 18.144531 0.484375 17.21875 0.484375 C 14.269531 0.484375 11.640625 -0.21875 9.328125 -1.625 C 7.023438 -3.039062 5.238281 -5.0625 3.96875 -7.6875 C 2.707031 -10.3125 2.066406 -13.332031 2.046875 -16.75 L 2.046875 -18.5 C 2.046875 -22 2.675781 -25.078125 3.9375 -27.734375 C 5.195312 -30.390625 6.976562 -32.425781 9.28125 -33.84375 C 11.582031 -35.269531 14.210938 -35.984375 17.171875 -35.984375 C 20.128906 -35.984375 22.753906 -35.269531 25.046875 -33.84375 C 27.347656 -32.425781 29.128906 -30.390625 30.390625 -27.734375 C 31.648438 -25.078125 32.28125 -22.007812 32.28125 -18.53125 Z M 24.875 -18.5625 C 24.875 -22.28125 24.207031 -25.101562 22.875 -27.03125 C 21.539062 -28.96875 19.640625 -29.9375 17.171875 -29.9375 C 14.710938 -29.9375 12.816406 -28.984375 11.484375 -27.078125 C 10.148438 -25.171875 9.472656 -22.367188 9.453125 -18.671875 L 9.453125 -16.953125 C 9.453125 -13.328125 10.117188 -10.515625 11.453125 -8.515625 C 12.785156 -6.515625 14.707031 -5.515625 17.21875 -5.515625 C 19.664062 -5.515625 21.546875 -6.476562 22.859375 -8.40625 C 24.179688 -10.332031 24.851562 -13.140625 24.875 -16.828125 Z M 24.875 -18.5625 "/></g></g></g><g fill="#000000" fill-opacity="1"><g transform="translate(265.110372, 179.457901)"><g><path d="M 32.0625 0 L 24.75 0 L 24.75 -15.21875 L 10.484375 -15.21875 L 10.484375 0 L 3.171875 0 L 3.171875 -35.5 L 10.484375 -35.5 L 10.484375 -21.109375 L 24.75 -21.109375 L 24.75 -35.5 L 32.0625 -35.5 Z M 32.0625 0 "/></g></g></g><g fill="#000000" fill-opacity="1"><g transform="translate(300.389546, 179.457901)"><g><path d="M 16.28125 -8.796875 L 24.328125 -35.5 L 32.484375 -35.5 L 20.109375 0 L 12.484375 0 L 0.171875 -35.5 L 8.296875 -35.5 Z M 16.28125 -8.796875 "/></g></g></g><g fill="#000000" fill-opacity="1"><g transform="translate(333.03557, 179.457901)"><g><path d="M 10.484375 -5.875 L 26.015625 -5.875 L 26.015625 0 L 3.171875 0 L 3.171875 -35.5 L 10.484375 -35.5 Z M 10.484375 -5.875 "/></g></g></g><g fill="#000000" fill-opacity="1"><g transform="translate(360.074008, 179.457901)"><g><path d="M 3.171875 0 L 3.171875 -35.5 L 14.09375 -35.5 C 17.21875 -35.5 20.007812 -34.796875 22.46875 -33.390625 C 24.925781 -31.984375 26.847656 -29.984375 28.234375 -27.390625 C 29.617188 -24.796875 30.3125 -21.851562 30.3125 -18.5625 L 30.3125 -16.921875 C 30.3125 -13.617188 29.628906 -10.679688 28.265625 -8.109375 C 26.910156 -5.546875 25 -3.554688 22.53125 -2.140625 C 20.0625 -0.734375 17.273438 -0.0195312 14.171875 0 Z M 10.484375 -29.578125 L 10.484375 -5.875 L 14.015625 -5.875 C 16.878906 -5.875 19.066406 -6.804688 20.578125 -8.671875 C 22.085938 -10.546875 22.859375 -13.222656 22.890625 -16.703125 L 22.890625 -18.578125 C 22.890625 -22.191406 22.140625 -24.925781 20.640625 -26.78125 C 19.148438 -28.644531 16.96875 -29.578125 14.09375 -29.578125 Z M 10.484375 -29.578125 "/></g></g></g><g fill="#000000" fill-opacity="1"><g transform="translate(392.524984, 179.457901)"><g/></g></g><g fill="#000000" fill-opacity="1"><g transform="translate(404.95927, 179.457901)"><g><path d="M 25.109375 -18.1875 L 3.3125 -18.1875 L 3.3125 -23.9375 L 25.109375 -23.9375 Z M 25.109375 -7.625 L 3.3125 -7.625 L 3.3125 -13.390625 L 25.109375 -13.390625 Z M 25.109375 -7.625 "/></g></g></g><g fill="#000000" fill-opacity="1"><g transform="translate(433.533694, 179.457901)"><g/></g></g><g fill="#000000" fill-opacity="1"><g transform="translate(445.967934, 179.457901)"><g><path d="M 8.46875 -10.90625 C 8.46875 -13.175781 8.742188 -14.984375 9.296875 -16.328125 C 9.847656 -17.679688 10.859375 -19.007812 12.328125 -20.3125 C 13.796875 -21.625 14.773438 -22.691406 15.265625 -23.515625 C 15.753906 -24.335938 16 -25.203125 16 -26.109375 C 16 -28.859375 14.726562 -30.234375 12.1875 -30.234375 C 10.988281 -30.234375 10.023438 -29.863281 9.296875 -29.125 C 8.578125 -28.382812 8.203125 -27.363281 8.171875 -26.0625 L 1.09375 -26.0625 C 1.125 -29.164062 2.128906 -31.59375 4.109375 -33.34375 C 6.085938 -35.101562 8.78125 -35.984375 12.1875 -35.984375 C 15.632812 -35.984375 18.304688 -35.148438 20.203125 -33.484375 C 22.109375 -31.816406 23.0625 -29.46875 23.0625 -26.4375 C 23.0625 -25.050781 22.753906 -23.742188 22.140625 -22.515625 C 21.523438 -21.285156 20.441406 -19.925781 18.890625 -18.4375 L 16.921875 -16.5625 C 15.679688 -15.375 14.972656 -13.984375 14.796875 -12.390625 L 14.703125 -10.90625 Z M 7.75 -3.40625 C 7.75 -4.5 8.117188 -5.398438 8.859375 -6.109375 C 9.597656 -6.816406 10.546875 -7.171875 11.703125 -7.171875 C 12.859375 -7.171875 13.804688 -6.816406 14.546875 -6.109375 C 15.285156 -5.398438 15.65625 -4.5 15.65625 -3.40625 C 15.65625 -2.332031 15.289062 -1.445312 14.5625 -0.75 C 13.84375 -0.0507812 12.890625 0.296875 11.703125 0.296875 C 10.515625 0.296875 9.554688 -0.0507812 8.828125 -0.75 C 8.109375 -1.445312 7.75 -2.332031 7.75 -3.40625 Z M 7.75 -3.40625 "/></g></g></g><g fill="#000000" fill-opacity="1"><g transform="translate(14.787766, 60.600921)"><g><path d="M 31.046875 -11.828125 C 30.765625 -8.003906 29.351562 -4.992188 26.8125 -2.796875 C 24.269531 -0.609375 20.914062 0.484375 16.75 0.484375 C 12.195312 0.484375 8.613281 -1.046875 6 -4.109375 C 3.394531 -7.171875 2.09375 -11.378906 2.09375 -16.734375 L 2.09375 -18.890625 C 2.09375 -22.304688 2.691406 -25.316406 3.890625 -27.921875 C 5.097656 -30.523438 6.816406 -32.519531 9.046875 -33.90625 C 11.285156 -35.289062 13.882812 -35.984375 16.84375 -35.984375 C 20.945312 -35.984375 24.25 -34.882812 26.75 -32.6875 C 29.25 -30.5 30.695312 -27.421875 31.09375 -23.453125 L 23.78125 -23.453125 C 23.59375 -25.742188 22.953125 -27.40625 21.859375 -28.4375 C 20.765625 -29.46875 19.09375 -29.984375 16.84375 -29.984375 C 14.40625 -29.984375 12.582031 -29.109375 11.375 -27.359375 C 10.164062 -25.617188 9.546875 -22.910156 9.515625 -19.234375 L 9.515625 -16.5625 C 9.515625 -12.71875 10.09375 -9.910156 11.25 -8.140625 C 12.414062 -6.367188 14.25 -5.484375 16.75 -5.484375 C 19.007812 -5.484375 20.695312 -6 21.8125 -7.03125 C 22.925781 -8.0625 23.5625 -9.660156 23.71875 -11.828125 Z M 31.046875 -11.828125 "/></g></g></g><g fill="#000000" fill-opacity="1"><g transform="translate(47.458182, 60.600921)"><g><path d="M 1.609375 -13.4375 C 1.609375 -16.050781 2.113281 -18.378906 3.125 -20.421875 C 4.132812 -22.472656 5.582031 -24.0625 7.46875 -25.1875 C 9.363281 -26.3125 11.5625 -26.875 14.0625 -26.875 C 17.625 -26.875 20.53125 -25.78125 22.78125 -23.59375 C 25.03125 -21.414062 26.285156 -18.460938 26.546875 -14.734375 L 26.609375 -12.921875 C 26.609375 -8.878906 25.476562 -5.632812 23.21875 -3.1875 C 20.957031 -0.738281 17.921875 0.484375 14.109375 0.484375 C 10.304688 0.484375 7.269531 -0.734375 5 -3.171875 C 2.738281 -5.609375 1.609375 -8.925781 1.609375 -13.125 Z M 8.65625 -12.921875 C 8.65625 -10.421875 9.125 -8.503906 10.0625 -7.171875 C 11.007812 -5.847656 12.363281 -5.1875 14.125 -5.1875 C 15.820312 -5.1875 17.148438 -5.84375 18.109375 -7.15625 C 19.078125 -8.46875 19.5625 -10.5625 19.5625 -13.4375 C 19.5625 -15.894531 19.078125 -17.796875 18.109375 -19.140625 C 17.148438 -20.492188 15.800781 -21.171875 14.0625 -21.171875 C 12.34375 -21.171875 11.007812 -20.5 10.0625 -19.15625 C 9.125 -17.8125 8.65625 -15.734375 8.65625 -12.921875 Z M 8.65625 -12.921875 "/></g></g></g><g fill="#000000" fill-opacity="1"><g transform="translate(75.691274, 60.600921)"><g><path d="M 26.484375 -12.953125 C 26.484375 -8.722656 25.578125 -5.425781 23.765625 -3.0625 C 21.960938 -0.695312 19.445312 0.484375 16.21875 0.484375 C 13.351562 0.484375 11.066406 -0.609375 9.359375 -2.796875 L 9.046875 0 L 2.703125 0 L 2.703125 -37.453125 L 9.75 -37.453125 L 9.75 -24.015625 C 11.375 -25.921875 13.515625 -26.875 16.171875 -26.875 C 19.390625 -26.875 21.910156 -25.691406 23.734375 -23.328125 C 25.566406 -20.960938 26.484375 -17.632812 26.484375 -13.34375 Z M 19.4375 -13.453125 C 19.4375 -16.117188 19.007812 -18.066406 18.15625 -19.296875 C 17.3125 -20.523438 16.054688 -21.140625 14.390625 -21.140625 C 12.140625 -21.140625 10.59375 -20.222656 9.75 -18.390625 L 9.75 -7.96875 C 10.613281 -6.113281 12.175781 -5.1875 14.4375 -5.1875 C 16.707031 -5.1875 18.203125 -6.3125 18.921875 -8.5625 C 19.265625 -9.632812 19.4375 -11.265625 19.4375 -13.453125 Z M 19.4375 -13.453125 "/></g></g></g><g fill="#000000" fill-opacity="1"><g transform="translate(103.80246, 60.600921)"><g><path d="M 18 0 C 17.664062 -0.632812 17.425781 -1.421875 17.28125 -2.359375 C 15.582031 -0.460938 13.363281 0.484375 10.625 0.484375 C 8.039062 0.484375 5.898438 -0.257812 4.203125 -1.75 C 2.503906 -3.25 1.65625 -5.132812 1.65625 -7.40625 C 1.65625 -10.207031 2.691406 -12.351562 4.765625 -13.84375 C 6.835938 -15.34375 9.832031 -16.101562 13.75 -16.125 L 17 -16.125 L 17 -17.625 C 17 -18.84375 16.6875 -19.816406 16.0625 -20.546875 C 15.4375 -21.285156 14.445312 -21.65625 13.09375 -21.65625 C 11.90625 -21.65625 10.972656 -21.367188 10.296875 -20.796875 C 9.628906 -20.234375 9.296875 -19.453125 9.296875 -18.453125 L 2.25 -18.453125 C 2.25 -19.984375 2.71875 -21.398438 3.65625 -22.703125 C 4.601562 -24.003906 5.9375 -25.023438 7.65625 -25.765625 C 9.375 -26.503906 11.304688 -26.875 13.453125 -26.875 C 16.710938 -26.875 19.296875 -26.054688 21.203125 -24.421875 C 23.109375 -22.785156 24.0625 -20.488281 24.0625 -17.53125 L 24.0625 -6.09375 C 24.082031 -3.59375 24.429688 -1.703125 25.109375 -0.421875 L 25.109375 0 Z M 12.171875 -4.90625 C 13.210938 -4.90625 14.171875 -5.132812 15.046875 -5.59375 C 15.921875 -6.0625 16.570312 -6.6875 17 -7.46875 L 17 -12 L 14.359375 -12 C 10.835938 -12 8.960938 -10.78125 8.734375 -8.34375 L 8.703125 -7.921875 C 8.703125 -7.046875 9.007812 -6.320312 9.625 -5.75 C 10.25 -5.1875 11.097656 -4.90625 12.171875 -4.90625 Z M 12.171875 -4.90625 "/></g></g></g><g fill="#000000" fill-opacity="1"><g transform="translate(130.572697, 60.600921)"><g/></g></g><g fill="#000000" fill-opacity="1"><g transform="translate(143.00696, 60.600921)"><g><path d="M 11.140625 -32.875 L 11.140625 -26.390625 L 15.65625 -26.390625 L 15.65625 -21.21875 L 11.140625 -21.21875 L 11.140625 -8.046875 C 11.140625 -7.066406 11.328125 -6.363281 11.703125 -5.9375 C 12.078125 -5.519531 12.789062 -5.3125 13.84375 -5.3125 C 14.625 -5.3125 15.316406 -5.367188 15.921875 -5.484375 L 15.921875 -0.140625 C 14.535156 0.273438 13.113281 0.484375 11.65625 0.484375 C 6.71875 0.484375 4.195312 -2.007812 4.09375 -7 L 4.09375 -21.21875 L 0.25 -21.21875 L 0.25 -26.390625 L 4.09375 -26.390625 L 4.09375 -32.875 Z M 11.140625 -32.875 "/></g></g></g><g fill="#000000" fill-opacity="1"><g transform="translate(159.878548, 60.600921)"><g><path d="M 14.84375 0.484375 C 10.976562 0.484375 7.828125 -0.695312 5.390625 -3.0625 C 2.960938 -5.4375 1.75 -8.601562 1.75 -12.5625 L 1.75 -13.234375 C 1.75 -15.890625 2.257812 -18.257812 3.28125 -20.34375 C 4.3125 -22.4375 5.765625 -24.046875 7.640625 -25.171875 C 9.515625 -26.304688 11.65625 -26.875 14.0625 -26.875 C 17.675781 -26.875 20.519531 -25.734375 22.59375 -23.453125 C 24.664062 -21.179688 25.703125 -17.957031 25.703125 -13.78125 L 25.703125 -10.90625 L 8.90625 -10.90625 C 9.125 -9.175781 9.804688 -7.789062 10.953125 -6.75 C 12.097656 -5.707031 13.550781 -5.1875 15.3125 -5.1875 C 18.03125 -5.1875 20.148438 -6.171875 21.671875 -8.140625 L 25.140625 -4.265625 C 24.078125 -2.773438 22.644531 -1.609375 20.84375 -0.765625 C 19.039062 0.0664062 17.039062 0.484375 14.84375 0.484375 Z M 14.046875 -21.171875 C 12.648438 -21.171875 11.515625 -20.695312 10.640625 -19.75 C 9.773438 -18.8125 9.21875 -17.460938 8.96875 -15.703125 L 18.78125 -15.703125 L 18.78125 -16.265625 C 18.75 -17.828125 18.320312 -19.035156 17.5 -19.890625 C 16.6875 -20.742188 15.535156 -21.171875 14.046875 -21.171875 Z M 14.046875 -21.171875 "/></g></g></g><g fill="#000000" fill-opacity="1"><g transform="translate(186.868213, 60.600921)"><g><path d="M 26.484375 -12.953125 C 26.484375 -8.722656 25.578125 -5.425781 23.765625 -3.0625 C 21.960938 -0.695312 19.445312 0.484375 16.21875 0.484375 C 13.351562 0.484375 11.066406 -0.609375 9.359375 -2.796875 L 9.046875 0 L 2.703125 0 L 2.703125 -37.453125 L 9.75 -37.453125 L 9.75 -24.015625 C 11.375 -25.921875 13.515625 -26.875 16.171875 -26.875 C 19.390625 -26.875 21.910156 -25.691406 23.734375 -23.328125 C 25.566406 -20.960938 26.484375 -17.632812 26.484375 -13.34375 Z M 19.4375 -13.453125 C 19.4375 -16.117188 19.007812 -18.066406 18.15625 -19.296875 C 17.3125 -20.523438 16.054688 -21.140625 14.390625 -21.140625 C 12.140625 -21.140625 10.59375 -20.222656 9.75 -18.390625 L 9.75 -7.96875 C 10.613281 -6.113281 12.175781 -5.1875 14.4375 -5.1875 C 16.707031 -5.1875 18.203125 -6.3125 18.921875 -8.5625 C 19.265625 -9.632812 19.4375 -11.265625 19.4375 -13.453125 Z M 19.4375 -13.453125 "/></g></g></g><g fill="#000000" fill-opacity="1"><g transform="translate(214.979411, 60.600921)"><g><path d="M 18 0 C 17.664062 -0.632812 17.425781 -1.421875 17.28125 -2.359375 C 15.582031 -0.460938 13.363281 0.484375 10.625 0.484375 C 8.039062 0.484375 5.898438 -0.257812 4.203125 -1.75 C 2.503906 -3.25 1.65625 -5.132812 1.65625 -7.40625 C 1.65625 -10.207031 2.691406 -12.351562 4.765625 -13.84375 C 6.835938 -15.34375 9.832031 -16.101562 13.75 -16.125 L 17 -16.125 L 17 -17.625 C 17 -18.84375 16.6875 -19.816406 16.0625 -20.546875 C 15.4375 -21.285156 14.445312 -21.65625 13.09375 -21.65625 C 11.90625 -21.65625 10.972656 -21.367188 10.296875 -20.796875 C 9.628906 -20.234375 9.296875 -19.453125 9.296875 -18.453125 L 2.25 -18.453125 C 2.25 -19.984375 2.71875 -21.398438 3.65625 -22.703125 C 4.601562 -24.003906 5.9375 -25.023438 7.65625 -25.765625 C 9.375 -26.503906 11.304688 -26.875 13.453125 -26.875 C 16.710938 -26.875 19.296875 -26.054688 21.203125 -24.421875 C 23.109375 -22.785156 24.0625 -20.488281 24.0625 -17.53125 L 24.0625 -6.09375 C 24.082031 -3.59375 24.429688 -1.703125 25.109375 -0.421875 L 25.109375 0 Z M 12.171875 -4.90625 C 13.210938 -4.90625 14.171875 -5.132812 15.046875 -5.59375 C 15.921875 -6.0625 16.570312 -6.6875 17 -7.46875 L 17 -12 L 14.359375 -12 C 10.835938 -12 8.960938 -10.78125 8.734375 -8.34375 L 8.703125 -7.921875 C 8.703125 -7.046875 9.007812 -6.320312 9.625 -5.75 C 10.25 -5.1875 11.097656 -4.90625 12.171875 -4.90625 Z M 12.171875 -4.90625 "/></g></g></g><g fill="#000000" fill-opacity="1"><g transform="translate(241.749624, 60.600921)"><g><path d="M 12.296875 -10.578125 L 9.75 -8.046875 L 9.75 0 L 2.703125 0 L 2.703125 -37.453125 L 9.75 -37.453125 L 9.75 -16.703125 L 11.125 -18.453125 L 17.875 -26.390625 L 26.328125 -26.390625 L 16.796875 -15.390625 L 27.15625 0 L 19.0625 0 Z M 12.296875 -10.578125 "/></g></g></g><g fill="#000000" fill-opacity="1"><g transform="translate(268.42236, 60.600921)"><g/></g></g><g fill="#000000" fill-opacity="1"><g transform="translate(280.8566, 60.600921)"><g><path d="M 12.296875 -10.578125 L 9.75 -8.046875 L 9.75 0 L 2.703125 0 L 2.703125 -37.453125 L 9.75 -37.453125 L 9.75 -16.703125 L 11.125 -18.453125 L 17.875 -26.390625 L 26.328125 -26.390625 L 16.796875 -15.390625 L 27.15625 0 L 19.0625 0 Z M 12.296875 -10.578125 "/></g></g></g><g fill="#000000" fill-opacity="1"><g transform="translate(307.529335, 60.600921)"><g><path d="M 18 0 C 17.664062 -0.632812 17.425781 -1.421875 17.28125 -2.359375 C 15.582031 -0.460938 13.363281 0.484375 10.625 0.484375 C 8.039062 0.484375 5.898438 -0.257812 4.203125 -1.75 C 2.503906 -3.25 1.65625 -5.132812 1.65625 -7.40625 C 1.65625 -10.207031 2.691406 -12.351562 4.765625 -13.84375 C 6.835938 -15.34375 9.832031 -16.101562 13.75 -16.125 L 17 -16.125 L 17 -17.625 C 17 -18.84375 16.6875 -19.816406 16.0625 -20.546875 C 15.4375 -21.285156 14.445312 -21.65625 13.09375 -21.65625 C 11.90625 -21.65625 10.972656 -21.367188 10.296875 -20.796875 C 9.628906 -20.234375 9.296875 -19.453125 9.296875 -18.453125 L 2.25 -18.453125 C 2.25 -19.984375 2.71875 -21.398438 3.65625 -22.703125 C 4.601562 -24.003906 5.9375 -25.023438 7.65625 -25.765625 C 9.375 -26.503906 11.304688 -26.875 13.453125 -26.875 C 16.710938 -26.875 19.296875 -26.054688 21.203125 -24.421875 C 23.109375 -22.785156 24.0625 -20.488281 24.0625 -17.53125 L 24.0625 -6.09375 C 24.082031 -3.59375 24.429688 -1.703125 25.109375 -0.421875 L 25.109375 0 Z M 12.171875 -4.90625 C 13.210938 -4.90625 14.171875 -5.132812 15.046875 -5.59375 C 15.921875 -6.0625 16.570312 -6.6875 17 -7.46875 L 17 -12 L 14.359375 -12 C 10.835938 -12 8.960938 -10.78125 8.734375 -8.34375 L 8.703125 -7.921875 C 8.703125 -7.046875 9.007812 -6.320312 9.625 -5.75 C 10.25 -5.1875 11.097656 -4.90625 12.171875 -4.90625 Z M 12.171875 -4.90625 "/></g></g></g><g fill="#000000" fill-opacity="1"><g transform="translate(334.299549, 60.600921)"><g><path d="M 11.140625 -32.875 L 11.140625 -26.390625 L 15.65625 -26.390625 L 15.65625 -21.21875 L 11.140625 -21.21875 L 11.140625 -8.046875 C 11.140625 -7.066406 11.328125 -6.363281 11.703125 -5.9375 C 12.078125 -5.519531 12.789062 -5.3125 13.84375 -5.3125 C 14.625 -5.3125 15.316406 -5.367188 15.921875 -5.484375 L 15.921875 -0.140625 C 14.535156 0.273438 13.113281 0.484375 11.65625 0.484375 C 6.71875 0.484375 4.195312 -2.007812 4.09375 -7 L 4.09375 -21.21875 L 0.25 -21.21875 L 0.25 -26.390625 L 4.09375 -26.390625 L 4.09375 -32.875 Z M 11.140625 -32.875 "/></g></g></g><g fill="#000000" fill-opacity="1"><g transform="translate(351.171137, 60.600921)"><g><path d="M 18 0 C 17.664062 -0.632812 17.425781 -1.421875 17.28125 -2.359375 C 15.582031 -0.460938 13.363281 0.484375 10.625 0.484375 C 8.039062 0.484375 5.898438 -0.257812 4.203125 -1.75 C 2.503906 -3.25 1.65625 -5.132812 1.65625 -7.40625 C 1.65625 -10.207031 2.691406 -12.351562 4.765625 -13.84375 C 6.835938 -15.34375 9.832031 -16.101562 13.75 -16.125 L 17 -16.125 L 17 -17.625 C 17 -18.84375 16.6875 -19.816406 16.0625 -20.546875 C 15.4375 -21.285156 14.445312 -21.65625 13.09375 -21.65625 C 11.90625 -21.65625 10.972656 -21.367188 10.296875 -20.796875 C 9.628906 -20.234375 9.296875 -19.453125 9.296875 -18.453125 L 2.25 -18.453125 C 2.25 -19.984375 2.71875 -21.398438 3.65625 -22.703125 C 4.601562 -24.003906 5.9375 -25.023438 7.65625 -25.765625 C 9.375 -26.503906 11.304688 -26.875 13.453125 -26.875 C 16.710938 -26.875 19.296875 -26.054688 21.203125 -24.421875 C 23.109375 -22.785156 24.0625 -20.488281 24.0625 -17.53125 L 24.0625 -6.09375 C 24.082031 -3.59375 24.429688 -1.703125 25.109375 -0.421875 L 25.109375 0 Z M 12.171875 -4.90625 C 13.210938 -4.90625 14.171875 -5.132812 15.046875 -5.59375 C 15.921875 -6.0625 16.570312 -6.6875 17 -7.46875 L 17 -12 L 14.359375 -12 C 10.835938 -12 8.960938 -10.78125 8.734375 -8.34375 L 8.703125 -7.921875 C 8.703125 -7.046875 9.007812 -6.320312 9.625 -5.75 C 10.25 -5.1875 11.097656 -4.90625 12.171875 -4.90625 Z M 12.171875 -4.90625 "/></g></g></g><g fill="#000000" fill-opacity="1"><g transform="translate(377.941396, 60.600921)"><g/></g></g><g fill="#000000" fill-opacity="1"><g transform="translate(390.375636, 60.600921)"><g><path d="M 26.484375 -12.953125 C 26.484375 -8.722656 25.578125 -5.425781 23.765625 -3.0625 C 21.960938 -0.695312 19.445312 0.484375 16.21875 0.484375 C 13.351562 0.484375 11.066406 -0.609375 9.359375 -2.796875 L 9.046875 0 L 2.703125 0 L 2.703125 -37.453125 L 9.75 -37.453125 L 9.75 -24.015625 C 11.375 -25.921875 13.515625 -26.875 16.171875 -26.875 C 19.390625 -26.875 21.910156 -25.691406 23.734375 -23.328125 C 25.566406 -20.960938 26.484375 -17.632812 26.484375 -13.34375 Z M 19.4375 -13.453125 C 19.4375 -16.117188 19.007812 -18.066406 18.15625 -19.296875 C 17.3125 -20.523438 16.054688 -21.140625 14.390625 -21.140625 C 12.140625 -21.140625 10.59375 -20.222656 9.75 -18.390625 L 9.75 -7.96875 C 10.613281 -6.113281 12.175781 -5.1875 14.4375 -5.1875 C 16.707031 -5.1875 18.203125 -6.3125 18.921875 -8.5625 C 19.265625 -9.632812 19.4375 -11.265625 19.4375 -13.453125 Z M 19.4375 -13.453125 "/></g></g></g><g fill="#000000" fill-opacity="1"><g transform="translate(418.486857, 60.600921)"><g><path d="M 14.84375 0.484375 C 10.976562 0.484375 7.828125 -0.695312 5.390625 -3.0625 C 2.960938 -5.4375 1.75 -8.601562 1.75 -12.5625 L 1.75 -13.234375 C 1.75 -15.890625 2.257812 -18.257812 3.28125 -20.34375 C 4.3125 -22.4375 5.765625 -24.046875 7.640625 -25.171875 C 9.515625 -26.304688 11.65625 -26.875 14.0625 -26.875 C 17.675781 -26.875 20.519531 -25.734375 22.59375 -23.453125 C 24.664062 -21.179688 25.703125 -17.957031 25.703125 -13.78125 L 25.703125 -10.90625 L 8.90625 -10.90625 C 9.125 -9.175781 9.804688 -7.789062 10.953125 -6.75 C 12.097656 -5.707031 13.550781 -5.1875 15.3125 -5.1875 C 18.03125 -5.1875 20.148438 -6.171875 21.671875 -8.140625 L 25.140625 -4.265625 C 24.078125 -2.773438 22.644531 -1.609375 20.84375 -0.765625 C 19.039062 0.0664062 17.039062 0.484375 14.84375 0.484375 Z M 14.046875 -21.171875 C 12.648438 -21.171875 11.515625 -20.695312 10.640625 -19.75 C 9.773438 -18.8125 9.21875 -17.460938 8.96875 -15.703125 L 18.78125 -15.703125 L 18.78125 -16.265625 C 18.75 -17.828125 18.320312 -19.035156 17.5 -19.890625 C 16.6875 -20.742188 15.535156 -21.171875 14.046875 -21.171875 Z M 14.046875 -21.171875 "/></g></g></g><g fill="#000000" fill-opacity="1"><g transform="translate(445.476487, 60.600921)"><g><path d="M 17.53125 -19.78125 C 16.570312 -19.90625 15.726562 -19.96875 15 -19.96875 C 12.332031 -19.96875 10.582031 -19.066406 9.75 -17.265625 L 9.75 0 L 2.703125 0 L 2.703125 -26.390625 L 9.359375 -26.390625 L 9.5625 -23.234375 C 10.976562 -25.660156 12.9375 -26.875 15.4375 -26.875 C 16.21875 -26.875 16.945312 -26.765625 17.625 -26.546875 Z M 17.53125 -19.78125 "/></g></g></g><g fill="#000000" fill-opacity="1"><g transform="translate(463.689036, 60.600921)"><g><path d="M 10.140625 0 L 3.078125 0 L 3.078125 -26.390625 L 10.140625 -26.390625 Z M 2.65625 -33.203125 C 2.65625 -34.265625 3.007812 -35.132812 3.71875 -35.8125 C 4.425781 -36.5 5.390625 -36.84375 6.609375 -36.84375 C 7.804688 -36.84375 8.765625 -36.5 9.484375 -35.8125 C 10.203125 -35.132812 10.5625 -34.265625 10.5625 -33.203125 C 10.5625 -32.128906 10.195312 -31.25 9.46875 -30.5625 C 8.75 -29.882812 7.796875 -29.546875 6.609375 -29.546875 C 5.421875 -29.546875 4.460938 -29.882812 3.734375 -30.5625 C 3.015625 -31.25 2.65625 -32.128906 2.65625 -33.203125 Z M 2.65625 -33.203125 "/></g></g></g><g fill="#000000" fill-opacity="1"><g transform="translate(476.927881, 60.600921)"><g><path d="M 12.296875 -10.578125 L 9.75 -8.046875 L 9.75 0 L 2.703125 0 L 2.703125 -37.453125 L 9.75 -37.453125 L 9.75 -16.703125 L 11.125 -18.453125 L 17.875 -26.390625 L 26.328125 -26.390625 L 16.796875 -15.390625 L 27.15625 0 L 19.0625 0 Z M 12.296875 -10.578125 "/></g></g></g><g fill="#000000" fill-opacity="1"><g transform="translate(503.600571, 60.600921)"><g><path d="M 18.5 -2.6875 C 16.757812 -0.570312 14.359375 0.484375 11.296875 0.484375 C 8.460938 0.484375 6.300781 -0.328125 4.8125 -1.953125 C 3.320312 -3.578125 2.5625 -5.957031 2.53125 -9.09375 L 2.53125 -26.390625 L 9.578125 -26.390625 L 9.578125 -9.34375 C 9.578125 -6.59375 10.832031 -5.21875 13.34375 -5.21875 C 15.726562 -5.21875 17.367188 -6.046875 18.265625 -7.703125 L 18.265625 -26.390625 L 25.328125 -26.390625 L 25.328125 0 L 18.703125 0 Z M 18.5 -2.6875 "/></g></g></g><g fill="#000000" fill-opacity="1"><g transform="translate(531.541114, 60.600921)"><g><path d="M 11.140625 -32.875 L 11.140625 -26.390625 L 15.65625 -26.390625 L 15.65625 -21.21875 L 11.140625 -21.21875 L 11.140625 -8.046875 C 11.140625 -7.066406 11.328125 -6.363281 11.703125 -5.9375 C 12.078125 -5.519531 12.789062 -5.3125 13.84375 -5.3125 C 14.625 -5.3125 15.316406 -5.367188 15.921875 -5.484375 L 15.921875 -0.140625 C 14.535156 0.273438 13.113281 0.484375 11.65625 0.484375 C 6.71875 0.484375 4.195312 -2.007812 4.09375 -7 L 4.09375 -21.21875 L 0.25 -21.21875 L 0.25 -26.390625 L 4.09375 -26.390625 L 4.09375 -32.875 Z M 11.140625 -32.875 "/></g></g></g><g fill="#000000" fill-opacity="1"><g transform="translate(548.415126, 60.600921)"><g/></g></g><g fill="#000000" fill-opacity="1"><g transform="translate(109.464454, 120.029414)"><g><path d="M 24.53125 -14.515625 L 10.484375 -14.515625 L 10.484375 0 L 3.171875 0 L 3.171875 -35.5 L 26.28125 -35.5 L 26.28125 -29.578125 L 10.484375 -29.578125 L 10.484375 -20.40625 L 24.53125 -20.40625 Z M 24.53125 -14.515625 "/></g></g></g><g fill="#000000" fill-opacity="1"><g transform="translate(136.819833, 120.029414)"><g><path d="M 14.28125 -14.234375 L 10.484375 -10.140625 L 10.484375 0 L 3.171875 0 L 3.171875 -35.5 L 10.484375 -35.5 L 10.484375 -19.40625 L 13.703125 -23.828125 L 22.75 -35.5 L 31.75 -35.5 L 19.140625 -19.71875 L 32.109375 0 L 23.40625 0 Z M 14.28125 -14.234375 "/></g></g></g><g fill="#000000" fill-opacity="1"><g transform="translate(168.515012, 120.029414)"><g><path d="M 10.484375 -5.875 L 26.015625 -5.875 L 26.015625 0 L 3.171875 0 L 3.171875 -35.5 L 10.484375 -35.5 Z M 10.484375 -5.875 "/></g></g></g><g fill="#000000" fill-opacity="1"><g transform="translate(193.992969, 120.029414)"><g><path d="M 32.28125 -16.953125 C 32.28125 -13.628906 31.742188 -10.742188 30.671875 -8.296875 C 29.597656 -5.859375 28.113281 -3.894531 26.21875 -2.40625 L 32.109375 2.21875 L 27.453125 6.34375 L 19.890625 0.265625 C 19.035156 0.410156 18.144531 0.484375 17.21875 0.484375 C 14.269531 0.484375 11.640625 -0.21875 9.328125 -1.625 C 7.023438 -3.039062 5.238281 -5.0625 3.96875 -7.6875 C 2.707031 -10.3125 2.066406 -13.332031 2.046875 -16.75 L 2.046875 -18.5 C 2.046875 -22 2.675781 -25.078125 3.9375 -27.734375 C 5.195312 -30.390625 6.976562 -32.425781 9.28125 -33.84375 C 11.582031 -35.269531 14.210938 -35.984375 17.171875 -35.984375 C 20.128906 -35.984375 22.753906 -35.269531 25.046875 -33.84375 C 27.347656 -32.425781 29.128906 -30.390625 30.390625 -27.734375 C 31.648438 -25.078125 32.28125 -22.007812 32.28125 -18.53125 Z M 24.875 -18.5625 C 24.875 -22.28125 24.207031 -25.101562 22.875 -27.03125 C 21.539062 -28.96875 19.640625 -29.9375 17.171875 -29.9375 C 14.710938 -29.9375 12.816406 -28.984375 11.484375 -27.078125 C 10.148438 -25.171875 9.472656 -22.367188 9.453125 -18.671875 L 9.453125 -16.953125 C 9.453125 -13.328125 10.117188 -10.515625 11.453125 -8.515625 C 12.785156 -6.515625 14.707031 -5.515625 17.21875 -5.515625 C 19.664062 -5.515625 21.546875 -6.476562 22.859375 -8.40625 C 24.179688 -10.332031 24.851562 -13.140625 24.875 -16.828125 Z M 24.875 -18.5625 "/></g></g></g><g fill="#000000" fill-opacity="1"><g transform="translate(228.467573, 120.029414)"><g><path d="M 3.171875 0 L 3.171875 -35.5 L 14.09375 -35.5 C 17.21875 -35.5 20.007812 -34.796875 22.46875 -33.390625 C 24.925781 -31.984375 26.847656 -29.984375 28.234375 -27.390625 C 29.617188 -24.796875 30.3125 -21.851562 30.3125 -18.5625 L 30.3125 -16.921875 C 30.3125 -13.617188 29.628906 -10.679688 28.265625 -8.109375 C 26.910156 -5.546875 25 -3.554688 22.53125 -2.140625 C 20.0625 -0.734375 17.273438 -0.0195312 14.171875 0 Z M 10.484375 -29.578125 L 10.484375 -5.875 L 14.015625 -5.875 C 16.878906 -5.875 19.066406 -6.804688 20.578125 -8.671875 C 22.085938 -10.546875 22.859375 -13.222656 22.890625 -16.703125 L 22.890625 -18.578125 C 22.890625 -22.191406 22.140625 -24.925781 20.640625 -26.78125 C 19.148438 -28.644531 16.96875 -29.578125 14.09375 -29.578125 Z M 10.484375 -29.578125 "/></g></g></g><g fill="#000000" fill-opacity="1"><g transform="translate(260.918561, 120.029414)"><g/></g></g><g fill="#000000" fill-opacity="1"><g transform="translate(273.352824, 120.029414)"><g><path d="M 25.109375 -18.1875 L 3.3125 -18.1875 L 3.3125 -23.9375 L 25.109375 -23.9375 Z M 25.109375 -7.625 L 3.3125 -7.625 L 3.3125 -13.390625 L 25.109375 -13.390625 Z M 25.109375 -7.625 "/></g></g></g><g fill="#000000" fill-opacity="1"><g transform="translate(301.927248, 120.029414)"><g/></g></g><g fill="#000000" fill-opacity="1"><g transform="translate(314.361511, 120.029414)"><g><path d="M 31.046875 -11.828125 C 30.765625 -8.003906 29.351562 -4.992188 26.8125 -2.796875 C 24.269531 -0.609375 20.914062 0.484375 16.75 0.484375 C 12.195312 0.484375 8.613281 -1.046875 6 -4.109375 C 3.394531 -7.171875 2.09375 -11.378906 2.09375 -16.734375 L 2.09375 -18.890625 C 2.09375 -22.304688 2.691406 -25.316406 3.890625 -27.921875 C 5.097656 -30.523438 6.816406 -32.519531 9.046875 -33.90625 C 11.285156 -35.289062 13.882812 -35.984375 16.84375 -35.984375 C 20.945312 -35.984375 24.25 -34.882812 26.75 -32.6875 C 29.25 -30.5 30.695312 -27.421875 31.09375 -23.453125 L 23.78125 -23.453125 C 23.59375 -25.742188 22.953125 -27.40625 21.859375 -28.4375 C 20.765625 -29.46875 19.09375 -29.984375 16.84375 -29.984375 C 14.40625 -29.984375 12.582031 -29.109375 11.375 -27.359375 C 10.164062 -25.617188 9.546875 -22.910156 9.515625 -19.234375 L 9.515625 -16.5625 C 9.515625 -12.71875 10.09375 -9.910156 11.25 -8.140625 C 12.414062 -6.367188 14.25 -5.484375 16.75 -5.484375 C 19.007812 -5.484375 20.695312 -6 21.8125 -7.03125 C 22.925781 -8.0625 23.5625 -9.660156 23.71875 -11.828125 Z M 31.046875 -11.828125 "/></g></g></g><g fill="#000000" fill-opacity="1"><g transform="translate(347.031927, 120.029414)"><g><path d="M 32.0625 0 L 24.75 0 L 24.75 -15.21875 L 10.484375 -15.21875 L 10.484375 0 L 3.171875 0 L 3.171875 -35.5 L 10.484375 -35.5 L 10.484375 -21.109375 L 24.75 -21.109375 L 24.75 -35.5 L 32.0625 -35.5 Z M 32.0625 0 "/></g></g></g><g fill="#000000" fill-opacity="1"><g transform="translate(382.311111, 120.029414)"><g><path d="M 10.953125 0 L 3.640625 0 L 3.640625 -35.5 L 10.953125 -35.5 Z M 10.953125 0 "/></g></g></g><g fill="#000000" fill-opacity="1"><g transform="translate(396.866502, 120.029414)"><g><path d="M 32.046875 0 L 24.71875 0 L 10.484375 -23.359375 L 10.484375 0 L 3.171875 0 L 3.171875 -35.5 L 10.484375 -35.5 L 24.75 -12.09375 L 24.75 -35.5 L 32.046875 -35.5 Z M 32.046875 0 "/></g></g></g><g fill="#000000" fill-opacity="1"><g transform="translate(432.560173, 120.029414)"><g><path d="M 23.21875 -7.3125 L 10.390625 -7.3125 L 7.953125 0 L 0.171875 0 L 13.390625 -35.5 L 20.171875 -35.5 L 33.453125 0 L 25.671875 0 Z M 12.359375 -13.234375 L 21.234375 -13.234375 L 16.78125 -26.53125 Z M 12.359375 -13.234375 "/></g></g></g></svg>