<svg xmlns="http://www.w3.org/2000/svg" xmlns:xlink="http://www.w3.org/1999/xlink" width="560" zoomAndPan="magnify" viewBox="0 0 420 77.999999" height="104" preserveAspectRatio="xMidYMid meet" version="1.0"><defs><g/><clipPath id="9e9c242b69"><path d="M 0.0117188 2.132812 L 419.683594 2.132812 L 419.683594 75.632812 L 0.0117188 75.632812 Z M 0.0117188 2.132812 " clip-rule="nonzero"/></clipPath></defs><g clip-path="url(#9e9c242b69)"><path stroke-linecap="butt" transform="matrix(0.75, 0, 0, 0.75, 0.0111824, 2.131177)" fill="none" stroke-linejoin="miter" d="M 0.000715145 0.00218101 L 559.563243 0.00218101 L 559.563243 98.158436 L 0.000715145 98.158436 Z M 0.000715145 0.00218101 " stroke="#000000" stroke-width="12" stroke-opacity="1" stroke-miterlimit="4"/></g><g fill="#000000" fill-opacity="1"><g transform="translate(116.49778, 51.691398)"><g><path d="M 2.671875 0 L 2.671875 -27.515625 L 8.4375 -27.515625 L 8.4375 0 Z M 2.671875 0 "/></g></g></g><g fill="#000000" fill-opacity="1"><g transform="translate(127.609981, 51.691398)"><g><path d="M 16.484375 0 L 16.484375 -11.859375 C 16.484375 -15.566406 15.226562 -17.421875 12.71875 -17.421875 C 11.382812 -17.421875 10.3125 -16.847656 9.5 -15.703125 C 8.6875 -14.566406 8.28125 -13.109375 8.28125 -11.328125 L 8.28125 0 L 2.796875 0 L 2.796875 -16.40625 C 2.796875 -17.539062 2.78125 -18.46875 2.75 -19.1875 C 2.71875 -19.914062 2.679688 -20.566406 2.640625 -21.140625 L 7.875 -21.140625 C 7.914062 -20.890625 7.96875 -20.226562 8.03125 -19.15625 C 8.09375 -18.082031 8.125 -17.34375 8.125 -16.9375 L 8.203125 -16.9375 C 8.941406 -18.550781 9.867188 -19.722656 10.984375 -20.453125 C 12.109375 -21.179688 13.445312 -21.546875 15 -21.546875 C 17.238281 -21.546875 18.957031 -20.851562 20.15625 -19.46875 C 21.351562 -18.09375 21.953125 -16.078125 21.953125 -13.421875 L 21.953125 0 Z M 16.484375 0 "/></g></g></g><g fill="#000000" fill-opacity="1"><g transform="translate(152.041193, 51.691398)"><g><path d="M 16.484375 0 C 16.429688 -0.195312 16.367188 -0.6875 16.296875 -1.46875 C 16.222656 -2.257812 16.1875 -2.914062 16.1875 -3.4375 L 16.109375 -3.4375 C 14.929688 -0.882812 12.679688 0.390625 9.359375 0.390625 C 6.898438 0.390625 5 -0.566406 3.65625 -2.484375 C 2.3125 -4.410156 1.640625 -7.097656 1.640625 -10.546875 C 1.640625 -14.046875 2.34375 -16.75 3.75 -18.65625 C 5.164062 -20.570312 7.171875 -21.53125 9.765625 -21.53125 C 11.265625 -21.53125 12.554688 -21.21875 13.640625 -20.59375 C 14.734375 -19.96875 15.570312 -19.035156 16.15625 -17.796875 L 16.1875 -17.796875 L 16.15625 -21.265625 L 16.15625 -28.984375 L 21.640625 -28.984375 L 21.640625 -4.609375 C 21.640625 -3.304688 21.691406 -1.769531 21.796875 0 Z M 16.234375 -10.6875 C 16.234375 -12.96875 15.851562 -14.722656 15.09375 -15.953125 C 14.332031 -17.179688 13.207031 -17.796875 11.71875 -17.796875 C 10.25 -17.796875 9.15625 -17.195312 8.4375 -16 C 7.71875 -14.8125 7.359375 -12.992188 7.359375 -10.546875 C 7.359375 -5.753906 8.800781 -3.359375 11.6875 -3.359375 C 13.125 -3.359375 14.238281 -3.992188 15.03125 -5.265625 C 15.832031 -6.535156 16.234375 -8.34375 16.234375 -10.6875 Z M 16.234375 -10.6875 "/></g></g></g><g fill="#000000" fill-opacity="1"><g transform="translate(176.472405, 51.691398)"><g><path d="M 22.875 -10.59375 C 22.875 -7.164062 21.921875 -4.476562 20.015625 -2.53125 C 18.117188 -0.582031 15.488281 0.390625 12.125 0.390625 C 8.832031 0.390625 6.25 -0.582031 4.375 -2.53125 C 2.5 -4.488281 1.5625 -7.175781 1.5625 -10.59375 C 1.5625 -13.988281 2.5 -16.660156 4.375 -18.609375 C 6.25 -20.554688 8.875 -21.53125 12.25 -21.53125 C 15.695312 -21.53125 18.328125 -20.585938 20.140625 -18.703125 C 21.960938 -16.816406 22.875 -14.113281 22.875 -10.59375 Z M 17.125 -10.59375 C 17.125 -13.101562 16.710938 -14.921875 15.890625 -16.046875 C 15.078125 -17.179688 13.890625 -17.75 12.328125 -17.75 C 8.992188 -17.75 7.328125 -15.363281 7.328125 -10.59375 C 7.328125 -8.226562 7.734375 -6.429688 8.546875 -5.203125 C 9.359375 -3.972656 10.535156 -3.359375 12.078125 -3.359375 C 15.441406 -3.359375 17.125 -5.769531 17.125 -10.59375 Z M 17.125 -10.59375 "/></g></g></g><g fill="#000000" fill-opacity="1"><g transform="translate(200.903617, 51.691398)"><g><path d="M 16.484375 0 L 16.484375 -11.859375 C 16.484375 -15.566406 15.226562 -17.421875 12.71875 -17.421875 C 11.382812 -17.421875 10.3125 -16.847656 9.5 -15.703125 C 8.6875 -14.566406 8.28125 -13.109375 8.28125 -11.328125 L 8.28125 0 L 2.796875 0 L 2.796875 -16.40625 C 2.796875 -17.539062 2.78125 -18.46875 2.75 -19.1875 C 2.71875 -19.914062 2.679688 -20.566406 2.640625 -21.140625 L 7.875 -21.140625 C 7.914062 -20.890625 7.96875 -20.226562 8.03125 -19.15625 C 8.09375 -18.082031 8.125 -17.34375 8.125 -16.9375 L 8.203125 -16.9375 C 8.941406 -18.550781 9.867188 -19.722656 10.984375 -20.453125 C 12.109375 -21.179688 13.445312 -21.546875 15 -21.546875 C 17.238281 -21.546875 18.957031 -20.851562 20.15625 -19.46875 C 21.351562 -18.09375 21.953125 -16.078125 21.953125 -13.421875 L 21.953125 0 Z M 16.484375 0 "/></g></g></g><g fill="#000000" fill-opacity="1"><g transform="translate(225.334829, 51.691398)"><g><path d="M 11.453125 0.390625 C 8.273438 0.390625 5.832031 -0.546875 4.125 -2.421875 C 2.414062 -4.304688 1.5625 -7.054688 1.5625 -10.671875 C 1.5625 -14.160156 2.425781 -16.84375 4.15625 -18.71875 C 5.894531 -20.59375 8.351562 -21.53125 11.53125 -21.53125 C 14.5625 -21.53125 16.875 -20.519531 18.46875 -18.5 C 20.070312 -16.488281 20.875 -13.546875 20.875 -9.671875 L 20.875 -9.515625 L 7.328125 -9.515625 C 7.328125 -7.453125 7.707031 -5.894531 8.46875 -4.84375 C 9.226562 -3.800781 10.3125 -3.28125 11.71875 -3.28125 C 13.65625 -3.28125 14.878906 -4.117188 15.390625 -5.796875 L 20.5625 -5.359375 C 19.070312 -1.523438 16.035156 0.390625 11.453125 0.390625 Z M 11.453125 -18.0625 C 10.160156 -18.0625 9.164062 -17.613281 8.46875 -16.71875 C 7.769531 -15.820312 7.398438 -14.566406 7.359375 -12.953125 L 15.5625 -12.953125 C 15.457031 -14.660156 15.046875 -15.9375 14.328125 -16.78125 C 13.617188 -17.632812 12.660156 -18.0625 11.453125 -18.0625 Z M 11.453125 -18.0625 "/></g></g></g><g fill="#000000" fill-opacity="1"><g transform="translate(247.578755, 51.691398)"><g><path d="M 20.609375 -6.171875 C 20.609375 -4.128906 19.769531 -2.523438 18.09375 -1.359375 C 16.425781 -0.191406 14.113281 0.390625 11.15625 0.390625 C 8.25 0.390625 6.023438 -0.0664062 4.484375 -0.984375 C 2.941406 -1.898438 1.914062 -3.332031 1.40625 -5.28125 L 6.234375 -6 C 6.503906 -5 6.972656 -4.289062 7.640625 -3.875 C 8.316406 -3.457031 9.488281 -3.25 11.15625 -3.25 C 12.6875 -3.25 13.800781 -3.441406 14.5 -3.828125 C 15.207031 -4.222656 15.5625 -4.835938 15.5625 -5.671875 C 15.5625 -6.347656 15.28125 -6.882812 14.71875 -7.28125 C 14.15625 -7.675781 13.195312 -8.007812 11.84375 -8.28125 C 8.738281 -8.894531 6.644531 -9.460938 5.5625 -9.984375 C 4.488281 -10.515625 3.664062 -11.195312 3.09375 -12.03125 C 2.53125 -12.875 2.25 -13.910156 2.25 -15.140625 C 2.25 -17.160156 3.023438 -18.734375 4.578125 -19.859375 C 6.140625 -20.984375 8.34375 -21.546875 11.1875 -21.546875 C 13.707031 -21.546875 15.726562 -21.054688 17.25 -20.078125 C 18.78125 -19.097656 19.738281 -17.6875 20.125 -15.84375 L 15.25 -15.328125 C 15.09375 -16.191406 14.707031 -16.832031 14.09375 -17.25 C 13.488281 -17.675781 12.519531 -17.890625 11.1875 -17.890625 C 9.882812 -17.890625 8.90625 -17.722656 8.25 -17.390625 C 7.601562 -17.054688 7.28125 -16.5 7.28125 -15.71875 C 7.28125 -15.113281 7.53125 -14.628906 8.03125 -14.265625 C 8.539062 -13.910156 9.382812 -13.613281 10.5625 -13.375 C 12.21875 -13.039062 13.6875 -12.691406 14.96875 -12.328125 C 16.25 -11.972656 17.273438 -11.546875 18.046875 -11.046875 C 18.828125 -10.554688 19.445312 -9.921875 19.90625 -9.140625 C 20.375 -8.367188 20.609375 -7.378906 20.609375 -6.171875 Z M 20.609375 -6.171875 "/></g></g></g><g fill="#000000" fill-opacity="1"><g transform="translate(269.82268, 51.691398)"><g><path d="M 2.796875 -24.9375 L 2.796875 -28.984375 L 8.28125 -28.984375 L 8.28125 -24.9375 Z M 2.796875 0 L 2.796875 -21.140625 L 8.28125 -21.140625 L 8.28125 0 Z M 2.796875 0 "/></g></g></g><g fill="#000000" fill-opacity="1"><g transform="translate(280.934882, 51.691398)"><g><path d="M 7.671875 0.390625 C 5.628906 0.390625 4.035156 -0.164062 2.890625 -1.28125 C 1.742188 -2.394531 1.171875 -3.960938 1.171875 -5.984375 C 1.171875 -8.171875 1.882812 -9.835938 3.3125 -10.984375 C 4.738281 -12.128906 6.804688 -12.710938 9.515625 -12.734375 L 14.0625 -12.8125 L 14.0625 -13.890625 C 14.0625 -15.265625 13.820312 -16.285156 13.34375 -16.953125 C 12.863281 -17.628906 12.078125 -17.96875 10.984375 -17.96875 C 9.960938 -17.96875 9.210938 -17.734375 8.734375 -17.265625 C 8.265625 -16.804688 7.972656 -16.046875 7.859375 -14.984375 L 2.125 -15.25 C 2.476562 -17.3125 3.421875 -18.875 4.953125 -19.9375 C 6.484375 -21 8.570312 -21.53125 11.21875 -21.53125 C 13.882812 -21.53125 15.9375 -20.867188 17.375 -19.546875 C 18.820312 -18.234375 19.546875 -16.367188 19.546875 -13.953125 L 19.546875 -6.25 C 19.546875 -5.0625 19.679688 -4.242188 19.953125 -3.796875 C 20.222656 -3.347656 20.671875 -3.125 21.296875 -3.125 C 21.710938 -3.125 22.113281 -3.164062 22.5 -3.25 L 22.5 -0.28125 C 22.175781 -0.195312 21.882812 -0.117188 21.625 -0.046875 C 21.363281 0.015625 21.101562 0.0625 20.84375 0.09375 C 20.582031 0.132812 20.304688 0.164062 20.015625 0.1875 C 19.722656 0.21875 19.378906 0.234375 18.984375 0.234375 C 17.609375 0.234375 16.585938 -0.101562 15.921875 -0.78125 C 15.265625 -1.457031 14.875 -2.453125 14.75 -3.765625 L 14.625 -3.765625 C 13.09375 -0.992188 10.773438 0.390625 7.671875 0.390625 Z M 14.0625 -9.78125 L 11.25 -9.75 C 9.976562 -9.695312 9.070312 -9.554688 8.53125 -9.328125 C 8 -9.097656 7.59375 -8.75 7.3125 -8.28125 C 7.03125 -7.8125 6.890625 -7.1875 6.890625 -6.40625 C 6.890625 -5.40625 7.117188 -4.660156 7.578125 -4.171875 C 8.046875 -3.679688 8.664062 -3.4375 9.4375 -3.4375 C 10.289062 -3.4375 11.070312 -3.671875 11.78125 -4.140625 C 12.5 -4.609375 13.054688 -5.253906 13.453125 -6.078125 C 13.859375 -6.910156 14.0625 -7.789062 14.0625 -8.71875 Z M 14.0625 -9.78125 "/></g></g></g></svg>