<svg xmlns="http://www.w3.org/2000/svg" xmlns:xlink="http://www.w3.org/1999/xlink" width="560" zoomAndPan="magnify" viewBox="0 0 420 77.999999" height="104" preserveAspectRatio="xMidYMid meet" version="1.0"><defs><g/><clipPath id="aa62fb6c5a"><path d="M 0.0117188 2.132812 L 419.683594 2.132812 L 419.683594 75.632812 L 0.0117188 75.632812 Z M 0.0117188 2.132812 " clip-rule="nonzero"/></clipPath></defs><g clip-path="url(#aa62fb6c5a)"><path stroke-linecap="butt" transform="matrix(0.75, 0, 0, 0.75, 0.0111824, 2.131177)" fill="none" stroke-linejoin="miter" d="M 0.000715145 0.00218101 L 559.563243 0.00218101 L 559.563243 98.158436 L 0.000715145 98.158436 Z M 0.000715145 0.00218101 " stroke="#000000" stroke-width="12" stroke-opacity="1" stroke-miterlimit="4"/></g><g fill="#000000" fill-opacity="1"><g transform="translate(90.880594, 51.691398)"><g><path d="M 2.515625 0 L 2.515625 -4.078125 L 9.34375 -4.078125 L 9.34375 -22.859375 L 2.734375 -18.734375 L 2.734375 -23.046875 L 9.625 -27.515625 L 14.828125 -27.515625 L 14.828125 -4.078125 L 21.140625 -4.078125 L 21.140625 0 Z M 2.515625 0 "/></g></g></g><g fill="#000000" fill-opacity="1"><g transform="translate(113.124519, 51.691398)"><g><path d="M 20.796875 -9 C 20.796875 -6.070312 19.972656 -3.773438 18.328125 -2.109375 C 16.691406 -0.441406 14.429688 0.390625 11.546875 0.390625 C 8.304688 0.390625 5.816406 -0.742188 4.078125 -3.015625 C 2.335938 -5.285156 1.46875 -8.65625 1.46875 -13.125 C 1.46875 -18.03125 2.347656 -21.722656 4.109375 -24.203125 C 5.878906 -26.691406 8.40625 -27.9375 11.6875 -27.9375 C 14.007812 -27.9375 15.84375 -27.421875 17.1875 -26.390625 C 18.539062 -25.359375 19.5 -23.765625 20.0625 -21.609375 L 14.890625 -20.875 C 14.390625 -22.6875 13.28125 -23.59375 11.5625 -23.59375 C 10.09375 -23.59375 8.9375 -22.859375 8.09375 -21.390625 C 7.257812 -19.921875 6.84375 -17.6875 6.84375 -14.6875 C 7.425781 -15.664062 8.238281 -16.414062 9.28125 -16.9375 C 10.320312 -17.457031 11.5 -17.71875 12.8125 -17.71875 C 15.269531 -17.71875 17.210938 -16.9375 18.640625 -15.375 C 20.078125 -13.8125 20.796875 -11.6875 20.796875 -9 Z M 15.296875 -8.84375 C 15.296875 -10.40625 14.929688 -11.597656 14.203125 -12.421875 C 13.484375 -13.253906 12.492188 -13.671875 11.234375 -13.671875 C 10.023438 -13.671875 9.054688 -13.28125 8.328125 -12.5 C 7.597656 -11.726562 7.234375 -10.707031 7.234375 -9.4375 C 7.234375 -7.832031 7.613281 -6.503906 8.375 -5.453125 C 9.132812 -4.410156 10.132812 -3.890625 11.375 -3.890625 C 12.601562 -3.890625 13.5625 -4.328125 14.25 -5.203125 C 14.945312 -6.085938 15.296875 -7.300781 15.296875 -8.84375 Z M 15.296875 -8.84375 "/></g></g></g><g fill="#000000" fill-opacity="1"><g transform="translate(135.368445, 51.691398)"><g/></g></g><g fill="#000000" fill-opacity="1"><g transform="translate(146.480646, 51.691398)"><g><path d="M 13.890625 -11.109375 L 13.890625 -3.140625 L 9.46875 -3.140625 L 9.46875 -11.109375 L 1.6875 -11.109375 L 1.6875 -15.484375 L 9.46875 -15.484375 L 9.46875 -23.453125 L 13.890625 -23.453125 L 13.890625 -15.484375 L 21.734375 -15.484375 L 21.734375 -11.109375 Z M 13.890625 -11.109375 "/></g></g></g><g fill="#000000" fill-opacity="1"><g transform="translate(169.837739, 51.691398)"><g/></g></g><g fill="#000000" fill-opacity="1"><g transform="translate(180.94994, 51.691398)"><g><path d="M 18.359375 -5.609375 L 18.359375 0 L 13.125 0 L 13.125 -5.609375 L 0.609375 -5.609375 L 0.609375 -9.734375 L 12.234375 -27.515625 L 18.359375 -27.515625 L 18.359375 -9.6875 L 22.03125 -9.6875 L 22.03125 -5.609375 Z M 13.125 -18.6875 C 13.125 -19.394531 13.144531 -20.15625 13.1875 -20.96875 C 13.238281 -21.789062 13.273438 -22.320312 13.296875 -22.5625 C 12.960938 -21.832031 12.351562 -20.773438 11.46875 -19.390625 L 5.078125 -9.6875 L 13.125 -9.6875 Z M 13.125 -18.6875 "/></g></g></g><g fill="#000000" fill-opacity="1"><g transform="translate(203.193866, 51.691398)"><g/></g></g><g fill="#000000" fill-opacity="1"><g transform="translate(214.306067, 51.691398)"><g><path d="M 1.65625 -16.453125 L 1.65625 -20.796875 L 21.71875 -20.796875 L 21.71875 -16.453125 Z M 1.65625 -5.6875 L 1.65625 -10 L 21.71875 -10 L 21.71875 -5.6875 Z M 1.65625 -5.6875 "/></g></g></g><g fill="#000000" fill-opacity="1"><g transform="translate(237.66316, 51.691398)"><g/></g></g><g fill="#000000" fill-opacity="1"><g transform="translate(248.775361, 51.691398)"><g><path d="M 20.796875 -9 C 20.796875 -6.070312 19.972656 -3.773438 18.328125 -2.109375 C 16.691406 -0.441406 14.429688 0.390625 11.546875 0.390625 C 8.304688 0.390625 5.816406 -0.742188 4.078125 -3.015625 C 2.335938 -5.285156 1.46875 -8.65625 1.46875 -13.125 C 1.46875 -18.03125 2.347656 -21.722656 4.109375 -24.203125 C 5.878906 -26.691406 8.40625 -27.9375 11.6875 -27.9375 C 14.007812 -27.9375 15.84375 -27.421875 17.1875 -26.390625 C 18.539062 -25.359375 19.5 -23.765625 20.0625 -21.609375 L 14.890625 -20.875 C 14.390625 -22.6875 13.28125 -23.59375 11.5625 -23.59375 C 10.09375 -23.59375 8.9375 -22.859375 8.09375 -21.390625 C 7.257812 -19.921875 6.84375 -17.6875 6.84375 -14.6875 C 7.425781 -15.664062 8.238281 -16.414062 9.28125 -16.9375 C 10.320312 -17.457031 11.5 -17.71875 12.8125 -17.71875 C 15.269531 -17.71875 17.210938 -16.9375 18.640625 -15.375 C 20.078125 -13.8125 20.796875 -11.6875 20.796875 -9 Z M 15.296875 -8.84375 C 15.296875 -10.40625 14.929688 -11.597656 14.203125 -12.421875 C 13.484375 -13.253906 12.492188 -13.671875 11.234375 -13.671875 C 10.023438 -13.671875 9.054688 -13.28125 8.328125 -12.5 C 7.597656 -11.726562 7.234375 -10.707031 7.234375 -9.4375 C 7.234375 -7.832031 7.613281 -6.503906 8.375 -5.453125 C 9.132812 -4.410156 10.132812 -3.890625 11.375 -3.890625 C 12.601562 -3.890625 13.5625 -4.328125 14.25 -5.203125 C 14.945312 -6.085938 15.296875 -7.300781 15.296875 -8.84375 Z M 15.296875 -8.84375 "/></g></g></g><g fill="#000000" fill-opacity="1"><g transform="translate(271.019286, 51.691398)"><g/></g></g><g fill="#000000" fill-opacity="1"><g transform="translate(282.131487, 51.691398)"><g><path d="M 1.5625 -7.984375 L 1.5625 -12.75 L 11.71875 -12.75 L 11.71875 -7.984375 Z M 1.5625 -7.984375 "/></g></g></g><g fill="#000000" fill-opacity="1"><g transform="translate(295.450498, 51.691398)"><g/></g></g><g fill="#000000" fill-opacity="1"><g transform="translate(306.562711, 51.691398)"><g><path d="M 1.390625 0 L 1.390625 -3.8125 C 2.109375 -5.382812 3.125 -6.921875 4.4375 -8.421875 C 5.757812 -9.921875 7.425781 -11.484375 9.4375 -13.109375 C 11.363281 -14.671875 12.710938 -15.957031 13.484375 -16.96875 C 14.265625 -17.988281 14.65625 -18.988281 14.65625 -19.96875 C 14.65625 -22.363281 13.445312 -23.5625 11.03125 -23.5625 C 9.863281 -23.5625 8.96875 -23.242188 8.34375 -22.609375 C 7.726562 -21.972656 7.332031 -21.023438 7.15625 -19.765625 L 1.625 -20.078125 C 1.9375 -22.628906 2.890625 -24.578125 4.484375 -25.921875 C 6.078125 -27.265625 8.25 -27.9375 11 -27.9375 C 13.96875 -27.9375 16.242188 -27.257812 17.828125 -25.90625 C 19.421875 -24.550781 20.21875 -22.648438 20.21875 -20.203125 C 20.21875 -18.910156 19.960938 -17.742188 19.453125 -16.703125 C 18.941406 -15.660156 18.289062 -14.695312 17.5 -13.8125 C 16.707031 -12.9375 15.828125 -12.113281 14.859375 -11.34375 C 13.890625 -10.582031 12.945312 -9.835938 12.03125 -9.109375 C 11.125 -8.378906 10.296875 -7.640625 9.546875 -6.890625 C 8.796875 -6.148438 8.238281 -5.359375 7.875 -4.515625 L 20.640625 -4.515625 L 20.640625 0 Z M 1.390625 0 "/></g></g></g></svg>