<svg xmlns="http://www.w3.org/2000/svg" xmlns:xlink="http://www.w3.org/1999/xlink" width="604" zoomAndPan="magnify" viewBox="0 0 452.88 159.750002" height="213" preserveAspectRatio="xMidYMid meet" version="1.0"><defs><g/><clipPath id="281573e20b"><path d="M 9.148438 10.472656 L 443.398438 10.472656 L 443.398438 148.257812 L 9.148438 148.257812 Z M 9.148438 10.472656 " clip-rule="nonzero"/></clipPath></defs><g clip-path="url(#281573e20b)"><path stroke-linecap="butt" transform="matrix(0.748828, 0, 0, 0.748828, 9.150057, 10.471543)" fill="none" stroke-linejoin="miter" d="M -0.00216288 0.00148604 L 579.903994 0.00148604 L 579.903994 184.466814 L -0.00216288 184.466814 Z M -0.00216288 0.00148604 " stroke="#000000" stroke-width="12" stroke-opacity="1" stroke-miterlimit="4"/></g><g fill="#000000" fill-opacity="1"><g transform="translate(26.216875, 109.49249)"><g><path d="M 35.140625 0 L 22.46875 0 L 22.46875 -48.875 L 7.328125 -44.1875 L 7.328125 -54.5 L 33.78125 -63.96875 L 35.140625 -63.96875 Z M 35.140625 0 "/></g></g><g transform="translate(77.771935, 109.49249)"><g><path d="M 47.34375 -26.40625 C 47.34375 -17.570312 45.515625 -10.816406 41.859375 -6.140625 C 38.203125 -1.460938 32.847656 0.875 25.796875 0.875 C 18.835938 0.875 13.515625 -1.421875 9.828125 -6.015625 C 6.140625 -10.609375 4.253906 -17.1875 4.171875 -25.75 L 4.171875 -37.515625 C 4.171875 -46.429688 6.019531 -53.203125 9.71875 -57.828125 C 13.414062 -62.453125 18.742188 -64.765625 25.703125 -64.765625 C 32.671875 -64.765625 38 -62.472656 41.6875 -57.890625 C 45.375 -53.316406 47.257812 -46.742188 47.34375 -38.171875 Z M 34.65625 -39.3125 C 34.65625 -44.601562 33.929688 -48.457031 32.484375 -50.875 C 31.035156 -53.289062 28.78125 -54.5 25.71875 -54.5 C 22.726562 -54.5 20.523438 -53.347656 19.109375 -51.046875 C 17.691406 -48.753906 16.9375 -45.164062 16.84375 -40.28125 L 16.84375 -24.75 C 16.84375 -19.539062 17.550781 -15.671875 18.96875 -13.140625 C 20.394531 -10.609375 22.671875 -9.34375 25.796875 -9.34375 C 28.898438 -9.34375 31.140625 -10.554688 32.515625 -12.984375 C 33.890625 -15.410156 34.601562 -19.125 34.65625 -24.125 Z M 34.65625 -39.3125 "/></g></g><g transform="translate(129.326995, 109.49249)"><g/></g><g transform="translate(151.704085, 109.49249)"><g><path d="M 2.890625 -24.09375 C 2.890625 -31.488281 4.550781 -37.378906 7.875 -41.765625 C 11.195312 -46.160156 15.738281 -48.359375 21.5 -48.359375 C 26.125 -48.359375 29.941406 -46.628906 32.953125 -43.171875 L 32.953125 -67.390625 L 45.671875 -67.390625 L 45.671875 0 L 34.21875 0 L 33.609375 -5.046875 C 30.453125 -1.097656 26.382812 0.875 21.40625 0.875 C 15.820312 0.875 11.335938 -1.320312 7.953125 -5.71875 C 4.578125 -10.125 2.890625 -16.25 2.890625 -24.09375 Z M 15.578125 -23.171875 C 15.578125 -18.722656 16.351562 -15.3125 17.90625 -12.9375 C 19.457031 -10.570312 21.707031 -9.390625 24.65625 -9.390625 C 28.570312 -9.390625 31.335938 -11.039062 32.953125 -14.34375 L 32.953125 -33.078125 C 31.367188 -36.390625 28.632812 -38.046875 24.75 -38.046875 C 18.632812 -38.046875 15.578125 -33.085938 15.578125 -23.171875 Z M 15.578125 -23.171875 "/></g></g><g transform="translate(202.337735, 109.49249)"><g><path d="M 32.375 0 C 31.789062 -1.144531 31.367188 -2.5625 31.109375 -4.25 C 28.035156 -0.832031 24.039062 0.875 19.125 0.875 C 14.476562 0.875 10.625 -0.46875 7.5625 -3.15625 C 4.507812 -5.851562 2.984375 -9.25 2.984375 -13.34375 C 2.984375 -18.375 4.847656 -22.234375 8.578125 -24.921875 C 12.304688 -27.609375 17.695312 -28.96875 24.75 -29 L 30.578125 -29 L 30.578125 -31.71875 C 30.578125 -33.914062 30.015625 -35.671875 28.890625 -36.984375 C 27.765625 -38.304688 25.988281 -38.96875 23.5625 -38.96875 C 21.425781 -38.96875 19.75 -38.453125 18.53125 -37.421875 C 17.320312 -36.398438 16.71875 -35 16.71875 -33.21875 L 4.03125 -33.21875 C 4.03125 -35.96875 4.878906 -38.507812 6.578125 -40.84375 C 8.273438 -43.1875 10.671875 -45.023438 13.765625 -46.359375 C 16.867188 -47.691406 20.351562 -48.359375 24.21875 -48.359375 C 30.070312 -48.359375 34.71875 -46.882812 38.15625 -43.9375 C 41.59375 -41 43.3125 -36.867188 43.3125 -31.546875 L 43.3125 -10.96875 C 43.332031 -6.46875 43.957031 -3.0625 45.1875 -0.75 L 45.1875 0 Z M 21.890625 -8.8125 C 23.765625 -8.8125 25.488281 -9.226562 27.0625 -10.0625 C 28.644531 -10.894531 29.816406 -12.015625 30.578125 -13.421875 L 30.578125 -21.59375 L 25.84375 -21.59375 C 19.5 -21.59375 16.117188 -19.394531 15.703125 -15 L 15.65625 -14.265625 C 15.65625 -12.679688 16.210938 -11.375 17.328125 -10.34375 C 18.441406 -9.320312 19.960938 -8.8125 21.890625 -8.8125 Z M 21.890625 -8.8125 "/></g></g><g transform="translate(250.514293, 109.49249)"><g><path d="M 16.546875 -47.46875 L 16.9375 -41.984375 C 20.332031 -46.234375 24.878906 -48.359375 30.578125 -48.359375 C 35.609375 -48.359375 39.351562 -46.878906 41.8125 -43.921875 C 44.269531 -40.960938 45.53125 -36.546875 45.59375 -30.671875 L 45.59375 0 L 32.90625 0 L 32.90625 -30.359375 C 32.90625 -33.054688 32.316406 -35.007812 31.140625 -36.21875 C 29.972656 -37.4375 28.03125 -38.046875 25.3125 -38.046875 C 21.75 -38.046875 19.070312 -36.523438 17.28125 -33.484375 L 17.28125 0 L 4.609375 0 L 4.609375 -47.46875 Z M 16.546875 -47.46875 "/></g></g><g transform="translate(300.840806, 109.49249)"><g/></g><g transform="translate(323.217896, 109.49249)"><g><path d="M 41.859375 -24.046875 L 49.09375 -24.046875 L 49.09375 -13.828125 L 41.859375 -13.828125 L 41.859375 0 L 29.171875 0 L 29.171875 -13.828125 L 2.984375 -13.828125 L 2.40625 -21.8125 L 29.046875 -63.890625 L 41.859375 -63.890625 Z M 15.046875 -24.046875 L 29.171875 -24.046875 L 29.171875 -46.59375 L 28.34375 -45.15625 Z M 15.046875 -24.046875 "/></g></g><g transform="translate(374.772956, 109.49249)"><g><path d="M 47.34375 -26.40625 C 47.34375 -17.570312 45.515625 -10.816406 41.859375 -6.140625 C 38.203125 -1.460938 32.847656 0.875 25.796875 0.875 C 18.835938 0.875 13.515625 -1.421875 9.828125 -6.015625 C 6.140625 -10.609375 4.253906 -17.1875 4.171875 -25.75 L 4.171875 -37.515625 C 4.171875 -46.429688 6.019531 -53.203125 9.71875 -57.828125 C 13.414062 -62.453125 18.742188 -64.765625 25.703125 -64.765625 C 32.671875 -64.765625 38 -62.472656 41.6875 -57.890625 C 45.375 -53.316406 47.257812 -46.742188 47.34375 -38.171875 Z M 34.65625 -39.3125 C 34.65625 -44.601562 33.929688 -48.457031 32.484375 -50.875 C 31.035156 -53.289062 28.78125 -54.5 25.71875 -54.5 C 22.726562 -54.5 20.523438 -53.347656 19.109375 -51.046875 C 17.691406 -48.753906 16.9375 -45.164062 16.84375 -40.28125 L 16.84375 -24.75 C 16.84375 -19.539062 17.550781 -15.671875 18.96875 -13.140625 C 20.394531 -10.609375 22.671875 -9.34375 25.796875 -9.34375 C 28.898438 -9.34375 31.140625 -10.554688 32.515625 -12.984375 C 33.890625 -15.410156 34.601562 -19.125 34.65625 -24.125 Z M 34.65625 -39.3125 "/></g></g></g></svg>