<svg xmlns="http://www.w3.org/2000/svg" xmlns:xlink="http://www.w3.org/1999/xlink" width="255" zoomAndPan="magnify" viewBox="0 0 191.25 77.999999" height="104" preserveAspectRatio="xMidYMid meet" version="1.0"><defs><g/><clipPath id="9dca3f6234"><path d="M 6.226562 2.273438 L 183.742188 2.273438 L 183.742188 75.488281 L 6.226562 75.488281 Z M 6.226562 2.273438 " clip-rule="nonzero"/></clipPath></defs><g clip-path="url(#9dca3f6234)"><path stroke-linecap="butt" transform="matrix(0.74707, 0, 0, 0.74707, 6.22604, 2.275195)" fill="none" stroke-linejoin="miter" d="M 0.00069975 -0.00235264 L 237.616396 -0.00235264 L 237.616396 98.157129 L 0.00069975 98.157129 Z M 0.00069975 -0.00235264 " stroke="#000000" stroke-width="12" stroke-opacity="1" stroke-miterlimit="4"/></g><g fill="#000000" fill-opacity="1"><g transform="translate(50.676258, 51.641823)"><g><path d="M 2.515625 0 L 2.515625 -4.0625 L 9.296875 -4.0625 L 9.296875 -22.765625 L 2.71875 -18.65625 L 2.71875 -22.953125 L 9.59375 -27.40625 L 14.765625 -27.40625 L 14.765625 -4.0625 L 21.046875 -4.0625 L 21.046875 0 Z M 2.515625 0 "/></g></g></g><g fill="#000000" fill-opacity="1"><g transform="translate(72.833293, 51.641823)"><g/></g></g><g fill="#000000" fill-opacity="1"><g transform="translate(83.902087, 51.641823)"><g><path d="M 1.375 0 L 1.375 -3.796875 C 2.09375 -5.359375 3.109375 -6.882812 4.421875 -8.375 C 5.742188 -9.875 7.398438 -11.429688 9.390625 -13.046875 C 11.316406 -14.609375 12.664062 -15.894531 13.4375 -16.90625 C 14.207031 -17.914062 14.59375 -18.910156 14.59375 -19.890625 C 14.59375 -22.273438 13.390625 -23.46875 10.984375 -23.46875 C 9.816406 -23.46875 8.925781 -23.148438 8.3125 -22.515625 C 7.695312 -21.890625 7.300781 -20.945312 7.125 -19.6875 L 1.609375 -20 C 1.921875 -22.539062 2.867188 -24.476562 4.453125 -25.8125 C 6.046875 -27.15625 8.210938 -27.828125 10.953125 -27.828125 C 13.910156 -27.828125 16.179688 -27.148438 17.765625 -25.796875 C 19.347656 -24.453125 20.140625 -22.554688 20.140625 -20.109375 C 20.140625 -18.828125 19.882812 -17.664062 19.375 -16.625 C 18.875 -15.59375 18.226562 -14.640625 17.4375 -13.765625 C 16.644531 -12.890625 15.765625 -12.066406 14.796875 -11.296875 C 13.828125 -10.535156 12.890625 -9.789062 11.984375 -9.0625 C 11.078125 -8.332031 10.25 -7.597656 9.5 -6.859375 C 8.757812 -6.128906 8.207031 -5.34375 7.84375 -4.5 L 20.5625 -4.5 L 20.5625 0 Z M 1.375 0 "/></g></g></g><g fill="#000000" fill-opacity="1"><g transform="translate(106.059123, 51.641823)"><g/></g></g><g fill="#000000" fill-opacity="1"><g transform="translate(117.127917, 51.641823)"><g><path d="M 20.6875 -14.140625 C 20.6875 -9.273438 19.796875 -5.632812 18.015625 -3.21875 C 16.234375 -0.8125 13.710938 0.390625 10.453125 0.390625 C 8.035156 0.390625 6.140625 -0.125 4.765625 -1.15625 C 3.398438 -2.1875 2.4375 -3.816406 1.875 -6.046875 L 7 -6.765625 C 7.507812 -4.859375 8.675781 -3.90625 10.5 -3.90625 C 12.03125 -3.90625 13.207031 -4.640625 14.03125 -6.109375 C 14.851562 -7.578125 15.28125 -9.75 15.3125 -12.625 C 14.820312 -11.65625 14.015625 -10.894531 12.890625 -10.34375 C 11.765625 -9.789062 10.554688 -9.515625 9.265625 -9.515625 C 6.847656 -9.515625 4.925781 -10.332031 3.5 -11.96875 C 2.082031 -13.613281 1.375 -15.835938 1.375 -18.640625 C 1.375 -21.515625 2.207031 -23.765625 3.875 -25.390625 C 5.539062 -27.015625 7.898438 -27.828125 10.953125 -27.828125 C 14.234375 -27.828125 16.675781 -26.6875 18.28125 -24.40625 C 19.882812 -22.125 20.6875 -18.703125 20.6875 -14.140625 Z M 14.90625 -17.96875 C 14.90625 -19.675781 14.53125 -21.03125 13.78125 -22.03125 C 13.039062 -23.039062 12.050781 -23.546875 10.8125 -23.546875 C 9.601562 -23.546875 8.648438 -23.109375 7.953125 -22.234375 C 7.265625 -21.359375 6.921875 -20.144531 6.921875 -18.59375 C 6.921875 -17.082031 7.265625 -15.867188 7.953125 -14.953125 C 8.640625 -14.035156 9.601562 -13.578125 10.84375 -13.578125 C 12.007812 -13.578125 12.976562 -13.972656 13.75 -14.765625 C 14.519531 -15.566406 14.90625 -16.632812 14.90625 -17.96875 Z M 14.90625 -17.96875 "/></g></g></g></svg>