<svg xmlns="http://www.w3.org/2000/svg" xmlns:xlink="http://www.w3.org/1999/xlink" width="604" zoomAndPan="magnify" viewBox="0 0 452.88 159.750002" height="213" preserveAspectRatio="xMidYMid meet" version="1.0"><defs><g/><clipPath id="688d6664a7"><path d="M 9.148438 10.472656 L 443.398438 10.472656 L 443.398438 148.257812 L 9.148438 148.257812 Z M 9.148438 10.472656 " clip-rule="nonzero"/></clipPath></defs><g clip-path="url(#688d6664a7)"><path stroke-linecap="butt" transform="matrix(0.748828, 0, 0, 0.748828, 9.150057, 10.471543)" fill="none" stroke-linejoin="miter" d="M -0.00216288 0.00148604 L 579.903994 0.00148604 L 579.903994 184.466814 L -0.00216288 184.466814 Z M -0.00216288 0.00148604 " stroke="#000000" stroke-width="12" stroke-opacity="1" stroke-miterlimit="4"/></g><g fill="#000000" fill-opacity="1"><g transform="translate(26.216875, 109.49249)"><g><path d="M 35.140625 0 L 22.46875 0 L 22.46875 -48.875 L 7.328125 -44.1875 L 7.328125 -54.5 L 33.78125 -63.96875 L 35.140625 -63.96875 Z M 35.140625 0 "/></g></g><g transform="translate(77.771935, 109.49249)"><g><path d="M 6.234375 -31.421875 L 9.921875 -63.890625 L 45.71875 -63.890625 L 45.71875 -53.3125 L 20.3125 -53.3125 L 18.734375 -39.578125 C 21.742188 -41.179688 24.945312 -41.984375 28.34375 -41.984375 C 34.425781 -41.984375 39.191406 -40.097656 42.640625 -36.328125 C 46.097656 -32.554688 47.828125 -27.273438 47.828125 -20.484375 C 47.828125 -16.359375 46.957031 -12.664062 45.21875 -9.40625 C 43.476562 -6.144531 40.984375 -3.613281 37.734375 -1.8125 C 34.484375 -0.0195312 30.648438 0.875 26.234375 0.875 C 22.378906 0.875 18.796875 0.09375 15.484375 -1.46875 C 12.179688 -3.03125 9.570312 -5.226562 7.65625 -8.0625 C 5.738281 -10.90625 4.722656 -14.140625 4.609375 -17.765625 L 17.15625 -17.765625 C 17.414062 -15.109375 18.34375 -13.039062 19.9375 -11.5625 C 21.53125 -10.082031 23.613281 -9.34375 26.1875 -9.34375 C 29.0625 -9.34375 31.269531 -10.375 32.8125 -12.4375 C 34.363281 -14.5 35.140625 -17.414062 35.140625 -21.1875 C 35.140625 -24.820312 34.25 -27.601562 32.46875 -29.53125 C 30.6875 -31.457031 28.15625 -32.421875 24.875 -32.421875 C 21.863281 -32.421875 19.421875 -31.632812 17.546875 -30.0625 L 16.328125 -28.921875 Z M 6.234375 -31.421875 "/></g></g><g transform="translate(129.326995, 109.49249)"><g/></g><g transform="translate(151.704085, 109.49249)"><g><path d="M 2.890625 -24.09375 C 2.890625 -31.488281 4.550781 -37.378906 7.875 -41.765625 C 11.195312 -46.160156 15.738281 -48.359375 21.5 -48.359375 C 26.125 -48.359375 29.941406 -46.628906 32.953125 -43.171875 L 32.953125 -67.390625 L 45.671875 -67.390625 L 45.671875 0 L 34.21875 0 L 33.609375 -5.046875 C 30.453125 -1.097656 26.382812 0.875 21.40625 0.875 C 15.820312 0.875 11.335938 -1.320312 7.953125 -5.71875 C 4.578125 -10.125 2.890625 -16.25 2.890625 -24.09375 Z M 15.578125 -23.171875 C 15.578125 -18.722656 16.351562 -15.3125 17.90625 -12.9375 C 19.457031 -10.570312 21.707031 -9.390625 24.65625 -9.390625 C 28.570312 -9.390625 31.335938 -11.039062 32.953125 -14.34375 L 32.953125 -33.078125 C 31.367188 -36.390625 28.632812 -38.046875 24.75 -38.046875 C 18.632812 -38.046875 15.578125 -33.085938 15.578125 -23.171875 Z M 15.578125 -23.171875 "/></g></g><g transform="translate(202.337735, 109.49249)"><g><path d="M 32.375 0 C 31.789062 -1.144531 31.367188 -2.5625 31.109375 -4.25 C 28.035156 -0.832031 24.039062 0.875 19.125 0.875 C 14.476562 0.875 10.625 -0.46875 7.5625 -3.15625 C 4.507812 -5.851562 2.984375 -9.25 2.984375 -13.34375 C 2.984375 -18.375 4.847656 -22.234375 8.578125 -24.921875 C 12.304688 -27.609375 17.695312 -28.96875 24.75 -29 L 30.578125 -29 L 30.578125 -31.71875 C 30.578125 -33.914062 30.015625 -35.671875 28.890625 -36.984375 C 27.765625 -38.304688 25.988281 -38.96875 23.5625 -38.96875 C 21.425781 -38.96875 19.75 -38.453125 18.53125 -37.421875 C 17.320312 -36.398438 16.71875 -35 16.71875 -33.21875 L 4.03125 -33.21875 C 4.03125 -35.96875 4.878906 -38.507812 6.578125 -40.84375 C 8.273438 -43.1875 10.671875 -45.023438 13.765625 -46.359375 C 16.867188 -47.691406 20.351562 -48.359375 24.21875 -48.359375 C 30.070312 -48.359375 34.71875 -46.882812 38.15625 -43.9375 C 41.59375 -41 43.3125 -36.867188 43.3125 -31.546875 L 43.3125 -10.96875 C 43.332031 -6.46875 43.957031 -3.0625 45.1875 -0.75 L 45.1875 0 Z M 21.890625 -8.8125 C 23.765625 -8.8125 25.488281 -9.226562 27.0625 -10.0625 C 28.644531 -10.894531 29.816406 -12.015625 30.578125 -13.421875 L 30.578125 -21.59375 L 25.84375 -21.59375 C 19.5 -21.59375 16.117188 -19.394531 15.703125 -15 L 15.65625 -14.265625 C 15.65625 -12.679688 16.210938 -11.375 17.328125 -10.34375 C 18.441406 -9.320312 19.960938 -8.8125 21.890625 -8.8125 Z M 21.890625 -8.8125 "/></g></g><g transform="translate(250.514293, 109.49249)"><g><path d="M 16.546875 -47.46875 L 16.9375 -41.984375 C 20.332031 -46.234375 24.878906 -48.359375 30.578125 -48.359375 C 35.609375 -48.359375 39.351562 -46.878906 41.8125 -43.921875 C 44.269531 -40.960938 45.53125 -36.546875 45.59375 -30.671875 L 45.59375 0 L 32.90625 0 L 32.90625 -30.359375 C 32.90625 -33.054688 32.316406 -35.007812 31.140625 -36.21875 C 29.972656 -37.4375 28.03125 -38.046875 25.3125 -38.046875 C 21.75 -38.046875 19.070312 -36.523438 17.28125 -33.484375 L 17.28125 0 L 4.609375 0 L 4.609375 -47.46875 Z M 16.546875 -47.46875 "/></g></g><g transform="translate(300.840806, 109.49249)"><g/></g><g transform="translate(323.217896, 109.49249)"><g><path d="M 41.859375 -24.046875 L 49.09375 -24.046875 L 49.09375 -13.828125 L 41.859375 -13.828125 L 41.859375 0 L 29.171875 0 L 29.171875 -13.828125 L 2.984375 -13.828125 L 2.40625 -21.8125 L 29.046875 -63.890625 L 41.859375 -63.890625 Z M 15.046875 -24.046875 L 29.171875 -24.046875 L 29.171875 -46.59375 L 28.34375 -45.15625 Z M 15.046875 -24.046875 "/></g></g><g transform="translate(374.772956, 109.49249)"><g><path d="M 34 -25.53125 C 30.695312 -22.289062 26.835938 -20.671875 22.421875 -20.671875 C 16.773438 -20.671875 12.253906 -22.609375 8.859375 -26.484375 C 5.460938 -30.359375 3.765625 -35.585938 3.765625 -42.171875 C 3.765625 -46.347656 4.679688 -50.179688 6.515625 -53.671875 C 8.347656 -57.171875 10.898438 -59.894531 14.171875 -61.84375 C 17.453125 -63.789062 21.140625 -64.765625 25.234375 -64.765625 C 29.441406 -64.765625 33.179688 -63.707031 36.453125 -61.59375 C 39.734375 -59.488281 42.28125 -56.460938 44.09375 -52.515625 C 45.90625 -48.566406 46.828125 -44.050781 46.859375 -38.96875 L 46.859375 -34.265625 C 46.859375 -23.617188 44.210938 -15.253906 38.921875 -9.171875 C 33.628906 -3.085938 26.125 0.160156 16.40625 0.578125 L 13.296875 0.609375 L 13.296875 -9.953125 L 16.109375 -10 C 27.128906 -10.5 33.09375 -15.675781 34 -25.53125 Z M 25.53125 -30.359375 C 27.582031 -30.359375 29.347656 -30.882812 30.828125 -31.9375 C 32.304688 -32.988281 33.425781 -34.265625 34.1875 -35.765625 L 34.1875 -40.984375 C 34.1875 -45.285156 33.363281 -48.617188 31.71875 -50.984375 C 30.082031 -53.347656 27.890625 -54.53125 25.140625 -54.53125 C 22.597656 -54.53125 20.503906 -53.367188 18.859375 -51.046875 C 17.222656 -48.722656 16.40625 -45.804688 16.40625 -42.296875 C 16.40625 -38.816406 17.203125 -35.957031 18.796875 -33.71875 C 20.390625 -31.476562 22.632812 -30.359375 25.53125 -30.359375 Z M 25.53125 -30.359375 "/></g></g></g></svg>