<svg xmlns="http://www.w3.org/2000/svg" xmlns:xlink="http://www.w3.org/1999/xlink" width="560" zoomAndPan="magnify" viewBox="0 0 420 77.999999" height="104" preserveAspectRatio="xMidYMid meet" version="1.0"><defs><g/><clipPath id="7112742656"><path d="M 0.0117188 2.132812 L 419.683594 2.132812 L 419.683594 75.632812 L 0.0117188 75.632812 Z M 0.0117188 2.132812 " clip-rule="nonzero"/></clipPath></defs><g clip-path="url(#7112742656)"><path stroke-linecap="butt" transform="matrix(0.75, 0, 0, 0.75, 0.0111824, 2.131177)" fill="none" stroke-linejoin="miter" d="M 0.000715145 0.00218101 L 559.563243 0.00218101 L 559.563243 98.158436 L 0.000715145 98.158436 Z M 0.000715145 0.00218101 " stroke="#000000" stroke-width="12" stroke-opacity="1" stroke-miterlimit="4"/></g><g fill="#000000" fill-opacity="1"><g transform="translate(112.056374, 51.691398)"><g><path d="M 25.125 -7.9375 C 25.125 -5.238281 24.125 -3.175781 22.125 -1.75 C 20.125 -0.320312 17.191406 0.390625 13.328125 0.390625 C 9.796875 0.390625 7.023438 -0.234375 5.015625 -1.484375 C 3.015625 -2.734375 1.726562 -4.628906 1.15625 -7.171875 L 6.71875 -8.09375 C 7.09375 -6.632812 7.828125 -5.570312 8.921875 -4.90625 C 10.015625 -4.25 11.535156 -3.921875 13.484375 -3.921875 C 17.503906 -3.921875 19.515625 -5.144531 19.515625 -7.59375 C 19.515625 -8.375 19.28125 -9.019531 18.8125 -9.53125 C 18.351562 -10.039062 17.703125 -10.460938 16.859375 -10.796875 C 16.023438 -11.140625 14.414062 -11.550781 12.03125 -12.03125 C 9.976562 -12.507812 8.546875 -12.894531 7.734375 -13.1875 C 6.929688 -13.488281 6.203125 -13.835938 5.546875 -14.234375 C 4.898438 -14.628906 4.347656 -15.101562 3.890625 -15.65625 C 3.429688 -16.21875 3.070312 -16.875 2.8125 -17.625 C 2.5625 -18.382812 2.4375 -19.253906 2.4375 -20.234375 C 2.4375 -22.722656 3.367188 -24.628906 5.234375 -25.953125 C 7.109375 -27.273438 9.832031 -27.9375 13.40625 -27.9375 C 16.8125 -27.9375 19.367188 -27.398438 21.078125 -26.328125 C 22.796875 -25.265625 23.898438 -23.5 24.390625 -21.03125 L 18.8125 -20.28125 C 18.519531 -21.457031 17.9375 -22.34375 17.0625 -22.9375 C 16.1875 -23.539062 14.925781 -23.84375 13.28125 -23.84375 C 9.789062 -23.84375 8.046875 -22.75 8.046875 -20.5625 C 8.046875 -19.851562 8.226562 -19.269531 8.59375 -18.8125 C 8.96875 -18.351562 9.519531 -17.960938 10.25 -17.640625 C 10.976562 -17.328125 12.457031 -16.929688 14.6875 -16.453125 C 17.332031 -15.890625 19.222656 -15.367188 20.359375 -14.890625 C 21.503906 -14.421875 22.40625 -13.867188 23.0625 -13.234375 C 23.726562 -12.597656 24.238281 -11.84375 24.59375 -10.96875 C 24.945312 -10.09375 25.125 -9.082031 25.125 -7.9375 Z M 25.125 -7.9375 "/></g></g></g><g fill="#000000" fill-opacity="1"><g transform="translate(138.733455, 51.691398)"><g><path d="M 2.796875 -24.9375 L 2.796875 -28.984375 L 8.28125 -28.984375 L 8.28125 -24.9375 Z M 2.796875 0 L 2.796875 -21.140625 L 8.28125 -21.140625 L 8.28125 0 Z M 2.796875 0 "/></g></g></g><g fill="#000000" fill-opacity="1"><g transform="translate(149.845656, 51.691398)"><g><path d="M 16.484375 0 L 16.484375 -11.859375 C 16.484375 -15.566406 15.226562 -17.421875 12.71875 -17.421875 C 11.382812 -17.421875 10.3125 -16.847656 9.5 -15.703125 C 8.6875 -14.566406 8.28125 -13.109375 8.28125 -11.328125 L 8.28125 0 L 2.796875 0 L 2.796875 -16.40625 C 2.796875 -17.539062 2.78125 -18.46875 2.75 -19.1875 C 2.71875 -19.914062 2.679688 -20.566406 2.640625 -21.140625 L 7.875 -21.140625 C 7.914062 -20.890625 7.96875 -20.226562 8.03125 -19.15625 C 8.09375 -18.082031 8.125 -17.34375 8.125 -16.9375 L 8.203125 -16.9375 C 8.941406 -18.550781 9.867188 -19.722656 10.984375 -20.453125 C 12.109375 -21.179688 13.445312 -21.546875 15 -21.546875 C 17.238281 -21.546875 18.957031 -20.851562 20.15625 -19.46875 C 21.351562 -18.09375 21.953125 -16.078125 21.953125 -13.421875 L 21.953125 0 Z M 16.484375 0 "/></g></g></g><g fill="#000000" fill-opacity="1"><g transform="translate(174.276868, 51.691398)"><g><path d="M 11.640625 8.484375 C 9.066406 8.484375 6.992188 7.988281 5.421875 7 C 3.847656 6.019531 2.878906 4.617188 2.515625 2.796875 L 8.015625 2.15625 C 8.203125 3 8.617188 3.660156 9.265625 4.140625 C 9.910156 4.617188 10.753906 4.859375 11.796875 4.859375 C 13.316406 4.859375 14.425781 4.390625 15.125 3.453125 C 15.832031 2.515625 16.1875 1.125 16.1875 -0.71875 L 16.1875 -1.84375 L 16.234375 -3.921875 L 16.1875 -3.921875 C 14.976562 -1.335938 12.710938 -0.046875 9.390625 -0.046875 C 6.929688 -0.046875 5.023438 -0.96875 3.671875 -2.8125 C 2.316406 -4.664062 1.640625 -7.3125 1.640625 -10.75 C 1.640625 -14.195312 2.335938 -16.859375 3.734375 -18.734375 C 5.128906 -20.609375 7.15625 -21.546875 9.8125 -21.546875 C 12.882812 -21.546875 15.007812 -20.273438 16.1875 -17.734375 L 16.296875 -17.734375 C 16.296875 -18.191406 16.320312 -18.8125 16.375 -19.59375 C 16.4375 -20.375 16.5 -20.890625 16.5625 -21.140625 L 21.765625 -21.140625 C 21.679688 -19.734375 21.640625 -18.101562 21.640625 -16.25 L 21.640625 -0.640625 C 21.640625 2.367188 20.785156 4.640625 19.078125 6.171875 C 17.378906 7.710938 14.898438 8.484375 11.640625 8.484375 Z M 16.234375 -10.859375 C 16.234375 -13.035156 15.84375 -14.734375 15.0625 -15.953125 C 14.289062 -17.171875 13.191406 -17.78125 11.765625 -17.78125 C 8.828125 -17.78125 7.359375 -15.4375 7.359375 -10.75 C 7.359375 -6.144531 8.8125 -3.84375 11.71875 -3.84375 C 13.175781 -3.84375 14.289062 -4.453125 15.0625 -5.671875 C 15.84375 -6.890625 16.234375 -8.617188 16.234375 -10.859375 Z M 16.234375 -10.859375 "/></g></g></g><g fill="#000000" fill-opacity="1"><g transform="translate(198.70808, 51.691398)"><g><path d="M 7.671875 0.390625 C 5.628906 0.390625 4.035156 -0.164062 2.890625 -1.28125 C 1.742188 -2.394531 1.171875 -3.960938 1.171875 -5.984375 C 1.171875 -8.171875 1.882812 -9.835938 3.3125 -10.984375 C 4.738281 -12.128906 6.804688 -12.710938 9.515625 -12.734375 L 14.0625 -12.8125 L 14.0625 -13.890625 C 14.0625 -15.265625 13.820312 -16.285156 13.34375 -16.953125 C 12.863281 -17.628906 12.078125 -17.96875 10.984375 -17.96875 C 9.960938 -17.96875 9.210938 -17.734375 8.734375 -17.265625 C 8.265625 -16.804688 7.972656 -16.046875 7.859375 -14.984375 L 2.125 -15.25 C 2.476562 -17.3125 3.421875 -18.875 4.953125 -19.9375 C 6.484375 -21 8.570312 -21.53125 11.21875 -21.53125 C 13.882812 -21.53125 15.9375 -20.867188 17.375 -19.546875 C 18.820312 -18.234375 19.546875 -16.367188 19.546875 -13.953125 L 19.546875 -6.25 C 19.546875 -5.0625 19.679688 -4.242188 19.953125 -3.796875 C 20.222656 -3.347656 20.671875 -3.125 21.296875 -3.125 C 21.710938 -3.125 22.113281 -3.164062 22.5 -3.25 L 22.5 -0.28125 C 22.175781 -0.195312 21.882812 -0.117188 21.625 -0.046875 C 21.363281 0.015625 21.101562 0.0625 20.84375 0.09375 C 20.582031 0.132812 20.304688 0.164062 20.015625 0.1875 C 19.722656 0.21875 19.378906 0.234375 18.984375 0.234375 C 17.609375 0.234375 16.585938 -0.101562 15.921875 -0.78125 C 15.265625 -1.457031 14.875 -2.453125 14.75 -3.765625 L 14.625 -3.765625 C 13.09375 -0.992188 10.773438 0.390625 7.671875 0.390625 Z M 14.0625 -9.78125 L 11.25 -9.75 C 9.976562 -9.695312 9.070312 -9.554688 8.53125 -9.328125 C 8 -9.097656 7.59375 -8.75 7.3125 -8.28125 C 7.03125 -7.8125 6.890625 -7.1875 6.890625 -6.40625 C 6.890625 -5.40625 7.117188 -4.660156 7.578125 -4.171875 C 8.046875 -3.679688 8.664062 -3.4375 9.4375 -3.4375 C 10.289062 -3.4375 11.070312 -3.671875 11.78125 -4.140625 C 12.5 -4.609375 13.054688 -5.253906 13.453125 -6.078125 C 13.859375 -6.910156 14.0625 -7.789062 14.0625 -8.71875 Z M 14.0625 -9.78125 "/></g></g></g><g fill="#000000" fill-opacity="1"><g transform="translate(220.952006, 51.691398)"><g><path d="M 22.796875 -10.671875 C 22.796875 -7.140625 22.085938 -4.410156 20.671875 -2.484375 C 19.265625 -0.566406 17.269531 0.390625 14.6875 0.390625 C 13.207031 0.390625 11.914062 0.0664062 10.8125 -0.578125 C 9.707031 -1.222656 8.863281 -2.148438 8.28125 -3.359375 L 8.171875 -3.359375 C 8.242188 -2.972656 8.28125 -1.785156 8.28125 0.203125 L 8.28125 8.296875 L 2.796875 8.296875 L 2.796875 -16.265625 C 2.796875 -18.265625 2.742188 -19.890625 2.640625 -21.140625 L 7.96875 -21.140625 C 8.03125 -20.898438 8.082031 -20.4375 8.125 -19.75 C 8.175781 -19.0625 8.203125 -18.378906 8.203125 -17.703125 L 8.28125 -17.703125 C 9.519531 -20.285156 11.773438 -21.578125 15.046875 -21.578125 C 17.503906 -21.578125 19.410156 -20.628906 20.765625 -18.734375 C 22.117188 -16.847656 22.796875 -14.160156 22.796875 -10.671875 Z M 17.078125 -10.671875 C 17.078125 -15.410156 15.625 -17.78125 12.71875 -17.78125 C 11.257812 -17.78125 10.140625 -17.140625 9.359375 -15.859375 C 8.585938 -14.585938 8.203125 -12.804688 8.203125 -10.515625 C 8.203125 -8.234375 8.585938 -6.46875 9.359375 -5.21875 C 10.140625 -3.976562 11.242188 -3.359375 12.671875 -3.359375 C 15.609375 -3.359375 17.078125 -5.796875 17.078125 -10.671875 Z M 17.078125 -10.671875 "/></g></g></g><g fill="#000000" fill-opacity="1"><g transform="translate(245.383218, 51.691398)"><g><path d="M 7.96875 -21.140625 L 7.96875 -9.28125 C 7.96875 -5.570312 9.21875 -3.71875 11.71875 -3.71875 C 13.050781 -3.71875 14.125 -4.285156 14.9375 -5.421875 C 15.75 -6.554688 16.15625 -8.019531 16.15625 -9.8125 L 16.15625 -21.140625 L 21.640625 -21.140625 L 21.640625 -4.734375 C 21.640625 -2.929688 21.691406 -1.351562 21.796875 0 L 16.5625 0 C 16.40625 -1.875 16.328125 -3.273438 16.328125 -4.203125 L 16.234375 -4.203125 C 15.503906 -2.597656 14.578125 -1.429688 13.453125 -0.703125 C 12.328125 0.0234375 10.988281 0.390625 9.4375 0.390625 C 7.195312 0.390625 5.476562 -0.296875 4.28125 -1.671875 C 3.082031 -3.046875 2.484375 -5.0625 2.484375 -7.71875 L 2.484375 -21.140625 Z M 7.96875 -21.140625 "/></g></g></g><g fill="#000000" fill-opacity="1"><g transform="translate(269.81443, 51.691398)"><g><path d="M 2.796875 0 L 2.796875 -16.171875 C 2.796875 -17.328125 2.78125 -18.289062 2.75 -19.0625 C 2.71875 -19.84375 2.679688 -20.535156 2.640625 -21.140625 L 7.875 -21.140625 C 7.914062 -20.898438 7.96875 -20.179688 8.03125 -18.984375 C 8.09375 -17.796875 8.125 -17.007812 8.125 -16.625 L 8.203125 -16.625 C 8.734375 -18.101562 9.207031 -19.144531 9.625 -19.75 C 10.039062 -20.363281 10.535156 -20.816406 11.109375 -21.109375 C 11.679688 -21.398438 12.398438 -21.546875 13.265625 -21.546875 C 13.960938 -21.546875 14.53125 -21.445312 14.96875 -21.25 L 14.96875 -16.65625 C 14.082031 -16.851562 13.300781 -16.953125 12.625 -16.953125 C 11.25 -16.953125 10.179688 -16.398438 9.421875 -15.296875 C 8.660156 -14.191406 8.28125 -12.550781 8.28125 -10.375 L 8.28125 0 Z M 2.796875 0 "/></g></g></g><g fill="#000000" fill-opacity="1"><g transform="translate(285.379321, 51.691398)"><g><path d="M 7.671875 0.390625 C 5.628906 0.390625 4.035156 -0.164062 2.890625 -1.28125 C 1.742188 -2.394531 1.171875 -3.960938 1.171875 -5.984375 C 1.171875 -8.171875 1.882812 -9.835938 3.3125 -10.984375 C 4.738281 -12.128906 6.804688 -12.710938 9.515625 -12.734375 L 14.0625 -12.8125 L 14.0625 -13.890625 C 14.0625 -15.265625 13.820312 -16.285156 13.34375 -16.953125 C 12.863281 -17.628906 12.078125 -17.96875 10.984375 -17.96875 C 9.960938 -17.96875 9.210938 -17.734375 8.734375 -17.265625 C 8.265625 -16.804688 7.972656 -16.046875 7.859375 -14.984375 L 2.125 -15.25 C 2.476562 -17.3125 3.421875 -18.875 4.953125 -19.9375 C 6.484375 -21 8.570312 -21.53125 11.21875 -21.53125 C 13.882812 -21.53125 15.9375 -20.867188 17.375 -19.546875 C 18.820312 -18.234375 19.546875 -16.367188 19.546875 -13.953125 L 19.546875 -6.25 C 19.546875 -5.0625 19.679688 -4.242188 19.953125 -3.796875 C 20.222656 -3.347656 20.671875 -3.125 21.296875 -3.125 C 21.710938 -3.125 22.113281 -3.164062 22.5 -3.25 L 22.5 -0.28125 C 22.175781 -0.195312 21.882812 -0.117188 21.625 -0.046875 C 21.363281 0.015625 21.101562 0.0625 20.84375 0.09375 C 20.582031 0.132812 20.304688 0.164062 20.015625 0.1875 C 19.722656 0.21875 19.378906 0.234375 18.984375 0.234375 C 17.609375 0.234375 16.585938 -0.101562 15.921875 -0.78125 C 15.265625 -1.457031 14.875 -2.453125 14.75 -3.765625 L 14.625 -3.765625 C 13.09375 -0.992188 10.773438 0.390625 7.671875 0.390625 Z M 14.0625 -9.78125 L 11.25 -9.75 C 9.976562 -9.695312 9.070312 -9.554688 8.53125 -9.328125 C 8 -9.097656 7.59375 -8.75 7.3125 -8.28125 C 7.03125 -7.8125 6.890625 -7.1875 6.890625 -6.40625 C 6.890625 -5.40625 7.117188 -4.660156 7.578125 -4.171875 C 8.046875 -3.679688 8.664062 -3.4375 9.4375 -3.4375 C 10.289062 -3.4375 11.070312 -3.671875 11.78125 -4.140625 C 12.5 -4.609375 13.054688 -5.253906 13.453125 -6.078125 C 13.859375 -6.910156 14.0625 -7.789062 14.0625 -8.71875 Z M 14.0625 -9.78125 "/></g></g></g></svg>