<svg xmlns="http://www.w3.org/2000/svg" xmlns:xlink="http://www.w3.org/1999/xlink" width="1224" zoomAndPan="magnify" viewBox="0 0 918 164.249993" height="219" preserveAspectRatio="xMidYMid meet" version="1.0"><defs><g/></defs><g fill="#000000" fill-opacity="1"><g transform="translate(16.502981, 60.398044)"><g><path d="M 10.453125 -5.859375 L 25.921875 -5.859375 L 25.921875 0 L 3.15625 0 L 3.15625 -35.375 L 10.453125 -35.375 Z M 10.453125 -5.859375 "/></g></g></g><g fill="#000000" fill-opacity="1"><g transform="translate(43.450894, 60.398044)"><g><path d="M 14.796875 0.484375 C 10.941406 0.484375 7.800781 -0.695312 5.375 -3.0625 C 2.957031 -5.425781 1.75 -8.578125 1.75 -12.515625 L 1.75 -13.1875 C 1.75 -15.832031 2.257812 -18.195312 3.28125 -20.28125 C 4.300781 -22.363281 5.742188 -23.96875 7.609375 -25.09375 C 9.484375 -26.21875 11.617188 -26.78125 14.015625 -26.78125 C 17.617188 -26.78125 20.453125 -25.644531 22.515625 -23.375 C 24.578125 -21.101562 25.609375 -17.890625 25.609375 -13.734375 L 25.609375 -10.859375 L 8.875 -10.859375 C 9.09375 -9.140625 9.773438 -7.757812 10.921875 -6.71875 C 12.066406 -5.6875 13.515625 -5.171875 15.265625 -5.171875 C 17.960938 -5.171875 20.078125 -6.148438 21.609375 -8.109375 L 25.046875 -4.25 C 23.992188 -2.757812 22.566406 -1.597656 20.765625 -0.765625 C 18.972656 0.0664062 16.984375 0.484375 14.796875 0.484375 Z M 14 -21.09375 C 12.601562 -21.09375 11.472656 -20.617188 10.609375 -19.671875 C 9.742188 -18.734375 9.1875 -17.394531 8.9375 -15.65625 L 18.703125 -15.65625 L 18.703125 -16.203125 C 18.671875 -17.765625 18.25 -18.96875 17.4375 -19.8125 C 16.632812 -20.664062 15.488281 -21.09375 14 -21.09375 Z M 14 -21.09375 "/></g></g></g><g fill="#000000" fill-opacity="1"><g transform="translate(70.350209, 60.398044)"><g><path d="M 9.15625 -26.296875 L 9.375 -23.25 C 11.257812 -25.601562 13.78125 -26.78125 16.9375 -26.78125 C 19.71875 -26.78125 21.789062 -25.960938 23.15625 -24.328125 C 24.519531 -22.691406 25.21875 -20.242188 25.25 -16.984375 L 25.25 0 L 18.21875 0 L 18.21875 -16.8125 C 18.21875 -18.300781 17.894531 -19.378906 17.25 -20.046875 C 16.601562 -20.722656 15.523438 -21.0625 14.015625 -21.0625 C 12.046875 -21.0625 10.566406 -20.222656 9.578125 -18.546875 L 9.578125 0 L 2.546875 0 L 2.546875 -26.296875 Z M 9.15625 -26.296875 "/></g></g></g><g fill="#000000" fill-opacity="1"><g transform="translate(98.221495, 60.398044)"><g><path d="M 1.671875 -13.34375 C 1.671875 -17.375 2.628906 -20.617188 4.546875 -23.078125 C 6.472656 -25.546875 9.0625 -26.78125 12.3125 -26.78125 C 15.195312 -26.78125 17.441406 -25.789062 19.046875 -23.8125 L 19.34375 -26.296875 L 25.703125 -26.296875 L 25.703125 -0.875 C 25.703125 1.425781 25.179688 3.425781 24.140625 5.125 C 23.097656 6.820312 21.628906 8.117188 19.734375 9.015625 C 17.835938 9.910156 15.617188 10.359375 13.078125 10.359375 C 11.148438 10.359375 9.269531 9.972656 7.4375 9.203125 C 5.601562 8.429688 4.21875 7.4375 3.28125 6.21875 L 6.390625 1.9375 C 8.140625 3.90625 10.257812 4.890625 12.75 4.890625 C 14.613281 4.890625 16.0625 4.390625 17.09375 3.390625 C 18.132812 2.390625 18.65625 0.976562 18.65625 -0.84375 L 18.65625 -2.265625 C 17.039062 -0.429688 14.910156 0.484375 12.265625 0.484375 C 9.109375 0.484375 6.550781 -0.75 4.59375 -3.21875 C 2.644531 -5.6875 1.671875 -8.960938 1.671875 -13.046875 Z M 8.703125 -12.828125 C 8.703125 -10.453125 9.175781 -8.585938 10.125 -7.234375 C 11.082031 -5.878906 12.394531 -5.203125 14.0625 -5.203125 C 16.207031 -5.203125 17.738281 -6.003906 18.65625 -7.609375 L 18.65625 -18.65625 C 17.71875 -20.257812 16.207031 -21.0625 14.125 -21.0625 C 12.4375 -21.0625 11.109375 -20.375 10.140625 -19 C 9.179688 -17.625 8.703125 -15.566406 8.703125 -12.828125 Z M 8.703125 -12.828125 "/></g></g></g><g fill="#000000" fill-opacity="1"><g transform="translate(126.627365, 60.398044)"><g><path d="M 12.25 -10.546875 L 9.71875 -8.015625 L 9.71875 0 L 2.703125 0 L 2.703125 -37.328125 L 9.71875 -37.328125 L 9.71875 -16.640625 L 11.078125 -18.390625 L 17.8125 -26.296875 L 26.25 -26.296875 L 16.75 -15.328125 L 27.0625 0 L 19 0 Z M 12.25 -10.546875 "/></g></g></g><g fill="#000000" fill-opacity="1"><g transform="translate(153.210789, 60.398044)"><g><path d="M 17.9375 0 C 17.613281 -0.632812 17.378906 -1.421875 17.234375 -2.359375 C 15.523438 -0.460938 13.3125 0.484375 10.59375 0.484375 C 8.019531 0.484375 5.882812 -0.257812 4.1875 -1.75 C 2.5 -3.238281 1.65625 -5.117188 1.65625 -7.390625 C 1.65625 -10.171875 2.6875 -12.304688 4.75 -13.796875 C 6.8125 -15.285156 9.796875 -16.039062 13.703125 -16.0625 L 16.9375 -16.0625 L 16.9375 -17.5625 C 16.9375 -18.78125 16.625 -19.753906 16 -20.484375 C 15.375 -21.210938 14.390625 -21.578125 13.046875 -21.578125 C 11.867188 -21.578125 10.941406 -21.289062 10.265625 -20.71875 C 9.597656 -20.15625 9.265625 -19.378906 9.265625 -18.390625 L 2.234375 -18.390625 C 2.234375 -19.910156 2.703125 -21.316406 3.640625 -22.609375 C 4.578125 -23.910156 5.90625 -24.929688 7.625 -25.671875 C 9.34375 -26.410156 11.269531 -26.78125 13.40625 -26.78125 C 16.644531 -26.78125 19.21875 -25.960938 21.125 -24.328125 C 23.03125 -22.703125 23.984375 -20.414062 23.984375 -17.46875 L 23.984375 -6.078125 C 24.003906 -3.578125 24.351562 -1.6875 25.03125 -0.40625 L 25.03125 0 Z M 12.125 -4.890625 C 13.164062 -4.890625 14.125 -5.117188 15 -5.578125 C 15.875 -6.035156 16.519531 -6.65625 16.9375 -7.4375 L 16.9375 -11.953125 L 14.3125 -11.953125 C 10.800781 -11.953125 8.929688 -10.738281 8.703125 -8.3125 L 8.671875 -7.890625 C 8.671875 -7.015625 8.976562 -6.296875 9.59375 -5.734375 C 10.207031 -5.171875 11.050781 -4.890625 12.125 -4.890625 Z M 12.125 -4.890625 "/></g></g></g><g fill="#000000" fill-opacity="1"><g transform="translate(179.891409, 60.398044)"><g><path d="M 26.359375 -12.90625 C 26.359375 -8.851562 25.4375 -5.609375 23.59375 -3.171875 C 21.757812 -0.734375 19.28125 0.484375 16.15625 0.484375 C 13.5 0.484375 11.351562 -0.4375 9.71875 -2.28125 L 9.71875 10.109375 L 2.703125 10.109375 L 2.703125 -26.296875 L 9.203125 -26.296875 L 9.453125 -23.71875 C 11.148438 -25.757812 13.367188 -26.78125 16.109375 -26.78125 C 19.347656 -26.78125 21.863281 -25.578125 23.65625 -23.171875 C 25.457031 -20.773438 26.359375 -17.472656 26.359375 -13.265625 Z M 19.34375 -13.40625 C 19.34375 -15.851562 18.910156 -17.738281 18.046875 -19.0625 C 17.179688 -20.394531 15.921875 -21.0625 14.265625 -21.0625 C 12.054688 -21.0625 10.539062 -20.222656 9.71875 -18.546875 L 9.71875 -7.78125 C 10.570312 -6.039062 12.101562 -5.171875 14.3125 -5.171875 C 17.664062 -5.171875 19.34375 -7.914062 19.34375 -13.40625 Z M 19.34375 -13.40625 "/></g></g></g><g fill="#000000" fill-opacity="1"><g transform="translate(207.908479, 60.398044)"><g><path d="M 10.109375 0 L 3.0625 0 L 3.0625 -26.296875 L 10.109375 -26.296875 Z M 2.65625 -33.09375 C 2.65625 -34.144531 3.003906 -35.007812 3.703125 -35.6875 C 4.410156 -36.375 5.367188 -36.71875 6.578125 -36.71875 C 7.785156 -36.71875 8.742188 -36.375 9.453125 -35.6875 C 10.160156 -35.007812 10.515625 -34.144531 10.515625 -33.09375 C 10.515625 -32.03125 10.15625 -31.15625 9.4375 -30.46875 C 8.71875 -29.789062 7.765625 -29.453125 6.578125 -29.453125 C 5.398438 -29.453125 4.453125 -29.789062 3.734375 -30.46875 C 3.015625 -31.15625 2.65625 -32.03125 2.65625 -33.09375 Z M 2.65625 -33.09375 "/></g></g></g><g fill="#000000" fill-opacity="1"><g transform="translate(221.103005, 60.398044)"><g/></g></g><g fill="#000000" fill-opacity="1"><g transform="translate(233.495643, 60.398044)"><g><path d="M 1.609375 -13.34375 C 1.609375 -17.4375 2.523438 -20.695312 4.359375 -23.125 C 6.203125 -25.5625 8.71875 -26.78125 11.90625 -26.78125 C 14.46875 -26.78125 16.582031 -25.820312 18.25 -23.90625 L 18.25 -37.328125 L 25.296875 -37.328125 L 25.296875 0 L 18.953125 0 L 18.609375 -2.796875 C 16.859375 -0.609375 14.609375 0.484375 11.859375 0.484375 C 8.765625 0.484375 6.28125 -0.734375 4.40625 -3.171875 C 2.539062 -5.609375 1.609375 -9 1.609375 -13.34375 Z M 8.625 -12.828125 C 8.625 -10.367188 9.050781 -8.484375 9.90625 -7.171875 C 10.769531 -5.859375 12.019531 -5.203125 13.65625 -5.203125 C 15.820312 -5.203125 17.351562 -6.117188 18.25 -7.953125 L 18.25 -18.328125 C 17.375 -20.148438 15.859375 -21.0625 13.703125 -21.0625 C 10.316406 -21.0625 8.625 -18.316406 8.625 -12.828125 Z M 8.625 -12.828125 "/></g></g></g><g fill="#000000" fill-opacity="1"><g transform="translate(261.537024, 60.398044)"><g><path d="M 14.796875 0.484375 C 10.941406 0.484375 7.800781 -0.695312 5.375 -3.0625 C 2.957031 -5.425781 1.75 -8.578125 1.75 -12.515625 L 1.75 -13.1875 C 1.75 -15.832031 2.257812 -18.195312 3.28125 -20.28125 C 4.300781 -22.363281 5.742188 -23.96875 7.609375 -25.09375 C 9.484375 -26.21875 11.617188 -26.78125 14.015625 -26.78125 C 17.617188 -26.78125 20.453125 -25.644531 22.515625 -23.375 C 24.578125 -21.101562 25.609375 -17.890625 25.609375 -13.734375 L 25.609375 -10.859375 L 8.875 -10.859375 C 9.09375 -9.140625 9.773438 -7.757812 10.921875 -6.71875 C 12.066406 -5.6875 13.515625 -5.171875 15.265625 -5.171875 C 17.960938 -5.171875 20.078125 -6.148438 21.609375 -8.109375 L 25.046875 -4.25 C 23.992188 -2.757812 22.566406 -1.597656 20.765625 -0.765625 C 18.972656 0.0664062 16.984375 0.484375 14.796875 0.484375 Z M 14 -21.09375 C 12.601562 -21.09375 11.472656 -20.617188 10.609375 -19.671875 C 9.742188 -18.734375 9.1875 -17.394531 8.9375 -15.65625 L 18.703125 -15.65625 L 18.703125 -16.203125 C 18.671875 -17.765625 18.25 -18.96875 17.4375 -19.8125 C 16.632812 -20.664062 15.488281 -21.09375 14 -21.09375 Z M 14 -21.09375 "/></g></g></g><g fill="#000000" fill-opacity="1"><g transform="translate(288.43635, 60.398044)"><g><path d="M 17.46875 -19.703125 C 16.507812 -19.835938 15.664062 -19.90625 14.9375 -19.90625 C 12.28125 -19.90625 10.539062 -19.003906 9.71875 -17.203125 L 9.71875 0 L 2.703125 0 L 2.703125 -26.296875 L 9.328125 -26.296875 L 9.53125 -23.15625 C 10.9375 -25.570312 12.882812 -26.78125 15.375 -26.78125 C 16.15625 -26.78125 16.882812 -26.675781 17.5625 -26.46875 Z M 17.46875 -19.703125 "/></g></g></g><g fill="#000000" fill-opacity="1"><g transform="translate(306.126188, 60.398044)"><g><path d="M 14.796875 0.484375 C 10.941406 0.484375 7.800781 -0.695312 5.375 -3.0625 C 2.957031 -5.425781 1.75 -8.578125 1.75 -12.515625 L 1.75 -13.1875 C 1.75 -15.832031 2.257812 -18.195312 3.28125 -20.28125 C 4.300781 -22.363281 5.742188 -23.96875 7.609375 -25.09375 C 9.484375 -26.21875 11.617188 -26.78125 14.015625 -26.78125 C 17.617188 -26.78125 20.453125 -25.644531 22.515625 -23.375 C 24.578125 -21.101562 25.609375 -17.890625 25.609375 -13.734375 L 25.609375 -10.859375 L 8.875 -10.859375 C 9.09375 -9.140625 9.773438 -7.757812 10.921875 -6.71875 C 12.066406 -5.6875 13.515625 -5.171875 15.265625 -5.171875 C 17.960938 -5.171875 20.078125 -6.148438 21.609375 -8.109375 L 25.046875 -4.25 C 23.992188 -2.757812 22.566406 -1.597656 20.765625 -0.765625 C 18.972656 0.0664062 16.984375 0.484375 14.796875 0.484375 Z M 14 -21.09375 C 12.601562 -21.09375 11.472656 -20.617188 10.609375 -19.671875 C 9.742188 -18.734375 9.1875 -17.394531 8.9375 -15.65625 L 18.703125 -15.65625 L 18.703125 -16.203125 C 18.671875 -17.765625 18.25 -18.96875 17.4375 -19.8125 C 16.632812 -20.664062 15.488281 -21.09375 14 -21.09375 Z M 14 -21.09375 "/></g></g></g><g fill="#000000" fill-opacity="1"><g transform="translate(333.025513, 60.398044)"><g><path d="M 11.109375 -32.75 L 11.109375 -26.296875 L 15.59375 -26.296875 L 15.59375 -21.140625 L 11.109375 -21.140625 L 11.109375 -8.015625 C 11.109375 -7.046875 11.289062 -6.347656 11.65625 -5.921875 C 12.03125 -5.503906 12.742188 -5.296875 13.796875 -5.296875 C 14.578125 -5.296875 15.269531 -5.351562 15.875 -5.46875 L 15.875 -0.140625 C 14.488281 0.273438 13.066406 0.484375 11.609375 0.484375 C 6.691406 0.484375 4.179688 -2 4.078125 -6.96875 L 4.078125 -21.140625 L 0.25 -21.140625 L 0.25 -26.296875 L 4.078125 -26.296875 L 4.078125 -32.75 Z M 11.109375 -32.75 "/></g></g></g><g fill="#000000" fill-opacity="1"><g transform="translate(349.840622, 60.398044)"><g/></g></g><g fill="#000000" fill-opacity="1"><g transform="translate(362.23326, 60.398044)"><g><path d="M 26.390625 -12.90625 C 26.390625 -8.6875 25.488281 -5.398438 23.6875 -3.046875 C 21.894531 -0.691406 19.382812 0.484375 16.15625 0.484375 C 13.300781 0.484375 11.023438 -0.609375 9.328125 -2.796875 L 9.015625 0 L 2.703125 0 L 2.703125 -37.328125 L 9.71875 -37.328125 L 9.71875 -23.9375 C 11.34375 -25.832031 13.472656 -26.78125 16.109375 -26.78125 C 19.316406 -26.78125 21.832031 -25.597656 23.65625 -23.234375 C 25.476562 -20.878906 26.390625 -17.566406 26.390625 -13.296875 Z M 19.359375 -13.40625 C 19.359375 -16.070312 18.9375 -18.015625 18.09375 -19.234375 C 17.257812 -20.453125 16.007812 -21.0625 14.34375 -21.0625 C 12.101562 -21.0625 10.5625 -20.148438 9.71875 -18.328125 L 9.71875 -7.953125 C 10.570312 -6.097656 12.128906 -5.171875 14.390625 -5.171875 C 16.648438 -5.171875 18.140625 -6.289062 18.859375 -8.53125 C 19.191406 -9.601562 19.359375 -11.226562 19.359375 -13.40625 Z M 19.359375 -13.40625 "/></g></g></g><g fill="#000000" fill-opacity="1"><g transform="translate(390.250353, 60.398044)"><g><path d="M 10.109375 0 L 3.0625 0 L 3.0625 -26.296875 L 10.109375 -26.296875 Z M 2.65625 -33.09375 C 2.65625 -34.144531 3.003906 -35.007812 3.703125 -35.6875 C 4.410156 -36.375 5.367188 -36.71875 6.578125 -36.71875 C 7.785156 -36.71875 8.742188 -36.375 9.453125 -35.6875 C 10.160156 -35.007812 10.515625 -34.144531 10.515625 -33.09375 C 10.515625 -32.03125 10.15625 -31.15625 9.4375 -30.46875 C 8.71875 -29.789062 7.765625 -29.453125 6.578125 -29.453125 C 5.398438 -29.453125 4.453125 -29.789062 3.734375 -30.46875 C 3.015625 -31.15625 2.65625 -32.03125 2.65625 -33.09375 Z M 2.65625 -33.09375 "/></g></g></g><g fill="#000000" fill-opacity="1"><g transform="translate(403.444834, 60.398044)"><g><path d="M 10.109375 0 L 3.0625 0 L 3.0625 -37.328125 L 10.109375 -37.328125 Z M 10.109375 0 "/></g></g></g><g fill="#000000" fill-opacity="1"><g transform="translate(416.63936, 60.398044)"><g><path d="M 17.9375 0 C 17.613281 -0.632812 17.378906 -1.421875 17.234375 -2.359375 C 15.523438 -0.460938 13.3125 0.484375 10.59375 0.484375 C 8.019531 0.484375 5.882812 -0.257812 4.1875 -1.75 C 2.5 -3.238281 1.65625 -5.117188 1.65625 -7.390625 C 1.65625 -10.171875 2.6875 -12.304688 4.75 -13.796875 C 6.8125 -15.285156 9.796875 -16.039062 13.703125 -16.0625 L 16.9375 -16.0625 L 16.9375 -17.5625 C 16.9375 -18.78125 16.625 -19.753906 16 -20.484375 C 15.375 -21.210938 14.390625 -21.578125 13.046875 -21.578125 C 11.867188 -21.578125 10.941406 -21.289062 10.265625 -20.71875 C 9.597656 -20.15625 9.265625 -19.378906 9.265625 -18.390625 L 2.234375 -18.390625 C 2.234375 -19.910156 2.703125 -21.316406 3.640625 -22.609375 C 4.578125 -23.910156 5.90625 -24.929688 7.625 -25.671875 C 9.34375 -26.410156 11.269531 -26.78125 13.40625 -26.78125 C 16.644531 -26.78125 19.21875 -25.960938 21.125 -24.328125 C 23.03125 -22.703125 23.984375 -20.414062 23.984375 -17.46875 L 23.984375 -6.078125 C 24.003906 -3.578125 24.351562 -1.6875 25.03125 -0.40625 L 25.03125 0 Z M 12.125 -4.890625 C 13.164062 -4.890625 14.125 -5.117188 15 -5.578125 C 15.875 -6.035156 16.519531 -6.65625 16.9375 -7.4375 L 16.9375 -11.953125 L 14.3125 -11.953125 C 10.800781 -11.953125 8.929688 -10.738281 8.703125 -8.3125 L 8.671875 -7.890625 C 8.671875 -7.015625 8.976562 -6.296875 9.59375 -5.734375 C 10.207031 -5.171875 11.050781 -4.890625 12.125 -4.890625 Z M 12.125 -4.890625 "/></g></g></g><g fill="#000000" fill-opacity="1"><g transform="translate(443.320003, 60.398044)"><g><path d="M 9.15625 -26.296875 L 9.375 -23.25 C 11.257812 -25.601562 13.78125 -26.78125 16.9375 -26.78125 C 19.71875 -26.78125 21.789062 -25.960938 23.15625 -24.328125 C 24.519531 -22.691406 25.21875 -20.242188 25.25 -16.984375 L 25.25 0 L 18.21875 0 L 18.21875 -16.8125 C 18.21875 -18.300781 17.894531 -19.378906 17.25 -20.046875 C 16.601562 -20.722656 15.523438 -21.0625 14.015625 -21.0625 C 12.046875 -21.0625 10.566406 -20.222656 9.578125 -18.546875 L 9.578125 0 L 2.546875 0 L 2.546875 -26.296875 Z M 9.15625 -26.296875 "/></g></g></g><g fill="#000000" fill-opacity="1"><g transform="translate(471.1913, 60.398044)"><g><path d="M 1.671875 -13.34375 C 1.671875 -17.375 2.628906 -20.617188 4.546875 -23.078125 C 6.472656 -25.546875 9.0625 -26.78125 12.3125 -26.78125 C 15.195312 -26.78125 17.441406 -25.789062 19.046875 -23.8125 L 19.34375 -26.296875 L 25.703125 -26.296875 L 25.703125 -0.875 C 25.703125 1.425781 25.179688 3.425781 24.140625 5.125 C 23.097656 6.820312 21.628906 8.117188 19.734375 9.015625 C 17.835938 9.910156 15.617188 10.359375 13.078125 10.359375 C 11.148438 10.359375 9.269531 9.972656 7.4375 9.203125 C 5.601562 8.429688 4.21875 7.4375 3.28125 6.21875 L 6.390625 1.9375 C 8.140625 3.90625 10.257812 4.890625 12.75 4.890625 C 14.613281 4.890625 16.0625 4.390625 17.09375 3.390625 C 18.132812 2.390625 18.65625 0.976562 18.65625 -0.84375 L 18.65625 -2.265625 C 17.039062 -0.429688 14.910156 0.484375 12.265625 0.484375 C 9.109375 0.484375 6.550781 -0.75 4.59375 -3.21875 C 2.644531 -5.6875 1.671875 -8.960938 1.671875 -13.046875 Z M 8.703125 -12.828125 C 8.703125 -10.453125 9.175781 -8.585938 10.125 -7.234375 C 11.082031 -5.878906 12.394531 -5.203125 14.0625 -5.203125 C 16.207031 -5.203125 17.738281 -6.003906 18.65625 -7.609375 L 18.65625 -18.65625 C 17.71875 -20.257812 16.207031 -21.0625 14.125 -21.0625 C 12.4375 -21.0625 11.109375 -20.375 10.140625 -19 C 9.179688 -17.625 8.703125 -15.566406 8.703125 -12.828125 Z M 8.703125 -12.828125 "/></g></g></g><g fill="#000000" fill-opacity="1"><g transform="translate(499.597159, 60.398044)"><g><path d="M 17.9375 0 C 17.613281 -0.632812 17.378906 -1.421875 17.234375 -2.359375 C 15.523438 -0.460938 13.3125 0.484375 10.59375 0.484375 C 8.019531 0.484375 5.882812 -0.257812 4.1875 -1.75 C 2.5 -3.238281 1.65625 -5.117188 1.65625 -7.390625 C 1.65625 -10.171875 2.6875 -12.304688 4.75 -13.796875 C 6.8125 -15.285156 9.796875 -16.039062 13.703125 -16.0625 L 16.9375 -16.0625 L 16.9375 -17.5625 C 16.9375 -18.78125 16.625 -19.753906 16 -20.484375 C 15.375 -21.210938 14.390625 -21.578125 13.046875 -21.578125 C 11.867188 -21.578125 10.941406 -21.289062 10.265625 -20.71875 C 9.597656 -20.15625 9.265625 -19.378906 9.265625 -18.390625 L 2.234375 -18.390625 C 2.234375 -19.910156 2.703125 -21.316406 3.640625 -22.609375 C 4.578125 -23.910156 5.90625 -24.929688 7.625 -25.671875 C 9.34375 -26.410156 11.269531 -26.78125 13.40625 -26.78125 C 16.644531 -26.78125 19.21875 -25.960938 21.125 -24.328125 C 23.03125 -22.703125 23.984375 -20.414062 23.984375 -17.46875 L 23.984375 -6.078125 C 24.003906 -3.578125 24.351562 -1.6875 25.03125 -0.40625 L 25.03125 0 Z M 12.125 -4.890625 C 13.164062 -4.890625 14.125 -5.117188 15 -5.578125 C 15.875 -6.035156 16.519531 -6.65625 16.9375 -7.4375 L 16.9375 -11.953125 L 14.3125 -11.953125 C 10.800781 -11.953125 8.929688 -10.738281 8.703125 -8.3125 L 8.671875 -7.890625 C 8.671875 -7.015625 8.976562 -6.296875 9.59375 -5.734375 C 10.207031 -5.171875 11.050781 -4.890625 12.125 -4.890625 Z M 12.125 -4.890625 "/></g></g></g><g fill="#000000" fill-opacity="1"><g transform="translate(526.277757, 60.398044)"><g><path d="M 9.15625 -26.296875 L 9.375 -23.25 C 11.257812 -25.601562 13.78125 -26.78125 16.9375 -26.78125 C 19.71875 -26.78125 21.789062 -25.960938 23.15625 -24.328125 C 24.519531 -22.691406 25.21875 -20.242188 25.25 -16.984375 L 25.25 0 L 18.21875 0 L 18.21875 -16.8125 C 18.21875 -18.300781 17.894531 -19.378906 17.25 -20.046875 C 16.601562 -20.722656 15.523438 -21.0625 14.015625 -21.0625 C 12.046875 -21.0625 10.566406 -20.222656 9.578125 -18.546875 L 9.578125 0 L 2.546875 0 L 2.546875 -26.296875 Z M 9.15625 -26.296875 "/></g></g></g><g fill="#000000" fill-opacity="1"><g transform="translate(554.149054, 60.398044)"><g/></g></g><g fill="#000000" fill-opacity="1"><g transform="translate(566.541669, 60.398044)"><g><path d="M 12.25 -10.546875 L 9.71875 -8.015625 L 9.71875 0 L 2.703125 0 L 2.703125 -37.328125 L 9.71875 -37.328125 L 9.71875 -16.640625 L 11.078125 -18.390625 L 17.8125 -26.296875 L 26.25 -26.296875 L 16.75 -15.328125 L 27.0625 0 L 19 0 Z M 12.25 -10.546875 "/></g></g></g><g fill="#000000" fill-opacity="1"><g transform="translate(593.125115, 60.398044)"><g><path d="M 1.609375 -13.390625 C 1.609375 -15.992188 2.109375 -18.316406 3.109375 -20.359375 C 4.109375 -22.398438 5.550781 -23.976562 7.4375 -25.09375 C 9.332031 -26.21875 11.523438 -26.78125 14.015625 -26.78125 C 17.566406 -26.78125 20.460938 -25.691406 22.703125 -23.515625 C 24.953125 -21.347656 26.207031 -18.398438 26.46875 -14.671875 L 26.515625 -12.875 C 26.515625 -8.84375 25.382812 -5.609375 23.125 -3.171875 C 20.875 -0.734375 17.851562 0.484375 14.0625 0.484375 C 10.28125 0.484375 7.257812 -0.726562 5 -3.15625 C 2.738281 -5.582031 1.609375 -8.890625 1.609375 -13.078125 Z M 8.625 -12.875 C 8.625 -10.382812 9.09375 -8.476562 10.03125 -7.15625 C 10.96875 -5.832031 12.3125 -5.171875 14.0625 -5.171875 C 15.769531 -5.171875 17.097656 -5.820312 18.046875 -7.125 C 19.003906 -8.4375 19.484375 -10.523438 19.484375 -13.390625 C 19.484375 -15.835938 19.003906 -17.734375 18.046875 -19.078125 C 17.097656 -20.421875 15.753906 -21.09375 14.015625 -21.09375 C 12.296875 -21.09375 10.96875 -20.421875 10.03125 -19.078125 C 9.09375 -17.742188 8.625 -15.675781 8.625 -12.875 Z M 8.625 -12.875 "/></g></g></g><g fill="#000000" fill-opacity="1"><g transform="translate(621.263716, 60.398044)"><g><path d="M 16.9375 -7.265625 C 16.9375 -8.117188 16.507812 -8.789062 15.65625 -9.28125 C 14.8125 -9.78125 13.445312 -10.226562 11.5625 -10.625 C 5.3125 -11.9375 2.1875 -14.59375 2.1875 -18.59375 C 2.1875 -20.925781 3.15625 -22.875 5.09375 -24.4375 C 7.03125 -26 9.5625 -26.78125 12.6875 -26.78125 C 16.019531 -26.78125 18.6875 -25.992188 20.6875 -24.421875 C 22.6875 -22.847656 23.6875 -20.804688 23.6875 -18.296875 L 16.671875 -18.296875 C 16.671875 -19.296875 16.34375 -20.125 15.6875 -20.78125 C 15.039062 -21.4375 14.03125 -21.765625 12.65625 -21.765625 C 11.476562 -21.765625 10.5625 -21.5 9.90625 -20.96875 C 9.257812 -20.4375 8.9375 -19.753906 8.9375 -18.921875 C 8.9375 -18.148438 9.304688 -17.523438 10.046875 -17.046875 C 10.785156 -16.566406 12.03125 -16.148438 13.78125 -15.796875 C 15.53125 -15.453125 17.003906 -15.0625 18.203125 -14.625 C 21.910156 -13.269531 23.765625 -10.914062 23.765625 -7.5625 C 23.765625 -5.15625 22.734375 -3.210938 20.671875 -1.734375 C 18.617188 -0.253906 15.960938 0.484375 12.703125 0.484375 C 10.503906 0.484375 8.550781 0.09375 6.84375 -0.6875 C 5.132812 -1.476562 3.789062 -2.554688 2.8125 -3.921875 C 1.84375 -5.296875 1.359375 -6.773438 1.359375 -8.359375 L 8.015625 -8.359375 C 8.078125 -7.109375 8.535156 -6.148438 9.390625 -5.484375 C 10.253906 -4.828125 11.410156 -4.5 12.859375 -4.5 C 14.203125 -4.5 15.21875 -4.753906 15.90625 -5.265625 C 16.59375 -5.773438 16.9375 -6.441406 16.9375 -7.265625 Z M 16.9375 -7.265625 "/></g></g></g><g fill="#000000" fill-opacity="1"><g transform="translate(646.850857, 60.398044)"><g><path d="M 1.609375 -13.390625 C 1.609375 -15.992188 2.109375 -18.316406 3.109375 -20.359375 C 4.109375 -22.398438 5.550781 -23.976562 7.4375 -25.09375 C 9.332031 -26.21875 11.523438 -26.78125 14.015625 -26.78125 C 17.566406 -26.78125 20.460938 -25.691406 22.703125 -23.515625 C 24.953125 -21.347656 26.207031 -18.398438 26.46875 -14.671875 L 26.515625 -12.875 C 26.515625 -8.84375 25.382812 -5.609375 23.125 -3.171875 C 20.875 -0.734375 17.851562 0.484375 14.0625 0.484375 C 10.28125 0.484375 7.257812 -0.726562 5 -3.15625 C 2.738281 -5.582031 1.609375 -8.890625 1.609375 -13.078125 Z M 8.625 -12.875 C 8.625 -10.382812 9.09375 -8.476562 10.03125 -7.15625 C 10.96875 -5.832031 12.3125 -5.171875 14.0625 -5.171875 C 15.769531 -5.171875 17.097656 -5.820312 18.046875 -7.125 C 19.003906 -8.4375 19.484375 -10.523438 19.484375 -13.390625 C 19.484375 -15.835938 19.003906 -17.734375 18.046875 -19.078125 C 17.097656 -20.421875 15.753906 -21.09375 14.015625 -21.09375 C 12.296875 -21.09375 10.96875 -20.421875 10.03125 -19.078125 C 9.09375 -17.742188 8.625 -15.675781 8.625 -12.875 Z M 8.625 -12.875 "/></g></g></g><g fill="#000000" fill-opacity="1"><g transform="translate(674.989412, 60.398044)"><g><path d="M 9.15625 -26.296875 L 9.375 -23.25 C 11.257812 -25.601562 13.78125 -26.78125 16.9375 -26.78125 C 19.71875 -26.78125 21.789062 -25.960938 23.15625 -24.328125 C 24.519531 -22.691406 25.21875 -20.242188 25.25 -16.984375 L 25.25 0 L 18.21875 0 L 18.21875 -16.8125 C 18.21875 -18.300781 17.894531 -19.378906 17.25 -20.046875 C 16.601562 -20.722656 15.523438 -21.0625 14.015625 -21.0625 C 12.046875 -21.0625 10.566406 -20.222656 9.578125 -18.546875 L 9.578125 0 L 2.546875 0 L 2.546875 -26.296875 Z M 9.15625 -26.296875 "/></g></g></g><g fill="#000000" fill-opacity="1"><g transform="translate(702.860709, 60.398044)"><g><path d="M 1.671875 -13.34375 C 1.671875 -17.375 2.628906 -20.617188 4.546875 -23.078125 C 6.472656 -25.546875 9.0625 -26.78125 12.3125 -26.78125 C 15.195312 -26.78125 17.441406 -25.789062 19.046875 -23.8125 L 19.34375 -26.296875 L 25.703125 -26.296875 L 25.703125 -0.875 C 25.703125 1.425781 25.179688 3.425781 24.140625 5.125 C 23.097656 6.820312 21.628906 8.117188 19.734375 9.015625 C 17.835938 9.910156 15.617188 10.359375 13.078125 10.359375 C 11.148438 10.359375 9.269531 9.972656 7.4375 9.203125 C 5.601562 8.429688 4.21875 7.4375 3.28125 6.21875 L 6.390625 1.9375 C 8.140625 3.90625 10.257812 4.890625 12.75 4.890625 C 14.613281 4.890625 16.0625 4.390625 17.09375 3.390625 C 18.132812 2.390625 18.65625 0.976562 18.65625 -0.84375 L 18.65625 -2.265625 C 17.039062 -0.429688 14.910156 0.484375 12.265625 0.484375 C 9.109375 0.484375 6.550781 -0.75 4.59375 -3.21875 C 2.644531 -5.6875 1.671875 -8.960938 1.671875 -13.046875 Z M 8.703125 -12.828125 C 8.703125 -10.453125 9.175781 -8.585938 10.125 -7.234375 C 11.082031 -5.878906 12.394531 -5.203125 14.0625 -5.203125 C 16.207031 -5.203125 17.738281 -6.003906 18.65625 -7.609375 L 18.65625 -18.65625 C 17.71875 -20.257812 16.207031 -21.0625 14.125 -21.0625 C 12.4375 -21.0625 11.109375 -20.375 10.140625 -19 C 9.179688 -17.625 8.703125 -15.566406 8.703125 -12.828125 Z M 8.703125 -12.828125 "/></g></g></g><g fill="#000000" fill-opacity="1"><g transform="translate(731.266568, 60.398044)"><g/></g></g><g fill="#000000" fill-opacity="1"><g transform="translate(743.659229, 60.398044)"><g><path d="M 26.390625 -12.90625 C 26.390625 -8.6875 25.488281 -5.398438 23.6875 -3.046875 C 21.894531 -0.691406 19.382812 0.484375 16.15625 0.484375 C 13.300781 0.484375 11.023438 -0.609375 9.328125 -2.796875 L 9.015625 0 L 2.703125 0 L 2.703125 -37.328125 L 9.71875 -37.328125 L 9.71875 -23.9375 C 11.34375 -25.832031 13.472656 -26.78125 16.109375 -26.78125 C 19.316406 -26.78125 21.832031 -25.597656 23.65625 -23.234375 C 25.476562 -20.878906 26.390625 -17.566406 26.390625 -13.296875 Z M 19.359375 -13.40625 C 19.359375 -16.070312 18.9375 -18.015625 18.09375 -19.234375 C 17.257812 -20.453125 16.007812 -21.0625 14.34375 -21.0625 C 12.101562 -21.0625 10.5625 -20.148438 9.71875 -18.328125 L 9.71875 -7.953125 C 10.570312 -6.097656 12.128906 -5.171875 14.390625 -5.171875 C 16.648438 -5.171875 18.140625 -6.289062 18.859375 -8.53125 C 19.191406 -9.601562 19.359375 -11.226562 19.359375 -13.40625 Z M 19.359375 -13.40625 "/></g></g></g><g fill="#000000" fill-opacity="1"><g transform="translate(771.676299, 60.398044)"><g><path d="M 14.796875 0.484375 C 10.941406 0.484375 7.800781 -0.695312 5.375 -3.0625 C 2.957031 -5.425781 1.75 -8.578125 1.75 -12.515625 L 1.75 -13.1875 C 1.75 -15.832031 2.257812 -18.195312 3.28125 -20.28125 C 4.300781 -22.363281 5.742188 -23.96875 7.609375 -25.09375 C 9.484375 -26.21875 11.617188 -26.78125 14.015625 -26.78125 C 17.617188 -26.78125 20.453125 -25.644531 22.515625 -23.375 C 24.578125 -21.101562 25.609375 -17.890625 25.609375 -13.734375 L 25.609375 -10.859375 L 8.875 -10.859375 C 9.09375 -9.140625 9.773438 -7.757812 10.921875 -6.71875 C 12.066406 -5.6875 13.515625 -5.171875 15.265625 -5.171875 C 17.960938 -5.171875 20.078125 -6.148438 21.609375 -8.109375 L 25.046875 -4.25 C 23.992188 -2.757812 22.566406 -1.597656 20.765625 -0.765625 C 18.972656 0.0664062 16.984375 0.484375 14.796875 0.484375 Z M 14 -21.09375 C 12.601562 -21.09375 11.472656 -20.617188 10.609375 -19.671875 C 9.742188 -18.734375 9.1875 -17.394531 8.9375 -15.65625 L 18.703125 -15.65625 L 18.703125 -16.203125 C 18.671875 -17.765625 18.25 -18.96875 17.4375 -19.8125 C 16.632812 -20.664062 15.488281 -21.09375 14 -21.09375 Z M 14 -21.09375 "/></g></g></g><g fill="#000000" fill-opacity="1"><g transform="translate(798.575579, 60.398044)"><g><path d="M 17.46875 -19.703125 C 16.507812 -19.835938 15.664062 -19.90625 14.9375 -19.90625 C 12.28125 -19.90625 10.539062 -19.003906 9.71875 -17.203125 L 9.71875 0 L 2.703125 0 L 2.703125 -26.296875 L 9.328125 -26.296875 L 9.53125 -23.15625 C 10.9375 -25.570312 12.882812 -26.78125 15.375 -26.78125 C 16.15625 -26.78125 16.882812 -26.675781 17.5625 -26.46875 Z M 17.46875 -19.703125 "/></g></g></g><g fill="#000000" fill-opacity="1"><g transform="translate(816.72716, 60.398044)"><g><path d="M 10.109375 0 L 3.0625 0 L 3.0625 -26.296875 L 10.109375 -26.296875 Z M 2.65625 -33.09375 C 2.65625 -34.144531 3.003906 -35.007812 3.703125 -35.6875 C 4.410156 -36.375 5.367188 -36.71875 6.578125 -36.71875 C 7.785156 -36.71875 8.742188 -36.375 9.453125 -35.6875 C 10.160156 -35.007812 10.515625 -34.144531 10.515625 -33.09375 C 10.515625 -32.03125 10.15625 -31.15625 9.4375 -30.46875 C 8.71875 -29.789062 7.765625 -29.453125 6.578125 -29.453125 C 5.398438 -29.453125 4.453125 -29.789062 3.734375 -30.46875 C 3.015625 -31.15625 2.65625 -32.03125 2.65625 -33.09375 Z M 2.65625 -33.09375 "/></g></g></g><g fill="#000000" fill-opacity="1"><g transform="translate(829.921731, 60.398044)"><g><path d="M 12.25 -10.546875 L 9.71875 -8.015625 L 9.71875 0 L 2.703125 0 L 2.703125 -37.328125 L 9.71875 -37.328125 L 9.71875 -16.640625 L 11.078125 -18.390625 L 17.8125 -26.296875 L 26.25 -26.296875 L 16.75 -15.328125 L 27.0625 0 L 19 0 Z M 12.25 -10.546875 "/></g></g></g><g fill="#000000" fill-opacity="1"><g transform="translate(856.505086, 60.398044)"><g><path d="M 18.4375 -2.671875 C 16.707031 -0.566406 14.3125 0.484375 11.25 0.484375 C 8.425781 0.484375 6.273438 -0.320312 4.796875 -1.9375 C 3.316406 -3.5625 2.5625 -5.9375 2.53125 -9.0625 L 2.53125 -26.296875 L 9.546875 -26.296875 L 9.546875 -9.3125 C 9.546875 -6.570312 10.796875 -5.203125 13.296875 -5.203125 C 15.671875 -5.203125 17.304688 -6.023438 18.203125 -7.671875 L 18.203125 -26.296875 L 25.25 -26.296875 L 25.25 0 L 18.640625 0 Z M 18.4375 -2.671875 "/></g></g></g><g fill="#000000" fill-opacity="1"><g transform="translate(884.352141, 60.398044)"><g><path d="M 11.109375 -32.75 L 11.109375 -26.296875 L 15.59375 -26.296875 L 15.59375 -21.140625 L 11.109375 -21.140625 L 11.109375 -8.015625 C 11.109375 -7.046875 11.289062 -6.347656 11.65625 -5.921875 C 12.03125 -5.503906 12.742188 -5.296875 13.796875 -5.296875 C 14.578125 -5.296875 15.269531 -5.351562 15.875 -5.46875 L 15.875 -0.140625 C 14.488281 0.273438 13.066406 0.484375 11.609375 0.484375 C 6.691406 0.484375 4.179688 -2 4.078125 -6.96875 L 4.078125 -21.140625 L 0.25 -21.140625 L 0.25 -26.296875 L 4.078125 -26.296875 L 4.078125 -32.75 Z M 11.109375 -32.75 "/></g></g></g><g fill="#000000" fill-opacity="1"><g transform="translate(241.899353, 135.352902)"><g><path d="M 19.46875 0 L 12.4375 0 L 12.4375 -27.0625 L 4.0625 -24.46875 L 4.0625 -30.1875 L 18.703125 -35.421875 L 19.46875 -35.421875 Z M 19.46875 0 "/></g></g></g><g fill="#000000" fill-opacity="1"><g transform="translate(270.45102, 135.352902)"><g><path d="M 4.515625 8.875 L 0.84375 6.953125 L 1.71875 5.375 C 2.8125 3.394531 3.375 1.425781 3.40625 -0.53125 L 3.40625 -5.984375 L 9.328125 -5.984375 L 9.3125 -1.125 C 9.289062 0.675781 8.832031 2.492188 7.9375 4.328125 C 7.050781 6.160156 5.910156 7.675781 4.515625 8.875 Z M 4.515625 8.875 "/></g></g></g><g fill="#000000" fill-opacity="1"><g transform="translate(282.600665, 135.352902)"><g/></g></g><g fill="#000000" fill-opacity="1"><g transform="translate(294.993303, 135.352902)"><g><path d="M 23.1875 -13.3125 L 27.1875 -13.3125 L 27.1875 -7.65625 L 23.1875 -7.65625 L 23.1875 0 L 16.15625 0 L 16.15625 -7.65625 L 1.65625 -7.65625 L 1.34375 -12.078125 L 16.09375 -35.375 L 23.1875 -35.375 Z M 8.328125 -13.3125 L 16.15625 -13.3125 L 16.15625 -25.8125 L 15.703125 -25 Z M 8.328125 -13.3125 "/></g></g></g><g fill="#000000" fill-opacity="1"><g transform="translate(323.544969, 135.352902)"><g><path d="M 4.515625 8.875 L 0.84375 6.953125 L 1.71875 5.375 C 2.8125 3.394531 3.375 1.425781 3.40625 -0.53125 L 3.40625 -5.984375 L 9.328125 -5.984375 L 9.3125 -1.125 C 9.289062 0.675781 8.832031 2.492188 7.9375 4.328125 C 7.050781 6.160156 5.910156 7.675781 4.515625 8.875 Z M 4.515625 8.875 "/></g></g></g><g fill="#000000" fill-opacity="1"><g transform="translate(335.694614, 135.352902)"><g/></g></g><g fill="#000000" fill-opacity="1"><g transform="translate(348.087252, 135.352902)"><g><path d="M 18.828125 -14.140625 C 17.003906 -12.335938 14.867188 -11.4375 12.421875 -11.4375 C 9.296875 -11.4375 6.789062 -12.507812 4.90625 -14.65625 C 3.03125 -16.8125 2.09375 -19.710938 2.09375 -23.359375 C 2.09375 -25.671875 2.597656 -27.796875 3.609375 -29.734375 C 4.617188 -31.671875 6.03125 -33.175781 7.84375 -34.25 C 9.664062 -35.320312 11.707031 -35.859375 13.96875 -35.859375 C 16.300781 -35.859375 18.375 -35.273438 20.1875 -34.109375 C 22.007812 -32.941406 23.421875 -31.265625 24.421875 -29.078125 C 25.421875 -26.898438 25.929688 -24.398438 25.953125 -21.578125 L 25.953125 -18.984375 C 25.953125 -13.085938 24.484375 -8.453125 21.546875 -5.078125 C 18.617188 -1.710938 14.46875 0.0820312 9.09375 0.3125 L 7.359375 0.34375 L 7.359375 -5.515625 L 8.921875 -5.546875 C 15.023438 -5.816406 18.328125 -8.679688 18.828125 -14.140625 Z M 14.140625 -16.8125 C 15.273438 -16.8125 16.25 -17.101562 17.0625 -17.6875 C 17.882812 -18.269531 18.503906 -18.972656 18.921875 -19.796875 L 18.921875 -22.703125 C 18.921875 -25.078125 18.46875 -26.921875 17.5625 -28.234375 C 16.65625 -29.546875 15.441406 -30.203125 13.921875 -30.203125 C 12.515625 -30.203125 11.359375 -29.554688 10.453125 -28.265625 C 9.546875 -26.984375 9.09375 -25.367188 9.09375 -23.421875 C 9.09375 -21.492188 9.53125 -19.910156 10.40625 -18.671875 C 11.289062 -17.429688 12.535156 -16.8125 14.140625 -16.8125 Z M 14.140625 -16.8125 "/></g></g></g><g fill="#000000" fill-opacity="1"><g transform="translate(376.638918, 135.352902)"><g><path d="M 4.515625 8.875 L 0.84375 6.953125 L 1.71875 5.375 C 2.8125 3.394531 3.375 1.425781 3.40625 -0.53125 L 3.40625 -5.984375 L 9.328125 -5.984375 L 9.3125 -1.125 C 9.289062 0.675781 8.832031 2.492188 7.9375 4.328125 C 7.050781 6.160156 5.910156 7.675781 4.515625 8.875 Z M 4.515625 8.875 "/></g></g></g><g fill="#000000" fill-opacity="1"><g transform="translate(388.788563, 135.352902)"><g/></g></g><g fill="#000000" fill-opacity="1"><g transform="translate(401.181201, 135.352902)"><g><path d="M 3.0625 -3.453125 C 3.0625 -4.566406 3.4375 -5.472656 4.1875 -6.171875 C 4.945312 -6.867188 5.890625 -7.21875 7.015625 -7.21875 C 8.171875 -7.21875 9.125 -6.867188 9.875 -6.171875 C 10.625 -5.472656 11 -4.566406 11 -3.453125 C 11 -2.347656 10.625 -1.453125 9.875 -0.765625 C 9.132812 -0.078125 8.179688 0.265625 7.015625 0.265625 C 5.867188 0.265625 4.921875 -0.078125 4.171875 -0.765625 C 3.429688 -1.453125 3.0625 -2.347656 3.0625 -3.453125 Z M 3.0625 -3.453125 "/></g></g></g><g fill="#000000" fill-opacity="1"><g transform="translate(415.639279, 135.352902)"><g><path d="M 3.0625 -3.453125 C 3.0625 -4.566406 3.4375 -5.472656 4.1875 -6.171875 C 4.945312 -6.867188 5.890625 -7.21875 7.015625 -7.21875 C 8.171875 -7.21875 9.125 -6.867188 9.875 -6.171875 C 10.625 -5.472656 11 -4.566406 11 -3.453125 C 11 -2.347656 10.625 -1.453125 9.875 -0.765625 C 9.132812 -0.078125 8.179688 0.265625 7.015625 0.265625 C 5.867188 0.265625 4.921875 -0.078125 4.171875 -0.765625 C 3.429688 -1.453125 3.0625 -2.347656 3.0625 -3.453125 Z M 3.0625 -3.453125 "/></g></g></g><g fill="#000000" fill-opacity="1"><g transform="translate(430.097356, 135.352902)"><g><path d="M 3.0625 -3.453125 C 3.0625 -4.566406 3.4375 -5.472656 4.1875 -6.171875 C 4.945312 -6.867188 5.890625 -7.21875 7.015625 -7.21875 C 8.171875 -7.21875 9.125 -6.867188 9.875 -6.171875 C 10.625 -5.472656 11 -4.566406 11 -3.453125 C 11 -2.347656 10.625 -1.453125 9.875 -0.765625 C 9.132812 -0.078125 8.179688 0.265625 7.015625 0.265625 C 5.867188 0.265625 4.921875 -0.078125 4.171875 -0.765625 C 3.429688 -1.453125 3.0625 -2.347656 3.0625 -3.453125 Z M 3.0625 -3.453125 "/></g></g></g><g fill="#000000" fill-opacity="1"><g transform="translate(444.555434, 135.352902)"><g><path d="M 4.515625 8.875 L 0.84375 6.953125 L 1.71875 5.375 C 2.8125 3.394531 3.375 1.425781 3.40625 -0.53125 L 3.40625 -5.984375 L 9.328125 -5.984375 L 9.3125 -1.125 C 9.289062 0.675781 8.832031 2.492188 7.9375 4.328125 C 7.050781 6.160156 5.910156 7.675781 4.515625 8.875 Z M 4.515625 8.875 "/></g></g></g><g fill="#000000" fill-opacity="1"><g transform="translate(456.705079, 135.352902)"><g/></g></g><g fill="#000000" fill-opacity="1"><g transform="translate(469.097717, 135.352902)"><g><path d="M 26.65625 0 L 2.40625 0 L 2.40625 -4.8125 L 13.84375 -17.015625 C 15.414062 -18.722656 16.578125 -20.21875 17.328125 -21.5 C 18.085938 -22.78125 18.46875 -24 18.46875 -25.15625 C 18.46875 -26.71875 18.070312 -27.945312 17.28125 -28.84375 C 16.488281 -29.75 15.351562 -30.203125 13.875 -30.203125 C 12.289062 -30.203125 11.039062 -29.65625 10.125 -28.5625 C 9.207031 -27.46875 8.75 -26.03125 8.75 -24.25 L 1.703125 -24.25 C 1.703125 -26.40625 2.210938 -28.375 3.234375 -30.15625 C 4.265625 -31.9375 5.71875 -33.332031 7.59375 -34.34375 C 9.476562 -35.351562 11.613281 -35.859375 14 -35.859375 C 17.644531 -35.859375 20.472656 -34.984375 22.484375 -33.234375 C 24.503906 -31.492188 25.515625 -29.023438 25.515625 -25.828125 C 25.515625 -24.078125 25.0625 -22.296875 24.15625 -20.484375 C 23.25 -18.671875 21.691406 -16.554688 19.484375 -14.140625 L 11.4375 -5.65625 L 26.65625 -5.65625 Z M 26.65625 0 "/></g></g></g><g fill="#000000" fill-opacity="1"><g transform="translate(497.649371, 135.352902)"><g><path d="M 3.453125 -17.40625 L 5.484375 -35.375 L 25.3125 -35.375 L 25.3125 -29.53125 L 11.25 -29.53125 L 10.375 -21.921875 C 12.039062 -22.804688 13.816406 -23.25 15.703125 -23.25 C 19.066406 -23.25 21.703125 -22.203125 23.609375 -20.109375 C 25.523438 -18.023438 26.484375 -15.101562 26.484375 -11.34375 C 26.484375 -9.0625 26 -7.015625 25.03125 -5.203125 C 24.070312 -3.398438 22.691406 -2 20.890625 -1 C 19.097656 -0.0078125 16.976562 0.484375 14.53125 0.484375 C 12.394531 0.484375 10.410156 0.0507812 8.578125 -0.8125 C 6.742188 -1.675781 5.296875 -2.894531 4.234375 -4.46875 C 3.179688 -6.039062 2.617188 -7.832031 2.546875 -9.84375 L 9.5 -9.84375 C 9.644531 -8.363281 10.160156 -7.210938 11.046875 -6.390625 C 11.929688 -5.578125 13.082031 -5.171875 14.5 -5.171875 C 16.09375 -5.171875 17.316406 -5.742188 18.171875 -6.890625 C 19.035156 -8.035156 19.46875 -9.648438 19.46875 -11.734375 C 19.46875 -13.742188 18.972656 -15.28125 17.984375 -16.34375 C 16.992188 -17.414062 15.59375 -17.953125 13.78125 -17.953125 C 12.113281 -17.953125 10.757812 -17.515625 9.71875 -16.640625 L 9.046875 -16.015625 Z M 3.453125 -17.40625 "/></g></g></g><g fill="#000000" fill-opacity="1"><g transform="translate(526.201048, 135.352902)"><g><path d="M 4.515625 8.875 L 0.84375 6.953125 L 1.71875 5.375 C 2.8125 3.394531 3.375 1.425781 3.40625 -0.53125 L 3.40625 -5.984375 L 9.328125 -5.984375 L 9.3125 -1.125 C 9.289062 0.675781 8.832031 2.492188 7.9375 4.328125 C 7.050781 6.160156 5.910156 7.675781 4.515625 8.875 Z M 4.515625 8.875 "/></g></g></g><g fill="#000000" fill-opacity="1"><g transform="translate(538.350693, 135.352902)"><g/></g></g><g fill="#000000" fill-opacity="1"><g transform="translate(550.743331, 135.352902)"><g><path d="M 9.546875 -20.796875 L 13.296875 -20.796875 C 15.078125 -20.796875 16.394531 -21.238281 17.25 -22.125 C 18.113281 -23.019531 18.546875 -24.207031 18.546875 -25.6875 C 18.546875 -27.113281 18.117188 -28.222656 17.265625 -29.015625 C 16.410156 -29.804688 15.238281 -30.203125 13.75 -30.203125 C 12.40625 -30.203125 11.28125 -29.832031 10.375 -29.09375 C 9.46875 -28.363281 9.015625 -27.40625 9.015625 -26.21875 L 2 -26.21875 C 2 -28.0625 2.492188 -29.71875 3.484375 -31.1875 C 4.484375 -32.65625 5.878906 -33.800781 7.671875 -34.625 C 9.460938 -35.445312 11.429688 -35.859375 13.578125 -35.859375 C 17.328125 -35.859375 20.257812 -34.960938 22.375 -33.171875 C 24.5 -31.390625 25.5625 -28.925781 25.5625 -25.78125 C 25.5625 -24.164062 25.066406 -22.675781 24.078125 -21.3125 C 23.085938 -19.945312 21.789062 -18.898438 20.1875 -18.171875 C 22.1875 -17.460938 23.675781 -16.394531 24.65625 -14.96875 C 25.632812 -13.539062 26.125 -11.859375 26.125 -9.921875 C 26.125 -6.773438 24.976562 -4.253906 22.6875 -2.359375 C 20.394531 -0.460938 17.359375 0.484375 13.578125 0.484375 C 10.046875 0.484375 7.160156 -0.445312 4.921875 -2.3125 C 2.679688 -4.175781 1.5625 -6.640625 1.5625 -9.703125 L 8.578125 -9.703125 C 8.578125 -8.367188 9.070312 -7.28125 10.0625 -6.4375 C 11.0625 -5.59375 12.289062 -5.171875 13.75 -5.171875 C 15.414062 -5.171875 16.722656 -5.613281 17.671875 -6.5 C 18.617188 -7.382812 19.09375 -8.554688 19.09375 -10.015625 C 19.09375 -13.546875 17.148438 -15.3125 13.265625 -15.3125 L 9.546875 -15.3125 Z M 9.546875 -20.796875 "/></g></g></g><g fill="#000000" fill-opacity="1"><g transform="translate(579.294986, 135.352902)"><g><path d="M 21.453125 -35.75 L 21.453125 -29.96875 L 20.78125 -29.96875 C 17.601562 -29.914062 15.046875 -29.085938 13.109375 -27.484375 C 11.171875 -25.878906 10.007812 -23.648438 9.625 -20.796875 C 11.5 -22.710938 13.875 -23.671875 16.75 -23.671875 C 19.820312 -23.671875 22.265625 -22.566406 24.078125 -20.359375 C 25.890625 -18.160156 26.796875 -15.257812 26.796875 -11.65625 C 26.796875 -9.363281 26.296875 -7.285156 25.296875 -5.421875 C 24.304688 -3.554688 22.898438 -2.101562 21.078125 -1.0625 C 19.253906 -0.03125 17.191406 0.484375 14.890625 0.484375 C 11.171875 0.484375 8.164062 -0.8125 5.875 -3.40625 C 3.582031 -6 2.4375 -9.457031 2.4375 -13.78125 L 2.4375 -16.3125 C 2.4375 -20.144531 3.160156 -23.53125 4.609375 -26.46875 C 6.054688 -29.414062 8.132812 -31.691406 10.84375 -33.296875 C 13.5625 -34.910156 16.710938 -35.726562 20.296875 -35.75 Z M 14.609375 -18.03125 C 13.472656 -18.03125 12.441406 -17.734375 11.515625 -17.140625 C 10.597656 -16.546875 9.921875 -15.765625 9.484375 -14.796875 L 9.484375 -12.65625 C 9.484375 -10.3125 9.941406 -8.476562 10.859375 -7.15625 C 11.785156 -5.832031 13.082031 -5.171875 14.75 -5.171875 C 16.257812 -5.171875 17.476562 -5.765625 18.40625 -6.953125 C 19.332031 -8.148438 19.796875 -9.695312 19.796875 -11.59375 C 19.796875 -13.519531 19.328125 -15.070312 18.390625 -16.25 C 17.453125 -17.4375 16.191406 -18.03125 14.609375 -18.03125 Z M 14.609375 -18.03125 "/></g></g></g><g fill="#000000" fill-opacity="1"><g transform="translate(607.846663, 135.352902)"><g><path d="M 4.515625 8.875 L 0.84375 6.953125 L 1.71875 5.375 C 2.8125 3.394531 3.375 1.425781 3.40625 -0.53125 L 3.40625 -5.984375 L 9.328125 -5.984375 L 9.3125 -1.125 C 9.289062 0.675781 8.832031 2.492188 7.9375 4.328125 C 7.050781 6.160156 5.910156 7.675781 4.515625 8.875 Z M 4.515625 8.875 "/></g></g></g><g fill="#000000" fill-opacity="1"><g transform="translate(619.996308, 135.352902)"><g/></g></g><g fill="#000000" fill-opacity="1"><g transform="translate(632.388969, 135.352902)"><g><path d="M 3.0625 -3.453125 C 3.0625 -4.566406 3.4375 -5.472656 4.1875 -6.171875 C 4.945312 -6.867188 5.890625 -7.21875 7.015625 -7.21875 C 8.171875 -7.21875 9.125 -6.867188 9.875 -6.171875 C 10.625 -5.472656 11 -4.566406 11 -3.453125 C 11 -2.347656 10.625 -1.453125 9.875 -0.765625 C 9.132812 -0.078125 8.179688 0.265625 7.015625 0.265625 C 5.867188 0.265625 4.921875 -0.078125 4.171875 -0.765625 C 3.429688 -1.453125 3.0625 -2.347656 3.0625 -3.453125 Z M 3.0625 -3.453125 "/></g></g></g><g fill="#000000" fill-opacity="1"><g transform="translate(646.847012, 135.352902)"><g><path d="M 3.0625 -3.453125 C 3.0625 -4.566406 3.4375 -5.472656 4.1875 -6.171875 C 4.945312 -6.867188 5.890625 -7.21875 7.015625 -7.21875 C 8.171875 -7.21875 9.125 -6.867188 9.875 -6.171875 C 10.625 -5.472656 11 -4.566406 11 -3.453125 C 11 -2.347656 10.625 -1.453125 9.875 -0.765625 C 9.132812 -0.078125 8.179688 0.265625 7.015625 0.265625 C 5.867188 0.265625 4.921875 -0.078125 4.171875 -0.765625 C 3.429688 -1.453125 3.0625 -2.347656 3.0625 -3.453125 Z M 3.0625 -3.453125 "/></g></g></g><g fill="#000000" fill-opacity="1"><g transform="translate(661.305101, 135.352902)"><g><path d="M 3.0625 -3.453125 C 3.0625 -4.566406 3.4375 -5.472656 4.1875 -6.171875 C 4.945312 -6.867188 5.890625 -7.21875 7.015625 -7.21875 C 8.171875 -7.21875 9.125 -6.867188 9.875 -6.171875 C 10.625 -5.472656 11 -4.566406 11 -3.453125 C 11 -2.347656 10.625 -1.453125 9.875 -0.765625 C 9.132812 -0.078125 8.179688 0.265625 7.015625 0.265625 C 5.867188 0.265625 4.921875 -0.078125 4.171875 -0.765625 C 3.429688 -1.453125 3.0625 -2.347656 3.0625 -3.453125 Z M 3.0625 -3.453125 "/></g></g></g></svg>