<svg xmlns="http://www.w3.org/2000/svg" xmlns:xlink="http://www.w3.org/1999/xlink" width="560" zoomAndPan="magnify" viewBox="0 0 420 77.999999" height="104" preserveAspectRatio="xMidYMid meet" version="1.0"><defs><g/><clipPath id="a736bb4313"><path d="M 0.0117188 2.132812 L 419.683594 2.132812 L 419.683594 75.632812 L 0.0117188 75.632812 Z M 0.0117188 2.132812 " clip-rule="nonzero"/></clipPath></defs><g clip-path="url(#a736bb4313)"><path stroke-linecap="butt" transform="matrix(0.75, 0, 0, 0.75, 0.0111824, 2.131177)" fill="none" stroke-linejoin="miter" d="M 0.000715145 0.00218101 L 559.563243 0.00218101 L 559.563243 98.158436 L 0.000715145 98.158436 Z M 0.000715145 0.00218101 " stroke="#000000" stroke-width="12" stroke-opacity="1" stroke-miterlimit="4"/></g><g fill="#000000" fill-opacity="1"><g transform="translate(31.419659, 51.691398)"><g><path d="M 29.4375 -13.890625 C 29.4375 -10.210938 28.535156 -7.15625 26.734375 -4.71875 C 24.929688 -2.28125 22.421875 -0.734375 19.203125 -0.078125 C 19.640625 1.210938 20.257812 2.144531 21.0625 2.71875 C 21.863281 3.289062 22.988281 3.578125 24.4375 3.578125 C 25.207031 3.578125 25.984375 3.507812 26.765625 3.375 L 26.71875 7.328125 C 25.082031 7.691406 23.507812 7.875 22 7.875 C 19.875 7.875 18.113281 7.28125 16.71875 6.09375 C 15.320312 4.90625 14.203125 2.941406 13.359375 0.203125 C 9.648438 -0.148438 6.769531 -1.566406 4.71875 -4.046875 C 2.664062 -6.535156 1.640625 -9.816406 1.640625 -13.890625 C 1.640625 -18.304688 2.863281 -21.75 5.3125 -24.21875 C 7.757812 -26.695312 11.164062 -27.9375 15.53125 -27.9375 C 19.894531 -27.9375 23.300781 -26.6875 25.75 -24.1875 C 28.207031 -21.6875 29.4375 -18.253906 29.4375 -13.890625 Z M 23.5625 -13.890625 C 23.5625 -16.859375 22.859375 -19.1875 21.453125 -20.875 C 20.046875 -22.5625 18.070312 -23.40625 15.53125 -23.40625 C 12.945312 -23.40625 10.953125 -22.566406 9.546875 -20.890625 C 8.140625 -19.210938 7.4375 -16.878906 7.4375 -13.890625 C 7.4375 -10.867188 8.148438 -8.484375 9.578125 -6.734375 C 11.015625 -4.992188 12.984375 -4.125 15.484375 -4.125 C 18.066406 -4.125 20.054688 -4.96875 21.453125 -6.65625 C 22.859375 -8.351562 23.5625 -10.765625 23.5625 -13.890625 Z M 23.5625 -13.890625 "/></g></g></g><g fill="#000000" fill-opacity="1"><g transform="translate(62.529906, 51.691398)"><g/></g></g><g fill="#000000" fill-opacity="1"><g transform="translate(73.642107, 51.691398)"><g><path d="M 1.65625 -16.453125 L 1.65625 -20.796875 L 21.71875 -20.796875 L 21.71875 -16.453125 Z M 1.65625 -5.6875 L 1.65625 -10 L 21.71875 -10 L 21.71875 -5.6875 Z M 1.65625 -5.6875 "/></g></g></g><g fill="#000000" fill-opacity="1"><g transform="translate(108.111401, 51.691398)"><g><path d="M 20.796875 -9 C 20.796875 -6.070312 19.972656 -3.773438 18.328125 -2.109375 C 16.691406 -0.441406 14.429688 0.390625 11.546875 0.390625 C 8.304688 0.390625 5.816406 -0.742188 4.078125 -3.015625 C 2.335938 -5.285156 1.46875 -8.65625 1.46875 -13.125 C 1.46875 -18.03125 2.347656 -21.722656 4.109375 -24.203125 C 5.878906 -26.691406 8.40625 -27.9375 11.6875 -27.9375 C 14.007812 -27.9375 15.84375 -27.421875 17.1875 -26.390625 C 18.539062 -25.359375 19.5 -23.765625 20.0625 -21.609375 L 14.890625 -20.875 C 14.390625 -22.6875 13.28125 -23.59375 11.5625 -23.59375 C 10.09375 -23.59375 8.9375 -22.859375 8.09375 -21.390625 C 7.257812 -19.921875 6.84375 -17.6875 6.84375 -14.6875 C 7.425781 -15.664062 8.238281 -16.414062 9.28125 -16.9375 C 10.320312 -17.457031 11.5 -17.71875 12.8125 -17.71875 C 15.269531 -17.71875 17.210938 -16.9375 18.640625 -15.375 C 20.078125 -13.8125 20.796875 -11.6875 20.796875 -9 Z M 15.296875 -8.84375 C 15.296875 -10.40625 14.929688 -11.597656 14.203125 -12.421875 C 13.484375 -13.253906 12.492188 -13.671875 11.234375 -13.671875 C 10.023438 -13.671875 9.054688 -13.28125 8.328125 -12.5 C 7.597656 -11.726562 7.234375 -10.707031 7.234375 -9.4375 C 7.234375 -7.832031 7.613281 -6.503906 8.375 -5.453125 C 9.132812 -4.410156 10.132812 -3.890625 11.375 -3.890625 C 12.601562 -3.890625 13.5625 -4.328125 14.25 -5.203125 C 14.945312 -6.085938 15.296875 -7.300781 15.296875 -8.84375 Z M 15.296875 -8.84375 "/></g></g></g><g fill="#000000" fill-opacity="1"><g transform="translate(130.355326, 51.691398)"><g><path d="M 21.140625 -9.15625 C 21.140625 -6.238281 20.226562 -3.914062 18.40625 -2.1875 C 16.59375 -0.46875 14.101562 0.390625 10.9375 0.390625 C 8.175781 0.390625 5.960938 -0.226562 4.296875 -1.46875 C 2.640625 -2.71875 1.617188 -4.519531 1.234375 -6.875 L 6.71875 -7.328125 C 7.007812 -6.148438 7.519531 -5.296875 8.25 -4.765625 C 8.976562 -4.234375 9.894531 -3.96875 11 -3.96875 C 12.363281 -3.96875 13.453125 -4.398438 14.265625 -5.265625 C 15.078125 -6.140625 15.484375 -7.398438 15.484375 -9.046875 C 15.484375 -10.492188 15.097656 -11.648438 14.328125 -12.515625 C 13.566406 -13.378906 12.492188 -13.8125 11.109375 -13.8125 C 9.585938 -13.8125 8.347656 -13.21875 7.390625 -12.03125 L 2.03125 -12.03125 L 2.984375 -27.515625 L 19.53125 -27.515625 L 19.53125 -23.4375 L 7.96875 -23.4375 L 7.515625 -16.484375 C 8.847656 -17.660156 10.507812 -18.25 12.5 -18.25 C 15.113281 -18.25 17.207031 -17.429688 18.78125 -15.796875 C 20.351562 -14.171875 21.140625 -11.957031 21.140625 -9.15625 Z M 21.140625 -9.15625 "/></g></g></g><g fill="#000000" fill-opacity="1"><g transform="translate(152.599252, 51.691398)"><g><path d="M 8.4375 -1.296875 C 8.4375 0.273438 8.269531 1.660156 7.9375 2.859375 C 7.601562 4.054688 7.066406 5.164062 6.328125 6.1875 L 2.71875 6.1875 C 3.488281 5.269531 4.113281 4.253906 4.59375 3.140625 C 5.070312 2.035156 5.3125 0.988281 5.3125 0 L 2.796875 0 L 2.796875 -5.953125 L 8.4375 -5.953125 Z M 8.4375 -1.296875 "/></g></g></g><g fill="#000000" fill-opacity="1"><g transform="translate(163.711453, 51.691398)"><g/></g></g><g fill="#000000" fill-opacity="1"><g transform="translate(174.823654, 51.691398)"><g><path d="M 21.578125 0 L 15.203125 -10.453125 L 8.4375 -10.453125 L 8.4375 0 L 2.671875 0 L 2.671875 -27.515625 L 16.421875 -27.515625 C 19.703125 -27.515625 22.234375 -26.804688 24.015625 -25.390625 C 25.804688 -23.984375 26.703125 -21.957031 26.703125 -19.3125 C 26.703125 -17.382812 26.15625 -15.722656 25.0625 -14.328125 C 23.96875 -12.929688 22.488281 -12.007812 20.625 -11.5625 L 28.0625 0 Z M 20.90625 -19.078125 C 20.90625 -21.722656 19.210938 -23.046875 15.828125 -23.046875 L 8.4375 -23.046875 L 8.4375 -14.921875 L 15.984375 -14.921875 C 17.597656 -14.921875 18.820312 -15.285156 19.65625 -16.015625 C 20.488281 -16.742188 20.90625 -17.765625 20.90625 -19.078125 Z M 20.90625 -19.078125 "/></g></g></g><g fill="#000000" fill-opacity="1"><g transform="translate(203.707556, 51.691398)"><g/></g></g><g fill="#000000" fill-opacity="1"><g transform="translate(214.819757, 51.691398)"><g><path d="M 1.65625 -16.453125 L 1.65625 -20.796875 L 21.71875 -20.796875 L 21.71875 -16.453125 Z M 1.65625 -5.6875 L 1.65625 -10 L 21.71875 -10 L 21.71875 -5.6875 Z M 1.65625 -5.6875 "/></g></g></g><g fill="#000000" fill-opacity="1"><g transform="translate(238.17685, 51.691398)"><g/></g></g><g fill="#000000" fill-opacity="1"><g transform="translate(249.289063, 51.691398)"><g><path d="M 20.484375 -23.171875 C 19.253906 -21.210938 18.085938 -19.316406 16.984375 -17.484375 C 15.878906 -15.648438 14.914062 -13.800781 14.09375 -11.9375 C 13.28125 -10.082031 12.632812 -8.175781 12.15625 -6.21875 C 11.6875 -4.257812 11.453125 -2.1875 11.453125 0 L 5.71875 0 C 5.71875 -2.289062 6.015625 -4.503906 6.609375 -6.640625 C 7.210938 -8.785156 8.082031 -10.96875 9.21875 -13.1875 C 10.351562 -15.414062 12.410156 -18.691406 15.390625 -23.015625 L 1.71875 -23.015625 L 1.71875 -27.515625 L 20.484375 -27.515625 Z M 20.484375 -23.171875 "/></g></g></g><g fill="#000000" fill-opacity="1"><g transform="translate(271.532988, 51.691398)"><g><path d="M 8.4375 -1.296875 C 8.4375 0.273438 8.269531 1.660156 7.9375 2.859375 C 7.601562 4.054688 7.066406 5.164062 6.328125 6.1875 L 2.71875 6.1875 C 3.488281 5.269531 4.113281 4.253906 4.59375 3.140625 C 5.070312 2.035156 5.3125 0.988281 5.3125 0 L 2.796875 0 L 2.796875 -5.953125 L 8.4375 -5.953125 Z M 8.4375 -1.296875 "/></g></g></g><g fill="#000000" fill-opacity="1"><g transform="translate(282.645178, 51.691398)"><g/></g></g><g fill="#000000" fill-opacity="1"><g transform="translate(293.757368, 51.691398)"><g><path d="M 25.125 -7.9375 C 25.125 -5.238281 24.125 -3.175781 22.125 -1.75 C 20.125 -0.320312 17.191406 0.390625 13.328125 0.390625 C 9.796875 0.390625 7.023438 -0.234375 5.015625 -1.484375 C 3.015625 -2.734375 1.726562 -4.628906 1.15625 -7.171875 L 6.71875 -8.09375 C 7.09375 -6.632812 7.828125 -5.570312 8.921875 -4.90625 C 10.015625 -4.25 11.535156 -3.921875 13.484375 -3.921875 C 17.503906 -3.921875 19.515625 -5.144531 19.515625 -7.59375 C 19.515625 -8.375 19.28125 -9.019531 18.8125 -9.53125 C 18.351562 -10.039062 17.703125 -10.460938 16.859375 -10.796875 C 16.023438 -11.140625 14.414062 -11.550781 12.03125 -12.03125 C 9.976562 -12.507812 8.546875 -12.894531 7.734375 -13.1875 C 6.929688 -13.488281 6.203125 -13.835938 5.546875 -14.234375 C 4.898438 -14.628906 4.347656 -15.101562 3.890625 -15.65625 C 3.429688 -16.21875 3.070312 -16.875 2.8125 -17.625 C 2.5625 -18.382812 2.4375 -19.253906 2.4375 -20.234375 C 2.4375 -22.722656 3.367188 -24.628906 5.234375 -25.953125 C 7.109375 -27.273438 9.832031 -27.9375 13.40625 -27.9375 C 16.8125 -27.9375 19.367188 -27.398438 21.078125 -26.328125 C 22.796875 -25.265625 23.898438 -23.5 24.390625 -21.03125 L 18.8125 -20.28125 C 18.519531 -21.457031 17.9375 -22.34375 17.0625 -22.9375 C 16.1875 -23.539062 14.925781 -23.84375 13.28125 -23.84375 C 9.789062 -23.84375 8.046875 -22.75 8.046875 -20.5625 C 8.046875 -19.851562 8.226562 -19.269531 8.59375 -18.8125 C 8.96875 -18.351562 9.519531 -17.960938 10.25 -17.640625 C 10.976562 -17.328125 12.457031 -16.929688 14.6875 -16.453125 C 17.332031 -15.890625 19.222656 -15.367188 20.359375 -14.890625 C 21.503906 -14.421875 22.40625 -13.867188 23.0625 -13.234375 C 23.726562 -12.597656 24.238281 -11.84375 24.59375 -10.96875 C 24.945312 -10.09375 25.125 -9.082031 25.125 -7.9375 Z M 25.125 -7.9375 "/></g></g></g><g fill="#000000" fill-opacity="1"><g transform="translate(320.43446, 51.691398)"><g/></g></g><g fill="#000000" fill-opacity="1"><g transform="translate(331.546673, 51.691398)"><g><path d="M 1.65625 -16.453125 L 1.65625 -20.796875 L 21.71875 -20.796875 L 21.71875 -16.453125 Z M 1.65625 -5.6875 L 1.65625 -10 L 21.71875 -10 L 21.71875 -5.6875 Z M 1.65625 -5.6875 "/></g></g></g><g fill="#000000" fill-opacity="1"><g transform="translate(354.903742, 51.691398)"><g/></g></g><g fill="#000000" fill-opacity="1"><g transform="translate(366.015955, 51.691398)"><g><path d="M 21.140625 -9.15625 C 21.140625 -6.238281 20.226562 -3.914062 18.40625 -2.1875 C 16.59375 -0.46875 14.101562 0.390625 10.9375 0.390625 C 8.175781 0.390625 5.960938 -0.226562 4.296875 -1.46875 C 2.640625 -2.71875 1.617188 -4.519531 1.234375 -6.875 L 6.71875 -7.328125 C 7.007812 -6.148438 7.519531 -5.296875 8.25 -4.765625 C 8.976562 -4.234375 9.894531 -3.96875 11 -3.96875 C 12.363281 -3.96875 13.453125 -4.398438 14.265625 -5.265625 C 15.078125 -6.140625 15.484375 -7.398438 15.484375 -9.046875 C 15.484375 -10.492188 15.097656 -11.648438 14.328125 -12.515625 C 13.566406 -13.378906 12.492188 -13.8125 11.109375 -13.8125 C 9.585938 -13.8125 8.347656 -13.21875 7.390625 -12.03125 L 2.03125 -12.03125 L 2.984375 -27.515625 L 19.53125 -27.515625 L 19.53125 -23.4375 L 7.96875 -23.4375 L 7.515625 -16.484375 C 8.847656 -17.660156 10.507812 -18.25 12.5 -18.25 C 15.113281 -18.25 17.207031 -17.429688 18.78125 -15.796875 C 20.351562 -14.171875 21.140625 -11.957031 21.140625 -9.15625 Z M 21.140625 -9.15625 "/></g></g></g></svg>