<svg xmlns="http://www.w3.org/2000/svg" xmlns:xlink="http://www.w3.org/1999/xlink" width="972" zoomAndPan="magnify" viewBox="0 0 729 404.99999" height="540" preserveAspectRatio="xMidYMid meet" version="1.0"><defs><g/><clipPath id="712aa18591"><path d="M 0 0 L 128.84375 0 L 128.84375 128.84375 L 0 128.84375 Z M 0 0 " clip-rule="nonzero"/></clipPath><clipPath id="3e84f828bd"><path d="M 140.25 0 L 269.089844 0 L 269.089844 128.84375 L 140.25 128.84375 Z M 140.25 0 " clip-rule="nonzero"/></clipPath><clipPath id="4841a4ec9b"><path d="M 280.554688 0 L 409.398438 0 L 409.398438 128.84375 L 280.554688 128.84375 Z M 280.554688 0 " clip-rule="nonzero"/></clipPath><clipPath id="58693ffe4d"><path d="M 140.25 137.964844 L 269.089844 137.964844 L 269.089844 266.808594 L 140.25 266.808594 Z M 140.25 137.964844 " clip-rule="nonzero"/></clipPath><clipPath id="b505adfa7b"><path d="M 0.144531 275.664062 L 128.988281 275.664062 L 128.988281 404.507812 L 0.144531 404.507812 Z M 0.144531 275.664062 " clip-rule="nonzero"/></clipPath><clipPath id="ab14026b76"><path d="M 140.453125 275.664062 L 269.292969 275.664062 L 269.292969 404.507812 L 140.453125 404.507812 Z M 140.453125 275.664062 " clip-rule="nonzero"/></clipPath><clipPath id="939cb905b7"><path d="M 280.554688 275.664062 L 409.398438 275.664062 L 409.398438 404.507812 L 280.554688 404.507812 Z M 280.554688 275.664062 " clip-rule="nonzero"/></clipPath><clipPath id="7957cc3688"><rect x="0" width="428" y="0" height="405"/></clipPath></defs><g><g clip-path="url(#7957cc3688)"><g clip-path="url(#712aa18591)"><path stroke-linecap="butt" transform="matrix(0.657364, 0, 0, 0.657364, 0.000009, -0.000000000000023949)" fill="none" stroke-linejoin="miter" d="M -0.0000136911 0.000000000000036432 L 196.470185 0.000000000000036432 L 196.470185 196.470199 L -0.0000136911 196.470199 Z M -0.0000136911 0.000000000000036432 " stroke="#000000" stroke-width="13.691051" stroke-opacity="1" stroke-miterlimit="4"/></g><g fill="#000000" fill-opacity="1"><g transform="translate(29.375447, 85.284216)"><g><path d="M 24 0 L 15.34375 0 L 15.34375 -33.375 L 5 -30.171875 L 5 -37.21875 L 23.0625 -43.6875 L 24 -43.6875 Z M 24 0 "/></g></g></g><g fill="#000000" fill-opacity="1"><g transform="translate(64.574112, 85.284216)"><g><path d="M 26.453125 -44.078125 L 26.453125 -36.9375 L 25.609375 -36.9375 C 21.703125 -36.882812 18.550781 -35.867188 16.15625 -33.890625 C 13.769531 -31.910156 12.335938 -29.160156 11.859375 -25.640625 C 14.179688 -28.003906 17.109375 -29.1875 20.640625 -29.1875 C 24.429688 -29.1875 27.445312 -27.828125 29.6875 -25.109375 C 31.925781 -22.390625 33.046875 -18.8125 33.046875 -14.375 C 33.046875 -11.539062 32.429688 -8.972656 31.203125 -6.671875 C 29.972656 -4.378906 28.234375 -2.59375 25.984375 -1.3125 C 23.742188 -0.0390625 21.203125 0.59375 18.359375 0.59375 C 13.765625 0.59375 10.054688 -1 7.234375 -4.1875 C 4.410156 -7.382812 3 -11.648438 3 -16.984375 L 3 -20.109375 C 3 -24.835938 3.890625 -29.015625 5.671875 -32.640625 C 7.460938 -36.265625 10.03125 -39.070312 13.375 -41.0625 C 16.71875 -43.050781 20.597656 -44.054688 25.015625 -44.078125 Z M 18 -22.234375 C 16.601562 -22.234375 15.335938 -21.867188 14.203125 -21.140625 C 13.066406 -20.410156 12.226562 -19.445312 11.6875 -18.25 L 11.6875 -15.609375 C 11.6875 -12.710938 12.253906 -10.445312 13.390625 -8.8125 C 14.523438 -7.1875 16.125 -6.375 18.1875 -6.375 C 20.039062 -6.375 21.539062 -7.109375 22.6875 -8.578125 C 23.84375 -10.046875 24.421875 -11.953125 24.421875 -14.296875 C 24.421875 -16.671875 23.835938 -18.585938 22.671875 -20.046875 C 21.515625 -21.503906 19.957031 -22.234375 18 -22.234375 Z M 18 -22.234375 "/></g></g></g><g clip-path="url(#3e84f828bd)"><path stroke-linecap="butt" transform="matrix(0.657364, 0, 0, 0.657364, 140.248375, -0.000000000000023949)" fill="none" stroke-linejoin="miter" d="M 0.00247216 0.000000000000036432 L 196.466728 0.000000000000036432 L 196.466728 196.470199 L 0.00247216 196.470199 Z M 0.00247216 0.000000000000036432 " stroke="#000000" stroke-width="13.691051" stroke-opacity="1" stroke-miterlimit="4"/></g><g fill="#000000" fill-opacity="1"><g transform="translate(189.591119, 85.284216)"><g><path d="M 10.390625 -13.390625 C 10.390625 -16.191406 10.726562 -18.421875 11.40625 -20.078125 C 12.09375 -21.734375 13.335938 -23.363281 15.140625 -24.96875 C 16.953125 -26.582031 18.15625 -27.890625 18.75 -28.890625 C 19.351562 -29.898438 19.65625 -30.96875 19.65625 -32.09375 C 19.65625 -35.46875 18.097656 -37.15625 14.984375 -37.15625 C 13.503906 -37.15625 12.316406 -36.695312 11.421875 -35.78125 C 10.535156 -34.875 10.070312 -33.625 10.03125 -32.03125 L 1.34375 -32.03125 C 1.382812 -35.84375 2.617188 -38.828125 5.046875 -40.984375 C 7.472656 -43.140625 10.785156 -44.21875 14.984375 -44.21875 C 19.210938 -44.21875 22.492188 -43.191406 24.828125 -41.140625 C 27.171875 -39.097656 28.34375 -36.210938 28.34375 -32.484375 C 28.34375 -30.785156 27.960938 -29.179688 27.203125 -27.671875 C 26.441406 -26.160156 25.113281 -24.488281 23.21875 -22.65625 L 20.796875 -20.34375 C 19.273438 -18.882812 18.40625 -17.175781 18.1875 -15.21875 L 18.0625 -13.390625 Z M 9.53125 -4.1875 C 9.53125 -5.53125 9.984375 -6.632812 10.890625 -7.5 C 11.796875 -8.375 12.957031 -8.8125 14.375 -8.8125 C 15.800781 -8.8125 16.96875 -8.375 17.875 -7.5 C 18.78125 -6.632812 19.234375 -5.53125 19.234375 -4.1875 C 19.234375 -2.875 18.785156 -1.785156 17.890625 -0.921875 C 17.003906 -0.0664062 15.832031 0.359375 14.375 0.359375 C 12.914062 0.359375 11.742188 -0.0664062 10.859375 -0.921875 C 9.972656 -1.785156 9.53125 -2.875 9.53125 -4.1875 Z M 9.53125 -4.1875 "/></g></g></g><g clip-path="url(#4841a4ec9b)"><path stroke-linecap="butt" transform="matrix(0.657364, 0, 0, 0.657364, 280.554043, -0.000000000000023949)" fill="none" stroke-linejoin="miter" d="M 0.000980153 0.000000000000036432 L 196.471179 0.000000000000036432 L 196.471179 196.470199 L 0.000980153 196.470199 Z M 0.000980153 0.000000000000036432 " stroke="#000000" stroke-width="13.691051" stroke-opacity="1" stroke-miterlimit="4"/></g><g fill="#000000" fill-opacity="1"><g transform="translate(327.530406, 85.284216)"><g><path d="M 28.578125 -16.421875 L 33.53125 -16.421875 L 33.53125 -9.4375 L 28.578125 -9.4375 L 28.578125 0 L 19.921875 0 L 19.921875 -9.4375 L 2.03125 -9.4375 L 1.640625 -14.890625 L 19.828125 -43.625 L 28.578125 -43.625 Z M 10.28125 -16.421875 L 19.921875 -16.421875 L 19.921875 -31.8125 L 19.359375 -30.828125 Z M 10.28125 -16.421875 "/></g></g></g><g clip-path="url(#58693ffe4d)"><path stroke-linecap="butt" transform="matrix(0.657364, 0, 0, 0.657364, 140.248375, 137.965215)" fill="none" stroke-linejoin="miter" d="M 0.00247216 -0.00056452 L 196.466728 -0.00056452 L 196.466728 196.469634 L 0.00247216 196.469634 Z M 0.00247216 -0.00056452 " stroke="#000000" stroke-width="13.691051" stroke-opacity="1" stroke-miterlimit="4"/></g><g fill="#000000" fill-opacity="1"><g transform="translate(187.197081, 223.249439)"><g><path d="M 30.859375 -22.34375 L 4.078125 -22.34375 L 4.078125 -29.421875 L 30.859375 -29.421875 Z M 30.859375 -9.375 L 4.078125 -9.375 L 4.078125 -16.453125 L 30.859375 -16.453125 Z M 30.859375 -9.375 "/></g></g></g><g clip-path="url(#b505adfa7b)"><path stroke-linecap="butt" transform="matrix(0.657364, 0, 0, 0.657364, 0.145683, 275.665499)" fill="none" stroke-linejoin="miter" d="M -0.001752 -0.0021845 L 196.468447 -0.0021845 L 196.468447 196.468014 L -0.001752 196.468014 Z M -0.001752 -0.0021845 " stroke="#000000" stroke-width="13.691051" stroke-opacity="1" stroke-miterlimit="4"/></g><g fill="#000000" fill-opacity="1"><g transform="translate(47.122031, 360.949694)"><g><path d="M 26.453125 -44.078125 L 26.453125 -36.9375 L 25.609375 -36.9375 C 21.703125 -36.882812 18.550781 -35.867188 16.15625 -33.890625 C 13.769531 -31.910156 12.335938 -29.160156 11.859375 -25.640625 C 14.179688 -28.003906 17.109375 -29.1875 20.640625 -29.1875 C 24.429688 -29.1875 27.445312 -27.828125 29.6875 -25.109375 C 31.925781 -22.390625 33.046875 -18.8125 33.046875 -14.375 C 33.046875 -11.539062 32.429688 -8.972656 31.203125 -6.671875 C 29.972656 -4.378906 28.234375 -2.59375 25.984375 -1.3125 C 23.742188 -0.0390625 21.203125 0.59375 18.359375 0.59375 C 13.765625 0.59375 10.054688 -1 7.234375 -4.1875 C 4.410156 -7.382812 3 -11.648438 3 -16.984375 L 3 -20.109375 C 3 -24.835938 3.890625 -29.015625 5.671875 -32.640625 C 7.460938 -36.265625 10.03125 -39.070312 13.375 -41.0625 C 16.71875 -43.050781 20.597656 -44.054688 25.015625 -44.078125 Z M 18 -22.234375 C 16.601562 -22.234375 15.335938 -21.867188 14.203125 -21.140625 C 13.066406 -20.410156 12.226562 -19.445312 11.6875 -18.25 L 11.6875 -15.609375 C 11.6875 -12.710938 12.253906 -10.445312 13.390625 -8.8125 C 14.523438 -7.1875 16.125 -6.375 18.1875 -6.375 C 20.039062 -6.375 21.539062 -7.109375 22.6875 -8.578125 C 23.84375 -10.046875 24.421875 -11.953125 24.421875 -14.296875 C 24.421875 -16.671875 23.835938 -18.585938 22.671875 -20.046875 C 21.515625 -21.503906 19.957031 -22.234375 18 -22.234375 Z M 18 -22.234375 "/></g></g></g><g clip-path="url(#ab14026b76)"><path stroke-linecap="butt" transform="matrix(0.657364, 0, 0, 0.657364, 140.451314, 275.665499)" fill="none" stroke-linejoin="miter" d="M 0.00275482 -0.0021845 L 196.467011 -0.0021845 L 196.467011 196.468014 L 0.00275482 196.468014 Z M 0.00275482 -0.0021845 " stroke="#000000" stroke-width="13.691051" stroke-opacity="1" stroke-miterlimit="4"/></g><g fill="#000000" fill-opacity="1"><g transform="translate(189.995416, 360.949694)"><g><path d="M 10.390625 -13.390625 C 10.390625 -16.191406 10.726562 -18.421875 11.40625 -20.078125 C 12.09375 -21.734375 13.335938 -23.363281 15.140625 -24.96875 C 16.953125 -26.582031 18.15625 -27.890625 18.75 -28.890625 C 19.351562 -29.898438 19.65625 -30.96875 19.65625 -32.09375 C 19.65625 -35.46875 18.097656 -37.15625 14.984375 -37.15625 C 13.503906 -37.15625 12.316406 -36.695312 11.421875 -35.78125 C 10.535156 -34.875 10.070312 -33.625 10.03125 -32.03125 L 1.34375 -32.03125 C 1.382812 -35.84375 2.617188 -38.828125 5.046875 -40.984375 C 7.472656 -43.140625 10.785156 -44.21875 14.984375 -44.21875 C 19.210938 -44.21875 22.492188 -43.191406 24.828125 -41.140625 C 27.171875 -39.097656 28.34375 -36.210938 28.34375 -32.484375 C 28.34375 -30.785156 27.960938 -29.179688 27.203125 -27.671875 C 26.441406 -26.160156 25.113281 -24.488281 23.21875 -22.65625 L 20.796875 -20.34375 C 19.273438 -18.882812 18.40625 -17.175781 18.1875 -15.21875 L 18.0625 -13.390625 Z M 9.53125 -4.1875 C 9.53125 -5.53125 9.984375 -6.632812 10.890625 -7.5 C 11.796875 -8.375 12.957031 -8.8125 14.375 -8.8125 C 15.800781 -8.8125 16.96875 -8.375 17.875 -7.5 C 18.78125 -6.632812 19.234375 -5.53125 19.234375 -4.1875 C 19.234375 -2.875 18.785156 -1.785156 17.890625 -0.921875 C 17.003906 -0.0664062 15.832031 0.359375 14.375 0.359375 C 12.914062 0.359375 11.742188 -0.0664062 10.859375 -0.921875 C 9.972656 -1.785156 9.53125 -2.875 9.53125 -4.1875 Z M 9.53125 -4.1875 "/></g></g></g><g clip-path="url(#939cb905b7)"><path stroke-linecap="butt" transform="matrix(0.657364, 0, 0, 0.657364, 280.554043, 275.665499)" fill="none" stroke-linejoin="miter" d="M 0.000980153 -0.0021845 L 196.471179 -0.0021845 L 196.471179 196.468014 L 0.000980153 196.468014 Z M 0.000980153 -0.0021845 " stroke="#000000" stroke-width="13.691051" stroke-opacity="1" stroke-miterlimit="4"/></g><g fill="#000000" fill-opacity="1"><g transform="translate(327.530406, 360.949694)"><g><path d="M 32.859375 0 L 2.96875 0 L 2.96875 -5.9375 L 17.078125 -20.96875 C 19.015625 -23.082031 20.445312 -24.925781 21.375 -26.5 C 22.300781 -28.082031 22.765625 -29.585938 22.765625 -31.015625 C 22.765625 -32.953125 22.273438 -34.472656 21.296875 -35.578125 C 20.316406 -36.679688 18.921875 -37.234375 17.109375 -37.234375 C 15.148438 -37.234375 13.601562 -36.5625 12.46875 -35.21875 C 11.34375 -33.875 10.78125 -32.101562 10.78125 -29.90625 L 2.09375 -29.90625 C 2.09375 -32.5625 2.726562 -34.988281 4 -37.1875 C 5.269531 -39.382812 7.0625 -41.101562 9.375 -42.34375 C 11.695312 -43.59375 14.320312 -44.21875 17.25 -44.21875 C 21.75 -44.21875 25.238281 -43.140625 27.71875 -40.984375 C 30.207031 -38.828125 31.453125 -35.78125 31.453125 -31.84375 C 31.453125 -29.6875 30.894531 -27.488281 29.78125 -25.25 C 28.664062 -23.019531 26.75 -20.414062 24.03125 -17.4375 L 14.109375 -6.984375 L 32.859375 -6.984375 Z M 32.859375 0 "/></g></g></g></g></g><g fill="#000000" fill-opacity="1"><g transform="translate(409.708542, 198.658888)"><g><path d="M 6.609375 0 L 2.1875 0 L 2.1875 -21.453125 L 6.609375 -21.453125 Z M 6.609375 0 "/></g></g></g><g fill="#000000" fill-opacity="1"><g transform="translate(418.501483, 198.658888)"><g><path d="M 10.265625 -4.40625 C 10.265625 -4.925781 10.003906 -5.332031 9.484375 -5.625 C 8.972656 -5.925781 8.148438 -6.195312 7.015625 -6.4375 C 3.222656 -7.226562 1.328125 -8.835938 1.328125 -11.265625 C 1.328125 -12.679688 1.910156 -13.863281 3.078125 -14.8125 C 4.253906 -15.757812 5.789062 -16.234375 7.6875 -16.234375 C 9.707031 -16.234375 11.320312 -15.753906 12.53125 -14.796875 C 13.75 -13.847656 14.359375 -12.613281 14.359375 -11.09375 L 10.109375 -11.09375 C 10.109375 -11.695312 9.910156 -12.195312 9.515625 -12.59375 C 9.117188 -13 8.503906 -13.203125 7.671875 -13.203125 C 6.953125 -13.203125 6.394531 -13.039062 6 -12.71875 C 5.613281 -12.394531 5.421875 -11.976562 5.421875 -11.46875 C 5.421875 -11 5.644531 -10.617188 6.09375 -10.328125 C 6.539062 -10.046875 7.289062 -9.796875 8.34375 -9.578125 C 9.40625 -9.367188 10.300781 -9.132812 11.03125 -8.875 C 13.28125 -8.039062 14.40625 -6.609375 14.40625 -4.578125 C 14.40625 -3.128906 13.78125 -1.953125 12.53125 -1.046875 C 11.289062 -0.148438 9.679688 0.296875 7.703125 0.296875 C 6.367188 0.296875 5.179688 0.0546875 4.140625 -0.421875 C 3.109375 -0.898438 2.296875 -1.550781 1.703125 -2.375 C 1.117188 -3.207031 0.828125 -4.101562 0.828125 -5.0625 L 4.859375 -5.0625 C 4.898438 -4.3125 5.179688 -3.734375 5.703125 -3.328125 C 6.222656 -2.921875 6.921875 -2.71875 7.796875 -2.71875 C 8.609375 -2.71875 9.222656 -2.875 9.640625 -3.1875 C 10.054688 -3.5 10.265625 -3.90625 10.265625 -4.40625 Z M 10.265625 -4.40625 "/></g></g></g><g fill="#000000" fill-opacity="1"><g transform="translate(434.010641, 198.658888)"><g><path d="M 6.125 0 L 1.859375 0 L 1.859375 -15.9375 L 6.125 -15.9375 Z M 1.609375 -20.0625 C 1.609375 -20.695312 1.820312 -21.222656 2.25 -21.640625 C 2.675781 -22.054688 3.257812 -22.265625 4 -22.265625 C 4.71875 -22.265625 5.289062 -22.054688 5.71875 -21.640625 C 6.15625 -21.222656 6.375 -20.695312 6.375 -20.0625 C 6.375 -19.414062 6.15625 -18.882812 5.71875 -18.46875 C 5.28125 -18.0625 4.703125 -17.859375 3.984375 -17.859375 C 3.273438 -17.859375 2.703125 -18.0625 2.265625 -18.46875 C 1.828125 -18.882812 1.609375 -19.414062 1.609375 -20.0625 Z M 1.609375 -20.0625 "/></g></g></g><g fill="#000000" fill-opacity="1"><g transform="translate(442.008241, 198.658888)"><g/></g></g><g fill="#000000" fill-opacity="1"><g transform="translate(449.5198, 198.658888)"><g><path d="M 6.734375 -19.859375 L 6.734375 -15.9375 L 9.453125 -15.9375 L 9.453125 -12.8125 L 6.734375 -12.8125 L 6.734375 -4.859375 C 6.734375 -4.273438 6.84375 -3.851562 7.0625 -3.59375 C 7.289062 -3.34375 7.726562 -3.21875 8.375 -3.21875 C 8.84375 -3.21875 9.257812 -3.25 9.625 -3.3125 L 9.625 -0.09375 C 8.789062 0.164062 7.929688 0.296875 7.046875 0.296875 C 4.054688 0.296875 2.53125 -1.210938 2.46875 -4.234375 L 2.46875 -12.8125 L 0.140625 -12.8125 L 0.140625 -15.9375 L 2.46875 -15.9375 L 2.46875 -19.859375 Z M 6.734375 -19.859375 "/></g></g></g><g fill="#000000" fill-opacity="1"><g transform="translate(459.711953, 198.658888)"><g><path d="M 10.875 0 C 10.675781 -0.382812 10.53125 -0.859375 10.4375 -1.421875 C 9.40625 -0.273438 8.066406 0.296875 6.421875 0.296875 C 4.859375 0.296875 3.5625 -0.15625 2.53125 -1.0625 C 1.507812 -1.96875 1 -3.109375 1 -4.484375 C 1 -6.171875 1.625 -7.460938 2.875 -8.359375 C 4.132812 -9.265625 5.945312 -9.722656 8.3125 -9.734375 L 10.265625 -9.734375 L 10.265625 -10.65625 C 10.265625 -11.382812 10.078125 -11.96875 9.703125 -12.40625 C 9.328125 -12.851562 8.726562 -13.078125 7.90625 -13.078125 C 7.1875 -13.078125 6.625 -12.90625 6.21875 -12.5625 C 5.8125 -12.21875 5.609375 -11.75 5.609375 -11.15625 L 1.359375 -11.15625 C 1.359375 -12.070312 1.640625 -12.921875 2.203125 -13.703125 C 2.773438 -14.492188 3.582031 -15.113281 4.625 -15.5625 C 5.664062 -16.007812 6.832031 -16.234375 8.125 -16.234375 C 10.09375 -16.234375 11.65625 -15.738281 12.8125 -14.75 C 13.96875 -13.769531 14.546875 -12.382812 14.546875 -10.59375 L 14.546875 -3.6875 C 14.554688 -2.175781 14.765625 -1.03125 15.171875 -0.25 L 15.171875 0 Z M 7.34375 -2.96875 C 7.976562 -2.96875 8.5625 -3.101562 9.09375 -3.375 C 9.625 -3.65625 10.015625 -4.035156 10.265625 -4.515625 L 10.265625 -7.25 L 8.671875 -7.25 C 6.546875 -7.25 5.414062 -6.507812 5.28125 -5.03125 L 5.265625 -4.78125 C 5.265625 -4.257812 5.445312 -3.828125 5.8125 -3.484375 C 6.1875 -3.140625 6.695312 -2.96875 7.34375 -2.96875 Z M 7.34375 -2.96875 "/></g></g></g><g fill="#000000" fill-opacity="1"><g transform="translate(475.883896, 198.658888)"><g><path d="M 5.546875 -15.9375 L 5.6875 -14.09375 C 6.820312 -15.519531 8.347656 -16.234375 10.265625 -16.234375 C 11.953125 -16.234375 13.207031 -15.738281 14.03125 -14.75 C 14.863281 -13.757812 15.289062 -12.273438 15.3125 -10.296875 L 15.3125 0 L 11.046875 0 L 11.046875 -10.1875 C 11.046875 -11.09375 10.847656 -11.75 10.453125 -12.15625 C 10.066406 -12.5625 9.414062 -12.765625 8.5 -12.765625 C 7.300781 -12.765625 6.398438 -12.253906 5.796875 -11.234375 L 5.796875 0 L 1.546875 0 L 1.546875 -15.9375 Z M 5.546875 -15.9375 "/></g></g></g><g fill="#000000" fill-opacity="1"><g transform="translate(492.777537, 198.658888)"><g><path d="M 0.96875 -8.09375 C 0.96875 -10.570312 1.523438 -12.546875 2.640625 -14.015625 C 3.753906 -15.492188 5.28125 -16.234375 7.21875 -16.234375 C 8.769531 -16.234375 10.050781 -15.65625 11.0625 -14.5 L 11.0625 -22.625 L 15.34375 -22.625 L 15.34375 0 L 11.484375 0 L 11.28125 -1.6875 C 10.21875 -0.363281 8.851562 0.296875 7.1875 0.296875 C 5.3125 0.296875 3.804688 -0.441406 2.671875 -1.921875 C 1.535156 -3.398438 0.96875 -5.457031 0.96875 -8.09375 Z M 5.234375 -7.78125 C 5.234375 -6.289062 5.492188 -5.144531 6.015625 -4.34375 C 6.535156 -3.550781 7.289062 -3.15625 8.28125 -3.15625 C 9.59375 -3.15625 10.519531 -3.707031 11.0625 -4.8125 L 11.0625 -11.109375 C 10.53125 -12.210938 9.613281 -12.765625 8.3125 -12.765625 C 6.257812 -12.765625 5.234375 -11.101562 5.234375 -7.78125 Z M 5.234375 -7.78125 "/></g></g></g><g fill="#000000" fill-opacity="1"><g transform="translate(509.774278, 198.658888)"><g><path d="M 10.875 0 C 10.675781 -0.382812 10.53125 -0.859375 10.4375 -1.421875 C 9.40625 -0.273438 8.066406 0.296875 6.421875 0.296875 C 4.859375 0.296875 3.5625 -0.15625 2.53125 -1.0625 C 1.507812 -1.96875 1 -3.109375 1 -4.484375 C 1 -6.171875 1.625 -7.460938 2.875 -8.359375 C 4.132812 -9.265625 5.945312 -9.722656 8.3125 -9.734375 L 10.265625 -9.734375 L 10.265625 -10.65625 C 10.265625 -11.382812 10.078125 -11.96875 9.703125 -12.40625 C 9.328125 -12.851562 8.726562 -13.078125 7.90625 -13.078125 C 7.1875 -13.078125 6.625 -12.90625 6.21875 -12.5625 C 5.8125 -12.21875 5.609375 -11.75 5.609375 -11.15625 L 1.359375 -11.15625 C 1.359375 -12.070312 1.640625 -12.921875 2.203125 -13.703125 C 2.773438 -14.492188 3.582031 -15.113281 4.625 -15.5625 C 5.664062 -16.007812 6.832031 -16.234375 8.125 -16.234375 C 10.09375 -16.234375 11.65625 -15.738281 12.8125 -14.75 C 13.96875 -13.769531 14.546875 -12.382812 14.546875 -10.59375 L 14.546875 -3.6875 C 14.554688 -2.175781 14.765625 -1.03125 15.171875 -0.25 L 15.171875 0 Z M 7.34375 -2.96875 C 7.976562 -2.96875 8.5625 -3.101562 9.09375 -3.375 C 9.625 -3.65625 10.015625 -4.035156 10.265625 -4.515625 L 10.265625 -7.25 L 8.671875 -7.25 C 6.546875 -7.25 5.414062 -6.507812 5.28125 -5.03125 L 5.265625 -4.78125 C 5.265625 -4.257812 5.445312 -3.828125 5.8125 -3.484375 C 6.1875 -3.140625 6.695312 -2.96875 7.34375 -2.96875 Z M 7.34375 -2.96875 "/></g></g></g><g fill="#000000" fill-opacity="1"><g transform="translate(525.946221, 198.658888)"><g/></g></g><g fill="#000000" fill-opacity="1"><g transform="translate(533.457779, 198.658888)"><g><path d="M 6.734375 -19.859375 L 6.734375 -15.9375 L 9.453125 -15.9375 L 9.453125 -12.8125 L 6.734375 -12.8125 L 6.734375 -4.859375 C 6.734375 -4.273438 6.84375 -3.851562 7.0625 -3.59375 C 7.289062 -3.34375 7.726562 -3.21875 8.375 -3.21875 C 8.84375 -3.21875 9.257812 -3.25 9.625 -3.3125 L 9.625 -0.09375 C 8.789062 0.164062 7.929688 0.296875 7.046875 0.296875 C 4.054688 0.296875 2.53125 -1.210938 2.46875 -4.234375 L 2.46875 -12.8125 L 0.140625 -12.8125 L 0.140625 -15.9375 L 2.46875 -15.9375 L 2.46875 -19.859375 Z M 6.734375 -19.859375 "/></g></g></g><g fill="#000000" fill-opacity="1"><g transform="translate(543.649933, 198.658888)"><g><path d="M 10.875 0 C 10.675781 -0.382812 10.53125 -0.859375 10.4375 -1.421875 C 9.40625 -0.273438 8.066406 0.296875 6.421875 0.296875 C 4.859375 0.296875 3.5625 -0.15625 2.53125 -1.0625 C 1.507812 -1.96875 1 -3.109375 1 -4.484375 C 1 -6.171875 1.625 -7.460938 2.875 -8.359375 C 4.132812 -9.265625 5.945312 -9.722656 8.3125 -9.734375 L 10.265625 -9.734375 L 10.265625 -10.65625 C 10.265625 -11.382812 10.078125 -11.96875 9.703125 -12.40625 C 9.328125 -12.851562 8.726562 -13.078125 7.90625 -13.078125 C 7.1875 -13.078125 6.625 -12.90625 6.21875 -12.5625 C 5.8125 -12.21875 5.609375 -11.75 5.609375 -11.15625 L 1.359375 -11.15625 C 1.359375 -12.070312 1.640625 -12.921875 2.203125 -13.703125 C 2.773438 -14.492188 3.582031 -15.113281 4.625 -15.5625 C 5.664062 -16.007812 6.832031 -16.234375 8.125 -16.234375 C 10.09375 -16.234375 11.65625 -15.738281 12.8125 -14.75 C 13.96875 -13.769531 14.546875 -12.382812 14.546875 -10.59375 L 14.546875 -3.6875 C 14.554688 -2.175781 14.765625 -1.03125 15.171875 -0.25 L 15.171875 0 Z M 7.34375 -2.96875 C 7.976562 -2.96875 8.5625 -3.101562 9.09375 -3.375 C 9.625 -3.65625 10.015625 -4.035156 10.265625 -4.515625 L 10.265625 -7.25 L 8.671875 -7.25 C 6.546875 -7.25 5.414062 -6.507812 5.28125 -5.03125 L 5.265625 -4.78125 C 5.265625 -4.257812 5.445312 -3.828125 5.8125 -3.484375 C 6.1875 -3.140625 6.695312 -2.96875 7.34375 -2.96875 Z M 7.34375 -2.96875 "/></g></g></g><g fill="#000000" fill-opacity="1"><g transform="translate(559.821876, 198.658888)"><g><path d="M 5.546875 -15.9375 L 5.6875 -14.09375 C 6.820312 -15.519531 8.347656 -16.234375 10.265625 -16.234375 C 11.953125 -16.234375 13.207031 -15.738281 14.03125 -14.75 C 14.863281 -13.757812 15.289062 -12.273438 15.3125 -10.296875 L 15.3125 0 L 11.046875 0 L 11.046875 -10.1875 C 11.046875 -11.09375 10.847656 -11.75 10.453125 -12.15625 C 10.066406 -12.5625 9.414062 -12.765625 8.5 -12.765625 C 7.300781 -12.765625 6.398438 -12.253906 5.796875 -11.234375 L 5.796875 0 L 1.546875 0 L 1.546875 -15.9375 Z M 5.546875 -15.9375 "/></g></g></g><g fill="#000000" fill-opacity="1"><g transform="translate(576.715517, 198.658888)"><g><path d="M 7.59375 -6.03125 L 10.53125 -15.9375 L 15.09375 -15.9375 L 8.6875 2.46875 L 8.34375 3.3125 C 7.382812 5.394531 5.8125 6.4375 3.625 6.4375 C 3.007812 6.4375 2.378906 6.34375 1.734375 6.15625 L 1.734375 2.9375 L 2.390625 2.953125 C 3.191406 2.953125 3.789062 2.828125 4.1875 2.578125 C 4.582031 2.328125 4.894531 1.921875 5.125 1.359375 L 5.625 0.046875 L 0.046875 -15.9375 L 4.625 -15.9375 Z M 7.59375 -6.03125 "/></g></g></g><g fill="#000000" fill-opacity="1"><g transform="translate(591.635522, 198.658888)"><g><path d="M 10.875 0 C 10.675781 -0.382812 10.53125 -0.859375 10.4375 -1.421875 C 9.40625 -0.273438 8.066406 0.296875 6.421875 0.296875 C 4.859375 0.296875 3.5625 -0.15625 2.53125 -1.0625 C 1.507812 -1.96875 1 -3.109375 1 -4.484375 C 1 -6.171875 1.625 -7.460938 2.875 -8.359375 C 4.132812 -9.265625 5.945312 -9.722656 8.3125 -9.734375 L 10.265625 -9.734375 L 10.265625 -10.65625 C 10.265625 -11.382812 10.078125 -11.96875 9.703125 -12.40625 C 9.328125 -12.851562 8.726562 -13.078125 7.90625 -13.078125 C 7.1875 -13.078125 6.625 -12.90625 6.21875 -12.5625 C 5.8125 -12.21875 5.609375 -11.75 5.609375 -11.15625 L 1.359375 -11.15625 C 1.359375 -12.070312 1.640625 -12.921875 2.203125 -13.703125 C 2.773438 -14.492188 3.582031 -15.113281 4.625 -15.5625 C 5.664062 -16.007812 6.832031 -16.234375 8.125 -16.234375 C 10.09375 -16.234375 11.65625 -15.738281 12.8125 -14.75 C 13.96875 -13.769531 14.546875 -12.382812 14.546875 -10.59375 L 14.546875 -3.6875 C 14.554688 -2.175781 14.765625 -1.03125 15.171875 -0.25 L 15.171875 0 Z M 7.34375 -2.96875 C 7.976562 -2.96875 8.5625 -3.101562 9.09375 -3.375 C 9.625 -3.65625 10.015625 -4.035156 10.265625 -4.515625 L 10.265625 -7.25 L 8.671875 -7.25 C 6.546875 -7.25 5.414062 -6.507812 5.28125 -5.03125 L 5.265625 -4.78125 C 5.265625 -4.257812 5.445312 -3.828125 5.8125 -3.484375 C 6.1875 -3.140625 6.695312 -2.96875 7.34375 -2.96875 Z M 7.34375 -2.96875 "/></g></g></g><g fill="#000000" fill-opacity="1"><g transform="translate(607.807453, 198.658888)"><g/></g></g><g fill="#000000" fill-opacity="1"><g transform="translate(615.319034, 198.658888)"><g><path d="M 0.96875 -8.09375 C 0.96875 -10.570312 1.523438 -12.546875 2.640625 -14.015625 C 3.753906 -15.492188 5.28125 -16.234375 7.21875 -16.234375 C 8.769531 -16.234375 10.050781 -15.65625 11.0625 -14.5 L 11.0625 -22.625 L 15.34375 -22.625 L 15.34375 0 L 11.484375 0 L 11.28125 -1.6875 C 10.21875 -0.363281 8.851562 0.296875 7.1875 0.296875 C 5.3125 0.296875 3.804688 -0.441406 2.671875 -1.921875 C 1.535156 -3.398438 0.96875 -5.457031 0.96875 -8.09375 Z M 5.234375 -7.78125 C 5.234375 -6.289062 5.492188 -5.144531 6.015625 -4.34375 C 6.535156 -3.550781 7.289062 -3.15625 8.28125 -3.15625 C 9.59375 -3.15625 10.519531 -3.707031 11.0625 -4.8125 L 11.0625 -11.109375 C 10.53125 -12.210938 9.613281 -12.765625 8.3125 -12.765625 C 6.257812 -12.765625 5.234375 -11.101562 5.234375 -7.78125 Z M 5.234375 -7.78125 "/></g></g></g><g fill="#000000" fill-opacity="1"><g transform="translate(632.315752, 198.658888)"><g><path d="M 8.96875 0.296875 C 6.632812 0.296875 4.734375 -0.414062 3.265625 -1.84375 C 1.796875 -3.28125 1.0625 -5.195312 1.0625 -7.59375 L 1.0625 -8 C 1.0625 -9.601562 1.367188 -11.035156 1.984375 -12.296875 C 2.609375 -13.554688 3.484375 -14.523438 4.609375 -15.203125 C 5.742188 -15.890625 7.039062 -16.234375 8.5 -16.234375 C 10.675781 -16.234375 12.390625 -15.546875 13.640625 -14.171875 C 14.898438 -12.796875 15.53125 -10.847656 15.53125 -8.328125 L 15.53125 -6.578125 L 5.375 -6.578125 C 5.507812 -5.546875 5.921875 -4.710938 6.609375 -4.078125 C 7.304688 -3.453125 8.1875 -3.140625 9.25 -3.140625 C 10.894531 -3.140625 12.175781 -3.734375 13.09375 -4.921875 L 15.1875 -2.578125 C 14.550781 -1.671875 13.6875 -0.960938 12.59375 -0.453125 C 11.5 0.046875 10.289062 0.296875 8.96875 0.296875 Z M 8.484375 -12.78125 C 7.640625 -12.78125 6.953125 -12.492188 6.421875 -11.921875 C 5.898438 -11.359375 5.566406 -10.546875 5.421875 -9.484375 L 11.34375 -9.484375 L 11.34375 -9.828125 C 11.320312 -10.765625 11.066406 -11.488281 10.578125 -12 C 10.085938 -12.519531 9.390625 -12.78125 8.484375 -12.78125 Z M 8.484375 -12.78125 "/></g></g></g><g fill="#000000" fill-opacity="1"><g transform="translate(648.620262, 198.658888)"><g><path d="M 5.546875 -15.9375 L 5.6875 -14.09375 C 6.820312 -15.519531 8.347656 -16.234375 10.265625 -16.234375 C 11.953125 -16.234375 13.207031 -15.738281 14.03125 -14.75 C 14.863281 -13.757812 15.289062 -12.273438 15.3125 -10.296875 L 15.3125 0 L 11.046875 0 L 11.046875 -10.1875 C 11.046875 -11.09375 10.847656 -11.75 10.453125 -12.15625 C 10.066406 -12.5625 9.414062 -12.765625 8.5 -12.765625 C 7.300781 -12.765625 6.398438 -12.253906 5.796875 -11.234375 L 5.796875 0 L 1.546875 0 L 1.546875 -15.9375 Z M 5.546875 -15.9375 "/></g></g></g><g fill="#000000" fill-opacity="1"><g transform="translate(665.513915, 198.658888)"><g><path d="M 1.015625 -8.09375 C 1.015625 -10.53125 1.597656 -12.492188 2.765625 -13.984375 C 3.929688 -15.484375 5.5 -16.234375 7.46875 -16.234375 C 9.21875 -16.234375 10.578125 -15.632812 11.546875 -14.4375 L 11.734375 -15.9375 L 15.59375 -15.9375 L 15.59375 -0.53125 C 15.59375 0.863281 15.273438 2.078125 14.640625 3.109375 C 14.003906 4.140625 13.109375 4.925781 11.953125 5.46875 C 10.804688 6.007812 9.460938 6.28125 7.921875 6.28125 C 6.753906 6.28125 5.613281 6.046875 4.5 5.578125 C 3.394531 5.109375 2.554688 4.503906 1.984375 3.765625 L 3.875 1.171875 C 4.9375 2.367188 6.222656 2.96875 7.734375 2.96875 C 8.859375 2.96875 9.734375 2.664062 10.359375 2.0625 C 10.992188 1.457031 11.3125 0.597656 11.3125 -0.515625 L 11.3125 -1.375 C 10.332031 -0.257812 9.039062 0.296875 7.4375 0.296875 C 5.519531 0.296875 3.96875 -0.453125 2.78125 -1.953125 C 1.601562 -3.453125 1.015625 -5.4375 1.015625 -7.90625 Z M 5.28125 -7.78125 C 5.28125 -6.332031 5.566406 -5.195312 6.140625 -4.375 C 6.722656 -3.5625 7.519531 -3.15625 8.53125 -3.15625 C 9.820312 -3.15625 10.75 -3.640625 11.3125 -4.609375 L 11.3125 -11.3125 C 10.738281 -12.28125 9.820312 -12.765625 8.5625 -12.765625 C 7.539062 -12.765625 6.738281 -12.347656 6.15625 -11.515625 C 5.570312 -10.679688 5.28125 -9.4375 5.28125 -7.78125 Z M 5.28125 -7.78125 "/></g></g></g><g fill="#000000" fill-opacity="1"><g transform="translate(682.731573, 198.658888)"><g><path d="M 10.875 0 C 10.675781 -0.382812 10.53125 -0.859375 10.4375 -1.421875 C 9.40625 -0.273438 8.066406 0.296875 6.421875 0.296875 C 4.859375 0.296875 3.5625 -0.15625 2.53125 -1.0625 C 1.507812 -1.96875 1 -3.109375 1 -4.484375 C 1 -6.171875 1.625 -7.460938 2.875 -8.359375 C 4.132812 -9.265625 5.945312 -9.722656 8.3125 -9.734375 L 10.265625 -9.734375 L 10.265625 -10.65625 C 10.265625 -11.382812 10.078125 -11.96875 9.703125 -12.40625 C 9.328125 -12.851562 8.726562 -13.078125 7.90625 -13.078125 C 7.1875 -13.078125 6.625 -12.90625 6.21875 -12.5625 C 5.8125 -12.21875 5.609375 -11.75 5.609375 -11.15625 L 1.359375 -11.15625 C 1.359375 -12.070312 1.640625 -12.921875 2.203125 -13.703125 C 2.773438 -14.492188 3.582031 -15.113281 4.625 -15.5625 C 5.664062 -16.007812 6.832031 -16.234375 8.125 -16.234375 C 10.09375 -16.234375 11.65625 -15.738281 12.8125 -14.75 C 13.96875 -13.769531 14.546875 -12.382812 14.546875 -10.59375 L 14.546875 -3.6875 C 14.554688 -2.175781 14.765625 -1.03125 15.171875 -0.25 L 15.171875 0 Z M 7.34375 -2.96875 C 7.976562 -2.96875 8.5625 -3.101562 9.09375 -3.375 C 9.625 -3.65625 10.015625 -4.035156 10.265625 -4.515625 L 10.265625 -7.25 L 8.671875 -7.25 C 6.546875 -7.25 5.414062 -6.507812 5.28125 -5.03125 L 5.265625 -4.78125 C 5.265625 -4.257812 5.445312 -3.828125 5.8125 -3.484375 C 6.1875 -3.140625 6.695312 -2.96875 7.34375 -2.96875 Z M 7.34375 -2.96875 "/></g></g></g><g fill="#000000" fill-opacity="1"><g transform="translate(698.903516, 198.658888)"><g><path d="M 5.546875 -15.9375 L 5.6875 -14.09375 C 6.820312 -15.519531 8.347656 -16.234375 10.265625 -16.234375 C 11.953125 -16.234375 13.207031 -15.738281 14.03125 -14.75 C 14.863281 -13.757812 15.289062 -12.273438 15.3125 -10.296875 L 15.3125 0 L 11.046875 0 L 11.046875 -10.1875 C 11.046875 -11.09375 10.847656 -11.75 10.453125 -12.15625 C 10.066406 -12.5625 9.414062 -12.765625 8.5 -12.765625 C 7.300781 -12.765625 6.398438 -12.253906 5.796875 -11.234375 L 5.796875 0 L 1.546875 0 L 1.546875 -15.9375 Z M 5.546875 -15.9375 "/></g></g></g><g fill="#000000" fill-opacity="1"><g transform="translate(409.708542, 226.408886)"><g><path d="M 0.96875 -8.125 C 0.96875 -9.695312 1.269531 -11.101562 1.875 -12.34375 C 2.488281 -13.582031 3.367188 -14.539062 4.515625 -15.21875 C 5.660156 -15.894531 6.988281 -16.234375 8.5 -16.234375 C 10.65625 -16.234375 12.410156 -15.570312 13.765625 -14.25 C 15.128906 -12.9375 15.890625 -11.148438 16.046875 -8.890625 L 16.078125 -7.8125 C 16.078125 -5.363281 15.394531 -3.398438 14.03125 -1.921875 C 12.664062 -0.441406 10.832031 0.296875 8.53125 0.296875 C 6.226562 0.296875 4.390625 -0.4375 3.015625 -1.90625 C 1.648438 -3.382812 0.96875 -5.390625 0.96875 -7.921875 Z M 5.234375 -7.8125 C 5.234375 -6.300781 5.515625 -5.144531 6.078125 -4.34375 C 6.648438 -3.539062 7.46875 -3.140625 8.53125 -3.140625 C 9.5625 -3.140625 10.363281 -3.535156 10.9375 -4.328125 C 11.519531 -5.117188 11.8125 -6.382812 11.8125 -8.125 C 11.8125 -9.601562 11.519531 -10.75 10.9375 -11.5625 C 10.363281 -12.375 9.550781 -12.78125 8.5 -12.78125 C 7.457031 -12.78125 6.648438 -12.375 6.078125 -11.5625 C 5.515625 -10.757812 5.234375 -9.507812 5.234375 -7.8125 Z M 5.234375 -7.8125 "/></g></g></g><g fill="#000000" fill-opacity="1"><g transform="translate(426.764197, 226.408886)"><g><path d="M 15.984375 -7.828125 C 15.984375 -5.367188 15.425781 -3.398438 14.3125 -1.921875 C 13.195312 -0.441406 11.691406 0.296875 9.796875 0.296875 C 8.179688 0.296875 6.878906 -0.265625 5.890625 -1.390625 L 5.890625 6.125 L 1.640625 6.125 L 1.640625 -15.9375 L 5.578125 -15.9375 L 5.734375 -14.375 C 6.765625 -15.613281 8.109375 -16.234375 9.765625 -16.234375 C 11.734375 -16.234375 13.257812 -15.503906 14.34375 -14.046875 C 15.4375 -12.597656 15.984375 -10.597656 15.984375 -8.046875 Z M 11.734375 -8.125 C 11.734375 -9.613281 11.46875 -10.757812 10.9375 -11.5625 C 10.414062 -12.363281 9.648438 -12.765625 8.640625 -12.765625 C 7.304688 -12.765625 6.390625 -12.253906 5.890625 -11.234375 L 5.890625 -4.71875 C 6.410156 -3.664062 7.335938 -3.140625 8.671875 -3.140625 C 10.710938 -3.140625 11.734375 -4.800781 11.734375 -8.125 Z M 11.734375 -8.125 "/></g></g></g><g fill="#000000" fill-opacity="1"><g transform="translate(443.74621, 226.408886)"><g><path d="M 8.96875 0.296875 C 6.632812 0.296875 4.734375 -0.414062 3.265625 -1.84375 C 1.796875 -3.28125 1.0625 -5.195312 1.0625 -7.59375 L 1.0625 -8 C 1.0625 -9.601562 1.367188 -11.035156 1.984375 -12.296875 C 2.609375 -13.554688 3.484375 -14.523438 4.609375 -15.203125 C 5.742188 -15.890625 7.039062 -16.234375 8.5 -16.234375 C 10.675781 -16.234375 12.390625 -15.546875 13.640625 -14.171875 C 14.898438 -12.796875 15.53125 -10.847656 15.53125 -8.328125 L 15.53125 -6.578125 L 5.375 -6.578125 C 5.507812 -5.546875 5.921875 -4.710938 6.609375 -4.078125 C 7.304688 -3.453125 8.1875 -3.140625 9.25 -3.140625 C 10.894531 -3.140625 12.175781 -3.734375 13.09375 -4.921875 L 15.1875 -2.578125 C 14.550781 -1.671875 13.6875 -0.960938 12.59375 -0.453125 C 11.5 0.046875 10.289062 0.296875 8.96875 0.296875 Z M 8.484375 -12.78125 C 7.640625 -12.78125 6.953125 -12.492188 6.421875 -11.921875 C 5.898438 -11.359375 5.566406 -10.546875 5.421875 -9.484375 L 11.34375 -9.484375 L 11.34375 -9.828125 C 11.320312 -10.765625 11.066406 -11.488281 10.578125 -12 C 10.085938 -12.519531 9.390625 -12.78125 8.484375 -12.78125 Z M 8.484375 -12.78125 "/></g></g></g><g fill="#000000" fill-opacity="1"><g transform="translate(460.050709, 226.408886)"><g><path d="M 10.59375 -11.953125 C 10.007812 -12.023438 9.5 -12.0625 9.0625 -12.0625 C 7.445312 -12.0625 6.390625 -11.519531 5.890625 -10.4375 L 5.890625 0 L 1.640625 0 L 1.640625 -15.9375 L 5.65625 -15.9375 L 5.78125 -14.046875 C 6.632812 -15.503906 7.816406 -16.234375 9.328125 -16.234375 C 9.796875 -16.234375 10.238281 -16.171875 10.65625 -16.046875 Z M 10.59375 -11.953125 "/></g></g></g><g fill="#000000" fill-opacity="1"><g transform="translate(470.611064, 226.408886)"><g><path d="M 10.875 0 C 10.675781 -0.382812 10.53125 -0.859375 10.4375 -1.421875 C 9.40625 -0.273438 8.066406 0.296875 6.421875 0.296875 C 4.859375 0.296875 3.5625 -0.15625 2.53125 -1.0625 C 1.507812 -1.96875 1 -3.109375 1 -4.484375 C 1 -6.171875 1.625 -7.460938 2.875 -8.359375 C 4.132812 -9.265625 5.945312 -9.722656 8.3125 -9.734375 L 10.265625 -9.734375 L 10.265625 -10.65625 C 10.265625 -11.382812 10.078125 -11.96875 9.703125 -12.40625 C 9.328125 -12.851562 8.726562 -13.078125 7.90625 -13.078125 C 7.1875 -13.078125 6.625 -12.90625 6.21875 -12.5625 C 5.8125 -12.21875 5.609375 -11.75 5.609375 -11.15625 L 1.359375 -11.15625 C 1.359375 -12.070312 1.640625 -12.921875 2.203125 -13.703125 C 2.773438 -14.492188 3.582031 -15.113281 4.625 -15.5625 C 5.664062 -16.007812 6.832031 -16.234375 8.125 -16.234375 C 10.09375 -16.234375 11.65625 -15.738281 12.8125 -14.75 C 13.96875 -13.769531 14.546875 -12.382812 14.546875 -10.59375 L 14.546875 -3.6875 C 14.554688 -2.175781 14.765625 -1.03125 15.171875 -0.25 L 15.171875 0 Z M 7.34375 -2.96875 C 7.976562 -2.96875 8.5625 -3.101562 9.09375 -3.375 C 9.625 -3.65625 10.015625 -4.035156 10.265625 -4.515625 L 10.265625 -7.25 L 8.671875 -7.25 C 6.546875 -7.25 5.414062 -6.507812 5.28125 -5.03125 L 5.265625 -4.78125 C 5.265625 -4.257812 5.445312 -3.828125 5.8125 -3.484375 C 6.1875 -3.140625 6.695312 -2.96875 7.34375 -2.96875 Z M 7.34375 -2.96875 "/></g></g></g><g fill="#000000" fill-opacity="1"><g transform="translate(486.783007, 226.408886)"><g><path d="M 6.734375 -19.859375 L 6.734375 -15.9375 L 9.453125 -15.9375 L 9.453125 -12.8125 L 6.734375 -12.8125 L 6.734375 -4.859375 C 6.734375 -4.273438 6.84375 -3.851562 7.0625 -3.59375 C 7.289062 -3.34375 7.726562 -3.21875 8.375 -3.21875 C 8.84375 -3.21875 9.257812 -3.25 9.625 -3.3125 L 9.625 -0.09375 C 8.789062 0.164062 7.929688 0.296875 7.046875 0.296875 C 4.054688 0.296875 2.53125 -1.210938 2.46875 -4.234375 L 2.46875 -12.8125 L 0.140625 -12.8125 L 0.140625 -15.9375 L 2.46875 -15.9375 L 2.46875 -19.859375 Z M 6.734375 -19.859375 "/></g></g></g><g fill="#000000" fill-opacity="1"><g transform="translate(496.533293, 226.408886)"><g><path d="M 0.96875 -8.125 C 0.96875 -9.695312 1.269531 -11.101562 1.875 -12.34375 C 2.488281 -13.582031 3.367188 -14.539062 4.515625 -15.21875 C 5.660156 -15.894531 6.988281 -16.234375 8.5 -16.234375 C 10.65625 -16.234375 12.410156 -15.570312 13.765625 -14.25 C 15.128906 -12.9375 15.890625 -11.148438 16.046875 -8.890625 L 16.078125 -7.8125 C 16.078125 -5.363281 15.394531 -3.398438 14.03125 -1.921875 C 12.664062 -0.441406 10.832031 0.296875 8.53125 0.296875 C 6.226562 0.296875 4.390625 -0.4375 3.015625 -1.90625 C 1.648438 -3.382812 0.96875 -5.390625 0.96875 -7.921875 Z M 5.234375 -7.8125 C 5.234375 -6.300781 5.515625 -5.144531 6.078125 -4.34375 C 6.648438 -3.539062 7.46875 -3.140625 8.53125 -3.140625 C 9.5625 -3.140625 10.363281 -3.535156 10.9375 -4.328125 C 11.519531 -5.117188 11.8125 -6.382812 11.8125 -8.125 C 11.8125 -9.601562 11.519531 -10.75 10.9375 -11.5625 C 10.363281 -12.375 9.550781 -12.78125 8.5 -12.78125 C 7.457031 -12.78125 6.648438 -12.375 6.078125 -11.5625 C 5.515625 -10.757812 5.234375 -9.507812 5.234375 -7.8125 Z M 5.234375 -7.8125 "/></g></g></g><g fill="#000000" fill-opacity="1"><g transform="translate(513.588948, 226.408886)"><g><path d="M 10.59375 -11.953125 C 10.007812 -12.023438 9.5 -12.0625 9.0625 -12.0625 C 7.445312 -12.0625 6.390625 -11.519531 5.890625 -10.4375 L 5.890625 0 L 1.640625 0 L 1.640625 -15.9375 L 5.65625 -15.9375 L 5.78125 -14.046875 C 6.632812 -15.503906 7.816406 -16.234375 9.328125 -16.234375 C 9.796875 -16.234375 10.238281 -16.171875 10.65625 -16.046875 Z M 10.59375 -11.953125 "/></g></g></g><g fill="#000000" fill-opacity="1"><g transform="translate(524.591171, 226.408886)"><g/></g></g><g fill="#000000" fill-opacity="1"><g transform="translate(532.102729, 226.408886)"><g><path d="M 10.21875 -12 L 15.546875 -12 L 15.546875 -8.15625 L 10.21875 -8.15625 L 10.21875 -2.15625 L 6.171875 -2.15625 L 6.171875 -8.15625 L 0.84375 -8.15625 L 0.84375 -12 L 6.171875 -12 L 6.171875 -17.765625 L 10.21875 -17.765625 Z M 10.21875 -12 "/></g></g></g><g fill="#000000" fill-opacity="1"><g transform="translate(548.569243, 226.408886)"><g><path d="M 2.734375 5.375 L 0.515625 4.21875 L 1.046875 3.25 C 1.703125 2.050781 2.039062 0.859375 2.0625 -0.328125 L 2.0625 -3.625 L 5.65625 -3.625 L 5.640625 -0.671875 C 5.628906 0.410156 5.351562 1.503906 4.8125 2.609375 C 4.269531 3.722656 3.578125 4.644531 2.734375 5.375 Z M 2.734375 5.375 "/></g></g></g><g fill="#000000" fill-opacity="1"><g transform="translate(555.933516, 226.408886)"><g/></g></g><g fill="#000000" fill-opacity="1"><g transform="translate(563.445074, 226.408886)"><g><path d="M 9.921875 -7.46875 L 1.625 -7.46875 L 1.625 -10.90625 L 9.921875 -10.90625 Z M 9.921875 -7.46875 "/></g></g></g><g fill="#000000" fill-opacity="1"><g transform="translate(575.139538, 226.408886)"><g><path d="M 2.734375 5.375 L 0.515625 4.21875 L 1.046875 3.25 C 1.703125 2.050781 2.039062 0.859375 2.0625 -0.328125 L 2.0625 -3.625 L 5.65625 -3.625 L 5.640625 -0.671875 C 5.628906 0.410156 5.351562 1.503906 4.8125 2.609375 C 4.269531 3.722656 3.578125 4.644531 2.734375 5.375 Z M 2.734375 5.375 "/></g></g></g><g fill="#000000" fill-opacity="1"><g transform="translate(582.503811, 226.408886)"><g/></g></g><g fill="#000000" fill-opacity="1"><g transform="translate(590.015369, 226.408886)"><g><path d="M 0.953125 -5.5 L 5.484375 -10.109375 L 0.953125 -14.71875 L 3.46875 -17.1875 L 7.9375 -12.609375 L 12.4375 -17.1875 L 14.9375 -14.71875 L 10.421875 -10.109375 L 14.9375 -5.5 L 12.4375 -3.015625 L 7.9375 -7.59375 L 3.46875 -3.015625 Z M 0.953125 -5.5 "/></g></g></g><g fill="#000000" fill-opacity="1"><g transform="translate(606.040026, 226.408886)"><g><path d="M 2.734375 5.375 L 0.515625 4.21875 L 1.046875 3.25 C 1.703125 2.050781 2.039062 0.859375 2.0625 -0.328125 L 2.0625 -3.625 L 5.65625 -3.625 L 5.640625 -0.671875 C 5.628906 0.410156 5.351562 1.503906 4.8125 2.609375 C 4.269531 3.722656 3.578125 4.644531 2.734375 5.375 Z M 2.734375 5.375 "/></g></g></g><g fill="#000000" fill-opacity="1"><g transform="translate(613.404299, 226.408886)"><g/></g></g><g fill="#000000" fill-opacity="1"><g transform="translate(620.915857, 226.408886)"><g><path d="M 16.078125 -8.40625 L 0.921875 -8.40625 L 0.921875 -11.796875 L 16.078125 -11.796875 Z M 6.109375 -16.046875 C 6.109375 -16.710938 6.332031 -17.25 6.78125 -17.65625 C 7.226562 -18.070312 7.804688 -18.28125 8.515625 -18.28125 C 9.210938 -18.28125 9.789062 -18.078125 10.25 -17.671875 C 10.707031 -17.265625 10.9375 -16.722656 10.9375 -16.046875 C 10.9375 -15.390625 10.710938 -14.851562 10.265625 -14.4375 C 9.828125 -14.03125 9.242188 -13.828125 8.515625 -13.828125 C 7.773438 -13.828125 7.1875 -14.035156 6.75 -14.453125 C 6.320312 -14.867188 6.109375 -15.398438 6.109375 -16.046875 Z M 6.109375 -4.078125 C 6.109375 -4.742188 6.332031 -5.28125 6.78125 -5.6875 C 7.226562 -6.101562 7.804688 -6.3125 8.515625 -6.3125 C 9.210938 -6.3125 9.789062 -6.109375 10.25 -5.703125 C 10.707031 -5.296875 10.9375 -4.753906 10.9375 -4.078125 C 10.9375 -3.421875 10.710938 -2.890625 10.265625 -2.484375 C 9.828125 -2.078125 9.242188 -1.875 8.515625 -1.875 C 7.773438 -1.875 7.1875 -2.078125 6.75 -2.484375 C 6.320312 -2.898438 6.109375 -3.429688 6.109375 -4.078125 Z M 6.109375 -4.078125 "/></g></g></g></svg>