<svg xmlns="http://www.w3.org/2000/svg" xmlns:xlink="http://www.w3.org/1999/xlink" width="560" zoomAndPan="magnify" viewBox="0 0 420 77.999999" height="104" preserveAspectRatio="xMidYMid meet" version="1.0"><defs><g/><clipPath id="155b191e4e"><path d="M 0.0117188 2.132812 L 419.683594 2.132812 L 419.683594 75.632812 L 0.0117188 75.632812 Z M 0.0117188 2.132812 " clip-rule="nonzero"/></clipPath></defs><g clip-path="url(#155b191e4e)"><path stroke-linecap="butt" transform="matrix(0.75, 0, 0, 0.75, 0.0111824, 2.131177)" fill="none" stroke-linejoin="miter" d="M 0.000715145 0.00218101 L 559.563243 0.00218101 L 559.563243 98.158436 L 0.000715145 98.158436 Z M 0.000715145 0.00218101 " stroke="#000000" stroke-width="12" stroke-opacity="1" stroke-miterlimit="4"/></g><g fill="#000000" fill-opacity="1"><g transform="translate(124.267311, 51.691398)"><g><path d="M 22.125 0 L 19.6875 -7.03125 L 9.203125 -7.03125 L 6.765625 0 L 1 0 L 11.03125 -27.515625 L 17.828125 -27.515625 L 27.828125 0 Z M 14.4375 -23.28125 L 14.3125 -22.859375 C 14.1875 -22.390625 14.03125 -21.851562 13.84375 -21.25 C 13.664062 -20.65625 12.546875 -17.363281 10.484375 -11.375 L 18.40625 -11.375 L 15.6875 -19.28125 L 14.84375 -21.9375 Z M 14.4375 -23.28125 "/></g></g></g><g fill="#000000" fill-opacity="1"><g transform="translate(153.151212, 51.691398)"><g><path d="M 7.96875 -21.140625 L 7.96875 -9.28125 C 7.96875 -5.570312 9.21875 -3.71875 11.71875 -3.71875 C 13.050781 -3.71875 14.125 -4.285156 14.9375 -5.421875 C 15.75 -6.554688 16.15625 -8.019531 16.15625 -9.8125 L 16.15625 -21.140625 L 21.640625 -21.140625 L 21.640625 -4.734375 C 21.640625 -2.929688 21.691406 -1.351562 21.796875 0 L 16.5625 0 C 16.40625 -1.875 16.328125 -3.273438 16.328125 -4.203125 L 16.234375 -4.203125 C 15.503906 -2.597656 14.578125 -1.429688 13.453125 -0.703125 C 12.328125 0.0234375 10.988281 0.390625 9.4375 0.390625 C 7.195312 0.390625 5.476562 -0.296875 4.28125 -1.671875 C 3.082031 -3.046875 2.484375 -5.0625 2.484375 -7.71875 L 2.484375 -21.140625 Z M 7.96875 -21.140625 "/></g></g></g><g fill="#000000" fill-opacity="1"><g transform="translate(177.582425, 51.691398)"><g><path d="M 20.609375 -6.171875 C 20.609375 -4.128906 19.769531 -2.523438 18.09375 -1.359375 C 16.425781 -0.191406 14.113281 0.390625 11.15625 0.390625 C 8.25 0.390625 6.023438 -0.0664062 4.484375 -0.984375 C 2.941406 -1.898438 1.914062 -3.332031 1.40625 -5.28125 L 6.234375 -6 C 6.503906 -5 6.972656 -4.289062 7.640625 -3.875 C 8.316406 -3.457031 9.488281 -3.25 11.15625 -3.25 C 12.6875 -3.25 13.800781 -3.441406 14.5 -3.828125 C 15.207031 -4.222656 15.5625 -4.835938 15.5625 -5.671875 C 15.5625 -6.347656 15.28125 -6.882812 14.71875 -7.28125 C 14.15625 -7.675781 13.195312 -8.007812 11.84375 -8.28125 C 8.738281 -8.894531 6.644531 -9.460938 5.5625 -9.984375 C 4.488281 -10.515625 3.664062 -11.195312 3.09375 -12.03125 C 2.53125 -12.875 2.25 -13.910156 2.25 -15.140625 C 2.25 -17.160156 3.023438 -18.734375 4.578125 -19.859375 C 6.140625 -20.984375 8.34375 -21.546875 11.1875 -21.546875 C 13.707031 -21.546875 15.726562 -21.054688 17.25 -20.078125 C 18.78125 -19.097656 19.738281 -17.6875 20.125 -15.84375 L 15.25 -15.328125 C 15.09375 -16.191406 14.707031 -16.832031 14.09375 -17.25 C 13.488281 -17.675781 12.519531 -17.890625 11.1875 -17.890625 C 9.882812 -17.890625 8.90625 -17.722656 8.25 -17.390625 C 7.601562 -17.054688 7.28125 -16.5 7.28125 -15.71875 C 7.28125 -15.113281 7.53125 -14.628906 8.03125 -14.265625 C 8.539062 -13.910156 9.382812 -13.613281 10.5625 -13.375 C 12.21875 -13.039062 13.6875 -12.691406 14.96875 -12.328125 C 16.25 -11.972656 17.273438 -11.546875 18.046875 -11.046875 C 18.828125 -10.554688 19.445312 -9.921875 19.90625 -9.140625 C 20.375 -8.367188 20.609375 -7.378906 20.609375 -6.171875 Z M 20.609375 -6.171875 "/></g></g></g><g fill="#000000" fill-opacity="1"><g transform="translate(199.82635, 51.691398)"><g><path d="M 8.203125 0.359375 C 6.585938 0.359375 5.34375 -0.078125 4.46875 -0.953125 C 3.601562 -1.835938 3.171875 -3.175781 3.171875 -4.96875 L 3.171875 -17.421875 L 0.484375 -17.421875 L 0.484375 -21.140625 L 3.4375 -21.140625 L 5.15625 -26.09375 L 8.59375 -26.09375 L 8.59375 -21.140625 L 12.59375 -21.140625 L 12.59375 -17.421875 L 8.59375 -17.421875 L 8.59375 -6.453125 C 8.59375 -5.421875 8.785156 -4.660156 9.171875 -4.171875 C 9.566406 -3.679688 10.175781 -3.4375 11 -3.4375 C 11.425781 -3.4375 12.035156 -3.53125 12.828125 -3.71875 L 12.828125 -0.3125 C 11.472656 0.132812 9.929688 0.359375 8.203125 0.359375 Z M 8.203125 0.359375 "/></g></g></g><g fill="#000000" fill-opacity="1"><g transform="translate(213.145361, 51.691398)"><g><path d="M 2.796875 0 L 2.796875 -16.171875 C 2.796875 -17.328125 2.78125 -18.289062 2.75 -19.0625 C 2.71875 -19.84375 2.679688 -20.535156 2.640625 -21.140625 L 7.875 -21.140625 C 7.914062 -20.898438 7.96875 -20.179688 8.03125 -18.984375 C 8.09375 -17.796875 8.125 -17.007812 8.125 -16.625 L 8.203125 -16.625 C 8.734375 -18.101562 9.207031 -19.144531 9.625 -19.75 C 10.039062 -20.363281 10.535156 -20.816406 11.109375 -21.109375 C 11.679688 -21.398438 12.398438 -21.546875 13.265625 -21.546875 C 13.960938 -21.546875 14.53125 -21.445312 14.96875 -21.25 L 14.96875 -16.65625 C 14.082031 -16.851562 13.300781 -16.953125 12.625 -16.953125 C 11.25 -16.953125 10.179688 -16.398438 9.421875 -15.296875 C 8.660156 -14.191406 8.28125 -12.550781 8.28125 -10.375 L 8.28125 0 Z M 2.796875 0 "/></g></g></g><g fill="#000000" fill-opacity="1"><g transform="translate(228.710252, 51.691398)"><g><path d="M 7.671875 0.390625 C 5.628906 0.390625 4.035156 -0.164062 2.890625 -1.28125 C 1.742188 -2.394531 1.171875 -3.960938 1.171875 -5.984375 C 1.171875 -8.171875 1.882812 -9.835938 3.3125 -10.984375 C 4.738281 -12.128906 6.804688 -12.710938 9.515625 -12.734375 L 14.0625 -12.8125 L 14.0625 -13.890625 C 14.0625 -15.265625 13.820312 -16.285156 13.34375 -16.953125 C 12.863281 -17.628906 12.078125 -17.96875 10.984375 -17.96875 C 9.960938 -17.96875 9.210938 -17.734375 8.734375 -17.265625 C 8.265625 -16.804688 7.972656 -16.046875 7.859375 -14.984375 L 2.125 -15.25 C 2.476562 -17.3125 3.421875 -18.875 4.953125 -19.9375 C 6.484375 -21 8.570312 -21.53125 11.21875 -21.53125 C 13.882812 -21.53125 15.9375 -20.867188 17.375 -19.546875 C 18.820312 -18.234375 19.546875 -16.367188 19.546875 -13.953125 L 19.546875 -6.25 C 19.546875 -5.0625 19.679688 -4.242188 19.953125 -3.796875 C 20.222656 -3.347656 20.671875 -3.125 21.296875 -3.125 C 21.710938 -3.125 22.113281 -3.164062 22.5 -3.25 L 22.5 -0.28125 C 22.175781 -0.195312 21.882812 -0.117188 21.625 -0.046875 C 21.363281 0.015625 21.101562 0.0625 20.84375 0.09375 C 20.582031 0.132812 20.304688 0.164062 20.015625 0.1875 C 19.722656 0.21875 19.378906 0.234375 18.984375 0.234375 C 17.609375 0.234375 16.585938 -0.101562 15.921875 -0.78125 C 15.265625 -1.457031 14.875 -2.453125 14.75 -3.765625 L 14.625 -3.765625 C 13.09375 -0.992188 10.773438 0.390625 7.671875 0.390625 Z M 14.0625 -9.78125 L 11.25 -9.75 C 9.976562 -9.695312 9.070312 -9.554688 8.53125 -9.328125 C 8 -9.097656 7.59375 -8.75 7.3125 -8.28125 C 7.03125 -7.8125 6.890625 -7.1875 6.890625 -6.40625 C 6.890625 -5.40625 7.117188 -4.660156 7.578125 -4.171875 C 8.046875 -3.679688 8.664062 -3.4375 9.4375 -3.4375 C 10.289062 -3.4375 11.070312 -3.671875 11.78125 -4.140625 C 12.5 -4.609375 13.054688 -5.253906 13.453125 -6.078125 C 13.859375 -6.910156 14.0625 -7.789062 14.0625 -8.71875 Z M 14.0625 -9.78125 "/></g></g></g><g fill="#000000" fill-opacity="1"><g transform="translate(250.954178, 51.691398)"><g><path d="M 2.796875 0 L 2.796875 -28.984375 L 8.28125 -28.984375 L 8.28125 0 Z M 2.796875 0 "/></g></g></g><g fill="#000000" fill-opacity="1"><g transform="translate(262.066379, 51.691398)"><g><path d="M 2.796875 -24.9375 L 2.796875 -28.984375 L 8.28125 -28.984375 L 8.28125 -24.9375 Z M 2.796875 0 L 2.796875 -21.140625 L 8.28125 -21.140625 L 8.28125 0 Z M 2.796875 0 "/></g></g></g><g fill="#000000" fill-opacity="1"><g transform="translate(273.17858, 51.691398)"><g><path d="M 7.671875 0.390625 C 5.628906 0.390625 4.035156 -0.164062 2.890625 -1.28125 C 1.742188 -2.394531 1.171875 -3.960938 1.171875 -5.984375 C 1.171875 -8.171875 1.882812 -9.835938 3.3125 -10.984375 C 4.738281 -12.128906 6.804688 -12.710938 9.515625 -12.734375 L 14.0625 -12.8125 L 14.0625 -13.890625 C 14.0625 -15.265625 13.820312 -16.285156 13.34375 -16.953125 C 12.863281 -17.628906 12.078125 -17.96875 10.984375 -17.96875 C 9.960938 -17.96875 9.210938 -17.734375 8.734375 -17.265625 C 8.265625 -16.804688 7.972656 -16.046875 7.859375 -14.984375 L 2.125 -15.25 C 2.476562 -17.3125 3.421875 -18.875 4.953125 -19.9375 C 6.484375 -21 8.570312 -21.53125 11.21875 -21.53125 C 13.882812 -21.53125 15.9375 -20.867188 17.375 -19.546875 C 18.820312 -18.234375 19.546875 -16.367188 19.546875 -13.953125 L 19.546875 -6.25 C 19.546875 -5.0625 19.679688 -4.242188 19.953125 -3.796875 C 20.222656 -3.347656 20.671875 -3.125 21.296875 -3.125 C 21.710938 -3.125 22.113281 -3.164062 22.5 -3.25 L 22.5 -0.28125 C 22.175781 -0.195312 21.882812 -0.117188 21.625 -0.046875 C 21.363281 0.015625 21.101562 0.0625 20.84375 0.09375 C 20.582031 0.132812 20.304688 0.164062 20.015625 0.1875 C 19.722656 0.21875 19.378906 0.234375 18.984375 0.234375 C 17.609375 0.234375 16.585938 -0.101562 15.921875 -0.78125 C 15.265625 -1.457031 14.875 -2.453125 14.75 -3.765625 L 14.625 -3.765625 C 13.09375 -0.992188 10.773438 0.390625 7.671875 0.390625 Z M 14.0625 -9.78125 L 11.25 -9.75 C 9.976562 -9.695312 9.070312 -9.554688 8.53125 -9.328125 C 8 -9.097656 7.59375 -8.75 7.3125 -8.28125 C 7.03125 -7.8125 6.890625 -7.1875 6.890625 -6.40625 C 6.890625 -5.40625 7.117188 -4.660156 7.578125 -4.171875 C 8.046875 -3.679688 8.664062 -3.4375 9.4375 -3.4375 C 10.289062 -3.4375 11.070312 -3.671875 11.78125 -4.140625 C 12.5 -4.609375 13.054688 -5.253906 13.453125 -6.078125 C 13.859375 -6.910156 14.0625 -7.789062 14.0625 -8.71875 Z M 14.0625 -9.78125 "/></g></g></g></svg>