<svg xmlns="http://www.w3.org/2000/svg" xmlns:xlink="http://www.w3.org/1999/xlink" width="255" zoomAndPan="magnify" viewBox="0 0 191.25 77.999999" height="104" preserveAspectRatio="xMidYMid meet" version="1.0"><defs><g/><clipPath id="8ea820a537"><path d="M 6.226562 2.273438 L 183.742188 2.273438 L 183.742188 75.488281 L 6.226562 75.488281 Z M 6.226562 2.273438 " clip-rule="nonzero"/></clipPath></defs><g clip-path="url(#8ea820a537)"><path stroke-linecap="butt" transform="matrix(0.74707, 0, 0, 0.74707, 6.22604, 2.275195)" fill="none" stroke-linejoin="miter" d="M 0.00069975 -0.00235264 L 237.616396 -0.00235264 L 237.616396 98.157129 L 0.00069975 98.157129 Z M 0.00069975 -0.00235264 " stroke="#000000" stroke-width="12" stroke-opacity="1" stroke-miterlimit="4"/></g><g fill="#000000" fill-opacity="1"><g transform="translate(50.676258, 51.641823)"><g><path d="M 21.046875 -9.125 C 21.046875 -6.21875 20.140625 -3.90625 18.328125 -2.1875 C 16.523438 -0.46875 14.046875 0.390625 10.890625 0.390625 C 8.140625 0.390625 5.9375 -0.226562 4.28125 -1.46875 C 2.632812 -2.707031 1.613281 -4.5 1.21875 -6.84375 L 6.6875 -7.296875 C 6.976562 -6.128906 7.484375 -5.28125 8.203125 -4.75 C 8.929688 -4.21875 9.847656 -3.953125 10.953125 -3.953125 C 12.316406 -3.953125 13.398438 -4.382812 14.203125 -5.25 C 15.015625 -6.125 15.421875 -7.375 15.421875 -9 C 15.421875 -10.445312 15.035156 -11.597656 14.265625 -12.453125 C 13.503906 -13.316406 12.4375 -13.75 11.0625 -13.75 C 9.550781 -13.75 8.316406 -13.160156 7.359375 -11.984375 L 2.015625 -11.984375 L 2.984375 -27.40625 L 19.453125 -27.40625 L 19.453125 -23.34375 L 7.9375 -23.34375 L 7.484375 -16.421875 C 8.804688 -17.585938 10.460938 -18.171875 12.453125 -18.171875 C 15.054688 -18.171875 17.140625 -17.359375 18.703125 -15.734375 C 20.265625 -14.117188 21.046875 -11.914062 21.046875 -9.125 Z M 21.046875 -9.125 "/></g></g></g><g fill="#000000" fill-opacity="1"><g transform="translate(72.833293, 51.641823)"><g/></g></g><g fill="#000000" fill-opacity="1"><g transform="translate(83.902087, 51.641823)"><g><path d="M 1.375 0 L 1.375 -3.796875 C 2.09375 -5.359375 3.109375 -6.882812 4.421875 -8.375 C 5.742188 -9.875 7.398438 -11.429688 9.390625 -13.046875 C 11.316406 -14.609375 12.664062 -15.894531 13.4375 -16.90625 C 14.207031 -17.914062 14.59375 -18.910156 14.59375 -19.890625 C 14.59375 -22.273438 13.390625 -23.46875 10.984375 -23.46875 C 9.816406 -23.46875 8.925781 -23.148438 8.3125 -22.515625 C 7.695312 -21.890625 7.300781 -20.945312 7.125 -19.6875 L 1.609375 -20 C 1.921875 -22.539062 2.867188 -24.476562 4.453125 -25.8125 C 6.046875 -27.15625 8.210938 -27.828125 10.953125 -27.828125 C 13.910156 -27.828125 16.179688 -27.148438 17.765625 -25.796875 C 19.347656 -24.453125 20.140625 -22.554688 20.140625 -20.109375 C 20.140625 -18.828125 19.882812 -17.664062 19.375 -16.625 C 18.875 -15.59375 18.226562 -14.640625 17.4375 -13.765625 C 16.644531 -12.890625 15.765625 -12.066406 14.796875 -11.296875 C 13.828125 -10.535156 12.890625 -9.789062 11.984375 -9.0625 C 11.078125 -8.332031 10.25 -7.597656 9.5 -6.859375 C 8.757812 -6.128906 8.207031 -5.34375 7.84375 -4.5 L 20.5625 -4.5 L 20.5625 0 Z M 1.375 0 "/></g></g></g><g fill="#000000" fill-opacity="1"><g transform="translate(106.059123, 51.641823)"><g/></g></g><g fill="#000000" fill-opacity="1"><g transform="translate(117.127917, 51.641823)"><g><path d="M 18.28125 -5.578125 L 18.28125 0 L 13.078125 0 L 13.078125 -5.578125 L 0.609375 -5.578125 L 0.609375 -9.6875 L 12.171875 -27.40625 L 18.28125 -27.40625 L 18.28125 -9.65625 L 21.9375 -9.65625 L 21.9375 -5.578125 Z M 13.078125 -18.625 C 13.078125 -19.320312 13.097656 -20.078125 13.140625 -20.890625 C 13.179688 -21.710938 13.21875 -22.238281 13.25 -22.46875 C 12.914062 -21.738281 12.304688 -20.6875 11.421875 -19.3125 L 5.0625 -9.65625 L 13.078125 -9.65625 Z M 13.078125 -18.625 "/></g></g></g></svg>