<svg xmlns="http://www.w3.org/2000/svg" xmlns:xlink="http://www.w3.org/1999/xlink" width="255" zoomAndPan="magnify" viewBox="0 0 191.25 77.999999" height="104" preserveAspectRatio="xMidYMid meet" version="1.0"><defs><g/><clipPath id="f44156ff6b"><path d="M 6.226562 2.273438 L 183.742188 2.273438 L 183.742188 75.488281 L 6.226562 75.488281 Z M 6.226562 2.273438 " clip-rule="nonzero"/></clipPath></defs><g clip-path="url(#f44156ff6b)"><path stroke-linecap="butt" transform="matrix(0.74707, 0, 0, 0.74707, 6.22604, 2.275195)" fill="none" stroke-linejoin="miter" d="M 0.00069975 -0.00235264 L 237.616396 -0.00235264 L 237.616396 98.157129 L 0.00069975 98.157129 Z M 0.00069975 -0.00235264 " stroke="#000000" stroke-width="12" stroke-opacity="1" stroke-miterlimit="4"/></g><g fill="#000000" fill-opacity="1"><g transform="translate(50.676258, 51.641823)"><g><path d="M 2.515625 0 L 2.515625 -4.0625 L 9.296875 -4.0625 L 9.296875 -22.765625 L 2.71875 -18.65625 L 2.71875 -22.953125 L 9.59375 -27.40625 L 14.765625 -27.40625 L 14.765625 -4.0625 L 21.046875 -4.0625 L 21.046875 0 Z M 2.515625 0 "/></g></g></g><g fill="#000000" fill-opacity="1"><g transform="translate(72.833293, 51.641823)"><g/></g></g><g fill="#000000" fill-opacity="1"><g transform="translate(83.902087, 51.641823)"><g><path d="M 20.71875 -7.609375 C 20.71875 -5.035156 19.875 -3.046875 18.1875 -1.640625 C 16.5 -0.242188 14.097656 0.453125 10.984375 0.453125 C 8.046875 0.453125 5.707031 -0.222656 3.96875 -1.578125 C 2.226562 -2.941406 1.210938 -4.898438 0.921875 -7.453125 L 6.484375 -7.9375 C 6.828125 -5.300781 8.320312 -3.984375 10.96875 -3.984375 C 12.28125 -3.984375 13.296875 -4.304688 14.015625 -4.953125 C 14.742188 -5.609375 15.109375 -6.601562 15.109375 -7.9375 C 15.109375 -9.15625 14.664062 -10.085938 13.78125 -10.734375 C 12.90625 -11.390625 11.597656 -11.71875 9.859375 -11.71875 L 7.953125 -11.71875 L 7.953125 -16.125 L 9.75 -16.125 C 11.3125 -16.125 12.488281 -16.441406 13.28125 -17.078125 C 14.070312 -17.722656 14.46875 -18.644531 14.46875 -19.84375 C 14.46875 -20.96875 14.15625 -21.851562 13.53125 -22.5 C 12.90625 -23.144531 11.988281 -23.46875 10.78125 -23.46875 C 9.644531 -23.46875 8.726562 -23.15625 8.03125 -22.53125 C 7.34375 -21.90625 6.945312 -21.023438 6.84375 -19.890625 L 1.375 -20.265625 C 1.664062 -22.628906 2.644531 -24.476562 4.3125 -25.8125 C 5.988281 -27.15625 8.175781 -27.828125 10.875 -27.828125 C 13.738281 -27.828125 15.976562 -27.179688 17.59375 -25.890625 C 19.207031 -24.597656 20.015625 -22.8125 20.015625 -20.53125 C 20.015625 -18.8125 19.507812 -17.398438 18.5 -16.296875 C 17.5 -15.203125 16.050781 -14.472656 14.15625 -14.109375 L 14.15625 -14.03125 C 16.257812 -13.78125 17.878906 -13.085938 19.015625 -11.953125 C 20.148438 -10.816406 20.71875 -9.367188 20.71875 -7.609375 Z M 20.71875 -7.609375 "/></g></g></g><g fill="#000000" fill-opacity="1"><g transform="translate(106.059123, 51.641823)"><g/></g></g><g fill="#000000" fill-opacity="1"><g transform="translate(117.127917, 51.641823)"><g><path d="M 1.375 0 L 1.375 -3.796875 C 2.09375 -5.359375 3.109375 -6.882812 4.421875 -8.375 C 5.742188 -9.875 7.398438 -11.429688 9.390625 -13.046875 C 11.316406 -14.609375 12.664062 -15.894531 13.4375 -16.90625 C 14.207031 -17.914062 14.59375 -18.910156 14.59375 -19.890625 C 14.59375 -22.273438 13.390625 -23.46875 10.984375 -23.46875 C 9.816406 -23.46875 8.925781 -23.148438 8.3125 -22.515625 C 7.695312 -21.890625 7.300781 -20.945312 7.125 -19.6875 L 1.609375 -20 C 1.921875 -22.539062 2.867188 -24.476562 4.453125 -25.8125 C 6.046875 -27.15625 8.210938 -27.828125 10.953125 -27.828125 C 13.910156 -27.828125 16.179688 -27.148438 17.765625 -25.796875 C 19.347656 -24.453125 20.140625 -22.554688 20.140625 -20.109375 C 20.140625 -18.828125 19.882812 -17.664062 19.375 -16.625 C 18.875 -15.59375 18.226562 -14.640625 17.4375 -13.765625 C 16.644531 -12.890625 15.765625 -12.066406 14.796875 -11.296875 C 13.828125 -10.535156 12.890625 -9.789062 11.984375 -9.0625 C 11.078125 -8.332031 10.25 -7.597656 9.5 -6.859375 C 8.757812 -6.128906 8.207031 -5.34375 7.84375 -4.5 L 20.5625 -4.5 L 20.5625 0 Z M 1.375 0 "/></g></g></g></svg>