<svg xmlns="http://www.w3.org/2000/svg" xmlns:xlink="http://www.w3.org/1999/xlink" width="560" zoomAndPan="magnify" viewBox="0 0 420 77.999999" height="104" preserveAspectRatio="xMidYMid meet" version="1.0"><defs><g/><clipPath id="47da0ab06c"><path d="M 0.0117188 2.132812 L 419.683594 2.132812 L 419.683594 75.632812 L 0.0117188 75.632812 Z M 0.0117188 2.132812 " clip-rule="nonzero"/></clipPath></defs><g clip-path="url(#47da0ab06c)"><path stroke-linecap="butt" transform="matrix(0.75, 0, 0, 0.75, 0.0111824, 2.131177)" fill="none" stroke-linejoin="miter" d="M 0.000715145 0.00218101 L 559.563243 0.00218101 L 559.563243 98.158436 L 0.000715145 98.158436 Z M 0.000715145 0.00218101 " stroke="#000000" stroke-width="12" stroke-opacity="1" stroke-miterlimit="4"/></g><g fill="#000000" fill-opacity="1"><g transform="translate(126.458717, 51.691398)"><g><path d="M 25.53125 0 L 25.53125 -16.6875 C 25.53125 -17.0625 25.53125 -17.4375 25.53125 -17.8125 C 25.539062 -18.1875 25.601562 -19.804688 25.71875 -22.671875 C 24.800781 -19.171875 24.117188 -16.734375 23.671875 -15.359375 L 18.71875 0 L 14.609375 0 L 9.65625 -15.359375 L 7.5625 -22.671875 C 7.71875 -19.648438 7.796875 -17.65625 7.796875 -16.6875 L 7.796875 0 L 2.671875 0 L 2.671875 -27.515625 L 10.390625 -27.515625 L 15.3125 -12.125 L 15.75 -10.640625 L 16.6875 -6.953125 L 17.90625 -11.375 L 22.96875 -27.515625 L 30.640625 -27.515625 L 30.640625 0 Z M 25.53125 0 "/></g></g></g><g fill="#000000" fill-opacity="1"><g transform="translate(159.775774, 51.691398)"><g><path d="M 7.671875 0.390625 C 5.628906 0.390625 4.035156 -0.164062 2.890625 -1.28125 C 1.742188 -2.394531 1.171875 -3.960938 1.171875 -5.984375 C 1.171875 -8.171875 1.882812 -9.835938 3.3125 -10.984375 C 4.738281 -12.128906 6.804688 -12.710938 9.515625 -12.734375 L 14.0625 -12.8125 L 14.0625 -13.890625 C 14.0625 -15.265625 13.820312 -16.285156 13.34375 -16.953125 C 12.863281 -17.628906 12.078125 -17.96875 10.984375 -17.96875 C 9.960938 -17.96875 9.210938 -17.734375 8.734375 -17.265625 C 8.265625 -16.804688 7.972656 -16.046875 7.859375 -14.984375 L 2.125 -15.25 C 2.476562 -17.3125 3.421875 -18.875 4.953125 -19.9375 C 6.484375 -21 8.570312 -21.53125 11.21875 -21.53125 C 13.882812 -21.53125 15.9375 -20.867188 17.375 -19.546875 C 18.820312 -18.234375 19.546875 -16.367188 19.546875 -13.953125 L 19.546875 -6.25 C 19.546875 -5.0625 19.679688 -4.242188 19.953125 -3.796875 C 20.222656 -3.347656 20.671875 -3.125 21.296875 -3.125 C 21.710938 -3.125 22.113281 -3.164062 22.5 -3.25 L 22.5 -0.28125 C 22.175781 -0.195312 21.882812 -0.117188 21.625 -0.046875 C 21.363281 0.015625 21.101562 0.0625 20.84375 0.09375 C 20.582031 0.132812 20.304688 0.164062 20.015625 0.1875 C 19.722656 0.21875 19.378906 0.234375 18.984375 0.234375 C 17.609375 0.234375 16.585938 -0.101562 15.921875 -0.78125 C 15.265625 -1.457031 14.875 -2.453125 14.75 -3.765625 L 14.625 -3.765625 C 13.09375 -0.992188 10.773438 0.390625 7.671875 0.390625 Z M 14.0625 -9.78125 L 11.25 -9.75 C 9.976562 -9.695312 9.070312 -9.554688 8.53125 -9.328125 C 8 -9.097656 7.59375 -8.75 7.3125 -8.28125 C 7.03125 -7.8125 6.890625 -7.1875 6.890625 -6.40625 C 6.890625 -5.40625 7.117188 -4.660156 7.578125 -4.171875 C 8.046875 -3.679688 8.664062 -3.4375 9.4375 -3.4375 C 10.289062 -3.4375 11.070312 -3.671875 11.78125 -4.140625 C 12.5 -4.609375 13.054688 -5.253906 13.453125 -6.078125 C 13.859375 -6.910156 14.0625 -7.789062 14.0625 -8.71875 Z M 14.0625 -9.78125 "/></g></g></g><g fill="#000000" fill-opacity="1"><g transform="translate(182.0197, 51.691398)"><g><path d="M 2.796875 0 L 2.796875 -28.984375 L 8.28125 -28.984375 L 8.28125 0 Z M 2.796875 0 "/></g></g></g><g fill="#000000" fill-opacity="1"><g transform="translate(193.131901, 51.691398)"><g><path d="M 7.671875 0.390625 C 5.628906 0.390625 4.035156 -0.164062 2.890625 -1.28125 C 1.742188 -2.394531 1.171875 -3.960938 1.171875 -5.984375 C 1.171875 -8.171875 1.882812 -9.835938 3.3125 -10.984375 C 4.738281 -12.128906 6.804688 -12.710938 9.515625 -12.734375 L 14.0625 -12.8125 L 14.0625 -13.890625 C 14.0625 -15.265625 13.820312 -16.285156 13.34375 -16.953125 C 12.863281 -17.628906 12.078125 -17.96875 10.984375 -17.96875 C 9.960938 -17.96875 9.210938 -17.734375 8.734375 -17.265625 C 8.265625 -16.804688 7.972656 -16.046875 7.859375 -14.984375 L 2.125 -15.25 C 2.476562 -17.3125 3.421875 -18.875 4.953125 -19.9375 C 6.484375 -21 8.570312 -21.53125 11.21875 -21.53125 C 13.882812 -21.53125 15.9375 -20.867188 17.375 -19.546875 C 18.820312 -18.234375 19.546875 -16.367188 19.546875 -13.953125 L 19.546875 -6.25 C 19.546875 -5.0625 19.679688 -4.242188 19.953125 -3.796875 C 20.222656 -3.347656 20.671875 -3.125 21.296875 -3.125 C 21.710938 -3.125 22.113281 -3.164062 22.5 -3.25 L 22.5 -0.28125 C 22.175781 -0.195312 21.882812 -0.117188 21.625 -0.046875 C 21.363281 0.015625 21.101562 0.0625 20.84375 0.09375 C 20.582031 0.132812 20.304688 0.164062 20.015625 0.1875 C 19.722656 0.21875 19.378906 0.234375 18.984375 0.234375 C 17.609375 0.234375 16.585938 -0.101562 15.921875 -0.78125 C 15.265625 -1.457031 14.875 -2.453125 14.75 -3.765625 L 14.625 -3.765625 C 13.09375 -0.992188 10.773438 0.390625 7.671875 0.390625 Z M 14.0625 -9.78125 L 11.25 -9.75 C 9.976562 -9.695312 9.070312 -9.554688 8.53125 -9.328125 C 8 -9.097656 7.59375 -8.75 7.3125 -8.28125 C 7.03125 -7.8125 6.890625 -7.1875 6.890625 -6.40625 C 6.890625 -5.40625 7.117188 -4.660156 7.578125 -4.171875 C 8.046875 -3.679688 8.664062 -3.4375 9.4375 -3.4375 C 10.289062 -3.4375 11.070312 -3.671875 11.78125 -4.140625 C 12.5 -4.609375 13.054688 -5.253906 13.453125 -6.078125 C 13.859375 -6.910156 14.0625 -7.789062 14.0625 -8.71875 Z M 14.0625 -9.78125 "/></g></g></g><g fill="#000000" fill-opacity="1"><g transform="translate(215.375826, 51.691398)"><g><path d="M 5.53125 8.296875 C 4.21875 8.296875 3.066406 8.210938 2.078125 8.046875 L 2.078125 4.140625 C 2.765625 4.242188 3.394531 4.296875 3.96875 4.296875 C 4.75 4.296875 5.394531 4.171875 5.90625 3.921875 C 6.425781 3.679688 6.890625 3.273438 7.296875 2.703125 C 7.703125 2.128906 8.160156 1.15625 8.671875 -0.21875 L 0.3125 -21.140625 L 6.109375 -21.140625 L 9.4375 -11.234375 C 9.957031 -9.816406 10.613281 -7.640625 11.40625 -4.703125 L 11.890625 -6.5625 L 13.171875 -11.15625 L 16.296875 -21.140625 L 22.03125 -21.140625 L 13.671875 1.109375 C 12.554688 3.816406 11.394531 5.691406 10.1875 6.734375 C 8.976562 7.773438 7.425781 8.296875 5.53125 8.296875 Z M 5.53125 8.296875 "/></g></g></g><g fill="#000000" fill-opacity="1"><g transform="translate(237.619752, 51.691398)"><g><path d="M 20.609375 -6.171875 C 20.609375 -4.128906 19.769531 -2.523438 18.09375 -1.359375 C 16.425781 -0.191406 14.113281 0.390625 11.15625 0.390625 C 8.25 0.390625 6.023438 -0.0664062 4.484375 -0.984375 C 2.941406 -1.898438 1.914062 -3.332031 1.40625 -5.28125 L 6.234375 -6 C 6.503906 -5 6.972656 -4.289062 7.640625 -3.875 C 8.316406 -3.457031 9.488281 -3.25 11.15625 -3.25 C 12.6875 -3.25 13.800781 -3.441406 14.5 -3.828125 C 15.207031 -4.222656 15.5625 -4.835938 15.5625 -5.671875 C 15.5625 -6.347656 15.28125 -6.882812 14.71875 -7.28125 C 14.15625 -7.675781 13.195312 -8.007812 11.84375 -8.28125 C 8.738281 -8.894531 6.644531 -9.460938 5.5625 -9.984375 C 4.488281 -10.515625 3.664062 -11.195312 3.09375 -12.03125 C 2.53125 -12.875 2.25 -13.910156 2.25 -15.140625 C 2.25 -17.160156 3.023438 -18.734375 4.578125 -19.859375 C 6.140625 -20.984375 8.34375 -21.546875 11.1875 -21.546875 C 13.707031 -21.546875 15.726562 -21.054688 17.25 -20.078125 C 18.78125 -19.097656 19.738281 -17.6875 20.125 -15.84375 L 15.25 -15.328125 C 15.09375 -16.191406 14.707031 -16.832031 14.09375 -17.25 C 13.488281 -17.675781 12.519531 -17.890625 11.1875 -17.890625 C 9.882812 -17.890625 8.90625 -17.722656 8.25 -17.390625 C 7.601562 -17.054688 7.28125 -16.5 7.28125 -15.71875 C 7.28125 -15.113281 7.53125 -14.628906 8.03125 -14.265625 C 8.539062 -13.910156 9.382812 -13.613281 10.5625 -13.375 C 12.21875 -13.039062 13.6875 -12.691406 14.96875 -12.328125 C 16.25 -11.972656 17.273438 -11.546875 18.046875 -11.046875 C 18.828125 -10.554688 19.445312 -9.921875 19.90625 -9.140625 C 20.375 -8.367188 20.609375 -7.378906 20.609375 -6.171875 Z M 20.609375 -6.171875 "/></g></g></g><g fill="#000000" fill-opacity="1"><g transform="translate(259.863678, 51.691398)"><g><path d="M 2.796875 -24.9375 L 2.796875 -28.984375 L 8.28125 -28.984375 L 8.28125 -24.9375 Z M 2.796875 0 L 2.796875 -21.140625 L 8.28125 -21.140625 L 8.28125 0 Z M 2.796875 0 "/></g></g></g><g fill="#000000" fill-opacity="1"><g transform="translate(270.975879, 51.691398)"><g><path d="M 7.671875 0.390625 C 5.628906 0.390625 4.035156 -0.164062 2.890625 -1.28125 C 1.742188 -2.394531 1.171875 -3.960938 1.171875 -5.984375 C 1.171875 -8.171875 1.882812 -9.835938 3.3125 -10.984375 C 4.738281 -12.128906 6.804688 -12.710938 9.515625 -12.734375 L 14.0625 -12.8125 L 14.0625 -13.890625 C 14.0625 -15.265625 13.820312 -16.285156 13.34375 -16.953125 C 12.863281 -17.628906 12.078125 -17.96875 10.984375 -17.96875 C 9.960938 -17.96875 9.210938 -17.734375 8.734375 -17.265625 C 8.265625 -16.804688 7.972656 -16.046875 7.859375 -14.984375 L 2.125 -15.25 C 2.476562 -17.3125 3.421875 -18.875 4.953125 -19.9375 C 6.484375 -21 8.570312 -21.53125 11.21875 -21.53125 C 13.882812 -21.53125 15.9375 -20.867188 17.375 -19.546875 C 18.820312 -18.234375 19.546875 -16.367188 19.546875 -13.953125 L 19.546875 -6.25 C 19.546875 -5.0625 19.679688 -4.242188 19.953125 -3.796875 C 20.222656 -3.347656 20.671875 -3.125 21.296875 -3.125 C 21.710938 -3.125 22.113281 -3.164062 22.5 -3.25 L 22.5 -0.28125 C 22.175781 -0.195312 21.882812 -0.117188 21.625 -0.046875 C 21.363281 0.015625 21.101562 0.0625 20.84375 0.09375 C 20.582031 0.132812 20.304688 0.164062 20.015625 0.1875 C 19.722656 0.21875 19.378906 0.234375 18.984375 0.234375 C 17.609375 0.234375 16.585938 -0.101562 15.921875 -0.78125 C 15.265625 -1.457031 14.875 -2.453125 14.75 -3.765625 L 14.625 -3.765625 C 13.09375 -0.992188 10.773438 0.390625 7.671875 0.390625 Z M 14.0625 -9.78125 L 11.25 -9.75 C 9.976562 -9.695312 9.070312 -9.554688 8.53125 -9.328125 C 8 -9.097656 7.59375 -8.75 7.3125 -8.28125 C 7.03125 -7.8125 6.890625 -7.1875 6.890625 -6.40625 C 6.890625 -5.40625 7.117188 -4.660156 7.578125 -4.171875 C 8.046875 -3.679688 8.664062 -3.4375 9.4375 -3.4375 C 10.289062 -3.4375 11.070312 -3.671875 11.78125 -4.140625 C 12.5 -4.609375 13.054688 -5.253906 13.453125 -6.078125 C 13.859375 -6.910156 14.0625 -7.789062 14.0625 -8.71875 Z M 14.0625 -9.78125 "/></g></g></g></svg>