<svg xmlns="http://www.w3.org/2000/svg" xmlns:xlink="http://www.w3.org/1999/xlink" width="1001" zoomAndPan="magnify" viewBox="0 0 750.75 242.999999" height="324" preserveAspectRatio="xMidYMid meet" version="1.0"><defs><g/><clipPath id="5beef705fd"><path d="M 253.792969 0.0390625 L 496.714844 0.0390625 L 496.714844 242.957031 L 253.792969 242.957031 Z M 253.792969 0.0390625 " clip-rule="nonzero"/></clipPath><clipPath id="1acdce244a"><path d="M 507.210938 0.0390625 L 750.128906 0.0390625 L 750.128906 242.957031 L 507.210938 242.957031 Z M 507.210938 0.0390625 " clip-rule="nonzero"/></clipPath><clipPath id="9feb433b27"><path d="M 0 0.0390625 L 242.917969 0.0390625 L 242.917969 242.957031 L 0 242.957031 Z M 0 0.0390625 " clip-rule="nonzero"/></clipPath></defs><g clip-path="url(#5beef705fd)"><path stroke-linecap="butt" transform="matrix(0.74975, 0, 0, 0.74975, 253.794138, 0.0404556)" fill="none" stroke-linejoin="miter" d="M -0.0015599 -0.00185804 L 324.002144 -0.00185804 L 324.002144 324.001846 L -0.0015599 324.001846 Z M -0.0015599 -0.00185804 " stroke="#000000" stroke-width="12" stroke-opacity="1" stroke-miterlimit="4"/></g><g clip-path="url(#1acdce244a)"><path stroke-linecap="butt" transform="matrix(0.74975, 0, 0, 0.74975, 507.209702, 0.0404556)" fill="none" stroke-linejoin="miter" d="M 0.00164807 -0.00185804 L 324.000142 -0.00185804 L 324.000142 324.001846 L 0.00164807 324.001846 Z M 0.00164807 -0.00185804 " stroke="#000000" stroke-width="12" stroke-opacity="1" stroke-miterlimit="4"/></g><g clip-path="url(#9feb433b27)"><path stroke-linecap="butt" transform="matrix(0.74975, 0, 0, 0.74975, 0, 0.0404556)" fill="none" stroke-linejoin="miter" d="M 0 -0.00185804 L 323.998494 -0.00185804 L 323.998494 324.001846 L 0 324.001846 Z M 0 -0.00185804 " stroke="#000000" stroke-width="12" stroke-opacity="1" stroke-miterlimit="4"/></g><g fill="#000000" fill-opacity="1"><g transform="translate(272.209879, 94.508994)"><g><path d="M 2.71875 -13 C 2.71875 -16.351562 3.164062 -19.546875 4.0625 -22.578125 C 4.957031 -25.609375 6.273438 -28.289062 8.015625 -30.625 C 9.753906 -32.96875 11.644531 -34.59375 13.6875 -35.5 L 14.921875 -32.0625 C 12.773438 -30.488281 11.101562 -28.046875 9.90625 -24.734375 C 8.707031 -21.421875 8.109375 -17.554688 8.109375 -13.140625 L 8.109375 -12.453125 C 8.109375 -8.015625 8.695312 -4.132812 9.875 -0.8125 C 11.0625 2.507812 12.742188 4.992188 14.921875 6.640625 L 13.6875 10 C 11.695312 9.101562 9.835938 7.519531 8.109375 5.25 C 6.390625 2.988281 5.078125 0.382812 4.171875 -2.5625 C 3.265625 -5.519531 2.78125 -8.613281 2.71875 -11.84375 Z M 2.71875 -13 "/></g></g><g transform="translate(288.00296, 94.508994)"><g><path d="M 14.6875 -11.703125 L 9.4375 -11.703125 L 9.4375 0 L 2.859375 0 L 2.859375 -31.984375 L 14.734375 -31.984375 C 18.515625 -31.984375 21.429688 -31.140625 23.484375 -29.453125 C 25.535156 -27.765625 26.5625 -25.382812 26.5625 -22.3125 C 26.5625 -20.132812 26.085938 -18.316406 25.140625 -16.859375 C 24.191406 -15.398438 22.757812 -14.238281 20.84375 -13.375 L 27.765625 -0.3125 L 27.765625 0 L 20.6875 0 Z M 9.4375 -17.046875 L 14.765625 -17.046875 C 16.421875 -17.046875 17.703125 -17.46875 18.609375 -18.3125 C 19.515625 -19.15625 19.96875 -20.316406 19.96875 -21.796875 C 19.96875 -23.296875 19.535156 -24.476562 18.671875 -25.34375 C 17.816406 -26.207031 16.503906 -26.640625 14.734375 -26.640625 L 9.4375 -26.640625 Z M 9.4375 -17.046875 "/></g></g><g transform="translate(316.71166, 94.508994)"><g/></g><g transform="translate(327.913984, 94.508994)"><g><path d="M 15.25 -17.90625 L 23.171875 -17.90625 L 23.171875 -12.171875 L 15.25 -12.171875 L 15.25 -3.203125 L 9.203125 -3.203125 L 9.203125 -12.171875 L 1.25 -12.171875 L 1.25 -17.90625 L 9.203125 -17.90625 L 9.203125 -26.484375 L 15.25 -26.484375 Z M 15.25 -17.90625 "/></g></g><g transform="translate(352.471235, 94.508994)"><g/></g><g transform="translate(363.673559, 94.508994)"><g><path d="M 19.4375 -8.390625 C 19.4375 -9.628906 18.992188 -10.582031 18.109375 -11.25 C 17.234375 -11.914062 15.65625 -12.617188 13.375 -13.359375 C 11.09375 -14.097656 9.285156 -14.828125 7.953125 -15.546875 C 4.316406 -17.515625 2.5 -20.160156 2.5 -23.484375 C 2.5 -25.210938 2.984375 -26.753906 3.953125 -28.109375 C 4.929688 -29.460938 6.332031 -30.519531 8.15625 -31.28125 C 9.976562 -32.039062 12.023438 -32.421875 14.296875 -32.421875 C 16.578125 -32.421875 18.609375 -32.003906 20.390625 -31.171875 C 22.179688 -30.347656 23.570312 -29.179688 24.5625 -27.671875 C 25.550781 -26.160156 26.046875 -24.445312 26.046875 -22.53125 L 19.46875 -22.53125 C 19.46875 -24 19.003906 -25.140625 18.078125 -25.953125 C 17.148438 -26.765625 15.851562 -27.171875 14.1875 -27.171875 C 12.570312 -27.171875 11.316406 -26.828125 10.421875 -26.140625 C 9.535156 -25.460938 9.09375 -24.566406 9.09375 -23.453125 C 9.09375 -22.421875 9.613281 -21.550781 10.65625 -20.84375 C 11.707031 -20.144531 13.25 -19.488281 15.28125 -18.875 C 19.03125 -17.738281 21.757812 -16.335938 23.46875 -14.671875 C 25.1875 -13.003906 26.046875 -10.925781 26.046875 -8.4375 C 26.046875 -5.664062 25 -3.492188 22.90625 -1.921875 C 20.8125 -0.347656 17.992188 0.4375 14.453125 0.4375 C 11.992188 0.4375 9.753906 -0.0078125 7.734375 -0.90625 C 5.710938 -1.8125 4.171875 -3.046875 3.109375 -4.609375 C 2.046875 -6.179688 1.515625 -8 1.515625 -10.0625 L 8.125 -10.0625 C 8.125 -6.53125 10.234375 -4.765625 14.453125 -4.765625 C 16.015625 -4.765625 17.234375 -5.082031 18.109375 -5.71875 C 18.992188 -6.351562 19.4375 -7.242188 19.4375 -8.390625 Z M 19.4375 -8.390625 "/></g></g><g transform="translate(391.327923, 94.508994)"><g><path d="M 13.375 -12.5 C 13.375 -9.1875 12.894531 -6 11.9375 -2.9375 C 10.988281 0.113281 9.617188 2.8125 7.828125 5.15625 C 6.046875 7.5 4.140625 9.113281 2.109375 10 L 0.875 6.640625 C 2.957031 5.066406 4.597656 2.648438 5.796875 -0.609375 C 6.992188 -3.878906 7.617188 -7.640625 7.671875 -11.890625 L 7.671875 -13.046875 C 7.671875 -17.421875 7.070312 -21.273438 5.875 -24.609375 C 4.675781 -27.953125 3.007812 -30.460938 0.875 -32.140625 L 2.109375 -35.5 C 4.097656 -34.632812 5.972656 -33.066406 7.734375 -30.796875 C 9.503906 -28.523438 10.875 -25.878906 11.84375 -22.859375 C 12.820312 -19.847656 13.332031 -16.722656 13.375 -13.484375 Z M 13.375 -12.5 "/></g></g><g transform="translate(407.186899, 94.508994)"><g/></g><g transform="translate(418.389223, 94.508994)"><g><path d="M 11.484375 -16.671875 L 15.484375 -23.765625 L 22.265625 -23.765625 L 15.5 -12.125 L 22.5625 0 L 15.75 0 L 11.515625 -7.46875 L 7.296875 0 L 0.46875 0 L 7.515625 -12.125 L 0.765625 -23.765625 L 7.578125 -23.765625 Z M 11.484375 -16.671875 "/></g></g><g transform="translate(441.277108, 94.508994)"><g/></g><g transform="translate(452.479432, 94.508994)"><g><path d="M 3.125 -15.734375 L 4.96875 -31.984375 L 22.890625 -31.984375 L 22.890625 -26.6875 L 10.171875 -26.6875 L 9.375 -19.8125 C 10.882812 -20.613281 12.488281 -21.015625 14.1875 -21.015625 C 17.238281 -21.015625 19.625 -20.070312 21.34375 -18.1875 C 23.070312 -16.300781 23.9375 -13.65625 23.9375 -10.25 C 23.9375 -8.1875 23.5 -6.335938 22.625 -4.703125 C 21.757812 -3.078125 20.515625 -1.8125 18.890625 -0.90625 C 17.265625 -0.0078125 15.347656 0.4375 13.140625 0.4375 C 11.203125 0.4375 9.40625 0.046875 7.75 -0.734375 C 6.09375 -1.515625 4.785156 -2.613281 3.828125 -4.03125 C 2.867188 -5.457031 2.363281 -7.078125 2.3125 -8.890625 L 8.59375 -8.890625 C 8.71875 -7.554688 9.179688 -6.519531 9.984375 -5.78125 C 10.785156 -5.039062 11.828125 -4.671875 13.109375 -4.671875 C 14.546875 -4.671875 15.648438 -5.1875 16.421875 -6.21875 C 17.203125 -7.257812 17.59375 -8.722656 17.59375 -10.609375 C 17.59375 -12.421875 17.144531 -13.8125 16.25 -14.78125 C 15.363281 -15.75 14.097656 -16.234375 12.453125 -16.234375 C 10.941406 -16.234375 9.71875 -15.835938 8.78125 -15.046875 L 8.171875 -14.46875 Z M 3.125 -15.734375 "/></g></g></g><g fill="#000000" fill-opacity="1"><g transform="translate(356.767656, 136.49501)"><g><path d="M 22.625 -16.390625 L 2.984375 -16.390625 L 2.984375 -21.5625 L 22.625 -21.5625 Z M 22.625 -6.875 L 2.984375 -6.875 L 2.984375 -12.0625 L 22.625 -12.0625 Z M 22.625 -6.875 "/></g></g></g><g fill="#000000" fill-opacity="1"><g transform="translate(382.516893, 136.49501)"><g/></g></g><g fill="#000000" fill-opacity="1"><g transform="translate(325.969319, 178.481027)"><g><path d="M 29.078125 -15.265625 C 29.078125 -12.273438 28.59375 -9.675781 27.625 -7.46875 C 26.664062 -5.269531 25.328125 -3.503906 23.609375 -2.171875 L 28.921875 2 L 24.734375 5.703125 L 17.921875 0.234375 C 17.148438 0.367188 16.34375 0.4375 15.5 0.4375 C 12.851562 0.4375 10.488281 -0.195312 8.40625 -1.46875 C 6.332031 -2.738281 4.722656 -4.554688 3.578125 -6.921875 C 2.429688 -9.296875 1.851562 -12.019531 1.84375 -15.09375 L 1.84375 -16.671875 C 1.84375 -19.816406 2.410156 -22.585938 3.546875 -24.984375 C 4.679688 -27.378906 6.285156 -29.21875 8.359375 -30.5 C 10.429688 -31.78125 12.800781 -32.421875 15.46875 -32.421875 C 18.132812 -32.421875 20.5 -31.78125 22.5625 -30.5 C 24.632812 -29.21875 26.238281 -27.378906 27.375 -24.984375 C 28.507812 -22.585938 29.078125 -19.820312 29.078125 -16.6875 Z M 22.40625 -16.71875 C 22.40625 -20.070312 21.800781 -22.617188 20.59375 -24.359375 C 19.394531 -26.097656 17.6875 -26.96875 15.46875 -26.96875 C 13.25 -26.96875 11.539062 -26.109375 10.34375 -24.390625 C 9.144531 -22.671875 8.535156 -20.148438 8.515625 -16.828125 L 8.515625 -15.265625 C 8.515625 -12.003906 9.113281 -9.472656 10.3125 -7.671875 C 11.519531 -5.867188 13.25 -4.96875 15.5 -4.96875 C 17.71875 -4.96875 19.414062 -5.832031 20.59375 -7.5625 C 21.78125 -9.300781 22.382812 -11.832031 22.40625 -15.15625 Z M 22.40625 -16.71875 "/></g></g><g transform="translate(357.028311, 178.481027)"><g/></g><g transform="translate(368.230635, 178.481027)"><g><path d="M 14.78125 -11.140625 L 2.421875 -11.140625 L 2.421875 -16.25 L 14.78125 -16.25 Z M 14.78125 -11.140625 "/></g></g><g transform="translate(385.671116, 178.481027)"><g/></g><g transform="translate(396.87344, 178.481027)"><g><path d="M 19.4375 -8.390625 C 19.4375 -9.628906 18.992188 -10.582031 18.109375 -11.25 C 17.234375 -11.914062 15.65625 -12.617188 13.375 -13.359375 C 11.09375 -14.097656 9.285156 -14.828125 7.953125 -15.546875 C 4.316406 -17.515625 2.5 -20.160156 2.5 -23.484375 C 2.5 -25.210938 2.984375 -26.753906 3.953125 -28.109375 C 4.929688 -29.460938 6.332031 -30.519531 8.15625 -31.28125 C 9.976562 -32.039062 12.023438 -32.421875 14.296875 -32.421875 C 16.578125 -32.421875 18.609375 -32.003906 20.390625 -31.171875 C 22.179688 -30.347656 23.570312 -29.179688 24.5625 -27.671875 C 25.550781 -26.160156 26.046875 -24.445312 26.046875 -22.53125 L 19.46875 -22.53125 C 19.46875 -24 19.003906 -25.140625 18.078125 -25.953125 C 17.148438 -26.765625 15.851562 -27.171875 14.1875 -27.171875 C 12.570312 -27.171875 11.316406 -26.828125 10.421875 -26.140625 C 9.535156 -25.460938 9.09375 -24.566406 9.09375 -23.453125 C 9.09375 -22.421875 9.613281 -21.550781 10.65625 -20.84375 C 11.707031 -20.144531 13.25 -19.488281 15.28125 -18.875 C 19.03125 -17.738281 21.757812 -16.335938 23.46875 -14.671875 C 25.1875 -13.003906 26.046875 -10.925781 26.046875 -8.4375 C 26.046875 -5.664062 25 -3.492188 22.90625 -1.921875 C 20.8125 -0.347656 17.992188 0.4375 14.453125 0.4375 C 11.992188 0.4375 9.753906 -0.0078125 7.734375 -0.90625 C 5.710938 -1.8125 4.171875 -3.046875 3.109375 -4.609375 C 2.046875 -6.179688 1.515625 -8 1.515625 -10.0625 L 8.125 -10.0625 C 8.125 -6.53125 10.234375 -4.765625 14.453125 -4.765625 C 16.015625 -4.765625 17.234375 -5.082031 18.109375 -5.71875 C 18.992188 -6.351562 19.4375 -7.242188 19.4375 -8.390625 Z M 19.4375 -8.390625 "/></g></g></g><g fill="#000000" fill-opacity="1"><g transform="translate(555.170305, 78.014487)"><g><path d="M 2.421875 -11.5625 C 2.421875 -14.539062 2.816406 -17.375 3.609375 -20.0625 C 4.398438 -22.757812 5.570312 -25.144531 7.125 -27.21875 C 8.675781 -29.300781 10.351562 -30.742188 12.15625 -31.546875 L 13.25 -28.5 C 11.351562 -27.09375 9.867188 -24.921875 8.796875 -21.984375 C 7.734375 -19.046875 7.203125 -15.609375 7.203125 -11.671875 L 7.203125 -11.0625 C 7.203125 -7.125 7.726562 -3.675781 8.78125 -0.71875 C 9.832031 2.226562 11.320312 4.429688 13.25 5.890625 L 12.15625 8.890625 C 10.394531 8.085938 8.75 6.679688 7.21875 4.671875 C 5.6875 2.660156 4.515625 0.34375 3.703125 -2.28125 C 2.898438 -4.914062 2.472656 -7.660156 2.421875 -10.515625 Z M 2.421875 -11.5625 "/></g></g></g><g fill="#000000" fill-opacity="1"><g transform="translate(569.207233, 78.014487)"><g><path d="M 25.84375 -13.5625 C 25.84375 -10.914062 25.410156 -8.609375 24.546875 -6.640625 C 23.691406 -4.679688 22.503906 -3.113281 20.984375 -1.9375 L 25.71875 1.78125 L 21.984375 5.078125 L 15.9375 0.21875 C 15.238281 0.332031 14.519531 0.390625 13.78125 0.390625 C 11.425781 0.390625 9.320312 -0.171875 7.46875 -1.296875 C 5.625 -2.429688 4.191406 -4.050781 3.171875 -6.15625 C 2.160156 -8.257812 1.648438 -10.675781 1.640625 -13.40625 L 1.640625 -14.8125 C 1.640625 -17.613281 2.144531 -20.078125 3.15625 -22.203125 C 4.164062 -24.335938 5.585938 -25.972656 7.421875 -27.109375 C 9.265625 -28.242188 11.367188 -28.8125 13.734375 -28.8125 C 16.109375 -28.8125 18.21875 -28.242188 20.0625 -27.109375 C 21.90625 -25.972656 23.328125 -24.335938 24.328125 -22.203125 C 25.335938 -20.078125 25.84375 -17.625 25.84375 -14.84375 Z M 19.921875 -14.859375 C 19.921875 -17.835938 19.382812 -20.097656 18.3125 -21.640625 C 17.25 -23.191406 15.726562 -23.96875 13.75 -23.96875 C 11.78125 -23.96875 10.257812 -23.203125 9.1875 -21.671875 C 8.125 -20.148438 7.585938 -17.910156 7.578125 -14.953125 L 7.578125 -13.5625 C 7.578125 -10.664062 8.109375 -8.414062 9.171875 -6.8125 C 10.242188 -5.207031 11.78125 -4.40625 13.78125 -4.40625 C 15.75 -4.40625 17.257812 -5.175781 18.3125 -6.71875 C 19.363281 -8.269531 19.898438 -10.519531 19.921875 -13.46875 Z M 19.921875 -14.859375 "/></g></g></g><g fill="#000000" fill-opacity="1"><g transform="translate(596.81253, 78.014487)"><g/></g></g><g fill="#000000" fill-opacity="1"><g transform="translate(606.769179, 78.014487)"><g><path d="M 13.140625 -9.90625 L 2.140625 -9.90625 L 2.140625 -14.453125 L 13.140625 -14.453125 Z M 13.140625 -9.90625 "/></g></g></g><g fill="#000000" fill-opacity="1"><g transform="translate(622.270314, 78.014487)"><g/></g></g><g fill="#000000" fill-opacity="1"><g transform="translate(632.226963, 78.014487)"><g><path d="M 2.765625 -13.984375 L 4.40625 -28.421875 L 20.34375 -28.421875 L 20.34375 -23.71875 L 9.046875 -23.71875 L 8.34375 -17.609375 C 9.675781 -18.328125 11.097656 -18.6875 12.609375 -18.6875 C 15.316406 -18.6875 17.4375 -17.84375 18.96875 -16.15625 C 20.507812 -14.476562 21.28125 -12.132812 21.28125 -9.125 C 21.28125 -7.28125 20.890625 -5.632812 20.109375 -4.1875 C 19.335938 -2.738281 18.226562 -1.613281 16.78125 -0.8125 C 15.34375 -0.0078125 13.640625 0.390625 11.671875 0.390625 C 9.953125 0.390625 8.359375 0.0390625 6.890625 -0.65625 C 5.421875 -1.351562 4.257812 -2.332031 3.40625 -3.59375 C 2.550781 -4.851562 2.097656 -6.289062 2.046875 -7.90625 L 7.640625 -7.90625 C 7.753906 -6.71875 8.164062 -5.796875 8.875 -5.140625 C 9.582031 -4.484375 10.507812 -4.15625 11.65625 -4.15625 C 12.925781 -4.15625 13.90625 -4.613281 14.59375 -5.53125 C 15.289062 -6.445312 15.640625 -7.75 15.640625 -9.4375 C 15.640625 -11.039062 15.238281 -12.269531 14.4375 -13.125 C 13.644531 -13.988281 12.519531 -14.421875 11.0625 -14.421875 C 9.726562 -14.421875 8.644531 -14.070312 7.8125 -13.375 L 7.265625 -12.859375 Z M 2.765625 -13.984375 "/></g></g></g><g fill="#000000" fill-opacity="1"><g transform="translate(655.166307, 78.014487)"><g><path d="M 2.765625 -13.984375 L 4.40625 -28.421875 L 20.34375 -28.421875 L 20.34375 -23.71875 L 9.046875 -23.71875 L 8.34375 -17.609375 C 9.675781 -18.328125 11.097656 -18.6875 12.609375 -18.6875 C 15.316406 -18.6875 17.4375 -17.84375 18.96875 -16.15625 C 20.507812 -14.476562 21.28125 -12.132812 21.28125 -9.125 C 21.28125 -7.28125 20.890625 -5.632812 20.109375 -4.1875 C 19.335938 -2.738281 18.226562 -1.613281 16.78125 -0.8125 C 15.34375 -0.0078125 13.640625 0.390625 11.671875 0.390625 C 9.953125 0.390625 8.359375 0.0390625 6.890625 -0.65625 C 5.421875 -1.351562 4.257812 -2.332031 3.40625 -3.59375 C 2.550781 -4.851562 2.097656 -6.289062 2.046875 -7.90625 L 7.640625 -7.90625 C 7.753906 -6.71875 8.164062 -5.796875 8.875 -5.140625 C 9.582031 -4.484375 10.507812 -4.15625 11.65625 -4.15625 C 12.925781 -4.15625 13.90625 -4.613281 14.59375 -5.53125 C 15.289062 -6.445312 15.640625 -7.75 15.640625 -9.4375 C 15.640625 -11.039062 15.238281 -12.269531 14.4375 -13.125 C 13.644531 -13.988281 12.519531 -14.421875 11.0625 -14.421875 C 9.726562 -14.421875 8.644531 -14.070312 7.8125 -13.375 L 7.265625 -12.859375 Z M 2.765625 -13.984375 "/></g></g></g><g fill="#000000" fill-opacity="1"><g transform="translate(678.10565, 78.014487)"><g><path d="M 11.890625 -11.109375 C 11.890625 -8.171875 11.46875 -5.335938 10.625 -2.609375 C 9.78125 0.109375 8.5625 2.507812 6.96875 4.59375 C 5.382812 6.675781 3.6875 8.109375 1.875 8.890625 L 0.78125 5.890625 C 2.625 4.503906 4.078125 2.359375 5.140625 -0.546875 C 6.210938 -3.453125 6.769531 -6.789062 6.8125 -10.5625 L 6.8125 -11.59375 C 6.8125 -15.488281 6.28125 -18.921875 5.21875 -21.890625 C 4.15625 -24.859375 2.675781 -27.082031 0.78125 -28.5625 L 1.875 -31.546875 C 3.644531 -30.773438 5.3125 -29.378906 6.875 -27.359375 C 8.445312 -25.347656 9.664062 -23 10.53125 -20.3125 C 11.394531 -17.632812 11.847656 -14.859375 11.890625 -11.984375 Z M 11.890625 -11.109375 "/></g></g></g><g fill="#000000" fill-opacity="1"><g transform="translate(692.210602, 78.014487)"><g/></g></g><g fill="#000000" fill-opacity="1"><g transform="translate(575.811868, 115.502002)"><g><path d="M 10.203125 -14.8125 L 13.765625 -21.125 L 19.796875 -21.125 L 13.78125 -10.78125 L 20.046875 0 L 14 0 L 10.234375 -6.640625 L 6.484375 0 L 0.40625 0 L 6.671875 -10.78125 L 0.6875 -21.125 L 6.734375 -21.125 Z M 10.203125 -14.8125 "/></g></g></g><g fill="#000000" fill-opacity="1"><g transform="translate(596.154668, 115.502002)"><g/></g></g><g fill="#000000" fill-opacity="1"><g transform="translate(606.111317, 115.502002)"><g><path d="M 2.765625 -13.984375 L 4.40625 -28.421875 L 20.34375 -28.421875 L 20.34375 -23.71875 L 9.046875 -23.71875 L 8.34375 -17.609375 C 9.675781 -18.328125 11.097656 -18.6875 12.609375 -18.6875 C 15.316406 -18.6875 17.4375 -17.84375 18.96875 -16.15625 C 20.507812 -14.476562 21.28125 -12.132812 21.28125 -9.125 C 21.28125 -7.28125 20.890625 -5.632812 20.109375 -4.1875 C 19.335938 -2.738281 18.226562 -1.613281 16.78125 -0.8125 C 15.34375 -0.0078125 13.640625 0.390625 11.671875 0.390625 C 9.953125 0.390625 8.359375 0.0390625 6.890625 -0.65625 C 5.421875 -1.351562 4.257812 -2.332031 3.40625 -3.59375 C 2.550781 -4.851562 2.097656 -6.289062 2.046875 -7.90625 L 7.640625 -7.90625 C 7.753906 -6.71875 8.164062 -5.796875 8.875 -5.140625 C 9.582031 -4.484375 10.507812 -4.15625 11.65625 -4.15625 C 12.925781 -4.15625 13.90625 -4.613281 14.59375 -5.53125 C 15.289062 -6.445312 15.640625 -7.75 15.640625 -9.4375 C 15.640625 -11.039062 15.238281 -12.269531 14.4375 -13.125 C 13.644531 -13.988281 12.519531 -14.421875 11.0625 -14.421875 C 9.726562 -14.421875 8.644531 -14.070312 7.8125 -13.375 L 7.265625 -12.859375 Z M 2.765625 -13.984375 "/></g></g></g><g fill="#000000" fill-opacity="1"><g transform="translate(629.050661, 115.502002)"><g><path d="M 21.0625 -11.75 C 21.0625 -7.820312 20.25 -4.816406 18.625 -2.734375 C 17 -0.648438 14.617188 0.390625 11.484375 0.390625 C 8.378906 0.390625 6.003906 -0.628906 4.359375 -2.671875 C 2.722656 -4.710938 1.890625 -7.640625 1.859375 -11.453125 L 1.859375 -16.6875 C 1.859375 -20.65625 2.679688 -23.664062 4.328125 -25.71875 C 5.972656 -27.78125 8.34375 -28.8125 11.4375 -28.8125 C 14.539062 -28.8125 16.910156 -27.789062 18.546875 -25.75 C 20.179688 -23.71875 21.019531 -20.796875 21.0625 -16.984375 Z M 15.421875 -17.5 C 15.421875 -19.851562 15.097656 -21.566406 14.453125 -22.640625 C 13.804688 -23.710938 12.800781 -24.25 11.4375 -24.25 C 10.113281 -24.25 9.132812 -23.738281 8.5 -22.71875 C 7.875 -21.695312 7.539062 -20.097656 7.5 -17.921875 L 7.5 -11.015625 C 7.5 -8.691406 7.8125 -6.96875 8.4375 -5.84375 C 9.070312 -4.71875 10.085938 -4.15625 11.484375 -4.15625 C 12.859375 -4.15625 13.851562 -4.695312 14.46875 -5.78125 C 15.082031 -6.863281 15.398438 -8.515625 15.421875 -10.734375 Z M 15.421875 -17.5 "/></g></g></g><g fill="#000000" fill-opacity="1"><g transform="translate(651.990004, 115.502002)"><g><path d="M 1.859375 -22.953125 C 1.859375 -24.703125 2.421875 -26.117188 3.546875 -27.203125 C 4.679688 -28.296875 6.164062 -28.84375 8 -28.84375 C 9.863281 -28.84375 11.359375 -28.300781 12.484375 -27.21875 C 13.617188 -26.144531 14.1875 -24.691406 14.1875 -22.859375 L 14.1875 -21.453125 C 14.1875 -19.703125 13.617188 -18.289062 12.484375 -17.21875 C 11.359375 -16.15625 9.878906 -15.625 8.046875 -15.625 C 6.191406 -15.625 4.695312 -16.160156 3.5625 -17.234375 C 2.425781 -18.304688 1.859375 -19.753906 1.859375 -21.578125 Z M 5.609375 -21.453125 C 5.609375 -20.671875 5.832031 -20.039062 6.28125 -19.5625 C 6.726562 -19.09375 7.316406 -18.859375 8.046875 -18.859375 C 8.773438 -18.859375 9.351562 -19.097656 9.78125 -19.578125 C 10.207031 -20.054688 10.421875 -20.703125 10.421875 -21.515625 L 10.421875 -22.953125 C 10.421875 -23.734375 10.207031 -24.363281 9.78125 -24.84375 C 9.351562 -25.332031 8.757812 -25.578125 8 -25.578125 C 7.289062 -25.578125 6.710938 -25.335938 6.265625 -24.859375 C 5.828125 -24.390625 5.609375 -23.726562 5.609375 -22.875 Z M 15.4375 -6.96875 C 15.4375 -8.726562 16.007812 -10.144531 17.15625 -11.21875 C 18.300781 -12.289062 19.785156 -12.828125 21.609375 -12.828125 C 23.460938 -12.828125 24.957031 -12.296875 26.09375 -11.234375 C 27.226562 -10.171875 27.796875 -8.710938 27.796875 -6.859375 L 27.796875 -5.453125 C 27.796875 -3.703125 27.234375 -2.289062 26.109375 -1.21875 C 24.992188 -0.144531 23.507812 0.390625 21.65625 0.390625 C 19.78125 0.390625 18.273438 -0.144531 17.140625 -1.21875 C 16.003906 -2.300781 15.4375 -3.738281 15.4375 -5.53125 Z M 19.1875 -5.453125 C 19.1875 -4.734375 19.421875 -4.117188 19.890625 -3.609375 C 20.359375 -3.097656 20.945312 -2.84375 21.65625 -2.84375 C 23.238281 -2.84375 24.03125 -3.722656 24.03125 -5.484375 L 24.03125 -6.96875 C 24.03125 -7.75 23.804688 -8.375 23.359375 -8.84375 C 22.921875 -9.320312 22.335938 -9.5625 21.609375 -9.5625 C 20.878906 -9.5625 20.289062 -9.320312 19.84375 -8.84375 C 19.40625 -8.375 19.1875 -7.726562 19.1875 -6.90625 Z M 9.15625 -2.125 L 6.40625 -3.609375 L 20.28125 -25.828125 L 23.03125 -24.34375 Z M 9.15625 -2.125 "/></g></g></g><g fill="#000000" fill-opacity="1"><g transform="translate(617.223857, 152.989517)"><g><path d="M 20.109375 -14.5625 L 2.65625 -14.5625 L 2.65625 -19.171875 L 20.109375 -19.171875 Z M 20.109375 -6.109375 L 2.65625 -6.109375 L 2.65625 -10.71875 L 20.109375 -10.71875 Z M 20.109375 -6.109375 "/></g></g></g><g fill="#000000" fill-opacity="1"><g transform="translate(616.368673, 190.477032)"><g><path d="M 17.28125 -7.453125 C 17.28125 -8.566406 16.890625 -9.414062 16.109375 -10 C 15.328125 -10.59375 13.921875 -11.21875 11.890625 -11.875 C 9.859375 -12.53125 8.25 -13.179688 7.0625 -13.828125 C 3.832031 -15.566406 2.21875 -17.914062 2.21875 -20.875 C 2.21875 -22.40625 2.648438 -23.769531 3.515625 -24.96875 C 4.390625 -26.175781 5.632812 -27.117188 7.25 -27.796875 C 8.875 -28.472656 10.691406 -28.8125 12.703125 -28.8125 C 14.734375 -28.8125 16.539062 -28.441406 18.125 -27.703125 C 19.71875 -26.972656 20.953125 -25.9375 21.828125 -24.59375 C 22.710938 -23.257812 23.15625 -21.738281 23.15625 -20.03125 L 17.296875 -20.03125 C 17.296875 -21.332031 16.882812 -22.34375 16.0625 -23.0625 C 15.25 -23.789062 14.097656 -24.15625 12.609375 -24.15625 C 11.179688 -24.15625 10.066406 -23.847656 9.265625 -23.234375 C 8.472656 -22.628906 8.078125 -21.832031 8.078125 -20.84375 C 8.078125 -19.925781 8.539062 -19.15625 9.46875 -18.53125 C 10.40625 -17.90625 11.78125 -17.316406 13.59375 -16.765625 C 16.925781 -15.765625 19.351562 -14.519531 20.875 -13.03125 C 22.394531 -11.550781 23.15625 -9.707031 23.15625 -7.5 C 23.15625 -5.039062 22.222656 -3.109375 20.359375 -1.703125 C 18.503906 -0.304688 16 0.390625 12.84375 0.390625 C 10.65625 0.390625 8.660156 -0.0078125 6.859375 -0.8125 C 5.066406 -1.613281 3.695312 -2.707031 2.75 -4.09375 C 1.8125 -5.488281 1.34375 -7.101562 1.34375 -8.9375 L 7.21875 -8.9375 C 7.21875 -5.800781 9.09375 -4.234375 12.84375 -4.234375 C 14.238281 -4.234375 15.328125 -4.515625 16.109375 -5.078125 C 16.890625 -5.648438 17.28125 -6.441406 17.28125 -7.453125 Z M 17.28125 -7.453125 "/></g></g></g><g fill="#000000" fill-opacity="1"><g transform="translate(64.436346, 91.509992)"><g><path d="M 32.3125 -16.96875 C 32.3125 -13.644531 31.773438 -10.757812 30.703125 -8.3125 C 29.628906 -5.863281 28.140625 -3.898438 26.234375 -2.421875 L 32.140625 2.21875 L 27.484375 6.34375 L 19.921875 0.265625 C 19.054688 0.410156 18.160156 0.484375 17.234375 0.484375 C 14.285156 0.484375 11.65625 -0.222656 9.34375 -1.640625 C 7.03125 -3.054688 5.238281 -5.078125 3.96875 -7.703125 C 2.707031 -10.328125 2.066406 -13.347656 2.046875 -16.765625 L 2.046875 -18.53125 C 2.046875 -22.019531 2.675781 -25.09375 3.9375 -27.75 C 5.195312 -30.414062 6.976562 -32.460938 9.28125 -33.890625 C 11.582031 -35.316406 14.210938 -36.03125 17.171875 -36.03125 C 20.140625 -36.03125 22.773438 -35.316406 25.078125 -33.890625 C 27.378906 -32.460938 29.160156 -30.414062 30.421875 -27.75 C 31.679688 -25.09375 32.3125 -22.023438 32.3125 -18.546875 Z M 24.890625 -18.578125 C 24.890625 -22.296875 24.222656 -25.125 22.890625 -27.0625 C 21.554688 -29 19.65625 -29.96875 17.1875 -29.96875 C 14.726562 -29.96875 12.832031 -29.007812 11.5 -27.09375 C 10.164062 -25.1875 9.488281 -22.390625 9.46875 -18.703125 L 9.46875 -16.96875 C 9.46875 -13.332031 10.132812 -10.515625 11.46875 -8.515625 C 12.800781 -6.515625 14.722656 -5.515625 17.234375 -5.515625 C 19.691406 -5.515625 21.578125 -6.476562 22.890625 -8.40625 C 24.210938 -10.332031 24.878906 -13.144531 24.890625 -16.84375 Z M 24.890625 -18.578125 "/></g></g></g><g fill="#000000" fill-opacity="1"><g transform="translate(98.940945, 91.509992)"><g/></g></g><g fill="#000000" fill-opacity="1"><g transform="translate(111.386026, 91.509992)"><g><path d="M 12.765625 -18.53125 L 17.203125 -26.40625 L 24.75 -26.40625 L 17.234375 -13.46875 L 25.0625 0 L 17.5 0 L 12.78125 -8.296875 L 8.109375 0 L 0.515625 0 L 8.34375 -13.46875 L 0.859375 -26.40625 L 8.421875 -26.40625 Z M 12.765625 -18.53125 "/></g></g></g><g fill="#000000" fill-opacity="1"><g transform="translate(136.813036, 91.509992)"><g/></g></g><g fill="#000000" fill-opacity="1"><g transform="translate(149.258118, 91.509992)"><g><path d="M 26.78125 0 L 2.421875 0 L 2.421875 -4.828125 L 13.90625 -17.078125 C 15.488281 -18.804688 16.65625 -20.3125 17.40625 -21.59375 C 18.164062 -22.882812 18.546875 -24.109375 18.546875 -25.265625 C 18.546875 -26.835938 18.144531 -28.078125 17.34375 -28.984375 C 16.550781 -29.890625 15.414062 -30.34375 13.9375 -30.34375 C 12.34375 -30.34375 11.082031 -29.789062 10.15625 -28.6875 C 9.238281 -27.59375 8.78125 -26.148438 8.78125 -24.359375 L 1.703125 -24.359375 C 1.703125 -26.523438 2.21875 -28.5 3.25 -30.28125 C 4.289062 -32.070312 5.753906 -33.476562 7.640625 -34.5 C 9.523438 -35.519531 11.664062 -36.03125 14.0625 -36.03125 C 17.71875 -36.03125 20.554688 -35.148438 22.578125 -33.390625 C 24.609375 -31.628906 25.625 -29.144531 25.625 -25.9375 C 25.625 -24.1875 25.164062 -22.398438 24.25 -20.578125 C 23.34375 -18.753906 21.785156 -16.628906 19.578125 -14.203125 L 11.5 -5.6875 L 26.78125 -5.6875 Z M 26.78125 0 "/></g></g></g><g fill="#000000" fill-opacity="1"><g transform="translate(106.879242, 137.994511)"><g><path d="M 25.140625 -18.203125 L 3.3125 -18.203125 L 3.3125 -23.96875 L 25.140625 -23.96875 Z M 25.140625 -7.640625 L 3.3125 -7.640625 L 3.3125 -13.40625 L 25.140625 -13.40625 Z M 25.140625 -7.640625 "/></g></g></g><g fill="#000000" fill-opacity="1"><g transform="translate(57.16377, 184.47903)"><g><path d="M 26.578125 -31.578125 L 12.84375 0 L 5.390625 0 L 19.15625 -29.828125 L 1.484375 -29.828125 L 1.484375 -35.53125 L 26.578125 -35.53125 Z M 26.578125 -31.578125 "/></g></g></g><g fill="#000000" fill-opacity="1"><g transform="translate(85.841717, 160.33707)"><g><path d="M 16.0625 0 L 1.453125 0 L 1.453125 -2.90625 L 8.34375 -10.25 C 9.289062 -11.28125 9.988281 -12.179688 10.4375 -12.953125 C 10.894531 -13.722656 11.125 -14.457031 11.125 -15.15625 C 11.125 -16.101562 10.882812 -16.847656 10.40625 -17.390625 C 9.925781 -17.929688 9.242188 -18.203125 8.359375 -18.203125 C 7.398438 -18.203125 6.644531 -17.867188 6.09375 -17.203125 C 5.539062 -16.546875 5.265625 -15.679688 5.265625 -14.609375 L 1.03125 -14.609375 C 1.03125 -15.910156 1.335938 -17.097656 1.953125 -18.171875 C 2.578125 -19.242188 3.453125 -20.082031 4.578125 -20.6875 C 5.710938 -21.300781 7 -21.609375 8.4375 -21.609375 C 10.632812 -21.609375 12.335938 -21.082031 13.546875 -20.03125 C 14.765625 -18.976562 15.375 -17.488281 15.375 -15.5625 C 15.375 -14.507812 15.097656 -13.4375 14.546875 -12.34375 C 14.003906 -11.25 13.066406 -9.972656 11.734375 -8.515625 L 6.890625 -3.40625 L 16.0625 -3.40625 Z M 16.0625 0 "/></g></g></g><g fill="#000000" fill-opacity="1"><g transform="translate(139.870604, 184.47903)"><g><path d="M 18.921875 -14.203125 C 17.078125 -12.398438 14.925781 -11.5 12.46875 -11.5 C 9.332031 -11.5 6.816406 -12.578125 4.921875 -14.734375 C 3.035156 -16.890625 2.09375 -19.796875 2.09375 -23.453125 C 2.09375 -25.773438 2.601562 -27.910156 3.625 -29.859375 C 4.644531 -31.804688 6.0625 -33.320312 7.875 -34.40625 C 9.695312 -35.488281 11.75 -36.03125 14.03125 -36.03125 C 16.375 -36.03125 18.457031 -35.441406 20.28125 -34.265625 C 22.101562 -33.097656 23.519531 -31.414062 24.53125 -29.21875 C 25.539062 -27.019531 26.050781 -24.503906 26.0625 -21.671875 L 26.0625 -19.0625 C 26.0625 -13.132812 24.585938 -8.476562 21.640625 -5.09375 C 18.703125 -1.71875 14.53125 0.0820312 9.125 0.3125 L 7.390625 0.34375 L 7.390625 -5.546875 L 8.953125 -5.5625 C 15.085938 -5.84375 18.410156 -8.722656 18.921875 -14.203125 Z M 14.203125 -16.890625 C 15.335938 -16.890625 16.316406 -17.179688 17.140625 -17.765625 C 17.960938 -18.347656 18.585938 -19.054688 19.015625 -19.890625 L 19.015625 -22.796875 C 19.015625 -25.191406 18.554688 -27.046875 17.640625 -28.359375 C 16.734375 -29.679688 15.515625 -30.34375 13.984375 -30.34375 C 12.566406 -30.34375 11.398438 -29.691406 10.484375 -28.390625 C 9.578125 -27.097656 9.125 -25.476562 9.125 -23.53125 C 9.125 -21.59375 9.566406 -20 10.453125 -18.75 C 11.335938 -17.507812 12.585938 -16.890625 14.203125 -16.890625 Z M 14.203125 -16.890625 "/></g></g></g><g fill="#000000" fill-opacity="1"><g transform="translate(168.548553, 160.33707)"><g><path d="M 16.0625 0 L 1.453125 0 L 1.453125 -2.90625 L 8.34375 -10.25 C 9.289062 -11.28125 9.988281 -12.179688 10.4375 -12.953125 C 10.894531 -13.722656 11.125 -14.457031 11.125 -15.15625 C 11.125 -16.101562 10.882812 -16.847656 10.40625 -17.390625 C 9.925781 -17.929688 9.242188 -18.203125 8.359375 -18.203125 C 7.398438 -18.203125 6.644531 -17.867188 6.09375 -17.203125 C 5.539062 -16.546875 5.265625 -15.679688 5.265625 -14.609375 L 1.03125 -14.609375 C 1.03125 -15.910156 1.335938 -17.097656 1.953125 -18.171875 C 2.578125 -19.242188 3.453125 -20.082031 4.578125 -20.6875 C 5.710938 -21.300781 7 -21.609375 8.4375 -21.609375 C 10.632812 -21.609375 12.335938 -21.082031 13.546875 -20.03125 C 14.765625 -18.976562 15.375 -17.488281 15.375 -15.5625 C 15.375 -14.507812 15.097656 -13.4375 14.546875 -12.34375 C 14.003906 -11.25 13.066406 -9.972656 11.734375 -8.515625 L 6.890625 -3.40625 L 16.0625 -3.40625 Z M 16.0625 0 "/></g></g></g><g fill="#000000" fill-opacity="1"><g transform="translate(107.814093, 181.580001)"><g><path d="M 16.9375 -19.890625 L 25.75 -19.890625 L 25.75 -13.515625 L 16.9375 -13.515625 L 16.9375 -3.5625 L 10.21875 -3.5625 L 10.21875 -13.515625 L 1.390625 -13.515625 L 1.390625 -19.890625 L 10.21875 -19.890625 L 10.21875 -29.4375 L 16.9375 -29.4375 Z M 16.9375 -19.890625 "/></g></g></g></svg>