<svg xmlns="http://www.w3.org/2000/svg" xmlns:xlink="http://www.w3.org/1999/xlink" width="560" zoomAndPan="magnify" viewBox="0 0 420 74.249996" height="99" preserveAspectRatio="xMidYMid meet" version="1.0"><defs><g/><clipPath id="fcbf2efb6e"><path d="M 2.109375 0 L 417.585938 0 L 417.585938 72.765625 L 2.109375 72.765625 Z M 2.109375 0 " clip-rule="nonzero"/></clipPath></defs><g clip-path="url(#fcbf2efb6e)"><path stroke-linecap="butt" transform="matrix(0.7425, 0, 0, 0.7425, 2.11108, -0.00000198)" fill="none" stroke-linejoin="miter" d="M -0.00229652 0.00000266667 L 559.562151 0.00000266667 L 559.562151 98.158682 L -0.00229652 98.158682 Z M -0.00229652 0.00000266667 " stroke="#000000" stroke-width="12" stroke-opacity="1" stroke-miterlimit="4"/></g><g fill="#000000" fill-opacity="1"><g transform="translate(125.797532, 49.064615)"><g><path d="M 3.328125 0.3125 C 2.691406 0.3125 2.179688 0.171875 1.796875 -0.109375 C 1.421875 -0.398438 1.191406 -0.789062 1.109375 -1.28125 C 1.023438 -1.769531 1.117188 -2.320312 1.390625 -2.9375 L 11.84375 -26.09375 C 12.1875 -26.851562 12.597656 -27.398438 13.078125 -27.734375 C 13.566406 -28.066406 14.128906 -28.234375 14.765625 -28.234375 C 15.367188 -28.234375 15.914062 -28.066406 16.40625 -27.734375 C 16.894531 -27.398438 17.3125 -26.851562 17.65625 -26.09375 L 28.15625 -2.9375 C 28.445312 -2.320312 28.550781 -1.765625 28.46875 -1.265625 C 28.382812 -0.765625 28.15625 -0.375 27.78125 -0.09375 C 27.414062 0.175781 26.929688 0.3125 26.328125 0.3125 C 25.585938 0.3125 25.015625 0.132812 24.609375 -0.21875 C 24.203125 -0.570312 23.835938 -1.117188 23.515625 -1.859375 L 20.9375 -7.84375 L 23.078125 -6.453125 L 6.375 -6.453125 L 8.515625 -7.84375 L 5.984375 -1.859375 C 5.640625 -1.097656 5.28125 -0.546875 4.90625 -0.203125 C 4.539062 0.140625 4.015625 0.3125 3.328125 0.3125 Z M 14.6875 -22.40625 L 9.140625 -9.21875 L 8.109375 -10.5 L 21.34375 -10.5 L 20.34375 -9.21875 L 14.765625 -22.40625 Z M 14.6875 -22.40625 "/></g></g></g><g fill="#000000" fill-opacity="1"><g transform="translate(155.257001, 49.064615)"><g><path d="M 9.578125 0.390625 C 7.972656 0.390625 6.640625 0.09375 5.578125 -0.5 C 4.523438 -1.09375 3.738281 -1.984375 3.21875 -3.171875 C 2.707031 -4.359375 2.453125 -5.835938 2.453125 -7.609375 L 2.453125 -17.1875 C 2.453125 -18.03125 2.660156 -18.65625 3.078125 -19.0625 C 3.503906 -19.46875 4.113281 -19.671875 4.90625 -19.671875 C 5.695312 -19.671875 6.3125 -19.46875 6.75 -19.0625 C 7.1875 -18.65625 7.40625 -18.03125 7.40625 -17.1875 L 7.40625 -7.515625 C 7.40625 -6.148438 7.679688 -5.132812 8.234375 -4.46875 C 8.785156 -3.8125 9.671875 -3.484375 10.890625 -3.484375 C 12.210938 -3.484375 13.296875 -3.9375 14.140625 -4.84375 C 14.984375 -5.757812 15.40625 -6.96875 15.40625 -8.46875 L 15.40625 -17.1875 C 15.40625 -18.03125 15.613281 -18.65625 16.03125 -19.0625 C 16.457031 -19.46875 17.066406 -19.671875 17.859375 -19.671875 C 18.648438 -19.671875 19.257812 -19.46875 19.6875 -19.0625 C 20.125 -18.65625 20.34375 -18.03125 20.34375 -17.1875 L 20.34375 -2.21875 C 20.34375 -0.53125 19.539062 0.3125 17.9375 0.3125 C 17.164062 0.3125 16.566406 0.0976562 16.140625 -0.328125 C 15.722656 -0.765625 15.515625 -1.394531 15.515625 -2.21875 L 15.515625 -5.21875 L 16.078125 -4.03125 C 15.523438 -2.613281 14.6875 -1.519531 13.5625 -0.75 C 12.4375 0.0078125 11.109375 0.390625 9.578125 0.390625 Z M 9.578125 0.390625 "/></g></g></g><g fill="#000000" fill-opacity="1"><g transform="translate(178.183125, 49.064615)"><g><path d="M 9.65625 0.390625 C 8.519531 0.390625 7.316406 0.269531 6.046875 0.03125 C 4.785156 -0.195312 3.65625 -0.601562 2.65625 -1.1875 C 2.226562 -1.445312 1.925781 -1.753906 1.75 -2.109375 C 1.582031 -2.472656 1.519531 -2.832031 1.5625 -3.1875 C 1.601562 -3.539062 1.734375 -3.847656 1.953125 -4.109375 C 2.179688 -4.378906 2.472656 -4.550781 2.828125 -4.625 C 3.179688 -4.707031 3.570312 -4.644531 4 -4.4375 C 5.050781 -3.9375 6.039062 -3.585938 6.96875 -3.390625 C 7.894531 -3.191406 8.804688 -3.09375 9.703125 -3.09375 C 10.960938 -3.09375 11.90625 -3.304688 12.53125 -3.734375 C 13.15625 -4.171875 13.46875 -4.75 13.46875 -5.46875 C 13.46875 -6.070312 13.257812 -6.535156 12.84375 -6.859375 C 12.4375 -7.191406 11.820312 -7.441406 11 -7.609375 L 7.046875 -8.359375 C 5.410156 -8.671875 4.160156 -9.269531 3.296875 -10.15625 C 2.441406 -11.039062 2.015625 -12.179688 2.015625 -13.578125 C 2.015625 -14.847656 2.363281 -15.941406 3.0625 -16.859375 C 3.769531 -17.785156 4.742188 -18.5 5.984375 -19 C 7.222656 -19.5 8.644531 -19.75 10.25 -19.75 C 11.414062 -19.75 12.503906 -19.625 13.515625 -19.375 C 14.535156 -19.125 15.519531 -18.738281 16.46875 -18.21875 C 16.863281 -18 17.132812 -17.71875 17.28125 -17.375 C 17.425781 -17.03125 17.457031 -16.679688 17.375 -16.328125 C 17.300781 -15.972656 17.144531 -15.65625 16.90625 -15.375 C 16.664062 -15.101562 16.367188 -14.929688 16.015625 -14.859375 C 15.660156 -14.796875 15.257812 -14.867188 14.8125 -15.078125 C 13.988281 -15.503906 13.203125 -15.804688 12.453125 -15.984375 C 11.703125 -16.171875 10.984375 -16.265625 10.296875 -16.265625 C 9.003906 -16.265625 8.046875 -16.039062 7.421875 -15.59375 C 6.804688 -15.144531 6.5 -14.550781 6.5 -13.8125 C 6.5 -13.257812 6.679688 -12.796875 7.046875 -12.421875 C 7.421875 -12.054688 7.988281 -11.8125 8.75 -11.6875 L 12.703125 -10.921875 C 14.421875 -10.609375 15.722656 -10.03125 16.609375 -9.1875 C 17.492188 -8.34375 17.9375 -7.207031 17.9375 -5.78125 C 17.9375 -3.851562 17.179688 -2.34375 15.671875 -1.25 C 14.171875 -0.15625 12.164062 0.390625 9.65625 0.390625 Z M 9.65625 0.390625 "/></g></g></g><g fill="#000000" fill-opacity="1"><g transform="translate(197.308016, 49.064615)"><g><path d="M 11.4375 0.390625 C 9.726562 0.390625 8.296875 0.101562 7.140625 -0.46875 C 5.992188 -1.050781 5.144531 -1.90625 4.59375 -3.03125 C 4.039062 -4.15625 3.765625 -5.546875 3.765625 -7.203125 L 3.765625 -15.640625 L 1.703125 -15.640625 C 1.066406 -15.640625 0.578125 -15.800781 0.234375 -16.125 C -0.109375 -16.457031 -0.28125 -16.914062 -0.28125 -17.5 C -0.28125 -18.101562 -0.109375 -18.5625 0.234375 -18.875 C 0.578125 -19.195312 1.066406 -19.359375 1.703125 -19.359375 L 3.765625 -19.359375 L 3.765625 -22.96875 C 3.765625 -23.78125 3.976562 -24.394531 4.40625 -24.8125 C 4.84375 -25.238281 5.457031 -25.453125 6.25 -25.453125 C 7.039062 -25.453125 7.644531 -25.238281 8.0625 -24.8125 C 8.488281 -24.394531 8.703125 -23.78125 8.703125 -22.96875 L 8.703125 -19.359375 L 12.90625 -19.359375 C 13.539062 -19.359375 14.03125 -19.195312 14.375 -18.875 C 14.71875 -18.5625 14.890625 -18.101562 14.890625 -17.5 C 14.890625 -16.914062 14.71875 -16.457031 14.375 -16.125 C 14.03125 -15.800781 13.539062 -15.640625 12.90625 -15.640625 L 8.703125 -15.640625 L 8.703125 -7.484375 C 8.703125 -6.210938 8.976562 -5.257812 9.53125 -4.625 C 10.09375 -4 10.992188 -3.6875 12.234375 -3.6875 C 12.679688 -3.6875 13.078125 -3.722656 13.421875 -3.796875 C 13.765625 -3.878906 14.066406 -3.929688 14.328125 -3.953125 C 14.648438 -3.984375 14.914062 -3.882812 15.125 -3.65625 C 15.332031 -3.4375 15.4375 -2.984375 15.4375 -2.296875 C 15.4375 -1.765625 15.347656 -1.296875 15.171875 -0.890625 C 15.003906 -0.484375 14.695312 -0.203125 14.25 -0.046875 C 13.90625 0.0664062 13.457031 0.164062 12.90625 0.25 C 12.351562 0.34375 11.863281 0.390625 11.4375 0.390625 Z M 11.4375 0.390625 "/></g></g></g><g fill="#000000" fill-opacity="1"><g transform="translate(212.512904, 49.064615)"><g><path d="M 5.109375 0.3125 C 4.285156 0.3125 3.65625 0.0976562 3.21875 -0.328125 C 2.789062 -0.765625 2.578125 -1.394531 2.578125 -2.21875 L 2.578125 -17.1875 C 2.578125 -18 2.785156 -18.613281 3.203125 -19.03125 C 3.628906 -19.457031 4.222656 -19.671875 4.984375 -19.671875 C 5.753906 -19.671875 6.347656 -19.457031 6.765625 -19.03125 C 7.191406 -18.613281 7.40625 -18 7.40625 -17.1875 L 7.40625 -14.6875 L 7.015625 -14.6875 C 7.378906 -16.269531 8.101562 -17.46875 9.1875 -18.28125 C 10.269531 -19.101562 11.707031 -19.59375 13.5 -19.75 C 14.050781 -19.8125 14.492188 -19.675781 14.828125 -19.34375 C 15.160156 -19.007812 15.351562 -18.5 15.40625 -17.8125 C 15.457031 -17.15625 15.300781 -16.617188 14.9375 -16.203125 C 14.582031 -15.796875 14.050781 -15.554688 13.34375 -15.484375 L 12.46875 -15.40625 C 10.863281 -15.25 9.648438 -14.753906 8.828125 -13.921875 C 8.015625 -13.085938 7.609375 -11.914062 7.609375 -10.40625 L 7.609375 -2.21875 C 7.609375 -1.394531 7.394531 -0.765625 6.96875 -0.328125 C 6.539062 0.0976562 5.921875 0.3125 5.109375 0.3125 Z M 5.109375 0.3125 "/></g></g></g><g fill="#000000" fill-opacity="1"><g transform="translate(227.836572, 49.064615)"><g><path d="M 8.953125 0.390625 C 7.546875 0.390625 6.296875 0.117188 5.203125 -0.421875 C 4.109375 -0.960938 3.25 -1.691406 2.625 -2.609375 C 2.007812 -3.535156 1.703125 -4.578125 1.703125 -5.734375 C 1.703125 -7.160156 2.070312 -8.289062 2.8125 -9.125 C 3.550781 -9.957031 4.75 -10.554688 6.40625 -10.921875 C 8.070312 -11.296875 10.304688 -11.484375 13.109375 -11.484375 L 15.078125 -11.484375 L 15.078125 -8.625 L 13.140625 -8.625 C 11.503906 -8.625 10.195312 -8.546875 9.21875 -8.390625 C 8.25 -8.234375 7.554688 -7.960938 7.140625 -7.578125 C 6.734375 -7.203125 6.53125 -6.671875 6.53125 -5.984375 C 6.53125 -5.109375 6.832031 -4.394531 7.4375 -3.84375 C 8.050781 -3.289062 8.898438 -3.015625 9.984375 -3.015625 C 10.847656 -3.015625 11.613281 -3.21875 12.28125 -3.625 C 12.957031 -4.03125 13.492188 -4.585938 13.890625 -5.296875 C 14.285156 -6.015625 14.484375 -6.835938 14.484375 -7.765625 L 14.484375 -12.3125 C 14.484375 -13.632812 14.191406 -14.582031 13.609375 -15.15625 C 13.035156 -15.738281 12.0625 -16.03125 10.6875 -16.03125 C 9.925781 -16.03125 9.101562 -15.9375 8.21875 -15.75 C 7.332031 -15.570312 6.398438 -15.257812 5.421875 -14.8125 C 4.921875 -14.570312 4.476562 -14.503906 4.09375 -14.609375 C 3.71875 -14.710938 3.421875 -14.929688 3.203125 -15.265625 C 2.992188 -15.597656 2.890625 -15.960938 2.890625 -16.359375 C 2.890625 -16.753906 2.992188 -17.140625 3.203125 -17.515625 C 3.421875 -17.898438 3.78125 -18.1875 4.28125 -18.375 C 5.488281 -18.875 6.65625 -19.226562 7.78125 -19.4375 C 8.90625 -19.644531 9.925781 -19.75 10.84375 -19.75 C 12.75 -19.75 14.3125 -19.457031 15.53125 -18.875 C 16.757812 -18.300781 17.675781 -17.425781 18.28125 -16.25 C 18.894531 -15.070312 19.203125 -13.5625 19.203125 -11.71875 L 19.203125 -2.21875 C 19.203125 -1.394531 19.003906 -0.765625 18.609375 -0.328125 C 18.210938 0.0976562 17.644531 0.3125 16.90625 0.3125 C 16.164062 0.3125 15.59375 0.0976562 15.1875 -0.328125 C 14.78125 -0.765625 14.578125 -1.394531 14.578125 -2.21875 L 14.578125 -4.125 L 14.890625 -4.125 C 14.703125 -3.195312 14.335938 -2.394531 13.796875 -1.71875 C 13.253906 -1.050781 12.570312 -0.53125 11.75 -0.15625 C 10.9375 0.207031 10.003906 0.390625 8.953125 0.390625 Z M 8.953125 0.390625 "/></g></g></g><g fill="#000000" fill-opacity="1"><g transform="translate(249.495623, 49.064615)"><g><path d="M 9.1875 0.390625 C 7 0.390625 5.347656 -0.234375 4.234375 -1.484375 C 3.128906 -2.734375 2.578125 -4.578125 2.578125 -7.015625 L 2.578125 -25.734375 C 2.578125 -26.554688 2.785156 -27.175781 3.203125 -27.59375 C 3.628906 -28.019531 4.238281 -28.234375 5.03125 -28.234375 C 5.820312 -28.234375 6.429688 -28.019531 6.859375 -27.59375 C 7.296875 -27.175781 7.515625 -26.554688 7.515625 -25.734375 L 7.515625 -7.25 C 7.515625 -6.03125 7.769531 -5.128906 8.28125 -4.546875 C 8.800781 -3.972656 9.539062 -3.6875 10.5 -3.6875 C 10.707031 -3.6875 10.898438 -3.691406 11.078125 -3.703125 C 11.265625 -3.710938 11.453125 -3.734375 11.640625 -3.765625 C 12.003906 -3.816406 12.253906 -3.71875 12.390625 -3.46875 C 12.523438 -3.21875 12.59375 -2.707031 12.59375 -1.9375 C 12.59375 -1.28125 12.457031 -0.765625 12.1875 -0.390625 C 11.925781 -0.0234375 11.492188 0.195312 10.890625 0.28125 C 10.628906 0.300781 10.351562 0.320312 10.0625 0.34375 C 9.769531 0.375 9.476562 0.390625 9.1875 0.390625 Z M 9.1875 0.390625 "/></g></g></g><g fill="#000000" fill-opacity="1"><g transform="translate(262.126766, 49.064615)"><g><path d="M 5.03125 0.28125 C 4.238281 0.28125 3.628906 0.046875 3.203125 -0.421875 C 2.785156 -0.898438 2.578125 -1.566406 2.578125 -2.421875 L 2.578125 -16.953125 C 2.578125 -17.816406 2.785156 -18.476562 3.203125 -18.9375 C 3.628906 -19.40625 4.238281 -19.640625 5.03125 -19.640625 C 5.820312 -19.640625 6.429688 -19.40625 6.859375 -18.9375 C 7.296875 -18.476562 7.515625 -17.816406 7.515625 -16.953125 L 7.515625 -2.421875 C 7.515625 -1.566406 7.300781 -0.898438 6.875 -0.421875 C 6.457031 0.046875 5.84375 0.28125 5.03125 0.28125 Z M 5.03125 -23.328125 C 4.101562 -23.328125 3.378906 -23.554688 2.859375 -24.015625 C 2.347656 -24.472656 2.09375 -25.113281 2.09375 -25.9375 C 2.09375 -26.78125 2.347656 -27.425781 2.859375 -27.875 C 3.378906 -28.320312 4.101562 -28.546875 5.03125 -28.546875 C 5.976562 -28.546875 6.703125 -28.320312 7.203125 -27.875 C 7.703125 -27.425781 7.953125 -26.78125 7.953125 -25.9375 C 7.953125 -25.113281 7.703125 -24.472656 7.203125 -24.015625 C 6.703125 -23.554688 5.976562 -23.328125 5.03125 -23.328125 Z M 5.03125 -23.328125 "/></g></g></g><g fill="#000000" fill-opacity="1"><g transform="translate(272.223761, 49.064615)"><g><path d="M 8.953125 0.390625 C 7.546875 0.390625 6.296875 0.117188 5.203125 -0.421875 C 4.109375 -0.960938 3.25 -1.691406 2.625 -2.609375 C 2.007812 -3.535156 1.703125 -4.578125 1.703125 -5.734375 C 1.703125 -7.160156 2.070312 -8.289062 2.8125 -9.125 C 3.550781 -9.957031 4.75 -10.554688 6.40625 -10.921875 C 8.070312 -11.296875 10.304688 -11.484375 13.109375 -11.484375 L 15.078125 -11.484375 L 15.078125 -8.625 L 13.140625 -8.625 C 11.503906 -8.625 10.195312 -8.546875 9.21875 -8.390625 C 8.25 -8.234375 7.554688 -7.960938 7.140625 -7.578125 C 6.734375 -7.203125 6.53125 -6.671875 6.53125 -5.984375 C 6.53125 -5.109375 6.832031 -4.394531 7.4375 -3.84375 C 8.050781 -3.289062 8.898438 -3.015625 9.984375 -3.015625 C 10.847656 -3.015625 11.613281 -3.21875 12.28125 -3.625 C 12.957031 -4.03125 13.492188 -4.585938 13.890625 -5.296875 C 14.285156 -6.015625 14.484375 -6.835938 14.484375 -7.765625 L 14.484375 -12.3125 C 14.484375 -13.632812 14.191406 -14.582031 13.609375 -15.15625 C 13.035156 -15.738281 12.0625 -16.03125 10.6875 -16.03125 C 9.925781 -16.03125 9.101562 -15.9375 8.21875 -15.75 C 7.332031 -15.570312 6.398438 -15.257812 5.421875 -14.8125 C 4.921875 -14.570312 4.476562 -14.503906 4.09375 -14.609375 C 3.71875 -14.710938 3.421875 -14.929688 3.203125 -15.265625 C 2.992188 -15.597656 2.890625 -15.960938 2.890625 -16.359375 C 2.890625 -16.753906 2.992188 -17.140625 3.203125 -17.515625 C 3.421875 -17.898438 3.78125 -18.1875 4.28125 -18.375 C 5.488281 -18.875 6.65625 -19.226562 7.78125 -19.4375 C 8.90625 -19.644531 9.925781 -19.75 10.84375 -19.75 C 12.75 -19.75 14.3125 -19.457031 15.53125 -18.875 C 16.757812 -18.300781 17.675781 -17.425781 18.28125 -16.25 C 18.894531 -15.070312 19.203125 -13.5625 19.203125 -11.71875 L 19.203125 -2.21875 C 19.203125 -1.394531 19.003906 -0.765625 18.609375 -0.328125 C 18.210938 0.0976562 17.644531 0.3125 16.90625 0.3125 C 16.164062 0.3125 15.59375 0.0976562 15.1875 -0.328125 C 14.78125 -0.765625 14.578125 -1.394531 14.578125 -2.21875 L 14.578125 -4.125 L 14.890625 -4.125 C 14.703125 -3.195312 14.335938 -2.394531 13.796875 -1.71875 C 13.253906 -1.050781 12.570312 -0.53125 11.75 -0.15625 C 10.9375 0.207031 10.003906 0.390625 8.953125 0.390625 Z M 8.953125 0.390625 "/></g></g></g></svg>