<svg xmlns="http://www.w3.org/2000/svg" xmlns:xlink="http://www.w3.org/1999/xlink" width="383" zoomAndPan="magnify" viewBox="0 0 287.25 76.499998" height="102" preserveAspectRatio="xMidYMid meet" version="1.0"><defs><g/><clipPath id="6cbff70647"><path d="M 0.5625 0 L 285.753906 0 L 285.753906 75.257812 L 0.5625 75.257812 Z M 0.5625 0 " clip-rule="nonzero"/></clipPath></defs><g clip-path="url(#6cbff70647)"><path stroke-linecap="butt" transform="matrix(0.74513, 0, 0, 0.74513, 0.563343, -0.000000000000037061)" fill="none" stroke-linejoin="miter" d="M -0.00113082 0.000000000000049738 L 382.739434 0.000000000000049738 L 382.739434 101.015326 L -0.00113082 101.015326 Z M -0.00113082 0.000000000000049738 " stroke="#000000" stroke-width="12" stroke-opacity="1" stroke-miterlimit="4"/></g><g fill="#000000" fill-opacity="1"><g transform="translate(50.292601, 50.302977)"><g><path d="M 6.203125 0 C 5.515625 0 4.976562 -0.191406 4.59375 -0.578125 C 4.207031 -0.960938 4.015625 -1.484375 4.015625 -2.140625 C 4.015625 -2.828125 4.207031 -3.34375 4.59375 -3.6875 C 4.976562 -4.039062 5.515625 -4.21875 6.203125 -4.21875 L 10.65625 -4.21875 L 10.65625 -23.71875 L 13.109375 -23.71875 L 7.265625 -20.1875 C 6.765625 -19.894531 6.296875 -19.78125 5.859375 -19.84375 C 5.421875 -19.914062 5.050781 -20.101562 4.75 -20.40625 C 4.445312 -20.707031 4.238281 -21.066406 4.125 -21.484375 C 4.019531 -21.910156 4.050781 -22.34375 4.21875 -22.78125 C 4.394531 -23.21875 4.738281 -23.582031 5.25 -23.875 L 10.734375 -27.171875 C 11.253906 -27.492188 11.78125 -27.765625 12.3125 -27.984375 C 12.84375 -28.210938 13.332031 -28.328125 13.78125 -28.328125 C 14.34375 -28.328125 14.804688 -28.175781 15.171875 -27.875 C 15.546875 -27.570312 15.734375 -27.078125 15.734375 -26.390625 L 15.734375 -4.21875 L 19.78125 -4.21875 C 20.476562 -4.21875 21.015625 -4.039062 21.390625 -3.6875 C 21.773438 -3.34375 21.96875 -2.828125 21.96875 -2.140625 C 21.96875 -1.453125 21.773438 -0.921875 21.390625 -0.546875 C 21.015625 -0.179688 20.476562 0 19.78125 0 Z M 6.203125 0 "/></g></g></g><g fill="#000000" fill-opacity="1"><g transform="translate(74.13439, 50.302977)"><g><path d="M 11.921875 0.390625 C 8.609375 0.390625 6.078125 -0.859375 4.328125 -3.359375 C 2.578125 -5.859375 1.703125 -9.425781 1.703125 -14.0625 C 1.703125 -17.1875 2.09375 -19.816406 2.875 -21.953125 C 3.65625 -24.085938 4.804688 -25.695312 6.328125 -26.78125 C 7.859375 -27.863281 9.722656 -28.40625 11.921875 -28.40625 C 15.253906 -28.40625 17.785156 -27.1875 19.515625 -24.75 C 21.253906 -22.3125 22.125 -18.765625 22.125 -14.109375 C 22.125 -11.003906 21.734375 -8.375 20.953125 -6.21875 C 20.171875 -4.0625 19.023438 -2.421875 17.515625 -1.296875 C 16.015625 -0.171875 14.148438 0.390625 11.921875 0.390625 Z M 11.921875 -3.78125 C 13.722656 -3.78125 15.050781 -4.613281 15.90625 -6.28125 C 16.769531 -7.945312 17.203125 -10.554688 17.203125 -14.109375 C 17.203125 -17.660156 16.769531 -20.234375 15.90625 -21.828125 C 15.050781 -23.429688 13.722656 -24.234375 11.921875 -24.234375 C 10.148438 -24.234375 8.828125 -23.429688 7.953125 -21.828125 C 7.078125 -20.234375 6.640625 -17.660156 6.640625 -14.109375 C 6.640625 -10.554688 7.078125 -7.945312 7.953125 -6.28125 C 8.828125 -4.613281 10.148438 -3.78125 11.921875 -3.78125 Z M 11.921875 -3.78125 "/></g></g></g><g fill="#000000" fill-opacity="1"><g transform="translate(97.976179, 50.302977)"><g/></g></g><g fill="#000000" fill-opacity="1"><g transform="translate(108.744724, 50.302977)"><g><path d="M 10.046875 0.390625 C 8.359375 0.390625 6.867188 -0.015625 5.578125 -0.828125 C 4.296875 -1.648438 3.296875 -2.820312 2.578125 -4.34375 C 1.867188 -5.875 1.515625 -7.671875 1.515625 -9.734375 C 1.515625 -11.828125 1.867188 -13.617188 2.578125 -15.109375 C 3.296875 -16.609375 4.296875 -17.769531 5.578125 -18.59375 C 6.867188 -19.414062 8.359375 -19.828125 10.046875 -19.828125 C 11.671875 -19.828125 13.082031 -19.425781 14.28125 -18.625 C 15.488281 -17.832031 16.304688 -16.789062 16.734375 -15.5 L 16.296875 -15.5 L 16.296875 -25.828125 C 16.296875 -26.648438 16.503906 -27.269531 16.921875 -27.6875 C 17.347656 -28.113281 17.957031 -28.328125 18.75 -28.328125 C 19.550781 -28.328125 20.171875 -28.113281 20.609375 -27.6875 C 21.046875 -27.269531 21.265625 -26.648438 21.265625 -25.828125 L 21.265625 -2.21875 C 21.265625 -1.40625 21.050781 -0.78125 20.625 -0.34375 C 20.195312 0.09375 19.585938 0.3125 18.796875 0.3125 C 18.003906 0.3125 17.394531 0.09375 16.96875 -0.34375 C 16.539062 -0.78125 16.328125 -1.40625 16.328125 -2.21875 L 16.328125 -5.328125 L 16.765625 -4.125 C 16.367188 -2.75 15.5625 -1.648438 14.34375 -0.828125 C 13.125 -0.015625 11.691406 0.390625 10.046875 0.390625 Z M 11.4375 -3.375 C 12.414062 -3.375 13.273438 -3.613281 14.015625 -4.09375 C 14.765625 -4.570312 15.34375 -5.28125 15.75 -6.21875 C 16.164062 -7.15625 16.375 -8.328125 16.375 -9.734375 C 16.375 -11.847656 15.921875 -13.425781 15.015625 -14.46875 C 14.117188 -15.519531 12.925781 -16.046875 11.4375 -16.046875 C 10.457031 -16.046875 9.597656 -15.8125 8.859375 -15.34375 C 8.117188 -14.882812 7.539062 -14.1875 7.125 -13.25 C 6.71875 -12.3125 6.515625 -11.140625 6.515625 -9.734375 C 6.515625 -7.640625 6.960938 -6.054688 7.859375 -4.984375 C 8.765625 -3.910156 9.957031 -3.375 11.4375 -3.375 Z M 11.4375 -3.375 "/></g></g></g><g fill="#000000" fill-opacity="1"><g transform="translate(132.586513, 50.302977)"><g><path d="M 8.984375 0.390625 C 7.578125 0.390625 6.320312 0.117188 5.21875 -0.421875 C 4.125 -0.960938 3.265625 -1.695312 2.640625 -2.625 C 2.015625 -3.550781 1.703125 -4.597656 1.703125 -5.765625 C 1.703125 -7.191406 2.070312 -8.320312 2.8125 -9.15625 C 3.5625 -9.988281 4.769531 -10.585938 6.4375 -10.953125 C 8.101562 -11.328125 10.34375 -11.515625 13.15625 -11.515625 L 15.140625 -11.515625 L 15.140625 -8.65625 L 13.1875 -8.65625 C 11.550781 -8.65625 10.238281 -8.578125 9.25 -8.421875 C 8.269531 -8.265625 7.578125 -7.992188 7.171875 -7.609375 C 6.765625 -7.222656 6.5625 -6.6875 6.5625 -6 C 6.5625 -5.125 6.863281 -4.40625 7.46875 -3.84375 C 8.082031 -3.289062 8.929688 -3.015625 10.015625 -3.015625 C 10.890625 -3.015625 11.660156 -3.21875 12.328125 -3.625 C 13.003906 -4.039062 13.539062 -4.601562 13.9375 -5.3125 C 14.34375 -6.03125 14.546875 -6.851562 14.546875 -7.78125 L 14.546875 -12.359375 C 14.546875 -13.679688 14.253906 -14.632812 13.671875 -15.21875 C 13.085938 -15.800781 12.109375 -16.09375 10.734375 -16.09375 C 9.960938 -16.09375 9.128906 -16 8.234375 -15.8125 C 7.347656 -15.625 6.414062 -15.304688 5.4375 -14.859375 C 4.9375 -14.617188 4.492188 -14.550781 4.109375 -14.65625 C 3.722656 -14.769531 3.425781 -14.988281 3.21875 -15.3125 C 3.007812 -15.644531 2.90625 -16.007812 2.90625 -16.40625 C 2.90625 -16.800781 3.007812 -17.191406 3.21875 -17.578125 C 3.425781 -17.960938 3.785156 -18.25 4.296875 -18.4375 C 5.515625 -18.9375 6.6875 -19.289062 7.8125 -19.5 C 8.9375 -19.71875 9.960938 -19.828125 10.890625 -19.828125 C 12.796875 -19.828125 14.363281 -19.535156 15.59375 -18.953125 C 16.820312 -18.367188 17.738281 -17.488281 18.34375 -16.3125 C 18.957031 -15.132812 19.265625 -13.617188 19.265625 -11.765625 L 19.265625 -2.21875 C 19.265625 -1.40625 19.066406 -0.78125 18.671875 -0.34375 C 18.273438 0.09375 17.707031 0.3125 16.96875 0.3125 C 16.226562 0.3125 15.648438 0.09375 15.234375 -0.34375 C 14.828125 -0.78125 14.625 -1.40625 14.625 -2.21875 L 14.625 -4.125 L 14.9375 -4.125 C 14.75 -3.195312 14.382812 -2.394531 13.84375 -1.71875 C 13.300781 -1.050781 12.617188 -0.53125 11.796875 -0.15625 C 10.972656 0.207031 10.035156 0.390625 8.984375 0.390625 Z M 8.984375 0.390625 "/></g></g></g><g fill="#000000" fill-opacity="1"><g transform="translate(154.322279, 50.302977)"><g><path d="M 5.046875 0.3125 C 4.253906 0.3125 3.644531 0.09375 3.21875 -0.34375 C 2.789062 -0.78125 2.578125 -1.40625 2.578125 -2.21875 L 2.578125 -17.25 C 2.578125 -18.0625 2.789062 -18.679688 3.21875 -19.109375 C 3.644531 -19.535156 4.238281 -19.75 5 -19.75 C 5.769531 -19.75 6.367188 -19.535156 6.796875 -19.109375 C 7.222656 -18.679688 7.4375 -18.0625 7.4375 -17.25 L 7.4375 -14.546875 L 7 -15.53125 C 7.582031 -16.9375 8.488281 -18.003906 9.71875 -18.734375 C 10.945312 -19.460938 12.34375 -19.828125 13.90625 -19.828125 C 15.46875 -19.828125 16.75 -19.535156 17.75 -18.953125 C 18.757812 -18.367188 19.515625 -17.488281 20.015625 -16.3125 C 20.523438 -15.132812 20.78125 -13.644531 20.78125 -11.84375 L 20.78125 -2.21875 C 20.78125 -1.40625 20.566406 -0.78125 20.140625 -0.34375 C 19.722656 0.09375 19.113281 0.3125 18.3125 0.3125 C 17.519531 0.3125 16.90625 0.09375 16.46875 -0.34375 C 16.03125 -0.78125 15.8125 -1.40625 15.8125 -2.21875 L 15.8125 -11.609375 C 15.8125 -13.117188 15.523438 -14.21875 14.953125 -14.90625 C 14.390625 -15.59375 13.507812 -15.9375 12.3125 -15.9375 C 10.851562 -15.9375 9.691406 -15.476562 8.828125 -14.5625 C 7.972656 -13.644531 7.546875 -12.429688 7.546875 -10.921875 L 7.546875 -2.21875 C 7.546875 -0.53125 6.710938 0.3125 5.046875 0.3125 Z M 5.046875 0.3125 "/></g></g></g><g fill="#000000" fill-opacity="1"><g transform="translate(177.568018, 50.302977)"><g/></g></g><g fill="#000000" fill-opacity="1"><g transform="translate(188.336563, 50.302977)"><g><path d="M 16.40625 0.3125 C 15.613281 0.3125 14.992188 0.09375 14.546875 -0.34375 C 14.097656 -0.78125 13.875 -1.40625 13.875 -2.21875 L 13.875 -5.328125 L 4.046875 -5.328125 C 3.234375 -5.328125 2.578125 -5.5 2.078125 -5.84375 C 1.585938 -6.1875 1.34375 -6.726562 1.34375 -7.46875 C 1.34375 -7.894531 1.457031 -8.359375 1.6875 -8.859375 C 1.914062 -9.359375 2.320312 -10.019531 2.90625 -10.84375 L 13.78125 -26.625 C 14.15625 -27.175781 14.566406 -27.597656 15.015625 -27.890625 C 15.460938 -28.179688 15.976562 -28.328125 16.5625 -28.328125 C 17.257812 -28.328125 17.832031 -28.117188 18.28125 -27.703125 C 18.726562 -27.296875 18.953125 -26.65625 18.953125 -25.78125 L 18.953125 -9.53125 L 20.90625 -9.53125 C 21.664062 -9.53125 22.238281 -9.351562 22.625 -9 C 23.007812 -8.644531 23.203125 -8.125 23.203125 -7.4375 C 23.203125 -6.738281 23.007812 -6.210938 22.625 -5.859375 C 22.238281 -5.503906 21.664062 -5.328125 20.90625 -5.328125 L 18.953125 -5.328125 L 18.953125 -2.21875 C 18.953125 -1.40625 18.726562 -0.78125 18.28125 -0.34375 C 17.832031 0.09375 17.207031 0.3125 16.40625 0.3125 Z M 13.875 -9.53125 L 13.875 -21.9375 L 15.015625 -21.9375 L 5.640625 -8.1875 L 5.640625 -9.53125 Z M 13.875 -9.53125 "/></g></g></g><g fill="#000000" fill-opacity="1"><g transform="translate(212.178352, 50.302977)"><g><path d="M 11.921875 0.390625 C 8.609375 0.390625 6.078125 -0.859375 4.328125 -3.359375 C 2.578125 -5.859375 1.703125 -9.425781 1.703125 -14.0625 C 1.703125 -17.1875 2.09375 -19.816406 2.875 -21.953125 C 3.65625 -24.085938 4.804688 -25.695312 6.328125 -26.78125 C 7.859375 -27.863281 9.722656 -28.40625 11.921875 -28.40625 C 15.253906 -28.40625 17.785156 -27.1875 19.515625 -24.75 C 21.253906 -22.3125 22.125 -18.765625 22.125 -14.109375 C 22.125 -11.003906 21.734375 -8.375 20.953125 -6.21875 C 20.171875 -4.0625 19.023438 -2.421875 17.515625 -1.296875 C 16.015625 -0.171875 14.148438 0.390625 11.921875 0.390625 Z M 11.921875 -3.78125 C 13.722656 -3.78125 15.050781 -4.613281 15.90625 -6.28125 C 16.769531 -7.945312 17.203125 -10.554688 17.203125 -14.109375 C 17.203125 -17.660156 16.769531 -20.234375 15.90625 -21.828125 C 15.050781 -23.429688 13.722656 -24.234375 11.921875 -24.234375 C 10.148438 -24.234375 8.828125 -23.429688 7.953125 -21.828125 C 7.078125 -20.234375 6.640625 -17.660156 6.640625 -14.109375 C 6.640625 -10.554688 7.078125 -7.945312 7.953125 -6.28125 C 8.828125 -4.613281 10.148438 -3.78125 11.921875 -3.78125 Z M 11.921875 -3.78125 "/></g></g></g></svg>