<svg xmlns="http://www.w3.org/2000/svg" xmlns:xlink="http://www.w3.org/1999/xlink" width="817" zoomAndPan="magnify" viewBox="0 0 612.75 226.499993" height="302" preserveAspectRatio="xMidYMid meet" version="1.0"><defs><g/><clipPath id="a1b3900d82"><path d="M 0.558594 0 L 611.578125 0 L 611.578125 225.917969 L 0.558594 225.917969 Z M 0.558594 0 " clip-rule="nonzero"/></clipPath></defs><g clip-path="url(#a1b3900d82)"><path stroke-linecap="butt" transform="matrix(0.748348, 0, 0, 0.748348, 0.55807, 0)" fill="none" stroke-linejoin="miter" d="M 0.000699474 0 L 816.491905 0 L 816.491905 301.888933 L 0.000699474 301.888933 Z M 0.000699474 0 " stroke="#000000" stroke-width="12" stroke-opacity="1" stroke-miterlimit="4"/></g><g fill="#000000" fill-opacity="1"><g transform="translate(108.481816, 188.048342)"><g><path d="M 7.078125 0 C 6.046875 0 5.25 -0.289062 4.6875 -0.875 C 4.125 -1.457031 3.84375 -2.265625 3.84375 -3.296875 L 3.84375 -32.078125 C 3.84375 -33.140625 4.113281 -33.945312 4.65625 -34.5 C 5.207031 -35.050781 6 -35.328125 7.03125 -35.328125 C 8.0625 -35.328125 8.851562 -35.050781 9.40625 -34.5 C 9.957031 -33.945312 10.234375 -33.140625 10.234375 -32.078125 L 10.234375 -5.4375 L 24.703125 -5.4375 C 25.597656 -5.4375 26.285156 -5.203125 26.765625 -4.734375 C 27.242188 -4.273438 27.484375 -3.613281 27.484375 -2.75 C 27.484375 -1.882812 27.242188 -1.207031 26.765625 -0.71875 C 26.285156 -0.238281 25.597656 0 24.703125 0 Z M 7.078125 0 "/></g></g></g><g fill="#000000" fill-opacity="1"><g transform="translate(134.619961, 188.048342)"><g><path d="M 33.078125 5.640625 C 33.546875 6.367188 33.726562 7.03125 33.625 7.625 C 33.519531 8.226562 33.25 8.738281 32.8125 9.15625 C 32.382812 9.570312 31.851562 9.835938 31.21875 9.953125 C 30.59375 10.066406 29.960938 10 29.328125 9.75 C 28.703125 9.5 28.171875 9.023438 27.734375 8.328125 L 24.296875 2.796875 C 23.828125 2.023438 23.203125 1.445312 22.421875 1.0625 C 21.640625 0.6875 20.6875 0.5 19.5625 0.5 L 24.5 -1.453125 C 26.0625 -1.453125 27.304688 -1.175781 28.234375 -0.625 C 29.171875 -0.0703125 30.070312 0.882812 30.9375 2.25 Z M 19.609375 0.5 C 16.210938 0.5 13.242188 -0.242188 10.703125 -1.734375 C 8.160156 -3.234375 6.1875 -5.335938 4.78125 -8.046875 C 3.382812 -10.765625 2.6875 -13.953125 2.6875 -17.609375 C 2.6875 -20.367188 3.085938 -22.851562 3.890625 -25.0625 C 4.691406 -27.28125 5.832031 -29.175781 7.3125 -30.75 C 8.789062 -32.332031 10.566406 -33.546875 12.640625 -34.390625 C 14.722656 -35.242188 17.046875 -35.671875 19.609375 -35.671875 C 23.035156 -35.671875 26.007812 -34.929688 28.53125 -33.453125 C 31.0625 -31.972656 33.023438 -29.882812 34.421875 -27.1875 C 35.816406 -24.5 36.515625 -21.320312 36.515625 -17.65625 C 36.515625 -14.894531 36.113281 -12.398438 35.3125 -10.171875 C 34.519531 -7.941406 33.382812 -6.03125 31.90625 -4.4375 C 30.425781 -2.84375 28.644531 -1.617188 26.5625 -0.765625 C 24.488281 0.078125 22.171875 0.5 19.609375 0.5 Z M 19.609375 -4.984375 C 21.765625 -4.984375 23.597656 -5.484375 25.109375 -6.484375 C 26.628906 -7.484375 27.796875 -8.929688 28.609375 -10.828125 C 29.421875 -12.722656 29.828125 -14.984375 29.828125 -17.609375 C 29.828125 -21.597656 28.9375 -24.691406 27.15625 -26.890625 C 25.382812 -29.085938 22.867188 -30.1875 19.609375 -30.1875 C 17.472656 -30.1875 15.640625 -29.691406 14.109375 -28.703125 C 12.585938 -27.722656 11.414062 -26.296875 10.59375 -24.421875 C 9.78125 -22.546875 9.375 -20.273438 9.375 -17.609375 C 9.375 -13.648438 10.269531 -10.554688 12.0625 -8.328125 C 13.863281 -6.097656 16.378906 -4.984375 19.609375 -4.984375 Z M 19.609375 -4.984375 "/></g></g></g><g fill="#000000" fill-opacity="1"><g transform="translate(173.777448, 188.048342)"><g><path d="M 20.75 0.5 C 16.863281 0.5 13.582031 -0.226562 10.90625 -1.6875 C 8.226562 -3.15625 6.1875 -5.234375 4.78125 -7.921875 C 3.382812 -10.617188 2.6875 -13.816406 2.6875 -17.515625 C 2.6875 -20.304688 3.09375 -22.816406 3.90625 -25.046875 C 4.726562 -27.273438 5.910156 -29.175781 7.453125 -30.75 C 9.003906 -32.332031 10.894531 -33.546875 13.125 -34.390625 C 15.351562 -35.242188 17.878906 -35.671875 20.703125 -35.671875 C 22.566406 -35.671875 24.4375 -35.445312 26.3125 -35 C 28.195312 -34.550781 29.96875 -33.796875 31.625 -32.734375 C 32.195312 -32.359375 32.570312 -31.90625 32.75 -31.375 C 32.9375 -30.84375 32.960938 -30.300781 32.828125 -29.75 C 32.691406 -29.207031 32.441406 -28.734375 32.078125 -28.328125 C 31.710938 -27.929688 31.253906 -27.679688 30.703125 -27.578125 C 30.160156 -27.484375 29.554688 -27.617188 28.890625 -27.984375 C 27.617188 -28.722656 26.332031 -29.253906 25.03125 -29.578125 C 23.738281 -29.910156 22.296875 -30.078125 20.703125 -30.078125 C 18.242188 -30.078125 16.164062 -29.585938 14.46875 -28.609375 C 12.769531 -27.628906 11.492188 -26.207031 10.640625 -24.34375 C 9.796875 -22.476562 9.375 -20.203125 9.375 -17.515625 C 9.375 -13.421875 10.351562 -10.304688 12.3125 -8.171875 C 14.28125 -6.046875 17.191406 -4.984375 21.046875 -4.984375 C 22.378906 -4.984375 23.726562 -5.113281 25.09375 -5.375 C 26.457031 -5.644531 27.789062 -6.015625 29.09375 -6.484375 L 27.84375 -3.640625 L 27.84375 -14.265625 L 22.34375 -14.265625 C 21.519531 -14.265625 20.878906 -14.476562 20.421875 -14.90625 C 19.972656 -15.34375 19.75 -15.925781 19.75 -16.65625 C 19.75 -17.425781 19.972656 -18.007812 20.421875 -18.40625 C 20.878906 -18.8125 21.519531 -19.015625 22.34375 -19.015625 L 30.578125 -19.015625 C 31.410156 -19.015625 32.050781 -18.785156 32.5 -18.328125 C 32.945312 -17.878906 33.171875 -17.238281 33.171875 -16.40625 L 33.171875 -4.296875 C 33.171875 -3.554688 33.03125 -2.9375 32.75 -2.4375 C 32.46875 -1.945312 32.007812 -1.582031 31.375 -1.34375 C 29.914062 -0.8125 28.238281 -0.367188 26.34375 -0.015625 C 24.445312 0.328125 22.582031 0.5 20.75 0.5 Z M 20.75 0.5 "/></g></g></g><g fill="#000000" fill-opacity="1"><g transform="translate(210.490712, 188.048342)"><g><path d="M 7.03125 0.40625 C 6 0.40625 5.207031 0.113281 4.65625 -0.46875 C 4.113281 -1.050781 3.84375 -1.859375 3.84375 -2.890625 L 3.84375 -31.9375 C 3.84375 -33 4.125 -33.800781 4.6875 -34.34375 C 5.25 -34.894531 6.046875 -35.171875 7.078125 -35.171875 L 19.109375 -35.171875 C 22.960938 -35.171875 25.9375 -34.25 28.03125 -32.40625 C 30.132812 -30.5625 31.1875 -27.972656 31.1875 -24.640625 C 31.1875 -22.484375 30.710938 -20.625 29.765625 -19.0625 C 28.816406 -17.5 27.441406 -16.300781 25.640625 -15.46875 C 23.847656 -14.632812 21.671875 -14.21875 19.109375 -14.21875 L 19.5625 -14.96875 L 21.203125 -14.96875 C 22.566406 -14.96875 23.753906 -14.632812 24.765625 -13.96875 C 25.785156 -13.300781 26.675781 -12.253906 27.4375 -10.828125 L 31.1875 -3.890625 C 31.582031 -3.191406 31.765625 -2.507812 31.734375 -1.84375 C 31.703125 -1.175781 31.453125 -0.632812 30.984375 -0.21875 C 30.515625 0.195312 29.832031 0.40625 28.9375 0.40625 C 28.039062 0.40625 27.304688 0.210938 26.734375 -0.171875 C 26.171875 -0.554688 25.675781 -1.148438 25.25 -1.953125 L 20.203125 -11.21875 C 19.609375 -12.351562 18.898438 -13.109375 18.078125 -13.484375 C 17.265625 -13.867188 16.226562 -14.0625 14.96875 -14.0625 L 10.234375 -14.0625 L 10.234375 -2.890625 C 10.234375 -1.859375 9.960938 -1.050781 9.421875 -0.46875 C 8.890625 0.113281 8.09375 0.40625 7.03125 0.40625 Z M 10.234375 -18.8125 L 18.015625 -18.8125 C 20.304688 -18.8125 22.039062 -19.285156 23.21875 -20.234375 C 24.40625 -21.179688 25 -22.601562 25 -24.5 C 25 -26.363281 24.40625 -27.769531 23.21875 -28.71875 C 22.039062 -29.664062 20.304688 -30.140625 18.015625 -30.140625 L 10.234375 -30.140625 Z M 10.234375 -18.8125 "/></g></g></g><g fill="#000000" fill-opacity="1"><g transform="translate(244.460442, 188.048342)"><g><path d="M 33.078125 5.640625 C 33.546875 6.367188 33.726562 7.03125 33.625 7.625 C 33.519531 8.226562 33.25 8.738281 32.8125 9.15625 C 32.382812 9.570312 31.851562 9.835938 31.21875 9.953125 C 30.59375 10.066406 29.960938 10 29.328125 9.75 C 28.703125 9.5 28.171875 9.023438 27.734375 8.328125 L 24.296875 2.796875 C 23.828125 2.023438 23.203125 1.445312 22.421875 1.0625 C 21.640625 0.6875 20.6875 0.5 19.5625 0.5 L 24.5 -1.453125 C 26.0625 -1.453125 27.304688 -1.175781 28.234375 -0.625 C 29.171875 -0.0703125 30.070312 0.882812 30.9375 2.25 Z M 19.609375 0.5 C 16.210938 0.5 13.242188 -0.242188 10.703125 -1.734375 C 8.160156 -3.234375 6.1875 -5.335938 4.78125 -8.046875 C 3.382812 -10.765625 2.6875 -13.953125 2.6875 -17.609375 C 2.6875 -20.367188 3.085938 -22.851562 3.890625 -25.0625 C 4.691406 -27.28125 5.832031 -29.175781 7.3125 -30.75 C 8.789062 -32.332031 10.566406 -33.546875 12.640625 -34.390625 C 14.722656 -35.242188 17.046875 -35.671875 19.609375 -35.671875 C 23.035156 -35.671875 26.007812 -34.929688 28.53125 -33.453125 C 31.0625 -31.972656 33.023438 -29.882812 34.421875 -27.1875 C 35.816406 -24.5 36.515625 -21.320312 36.515625 -17.65625 C 36.515625 -14.894531 36.113281 -12.398438 35.3125 -10.171875 C 34.519531 -7.941406 33.382812 -6.03125 31.90625 -4.4375 C 30.425781 -2.84375 28.644531 -1.617188 26.5625 -0.765625 C 24.488281 0.078125 22.171875 0.5 19.609375 0.5 Z M 19.609375 -4.984375 C 21.765625 -4.984375 23.597656 -5.484375 25.109375 -6.484375 C 26.628906 -7.484375 27.796875 -8.929688 28.609375 -10.828125 C 29.421875 -12.722656 29.828125 -14.984375 29.828125 -17.609375 C 29.828125 -21.597656 28.9375 -24.691406 27.15625 -26.890625 C 25.382812 -29.085938 22.867188 -30.1875 19.609375 -30.1875 C 17.472656 -30.1875 15.640625 -29.691406 14.109375 -28.703125 C 12.585938 -27.722656 11.414062 -26.296875 10.59375 -24.421875 C 9.78125 -22.546875 9.375 -20.273438 9.375 -17.609375 C 9.375 -13.648438 10.269531 -10.554688 12.0625 -8.328125 C 13.863281 -6.097656 16.378906 -4.984375 19.609375 -4.984375 Z M 19.609375 -4.984375 "/></g></g></g><g fill="#000000" fill-opacity="1"><g transform="translate(283.617929, 188.048342)"><g><path d="M 7.03125 0.40625 C 6 0.40625 5.207031 0.113281 4.65625 -0.46875 C 4.113281 -1.050781 3.84375 -1.859375 3.84375 -2.890625 L 3.84375 -32.28125 C 3.84375 -33.34375 4.113281 -34.15625 4.65625 -34.71875 C 5.207031 -35.289062 6 -35.578125 7.03125 -35.578125 C 8.0625 -35.578125 8.851562 -35.289062 9.40625 -34.71875 C 9.957031 -34.15625 10.234375 -33.34375 10.234375 -32.28125 L 10.234375 -20.5 L 28.34375 -20.5 L 28.34375 -32.28125 C 28.34375 -33.34375 28.613281 -34.15625 29.15625 -34.71875 C 29.707031 -35.289062 30.5 -35.578125 31.53125 -35.578125 C 32.5625 -35.578125 33.347656 -35.289062 33.890625 -34.71875 C 34.441406 -34.15625 34.71875 -33.34375 34.71875 -32.28125 L 34.71875 -2.890625 C 34.71875 -1.859375 34.441406 -1.050781 33.890625 -0.46875 C 33.347656 0.113281 32.5625 0.40625 31.53125 0.40625 C 30.5 0.40625 29.707031 0.113281 29.15625 -0.46875 C 28.613281 -1.050781 28.34375 -1.859375 28.34375 -2.890625 L 28.34375 -15.171875 L 10.234375 -15.171875 L 10.234375 -2.890625 C 10.234375 -1.859375 9.960938 -1.050781 9.421875 -0.46875 C 8.890625 0.113281 8.09375 0.40625 7.03125 0.40625 Z M 7.03125 0.40625 "/></g></g></g><g fill="#000000" fill-opacity="1"><g transform="translate(322.176816, 188.048342)"><g><path d="M 17.8125 0.40625 C 16.914062 0.40625 16.175781 0.195312 15.59375 -0.21875 C 15.007812 -0.632812 14.535156 -1.257812 14.171875 -2.09375 L 1.140625 -31.328125 C 0.773438 -32.160156 0.675781 -32.890625 0.84375 -33.515625 C 1.007812 -34.148438 1.359375 -34.648438 1.890625 -35.015625 C 2.421875 -35.390625 3.054688 -35.578125 3.796875 -35.578125 C 4.753906 -35.578125 5.472656 -35.367188 5.953125 -34.953125 C 6.441406 -34.535156 6.851562 -33.910156 7.1875 -33.078125 L 19.015625 -5.6875 L 16.859375 -5.6875 L 28.640625 -33.125 C 29.003906 -33.925781 29.4375 -34.535156 29.9375 -34.953125 C 30.4375 -35.367188 31.132812 -35.578125 32.03125 -35.578125 C 32.757812 -35.578125 33.363281 -35.390625 33.84375 -35.015625 C 34.332031 -34.648438 34.640625 -34.148438 34.765625 -33.515625 C 34.898438 -32.890625 34.785156 -32.160156 34.421875 -31.328125 L 21.40625 -2.09375 C 21.039062 -1.257812 20.582031 -0.632812 20.03125 -0.21875 C 19.476562 0.195312 18.738281 0.40625 17.8125 0.40625 Z M 17.8125 0.40625 "/></g></g></g><g fill="#000000" fill-opacity="1"><g transform="translate(357.742802, 188.048342)"><g><path d="M 7.078125 0 C 6.046875 0 5.25 -0.289062 4.6875 -0.875 C 4.125 -1.457031 3.84375 -2.265625 3.84375 -3.296875 L 3.84375 -32.078125 C 3.84375 -33.140625 4.113281 -33.945312 4.65625 -34.5 C 5.207031 -35.050781 6 -35.328125 7.03125 -35.328125 C 8.0625 -35.328125 8.851562 -35.050781 9.40625 -34.5 C 9.957031 -33.945312 10.234375 -33.140625 10.234375 -32.078125 L 10.234375 -5.4375 L 24.703125 -5.4375 C 25.597656 -5.4375 26.285156 -5.203125 26.765625 -4.734375 C 27.242188 -4.273438 27.484375 -3.613281 27.484375 -2.75 C 27.484375 -1.882812 27.242188 -1.207031 26.765625 -0.71875 C 26.285156 -0.238281 25.597656 0 24.703125 0 Z M 7.078125 0 "/></g></g></g><g fill="#000000" fill-opacity="1"><g transform="translate(385.776573, 188.048342)"><g><path d="M 7.234375 0 C 6.140625 0 5.300781 -0.289062 4.71875 -0.875 C 4.132812 -1.457031 3.84375 -2.296875 3.84375 -3.390625 L 3.84375 -31.78125 C 3.84375 -32.875 4.132812 -33.710938 4.71875 -34.296875 C 5.300781 -34.878906 6.140625 -35.171875 7.234375 -35.171875 L 16.90625 -35.171875 C 22.800781 -35.171875 27.351562 -33.65625 30.5625 -30.625 C 33.769531 -27.601562 35.375 -23.265625 35.375 -17.609375 C 35.375 -14.785156 34.960938 -12.28125 34.140625 -10.09375 C 33.328125 -7.914062 32.128906 -6.078125 30.546875 -4.578125 C 28.972656 -3.085938 27.046875 -1.953125 24.765625 -1.171875 C 22.492188 -0.390625 19.875 0 16.90625 0 Z M 10.234375 -5.28125 L 16.515625 -5.28125 C 18.578125 -5.28125 20.363281 -5.535156 21.875 -6.046875 C 23.382812 -6.566406 24.644531 -7.332031 25.65625 -8.34375 C 26.675781 -9.363281 27.4375 -10.644531 27.9375 -12.1875 C 28.4375 -13.738281 28.6875 -15.546875 28.6875 -17.609375 C 28.6875 -21.734375 27.671875 -24.8125 25.640625 -26.84375 C 23.609375 -28.875 20.566406 -29.890625 16.515625 -29.890625 L 10.234375 -29.890625 Z M 10.234375 -5.28125 "/></g></g></g><g fill="#000000" fill-opacity="1"><g transform="translate(423.786771, 188.048342)"><g/></g></g><g fill="#000000" fill-opacity="1"><g transform="translate(437.304834, 188.048342)"><g><path d="M 4.640625 -17.109375 C 3.941406 -17.109375 3.390625 -17.300781 2.984375 -17.6875 C 2.585938 -18.070312 2.390625 -18.613281 2.390625 -19.3125 C 2.390625 -20.007812 2.585938 -20.546875 2.984375 -20.921875 C 3.390625 -21.304688 3.941406 -21.5 4.640625 -21.5 L 25.296875 -21.5 C 26.023438 -21.5 26.582031 -21.304688 26.96875 -20.921875 C 27.351562 -20.546875 27.546875 -20.007812 27.546875 -19.3125 C 27.546875 -18.613281 27.351562 -18.070312 26.96875 -17.6875 C 26.582031 -17.300781 26.023438 -17.109375 25.296875 -17.109375 Z M 4.640625 -7.1875 C 3.941406 -7.1875 3.390625 -7.375 2.984375 -7.75 C 2.585938 -8.132812 2.390625 -8.675781 2.390625 -9.375 C 2.390625 -10.070312 2.585938 -10.601562 2.984375 -10.96875 C 3.390625 -11.34375 3.941406 -11.53125 4.640625 -11.53125 L 25.296875 -11.53125 C 26.023438 -11.53125 26.582031 -11.34375 26.96875 -10.96875 C 27.351562 -10.601562 27.546875 -10.070312 27.546875 -9.375 C 27.546875 -8.644531 27.351562 -8.097656 26.96875 -7.734375 C 26.582031 -7.367188 26.023438 -7.1875 25.296875 -7.1875 Z M 4.640625 -7.1875 "/></g></g></g><g fill="#000000" fill-opacity="1"><g transform="translate(467.234116, 188.048342)"><g/></g></g><g fill="#000000" fill-opacity="1"><g transform="translate(480.752179, 188.048342)"><g><path d="M 11.125 -10.171875 C 10.488281 -10.171875 9.992188 -10.378906 9.640625 -10.796875 C 9.296875 -11.210938 9.125 -11.769531 9.125 -12.46875 C 9.125 -13.5 9.25 -14.472656 9.5 -15.390625 C 9.75 -16.304688 10.15625 -17.226562 10.71875 -18.15625 C 11.289062 -19.09375 12.039062 -20.078125 12.96875 -21.109375 C 13.664062 -21.898438 14.222656 -22.601562 14.640625 -23.21875 C 15.054688 -23.832031 15.351562 -24.421875 15.53125 -24.984375 C 15.71875 -25.554688 15.8125 -26.140625 15.8125 -26.734375 C 15.8125 -27.835938 15.410156 -28.703125 14.609375 -29.328125 C 13.816406 -29.960938 12.6875 -30.28125 11.21875 -30.28125 C 9.894531 -30.28125 8.691406 -30.101562 7.609375 -29.75 C 6.523438 -29.40625 5.4375 -28.914062 4.34375 -28.28125 C 3.613281 -27.851562 2.957031 -27.660156 2.375 -27.703125 C 1.789062 -27.753906 1.316406 -27.960938 0.953125 -28.328125 C 0.585938 -28.703125 0.351562 -29.15625 0.25 -29.6875 C 0.144531 -30.21875 0.222656 -30.765625 0.484375 -31.328125 C 0.753906 -31.890625 1.242188 -32.40625 1.953125 -32.875 C 3.304688 -33.769531 4.863281 -34.457031 6.625 -34.9375 C 8.394531 -35.425781 10.0625 -35.671875 11.625 -35.671875 C 13.71875 -35.671875 15.550781 -35.320312 17.125 -34.625 C 18.707031 -33.925781 19.941406 -32.960938 20.828125 -31.734375 C 21.710938 -30.503906 22.15625 -29.054688 22.15625 -27.390625 C 22.15625 -26.359375 22.003906 -25.382812 21.703125 -24.46875 C 21.398438 -23.550781 20.914062 -22.632812 20.25 -21.71875 C 19.582031 -20.8125 18.671875 -19.828125 17.515625 -18.765625 C 16.484375 -17.828125 15.660156 -16.972656 15.046875 -16.203125 C 14.429688 -15.441406 13.976562 -14.710938 13.6875 -14.015625 C 13.40625 -13.316406 13.21875 -12.570312 13.125 -11.78125 C 13.09375 -11.3125 12.898438 -10.925781 12.546875 -10.625 C 12.203125 -10.320312 11.726562 -10.171875 11.125 -10.171875 Z M 11.03125 0.25 C 9.894531 0.25 8.984375 -0.0976562 8.296875 -0.796875 C 7.617188 -1.492188 7.28125 -2.394531 7.28125 -3.5 C 7.28125 -4.5625 7.617188 -5.429688 8.296875 -6.109375 C 8.984375 -6.796875 9.894531 -7.140625 11.03125 -7.140625 C 12.1875 -7.140625 13.085938 -6.796875 13.734375 -6.109375 C 14.390625 -5.429688 14.71875 -4.5625 14.71875 -3.5 C 14.71875 -2.394531 14.390625 -1.492188 13.734375 -0.796875 C 13.085938 -0.0976562 12.1875 0.25 11.03125 0.25 Z M 11.03125 0.25 "/></g></g></g><g fill="#000000" fill-opacity="1"><g transform="translate(22.906764, 69.310443)"><g><path d="M 20.203125 0.5 C 16.546875 0.5 13.410156 -0.238281 10.796875 -1.71875 C 8.191406 -3.195312 6.1875 -5.289062 4.78125 -8 C 3.382812 -10.71875 2.6875 -13.921875 2.6875 -17.609375 C 2.6875 -20.367188 3.085938 -22.851562 3.890625 -25.0625 C 4.691406 -27.28125 5.835938 -29.175781 7.328125 -30.75 C 8.828125 -32.332031 10.664062 -33.546875 12.84375 -34.390625 C 15.019531 -35.242188 17.472656 -35.671875 20.203125 -35.671875 C 22.035156 -35.671875 23.832031 -35.4375 25.59375 -34.96875 C 27.351562 -34.507812 28.898438 -33.847656 30.234375 -32.984375 C 30.929688 -32.546875 31.394531 -32.019531 31.625 -31.40625 C 31.863281 -30.789062 31.914062 -30.191406 31.78125 -29.609375 C 31.644531 -29.023438 31.367188 -28.535156 30.953125 -28.140625 C 30.535156 -27.742188 30.019531 -27.519531 29.40625 -27.46875 C 28.789062 -27.414062 28.117188 -27.625 27.390625 -28.09375 C 26.359375 -28.757812 25.242188 -29.238281 24.046875 -29.53125 C 22.847656 -29.832031 21.632812 -29.984375 20.40625 -29.984375 C 18.039062 -29.984375 16.039062 -29.5 14.40625 -28.53125 C 12.78125 -27.570312 11.550781 -26.175781 10.71875 -24.34375 C 9.894531 -22.519531 9.484375 -20.273438 9.484375 -17.609375 C 9.484375 -14.984375 9.894531 -12.738281 10.71875 -10.875 C 11.550781 -9.007812 12.78125 -7.59375 14.40625 -6.625 C 16.039062 -5.664062 18.039062 -5.1875 20.40625 -5.1875 C 21.664062 -5.1875 22.910156 -5.34375 24.140625 -5.65625 C 25.378906 -5.976562 26.546875 -6.472656 27.640625 -7.140625 C 28.367188 -7.566406 29.023438 -7.753906 29.609375 -7.703125 C 30.191406 -7.660156 30.679688 -7.453125 31.078125 -7.078125 C 31.484375 -6.710938 31.75 -6.253906 31.875 -5.703125 C 32.007812 -5.160156 31.976562 -4.597656 31.78125 -4.015625 C 31.582031 -3.429688 31.179688 -2.925781 30.578125 -2.5 C 29.253906 -1.53125 27.664062 -0.785156 25.8125 -0.265625 C 23.96875 0.242188 22.097656 0.5 20.203125 0.5 Z M 20.203125 0.5 "/></g></g></g><g fill="#000000" fill-opacity="1"><g transform="translate(55.080657, 69.310443)"><g><path d="M 14.375 0.5 C 11.84375 0.5 9.644531 -0.015625 7.78125 -1.046875 C 5.914062 -2.078125 4.46875 -3.546875 3.4375 -5.453125 C 2.40625 -7.367188 1.890625 -9.625 1.890625 -12.21875 C 1.890625 -14.1875 2.179688 -15.941406 2.765625 -17.484375 C 3.347656 -19.035156 4.1875 -20.367188 5.28125 -21.484375 C 6.382812 -22.597656 7.703125 -23.441406 9.234375 -24.015625 C 10.765625 -24.597656 12.476562 -24.890625 14.375 -24.890625 C 16.894531 -24.890625 19.085938 -24.375 20.953125 -23.34375 C 22.816406 -22.3125 24.265625 -20.847656 25.296875 -18.953125 C 26.328125 -17.054688 26.84375 -14.8125 26.84375 -12.21875 C 26.84375 -10.257812 26.550781 -8.5 25.96875 -6.9375 C 25.382812 -5.375 24.539062 -4.035156 23.4375 -2.921875 C 22.34375 -1.804688 21.03125 -0.957031 19.5 -0.375 C 17.976562 0.207031 16.269531 0.5 14.375 0.5 Z M 14.375 -4.234375 C 15.601562 -4.234375 16.679688 -4.53125 17.609375 -5.125 C 18.546875 -5.726562 19.269531 -6.617188 19.78125 -7.796875 C 20.300781 -8.984375 20.5625 -10.457031 20.5625 -12.21875 C 20.5625 -14.882812 19.992188 -16.875 18.859375 -18.1875 C 17.722656 -19.5 16.226562 -20.15625 14.375 -20.15625 C 13.132812 -20.15625 12.050781 -19.863281 11.125 -19.28125 C 10.195312 -18.695312 9.472656 -17.816406 8.953125 -16.640625 C 8.441406 -15.460938 8.1875 -13.988281 8.1875 -12.21875 C 8.1875 -9.59375 8.75 -7.601562 9.875 -6.25 C 11.007812 -4.90625 12.507812 -4.234375 14.375 -4.234375 Z M 14.375 -4.234375 "/></g></g></g><g fill="#000000" fill-opacity="1"><g transform="translate(83.812772, 69.310443)"><g><path d="M 17.3125 0.5 C 15.25 0.5 13.441406 -0.015625 11.890625 -1.046875 C 10.347656 -2.078125 9.328125 -3.457031 8.828125 -5.1875 L 9.375 -6.4375 L 9.375 -2.796875 C 9.375 -1.765625 9.109375 -0.972656 8.578125 -0.421875 C 8.046875 0.128906 7.300781 0.40625 6.34375 0.40625 C 5.34375 0.40625 4.578125 0.128906 4.046875 -0.421875 C 3.515625 -0.972656 3.25 -1.765625 3.25 -2.796875 L 3.25 -32.421875 C 3.25 -33.453125 3.515625 -34.234375 4.046875 -34.765625 C 4.578125 -35.304688 5.34375 -35.578125 6.34375 -35.578125 C 7.332031 -35.578125 8.101562 -35.304688 8.65625 -34.765625 C 9.207031 -34.234375 9.484375 -33.453125 9.484375 -32.421875 L 9.484375 -19.453125 L 8.875 -19.453125 C 9.40625 -21.085938 10.4375 -22.398438 11.96875 -23.390625 C 13.5 -24.390625 15.28125 -24.890625 17.3125 -24.890625 C 19.476562 -24.890625 21.359375 -24.375 22.953125 -23.34375 C 24.546875 -22.3125 25.789062 -20.859375 26.6875 -18.984375 C 27.582031 -17.109375 28.03125 -14.851562 28.03125 -12.21875 C 28.03125 -9.625 27.582031 -7.367188 26.6875 -5.453125 C 25.789062 -3.546875 24.535156 -2.078125 22.921875 -1.046875 C 21.304688 -0.015625 19.4375 0.5 17.3125 0.5 Z M 15.5625 -4.234375 C 16.789062 -4.234375 17.867188 -4.53125 18.796875 -5.125 C 19.734375 -5.726562 20.457031 -6.617188 20.96875 -7.796875 C 21.488281 -8.984375 21.75 -10.457031 21.75 -12.21875 C 21.75 -14.882812 21.179688 -16.875 20.046875 -18.1875 C 18.921875 -19.5 17.425781 -20.15625 15.5625 -20.15625 C 14.332031 -20.15625 13.25 -19.863281 12.3125 -19.28125 C 11.382812 -18.695312 10.660156 -17.816406 10.140625 -16.640625 C 9.628906 -15.460938 9.375 -13.988281 9.375 -12.21875 C 9.375 -9.59375 9.9375 -7.601562 11.0625 -6.25 C 12.195312 -4.90625 13.695312 -4.234375 15.5625 -4.234375 Z M 15.5625 -4.234375 "/></g></g></g><g fill="#000000" fill-opacity="1"><g transform="translate(113.742054, 69.310443)"><g><path d="M 11.28125 0.5 C 9.507812 0.5 7.929688 0.160156 6.546875 -0.515625 C 5.171875 -1.203125 4.09375 -2.125 3.3125 -3.28125 C 2.53125 -4.445312 2.140625 -5.765625 2.140625 -7.234375 C 2.140625 -9.023438 2.601562 -10.445312 3.53125 -11.5 C 4.46875 -12.550781 5.984375 -13.304688 8.078125 -13.765625 C 10.171875 -14.234375 12.984375 -14.46875 16.515625 -14.46875 L 19.015625 -14.46875 L 19.015625 -10.875 L 16.5625 -10.875 C 14.5 -10.875 12.851562 -10.773438 11.625 -10.578125 C 10.394531 -10.378906 9.519531 -10.035156 9 -9.546875 C 8.488281 -9.066406 8.234375 -8.394531 8.234375 -7.53125 C 8.234375 -6.4375 8.613281 -5.539062 9.375 -4.84375 C 10.144531 -4.144531 11.210938 -3.796875 12.578125 -3.796875 C 13.671875 -3.796875 14.640625 -4.050781 15.484375 -4.5625 C 16.335938 -5.082031 17.015625 -5.789062 17.515625 -6.6875 C 18.015625 -7.582031 18.265625 -8.613281 18.265625 -9.78125 L 18.265625 -15.515625 C 18.265625 -17.179688 17.894531 -18.378906 17.15625 -19.109375 C 16.425781 -19.835938 15.195312 -20.203125 13.46875 -20.203125 C 12.507812 -20.203125 11.472656 -20.082031 10.359375 -19.84375 C 9.242188 -19.613281 8.066406 -19.21875 6.828125 -18.65625 C 6.203125 -18.351562 5.644531 -18.269531 5.15625 -18.40625 C 4.675781 -18.539062 4.300781 -18.816406 4.03125 -19.234375 C 3.769531 -19.648438 3.640625 -20.109375 3.640625 -20.609375 C 3.640625 -21.109375 3.769531 -21.597656 4.03125 -22.078125 C 4.300781 -22.554688 4.753906 -22.914062 5.390625 -23.15625 C 6.921875 -23.78125 8.390625 -24.222656 9.796875 -24.484375 C 11.210938 -24.753906 12.503906 -24.890625 13.671875 -24.890625 C 16.066406 -24.890625 18.035156 -24.523438 19.578125 -23.796875 C 21.128906 -23.066406 22.285156 -21.960938 23.046875 -20.484375 C 23.816406 -19.003906 24.203125 -17.097656 24.203125 -14.765625 L 24.203125 -2.796875 C 24.203125 -1.765625 23.953125 -0.972656 23.453125 -0.421875 C 22.953125 0.128906 22.234375 0.40625 21.296875 0.40625 C 20.367188 0.40625 19.644531 0.128906 19.125 -0.421875 C 18.613281 -0.972656 18.359375 -1.765625 18.359375 -2.796875 L 18.359375 -5.1875 L 18.765625 -5.1875 C 18.523438 -4.019531 18.0625 -3.007812 17.375 -2.15625 C 16.695312 -1.3125 15.84375 -0.65625 14.8125 -0.1875 C 13.78125 0.269531 12.601562 0.5 11.28125 0.5 Z M 11.28125 0.5 "/></g></g></g><g fill="#000000" fill-opacity="1"><g transform="translate(141.027591, 69.310443)"><g/></g></g><g fill="#000000" fill-opacity="1"><g transform="translate(154.545654, 69.310443)"><g><path d="M 14.421875 0.5 C 12.253906 0.5 10.445312 0.132812 9 -0.59375 C 7.550781 -1.332031 6.476562 -2.40625 5.78125 -3.8125 C 5.082031 -5.226562 4.734375 -6.984375 4.734375 -9.078125 L 4.734375 -19.703125 L 2.140625 -19.703125 C 1.347656 -19.703125 0.734375 -19.910156 0.296875 -20.328125 C -0.128906 -20.742188 -0.34375 -21.316406 -0.34375 -22.046875 C -0.34375 -22.816406 -0.128906 -23.398438 0.296875 -23.796875 C 0.734375 -24.191406 1.347656 -24.390625 2.140625 -24.390625 L 4.734375 -24.390625 L 4.734375 -28.9375 C 4.734375 -29.96875 5.007812 -30.75 5.5625 -31.28125 C 6.113281 -31.8125 6.882812 -32.078125 7.875 -32.078125 C 8.875 -32.078125 9.640625 -31.8125 10.171875 -31.28125 C 10.703125 -30.75 10.96875 -29.96875 10.96875 -28.9375 L 10.96875 -24.390625 L 16.265625 -24.390625 C 17.066406 -24.390625 17.679688 -24.191406 18.109375 -23.796875 C 18.546875 -23.398438 18.765625 -22.816406 18.765625 -22.046875 C 18.765625 -21.316406 18.546875 -20.742188 18.109375 -20.328125 C 17.679688 -19.910156 17.066406 -19.703125 16.265625 -19.703125 L 10.96875 -19.703125 L 10.96875 -9.421875 C 10.96875 -7.828125 11.316406 -6.628906 12.015625 -5.828125 C 12.722656 -5.035156 13.859375 -4.640625 15.421875 -4.640625 C 15.984375 -4.640625 16.476562 -4.6875 16.90625 -4.78125 C 17.34375 -4.882812 17.726562 -4.953125 18.0625 -4.984375 C 18.457031 -5.015625 18.785156 -4.890625 19.046875 -4.609375 C 19.316406 -4.328125 19.453125 -3.753906 19.453125 -2.890625 C 19.453125 -2.222656 19.34375 -1.628906 19.125 -1.109375 C 18.914062 -0.597656 18.523438 -0.242188 17.953125 -0.046875 C 17.523438 0.0859375 16.960938 0.210938 16.265625 0.328125 C 15.566406 0.441406 14.953125 0.5 14.421875 0.5 Z M 14.421875 0.5 "/></g></g></g><g fill="#000000" fill-opacity="1"><g transform="translate(173.450975, 69.310443)"><g><path d="M 15.265625 0.5 C 12.503906 0.5 10.125 -0.015625 8.125 -1.046875 C 6.132812 -2.078125 4.597656 -3.539062 3.515625 -5.4375 C 2.429688 -7.332031 1.890625 -9.578125 1.890625 -12.171875 C 1.890625 -14.703125 2.410156 -16.914062 3.453125 -18.8125 C 4.503906 -20.707031 5.953125 -22.191406 7.796875 -23.265625 C 9.648438 -24.347656 11.757812 -24.890625 14.125 -24.890625 C 15.851562 -24.890625 17.40625 -24.609375 18.78125 -24.046875 C 20.164062 -23.484375 21.347656 -22.664062 22.328125 -21.59375 C 23.304688 -20.53125 24.050781 -19.242188 24.5625 -17.734375 C 25.082031 -16.222656 25.34375 -14.519531 25.34375 -12.625 C 25.34375 -12.019531 25.132812 -11.5625 24.71875 -11.25 C 24.300781 -10.9375 23.710938 -10.78125 22.953125 -10.78125 L 6.9375 -10.78125 L 6.9375 -14.375 L 20.953125 -14.375 L 20.15625 -13.625 C 20.15625 -15.15625 19.929688 -16.4375 19.484375 -17.46875 C 19.035156 -18.5 18.382812 -19.285156 17.53125 -19.828125 C 16.6875 -20.378906 15.632812 -20.65625 14.375 -20.65625 C 12.96875 -20.65625 11.773438 -20.328125 10.796875 -19.671875 C 9.816406 -19.023438 9.066406 -18.113281 8.546875 -16.9375 C 8.035156 -15.757812 7.78125 -14.351562 7.78125 -12.71875 L 7.78125 -12.375 C 7.78125 -9.644531 8.421875 -7.601562 9.703125 -6.25 C 10.984375 -4.90625 12.867188 -4.234375 15.359375 -4.234375 C 16.222656 -4.234375 17.195312 -4.34375 18.28125 -4.5625 C 19.363281 -4.78125 20.390625 -5.15625 21.359375 -5.6875 C 22.054688 -6.082031 22.671875 -6.253906 23.203125 -6.203125 C 23.734375 -6.160156 24.15625 -5.972656 24.46875 -5.640625 C 24.78125 -5.304688 24.96875 -4.894531 25.03125 -4.40625 C 25.101562 -3.925781 25.015625 -3.4375 24.765625 -2.9375 C 24.515625 -2.4375 24.09375 -2.003906 23.5 -1.640625 C 22.332031 -0.910156 20.992188 -0.367188 19.484375 -0.015625 C 17.972656 0.328125 16.566406 0.5 15.265625 0.5 Z M 15.265625 0.5 "/></g></g></g><g fill="#000000" fill-opacity="1"><g transform="translate(200.4871, 69.310443)"><g><path d="M 17.3125 0.5 C 15.25 0.5 13.441406 -0.015625 11.890625 -1.046875 C 10.347656 -2.078125 9.328125 -3.457031 8.828125 -5.1875 L 9.375 -6.4375 L 9.375 -2.796875 C 9.375 -1.765625 9.109375 -0.972656 8.578125 -0.421875 C 8.046875 0.128906 7.300781 0.40625 6.34375 0.40625 C 5.34375 0.40625 4.578125 0.128906 4.046875 -0.421875 C 3.515625 -0.972656 3.25 -1.765625 3.25 -2.796875 L 3.25 -32.421875 C 3.25 -33.453125 3.515625 -34.234375 4.046875 -34.765625 C 4.578125 -35.304688 5.34375 -35.578125 6.34375 -35.578125 C 7.332031 -35.578125 8.101562 -35.304688 8.65625 -34.765625 C 9.207031 -34.234375 9.484375 -33.453125 9.484375 -32.421875 L 9.484375 -19.453125 L 8.875 -19.453125 C 9.40625 -21.085938 10.4375 -22.398438 11.96875 -23.390625 C 13.5 -24.390625 15.28125 -24.890625 17.3125 -24.890625 C 19.476562 -24.890625 21.359375 -24.375 22.953125 -23.34375 C 24.546875 -22.3125 25.789062 -20.859375 26.6875 -18.984375 C 27.582031 -17.109375 28.03125 -14.851562 28.03125 -12.21875 C 28.03125 -9.625 27.582031 -7.367188 26.6875 -5.453125 C 25.789062 -3.546875 24.535156 -2.078125 22.921875 -1.046875 C 21.304688 -0.015625 19.4375 0.5 17.3125 0.5 Z M 15.5625 -4.234375 C 16.789062 -4.234375 17.867188 -4.53125 18.796875 -5.125 C 19.734375 -5.726562 20.457031 -6.617188 20.96875 -7.796875 C 21.488281 -8.984375 21.75 -10.457031 21.75 -12.21875 C 21.75 -14.882812 21.179688 -16.875 20.046875 -18.1875 C 18.921875 -19.5 17.425781 -20.15625 15.5625 -20.15625 C 14.332031 -20.15625 13.25 -19.863281 12.3125 -19.28125 C 11.382812 -18.695312 10.660156 -17.816406 10.140625 -16.640625 C 9.628906 -15.460938 9.375 -13.988281 9.375 -12.21875 C 9.375 -9.59375 9.9375 -7.601562 11.0625 -6.25 C 12.195312 -4.90625 13.695312 -4.234375 15.5625 -4.234375 Z M 15.5625 -4.234375 "/></g></g></g><g fill="#000000" fill-opacity="1"><g transform="translate(230.416383, 69.310443)"><g><path d="M 11.28125 0.5 C 9.507812 0.5 7.929688 0.160156 6.546875 -0.515625 C 5.171875 -1.203125 4.09375 -2.125 3.3125 -3.28125 C 2.53125 -4.445312 2.140625 -5.765625 2.140625 -7.234375 C 2.140625 -9.023438 2.601562 -10.445312 3.53125 -11.5 C 4.46875 -12.550781 5.984375 -13.304688 8.078125 -13.765625 C 10.171875 -14.234375 12.984375 -14.46875 16.515625 -14.46875 L 19.015625 -14.46875 L 19.015625 -10.875 L 16.5625 -10.875 C 14.5 -10.875 12.851562 -10.773438 11.625 -10.578125 C 10.394531 -10.378906 9.519531 -10.035156 9 -9.546875 C 8.488281 -9.066406 8.234375 -8.394531 8.234375 -7.53125 C 8.234375 -6.4375 8.613281 -5.539062 9.375 -4.84375 C 10.144531 -4.144531 11.210938 -3.796875 12.578125 -3.796875 C 13.671875 -3.796875 14.640625 -4.050781 15.484375 -4.5625 C 16.335938 -5.082031 17.015625 -5.789062 17.515625 -6.6875 C 18.015625 -7.582031 18.265625 -8.613281 18.265625 -9.78125 L 18.265625 -15.515625 C 18.265625 -17.179688 17.894531 -18.378906 17.15625 -19.109375 C 16.425781 -19.835938 15.195312 -20.203125 13.46875 -20.203125 C 12.507812 -20.203125 11.472656 -20.082031 10.359375 -19.84375 C 9.242188 -19.613281 8.066406 -19.21875 6.828125 -18.65625 C 6.203125 -18.351562 5.644531 -18.269531 5.15625 -18.40625 C 4.675781 -18.539062 4.300781 -18.816406 4.03125 -19.234375 C 3.769531 -19.648438 3.640625 -20.109375 3.640625 -20.609375 C 3.640625 -21.109375 3.769531 -21.597656 4.03125 -22.078125 C 4.300781 -22.554688 4.753906 -22.914062 5.390625 -23.15625 C 6.921875 -23.78125 8.390625 -24.222656 9.796875 -24.484375 C 11.210938 -24.753906 12.503906 -24.890625 13.671875 -24.890625 C 16.066406 -24.890625 18.035156 -24.523438 19.578125 -23.796875 C 21.128906 -23.066406 22.285156 -21.960938 23.046875 -20.484375 C 23.816406 -19.003906 24.203125 -17.097656 24.203125 -14.765625 L 24.203125 -2.796875 C 24.203125 -1.765625 23.953125 -0.972656 23.453125 -0.421875 C 22.953125 0.128906 22.234375 0.40625 21.296875 0.40625 C 20.367188 0.40625 19.644531 0.128906 19.125 -0.421875 C 18.613281 -0.972656 18.359375 -1.765625 18.359375 -2.796875 L 18.359375 -5.1875 L 18.765625 -5.1875 C 18.523438 -4.019531 18.0625 -3.007812 17.375 -2.15625 C 16.695312 -1.3125 15.84375 -0.65625 14.8125 -0.1875 C 13.78125 0.269531 12.601562 0.5 11.28125 0.5 Z M 11.28125 0.5 "/></g></g></g><g fill="#000000" fill-opacity="1"><g transform="translate(257.70192, 69.310443)"><g><path d="M 6.34375 0.40625 C 5.34375 0.40625 4.578125 0.128906 4.046875 -0.421875 C 3.515625 -0.972656 3.25 -1.765625 3.25 -2.796875 L 3.25 -32.421875 C 3.25 -33.453125 3.515625 -34.234375 4.046875 -34.765625 C 4.578125 -35.304688 5.34375 -35.578125 6.34375 -35.578125 C 7.332031 -35.578125 8.101562 -35.304688 8.65625 -34.765625 C 9.207031 -34.234375 9.484375 -33.453125 9.484375 -32.421875 L 9.484375 -14.015625 L 9.578125 -14.015625 L 17.8125 -22.703125 C 18.476562 -23.367188 19.0625 -23.882812 19.5625 -24.25 C 20.0625 -24.613281 20.742188 -24.796875 21.609375 -24.796875 C 22.472656 -24.796875 23.128906 -24.570312 23.578125 -24.125 C 24.023438 -23.675781 24.25 -23.132812 24.25 -22.5 C 24.25 -21.863281 23.945312 -21.234375 23.34375 -20.609375 L 14.671875 -11.421875 L 14.671875 -14.015625 L 24.203125 -3.734375 C 24.796875 -3.109375 25.066406 -2.46875 25.015625 -1.8125 C 24.960938 -1.164062 24.6875 -0.632812 24.1875 -0.21875 C 23.695312 0.195312 23.066406 0.40625 22.296875 0.40625 C 21.367188 0.40625 20.628906 0.222656 20.078125 -0.140625 C 19.523438 -0.515625 18.921875 -1.066406 18.265625 -1.796875 L 9.578125 -10.875 L 9.484375 -10.875 L 9.484375 -2.796875 C 9.484375 -0.660156 8.4375 0.40625 6.34375 0.40625 Z M 6.34375 0.40625 "/></g></g></g><g fill="#000000" fill-opacity="1"><g transform="translate(284.438757, 69.310443)"><g/></g></g><g fill="#000000" fill-opacity="1"><g transform="translate(297.956797, 69.310443)"><g><path d="M 6.34375 0.40625 C 5.34375 0.40625 4.578125 0.128906 4.046875 -0.421875 C 3.515625 -0.972656 3.25 -1.765625 3.25 -2.796875 L 3.25 -32.421875 C 3.25 -33.453125 3.515625 -34.234375 4.046875 -34.765625 C 4.578125 -35.304688 5.34375 -35.578125 6.34375 -35.578125 C 7.332031 -35.578125 8.101562 -35.304688 8.65625 -34.765625 C 9.207031 -34.234375 9.484375 -33.453125 9.484375 -32.421875 L 9.484375 -14.015625 L 9.578125 -14.015625 L 17.8125 -22.703125 C 18.476562 -23.367188 19.0625 -23.882812 19.5625 -24.25 C 20.0625 -24.613281 20.742188 -24.796875 21.609375 -24.796875 C 22.472656 -24.796875 23.128906 -24.570312 23.578125 -24.125 C 24.023438 -23.675781 24.25 -23.132812 24.25 -22.5 C 24.25 -21.863281 23.945312 -21.234375 23.34375 -20.609375 L 14.671875 -11.421875 L 14.671875 -14.015625 L 24.203125 -3.734375 C 24.796875 -3.109375 25.066406 -2.46875 25.015625 -1.8125 C 24.960938 -1.164062 24.6875 -0.632812 24.1875 -0.21875 C 23.695312 0.195312 23.066406 0.40625 22.296875 0.40625 C 21.367188 0.40625 20.628906 0.222656 20.078125 -0.140625 C 19.523438 -0.515625 18.921875 -1.066406 18.265625 -1.796875 L 9.578125 -10.875 L 9.484375 -10.875 L 9.484375 -2.796875 C 9.484375 -0.660156 8.4375 0.40625 6.34375 0.40625 Z M 6.34375 0.40625 "/></g></g></g><g fill="#000000" fill-opacity="1"><g transform="translate(324.444222, 69.310443)"><g><path d="M 11.28125 0.5 C 9.507812 0.5 7.929688 0.160156 6.546875 -0.515625 C 5.171875 -1.203125 4.09375 -2.125 3.3125 -3.28125 C 2.53125 -4.445312 2.140625 -5.765625 2.140625 -7.234375 C 2.140625 -9.023438 2.601562 -10.445312 3.53125 -11.5 C 4.46875 -12.550781 5.984375 -13.304688 8.078125 -13.765625 C 10.171875 -14.234375 12.984375 -14.46875 16.515625 -14.46875 L 19.015625 -14.46875 L 19.015625 -10.875 L 16.5625 -10.875 C 14.5 -10.875 12.851562 -10.773438 11.625 -10.578125 C 10.394531 -10.378906 9.519531 -10.035156 9 -9.546875 C 8.488281 -9.066406 8.234375 -8.394531 8.234375 -7.53125 C 8.234375 -6.4375 8.613281 -5.539062 9.375 -4.84375 C 10.144531 -4.144531 11.210938 -3.796875 12.578125 -3.796875 C 13.671875 -3.796875 14.640625 -4.050781 15.484375 -4.5625 C 16.335938 -5.082031 17.015625 -5.789062 17.515625 -6.6875 C 18.015625 -7.582031 18.265625 -8.613281 18.265625 -9.78125 L 18.265625 -15.515625 C 18.265625 -17.179688 17.894531 -18.378906 17.15625 -19.109375 C 16.425781 -19.835938 15.195312 -20.203125 13.46875 -20.203125 C 12.507812 -20.203125 11.472656 -20.082031 10.359375 -19.84375 C 9.242188 -19.613281 8.066406 -19.21875 6.828125 -18.65625 C 6.203125 -18.351562 5.644531 -18.269531 5.15625 -18.40625 C 4.675781 -18.539062 4.300781 -18.816406 4.03125 -19.234375 C 3.769531 -19.648438 3.640625 -20.109375 3.640625 -20.609375 C 3.640625 -21.109375 3.769531 -21.597656 4.03125 -22.078125 C 4.300781 -22.554688 4.753906 -22.914062 5.390625 -23.15625 C 6.921875 -23.78125 8.390625 -24.222656 9.796875 -24.484375 C 11.210938 -24.753906 12.503906 -24.890625 13.671875 -24.890625 C 16.066406 -24.890625 18.035156 -24.523438 19.578125 -23.796875 C 21.128906 -23.066406 22.285156 -21.960938 23.046875 -20.484375 C 23.816406 -19.003906 24.203125 -17.097656 24.203125 -14.765625 L 24.203125 -2.796875 C 24.203125 -1.765625 23.953125 -0.972656 23.453125 -0.421875 C 22.953125 0.128906 22.234375 0.40625 21.296875 0.40625 C 20.367188 0.40625 19.644531 0.128906 19.125 -0.421875 C 18.613281 -0.972656 18.359375 -1.765625 18.359375 -2.796875 L 18.359375 -5.1875 L 18.765625 -5.1875 C 18.523438 -4.019531 18.0625 -3.007812 17.375 -2.15625 C 16.695312 -1.3125 15.84375 -0.65625 14.8125 -0.1875 C 13.78125 0.269531 12.601562 0.5 11.28125 0.5 Z M 11.28125 0.5 "/></g></g></g><g fill="#000000" fill-opacity="1"><g transform="translate(351.729736, 69.310443)"><g><path d="M 14.421875 0.5 C 12.253906 0.5 10.445312 0.132812 9 -0.59375 C 7.550781 -1.332031 6.476562 -2.40625 5.78125 -3.8125 C 5.082031 -5.226562 4.734375 -6.984375 4.734375 -9.078125 L 4.734375 -19.703125 L 2.140625 -19.703125 C 1.347656 -19.703125 0.734375 -19.910156 0.296875 -20.328125 C -0.128906 -20.742188 -0.34375 -21.316406 -0.34375 -22.046875 C -0.34375 -22.816406 -0.128906 -23.398438 0.296875 -23.796875 C 0.734375 -24.191406 1.347656 -24.390625 2.140625 -24.390625 L 4.734375 -24.390625 L 4.734375 -28.9375 C 4.734375 -29.96875 5.007812 -30.75 5.5625 -31.28125 C 6.113281 -31.8125 6.882812 -32.078125 7.875 -32.078125 C 8.875 -32.078125 9.640625 -31.8125 10.171875 -31.28125 C 10.703125 -30.75 10.96875 -29.96875 10.96875 -28.9375 L 10.96875 -24.390625 L 16.265625 -24.390625 C 17.066406 -24.390625 17.679688 -24.191406 18.109375 -23.796875 C 18.546875 -23.398438 18.765625 -22.816406 18.765625 -22.046875 C 18.765625 -21.316406 18.546875 -20.742188 18.109375 -20.328125 C 17.679688 -19.910156 17.066406 -19.703125 16.265625 -19.703125 L 10.96875 -19.703125 L 10.96875 -9.421875 C 10.96875 -7.828125 11.316406 -6.628906 12.015625 -5.828125 C 12.722656 -5.035156 13.859375 -4.640625 15.421875 -4.640625 C 15.984375 -4.640625 16.476562 -4.6875 16.90625 -4.78125 C 17.34375 -4.882812 17.726562 -4.953125 18.0625 -4.984375 C 18.457031 -5.015625 18.785156 -4.890625 19.046875 -4.609375 C 19.316406 -4.328125 19.453125 -3.753906 19.453125 -2.890625 C 19.453125 -2.222656 19.34375 -1.628906 19.125 -1.109375 C 18.914062 -0.597656 18.523438 -0.242188 17.953125 -0.046875 C 17.523438 0.0859375 16.960938 0.210938 16.265625 0.328125 C 15.566406 0.441406 14.953125 0.5 14.421875 0.5 Z M 14.421875 0.5 "/></g></g></g><g fill="#000000" fill-opacity="1"><g transform="translate(370.884503, 69.310443)"><g><path d="M 11.28125 0.5 C 9.507812 0.5 7.929688 0.160156 6.546875 -0.515625 C 5.171875 -1.203125 4.09375 -2.125 3.3125 -3.28125 C 2.53125 -4.445312 2.140625 -5.765625 2.140625 -7.234375 C 2.140625 -9.023438 2.601562 -10.445312 3.53125 -11.5 C 4.46875 -12.550781 5.984375 -13.304688 8.078125 -13.765625 C 10.171875 -14.234375 12.984375 -14.46875 16.515625 -14.46875 L 19.015625 -14.46875 L 19.015625 -10.875 L 16.5625 -10.875 C 14.5 -10.875 12.851562 -10.773438 11.625 -10.578125 C 10.394531 -10.378906 9.519531 -10.035156 9 -9.546875 C 8.488281 -9.066406 8.234375 -8.394531 8.234375 -7.53125 C 8.234375 -6.4375 8.613281 -5.539062 9.375 -4.84375 C 10.144531 -4.144531 11.210938 -3.796875 12.578125 -3.796875 C 13.671875 -3.796875 14.640625 -4.050781 15.484375 -4.5625 C 16.335938 -5.082031 17.015625 -5.789062 17.515625 -6.6875 C 18.015625 -7.582031 18.265625 -8.613281 18.265625 -9.78125 L 18.265625 -15.515625 C 18.265625 -17.179688 17.894531 -18.378906 17.15625 -19.109375 C 16.425781 -19.835938 15.195312 -20.203125 13.46875 -20.203125 C 12.507812 -20.203125 11.472656 -20.082031 10.359375 -19.84375 C 9.242188 -19.613281 8.066406 -19.21875 6.828125 -18.65625 C 6.203125 -18.351562 5.644531 -18.269531 5.15625 -18.40625 C 4.675781 -18.539062 4.300781 -18.816406 4.03125 -19.234375 C 3.769531 -19.648438 3.640625 -20.109375 3.640625 -20.609375 C 3.640625 -21.109375 3.769531 -21.597656 4.03125 -22.078125 C 4.300781 -22.554688 4.753906 -22.914062 5.390625 -23.15625 C 6.921875 -23.78125 8.390625 -24.222656 9.796875 -24.484375 C 11.210938 -24.753906 12.503906 -24.890625 13.671875 -24.890625 C 16.066406 -24.890625 18.035156 -24.523438 19.578125 -23.796875 C 21.128906 -23.066406 22.285156 -21.960938 23.046875 -20.484375 C 23.816406 -19.003906 24.203125 -17.097656 24.203125 -14.765625 L 24.203125 -2.796875 C 24.203125 -1.765625 23.953125 -0.972656 23.453125 -0.421875 C 22.953125 0.128906 22.234375 0.40625 21.296875 0.40625 C 20.367188 0.40625 19.644531 0.128906 19.125 -0.421875 C 18.613281 -0.972656 18.359375 -1.765625 18.359375 -2.796875 L 18.359375 -5.1875 L 18.765625 -5.1875 C 18.523438 -4.019531 18.0625 -3.007812 17.375 -2.15625 C 16.695312 -1.3125 15.84375 -0.65625 14.8125 -0.1875 C 13.78125 0.269531 12.601562 0.5 11.28125 0.5 Z M 11.28125 0.5 "/></g></g></g><g fill="#000000" fill-opacity="1"><g transform="translate(398.170017, 69.310443)"><g/></g></g><g fill="#000000" fill-opacity="1"><g transform="translate(411.688103, 69.310443)"><g><path d="M 17.3125 0.5 C 15.25 0.5 13.441406 -0.015625 11.890625 -1.046875 C 10.347656 -2.078125 9.328125 -3.457031 8.828125 -5.1875 L 9.375 -6.4375 L 9.375 -2.796875 C 9.375 -1.765625 9.109375 -0.972656 8.578125 -0.421875 C 8.046875 0.128906 7.300781 0.40625 6.34375 0.40625 C 5.34375 0.40625 4.578125 0.128906 4.046875 -0.421875 C 3.515625 -0.972656 3.25 -1.765625 3.25 -2.796875 L 3.25 -32.421875 C 3.25 -33.453125 3.515625 -34.234375 4.046875 -34.765625 C 4.578125 -35.304688 5.34375 -35.578125 6.34375 -35.578125 C 7.332031 -35.578125 8.101562 -35.304688 8.65625 -34.765625 C 9.207031 -34.234375 9.484375 -33.453125 9.484375 -32.421875 L 9.484375 -19.453125 L 8.875 -19.453125 C 9.40625 -21.085938 10.4375 -22.398438 11.96875 -23.390625 C 13.5 -24.390625 15.28125 -24.890625 17.3125 -24.890625 C 19.476562 -24.890625 21.359375 -24.375 22.953125 -23.34375 C 24.546875 -22.3125 25.789062 -20.859375 26.6875 -18.984375 C 27.582031 -17.109375 28.03125 -14.851562 28.03125 -12.21875 C 28.03125 -9.625 27.582031 -7.367188 26.6875 -5.453125 C 25.789062 -3.546875 24.535156 -2.078125 22.921875 -1.046875 C 21.304688 -0.015625 19.4375 0.5 17.3125 0.5 Z M 15.5625 -4.234375 C 16.789062 -4.234375 17.867188 -4.53125 18.796875 -5.125 C 19.734375 -5.726562 20.457031 -6.617188 20.96875 -7.796875 C 21.488281 -8.984375 21.75 -10.457031 21.75 -12.21875 C 21.75 -14.882812 21.179688 -16.875 20.046875 -18.1875 C 18.921875 -19.5 17.425781 -20.15625 15.5625 -20.15625 C 14.332031 -20.15625 13.25 -19.863281 12.3125 -19.28125 C 11.382812 -18.695312 10.660156 -17.816406 10.140625 -16.640625 C 9.628906 -15.460938 9.375 -13.988281 9.375 -12.21875 C 9.375 -9.59375 9.9375 -7.601562 11.0625 -6.25 C 12.195312 -4.90625 13.695312 -4.234375 15.5625 -4.234375 Z M 15.5625 -4.234375 "/></g></g></g><g fill="#000000" fill-opacity="1"><g transform="translate(441.617362, 69.310443)"><g><path d="M 15.265625 0.5 C 12.503906 0.5 10.125 -0.015625 8.125 -1.046875 C 6.132812 -2.078125 4.597656 -3.539062 3.515625 -5.4375 C 2.429688 -7.332031 1.890625 -9.578125 1.890625 -12.171875 C 1.890625 -14.703125 2.410156 -16.914062 3.453125 -18.8125 C 4.503906 -20.707031 5.953125 -22.191406 7.796875 -23.265625 C 9.648438 -24.347656 11.757812 -24.890625 14.125 -24.890625 C 15.851562 -24.890625 17.40625 -24.609375 18.78125 -24.046875 C 20.164062 -23.484375 21.347656 -22.664062 22.328125 -21.59375 C 23.304688 -20.53125 24.050781 -19.242188 24.5625 -17.734375 C 25.082031 -16.222656 25.34375 -14.519531 25.34375 -12.625 C 25.34375 -12.019531 25.132812 -11.5625 24.71875 -11.25 C 24.300781 -10.9375 23.710938 -10.78125 22.953125 -10.78125 L 6.9375 -10.78125 L 6.9375 -14.375 L 20.953125 -14.375 L 20.15625 -13.625 C 20.15625 -15.15625 19.929688 -16.4375 19.484375 -17.46875 C 19.035156 -18.5 18.382812 -19.285156 17.53125 -19.828125 C 16.6875 -20.378906 15.632812 -20.65625 14.375 -20.65625 C 12.96875 -20.65625 11.773438 -20.328125 10.796875 -19.671875 C 9.816406 -19.023438 9.066406 -18.113281 8.546875 -16.9375 C 8.035156 -15.757812 7.78125 -14.351562 7.78125 -12.71875 L 7.78125 -12.375 C 7.78125 -9.644531 8.421875 -7.601562 9.703125 -6.25 C 10.984375 -4.90625 12.867188 -4.234375 15.359375 -4.234375 C 16.222656 -4.234375 17.195312 -4.34375 18.28125 -4.5625 C 19.363281 -4.78125 20.390625 -5.15625 21.359375 -5.6875 C 22.054688 -6.082031 22.671875 -6.253906 23.203125 -6.203125 C 23.734375 -6.160156 24.15625 -5.972656 24.46875 -5.640625 C 24.78125 -5.304688 24.96875 -4.894531 25.03125 -4.40625 C 25.101562 -3.925781 25.015625 -3.4375 24.765625 -2.9375 C 24.515625 -2.4375 24.09375 -2.003906 23.5 -1.640625 C 22.332031 -0.910156 20.992188 -0.367188 19.484375 -0.015625 C 17.972656 0.328125 16.566406 0.5 15.265625 0.5 Z M 15.265625 0.5 "/></g></g></g><g fill="#000000" fill-opacity="1"><g transform="translate(468.653488, 69.310443)"><g><path d="M 6.4375 0.40625 C 5.40625 0.40625 4.613281 0.128906 4.0625 -0.421875 C 3.519531 -0.972656 3.25 -1.765625 3.25 -2.796875 L 3.25 -21.65625 C 3.25 -22.6875 3.515625 -23.46875 4.046875 -24 C 4.578125 -24.53125 5.320312 -24.796875 6.28125 -24.796875 C 7.25 -24.796875 8 -24.53125 8.53125 -24 C 9.0625 -23.46875 9.328125 -22.6875 9.328125 -21.65625 L 9.328125 -18.515625 L 8.828125 -18.515625 C 9.296875 -20.503906 10.210938 -22.015625 11.578125 -23.046875 C 12.941406 -24.078125 14.753906 -24.691406 17.015625 -24.890625 C 17.710938 -24.960938 18.269531 -24.789062 18.6875 -24.375 C 19.101562 -23.957031 19.34375 -23.316406 19.40625 -22.453125 C 19.46875 -21.617188 19.273438 -20.941406 18.828125 -20.421875 C 18.378906 -19.910156 17.707031 -19.601562 16.8125 -19.5 L 15.71875 -19.40625 C 13.6875 -19.207031 12.15625 -18.582031 11.125 -17.53125 C 10.09375 -16.488281 9.578125 -15.019531 9.578125 -13.125 L 9.578125 -2.796875 C 9.578125 -1.765625 9.3125 -0.972656 8.78125 -0.421875 C 8.25 0.128906 7.46875 0.40625 6.4375 0.40625 Z M 6.4375 0.40625 "/></g></g></g><g fill="#000000" fill-opacity="1"><g transform="translate(488.207276, 69.310443)"><g><path d="M 6.34375 0.34375 C 5.34375 0.34375 4.578125 0.046875 4.046875 -0.546875 C 3.515625 -1.148438 3.25 -1.984375 3.25 -3.046875 L 3.25 -21.359375 C 3.25 -22.453125 3.515625 -23.289062 4.046875 -23.875 C 4.578125 -24.457031 5.34375 -24.75 6.34375 -24.75 C 7.332031 -24.75 8.101562 -24.457031 8.65625 -23.875 C 9.207031 -23.289062 9.484375 -22.453125 9.484375 -21.359375 L 9.484375 -3.046875 C 9.484375 -1.984375 9.210938 -1.148438 8.671875 -0.546875 C 8.140625 0.046875 7.363281 0.34375 6.34375 0.34375 Z M 6.34375 -29.390625 C 5.175781 -29.390625 4.265625 -29.675781 3.609375 -30.25 C 2.960938 -30.832031 2.640625 -31.640625 2.640625 -32.671875 C 2.640625 -33.742188 2.960938 -34.5625 3.609375 -35.125 C 4.265625 -35.6875 5.175781 -35.96875 6.34375 -35.96875 C 7.53125 -35.96875 8.441406 -35.6875 9.078125 -35.125 C 9.710938 -34.5625 10.03125 -33.742188 10.03125 -32.671875 C 10.03125 -31.640625 9.710938 -30.832031 9.078125 -30.25 C 8.441406 -29.675781 7.53125 -29.390625 6.34375 -29.390625 Z M 6.34375 -29.390625 "/></g></g></g><g fill="#000000" fill-opacity="1"><g transform="translate(500.927273, 69.310443)"><g><path d="M 6.34375 0.40625 C 5.34375 0.40625 4.578125 0.128906 4.046875 -0.421875 C 3.515625 -0.972656 3.25 -1.765625 3.25 -2.796875 L 3.25 -32.421875 C 3.25 -33.453125 3.515625 -34.234375 4.046875 -34.765625 C 4.578125 -35.304688 5.34375 -35.578125 6.34375 -35.578125 C 7.332031 -35.578125 8.101562 -35.304688 8.65625 -34.765625 C 9.207031 -34.234375 9.484375 -33.453125 9.484375 -32.421875 L 9.484375 -14.015625 L 9.578125 -14.015625 L 17.8125 -22.703125 C 18.476562 -23.367188 19.0625 -23.882812 19.5625 -24.25 C 20.0625 -24.613281 20.742188 -24.796875 21.609375 -24.796875 C 22.472656 -24.796875 23.128906 -24.570312 23.578125 -24.125 C 24.023438 -23.675781 24.25 -23.132812 24.25 -22.5 C 24.25 -21.863281 23.945312 -21.234375 23.34375 -20.609375 L 14.671875 -11.421875 L 14.671875 -14.015625 L 24.203125 -3.734375 C 24.796875 -3.109375 25.066406 -2.46875 25.015625 -1.8125 C 24.960938 -1.164062 24.6875 -0.632812 24.1875 -0.21875 C 23.695312 0.195312 23.066406 0.40625 22.296875 0.40625 C 21.367188 0.40625 20.628906 0.222656 20.078125 -0.140625 C 19.523438 -0.515625 18.921875 -1.066406 18.265625 -1.796875 L 9.578125 -10.875 L 9.484375 -10.875 L 9.484375 -2.796875 C 9.484375 -0.660156 8.4375 0.40625 6.34375 0.40625 Z M 6.34375 0.40625 "/></g></g></g><g fill="#000000" fill-opacity="1"><g transform="translate(527.664087, 69.310443)"><g><path d="M 12.078125 0.5 C 10.046875 0.5 8.363281 0.125 7.03125 -0.625 C 5.695312 -1.375 4.707031 -2.492188 4.0625 -3.984375 C 3.414062 -5.484375 3.09375 -7.347656 3.09375 -9.578125 L 3.09375 -21.65625 C 3.09375 -22.71875 3.359375 -23.503906 3.890625 -24.015625 C 4.421875 -24.535156 5.1875 -24.796875 6.1875 -24.796875 C 7.1875 -24.796875 7.957031 -24.535156 8.5 -24.015625 C 9.050781 -23.503906 9.328125 -22.71875 9.328125 -21.65625 L 9.328125 -9.484375 C 9.328125 -7.753906 9.675781 -6.472656 10.375 -5.640625 C 11.070312 -4.804688 12.1875 -4.390625 13.71875 -4.390625 C 15.382812 -4.390625 16.75 -4.960938 17.8125 -6.109375 C 18.875 -7.253906 19.40625 -8.773438 19.40625 -10.671875 L 19.40625 -21.65625 C 19.40625 -22.71875 19.671875 -23.503906 20.203125 -24.015625 C 20.734375 -24.535156 21.5 -24.796875 22.5 -24.796875 C 23.5 -24.796875 24.269531 -24.535156 24.8125 -24.015625 C 25.363281 -23.503906 25.640625 -22.71875 25.640625 -21.65625 L 25.640625 -2.796875 C 25.640625 -0.660156 24.625 0.40625 22.59375 0.40625 C 21.632812 0.40625 20.890625 0.128906 20.359375 -0.421875 C 19.828125 -0.972656 19.5625 -1.765625 19.5625 -2.796875 L 19.5625 -6.578125 L 20.25 -5.09375 C 19.550781 -3.289062 18.492188 -1.90625 17.078125 -0.9375 C 15.671875 0.0195312 14.003906 0.5 12.078125 0.5 Z M 12.078125 0.5 "/></g></g></g><g fill="#000000" fill-opacity="1"><g transform="translate(556.545823, 69.310443)"><g><path d="M 14.421875 0.5 C 12.253906 0.5 10.445312 0.132812 9 -0.59375 C 7.550781 -1.332031 6.476562 -2.40625 5.78125 -3.8125 C 5.082031 -5.226562 4.734375 -6.984375 4.734375 -9.078125 L 4.734375 -19.703125 L 2.140625 -19.703125 C 1.347656 -19.703125 0.734375 -19.910156 0.296875 -20.328125 C -0.128906 -20.742188 -0.34375 -21.316406 -0.34375 -22.046875 C -0.34375 -22.816406 -0.128906 -23.398438 0.296875 -23.796875 C 0.734375 -24.191406 1.347656 -24.390625 2.140625 -24.390625 L 4.734375 -24.390625 L 4.734375 -28.9375 C 4.734375 -29.96875 5.007812 -30.75 5.5625 -31.28125 C 6.113281 -31.8125 6.882812 -32.078125 7.875 -32.078125 C 8.875 -32.078125 9.640625 -31.8125 10.171875 -31.28125 C 10.703125 -30.75 10.96875 -29.96875 10.96875 -28.9375 L 10.96875 -24.390625 L 16.265625 -24.390625 C 17.066406 -24.390625 17.679688 -24.191406 18.109375 -23.796875 C 18.546875 -23.398438 18.765625 -22.816406 18.765625 -22.046875 C 18.765625 -21.316406 18.546875 -20.742188 18.109375 -20.328125 C 17.679688 -19.910156 17.066406 -19.703125 16.265625 -19.703125 L 10.96875 -19.703125 L 10.96875 -9.421875 C 10.96875 -7.828125 11.316406 -6.628906 12.015625 -5.828125 C 12.722656 -5.035156 13.859375 -4.640625 15.421875 -4.640625 C 15.984375 -4.640625 16.476562 -4.6875 16.90625 -4.78125 C 17.34375 -4.882812 17.726562 -4.953125 18.0625 -4.984375 C 18.457031 -5.015625 18.785156 -4.890625 19.046875 -4.609375 C 19.316406 -4.328125 19.453125 -3.753906 19.453125 -2.890625 C 19.453125 -2.222656 19.34375 -1.628906 19.125 -1.109375 C 18.914062 -0.597656 18.523438 -0.242188 17.953125 -0.046875 C 17.523438 0.0859375 16.960938 0.210938 16.265625 0.328125 C 15.566406 0.441406 14.953125 0.5 14.421875 0.5 Z M 14.421875 0.5 "/></g></g></g><g fill="#000000" fill-opacity="1"><g transform="translate(575.702055, 69.310443)"><g/></g></g><g fill="#000000" fill-opacity="1"><g transform="translate(114.843322, 128.67939)"><g><path d="M 7.140625 0.40625 C 6.109375 0.40625 5.300781 0.113281 4.71875 -0.46875 C 4.132812 -1.050781 3.84375 -1.894531 3.84375 -3 L 3.84375 -31.78125 C 3.84375 -32.875 4.132812 -33.710938 4.71875 -34.296875 C 5.300781 -34.878906 6.140625 -35.171875 7.234375 -35.171875 L 24.640625 -35.171875 C 25.503906 -35.171875 26.148438 -34.953125 26.578125 -34.515625 C 27.015625 -34.085938 27.234375 -33.472656 27.234375 -32.671875 C 27.234375 -31.847656 27.015625 -31.207031 26.578125 -30.75 C 26.148438 -30.300781 25.503906 -30.078125 24.640625 -30.078125 L 10.234375 -30.078125 L 10.234375 -20.15625 L 23.59375 -20.15625 C 24.425781 -20.15625 25.066406 -19.9375 25.515625 -19.5 C 25.960938 -19.070312 26.1875 -18.457031 26.1875 -17.65625 C 26.1875 -16.820312 25.960938 -16.179688 25.515625 -15.734375 C 25.066406 -15.285156 24.425781 -15.0625 23.59375 -15.0625 L 10.234375 -15.0625 L 10.234375 -3 C 10.234375 -0.726562 9.203125 0.40625 7.140625 0.40625 Z M 7.140625 0.40625 "/></g></g></g><g fill="#000000" fill-opacity="1"><g transform="translate(142.877093, 128.67939)"><g><path d="M 7.03125 0.40625 C 6 0.40625 5.207031 0.113281 4.65625 -0.46875 C 4.113281 -1.050781 3.84375 -1.859375 3.84375 -2.890625 L 3.84375 -32.328125 C 3.84375 -33.390625 4.113281 -34.195312 4.65625 -34.75 C 5.207031 -35.300781 6 -35.578125 7.03125 -35.578125 C 8.0625 -35.578125 8.851562 -35.300781 9.40625 -34.75 C 9.957031 -34.195312 10.234375 -33.390625 10.234375 -32.328125 L 10.234375 -19.609375 L 10.328125 -19.609375 L 24.640625 -33.96875 C 25.171875 -34.507812 25.703125 -34.910156 26.234375 -35.171875 C 26.773438 -35.441406 27.375 -35.578125 28.03125 -35.578125 C 29 -35.578125 29.691406 -35.328125 30.109375 -34.828125 C 30.523438 -34.328125 30.691406 -33.742188 30.609375 -33.078125 C 30.523438 -32.410156 30.203125 -31.796875 29.640625 -31.234375 L 15.0625 -16.8125 L 15.109375 -19.703125 L 30.328125 -4.234375 C 31.023438 -3.578125 31.390625 -2.878906 31.421875 -2.140625 C 31.460938 -1.410156 31.238281 -0.800781 30.75 -0.3125 C 30.269531 0.164062 29.566406 0.40625 28.640625 0.40625 C 27.835938 0.40625 27.195312 0.238281 26.71875 -0.09375 C 26.238281 -0.425781 25.679688 -0.910156 25.046875 -1.546875 L 10.328125 -16.265625 L 10.234375 -16.265625 L 10.234375 -2.890625 C 10.234375 -1.859375 9.960938 -1.050781 9.421875 -0.46875 C 8.890625 0.113281 8.09375 0.40625 7.03125 0.40625 Z M 7.03125 0.40625 "/></g></g></g><g fill="#000000" fill-opacity="1"><g transform="translate(176.048722, 128.67939)"><g><path d="M 7.078125 0 C 6.046875 0 5.25 -0.289062 4.6875 -0.875 C 4.125 -1.457031 3.84375 -2.265625 3.84375 -3.296875 L 3.84375 -32.078125 C 3.84375 -33.140625 4.113281 -33.945312 4.65625 -34.5 C 5.207031 -35.050781 6 -35.328125 7.03125 -35.328125 C 8.0625 -35.328125 8.851562 -35.050781 9.40625 -34.5 C 9.957031 -33.945312 10.234375 -33.140625 10.234375 -32.078125 L 10.234375 -5.4375 L 24.703125 -5.4375 C 25.597656 -5.4375 26.285156 -5.203125 26.765625 -4.734375 C 27.242188 -4.273438 27.484375 -3.613281 27.484375 -2.75 C 27.484375 -1.882812 27.242188 -1.207031 26.765625 -0.71875 C 26.285156 -0.238281 25.597656 0 24.703125 0 Z M 7.078125 0 "/></g></g></g><g fill="#000000" fill-opacity="1"><g transform="translate(202.186866, 128.67939)"><g><path d="M 33.078125 5.640625 C 33.546875 6.367188 33.726562 7.03125 33.625 7.625 C 33.519531 8.226562 33.25 8.738281 32.8125 9.15625 C 32.382812 9.570312 31.851562 9.835938 31.21875 9.953125 C 30.59375 10.066406 29.960938 10 29.328125 9.75 C 28.703125 9.5 28.171875 9.023438 27.734375 8.328125 L 24.296875 2.796875 C 23.828125 2.023438 23.203125 1.445312 22.421875 1.0625 C 21.640625 0.6875 20.6875 0.5 19.5625 0.5 L 24.5 -1.453125 C 26.0625 -1.453125 27.304688 -1.175781 28.234375 -0.625 C 29.171875 -0.0703125 30.070312 0.882812 30.9375 2.25 Z M 19.609375 0.5 C 16.210938 0.5 13.242188 -0.242188 10.703125 -1.734375 C 8.160156 -3.234375 6.1875 -5.335938 4.78125 -8.046875 C 3.382812 -10.765625 2.6875 -13.953125 2.6875 -17.609375 C 2.6875 -20.367188 3.085938 -22.851562 3.890625 -25.0625 C 4.691406 -27.28125 5.832031 -29.175781 7.3125 -30.75 C 8.789062 -32.332031 10.566406 -33.546875 12.640625 -34.390625 C 14.722656 -35.242188 17.046875 -35.671875 19.609375 -35.671875 C 23.035156 -35.671875 26.007812 -34.929688 28.53125 -33.453125 C 31.0625 -31.972656 33.023438 -29.882812 34.421875 -27.1875 C 35.816406 -24.5 36.515625 -21.320312 36.515625 -17.65625 C 36.515625 -14.894531 36.113281 -12.398438 35.3125 -10.171875 C 34.519531 -7.941406 33.382812 -6.03125 31.90625 -4.4375 C 30.425781 -2.84375 28.644531 -1.617188 26.5625 -0.765625 C 24.488281 0.078125 22.171875 0.5 19.609375 0.5 Z M 19.609375 -4.984375 C 21.765625 -4.984375 23.597656 -5.484375 25.109375 -6.484375 C 26.628906 -7.484375 27.796875 -8.929688 28.609375 -10.828125 C 29.421875 -12.722656 29.828125 -14.984375 29.828125 -17.609375 C 29.828125 -21.597656 28.9375 -24.691406 27.15625 -26.890625 C 25.382812 -29.085938 22.867188 -30.1875 19.609375 -30.1875 C 17.472656 -30.1875 15.640625 -29.691406 14.109375 -28.703125 C 12.585938 -27.722656 11.414062 -26.296875 10.59375 -24.421875 C 9.78125 -22.546875 9.375 -20.273438 9.375 -17.609375 C 9.375 -13.648438 10.269531 -10.554688 12.0625 -8.328125 C 13.863281 -6.097656 16.378906 -4.984375 19.609375 -4.984375 Z M 19.609375 -4.984375 "/></g></g></g><g fill="#000000" fill-opacity="1"><g transform="translate(241.344353, 128.67939)"><g><path d="M 7.234375 0 C 6.140625 0 5.300781 -0.289062 4.71875 -0.875 C 4.132812 -1.457031 3.84375 -2.296875 3.84375 -3.390625 L 3.84375 -31.78125 C 3.84375 -32.875 4.132812 -33.710938 4.71875 -34.296875 C 5.300781 -34.878906 6.140625 -35.171875 7.234375 -35.171875 L 16.90625 -35.171875 C 22.800781 -35.171875 27.351562 -33.65625 30.5625 -30.625 C 33.769531 -27.601562 35.375 -23.265625 35.375 -17.609375 C 35.375 -14.785156 34.960938 -12.28125 34.140625 -10.09375 C 33.328125 -7.914062 32.128906 -6.078125 30.546875 -4.578125 C 28.972656 -3.085938 27.046875 -1.953125 24.765625 -1.171875 C 22.492188 -0.390625 19.875 0 16.90625 0 Z M 10.234375 -5.28125 L 16.515625 -5.28125 C 18.578125 -5.28125 20.363281 -5.535156 21.875 -6.046875 C 23.382812 -6.566406 24.644531 -7.332031 25.65625 -8.34375 C 26.675781 -9.363281 27.4375 -10.644531 27.9375 -12.1875 C 28.4375 -13.738281 28.6875 -15.546875 28.6875 -17.609375 C 28.6875 -21.734375 27.671875 -24.8125 25.640625 -26.84375 C 23.609375 -28.875 20.566406 -29.890625 16.515625 -29.890625 L 10.234375 -29.890625 Z M 10.234375 -5.28125 "/></g></g></g><g fill="#000000" fill-opacity="1"><g transform="translate(279.354552, 128.67939)"><g/></g></g><g fill="#000000" fill-opacity="1"><g transform="translate(292.872614, 128.67939)"><g><path d="M 4.640625 -17.109375 C 3.941406 -17.109375 3.390625 -17.300781 2.984375 -17.6875 C 2.585938 -18.070312 2.390625 -18.613281 2.390625 -19.3125 C 2.390625 -20.007812 2.585938 -20.546875 2.984375 -20.921875 C 3.390625 -21.304688 3.941406 -21.5 4.640625 -21.5 L 25.296875 -21.5 C 26.023438 -21.5 26.582031 -21.304688 26.96875 -20.921875 C 27.351562 -20.546875 27.546875 -20.007812 27.546875 -19.3125 C 27.546875 -18.613281 27.351562 -18.070312 26.96875 -17.6875 C 26.582031 -17.300781 26.023438 -17.109375 25.296875 -17.109375 Z M 4.640625 -7.1875 C 3.941406 -7.1875 3.390625 -7.375 2.984375 -7.75 C 2.585938 -8.132812 2.390625 -8.675781 2.390625 -9.375 C 2.390625 -10.070312 2.585938 -10.601562 2.984375 -10.96875 C 3.390625 -11.34375 3.941406 -11.53125 4.640625 -11.53125 L 25.296875 -11.53125 C 26.023438 -11.53125 26.582031 -11.34375 26.96875 -10.96875 C 27.351562 -10.601562 27.546875 -10.070312 27.546875 -9.375 C 27.546875 -8.644531 27.351562 -8.097656 26.96875 -7.734375 C 26.582031 -7.367188 26.023438 -7.1875 25.296875 -7.1875 Z M 4.640625 -7.1875 "/></g></g></g><g fill="#000000" fill-opacity="1"><g transform="translate(322.801886, 128.67939)"><g/></g></g><g fill="#000000" fill-opacity="1"><g transform="translate(336.319971, 128.67939)"><g><path d="M 20.203125 0.5 C 16.546875 0.5 13.410156 -0.238281 10.796875 -1.71875 C 8.191406 -3.195312 6.1875 -5.289062 4.78125 -8 C 3.382812 -10.71875 2.6875 -13.921875 2.6875 -17.609375 C 2.6875 -20.367188 3.085938 -22.851562 3.890625 -25.0625 C 4.691406 -27.28125 5.835938 -29.175781 7.328125 -30.75 C 8.828125 -32.332031 10.664062 -33.546875 12.84375 -34.390625 C 15.019531 -35.242188 17.472656 -35.671875 20.203125 -35.671875 C 22.035156 -35.671875 23.832031 -35.4375 25.59375 -34.96875 C 27.351562 -34.507812 28.898438 -33.847656 30.234375 -32.984375 C 30.929688 -32.546875 31.394531 -32.019531 31.625 -31.40625 C 31.863281 -30.789062 31.914062 -30.191406 31.78125 -29.609375 C 31.644531 -29.023438 31.367188 -28.535156 30.953125 -28.140625 C 30.535156 -27.742188 30.019531 -27.519531 29.40625 -27.46875 C 28.789062 -27.414062 28.117188 -27.625 27.390625 -28.09375 C 26.359375 -28.757812 25.242188 -29.238281 24.046875 -29.53125 C 22.847656 -29.832031 21.632812 -29.984375 20.40625 -29.984375 C 18.039062 -29.984375 16.039062 -29.5 14.40625 -28.53125 C 12.78125 -27.570312 11.550781 -26.175781 10.71875 -24.34375 C 9.894531 -22.519531 9.484375 -20.273438 9.484375 -17.609375 C 9.484375 -14.984375 9.894531 -12.738281 10.71875 -10.875 C 11.550781 -9.007812 12.78125 -7.59375 14.40625 -6.625 C 16.039062 -5.664062 18.039062 -5.1875 20.40625 -5.1875 C 21.664062 -5.1875 22.910156 -5.34375 24.140625 -5.65625 C 25.378906 -5.976562 26.546875 -6.472656 27.640625 -7.140625 C 28.367188 -7.566406 29.023438 -7.753906 29.609375 -7.703125 C 30.191406 -7.660156 30.679688 -7.453125 31.078125 -7.078125 C 31.484375 -6.710938 31.75 -6.253906 31.875 -5.703125 C 32.007812 -5.160156 31.976562 -4.597656 31.78125 -4.015625 C 31.582031 -3.429688 31.179688 -2.925781 30.578125 -2.5 C 29.253906 -1.53125 27.664062 -0.785156 25.8125 -0.265625 C 23.96875 0.242188 22.097656 0.5 20.203125 0.5 Z M 20.203125 0.5 "/></g></g></g><g fill="#000000" fill-opacity="1"><g transform="translate(370.239811, 128.67939)"><g><path d="M 7.03125 0.40625 C 6 0.40625 5.207031 0.113281 4.65625 -0.46875 C 4.113281 -1.050781 3.84375 -1.859375 3.84375 -2.890625 L 3.84375 -32.28125 C 3.84375 -33.34375 4.113281 -34.15625 4.65625 -34.71875 C 5.207031 -35.289062 6 -35.578125 7.03125 -35.578125 C 8.0625 -35.578125 8.851562 -35.289062 9.40625 -34.71875 C 9.957031 -34.15625 10.234375 -33.34375 10.234375 -32.28125 L 10.234375 -20.5 L 28.34375 -20.5 L 28.34375 -32.28125 C 28.34375 -33.34375 28.613281 -34.15625 29.15625 -34.71875 C 29.707031 -35.289062 30.5 -35.578125 31.53125 -35.578125 C 32.5625 -35.578125 33.347656 -35.289062 33.890625 -34.71875 C 34.441406 -34.15625 34.71875 -33.34375 34.71875 -32.28125 L 34.71875 -2.890625 C 34.71875 -1.859375 34.441406 -1.050781 33.890625 -0.46875 C 33.347656 0.113281 32.5625 0.40625 31.53125 0.40625 C 30.5 0.40625 29.707031 0.113281 29.15625 -0.46875 C 28.613281 -1.050781 28.34375 -1.859375 28.34375 -2.890625 L 28.34375 -15.171875 L 10.234375 -15.171875 L 10.234375 -2.890625 C 10.234375 -1.859375 9.960938 -1.050781 9.421875 -0.46875 C 8.890625 0.113281 8.09375 0.40625 7.03125 0.40625 Z M 7.03125 0.40625 "/></g></g></g><g fill="#000000" fill-opacity="1"><g transform="translate(408.798733, 128.67939)"><g><path d="M 7.03125 0.40625 C 6 0.40625 5.207031 0.113281 4.65625 -0.46875 C 4.113281 -1.050781 3.84375 -1.859375 3.84375 -2.890625 L 3.84375 -32.28125 C 3.84375 -33.34375 4.113281 -34.15625 4.65625 -34.71875 C 5.207031 -35.289062 6 -35.578125 7.03125 -35.578125 C 8.0625 -35.578125 8.851562 -35.289062 9.40625 -34.71875 C 9.957031 -34.15625 10.234375 -33.34375 10.234375 -32.28125 L 10.234375 -2.890625 C 10.234375 -1.859375 9.960938 -1.050781 9.421875 -0.46875 C 8.890625 0.113281 8.09375 0.40625 7.03125 0.40625 Z M 7.03125 0.40625 "/></g></g></g><g fill="#000000" fill-opacity="1"><g transform="translate(422.865473, 128.67939)"><g><path d="M 6.828125 0.40625 C 5.867188 0.40625 5.128906 0.140625 4.609375 -0.390625 C 4.097656 -0.929688 3.84375 -1.695312 3.84375 -2.6875 L 3.84375 -32.375 C 3.84375 -33.40625 4.097656 -34.195312 4.609375 -34.75 C 5.128906 -35.300781 5.804688 -35.578125 6.640625 -35.578125 C 7.398438 -35.578125 7.972656 -35.429688 8.359375 -35.140625 C 8.742188 -34.859375 9.203125 -34.382812 9.734375 -33.71875 L 28.84375 -8.9375 L 27.546875 -8.9375 L 27.546875 -32.53125 C 27.546875 -33.488281 27.800781 -34.234375 28.3125 -34.765625 C 28.832031 -35.304688 29.570312 -35.578125 30.53125 -35.578125 C 31.5 -35.578125 32.226562 -35.304688 32.71875 -34.765625 C 33.21875 -34.234375 33.46875 -33.488281 33.46875 -32.53125 L 33.46875 -2.59375 C 33.46875 -1.664062 33.234375 -0.929688 32.765625 -0.390625 C 32.304688 0.140625 31.675781 0.40625 30.875 0.40625 C 30.113281 0.40625 29.507812 0.253906 29.0625 -0.046875 C 28.613281 -0.347656 28.125 -0.832031 27.59375 -1.5 L 8.53125 -26.296875 L 9.78125 -26.296875 L 9.78125 -2.6875 C 9.78125 -1.695312 9.53125 -0.929688 9.03125 -0.390625 C 8.53125 0.140625 7.796875 0.40625 6.828125 0.40625 Z M 6.828125 0.40625 "/></g></g></g><g fill="#000000" fill-opacity="1"><g transform="translate(460.177315, 128.67939)"><g><path d="M 4.1875 0.40625 C 3.394531 0.40625 2.753906 0.222656 2.265625 -0.140625 C 1.785156 -0.515625 1.492188 -1.007812 1.390625 -1.625 C 1.296875 -2.238281 1.414062 -2.925781 1.75 -3.6875 L 14.921875 -32.875 C 15.347656 -33.84375 15.867188 -34.535156 16.484375 -34.953125 C 17.097656 -35.367188 17.804688 -35.578125 18.609375 -35.578125 C 19.367188 -35.578125 20.054688 -35.367188 20.671875 -34.953125 C 21.296875 -34.535156 21.820312 -33.84375 22.25 -32.875 L 35.46875 -3.6875 C 35.832031 -2.925781 35.960938 -2.226562 35.859375 -1.59375 C 35.765625 -0.96875 35.484375 -0.476562 35.015625 -0.125 C 34.554688 0.226562 33.941406 0.40625 33.171875 0.40625 C 32.242188 0.40625 31.519531 0.179688 31 -0.265625 C 30.488281 -0.722656 30.035156 -1.414062 29.640625 -2.34375 L 26.390625 -9.875 L 29.09375 -8.125 L 8.03125 -8.125 L 10.71875 -9.875 L 7.53125 -2.34375 C 7.101562 -1.375 6.65625 -0.671875 6.1875 -0.234375 C 5.71875 0.191406 5.050781 0.40625 4.1875 0.40625 Z M 18.515625 -28.234375 L 11.53125 -11.625 L 10.234375 -13.21875 L 26.890625 -13.21875 L 25.640625 -11.625 L 18.609375 -28.234375 Z M 18.515625 -28.234375 "/></g></g></g></svg>