<svg xmlns="http://www.w3.org/2000/svg" xmlns:xlink="http://www.w3.org/1999/xlink" width="560" zoomAndPan="magnify" viewBox="0 0 420 74.249996" height="99" preserveAspectRatio="xMidYMid meet" version="1.0"><defs><g/><clipPath id="985a5da754"><path d="M 2.109375 0 L 417.585938 0 L 417.585938 72.765625 L 2.109375 72.765625 Z M 2.109375 0 " clip-rule="nonzero"/></clipPath></defs><g clip-path="url(#985a5da754)"><path stroke-linecap="butt" transform="matrix(0.7425, 0, 0, 0.7425, 2.11108, -0.00000198)" fill="none" stroke-linejoin="miter" d="M -0.00229652 0.00000266667 L 559.562151 0.00000266667 L 559.562151 98.158682 L -0.00229652 98.158682 Z M -0.00229652 0.00000266667 " stroke="#000000" stroke-width="12" stroke-opacity="1" stroke-miterlimit="4"/></g><g fill="#000000" fill-opacity="1"><g transform="translate(116.098627, 49.064615)"><g><path d="M 12.671875 0.390625 C 11.503906 0.390625 10.335938 0.300781 9.171875 0.125 C 8.015625 -0.0390625 6.921875 -0.300781 5.890625 -0.65625 C 4.867188 -1.007812 3.945312 -1.453125 3.125 -1.984375 C 2.65625 -2.296875 2.328125 -2.675781 2.140625 -3.125 C 1.953125 -3.570312 1.890625 -4.015625 1.953125 -4.453125 C 2.023438 -4.890625 2.195312 -5.269531 2.46875 -5.59375 C 2.75 -5.925781 3.097656 -6.128906 3.515625 -6.203125 C 3.941406 -6.285156 4.40625 -6.171875 4.90625 -5.859375 C 6.070312 -5.171875 7.300781 -4.664062 8.59375 -4.34375 C 9.882812 -4.03125 11.242188 -3.875 12.671875 -3.875 C 14.753906 -3.875 16.269531 -4.222656 17.21875 -4.921875 C 18.175781 -5.628906 18.65625 -6.535156 18.65625 -7.640625 C 18.65625 -8.566406 18.316406 -9.289062 17.640625 -9.8125 C 16.960938 -10.34375 15.804688 -10.78125 14.171875 -11.125 L 9.8125 -12.03125 C 7.3125 -12.5625 5.445312 -13.453125 4.21875 -14.703125 C 2.988281 -15.960938 2.375 -17.617188 2.375 -19.671875 C 2.375 -20.972656 2.632812 -22.148438 3.15625 -23.203125 C 3.6875 -24.253906 4.429688 -25.160156 5.390625 -25.921875 C 6.359375 -26.691406 7.507812 -27.28125 8.84375 -27.6875 C 10.175781 -28.101562 11.648438 -28.3125 13.265625 -28.3125 C 14.847656 -28.3125 16.351562 -28.113281 17.78125 -27.71875 C 19.207031 -27.320312 20.488281 -26.738281 21.625 -25.96875 C 22.039062 -25.675781 22.320312 -25.316406 22.46875 -24.890625 C 22.613281 -24.472656 22.644531 -24.0625 22.5625 -23.65625 C 22.488281 -23.25 22.304688 -22.898438 22.015625 -22.609375 C 21.722656 -22.316406 21.359375 -22.144531 20.921875 -22.09375 C 20.484375 -22.039062 19.988281 -22.171875 19.4375 -22.484375 C 18.457031 -23.046875 17.46875 -23.441406 16.46875 -23.671875 C 15.46875 -23.910156 14.382812 -24.03125 13.21875 -24.03125 C 12.007812 -24.03125 10.96875 -23.859375 10.09375 -23.515625 C 9.226562 -23.171875 8.5625 -22.6875 8.09375 -22.0625 C 7.632812 -21.445312 7.40625 -20.71875 7.40625 -19.875 C 7.40625 -18.925781 7.71875 -18.164062 8.34375 -17.59375 C 8.976562 -17.03125 10.0625 -16.585938 11.59375 -16.265625 L 15.921875 -15.359375 C 18.535156 -14.804688 20.476562 -13.9375 21.75 -12.75 C 23.03125 -11.5625 23.671875 -9.976562 23.671875 -8 C 23.671875 -6.726562 23.414062 -5.578125 22.90625 -4.546875 C 22.394531 -3.523438 21.65625 -2.644531 20.6875 -1.90625 C 19.726562 -1.164062 18.570312 -0.597656 17.21875 -0.203125 C 15.875 0.191406 14.359375 0.390625 12.671875 0.390625 Z M 12.671875 0.390625 "/></g></g></g><g fill="#000000" fill-opacity="1"><g transform="translate(141.083745, 49.064615)"><g><path d="M 5.03125 0.28125 C 4.238281 0.28125 3.628906 0.046875 3.203125 -0.421875 C 2.785156 -0.898438 2.578125 -1.566406 2.578125 -2.421875 L 2.578125 -16.953125 C 2.578125 -17.816406 2.785156 -18.476562 3.203125 -18.9375 C 3.628906 -19.40625 4.238281 -19.640625 5.03125 -19.640625 C 5.820312 -19.640625 6.429688 -19.40625 6.859375 -18.9375 C 7.296875 -18.476562 7.515625 -17.816406 7.515625 -16.953125 L 7.515625 -2.421875 C 7.515625 -1.566406 7.300781 -0.898438 6.875 -0.421875 C 6.457031 0.046875 5.84375 0.28125 5.03125 0.28125 Z M 5.03125 -23.328125 C 4.101562 -23.328125 3.378906 -23.554688 2.859375 -24.015625 C 2.347656 -24.472656 2.09375 -25.113281 2.09375 -25.9375 C 2.09375 -26.78125 2.347656 -27.425781 2.859375 -27.875 C 3.378906 -28.320312 4.101562 -28.546875 5.03125 -28.546875 C 5.976562 -28.546875 6.703125 -28.320312 7.203125 -27.875 C 7.703125 -27.425781 7.953125 -26.78125 7.953125 -25.9375 C 7.953125 -25.113281 7.703125 -24.472656 7.203125 -24.015625 C 6.703125 -23.554688 5.976562 -23.328125 5.03125 -23.328125 Z M 5.03125 -23.328125 "/></g></g></g><g fill="#000000" fill-opacity="1"><g transform="translate(151.18074, 49.064615)"><g><path d="M 5.03125 0.3125 C 4.238281 0.3125 3.628906 0.0976562 3.203125 -0.328125 C 2.785156 -0.765625 2.578125 -1.394531 2.578125 -2.21875 L 2.578125 -17.1875 C 2.578125 -18 2.785156 -18.613281 3.203125 -19.03125 C 3.628906 -19.457031 4.222656 -19.671875 4.984375 -19.671875 C 5.753906 -19.671875 6.347656 -19.457031 6.765625 -19.03125 C 7.191406 -18.613281 7.40625 -18 7.40625 -17.1875 L 7.40625 -14.484375 L 6.96875 -15.484375 C 7.550781 -16.878906 8.453125 -17.9375 9.671875 -18.65625 C 10.898438 -19.382812 12.296875 -19.75 13.859375 -19.75 C 15.410156 -19.75 16.6875 -19.457031 17.6875 -18.875 C 18.695312 -18.300781 19.453125 -17.425781 19.953125 -16.25 C 20.453125 -15.070312 20.703125 -13.585938 20.703125 -11.796875 L 20.703125 -2.21875 C 20.703125 -1.394531 20.488281 -0.765625 20.0625 -0.328125 C 19.644531 0.0976562 19.039062 0.3125 18.25 0.3125 C 17.457031 0.3125 16.84375 0.0976562 16.40625 -0.328125 C 15.976562 -0.765625 15.765625 -1.394531 15.765625 -2.21875 L 15.765625 -11.5625 C 15.765625 -13.0625 15.476562 -14.15625 14.90625 -14.84375 C 14.34375 -15.53125 13.46875 -15.875 12.28125 -15.875 C 10.820312 -15.875 9.660156 -15.414062 8.796875 -14.5 C 7.941406 -13.59375 7.515625 -12.390625 7.515625 -10.890625 L 7.515625 -2.21875 C 7.515625 -0.53125 6.6875 0.3125 5.03125 0.3125 Z M 5.03125 0.3125 "/></g></g></g><g fill="#000000" fill-opacity="1"><g transform="translate(174.344435, 49.064615)"><g><path d="M 11.59375 7.515625 C 10.175781 7.515625 8.800781 7.382812 7.46875 7.125 C 6.132812 6.863281 4.925781 6.457031 3.84375 5.90625 C 3.34375 5.632812 3.003906 5.3125 2.828125 4.9375 C 2.660156 4.570312 2.609375 4.195312 2.671875 3.8125 C 2.734375 3.4375 2.890625 3.101562 3.140625 2.8125 C 3.398438 2.519531 3.710938 2.320312 4.078125 2.21875 C 4.441406 2.113281 4.820312 2.164062 5.21875 2.375 C 6.382812 2.957031 7.488281 3.332031 8.53125 3.5 C 9.570312 3.675781 10.460938 3.765625 11.203125 3.765625 C 12.972656 3.765625 14.300781 3.332031 15.1875 2.46875 C 16.070312 1.613281 16.515625 0.34375 16.515625 -1.34375 L 16.515625 -4.90625 L 16.859375 -4.90625 C 16.460938 -3.5625 15.640625 -2.484375 14.390625 -1.671875 C 13.140625 -0.867188 11.722656 -0.46875 10.140625 -0.46875 C 8.390625 -0.46875 6.867188 -0.867188 5.578125 -1.671875 C 4.285156 -2.484375 3.28125 -3.613281 2.5625 -5.0625 C 1.851562 -6.519531 1.5 -8.210938 1.5 -10.140625 C 1.5 -11.585938 1.703125 -12.898438 2.109375 -14.078125 C 2.523438 -15.253906 3.109375 -16.265625 3.859375 -17.109375 C 4.609375 -17.953125 5.519531 -18.601562 6.59375 -19.0625 C 7.664062 -19.519531 8.847656 -19.75 10.140625 -19.75 C 11.773438 -19.75 13.203125 -19.347656 14.421875 -18.546875 C 15.648438 -17.742188 16.453125 -16.679688 16.828125 -15.359375 L 16.4375 -14.375 L 16.4375 -17.1875 C 16.4375 -18 16.648438 -18.613281 17.078125 -19.03125 C 17.515625 -19.457031 18.117188 -19.671875 18.890625 -19.671875 C 19.679688 -19.671875 20.285156 -19.457031 20.703125 -19.03125 C 21.128906 -18.613281 21.34375 -18 21.34375 -17.1875 L 21.34375 -1.9375 C 21.34375 1.195312 20.507812 3.554688 18.84375 5.140625 C 17.1875 6.722656 14.769531 7.515625 11.59375 7.515625 Z M 11.484375 -4.234375 C 12.515625 -4.234375 13.398438 -4.46875 14.140625 -4.9375 C 14.878906 -5.414062 15.453125 -6.097656 15.859375 -6.984375 C 16.265625 -7.867188 16.46875 -8.921875 16.46875 -10.140625 C 16.46875 -11.960938 16.019531 -13.394531 15.125 -14.4375 C 14.226562 -15.476562 13.015625 -16 11.484375 -16 C 10.453125 -16 9.566406 -15.757812 8.828125 -15.28125 C 8.085938 -14.8125 7.515625 -14.140625 7.109375 -13.265625 C 6.703125 -12.390625 6.5 -11.347656 6.5 -10.140625 C 6.5 -8.316406 6.945312 -6.875 7.84375 -5.8125 C 8.738281 -4.757812 9.953125 -4.234375 11.484375 -4.234375 Z M 11.484375 -4.234375 "/></g></g></g><g fill="#000000" fill-opacity="1"><g transform="translate(198.260454, 49.064615)"><g><path d="M 8.953125 0.390625 C 7.546875 0.390625 6.296875 0.117188 5.203125 -0.421875 C 4.109375 -0.960938 3.25 -1.691406 2.625 -2.609375 C 2.007812 -3.535156 1.703125 -4.578125 1.703125 -5.734375 C 1.703125 -7.160156 2.070312 -8.289062 2.8125 -9.125 C 3.550781 -9.957031 4.75 -10.554688 6.40625 -10.921875 C 8.070312 -11.296875 10.304688 -11.484375 13.109375 -11.484375 L 15.078125 -11.484375 L 15.078125 -8.625 L 13.140625 -8.625 C 11.503906 -8.625 10.195312 -8.546875 9.21875 -8.390625 C 8.25 -8.234375 7.554688 -7.960938 7.140625 -7.578125 C 6.734375 -7.203125 6.53125 -6.671875 6.53125 -5.984375 C 6.53125 -5.109375 6.832031 -4.394531 7.4375 -3.84375 C 8.050781 -3.289062 8.898438 -3.015625 9.984375 -3.015625 C 10.847656 -3.015625 11.613281 -3.21875 12.28125 -3.625 C 12.957031 -4.03125 13.492188 -4.585938 13.890625 -5.296875 C 14.285156 -6.015625 14.484375 -6.835938 14.484375 -7.765625 L 14.484375 -12.3125 C 14.484375 -13.632812 14.191406 -14.582031 13.609375 -15.15625 C 13.035156 -15.738281 12.0625 -16.03125 10.6875 -16.03125 C 9.925781 -16.03125 9.101562 -15.9375 8.21875 -15.75 C 7.332031 -15.570312 6.398438 -15.257812 5.421875 -14.8125 C 4.921875 -14.570312 4.476562 -14.503906 4.09375 -14.609375 C 3.71875 -14.710938 3.421875 -14.929688 3.203125 -15.265625 C 2.992188 -15.597656 2.890625 -15.960938 2.890625 -16.359375 C 2.890625 -16.753906 2.992188 -17.140625 3.203125 -17.515625 C 3.421875 -17.898438 3.78125 -18.1875 4.28125 -18.375 C 5.488281 -18.875 6.65625 -19.226562 7.78125 -19.4375 C 8.90625 -19.644531 9.925781 -19.75 10.84375 -19.75 C 12.75 -19.75 14.3125 -19.457031 15.53125 -18.875 C 16.757812 -18.300781 17.675781 -17.425781 18.28125 -16.25 C 18.894531 -15.070312 19.203125 -13.5625 19.203125 -11.71875 L 19.203125 -2.21875 C 19.203125 -1.394531 19.003906 -0.765625 18.609375 -0.328125 C 18.210938 0.0976562 17.644531 0.3125 16.90625 0.3125 C 16.164062 0.3125 15.59375 0.0976562 15.1875 -0.328125 C 14.78125 -0.765625 14.578125 -1.394531 14.578125 -2.21875 L 14.578125 -4.125 L 14.890625 -4.125 C 14.703125 -3.195312 14.335938 -2.394531 13.796875 -1.71875 C 13.253906 -1.050781 12.570312 -0.53125 11.75 -0.15625 C 10.9375 0.207031 10.003906 0.390625 8.953125 0.390625 Z M 8.953125 0.390625 "/></g></g></g><g fill="#000000" fill-opacity="1"><g transform="translate(219.919504, 49.064615)"><g><path d="M 5.03125 7.4375 C 4.238281 7.4375 3.628906 7.222656 3.203125 6.796875 C 2.785156 6.378906 2.578125 5.765625 2.578125 4.953125 L 2.578125 -17.1875 C 2.578125 -18 2.785156 -18.613281 3.203125 -19.03125 C 3.628906 -19.457031 4.222656 -19.671875 4.984375 -19.671875 C 5.773438 -19.671875 6.378906 -19.457031 6.796875 -19.03125 C 7.222656 -18.613281 7.4375 -18 7.4375 -17.1875 L 7.4375 -14.09375 L 7.015625 -15.28125 C 7.410156 -16.625 8.21875 -17.703125 9.4375 -18.515625 C 10.664062 -19.335938 12.097656 -19.75 13.734375 -19.75 C 15.421875 -19.75 16.90625 -19.335938 18.1875 -18.515625 C 19.46875 -17.703125 20.460938 -16.550781 21.171875 -15.0625 C 21.890625 -13.570312 22.25 -11.785156 22.25 -9.703125 C 22.25 -7.640625 21.890625 -5.847656 21.171875 -4.328125 C 20.460938 -2.816406 19.472656 -1.648438 18.203125 -0.828125 C 16.941406 -0.015625 15.453125 0.390625 13.734375 0.390625 C 12.128906 0.390625 10.71875 -0.0078125 9.5 -0.8125 C 8.289062 -1.613281 7.472656 -2.660156 7.046875 -3.953125 L 7.515625 -3.953125 L 7.515625 4.953125 C 7.515625 5.765625 7.296875 6.378906 6.859375 6.796875 C 6.429688 7.222656 5.820312 7.4375 5.03125 7.4375 Z M 12.359375 -3.359375 C 13.328125 -3.359375 14.179688 -3.597656 14.921875 -4.078125 C 15.660156 -4.554688 16.234375 -5.265625 16.640625 -6.203125 C 17.054688 -7.140625 17.265625 -8.304688 17.265625 -9.703125 C 17.265625 -11.816406 16.816406 -13.394531 15.921875 -14.4375 C 15.023438 -15.476562 13.835938 -16 12.359375 -16 C 11.378906 -16 10.519531 -15.765625 9.78125 -15.296875 C 9.039062 -14.835938 8.460938 -14.140625 8.046875 -13.203125 C 7.640625 -12.265625 7.4375 -11.097656 7.4375 -9.703125 C 7.4375 -7.617188 7.882812 -6.039062 8.78125 -4.96875 C 9.6875 -3.894531 10.878906 -3.359375 12.359375 -3.359375 Z M 12.359375 -3.359375 "/></g></g></g><g fill="#000000" fill-opacity="1"><g transform="translate(243.677145, 49.064615)"><g><path d="M 9.578125 0.390625 C 7.972656 0.390625 6.640625 0.09375 5.578125 -0.5 C 4.523438 -1.09375 3.738281 -1.984375 3.21875 -3.171875 C 2.707031 -4.359375 2.453125 -5.835938 2.453125 -7.609375 L 2.453125 -17.1875 C 2.453125 -18.03125 2.660156 -18.65625 3.078125 -19.0625 C 3.503906 -19.46875 4.113281 -19.671875 4.90625 -19.671875 C 5.695312 -19.671875 6.3125 -19.46875 6.75 -19.0625 C 7.1875 -18.65625 7.40625 -18.03125 7.40625 -17.1875 L 7.40625 -7.515625 C 7.40625 -6.148438 7.679688 -5.132812 8.234375 -4.46875 C 8.785156 -3.8125 9.671875 -3.484375 10.890625 -3.484375 C 12.210938 -3.484375 13.296875 -3.9375 14.140625 -4.84375 C 14.984375 -5.757812 15.40625 -6.96875 15.40625 -8.46875 L 15.40625 -17.1875 C 15.40625 -18.03125 15.613281 -18.65625 16.03125 -19.0625 C 16.457031 -19.46875 17.066406 -19.671875 17.859375 -19.671875 C 18.648438 -19.671875 19.257812 -19.46875 19.6875 -19.0625 C 20.125 -18.65625 20.34375 -18.03125 20.34375 -17.1875 L 20.34375 -2.21875 C 20.34375 -0.53125 19.539062 0.3125 17.9375 0.3125 C 17.164062 0.3125 16.566406 0.0976562 16.140625 -0.328125 C 15.722656 -0.765625 15.515625 -1.394531 15.515625 -2.21875 L 15.515625 -5.21875 L 16.078125 -4.03125 C 15.523438 -2.613281 14.6875 -1.519531 13.5625 -0.75 C 12.4375 0.0078125 11.109375 0.390625 9.578125 0.390625 Z M 9.578125 0.390625 "/></g></g></g><g fill="#000000" fill-opacity="1"><g transform="translate(266.60327, 49.064615)"><g><path d="M 5.109375 0.3125 C 4.285156 0.3125 3.65625 0.0976562 3.21875 -0.328125 C 2.789062 -0.765625 2.578125 -1.394531 2.578125 -2.21875 L 2.578125 -17.1875 C 2.578125 -18 2.785156 -18.613281 3.203125 -19.03125 C 3.628906 -19.457031 4.222656 -19.671875 4.984375 -19.671875 C 5.753906 -19.671875 6.347656 -19.457031 6.765625 -19.03125 C 7.191406 -18.613281 7.40625 -18 7.40625 -17.1875 L 7.40625 -14.6875 L 7.015625 -14.6875 C 7.378906 -16.269531 8.101562 -17.46875 9.1875 -18.28125 C 10.269531 -19.101562 11.707031 -19.59375 13.5 -19.75 C 14.050781 -19.8125 14.492188 -19.675781 14.828125 -19.34375 C 15.160156 -19.007812 15.351562 -18.5 15.40625 -17.8125 C 15.457031 -17.15625 15.300781 -16.617188 14.9375 -16.203125 C 14.582031 -15.796875 14.050781 -15.554688 13.34375 -15.484375 L 12.46875 -15.40625 C 10.863281 -15.25 9.648438 -14.753906 8.828125 -13.921875 C 8.015625 -13.085938 7.609375 -11.914062 7.609375 -10.40625 L 7.609375 -2.21875 C 7.609375 -1.394531 7.394531 -0.765625 6.96875 -0.328125 C 6.539062 0.0976562 5.921875 0.3125 5.109375 0.3125 Z M 5.109375 0.3125 "/></g></g></g><g fill="#000000" fill-opacity="1"><g transform="translate(281.926938, 49.064615)"><g><path d="M 8.953125 0.390625 C 7.546875 0.390625 6.296875 0.117188 5.203125 -0.421875 C 4.109375 -0.960938 3.25 -1.691406 2.625 -2.609375 C 2.007812 -3.535156 1.703125 -4.578125 1.703125 -5.734375 C 1.703125 -7.160156 2.070312 -8.289062 2.8125 -9.125 C 3.550781 -9.957031 4.75 -10.554688 6.40625 -10.921875 C 8.070312 -11.296875 10.304688 -11.484375 13.109375 -11.484375 L 15.078125 -11.484375 L 15.078125 -8.625 L 13.140625 -8.625 C 11.503906 -8.625 10.195312 -8.546875 9.21875 -8.390625 C 8.25 -8.234375 7.554688 -7.960938 7.140625 -7.578125 C 6.734375 -7.203125 6.53125 -6.671875 6.53125 -5.984375 C 6.53125 -5.109375 6.832031 -4.394531 7.4375 -3.84375 C 8.050781 -3.289062 8.898438 -3.015625 9.984375 -3.015625 C 10.847656 -3.015625 11.613281 -3.21875 12.28125 -3.625 C 12.957031 -4.03125 13.492188 -4.585938 13.890625 -5.296875 C 14.285156 -6.015625 14.484375 -6.835938 14.484375 -7.765625 L 14.484375 -12.3125 C 14.484375 -13.632812 14.191406 -14.582031 13.609375 -15.15625 C 13.035156 -15.738281 12.0625 -16.03125 10.6875 -16.03125 C 9.925781 -16.03125 9.101562 -15.9375 8.21875 -15.75 C 7.332031 -15.570312 6.398438 -15.257812 5.421875 -14.8125 C 4.921875 -14.570312 4.476562 -14.503906 4.09375 -14.609375 C 3.71875 -14.710938 3.421875 -14.929688 3.203125 -15.265625 C 2.992188 -15.597656 2.890625 -15.960938 2.890625 -16.359375 C 2.890625 -16.753906 2.992188 -17.140625 3.203125 -17.515625 C 3.421875 -17.898438 3.78125 -18.1875 4.28125 -18.375 C 5.488281 -18.875 6.65625 -19.226562 7.78125 -19.4375 C 8.90625 -19.644531 9.925781 -19.75 10.84375 -19.75 C 12.75 -19.75 14.3125 -19.457031 15.53125 -18.875 C 16.757812 -18.300781 17.675781 -17.425781 18.28125 -16.25 C 18.894531 -15.070312 19.203125 -13.5625 19.203125 -11.71875 L 19.203125 -2.21875 C 19.203125 -1.394531 19.003906 -0.765625 18.609375 -0.328125 C 18.210938 0.0976562 17.644531 0.3125 16.90625 0.3125 C 16.164062 0.3125 15.59375 0.0976562 15.1875 -0.328125 C 14.78125 -0.765625 14.578125 -1.394531 14.578125 -2.21875 L 14.578125 -4.125 L 14.890625 -4.125 C 14.703125 -3.195312 14.335938 -2.394531 13.796875 -1.71875 C 13.253906 -1.050781 12.570312 -0.53125 11.75 -0.15625 C 10.9375 0.207031 10.003906 0.390625 8.953125 0.390625 Z M 8.953125 0.390625 "/></g></g></g></svg>