<svg xmlns="http://www.w3.org/2000/svg" xmlns:xlink="http://www.w3.org/1999/xlink" width="1416" zoomAndPan="magnify" viewBox="0 0 1062 346.49999" height="462" preserveAspectRatio="xMidYMid meet" version="1.0"><defs><g/><clipPath id="c29ace4f52"><path d="M 357.585938 0 L 703.53125 0 L 703.53125 345.941406 L 357.585938 345.941406 Z M 357.585938 0 " clip-rule="nonzero"/></clipPath><clipPath id="df17ed0260"><path d="M 714.773438 0 L 1060.714844 0 L 1060.714844 345.941406 L 714.773438 345.941406 Z M 714.773438 0 " clip-rule="nonzero"/></clipPath><clipPath id="8d8c06a0ec"><path d="M 0.765625 0 L 346.707031 0 L 346.707031 345.941406 L 0.765625 345.941406 Z M 0.765625 0 " clip-rule="nonzero"/></clipPath></defs><g clip-path="url(#c29ace4f52)"><path stroke-linecap="butt" transform="matrix(0.748919, 0, 0, 0.748919, 357.587696, 0)" fill="none" stroke-linejoin="miter" d="M -0.00234775 0 L 461.923702 0 L 461.923702 461.920834 L -0.00234775 461.920834 Z M -0.00234775 0 " stroke="#000000" stroke-width="12" stroke-opacity="1" stroke-miterlimit="4"/></g><g clip-path="url(#df17ed0260)"><path stroke-linecap="butt" transform="matrix(0.748919, 0, 0, 0.748919, 714.772253, 0)" fill="none" stroke-linejoin="miter" d="M 0.00158161 0 L 461.922415 0 L 461.922415 461.920834 L 0.00158161 461.920834 Z M 0.00158161 0 " stroke="#000000" stroke-width="12" stroke-opacity="1" stroke-miterlimit="4"/></g><g fill="#000000" fill-opacity="1"><g transform="translate(372.748806, 134.88985)"><g><path d="M 14.078125 10.578125 C 11.398438 6.335938 9.460938 1.875 8.265625 -2.8125 C 7.078125 -7.507812 6.484375 -12.265625 6.484375 -17.078125 C 6.484375 -20.273438 6.742188 -23.453125 7.265625 -26.609375 C 7.785156 -29.765625 8.609375 -32.867188 9.734375 -35.921875 C 10.859375 -38.972656 12.304688 -41.90625 14.078125 -44.71875 C 14.554688 -45.5 15.195312 -45.984375 16 -46.171875 C 16.800781 -46.367188 17.554688 -46.316406 18.265625 -46.015625 C 18.984375 -45.710938 19.515625 -45.160156 19.859375 -44.359375 C 20.203125 -43.554688 20.160156 -42.550781 19.734375 -41.34375 C 18.691406 -38.570312 17.832031 -35.851562 17.15625 -33.1875 C 16.488281 -30.53125 15.992188 -27.882812 15.671875 -25.25 C 15.347656 -22.613281 15.1875 -19.890625 15.1875 -17.078125 C 15.1875 -14.253906 15.359375 -11.523438 15.703125 -8.890625 C 16.054688 -6.253906 16.578125 -3.613281 17.265625 -0.96875 C 17.953125 1.664062 18.773438 4.390625 19.734375 7.203125 C 20.160156 8.410156 20.203125 9.414062 19.859375 10.21875 C 19.515625 11.019531 18.984375 11.570312 18.265625 11.875 C 17.554688 12.175781 16.800781 12.226562 16 12.03125 C 15.195312 11.84375 14.554688 11.359375 14.078125 10.578125 Z M 14.078125 10.578125 "/></g></g></g><g fill="#000000" fill-opacity="1"><g transform="translate(395.982501, 134.88985)"><g><path d="M 9.15625 0.515625 C 7.8125 0.515625 6.78125 0.140625 6.0625 -0.609375 C 5.351562 -1.367188 5 -2.421875 5 -3.765625 L 5 -41.546875 C 5 -42.921875 5.363281 -43.96875 6.09375 -44.6875 C 6.832031 -45.40625 7.875 -45.765625 9.21875 -45.765625 L 24.859375 -45.765625 C 29.878906 -45.765625 33.75 -44.5625 36.46875 -42.15625 C 39.195312 -39.75 40.5625 -36.382812 40.5625 -32.0625 C 40.5625 -29.25 39.941406 -26.828125 38.703125 -24.796875 C 37.472656 -22.765625 35.691406 -21.207031 33.359375 -20.125 C 31.023438 -19.039062 28.191406 -18.5 24.859375 -18.5 L 25.4375 -19.46875 L 27.578125 -19.46875 C 29.359375 -19.46875 30.90625 -19.035156 32.21875 -18.171875 C 33.539062 -17.304688 34.703125 -15.941406 35.703125 -14.078125 L 40.5625 -5.0625 C 41.082031 -4.15625 41.320312 -3.269531 41.28125 -2.40625 C 41.238281 -1.539062 40.910156 -0.835938 40.296875 -0.296875 C 39.691406 0.242188 38.804688 0.515625 37.640625 0.515625 C 36.472656 0.515625 35.519531 0.269531 34.78125 -0.21875 C 34.050781 -0.71875 33.40625 -1.488281 32.84375 -2.53125 L 26.28125 -14.609375 C 25.507812 -16.078125 24.59375 -17.054688 23.53125 -17.546875 C 22.46875 -18.046875 21.113281 -18.296875 19.46875 -18.296875 L 13.3125 -18.296875 L 13.3125 -3.765625 C 13.3125 -2.421875 12.960938 -1.367188 12.265625 -0.609375 C 11.578125 0.140625 10.539062 0.515625 9.15625 0.515625 Z M 13.3125 -24.46875 L 23.4375 -24.46875 C 26.414062 -24.46875 28.671875 -25.082031 30.203125 -26.3125 C 31.742188 -27.550781 32.515625 -29.40625 32.515625 -31.875 C 32.515625 -34.289062 31.742188 -36.113281 30.203125 -37.34375 C 28.671875 -38.582031 26.414062 -39.203125 23.4375 -39.203125 L 13.3125 -39.203125 Z M 13.3125 -24.46875 "/></g></g></g><g fill="#000000" fill-opacity="1"><g transform="translate(440.502937, 134.88985)"><g/></g></g><g fill="#000000" fill-opacity="1"><g transform="translate(458.09046, 134.88985)"><g><path d="M 19.46875 -2.078125 C 18.519531 -2.078125 17.785156 -2.347656 17.265625 -2.890625 C 16.742188 -3.429688 16.484375 -4.175781 16.484375 -5.125 L 16.484375 -15.765625 L 6.03125 -15.765625 C 5.125 -15.765625 4.410156 -16.015625 3.890625 -16.515625 C 3.367188 -17.015625 3.109375 -17.71875 3.109375 -18.625 C 3.109375 -19.53125 3.367188 -20.234375 3.890625 -20.734375 C 4.410156 -21.234375 5.125 -21.484375 6.03125 -21.484375 L 16.484375 -21.484375 L 16.484375 -31.796875 C 16.484375 -32.753906 16.742188 -33.492188 17.265625 -34.015625 C 17.785156 -34.535156 18.539062 -34.796875 19.53125 -34.796875 C 20.488281 -34.796875 21.210938 -34.535156 21.703125 -34.015625 C 22.203125 -33.492188 22.453125 -32.753906 22.453125 -31.796875 L 22.453125 -21.484375 L 32.90625 -21.484375 C 33.851562 -21.484375 34.578125 -21.234375 35.078125 -20.734375 C 35.578125 -20.234375 35.828125 -19.53125 35.828125 -18.625 C 35.828125 -17.71875 35.578125 -17.015625 35.078125 -16.515625 C 34.578125 -16.015625 33.851562 -15.765625 32.90625 -15.765625 L 22.453125 -15.765625 L 22.453125 -5.125 C 22.453125 -4.175781 22.203125 -3.429688 21.703125 -2.890625 C 21.210938 -2.347656 20.46875 -2.078125 19.46875 -2.078125 Z M 19.46875 -2.078125 "/></g></g></g><g fill="#000000" fill-opacity="1"><g transform="translate(497.029622, 134.88985)"><g/></g></g><g fill="#000000" fill-opacity="1"><g transform="translate(514.617145, 134.88985)"><g><path d="M 20.765625 0.65625 C 18.867188 0.65625 16.96875 0.515625 15.0625 0.234375 C 13.15625 -0.046875 11.359375 -0.476562 9.671875 -1.0625 C 7.984375 -1.65625 6.46875 -2.382812 5.125 -3.25 C 4.34375 -3.769531 3.800781 -4.394531 3.5 -5.125 C 3.195312 -5.863281 3.097656 -6.585938 3.203125 -7.296875 C 3.316406 -8.015625 3.597656 -8.644531 4.046875 -9.1875 C 4.503906 -9.726562 5.078125 -10.0625 5.765625 -10.1875 C 6.460938 -10.320312 7.222656 -10.128906 8.046875 -9.609375 C 9.953125 -8.484375 11.960938 -7.660156 14.078125 -7.140625 C 16.203125 -6.617188 18.429688 -6.359375 20.765625 -6.359375 C 24.179688 -6.359375 26.671875 -6.929688 28.234375 -8.078125 C 29.796875 -9.222656 30.578125 -10.707031 30.578125 -12.53125 C 30.578125 -14.039062 30.023438 -15.226562 28.921875 -16.09375 C 27.816406 -16.957031 25.921875 -17.671875 23.234375 -18.234375 L 16.09375 -19.734375 C 11.988281 -20.597656 8.925781 -22.054688 6.90625 -24.109375 C 4.894531 -26.171875 3.890625 -28.890625 3.890625 -32.265625 C 3.890625 -34.378906 4.320312 -36.300781 5.1875 -38.03125 C 6.050781 -39.757812 7.273438 -41.25 8.859375 -42.5 C 10.441406 -43.757812 12.320312 -44.722656 14.5 -45.390625 C 16.6875 -46.066406 19.101562 -46.40625 21.75 -46.40625 C 24.34375 -46.40625 26.804688 -46.078125 29.140625 -45.421875 C 31.472656 -44.773438 33.570312 -43.828125 35.4375 -42.578125 C 36.132812 -42.097656 36.597656 -41.507812 36.828125 -40.8125 C 37.066406 -40.125 37.117188 -39.445312 36.984375 -38.78125 C 36.859375 -38.113281 36.554688 -37.539062 36.078125 -37.0625 C 35.609375 -36.582031 35.015625 -36.300781 34.296875 -36.21875 C 33.585938 -36.132812 32.78125 -36.347656 31.875 -36.859375 C 30.269531 -37.773438 28.644531 -38.425781 27 -38.8125 C 25.351562 -39.195312 23.578125 -39.390625 21.671875 -39.390625 C 19.679688 -39.390625 17.972656 -39.109375 16.546875 -38.546875 C 15.117188 -37.984375 14.023438 -37.191406 13.265625 -36.171875 C 12.515625 -35.160156 12.140625 -33.960938 12.140625 -32.578125 C 12.140625 -31.023438 12.65625 -29.78125 13.6875 -28.84375 C 14.726562 -27.914062 16.503906 -27.191406 19.015625 -26.671875 L 26.09375 -25.1875 C 30.375 -24.28125 33.5625 -22.851562 35.65625 -20.90625 C 37.757812 -18.957031 38.8125 -16.359375 38.8125 -13.109375 C 38.8125 -11.035156 38.390625 -9.15625 37.546875 -7.46875 C 36.703125 -5.78125 35.488281 -4.328125 33.90625 -3.109375 C 32.332031 -1.898438 30.441406 -0.96875 28.234375 -0.3125 C 26.023438 0.332031 23.535156 0.65625 20.765625 0.65625 Z M 20.765625 0.65625 "/></g></g></g><g fill="#000000" fill-opacity="1"><g transform="translate(555.568158, 134.88985)"><g><path d="M 9.15625 10.578125 C 8.675781 11.359375 8.035156 11.84375 7.234375 12.03125 C 6.429688 12.226562 5.660156 12.164062 4.921875 11.84375 C 4.191406 11.519531 3.664062 10.96875 3.34375 10.1875 C 3.019531 9.40625 3.070312 8.410156 3.5 7.203125 C 4.582031 4.390625 5.445312 1.664062 6.09375 -0.96875 C 6.75 -3.613281 7.238281 -6.253906 7.5625 -8.890625 C 7.882812 -11.523438 8.046875 -14.253906 8.046875 -17.078125 C 8.046875 -19.890625 7.875 -22.613281 7.53125 -25.25 C 7.1875 -27.882812 6.675781 -30.519531 6 -33.15625 C 5.332031 -35.800781 4.5 -38.53125 3.5 -41.34375 C 3.070312 -42.550781 3.03125 -43.554688 3.375 -44.359375 C 3.71875 -45.160156 4.253906 -45.710938 4.984375 -46.015625 C 5.722656 -46.316406 6.484375 -46.367188 7.265625 -46.171875 C 8.046875 -45.984375 8.675781 -45.5 9.15625 -44.71875 C 11.789062 -40.519531 13.710938 -36.0625 14.921875 -31.34375 C 16.140625 -26.632812 16.75 -21.878906 16.75 -17.078125 C 16.75 -13.867188 16.476562 -10.6875 15.9375 -7.53125 C 15.394531 -4.375 14.570312 -1.269531 13.46875 1.78125 C 12.363281 4.832031 10.925781 7.765625 9.15625 10.578125 Z M 9.15625 10.578125 "/></g></g></g><g fill="#000000" fill-opacity="1"><g transform="translate(578.801842, 134.88985)"><g/></g></g><g fill="#000000" fill-opacity="1"><g transform="translate(596.389377, 134.88985)"><g><path d="M 6.421875 0.328125 C 5.472656 0.328125 4.679688 0.0546875 4.046875 -0.484375 C 3.421875 -1.023438 3.097656 -1.726562 3.078125 -2.59375 C 3.054688 -3.457031 3.414062 -4.367188 4.15625 -5.328125 L 14.671875 -18.296875 L 14.671875 -14.46875 L 4.796875 -26.609375 C 4.023438 -27.566406 3.660156 -28.476562 3.703125 -29.34375 C 3.742188 -30.207031 4.078125 -30.910156 4.703125 -31.453125 C 5.328125 -31.992188 6.117188 -32.265625 7.078125 -32.265625 C 8.066406 -32.265625 8.894531 -32.085938 9.5625 -31.734375 C 10.238281 -31.390625 10.859375 -30.847656 11.421875 -30.109375 L 19.21875 -20.125 L 16.359375 -20.125 L 24.203125 -30.109375 C 24.816406 -30.847656 25.445312 -31.390625 26.09375 -31.734375 C 26.738281 -32.085938 27.539062 -32.265625 28.5 -32.265625 C 29.488281 -32.265625 30.285156 -31.984375 30.890625 -31.421875 C 31.492188 -30.859375 31.804688 -30.140625 31.828125 -29.265625 C 31.859375 -28.398438 31.484375 -27.492188 30.703125 -26.546875 L 20.90625 -14.53125 L 20.90625 -18.171875 L 31.421875 -5.328125 C 32.191406 -4.410156 32.554688 -3.519531 32.515625 -2.65625 C 32.472656 -1.789062 32.140625 -1.078125 31.515625 -0.515625 C 30.890625 0.046875 30.078125 0.328125 29.078125 0.328125 C 28.128906 0.328125 27.328125 0.15625 26.671875 -0.1875 C 26.023438 -0.539062 25.398438 -1.082031 24.796875 -1.8125 L 16.359375 -12.46875 L 19.078125 -12.46875 L 10.703125 -1.8125 C 10.140625 -1.125 9.535156 -0.59375 8.890625 -0.21875 C 8.242188 0.144531 7.421875 0.328125 6.421875 0.328125 Z M 6.421875 0.328125 "/></g></g></g><g fill="#000000" fill-opacity="1"><g transform="translate(631.824014, 134.88985)"><g/></g></g><g fill="#000000" fill-opacity="1"><g transform="translate(649.411526, 134.88985)"><g><path d="M 19.859375 0.65625 C 17.566406 0.65625 15.226562 0.351562 12.84375 -0.25 C 10.46875 -0.863281 8.285156 -1.796875 6.296875 -3.046875 C 5.472656 -3.566406 4.921875 -4.179688 4.640625 -4.890625 C 4.359375 -5.609375 4.289062 -6.320312 4.4375 -7.03125 C 4.59375 -7.75 4.921875 -8.359375 5.421875 -8.859375 C 5.921875 -9.359375 6.523438 -9.648438 7.234375 -9.734375 C 7.953125 -9.816406 8.742188 -9.625 9.609375 -9.15625 C 11.203125 -8.238281 12.820312 -7.539062 14.46875 -7.0625 C 16.113281 -6.59375 17.867188 -6.359375 19.734375 -6.359375 C 21.546875 -6.359375 23.101562 -6.679688 24.40625 -7.328125 C 25.707031 -7.984375 26.703125 -8.894531 27.390625 -10.0625 C 28.078125 -11.226562 28.421875 -12.59375 28.421875 -14.15625 C 28.421875 -16.570312 27.6875 -18.523438 26.21875 -20.015625 C 24.75 -21.515625 22.738281 -22.265625 20.1875 -22.265625 C 18.800781 -22.265625 17.457031 -22.035156 16.15625 -21.578125 C 14.863281 -21.128906 13.585938 -20.34375 12.328125 -19.21875 C 11.941406 -18.863281 11.445312 -18.523438 10.84375 -18.203125 C 10.238281 -17.878906 9.585938 -17.71875 8.890625 -17.71875 C 7.804688 -17.71875 6.984375 -18 6.421875 -18.5625 C 5.859375 -19.125 5.578125 -19.90625 5.578125 -20.90625 L 5.578125 -42.125 C 5.578125 -43.289062 5.890625 -44.1875 6.515625 -44.8125 C 7.148438 -45.445312 8.050781 -45.765625 9.21875 -45.765625 L 30.578125 -45.765625 C 31.742188 -45.765625 32.640625 -45.46875 33.265625 -44.875 C 33.890625 -44.289062 34.203125 -43.4375 34.203125 -42.3125 C 34.203125 -41.238281 33.890625 -40.394531 33.265625 -39.78125 C 32.640625 -39.175781 31.742188 -38.875 30.578125 -38.875 L 13.6875 -38.875 L 13.6875 -24.34375 L 11.546875 -24.34375 C 12.671875 -25.851562 14.164062 -27.019531 16.03125 -27.84375 C 17.894531 -28.664062 19.929688 -29.078125 22.140625 -29.078125 C 25.035156 -29.078125 27.550781 -28.457031 29.6875 -27.21875 C 31.832031 -25.988281 33.5 -24.28125 34.6875 -22.09375 C 35.882812 -19.914062 36.484375 -17.375 36.484375 -14.46875 C 36.484375 -11.488281 35.8125 -8.863281 34.46875 -6.59375 C 33.125 -4.320312 31.207031 -2.546875 28.71875 -1.265625 C 26.226562 0.015625 23.273438 0.65625 19.859375 0.65625 Z M 19.859375 0.65625 "/></g></g></g><g fill="#000000" fill-opacity="1"><g transform="translate(502.288437, 195.55231)"><g><path d="M 6.03125 -22.265625 C 5.125 -22.265625 4.410156 -22.507812 3.890625 -23 C 3.367188 -23.5 3.109375 -24.207031 3.109375 -25.125 C 3.109375 -26.03125 3.367188 -26.726562 3.890625 -27.21875 C 4.410156 -27.71875 5.125 -27.96875 6.03125 -27.96875 L 32.90625 -27.96875 C 33.851562 -27.96875 34.578125 -27.71875 35.078125 -27.21875 C 35.578125 -26.726562 35.828125 -26.03125 35.828125 -25.125 C 35.828125 -24.207031 35.578125 -23.5 35.078125 -23 C 34.578125 -22.507812 33.851562 -22.265625 32.90625 -22.265625 Z M 6.03125 -9.34375 C 5.125 -9.34375 4.410156 -9.59375 3.890625 -10.09375 C 3.367188 -10.59375 3.109375 -11.296875 3.109375 -12.203125 C 3.109375 -13.109375 3.367188 -13.800781 3.890625 -14.28125 C 4.410156 -14.757812 5.125 -15 6.03125 -15 L 32.90625 -15 C 33.851562 -15 34.578125 -14.757812 35.078125 -14.28125 C 35.578125 -13.800781 35.828125 -13.109375 35.828125 -12.203125 C 35.828125 -11.253906 35.578125 -10.539062 35.078125 -10.0625 C 34.578125 -9.582031 33.851562 -9.34375 32.90625 -9.34375 Z M 6.03125 -9.34375 "/></g></g></g><g fill="#000000" fill-opacity="1"><g transform="translate(541.232238, 195.55231)"><g/></g></g><g fill="#000000" fill-opacity="1"><g transform="translate(452.929973, 256.21477)"><g><path d="M 43.03125 7.328125 C 43.632812 8.285156 43.867188 9.148438 43.734375 9.921875 C 43.609375 10.703125 43.265625 11.363281 42.703125 11.90625 C 42.140625 12.445312 41.445312 12.789062 40.625 12.9375 C 39.800781 13.09375 38.976562 13.007812 38.15625 12.6875 C 37.34375 12.363281 36.65625 11.75 36.09375 10.84375 L 31.609375 3.640625 C 31.003906 2.640625 30.191406 1.890625 29.171875 1.390625 C 28.160156 0.898438 26.914062 0.65625 25.4375 0.65625 L 31.875 -1.875 C 33.90625 -1.875 35.523438 -1.515625 36.734375 -0.796875 C 37.941406 -0.0859375 39.109375 1.148438 40.234375 2.921875 Z M 25.515625 0.65625 C 21.097656 0.65625 17.234375 -0.316406 13.921875 -2.265625 C 10.609375 -4.210938 8.039062 -6.945312 6.21875 -10.46875 C 4.40625 -14 3.5 -18.144531 3.5 -22.90625 C 3.5 -26.5 4.019531 -29.734375 5.0625 -32.609375 C 6.101562 -35.492188 7.582031 -37.960938 9.5 -40.015625 C 11.425781 -42.066406 13.742188 -43.644531 16.453125 -44.75 C 19.160156 -45.851562 22.179688 -46.40625 25.515625 -46.40625 C 29.960938 -46.40625 33.832031 -45.441406 37.125 -43.515625 C 40.414062 -41.585938 42.96875 -38.867188 44.78125 -35.359375 C 46.601562 -31.859375 47.515625 -27.734375 47.515625 -22.984375 C 47.515625 -19.390625 46.992188 -16.140625 45.953125 -13.234375 C 44.910156 -10.335938 43.425781 -7.847656 41.5 -5.765625 C 39.582031 -3.691406 37.269531 -2.101562 34.5625 -1 C 31.851562 0.101562 28.835938 0.65625 25.515625 0.65625 Z M 25.515625 -6.484375 C 28.328125 -6.484375 30.71875 -7.132812 32.6875 -8.4375 C 34.65625 -9.738281 36.164062 -11.617188 37.21875 -14.078125 C 38.28125 -16.546875 38.8125 -19.488281 38.8125 -22.90625 C 38.8125 -28.101562 37.65625 -32.128906 35.34375 -34.984375 C 33.03125 -37.835938 29.753906 -39.265625 25.515625 -39.265625 C 22.742188 -39.265625 20.359375 -38.625 18.359375 -37.34375 C 16.367188 -36.070312 14.84375 -34.210938 13.78125 -31.765625 C 12.726562 -29.328125 12.203125 -26.375 12.203125 -22.90625 C 12.203125 -17.757812 13.367188 -13.734375 15.703125 -10.828125 C 18.046875 -7.929688 21.316406 -6.484375 25.515625 -6.484375 Z M 25.515625 -6.484375 "/></g></g></g><g fill="#000000" fill-opacity="1"><g transform="translate(503.875373, 256.21477)"><g/></g></g><g fill="#000000" fill-opacity="1"><g transform="translate(521.462896, 256.21477)"><g><path d="M 7.203125 -14.15625 C 6.253906 -14.15625 5.460938 -14.46875 4.828125 -15.09375 C 4.203125 -15.71875 3.890625 -16.484375 3.890625 -17.390625 C 3.890625 -18.347656 4.203125 -19.128906 4.828125 -19.734375 C 5.460938 -20.335938 6.253906 -20.640625 7.203125 -20.640625 L 21.03125 -20.640625 C 21.9375 -20.640625 22.703125 -20.335938 23.328125 -19.734375 C 23.960938 -19.128906 24.28125 -18.347656 24.28125 -17.390625 C 24.28125 -16.484375 23.960938 -15.71875 23.328125 -15.09375 C 22.703125 -14.46875 21.9375 -14.15625 21.03125 -14.15625 Z M 7.203125 -14.15625 "/></g></g></g><g fill="#000000" fill-opacity="1"><g transform="translate(549.628881, 256.21477)"><g/></g></g><g fill="#000000" fill-opacity="1"><g transform="translate(567.216404, 256.21477)"><g><path d="M 20.765625 0.65625 C 18.867188 0.65625 16.96875 0.515625 15.0625 0.234375 C 13.15625 -0.046875 11.359375 -0.476562 9.671875 -1.0625 C 7.984375 -1.65625 6.46875 -2.382812 5.125 -3.25 C 4.34375 -3.769531 3.800781 -4.394531 3.5 -5.125 C 3.195312 -5.863281 3.097656 -6.585938 3.203125 -7.296875 C 3.316406 -8.015625 3.597656 -8.644531 4.046875 -9.1875 C 4.503906 -9.726562 5.078125 -10.0625 5.765625 -10.1875 C 6.460938 -10.320312 7.222656 -10.128906 8.046875 -9.609375 C 9.953125 -8.484375 11.960938 -7.660156 14.078125 -7.140625 C 16.203125 -6.617188 18.429688 -6.359375 20.765625 -6.359375 C 24.179688 -6.359375 26.671875 -6.929688 28.234375 -8.078125 C 29.796875 -9.222656 30.578125 -10.707031 30.578125 -12.53125 C 30.578125 -14.039062 30.023438 -15.226562 28.921875 -16.09375 C 27.816406 -16.957031 25.921875 -17.671875 23.234375 -18.234375 L 16.09375 -19.734375 C 11.988281 -20.597656 8.925781 -22.054688 6.90625 -24.109375 C 4.894531 -26.171875 3.890625 -28.890625 3.890625 -32.265625 C 3.890625 -34.378906 4.320312 -36.300781 5.1875 -38.03125 C 6.050781 -39.757812 7.273438 -41.25 8.859375 -42.5 C 10.441406 -43.757812 12.320312 -44.722656 14.5 -45.390625 C 16.6875 -46.066406 19.101562 -46.40625 21.75 -46.40625 C 24.34375 -46.40625 26.804688 -46.078125 29.140625 -45.421875 C 31.472656 -44.773438 33.570312 -43.828125 35.4375 -42.578125 C 36.132812 -42.097656 36.597656 -41.507812 36.828125 -40.8125 C 37.066406 -40.125 37.117188 -39.445312 36.984375 -38.78125 C 36.859375 -38.113281 36.554688 -37.539062 36.078125 -37.0625 C 35.609375 -36.582031 35.015625 -36.300781 34.296875 -36.21875 C 33.585938 -36.132812 32.78125 -36.347656 31.875 -36.859375 C 30.269531 -37.773438 28.644531 -38.425781 27 -38.8125 C 25.351562 -39.195312 23.578125 -39.390625 21.671875 -39.390625 C 19.679688 -39.390625 17.972656 -39.109375 16.546875 -38.546875 C 15.117188 -37.984375 14.023438 -37.191406 13.265625 -36.171875 C 12.515625 -35.160156 12.140625 -33.960938 12.140625 -32.578125 C 12.140625 -31.023438 12.65625 -29.78125 13.6875 -28.84375 C 14.726562 -27.914062 16.503906 -27.191406 19.015625 -26.671875 L 26.09375 -25.1875 C 30.375 -24.28125 33.5625 -22.851562 35.65625 -20.90625 C 37.757812 -18.957031 38.8125 -16.359375 38.8125 -13.109375 C 38.8125 -11.035156 38.390625 -9.15625 37.546875 -7.46875 C 36.703125 -5.78125 35.488281 -4.328125 33.90625 -3.109375 C 32.332031 -1.898438 30.441406 -0.96875 28.234375 -0.3125 C 26.023438 0.332031 23.535156 0.65625 20.765625 0.65625 Z M 20.765625 0.65625 "/></g></g></g><g fill="#000000" fill-opacity="1"><g transform="translate(759.888192, 103.330338)"><g><path d="M 14.078125 10.578125 C 11.398438 6.335938 9.460938 1.875 8.265625 -2.8125 C 7.078125 -7.507812 6.484375 -12.265625 6.484375 -17.078125 C 6.484375 -20.273438 6.742188 -23.453125 7.265625 -26.609375 C 7.785156 -29.765625 8.609375 -32.867188 9.734375 -35.921875 C 10.859375 -38.972656 12.304688 -41.90625 14.078125 -44.71875 C 14.554688 -45.5 15.195312 -45.984375 16 -46.171875 C 16.800781 -46.367188 17.554688 -46.316406 18.265625 -46.015625 C 18.984375 -45.710938 19.515625 -45.160156 19.859375 -44.359375 C 20.203125 -43.554688 20.160156 -42.550781 19.734375 -41.34375 C 18.691406 -38.570312 17.832031 -35.851562 17.15625 -33.1875 C 16.488281 -30.53125 15.992188 -27.882812 15.671875 -25.25 C 15.347656 -22.613281 15.1875 -19.890625 15.1875 -17.078125 C 15.1875 -14.253906 15.359375 -11.523438 15.703125 -8.890625 C 16.054688 -6.253906 16.578125 -3.613281 17.265625 -0.96875 C 17.953125 1.664062 18.773438 4.390625 19.734375 7.203125 C 20.160156 8.410156 20.203125 9.414062 19.859375 10.21875 C 19.515625 11.019531 18.984375 11.570312 18.265625 11.875 C 17.554688 12.175781 16.800781 12.226562 16 12.03125 C 15.195312 11.84375 14.554688 11.359375 14.078125 10.578125 Z M 14.078125 10.578125 "/></g></g></g><g fill="#000000" fill-opacity="1"><g transform="translate(782.602674, 103.330338)"><g><path d="M 43.03125 7.328125 C 43.632812 8.285156 43.867188 9.148438 43.734375 9.921875 C 43.609375 10.703125 43.265625 11.363281 42.703125 11.90625 C 42.140625 12.445312 41.445312 12.789062 40.625 12.9375 C 39.800781 13.09375 38.976562 13.007812 38.15625 12.6875 C 37.34375 12.363281 36.65625 11.75 36.09375 10.84375 L 31.609375 3.640625 C 31.003906 2.640625 30.191406 1.890625 29.171875 1.390625 C 28.160156 0.898438 26.914062 0.65625 25.4375 0.65625 L 31.875 -1.875 C 33.90625 -1.875 35.523438 -1.515625 36.734375 -0.796875 C 37.941406 -0.0859375 39.109375 1.148438 40.234375 2.921875 Z M 25.515625 0.65625 C 21.097656 0.65625 17.234375 -0.316406 13.921875 -2.265625 C 10.609375 -4.210938 8.039062 -6.945312 6.21875 -10.46875 C 4.40625 -14 3.5 -18.144531 3.5 -22.90625 C 3.5 -26.5 4.019531 -29.734375 5.0625 -32.609375 C 6.101562 -35.492188 7.582031 -37.960938 9.5 -40.015625 C 11.425781 -42.066406 13.742188 -43.644531 16.453125 -44.75 C 19.160156 -45.851562 22.179688 -46.40625 25.515625 -46.40625 C 29.960938 -46.40625 33.832031 -45.441406 37.125 -43.515625 C 40.414062 -41.585938 42.96875 -38.867188 44.78125 -35.359375 C 46.601562 -31.859375 47.515625 -27.734375 47.515625 -22.984375 C 47.515625 -19.390625 46.992188 -16.140625 45.953125 -13.234375 C 44.910156 -10.335938 43.425781 -7.847656 41.5 -5.765625 C 39.582031 -3.691406 37.269531 -2.101562 34.5625 -1 C 31.851562 0.101562 28.835938 0.65625 25.515625 0.65625 Z M 25.515625 -6.484375 C 28.328125 -6.484375 30.71875 -7.132812 32.6875 -8.4375 C 34.65625 -9.738281 36.164062 -11.617188 37.21875 -14.078125 C 38.28125 -16.546875 38.8125 -19.488281 38.8125 -22.90625 C 38.8125 -28.101562 37.65625 -32.128906 35.34375 -34.984375 C 33.03125 -37.835938 29.753906 -39.265625 25.515625 -39.265625 C 22.742188 -39.265625 20.359375 -38.625 18.359375 -37.34375 C 16.367188 -36.070312 14.84375 -34.210938 13.78125 -31.765625 C 12.726562 -29.328125 12.203125 -26.375 12.203125 -22.90625 C 12.203125 -17.757812 13.367188 -13.734375 15.703125 -10.828125 C 18.046875 -7.929688 21.316406 -6.484375 25.515625 -6.484375 Z M 25.515625 -6.484375 "/></g></g></g><g fill="#000000" fill-opacity="1"><g transform="translate(833.548074, 103.330338)"><g/></g></g><g fill="#000000" fill-opacity="1"><g transform="translate(851.135597, 103.330338)"><g><path d="M 7.203125 -14.15625 C 6.253906 -14.15625 5.460938 -14.46875 4.828125 -15.09375 C 4.203125 -15.71875 3.890625 -16.484375 3.890625 -17.390625 C 3.890625 -18.347656 4.203125 -19.128906 4.828125 -19.734375 C 5.460938 -20.335938 6.253906 -20.640625 7.203125 -20.640625 L 21.03125 -20.640625 C 21.9375 -20.640625 22.703125 -20.335938 23.328125 -19.734375 C 23.960938 -19.128906 24.28125 -18.347656 24.28125 -17.390625 C 24.28125 -16.484375 23.960938 -15.71875 23.328125 -15.09375 C 22.703125 -14.46875 21.9375 -14.15625 21.03125 -14.15625 Z M 7.203125 -14.15625 "/></g></g></g><g fill="#000000" fill-opacity="1"><g transform="translate(879.301582, 103.330338)"><g/></g></g><g fill="#000000" fill-opacity="1"><g transform="translate(896.889105, 103.330338)"><g><path d="M 19.859375 0.65625 C 17.566406 0.65625 15.226562 0.351562 12.84375 -0.25 C 10.46875 -0.863281 8.285156 -1.796875 6.296875 -3.046875 C 5.472656 -3.566406 4.921875 -4.179688 4.640625 -4.890625 C 4.359375 -5.609375 4.289062 -6.320312 4.4375 -7.03125 C 4.59375 -7.75 4.921875 -8.359375 5.421875 -8.859375 C 5.921875 -9.359375 6.523438 -9.648438 7.234375 -9.734375 C 7.953125 -9.816406 8.742188 -9.625 9.609375 -9.15625 C 11.203125 -8.238281 12.820312 -7.539062 14.46875 -7.0625 C 16.113281 -6.59375 17.867188 -6.359375 19.734375 -6.359375 C 21.546875 -6.359375 23.101562 -6.679688 24.40625 -7.328125 C 25.707031 -7.984375 26.703125 -8.894531 27.390625 -10.0625 C 28.078125 -11.226562 28.421875 -12.59375 28.421875 -14.15625 C 28.421875 -16.570312 27.6875 -18.523438 26.21875 -20.015625 C 24.75 -21.515625 22.738281 -22.265625 20.1875 -22.265625 C 18.800781 -22.265625 17.457031 -22.035156 16.15625 -21.578125 C 14.863281 -21.128906 13.585938 -20.34375 12.328125 -19.21875 C 11.941406 -18.863281 11.445312 -18.523438 10.84375 -18.203125 C 10.238281 -17.878906 9.585938 -17.71875 8.890625 -17.71875 C 7.804688 -17.71875 6.984375 -18 6.421875 -18.5625 C 5.859375 -19.125 5.578125 -19.90625 5.578125 -20.90625 L 5.578125 -42.125 C 5.578125 -43.289062 5.890625 -44.1875 6.515625 -44.8125 C 7.148438 -45.445312 8.050781 -45.765625 9.21875 -45.765625 L 30.578125 -45.765625 C 31.742188 -45.765625 32.640625 -45.46875 33.265625 -44.875 C 33.890625 -44.289062 34.203125 -43.4375 34.203125 -42.3125 C 34.203125 -41.238281 33.890625 -40.394531 33.265625 -39.78125 C 32.640625 -39.175781 31.742188 -38.875 30.578125 -38.875 L 13.6875 -38.875 L 13.6875 -24.34375 L 11.546875 -24.34375 C 12.671875 -25.851562 14.164062 -27.019531 16.03125 -27.84375 C 17.894531 -28.664062 19.929688 -29.078125 22.140625 -29.078125 C 25.035156 -29.078125 27.550781 -28.457031 29.6875 -27.21875 C 31.832031 -25.988281 33.5 -24.28125 34.6875 -22.09375 C 35.882812 -19.914062 36.484375 -17.375 36.484375 -14.46875 C 36.484375 -11.488281 35.8125 -8.863281 34.46875 -6.59375 C 33.125 -4.320312 31.207031 -2.546875 28.71875 -1.265625 C 26.226562 0.015625 23.273438 0.65625 19.859375 0.65625 Z M 19.859375 0.65625 "/></g></g></g><g fill="#000000" fill-opacity="1"><g transform="translate(935.828267, 103.330338)"><g><path d="M 19.859375 0.65625 C 17.566406 0.65625 15.226562 0.351562 12.84375 -0.25 C 10.46875 -0.863281 8.285156 -1.796875 6.296875 -3.046875 C 5.472656 -3.566406 4.921875 -4.179688 4.640625 -4.890625 C 4.359375 -5.609375 4.289062 -6.320312 4.4375 -7.03125 C 4.59375 -7.75 4.921875 -8.359375 5.421875 -8.859375 C 5.921875 -9.359375 6.523438 -9.648438 7.234375 -9.734375 C 7.953125 -9.816406 8.742188 -9.625 9.609375 -9.15625 C 11.203125 -8.238281 12.820312 -7.539062 14.46875 -7.0625 C 16.113281 -6.59375 17.867188 -6.359375 19.734375 -6.359375 C 21.546875 -6.359375 23.101562 -6.679688 24.40625 -7.328125 C 25.707031 -7.984375 26.703125 -8.894531 27.390625 -10.0625 C 28.078125 -11.226562 28.421875 -12.59375 28.421875 -14.15625 C 28.421875 -16.570312 27.6875 -18.523438 26.21875 -20.015625 C 24.75 -21.515625 22.738281 -22.265625 20.1875 -22.265625 C 18.800781 -22.265625 17.457031 -22.035156 16.15625 -21.578125 C 14.863281 -21.128906 13.585938 -20.34375 12.328125 -19.21875 C 11.941406 -18.863281 11.445312 -18.523438 10.84375 -18.203125 C 10.238281 -17.878906 9.585938 -17.71875 8.890625 -17.71875 C 7.804688 -17.71875 6.984375 -18 6.421875 -18.5625 C 5.859375 -19.125 5.578125 -19.90625 5.578125 -20.90625 L 5.578125 -42.125 C 5.578125 -43.289062 5.890625 -44.1875 6.515625 -44.8125 C 7.148438 -45.445312 8.050781 -45.765625 9.21875 -45.765625 L 30.578125 -45.765625 C 31.742188 -45.765625 32.640625 -45.46875 33.265625 -44.875 C 33.890625 -44.289062 34.203125 -43.4375 34.203125 -42.3125 C 34.203125 -41.238281 33.890625 -40.394531 33.265625 -39.78125 C 32.640625 -39.175781 31.742188 -38.875 30.578125 -38.875 L 13.6875 -38.875 L 13.6875 -24.34375 L 11.546875 -24.34375 C 12.671875 -25.851562 14.164062 -27.019531 16.03125 -27.84375 C 17.894531 -28.664062 19.929688 -29.078125 22.140625 -29.078125 C 25.035156 -29.078125 27.550781 -28.457031 29.6875 -27.21875 C 31.832031 -25.988281 33.5 -24.28125 34.6875 -22.09375 C 35.882812 -19.914062 36.484375 -17.375 36.484375 -14.46875 C 36.484375 -11.488281 35.8125 -8.863281 34.46875 -6.59375 C 33.125 -4.320312 31.207031 -2.546875 28.71875 -1.265625 C 26.226562 0.015625 23.273438 0.65625 19.859375 0.65625 Z M 19.859375 0.65625 "/></g></g></g><g fill="#000000" fill-opacity="1"><g transform="translate(974.767428, 103.330338)"><g><path d="M 9.15625 10.578125 C 8.675781 11.359375 8.035156 11.84375 7.234375 12.03125 C 6.429688 12.226562 5.660156 12.164062 4.921875 11.84375 C 4.191406 11.519531 3.664062 10.96875 3.34375 10.1875 C 3.019531 9.40625 3.070312 8.410156 3.5 7.203125 C 4.582031 4.390625 5.445312 1.664062 6.09375 -0.96875 C 6.75 -3.613281 7.238281 -6.253906 7.5625 -8.890625 C 7.882812 -11.523438 8.046875 -14.253906 8.046875 -17.078125 C 8.046875 -19.890625 7.875 -22.613281 7.53125 -25.25 C 7.1875 -27.882812 6.675781 -30.519531 6 -33.15625 C 5.332031 -35.800781 4.5 -38.53125 3.5 -41.34375 C 3.070312 -42.550781 3.03125 -43.554688 3.375 -44.359375 C 3.71875 -45.160156 4.253906 -45.710938 4.984375 -46.015625 C 5.722656 -46.316406 6.484375 -46.367188 7.265625 -46.171875 C 8.046875 -45.984375 8.675781 -45.5 9.15625 -44.71875 C 11.789062 -40.519531 13.710938 -36.0625 14.921875 -31.34375 C 16.140625 -26.632812 16.75 -21.878906 16.75 -17.078125 C 16.75 -13.867188 16.476562 -10.6875 15.9375 -7.53125 C 15.394531 -4.375 14.570312 -1.269531 13.46875 1.78125 C 12.363281 4.832031 10.925781 7.765625 9.15625 10.578125 Z M 9.15625 10.578125 "/></g></g></g><g fill="#000000" fill-opacity="1"><g transform="translate(998.009409, 103.330338)"><g/></g></g><g fill="#000000" fill-opacity="1"><g transform="translate(791.623646, 163.992798)"><g><path d="M 6.421875 0.328125 C 5.472656 0.328125 4.679688 0.0546875 4.046875 -0.484375 C 3.421875 -1.023438 3.097656 -1.726562 3.078125 -2.59375 C 3.054688 -3.457031 3.414062 -4.367188 4.15625 -5.328125 L 14.671875 -18.296875 L 14.671875 -14.46875 L 4.796875 -26.609375 C 4.023438 -27.566406 3.660156 -28.476562 3.703125 -29.34375 C 3.742188 -30.207031 4.078125 -30.910156 4.703125 -31.453125 C 5.328125 -31.992188 6.117188 -32.265625 7.078125 -32.265625 C 8.066406 -32.265625 8.894531 -32.085938 9.5625 -31.734375 C 10.238281 -31.390625 10.859375 -30.847656 11.421875 -30.109375 L 19.21875 -20.125 L 16.359375 -20.125 L 24.203125 -30.109375 C 24.816406 -30.847656 25.445312 -31.390625 26.09375 -31.734375 C 26.738281 -32.085938 27.539062 -32.265625 28.5 -32.265625 C 29.488281 -32.265625 30.285156 -31.984375 30.890625 -31.421875 C 31.492188 -30.859375 31.804688 -30.140625 31.828125 -29.265625 C 31.859375 -28.398438 31.484375 -27.492188 30.703125 -26.546875 L 20.90625 -14.53125 L 20.90625 -18.171875 L 31.421875 -5.328125 C 32.191406 -4.410156 32.554688 -3.519531 32.515625 -2.65625 C 32.472656 -1.789062 32.140625 -1.078125 31.515625 -0.515625 C 30.890625 0.046875 30.078125 0.328125 29.078125 0.328125 C 28.128906 0.328125 27.328125 0.15625 26.671875 -0.1875 C 26.023438 -0.539062 25.398438 -1.082031 24.796875 -1.8125 L 16.359375 -12.46875 L 19.078125 -12.46875 L 10.703125 -1.8125 C 10.140625 -1.125 9.535156 -0.59375 8.890625 -0.21875 C 8.242188 0.144531 7.421875 0.328125 6.421875 0.328125 Z M 6.421875 0.328125 "/></g></g></g><g fill="#000000" fill-opacity="1"><g transform="translate(827.058282, 163.992798)"><g/></g></g><g fill="#000000" fill-opacity="1"><g transform="translate(844.645805, 163.992798)"><g><path d="M 19.859375 0.65625 C 17.566406 0.65625 15.226562 0.351562 12.84375 -0.25 C 10.46875 -0.863281 8.285156 -1.796875 6.296875 -3.046875 C 5.472656 -3.566406 4.921875 -4.179688 4.640625 -4.890625 C 4.359375 -5.609375 4.289062 -6.320312 4.4375 -7.03125 C 4.59375 -7.75 4.921875 -8.359375 5.421875 -8.859375 C 5.921875 -9.359375 6.523438 -9.648438 7.234375 -9.734375 C 7.953125 -9.816406 8.742188 -9.625 9.609375 -9.15625 C 11.203125 -8.238281 12.820312 -7.539062 14.46875 -7.0625 C 16.113281 -6.59375 17.867188 -6.359375 19.734375 -6.359375 C 21.546875 -6.359375 23.101562 -6.679688 24.40625 -7.328125 C 25.707031 -7.984375 26.703125 -8.894531 27.390625 -10.0625 C 28.078125 -11.226562 28.421875 -12.59375 28.421875 -14.15625 C 28.421875 -16.570312 27.6875 -18.523438 26.21875 -20.015625 C 24.75 -21.515625 22.738281 -22.265625 20.1875 -22.265625 C 18.800781 -22.265625 17.457031 -22.035156 16.15625 -21.578125 C 14.863281 -21.128906 13.585938 -20.34375 12.328125 -19.21875 C 11.941406 -18.863281 11.445312 -18.523438 10.84375 -18.203125 C 10.238281 -17.878906 9.585938 -17.71875 8.890625 -17.71875 C 7.804688 -17.71875 6.984375 -18 6.421875 -18.5625 C 5.859375 -19.125 5.578125 -19.90625 5.578125 -20.90625 L 5.578125 -42.125 C 5.578125 -43.289062 5.890625 -44.1875 6.515625 -44.8125 C 7.148438 -45.445312 8.050781 -45.765625 9.21875 -45.765625 L 30.578125 -45.765625 C 31.742188 -45.765625 32.640625 -45.46875 33.265625 -44.875 C 33.890625 -44.289062 34.203125 -43.4375 34.203125 -42.3125 C 34.203125 -41.238281 33.890625 -40.394531 33.265625 -39.78125 C 32.640625 -39.175781 31.742188 -38.875 30.578125 -38.875 L 13.6875 -38.875 L 13.6875 -24.34375 L 11.546875 -24.34375 C 12.671875 -25.851562 14.164062 -27.019531 16.03125 -27.84375 C 17.894531 -28.664062 19.929688 -29.078125 22.140625 -29.078125 C 25.035156 -29.078125 27.550781 -28.457031 29.6875 -27.21875 C 31.832031 -25.988281 33.5 -24.28125 34.6875 -22.09375 C 35.882812 -19.914062 36.484375 -17.375 36.484375 -14.46875 C 36.484375 -11.488281 35.8125 -8.863281 34.46875 -6.59375 C 33.125 -4.320312 31.207031 -2.546875 28.71875 -1.265625 C 26.226562 0.015625 23.273438 0.65625 19.859375 0.65625 Z M 19.859375 0.65625 "/></g></g></g><g fill="#000000" fill-opacity="1"><g transform="translate(883.584967, 163.992798)"><g><path d="M 19.46875 0.65625 C 14.0625 0.65625 9.929688 -1.390625 7.078125 -5.484375 C 4.222656 -9.578125 2.796875 -15.410156 2.796875 -22.984375 C 2.796875 -28.085938 3.429688 -32.378906 4.703125 -35.859375 C 5.984375 -39.335938 7.863281 -41.960938 10.34375 -43.734375 C 12.832031 -45.515625 15.875 -46.40625 19.46875 -46.40625 C 24.925781 -46.40625 29.070312 -44.414062 31.90625 -40.4375 C 34.738281 -36.457031 36.15625 -30.660156 36.15625 -23.046875 C 36.15625 -17.984375 35.515625 -13.6875 34.234375 -10.15625 C 32.960938 -6.632812 31.09375 -3.953125 28.625 -2.109375 C 26.15625 -0.265625 23.101562 0.65625 19.46875 0.65625 Z M 19.46875 -6.171875 C 22.414062 -6.171875 24.59375 -7.53125 26 -10.25 C 27.40625 -12.976562 28.109375 -17.242188 28.109375 -23.046875 C 28.109375 -28.835938 27.40625 -33.039062 26 -35.65625 C 24.59375 -38.28125 22.414062 -39.59375 19.46875 -39.59375 C 16.570312 -39.59375 14.410156 -38.28125 12.984375 -35.65625 C 11.554688 -33.039062 10.84375 -28.835938 10.84375 -23.046875 C 10.84375 -17.242188 11.554688 -12.976562 12.984375 -10.25 C 14.410156 -7.53125 16.570312 -6.171875 19.46875 -6.171875 Z M 19.46875 -6.171875 "/></g></g></g><g fill="#000000" fill-opacity="1"><g transform="translate(922.524129, 163.992798)"><g><path d="M 21.359375 -0.515625 C 20.921875 0.265625 20.390625 0.769531 19.765625 1 C 19.140625 1.238281 18.507812 1.28125 17.875 1.125 C 17.25 0.976562 16.71875 0.675781 16.28125 0.21875 C 15.851562 -0.226562 15.59375 -0.785156 15.5 -1.453125 C 15.414062 -2.128906 15.59375 -2.859375 16.03125 -3.640625 L 39.984375 -45.171875 C 40.410156 -45.953125 40.9375 -46.472656 41.5625 -46.734375 C 42.195312 -46.992188 42.816406 -47.046875 43.421875 -46.890625 C 44.023438 -46.742188 44.539062 -46.429688 44.96875 -45.953125 C 45.40625 -45.472656 45.675781 -44.898438 45.78125 -44.234375 C 45.894531 -43.566406 45.734375 -42.863281 45.296875 -42.125 Z M 14.40625 -18.4375 C 10.769531 -18.4375 7.9375 -19.691406 5.90625 -22.203125 C 3.875 -24.710938 2.859375 -28.128906 2.859375 -32.453125 C 2.859375 -35.347656 3.3125 -37.832031 4.21875 -39.90625 C 5.125 -41.988281 6.441406 -43.59375 8.171875 -44.71875 C 9.910156 -45.84375 11.988281 -46.40625 14.40625 -46.40625 C 18.039062 -46.40625 20.875 -45.160156 22.90625 -42.671875 C 24.945312 -40.179688 25.96875 -36.773438 25.96875 -32.453125 C 25.96875 -29.554688 25.507812 -27.054688 24.59375 -24.953125 C 23.6875 -22.859375 22.367188 -21.25 20.640625 -20.125 C 18.910156 -19 16.832031 -18.4375 14.40625 -18.4375 Z M 14.40625 -23.890625 C 15.445312 -23.890625 16.332031 -24.203125 17.0625 -24.828125 C 17.800781 -25.453125 18.363281 -26.390625 18.75 -27.640625 C 19.144531 -28.898438 19.34375 -30.503906 19.34375 -32.453125 C 19.34375 -35.347656 18.910156 -37.488281 18.046875 -38.875 C 17.179688 -40.257812 15.96875 -40.953125 14.40625 -40.953125 C 13.363281 -40.953125 12.472656 -40.648438 11.734375 -40.046875 C 11.003906 -39.441406 10.441406 -38.507812 10.046875 -37.25 C 9.660156 -36 9.46875 -34.398438 9.46875 -32.453125 C 9.46875 -29.515625 9.898438 -27.351562 10.765625 -25.96875 C 11.640625 -24.582031 12.851562 -23.890625 14.40625 -23.890625 Z M 47 0.65625 C 43.363281 0.65625 40.523438 -0.597656 38.484375 -3.109375 C 36.453125 -5.617188 35.4375 -9.039062 35.4375 -13.375 C 35.4375 -16.269531 35.890625 -18.753906 36.796875 -20.828125 C 37.710938 -22.910156 39.035156 -24.515625 40.765625 -25.640625 C 42.492188 -26.765625 44.570312 -27.328125 47 -27.328125 C 50.625 -27.328125 53.453125 -26.082031 55.484375 -23.59375 C 57.523438 -21.101562 58.546875 -17.695312 58.546875 -13.375 C 58.546875 -10.46875 58.085938 -7.960938 57.171875 -5.859375 C 56.265625 -3.765625 54.945312 -2.15625 53.21875 -1.03125 C 51.488281 0.09375 49.414062 0.65625 47 0.65625 Z M 47 -4.796875 C 48.03125 -4.796875 48.910156 -5.097656 49.640625 -5.703125 C 50.378906 -6.316406 50.941406 -7.257812 51.328125 -8.53125 C 51.722656 -9.8125 51.921875 -11.425781 51.921875 -13.375 C 51.921875 -16.269531 51.488281 -18.410156 50.625 -19.796875 C 49.757812 -21.179688 48.550781 -21.875 47 -21.875 C 45.957031 -21.875 45.066406 -21.570312 44.328125 -20.96875 C 43.597656 -20.363281 43.035156 -19.429688 42.640625 -18.171875 C 42.253906 -16.921875 42.0625 -15.320312 42.0625 -13.375 C 42.0625 -10.425781 42.492188 -8.257812 43.359375 -6.875 C 44.222656 -5.488281 45.4375 -4.796875 47 -4.796875 Z M 47 -4.796875 "/></g></g></g><g fill="#000000" fill-opacity="1"><g transform="translate(868.27085, 224.655257)"><g><path d="M 6.03125 -22.265625 C 5.125 -22.265625 4.410156 -22.507812 3.890625 -23 C 3.367188 -23.5 3.109375 -24.207031 3.109375 -25.125 C 3.109375 -26.03125 3.367188 -26.726562 3.890625 -27.21875 C 4.410156 -27.71875 5.125 -27.96875 6.03125 -27.96875 L 32.90625 -27.96875 C 33.851562 -27.96875 34.578125 -27.71875 35.078125 -27.21875 C 35.578125 -26.726562 35.828125 -26.03125 35.828125 -25.125 C 35.828125 -24.207031 35.578125 -23.5 35.078125 -23 C 34.578125 -22.507812 33.851562 -22.265625 32.90625 -22.265625 Z M 6.03125 -9.34375 C 5.125 -9.34375 4.410156 -9.59375 3.890625 -10.09375 C 3.367188 -10.59375 3.109375 -11.296875 3.109375 -12.203125 C 3.109375 -13.109375 3.367188 -13.800781 3.890625 -14.28125 C 4.410156 -14.757812 5.125 -15 6.03125 -15 L 32.90625 -15 C 33.851562 -15 34.578125 -14.757812 35.078125 -14.28125 C 35.578125 -13.800781 35.828125 -13.109375 35.828125 -12.203125 C 35.828125 -11.253906 35.578125 -10.539062 35.078125 -10.0625 C 34.578125 -9.582031 33.851562 -9.34375 32.90625 -9.34375 Z M 6.03125 -9.34375 "/></g></g></g><g fill="#000000" fill-opacity="1"><g transform="translate(867.26449, 285.317717)"><g><path d="M 20.765625 0.65625 C 18.867188 0.65625 16.96875 0.515625 15.0625 0.234375 C 13.15625 -0.046875 11.359375 -0.476562 9.671875 -1.0625 C 7.984375 -1.65625 6.46875 -2.382812 5.125 -3.25 C 4.34375 -3.769531 3.800781 -4.394531 3.5 -5.125 C 3.195312 -5.863281 3.097656 -6.585938 3.203125 -7.296875 C 3.316406 -8.015625 3.597656 -8.644531 4.046875 -9.1875 C 4.503906 -9.726562 5.078125 -10.0625 5.765625 -10.1875 C 6.460938 -10.320312 7.222656 -10.128906 8.046875 -9.609375 C 9.953125 -8.484375 11.960938 -7.660156 14.078125 -7.140625 C 16.203125 -6.617188 18.429688 -6.359375 20.765625 -6.359375 C 24.179688 -6.359375 26.671875 -6.929688 28.234375 -8.078125 C 29.796875 -9.222656 30.578125 -10.707031 30.578125 -12.53125 C 30.578125 -14.039062 30.023438 -15.226562 28.921875 -16.09375 C 27.816406 -16.957031 25.921875 -17.671875 23.234375 -18.234375 L 16.09375 -19.734375 C 11.988281 -20.597656 8.925781 -22.054688 6.90625 -24.109375 C 4.894531 -26.171875 3.890625 -28.890625 3.890625 -32.265625 C 3.890625 -34.378906 4.320312 -36.300781 5.1875 -38.03125 C 6.050781 -39.757812 7.273438 -41.25 8.859375 -42.5 C 10.441406 -43.757812 12.320312 -44.722656 14.5 -45.390625 C 16.6875 -46.066406 19.101562 -46.40625 21.75 -46.40625 C 24.34375 -46.40625 26.804688 -46.078125 29.140625 -45.421875 C 31.472656 -44.773438 33.570312 -43.828125 35.4375 -42.578125 C 36.132812 -42.097656 36.597656 -41.507812 36.828125 -40.8125 C 37.066406 -40.125 37.117188 -39.445312 36.984375 -38.78125 C 36.859375 -38.113281 36.554688 -37.539062 36.078125 -37.0625 C 35.609375 -36.582031 35.015625 -36.300781 34.296875 -36.21875 C 33.585938 -36.132812 32.78125 -36.347656 31.875 -36.859375 C 30.269531 -37.773438 28.644531 -38.425781 27 -38.8125 C 25.351562 -39.195312 23.578125 -39.390625 21.671875 -39.390625 C 19.679688 -39.390625 17.972656 -39.109375 16.546875 -38.546875 C 15.117188 -37.984375 14.023438 -37.191406 13.265625 -36.171875 C 12.515625 -35.160156 12.140625 -33.960938 12.140625 -32.578125 C 12.140625 -31.023438 12.65625 -29.78125 13.6875 -28.84375 C 14.726562 -27.914062 16.503906 -27.191406 19.015625 -26.671875 L 26.09375 -25.1875 C 30.375 -24.28125 33.5625 -22.851562 35.65625 -20.90625 C 37.757812 -18.957031 38.8125 -16.359375 38.8125 -13.109375 C 38.8125 -11.035156 38.390625 -9.15625 37.546875 -7.46875 C 36.703125 -5.78125 35.488281 -4.328125 33.90625 -3.109375 C 32.332031 -1.898438 30.441406 -0.96875 28.234375 -0.3125 C 26.023438 0.332031 23.535156 0.65625 20.765625 0.65625 Z M 20.765625 0.65625 "/></g></g></g><g clip-path="url(#8d8c06a0ec)"><path stroke-linecap="butt" transform="matrix(0.748919, 0, 0, 0.748919, 0.765146, 0.000000000000085142)" fill="none" stroke-linejoin="miter" d="M 0.000639921 -0.000000000000113687 L 461.921473 -0.000000000000113687 L 461.921473 461.920834 L 0.000639921 461.920834 Z M 0.000639921 -0.000000000000113687 " stroke="#000000" stroke-width="12" stroke-opacity="1" stroke-miterlimit="4"/></g><g fill="#000000" fill-opacity="1"><g transform="translate(93.104907, 124.534119)"><g><path d="M 43.03125 7.328125 C 43.632812 8.285156 43.867188 9.148438 43.734375 9.921875 C 43.609375 10.703125 43.265625 11.363281 42.703125 11.90625 C 42.140625 12.445312 41.445312 12.789062 40.625 12.9375 C 39.800781 13.09375 38.976562 13.007812 38.15625 12.6875 C 37.34375 12.363281 36.65625 11.75 36.09375 10.84375 L 31.609375 3.640625 C 31.003906 2.640625 30.191406 1.890625 29.171875 1.390625 C 28.160156 0.898438 26.914062 0.65625 25.4375 0.65625 L 31.875 -1.875 C 33.90625 -1.875 35.523438 -1.515625 36.734375 -0.796875 C 37.941406 -0.0859375 39.109375 1.148438 40.234375 2.921875 Z M 25.515625 0.65625 C 21.097656 0.65625 17.234375 -0.316406 13.921875 -2.265625 C 10.609375 -4.210938 8.039062 -6.945312 6.21875 -10.46875 C 4.40625 -14 3.5 -18.144531 3.5 -22.90625 C 3.5 -26.5 4.019531 -29.734375 5.0625 -32.609375 C 6.101562 -35.492188 7.582031 -37.960938 9.5 -40.015625 C 11.425781 -42.066406 13.742188 -43.644531 16.453125 -44.75 C 19.160156 -45.851562 22.179688 -46.40625 25.515625 -46.40625 C 29.960938 -46.40625 33.832031 -45.441406 37.125 -43.515625 C 40.414062 -41.585938 42.96875 -38.867188 44.78125 -35.359375 C 46.601562 -31.859375 47.515625 -27.734375 47.515625 -22.984375 C 47.515625 -19.390625 46.992188 -16.140625 45.953125 -13.234375 C 44.910156 -10.335938 43.425781 -7.847656 41.5 -5.765625 C 39.582031 -3.691406 37.269531 -2.101562 34.5625 -1 C 31.851562 0.101562 28.835938 0.65625 25.515625 0.65625 Z M 25.515625 -6.484375 C 28.328125 -6.484375 30.71875 -7.132812 32.6875 -8.4375 C 34.65625 -9.738281 36.164062 -11.617188 37.21875 -14.078125 C 38.28125 -16.546875 38.8125 -19.488281 38.8125 -22.90625 C 38.8125 -28.101562 37.65625 -32.128906 35.34375 -34.984375 C 33.03125 -37.835938 29.753906 -39.265625 25.515625 -39.265625 C 22.742188 -39.265625 20.359375 -38.625 18.359375 -37.34375 C 16.367188 -36.070312 14.84375 -34.210938 13.78125 -31.765625 C 12.726562 -29.328125 12.203125 -26.375 12.203125 -22.90625 C 12.203125 -17.757812 13.367188 -13.734375 15.703125 -10.828125 C 18.046875 -7.929688 21.316406 -6.484375 25.515625 -6.484375 Z M 25.515625 -6.484375 "/></g></g></g><g fill="#000000" fill-opacity="1"><g transform="translate(144.050307, 124.534119)"><g/></g></g><g fill="#000000" fill-opacity="1"><g transform="translate(161.63783, 124.534119)"><g><path d="M 6.421875 0.328125 C 5.472656 0.328125 4.679688 0.0546875 4.046875 -0.484375 C 3.421875 -1.023438 3.097656 -1.726562 3.078125 -2.59375 C 3.054688 -3.457031 3.414062 -4.367188 4.15625 -5.328125 L 14.671875 -18.296875 L 14.671875 -14.46875 L 4.796875 -26.609375 C 4.023438 -27.566406 3.660156 -28.476562 3.703125 -29.34375 C 3.742188 -30.207031 4.078125 -30.910156 4.703125 -31.453125 C 5.328125 -31.992188 6.117188 -32.265625 7.078125 -32.265625 C 8.066406 -32.265625 8.894531 -32.085938 9.5625 -31.734375 C 10.238281 -31.390625 10.859375 -30.847656 11.421875 -30.109375 L 19.21875 -20.125 L 16.359375 -20.125 L 24.203125 -30.109375 C 24.816406 -30.847656 25.445312 -31.390625 26.09375 -31.734375 C 26.738281 -32.085938 27.539062 -32.265625 28.5 -32.265625 C 29.488281 -32.265625 30.285156 -31.984375 30.890625 -31.421875 C 31.492188 -30.859375 31.804688 -30.140625 31.828125 -29.265625 C 31.859375 -28.398438 31.484375 -27.492188 30.703125 -26.546875 L 20.90625 -14.53125 L 20.90625 -18.171875 L 31.421875 -5.328125 C 32.191406 -4.410156 32.554688 -3.519531 32.515625 -2.65625 C 32.472656 -1.789062 32.140625 -1.078125 31.515625 -0.515625 C 30.890625 0.046875 30.078125 0.328125 29.078125 0.328125 C 28.128906 0.328125 27.328125 0.15625 26.671875 -0.1875 C 26.023438 -0.539062 25.398438 -1.082031 24.796875 -1.8125 L 16.359375 -12.46875 L 19.078125 -12.46875 L 10.703125 -1.8125 C 10.140625 -1.125 9.535156 -0.59375 8.890625 -0.21875 C 8.242188 0.144531 7.421875 0.328125 6.421875 0.328125 Z M 6.421875 0.328125 "/></g></g></g><g fill="#000000" fill-opacity="1"><g transform="translate(197.072467, 124.534119)"><g/></g></g><g fill="#000000" fill-opacity="1"><g transform="translate(214.65999, 124.534119)"><g><path d="M 8.625 0 C 7.25 0 6.242188 -0.3125 5.609375 -0.9375 C 4.984375 -1.5625 4.671875 -2.484375 4.671875 -3.703125 C 4.671875 -4.429688 4.863281 -5.140625 5.25 -5.828125 C 5.644531 -6.523438 6.207031 -7.265625 6.9375 -8.046875 L 19.984375 -21.9375 C 21.984375 -24.007812 23.414062 -25.898438 24.28125 -27.609375 C 25.144531 -29.328125 25.578125 -31.050781 25.578125 -32.78125 C 25.578125 -34.9375 24.894531 -36.578125 23.53125 -37.703125 C 22.164062 -38.828125 20.1875 -39.390625 17.59375 -39.390625 C 16.113281 -39.390625 14.640625 -39.1875 13.171875 -38.78125 C 11.703125 -38.375 10.210938 -37.671875 8.703125 -36.671875 C 7.921875 -36.148438 7.191406 -35.929688 6.515625 -36.015625 C 5.847656 -36.109375 5.265625 -36.390625 4.765625 -36.859375 C 4.273438 -37.335938 3.941406 -37.921875 3.765625 -38.609375 C 3.585938 -39.304688 3.617188 -40.007812 3.859375 -40.71875 C 4.097656 -41.4375 4.609375 -42.054688 5.390625 -42.578125 C 7.242188 -43.828125 9.328125 -44.773438 11.640625 -45.421875 C 13.960938 -46.078125 16.289062 -46.40625 18.625 -46.40625 C 21.914062 -46.40625 24.6875 -45.90625 26.9375 -44.90625 C 29.1875 -43.914062 30.894531 -42.46875 32.0625 -40.5625 C 33.226562 -38.65625 33.8125 -36.34375 33.8125 -33.625 C 33.8125 -31.800781 33.519531 -30.023438 32.9375 -28.296875 C 32.351562 -26.566406 31.46875 -24.8125 30.28125 -23.03125 C 29.09375 -21.257812 27.546875 -19.378906 25.640625 -17.390625 L 13.4375 -4.671875 L 13.4375 -6.875 L 32.515625 -6.875 C 33.679688 -6.875 34.566406 -6.59375 35.171875 -6.03125 C 35.785156 -5.46875 36.09375 -4.625 36.09375 -3.5 C 36.09375 -2.375 35.785156 -1.507812 35.171875 -0.90625 C 34.566406 -0.300781 33.679688 0 32.515625 0 Z M 8.625 0 "/></g></g></g><g fill="#000000" fill-opacity="1"><g transform="translate(153.884386, 185.196578)"><g><path d="M 6.03125 -22.265625 C 5.125 -22.265625 4.410156 -22.507812 3.890625 -23 C 3.367188 -23.5 3.109375 -24.207031 3.109375 -25.125 C 3.109375 -26.03125 3.367188 -26.726562 3.890625 -27.21875 C 4.410156 -27.71875 5.125 -27.96875 6.03125 -27.96875 L 32.90625 -27.96875 C 33.851562 -27.96875 34.578125 -27.71875 35.078125 -27.21875 C 35.578125 -26.726562 35.828125 -26.03125 35.828125 -25.125 C 35.828125 -24.207031 35.578125 -23.5 35.078125 -23 C 34.578125 -22.507812 33.851562 -22.265625 32.90625 -22.265625 Z M 6.03125 -9.34375 C 5.125 -9.34375 4.410156 -9.59375 3.890625 -10.09375 C 3.367188 -10.59375 3.109375 -11.296875 3.109375 -12.203125 C 3.109375 -13.109375 3.367188 -13.800781 3.890625 -14.28125 C 4.410156 -14.757812 5.125 -15 6.03125 -15 L 32.90625 -15 C 33.851562 -15 34.578125 -14.757812 35.078125 -14.28125 C 35.578125 -13.800781 35.828125 -13.109375 35.828125 -12.203125 C 35.828125 -11.253906 35.578125 -10.539062 35.078125 -10.0625 C 34.578125 -9.582031 33.851562 -9.34375 32.90625 -9.34375 Z M 6.03125 -9.34375 "/></g></g></g><g fill="#000000" fill-opacity="1"><g transform="translate(83.122202, 256.935019)"><g><path d="M 11.15625 0.515625 C 10.164062 0.515625 9.34375 0.28125 8.6875 -0.1875 C 8.039062 -0.664062 7.648438 -1.304688 7.515625 -2.109375 C 7.390625 -2.910156 7.585938 -3.804688 8.109375 -4.796875 L 27.71875 -41.671875 L 27.71875 -38.8125 L 6.6875 -38.8125 C 5.519531 -38.8125 4.617188 -39.113281 3.984375 -39.71875 C 3.359375 -40.320312 3.046875 -41.164062 3.046875 -42.25 C 3.046875 -43.375 3.359375 -44.238281 3.984375 -44.84375 C 4.617188 -45.457031 5.519531 -45.765625 6.6875 -45.765625 L 31.796875 -45.765625 C 32.972656 -45.765625 33.925781 -45.457031 34.65625 -44.84375 C 35.394531 -44.238281 35.765625 -43.375 35.765625 -42.25 C 35.765625 -41.300781 35.632812 -40.46875 35.375 -39.75 C 35.113281 -39.039062 34.765625 -38.273438 34.328125 -37.453125 L 15.90625 -2.203125 C 15.425781 -1.253906 14.804688 -0.5625 14.046875 -0.125 C 13.296875 0.300781 12.332031 0.515625 11.15625 0.515625 Z M 11.15625 0.515625 "/></g></g></g><g fill="#000000" fill-opacity="1"><g transform="translate(120.289221, 228.176858)"><g><path d="M 5.3125 0 C 4.457031 0 3.835938 -0.191406 3.453125 -0.578125 C 3.066406 -0.960938 2.875 -1.53125 2.875 -2.28125 C 2.875 -2.726562 2.992188 -3.164062 3.234375 -3.59375 C 3.472656 -4.019531 3.816406 -4.472656 4.265625 -4.953125 L 12.296875 -13.5 C 13.523438 -14.78125 14.40625 -15.945312 14.9375 -17 C 15.46875 -18.050781 15.734375 -19.109375 15.734375 -20.171875 C 15.734375 -21.503906 15.3125 -22.515625 14.46875 -23.203125 C 13.632812 -23.890625 12.421875 -24.234375 10.828125 -24.234375 C 9.921875 -24.234375 9.015625 -24.109375 8.109375 -23.859375 C 7.203125 -23.609375 6.285156 -23.175781 5.359375 -22.5625 C 4.867188 -22.238281 4.414062 -22.101562 4 -22.15625 C 3.59375 -22.21875 3.234375 -22.394531 2.921875 -22.6875 C 2.617188 -22.976562 2.414062 -23.335938 2.3125 -23.765625 C 2.207031 -24.191406 2.226562 -24.625 2.375 -25.0625 C 2.519531 -25.5 2.832031 -25.878906 3.3125 -26.203125 C 4.457031 -26.972656 5.742188 -27.554688 7.171875 -27.953125 C 8.597656 -28.359375 10.03125 -28.5625 11.46875 -28.5625 C 13.488281 -28.5625 15.191406 -28.253906 16.578125 -27.640625 C 17.960938 -27.023438 19.015625 -26.128906 19.734375 -24.953125 C 20.453125 -23.785156 20.8125 -22.363281 20.8125 -20.6875 C 20.8125 -19.570312 20.628906 -18.476562 20.265625 -17.40625 C 19.910156 -16.34375 19.363281 -15.265625 18.625 -14.171875 C 17.894531 -13.085938 16.945312 -11.929688 15.78125 -10.703125 L 8.265625 -2.875 L 8.265625 -4.234375 L 20.015625 -4.234375 C 20.734375 -4.234375 21.273438 -4.054688 21.640625 -3.703125 C 22.015625 -3.359375 22.203125 -2.84375 22.203125 -2.15625 C 22.203125 -1.46875 22.015625 -0.9375 21.640625 -0.5625 C 21.273438 -0.1875 20.734375 0 20.015625 0 Z M 5.3125 0 "/></g></g></g><g fill="#000000" fill-opacity="1"><g transform="translate(200.908302, 256.935019)"><g><path d="M 15.90625 0.65625 C 14.039062 0.65625 12.113281 0.363281 10.125 -0.21875 C 8.132812 -0.8125 6.273438 -1.691406 4.546875 -2.859375 C 3.847656 -3.285156 3.390625 -3.84375 3.171875 -4.53125 C 2.960938 -5.226562 2.929688 -5.910156 3.078125 -6.578125 C 3.234375 -7.253906 3.535156 -7.84375 3.984375 -8.34375 C 4.441406 -8.84375 5.015625 -9.144531 5.703125 -9.25 C 6.398438 -9.351562 7.160156 -9.171875 7.984375 -8.703125 C 9.453125 -7.835938 10.832031 -7.226562 12.125 -6.875 C 13.425781 -6.53125 14.726562 -6.359375 16.03125 -6.359375 C 18.539062 -6.359375 20.660156 -6.941406 22.390625 -8.109375 C 24.117188 -9.273438 25.425781 -11.035156 26.3125 -13.390625 C 27.207031 -15.753906 27.65625 -18.671875 27.65625 -22.140625 L 27.65625 -27 L 28.421875 -27 C 28.117188 -24.832031 27.40625 -22.945312 26.28125 -21.34375 C 25.15625 -19.75 23.726562 -18.53125 22 -17.6875 C 20.269531 -16.84375 18.347656 -16.421875 16.234375 -16.421875 C 13.628906 -16.421875 11.300781 -17.046875 9.25 -18.296875 C 7.195312 -19.554688 5.582031 -21.300781 4.40625 -23.53125 C 3.238281 -25.757812 2.65625 -28.28125 2.65625 -31.09375 C 2.65625 -34.070312 3.289062 -36.707031 4.5625 -39 C 5.84375 -41.300781 7.628906 -43.109375 9.921875 -44.421875 C 12.222656 -45.742188 14.84375 -46.40625 17.78125 -46.40625 C 21.59375 -46.40625 24.816406 -45.515625 27.453125 -43.734375 C 30.097656 -41.960938 32.109375 -39.378906 33.484375 -35.984375 C 34.867188 -32.585938 35.5625 -28.488281 35.5625 -23.6875 C 35.5625 -19.789062 35.117188 -16.335938 34.234375 -13.328125 C 33.347656 -10.328125 32.0625 -7.785156 30.375 -5.703125 C 28.6875 -3.628906 26.617188 -2.050781 24.171875 -0.96875 C 21.734375 0.113281 18.976562 0.65625 15.90625 0.65625 Z M 18.296875 -23.046875 C 19.859375 -23.046875 21.234375 -23.398438 22.421875 -24.109375 C 23.609375 -24.828125 24.523438 -25.820312 25.171875 -27.09375 C 25.828125 -28.375 26.15625 -29.835938 26.15625 -31.484375 C 26.15625 -33.171875 25.828125 -34.640625 25.171875 -35.890625 C 24.523438 -37.148438 23.609375 -38.125 22.421875 -38.8125 C 21.234375 -39.507812 19.859375 -39.859375 18.296875 -39.859375 C 16.742188 -39.859375 15.382812 -39.507812 14.21875 -38.8125 C 13.050781 -38.125 12.128906 -37.148438 11.453125 -35.890625 C 10.785156 -34.640625 10.453125 -33.171875 10.453125 -31.484375 C 10.453125 -29.835938 10.785156 -28.375 11.453125 -27.09375 C 12.128906 -25.820312 13.050781 -24.828125 14.21875 -24.109375 C 15.382812 -23.398438 16.742188 -23.046875 18.296875 -23.046875 Z M 18.296875 -23.046875 "/></g></g></g><g fill="#000000" fill-opacity="1"><g transform="translate(234.446574, 228.176858)"><g><path d="M 5.3125 0 C 4.457031 0 3.835938 -0.191406 3.453125 -0.578125 C 3.066406 -0.960938 2.875 -1.53125 2.875 -2.28125 C 2.875 -2.726562 2.992188 -3.164062 3.234375 -3.59375 C 3.472656 -4.019531 3.816406 -4.472656 4.265625 -4.953125 L 12.296875 -13.5 C 13.523438 -14.78125 14.40625 -15.945312 14.9375 -17 C 15.46875 -18.050781 15.734375 -19.109375 15.734375 -20.171875 C 15.734375 -21.503906 15.3125 -22.515625 14.46875 -23.203125 C 13.632812 -23.890625 12.421875 -24.234375 10.828125 -24.234375 C 9.921875 -24.234375 9.015625 -24.109375 8.109375 -23.859375 C 7.203125 -23.609375 6.285156 -23.175781 5.359375 -22.5625 C 4.867188 -22.238281 4.414062 -22.101562 4 -22.15625 C 3.59375 -22.21875 3.234375 -22.394531 2.921875 -22.6875 C 2.617188 -22.976562 2.414062 -23.335938 2.3125 -23.765625 C 2.207031 -24.191406 2.226562 -24.625 2.375 -25.0625 C 2.519531 -25.5 2.832031 -25.878906 3.3125 -26.203125 C 4.457031 -26.972656 5.742188 -27.554688 7.171875 -27.953125 C 8.597656 -28.359375 10.03125 -28.5625 11.46875 -28.5625 C 13.488281 -28.5625 15.191406 -28.253906 16.578125 -27.640625 C 17.960938 -27.023438 19.015625 -26.128906 19.734375 -24.953125 C 20.453125 -23.785156 20.8125 -22.363281 20.8125 -20.6875 C 20.8125 -19.570312 20.628906 -18.476562 20.265625 -17.40625 C 19.910156 -16.34375 19.363281 -15.265625 18.625 -14.171875 C 17.894531 -13.085938 16.945312 -11.929688 15.78125 -10.703125 L 8.265625 -2.875 L 8.265625 -4.234375 L 20.015625 -4.234375 C 20.734375 -4.234375 21.273438 -4.054688 21.640625 -3.703125 C 22.015625 -3.359375 22.203125 -2.84375 22.203125 -2.15625 C 22.203125 -1.46875 22.015625 -0.9375 21.640625 -0.5625 C 21.273438 -0.1875 20.734375 0 20.015625 0 Z M 5.3125 0 "/></g></g></g><g fill="#000000" fill-opacity="1"><g transform="translate(154.307488, 252.806399)"><g><path d="M 19.46875 -2.078125 C 18.519531 -2.078125 17.785156 -2.347656 17.265625 -2.890625 C 16.742188 -3.429688 16.484375 -4.175781 16.484375 -5.125 L 16.484375 -15.765625 L 6.03125 -15.765625 C 5.125 -15.765625 4.410156 -16.015625 3.890625 -16.515625 C 3.367188 -17.015625 3.109375 -17.71875 3.109375 -18.625 C 3.109375 -19.53125 3.367188 -20.234375 3.890625 -20.734375 C 4.410156 -21.234375 5.125 -21.484375 6.03125 -21.484375 L 16.484375 -21.484375 L 16.484375 -31.796875 C 16.484375 -32.753906 16.742188 -33.492188 17.265625 -34.015625 C 17.785156 -34.535156 18.539062 -34.796875 19.53125 -34.796875 C 20.488281 -34.796875 21.210938 -34.535156 21.703125 -34.015625 C 22.203125 -33.492188 22.453125 -32.753906 22.453125 -31.796875 L 22.453125 -21.484375 L 32.90625 -21.484375 C 33.851562 -21.484375 34.578125 -21.234375 35.078125 -20.734375 C 35.578125 -20.234375 35.828125 -19.53125 35.828125 -18.625 C 35.828125 -17.71875 35.578125 -17.015625 35.078125 -16.515625 C 34.578125 -16.015625 33.851562 -15.765625 32.90625 -15.765625 L 22.453125 -15.765625 L 22.453125 -5.125 C 22.453125 -4.175781 22.203125 -3.429688 21.703125 -2.890625 C 21.210938 -2.347656 20.46875 -2.078125 19.46875 -2.078125 Z M 19.46875 -2.078125 "/></g></g></g></svg>