<svg xmlns="http://www.w3.org/2000/svg" xmlns:xlink="http://www.w3.org/1999/xlink" width="242" zoomAndPan="magnify" viewBox="0 0 181.5 74.249996" height="99" preserveAspectRatio="xMidYMid meet" version="1.0"><defs><g/><clipPath id="740eed4bca"><path d="M 2.003906 0 L 178.4375 0 L 178.4375 72.765625 L 2.003906 72.765625 Z M 2.003906 0 " clip-rule="nonzero"/></clipPath></defs><g clip-path="url(#740eed4bca)"><path stroke-linecap="butt" transform="matrix(0.7425, 0, 0, 0.7425, 2.005466, -0.00000198)" fill="none" stroke-linejoin="miter" d="M -0.00210102 0.00000266667 L 237.618923 0.00000266667 L 237.618923 98.158682 L -0.00210102 98.158682 Z M -0.00210102 0.00000266667 " stroke="#000000" stroke-width="12" stroke-opacity="1" stroke-miterlimit="4"/></g><g fill="#000000" fill-opacity="1"><g transform="translate(43.851838, 49.064615)"><g><path d="M 6.171875 0 C 5.484375 0 4.945312 -0.1875 4.5625 -0.5625 C 4.1875 -0.945312 4 -1.472656 4 -2.140625 C 4 -2.828125 4.1875 -3.34375 4.5625 -3.6875 C 4.945312 -4.03125 5.484375 -4.203125 6.171875 -4.203125 L 10.609375 -4.203125 L 10.609375 -23.640625 L 13.0625 -23.640625 L 7.25 -20.109375 C 6.75 -19.816406 6.28125 -19.703125 5.84375 -19.765625 C 5.40625 -19.835938 5.035156 -20.023438 4.734375 -20.328125 C 4.429688 -20.628906 4.222656 -20.988281 4.109375 -21.40625 C 4.003906 -21.832031 4.035156 -22.265625 4.203125 -22.703125 C 4.378906 -23.140625 4.71875 -23.503906 5.21875 -23.796875 L 10.6875 -27.078125 C 11.21875 -27.398438 11.742188 -27.671875 12.265625 -27.890625 C 12.796875 -28.117188 13.285156 -28.234375 13.734375 -28.234375 C 14.296875 -28.234375 14.757812 -28.078125 15.125 -27.765625 C 15.488281 -27.460938 15.671875 -26.972656 15.671875 -26.296875 L 15.671875 -4.203125 L 19.71875 -4.203125 C 20.40625 -4.203125 20.9375 -4.03125 21.3125 -3.6875 C 21.695312 -3.34375 21.890625 -2.828125 21.890625 -2.140625 C 21.890625 -1.453125 21.695312 -0.921875 21.3125 -0.546875 C 20.9375 -0.179688 20.40625 0 19.71875 0 Z M 6.171875 0 "/></g></g></g><g fill="#000000" fill-opacity="1"><g transform="translate(67.609479, 49.064615)"><g/></g></g><g fill="#000000" fill-opacity="1"><g transform="translate(78.340017, 49.064615)"><g><path d="M 5.265625 0 C 4.421875 0 3.804688 -0.1875 3.421875 -0.5625 C 3.035156 -0.945312 2.84375 -1.507812 2.84375 -2.25 C 2.84375 -2.707031 2.960938 -3.144531 3.203125 -3.5625 C 3.441406 -3.988281 3.785156 -4.4375 4.234375 -4.90625 L 12.1875 -13.375 C 13.40625 -14.644531 14.273438 -15.800781 14.796875 -16.84375 C 15.328125 -17.882812 15.59375 -18.9375 15.59375 -20 C 15.59375 -21.3125 15.175781 -22.3125 14.34375 -23 C 13.519531 -23.6875 12.316406 -24.03125 10.734375 -24.03125 C 9.835938 -24.03125 8.9375 -23.90625 8.03125 -23.65625 C 7.132812 -23.40625 6.226562 -22.976562 5.3125 -22.375 C 4.832031 -22.050781 4.382812 -21.914062 3.96875 -21.96875 C 3.5625 -22.019531 3.207031 -22.191406 2.90625 -22.484375 C 2.601562 -22.773438 2.398438 -23.128906 2.296875 -23.546875 C 2.191406 -23.972656 2.210938 -24.40625 2.359375 -24.84375 C 2.503906 -25.28125 2.8125 -25.65625 3.28125 -25.96875 C 4.414062 -26.738281 5.6875 -27.320312 7.09375 -27.71875 C 8.507812 -28.113281 9.929688 -28.3125 11.359375 -28.3125 C 13.367188 -28.3125 15.054688 -28.003906 16.421875 -27.390625 C 17.796875 -26.785156 18.835938 -25.898438 19.546875 -24.734375 C 20.265625 -23.578125 20.625 -22.171875 20.625 -20.515625 C 20.625 -19.398438 20.445312 -18.3125 20.09375 -17.25 C 19.738281 -16.195312 19.195312 -15.128906 18.46875 -14.046875 C 17.738281 -12.972656 16.796875 -11.828125 15.640625 -10.609375 L 8.203125 -2.84375 L 8.203125 -4.203125 L 19.84375 -4.203125 C 20.550781 -4.203125 21.085938 -4.03125 21.453125 -3.6875 C 21.828125 -3.34375 22.015625 -2.828125 22.015625 -2.140625 C 22.015625 -1.453125 21.828125 -0.921875 21.453125 -0.546875 C 21.085938 -0.179688 20.550781 0 19.84375 0 Z M 5.265625 0 "/></g></g></g><g fill="#000000" fill-opacity="1"><g transform="translate(102.097658, 49.064615)"><g/></g></g><g fill="#000000" fill-opacity="1"><g transform="translate(112.828196, 49.064615)"><g><path d="M 9.703125 0.390625 C 8.566406 0.390625 7.390625 0.210938 6.171875 -0.140625 C 4.960938 -0.492188 3.828125 -1.023438 2.765625 -1.734375 C 2.347656 -2.003906 2.070312 -2.347656 1.9375 -2.765625 C 1.800781 -3.191406 1.78125 -3.609375 1.875 -4.015625 C 1.96875 -4.421875 2.148438 -4.773438 2.421875 -5.078125 C 2.703125 -5.390625 3.054688 -5.578125 3.484375 -5.640625 C 3.910156 -5.703125 4.375 -5.59375 4.875 -5.3125 C 5.769531 -4.78125 6.613281 -4.40625 7.40625 -4.1875 C 8.195312 -3.976562 8.988281 -3.875 9.78125 -3.875 C 11.3125 -3.875 12.601562 -4.226562 13.65625 -4.9375 C 14.71875 -5.65625 15.515625 -6.734375 16.046875 -8.171875 C 16.585938 -9.609375 16.859375 -11.382812 16.859375 -13.5 L 16.859375 -16.46875 L 17.34375 -16.46875 C 17.15625 -15.144531 16.71875 -13.992188 16.03125 -13.015625 C 15.34375 -12.046875 14.472656 -11.300781 13.421875 -10.78125 C 12.367188 -10.269531 11.191406 -10.015625 9.890625 -10.015625 C 8.304688 -10.015625 6.890625 -10.394531 5.640625 -11.15625 C 4.390625 -11.925781 3.40625 -12.988281 2.6875 -14.34375 C 1.976562 -15.707031 1.625 -17.25 1.625 -18.96875 C 1.625 -20.789062 2.007812 -22.398438 2.78125 -23.796875 C 3.5625 -25.191406 4.648438 -26.289062 6.046875 -27.09375 C 7.453125 -27.90625 9.050781 -28.3125 10.84375 -28.3125 C 13.164062 -28.3125 15.128906 -27.769531 16.734375 -26.6875 C 18.347656 -25.601562 19.578125 -24.023438 20.421875 -21.953125 C 21.273438 -19.878906 21.703125 -17.378906 21.703125 -14.453125 C 21.703125 -12.078125 21.429688 -9.972656 20.890625 -8.140625 C 20.347656 -6.304688 19.5625 -4.753906 18.53125 -3.484375 C 17.5 -2.210938 16.238281 -1.25 14.75 -0.59375 C 13.257812 0.0625 11.578125 0.390625 9.703125 0.390625 Z M 11.171875 -14.0625 C 12.117188 -14.0625 12.953125 -14.273438 13.671875 -14.703125 C 14.398438 -15.140625 14.960938 -15.75 15.359375 -16.53125 C 15.753906 -17.3125 15.953125 -18.203125 15.953125 -19.203125 C 15.953125 -20.234375 15.753906 -21.128906 15.359375 -21.890625 C 14.960938 -22.660156 14.398438 -23.253906 13.671875 -23.671875 C 12.953125 -24.097656 12.117188 -24.3125 11.171875 -24.3125 C 10.210938 -24.3125 9.378906 -24.097656 8.671875 -23.671875 C 7.960938 -23.253906 7.398438 -22.660156 6.984375 -21.890625 C 6.578125 -21.128906 6.375 -20.234375 6.375 -19.203125 C 6.375 -18.203125 6.578125 -17.3125 6.984375 -16.53125 C 7.398438 -15.75 7.960938 -15.140625 8.671875 -14.703125 C 9.378906 -14.273438 10.210938 -14.0625 11.171875 -14.0625 Z M 11.171875 -14.0625 "/></g></g></g></svg>