<svg xmlns="http://www.w3.org/2000/svg" xmlns:xlink="http://www.w3.org/1999/xlink" width="383" zoomAndPan="magnify" viewBox="0 0 287.25 76.499998" height="102" preserveAspectRatio="xMidYMid meet" version="1.0"><defs><g/><clipPath id="80e756ed3c"><path d="M 0.5625 0 L 285.753906 0 L 285.753906 75.257812 L 0.5625 75.257812 Z M 0.5625 0 " clip-rule="nonzero"/></clipPath></defs><g clip-path="url(#80e756ed3c)"><path stroke-linecap="butt" transform="matrix(0.74513, 0, 0, 0.74513, 0.563343, -0.000000000000037061)" fill="none" stroke-linejoin="miter" d="M -0.00113082 0.000000000000049738 L 382.739434 0.000000000000049738 L 382.739434 101.015326 L -0.00113082 101.015326 Z M -0.00113082 0.000000000000049738 " stroke="#000000" stroke-width="12" stroke-opacity="1" stroke-miterlimit="4"/></g><g fill="#000000" fill-opacity="1"><g transform="translate(50.292601, 50.302977)"><g><path d="M 6.203125 0 C 5.515625 0 4.976562 -0.191406 4.59375 -0.578125 C 4.207031 -0.960938 4.015625 -1.484375 4.015625 -2.140625 C 4.015625 -2.828125 4.207031 -3.34375 4.59375 -3.6875 C 4.976562 -4.039062 5.515625 -4.21875 6.203125 -4.21875 L 10.65625 -4.21875 L 10.65625 -23.71875 L 13.109375 -23.71875 L 7.265625 -20.1875 C 6.765625 -19.894531 6.296875 -19.78125 5.859375 -19.84375 C 5.421875 -19.914062 5.050781 -20.101562 4.75 -20.40625 C 4.445312 -20.707031 4.238281 -21.066406 4.125 -21.484375 C 4.019531 -21.910156 4.050781 -22.34375 4.21875 -22.78125 C 4.394531 -23.21875 4.738281 -23.582031 5.25 -23.875 L 10.734375 -27.171875 C 11.253906 -27.492188 11.78125 -27.765625 12.3125 -27.984375 C 12.84375 -28.210938 13.332031 -28.328125 13.78125 -28.328125 C 14.34375 -28.328125 14.804688 -28.175781 15.171875 -27.875 C 15.546875 -27.570312 15.734375 -27.078125 15.734375 -26.390625 L 15.734375 -4.21875 L 19.78125 -4.21875 C 20.476562 -4.21875 21.015625 -4.039062 21.390625 -3.6875 C 21.773438 -3.34375 21.96875 -2.828125 21.96875 -2.140625 C 21.96875 -1.453125 21.773438 -0.921875 21.390625 -0.546875 C 21.015625 -0.179688 20.476562 0 19.78125 0 Z M 6.203125 0 "/></g></g></g><g fill="#000000" fill-opacity="1"><g transform="translate(74.13439, 50.302977)"><g><path d="M 12.953125 0.390625 C 10.648438 0.390625 8.679688 -0.15625 7.046875 -1.25 C 5.421875 -2.351562 4.179688 -3.9375 3.328125 -6 C 2.484375 -8.0625 2.0625 -10.566406 2.0625 -13.515625 C 2.0625 -15.890625 2.332031 -18 2.875 -19.84375 C 3.414062 -21.6875 4.203125 -23.242188 5.234375 -24.515625 C 6.273438 -25.785156 7.539062 -26.75 9.03125 -27.40625 C 10.53125 -28.070312 12.222656 -28.40625 14.109375 -28.40625 C 15.273438 -28.40625 16.457031 -28.226562 17.65625 -27.875 C 18.863281 -27.519531 20 -26.984375 21.0625 -26.265625 C 21.476562 -25.992188 21.753906 -25.644531 21.890625 -25.21875 C 22.023438 -24.800781 22.046875 -24.382812 21.953125 -23.96875 C 21.859375 -23.5625 21.671875 -23.207031 21.390625 -22.90625 C 21.117188 -22.601562 20.769531 -22.414062 20.34375 -22.34375 C 19.914062 -22.28125 19.453125 -22.394531 18.953125 -22.6875 C 18.054688 -23.21875 17.207031 -23.585938 16.40625 -23.796875 C 15.613281 -24.015625 14.820312 -24.125 14.03125 -24.125 C 12.488281 -24.125 11.1875 -23.765625 10.125 -23.046875 C 9.070312 -22.328125 8.269531 -21.253906 7.71875 -19.828125 C 7.175781 -18.398438 6.90625 -16.613281 6.90625 -14.46875 L 6.90625 -11.484375 L 6.4375 -11.484375 C 6.644531 -12.835938 7.085938 -13.992188 7.765625 -14.953125 C 8.441406 -15.921875 9.304688 -16.660156 10.359375 -17.171875 C 11.421875 -17.691406 12.601562 -17.953125 13.90625 -17.953125 C 15.519531 -17.953125 16.945312 -17.566406 18.1875 -16.796875 C 19.4375 -16.035156 20.421875 -14.976562 21.140625 -13.625 C 21.859375 -12.28125 22.21875 -10.734375 22.21875 -8.984375 C 22.21875 -7.179688 21.820312 -5.570312 21.03125 -4.15625 C 20.25 -2.738281 19.160156 -1.625 17.765625 -0.8125 C 16.378906 -0.0078125 14.773438 0.390625 12.953125 0.390625 Z M 12.671875 -3.65625 C 13.628906 -3.65625 14.472656 -3.863281 15.203125 -4.28125 C 15.929688 -4.707031 16.492188 -5.3125 16.890625 -6.09375 C 17.285156 -6.875 17.484375 -7.769531 17.484375 -8.78125 C 17.484375 -9.8125 17.285156 -10.710938 16.890625 -11.484375 C 16.492188 -12.253906 15.929688 -12.859375 15.203125 -13.296875 C 14.472656 -13.734375 13.628906 -13.953125 12.671875 -13.953125 C 11.722656 -13.953125 10.890625 -13.734375 10.171875 -13.296875 C 9.453125 -12.859375 8.890625 -12.253906 8.484375 -11.484375 C 8.078125 -10.710938 7.875 -9.8125 7.875 -8.78125 C 7.875 -7.769531 8.078125 -6.875 8.484375 -6.09375 C 8.890625 -5.3125 9.453125 -4.707031 10.171875 -4.28125 C 10.890625 -3.863281 11.722656 -3.65625 12.671875 -3.65625 Z M 12.671875 -3.65625 "/></g></g></g><g fill="#000000" fill-opacity="1"><g transform="translate(97.976179, 50.302977)"><g/></g></g><g fill="#000000" fill-opacity="1"><g transform="translate(108.744724, 50.302977)"><g><path d="M 10.046875 0.390625 C 8.359375 0.390625 6.867188 -0.015625 5.578125 -0.828125 C 4.296875 -1.648438 3.296875 -2.820312 2.578125 -4.34375 C 1.867188 -5.875 1.515625 -7.671875 1.515625 -9.734375 C 1.515625 -11.828125 1.867188 -13.617188 2.578125 -15.109375 C 3.296875 -16.609375 4.296875 -17.769531 5.578125 -18.59375 C 6.867188 -19.414062 8.359375 -19.828125 10.046875 -19.828125 C 11.671875 -19.828125 13.082031 -19.425781 14.28125 -18.625 C 15.488281 -17.832031 16.304688 -16.789062 16.734375 -15.5 L 16.296875 -15.5 L 16.296875 -25.828125 C 16.296875 -26.648438 16.503906 -27.269531 16.921875 -27.6875 C 17.347656 -28.113281 17.957031 -28.328125 18.75 -28.328125 C 19.550781 -28.328125 20.171875 -28.113281 20.609375 -27.6875 C 21.046875 -27.269531 21.265625 -26.648438 21.265625 -25.828125 L 21.265625 -2.21875 C 21.265625 -1.40625 21.050781 -0.78125 20.625 -0.34375 C 20.195312 0.09375 19.585938 0.3125 18.796875 0.3125 C 18.003906 0.3125 17.394531 0.09375 16.96875 -0.34375 C 16.539062 -0.78125 16.328125 -1.40625 16.328125 -2.21875 L 16.328125 -5.328125 L 16.765625 -4.125 C 16.367188 -2.75 15.5625 -1.648438 14.34375 -0.828125 C 13.125 -0.015625 11.691406 0.390625 10.046875 0.390625 Z M 11.4375 -3.375 C 12.414062 -3.375 13.273438 -3.613281 14.015625 -4.09375 C 14.765625 -4.570312 15.34375 -5.28125 15.75 -6.21875 C 16.164062 -7.15625 16.375 -8.328125 16.375 -9.734375 C 16.375 -11.847656 15.921875 -13.425781 15.015625 -14.46875 C 14.117188 -15.519531 12.925781 -16.046875 11.4375 -16.046875 C 10.457031 -16.046875 9.597656 -15.8125 8.859375 -15.34375 C 8.117188 -14.882812 7.539062 -14.1875 7.125 -13.25 C 6.71875 -12.3125 6.515625 -11.140625 6.515625 -9.734375 C 6.515625 -7.640625 6.960938 -6.054688 7.859375 -4.984375 C 8.765625 -3.910156 9.957031 -3.375 11.4375 -3.375 Z M 11.4375 -3.375 "/></g></g></g><g fill="#000000" fill-opacity="1"><g transform="translate(132.586513, 50.302977)"><g><path d="M 8.984375 0.390625 C 7.578125 0.390625 6.320312 0.117188 5.21875 -0.421875 C 4.125 -0.960938 3.265625 -1.695312 2.640625 -2.625 C 2.015625 -3.550781 1.703125 -4.597656 1.703125 -5.765625 C 1.703125 -7.191406 2.070312 -8.320312 2.8125 -9.15625 C 3.5625 -9.988281 4.769531 -10.585938 6.4375 -10.953125 C 8.101562 -11.328125 10.34375 -11.515625 13.15625 -11.515625 L 15.140625 -11.515625 L 15.140625 -8.65625 L 13.1875 -8.65625 C 11.550781 -8.65625 10.238281 -8.578125 9.25 -8.421875 C 8.269531 -8.265625 7.578125 -7.992188 7.171875 -7.609375 C 6.765625 -7.222656 6.5625 -6.6875 6.5625 -6 C 6.5625 -5.125 6.863281 -4.40625 7.46875 -3.84375 C 8.082031 -3.289062 8.929688 -3.015625 10.015625 -3.015625 C 10.890625 -3.015625 11.660156 -3.21875 12.328125 -3.625 C 13.003906 -4.039062 13.539062 -4.601562 13.9375 -5.3125 C 14.34375 -6.03125 14.546875 -6.851562 14.546875 -7.78125 L 14.546875 -12.359375 C 14.546875 -13.679688 14.253906 -14.632812 13.671875 -15.21875 C 13.085938 -15.800781 12.109375 -16.09375 10.734375 -16.09375 C 9.960938 -16.09375 9.128906 -16 8.234375 -15.8125 C 7.347656 -15.625 6.414062 -15.304688 5.4375 -14.859375 C 4.9375 -14.617188 4.492188 -14.550781 4.109375 -14.65625 C 3.722656 -14.769531 3.425781 -14.988281 3.21875 -15.3125 C 3.007812 -15.644531 2.90625 -16.007812 2.90625 -16.40625 C 2.90625 -16.800781 3.007812 -17.191406 3.21875 -17.578125 C 3.425781 -17.960938 3.785156 -18.25 4.296875 -18.4375 C 5.515625 -18.9375 6.6875 -19.289062 7.8125 -19.5 C 8.9375 -19.71875 9.960938 -19.828125 10.890625 -19.828125 C 12.796875 -19.828125 14.363281 -19.535156 15.59375 -18.953125 C 16.820312 -18.367188 17.738281 -17.488281 18.34375 -16.3125 C 18.957031 -15.132812 19.265625 -13.617188 19.265625 -11.765625 L 19.265625 -2.21875 C 19.265625 -1.40625 19.066406 -0.78125 18.671875 -0.34375 C 18.273438 0.09375 17.707031 0.3125 16.96875 0.3125 C 16.226562 0.3125 15.648438 0.09375 15.234375 -0.34375 C 14.828125 -0.78125 14.625 -1.40625 14.625 -2.21875 L 14.625 -4.125 L 14.9375 -4.125 C 14.75 -3.195312 14.382812 -2.394531 13.84375 -1.71875 C 13.300781 -1.050781 12.617188 -0.53125 11.796875 -0.15625 C 10.972656 0.207031 10.035156 0.390625 8.984375 0.390625 Z M 8.984375 0.390625 "/></g></g></g><g fill="#000000" fill-opacity="1"><g transform="translate(154.322279, 50.302977)"><g><path d="M 5.046875 0.3125 C 4.253906 0.3125 3.644531 0.09375 3.21875 -0.34375 C 2.789062 -0.78125 2.578125 -1.40625 2.578125 -2.21875 L 2.578125 -17.25 C 2.578125 -18.0625 2.789062 -18.679688 3.21875 -19.109375 C 3.644531 -19.535156 4.238281 -19.75 5 -19.75 C 5.769531 -19.75 6.367188 -19.535156 6.796875 -19.109375 C 7.222656 -18.679688 7.4375 -18.0625 7.4375 -17.25 L 7.4375 -14.546875 L 7 -15.53125 C 7.582031 -16.9375 8.488281 -18.003906 9.71875 -18.734375 C 10.945312 -19.460938 12.34375 -19.828125 13.90625 -19.828125 C 15.46875 -19.828125 16.75 -19.535156 17.75 -18.953125 C 18.757812 -18.367188 19.515625 -17.488281 20.015625 -16.3125 C 20.523438 -15.132812 20.78125 -13.644531 20.78125 -11.84375 L 20.78125 -2.21875 C 20.78125 -1.40625 20.566406 -0.78125 20.140625 -0.34375 C 19.722656 0.09375 19.113281 0.3125 18.3125 0.3125 C 17.519531 0.3125 16.90625 0.09375 16.46875 -0.34375 C 16.03125 -0.78125 15.8125 -1.40625 15.8125 -2.21875 L 15.8125 -11.609375 C 15.8125 -13.117188 15.523438 -14.21875 14.953125 -14.90625 C 14.390625 -15.59375 13.507812 -15.9375 12.3125 -15.9375 C 10.851562 -15.9375 9.691406 -15.476562 8.828125 -14.5625 C 7.972656 -13.644531 7.546875 -12.429688 7.546875 -10.921875 L 7.546875 -2.21875 C 7.546875 -0.53125 6.710938 0.3125 5.046875 0.3125 Z M 5.046875 0.3125 "/></g></g></g><g fill="#000000" fill-opacity="1"><g transform="translate(177.568018, 50.302977)"><g/></g></g><g fill="#000000" fill-opacity="1"><g transform="translate(188.336563, 50.302977)"><g><path d="M 11.359375 0.390625 C 9.929688 0.390625 8.445312 0.207031 6.90625 -0.15625 C 5.375 -0.53125 4.039062 -1.085938 2.90625 -1.828125 C 2.375 -2.171875 2.015625 -2.566406 1.828125 -3.015625 C 1.640625 -3.460938 1.59375 -3.890625 1.6875 -4.296875 C 1.78125 -4.710938 1.976562 -5.066406 2.28125 -5.359375 C 2.582031 -5.648438 2.960938 -5.820312 3.421875 -5.875 C 3.890625 -5.925781 4.40625 -5.804688 4.96875 -5.515625 C 6.050781 -4.941406 7.09375 -4.523438 8.09375 -4.265625 C 9.101562 -4.015625 10.140625 -3.890625 11.203125 -3.890625 C 12.367188 -3.890625 13.347656 -4.046875 14.140625 -4.359375 C 14.941406 -4.679688 15.546875 -5.160156 15.953125 -5.796875 C 16.359375 -6.429688 16.5625 -7.203125 16.5625 -8.109375 C 16.5625 -9.429688 16.117188 -10.414062 15.234375 -11.0625 C 14.347656 -11.71875 13.054688 -12.046875 11.359375 -12.046875 L 8.828125 -12.046875 C 8.078125 -12.046875 7.507812 -12.226562 7.125 -12.59375 C 6.75 -12.96875 6.5625 -13.484375 6.5625 -14.140625 C 6.5625 -14.804688 6.75 -15.320312 7.125 -15.6875 C 7.507812 -16.0625 8.078125 -16.25 8.828125 -16.25 L 10.890625 -16.25 C 11.890625 -16.25 12.75 -16.414062 13.46875 -16.75 C 14.1875 -17.082031 14.742188 -17.550781 15.140625 -18.15625 C 15.535156 -18.769531 15.734375 -19.515625 15.734375 -20.390625 C 15.734375 -21.609375 15.328125 -22.535156 14.515625 -23.171875 C 13.710938 -23.804688 12.539062 -24.125 11 -24.125 C 10.019531 -24.125 9.097656 -24.007812 8.234375 -23.78125 C 7.378906 -23.550781 6.4375 -23.132812 5.40625 -22.53125 C 4.925781 -22.238281 4.46875 -22.117188 4.03125 -22.171875 C 3.59375 -22.222656 3.226562 -22.394531 2.9375 -22.6875 C 2.644531 -22.976562 2.445312 -23.328125 2.34375 -23.734375 C 2.238281 -24.148438 2.265625 -24.578125 2.421875 -25.015625 C 2.578125 -25.453125 2.910156 -25.828125 3.421875 -26.140625 C 4.554688 -26.878906 5.8125 -27.441406 7.1875 -27.828125 C 8.570312 -28.210938 9.988281 -28.40625 11.4375 -28.40625 C 13.375 -28.40625 15.03125 -28.109375 16.40625 -27.515625 C 17.78125 -26.921875 18.832031 -26.070312 19.5625 -24.96875 C 20.289062 -23.875 20.65625 -22.546875 20.65625 -20.984375 C 20.65625 -19.867188 20.441406 -18.851562 20.015625 -17.9375 C 19.597656 -17.019531 19.003906 -16.242188 18.234375 -15.609375 C 17.460938 -14.972656 16.535156 -14.523438 15.453125 -14.265625 L 15.453125 -14.734375 C 17.359375 -14.421875 18.84375 -13.632812 19.90625 -12.375 C 20.96875 -11.113281 21.5 -9.546875 21.5 -7.671875 C 21.5 -6.023438 21.085938 -4.59375 20.265625 -3.375 C 19.441406 -2.15625 18.273438 -1.222656 16.765625 -0.578125 C 15.253906 0.0664062 13.453125 0.390625 11.359375 0.390625 Z M 11.359375 0.390625 "/></g></g></g><g fill="#000000" fill-opacity="1"><g transform="translate(212.178352, 50.302977)"><g><path d="M 9.734375 0.390625 C 8.597656 0.390625 7.421875 0.210938 6.203125 -0.140625 C 4.984375 -0.492188 3.84375 -1.03125 2.78125 -1.75 C 2.351562 -2.007812 2.070312 -2.351562 1.9375 -2.78125 C 1.8125 -3.207031 1.796875 -3.625 1.890625 -4.03125 C 1.984375 -4.445312 2.164062 -4.804688 2.4375 -5.109375 C 2.71875 -5.410156 3.066406 -5.59375 3.484375 -5.65625 C 3.910156 -5.726562 4.378906 -5.617188 4.890625 -5.328125 C 5.785156 -4.796875 6.628906 -4.421875 7.421875 -4.203125 C 8.222656 -3.992188 9.019531 -3.890625 9.8125 -3.890625 C 11.351562 -3.890625 12.648438 -4.25 13.703125 -4.96875 C 14.765625 -5.6875 15.566406 -6.765625 16.109375 -8.203125 C 16.648438 -9.648438 16.921875 -11.429688 16.921875 -13.546875 L 16.921875 -16.53125 L 17.40625 -16.53125 C 17.21875 -15.207031 16.78125 -14.054688 16.09375 -13.078125 C 15.40625 -12.097656 14.53125 -11.347656 13.46875 -10.828125 C 12.40625 -10.304688 11.226562 -10.046875 9.9375 -10.046875 C 8.34375 -10.046875 6.914062 -10.429688 5.65625 -11.203125 C 4.40625 -11.972656 3.421875 -13.039062 2.703125 -14.40625 C 1.984375 -15.769531 1.625 -17.3125 1.625 -19.03125 C 1.625 -20.863281 2.015625 -22.476562 2.796875 -23.875 C 3.578125 -25.28125 4.671875 -26.382812 6.078125 -27.1875 C 7.484375 -28 9.085938 -28.40625 10.890625 -28.40625 C 13.222656 -28.40625 15.195312 -27.863281 16.8125 -26.78125 C 18.425781 -25.695312 19.65625 -24.113281 20.5 -22.03125 C 21.351562 -19.945312 21.78125 -17.4375 21.78125 -14.5 C 21.78125 -12.113281 21.503906 -10 20.953125 -8.15625 C 20.410156 -6.320312 19.625 -4.769531 18.59375 -3.5 C 17.5625 -2.226562 16.296875 -1.257812 14.796875 -0.59375 C 13.304688 0.0625 11.617188 0.390625 9.734375 0.390625 Z M 11.203125 -14.109375 C 12.160156 -14.109375 13.003906 -14.328125 13.734375 -14.765625 C 14.460938 -15.203125 15.023438 -15.8125 15.421875 -16.59375 C 15.816406 -17.375 16.015625 -18.265625 16.015625 -19.265625 C 16.015625 -20.304688 15.816406 -21.207031 15.421875 -21.96875 C 15.023438 -22.738281 14.460938 -23.332031 13.734375 -23.75 C 13.003906 -24.175781 12.160156 -24.390625 11.203125 -24.390625 C 10.253906 -24.390625 9.421875 -24.175781 8.703125 -23.75 C 7.984375 -23.332031 7.414062 -22.738281 7 -21.96875 C 6.59375 -21.207031 6.390625 -20.304688 6.390625 -19.265625 C 6.390625 -18.265625 6.59375 -17.375 7 -16.59375 C 7.414062 -15.8125 7.984375 -15.203125 8.703125 -14.765625 C 9.421875 -14.328125 10.253906 -14.109375 11.203125 -14.109375 Z M 11.203125 -14.109375 "/></g></g></g></svg>