<svg xmlns="http://www.w3.org/2000/svg" xmlns:xlink="http://www.w3.org/1999/xlink" width="560" zoomAndPan="magnify" viewBox="0 0 420 74.249996" height="99" preserveAspectRatio="xMidYMid meet" version="1.0"><defs><g/><clipPath id="85363a61ed"><path d="M 2.109375 0 L 417.585938 0 L 417.585938 72.765625 L 2.109375 72.765625 Z M 2.109375 0 " clip-rule="nonzero"/></clipPath></defs><g clip-path="url(#85363a61ed)"><path stroke-linecap="butt" transform="matrix(0.7425, 0, 0, 0.7425, 2.11108, -0.00000198)" fill="none" stroke-linejoin="miter" d="M -0.00229652 0.00000266667 L 559.562151 0.00000266667 L 559.562151 98.158682 L -0.00229652 98.158682 Z M -0.00229652 0.00000266667 " stroke="#000000" stroke-width="12" stroke-opacity="1" stroke-miterlimit="4"/></g><g fill="#000000" fill-opacity="1"><g transform="translate(85.911364, 49.064615)"><g><path d="M 6.171875 0 C 5.484375 0 4.945312 -0.1875 4.5625 -0.5625 C 4.1875 -0.945312 4 -1.472656 4 -2.140625 C 4 -2.828125 4.1875 -3.34375 4.5625 -3.6875 C 4.945312 -4.03125 5.484375 -4.203125 6.171875 -4.203125 L 10.609375 -4.203125 L 10.609375 -23.640625 L 13.0625 -23.640625 L 7.25 -20.109375 C 6.75 -19.816406 6.28125 -19.703125 5.84375 -19.765625 C 5.40625 -19.835938 5.035156 -20.023438 4.734375 -20.328125 C 4.429688 -20.628906 4.222656 -20.988281 4.109375 -21.40625 C 4.003906 -21.832031 4.035156 -22.265625 4.203125 -22.703125 C 4.378906 -23.140625 4.71875 -23.503906 5.21875 -23.796875 L 10.6875 -27.078125 C 11.21875 -27.398438 11.742188 -27.671875 12.265625 -27.890625 C 12.796875 -28.117188 13.285156 -28.234375 13.734375 -28.234375 C 14.296875 -28.234375 14.757812 -28.078125 15.125 -27.765625 C 15.488281 -27.460938 15.671875 -26.972656 15.671875 -26.296875 L 15.671875 -4.203125 L 19.71875 -4.203125 C 20.40625 -4.203125 20.9375 -4.03125 21.3125 -3.6875 C 21.695312 -3.34375 21.890625 -2.828125 21.890625 -2.140625 C 21.890625 -1.453125 21.695312 -0.921875 21.3125 -0.546875 C 20.9375 -0.179688 20.40625 0 19.71875 0 Z M 6.171875 0 "/></g></g></g><g fill="#000000" fill-opacity="1"><g transform="translate(109.669005, 49.064615)"><g><path d="M 12.90625 0.390625 C 10.613281 0.390625 8.65625 -0.15625 7.03125 -1.25 C 5.40625 -2.34375 4.171875 -3.914062 3.328125 -5.96875 C 2.484375 -8.03125 2.0625 -10.53125 2.0625 -13.46875 C 2.0625 -15.84375 2.332031 -17.945312 2.875 -19.78125 C 3.414062 -21.613281 4.195312 -23.160156 5.21875 -24.421875 C 6.25 -25.691406 7.507812 -26.65625 9 -27.3125 C 10.5 -27.976562 12.1875 -28.3125 14.0625 -28.3125 C 15.21875 -28.3125 16.394531 -28.128906 17.59375 -27.765625 C 18.800781 -27.410156 19.929688 -26.878906 20.984375 -26.171875 C 21.410156 -25.910156 21.6875 -25.566406 21.8125 -25.140625 C 21.945312 -24.722656 21.96875 -24.304688 21.875 -23.890625 C 21.78125 -23.484375 21.59375 -23.128906 21.3125 -22.828125 C 21.039062 -22.523438 20.691406 -22.335938 20.265625 -22.265625 C 19.847656 -22.203125 19.390625 -22.316406 18.890625 -22.609375 C 17.992188 -23.140625 17.148438 -23.507812 16.359375 -23.71875 C 15.566406 -23.925781 14.773438 -24.03125 13.984375 -24.03125 C 12.453125 -24.03125 11.15625 -23.671875 10.09375 -22.953125 C 9.039062 -22.242188 8.242188 -21.175781 7.703125 -19.75 C 7.160156 -18.332031 6.890625 -16.550781 6.890625 -14.40625 L 6.890625 -11.4375 L 6.421875 -11.4375 C 6.628906 -12.789062 7.066406 -13.945312 7.734375 -14.90625 C 8.410156 -15.875 9.273438 -16.613281 10.328125 -17.125 C 11.390625 -17.632812 12.566406 -17.890625 13.859375 -17.890625 C 15.460938 -17.890625 16.882812 -17.503906 18.125 -16.734375 C 19.375 -15.972656 20.351562 -14.921875 21.0625 -13.578125 C 21.78125 -12.234375 22.140625 -10.691406 22.140625 -8.953125 C 22.140625 -7.148438 21.75 -5.539062 20.96875 -4.125 C 20.1875 -2.71875 19.101562 -1.613281 17.71875 -0.8125 C 16.332031 -0.0078125 14.726562 0.390625 12.90625 0.390625 Z M 12.625 -3.640625 C 13.582031 -3.640625 14.421875 -3.847656 15.140625 -4.265625 C 15.867188 -4.691406 16.429688 -5.296875 16.828125 -6.078125 C 17.222656 -6.859375 17.421875 -7.75 17.421875 -8.75 C 17.421875 -9.78125 17.222656 -10.675781 16.828125 -11.4375 C 16.429688 -12.207031 15.867188 -12.804688 15.140625 -13.234375 C 14.421875 -13.671875 13.582031 -13.890625 12.625 -13.890625 C 11.675781 -13.890625 10.84375 -13.671875 10.125 -13.234375 C 9.414062 -12.804688 8.859375 -12.207031 8.453125 -11.4375 C 8.046875 -10.675781 7.84375 -9.78125 7.84375 -8.75 C 7.84375 -7.75 8.046875 -6.859375 8.453125 -6.078125 C 8.859375 -5.296875 9.414062 -4.691406 10.125 -4.265625 C 10.84375 -3.847656 11.675781 -3.640625 12.625 -3.640625 Z M 12.625 -3.640625 "/></g></g></g><g fill="#000000" fill-opacity="1"><g transform="translate(133.426646, 49.064615)"><g/></g></g><g fill="#000000" fill-opacity="1"><g transform="translate(144.157184, 49.064615)"><g><path d="M 11.875 -1.265625 C 11.289062 -1.265625 10.84375 -1.425781 10.53125 -1.75 C 10.21875 -2.082031 10.0625 -2.539062 10.0625 -3.125 L 10.0625 -9.625 L 3.6875 -9.625 C 3.125 -9.625 2.6875 -9.773438 2.375 -10.078125 C 2.0625 -10.378906 1.90625 -10.804688 1.90625 -11.359375 C 1.90625 -11.910156 2.0625 -12.335938 2.375 -12.640625 C 2.6875 -12.953125 3.125 -13.109375 3.6875 -13.109375 L 10.0625 -13.109375 L 10.0625 -19.40625 C 10.0625 -19.976562 10.21875 -20.421875 10.53125 -20.734375 C 10.84375 -21.054688 11.304688 -21.21875 11.921875 -21.21875 C 12.492188 -21.21875 12.929688 -21.054688 13.234375 -20.734375 C 13.546875 -20.421875 13.703125 -19.976562 13.703125 -19.40625 L 13.703125 -13.109375 L 20.078125 -13.109375 C 20.648438 -13.109375 21.085938 -12.953125 21.390625 -12.640625 C 21.703125 -12.335938 21.859375 -11.910156 21.859375 -11.359375 C 21.859375 -10.804688 21.703125 -10.378906 21.390625 -10.078125 C 21.085938 -9.773438 20.648438 -9.625 20.078125 -9.625 L 13.703125 -9.625 L 13.703125 -3.125 C 13.703125 -2.539062 13.546875 -2.082031 13.234375 -1.75 C 12.929688 -1.425781 12.476562 -1.265625 11.875 -1.265625 Z M 11.875 -1.265625 "/></g></g></g><g fill="#000000" fill-opacity="1"><g transform="translate(167.914825, 49.064615)"><g/></g></g><g fill="#000000" fill-opacity="1"><g transform="translate(178.645363, 49.064615)"><g><path d="M 16.359375 0.3125 C 15.566406 0.3125 14.941406 0.0976562 14.484375 -0.328125 C 14.035156 -0.765625 13.8125 -1.394531 13.8125 -2.21875 L 13.8125 -5.3125 L 4.03125 -5.3125 C 3.21875 -5.3125 2.566406 -5.476562 2.078125 -5.8125 C 1.585938 -6.15625 1.34375 -6.695312 1.34375 -7.4375 C 1.34375 -7.863281 1.453125 -8.328125 1.671875 -8.828125 C 1.898438 -9.328125 2.304688 -9.988281 2.890625 -10.8125 L 13.734375 -26.53125 C 14.109375 -27.082031 14.519531 -27.503906 14.96875 -27.796875 C 15.414062 -28.085938 15.929688 -28.234375 16.515625 -28.234375 C 17.203125 -28.234375 17.769531 -28.023438 18.21875 -27.609375 C 18.664062 -27.203125 18.890625 -26.566406 18.890625 -25.703125 L 18.890625 -9.5 L 20.828125 -9.5 C 21.585938 -9.5 22.160156 -9.320312 22.546875 -8.96875 C 22.929688 -8.613281 23.125 -8.09375 23.125 -7.40625 C 23.125 -6.71875 22.929688 -6.195312 22.546875 -5.84375 C 22.160156 -5.488281 21.585938 -5.3125 20.828125 -5.3125 L 18.890625 -5.3125 L 18.890625 -2.21875 C 18.890625 -1.394531 18.664062 -0.765625 18.21875 -0.328125 C 17.769531 0.0976562 17.148438 0.3125 16.359375 0.3125 Z M 13.8125 -9.5 L 13.8125 -21.859375 L 14.96875 -21.859375 L 5.625 -8.15625 L 5.625 -9.5 Z M 13.8125 -9.5 "/></g></g></g><g fill="#000000" fill-opacity="1"><g transform="translate(202.403004, 49.064615)"><g/></g></g><g fill="#000000" fill-opacity="1"><g transform="translate(213.133542, 49.064615)"><g><path d="M 3.6875 -13.578125 C 3.125 -13.578125 2.6875 -13.726562 2.375 -14.03125 C 2.0625 -14.332031 1.90625 -14.765625 1.90625 -15.328125 C 1.90625 -15.878906 2.0625 -16.304688 2.375 -16.609375 C 2.6875 -16.910156 3.125 -17.0625 3.6875 -17.0625 L 20.078125 -17.0625 C 20.648438 -17.0625 21.085938 -16.910156 21.390625 -16.609375 C 21.703125 -16.304688 21.859375 -15.878906 21.859375 -15.328125 C 21.859375 -14.765625 21.703125 -14.332031 21.390625 -14.03125 C 21.085938 -13.726562 20.648438 -13.578125 20.078125 -13.578125 Z M 3.6875 -5.703125 C 3.125 -5.703125 2.6875 -5.851562 2.375 -6.15625 C 2.0625 -6.457031 1.90625 -6.882812 1.90625 -7.4375 C 1.90625 -8 2.0625 -8.421875 2.375 -8.703125 C 2.6875 -8.992188 3.125 -9.140625 3.6875 -9.140625 L 20.078125 -9.140625 C 20.648438 -9.140625 21.085938 -8.992188 21.390625 -8.703125 C 21.703125 -8.421875 21.859375 -8 21.859375 -7.4375 C 21.859375 -6.863281 21.703125 -6.429688 21.390625 -6.140625 C 21.085938 -5.847656 20.648438 -5.703125 20.078125 -5.703125 Z M 3.6875 -5.703125 "/></g></g></g><g fill="#000000" fill-opacity="1"><g transform="translate(236.891183, 49.064615)"><g/></g></g><g fill="#000000" fill-opacity="1"><g transform="translate(247.621721, 49.064615)"><g><path d="M 12.90625 0.390625 C 10.613281 0.390625 8.65625 -0.15625 7.03125 -1.25 C 5.40625 -2.34375 4.171875 -3.914062 3.328125 -5.96875 C 2.484375 -8.03125 2.0625 -10.53125 2.0625 -13.46875 C 2.0625 -15.84375 2.332031 -17.945312 2.875 -19.78125 C 3.414062 -21.613281 4.195312 -23.160156 5.21875 -24.421875 C 6.25 -25.691406 7.507812 -26.65625 9 -27.3125 C 10.5 -27.976562 12.1875 -28.3125 14.0625 -28.3125 C 15.21875 -28.3125 16.394531 -28.128906 17.59375 -27.765625 C 18.800781 -27.410156 19.929688 -26.878906 20.984375 -26.171875 C 21.410156 -25.910156 21.6875 -25.566406 21.8125 -25.140625 C 21.945312 -24.722656 21.96875 -24.304688 21.875 -23.890625 C 21.78125 -23.484375 21.59375 -23.128906 21.3125 -22.828125 C 21.039062 -22.523438 20.691406 -22.335938 20.265625 -22.265625 C 19.847656 -22.203125 19.390625 -22.316406 18.890625 -22.609375 C 17.992188 -23.140625 17.148438 -23.507812 16.359375 -23.71875 C 15.566406 -23.925781 14.773438 -24.03125 13.984375 -24.03125 C 12.453125 -24.03125 11.15625 -23.671875 10.09375 -22.953125 C 9.039062 -22.242188 8.242188 -21.175781 7.703125 -19.75 C 7.160156 -18.332031 6.890625 -16.550781 6.890625 -14.40625 L 6.890625 -11.4375 L 6.421875 -11.4375 C 6.628906 -12.789062 7.066406 -13.945312 7.734375 -14.90625 C 8.410156 -15.875 9.273438 -16.613281 10.328125 -17.125 C 11.390625 -17.632812 12.566406 -17.890625 13.859375 -17.890625 C 15.460938 -17.890625 16.882812 -17.503906 18.125 -16.734375 C 19.375 -15.972656 20.351562 -14.921875 21.0625 -13.578125 C 21.78125 -12.234375 22.140625 -10.691406 22.140625 -8.953125 C 22.140625 -7.148438 21.75 -5.539062 20.96875 -4.125 C 20.1875 -2.71875 19.101562 -1.613281 17.71875 -0.8125 C 16.332031 -0.0078125 14.726562 0.390625 12.90625 0.390625 Z M 12.625 -3.640625 C 13.582031 -3.640625 14.421875 -3.847656 15.140625 -4.265625 C 15.867188 -4.691406 16.429688 -5.296875 16.828125 -6.078125 C 17.222656 -6.859375 17.421875 -7.75 17.421875 -8.75 C 17.421875 -9.78125 17.222656 -10.675781 16.828125 -11.4375 C 16.429688 -12.207031 15.867188 -12.804688 15.140625 -13.234375 C 14.421875 -13.671875 13.582031 -13.890625 12.625 -13.890625 C 11.675781 -13.890625 10.84375 -13.671875 10.125 -13.234375 C 9.414062 -12.804688 8.859375 -12.207031 8.453125 -11.4375 C 8.046875 -10.675781 7.84375 -9.78125 7.84375 -8.75 C 7.84375 -7.75 8.046875 -6.859375 8.453125 -6.078125 C 8.859375 -5.296875 9.414062 -4.691406 10.125 -4.265625 C 10.84375 -3.847656 11.675781 -3.640625 12.625 -3.640625 Z M 12.625 -3.640625 "/></g></g></g><g fill="#000000" fill-opacity="1"><g transform="translate(271.379362, 49.064615)"><g/></g></g><g fill="#000000" fill-opacity="1"><g transform="translate(282.1099, 49.064615)"><g><path d="M 4.390625 -8.625 C 3.816406 -8.625 3.335938 -8.816406 2.953125 -9.203125 C 2.566406 -9.585938 2.375 -10.054688 2.375 -10.609375 C 2.375 -11.191406 2.566406 -11.664062 2.953125 -12.03125 C 3.335938 -12.40625 3.816406 -12.59375 4.390625 -12.59375 L 12.828125 -12.59375 C 13.378906 -12.59375 13.847656 -12.40625 14.234375 -12.03125 C 14.617188 -11.664062 14.8125 -11.191406 14.8125 -10.609375 C 14.8125 -10.054688 14.617188 -9.585938 14.234375 -9.203125 C 13.847656 -8.816406 13.378906 -8.625 12.828125 -8.625 Z M 4.390625 -8.625 "/></g></g></g><g fill="#000000" fill-opacity="1"><g transform="translate(299.294577, 49.064615)"><g/></g></g><g fill="#000000" fill-opacity="1"><g transform="translate(310.025114, 49.064615)"><g><path d="M 5.265625 0 C 4.421875 0 3.804688 -0.1875 3.421875 -0.5625 C 3.035156 -0.945312 2.84375 -1.507812 2.84375 -2.25 C 2.84375 -2.707031 2.960938 -3.144531 3.203125 -3.5625 C 3.441406 -3.988281 3.785156 -4.4375 4.234375 -4.90625 L 12.1875 -13.375 C 13.40625 -14.644531 14.273438 -15.800781 14.796875 -16.84375 C 15.328125 -17.882812 15.59375 -18.9375 15.59375 -20 C 15.59375 -21.3125 15.175781 -22.3125 14.34375 -23 C 13.519531 -23.6875 12.316406 -24.03125 10.734375 -24.03125 C 9.835938 -24.03125 8.9375 -23.90625 8.03125 -23.65625 C 7.132812 -23.40625 6.226562 -22.976562 5.3125 -22.375 C 4.832031 -22.050781 4.382812 -21.914062 3.96875 -21.96875 C 3.5625 -22.019531 3.207031 -22.191406 2.90625 -22.484375 C 2.601562 -22.773438 2.398438 -23.128906 2.296875 -23.546875 C 2.191406 -23.972656 2.210938 -24.40625 2.359375 -24.84375 C 2.503906 -25.28125 2.8125 -25.65625 3.28125 -25.96875 C 4.414062 -26.738281 5.6875 -27.320312 7.09375 -27.71875 C 8.507812 -28.113281 9.929688 -28.3125 11.359375 -28.3125 C 13.367188 -28.3125 15.054688 -28.003906 16.421875 -27.390625 C 17.796875 -26.785156 18.835938 -25.898438 19.546875 -24.734375 C 20.265625 -23.578125 20.625 -22.171875 20.625 -20.515625 C 20.625 -19.398438 20.445312 -18.3125 20.09375 -17.25 C 19.738281 -16.195312 19.195312 -15.128906 18.46875 -14.046875 C 17.738281 -12.972656 16.796875 -11.828125 15.640625 -10.609375 L 8.203125 -2.84375 L 8.203125 -4.203125 L 19.84375 -4.203125 C 20.550781 -4.203125 21.085938 -4.03125 21.453125 -3.6875 C 21.828125 -3.34375 22.015625 -2.828125 22.015625 -2.140625 C 22.015625 -1.453125 21.828125 -0.921875 21.453125 -0.546875 C 21.085938 -0.179688 20.550781 0 19.84375 0 Z M 5.265625 0 "/></g></g></g></svg>