<svg xmlns="http://www.w3.org/2000/svg" xmlns:xlink="http://www.w3.org/1999/xlink" width="242" zoomAndPan="magnify" viewBox="0 0 181.5 74.249996" height="99" preserveAspectRatio="xMidYMid meet" version="1.0"><defs><g/><clipPath id="ed1a49699e"><path d="M 2.003906 0 L 178.4375 0 L 178.4375 72.765625 L 2.003906 72.765625 Z M 2.003906 0 " clip-rule="nonzero"/></clipPath></defs><g clip-path="url(#ed1a49699e)"><path stroke-linecap="butt" transform="matrix(0.7425, 0, 0, 0.7425, 2.005466, -0.00000198)" fill="none" stroke-linejoin="miter" d="M -0.00210102 0.00000266667 L 237.618923 0.00000266667 L 237.618923 98.158682 L -0.00210102 98.158682 Z M -0.00210102 0.00000266667 " stroke="#000000" stroke-width="12" stroke-opacity="1" stroke-miterlimit="4"/></g><g fill="#000000" fill-opacity="1"><g transform="translate(43.851838, 49.064615)"><g><path d="M 12.109375 0.390625 C 10.710938 0.390625 9.285156 0.207031 7.828125 -0.15625 C 6.378906 -0.53125 5.050781 -1.097656 3.84375 -1.859375 C 3.34375 -2.179688 3.003906 -2.554688 2.828125 -2.984375 C 2.660156 -3.421875 2.617188 -3.859375 2.703125 -4.296875 C 2.796875 -4.734375 2.992188 -5.101562 3.296875 -5.40625 C 3.609375 -5.707031 3.976562 -5.882812 4.40625 -5.9375 C 4.84375 -5.988281 5.328125 -5.867188 5.859375 -5.578125 C 6.835938 -5.023438 7.828125 -4.601562 8.828125 -4.3125 C 9.828125 -4.019531 10.894531 -3.875 12.03125 -3.875 C 13.144531 -3.875 14.097656 -4.070312 14.890625 -4.46875 C 15.679688 -4.863281 16.285156 -5.414062 16.703125 -6.125 C 17.128906 -6.84375 17.34375 -7.675781 17.34375 -8.625 C 17.34375 -10.101562 16.894531 -11.296875 16 -12.203125 C 15.101562 -13.117188 13.875 -13.578125 12.3125 -13.578125 C 11.46875 -13.578125 10.648438 -13.4375 9.859375 -13.15625 C 9.066406 -12.882812 8.285156 -12.40625 7.515625 -11.71875 C 7.285156 -11.507812 6.984375 -11.304688 6.609375 -11.109375 C 6.242188 -10.910156 5.847656 -10.8125 5.421875 -10.8125 C 4.765625 -10.8125 4.265625 -10.984375 3.921875 -11.328125 C 3.578125 -11.671875 3.40625 -12.144531 3.40625 -12.75 L 3.40625 -25.703125 C 3.40625 -26.410156 3.59375 -26.953125 3.96875 -27.328125 C 4.351562 -27.710938 4.90625 -27.90625 5.625 -27.90625 L 18.65625 -27.90625 C 19.363281 -27.90625 19.90625 -27.726562 20.28125 -27.375 C 20.664062 -27.019531 20.859375 -26.5 20.859375 -25.8125 C 20.859375 -25.15625 20.664062 -24.640625 20.28125 -24.265625 C 19.90625 -23.898438 19.363281 -23.71875 18.65625 -23.71875 L 8.359375 -23.71875 L 8.359375 -14.84375 L 7.046875 -14.84375 C 7.734375 -15.769531 8.644531 -16.484375 9.78125 -16.984375 C 10.914062 -17.484375 12.15625 -17.734375 13.5 -17.734375 C 15.269531 -17.734375 16.804688 -17.359375 18.109375 -16.609375 C 19.421875 -15.859375 20.4375 -14.816406 21.15625 -13.484375 C 21.882812 -12.148438 22.25 -10.597656 22.25 -8.828125 C 22.25 -7.003906 21.835938 -5.398438 21.015625 -4.015625 C 20.203125 -2.628906 19.035156 -1.546875 17.515625 -0.765625 C 16.003906 0.00390625 14.203125 0.390625 12.109375 0.390625 Z M 12.109375 0.390625 "/></g></g></g><g fill="#000000" fill-opacity="1"><g transform="translate(67.609479, 49.064615)"><g/></g></g><g fill="#000000" fill-opacity="1"><g transform="translate(78.340017, 49.064615)"><g><path d="M 5.265625 0 C 4.421875 0 3.804688 -0.1875 3.421875 -0.5625 C 3.035156 -0.945312 2.84375 -1.507812 2.84375 -2.25 C 2.84375 -2.707031 2.960938 -3.144531 3.203125 -3.5625 C 3.441406 -3.988281 3.785156 -4.4375 4.234375 -4.90625 L 12.1875 -13.375 C 13.40625 -14.644531 14.273438 -15.800781 14.796875 -16.84375 C 15.328125 -17.882812 15.59375 -18.9375 15.59375 -20 C 15.59375 -21.3125 15.175781 -22.3125 14.34375 -23 C 13.519531 -23.6875 12.316406 -24.03125 10.734375 -24.03125 C 9.835938 -24.03125 8.9375 -23.90625 8.03125 -23.65625 C 7.132812 -23.40625 6.226562 -22.976562 5.3125 -22.375 C 4.832031 -22.050781 4.382812 -21.914062 3.96875 -21.96875 C 3.5625 -22.019531 3.207031 -22.191406 2.90625 -22.484375 C 2.601562 -22.773438 2.398438 -23.128906 2.296875 -23.546875 C 2.191406 -23.972656 2.210938 -24.40625 2.359375 -24.84375 C 2.503906 -25.28125 2.8125 -25.65625 3.28125 -25.96875 C 4.414062 -26.738281 5.6875 -27.320312 7.09375 -27.71875 C 8.507812 -28.113281 9.929688 -28.3125 11.359375 -28.3125 C 13.367188 -28.3125 15.054688 -28.003906 16.421875 -27.390625 C 17.796875 -26.785156 18.835938 -25.898438 19.546875 -24.734375 C 20.265625 -23.578125 20.625 -22.171875 20.625 -20.515625 C 20.625 -19.398438 20.445312 -18.3125 20.09375 -17.25 C 19.738281 -16.195312 19.195312 -15.128906 18.46875 -14.046875 C 17.738281 -12.972656 16.796875 -11.828125 15.640625 -10.609375 L 8.203125 -2.84375 L 8.203125 -4.203125 L 19.84375 -4.203125 C 20.550781 -4.203125 21.085938 -4.03125 21.453125 -3.6875 C 21.828125 -3.34375 22.015625 -2.828125 22.015625 -2.140625 C 22.015625 -1.453125 21.828125 -0.921875 21.453125 -0.546875 C 21.085938 -0.179688 20.550781 0 19.84375 0 Z M 5.265625 0 "/></g></g></g><g fill="#000000" fill-opacity="1"><g transform="translate(102.097658, 49.064615)"><g/></g></g><g fill="#000000" fill-opacity="1"><g transform="translate(112.828196, 49.064615)"><g><path d="M 16.359375 0.3125 C 15.566406 0.3125 14.941406 0.0976562 14.484375 -0.328125 C 14.035156 -0.765625 13.8125 -1.394531 13.8125 -2.21875 L 13.8125 -5.3125 L 4.03125 -5.3125 C 3.21875 -5.3125 2.566406 -5.476562 2.078125 -5.8125 C 1.585938 -6.15625 1.34375 -6.695312 1.34375 -7.4375 C 1.34375 -7.863281 1.453125 -8.328125 1.671875 -8.828125 C 1.898438 -9.328125 2.304688 -9.988281 2.890625 -10.8125 L 13.734375 -26.53125 C 14.109375 -27.082031 14.519531 -27.503906 14.96875 -27.796875 C 15.414062 -28.085938 15.929688 -28.234375 16.515625 -28.234375 C 17.203125 -28.234375 17.769531 -28.023438 18.21875 -27.609375 C 18.664062 -27.203125 18.890625 -26.566406 18.890625 -25.703125 L 18.890625 -9.5 L 20.828125 -9.5 C 21.585938 -9.5 22.160156 -9.320312 22.546875 -8.96875 C 22.929688 -8.613281 23.125 -8.09375 23.125 -7.40625 C 23.125 -6.71875 22.929688 -6.195312 22.546875 -5.84375 C 22.160156 -5.488281 21.585938 -5.3125 20.828125 -5.3125 L 18.890625 -5.3125 L 18.890625 -2.21875 C 18.890625 -1.394531 18.664062 -0.765625 18.21875 -0.328125 C 17.769531 0.0976562 17.148438 0.3125 16.359375 0.3125 Z M 13.8125 -9.5 L 13.8125 -21.859375 L 14.96875 -21.859375 L 5.625 -8.15625 L 5.625 -9.5 Z M 13.8125 -9.5 "/></g></g></g></svg>