<svg xmlns="http://www.w3.org/2000/svg" xmlns:xlink="http://www.w3.org/1999/xlink" width="242" zoomAndPan="magnify" viewBox="0 0 181.5 74.249996" height="99" preserveAspectRatio="xMidYMid meet" version="1.0"><defs><g/><clipPath id="ce3a105a5a"><path d="M 2.003906 0 L 178.4375 0 L 178.4375 72.765625 L 2.003906 72.765625 Z M 2.003906 0 " clip-rule="nonzero"/></clipPath></defs><g clip-path="url(#ce3a105a5a)"><path stroke-linecap="butt" transform="matrix(0.7425, 0, 0, 0.7425, 2.005466, -0.00000198)" fill="none" stroke-linejoin="miter" d="M -0.00210102 0.00000266667 L 237.618923 0.00000266667 L 237.618923 98.158682 L -0.00210102 98.158682 Z M -0.00210102 0.00000266667 " stroke="#000000" stroke-width="12" stroke-opacity="1" stroke-miterlimit="4"/></g><g fill="#000000" fill-opacity="1"><g transform="translate(43.851838, 49.064615)"><g><path d="M 6.171875 0 C 5.484375 0 4.945312 -0.1875 4.5625 -0.5625 C 4.1875 -0.945312 4 -1.472656 4 -2.140625 C 4 -2.828125 4.1875 -3.34375 4.5625 -3.6875 C 4.945312 -4.03125 5.484375 -4.203125 6.171875 -4.203125 L 10.609375 -4.203125 L 10.609375 -23.640625 L 13.0625 -23.640625 L 7.25 -20.109375 C 6.75 -19.816406 6.28125 -19.703125 5.84375 -19.765625 C 5.40625 -19.835938 5.035156 -20.023438 4.734375 -20.328125 C 4.429688 -20.628906 4.222656 -20.988281 4.109375 -21.40625 C 4.003906 -21.832031 4.035156 -22.265625 4.203125 -22.703125 C 4.378906 -23.140625 4.71875 -23.503906 5.21875 -23.796875 L 10.6875 -27.078125 C 11.21875 -27.398438 11.742188 -27.671875 12.265625 -27.890625 C 12.796875 -28.117188 13.285156 -28.234375 13.734375 -28.234375 C 14.296875 -28.234375 14.757812 -28.078125 15.125 -27.765625 C 15.488281 -27.460938 15.671875 -26.972656 15.671875 -26.296875 L 15.671875 -4.203125 L 19.71875 -4.203125 C 20.40625 -4.203125 20.9375 -4.03125 21.3125 -3.6875 C 21.695312 -3.34375 21.890625 -2.828125 21.890625 -2.140625 C 21.890625 -1.453125 21.695312 -0.921875 21.3125 -0.546875 C 20.9375 -0.179688 20.40625 0 19.71875 0 Z M 6.171875 0 "/></g></g></g><g fill="#000000" fill-opacity="1"><g transform="translate(67.609479, 49.064615)"><g/></g></g><g fill="#000000" fill-opacity="1"><g transform="translate(78.340017, 49.064615)"><g><path d="M 11.328125 0.390625 C 9.898438 0.390625 8.421875 0.207031 6.890625 -0.15625 C 5.359375 -0.53125 4.023438 -1.085938 2.890625 -1.828125 C 2.359375 -2.171875 2 -2.566406 1.8125 -3.015625 C 1.632812 -3.460938 1.59375 -3.890625 1.6875 -4.296875 C 1.78125 -4.703125 1.976562 -5.050781 2.28125 -5.34375 C 2.582031 -5.632812 2.960938 -5.804688 3.421875 -5.859375 C 3.890625 -5.910156 4.398438 -5.789062 4.953125 -5.5 C 6.035156 -4.914062 7.078125 -4.5 8.078125 -4.25 C 9.078125 -4 10.109375 -3.875 11.171875 -3.875 C 12.328125 -3.875 13.300781 -4.03125 14.09375 -4.34375 C 14.882812 -4.664062 15.484375 -5.144531 15.890625 -5.78125 C 16.304688 -6.414062 16.515625 -7.179688 16.515625 -8.078125 C 16.515625 -9.398438 16.070312 -10.382812 15.1875 -11.03125 C 14.300781 -11.675781 13.015625 -12 11.328125 -12 L 8.796875 -12 C 8.054688 -12 7.492188 -12.179688 7.109375 -12.546875 C 6.722656 -12.921875 6.53125 -13.4375 6.53125 -14.09375 C 6.53125 -14.75 6.722656 -15.257812 7.109375 -15.625 C 7.492188 -16 8.054688 -16.1875 8.796875 -16.1875 L 10.84375 -16.1875 C 11.851562 -16.1875 12.710938 -16.351562 13.421875 -16.6875 C 14.128906 -17.019531 14.679688 -17.488281 15.078125 -18.09375 C 15.472656 -18.695312 15.671875 -19.4375 15.671875 -20.3125 C 15.671875 -21.53125 15.269531 -22.453125 14.46875 -23.078125 C 13.664062 -23.710938 12.5 -24.03125 10.96875 -24.03125 C 9.988281 -24.03125 9.066406 -23.914062 8.203125 -23.6875 C 7.347656 -23.46875 6.410156 -23.054688 5.390625 -22.453125 C 4.910156 -22.160156 4.453125 -22.039062 4.015625 -22.09375 C 3.578125 -22.144531 3.210938 -22.316406 2.921875 -22.609375 C 2.640625 -22.898438 2.441406 -23.25 2.328125 -23.65625 C 2.222656 -24.0625 2.25 -24.484375 2.40625 -24.921875 C 2.570312 -25.359375 2.90625 -25.734375 3.40625 -26.046875 C 4.539062 -26.785156 5.789062 -27.347656 7.15625 -27.734375 C 8.53125 -28.117188 9.945312 -28.3125 11.40625 -28.3125 C 13.332031 -28.3125 14.976562 -28.015625 16.34375 -27.421875 C 17.71875 -26.828125 18.769531 -25.976562 19.5 -24.875 C 20.226562 -23.78125 20.59375 -22.457031 20.59375 -20.90625 C 20.59375 -19.800781 20.378906 -18.789062 19.953125 -17.875 C 19.535156 -16.96875 18.941406 -16.195312 18.171875 -15.5625 C 17.410156 -14.925781 16.488281 -14.476562 15.40625 -14.21875 L 15.40625 -14.6875 C 17.300781 -14.375 18.773438 -13.585938 19.828125 -12.328125 C 20.890625 -11.078125 21.421875 -9.515625 21.421875 -7.640625 C 21.421875 -6.003906 21.007812 -4.578125 20.1875 -3.359375 C 19.375 -2.148438 18.210938 -1.222656 16.703125 -0.578125 C 15.203125 0.0664062 13.410156 0.390625 11.328125 0.390625 Z M 11.328125 0.390625 "/></g></g></g><g fill="#000000" fill-opacity="1"><g transform="translate(102.097658, 49.064615)"><g/></g></g><g fill="#000000" fill-opacity="1"><g transform="translate(112.828196, 49.064615)"><g><path d="M 5.265625 0 C 4.421875 0 3.804688 -0.1875 3.421875 -0.5625 C 3.035156 -0.945312 2.84375 -1.507812 2.84375 -2.25 C 2.84375 -2.707031 2.960938 -3.144531 3.203125 -3.5625 C 3.441406 -3.988281 3.785156 -4.4375 4.234375 -4.90625 L 12.1875 -13.375 C 13.40625 -14.644531 14.273438 -15.800781 14.796875 -16.84375 C 15.328125 -17.882812 15.59375 -18.9375 15.59375 -20 C 15.59375 -21.3125 15.175781 -22.3125 14.34375 -23 C 13.519531 -23.6875 12.316406 -24.03125 10.734375 -24.03125 C 9.835938 -24.03125 8.9375 -23.90625 8.03125 -23.65625 C 7.132812 -23.40625 6.226562 -22.976562 5.3125 -22.375 C 4.832031 -22.050781 4.382812 -21.914062 3.96875 -21.96875 C 3.5625 -22.019531 3.207031 -22.191406 2.90625 -22.484375 C 2.601562 -22.773438 2.398438 -23.128906 2.296875 -23.546875 C 2.191406 -23.972656 2.210938 -24.40625 2.359375 -24.84375 C 2.503906 -25.28125 2.8125 -25.65625 3.28125 -25.96875 C 4.414062 -26.738281 5.6875 -27.320312 7.09375 -27.71875 C 8.507812 -28.113281 9.929688 -28.3125 11.359375 -28.3125 C 13.367188 -28.3125 15.054688 -28.003906 16.421875 -27.390625 C 17.796875 -26.785156 18.835938 -25.898438 19.546875 -24.734375 C 20.265625 -23.578125 20.625 -22.171875 20.625 -20.515625 C 20.625 -19.398438 20.445312 -18.3125 20.09375 -17.25 C 19.738281 -16.195312 19.195312 -15.128906 18.46875 -14.046875 C 17.738281 -12.972656 16.796875 -11.828125 15.640625 -10.609375 L 8.203125 -2.84375 L 8.203125 -4.203125 L 19.84375 -4.203125 C 20.550781 -4.203125 21.085938 -4.03125 21.453125 -3.6875 C 21.828125 -3.34375 22.015625 -2.828125 22.015625 -2.140625 C 22.015625 -1.453125 21.828125 -0.921875 21.453125 -0.546875 C 21.085938 -0.179688 20.550781 0 19.84375 0 Z M 5.265625 0 "/></g></g></g></svg>