<svg xmlns="http://www.w3.org/2000/svg" xmlns:xlink="http://www.w3.org/1999/xlink" width="560" zoomAndPan="magnify" viewBox="0 0 420 74.249996" height="99" preserveAspectRatio="xMidYMid meet" version="1.0"><defs><g/><clipPath id="1c208cc927"><path d="M 2.109375 0 L 417.585938 0 L 417.585938 72.765625 L 2.109375 72.765625 Z M 2.109375 0 " clip-rule="nonzero"/></clipPath></defs><g clip-path="url(#1c208cc927)"><path stroke-linecap="butt" transform="matrix(0.7425, 0, 0, 0.7425, 2.11108, -0.00000198)" fill="none" stroke-linejoin="miter" d="M -0.00229652 0.00000266667 L 559.562151 0.00000266667 L 559.562151 98.158682 L -0.00229652 98.158682 Z M -0.00229652 0.00000266667 " stroke="#000000" stroke-width="12" stroke-opacity="1" stroke-miterlimit="4"/></g><g fill="#000000" fill-opacity="1"><g transform="translate(121.551361, 49.064615)"><g><path d="M 5.578125 0.3125 C 4.765625 0.3125 4.140625 0.0820312 3.703125 -0.375 C 3.265625 -0.832031 3.046875 -1.472656 3.046875 -2.296875 L 3.046875 -25.609375 C 3.046875 -26.460938 3.265625 -27.113281 3.703125 -27.5625 C 4.140625 -28.007812 4.765625 -28.234375 5.578125 -28.234375 C 6.398438 -28.234375 7.023438 -28.007812 7.453125 -27.5625 C 7.890625 -27.113281 8.109375 -26.460938 8.109375 -25.609375 L 8.109375 -2.296875 C 8.109375 -1.472656 7.894531 -0.832031 7.46875 -0.375 C 7.050781 0.0820312 6.421875 0.3125 5.578125 0.3125 Z M 5.578125 0.3125 "/></g></g></g><g fill="#000000" fill-opacity="1"><g transform="translate(132.717456, 49.064615)"><g><path d="M 5.03125 0.3125 C 4.238281 0.3125 3.628906 0.0976562 3.203125 -0.328125 C 2.785156 -0.765625 2.578125 -1.394531 2.578125 -2.21875 L 2.578125 -17.1875 C 2.578125 -18 2.785156 -18.613281 3.203125 -19.03125 C 3.628906 -19.457031 4.222656 -19.671875 4.984375 -19.671875 C 5.753906 -19.671875 6.347656 -19.457031 6.765625 -19.03125 C 7.191406 -18.613281 7.40625 -18 7.40625 -17.1875 L 7.40625 -14.484375 L 6.96875 -15.484375 C 7.550781 -16.878906 8.453125 -17.9375 9.671875 -18.65625 C 10.898438 -19.382812 12.296875 -19.75 13.859375 -19.75 C 15.410156 -19.75 16.6875 -19.457031 17.6875 -18.875 C 18.695312 -18.300781 19.453125 -17.425781 19.953125 -16.25 C 20.453125 -15.070312 20.703125 -13.585938 20.703125 -11.796875 L 20.703125 -2.21875 C 20.703125 -1.394531 20.488281 -0.765625 20.0625 -0.328125 C 19.644531 0.0976562 19.039062 0.3125 18.25 0.3125 C 17.457031 0.3125 16.84375 0.0976562 16.40625 -0.328125 C 15.976562 -0.765625 15.765625 -1.394531 15.765625 -2.21875 L 15.765625 -11.5625 C 15.765625 -13.0625 15.476562 -14.15625 14.90625 -14.84375 C 14.34375 -15.53125 13.46875 -15.875 12.28125 -15.875 C 10.820312 -15.875 9.660156 -15.414062 8.796875 -14.5 C 7.941406 -13.59375 7.515625 -12.390625 7.515625 -10.890625 L 7.515625 -2.21875 C 7.515625 -0.53125 6.6875 0.3125 5.03125 0.3125 Z M 5.03125 0.3125 "/></g></g></g><g fill="#000000" fill-opacity="1"><g transform="translate(155.881151, 49.064615)"><g><path d="M 10.015625 0.390625 C 8.328125 0.390625 6.84375 -0.015625 5.5625 -0.828125 C 4.28125 -1.648438 3.28125 -2.816406 2.5625 -4.328125 C 1.851562 -5.847656 1.5 -7.640625 1.5 -9.703125 C 1.5 -11.785156 1.851562 -13.570312 2.5625 -15.0625 C 3.28125 -16.550781 4.28125 -17.703125 5.5625 -18.515625 C 6.84375 -19.335938 8.328125 -19.75 10.015625 -19.75 C 11.628906 -19.75 13.035156 -19.351562 14.234375 -18.5625 C 15.429688 -17.769531 16.242188 -16.726562 16.671875 -15.4375 L 16.234375 -15.4375 L 16.234375 -25.734375 C 16.234375 -26.554688 16.441406 -27.175781 16.859375 -27.59375 C 17.285156 -28.019531 17.894531 -28.234375 18.6875 -28.234375 C 19.476562 -28.234375 20.09375 -28.019531 20.53125 -27.59375 C 20.96875 -27.175781 21.1875 -26.554688 21.1875 -25.734375 L 21.1875 -2.21875 C 21.1875 -1.394531 20.972656 -0.765625 20.546875 -0.328125 C 20.128906 0.0976562 19.523438 0.3125 18.734375 0.3125 C 17.941406 0.3125 17.332031 0.0976562 16.90625 -0.328125 C 16.476562 -0.765625 16.265625 -1.394531 16.265625 -2.21875 L 16.265625 -5.3125 L 16.703125 -4.125 C 16.304688 -2.75 15.5 -1.648438 14.28125 -0.828125 C 13.070312 -0.015625 11.648438 0.390625 10.015625 0.390625 Z M 11.40625 -3.359375 C 12.382812 -3.359375 13.238281 -3.597656 13.96875 -4.078125 C 14.707031 -4.554688 15.28125 -5.265625 15.6875 -6.203125 C 16.101562 -7.140625 16.3125 -8.304688 16.3125 -9.703125 C 16.3125 -11.816406 15.863281 -13.394531 14.96875 -14.4375 C 14.070312 -15.476562 12.882812 -16 11.40625 -16 C 10.425781 -16 9.566406 -15.765625 8.828125 -15.296875 C 8.085938 -14.835938 7.515625 -14.140625 7.109375 -13.203125 C 6.703125 -12.265625 6.5 -11.097656 6.5 -9.703125 C 6.5 -7.617188 6.945312 -6.039062 7.84375 -4.96875 C 8.738281 -3.894531 9.925781 -3.359375 11.40625 -3.359375 Z M 11.40625 -3.359375 "/></g></g></g><g fill="#000000" fill-opacity="1"><g transform="translate(179.638792, 49.064615)"><g><path d="M 11.40625 0.390625 C 9.394531 0.390625 7.648438 -0.015625 6.171875 -0.828125 C 4.691406 -1.648438 3.539062 -2.816406 2.71875 -4.328125 C 1.90625 -5.847656 1.5 -7.640625 1.5 -9.703125 C 1.5 -11.253906 1.726562 -12.644531 2.1875 -13.875 C 2.65625 -15.101562 3.320312 -16.160156 4.1875 -17.046875 C 5.0625 -17.929688 6.101562 -18.601562 7.3125 -19.0625 C 8.53125 -19.519531 9.894531 -19.75 11.40625 -19.75 C 13.40625 -19.75 15.144531 -19.335938 16.625 -18.515625 C 18.101562 -17.703125 19.25 -16.539062 20.0625 -15.03125 C 20.882812 -13.53125 21.296875 -11.753906 21.296875 -9.703125 C 21.296875 -8.140625 21.066406 -6.738281 20.609375 -5.5 C 20.148438 -4.257812 19.484375 -3.195312 18.609375 -2.3125 C 17.734375 -1.425781 16.6875 -0.753906 15.46875 -0.296875 C 14.257812 0.160156 12.90625 0.390625 11.40625 0.390625 Z M 11.40625 -3.359375 C 12.382812 -3.359375 13.238281 -3.597656 13.96875 -4.078125 C 14.707031 -4.554688 15.28125 -5.265625 15.6875 -6.203125 C 16.101562 -7.140625 16.3125 -8.304688 16.3125 -9.703125 C 16.3125 -11.816406 15.863281 -13.394531 14.96875 -14.4375 C 14.070312 -15.476562 12.882812 -16 11.40625 -16 C 10.425781 -16 9.566406 -15.765625 8.828125 -15.296875 C 8.085938 -14.835938 7.515625 -14.140625 7.109375 -13.203125 C 6.703125 -12.265625 6.5 -11.097656 6.5 -9.703125 C 6.5 -7.617188 6.945312 -6.039062 7.84375 -4.96875 C 8.738281 -3.894531 9.925781 -3.359375 11.40625 -3.359375 Z M 11.40625 -3.359375 "/></g></g></g><g fill="#000000" fill-opacity="1"><g transform="translate(202.446124, 49.064615)"><g><path d="M 5.03125 0.3125 C 4.238281 0.3125 3.628906 0.0976562 3.203125 -0.328125 C 2.785156 -0.765625 2.578125 -1.394531 2.578125 -2.21875 L 2.578125 -17.1875 C 2.578125 -18 2.785156 -18.613281 3.203125 -19.03125 C 3.628906 -19.457031 4.222656 -19.671875 4.984375 -19.671875 C 5.753906 -19.671875 6.347656 -19.457031 6.765625 -19.03125 C 7.191406 -18.613281 7.40625 -18 7.40625 -17.1875 L 7.40625 -14.484375 L 6.96875 -15.484375 C 7.550781 -16.878906 8.453125 -17.9375 9.671875 -18.65625 C 10.898438 -19.382812 12.296875 -19.75 13.859375 -19.75 C 15.410156 -19.75 16.6875 -19.457031 17.6875 -18.875 C 18.695312 -18.300781 19.453125 -17.425781 19.953125 -16.25 C 20.453125 -15.070312 20.703125 -13.585938 20.703125 -11.796875 L 20.703125 -2.21875 C 20.703125 -1.394531 20.488281 -0.765625 20.0625 -0.328125 C 19.644531 0.0976562 19.039062 0.3125 18.25 0.3125 C 17.457031 0.3125 16.84375 0.0976562 16.40625 -0.328125 C 15.976562 -0.765625 15.765625 -1.394531 15.765625 -2.21875 L 15.765625 -11.5625 C 15.765625 -13.0625 15.476562 -14.15625 14.90625 -14.84375 C 14.34375 -15.53125 13.46875 -15.875 12.28125 -15.875 C 10.820312 -15.875 9.660156 -15.414062 8.796875 -14.5 C 7.941406 -13.59375 7.515625 -12.390625 7.515625 -10.890625 L 7.515625 -2.21875 C 7.515625 -0.53125 6.6875 0.3125 5.03125 0.3125 Z M 5.03125 0.3125 "/></g></g></g><g fill="#000000" fill-opacity="1"><g transform="translate(225.60982, 49.064615)"><g><path d="M 12.109375 0.390625 C 9.921875 0.390625 8.035156 -0.015625 6.453125 -0.828125 C 4.867188 -1.648438 3.644531 -2.8125 2.78125 -4.3125 C 1.925781 -5.820312 1.5 -7.601562 1.5 -9.65625 C 1.5 -11.664062 1.914062 -13.421875 2.75 -14.921875 C 3.582031 -16.429688 4.726562 -17.613281 6.1875 -18.46875 C 7.65625 -19.320312 9.328125 -19.75 11.203125 -19.75 C 12.578125 -19.75 13.8125 -19.523438 14.90625 -19.078125 C 16 -18.628906 16.9375 -17.984375 17.71875 -17.140625 C 18.5 -16.296875 19.09375 -15.273438 19.5 -14.078125 C 19.90625 -12.878906 20.109375 -11.523438 20.109375 -10.015625 C 20.109375 -9.535156 19.941406 -9.171875 19.609375 -8.921875 C 19.285156 -8.671875 18.820312 -8.546875 18.21875 -8.546875 L 5.5 -8.546875 L 5.5 -11.40625 L 16.625 -11.40625 L 16 -10.8125 C 16 -12.019531 15.816406 -13.03125 15.453125 -13.84375 C 15.097656 -14.664062 14.582031 -15.296875 13.90625 -15.734375 C 13.238281 -16.171875 12.40625 -16.390625 11.40625 -16.390625 C 10.289062 -16.390625 9.34375 -16.128906 8.5625 -15.609375 C 7.789062 -15.097656 7.195312 -14.375 6.78125 -13.4375 C 6.375 -12.5 6.171875 -11.382812 6.171875 -10.09375 L 6.171875 -9.8125 C 6.171875 -7.65625 6.675781 -6.039062 7.6875 -4.96875 C 8.707031 -3.894531 10.207031 -3.359375 12.1875 -3.359375 C 12.875 -3.359375 13.644531 -3.441406 14.5 -3.609375 C 15.363281 -3.785156 16.179688 -4.085938 16.953125 -4.515625 C 17.503906 -4.828125 17.988281 -4.960938 18.40625 -4.921875 C 18.832031 -4.890625 19.171875 -4.738281 19.421875 -4.46875 C 19.671875 -4.207031 19.820312 -3.882812 19.875 -3.5 C 19.925781 -3.125 19.851562 -2.734375 19.65625 -2.328125 C 19.457031 -1.929688 19.125 -1.59375 18.65625 -1.3125 C 17.726562 -0.726562 16.660156 -0.296875 15.453125 -0.015625 C 14.253906 0.253906 13.140625 0.390625 12.109375 0.390625 Z M 12.109375 0.390625 "/></g></g></g><g fill="#000000" fill-opacity="1"><g transform="translate(247.070884, 49.064615)"><g><path d="M 9.65625 0.390625 C 8.519531 0.390625 7.316406 0.269531 6.046875 0.03125 C 4.785156 -0.195312 3.65625 -0.601562 2.65625 -1.1875 C 2.226562 -1.445312 1.925781 -1.753906 1.75 -2.109375 C 1.582031 -2.472656 1.519531 -2.832031 1.5625 -3.1875 C 1.601562 -3.539062 1.734375 -3.847656 1.953125 -4.109375 C 2.179688 -4.378906 2.472656 -4.550781 2.828125 -4.625 C 3.179688 -4.707031 3.570312 -4.644531 4 -4.4375 C 5.050781 -3.9375 6.039062 -3.585938 6.96875 -3.390625 C 7.894531 -3.191406 8.804688 -3.09375 9.703125 -3.09375 C 10.960938 -3.09375 11.90625 -3.304688 12.53125 -3.734375 C 13.15625 -4.171875 13.46875 -4.75 13.46875 -5.46875 C 13.46875 -6.070312 13.257812 -6.535156 12.84375 -6.859375 C 12.4375 -7.191406 11.820312 -7.441406 11 -7.609375 L 7.046875 -8.359375 C 5.410156 -8.671875 4.160156 -9.269531 3.296875 -10.15625 C 2.441406 -11.039062 2.015625 -12.179688 2.015625 -13.578125 C 2.015625 -14.847656 2.363281 -15.941406 3.0625 -16.859375 C 3.769531 -17.785156 4.742188 -18.5 5.984375 -19 C 7.222656 -19.5 8.644531 -19.75 10.25 -19.75 C 11.414062 -19.75 12.503906 -19.625 13.515625 -19.375 C 14.535156 -19.125 15.519531 -18.738281 16.46875 -18.21875 C 16.863281 -18 17.132812 -17.71875 17.28125 -17.375 C 17.425781 -17.03125 17.457031 -16.679688 17.375 -16.328125 C 17.300781 -15.972656 17.144531 -15.65625 16.90625 -15.375 C 16.664062 -15.101562 16.367188 -14.929688 16.015625 -14.859375 C 15.660156 -14.796875 15.257812 -14.867188 14.8125 -15.078125 C 13.988281 -15.503906 13.203125 -15.804688 12.453125 -15.984375 C 11.703125 -16.171875 10.984375 -16.265625 10.296875 -16.265625 C 9.003906 -16.265625 8.046875 -16.039062 7.421875 -15.59375 C 6.804688 -15.144531 6.5 -14.550781 6.5 -13.8125 C 6.5 -13.257812 6.679688 -12.796875 7.046875 -12.421875 C 7.421875 -12.054688 7.988281 -11.8125 8.75 -11.6875 L 12.703125 -10.921875 C 14.421875 -10.609375 15.722656 -10.03125 16.609375 -9.1875 C 17.492188 -8.34375 17.9375 -7.207031 17.9375 -5.78125 C 17.9375 -3.851562 17.179688 -2.34375 15.671875 -1.25 C 14.171875 -0.15625 12.164062 0.390625 9.65625 0.390625 Z M 9.65625 0.390625 "/></g></g></g><g fill="#000000" fill-opacity="1"><g transform="translate(266.39376, 49.064615)"><g><path d="M 5.03125 0.28125 C 4.238281 0.28125 3.628906 0.046875 3.203125 -0.421875 C 2.785156 -0.898438 2.578125 -1.566406 2.578125 -2.421875 L 2.578125 -16.953125 C 2.578125 -17.816406 2.785156 -18.476562 3.203125 -18.9375 C 3.628906 -19.40625 4.238281 -19.640625 5.03125 -19.640625 C 5.820312 -19.640625 6.429688 -19.40625 6.859375 -18.9375 C 7.296875 -18.476562 7.515625 -17.816406 7.515625 -16.953125 L 7.515625 -2.421875 C 7.515625 -1.566406 7.300781 -0.898438 6.875 -0.421875 C 6.457031 0.046875 5.84375 0.28125 5.03125 0.28125 Z M 5.03125 -23.328125 C 4.101562 -23.328125 3.378906 -23.554688 2.859375 -24.015625 C 2.347656 -24.472656 2.09375 -25.113281 2.09375 -25.9375 C 2.09375 -26.78125 2.347656 -27.425781 2.859375 -27.875 C 3.378906 -28.320312 4.101562 -28.546875 5.03125 -28.546875 C 5.976562 -28.546875 6.703125 -28.320312 7.203125 -27.875 C 7.703125 -27.425781 7.953125 -26.78125 7.953125 -25.9375 C 7.953125 -25.113281 7.703125 -24.472656 7.203125 -24.015625 C 6.703125 -23.554688 5.976562 -23.328125 5.03125 -23.328125 Z M 5.03125 -23.328125 "/></g></g></g><g fill="#000000" fill-opacity="1"><g transform="translate(276.490755, 49.064615)"><g><path d="M 8.953125 0.390625 C 7.546875 0.390625 6.296875 0.117188 5.203125 -0.421875 C 4.109375 -0.960938 3.25 -1.691406 2.625 -2.609375 C 2.007812 -3.535156 1.703125 -4.578125 1.703125 -5.734375 C 1.703125 -7.160156 2.070312 -8.289062 2.8125 -9.125 C 3.550781 -9.957031 4.75 -10.554688 6.40625 -10.921875 C 8.070312 -11.296875 10.304688 -11.484375 13.109375 -11.484375 L 15.078125 -11.484375 L 15.078125 -8.625 L 13.140625 -8.625 C 11.503906 -8.625 10.195312 -8.546875 9.21875 -8.390625 C 8.25 -8.234375 7.554688 -7.960938 7.140625 -7.578125 C 6.734375 -7.203125 6.53125 -6.671875 6.53125 -5.984375 C 6.53125 -5.109375 6.832031 -4.394531 7.4375 -3.84375 C 8.050781 -3.289062 8.898438 -3.015625 9.984375 -3.015625 C 10.847656 -3.015625 11.613281 -3.21875 12.28125 -3.625 C 12.957031 -4.03125 13.492188 -4.585938 13.890625 -5.296875 C 14.285156 -6.015625 14.484375 -6.835938 14.484375 -7.765625 L 14.484375 -12.3125 C 14.484375 -13.632812 14.191406 -14.582031 13.609375 -15.15625 C 13.035156 -15.738281 12.0625 -16.03125 10.6875 -16.03125 C 9.925781 -16.03125 9.101562 -15.9375 8.21875 -15.75 C 7.332031 -15.570312 6.398438 -15.257812 5.421875 -14.8125 C 4.921875 -14.570312 4.476562 -14.503906 4.09375 -14.609375 C 3.71875 -14.710938 3.421875 -14.929688 3.203125 -15.265625 C 2.992188 -15.597656 2.890625 -15.960938 2.890625 -16.359375 C 2.890625 -16.753906 2.992188 -17.140625 3.203125 -17.515625 C 3.421875 -17.898438 3.78125 -18.1875 4.28125 -18.375 C 5.488281 -18.875 6.65625 -19.226562 7.78125 -19.4375 C 8.90625 -19.644531 9.925781 -19.75 10.84375 -19.75 C 12.75 -19.75 14.3125 -19.457031 15.53125 -18.875 C 16.757812 -18.300781 17.675781 -17.425781 18.28125 -16.25 C 18.894531 -15.070312 19.203125 -13.5625 19.203125 -11.71875 L 19.203125 -2.21875 C 19.203125 -1.394531 19.003906 -0.765625 18.609375 -0.328125 C 18.210938 0.0976562 17.644531 0.3125 16.90625 0.3125 C 16.164062 0.3125 15.59375 0.0976562 15.1875 -0.328125 C 14.78125 -0.765625 14.578125 -1.394531 14.578125 -2.21875 L 14.578125 -4.125 L 14.890625 -4.125 C 14.703125 -3.195312 14.335938 -2.394531 13.796875 -1.71875 C 13.253906 -1.050781 12.570312 -0.53125 11.75 -0.15625 C 10.9375 0.207031 10.003906 0.390625 8.953125 0.390625 Z M 8.953125 0.390625 "/></g></g></g></svg>