<svg xmlns="http://www.w3.org/2000/svg" xmlns:xlink="http://www.w3.org/1999/xlink" width="887" zoomAndPan="magnify" viewBox="0 0 665.25 404.99999" height="540" preserveAspectRatio="xMidYMid meet" version="1.0"><defs><g/><clipPath id="d49a301ec7"><path d="M 0 0.226562 L 128.855469 0.226562 L 128.855469 129.082031 L 0 129.082031 Z M 0 0.226562 " clip-rule="nonzero"/></clipPath><clipPath id="5b5a2a0f23"><path d="M 140.089844 0.226562 L 268.945312 0.226562 L 268.945312 129.082031 L 140.089844 129.082031 Z M 140.089844 0.226562 " clip-rule="nonzero"/></clipPath><clipPath id="eb805a5198"><path d="M 280.238281 0.226562 L 409.09375 0.226562 L 409.09375 129.082031 L 280.238281 129.082031 Z M 280.238281 0.226562 " clip-rule="nonzero"/></clipPath><clipPath id="b25551868d"><path d="M 140.089844 138.039062 L 268.945312 138.039062 L 268.945312 266.894531 L 140.089844 266.894531 Z M 140.089844 138.039062 " clip-rule="nonzero"/></clipPath><clipPath id="e5a7132a99"><path d="M 0.144531 275.582031 L 129 275.582031 L 129 404.4375 L 0.144531 404.4375 Z M 0.144531 275.582031 " clip-rule="nonzero"/></clipPath><clipPath id="d5cd8bf8cd"><path d="M 140.292969 275.582031 L 269.148438 275.582031 L 269.148438 404.4375 L 140.292969 404.4375 Z M 140.292969 275.582031 " clip-rule="nonzero"/></clipPath><clipPath id="796b965c70"><path d="M 280.238281 275.582031 L 409.09375 275.582031 L 409.09375 404.4375 L 280.238281 404.4375 Z M 280.238281 275.582031 " clip-rule="nonzero"/></clipPath></defs><g clip-path="url(#d49a301ec7)"><path stroke-linecap="butt" transform="matrix(0.749155, 0, 0, 0.749155, -0.000000000000010646, 0.228036)" fill="none" stroke-linejoin="miter" d="M 0.000000000000014211 -0.00196627 L 172.204348 -0.00196627 L 172.204348 172.202381 L 0.000000000000014211 172.202381 Z M 0.000000000000014211 -0.00196627 " stroke="#000000" stroke-width="12" stroke-opacity="1" stroke-miterlimit="4"/></g><g fill="#000000" fill-opacity="1"><g transform="translate(30.126629, 83.087993)"><g><path d="M 8.9375 0 C 7.945312 0 7.171875 -0.273438 6.609375 -0.828125 C 6.054688 -1.378906 5.78125 -2.132812 5.78125 -3.09375 C 5.78125 -4.082031 6.054688 -4.828125 6.609375 -5.328125 C 7.171875 -5.828125 7.945312 -6.078125 8.9375 -6.078125 L 15.34375 -6.078125 L 15.34375 -34.203125 L 18.90625 -34.203125 L 10.484375 -29.09375 C 9.753906 -28.675781 9.070312 -28.515625 8.4375 -28.609375 C 7.8125 -28.703125 7.28125 -28.96875 6.84375 -29.40625 C 6.40625 -29.851562 6.109375 -30.378906 5.953125 -30.984375 C 5.804688 -31.597656 5.851562 -32.21875 6.09375 -32.84375 C 6.34375 -33.476562 6.832031 -34.003906 7.5625 -34.421875 L 15.46875 -39.1875 C 16.226562 -39.644531 16.988281 -40.035156 17.75 -40.359375 C 18.519531 -40.679688 19.226562 -40.84375 19.875 -40.84375 C 20.675781 -40.84375 21.34375 -40.625 21.875 -40.1875 C 22.414062 -39.75 22.6875 -39.03125 22.6875 -38.03125 L 22.6875 -6.078125 L 28.53125 -6.078125 C 29.519531 -6.078125 30.289062 -5.828125 30.84375 -5.328125 C 31.394531 -4.828125 31.671875 -4.082031 31.671875 -3.09375 C 31.671875 -2.101562 31.394531 -1.335938 30.84375 -0.796875 C 30.289062 -0.265625 29.519531 0 28.53125 0 Z M 8.9375 0 "/></g></g></g><g fill="#000000" fill-opacity="1"><g transform="translate(64.498796, 83.087993)"><g><path d="M 18.671875 0.578125 C 15.347656 0.578125 12.507812 -0.210938 10.15625 -1.796875 C 7.8125 -3.390625 6.03125 -5.675781 4.8125 -8.65625 C 3.59375 -11.632812 2.984375 -15.238281 2.984375 -19.46875 C 2.984375 -22.90625 3.375 -25.953125 4.15625 -28.609375 C 4.9375 -31.265625 6.070312 -33.507812 7.5625 -35.34375 C 9.050781 -37.175781 10.875 -38.566406 13.03125 -39.515625 C 15.1875 -40.472656 17.617188 -40.953125 20.328125 -40.953125 C 22.015625 -40.953125 23.722656 -40.691406 25.453125 -40.171875 C 27.191406 -39.660156 28.828125 -38.890625 30.359375 -37.859375 C 30.972656 -37.484375 31.375 -36.988281 31.5625 -36.375 C 31.75 -35.757812 31.773438 -35.15625 31.640625 -34.5625 C 31.515625 -33.976562 31.25 -33.460938 30.84375 -33.015625 C 30.445312 -32.578125 29.941406 -32.3125 29.328125 -32.21875 C 28.710938 -32.125 28.046875 -32.285156 27.328125 -32.703125 C 26.023438 -33.472656 24.800781 -34.007812 23.65625 -34.3125 C 22.507812 -34.613281 21.363281 -34.765625 20.21875 -34.765625 C 18 -34.765625 16.125 -34.25 14.59375 -33.21875 C 13.070312 -32.1875 11.921875 -30.640625 11.140625 -28.578125 C 10.359375 -26.515625 9.96875 -23.9375 9.96875 -20.84375 L 9.96875 -16.546875 L 9.28125 -16.546875 C 9.582031 -18.492188 10.21875 -20.164062 11.1875 -21.5625 C 12.164062 -22.957031 13.414062 -24.023438 14.9375 -24.765625 C 16.46875 -25.515625 18.171875 -25.890625 20.046875 -25.890625 C 22.378906 -25.890625 24.441406 -25.332031 26.234375 -24.21875 C 28.023438 -23.113281 29.4375 -21.585938 30.46875 -19.640625 C 31.5 -17.691406 32.015625 -15.460938 32.015625 -12.953125 C 32.015625 -10.347656 31.453125 -8.023438 30.328125 -5.984375 C 29.203125 -3.941406 27.632812 -2.335938 25.625 -1.171875 C 23.625 -0.00390625 21.304688 0.578125 18.671875 0.578125 Z M 18.265625 -5.265625 C 19.640625 -5.265625 20.851562 -5.570312 21.90625 -6.1875 C 22.957031 -6.800781 23.769531 -7.671875 24.34375 -8.796875 C 24.914062 -9.921875 25.203125 -11.207031 25.203125 -12.65625 C 25.203125 -14.144531 24.914062 -15.441406 24.34375 -16.546875 C 23.769531 -17.660156 22.957031 -18.53125 21.90625 -19.15625 C 20.851562 -19.789062 19.640625 -20.109375 18.265625 -20.109375 C 16.890625 -20.109375 15.6875 -19.789062 14.65625 -19.15625 C 13.632812 -18.53125 12.828125 -17.660156 12.234375 -16.546875 C 11.640625 -15.441406 11.34375 -14.144531 11.34375 -12.65625 C 11.34375 -11.207031 11.640625 -9.921875 12.234375 -8.796875 C 12.828125 -7.671875 13.632812 -6.800781 14.65625 -6.1875 C 15.6875 -5.570312 16.890625 -5.265625 18.265625 -5.265625 Z M 18.265625 -5.265625 "/></g></g></g><g clip-path="url(#5b5a2a0f23)"><path stroke-linecap="butt" transform="matrix(0.749155, 0, 0, 0.749155, 140.090446, 0.228036)" fill="none" stroke-linejoin="miter" d="M -0.000804422 -0.00196627 L 172.203543 -0.00196627 L 172.203543 172.202381 L -0.000804422 172.202381 Z M -0.000804422 -0.00196627 " stroke="#000000" stroke-width="12" stroke-opacity="1" stroke-miterlimit="4"/></g><g fill="#000000" fill-opacity="1"><g transform="translate(191.432595, 83.087993)"><g><path d="M 12.78125 -11.6875 C 12.050781 -11.6875 11.484375 -11.925781 11.078125 -12.40625 C 10.679688 -12.882812 10.484375 -13.523438 10.484375 -14.328125 C 10.484375 -15.503906 10.625 -16.617188 10.90625 -17.671875 C 11.195312 -18.722656 11.664062 -19.78125 12.3125 -20.84375 C 12.96875 -21.914062 13.828125 -23.046875 14.890625 -24.234375 C 15.691406 -25.148438 16.332031 -25.957031 16.8125 -26.65625 C 17.289062 -27.363281 17.632812 -28.039062 17.84375 -28.6875 C 18.050781 -29.34375 18.15625 -30.015625 18.15625 -30.703125 C 18.15625 -31.960938 17.695312 -32.953125 16.78125 -33.671875 C 15.863281 -34.398438 14.566406 -34.765625 12.890625 -34.765625 C 11.359375 -34.765625 9.972656 -34.5625 8.734375 -34.15625 C 7.492188 -33.757812 6.242188 -33.203125 4.984375 -32.484375 C 4.140625 -31.984375 3.382812 -31.757812 2.71875 -31.8125 C 2.050781 -31.875 1.503906 -32.113281 1.078125 -32.53125 C 0.660156 -32.957031 0.394531 -33.472656 0.28125 -34.078125 C 0.164062 -34.691406 0.257812 -35.320312 0.5625 -35.96875 C 0.875 -36.625 1.429688 -37.21875 2.234375 -37.75 C 3.796875 -38.78125 5.585938 -39.570312 7.609375 -40.125 C 9.640625 -40.675781 11.550781 -40.953125 13.34375 -40.953125 C 15.75 -40.953125 17.859375 -40.550781 19.671875 -39.75 C 21.484375 -38.945312 22.894531 -37.835938 23.90625 -36.421875 C 24.925781 -35.015625 25.4375 -33.359375 25.4375 -31.453125 C 25.4375 -30.265625 25.265625 -29.144531 24.921875 -28.09375 C 24.578125 -27.039062 24.019531 -25.988281 23.25 -24.9375 C 22.488281 -23.894531 21.441406 -22.757812 20.109375 -21.53125 C 18.921875 -20.46875 17.972656 -19.492188 17.265625 -18.609375 C 16.554688 -17.734375 16.039062 -16.894531 15.71875 -16.09375 C 15.394531 -15.289062 15.175781 -14.429688 15.0625 -13.515625 C 15.019531 -12.984375 14.800781 -12.546875 14.40625 -12.203125 C 14.007812 -11.859375 13.46875 -11.6875 12.78125 -11.6875 Z M 12.65625 0.28125 C 11.363281 0.28125 10.320312 -0.117188 9.53125 -0.921875 C 8.75 -1.722656 8.359375 -2.753906 8.359375 -4.015625 C 8.359375 -5.234375 8.75 -6.234375 9.53125 -7.015625 C 10.320312 -7.796875 11.363281 -8.1875 12.65625 -8.1875 C 13.988281 -8.1875 15.023438 -7.796875 15.765625 -7.015625 C 16.515625 -6.234375 16.890625 -5.234375 16.890625 -4.015625 C 16.890625 -2.753906 16.515625 -1.722656 15.765625 -0.921875 C 15.023438 -0.117188 13.988281 0.28125 12.65625 0.28125 Z M 12.65625 0.28125 "/></g></g></g><g clip-path="url(#eb805a5198)"><path stroke-linecap="butt" transform="matrix(0.749155, 0, 0, 0.749155, 280.238102, 0.228036)" fill="none" stroke-linejoin="miter" d="M 0.000239437 -0.00196627 L 172.204587 -0.00196627 L 172.204587 172.202381 L 0.000239437 172.202381 Z M 0.000239437 -0.00196627 " stroke="#000000" stroke-width="12" stroke-opacity="1" stroke-miterlimit="4"/></g><g fill="#000000" fill-opacity="1"><g transform="translate(327.547848, 83.087993)"><g><path d="M 23.65625 0.453125 C 22.507812 0.453125 21.609375 0.140625 20.953125 -0.484375 C 20.304688 -1.117188 19.984375 -2.023438 19.984375 -3.203125 L 19.984375 -7.671875 L 5.84375 -7.671875 C 4.65625 -7.671875 3.707031 -7.921875 3 -8.421875 C 2.300781 -8.921875 1.953125 -9.703125 1.953125 -10.765625 C 1.953125 -11.378906 2.113281 -12.046875 2.4375 -12.765625 C 2.757812 -13.492188 3.34375 -14.453125 4.1875 -15.640625 L 19.875 -38.375 C 20.40625 -39.175781 20.992188 -39.785156 21.640625 -40.203125 C 22.296875 -40.628906 23.046875 -40.84375 23.890625 -40.84375 C 24.878906 -40.84375 25.695312 -40.546875 26.34375 -39.953125 C 27 -39.359375 27.328125 -38.429688 27.328125 -37.171875 L 27.328125 -13.75 L 30.125 -13.75 C 31.238281 -13.75 32.070312 -13.488281 32.625 -12.96875 C 33.175781 -12.457031 33.453125 -11.707031 33.453125 -10.71875 C 33.453125 -9.71875 33.175781 -8.957031 32.625 -8.4375 C 32.070312 -7.925781 31.238281 -7.671875 30.125 -7.671875 L 27.328125 -7.671875 L 27.328125 -3.203125 C 27.328125 -2.023438 27 -1.117188 26.34375 -0.484375 C 25.695312 0.140625 24.800781 0.453125 23.65625 0.453125 Z M 19.984375 -13.75 L 19.984375 -31.625 L 21.65625 -31.625 L 8.140625 -11.796875 L 8.140625 -13.75 Z M 19.984375 -13.75 "/></g></g></g><g clip-path="url(#b25551868d)"><path stroke-linecap="butt" transform="matrix(0.749155, 0, 0, 0.749155, 140.090446, 138.037902)" fill="none" stroke-linejoin="miter" d="M -0.000804422 0.00154916 L 172.203543 0.00154916 L 172.203543 172.200683 L -0.000804422 172.200683 Z M -0.000804422 0.00154916 " stroke="#000000" stroke-width="12" stroke-opacity="1" stroke-miterlimit="4"/></g><g fill="#000000" fill-opacity="1"><g transform="translate(187.398495, 220.897867)"><g><path d="M 5.328125 -19.640625 C 4.523438 -19.640625 3.894531 -19.859375 3.4375 -20.296875 C 2.976562 -20.742188 2.75 -21.367188 2.75 -22.171875 C 2.75 -22.972656 2.976562 -23.59375 3.4375 -24.03125 C 3.894531 -24.46875 4.523438 -24.6875 5.328125 -24.6875 L 29.046875 -24.6875 C 29.878906 -24.6875 30.515625 -24.46875 30.953125 -24.03125 C 31.398438 -23.59375 31.625 -22.972656 31.625 -22.171875 C 31.625 -21.367188 31.398438 -20.742188 30.953125 -20.296875 C 30.515625 -19.859375 29.878906 -19.640625 29.046875 -19.640625 Z M 5.328125 -8.25 C 4.523438 -8.25 3.894531 -8.46875 3.4375 -8.90625 C 2.976562 -9.34375 2.75 -9.960938 2.75 -10.765625 C 2.75 -11.566406 2.976562 -12.175781 3.4375 -12.59375 C 3.894531 -13.019531 4.523438 -13.234375 5.328125 -13.234375 L 29.046875 -13.234375 C 29.878906 -13.234375 30.515625 -13.019531 30.953125 -12.59375 C 31.398438 -12.175781 31.625 -11.566406 31.625 -10.765625 C 31.625 -9.929688 31.398438 -9.300781 30.953125 -8.875 C 30.515625 -8.457031 29.878906 -8.25 29.046875 -8.25 Z M 5.328125 -8.25 "/></g></g></g><g clip-path="url(#e5a7132a99)"><path stroke-linecap="butt" transform="matrix(0.749155, 0, 0, 0.749155, 0.14551, 275.583078)" fill="none" stroke-linejoin="miter" d="M -0.00130629 -0.00139719 L 172.203041 -0.00139719 L 172.203041 172.20295 L -0.00130629 172.20295 Z M -0.00130629 -0.00139719 " stroke="#000000" stroke-width="12" stroke-opacity="1" stroke-miterlimit="4"/></g><g fill="#000000" fill-opacity="1"><g transform="translate(47.455243, 358.443057)"><g><path d="M 18.671875 0.578125 C 15.347656 0.578125 12.507812 -0.210938 10.15625 -1.796875 C 7.8125 -3.390625 6.03125 -5.675781 4.8125 -8.65625 C 3.59375 -11.632812 2.984375 -15.238281 2.984375 -19.46875 C 2.984375 -22.90625 3.375 -25.953125 4.15625 -28.609375 C 4.9375 -31.265625 6.070312 -33.507812 7.5625 -35.34375 C 9.050781 -37.175781 10.875 -38.566406 13.03125 -39.515625 C 15.1875 -40.472656 17.617188 -40.953125 20.328125 -40.953125 C 22.015625 -40.953125 23.722656 -40.691406 25.453125 -40.171875 C 27.191406 -39.660156 28.828125 -38.890625 30.359375 -37.859375 C 30.972656 -37.484375 31.375 -36.988281 31.5625 -36.375 C 31.75 -35.757812 31.773438 -35.15625 31.640625 -34.5625 C 31.515625 -33.976562 31.25 -33.460938 30.84375 -33.015625 C 30.445312 -32.578125 29.941406 -32.3125 29.328125 -32.21875 C 28.710938 -32.125 28.046875 -32.285156 27.328125 -32.703125 C 26.023438 -33.472656 24.800781 -34.007812 23.65625 -34.3125 C 22.507812 -34.613281 21.363281 -34.765625 20.21875 -34.765625 C 18 -34.765625 16.125 -34.25 14.59375 -33.21875 C 13.070312 -32.1875 11.921875 -30.640625 11.140625 -28.578125 C 10.359375 -26.515625 9.96875 -23.9375 9.96875 -20.84375 L 9.96875 -16.546875 L 9.28125 -16.546875 C 9.582031 -18.492188 10.21875 -20.164062 11.1875 -21.5625 C 12.164062 -22.957031 13.414062 -24.023438 14.9375 -24.765625 C 16.46875 -25.515625 18.171875 -25.890625 20.046875 -25.890625 C 22.378906 -25.890625 24.441406 -25.332031 26.234375 -24.21875 C 28.023438 -23.113281 29.4375 -21.585938 30.46875 -19.640625 C 31.5 -17.691406 32.015625 -15.460938 32.015625 -12.953125 C 32.015625 -10.347656 31.453125 -8.023438 30.328125 -5.984375 C 29.203125 -3.941406 27.632812 -2.335938 25.625 -1.171875 C 23.625 -0.00390625 21.304688 0.578125 18.671875 0.578125 Z M 18.265625 -5.265625 C 19.640625 -5.265625 20.851562 -5.570312 21.90625 -6.1875 C 22.957031 -6.800781 23.769531 -7.671875 24.34375 -8.796875 C 24.914062 -9.921875 25.203125 -11.207031 25.203125 -12.65625 C 25.203125 -14.144531 24.914062 -15.441406 24.34375 -16.546875 C 23.769531 -17.660156 22.957031 -18.53125 21.90625 -19.15625 C 20.851562 -19.789062 19.640625 -20.109375 18.265625 -20.109375 C 16.890625 -20.109375 15.6875 -19.789062 14.65625 -19.15625 C 13.632812 -18.53125 12.828125 -17.660156 12.234375 -16.546875 C 11.640625 -15.441406 11.34375 -14.144531 11.34375 -12.65625 C 11.34375 -11.207031 11.640625 -9.921875 12.234375 -8.796875 C 12.828125 -7.671875 13.632812 -6.800781 14.65625 -6.1875 C 15.6875 -5.570312 16.890625 -5.265625 18.265625 -5.265625 Z M 18.265625 -5.265625 "/></g></g></g><g clip-path="url(#d5cd8bf8cd)"><path stroke-linecap="butt" transform="matrix(0.749155, 0, 0, 0.749155, 140.293171, 275.583078)" fill="none" stroke-linejoin="miter" d="M -0.000270541 -0.00139719 L 172.204077 -0.00139719 L 172.204077 172.20295 L -0.000270541 172.20295 Z M -0.000270541 -0.00139719 " stroke="#000000" stroke-width="12" stroke-opacity="1" stroke-miterlimit="4"/></g><g fill="#000000" fill-opacity="1"><g transform="translate(191.63532, 358.443057)"><g><path d="M 12.78125 -11.6875 C 12.050781 -11.6875 11.484375 -11.925781 11.078125 -12.40625 C 10.679688 -12.882812 10.484375 -13.523438 10.484375 -14.328125 C 10.484375 -15.503906 10.625 -16.617188 10.90625 -17.671875 C 11.195312 -18.722656 11.664062 -19.78125 12.3125 -20.84375 C 12.96875 -21.914062 13.828125 -23.046875 14.890625 -24.234375 C 15.691406 -25.148438 16.332031 -25.957031 16.8125 -26.65625 C 17.289062 -27.363281 17.632812 -28.039062 17.84375 -28.6875 C 18.050781 -29.34375 18.15625 -30.015625 18.15625 -30.703125 C 18.15625 -31.960938 17.695312 -32.953125 16.78125 -33.671875 C 15.863281 -34.398438 14.566406 -34.765625 12.890625 -34.765625 C 11.359375 -34.765625 9.972656 -34.5625 8.734375 -34.15625 C 7.492188 -33.757812 6.242188 -33.203125 4.984375 -32.484375 C 4.140625 -31.984375 3.382812 -31.757812 2.71875 -31.8125 C 2.050781 -31.875 1.503906 -32.113281 1.078125 -32.53125 C 0.660156 -32.957031 0.394531 -33.472656 0.28125 -34.078125 C 0.164062 -34.691406 0.257812 -35.320312 0.5625 -35.96875 C 0.875 -36.625 1.429688 -37.21875 2.234375 -37.75 C 3.796875 -38.78125 5.585938 -39.570312 7.609375 -40.125 C 9.640625 -40.675781 11.550781 -40.953125 13.34375 -40.953125 C 15.75 -40.953125 17.859375 -40.550781 19.671875 -39.75 C 21.484375 -38.945312 22.894531 -37.835938 23.90625 -36.421875 C 24.925781 -35.015625 25.4375 -33.359375 25.4375 -31.453125 C 25.4375 -30.265625 25.265625 -29.144531 24.921875 -28.09375 C 24.578125 -27.039062 24.019531 -25.988281 23.25 -24.9375 C 22.488281 -23.894531 21.441406 -22.757812 20.109375 -21.53125 C 18.921875 -20.46875 17.972656 -19.492188 17.265625 -18.609375 C 16.554688 -17.734375 16.039062 -16.894531 15.71875 -16.09375 C 15.394531 -15.289062 15.175781 -14.429688 15.0625 -13.515625 C 15.019531 -12.984375 14.800781 -12.546875 14.40625 -12.203125 C 14.007812 -11.859375 13.46875 -11.6875 12.78125 -11.6875 Z M 12.65625 0.28125 C 11.363281 0.28125 10.320312 -0.117188 9.53125 -0.921875 C 8.75 -1.722656 8.359375 -2.753906 8.359375 -4.015625 C 8.359375 -5.234375 8.75 -6.234375 9.53125 -7.015625 C 10.320312 -7.796875 11.363281 -8.1875 12.65625 -8.1875 C 13.988281 -8.1875 15.023438 -7.796875 15.765625 -7.015625 C 16.515625 -6.234375 16.890625 -5.234375 16.890625 -4.015625 C 16.890625 -2.753906 16.515625 -1.722656 15.765625 -0.921875 C 15.023438 -0.117188 13.988281 0.28125 12.65625 0.28125 Z M 12.65625 0.28125 "/></g></g></g><g clip-path="url(#796b965c70)"><path stroke-linecap="butt" transform="matrix(0.749155, 0, 0, 0.749155, 280.238102, 275.583078)" fill="none" stroke-linejoin="miter" d="M 0.000239437 -0.00139719 L 172.204587 -0.00139719 L 172.204587 172.20295 L 0.000239437 172.20295 Z M 0.000239437 -0.00139719 " stroke="#000000" stroke-width="12" stroke-opacity="1" stroke-miterlimit="4"/></g><g fill="#000000" fill-opacity="1"><g transform="translate(327.547848, 358.443057)"><g><path d="M 7.625 0 C 6.394531 0 5.503906 -0.273438 4.953125 -0.828125 C 4.398438 -1.378906 4.125 -2.191406 4.125 -3.265625 C 4.125 -3.910156 4.296875 -4.539062 4.640625 -5.15625 C 4.984375 -5.769531 5.476562 -6.421875 6.125 -7.109375 L 17.640625 -19.359375 C 19.398438 -21.191406 20.660156 -22.863281 21.421875 -24.375 C 22.179688 -25.882812 22.5625 -27.398438 22.5625 -28.921875 C 22.5625 -30.835938 21.957031 -32.289062 20.75 -33.28125 C 19.550781 -34.269531 17.804688 -34.765625 15.515625 -34.765625 C 14.222656 -34.765625 12.925781 -34.582031 11.625 -34.21875 C 10.332031 -33.863281 9.015625 -33.242188 7.671875 -32.359375 C 6.984375 -31.898438 6.34375 -31.707031 5.75 -31.78125 C 5.164062 -31.863281 4.648438 -32.113281 4.203125 -32.53125 C 3.765625 -32.957031 3.46875 -33.472656 3.3125 -34.078125 C 3.164062 -34.691406 3.195312 -35.3125 3.40625 -35.9375 C 3.613281 -36.570312 4.0625 -37.117188 4.75 -37.578125 C 6.394531 -38.679688 8.238281 -39.519531 10.28125 -40.09375 C 12.320312 -40.664062 14.375 -40.953125 16.4375 -40.953125 C 19.34375 -40.953125 21.785156 -40.515625 23.765625 -39.640625 C 25.753906 -38.765625 27.265625 -37.484375 28.296875 -35.796875 C 29.328125 -34.117188 29.84375 -32.078125 29.84375 -29.671875 C 29.84375 -28.066406 29.582031 -26.5 29.0625 -24.96875 C 28.550781 -23.445312 27.769531 -21.898438 26.71875 -20.328125 C 25.664062 -18.765625 24.300781 -17.101562 22.625 -15.34375 L 11.859375 -4.125 L 11.859375 -6.078125 L 28.703125 -6.078125 C 29.734375 -6.078125 30.515625 -5.828125 31.046875 -5.328125 C 31.578125 -4.828125 31.84375 -4.082031 31.84375 -3.09375 C 31.84375 -2.101562 31.578125 -1.335938 31.046875 -0.796875 C 30.515625 -0.265625 29.734375 0 28.703125 0 Z M 7.625 0 "/></g></g></g><g fill="#000000" fill-opacity="1"><g transform="translate(409.247159, 197.914058)"><g><path d="M 4.25 0.234375 C 3.625 0.234375 3.144531 0.0625 2.8125 -0.28125 C 2.476562 -0.632812 2.3125 -1.125 2.3125 -1.75 L 2.3125 -19.484375 C 2.3125 -20.128906 2.476562 -20.625 2.8125 -20.96875 C 3.144531 -21.3125 3.625 -21.484375 4.25 -21.484375 C 4.875 -21.484375 5.347656 -21.3125 5.671875 -20.96875 C 6.003906 -20.625 6.171875 -20.128906 6.171875 -19.484375 L 6.171875 -1.75 C 6.171875 -1.125 6.007812 -0.632812 5.6875 -0.28125 C 5.375 0.0625 4.894531 0.234375 4.25 0.234375 Z M 4.25 0.234375 "/></g></g></g><g fill="#000000" fill-opacity="1"><g transform="translate(417.743859, 197.914058)"><g><path d="M 7.34375 0.296875 C 6.488281 0.296875 5.578125 0.207031 4.609375 0.03125 C 3.640625 -0.144531 2.773438 -0.457031 2.015625 -0.90625 C 1.691406 -1.101562 1.460938 -1.335938 1.328125 -1.609375 C 1.203125 -1.878906 1.15625 -2.148438 1.1875 -2.421875 C 1.21875 -2.691406 1.316406 -2.925781 1.484375 -3.125 C 1.660156 -3.332031 1.882812 -3.460938 2.15625 -3.515625 C 2.425781 -3.578125 2.722656 -3.53125 3.046875 -3.375 C 3.847656 -2.988281 4.597656 -2.71875 5.296875 -2.5625 C 6.003906 -2.414062 6.695312 -2.34375 7.375 -2.34375 C 8.34375 -2.34375 9.0625 -2.507812 9.53125 -2.84375 C 10.007812 -3.175781 10.25 -3.613281 10.25 -4.15625 C 10.25 -4.613281 10.09375 -4.96875 9.78125 -5.21875 C 9.46875 -5.476562 9 -5.664062 8.375 -5.78125 L 5.359375 -6.359375 C 4.117188 -6.597656 3.171875 -7.050781 2.515625 -7.71875 C 1.859375 -8.394531 1.53125 -9.265625 1.53125 -10.328125 C 1.53125 -11.296875 1.796875 -12.128906 2.328125 -12.828125 C 2.867188 -13.535156 3.609375 -14.078125 4.546875 -14.453125 C 5.492188 -14.835938 6.578125 -15.03125 7.796875 -15.03125 C 8.679688 -15.03125 9.507812 -14.929688 10.28125 -14.734375 C 11.0625 -14.546875 11.8125 -14.253906 12.53125 -13.859375 C 12.832031 -13.691406 13.035156 -13.476562 13.140625 -13.21875 C 13.253906 -12.957031 13.28125 -12.691406 13.21875 -12.421875 C 13.164062 -12.148438 13.046875 -11.910156 12.859375 -11.703125 C 12.679688 -11.492188 12.457031 -11.363281 12.1875 -11.3125 C 11.914062 -11.257812 11.609375 -11.316406 11.265625 -11.484375 C 10.640625 -11.796875 10.039062 -12.019531 9.46875 -12.15625 C 8.894531 -12.300781 8.347656 -12.375 7.828125 -12.375 C 6.847656 -12.375 6.117188 -12.203125 5.640625 -11.859375 C 5.171875 -11.523438 4.9375 -11.078125 4.9375 -10.515625 C 4.9375 -10.085938 5.078125 -9.734375 5.359375 -9.453125 C 5.640625 -9.171875 6.070312 -8.984375 6.65625 -8.890625 L 9.671875 -8.3125 C 10.972656 -8.070312 11.957031 -7.628906 12.625 -6.984375 C 13.300781 -6.347656 13.640625 -5.484375 13.640625 -4.390625 C 13.640625 -2.929688 13.066406 -1.785156 11.921875 -0.953125 C 10.785156 -0.117188 9.257812 0.296875 7.34375 0.296875 Z M 7.34375 0.296875 "/></g></g></g><g fill="#000000" fill-opacity="1"><g transform="translate(432.44737, 197.914058)"><g><path d="M 3.828125 0.203125 C 3.222656 0.203125 2.757812 0.0234375 2.4375 -0.328125 C 2.113281 -0.691406 1.953125 -1.195312 1.953125 -1.84375 L 1.953125 -12.890625 C 1.953125 -13.554688 2.113281 -14.0625 2.4375 -14.40625 C 2.757812 -14.757812 3.222656 -14.9375 3.828125 -14.9375 C 4.429688 -14.9375 4.894531 -14.757812 5.21875 -14.40625 C 5.550781 -14.0625 5.71875 -13.554688 5.71875 -12.890625 L 5.71875 -1.84375 C 5.71875 -1.195312 5.554688 -0.691406 5.234375 -0.328125 C 4.921875 0.0234375 4.453125 0.203125 3.828125 0.203125 Z M 3.828125 -17.75 C 3.117188 -17.75 2.566406 -17.921875 2.171875 -18.265625 C 1.785156 -18.617188 1.59375 -19.109375 1.59375 -19.734375 C 1.59375 -20.378906 1.785156 -20.867188 2.171875 -21.203125 C 2.566406 -21.546875 3.117188 -21.71875 3.828125 -21.71875 C 4.546875 -21.71875 5.097656 -21.546875 5.484375 -21.203125 C 5.867188 -20.867188 6.0625 -20.378906 6.0625 -19.734375 C 6.0625 -19.109375 5.867188 -18.617188 5.484375 -18.265625 C 5.097656 -17.921875 4.546875 -17.75 3.828125 -17.75 Z M 3.828125 -17.75 "/></g></g></g><g fill="#000000" fill-opacity="1"><g transform="translate(440.130557, 197.914058)"><g/></g></g><g fill="#000000" fill-opacity="1"><g transform="translate(448.295831, 197.914058)"><g><path d="M 8.703125 0.296875 C 7.398438 0.296875 6.3125 0.078125 5.4375 -0.359375 C 4.5625 -0.804688 3.910156 -1.453125 3.484375 -2.296875 C 3.066406 -3.148438 2.859375 -4.210938 2.859375 -5.484375 L 2.859375 -11.90625 L 1.296875 -11.90625 C 0.816406 -11.90625 0.445312 -12.03125 0.1875 -12.28125 C -0.0703125 -12.53125 -0.203125 -12.875 -0.203125 -13.3125 C -0.203125 -13.78125 -0.0703125 -14.132812 0.1875 -14.375 C 0.445312 -14.613281 0.816406 -14.734375 1.296875 -14.734375 L 2.859375 -14.734375 L 2.859375 -17.46875 C 2.859375 -18.09375 3.023438 -18.566406 3.359375 -18.890625 C 3.691406 -19.210938 4.160156 -19.375 4.765625 -19.375 C 5.359375 -19.375 5.816406 -19.210938 6.140625 -18.890625 C 6.460938 -18.566406 6.625 -18.09375 6.625 -17.46875 L 6.625 -14.734375 L 9.828125 -14.734375 C 10.304688 -14.734375 10.675781 -14.613281 10.9375 -14.375 C 11.195312 -14.132812 11.328125 -13.78125 11.328125 -13.3125 C 11.328125 -12.875 11.195312 -12.53125 10.9375 -12.28125 C 10.675781 -12.03125 10.304688 -11.90625 9.828125 -11.90625 L 6.625 -11.90625 L 6.625 -5.6875 C 6.625 -4.726562 6.832031 -4.003906 7.25 -3.515625 C 7.675781 -3.035156 8.363281 -2.796875 9.3125 -2.796875 C 9.65625 -2.796875 9.957031 -2.828125 10.21875 -2.890625 C 10.476562 -2.953125 10.707031 -2.992188 10.90625 -3.015625 C 11.144531 -3.035156 11.34375 -2.957031 11.5 -2.78125 C 11.664062 -2.613281 11.75 -2.269531 11.75 -1.75 C 11.75 -1.34375 11.679688 -0.984375 11.546875 -0.671875 C 11.421875 -0.359375 11.1875 -0.144531 10.84375 -0.03125 C 10.582031 0.0507812 10.238281 0.125 9.8125 0.1875 C 9.394531 0.257812 9.023438 0.296875 8.703125 0.296875 Z M 8.703125 0.296875 "/></g></g></g><g fill="#000000" fill-opacity="1"><g transform="translate(459.86581, 197.914058)"><g><path d="M 6.8125 0.296875 C 5.75 0.296875 4.800781 0.09375 3.96875 -0.3125 C 3.132812 -0.726562 2.476562 -1.285156 2 -1.984375 C 1.53125 -2.691406 1.296875 -3.488281 1.296875 -4.375 C 1.296875 -5.457031 1.578125 -6.3125 2.140625 -6.9375 C 2.703125 -7.570312 3.613281 -8.03125 4.875 -8.3125 C 6.144531 -8.59375 7.84375 -8.734375 9.96875 -8.734375 L 11.484375 -8.734375 L 11.484375 -6.5625 L 10 -6.5625 C 8.757812 -6.5625 7.765625 -6.5 7.015625 -6.375 C 6.273438 -6.257812 5.75 -6.054688 5.4375 -5.765625 C 5.125 -5.472656 4.96875 -5.066406 4.96875 -4.546875 C 4.96875 -3.890625 5.195312 -3.347656 5.65625 -2.921875 C 6.125 -2.503906 6.769531 -2.296875 7.59375 -2.296875 C 8.25 -2.296875 8.832031 -2.445312 9.34375 -2.75 C 9.863281 -3.0625 10.273438 -3.488281 10.578125 -4.03125 C 10.878906 -4.570312 11.03125 -5.195312 11.03125 -5.90625 L 11.03125 -9.375 C 11.03125 -10.375 10.804688 -11.09375 10.359375 -11.53125 C 9.921875 -11.976562 9.179688 -12.203125 8.140625 -12.203125 C 7.554688 -12.203125 6.925781 -12.128906 6.25 -11.984375 C 5.570312 -11.847656 4.863281 -11.609375 4.125 -11.265625 C 3.75 -11.085938 3.414062 -11.035156 3.125 -11.109375 C 2.832031 -11.191406 2.601562 -11.359375 2.4375 -11.609375 C 2.28125 -11.859375 2.203125 -12.132812 2.203125 -12.4375 C 2.203125 -12.738281 2.28125 -13.035156 2.4375 -13.328125 C 2.601562 -13.617188 2.875 -13.835938 3.25 -13.984375 C 4.175781 -14.359375 5.066406 -14.625 5.921875 -14.78125 C 6.773438 -14.945312 7.550781 -15.03125 8.25 -15.03125 C 9.695312 -15.03125 10.882812 -14.804688 11.8125 -14.359375 C 12.75 -13.921875 13.445312 -13.253906 13.90625 -12.359375 C 14.375 -11.472656 14.609375 -10.328125 14.609375 -8.921875 L 14.609375 -1.6875 C 14.609375 -1.0625 14.457031 -0.582031 14.15625 -0.25 C 13.851562 0.0703125 13.421875 0.234375 12.859375 0.234375 C 12.296875 0.234375 11.859375 0.0703125 11.546875 -0.25 C 11.242188 -0.582031 11.09375 -1.0625 11.09375 -1.6875 L 11.09375 -3.140625 L 11.328125 -3.140625 C 11.179688 -2.429688 10.898438 -1.820312 10.484375 -1.3125 C 10.078125 -0.800781 9.5625 -0.40625 8.9375 -0.125 C 8.320312 0.15625 7.613281 0.296875 6.8125 0.296875 Z M 6.8125 0.296875 "/></g></g></g><g fill="#000000" fill-opacity="1"><g transform="translate(476.347, 197.914058)"><g><path d="M 3.828125 0.234375 C 3.222656 0.234375 2.757812 0.0703125 2.4375 -0.25 C 2.113281 -0.582031 1.953125 -1.0625 1.953125 -1.6875 L 1.953125 -13.078125 C 1.953125 -13.703125 2.113281 -14.171875 2.4375 -14.484375 C 2.757812 -14.804688 3.210938 -14.96875 3.796875 -14.96875 C 4.378906 -14.96875 4.832031 -14.804688 5.15625 -14.484375 C 5.476562 -14.171875 5.640625 -13.703125 5.640625 -13.078125 L 5.640625 -11.03125 L 5.296875 -11.78125 C 5.742188 -12.84375 6.429688 -13.648438 7.359375 -14.203125 C 8.296875 -14.753906 9.359375 -15.03125 10.546875 -15.03125 C 11.734375 -15.03125 12.707031 -14.804688 13.46875 -14.359375 C 14.226562 -13.921875 14.796875 -13.253906 15.171875 -12.359375 C 15.554688 -11.472656 15.75 -10.347656 15.75 -8.984375 L 15.75 -1.6875 C 15.75 -1.0625 15.585938 -0.582031 15.265625 -0.25 C 14.953125 0.0703125 14.492188 0.234375 13.890625 0.234375 C 13.285156 0.234375 12.816406 0.0703125 12.484375 -0.25 C 12.148438 -0.582031 11.984375 -1.0625 11.984375 -1.6875 L 11.984375 -8.796875 C 11.984375 -9.941406 11.765625 -10.773438 11.328125 -11.296875 C 10.898438 -11.816406 10.238281 -12.078125 9.34375 -12.078125 C 8.238281 -12.078125 7.359375 -11.726562 6.703125 -11.03125 C 6.046875 -10.34375 5.71875 -9.425781 5.71875 -8.28125 L 5.71875 -1.6875 C 5.71875 -0.40625 5.085938 0.234375 3.828125 0.234375 Z M 3.828125 0.234375 "/></g></g></g><g fill="#000000" fill-opacity="1"><g transform="translate(493.973139, 197.914058)"><g><path d="M 7.625 0.296875 C 6.332031 0.296875 5.195312 -0.0078125 4.21875 -0.625 C 3.25 -1.25 2.492188 -2.140625 1.953125 -3.296875 C 1.410156 -4.453125 1.140625 -5.8125 1.140625 -7.375 C 1.140625 -8.96875 1.410156 -10.332031 1.953125 -11.46875 C 2.492188 -12.601562 3.25 -13.476562 4.21875 -14.09375 C 5.195312 -14.71875 6.332031 -15.03125 7.625 -15.03125 C 8.84375 -15.03125 9.910156 -14.726562 10.828125 -14.125 C 11.742188 -13.519531 12.363281 -12.726562 12.6875 -11.75 L 12.34375 -11.75 L 12.34375 -19.578125 C 12.34375 -20.203125 12.503906 -20.675781 12.828125 -21 C 13.148438 -21.320312 13.613281 -21.484375 14.21875 -21.484375 C 14.820312 -21.484375 15.285156 -21.320312 15.609375 -21 C 15.941406 -20.675781 16.109375 -20.203125 16.109375 -19.578125 L 16.109375 -1.6875 C 16.109375 -1.0625 15.945312 -0.582031 15.625 -0.25 C 15.3125 0.0703125 14.851562 0.234375 14.25 0.234375 C 13.644531 0.234375 13.179688 0.0703125 12.859375 -0.25 C 12.535156 -0.582031 12.375 -1.0625 12.375 -1.6875 L 12.375 -4.03125 L 12.71875 -3.140625 C 12.414062 -2.085938 11.800781 -1.25 10.875 -0.625 C 9.945312 -0.0078125 8.863281 0.296875 7.625 0.296875 Z M 8.671875 -2.5625 C 9.421875 -2.5625 10.078125 -2.738281 10.640625 -3.09375 C 11.203125 -3.457031 11.632812 -3.992188 11.9375 -4.703125 C 12.25 -5.421875 12.40625 -6.3125 12.40625 -7.375 C 12.40625 -8.988281 12.0625 -10.191406 11.375 -10.984375 C 10.695312 -11.773438 9.796875 -12.171875 8.671875 -12.171875 C 7.929688 -12.171875 7.28125 -11.992188 6.71875 -11.640625 C 6.15625 -11.285156 5.71875 -10.753906 5.40625 -10.046875 C 5.09375 -9.335938 4.9375 -8.445312 4.9375 -7.375 C 4.9375 -5.789062 5.273438 -4.59375 5.953125 -3.78125 C 6.640625 -2.96875 7.546875 -2.5625 8.671875 -2.5625 Z M 8.671875 -2.5625 "/></g></g></g><g fill="#000000" fill-opacity="1"><g transform="translate(512.051233, 197.914058)"><g><path d="M 6.8125 0.296875 C 5.75 0.296875 4.800781 0.09375 3.96875 -0.3125 C 3.132812 -0.726562 2.476562 -1.285156 2 -1.984375 C 1.53125 -2.691406 1.296875 -3.488281 1.296875 -4.375 C 1.296875 -5.457031 1.578125 -6.3125 2.140625 -6.9375 C 2.703125 -7.570312 3.613281 -8.03125 4.875 -8.3125 C 6.144531 -8.59375 7.84375 -8.734375 9.96875 -8.734375 L 11.484375 -8.734375 L 11.484375 -6.5625 L 10 -6.5625 C 8.757812 -6.5625 7.765625 -6.5 7.015625 -6.375 C 6.273438 -6.257812 5.75 -6.054688 5.4375 -5.765625 C 5.125 -5.472656 4.96875 -5.066406 4.96875 -4.546875 C 4.96875 -3.890625 5.195312 -3.347656 5.65625 -2.921875 C 6.125 -2.503906 6.769531 -2.296875 7.59375 -2.296875 C 8.25 -2.296875 8.832031 -2.445312 9.34375 -2.75 C 9.863281 -3.0625 10.273438 -3.488281 10.578125 -4.03125 C 10.878906 -4.570312 11.03125 -5.195312 11.03125 -5.90625 L 11.03125 -9.375 C 11.03125 -10.375 10.804688 -11.09375 10.359375 -11.53125 C 9.921875 -11.976562 9.179688 -12.203125 8.140625 -12.203125 C 7.554688 -12.203125 6.925781 -12.128906 6.25 -11.984375 C 5.570312 -11.847656 4.863281 -11.609375 4.125 -11.265625 C 3.75 -11.085938 3.414062 -11.035156 3.125 -11.109375 C 2.832031 -11.191406 2.601562 -11.359375 2.4375 -11.609375 C 2.28125 -11.859375 2.203125 -12.132812 2.203125 -12.4375 C 2.203125 -12.738281 2.28125 -13.035156 2.4375 -13.328125 C 2.601562 -13.617188 2.875 -13.835938 3.25 -13.984375 C 4.175781 -14.359375 5.066406 -14.625 5.921875 -14.78125 C 6.773438 -14.945312 7.550781 -15.03125 8.25 -15.03125 C 9.695312 -15.03125 10.882812 -14.804688 11.8125 -14.359375 C 12.75 -13.921875 13.445312 -13.253906 13.90625 -12.359375 C 14.375 -11.472656 14.609375 -10.328125 14.609375 -8.921875 L 14.609375 -1.6875 C 14.609375 -1.0625 14.457031 -0.582031 14.15625 -0.25 C 13.851562 0.0703125 13.421875 0.234375 12.859375 0.234375 C 12.296875 0.234375 11.859375 0.0703125 11.546875 -0.25 C 11.242188 -0.582031 11.09375 -1.0625 11.09375 -1.6875 L 11.09375 -3.140625 L 11.328125 -3.140625 C 11.179688 -2.429688 10.898438 -1.820312 10.484375 -1.3125 C 10.078125 -0.800781 9.5625 -0.40625 8.9375 -0.125 C 8.320312 0.15625 7.613281 0.296875 6.8125 0.296875 Z M 6.8125 0.296875 "/></g></g></g><g fill="#000000" fill-opacity="1"><g transform="translate(528.532423, 197.914058)"><g/></g></g><g fill="#000000" fill-opacity="1"><g transform="translate(536.697698, 197.914058)"><g><path d="M 8.703125 0.296875 C 7.398438 0.296875 6.3125 0.078125 5.4375 -0.359375 C 4.5625 -0.804688 3.910156 -1.453125 3.484375 -2.296875 C 3.066406 -3.148438 2.859375 -4.210938 2.859375 -5.484375 L 2.859375 -11.90625 L 1.296875 -11.90625 C 0.816406 -11.90625 0.445312 -12.03125 0.1875 -12.28125 C -0.0703125 -12.53125 -0.203125 -12.875 -0.203125 -13.3125 C -0.203125 -13.78125 -0.0703125 -14.132812 0.1875 -14.375 C 0.445312 -14.613281 0.816406 -14.734375 1.296875 -14.734375 L 2.859375 -14.734375 L 2.859375 -17.46875 C 2.859375 -18.09375 3.023438 -18.566406 3.359375 -18.890625 C 3.691406 -19.210938 4.160156 -19.375 4.765625 -19.375 C 5.359375 -19.375 5.816406 -19.210938 6.140625 -18.890625 C 6.460938 -18.566406 6.625 -18.09375 6.625 -17.46875 L 6.625 -14.734375 L 9.828125 -14.734375 C 10.304688 -14.734375 10.675781 -14.613281 10.9375 -14.375 C 11.195312 -14.132812 11.328125 -13.78125 11.328125 -13.3125 C 11.328125 -12.875 11.195312 -12.53125 10.9375 -12.28125 C 10.675781 -12.03125 10.304688 -11.90625 9.828125 -11.90625 L 6.625 -11.90625 L 6.625 -5.6875 C 6.625 -4.726562 6.832031 -4.003906 7.25 -3.515625 C 7.675781 -3.035156 8.363281 -2.796875 9.3125 -2.796875 C 9.65625 -2.796875 9.957031 -2.828125 10.21875 -2.890625 C 10.476562 -2.953125 10.707031 -2.992188 10.90625 -3.015625 C 11.144531 -3.035156 11.34375 -2.957031 11.5 -2.78125 C 11.664062 -2.613281 11.75 -2.269531 11.75 -1.75 C 11.75 -1.34375 11.679688 -0.984375 11.546875 -0.671875 C 11.421875 -0.359375 11.1875 -0.144531 10.84375 -0.03125 C 10.582031 0.0507812 10.238281 0.125 9.8125 0.1875 C 9.394531 0.257812 9.023438 0.296875 8.703125 0.296875 Z M 8.703125 0.296875 "/></g></g></g><g fill="#000000" fill-opacity="1"><g transform="translate(548.267676, 197.914058)"><g><path d="M 6.8125 0.296875 C 5.75 0.296875 4.800781 0.09375 3.96875 -0.3125 C 3.132812 -0.726562 2.476562 -1.285156 2 -1.984375 C 1.53125 -2.691406 1.296875 -3.488281 1.296875 -4.375 C 1.296875 -5.457031 1.578125 -6.3125 2.140625 -6.9375 C 2.703125 -7.570312 3.613281 -8.03125 4.875 -8.3125 C 6.144531 -8.59375 7.84375 -8.734375 9.96875 -8.734375 L 11.484375 -8.734375 L 11.484375 -6.5625 L 10 -6.5625 C 8.757812 -6.5625 7.765625 -6.5 7.015625 -6.375 C 6.273438 -6.257812 5.75 -6.054688 5.4375 -5.765625 C 5.125 -5.472656 4.96875 -5.066406 4.96875 -4.546875 C 4.96875 -3.890625 5.195312 -3.347656 5.65625 -2.921875 C 6.125 -2.503906 6.769531 -2.296875 7.59375 -2.296875 C 8.25 -2.296875 8.832031 -2.445312 9.34375 -2.75 C 9.863281 -3.0625 10.273438 -3.488281 10.578125 -4.03125 C 10.878906 -4.570312 11.03125 -5.195312 11.03125 -5.90625 L 11.03125 -9.375 C 11.03125 -10.375 10.804688 -11.09375 10.359375 -11.53125 C 9.921875 -11.976562 9.179688 -12.203125 8.140625 -12.203125 C 7.554688 -12.203125 6.925781 -12.128906 6.25 -11.984375 C 5.570312 -11.847656 4.863281 -11.609375 4.125 -11.265625 C 3.75 -11.085938 3.414062 -11.035156 3.125 -11.109375 C 2.832031 -11.191406 2.601562 -11.359375 2.4375 -11.609375 C 2.28125 -11.859375 2.203125 -12.132812 2.203125 -12.4375 C 2.203125 -12.738281 2.28125 -13.035156 2.4375 -13.328125 C 2.601562 -13.617188 2.875 -13.835938 3.25 -13.984375 C 4.175781 -14.359375 5.066406 -14.625 5.921875 -14.78125 C 6.773438 -14.945312 7.550781 -15.03125 8.25 -15.03125 C 9.695312 -15.03125 10.882812 -14.804688 11.8125 -14.359375 C 12.75 -13.921875 13.445312 -13.253906 13.90625 -12.359375 C 14.375 -11.472656 14.609375 -10.328125 14.609375 -8.921875 L 14.609375 -1.6875 C 14.609375 -1.0625 14.457031 -0.582031 14.15625 -0.25 C 13.851562 0.0703125 13.421875 0.234375 12.859375 0.234375 C 12.296875 0.234375 11.859375 0.0703125 11.546875 -0.25 C 11.242188 -0.582031 11.09375 -1.0625 11.09375 -1.6875 L 11.09375 -3.140625 L 11.328125 -3.140625 C 11.179688 -2.429688 10.898438 -1.820312 10.484375 -1.3125 C 10.078125 -0.800781 9.5625 -0.40625 8.9375 -0.125 C 8.320312 0.15625 7.613281 0.296875 6.8125 0.296875 Z M 6.8125 0.296875 "/></g></g></g><g fill="#000000" fill-opacity="1"><g transform="translate(564.748866, 197.914058)"><g><path d="M 3.828125 0.234375 C 3.222656 0.234375 2.757812 0.0703125 2.4375 -0.25 C 2.113281 -0.582031 1.953125 -1.0625 1.953125 -1.6875 L 1.953125 -13.078125 C 1.953125 -13.703125 2.113281 -14.171875 2.4375 -14.484375 C 2.757812 -14.804688 3.210938 -14.96875 3.796875 -14.96875 C 4.378906 -14.96875 4.832031 -14.804688 5.15625 -14.484375 C 5.476562 -14.171875 5.640625 -13.703125 5.640625 -13.078125 L 5.640625 -11.03125 L 5.296875 -11.78125 C 5.742188 -12.84375 6.429688 -13.648438 7.359375 -14.203125 C 8.296875 -14.753906 9.359375 -15.03125 10.546875 -15.03125 C 11.734375 -15.03125 12.707031 -14.804688 13.46875 -14.359375 C 14.226562 -13.921875 14.796875 -13.253906 15.171875 -12.359375 C 15.554688 -11.472656 15.75 -10.347656 15.75 -8.984375 L 15.75 -1.6875 C 15.75 -1.0625 15.585938 -0.582031 15.265625 -0.25 C 14.953125 0.0703125 14.492188 0.234375 13.890625 0.234375 C 13.285156 0.234375 12.816406 0.0703125 12.484375 -0.25 C 12.148438 -0.582031 11.984375 -1.0625 11.984375 -1.6875 L 11.984375 -8.796875 C 11.984375 -9.941406 11.765625 -10.773438 11.328125 -11.296875 C 10.898438 -11.816406 10.238281 -12.078125 9.34375 -12.078125 C 8.238281 -12.078125 7.359375 -11.726562 6.703125 -11.03125 C 6.046875 -10.34375 5.71875 -9.425781 5.71875 -8.28125 L 5.71875 -1.6875 C 5.71875 -0.40625 5.085938 0.234375 3.828125 0.234375 Z M 3.828125 0.234375 "/></g></g></g><g fill="#000000" fill-opacity="1"><g transform="translate(582.224354, 197.914058)"><g><path d="M 5.6875 5.65625 C 5.25 5.65625 4.890625 5.539062 4.609375 5.3125 C 4.328125 5.082031 4.160156 4.773438 4.109375 4.390625 C 4.054688 4.015625 4.125 3.613281 4.3125 3.1875 L 6.359375 -1.359375 L 6.359375 0.203125 L 0.875 -12.46875 C 0.695312 -12.914062 0.632812 -13.328125 0.6875 -13.703125 C 0.75 -14.085938 0.9375 -14.394531 1.25 -14.625 C 1.5625 -14.851562 1.988281 -14.96875 2.53125 -14.96875 C 2.988281 -14.96875 3.359375 -14.863281 3.640625 -14.65625 C 3.921875 -14.445312 4.171875 -14.050781 4.390625 -13.46875 L 8.46875 -3.3125 L 7.5625 -3.3125 L 11.71875 -13.5 C 11.9375 -14.0625 12.195312 -14.445312 12.5 -14.65625 C 12.800781 -14.863281 13.203125 -14.96875 13.703125 -14.96875 C 14.148438 -14.96875 14.503906 -14.851562 14.765625 -14.625 C 15.023438 -14.394531 15.179688 -14.09375 15.234375 -13.71875 C 15.296875 -13.351562 15.226562 -12.945312 15.03125 -12.5 L 7.71875 4.21875 C 7.457031 4.78125 7.175781 5.160156 6.875 5.359375 C 6.570312 5.554688 6.175781 5.65625 5.6875 5.65625 Z M 5.6875 5.65625 "/></g></g></g><g fill="#000000" fill-opacity="1"><g transform="translate(597.771499, 197.914058)"><g><path d="M 6.8125 0.296875 C 5.75 0.296875 4.800781 0.09375 3.96875 -0.3125 C 3.132812 -0.726562 2.476562 -1.285156 2 -1.984375 C 1.53125 -2.691406 1.296875 -3.488281 1.296875 -4.375 C 1.296875 -5.457031 1.578125 -6.3125 2.140625 -6.9375 C 2.703125 -7.570312 3.613281 -8.03125 4.875 -8.3125 C 6.144531 -8.59375 7.84375 -8.734375 9.96875 -8.734375 L 11.484375 -8.734375 L 11.484375 -6.5625 L 10 -6.5625 C 8.757812 -6.5625 7.765625 -6.5 7.015625 -6.375 C 6.273438 -6.257812 5.75 -6.054688 5.4375 -5.765625 C 5.125 -5.472656 4.96875 -5.066406 4.96875 -4.546875 C 4.96875 -3.890625 5.195312 -3.347656 5.65625 -2.921875 C 6.125 -2.503906 6.769531 -2.296875 7.59375 -2.296875 C 8.25 -2.296875 8.832031 -2.445312 9.34375 -2.75 C 9.863281 -3.0625 10.273438 -3.488281 10.578125 -4.03125 C 10.878906 -4.570312 11.03125 -5.195312 11.03125 -5.90625 L 11.03125 -9.375 C 11.03125 -10.375 10.804688 -11.09375 10.359375 -11.53125 C 9.921875 -11.976562 9.179688 -12.203125 8.140625 -12.203125 C 7.554688 -12.203125 6.925781 -12.128906 6.25 -11.984375 C 5.570312 -11.847656 4.863281 -11.609375 4.125 -11.265625 C 3.75 -11.085938 3.414062 -11.035156 3.125 -11.109375 C 2.832031 -11.191406 2.601562 -11.359375 2.4375 -11.609375 C 2.28125 -11.859375 2.203125 -12.132812 2.203125 -12.4375 C 2.203125 -12.738281 2.28125 -13.035156 2.4375 -13.328125 C 2.601562 -13.617188 2.875 -13.835938 3.25 -13.984375 C 4.175781 -14.359375 5.066406 -14.625 5.921875 -14.78125 C 6.773438 -14.945312 7.550781 -15.03125 8.25 -15.03125 C 9.695312 -15.03125 10.882812 -14.804688 11.8125 -14.359375 C 12.75 -13.921875 13.445312 -13.253906 13.90625 -12.359375 C 14.375 -11.472656 14.609375 -10.328125 14.609375 -8.921875 L 14.609375 -1.6875 C 14.609375 -1.0625 14.457031 -0.582031 14.15625 -0.25 C 13.851562 0.0703125 13.421875 0.234375 12.859375 0.234375 C 12.296875 0.234375 11.859375 0.0703125 11.546875 -0.25 C 11.242188 -0.582031 11.09375 -1.0625 11.09375 -1.6875 L 11.09375 -3.140625 L 11.328125 -3.140625 C 11.179688 -2.429688 10.898438 -1.820312 10.484375 -1.3125 C 10.078125 -0.800781 9.5625 -0.40625 8.9375 -0.125 C 8.320312 0.15625 7.613281 0.296875 6.8125 0.296875 Z M 6.8125 0.296875 "/></g></g></g><g fill="#000000" fill-opacity="1"><g transform="translate(409.247159, 225.632807)"><g><path d="M 7.625 0.296875 C 6.332031 0.296875 5.195312 -0.0078125 4.21875 -0.625 C 3.25 -1.25 2.492188 -2.140625 1.953125 -3.296875 C 1.410156 -4.453125 1.140625 -5.8125 1.140625 -7.375 C 1.140625 -8.96875 1.410156 -10.332031 1.953125 -11.46875 C 2.492188 -12.601562 3.25 -13.476562 4.21875 -14.09375 C 5.195312 -14.71875 6.332031 -15.03125 7.625 -15.03125 C 8.84375 -15.03125 9.910156 -14.726562 10.828125 -14.125 C 11.742188 -13.519531 12.363281 -12.726562 12.6875 -11.75 L 12.34375 -11.75 L 12.34375 -19.578125 C 12.34375 -20.203125 12.503906 -20.675781 12.828125 -21 C 13.148438 -21.320312 13.613281 -21.484375 14.21875 -21.484375 C 14.820312 -21.484375 15.285156 -21.320312 15.609375 -21 C 15.941406 -20.675781 16.109375 -20.203125 16.109375 -19.578125 L 16.109375 -1.6875 C 16.109375 -1.0625 15.945312 -0.582031 15.625 -0.25 C 15.3125 0.0703125 14.851562 0.234375 14.25 0.234375 C 13.644531 0.234375 13.179688 0.0703125 12.859375 -0.25 C 12.535156 -0.582031 12.375 -1.0625 12.375 -1.6875 L 12.375 -4.03125 L 12.71875 -3.140625 C 12.414062 -2.085938 11.800781 -1.25 10.875 -0.625 C 9.945312 -0.0078125 8.863281 0.296875 7.625 0.296875 Z M 8.671875 -2.5625 C 9.421875 -2.5625 10.078125 -2.738281 10.640625 -3.09375 C 11.203125 -3.457031 11.632812 -3.992188 11.9375 -4.703125 C 12.25 -5.421875 12.40625 -6.3125 12.40625 -7.375 C 12.40625 -8.988281 12.0625 -10.191406 11.375 -10.984375 C 10.695312 -11.773438 9.796875 -12.171875 8.671875 -12.171875 C 7.929688 -12.171875 7.28125 -11.992188 6.71875 -11.640625 C 6.15625 -11.285156 5.71875 -10.753906 5.40625 -10.046875 C 5.09375 -9.335938 4.9375 -8.445312 4.9375 -7.375 C 4.9375 -5.789062 5.273438 -4.59375 5.953125 -3.78125 C 6.640625 -2.96875 7.546875 -2.5625 8.671875 -2.5625 Z M 8.671875 -2.5625 "/></g></g></g><g fill="#000000" fill-opacity="1"><g transform="translate(427.325254, 225.632807)"><g><path d="M 9.21875 0.296875 C 7.550781 0.296875 6.113281 -0.0078125 4.90625 -0.625 C 3.707031 -1.25 2.78125 -2.132812 2.125 -3.28125 C 1.46875 -4.425781 1.140625 -5.78125 1.140625 -7.34375 C 1.140625 -8.875 1.457031 -10.210938 2.09375 -11.359375 C 2.726562 -12.503906 3.601562 -13.398438 4.71875 -14.046875 C 5.832031 -14.703125 7.101562 -15.03125 8.53125 -15.03125 C 9.570312 -15.03125 10.507812 -14.859375 11.34375 -14.515625 C 12.175781 -14.179688 12.890625 -13.691406 13.484375 -13.046875 C 14.078125 -12.398438 14.523438 -11.617188 14.828125 -10.703125 C 15.140625 -9.796875 15.296875 -8.769531 15.296875 -7.625 C 15.296875 -7.257812 15.171875 -6.976562 14.921875 -6.78125 C 14.671875 -6.59375 14.316406 -6.5 13.859375 -6.5 L 4.1875 -6.5 L 4.1875 -8.671875 L 12.65625 -8.671875 L 12.171875 -8.21875 C 12.171875 -9.144531 12.035156 -9.921875 11.765625 -10.546875 C 11.492188 -11.171875 11.101562 -11.644531 10.59375 -11.96875 C 10.082031 -12.300781 9.441406 -12.46875 8.671875 -12.46875 C 7.828125 -12.46875 7.109375 -12.269531 6.515625 -11.875 C 5.929688 -11.488281 5.484375 -10.9375 5.171875 -10.21875 C 4.859375 -9.507812 4.703125 -8.664062 4.703125 -7.6875 L 4.703125 -7.46875 C 4.703125 -5.820312 5.085938 -4.59375 5.859375 -3.78125 C 6.628906 -2.96875 7.769531 -2.5625 9.28125 -2.5625 C 9.800781 -2.5625 10.382812 -2.625 11.03125 -2.75 C 11.6875 -2.882812 12.304688 -3.113281 12.890625 -3.4375 C 13.316406 -3.675781 13.6875 -3.78125 14 -3.75 C 14.320312 -3.71875 14.578125 -3.601562 14.765625 -3.40625 C 14.960938 -3.207031 15.082031 -2.960938 15.125 -2.671875 C 15.164062 -2.378906 15.109375 -2.082031 14.953125 -1.78125 C 14.804688 -1.476562 14.550781 -1.21875 14.1875 -1 C 13.488281 -0.550781 12.679688 -0.222656 11.765625 -0.015625 C 10.847656 0.191406 10 0.296875 9.21875 0.296875 Z M 9.21875 0.296875 "/></g></g></g><g fill="#000000" fill-opacity="1"><g transform="translate(443.655792, 225.632807)"><g><path d="M 3.828125 0.234375 C 3.222656 0.234375 2.757812 0.0703125 2.4375 -0.25 C 2.113281 -0.582031 1.953125 -1.0625 1.953125 -1.6875 L 1.953125 -13.078125 C 1.953125 -13.703125 2.113281 -14.171875 2.4375 -14.484375 C 2.757812 -14.804688 3.210938 -14.96875 3.796875 -14.96875 C 4.378906 -14.96875 4.832031 -14.804688 5.15625 -14.484375 C 5.476562 -14.171875 5.640625 -13.703125 5.640625 -13.078125 L 5.640625 -11.03125 L 5.296875 -11.78125 C 5.742188 -12.84375 6.429688 -13.648438 7.359375 -14.203125 C 8.296875 -14.753906 9.359375 -15.03125 10.546875 -15.03125 C 11.734375 -15.03125 12.707031 -14.804688 13.46875 -14.359375 C 14.226562 -13.921875 14.796875 -13.253906 15.171875 -12.359375 C 15.554688 -11.472656 15.75 -10.347656 15.75 -8.984375 L 15.75 -1.6875 C 15.75 -1.0625 15.585938 -0.582031 15.265625 -0.25 C 14.953125 0.0703125 14.492188 0.234375 13.890625 0.234375 C 13.285156 0.234375 12.816406 0.0703125 12.484375 -0.25 C 12.148438 -0.582031 11.984375 -1.0625 11.984375 -1.6875 L 11.984375 -8.796875 C 11.984375 -9.941406 11.765625 -10.773438 11.328125 -11.296875 C 10.898438 -11.816406 10.238281 -12.078125 9.34375 -12.078125 C 8.238281 -12.078125 7.359375 -11.726562 6.703125 -11.03125 C 6.046875 -10.34375 5.71875 -9.425781 5.71875 -8.28125 L 5.71875 -1.6875 C 5.71875 -0.40625 5.085938 0.234375 3.828125 0.234375 Z M 3.828125 0.234375 "/></g></g></g><g fill="#000000" fill-opacity="1"><g transform="translate(461.28193, 225.632807)"><g><path d="M 8.828125 5.71875 C 7.742188 5.71875 6.691406 5.617188 5.671875 5.421875 C 4.660156 5.222656 3.742188 4.910156 2.921875 4.484375 C 2.535156 4.285156 2.273438 4.046875 2.140625 3.765625 C 2.015625 3.484375 1.976562 3.195312 2.03125 2.90625 C 2.082031 2.613281 2.203125 2.359375 2.390625 2.140625 C 2.585938 1.921875 2.828125 1.769531 3.109375 1.6875 C 3.390625 1.601562 3.675781 1.644531 3.96875 1.8125 C 4.851562 2.25 5.691406 2.53125 6.484375 2.65625 C 7.285156 2.789062 7.96875 2.859375 8.53125 2.859375 C 9.875 2.859375 10.878906 2.53125 11.546875 1.875 C 12.222656 1.226562 12.5625 0.257812 12.5625 -1.03125 L 12.5625 -3.734375 L 12.828125 -3.734375 C 12.523438 -2.710938 11.894531 -1.894531 10.9375 -1.28125 C 9.988281 -0.664062 8.914062 -0.359375 7.71875 -0.359375 C 6.382812 -0.359375 5.222656 -0.664062 4.234375 -1.28125 C 3.253906 -1.894531 2.492188 -2.753906 1.953125 -3.859375 C 1.410156 -4.960938 1.140625 -6.25 1.140625 -7.71875 C 1.140625 -8.820312 1.296875 -9.816406 1.609375 -10.703125 C 1.921875 -11.597656 2.363281 -12.367188 2.9375 -13.015625 C 3.507812 -13.660156 4.203125 -14.15625 5.015625 -14.5 C 5.828125 -14.851562 6.726562 -15.03125 7.71875 -15.03125 C 8.957031 -15.03125 10.039062 -14.722656 10.96875 -14.109375 C 11.90625 -13.492188 12.515625 -12.6875 12.796875 -11.6875 L 12.5 -10.9375 L 12.5 -13.078125 C 12.5 -13.703125 12.664062 -14.171875 13 -14.484375 C 13.332031 -14.804688 13.789062 -14.96875 14.375 -14.96875 C 14.96875 -14.96875 15.425781 -14.804688 15.75 -14.484375 C 16.070312 -14.171875 16.234375 -13.703125 16.234375 -13.078125 L 16.234375 -1.46875 C 16.234375 0.914062 15.597656 2.707031 14.328125 3.90625 C 13.066406 5.113281 11.234375 5.71875 8.828125 5.71875 Z M 8.734375 -3.21875 C 9.515625 -3.21875 10.1875 -3.398438 10.75 -3.765625 C 11.3125 -4.128906 11.75 -4.644531 12.0625 -5.3125 C 12.375 -5.988281 12.53125 -6.789062 12.53125 -7.71875 C 12.53125 -9.101562 12.1875 -10.191406 11.5 -10.984375 C 10.820312 -11.773438 9.898438 -12.171875 8.734375 -12.171875 C 7.953125 -12.171875 7.28125 -11.988281 6.71875 -11.625 C 6.15625 -11.269531 5.71875 -10.757812 5.40625 -10.09375 C 5.09375 -9.425781 4.9375 -8.632812 4.9375 -7.71875 C 4.9375 -6.332031 5.273438 -5.234375 5.953125 -4.421875 C 6.640625 -3.617188 7.566406 -3.21875 8.734375 -3.21875 Z M 8.734375 -3.21875 "/></g></g></g><g fill="#000000" fill-opacity="1"><g transform="translate(479.480544, 225.632807)"><g><path d="M 6.8125 0.296875 C 5.75 0.296875 4.800781 0.09375 3.96875 -0.3125 C 3.132812 -0.726562 2.476562 -1.285156 2 -1.984375 C 1.53125 -2.691406 1.296875 -3.488281 1.296875 -4.375 C 1.296875 -5.457031 1.578125 -6.3125 2.140625 -6.9375 C 2.703125 -7.570312 3.613281 -8.03125 4.875 -8.3125 C 6.144531 -8.59375 7.84375 -8.734375 9.96875 -8.734375 L 11.484375 -8.734375 L 11.484375 -6.5625 L 10 -6.5625 C 8.757812 -6.5625 7.765625 -6.5 7.015625 -6.375 C 6.273438 -6.257812 5.75 -6.054688 5.4375 -5.765625 C 5.125 -5.472656 4.96875 -5.066406 4.96875 -4.546875 C 4.96875 -3.890625 5.195312 -3.347656 5.65625 -2.921875 C 6.125 -2.503906 6.769531 -2.296875 7.59375 -2.296875 C 8.25 -2.296875 8.832031 -2.445312 9.34375 -2.75 C 9.863281 -3.0625 10.273438 -3.488281 10.578125 -4.03125 C 10.878906 -4.570312 11.03125 -5.195312 11.03125 -5.90625 L 11.03125 -9.375 C 11.03125 -10.375 10.804688 -11.09375 10.359375 -11.53125 C 9.921875 -11.976562 9.179688 -12.203125 8.140625 -12.203125 C 7.554688 -12.203125 6.925781 -12.128906 6.25 -11.984375 C 5.570312 -11.847656 4.863281 -11.609375 4.125 -11.265625 C 3.75 -11.085938 3.414062 -11.035156 3.125 -11.109375 C 2.832031 -11.191406 2.601562 -11.359375 2.4375 -11.609375 C 2.28125 -11.859375 2.203125 -12.132812 2.203125 -12.4375 C 2.203125 -12.738281 2.28125 -13.035156 2.4375 -13.328125 C 2.601562 -13.617188 2.875 -13.835938 3.25 -13.984375 C 4.175781 -14.359375 5.066406 -14.625 5.921875 -14.78125 C 6.773438 -14.945312 7.550781 -15.03125 8.25 -15.03125 C 9.695312 -15.03125 10.882812 -14.804688 11.8125 -14.359375 C 12.75 -13.921875 13.445312 -13.253906 13.90625 -12.359375 C 14.375 -11.472656 14.609375 -10.328125 14.609375 -8.921875 L 14.609375 -1.6875 C 14.609375 -1.0625 14.457031 -0.582031 14.15625 -0.25 C 13.851562 0.0703125 13.421875 0.234375 12.859375 0.234375 C 12.296875 0.234375 11.859375 0.0703125 11.546875 -0.25 C 11.242188 -0.582031 11.09375 -1.0625 11.09375 -1.6875 L 11.09375 -3.140625 L 11.328125 -3.140625 C 11.179688 -2.429688 10.898438 -1.820312 10.484375 -1.3125 C 10.078125 -0.800781 9.5625 -0.40625 8.9375 -0.125 C 8.320312 0.15625 7.613281 0.296875 6.8125 0.296875 Z M 6.8125 0.296875 "/></g></g></g><g fill="#000000" fill-opacity="1"><g transform="translate(495.961734, 225.632807)"><g><path d="M 3.828125 0.234375 C 3.222656 0.234375 2.757812 0.0703125 2.4375 -0.25 C 2.113281 -0.582031 1.953125 -1.0625 1.953125 -1.6875 L 1.953125 -13.078125 C 1.953125 -13.703125 2.113281 -14.171875 2.4375 -14.484375 C 2.757812 -14.804688 3.210938 -14.96875 3.796875 -14.96875 C 4.378906 -14.96875 4.832031 -14.804688 5.15625 -14.484375 C 5.476562 -14.171875 5.640625 -13.703125 5.640625 -13.078125 L 5.640625 -11.03125 L 5.296875 -11.78125 C 5.742188 -12.84375 6.429688 -13.648438 7.359375 -14.203125 C 8.296875 -14.753906 9.359375 -15.03125 10.546875 -15.03125 C 11.734375 -15.03125 12.707031 -14.804688 13.46875 -14.359375 C 14.226562 -13.921875 14.796875 -13.253906 15.171875 -12.359375 C 15.554688 -11.472656 15.75 -10.347656 15.75 -8.984375 L 15.75 -1.6875 C 15.75 -1.0625 15.585938 -0.582031 15.265625 -0.25 C 14.953125 0.0703125 14.492188 0.234375 13.890625 0.234375 C 13.285156 0.234375 12.816406 0.0703125 12.484375 -0.25 C 12.148438 -0.582031 11.984375 -1.0625 11.984375 -1.6875 L 11.984375 -8.796875 C 11.984375 -9.941406 11.765625 -10.773438 11.328125 -11.296875 C 10.898438 -11.816406 10.238281 -12.078125 9.34375 -12.078125 C 8.238281 -12.078125 7.359375 -11.726562 6.703125 -11.03125 C 6.046875 -10.34375 5.71875 -9.425781 5.71875 -8.28125 L 5.71875 -1.6875 C 5.71875 -0.40625 5.085938 0.234375 3.828125 0.234375 Z M 3.828125 0.234375 "/></g></g></g><g fill="#000000" fill-opacity="1"><g transform="translate(513.587873, 225.632807)"><g/></g></g><g fill="#000000" fill-opacity="1"><g transform="translate(521.753147, 225.632807)"><g><path d="M 8.671875 0.296875 C 7.148438 0.296875 5.828125 -0.0078125 4.703125 -0.625 C 3.578125 -1.25 2.703125 -2.140625 2.078125 -3.296875 C 1.453125 -4.453125 1.140625 -5.8125 1.140625 -7.375 C 1.140625 -8.5625 1.316406 -9.617188 1.671875 -10.546875 C 2.023438 -11.484375 2.53125 -12.289062 3.1875 -12.96875 C 3.851562 -13.644531 4.644531 -14.15625 5.5625 -14.5 C 6.488281 -14.851562 7.523438 -15.03125 8.671875 -15.03125 C 10.203125 -15.03125 11.53125 -14.71875 12.65625 -14.09375 C 13.78125 -13.476562 14.648438 -12.597656 15.265625 -11.453125 C 15.890625 -10.304688 16.203125 -8.945312 16.203125 -7.375 C 16.203125 -6.195312 16.023438 -5.132812 15.671875 -4.1875 C 15.328125 -3.238281 14.820312 -2.425781 14.15625 -1.75 C 13.5 -1.082031 12.707031 -0.570312 11.78125 -0.21875 C 10.851562 0.125 9.816406 0.296875 8.671875 0.296875 Z M 8.671875 -2.5625 C 9.421875 -2.5625 10.078125 -2.738281 10.640625 -3.09375 C 11.203125 -3.457031 11.632812 -3.992188 11.9375 -4.703125 C 12.25 -5.421875 12.40625 -6.3125 12.40625 -7.375 C 12.40625 -8.988281 12.0625 -10.191406 11.375 -10.984375 C 10.695312 -11.773438 9.796875 -12.171875 8.671875 -12.171875 C 7.929688 -12.171875 7.28125 -11.992188 6.71875 -11.640625 C 6.15625 -11.285156 5.71875 -10.753906 5.40625 -10.046875 C 5.09375 -9.335938 4.9375 -8.445312 4.9375 -7.375 C 4.9375 -5.789062 5.273438 -4.59375 5.953125 -3.78125 C 6.640625 -2.96875 7.546875 -2.5625 8.671875 -2.5625 Z M 8.671875 -2.5625 "/></g></g></g><g fill="#000000" fill-opacity="1"><g transform="translate(539.108115, 225.632807)"><g><path d="M 3.828125 5.65625 C 3.222656 5.65625 2.757812 5.492188 2.4375 5.171875 C 2.113281 4.859375 1.953125 4.390625 1.953125 3.765625 L 1.953125 -13.078125 C 1.953125 -13.703125 2.113281 -14.171875 2.4375 -14.484375 C 2.757812 -14.804688 3.210938 -14.96875 3.796875 -14.96875 C 4.398438 -14.96875 4.859375 -14.804688 5.171875 -14.484375 C 5.492188 -14.171875 5.65625 -13.703125 5.65625 -13.078125 L 5.65625 -10.71875 L 5.328125 -11.625 C 5.628906 -12.65625 6.242188 -13.476562 7.171875 -14.09375 C 8.109375 -14.71875 9.203125 -15.03125 10.453125 -15.03125 C 11.734375 -15.03125 12.859375 -14.71875 13.828125 -14.09375 C 14.804688 -13.476562 15.566406 -12.601562 16.109375 -11.46875 C 16.660156 -10.332031 16.9375 -8.96875 16.9375 -7.375 C 16.9375 -5.8125 16.660156 -4.453125 16.109375 -3.296875 C 15.566406 -2.140625 14.8125 -1.25 13.84375 -0.625 C 12.882812 -0.0078125 11.753906 0.296875 10.453125 0.296875 C 9.222656 0.296875 8.144531 -0.00390625 7.21875 -0.609375 C 6.300781 -1.222656 5.679688 -2.023438 5.359375 -3.015625 L 5.71875 -3.015625 L 5.71875 3.765625 C 5.71875 4.390625 5.550781 4.859375 5.21875 5.171875 C 4.894531 5.492188 4.429688 5.65625 3.828125 5.65625 Z M 9.40625 -2.5625 C 10.144531 -2.5625 10.796875 -2.738281 11.359375 -3.09375 C 11.921875 -3.457031 12.359375 -3.992188 12.671875 -4.703125 C 12.984375 -5.421875 13.140625 -6.3125 13.140625 -7.375 C 13.140625 -8.988281 12.796875 -10.191406 12.109375 -10.984375 C 11.429688 -11.773438 10.53125 -12.171875 9.40625 -12.171875 C 8.65625 -12.171875 8 -11.992188 7.4375 -11.640625 C 6.875 -11.285156 6.4375 -10.753906 6.125 -10.046875 C 5.8125 -9.335938 5.65625 -8.445312 5.65625 -7.375 C 5.65625 -5.789062 6 -4.59375 6.6875 -3.78125 C 7.375 -2.96875 8.28125 -2.5625 9.40625 -2.5625 Z M 9.40625 -2.5625 "/></g></g></g><g fill="#000000" fill-opacity="1"><g transform="translate(557.18621, 225.632807)"><g><path d="M 9.21875 0.296875 C 7.550781 0.296875 6.113281 -0.0078125 4.90625 -0.625 C 3.707031 -1.25 2.78125 -2.132812 2.125 -3.28125 C 1.46875 -4.425781 1.140625 -5.78125 1.140625 -7.34375 C 1.140625 -8.875 1.457031 -10.210938 2.09375 -11.359375 C 2.726562 -12.503906 3.601562 -13.398438 4.71875 -14.046875 C 5.832031 -14.703125 7.101562 -15.03125 8.53125 -15.03125 C 9.570312 -15.03125 10.507812 -14.859375 11.34375 -14.515625 C 12.175781 -14.179688 12.890625 -13.691406 13.484375 -13.046875 C 14.078125 -12.398438 14.523438 -11.617188 14.828125 -10.703125 C 15.140625 -9.796875 15.296875 -8.769531 15.296875 -7.625 C 15.296875 -7.257812 15.171875 -6.976562 14.921875 -6.78125 C 14.671875 -6.59375 14.316406 -6.5 13.859375 -6.5 L 4.1875 -6.5 L 4.1875 -8.671875 L 12.65625 -8.671875 L 12.171875 -8.21875 C 12.171875 -9.144531 12.035156 -9.921875 11.765625 -10.546875 C 11.492188 -11.171875 11.101562 -11.644531 10.59375 -11.96875 C 10.082031 -12.300781 9.441406 -12.46875 8.671875 -12.46875 C 7.828125 -12.46875 7.109375 -12.269531 6.515625 -11.875 C 5.929688 -11.488281 5.484375 -10.9375 5.171875 -10.21875 C 4.859375 -9.507812 4.703125 -8.664062 4.703125 -7.6875 L 4.703125 -7.46875 C 4.703125 -5.820312 5.085938 -4.59375 5.859375 -3.78125 C 6.628906 -2.96875 7.769531 -2.5625 9.28125 -2.5625 C 9.800781 -2.5625 10.382812 -2.625 11.03125 -2.75 C 11.6875 -2.882812 12.304688 -3.113281 12.890625 -3.4375 C 13.316406 -3.675781 13.6875 -3.78125 14 -3.75 C 14.320312 -3.71875 14.578125 -3.601562 14.765625 -3.40625 C 14.960938 -3.207031 15.082031 -2.960938 15.125 -2.671875 C 15.164062 -2.378906 15.109375 -2.082031 14.953125 -1.78125 C 14.804688 -1.476562 14.550781 -1.21875 14.1875 -1 C 13.488281 -0.550781 12.679688 -0.222656 11.765625 -0.015625 C 10.847656 0.191406 10 0.296875 9.21875 0.296875 Z M 9.21875 0.296875 "/></g></g></g><g fill="#000000" fill-opacity="1"><g transform="translate(573.516747, 225.632807)"><g><path d="M 3.890625 0.234375 C 3.265625 0.234375 2.785156 0.0703125 2.453125 -0.25 C 2.117188 -0.582031 1.953125 -1.0625 1.953125 -1.6875 L 1.953125 -13.078125 C 1.953125 -13.703125 2.113281 -14.171875 2.4375 -14.484375 C 2.757812 -14.804688 3.210938 -14.96875 3.796875 -14.96875 C 4.378906 -14.96875 4.832031 -14.804688 5.15625 -14.484375 C 5.476562 -14.171875 5.640625 -13.703125 5.640625 -13.078125 L 5.640625 -11.171875 L 5.328125 -11.171875 C 5.609375 -12.378906 6.160156 -13.296875 6.984375 -13.921875 C 7.804688 -14.546875 8.898438 -14.914062 10.265625 -15.03125 C 10.691406 -15.070312 11.03125 -14.96875 11.28125 -14.71875 C 11.53125 -14.46875 11.675781 -14.082031 11.71875 -13.5625 C 11.757812 -13.050781 11.644531 -12.640625 11.375 -12.328125 C 11.101562 -12.023438 10.695312 -11.84375 10.15625 -11.78125 L 9.484375 -11.71875 C 8.265625 -11.59375 7.34375 -11.210938 6.71875 -10.578125 C 6.09375 -9.953125 5.78125 -9.066406 5.78125 -7.921875 L 5.78125 -1.6875 C 5.78125 -1.0625 5.617188 -0.582031 5.296875 -0.25 C 4.972656 0.0703125 4.503906 0.234375 3.890625 0.234375 Z M 3.890625 0.234375 "/></g></g></g><g fill="#000000" fill-opacity="1"><g transform="translate(585.177112, 225.632807)"><g><path d="M 6.8125 0.296875 C 5.75 0.296875 4.800781 0.09375 3.96875 -0.3125 C 3.132812 -0.726562 2.476562 -1.285156 2 -1.984375 C 1.53125 -2.691406 1.296875 -3.488281 1.296875 -4.375 C 1.296875 -5.457031 1.578125 -6.3125 2.140625 -6.9375 C 2.703125 -7.570312 3.613281 -8.03125 4.875 -8.3125 C 6.144531 -8.59375 7.84375 -8.734375 9.96875 -8.734375 L 11.484375 -8.734375 L 11.484375 -6.5625 L 10 -6.5625 C 8.757812 -6.5625 7.765625 -6.5 7.015625 -6.375 C 6.273438 -6.257812 5.75 -6.054688 5.4375 -5.765625 C 5.125 -5.472656 4.96875 -5.066406 4.96875 -4.546875 C 4.96875 -3.890625 5.195312 -3.347656 5.65625 -2.921875 C 6.125 -2.503906 6.769531 -2.296875 7.59375 -2.296875 C 8.25 -2.296875 8.832031 -2.445312 9.34375 -2.75 C 9.863281 -3.0625 10.273438 -3.488281 10.578125 -4.03125 C 10.878906 -4.570312 11.03125 -5.195312 11.03125 -5.90625 L 11.03125 -9.375 C 11.03125 -10.375 10.804688 -11.09375 10.359375 -11.53125 C 9.921875 -11.976562 9.179688 -12.203125 8.140625 -12.203125 C 7.554688 -12.203125 6.925781 -12.128906 6.25 -11.984375 C 5.570312 -11.847656 4.863281 -11.609375 4.125 -11.265625 C 3.75 -11.085938 3.414062 -11.035156 3.125 -11.109375 C 2.832031 -11.191406 2.601562 -11.359375 2.4375 -11.609375 C 2.28125 -11.859375 2.203125 -12.132812 2.203125 -12.4375 C 2.203125 -12.738281 2.28125 -13.035156 2.4375 -13.328125 C 2.601562 -13.617188 2.875 -13.835938 3.25 -13.984375 C 4.175781 -14.359375 5.066406 -14.625 5.921875 -14.78125 C 6.773438 -14.945312 7.550781 -15.03125 8.25 -15.03125 C 9.695312 -15.03125 10.882812 -14.804688 11.8125 -14.359375 C 12.75 -13.921875 13.445312 -13.253906 13.90625 -12.359375 C 14.375 -11.472656 14.609375 -10.328125 14.609375 -8.921875 L 14.609375 -1.6875 C 14.609375 -1.0625 14.457031 -0.582031 14.15625 -0.25 C 13.851562 0.0703125 13.421875 0.234375 12.859375 0.234375 C 12.296875 0.234375 11.859375 0.0703125 11.546875 -0.25 C 11.242188 -0.582031 11.09375 -1.0625 11.09375 -1.6875 L 11.09375 -3.140625 L 11.328125 -3.140625 C 11.179688 -2.429688 10.898438 -1.820312 10.484375 -1.3125 C 10.078125 -0.800781 9.5625 -0.40625 8.9375 -0.125 C 8.320312 0.15625 7.613281 0.296875 6.8125 0.296875 Z M 6.8125 0.296875 "/></g></g></g><g fill="#000000" fill-opacity="1"><g transform="translate(601.658302, 225.632807)"><g><path d="M 8.703125 0.296875 C 7.398438 0.296875 6.3125 0.078125 5.4375 -0.359375 C 4.5625 -0.804688 3.910156 -1.453125 3.484375 -2.296875 C 3.066406 -3.148438 2.859375 -4.210938 2.859375 -5.484375 L 2.859375 -11.90625 L 1.296875 -11.90625 C 0.816406 -11.90625 0.445312 -12.03125 0.1875 -12.28125 C -0.0703125 -12.53125 -0.203125 -12.875 -0.203125 -13.3125 C -0.203125 -13.78125 -0.0703125 -14.132812 0.1875 -14.375 C 0.445312 -14.613281 0.816406 -14.734375 1.296875 -14.734375 L 2.859375 -14.734375 L 2.859375 -17.46875 C 2.859375 -18.09375 3.023438 -18.566406 3.359375 -18.890625 C 3.691406 -19.210938 4.160156 -19.375 4.765625 -19.375 C 5.359375 -19.375 5.816406 -19.210938 6.140625 -18.890625 C 6.460938 -18.566406 6.625 -18.09375 6.625 -17.46875 L 6.625 -14.734375 L 9.828125 -14.734375 C 10.304688 -14.734375 10.675781 -14.613281 10.9375 -14.375 C 11.195312 -14.132812 11.328125 -13.78125 11.328125 -13.3125 C 11.328125 -12.875 11.195312 -12.53125 10.9375 -12.28125 C 10.675781 -12.03125 10.304688 -11.90625 9.828125 -11.90625 L 6.625 -11.90625 L 6.625 -5.6875 C 6.625 -4.726562 6.832031 -4.003906 7.25 -3.515625 C 7.675781 -3.035156 8.363281 -2.796875 9.3125 -2.796875 C 9.65625 -2.796875 9.957031 -2.828125 10.21875 -2.890625 C 10.476562 -2.953125 10.707031 -2.992188 10.90625 -3.015625 C 11.144531 -3.035156 11.34375 -2.957031 11.5 -2.78125 C 11.664062 -2.613281 11.75 -2.269531 11.75 -1.75 C 11.75 -1.34375 11.679688 -0.984375 11.546875 -0.671875 C 11.421875 -0.359375 11.1875 -0.144531 10.84375 -0.03125 C 10.582031 0.0507812 10.238281 0.125 9.8125 0.1875 C 9.394531 0.257812 9.023438 0.296875 8.703125 0.296875 Z M 8.703125 0.296875 "/></g></g></g><g fill="#000000" fill-opacity="1"><g transform="translate(613.07764, 225.632807)"><g><path d="M 8.671875 0.296875 C 7.148438 0.296875 5.828125 -0.0078125 4.703125 -0.625 C 3.578125 -1.25 2.703125 -2.140625 2.078125 -3.296875 C 1.453125 -4.453125 1.140625 -5.8125 1.140625 -7.375 C 1.140625 -8.5625 1.316406 -9.617188 1.671875 -10.546875 C 2.023438 -11.484375 2.53125 -12.289062 3.1875 -12.96875 C 3.851562 -13.644531 4.644531 -14.15625 5.5625 -14.5 C 6.488281 -14.851562 7.523438 -15.03125 8.671875 -15.03125 C 10.203125 -15.03125 11.53125 -14.71875 12.65625 -14.09375 C 13.78125 -13.476562 14.648438 -12.597656 15.265625 -11.453125 C 15.890625 -10.304688 16.203125 -8.945312 16.203125 -7.375 C 16.203125 -6.195312 16.023438 -5.132812 15.671875 -4.1875 C 15.328125 -3.238281 14.820312 -2.425781 14.15625 -1.75 C 13.5 -1.082031 12.707031 -0.570312 11.78125 -0.21875 C 10.851562 0.125 9.816406 0.296875 8.671875 0.296875 Z M 8.671875 -2.5625 C 9.421875 -2.5625 10.078125 -2.738281 10.640625 -3.09375 C 11.203125 -3.457031 11.632812 -3.992188 11.9375 -4.703125 C 12.25 -5.421875 12.40625 -6.3125 12.40625 -7.375 C 12.40625 -8.988281 12.0625 -10.191406 11.375 -10.984375 C 10.695312 -11.773438 9.796875 -12.171875 8.671875 -12.171875 C 7.929688 -12.171875 7.28125 -11.992188 6.71875 -11.640625 C 6.15625 -11.285156 5.71875 -10.753906 5.40625 -10.046875 C 5.09375 -9.335938 4.9375 -8.445312 4.9375 -7.375 C 4.9375 -5.789062 5.273438 -4.59375 5.953125 -3.78125 C 6.640625 -2.96875 7.546875 -2.5625 8.671875 -2.5625 Z M 8.671875 -2.5625 "/></g></g></g><g fill="#000000" fill-opacity="1"><g transform="translate(630.432586, 225.632807)"><g><path d="M 3.890625 0.234375 C 3.265625 0.234375 2.785156 0.0703125 2.453125 -0.25 C 2.117188 -0.582031 1.953125 -1.0625 1.953125 -1.6875 L 1.953125 -13.078125 C 1.953125 -13.703125 2.113281 -14.171875 2.4375 -14.484375 C 2.757812 -14.804688 3.210938 -14.96875 3.796875 -14.96875 C 4.378906 -14.96875 4.832031 -14.804688 5.15625 -14.484375 C 5.476562 -14.171875 5.640625 -13.703125 5.640625 -13.078125 L 5.640625 -11.171875 L 5.328125 -11.171875 C 5.609375 -12.378906 6.160156 -13.296875 6.984375 -13.921875 C 7.804688 -14.546875 8.898438 -14.914062 10.265625 -15.03125 C 10.691406 -15.070312 11.03125 -14.96875 11.28125 -14.71875 C 11.53125 -14.46875 11.675781 -14.082031 11.71875 -13.5625 C 11.757812 -13.050781 11.644531 -12.640625 11.375 -12.328125 C 11.101562 -12.023438 10.695312 -11.84375 10.15625 -11.78125 L 9.484375 -11.71875 C 8.265625 -11.59375 7.34375 -11.210938 6.71875 -10.578125 C 6.09375 -9.953125 5.78125 -9.066406 5.78125 -7.921875 L 5.78125 -1.6875 C 5.78125 -1.0625 5.617188 -0.582031 5.296875 -0.25 C 4.972656 0.0703125 4.503906 0.234375 3.890625 0.234375 Z M 3.890625 0.234375 "/></g></g></g><g fill="#000000" fill-opacity="1"><g transform="translate(409.247159, 253.351555)"><g><path d="M 9.03125 -0.96875 C 8.59375 -0.96875 8.253906 -1.09375 8.015625 -1.34375 C 7.773438 -1.59375 7.65625 -1.9375 7.65625 -2.375 L 7.65625 -7.328125 L 2.796875 -7.328125 C 2.378906 -7.328125 2.050781 -7.441406 1.8125 -7.671875 C 1.570312 -7.898438 1.453125 -8.222656 1.453125 -8.640625 C 1.453125 -9.066406 1.570312 -9.394531 1.8125 -9.625 C 2.050781 -9.851562 2.378906 -9.96875 2.796875 -9.96875 L 7.65625 -9.96875 L 7.65625 -14.765625 C 7.65625 -15.203125 7.773438 -15.539062 8.015625 -15.78125 C 8.253906 -16.019531 8.601562 -16.140625 9.0625 -16.140625 C 9.507812 -16.140625 9.847656 -16.019531 10.078125 -15.78125 C 10.304688 -15.539062 10.421875 -15.203125 10.421875 -14.765625 L 10.421875 -9.96875 L 15.265625 -9.96875 C 15.710938 -9.96875 16.050781 -9.851562 16.28125 -9.625 C 16.507812 -9.394531 16.625 -9.066406 16.625 -8.640625 C 16.625 -8.222656 16.507812 -7.898438 16.28125 -7.671875 C 16.050781 -7.441406 15.710938 -7.328125 15.265625 -7.328125 L 10.421875 -7.328125 L 10.421875 -2.375 C 10.421875 -1.9375 10.304688 -1.59375 10.078125 -1.34375 C 9.847656 -1.09375 9.5 -0.96875 9.03125 -0.96875 Z M 9.03125 -0.96875 "/></g></g></g><g fill="#000000" fill-opacity="1"><g transform="translate(427.325254, 253.351555)"><g><path d="M 4.25 3.21875 C 3.988281 3.539062 3.710938 3.726562 3.421875 3.78125 C 3.128906 3.832031 2.867188 3.773438 2.640625 3.609375 C 2.421875 3.453125 2.300781 3.226562 2.28125 2.9375 C 2.269531 2.644531 2.40625 2.328125 2.6875 1.984375 C 3.082031 1.484375 3.347656 0.984375 3.484375 0.484375 C 3.628906 -0.015625 3.703125 -0.46875 3.703125 -0.875 L 3.859375 0.15625 C 3.148438 0.15625 2.578125 -0.046875 2.140625 -0.453125 C 1.710938 -0.867188 1.5 -1.421875 1.5 -2.109375 C 1.5 -2.753906 1.703125 -3.28125 2.109375 -3.6875 C 2.515625 -4.101562 3.054688 -4.3125 3.734375 -4.3125 C 4.441406 -4.3125 4.992188 -4.070312 5.390625 -3.59375 C 5.796875 -3.125 6 -2.445312 6 -1.5625 C 6 -1.082031 5.953125 -0.585938 5.859375 -0.078125 C 5.765625 0.429688 5.59375 0.960938 5.34375 1.515625 C 5.09375 2.066406 4.726562 2.632812 4.25 3.21875 Z M 4.25 3.21875 "/></g></g></g><g fill="#000000" fill-opacity="1"><g transform="translate(434.797535, 253.351555)"><g/></g></g><g fill="#000000" fill-opacity="1"><g transform="translate(442.962809, 253.351555)"><g><path d="M 3.34375 -6.5625 C 2.90625 -6.5625 2.539062 -6.707031 2.25 -7 C 1.957031 -7.289062 1.8125 -7.648438 1.8125 -8.078125 C 1.8125 -8.515625 1.957031 -8.875 2.25 -9.15625 C 2.539062 -9.4375 2.90625 -9.578125 3.34375 -9.578125 L 9.765625 -9.578125 C 10.179688 -9.578125 10.535156 -9.4375 10.828125 -9.15625 C 11.117188 -8.875 11.265625 -8.515625 11.265625 -8.078125 C 11.265625 -7.648438 11.117188 -7.289062 10.828125 -7 C 10.535156 -6.707031 10.179688 -6.5625 9.765625 -6.5625 Z M 3.34375 -6.5625 "/></g></g></g><g fill="#000000" fill-opacity="1"><g transform="translate(454.683394, 253.351555)"><g><path d="M 4.25 3.21875 C 3.988281 3.539062 3.710938 3.726562 3.421875 3.78125 C 3.128906 3.832031 2.867188 3.773438 2.640625 3.609375 C 2.421875 3.453125 2.300781 3.226562 2.28125 2.9375 C 2.269531 2.644531 2.40625 2.328125 2.6875 1.984375 C 3.082031 1.484375 3.347656 0.984375 3.484375 0.484375 C 3.628906 -0.015625 3.703125 -0.46875 3.703125 -0.875 L 3.859375 0.15625 C 3.148438 0.15625 2.578125 -0.046875 2.140625 -0.453125 C 1.710938 -0.867188 1.5 -1.421875 1.5 -2.109375 C 1.5 -2.753906 1.703125 -3.28125 2.109375 -3.6875 C 2.515625 -4.101562 3.054688 -4.3125 3.734375 -4.3125 C 4.441406 -4.3125 4.992188 -4.070312 5.390625 -3.59375 C 5.796875 -3.125 6 -2.445312 6 -1.5625 C 6 -1.082031 5.953125 -0.585938 5.859375 -0.078125 C 5.765625 0.429688 5.59375 0.960938 5.34375 1.515625 C 5.09375 2.066406 4.726562 2.632812 4.25 3.21875 Z M 4.25 3.21875 "/></g></g></g><g fill="#000000" fill-opacity="1"><g transform="translate(462.155675, 253.351555)"><g/></g></g><g fill="#000000" fill-opacity="1"><g transform="translate(470.32095, 253.351555)"><g><path d="M 4.640625 -2.34375 C 4.316406 -2.03125 3.976562 -1.878906 3.625 -1.890625 C 3.28125 -1.910156 2.984375 -2.046875 2.734375 -2.296875 C 2.492188 -2.554688 2.363281 -2.859375 2.34375 -3.203125 C 2.320312 -3.554688 2.472656 -3.894531 2.796875 -4.21875 L 7.171875 -8.578125 L 2.71875 -13.046875 C 2.445312 -13.304688 2.296875 -13.582031 2.265625 -13.875 C 2.242188 -14.164062 2.296875 -14.425781 2.421875 -14.65625 C 2.554688 -14.882812 2.742188 -15.066406 2.984375 -15.203125 C 3.222656 -15.347656 3.488281 -15.398438 3.78125 -15.359375 C 4.070312 -15.316406 4.347656 -15.164062 4.609375 -14.90625 L 9.03125 -10.484375 L 13.46875 -14.90625 C 13.789062 -15.226562 14.128906 -15.378906 14.484375 -15.359375 C 14.847656 -15.335938 15.15625 -15.203125 15.40625 -14.953125 C 15.65625 -14.703125 15.796875 -14.40625 15.828125 -14.0625 C 15.859375 -13.726562 15.703125 -13.390625 15.359375 -13.046875 L 10.90625 -8.578125 L 15.265625 -4.21875 C 15.535156 -3.957031 15.6875 -3.6875 15.71875 -3.40625 C 15.757812 -3.125 15.707031 -2.863281 15.5625 -2.625 C 15.425781 -2.382812 15.242188 -2.195312 15.015625 -2.0625 C 14.785156 -1.9375 14.53125 -1.882812 14.25 -1.90625 C 13.96875 -1.9375 13.695312 -2.082031 13.4375 -2.34375 L 9.03125 -6.75 Z M 4.640625 -2.34375 "/></g></g></g><g fill="#000000" fill-opacity="1"><g transform="translate(488.399044, 253.351555)"><g><path d="M 4.25 3.21875 C 3.988281 3.539062 3.710938 3.726562 3.421875 3.78125 C 3.128906 3.832031 2.867188 3.773438 2.640625 3.609375 C 2.421875 3.453125 2.300781 3.226562 2.28125 2.9375 C 2.269531 2.644531 2.40625 2.328125 2.6875 1.984375 C 3.082031 1.484375 3.347656 0.984375 3.484375 0.484375 C 3.628906 -0.015625 3.703125 -0.46875 3.703125 -0.875 L 3.859375 0.15625 C 3.148438 0.15625 2.578125 -0.046875 2.140625 -0.453125 C 1.710938 -0.867188 1.5 -1.421875 1.5 -2.109375 C 1.5 -2.753906 1.703125 -3.28125 2.109375 -3.6875 C 2.515625 -4.101562 3.054688 -4.3125 3.734375 -4.3125 C 4.441406 -4.3125 4.992188 -4.070312 5.390625 -3.59375 C 5.796875 -3.125 6 -2.445312 6 -1.5625 C 6 -1.082031 5.953125 -0.585938 5.859375 -0.078125 C 5.765625 0.429688 5.59375 0.960938 5.34375 1.515625 C 5.09375 2.066406 4.726562 2.632812 4.25 3.21875 Z M 4.25 3.21875 "/></g></g></g><g fill="#000000" fill-opacity="1"><g transform="translate(495.871325, 253.351555)"><g/></g></g><g fill="#000000" fill-opacity="1"><g transform="translate(504.036599, 253.351555)"><g><path d="M 2.796875 -7.328125 C 2.378906 -7.328125 2.050781 -7.441406 1.8125 -7.671875 C 1.570312 -7.898438 1.453125 -8.222656 1.453125 -8.640625 C 1.453125 -9.066406 1.570312 -9.394531 1.8125 -9.625 C 2.050781 -9.851562 2.378906 -9.96875 2.796875 -9.96875 L 15.265625 -9.96875 C 15.710938 -9.96875 16.050781 -9.851562 16.28125 -9.625 C 16.507812 -9.394531 16.625 -9.066406 16.625 -8.640625 C 16.625 -8.222656 16.507812 -7.898438 16.28125 -7.671875 C 16.050781 -7.441406 15.710938 -7.328125 15.265625 -7.328125 Z M 8.859375 -1.046875 C 8.335938 -1.046875 7.929688 -1.191406 7.640625 -1.484375 C 7.347656 -1.773438 7.203125 -2.1875 7.203125 -2.71875 C 7.203125 -3.238281 7.347656 -3.644531 7.640625 -3.9375 C 7.929688 -4.226562 8.335938 -4.375 8.859375 -4.375 C 9.378906 -4.375 9.785156 -4.234375 10.078125 -3.953125 C 10.367188 -3.671875 10.515625 -3.257812 10.515625 -2.71875 C 10.515625 -2.1875 10.375 -1.773438 10.09375 -1.484375 C 9.8125 -1.191406 9.398438 -1.046875 8.859375 -1.046875 Z M 8.859375 -12.921875 C 8.335938 -12.921875 7.929688 -13.066406 7.640625 -13.359375 C 7.347656 -13.648438 7.203125 -14.054688 7.203125 -14.578125 C 7.203125 -15.097656 7.347656 -15.503906 7.640625 -15.796875 C 7.929688 -16.085938 8.335938 -16.234375 8.859375 -16.234375 C 9.378906 -16.234375 9.785156 -16.09375 10.078125 -15.8125 C 10.367188 -15.53125 10.515625 -15.117188 10.515625 -14.578125 C 10.515625 -14.054688 10.375 -13.648438 10.09375 -13.359375 C 9.8125 -13.066406 9.398438 -12.921875 8.859375 -12.921875 Z M 8.859375 -12.921875 "/></g></g></g></svg>