<svg xmlns="http://www.w3.org/2000/svg" xmlns:xlink="http://www.w3.org/1999/xlink" width="1258" zoomAndPan="magnify" viewBox="0 0 943.5 226.499993" height="302" preserveAspectRatio="xMidYMid meet" version="1.0"><defs><g/><clipPath id="d06ef08673"><path d="M 0.804688 0 L 941.464844 0 L 941.464844 225.917969 L 0.804688 225.917969 Z M 0.804688 0 " clip-rule="nonzero"/></clipPath></defs><g clip-path="url(#d06ef08673)"><path stroke-linecap="butt" transform="matrix(0.748348, 0, 0, 0.748348, 0.806532, 0)" fill="none" stroke-linejoin="miter" d="M -0.00246523 0 L 1257.345237 0 L 1257.345237 301.888933 L -0.00246523 301.888933 Z M -0.00246523 0 " stroke="#000000" stroke-width="12" stroke-opacity="1" stroke-miterlimit="4"/></g><g fill="#000000" fill-opacity="1"><g transform="translate(100.11453, 67.914409)"><g><path d="M 7.078125 0 C 6.046875 0 5.25 -0.289062 4.6875 -0.875 C 4.125 -1.457031 3.84375 -2.265625 3.84375 -3.296875 L 3.84375 -32.078125 C 3.84375 -33.140625 4.113281 -33.945312 4.65625 -34.5 C 5.207031 -35.050781 6 -35.328125 7.03125 -35.328125 C 8.0625 -35.328125 8.851562 -35.050781 9.40625 -34.5 C 9.957031 -33.945312 10.234375 -33.140625 10.234375 -32.078125 L 10.234375 -5.4375 L 24.703125 -5.4375 C 25.597656 -5.4375 26.285156 -5.203125 26.765625 -4.734375 C 27.242188 -4.273438 27.484375 -3.613281 27.484375 -2.75 C 27.484375 -1.882812 27.242188 -1.207031 26.765625 -0.71875 C 26.285156 -0.238281 25.597656 0 24.703125 0 Z M 7.078125 0 "/></g></g></g><g fill="#000000" fill-opacity="1"><g transform="translate(127.898878, 67.914409)"><g><path d="M 15.265625 0.5 C 12.503906 0.5 10.125 -0.015625 8.125 -1.046875 C 6.132812 -2.078125 4.597656 -3.539062 3.515625 -5.4375 C 2.429688 -7.332031 1.890625 -9.578125 1.890625 -12.171875 C 1.890625 -14.703125 2.410156 -16.914062 3.453125 -18.8125 C 4.503906 -20.707031 5.953125 -22.191406 7.796875 -23.265625 C 9.648438 -24.347656 11.757812 -24.890625 14.125 -24.890625 C 15.851562 -24.890625 17.40625 -24.609375 18.78125 -24.046875 C 20.164062 -23.484375 21.347656 -22.664062 22.328125 -21.59375 C 23.304688 -20.53125 24.050781 -19.242188 24.5625 -17.734375 C 25.082031 -16.222656 25.34375 -14.519531 25.34375 -12.625 C 25.34375 -12.019531 25.132812 -11.5625 24.71875 -11.25 C 24.300781 -10.9375 23.710938 -10.78125 22.953125 -10.78125 L 6.9375 -10.78125 L 6.9375 -14.375 L 20.953125 -14.375 L 20.15625 -13.625 C 20.15625 -15.15625 19.929688 -16.4375 19.484375 -17.46875 C 19.035156 -18.5 18.382812 -19.285156 17.53125 -19.828125 C 16.6875 -20.378906 15.632812 -20.65625 14.375 -20.65625 C 12.96875 -20.65625 11.773438 -20.328125 10.796875 -19.671875 C 9.816406 -19.023438 9.066406 -18.113281 8.546875 -16.9375 C 8.035156 -15.757812 7.78125 -14.351562 7.78125 -12.71875 L 7.78125 -12.375 C 7.78125 -9.644531 8.421875 -7.601562 9.703125 -6.25 C 10.984375 -4.90625 12.867188 -4.234375 15.359375 -4.234375 C 16.222656 -4.234375 17.195312 -4.34375 18.28125 -4.5625 C 19.363281 -4.78125 20.390625 -5.15625 21.359375 -5.6875 C 22.054688 -6.082031 22.671875 -6.253906 23.203125 -6.203125 C 23.734375 -6.160156 24.15625 -5.972656 24.46875 -5.640625 C 24.78125 -5.304688 24.96875 -4.894531 25.03125 -4.40625 C 25.101562 -3.925781 25.015625 -3.4375 24.765625 -2.9375 C 24.515625 -2.4375 24.09375 -2.003906 23.5 -1.640625 C 22.332031 -0.910156 20.992188 -0.367188 19.484375 -0.015625 C 17.972656 0.328125 16.566406 0.5 15.265625 0.5 Z M 15.265625 0.5 "/></g></g></g><g fill="#000000" fill-opacity="1"><g transform="translate(154.935004, 67.914409)"><g><path d="M 6.34375 0.40625 C 5.34375 0.40625 4.578125 0.128906 4.046875 -0.421875 C 3.515625 -0.972656 3.25 -1.765625 3.25 -2.796875 L 3.25 -21.65625 C 3.25 -22.6875 3.515625 -23.46875 4.046875 -24 C 4.578125 -24.53125 5.320312 -24.796875 6.28125 -24.796875 C 7.25 -24.796875 8 -24.53125 8.53125 -24 C 9.0625 -23.46875 9.328125 -22.6875 9.328125 -21.65625 L 9.328125 -18.265625 L 8.78125 -19.5 C 9.507812 -21.269531 10.644531 -22.609375 12.1875 -23.515625 C 13.738281 -24.429688 15.5 -24.890625 17.46875 -24.890625 C 19.425781 -24.890625 21.035156 -24.523438 22.296875 -23.796875 C 23.566406 -23.066406 24.515625 -21.960938 25.140625 -20.484375 C 25.773438 -19.003906 26.09375 -17.132812 26.09375 -14.875 L 26.09375 -2.796875 C 26.09375 -1.765625 25.828125 -0.972656 25.296875 -0.421875 C 24.765625 0.128906 24 0.40625 23 0.40625 C 22 0.40625 21.222656 0.128906 20.671875 -0.421875 C 20.128906 -0.972656 19.859375 -1.765625 19.859375 -2.796875 L 19.859375 -14.5625 C 19.859375 -16.457031 19.5 -17.835938 18.78125 -18.703125 C 18.070312 -19.566406 16.96875 -20 15.46875 -20 C 13.632812 -20 12.175781 -19.425781 11.09375 -18.28125 C 10.019531 -17.132812 9.484375 -15.613281 9.484375 -13.71875 L 9.484375 -2.796875 C 9.484375 -0.660156 8.4375 0.40625 6.34375 0.40625 Z M 6.34375 0.40625 "/></g></g></g><g fill="#000000" fill-opacity="1"><g transform="translate(184.116064, 67.914409)"><g><path d="M 14.625 9.484375 C 12.820312 9.484375 11.082031 9.316406 9.40625 8.984375 C 7.726562 8.648438 6.207031 8.132812 4.84375 7.4375 C 4.207031 7.101562 3.78125 6.703125 3.5625 6.234375 C 3.351562 5.765625 3.289062 5.289062 3.375 4.8125 C 3.457031 4.332031 3.65625 3.910156 3.96875 3.546875 C 4.28125 3.179688 4.671875 2.929688 5.140625 2.796875 C 5.609375 2.660156 6.085938 2.726562 6.578125 3 C 8.046875 3.726562 9.4375 4.195312 10.75 4.40625 C 12.0625 4.625 13.1875 4.734375 14.125 4.734375 C 16.351562 4.734375 18.019531 4.191406 19.125 3.109375 C 20.238281 2.035156 20.796875 0.429688 20.796875 -1.703125 L 20.796875 -6.1875 L 21.25 -6.1875 C 20.75 -4.488281 19.707031 -3.128906 18.125 -2.109375 C 16.550781 -1.097656 14.765625 -0.59375 12.765625 -0.59375 C 10.578125 -0.59375 8.664062 -1.097656 7.03125 -2.109375 C 5.40625 -3.128906 4.140625 -4.550781 3.234375 -6.375 C 2.335938 -8.207031 1.890625 -10.335938 1.890625 -12.765625 C 1.890625 -14.597656 2.144531 -16.253906 2.65625 -17.734375 C 3.175781 -19.210938 3.910156 -20.484375 4.859375 -21.546875 C 5.804688 -22.617188 6.953125 -23.441406 8.296875 -24.015625 C 9.648438 -24.597656 11.140625 -24.890625 12.765625 -24.890625 C 14.828125 -24.890625 16.628906 -24.382812 18.171875 -23.375 C 19.722656 -22.363281 20.734375 -21.023438 21.203125 -19.359375 L 20.703125 -18.109375 L 20.703125 -21.65625 C 20.703125 -22.6875 20.972656 -23.46875 21.515625 -24 C 22.066406 -24.53125 22.828125 -24.796875 23.796875 -24.796875 C 24.796875 -24.796875 25.5625 -24.53125 26.09375 -24 C 26.625 -23.46875 26.890625 -22.6875 26.890625 -21.65625 L 26.890625 -2.4375 C 26.890625 1.519531 25.84375 4.492188 23.75 6.484375 C 21.65625 8.484375 18.613281 9.484375 14.625 9.484375 Z M 14.46875 -5.34375 C 15.757812 -5.34375 16.867188 -5.640625 17.796875 -6.234375 C 18.734375 -6.835938 19.457031 -7.695312 19.96875 -8.8125 C 20.488281 -9.925781 20.75 -11.242188 20.75 -12.765625 C 20.75 -15.066406 20.179688 -16.875 19.046875 -18.1875 C 17.921875 -19.5 16.394531 -20.15625 14.46875 -20.15625 C 13.164062 -20.15625 12.050781 -19.851562 11.125 -19.25 C 10.195312 -18.65625 9.472656 -17.804688 8.953125 -16.703125 C 8.441406 -15.609375 8.1875 -14.296875 8.1875 -12.765625 C 8.1875 -10.472656 8.75 -8.660156 9.875 -7.328125 C 11.007812 -6.003906 12.539062 -5.34375 14.46875 -5.34375 Z M 14.46875 -5.34375 "/></g></g></g><g fill="#000000" fill-opacity="1"><g transform="translate(214.24488, 67.914409)"><g><path d="M 6.34375 0.40625 C 5.34375 0.40625 4.578125 0.128906 4.046875 -0.421875 C 3.515625 -0.972656 3.25 -1.765625 3.25 -2.796875 L 3.25 -32.421875 C 3.25 -33.453125 3.515625 -34.234375 4.046875 -34.765625 C 4.578125 -35.304688 5.34375 -35.578125 6.34375 -35.578125 C 7.332031 -35.578125 8.101562 -35.304688 8.65625 -34.765625 C 9.207031 -34.234375 9.484375 -33.453125 9.484375 -32.421875 L 9.484375 -14.015625 L 9.578125 -14.015625 L 17.8125 -22.703125 C 18.476562 -23.367188 19.0625 -23.882812 19.5625 -24.25 C 20.0625 -24.613281 20.742188 -24.796875 21.609375 -24.796875 C 22.472656 -24.796875 23.128906 -24.570312 23.578125 -24.125 C 24.023438 -23.675781 24.25 -23.132812 24.25 -22.5 C 24.25 -21.863281 23.945312 -21.234375 23.34375 -20.609375 L 14.671875 -11.421875 L 14.671875 -14.015625 L 24.203125 -3.734375 C 24.796875 -3.109375 25.066406 -2.46875 25.015625 -1.8125 C 24.960938 -1.164062 24.6875 -0.632812 24.1875 -0.21875 C 23.695312 0.195312 23.066406 0.40625 22.296875 0.40625 C 21.367188 0.40625 20.628906 0.222656 20.078125 -0.140625 C 19.523438 -0.515625 18.921875 -1.066406 18.265625 -1.796875 L 9.578125 -10.875 L 9.484375 -10.875 L 9.484375 -2.796875 C 9.484375 -0.660156 8.4375 0.40625 6.34375 0.40625 Z M 6.34375 0.40625 "/></g></g></g><g fill="#000000" fill-opacity="1"><g transform="translate(240.732283, 67.914409)"><g><path d="M 11.28125 0.5 C 9.507812 0.5 7.929688 0.160156 6.546875 -0.515625 C 5.171875 -1.203125 4.09375 -2.125 3.3125 -3.28125 C 2.53125 -4.445312 2.140625 -5.765625 2.140625 -7.234375 C 2.140625 -9.023438 2.601562 -10.445312 3.53125 -11.5 C 4.46875 -12.550781 5.984375 -13.304688 8.078125 -13.765625 C 10.171875 -14.234375 12.984375 -14.46875 16.515625 -14.46875 L 19.015625 -14.46875 L 19.015625 -10.875 L 16.5625 -10.875 C 14.5 -10.875 12.851562 -10.773438 11.625 -10.578125 C 10.394531 -10.378906 9.519531 -10.035156 9 -9.546875 C 8.488281 -9.066406 8.234375 -8.394531 8.234375 -7.53125 C 8.234375 -6.4375 8.613281 -5.539062 9.375 -4.84375 C 10.144531 -4.144531 11.210938 -3.796875 12.578125 -3.796875 C 13.671875 -3.796875 14.640625 -4.050781 15.484375 -4.5625 C 16.335938 -5.082031 17.015625 -5.789062 17.515625 -6.6875 C 18.015625 -7.582031 18.265625 -8.613281 18.265625 -9.78125 L 18.265625 -15.515625 C 18.265625 -17.179688 17.894531 -18.378906 17.15625 -19.109375 C 16.425781 -19.835938 15.195312 -20.203125 13.46875 -20.203125 C 12.507812 -20.203125 11.472656 -20.082031 10.359375 -19.84375 C 9.242188 -19.613281 8.066406 -19.21875 6.828125 -18.65625 C 6.203125 -18.351562 5.644531 -18.269531 5.15625 -18.40625 C 4.675781 -18.539062 4.300781 -18.816406 4.03125 -19.234375 C 3.769531 -19.648438 3.640625 -20.109375 3.640625 -20.609375 C 3.640625 -21.109375 3.769531 -21.597656 4.03125 -22.078125 C 4.300781 -22.554688 4.753906 -22.914062 5.390625 -23.15625 C 6.921875 -23.78125 8.390625 -24.222656 9.796875 -24.484375 C 11.210938 -24.753906 12.503906 -24.890625 13.671875 -24.890625 C 16.066406 -24.890625 18.035156 -24.523438 19.578125 -23.796875 C 21.128906 -23.066406 22.285156 -21.960938 23.046875 -20.484375 C 23.816406 -19.003906 24.203125 -17.097656 24.203125 -14.765625 L 24.203125 -2.796875 C 24.203125 -1.765625 23.953125 -0.972656 23.453125 -0.421875 C 22.953125 0.128906 22.234375 0.40625 21.296875 0.40625 C 20.367188 0.40625 19.644531 0.128906 19.125 -0.421875 C 18.613281 -0.972656 18.359375 -1.765625 18.359375 -2.796875 L 18.359375 -5.1875 L 18.765625 -5.1875 C 18.523438 -4.019531 18.0625 -3.007812 17.375 -2.15625 C 16.695312 -1.3125 15.84375 -0.65625 14.8125 -0.1875 C 13.78125 0.269531 12.601562 0.5 11.28125 0.5 Z M 11.28125 0.5 "/></g></g></g><g fill="#000000" fill-opacity="1"><g transform="translate(268.01782, 67.914409)"><g><path d="M 6.34375 9.375 C 5.34375 9.375 4.578125 9.109375 4.046875 8.578125 C 3.515625 8.046875 3.25 7.265625 3.25 6.234375 L 3.25 -21.65625 C 3.25 -22.6875 3.515625 -23.46875 4.046875 -24 C 4.578125 -24.53125 5.320312 -24.796875 6.28125 -24.796875 C 7.28125 -24.796875 8.046875 -24.53125 8.578125 -24 C 9.109375 -23.46875 9.375 -22.6875 9.375 -21.65625 L 9.375 -17.765625 L 8.828125 -19.25 C 9.328125 -20.945312 10.347656 -22.3125 11.890625 -23.34375 C 13.441406 -24.375 15.25 -24.890625 17.3125 -24.890625 C 19.4375 -24.890625 21.304688 -24.375 22.921875 -23.34375 C 24.535156 -22.3125 25.789062 -20.859375 26.6875 -18.984375 C 27.582031 -17.109375 28.03125 -14.851562 28.03125 -12.21875 C 28.03125 -9.625 27.582031 -7.367188 26.6875 -5.453125 C 25.789062 -3.546875 24.546875 -2.078125 22.953125 -1.046875 C 21.359375 -0.015625 19.476562 0.5 17.3125 0.5 C 15.28125 0.5 13.5 -0.00390625 11.96875 -1.015625 C 10.4375 -2.035156 9.40625 -3.359375 8.875 -4.984375 L 9.484375 -4.984375 L 9.484375 6.234375 C 9.484375 7.265625 9.207031 8.046875 8.65625 8.578125 C 8.101562 9.109375 7.332031 9.375 6.34375 9.375 Z M 15.5625 -4.234375 C 16.789062 -4.234375 17.867188 -4.53125 18.796875 -5.125 C 19.734375 -5.726562 20.457031 -6.617188 20.96875 -7.796875 C 21.488281 -8.984375 21.75 -10.457031 21.75 -12.21875 C 21.75 -14.882812 21.179688 -16.875 20.046875 -18.1875 C 18.921875 -19.5 17.425781 -20.15625 15.5625 -20.15625 C 14.332031 -20.15625 13.25 -19.863281 12.3125 -19.28125 C 11.382812 -18.695312 10.660156 -17.816406 10.140625 -16.640625 C 9.628906 -15.460938 9.375 -13.988281 9.375 -12.21875 C 9.375 -9.59375 9.9375 -7.601562 11.0625 -6.25 C 12.195312 -4.90625 13.695312 -4.234375 15.5625 -4.234375 Z M 15.5625 -4.234375 "/></g></g></g><g fill="#000000" fill-opacity="1"><g transform="translate(297.947102, 67.914409)"><g><path d="M 6.34375 0.34375 C 5.34375 0.34375 4.578125 0.046875 4.046875 -0.546875 C 3.515625 -1.148438 3.25 -1.984375 3.25 -3.046875 L 3.25 -21.359375 C 3.25 -22.453125 3.515625 -23.289062 4.046875 -23.875 C 4.578125 -24.457031 5.34375 -24.75 6.34375 -24.75 C 7.332031 -24.75 8.101562 -24.457031 8.65625 -23.875 C 9.207031 -23.289062 9.484375 -22.453125 9.484375 -21.359375 L 9.484375 -3.046875 C 9.484375 -1.984375 9.210938 -1.148438 8.671875 -0.546875 C 8.140625 0.046875 7.363281 0.34375 6.34375 0.34375 Z M 6.34375 -29.390625 C 5.175781 -29.390625 4.265625 -29.675781 3.609375 -30.25 C 2.960938 -30.832031 2.640625 -31.640625 2.640625 -32.671875 C 2.640625 -33.742188 2.960938 -34.5625 3.609375 -35.125 C 4.265625 -35.6875 5.175781 -35.96875 6.34375 -35.96875 C 7.53125 -35.96875 8.441406 -35.6875 9.078125 -35.125 C 9.710938 -34.5625 10.03125 -33.742188 10.03125 -32.671875 C 10.03125 -31.640625 9.710938 -30.832031 9.078125 -30.25 C 8.441406 -29.675781 7.53125 -29.390625 6.34375 -29.390625 Z M 6.34375 -29.390625 "/></g></g></g><g fill="#000000" fill-opacity="1"><g transform="translate(310.667053, 67.914409)"><g/></g></g><g fill="#000000" fill-opacity="1"><g transform="translate(324.185116, 67.914409)"><g><path d="M 12.625 0.5 C 10.488281 0.5 8.613281 -0.015625 7 -1.046875 C 5.394531 -2.078125 4.140625 -3.546875 3.234375 -5.453125 C 2.335938 -7.367188 1.890625 -9.625 1.890625 -12.21875 C 1.890625 -14.851562 2.335938 -17.109375 3.234375 -18.984375 C 4.140625 -20.859375 5.394531 -22.3125 7 -23.34375 C 8.613281 -24.375 10.488281 -24.890625 12.625 -24.890625 C 14.65625 -24.890625 16.425781 -24.390625 17.9375 -23.390625 C 19.445312 -22.398438 20.46875 -21.085938 21 -19.453125 L 20.453125 -19.453125 L 20.453125 -32.421875 C 20.453125 -33.453125 20.71875 -34.234375 21.25 -34.765625 C 21.78125 -35.304688 22.546875 -35.578125 23.546875 -35.578125 C 24.546875 -35.578125 25.316406 -35.304688 25.859375 -34.765625 C 26.410156 -34.234375 26.6875 -33.453125 26.6875 -32.421875 L 26.6875 -2.796875 C 26.6875 -1.765625 26.421875 -0.972656 25.890625 -0.421875 C 25.359375 0.128906 24.59375 0.40625 23.59375 0.40625 C 22.59375 0.40625 21.828125 0.128906 21.296875 -0.421875 C 20.765625 -0.972656 20.5 -1.765625 20.5 -2.796875 L 20.5 -6.6875 L 21.046875 -5.1875 C 20.554688 -3.457031 19.546875 -2.078125 18.015625 -1.046875 C 16.484375 -0.015625 14.6875 0.5 12.625 0.5 Z M 14.375 -4.234375 C 15.601562 -4.234375 16.679688 -4.53125 17.609375 -5.125 C 18.546875 -5.726562 19.269531 -6.617188 19.78125 -7.796875 C 20.300781 -8.984375 20.5625 -10.457031 20.5625 -12.21875 C 20.5625 -14.882812 19.992188 -16.875 18.859375 -18.1875 C 17.722656 -19.5 16.226562 -20.15625 14.375 -20.15625 C 13.132812 -20.15625 12.050781 -19.863281 11.125 -19.28125 C 10.195312 -18.695312 9.472656 -17.816406 8.953125 -16.640625 C 8.441406 -15.460938 8.1875 -13.988281 8.1875 -12.21875 C 8.1875 -9.59375 8.75 -7.601562 9.875 -6.25 C 11.007812 -4.90625 12.507812 -4.234375 14.375 -4.234375 Z M 14.375 -4.234375 "/></g></g></g><g fill="#000000" fill-opacity="1"><g transform="translate(354.114398, 67.914409)"><g><path d="M 15.265625 0.5 C 12.503906 0.5 10.125 -0.015625 8.125 -1.046875 C 6.132812 -2.078125 4.597656 -3.539062 3.515625 -5.4375 C 2.429688 -7.332031 1.890625 -9.578125 1.890625 -12.171875 C 1.890625 -14.703125 2.410156 -16.914062 3.453125 -18.8125 C 4.503906 -20.707031 5.953125 -22.191406 7.796875 -23.265625 C 9.648438 -24.347656 11.757812 -24.890625 14.125 -24.890625 C 15.851562 -24.890625 17.40625 -24.609375 18.78125 -24.046875 C 20.164062 -23.484375 21.347656 -22.664062 22.328125 -21.59375 C 23.304688 -20.53125 24.050781 -19.242188 24.5625 -17.734375 C 25.082031 -16.222656 25.34375 -14.519531 25.34375 -12.625 C 25.34375 -12.019531 25.132812 -11.5625 24.71875 -11.25 C 24.300781 -10.9375 23.710938 -10.78125 22.953125 -10.78125 L 6.9375 -10.78125 L 6.9375 -14.375 L 20.953125 -14.375 L 20.15625 -13.625 C 20.15625 -15.15625 19.929688 -16.4375 19.484375 -17.46875 C 19.035156 -18.5 18.382812 -19.285156 17.53125 -19.828125 C 16.6875 -20.378906 15.632812 -20.65625 14.375 -20.65625 C 12.96875 -20.65625 11.773438 -20.328125 10.796875 -19.671875 C 9.816406 -19.023438 9.066406 -18.113281 8.546875 -16.9375 C 8.035156 -15.757812 7.78125 -14.351562 7.78125 -12.71875 L 7.78125 -12.375 C 7.78125 -9.644531 8.421875 -7.601562 9.703125 -6.25 C 10.984375 -4.90625 12.867188 -4.234375 15.359375 -4.234375 C 16.222656 -4.234375 17.195312 -4.34375 18.28125 -4.5625 C 19.363281 -4.78125 20.390625 -5.15625 21.359375 -5.6875 C 22.054688 -6.082031 22.671875 -6.253906 23.203125 -6.203125 C 23.734375 -6.160156 24.15625 -5.972656 24.46875 -5.640625 C 24.78125 -5.304688 24.96875 -4.894531 25.03125 -4.40625 C 25.101562 -3.925781 25.015625 -3.4375 24.765625 -2.9375 C 24.515625 -2.4375 24.09375 -2.003906 23.5 -1.640625 C 22.332031 -0.910156 20.992188 -0.367188 19.484375 -0.015625 C 17.972656 0.328125 16.566406 0.5 15.265625 0.5 Z M 15.265625 0.5 "/></g></g></g><g fill="#000000" fill-opacity="1"><g transform="translate(381.150524, 67.914409)"><g><path d="M 6.4375 0.40625 C 5.40625 0.40625 4.613281 0.128906 4.0625 -0.421875 C 3.519531 -0.972656 3.25 -1.765625 3.25 -2.796875 L 3.25 -21.65625 C 3.25 -22.6875 3.515625 -23.46875 4.046875 -24 C 4.578125 -24.53125 5.320312 -24.796875 6.28125 -24.796875 C 7.25 -24.796875 8 -24.53125 8.53125 -24 C 9.0625 -23.46875 9.328125 -22.6875 9.328125 -21.65625 L 9.328125 -18.515625 L 8.828125 -18.515625 C 9.296875 -20.503906 10.210938 -22.015625 11.578125 -23.046875 C 12.941406 -24.078125 14.753906 -24.691406 17.015625 -24.890625 C 17.710938 -24.960938 18.269531 -24.789062 18.6875 -24.375 C 19.101562 -23.957031 19.34375 -23.316406 19.40625 -22.453125 C 19.46875 -21.617188 19.273438 -20.941406 18.828125 -20.421875 C 18.378906 -19.910156 17.707031 -19.601562 16.8125 -19.5 L 15.71875 -19.40625 C 13.6875 -19.207031 12.15625 -18.582031 11.125 -17.53125 C 10.09375 -16.488281 9.578125 -15.019531 9.578125 -13.125 L 9.578125 -2.796875 C 9.578125 -1.765625 9.3125 -0.972656 8.78125 -0.421875 C 8.25 0.128906 7.46875 0.40625 6.4375 0.40625 Z M 6.4375 0.40625 "/></g></g></g><g fill="#000000" fill-opacity="1"><g transform="translate(400.305245, 67.914409)"><g><path d="M 15.265625 0.5 C 12.503906 0.5 10.125 -0.015625 8.125 -1.046875 C 6.132812 -2.078125 4.597656 -3.539062 3.515625 -5.4375 C 2.429688 -7.332031 1.890625 -9.578125 1.890625 -12.171875 C 1.890625 -14.703125 2.410156 -16.914062 3.453125 -18.8125 C 4.503906 -20.707031 5.953125 -22.191406 7.796875 -23.265625 C 9.648438 -24.347656 11.757812 -24.890625 14.125 -24.890625 C 15.851562 -24.890625 17.40625 -24.609375 18.78125 -24.046875 C 20.164062 -23.484375 21.347656 -22.664062 22.328125 -21.59375 C 23.304688 -20.53125 24.050781 -19.242188 24.5625 -17.734375 C 25.082031 -16.222656 25.34375 -14.519531 25.34375 -12.625 C 25.34375 -12.019531 25.132812 -11.5625 24.71875 -11.25 C 24.300781 -10.9375 23.710938 -10.78125 22.953125 -10.78125 L 6.9375 -10.78125 L 6.9375 -14.375 L 20.953125 -14.375 L 20.15625 -13.625 C 20.15625 -15.15625 19.929688 -16.4375 19.484375 -17.46875 C 19.035156 -18.5 18.382812 -19.285156 17.53125 -19.828125 C 16.6875 -20.378906 15.632812 -20.65625 14.375 -20.65625 C 12.96875 -20.65625 11.773438 -20.328125 10.796875 -19.671875 C 9.816406 -19.023438 9.066406 -18.113281 8.546875 -16.9375 C 8.035156 -15.757812 7.78125 -14.351562 7.78125 -12.71875 L 7.78125 -12.375 C 7.78125 -9.644531 8.421875 -7.601562 9.703125 -6.25 C 10.984375 -4.90625 12.867188 -4.234375 15.359375 -4.234375 C 16.222656 -4.234375 17.195312 -4.34375 18.28125 -4.5625 C 19.363281 -4.78125 20.390625 -5.15625 21.359375 -5.6875 C 22.054688 -6.082031 22.671875 -6.253906 23.203125 -6.203125 C 23.734375 -6.160156 24.15625 -5.972656 24.46875 -5.640625 C 24.78125 -5.304688 24.96875 -4.894531 25.03125 -4.40625 C 25.101562 -3.925781 25.015625 -3.4375 24.765625 -2.9375 C 24.515625 -2.4375 24.09375 -2.003906 23.5 -1.640625 C 22.332031 -0.910156 20.992188 -0.367188 19.484375 -0.015625 C 17.972656 0.328125 16.566406 0.5 15.265625 0.5 Z M 15.265625 0.5 "/></g></g></g><g fill="#000000" fill-opacity="1"><g transform="translate(427.241615, 67.914409)"><g><path d="M 14.421875 0.5 C 12.253906 0.5 10.445312 0.132812 9 -0.59375 C 7.550781 -1.332031 6.476562 -2.40625 5.78125 -3.8125 C 5.082031 -5.226562 4.734375 -6.984375 4.734375 -9.078125 L 4.734375 -19.703125 L 2.140625 -19.703125 C 1.347656 -19.703125 0.734375 -19.910156 0.296875 -20.328125 C -0.128906 -20.742188 -0.34375 -21.316406 -0.34375 -22.046875 C -0.34375 -22.816406 -0.128906 -23.398438 0.296875 -23.796875 C 0.734375 -24.191406 1.347656 -24.390625 2.140625 -24.390625 L 4.734375 -24.390625 L 4.734375 -28.9375 C 4.734375 -29.96875 5.007812 -30.75 5.5625 -31.28125 C 6.113281 -31.8125 6.882812 -32.078125 7.875 -32.078125 C 8.875 -32.078125 9.640625 -31.8125 10.171875 -31.28125 C 10.703125 -30.75 10.96875 -29.96875 10.96875 -28.9375 L 10.96875 -24.390625 L 16.265625 -24.390625 C 17.066406 -24.390625 17.679688 -24.191406 18.109375 -23.796875 C 18.546875 -23.398438 18.765625 -22.816406 18.765625 -22.046875 C 18.765625 -21.316406 18.546875 -20.742188 18.109375 -20.328125 C 17.679688 -19.910156 17.066406 -19.703125 16.265625 -19.703125 L 10.96875 -19.703125 L 10.96875 -9.421875 C 10.96875 -7.828125 11.316406 -6.628906 12.015625 -5.828125 C 12.722656 -5.035156 13.859375 -4.640625 15.421875 -4.640625 C 15.984375 -4.640625 16.476562 -4.6875 16.90625 -4.78125 C 17.34375 -4.882812 17.726562 -4.953125 18.0625 -4.984375 C 18.457031 -5.015625 18.785156 -4.890625 19.046875 -4.609375 C 19.316406 -4.328125 19.453125 -3.753906 19.453125 -2.890625 C 19.453125 -2.222656 19.34375 -1.628906 19.125 -1.109375 C 18.914062 -0.597656 18.523438 -0.242188 17.953125 -0.046875 C 17.523438 0.0859375 16.960938 0.210938 16.265625 0.328125 C 15.566406 0.441406 14.953125 0.5 14.421875 0.5 Z M 14.421875 0.5 "/></g></g></g><g fill="#000000" fill-opacity="1"><g transform="translate(446.396336, 67.914409)"><g/></g></g><g fill="#000000" fill-opacity="1"><g transform="translate(459.914422, 67.914409)"><g><path d="M 17.3125 0.5 C 15.25 0.5 13.441406 -0.015625 11.890625 -1.046875 C 10.347656 -2.078125 9.328125 -3.457031 8.828125 -5.1875 L 9.375 -6.4375 L 9.375 -2.796875 C 9.375 -1.765625 9.109375 -0.972656 8.578125 -0.421875 C 8.046875 0.128906 7.300781 0.40625 6.34375 0.40625 C 5.34375 0.40625 4.578125 0.128906 4.046875 -0.421875 C 3.515625 -0.972656 3.25 -1.765625 3.25 -2.796875 L 3.25 -32.421875 C 3.25 -33.453125 3.515625 -34.234375 4.046875 -34.765625 C 4.578125 -35.304688 5.34375 -35.578125 6.34375 -35.578125 C 7.332031 -35.578125 8.101562 -35.304688 8.65625 -34.765625 C 9.207031 -34.234375 9.484375 -33.453125 9.484375 -32.421875 L 9.484375 -19.453125 L 8.875 -19.453125 C 9.40625 -21.085938 10.4375 -22.398438 11.96875 -23.390625 C 13.5 -24.390625 15.28125 -24.890625 17.3125 -24.890625 C 19.476562 -24.890625 21.359375 -24.375 22.953125 -23.34375 C 24.546875 -22.3125 25.789062 -20.859375 26.6875 -18.984375 C 27.582031 -17.109375 28.03125 -14.851562 28.03125 -12.21875 C 28.03125 -9.625 27.582031 -7.367188 26.6875 -5.453125 C 25.789062 -3.546875 24.535156 -2.078125 22.921875 -1.046875 C 21.304688 -0.015625 19.4375 0.5 17.3125 0.5 Z M 15.5625 -4.234375 C 16.789062 -4.234375 17.867188 -4.53125 18.796875 -5.125 C 19.734375 -5.726562 20.457031 -6.617188 20.96875 -7.796875 C 21.488281 -8.984375 21.75 -10.457031 21.75 -12.21875 C 21.75 -14.882812 21.179688 -16.875 20.046875 -18.1875 C 18.921875 -19.5 17.425781 -20.15625 15.5625 -20.15625 C 14.332031 -20.15625 13.25 -19.863281 12.3125 -19.28125 C 11.382812 -18.695312 10.660156 -17.816406 10.140625 -16.640625 C 9.628906 -15.460938 9.375 -13.988281 9.375 -12.21875 C 9.375 -9.59375 9.9375 -7.601562 11.0625 -6.25 C 12.195312 -4.90625 13.695312 -4.234375 15.5625 -4.234375 Z M 15.5625 -4.234375 "/></g></g></g><g fill="#000000" fill-opacity="1"><g transform="translate(489.843681, 67.914409)"><g><path d="M 6.34375 0.34375 C 5.34375 0.34375 4.578125 0.046875 4.046875 -0.546875 C 3.515625 -1.148438 3.25 -1.984375 3.25 -3.046875 L 3.25 -21.359375 C 3.25 -22.453125 3.515625 -23.289062 4.046875 -23.875 C 4.578125 -24.457031 5.34375 -24.75 6.34375 -24.75 C 7.332031 -24.75 8.101562 -24.457031 8.65625 -23.875 C 9.207031 -23.289062 9.484375 -22.453125 9.484375 -21.359375 L 9.484375 -3.046875 C 9.484375 -1.984375 9.210938 -1.148438 8.671875 -0.546875 C 8.140625 0.046875 7.363281 0.34375 6.34375 0.34375 Z M 6.34375 -29.390625 C 5.175781 -29.390625 4.265625 -29.675781 3.609375 -30.25 C 2.960938 -30.832031 2.640625 -31.640625 2.640625 -32.671875 C 2.640625 -33.742188 2.960938 -34.5625 3.609375 -35.125 C 4.265625 -35.6875 5.175781 -35.96875 6.34375 -35.96875 C 7.53125 -35.96875 8.441406 -35.6875 9.078125 -35.125 C 9.710938 -34.5625 10.03125 -33.742188 10.03125 -32.671875 C 10.03125 -31.640625 9.710938 -30.832031 9.078125 -30.25 C 8.441406 -29.675781 7.53125 -29.390625 6.34375 -29.390625 Z M 6.34375 -29.390625 "/></g></g></g><g fill="#000000" fill-opacity="1"><g transform="translate(502.563632, 67.914409)"><g><path d="M 11.578125 0.5 C 8.816406 0.5 6.738281 -0.285156 5.34375 -1.859375 C 3.945312 -3.441406 3.25 -5.765625 3.25 -8.828125 L 3.25 -32.421875 C 3.25 -33.453125 3.515625 -34.234375 4.046875 -34.765625 C 4.578125 -35.304688 5.34375 -35.578125 6.34375 -35.578125 C 7.332031 -35.578125 8.101562 -35.304688 8.65625 -34.765625 C 9.207031 -34.234375 9.484375 -33.453125 9.484375 -32.421875 L 9.484375 -9.125 C 9.484375 -7.59375 9.804688 -6.460938 10.453125 -5.734375 C 11.097656 -5.003906 12.019531 -4.640625 13.21875 -4.640625 C 13.488281 -4.640625 13.738281 -4.644531 13.96875 -4.65625 C 14.195312 -4.675781 14.429688 -4.703125 14.671875 -4.734375 C 15.128906 -4.804688 15.441406 -4.679688 15.609375 -4.359375 C 15.773438 -4.046875 15.859375 -3.40625 15.859375 -2.4375 C 15.859375 -1.613281 15.691406 -0.96875 15.359375 -0.5 C 15.035156 -0.03125 14.488281 0.25 13.71875 0.34375 C 13.382812 0.382812 13.035156 0.421875 12.671875 0.453125 C 12.304688 0.484375 11.941406 0.5 11.578125 0.5 Z M 11.578125 0.5 "/></g></g></g><g fill="#000000" fill-opacity="1"><g transform="translate(518.476029, 67.914409)"><g><path d="M 11.28125 0.5 C 9.507812 0.5 7.929688 0.160156 6.546875 -0.515625 C 5.171875 -1.203125 4.09375 -2.125 3.3125 -3.28125 C 2.53125 -4.445312 2.140625 -5.765625 2.140625 -7.234375 C 2.140625 -9.023438 2.601562 -10.445312 3.53125 -11.5 C 4.46875 -12.550781 5.984375 -13.304688 8.078125 -13.765625 C 10.171875 -14.234375 12.984375 -14.46875 16.515625 -14.46875 L 19.015625 -14.46875 L 19.015625 -10.875 L 16.5625 -10.875 C 14.5 -10.875 12.851562 -10.773438 11.625 -10.578125 C 10.394531 -10.378906 9.519531 -10.035156 9 -9.546875 C 8.488281 -9.066406 8.234375 -8.394531 8.234375 -7.53125 C 8.234375 -6.4375 8.613281 -5.539062 9.375 -4.84375 C 10.144531 -4.144531 11.210938 -3.796875 12.578125 -3.796875 C 13.671875 -3.796875 14.640625 -4.050781 15.484375 -4.5625 C 16.335938 -5.082031 17.015625 -5.789062 17.515625 -6.6875 C 18.015625 -7.582031 18.265625 -8.613281 18.265625 -9.78125 L 18.265625 -15.515625 C 18.265625 -17.179688 17.894531 -18.378906 17.15625 -19.109375 C 16.425781 -19.835938 15.195312 -20.203125 13.46875 -20.203125 C 12.507812 -20.203125 11.472656 -20.082031 10.359375 -19.84375 C 9.242188 -19.613281 8.066406 -19.21875 6.828125 -18.65625 C 6.203125 -18.351562 5.644531 -18.269531 5.15625 -18.40625 C 4.675781 -18.539062 4.300781 -18.816406 4.03125 -19.234375 C 3.769531 -19.648438 3.640625 -20.109375 3.640625 -20.609375 C 3.640625 -21.109375 3.769531 -21.597656 4.03125 -22.078125 C 4.300781 -22.554688 4.753906 -22.914062 5.390625 -23.15625 C 6.921875 -23.78125 8.390625 -24.222656 9.796875 -24.484375 C 11.210938 -24.753906 12.503906 -24.890625 13.671875 -24.890625 C 16.066406 -24.890625 18.035156 -24.523438 19.578125 -23.796875 C 21.128906 -23.066406 22.285156 -21.960938 23.046875 -20.484375 C 23.816406 -19.003906 24.203125 -17.097656 24.203125 -14.765625 L 24.203125 -2.796875 C 24.203125 -1.765625 23.953125 -0.972656 23.453125 -0.421875 C 22.953125 0.128906 22.234375 0.40625 21.296875 0.40625 C 20.367188 0.40625 19.644531 0.128906 19.125 -0.421875 C 18.613281 -0.972656 18.359375 -1.765625 18.359375 -2.796875 L 18.359375 -5.1875 L 18.765625 -5.1875 C 18.523438 -4.019531 18.0625 -3.007812 17.375 -2.15625 C 16.695312 -1.3125 15.84375 -0.65625 14.8125 -0.1875 C 13.78125 0.269531 12.601562 0.5 11.28125 0.5 Z M 11.28125 0.5 "/></g></g></g><g fill="#000000" fill-opacity="1"><g transform="translate(545.761589, 67.914409)"><g><path d="M 6.34375 0.40625 C 5.34375 0.40625 4.578125 0.128906 4.046875 -0.421875 C 3.515625 -0.972656 3.25 -1.765625 3.25 -2.796875 L 3.25 -21.65625 C 3.25 -22.6875 3.515625 -23.46875 4.046875 -24 C 4.578125 -24.53125 5.320312 -24.796875 6.28125 -24.796875 C 7.25 -24.796875 8 -24.53125 8.53125 -24 C 9.0625 -23.46875 9.328125 -22.6875 9.328125 -21.65625 L 9.328125 -18.265625 L 8.78125 -19.5 C 9.507812 -21.269531 10.644531 -22.609375 12.1875 -23.515625 C 13.738281 -24.429688 15.5 -24.890625 17.46875 -24.890625 C 19.425781 -24.890625 21.035156 -24.523438 22.296875 -23.796875 C 23.566406 -23.066406 24.515625 -21.960938 25.140625 -20.484375 C 25.773438 -19.003906 26.09375 -17.132812 26.09375 -14.875 L 26.09375 -2.796875 C 26.09375 -1.765625 25.828125 -0.972656 25.296875 -0.421875 C 24.765625 0.128906 24 0.40625 23 0.40625 C 22 0.40625 21.222656 0.128906 20.671875 -0.421875 C 20.128906 -0.972656 19.859375 -1.765625 19.859375 -2.796875 L 19.859375 -14.5625 C 19.859375 -16.457031 19.5 -17.835938 18.78125 -18.703125 C 18.070312 -19.566406 16.96875 -20 15.46875 -20 C 13.632812 -20 12.175781 -19.425781 11.09375 -18.28125 C 10.019531 -17.132812 9.484375 -15.613281 9.484375 -13.71875 L 9.484375 -2.796875 C 9.484375 -0.660156 8.4375 0.40625 6.34375 0.40625 Z M 6.34375 0.40625 "/></g></g></g><g fill="#000000" fill-opacity="1"><g transform="translate(574.942638, 67.914409)"><g><path d="M 14.625 9.484375 C 12.820312 9.484375 11.082031 9.316406 9.40625 8.984375 C 7.726562 8.648438 6.207031 8.132812 4.84375 7.4375 C 4.207031 7.101562 3.78125 6.703125 3.5625 6.234375 C 3.351562 5.765625 3.289062 5.289062 3.375 4.8125 C 3.457031 4.332031 3.65625 3.910156 3.96875 3.546875 C 4.28125 3.179688 4.671875 2.929688 5.140625 2.796875 C 5.609375 2.660156 6.085938 2.726562 6.578125 3 C 8.046875 3.726562 9.4375 4.195312 10.75 4.40625 C 12.0625 4.625 13.1875 4.734375 14.125 4.734375 C 16.351562 4.734375 18.019531 4.191406 19.125 3.109375 C 20.238281 2.035156 20.796875 0.429688 20.796875 -1.703125 L 20.796875 -6.1875 L 21.25 -6.1875 C 20.75 -4.488281 19.707031 -3.128906 18.125 -2.109375 C 16.550781 -1.097656 14.765625 -0.59375 12.765625 -0.59375 C 10.578125 -0.59375 8.664062 -1.097656 7.03125 -2.109375 C 5.40625 -3.128906 4.140625 -4.550781 3.234375 -6.375 C 2.335938 -8.207031 1.890625 -10.335938 1.890625 -12.765625 C 1.890625 -14.597656 2.144531 -16.253906 2.65625 -17.734375 C 3.175781 -19.210938 3.910156 -20.484375 4.859375 -21.546875 C 5.804688 -22.617188 6.953125 -23.441406 8.296875 -24.015625 C 9.648438 -24.597656 11.140625 -24.890625 12.765625 -24.890625 C 14.828125 -24.890625 16.628906 -24.382812 18.171875 -23.375 C 19.722656 -22.363281 20.734375 -21.023438 21.203125 -19.359375 L 20.703125 -18.109375 L 20.703125 -21.65625 C 20.703125 -22.6875 20.972656 -23.46875 21.515625 -24 C 22.066406 -24.53125 22.828125 -24.796875 23.796875 -24.796875 C 24.796875 -24.796875 25.5625 -24.53125 26.09375 -24 C 26.625 -23.46875 26.890625 -22.6875 26.890625 -21.65625 L 26.890625 -2.4375 C 26.890625 1.519531 25.84375 4.492188 23.75 6.484375 C 21.65625 8.484375 18.613281 9.484375 14.625 9.484375 Z M 14.46875 -5.34375 C 15.757812 -5.34375 16.867188 -5.640625 17.796875 -6.234375 C 18.734375 -6.835938 19.457031 -7.695312 19.96875 -8.8125 C 20.488281 -9.925781 20.75 -11.242188 20.75 -12.765625 C 20.75 -15.066406 20.179688 -16.875 19.046875 -18.1875 C 17.921875 -19.5 16.394531 -20.15625 14.46875 -20.15625 C 13.164062 -20.15625 12.050781 -19.851562 11.125 -19.25 C 10.195312 -18.65625 9.472656 -17.804688 8.953125 -16.703125 C 8.441406 -15.609375 8.1875 -14.296875 8.1875 -12.765625 C 8.1875 -10.472656 8.75 -8.660156 9.875 -7.328125 C 11.007812 -6.003906 12.539062 -5.34375 14.46875 -5.34375 Z M 14.46875 -5.34375 "/></g></g></g><g fill="#000000" fill-opacity="1"><g transform="translate(605.071454, 67.914409)"><g><path d="M 11.28125 0.5 C 9.507812 0.5 7.929688 0.160156 6.546875 -0.515625 C 5.171875 -1.203125 4.09375 -2.125 3.3125 -3.28125 C 2.53125 -4.445312 2.140625 -5.765625 2.140625 -7.234375 C 2.140625 -9.023438 2.601562 -10.445312 3.53125 -11.5 C 4.46875 -12.550781 5.984375 -13.304688 8.078125 -13.765625 C 10.171875 -14.234375 12.984375 -14.46875 16.515625 -14.46875 L 19.015625 -14.46875 L 19.015625 -10.875 L 16.5625 -10.875 C 14.5 -10.875 12.851562 -10.773438 11.625 -10.578125 C 10.394531 -10.378906 9.519531 -10.035156 9 -9.546875 C 8.488281 -9.066406 8.234375 -8.394531 8.234375 -7.53125 C 8.234375 -6.4375 8.613281 -5.539062 9.375 -4.84375 C 10.144531 -4.144531 11.210938 -3.796875 12.578125 -3.796875 C 13.671875 -3.796875 14.640625 -4.050781 15.484375 -4.5625 C 16.335938 -5.082031 17.015625 -5.789062 17.515625 -6.6875 C 18.015625 -7.582031 18.265625 -8.613281 18.265625 -9.78125 L 18.265625 -15.515625 C 18.265625 -17.179688 17.894531 -18.378906 17.15625 -19.109375 C 16.425781 -19.835938 15.195312 -20.203125 13.46875 -20.203125 C 12.507812 -20.203125 11.472656 -20.082031 10.359375 -19.84375 C 9.242188 -19.613281 8.066406 -19.21875 6.828125 -18.65625 C 6.203125 -18.351562 5.644531 -18.269531 5.15625 -18.40625 C 4.675781 -18.539062 4.300781 -18.816406 4.03125 -19.234375 C 3.769531 -19.648438 3.640625 -20.109375 3.640625 -20.609375 C 3.640625 -21.109375 3.769531 -21.597656 4.03125 -22.078125 C 4.300781 -22.554688 4.753906 -22.914062 5.390625 -23.15625 C 6.921875 -23.78125 8.390625 -24.222656 9.796875 -24.484375 C 11.210938 -24.753906 12.503906 -24.890625 13.671875 -24.890625 C 16.066406 -24.890625 18.035156 -24.523438 19.578125 -23.796875 C 21.128906 -23.066406 22.285156 -21.960938 23.046875 -20.484375 C 23.816406 -19.003906 24.203125 -17.097656 24.203125 -14.765625 L 24.203125 -2.796875 C 24.203125 -1.765625 23.953125 -0.972656 23.453125 -0.421875 C 22.953125 0.128906 22.234375 0.40625 21.296875 0.40625 C 20.367188 0.40625 19.644531 0.128906 19.125 -0.421875 C 18.613281 -0.972656 18.359375 -1.765625 18.359375 -2.796875 L 18.359375 -5.1875 L 18.765625 -5.1875 C 18.523438 -4.019531 18.0625 -3.007812 17.375 -2.15625 C 16.695312 -1.3125 15.84375 -0.65625 14.8125 -0.1875 C 13.78125 0.269531 12.601562 0.5 11.28125 0.5 Z M 11.28125 0.5 "/></g></g></g><g fill="#000000" fill-opacity="1"><g transform="translate(632.357014, 67.914409)"><g><path d="M 6.34375 0.40625 C 5.34375 0.40625 4.578125 0.128906 4.046875 -0.421875 C 3.515625 -0.972656 3.25 -1.765625 3.25 -2.796875 L 3.25 -21.65625 C 3.25 -22.6875 3.515625 -23.46875 4.046875 -24 C 4.578125 -24.53125 5.320312 -24.796875 6.28125 -24.796875 C 7.25 -24.796875 8 -24.53125 8.53125 -24 C 9.0625 -23.46875 9.328125 -22.6875 9.328125 -21.65625 L 9.328125 -18.265625 L 8.78125 -19.5 C 9.507812 -21.269531 10.644531 -22.609375 12.1875 -23.515625 C 13.738281 -24.429688 15.5 -24.890625 17.46875 -24.890625 C 19.425781 -24.890625 21.035156 -24.523438 22.296875 -23.796875 C 23.566406 -23.066406 24.515625 -21.960938 25.140625 -20.484375 C 25.773438 -19.003906 26.09375 -17.132812 26.09375 -14.875 L 26.09375 -2.796875 C 26.09375 -1.765625 25.828125 -0.972656 25.296875 -0.421875 C 24.765625 0.128906 24 0.40625 23 0.40625 C 22 0.40625 21.222656 0.128906 20.671875 -0.421875 C 20.128906 -0.972656 19.859375 -1.765625 19.859375 -2.796875 L 19.859375 -14.5625 C 19.859375 -16.457031 19.5 -17.835938 18.78125 -18.703125 C 18.070312 -19.566406 16.96875 -20 15.46875 -20 C 13.632812 -20 12.175781 -19.425781 11.09375 -18.28125 C 10.019531 -17.132812 9.484375 -15.613281 9.484375 -13.71875 L 9.484375 -2.796875 C 9.484375 -0.660156 8.4375 0.40625 6.34375 0.40625 Z M 6.34375 0.40625 "/></g></g></g><g fill="#000000" fill-opacity="1"><g transform="translate(661.538064, 67.914409)"><g/></g></g><g fill="#000000" fill-opacity="1"><g transform="translate(675.056149, 67.914409)"><g><path d="M 6.34375 0.40625 C 5.34375 0.40625 4.578125 0.128906 4.046875 -0.421875 C 3.515625 -0.972656 3.25 -1.765625 3.25 -2.796875 L 3.25 -32.421875 C 3.25 -33.453125 3.515625 -34.234375 4.046875 -34.765625 C 4.578125 -35.304688 5.34375 -35.578125 6.34375 -35.578125 C 7.332031 -35.578125 8.101562 -35.304688 8.65625 -34.765625 C 9.207031 -34.234375 9.484375 -33.453125 9.484375 -32.421875 L 9.484375 -14.015625 L 9.578125 -14.015625 L 17.8125 -22.703125 C 18.476562 -23.367188 19.0625 -23.882812 19.5625 -24.25 C 20.0625 -24.613281 20.742188 -24.796875 21.609375 -24.796875 C 22.472656 -24.796875 23.128906 -24.570312 23.578125 -24.125 C 24.023438 -23.675781 24.25 -23.132812 24.25 -22.5 C 24.25 -21.863281 23.945312 -21.234375 23.34375 -20.609375 L 14.671875 -11.421875 L 14.671875 -14.015625 L 24.203125 -3.734375 C 24.796875 -3.109375 25.066406 -2.46875 25.015625 -1.8125 C 24.960938 -1.164062 24.6875 -0.632812 24.1875 -0.21875 C 23.695312 0.195312 23.066406 0.40625 22.296875 0.40625 C 21.367188 0.40625 20.628906 0.222656 20.078125 -0.140625 C 19.523438 -0.515625 18.921875 -1.066406 18.265625 -1.796875 L 9.578125 -10.875 L 9.484375 -10.875 L 9.484375 -2.796875 C 9.484375 -0.660156 8.4375 0.40625 6.34375 0.40625 Z M 6.34375 0.40625 "/></g></g></g><g fill="#000000" fill-opacity="1"><g transform="translate(701.294095, 67.914409)"><g><path d="M 14.375 0.5 C 11.84375 0.5 9.644531 -0.015625 7.78125 -1.046875 C 5.914062 -2.078125 4.46875 -3.546875 3.4375 -5.453125 C 2.40625 -7.367188 1.890625 -9.625 1.890625 -12.21875 C 1.890625 -14.1875 2.179688 -15.941406 2.765625 -17.484375 C 3.347656 -19.035156 4.1875 -20.367188 5.28125 -21.484375 C 6.382812 -22.597656 7.703125 -23.441406 9.234375 -24.015625 C 10.765625 -24.597656 12.476562 -24.890625 14.375 -24.890625 C 16.894531 -24.890625 19.085938 -24.375 20.953125 -23.34375 C 22.816406 -22.3125 24.265625 -20.847656 25.296875 -18.953125 C 26.328125 -17.054688 26.84375 -14.8125 26.84375 -12.21875 C 26.84375 -10.257812 26.550781 -8.5 25.96875 -6.9375 C 25.382812 -5.375 24.539062 -4.035156 23.4375 -2.921875 C 22.34375 -1.804688 21.03125 -0.957031 19.5 -0.375 C 17.976562 0.207031 16.269531 0.5 14.375 0.5 Z M 14.375 -4.234375 C 15.601562 -4.234375 16.679688 -4.53125 17.609375 -5.125 C 18.546875 -5.726562 19.269531 -6.617188 19.78125 -7.796875 C 20.300781 -8.984375 20.5625 -10.457031 20.5625 -12.21875 C 20.5625 -14.882812 19.992188 -16.875 18.859375 -18.1875 C 17.722656 -19.5 16.226562 -20.15625 14.375 -20.15625 C 13.132812 -20.15625 12.050781 -19.863281 11.125 -19.28125 C 10.195312 -18.695312 9.472656 -17.816406 8.953125 -16.640625 C 8.441406 -15.460938 8.1875 -13.988281 8.1875 -12.21875 C 8.1875 -9.59375 8.75 -7.601562 9.875 -6.25 C 11.007812 -4.90625 12.507812 -4.234375 14.375 -4.234375 Z M 14.375 -4.234375 "/></g></g></g><g fill="#000000" fill-opacity="1"><g transform="translate(730.026199, 67.914409)"><g><path d="M 12.171875 0.5 C 10.742188 0.5 9.226562 0.347656 7.625 0.046875 C 6.03125 -0.253906 4.601562 -0.769531 3.34375 -1.5 C 2.8125 -1.832031 2.4375 -2.222656 2.21875 -2.671875 C 2 -3.117188 1.914062 -3.566406 1.96875 -4.015625 C 2.019531 -4.460938 2.1875 -4.851562 2.46875 -5.1875 C 2.75 -5.519531 3.113281 -5.734375 3.5625 -5.828125 C 4.007812 -5.929688 4.5 -5.851562 5.03125 -5.59375 C 6.363281 -4.957031 7.613281 -4.515625 8.78125 -4.265625 C 9.945312 -4.015625 11.09375 -3.890625 12.21875 -3.890625 C 13.820312 -3.890625 15.015625 -4.160156 15.796875 -4.703125 C 16.578125 -5.253906 16.96875 -5.984375 16.96875 -6.890625 C 16.96875 -7.648438 16.707031 -8.238281 16.1875 -8.65625 C 15.675781 -9.070312 14.90625 -9.378906 13.875 -9.578125 L 8.875 -10.53125 C 6.8125 -10.925781 5.238281 -11.679688 4.15625 -12.796875 C 3.082031 -13.910156 2.546875 -15.347656 2.546875 -17.109375 C 2.546875 -18.703125 2.984375 -20.082031 3.859375 -21.25 C 4.742188 -22.414062 5.96875 -23.3125 7.53125 -23.9375 C 9.09375 -24.570312 10.890625 -24.890625 12.921875 -24.890625 C 14.378906 -24.890625 15.75 -24.734375 17.03125 -24.421875 C 18.3125 -24.109375 19.550781 -23.617188 20.75 -22.953125 C 21.25 -22.679688 21.585938 -22.328125 21.765625 -21.890625 C 21.953125 -21.460938 21.992188 -21.023438 21.890625 -20.578125 C 21.796875 -20.128906 21.597656 -19.726562 21.296875 -19.375 C 21.003906 -19.03125 20.628906 -18.816406 20.171875 -18.734375 C 19.722656 -18.648438 19.21875 -18.742188 18.65625 -19.015625 C 17.625 -19.546875 16.632812 -19.925781 15.6875 -20.15625 C 14.738281 -20.382812 13.832031 -20.5 12.96875 -20.5 C 11.34375 -20.5 10.140625 -20.21875 9.359375 -19.65625 C 8.578125 -19.09375 8.1875 -18.34375 8.1875 -17.40625 C 8.1875 -16.707031 8.414062 -16.125 8.875 -15.65625 C 9.34375 -15.195312 10.0625 -14.882812 11.03125 -14.71875 L 16.015625 -13.765625 C 18.171875 -13.367188 19.804688 -12.640625 20.921875 -11.578125 C 22.035156 -10.515625 22.59375 -9.082031 22.59375 -7.28125 C 22.59375 -4.851562 21.644531 -2.945312 19.75 -1.5625 C 17.851562 -0.1875 15.328125 0.5 12.171875 0.5 Z M 12.171875 0.5 "/></g></g></g><g fill="#000000" fill-opacity="1"><g transform="translate(754.368701, 67.914409)"><g><path d="M 14.375 0.5 C 11.84375 0.5 9.644531 -0.015625 7.78125 -1.046875 C 5.914062 -2.078125 4.46875 -3.546875 3.4375 -5.453125 C 2.40625 -7.367188 1.890625 -9.625 1.890625 -12.21875 C 1.890625 -14.1875 2.179688 -15.941406 2.765625 -17.484375 C 3.347656 -19.035156 4.1875 -20.367188 5.28125 -21.484375 C 6.382812 -22.597656 7.703125 -23.441406 9.234375 -24.015625 C 10.765625 -24.597656 12.476562 -24.890625 14.375 -24.890625 C 16.894531 -24.890625 19.085938 -24.375 20.953125 -23.34375 C 22.816406 -22.3125 24.265625 -20.847656 25.296875 -18.953125 C 26.328125 -17.054688 26.84375 -14.8125 26.84375 -12.21875 C 26.84375 -10.257812 26.550781 -8.5 25.96875 -6.9375 C 25.382812 -5.375 24.539062 -4.035156 23.4375 -2.921875 C 22.34375 -1.804688 21.03125 -0.957031 19.5 -0.375 C 17.976562 0.207031 16.269531 0.5 14.375 0.5 Z M 14.375 -4.234375 C 15.601562 -4.234375 16.679688 -4.53125 17.609375 -5.125 C 18.546875 -5.726562 19.269531 -6.617188 19.78125 -7.796875 C 20.300781 -8.984375 20.5625 -10.457031 20.5625 -12.21875 C 20.5625 -14.882812 19.992188 -16.875 18.859375 -18.1875 C 17.722656 -19.5 16.226562 -20.15625 14.375 -20.15625 C 13.132812 -20.15625 12.050781 -19.863281 11.125 -19.28125 C 10.195312 -18.695312 9.472656 -17.816406 8.953125 -16.640625 C 8.441406 -15.460938 8.1875 -13.988281 8.1875 -12.21875 C 8.1875 -9.59375 8.75 -7.601562 9.875 -6.25 C 11.007812 -4.90625 12.507812 -4.234375 14.375 -4.234375 Z M 14.375 -4.234375 "/></g></g></g><g fill="#000000" fill-opacity="1"><g transform="translate(783.100805, 67.914409)"><g><path d="M 6.34375 0.40625 C 5.34375 0.40625 4.578125 0.128906 4.046875 -0.421875 C 3.515625 -0.972656 3.25 -1.765625 3.25 -2.796875 L 3.25 -21.65625 C 3.25 -22.6875 3.515625 -23.46875 4.046875 -24 C 4.578125 -24.53125 5.320312 -24.796875 6.28125 -24.796875 C 7.25 -24.796875 8 -24.53125 8.53125 -24 C 9.0625 -23.46875 9.328125 -22.6875 9.328125 -21.65625 L 9.328125 -18.265625 L 8.78125 -19.5 C 9.507812 -21.269531 10.644531 -22.609375 12.1875 -23.515625 C 13.738281 -24.429688 15.5 -24.890625 17.46875 -24.890625 C 19.425781 -24.890625 21.035156 -24.523438 22.296875 -23.796875 C 23.566406 -23.066406 24.515625 -21.960938 25.140625 -20.484375 C 25.773438 -19.003906 26.09375 -17.132812 26.09375 -14.875 L 26.09375 -2.796875 C 26.09375 -1.765625 25.828125 -0.972656 25.296875 -0.421875 C 24.765625 0.128906 24 0.40625 23 0.40625 C 22 0.40625 21.222656 0.128906 20.671875 -0.421875 C 20.128906 -0.972656 19.859375 -1.765625 19.859375 -2.796875 L 19.859375 -14.5625 C 19.859375 -16.457031 19.5 -17.835938 18.78125 -18.703125 C 18.070312 -19.566406 16.96875 -20 15.46875 -20 C 13.632812 -20 12.175781 -19.425781 11.09375 -18.28125 C 10.019531 -17.132812 9.484375 -15.613281 9.484375 -13.71875 L 9.484375 -2.796875 C 9.484375 -0.660156 8.4375 0.40625 6.34375 0.40625 Z M 6.34375 0.40625 "/></g></g></g><g fill="#000000" fill-opacity="1"><g transform="translate(812.281899, 67.914409)"><g><path d="M 14.625 9.484375 C 12.820312 9.484375 11.082031 9.316406 9.40625 8.984375 C 7.726562 8.648438 6.207031 8.132812 4.84375 7.4375 C 4.207031 7.101562 3.78125 6.703125 3.5625 6.234375 C 3.351562 5.765625 3.289062 5.289062 3.375 4.8125 C 3.457031 4.332031 3.65625 3.910156 3.96875 3.546875 C 4.28125 3.179688 4.671875 2.929688 5.140625 2.796875 C 5.609375 2.660156 6.085938 2.726562 6.578125 3 C 8.046875 3.726562 9.4375 4.195312 10.75 4.40625 C 12.0625 4.625 13.1875 4.734375 14.125 4.734375 C 16.351562 4.734375 18.019531 4.191406 19.125 3.109375 C 20.238281 2.035156 20.796875 0.429688 20.796875 -1.703125 L 20.796875 -6.1875 L 21.25 -6.1875 C 20.75 -4.488281 19.707031 -3.128906 18.125 -2.109375 C 16.550781 -1.097656 14.765625 -0.59375 12.765625 -0.59375 C 10.578125 -0.59375 8.664062 -1.097656 7.03125 -2.109375 C 5.40625 -3.128906 4.140625 -4.550781 3.234375 -6.375 C 2.335938 -8.207031 1.890625 -10.335938 1.890625 -12.765625 C 1.890625 -14.597656 2.144531 -16.253906 2.65625 -17.734375 C 3.175781 -19.210938 3.910156 -20.484375 4.859375 -21.546875 C 5.804688 -22.617188 6.953125 -23.441406 8.296875 -24.015625 C 9.648438 -24.597656 11.140625 -24.890625 12.765625 -24.890625 C 14.828125 -24.890625 16.628906 -24.382812 18.171875 -23.375 C 19.722656 -22.363281 20.734375 -21.023438 21.203125 -19.359375 L 20.703125 -18.109375 L 20.703125 -21.65625 C 20.703125 -22.6875 20.972656 -23.46875 21.515625 -24 C 22.066406 -24.53125 22.828125 -24.796875 23.796875 -24.796875 C 24.796875 -24.796875 25.5625 -24.53125 26.09375 -24 C 26.625 -23.46875 26.890625 -22.6875 26.890625 -21.65625 L 26.890625 -2.4375 C 26.890625 1.519531 25.84375 4.492188 23.75 6.484375 C 21.65625 8.484375 18.613281 9.484375 14.625 9.484375 Z M 14.46875 -5.34375 C 15.757812 -5.34375 16.867188 -5.640625 17.796875 -6.234375 C 18.734375 -6.835938 19.457031 -7.695312 19.96875 -8.8125 C 20.488281 -9.925781 20.75 -11.242188 20.75 -12.765625 C 20.75 -15.066406 20.179688 -16.875 19.046875 -18.1875 C 17.921875 -19.5 16.394531 -20.15625 14.46875 -20.15625 C 13.164062 -20.15625 12.050781 -19.851562 11.125 -19.25 C 10.195312 -18.65625 9.472656 -17.804688 8.953125 -16.703125 C 8.441406 -15.609375 8.1875 -14.296875 8.1875 -12.765625 C 8.1875 -10.472656 8.75 -8.660156 9.875 -7.328125 C 11.007812 -6.003906 12.539062 -5.34375 14.46875 -5.34375 Z M 14.46875 -5.34375 "/></g></g></g><g fill="#000000" fill-opacity="1"><g transform="translate(389.257474, 114.311982)"><g><path d="M 17.3125 0.5 C 15.25 0.5 13.441406 -0.015625 11.890625 -1.046875 C 10.347656 -2.078125 9.328125 -3.457031 8.828125 -5.1875 L 9.375 -6.4375 L 9.375 -2.796875 C 9.375 -1.765625 9.109375 -0.972656 8.578125 -0.421875 C 8.046875 0.128906 7.300781 0.40625 6.34375 0.40625 C 5.34375 0.40625 4.578125 0.128906 4.046875 -0.421875 C 3.515625 -0.972656 3.25 -1.765625 3.25 -2.796875 L 3.25 -32.421875 C 3.25 -33.453125 3.515625 -34.234375 4.046875 -34.765625 C 4.578125 -35.304688 5.34375 -35.578125 6.34375 -35.578125 C 7.332031 -35.578125 8.101562 -35.304688 8.65625 -34.765625 C 9.207031 -34.234375 9.484375 -33.453125 9.484375 -32.421875 L 9.484375 -19.453125 L 8.875 -19.453125 C 9.40625 -21.085938 10.4375 -22.398438 11.96875 -23.390625 C 13.5 -24.390625 15.28125 -24.890625 17.3125 -24.890625 C 19.476562 -24.890625 21.359375 -24.375 22.953125 -23.34375 C 24.546875 -22.3125 25.789062 -20.859375 26.6875 -18.984375 C 27.582031 -17.109375 28.03125 -14.851562 28.03125 -12.21875 C 28.03125 -9.625 27.582031 -7.367188 26.6875 -5.453125 C 25.789062 -3.546875 24.535156 -2.078125 22.921875 -1.046875 C 21.304688 -0.015625 19.4375 0.5 17.3125 0.5 Z M 15.5625 -4.234375 C 16.789062 -4.234375 17.867188 -4.53125 18.796875 -5.125 C 19.734375 -5.726562 20.457031 -6.617188 20.96875 -7.796875 C 21.488281 -8.984375 21.75 -10.457031 21.75 -12.21875 C 21.75 -14.882812 21.179688 -16.875 20.046875 -18.1875 C 18.921875 -19.5 17.425781 -20.15625 15.5625 -20.15625 C 14.332031 -20.15625 13.25 -19.863281 12.3125 -19.28125 C 11.382812 -18.695312 10.660156 -17.816406 10.140625 -16.640625 C 9.628906 -15.460938 9.375 -13.988281 9.375 -12.21875 C 9.375 -9.59375 9.9375 -7.601562 11.0625 -6.25 C 12.195312 -4.90625 13.695312 -4.234375 15.5625 -4.234375 Z M 15.5625 -4.234375 "/></g></g></g><g fill="#000000" fill-opacity="1"><g transform="translate(419.186757, 114.311982)"><g><path d="M 15.265625 0.5 C 12.503906 0.5 10.125 -0.015625 8.125 -1.046875 C 6.132812 -2.078125 4.597656 -3.539062 3.515625 -5.4375 C 2.429688 -7.332031 1.890625 -9.578125 1.890625 -12.171875 C 1.890625 -14.703125 2.410156 -16.914062 3.453125 -18.8125 C 4.503906 -20.707031 5.953125 -22.191406 7.796875 -23.265625 C 9.648438 -24.347656 11.757812 -24.890625 14.125 -24.890625 C 15.851562 -24.890625 17.40625 -24.609375 18.78125 -24.046875 C 20.164062 -23.484375 21.347656 -22.664062 22.328125 -21.59375 C 23.304688 -20.53125 24.050781 -19.242188 24.5625 -17.734375 C 25.082031 -16.222656 25.34375 -14.519531 25.34375 -12.625 C 25.34375 -12.019531 25.132812 -11.5625 24.71875 -11.25 C 24.300781 -10.9375 23.710938 -10.78125 22.953125 -10.78125 L 6.9375 -10.78125 L 6.9375 -14.375 L 20.953125 -14.375 L 20.15625 -13.625 C 20.15625 -15.15625 19.929688 -16.4375 19.484375 -17.46875 C 19.035156 -18.5 18.382812 -19.285156 17.53125 -19.828125 C 16.6875 -20.378906 15.632812 -20.65625 14.375 -20.65625 C 12.96875 -20.65625 11.773438 -20.328125 10.796875 -19.671875 C 9.816406 -19.023438 9.066406 -18.113281 8.546875 -16.9375 C 8.035156 -15.757812 7.78125 -14.351562 7.78125 -12.71875 L 7.78125 -12.375 C 7.78125 -9.644531 8.421875 -7.601562 9.703125 -6.25 C 10.984375 -4.90625 12.867188 -4.234375 15.359375 -4.234375 C 16.222656 -4.234375 17.195312 -4.34375 18.28125 -4.5625 C 19.363281 -4.78125 20.390625 -5.15625 21.359375 -5.6875 C 22.054688 -6.082031 22.671875 -6.253906 23.203125 -6.203125 C 23.734375 -6.160156 24.15625 -5.972656 24.46875 -5.640625 C 24.78125 -5.304688 24.96875 -4.894531 25.03125 -4.40625 C 25.101562 -3.925781 25.015625 -3.4375 24.765625 -2.9375 C 24.515625 -2.4375 24.09375 -2.003906 23.5 -1.640625 C 22.332031 -0.910156 20.992188 -0.367188 19.484375 -0.015625 C 17.972656 0.328125 16.566406 0.5 15.265625 0.5 Z M 15.265625 0.5 "/></g></g></g><g fill="#000000" fill-opacity="1"><g transform="translate(446.222883, 114.311982)"><g><path d="M 6.4375 0.40625 C 5.40625 0.40625 4.613281 0.128906 4.0625 -0.421875 C 3.519531 -0.972656 3.25 -1.765625 3.25 -2.796875 L 3.25 -21.65625 C 3.25 -22.6875 3.515625 -23.46875 4.046875 -24 C 4.578125 -24.53125 5.320312 -24.796875 6.28125 -24.796875 C 7.25 -24.796875 8 -24.53125 8.53125 -24 C 9.0625 -23.46875 9.328125 -22.6875 9.328125 -21.65625 L 9.328125 -18.515625 L 8.828125 -18.515625 C 9.296875 -20.503906 10.210938 -22.015625 11.578125 -23.046875 C 12.941406 -24.078125 14.753906 -24.691406 17.015625 -24.890625 C 17.710938 -24.960938 18.269531 -24.789062 18.6875 -24.375 C 19.101562 -23.957031 19.34375 -23.316406 19.40625 -22.453125 C 19.46875 -21.617188 19.273438 -20.941406 18.828125 -20.421875 C 18.378906 -19.910156 17.707031 -19.601562 16.8125 -19.5 L 15.71875 -19.40625 C 13.6875 -19.207031 12.15625 -18.582031 11.125 -17.53125 C 10.09375 -16.488281 9.578125 -15.019531 9.578125 -13.125 L 9.578125 -2.796875 C 9.578125 -1.765625 9.3125 -0.972656 8.78125 -0.421875 C 8.25 0.128906 7.46875 0.40625 6.4375 0.40625 Z M 6.4375 0.40625 "/></g></g></g><g fill="#000000" fill-opacity="1"><g transform="translate(465.776682, 114.311982)"><g><path d="M 6.34375 0.34375 C 5.34375 0.34375 4.578125 0.046875 4.046875 -0.546875 C 3.515625 -1.148438 3.25 -1.984375 3.25 -3.046875 L 3.25 -21.359375 C 3.25 -22.453125 3.515625 -23.289062 4.046875 -23.875 C 4.578125 -24.457031 5.34375 -24.75 6.34375 -24.75 C 7.332031 -24.75 8.101562 -24.457031 8.65625 -23.875 C 9.207031 -23.289062 9.484375 -22.453125 9.484375 -21.359375 L 9.484375 -3.046875 C 9.484375 -1.984375 9.210938 -1.148438 8.671875 -0.546875 C 8.140625 0.046875 7.363281 0.34375 6.34375 0.34375 Z M 6.34375 -29.390625 C 5.175781 -29.390625 4.265625 -29.675781 3.609375 -30.25 C 2.960938 -30.832031 2.640625 -31.640625 2.640625 -32.671875 C 2.640625 -33.742188 2.960938 -34.5625 3.609375 -35.125 C 4.265625 -35.6875 5.175781 -35.96875 6.34375 -35.96875 C 7.53125 -35.96875 8.441406 -35.6875 9.078125 -35.125 C 9.710938 -34.5625 10.03125 -33.742188 10.03125 -32.671875 C 10.03125 -31.640625 9.710938 -30.832031 9.078125 -30.25 C 8.441406 -29.675781 7.53125 -29.390625 6.34375 -29.390625 Z M 6.34375 -29.390625 "/></g></g></g><g fill="#000000" fill-opacity="1"><g transform="translate(478.496633, 114.311982)"><g><path d="M 6.34375 0.40625 C 5.34375 0.40625 4.578125 0.128906 4.046875 -0.421875 C 3.515625 -0.972656 3.25 -1.765625 3.25 -2.796875 L 3.25 -32.421875 C 3.25 -33.453125 3.515625 -34.234375 4.046875 -34.765625 C 4.578125 -35.304688 5.34375 -35.578125 6.34375 -35.578125 C 7.332031 -35.578125 8.101562 -35.304688 8.65625 -34.765625 C 9.207031 -34.234375 9.484375 -33.453125 9.484375 -32.421875 L 9.484375 -14.015625 L 9.578125 -14.015625 L 17.8125 -22.703125 C 18.476562 -23.367188 19.0625 -23.882812 19.5625 -24.25 C 20.0625 -24.613281 20.742188 -24.796875 21.609375 -24.796875 C 22.472656 -24.796875 23.128906 -24.570312 23.578125 -24.125 C 24.023438 -23.675781 24.25 -23.132812 24.25 -22.5 C 24.25 -21.863281 23.945312 -21.234375 23.34375 -20.609375 L 14.671875 -11.421875 L 14.671875 -14.015625 L 24.203125 -3.734375 C 24.796875 -3.109375 25.066406 -2.46875 25.015625 -1.8125 C 24.960938 -1.164062 24.6875 -0.632812 24.1875 -0.21875 C 23.695312 0.195312 23.066406 0.40625 22.296875 0.40625 C 21.367188 0.40625 20.628906 0.222656 20.078125 -0.140625 C 19.523438 -0.515625 18.921875 -1.066406 18.265625 -1.796875 L 9.578125 -10.875 L 9.484375 -10.875 L 9.484375 -2.796875 C 9.484375 -0.660156 8.4375 0.40625 6.34375 0.40625 Z M 6.34375 0.40625 "/></g></g></g><g fill="#000000" fill-opacity="1"><g transform="translate(505.233458, 114.311982)"><g><path d="M 12.078125 0.5 C 10.046875 0.5 8.363281 0.125 7.03125 -0.625 C 5.695312 -1.375 4.707031 -2.492188 4.0625 -3.984375 C 3.414062 -5.484375 3.09375 -7.347656 3.09375 -9.578125 L 3.09375 -21.65625 C 3.09375 -22.71875 3.359375 -23.503906 3.890625 -24.015625 C 4.421875 -24.535156 5.1875 -24.796875 6.1875 -24.796875 C 7.1875 -24.796875 7.957031 -24.535156 8.5 -24.015625 C 9.050781 -23.503906 9.328125 -22.71875 9.328125 -21.65625 L 9.328125 -9.484375 C 9.328125 -7.753906 9.675781 -6.472656 10.375 -5.640625 C 11.070312 -4.804688 12.1875 -4.390625 13.71875 -4.390625 C 15.382812 -4.390625 16.75 -4.960938 17.8125 -6.109375 C 18.875 -7.253906 19.40625 -8.773438 19.40625 -10.671875 L 19.40625 -21.65625 C 19.40625 -22.71875 19.671875 -23.503906 20.203125 -24.015625 C 20.734375 -24.535156 21.5 -24.796875 22.5 -24.796875 C 23.5 -24.796875 24.269531 -24.535156 24.8125 -24.015625 C 25.363281 -23.503906 25.640625 -22.71875 25.640625 -21.65625 L 25.640625 -2.796875 C 25.640625 -0.660156 24.625 0.40625 22.59375 0.40625 C 21.632812 0.40625 20.890625 0.128906 20.359375 -0.421875 C 19.828125 -0.972656 19.5625 -1.765625 19.5625 -2.796875 L 19.5625 -6.578125 L 20.25 -5.09375 C 19.550781 -3.289062 18.492188 -1.90625 17.078125 -0.9375 C 15.671875 0.0195312 14.003906 0.5 12.078125 0.5 Z M 12.078125 0.5 "/></g></g></g><g fill="#000000" fill-opacity="1"><g transform="translate(534.115218, 114.311982)"><g><path d="M 14.421875 0.5 C 12.253906 0.5 10.445312 0.132812 9 -0.59375 C 7.550781 -1.332031 6.476562 -2.40625 5.78125 -3.8125 C 5.082031 -5.226562 4.734375 -6.984375 4.734375 -9.078125 L 4.734375 -19.703125 L 2.140625 -19.703125 C 1.347656 -19.703125 0.734375 -19.910156 0.296875 -20.328125 C -0.128906 -20.742188 -0.34375 -21.316406 -0.34375 -22.046875 C -0.34375 -22.816406 -0.128906 -23.398438 0.296875 -23.796875 C 0.734375 -24.191406 1.347656 -24.390625 2.140625 -24.390625 L 4.734375 -24.390625 L 4.734375 -28.9375 C 4.734375 -29.96875 5.007812 -30.75 5.5625 -31.28125 C 6.113281 -31.8125 6.882812 -32.078125 7.875 -32.078125 C 8.875 -32.078125 9.640625 -31.8125 10.171875 -31.28125 C 10.703125 -30.75 10.96875 -29.96875 10.96875 -28.9375 L 10.96875 -24.390625 L 16.265625 -24.390625 C 17.066406 -24.390625 17.679688 -24.191406 18.109375 -23.796875 C 18.546875 -23.398438 18.765625 -22.816406 18.765625 -22.046875 C 18.765625 -21.316406 18.546875 -20.742188 18.109375 -20.328125 C 17.679688 -19.910156 17.066406 -19.703125 16.265625 -19.703125 L 10.96875 -19.703125 L 10.96875 -9.421875 C 10.96875 -7.828125 11.316406 -6.628906 12.015625 -5.828125 C 12.722656 -5.035156 13.859375 -4.640625 15.421875 -4.640625 C 15.984375 -4.640625 16.476562 -4.6875 16.90625 -4.78125 C 17.34375 -4.882812 17.726562 -4.953125 18.0625 -4.984375 C 18.457031 -5.015625 18.785156 -4.890625 19.046875 -4.609375 C 19.316406 -4.328125 19.453125 -3.753906 19.453125 -2.890625 C 19.453125 -2.222656 19.34375 -1.628906 19.125 -1.109375 C 18.914062 -0.597656 18.523438 -0.242188 17.953125 -0.046875 C 17.523438 0.0859375 16.960938 0.210938 16.265625 0.328125 C 15.566406 0.441406 14.953125 0.5 14.421875 0.5 Z M 14.421875 0.5 "/></g></g></g><g fill="#000000" fill-opacity="1"><g transform="translate(251.734149, 189.444361)"><g><path d="M 7.78125 0 C 6.914062 0 6.238281 -0.238281 5.75 -0.71875 C 5.269531 -1.207031 5.03125 -1.863281 5.03125 -2.6875 C 5.03125 -3.550781 5.269531 -4.195312 5.75 -4.625 C 6.238281 -5.0625 6.914062 -5.28125 7.78125 -5.28125 L 13.375 -5.28125 L 13.375 -29.78125 L 16.46875 -29.78125 L 9.125 -25.34375 C 8.5 -24.976562 7.910156 -24.835938 7.359375 -24.921875 C 6.804688 -25.003906 6.335938 -25.234375 5.953125 -25.609375 C 5.578125 -25.992188 5.320312 -26.453125 5.1875 -26.984375 C 5.050781 -27.515625 5.09375 -28.054688 5.3125 -28.609375 C 5.53125 -29.160156 5.953125 -29.617188 6.578125 -29.984375 L 13.46875 -34.125 C 14.132812 -34.519531 14.800781 -34.859375 15.46875 -35.140625 C 16.132812 -35.429688 16.75 -35.578125 17.3125 -35.578125 C 18.007812 -35.578125 18.585938 -35.382812 19.046875 -35 C 19.515625 -34.613281 19.75 -33.988281 19.75 -33.125 L 19.75 -5.28125 L 24.84375 -5.28125 C 25.707031 -5.28125 26.378906 -5.0625 26.859375 -4.625 C 27.347656 -4.195312 27.59375 -3.550781 27.59375 -2.6875 C 27.59375 -1.820312 27.347656 -1.15625 26.859375 -0.6875 C 26.378906 -0.226562 25.707031 0 24.84375 0 Z M 7.78125 0 "/></g></g></g><g fill="#000000" fill-opacity="1"><g transform="translate(281.663432, 189.444361)"><g><path d="M 7.03125 5.34375 C 6.601562 5.875 6.144531 6.179688 5.65625 6.265625 C 5.175781 6.347656 4.753906 6.253906 4.390625 5.984375 C 4.023438 5.722656 3.820312 5.347656 3.78125 4.859375 C 3.75 4.378906 3.96875 3.859375 4.4375 3.296875 C 5.101562 2.460938 5.550781 1.628906 5.78125 0.796875 C 6.019531 -0.0351562 6.140625 -0.785156 6.140625 -1.453125 L 6.390625 0.25 C 5.222656 0.25 4.28125 -0.0859375 3.5625 -0.765625 C 2.851562 -1.453125 2.5 -2.363281 2.5 -3.5 C 2.5 -4.5625 2.828125 -5.429688 3.484375 -6.109375 C 4.148438 -6.796875 5.050781 -7.140625 6.1875 -7.140625 C 7.351562 -7.140625 8.265625 -6.75 8.921875 -5.96875 C 9.585938 -5.1875 9.921875 -4.0625 9.921875 -2.59375 C 9.921875 -1.789062 9.847656 -0.96875 9.703125 -0.125 C 9.554688 0.71875 9.273438 1.597656 8.859375 2.515625 C 8.441406 3.429688 7.832031 4.375 7.03125 5.34375 Z M 7.03125 5.34375 "/></g></g></g><g fill="#000000" fill-opacity="1"><g transform="translate(294.034205, 189.444361)"><g/></g></g><g fill="#000000" fill-opacity="1"><g transform="translate(307.552268, 189.444361)"><g><path d="M 20.609375 0.40625 C 19.609375 0.40625 18.820312 0.128906 18.25 -0.421875 C 17.6875 -0.972656 17.40625 -1.765625 17.40625 -2.796875 L 17.40625 -6.6875 L 5.09375 -6.6875 C 4.0625 -6.6875 3.238281 -6.898438 2.625 -7.328125 C 2.007812 -7.765625 1.703125 -8.445312 1.703125 -9.375 C 1.703125 -9.90625 1.84375 -10.488281 2.125 -11.125 C 2.40625 -11.757812 2.910156 -12.59375 3.640625 -13.625 L 17.3125 -33.421875 C 17.78125 -34.117188 18.296875 -34.648438 18.859375 -35.015625 C 19.421875 -35.390625 20.066406 -35.578125 20.796875 -35.578125 C 21.660156 -35.578125 22.375 -35.316406 22.9375 -34.796875 C 23.507812 -34.285156 23.796875 -33.476562 23.796875 -32.375 L 23.796875 -11.96875 L 26.25 -11.96875 C 27.207031 -11.96875 27.925781 -11.742188 28.40625 -11.296875 C 28.894531 -10.847656 29.140625 -10.191406 29.140625 -9.328125 C 29.140625 -8.460938 28.894531 -7.804688 28.40625 -7.359375 C 27.925781 -6.910156 27.207031 -6.6875 26.25 -6.6875 L 23.796875 -6.6875 L 23.796875 -2.796875 C 23.796875 -1.765625 23.507812 -0.972656 22.9375 -0.421875 C 22.375 0.128906 21.597656 0.40625 20.609375 0.40625 Z M 17.40625 -11.96875 L 17.40625 -27.546875 L 18.859375 -27.546875 L 7.078125 -10.28125 L 7.078125 -11.96875 Z M 17.40625 -11.96875 "/></g></g></g><g fill="#000000" fill-opacity="1"><g transform="translate(337.48155, 189.444361)"><g><path d="M 7.03125 5.34375 C 6.601562 5.875 6.144531 6.179688 5.65625 6.265625 C 5.175781 6.347656 4.753906 6.253906 4.390625 5.984375 C 4.023438 5.722656 3.820312 5.347656 3.78125 4.859375 C 3.75 4.378906 3.96875 3.859375 4.4375 3.296875 C 5.101562 2.460938 5.550781 1.628906 5.78125 0.796875 C 6.019531 -0.0351562 6.140625 -0.785156 6.140625 -1.453125 L 6.390625 0.25 C 5.222656 0.25 4.28125 -0.0859375 3.5625 -0.765625 C 2.851562 -1.453125 2.5 -2.363281 2.5 -3.5 C 2.5 -4.5625 2.828125 -5.429688 3.484375 -6.109375 C 4.148438 -6.796875 5.050781 -7.140625 6.1875 -7.140625 C 7.351562 -7.140625 8.265625 -6.75 8.921875 -5.96875 C 9.585938 -5.1875 9.921875 -4.0625 9.921875 -2.59375 C 9.921875 -1.789062 9.847656 -0.96875 9.703125 -0.125 C 9.554688 0.71875 9.273438 1.597656 8.859375 2.515625 C 8.441406 3.429688 7.832031 4.375 7.03125 5.34375 Z M 7.03125 5.34375 "/></g></g></g><g fill="#000000" fill-opacity="1"><g transform="translate(349.852324, 189.444361)"><g/></g></g><g fill="#000000" fill-opacity="1"><g transform="translate(363.370386, 189.444361)"><g><path d="M 12.21875 0.5 C 10.789062 0.5 9.3125 0.273438 7.78125 -0.171875 C 6.25 -0.617188 4.820312 -1.289062 3.5 -2.1875 C 2.957031 -2.519531 2.601562 -2.953125 2.4375 -3.484375 C 2.269531 -4.023438 2.242188 -4.550781 2.359375 -5.0625 C 2.484375 -5.582031 2.71875 -6.03125 3.0625 -6.40625 C 3.414062 -6.789062 3.859375 -7.023438 4.390625 -7.109375 C 4.921875 -7.191406 5.503906 -7.050781 6.140625 -6.6875 C 7.265625 -6.019531 8.328125 -5.550781 9.328125 -5.28125 C 10.328125 -5.019531 11.328125 -4.890625 12.328125 -4.890625 C 14.253906 -4.890625 15.878906 -5.335938 17.203125 -6.234375 C 18.535156 -7.128906 19.539062 -8.484375 20.21875 -10.296875 C 20.90625 -12.109375 21.25 -14.347656 21.25 -17.015625 L 21.25 -20.75 L 21.859375 -20.75 C 21.617188 -19.09375 21.066406 -17.644531 20.203125 -16.40625 C 19.335938 -15.175781 18.238281 -14.238281 16.90625 -13.59375 C 15.582031 -12.945312 14.101562 -12.625 12.46875 -12.625 C 10.476562 -12.625 8.691406 -13.101562 7.109375 -14.0625 C 5.523438 -15.03125 4.285156 -16.367188 3.390625 -18.078125 C 2.492188 -19.796875 2.046875 -21.734375 2.046875 -23.890625 C 2.046875 -26.191406 2.535156 -28.222656 3.515625 -29.984375 C 4.492188 -31.742188 5.863281 -33.128906 7.625 -34.140625 C 9.394531 -35.160156 11.410156 -35.671875 13.671875 -35.671875 C 16.597656 -35.671875 19.070312 -34.988281 21.09375 -33.625 C 23.125 -32.257812 24.671875 -30.269531 25.734375 -27.65625 C 26.804688 -25.050781 27.34375 -21.898438 27.34375 -18.203125 C 27.34375 -15.210938 27 -12.5625 26.3125 -10.25 C 25.632812 -7.9375 24.644531 -5.984375 23.34375 -4.390625 C 22.050781 -2.796875 20.460938 -1.582031 18.578125 -0.75 C 16.703125 0.0820312 14.582031 0.5 12.21875 0.5 Z M 14.0625 -17.71875 C 15.257812 -17.71875 16.316406 -17.988281 17.234375 -18.53125 C 18.148438 -19.082031 18.859375 -19.847656 19.359375 -20.828125 C 19.859375 -21.804688 20.109375 -22.929688 20.109375 -24.203125 C 20.109375 -25.492188 19.859375 -26.617188 19.359375 -27.578125 C 18.859375 -28.546875 18.148438 -29.296875 17.234375 -29.828125 C 16.316406 -30.359375 15.257812 -30.625 14.0625 -30.625 C 12.863281 -30.625 11.816406 -30.359375 10.921875 -29.828125 C 10.023438 -29.296875 9.316406 -28.546875 8.796875 -27.578125 C 8.285156 -26.617188 8.03125 -25.492188 8.03125 -24.203125 C 8.03125 -22.929688 8.285156 -21.804688 8.796875 -20.828125 C 9.316406 -19.847656 10.023438 -19.082031 10.921875 -18.53125 C 11.816406 -17.988281 12.863281 -17.71875 14.0625 -17.71875 Z M 14.0625 -17.71875 "/></g></g></g><g fill="#000000" fill-opacity="1"><g transform="translate(393.299669, 189.444361)"><g><path d="M 7.03125 5.34375 C 6.601562 5.875 6.144531 6.179688 5.65625 6.265625 C 5.175781 6.347656 4.753906 6.253906 4.390625 5.984375 C 4.023438 5.722656 3.820312 5.347656 3.78125 4.859375 C 3.75 4.378906 3.96875 3.859375 4.4375 3.296875 C 5.101562 2.460938 5.550781 1.628906 5.78125 0.796875 C 6.019531 -0.0351562 6.140625 -0.785156 6.140625 -1.453125 L 6.390625 0.25 C 5.222656 0.25 4.28125 -0.0859375 3.5625 -0.765625 C 2.851562 -1.453125 2.5 -2.363281 2.5 -3.5 C 2.5 -4.5625 2.828125 -5.429688 3.484375 -6.109375 C 4.148438 -6.796875 5.050781 -7.140625 6.1875 -7.140625 C 7.351562 -7.140625 8.265625 -6.75 8.921875 -5.96875 C 9.585938 -5.1875 9.921875 -4.0625 9.921875 -2.59375 C 9.921875 -1.789062 9.847656 -0.96875 9.703125 -0.125 C 9.554688 0.71875 9.273438 1.597656 8.859375 2.515625 C 8.441406 3.429688 7.832031 4.375 7.03125 5.34375 Z M 7.03125 5.34375 "/></g></g></g><g fill="#000000" fill-opacity="1"><g transform="translate(405.670442, 189.444361)"><g/></g></g><g fill="#000000" fill-opacity="1"><g transform="translate(419.188505, 189.444361)"><g><path d="M 6.234375 0.25 C 5.109375 0.25 4.203125 -0.0976562 3.515625 -0.796875 C 2.835938 -1.492188 2.5 -2.394531 2.5 -3.5 C 2.5 -4.5625 2.835938 -5.429688 3.515625 -6.109375 C 4.203125 -6.796875 5.109375 -7.140625 6.234375 -7.140625 C 7.398438 -7.140625 8.304688 -6.796875 8.953125 -6.109375 C 9.597656 -5.429688 9.921875 -4.5625 9.921875 -3.5 C 9.921875 -2.394531 9.597656 -1.492188 8.953125 -0.796875 C 8.304688 -0.0976562 7.398438 0.25 6.234375 0.25 Z M 6.234375 0.25 "/></g></g></g><g fill="#000000" fill-opacity="1"><g transform="translate(431.559278, 189.444361)"><g><path d="M 6.234375 0.25 C 5.109375 0.25 4.203125 -0.0976562 3.515625 -0.796875 C 2.835938 -1.492188 2.5 -2.394531 2.5 -3.5 C 2.5 -4.5625 2.835938 -5.429688 3.515625 -6.109375 C 4.203125 -6.796875 5.109375 -7.140625 6.234375 -7.140625 C 7.398438 -7.140625 8.304688 -6.796875 8.953125 -6.109375 C 9.597656 -5.429688 9.921875 -4.5625 9.921875 -3.5 C 9.921875 -2.394531 9.597656 -1.492188 8.953125 -0.796875 C 8.304688 -0.0976562 7.398438 0.25 6.234375 0.25 Z M 6.234375 0.25 "/></g></g></g><g fill="#000000" fill-opacity="1"><g transform="translate(443.93004, 189.444361)"><g><path d="M 6.234375 0.25 C 5.109375 0.25 4.203125 -0.0976562 3.515625 -0.796875 C 2.835938 -1.492188 2.5 -2.394531 2.5 -3.5 C 2.5 -4.5625 2.835938 -5.429688 3.515625 -6.109375 C 4.203125 -6.796875 5.109375 -7.140625 6.234375 -7.140625 C 7.398438 -7.140625 8.304688 -6.796875 8.953125 -6.109375 C 9.597656 -5.429688 9.921875 -4.5625 9.921875 -3.5 C 9.921875 -2.394531 9.597656 -1.492188 8.953125 -0.796875 C 8.304688 -0.0976562 7.398438 0.25 6.234375 0.25 Z M 6.234375 0.25 "/></g></g></g><g fill="#000000" fill-opacity="1"><g transform="translate(456.300825, 189.444361)"><g><path d="M 7.03125 5.34375 C 6.601562 5.875 6.144531 6.179688 5.65625 6.265625 C 5.175781 6.347656 4.753906 6.253906 4.390625 5.984375 C 4.023438 5.722656 3.820312 5.347656 3.78125 4.859375 C 3.75 4.378906 3.96875 3.859375 4.4375 3.296875 C 5.101562 2.460938 5.550781 1.628906 5.78125 0.796875 C 6.019531 -0.0351562 6.140625 -0.785156 6.140625 -1.453125 L 6.390625 0.25 C 5.222656 0.25 4.28125 -0.0859375 3.5625 -0.765625 C 2.851562 -1.453125 2.5 -2.363281 2.5 -3.5 C 2.5 -4.5625 2.828125 -5.429688 3.484375 -6.109375 C 4.148438 -6.796875 5.050781 -7.140625 6.1875 -7.140625 C 7.351562 -7.140625 8.265625 -6.75 8.921875 -5.96875 C 9.585938 -5.1875 9.921875 -4.0625 9.921875 -2.59375 C 9.921875 -1.789062 9.847656 -0.96875 9.703125 -0.125 C 9.554688 0.71875 9.273438 1.597656 8.859375 2.515625 C 8.441406 3.429688 7.832031 4.375 7.03125 5.34375 Z M 7.03125 5.34375 "/></g></g></g><g fill="#000000" fill-opacity="1"><g transform="translate(468.671609, 189.444361)"><g/></g></g><g fill="#000000" fill-opacity="1"><g transform="translate(482.189649, 189.444361)"><g><path d="M 6.640625 0 C 5.566406 0 4.789062 -0.238281 4.3125 -0.71875 C 3.832031 -1.207031 3.59375 -1.914062 3.59375 -2.84375 C 3.59375 -3.40625 3.738281 -3.953125 4.03125 -4.484375 C 4.332031 -5.015625 4.769531 -5.582031 5.34375 -6.1875 L 15.359375 -16.859375 C 16.890625 -18.453125 17.988281 -19.90625 18.65625 -21.21875 C 19.320312 -22.539062 19.65625 -23.863281 19.65625 -25.1875 C 19.65625 -26.851562 19.128906 -28.117188 18.078125 -28.984375 C 17.035156 -29.847656 15.515625 -30.28125 13.515625 -30.28125 C 12.390625 -30.28125 11.257812 -30.117188 10.125 -29.796875 C 9 -29.484375 7.851562 -28.945312 6.6875 -28.1875 C 6.082031 -27.789062 5.519531 -27.625 5 -27.6875 C 4.488281 -27.75 4.039062 -27.960938 3.65625 -28.328125 C 3.28125 -28.703125 3.023438 -29.15625 2.890625 -29.6875 C 2.753906 -30.21875 2.78125 -30.753906 2.96875 -31.296875 C 3.15625 -31.847656 3.546875 -32.328125 4.140625 -32.734375 C 5.566406 -33.691406 7.171875 -34.421875 8.953125 -34.921875 C 10.734375 -35.421875 12.519531 -35.671875 14.3125 -35.671875 C 16.84375 -35.671875 18.972656 -35.285156 20.703125 -34.515625 C 22.429688 -33.753906 23.742188 -32.640625 24.640625 -31.171875 C 25.546875 -29.710938 26 -27.9375 26 -25.84375 C 26 -24.445312 25.769531 -23.082031 25.3125 -21.75 C 24.863281 -20.414062 24.179688 -19.066406 23.265625 -17.703125 C 22.359375 -16.347656 21.171875 -14.90625 19.703125 -13.375 L 10.328125 -3.59375 L 10.328125 -5.28125 L 25 -5.28125 C 25.894531 -5.28125 26.570312 -5.0625 27.03125 -4.625 C 27.5 -4.195312 27.734375 -3.550781 27.734375 -2.6875 C 27.734375 -1.820312 27.5 -1.15625 27.03125 -0.6875 C 26.570312 -0.226562 25.894531 0 25 0 Z M 6.640625 0 "/></g></g></g><g fill="#000000" fill-opacity="1"><g transform="translate(512.118954, 189.444361)"><g><path d="M 15.265625 0.5 C 13.503906 0.5 11.707031 0.269531 9.875 -0.1875 C 8.050781 -0.65625 6.375 -1.375 4.84375 -2.34375 C 4.207031 -2.738281 3.78125 -3.210938 3.5625 -3.765625 C 3.351562 -4.316406 3.304688 -4.863281 3.421875 -5.40625 C 3.535156 -5.957031 3.78125 -6.425781 4.15625 -6.8125 C 4.539062 -7.195312 5.007812 -7.421875 5.5625 -7.484375 C 6.113281 -7.546875 6.722656 -7.394531 7.390625 -7.03125 C 8.617188 -6.332031 9.863281 -5.800781 11.125 -5.4375 C 12.382812 -5.070312 13.734375 -4.890625 15.171875 -4.890625 C 16.566406 -4.890625 17.757812 -5.140625 18.75 -5.640625 C 19.75 -6.140625 20.515625 -6.835938 21.046875 -7.734375 C 21.585938 -8.628906 21.859375 -9.675781 21.859375 -10.875 C 21.859375 -12.738281 21.289062 -14.242188 20.15625 -15.390625 C 19.019531 -16.535156 17.472656 -17.109375 15.515625 -17.109375 C 14.453125 -17.109375 13.421875 -16.929688 12.421875 -16.578125 C 11.421875 -16.234375 10.441406 -15.628906 9.484375 -14.765625 C 9.179688 -14.503906 8.796875 -14.25 8.328125 -14 C 7.867188 -13.75 7.367188 -13.625 6.828125 -13.625 C 6.003906 -13.625 5.375 -13.835938 4.9375 -14.265625 C 4.507812 -14.703125 4.296875 -15.300781 4.296875 -16.0625 L 4.296875 -32.375 C 4.296875 -33.269531 4.535156 -33.957031 5.015625 -34.4375 C 5.492188 -34.925781 6.179688 -35.171875 7.078125 -35.171875 L 23.5 -35.171875 C 24.394531 -35.171875 25.082031 -34.945312 25.5625 -34.5 C 26.050781 -34.050781 26.296875 -33.394531 26.296875 -32.53125 C 26.296875 -31.695312 26.050781 -31.046875 25.5625 -30.578125 C 25.082031 -30.117188 24.394531 -29.890625 23.5 -29.890625 L 10.53125 -29.890625 L 10.53125 -18.703125 L 8.875 -18.703125 C 9.738281 -19.867188 10.882812 -20.765625 12.3125 -21.390625 C 13.75 -22.023438 15.316406 -22.34375 17.015625 -22.34375 C 19.242188 -22.34375 21.179688 -21.867188 22.828125 -20.921875 C 24.472656 -19.972656 25.75 -18.660156 26.65625 -16.984375 C 27.570312 -15.304688 28.03125 -13.351562 28.03125 -11.125 C 28.03125 -8.832031 27.515625 -6.8125 26.484375 -5.0625 C 25.453125 -3.3125 23.976562 -1.945312 22.0625 -0.96875 C 20.15625 0.0078125 17.890625 0.5 15.265625 0.5 Z M 15.265625 0.5 "/></g></g></g><g fill="#000000" fill-opacity="1"><g transform="translate(542.048214, 189.444361)"><g><path d="M 7.03125 5.34375 C 6.601562 5.875 6.144531 6.179688 5.65625 6.265625 C 5.175781 6.347656 4.753906 6.253906 4.390625 5.984375 C 4.023438 5.722656 3.820312 5.347656 3.78125 4.859375 C 3.75 4.378906 3.96875 3.859375 4.4375 3.296875 C 5.101562 2.460938 5.550781 1.628906 5.78125 0.796875 C 6.019531 -0.0351562 6.140625 -0.785156 6.140625 -1.453125 L 6.390625 0.25 C 5.222656 0.25 4.28125 -0.0859375 3.5625 -0.765625 C 2.851562 -1.453125 2.5 -2.363281 2.5 -3.5 C 2.5 -4.5625 2.828125 -5.429688 3.484375 -6.109375 C 4.148438 -6.796875 5.050781 -7.140625 6.1875 -7.140625 C 7.351562 -7.140625 8.265625 -6.75 8.921875 -5.96875 C 9.585938 -5.1875 9.921875 -4.0625 9.921875 -2.59375 C 9.921875 -1.789062 9.847656 -0.96875 9.703125 -0.125 C 9.554688 0.71875 9.273438 1.597656 8.859375 2.515625 C 8.441406 3.429688 7.832031 4.375 7.03125 5.34375 Z M 7.03125 5.34375 "/></g></g></g><g fill="#000000" fill-opacity="1"><g transform="translate(554.418998, 189.444361)"><g/></g></g><g fill="#000000" fill-opacity="1"><g transform="translate(567.937061, 189.444361)"><g><path d="M 14.265625 0.5 C 12.472656 0.5 10.609375 0.269531 8.671875 -0.1875 C 6.742188 -0.65625 5.066406 -1.359375 3.640625 -2.296875 C 2.972656 -2.722656 2.523438 -3.21875 2.296875 -3.78125 C 2.066406 -4.351562 2.007812 -4.894531 2.125 -5.40625 C 2.238281 -5.925781 2.484375 -6.367188 2.859375 -6.734375 C 3.242188 -7.097656 3.726562 -7.3125 4.3125 -7.375 C 4.894531 -7.445312 5.535156 -7.300781 6.234375 -6.9375 C 7.597656 -6.207031 8.910156 -5.679688 10.171875 -5.359375 C 11.441406 -5.046875 12.738281 -4.890625 14.0625 -4.890625 C 15.53125 -4.890625 16.757812 -5.085938 17.75 -5.484375 C 18.75 -5.890625 19.503906 -6.488281 20.015625 -7.28125 C 20.535156 -8.082031 20.796875 -9.046875 20.796875 -10.171875 C 20.796875 -11.835938 20.238281 -13.078125 19.125 -13.890625 C 18.019531 -14.703125 16.398438 -15.109375 14.265625 -15.109375 L 11.078125 -15.109375 C 10.140625 -15.109375 9.429688 -15.34375 8.953125 -15.8125 C 8.472656 -16.28125 8.234375 -16.929688 8.234375 -17.765625 C 8.234375 -18.597656 8.472656 -19.242188 8.953125 -19.703125 C 9.429688 -20.171875 10.140625 -20.40625 11.078125 -20.40625 L 13.671875 -20.40625 C 14.929688 -20.40625 16.007812 -20.613281 16.90625 -21.03125 C 17.8125 -21.445312 18.507812 -22.035156 19 -22.796875 C 19.5 -23.566406 19.75 -24.5 19.75 -25.59375 C 19.75 -27.125 19.242188 -28.285156 18.234375 -29.078125 C 17.222656 -29.878906 15.75 -30.28125 13.8125 -30.28125 C 12.582031 -30.28125 11.425781 -30.140625 10.34375 -29.859375 C 9.269531 -29.578125 8.082031 -29.050781 6.78125 -28.28125 C 6.1875 -27.914062 5.613281 -27.765625 5.0625 -27.828125 C 4.507812 -27.898438 4.050781 -28.117188 3.6875 -28.484375 C 3.320312 -28.847656 3.070312 -29.285156 2.9375 -29.796875 C 2.8125 -30.316406 2.847656 -30.851562 3.046875 -31.40625 C 3.242188 -31.957031 3.660156 -32.429688 4.296875 -32.828125 C 5.722656 -33.753906 7.300781 -34.457031 9.03125 -34.9375 C 10.757812 -35.425781 12.539062 -35.671875 14.375 -35.671875 C 16.800781 -35.671875 18.878906 -35.296875 20.609375 -34.546875 C 22.335938 -33.796875 23.65625 -32.726562 24.5625 -31.34375 C 25.476562 -29.96875 25.9375 -28.300781 25.9375 -26.34375 C 25.9375 -24.945312 25.671875 -23.671875 25.140625 -22.515625 C 24.609375 -21.367188 23.859375 -20.394531 22.890625 -19.59375 C 21.929688 -18.800781 20.769531 -18.238281 19.40625 -17.90625 L 19.40625 -18.515625 C 21.800781 -18.109375 23.660156 -17.113281 24.984375 -15.53125 C 26.316406 -13.957031 26.984375 -11.988281 26.984375 -9.625 C 26.984375 -7.5625 26.46875 -5.765625 25.4375 -4.234375 C 24.40625 -2.710938 22.941406 -1.539062 21.046875 -0.71875 C 19.148438 0.09375 16.890625 0.5 14.265625 0.5 Z M 14.265625 0.5 "/></g></g></g><g fill="#000000" fill-opacity="1"><g transform="translate(597.866344, 189.444361)"><g><path d="M 16.265625 0.5 C 13.367188 0.5 10.894531 -0.1875 8.84375 -1.5625 C 6.800781 -2.945312 5.25 -4.9375 4.1875 -7.53125 C 3.125 -10.125 2.59375 -13.269531 2.59375 -16.96875 C 2.59375 -19.957031 2.929688 -22.609375 3.609375 -24.921875 C 4.296875 -27.234375 5.285156 -29.1875 6.578125 -30.78125 C 7.878906 -32.375 9.46875 -33.585938 11.34375 -34.421875 C 13.226562 -35.253906 15.351562 -35.671875 17.71875 -35.671875 C 19.175781 -35.671875 20.660156 -35.445312 22.171875 -35 C 23.691406 -34.550781 25.113281 -33.878906 26.4375 -32.984375 C 26.96875 -32.648438 27.316406 -32.210938 27.484375 -31.671875 C 27.648438 -31.140625 27.675781 -30.613281 27.5625 -30.09375 C 27.445312 -29.582031 27.210938 -29.132812 26.859375 -28.75 C 26.515625 -28.375 26.078125 -28.144531 25.546875 -28.0625 C 25.015625 -27.976562 24.429688 -28.117188 23.796875 -28.484375 C 22.660156 -29.148438 21.59375 -29.613281 20.59375 -29.875 C 19.601562 -30.144531 18.609375 -30.28125 17.609375 -30.28125 C 15.679688 -30.28125 14.050781 -29.832031 12.71875 -28.9375 C 11.382812 -28.039062 10.378906 -26.691406 9.703125 -24.890625 C 9.023438 -23.097656 8.6875 -20.851562 8.6875 -18.15625 L 8.6875 -14.421875 L 8.078125 -14.421875 C 8.347656 -16.117188 8.90625 -17.570312 9.75 -18.78125 C 10.601562 -20 11.691406 -20.929688 13.015625 -21.578125 C 14.347656 -22.222656 15.832031 -22.546875 17.46875 -22.546875 C 19.488281 -22.546875 21.28125 -22.0625 22.84375 -21.09375 C 24.40625 -20.132812 25.632812 -18.804688 26.53125 -17.109375 C 27.4375 -15.410156 27.890625 -13.46875 27.890625 -11.28125 C 27.890625 -9.007812 27.394531 -6.984375 26.40625 -5.203125 C 25.425781 -3.429688 24.0625 -2.035156 22.3125 -1.015625 C 20.570312 -0.00390625 18.554688 0.5 16.265625 0.5 Z M 15.921875 -4.59375 C 17.117188 -4.59375 18.171875 -4.859375 19.078125 -5.390625 C 19.992188 -5.921875 20.703125 -6.675781 21.203125 -7.65625 C 21.703125 -8.632812 21.953125 -9.757812 21.953125 -11.03125 C 21.953125 -12.320312 21.703125 -13.445312 21.203125 -14.40625 C 20.703125 -15.375 19.992188 -16.132812 19.078125 -16.6875 C 18.171875 -17.238281 17.117188 -17.515625 15.921875 -17.515625 C 14.722656 -17.515625 13.671875 -17.238281 12.765625 -16.6875 C 11.867188 -16.132812 11.160156 -15.375 10.640625 -14.40625 C 10.128906 -13.445312 9.875 -12.320312 9.875 -11.03125 C 9.875 -9.757812 10.128906 -8.632812 10.640625 -7.65625 C 11.160156 -6.675781 11.867188 -5.921875 12.765625 -5.390625 C 13.671875 -4.859375 14.722656 -4.59375 15.921875 -4.59375 Z M 15.921875 -4.59375 "/></g></g></g><g fill="#000000" fill-opacity="1"><g transform="translate(627.795626, 189.444361)"><g><path d="M 7.03125 5.34375 C 6.601562 5.875 6.144531 6.179688 5.65625 6.265625 C 5.175781 6.347656 4.753906 6.253906 4.390625 5.984375 C 4.023438 5.722656 3.820312 5.347656 3.78125 4.859375 C 3.75 4.378906 3.96875 3.859375 4.4375 3.296875 C 5.101562 2.460938 5.550781 1.628906 5.78125 0.796875 C 6.019531 -0.0351562 6.140625 -0.785156 6.140625 -1.453125 L 6.390625 0.25 C 5.222656 0.25 4.28125 -0.0859375 3.5625 -0.765625 C 2.851562 -1.453125 2.5 -2.363281 2.5 -3.5 C 2.5 -4.5625 2.828125 -5.429688 3.484375 -6.109375 C 4.148438 -6.796875 5.050781 -7.140625 6.1875 -7.140625 C 7.351562 -7.140625 8.265625 -6.75 8.921875 -5.96875 C 9.585938 -5.1875 9.921875 -4.0625 9.921875 -2.59375 C 9.921875 -1.789062 9.847656 -0.96875 9.703125 -0.125 C 9.554688 0.71875 9.273438 1.597656 8.859375 2.515625 C 8.441406 3.429688 7.832031 4.375 7.03125 5.34375 Z M 7.03125 5.34375 "/></g></g></g><g fill="#000000" fill-opacity="1"><g transform="translate(640.166388, 189.444361)"><g/></g></g><g fill="#000000" fill-opacity="1"><g transform="translate(653.684474, 189.444361)"><g><path d="M 6.234375 0.25 C 5.109375 0.25 4.203125 -0.0976562 3.515625 -0.796875 C 2.835938 -1.492188 2.5 -2.394531 2.5 -3.5 C 2.5 -4.5625 2.835938 -5.429688 3.515625 -6.109375 C 4.203125 -6.796875 5.109375 -7.140625 6.234375 -7.140625 C 7.398438 -7.140625 8.304688 -6.796875 8.953125 -6.109375 C 9.597656 -5.429688 9.921875 -4.5625 9.921875 -3.5 C 9.921875 -2.394531 9.597656 -1.492188 8.953125 -0.796875 C 8.304688 -0.0976562 7.398438 0.25 6.234375 0.25 Z M 6.234375 0.25 "/></g></g></g><g fill="#000000" fill-opacity="1"><g transform="translate(666.055236, 189.444361)"><g><path d="M 6.234375 0.25 C 5.109375 0.25 4.203125 -0.0976562 3.515625 -0.796875 C 2.835938 -1.492188 2.5 -2.394531 2.5 -3.5 C 2.5 -4.5625 2.835938 -5.429688 3.515625 -6.109375 C 4.203125 -6.796875 5.109375 -7.140625 6.234375 -7.140625 C 7.398438 -7.140625 8.304688 -6.796875 8.953125 -6.109375 C 9.597656 -5.429688 9.921875 -4.5625 9.921875 -3.5 C 9.921875 -2.394531 9.597656 -1.492188 8.953125 -0.796875 C 8.304688 -0.0976562 7.398438 0.25 6.234375 0.25 Z M 6.234375 0.25 "/></g></g></g><g fill="#000000" fill-opacity="1"><g transform="translate(678.425998, 189.444361)"><g><path d="M 6.234375 0.25 C 5.109375 0.25 4.203125 -0.0976562 3.515625 -0.796875 C 2.835938 -1.492188 2.5 -2.394531 2.5 -3.5 C 2.5 -4.5625 2.835938 -5.429688 3.515625 -6.109375 C 4.203125 -6.796875 5.109375 -7.140625 6.234375 -7.140625 C 7.398438 -7.140625 8.304688 -6.796875 8.953125 -6.109375 C 9.597656 -5.429688 9.921875 -4.5625 9.921875 -3.5 C 9.921875 -2.394531 9.597656 -1.492188 8.953125 -0.796875 C 8.304688 -0.0976562 7.398438 0.25 6.234375 0.25 Z M 6.234375 0.25 "/></g></g></g></svg>