<svg xmlns="http://www.w3.org/2000/svg" xmlns:xlink="http://www.w3.org/1999/xlink" width="560" zoomAndPan="magnify" viewBox="0 0 420 74.249996" height="99" preserveAspectRatio="xMidYMid meet" version="1.0"><defs><g/><clipPath id="ac0d39e4a8"><path d="M 2.109375 0 L 417.585938 0 L 417.585938 72.765625 L 2.109375 72.765625 Z M 2.109375 0 " clip-rule="nonzero"/></clipPath></defs><g clip-path="url(#ac0d39e4a8)"><path stroke-linecap="butt" transform="matrix(0.7425, 0, 0, 0.7425, 2.11108, -0.00000198)" fill="none" stroke-linejoin="miter" d="M -0.00229652 0.00000266667 L 559.562151 0.00000266667 L 559.562151 98.158682 L -0.00229652 98.158682 Z M -0.00229652 0.00000266667 " stroke="#000000" stroke-width="12" stroke-opacity="1" stroke-miterlimit="4"/></g><g fill="#000000" fill-opacity="1"><g transform="translate(32.335353, 49.064615)"><g><path d="M 26.25 4.46875 C 26.625 5.050781 26.769531 5.578125 26.6875 6.046875 C 26.601562 6.523438 26.390625 6.929688 26.046875 7.265625 C 25.703125 7.597656 25.28125 7.804688 24.78125 7.890625 C 24.28125 7.984375 23.78125 7.929688 23.28125 7.734375 C 22.78125 7.535156 22.359375 7.160156 22.015625 6.609375 L 19.28125 2.21875 C 18.914062 1.613281 18.421875 1.15625 17.796875 0.84375 C 17.171875 0.539062 16.410156 0.390625 15.515625 0.390625 L 19.4375 -1.140625 C 20.675781 -1.140625 21.664062 -0.921875 22.40625 -0.484375 C 23.144531 -0.0546875 23.859375 0.695312 24.546875 1.78125 Z M 15.5625 0.390625 C 12.863281 0.390625 10.503906 -0.203125 8.484375 -1.390625 C 6.472656 -2.578125 4.910156 -4.242188 3.796875 -6.390625 C 2.691406 -8.546875 2.140625 -11.078125 2.140625 -13.984375 C 2.140625 -16.171875 2.453125 -18.140625 3.078125 -19.890625 C 3.710938 -21.648438 4.617188 -23.15625 5.796875 -24.40625 C 6.972656 -25.664062 8.382812 -26.628906 10.03125 -27.296875 C 11.6875 -27.972656 13.53125 -28.3125 15.5625 -28.3125 C 18.28125 -28.3125 20.640625 -27.722656 22.640625 -26.546875 C 24.648438 -25.367188 26.207031 -23.710938 27.3125 -21.578125 C 28.425781 -19.441406 28.984375 -16.921875 28.984375 -14.015625 C 28.984375 -11.828125 28.664062 -9.847656 28.03125 -8.078125 C 27.394531 -6.304688 26.488281 -4.785156 25.3125 -3.515625 C 24.144531 -2.253906 22.734375 -1.285156 21.078125 -0.609375 C 19.429688 0.0546875 17.59375 0.390625 15.5625 0.390625 Z M 15.5625 -3.953125 C 17.28125 -3.953125 18.738281 -4.347656 19.9375 -5.140625 C 21.132812 -5.929688 22.054688 -7.078125 22.703125 -8.578125 C 23.347656 -10.085938 23.671875 -11.890625 23.671875 -13.984375 C 23.671875 -17.148438 22.960938 -19.601562 21.546875 -21.34375 C 20.140625 -23.082031 18.144531 -23.953125 15.5625 -23.953125 C 13.875 -23.953125 12.421875 -23.5625 11.203125 -22.78125 C 9.992188 -22.007812 9.0625 -20.875 8.40625 -19.375 C 7.757812 -17.882812 7.4375 -16.085938 7.4375 -13.984375 C 7.4375 -10.835938 8.148438 -8.378906 9.578125 -6.609375 C 11.003906 -4.835938 13 -3.953125 15.5625 -3.953125 Z M 15.5625 -3.953125 "/></g></g></g><g fill="#000000" fill-opacity="1"><g transform="translate(63.418259, 49.064615)"><g/></g></g><g fill="#000000" fill-opacity="1"><g transform="translate(74.148797, 49.064615)"><g><path d="M 3.6875 -13.578125 C 3.125 -13.578125 2.6875 -13.726562 2.375 -14.03125 C 2.0625 -14.332031 1.90625 -14.765625 1.90625 -15.328125 C 1.90625 -15.878906 2.0625 -16.304688 2.375 -16.609375 C 2.6875 -16.910156 3.125 -17.0625 3.6875 -17.0625 L 20.078125 -17.0625 C 20.648438 -17.0625 21.085938 -16.910156 21.390625 -16.609375 C 21.703125 -16.304688 21.859375 -15.878906 21.859375 -15.328125 C 21.859375 -14.765625 21.703125 -14.332031 21.390625 -14.03125 C 21.085938 -13.726562 20.648438 -13.578125 20.078125 -13.578125 Z M 3.6875 -5.703125 C 3.125 -5.703125 2.6875 -5.851562 2.375 -6.15625 C 2.0625 -6.457031 1.90625 -6.882812 1.90625 -7.4375 C 1.90625 -8 2.0625 -8.421875 2.375 -8.703125 C 2.6875 -8.992188 3.125 -9.140625 3.6875 -9.140625 L 20.078125 -9.140625 C 20.648438 -9.140625 21.085938 -8.992188 21.390625 -8.703125 C 21.703125 -8.421875 21.859375 -8 21.859375 -7.4375 C 21.859375 -6.863281 21.703125 -6.429688 21.390625 -6.140625 C 21.085938 -5.847656 20.648438 -5.703125 20.078125 -5.703125 Z M 3.6875 -5.703125 "/></g></g></g><g fill="#000000" fill-opacity="1"><g transform="translate(97.906438, 49.064615)"><g/></g></g><g fill="#000000" fill-opacity="1"><g transform="translate(108.636976, 49.064615)"><g><path d="M 12.90625 0.390625 C 10.613281 0.390625 8.65625 -0.15625 7.03125 -1.25 C 5.40625 -2.34375 4.171875 -3.914062 3.328125 -5.96875 C 2.484375 -8.03125 2.0625 -10.53125 2.0625 -13.46875 C 2.0625 -15.84375 2.332031 -17.945312 2.875 -19.78125 C 3.414062 -21.613281 4.195312 -23.160156 5.21875 -24.421875 C 6.25 -25.691406 7.507812 -26.65625 9 -27.3125 C 10.5 -27.976562 12.1875 -28.3125 14.0625 -28.3125 C 15.21875 -28.3125 16.394531 -28.128906 17.59375 -27.765625 C 18.800781 -27.410156 19.929688 -26.878906 20.984375 -26.171875 C 21.410156 -25.910156 21.6875 -25.566406 21.8125 -25.140625 C 21.945312 -24.722656 21.96875 -24.304688 21.875 -23.890625 C 21.78125 -23.484375 21.59375 -23.128906 21.3125 -22.828125 C 21.039062 -22.523438 20.691406 -22.335938 20.265625 -22.265625 C 19.847656 -22.203125 19.390625 -22.316406 18.890625 -22.609375 C 17.992188 -23.140625 17.148438 -23.507812 16.359375 -23.71875 C 15.566406 -23.925781 14.773438 -24.03125 13.984375 -24.03125 C 12.453125 -24.03125 11.15625 -23.671875 10.09375 -22.953125 C 9.039062 -22.242188 8.242188 -21.175781 7.703125 -19.75 C 7.160156 -18.332031 6.890625 -16.550781 6.890625 -14.40625 L 6.890625 -11.4375 L 6.421875 -11.4375 C 6.628906 -12.789062 7.066406 -13.945312 7.734375 -14.90625 C 8.410156 -15.875 9.273438 -16.613281 10.328125 -17.125 C 11.390625 -17.632812 12.566406 -17.890625 13.859375 -17.890625 C 15.460938 -17.890625 16.882812 -17.503906 18.125 -16.734375 C 19.375 -15.972656 20.351562 -14.921875 21.0625 -13.578125 C 21.78125 -12.234375 22.140625 -10.691406 22.140625 -8.953125 C 22.140625 -7.148438 21.75 -5.539062 20.96875 -4.125 C 20.1875 -2.71875 19.101562 -1.613281 17.71875 -0.8125 C 16.332031 -0.0078125 14.726562 0.390625 12.90625 0.390625 Z M 12.625 -3.640625 C 13.582031 -3.640625 14.421875 -3.847656 15.140625 -4.265625 C 15.867188 -4.691406 16.429688 -5.296875 16.828125 -6.078125 C 17.222656 -6.859375 17.421875 -7.75 17.421875 -8.75 C 17.421875 -9.78125 17.222656 -10.675781 16.828125 -11.4375 C 16.429688 -12.207031 15.867188 -12.804688 15.140625 -13.234375 C 14.421875 -13.671875 13.582031 -13.890625 12.625 -13.890625 C 11.675781 -13.890625 10.84375 -13.671875 10.125 -13.234375 C 9.414062 -12.804688 8.859375 -12.207031 8.453125 -11.4375 C 8.046875 -10.675781 7.84375 -9.78125 7.84375 -8.75 C 7.84375 -7.75 8.046875 -6.859375 8.453125 -6.078125 C 8.859375 -5.296875 9.414062 -4.691406 10.125 -4.265625 C 10.84375 -3.847656 11.675781 -3.640625 12.625 -3.640625 Z M 12.625 -3.640625 "/></g></g></g><g fill="#000000" fill-opacity="1"><g transform="translate(132.394617, 49.064615)"><g><path d="M 11.875 0.390625 C 8.570312 0.390625 6.050781 -0.851562 4.3125 -3.34375 C 2.570312 -5.84375 1.703125 -9.398438 1.703125 -14.015625 C 1.703125 -17.128906 2.085938 -19.75 2.859375 -21.875 C 3.640625 -24 4.789062 -25.601562 6.3125 -26.6875 C 7.832031 -27.769531 9.6875 -28.3125 11.875 -28.3125 C 15.195312 -28.3125 17.722656 -27.097656 19.453125 -24.671875 C 21.179688 -22.242188 22.046875 -18.707031 22.046875 -14.0625 C 22.046875 -10.96875 21.65625 -8.34375 20.875 -6.1875 C 20.101562 -4.039062 18.960938 -2.40625 17.453125 -1.28125 C 15.953125 -0.164062 14.09375 0.390625 11.875 0.390625 Z M 11.875 -3.765625 C 13.675781 -3.765625 15.003906 -4.59375 15.859375 -6.25 C 16.710938 -7.914062 17.140625 -10.519531 17.140625 -14.0625 C 17.140625 -17.59375 16.710938 -20.15625 15.859375 -21.75 C 15.003906 -23.351562 13.675781 -24.15625 11.875 -24.15625 C 10.101562 -24.15625 8.78125 -23.351562 7.90625 -21.75 C 7.039062 -20.15625 6.609375 -17.59375 6.609375 -14.0625 C 6.609375 -10.519531 7.039062 -7.914062 7.90625 -6.25 C 8.78125 -4.59375 10.101562 -3.765625 11.875 -3.765625 Z M 11.875 -3.765625 "/></g></g></g><g fill="#000000" fill-opacity="1"><g transform="translate(156.152258, 49.064615)"><g><path d="M 5.578125 4.234375 C 5.234375 4.660156 4.867188 4.90625 4.484375 4.96875 C 4.109375 5.03125 3.773438 4.957031 3.484375 4.75 C 3.191406 4.539062 3.03125 4.242188 3 3.859375 C 2.976562 3.472656 3.15625 3.054688 3.53125 2.609375 C 4.050781 1.953125 4.40625 1.289062 4.59375 0.625 C 4.78125 -0.03125 4.875 -0.617188 4.875 -1.140625 L 5.0625 0.203125 C 4.144531 0.203125 3.398438 -0.0664062 2.828125 -0.609375 C 2.265625 -1.148438 1.984375 -1.867188 1.984375 -2.765625 C 1.984375 -3.609375 2.242188 -4.300781 2.765625 -4.84375 C 3.296875 -5.382812 4.007812 -5.65625 4.90625 -5.65625 C 5.832031 -5.65625 6.554688 -5.34375 7.078125 -4.71875 C 7.609375 -4.101562 7.875 -3.21875 7.875 -2.0625 C 7.875 -1.425781 7.8125 -0.769531 7.6875 -0.09375 C 7.570312 0.570312 7.347656 1.269531 7.015625 2 C 6.691406 2.726562 6.210938 3.472656 5.578125 4.234375 Z M 5.578125 4.234375 "/></g></g></g><g fill="#000000" fill-opacity="1"><g transform="translate(165.972085, 49.064615)"><g/></g></g><g fill="#000000" fill-opacity="1"><g transform="translate(176.702623, 49.064615)"><g><path d="M 5.578125 0.3125 C 4.765625 0.3125 4.140625 0.0820312 3.703125 -0.375 C 3.265625 -0.832031 3.046875 -1.472656 3.046875 -2.296875 L 3.046875 -25.34375 C 3.046875 -26.1875 3.269531 -26.820312 3.71875 -27.25 C 4.164062 -27.6875 4.800781 -27.90625 5.625 -27.90625 L 15.171875 -27.90625 C 18.222656 -27.90625 20.582031 -27.171875 22.25 -25.703125 C 23.914062 -24.242188 24.75 -22.195312 24.75 -19.5625 C 24.75 -17.84375 24.367188 -16.363281 23.609375 -15.125 C 22.859375 -13.882812 21.769531 -12.929688 20.34375 -12.265625 C 18.925781 -11.609375 17.203125 -11.28125 15.171875 -11.28125 L 15.515625 -11.875 L 16.828125 -11.875 C 17.910156 -11.875 18.851562 -11.609375 19.65625 -11.078125 C 20.457031 -10.554688 21.164062 -9.726562 21.78125 -8.59375 L 24.75 -3.09375 C 25.0625 -2.53125 25.203125 -1.984375 25.171875 -1.453125 C 25.148438 -0.929688 24.953125 -0.503906 24.578125 -0.171875 C 24.210938 0.148438 23.675781 0.3125 22.96875 0.3125 C 22.25 0.3125 21.664062 0.160156 21.21875 -0.140625 C 20.769531 -0.441406 20.375 -0.910156 20.03125 -1.546875 L 16.03125 -8.90625 C 15.5625 -9.800781 15 -10.398438 14.34375 -10.703125 C 13.695312 -11.015625 12.875 -11.171875 11.875 -11.171875 L 8.109375 -11.171875 L 8.109375 -2.296875 C 8.109375 -1.472656 7.894531 -0.832031 7.46875 -0.375 C 7.050781 0.0820312 6.421875 0.3125 5.578125 0.3125 Z M 8.109375 -14.921875 L 14.296875 -14.921875 C 16.117188 -14.921875 17.5 -15.296875 18.4375 -16.046875 C 19.375 -16.804688 19.84375 -17.9375 19.84375 -19.4375 C 19.84375 -20.914062 19.375 -22.03125 18.4375 -22.78125 C 17.5 -23.539062 16.117188 -23.921875 14.296875 -23.921875 L 8.109375 -23.921875 Z M 8.109375 -14.921875 "/></g></g></g><g fill="#000000" fill-opacity="1"><g transform="translate(203.865526, 49.064615)"><g/></g></g><g fill="#000000" fill-opacity="1"><g transform="translate(214.596064, 49.064615)"><g><path d="M 3.6875 -13.578125 C 3.125 -13.578125 2.6875 -13.726562 2.375 -14.03125 C 2.0625 -14.332031 1.90625 -14.765625 1.90625 -15.328125 C 1.90625 -15.878906 2.0625 -16.304688 2.375 -16.609375 C 2.6875 -16.910156 3.125 -17.0625 3.6875 -17.0625 L 20.078125 -17.0625 C 20.648438 -17.0625 21.085938 -16.910156 21.390625 -16.609375 C 21.703125 -16.304688 21.859375 -15.878906 21.859375 -15.328125 C 21.859375 -14.765625 21.703125 -14.332031 21.390625 -14.03125 C 21.085938 -13.726562 20.648438 -13.578125 20.078125 -13.578125 Z M 3.6875 -5.703125 C 3.125 -5.703125 2.6875 -5.851562 2.375 -6.15625 C 2.0625 -6.457031 1.90625 -6.882812 1.90625 -7.4375 C 1.90625 -8 2.0625 -8.421875 2.375 -8.703125 C 2.6875 -8.992188 3.125 -9.140625 3.6875 -9.140625 L 20.078125 -9.140625 C 20.648438 -9.140625 21.085938 -8.992188 21.390625 -8.703125 C 21.703125 -8.421875 21.859375 -8 21.859375 -7.4375 C 21.859375 -6.863281 21.703125 -6.429688 21.390625 -6.140625 C 21.085938 -5.847656 20.648438 -5.703125 20.078125 -5.703125 Z M 3.6875 -5.703125 "/></g></g></g><g fill="#000000" fill-opacity="1"><g transform="translate(238.353705, 49.064615)"><g/></g></g><g fill="#000000" fill-opacity="1"><g transform="translate(249.084243, 49.064615)"><g><path d="M 12.109375 0.390625 C 10.710938 0.390625 9.285156 0.207031 7.828125 -0.15625 C 6.378906 -0.53125 5.050781 -1.097656 3.84375 -1.859375 C 3.34375 -2.179688 3.003906 -2.554688 2.828125 -2.984375 C 2.660156 -3.421875 2.617188 -3.859375 2.703125 -4.296875 C 2.796875 -4.734375 2.992188 -5.101562 3.296875 -5.40625 C 3.609375 -5.707031 3.976562 -5.882812 4.40625 -5.9375 C 4.84375 -5.988281 5.328125 -5.867188 5.859375 -5.578125 C 6.835938 -5.023438 7.828125 -4.601562 8.828125 -4.3125 C 9.828125 -4.019531 10.894531 -3.875 12.03125 -3.875 C 13.144531 -3.875 14.097656 -4.070312 14.890625 -4.46875 C 15.679688 -4.863281 16.285156 -5.414062 16.703125 -6.125 C 17.128906 -6.84375 17.34375 -7.675781 17.34375 -8.625 C 17.34375 -10.101562 16.894531 -11.296875 16 -12.203125 C 15.101562 -13.117188 13.875 -13.578125 12.3125 -13.578125 C 11.46875 -13.578125 10.648438 -13.4375 9.859375 -13.15625 C 9.066406 -12.882812 8.285156 -12.40625 7.515625 -11.71875 C 7.285156 -11.507812 6.984375 -11.304688 6.609375 -11.109375 C 6.242188 -10.910156 5.847656 -10.8125 5.421875 -10.8125 C 4.765625 -10.8125 4.265625 -10.984375 3.921875 -11.328125 C 3.578125 -11.671875 3.40625 -12.144531 3.40625 -12.75 L 3.40625 -25.703125 C 3.40625 -26.410156 3.59375 -26.953125 3.96875 -27.328125 C 4.351562 -27.710938 4.90625 -27.90625 5.625 -27.90625 L 18.65625 -27.90625 C 19.363281 -27.90625 19.90625 -27.726562 20.28125 -27.375 C 20.664062 -27.019531 20.859375 -26.5 20.859375 -25.8125 C 20.859375 -25.15625 20.664062 -24.640625 20.28125 -24.265625 C 19.90625 -23.898438 19.363281 -23.71875 18.65625 -23.71875 L 8.359375 -23.71875 L 8.359375 -14.84375 L 7.046875 -14.84375 C 7.734375 -15.769531 8.644531 -16.484375 9.78125 -16.984375 C 10.914062 -17.484375 12.15625 -17.734375 13.5 -17.734375 C 15.269531 -17.734375 16.804688 -17.359375 18.109375 -16.609375 C 19.421875 -15.859375 20.4375 -14.816406 21.15625 -13.484375 C 21.882812 -12.148438 22.25 -10.597656 22.25 -8.828125 C 22.25 -7.003906 21.835938 -5.398438 21.015625 -4.015625 C 20.203125 -2.628906 19.035156 -1.546875 17.515625 -0.765625 C 16.003906 0.00390625 14.203125 0.390625 12.109375 0.390625 Z M 12.109375 0.390625 "/></g></g></g><g fill="#000000" fill-opacity="1"><g transform="translate(272.841884, 49.064615)"><g><path d="M 5.578125 4.234375 C 5.234375 4.660156 4.867188 4.90625 4.484375 4.96875 C 4.109375 5.03125 3.773438 4.957031 3.484375 4.75 C 3.191406 4.539062 3.03125 4.242188 3 3.859375 C 2.976562 3.472656 3.15625 3.054688 3.53125 2.609375 C 4.050781 1.953125 4.40625 1.289062 4.59375 0.625 C 4.78125 -0.03125 4.875 -0.617188 4.875 -1.140625 L 5.0625 0.203125 C 4.144531 0.203125 3.398438 -0.0664062 2.828125 -0.609375 C 2.265625 -1.148438 1.984375 -1.867188 1.984375 -2.765625 C 1.984375 -3.609375 2.242188 -4.300781 2.765625 -4.84375 C 3.296875 -5.382812 4.007812 -5.65625 4.90625 -5.65625 C 5.832031 -5.65625 6.554688 -5.34375 7.078125 -4.71875 C 7.609375 -4.101562 7.875 -3.21875 7.875 -2.0625 C 7.875 -1.425781 7.8125 -0.769531 7.6875 -0.09375 C 7.570312 0.570312 7.347656 1.269531 7.015625 2 C 6.691406 2.726562 6.210938 3.472656 5.578125 4.234375 Z M 5.578125 4.234375 "/></g></g></g><g fill="#000000" fill-opacity="1"><g transform="translate(282.661699, 49.064615)"><g/></g></g><g fill="#000000" fill-opacity="1"><g transform="translate(293.392237, 49.064615)"><g><path d="M 12.671875 0.390625 C 11.503906 0.390625 10.335938 0.300781 9.171875 0.125 C 8.015625 -0.0390625 6.921875 -0.300781 5.890625 -0.65625 C 4.867188 -1.007812 3.945312 -1.453125 3.125 -1.984375 C 2.65625 -2.296875 2.328125 -2.675781 2.140625 -3.125 C 1.953125 -3.570312 1.890625 -4.015625 1.953125 -4.453125 C 2.023438 -4.890625 2.195312 -5.269531 2.46875 -5.59375 C 2.75 -5.925781 3.097656 -6.128906 3.515625 -6.203125 C 3.941406 -6.285156 4.40625 -6.171875 4.90625 -5.859375 C 6.070312 -5.171875 7.300781 -4.664062 8.59375 -4.34375 C 9.882812 -4.03125 11.242188 -3.875 12.671875 -3.875 C 14.753906 -3.875 16.269531 -4.222656 17.21875 -4.921875 C 18.175781 -5.628906 18.65625 -6.535156 18.65625 -7.640625 C 18.65625 -8.566406 18.316406 -9.289062 17.640625 -9.8125 C 16.960938 -10.34375 15.804688 -10.78125 14.171875 -11.125 L 9.8125 -12.03125 C 7.3125 -12.5625 5.445312 -13.453125 4.21875 -14.703125 C 2.988281 -15.960938 2.375 -17.617188 2.375 -19.671875 C 2.375 -20.972656 2.632812 -22.148438 3.15625 -23.203125 C 3.6875 -24.253906 4.429688 -25.160156 5.390625 -25.921875 C 6.359375 -26.691406 7.507812 -27.28125 8.84375 -27.6875 C 10.175781 -28.101562 11.648438 -28.3125 13.265625 -28.3125 C 14.847656 -28.3125 16.351562 -28.113281 17.78125 -27.71875 C 19.207031 -27.320312 20.488281 -26.738281 21.625 -25.96875 C 22.039062 -25.675781 22.320312 -25.316406 22.46875 -24.890625 C 22.613281 -24.472656 22.644531 -24.0625 22.5625 -23.65625 C 22.488281 -23.25 22.304688 -22.898438 22.015625 -22.609375 C 21.722656 -22.316406 21.359375 -22.144531 20.921875 -22.09375 C 20.484375 -22.039062 19.988281 -22.171875 19.4375 -22.484375 C 18.457031 -23.046875 17.46875 -23.441406 16.46875 -23.671875 C 15.46875 -23.910156 14.382812 -24.03125 13.21875 -24.03125 C 12.007812 -24.03125 10.96875 -23.859375 10.09375 -23.515625 C 9.226562 -23.171875 8.5625 -22.6875 8.09375 -22.0625 C 7.632812 -21.445312 7.40625 -20.71875 7.40625 -19.875 C 7.40625 -18.925781 7.71875 -18.164062 8.34375 -17.59375 C 8.976562 -17.03125 10.0625 -16.585938 11.59375 -16.265625 L 15.921875 -15.359375 C 18.535156 -14.804688 20.476562 -13.9375 21.75 -12.75 C 23.03125 -11.5625 23.671875 -9.976562 23.671875 -8 C 23.671875 -6.726562 23.414062 -5.578125 22.90625 -4.546875 C 22.394531 -3.523438 21.65625 -2.644531 20.6875 -1.90625 C 19.726562 -1.164062 18.570312 -0.597656 17.21875 -0.203125 C 15.875 0.191406 14.359375 0.390625 12.671875 0.390625 Z M 12.671875 0.390625 "/></g></g></g><g fill="#000000" fill-opacity="1"><g transform="translate(318.377377, 49.064615)"><g/></g></g><g fill="#000000" fill-opacity="1"><g transform="translate(329.107915, 49.064615)"><g><path d="M 3.6875 -13.578125 C 3.125 -13.578125 2.6875 -13.726562 2.375 -14.03125 C 2.0625 -14.332031 1.90625 -14.765625 1.90625 -15.328125 C 1.90625 -15.878906 2.0625 -16.304688 2.375 -16.609375 C 2.6875 -16.910156 3.125 -17.0625 3.6875 -17.0625 L 20.078125 -17.0625 C 20.648438 -17.0625 21.085938 -16.910156 21.390625 -16.609375 C 21.703125 -16.304688 21.859375 -15.878906 21.859375 -15.328125 C 21.859375 -14.765625 21.703125 -14.332031 21.390625 -14.03125 C 21.085938 -13.726562 20.648438 -13.578125 20.078125 -13.578125 Z M 3.6875 -5.703125 C 3.125 -5.703125 2.6875 -5.851562 2.375 -6.15625 C 2.0625 -6.457031 1.90625 -6.882812 1.90625 -7.4375 C 1.90625 -8 2.0625 -8.421875 2.375 -8.703125 C 2.6875 -8.992188 3.125 -9.140625 3.6875 -9.140625 L 20.078125 -9.140625 C 20.648438 -9.140625 21.085938 -8.992188 21.390625 -8.703125 C 21.703125 -8.421875 21.859375 -8 21.859375 -7.4375 C 21.859375 -6.863281 21.703125 -6.429688 21.390625 -6.140625 C 21.085938 -5.847656 20.648438 -5.703125 20.078125 -5.703125 Z M 3.6875 -5.703125 "/></g></g></g><g fill="#000000" fill-opacity="1"><g transform="translate(352.865556, 49.064615)"><g/></g></g><g fill="#000000" fill-opacity="1"><g transform="translate(363.596094, 49.064615)"><g><path d="M 6.8125 0.3125 C 6.207031 0.3125 5.707031 0.171875 5.3125 -0.109375 C 4.914062 -0.398438 4.675781 -0.789062 4.59375 -1.28125 C 4.507812 -1.769531 4.628906 -2.320312 4.953125 -2.9375 L 16.90625 -25.421875 L 16.90625 -23.671875 L 4.078125 -23.671875 C 3.367188 -23.671875 2.820312 -23.851562 2.4375 -24.21875 C 2.050781 -24.59375 1.859375 -25.113281 1.859375 -25.78125 C 1.859375 -26.46875 2.050781 -26.992188 2.4375 -27.359375 C 2.820312 -27.722656 3.367188 -27.90625 4.078125 -27.90625 L 19.40625 -27.90625 C 20.113281 -27.90625 20.691406 -27.722656 21.140625 -27.359375 C 21.585938 -26.992188 21.8125 -26.46875 21.8125 -25.78125 C 21.8125 -25.195312 21.734375 -24.6875 21.578125 -24.25 C 21.421875 -23.8125 21.207031 -23.34375 20.9375 -22.84375 L 9.703125 -1.34375 C 9.410156 -0.757812 9.03125 -0.335938 8.5625 -0.078125 C 8.101562 0.179688 7.519531 0.3125 6.8125 0.3125 Z M 6.8125 0.3125 "/></g></g></g></svg>